<?xml version="1.0" encoding="UTF-8"?>
<svg id="Layer_1" xmlns="http://www.w3.org/2000/svg" version="1.1" viewBox="0 0 43 43">
  <!-- Generator: Adobe Illustrator 30.1.0, SVG Export Plug-In . SVG Version: 2.1.1 Build 136)  -->
  <path d="M21.5,9.06c.4,0,.81.21,1.02.63l2.6,5.17c.45.89,1.28,1.51,2.25,1.7l5.63,1.06c.88.17,1.24,1.24.63,1.9l-4.1,4.5c-.63.69-.93,1.63-.8,2.57l.8,6.07c.1.72-.48,1.3-1.13,1.3-.17,0-.35-.04-.52-.13l-4.93-2.54c-.46-.24-.96-.35-1.46-.35-.5,0-1,.12-1.46.35l-4.93,2.54c-.17.09-.35.13-.52.13-.65,0-1.23-.57-1.13-1.3l.8-6.07c.12-.93-.17-1.87-.8-2.56l-4.1-4.5c-.6-.66-.25-1.73.63-1.9l5.63-1.06c.97-.18,1.81-.81,2.25-1.7l2.6-5.17c.21-.42.62-.63,1.02-.63M21.5,0C17.62,0,14.13,2.15,12.39,5.61l-1.3,2.57-2.77.52c-3.63.68-6.62,3.28-7.79,6.79-1.17,3.51-.36,7.38,2.13,10.12l2.27,2.49-.44,3.37c-.38,2.91.5,5.85,2.44,8.06,1.94,2.21,4.74,3.48,7.67,3.48,1.61,0,3.23-.39,4.67-1.13l2.23-1.15,2.23,1.15c1.44.74,3.05,1.13,4.67,1.13,2.94,0,5.73-1.27,7.67-3.48,1.93-2.21,2.82-5.14,2.44-8.06l-.44-3.37,2.27-2.49c2.49-2.73,3.31-6.61,2.13-10.11-1.17-3.51-4.16-6.11-7.79-6.79l-2.77-.52-1.3-2.57C28.86,2.15,25.37,0,21.5,0h0Z"/>
</svg>