<?xml version="1.0" encoding="UTF-8"?>
<svg id="Layer_1" xmlns="http://www.w3.org/2000/svg" version="1.1" viewBox="0 0 43 43">
  <!-- Generator: Adobe Illustrator 30.1.0, SVG Export Plug-In . SVG Version: 2.1.1 Build 136)  -->
  <path d="M21.5,6.79c.48,0,.96.25,1.21.74l3.08,6.11c.53,1.05,1.51,1.79,2.67,2.01l6.66,1.25c1.04.2,1.46,1.46.75,2.24l-4.85,5.32c-.75.82-1.1,1.93-.95,3.04l.95,7.18c.11.86-.57,1.53-1.34,1.53-.2,0-.41-.05-.62-.15l-5.83-3c-.54-.28-1.13-.42-1.72-.42-.59,0-1.18.14-1.72.42l-5.83,3c-.2.1-.41.15-.62.15-.77,0-1.45-.68-1.34-1.53l.95-7.18c.15-1.1-.2-2.21-.95-3.03l-4.85-5.32c-.71-.78-.29-2.05.75-2.25l6.66-1.25c1.15-.22,2.14-.96,2.66-2.01l3.08-6.11c.25-.5.73-.74,1.21-.74M21.5,0c-3.09,0-5.88,1.72-7.27,4.48l-2.41,4.78-5.19.97c-2.9.54-5.28,2.62-6.22,5.41-.94,2.8-.29,5.89,1.7,8.07l3.91,4.29-.76,5.79c-.31,2.33.4,4.67,1.95,6.43,1.55,1.77,3.78,2.78,6.12,2.78,1.29,0,2.57-.31,3.72-.91l4.44-2.29,4.44,2.29c1.15.59,2.44.91,3.72.91,2.34,0,4.57-1.01,6.12-2.78,1.54-1.76,2.25-4.1,1.95-6.43l-.76-5.79,3.91-4.29c1.99-2.18,2.64-5.27,1.7-8.07-.94-2.8-3.32-4.87-6.22-5.41l-5.19-.97-2.41-4.78c-1.39-2.76-4.18-4.48-7.27-4.48h0Z"/>
</svg>