<?xml version="1.0" encoding="UTF-8"?>
<svg id="Layer_1" xmlns="http://www.w3.org/2000/svg" version="1.1" viewBox="0 0 43 43">
  <!-- Generator: Adobe Illustrator 30.1.0, SVG Export Plug-In . SVG Version: 2.1.1 Build 136)  -->
  <path d="M21.5,2.98c.6,0,1.2.31,1.52.94l3.87,7.69c.66,1.32,1.91,2.25,3.35,2.52l8.38,1.57c1.31.25,1.84,1.84.94,2.82l-6.11,6.7c-.94,1.03-1.38,2.43-1.2,3.82l1.19,9.03c.14,1.08-.72,1.93-1.69,1.93-.26,0-.52-.06-.78-.19l-7.33-3.78c-.68-.35-1.42-.52-2.17-.52s-1.49.17-2.17.52l-7.33,3.78c-.26.13-.52.19-.78.19-.97,0-1.83-.85-1.69-1.93l1.19-9.04c.18-1.39-.25-2.78-1.2-3.82l-6.11-6.7c-.9-.99-.37-2.58.94-2.83l8.38-1.57c1.45-.27,2.69-1.2,3.35-2.52l3.87-7.69c.31-.62.92-.94,1.52-.94M21.5,0C19.72,0,18.12.99,17.32,2.58l-3.87,7.69c-.24.48-.71.83-1.24.93l-8.38,1.57c-1.67.31-3.04,1.51-3.58,3.12-.54,1.61-.16,3.39.98,4.65l6.11,6.7c.35.38.51.9.44,1.42l-1.19,9.04c-.18,1.34.23,2.69,1.12,3.7.89,1.02,2.18,1.6,3.53,1.6.74,0,1.48-.18,2.14-.52l7.33-3.78c.25-.13.52-.19.8-.19s.55.07.8.19l7.33,3.78c.66.34,1.41.52,2.14.52,1.35,0,2.63-.58,3.53-1.6.89-1.01,1.29-2.36,1.12-3.7l-1.19-9.03c-.07-.52.09-1.04.44-1.42l6.11-6.7c1.14-1.26,1.52-3.04.98-4.65-.54-1.61-1.91-2.8-3.58-3.12l-8.38-1.57c-.53-.1-1-.45-1.24-.93l-3.87-7.69C24.88.99,23.28,0,21.5,0h0Z"/>
</svg>