<?xml version="1.0" encoding="UTF-8"?>
<svg id="Layer_1" xmlns="http://www.w3.org/2000/svg" version="1.1" viewBox="0 0 43 43">
  <!-- Generator: Adobe Illustrator 30.1.0, SVG Export Plug-In . SVG Version: 2.1.1 Build 136)  -->
  <path d="M21.5,3.74c.58,0,1.16.3,1.46.9l3.72,7.38c.64,1.27,1.83,2.16,3.22,2.42l8.04,1.51c1.26.24,1.77,1.76.9,2.71l-5.86,6.43c-.9.99-1.32,2.33-1.15,3.66l1.14,8.67c.14,1.03-.69,1.85-1.62,1.85-.25,0-.5-.06-.75-.18l-7.03-3.62c-.65-.34-1.36-.5-2.08-.5s-1.43.17-2.08.5l-7.03,3.62c-.25.13-.5.18-.75.18-.93,0-1.75-.82-1.62-1.85l1.14-8.67c.18-1.33-.24-2.67-1.15-3.66l-5.86-6.43c-.86-.95-.35-2.48.91-2.71l8.04-1.51c1.39-.26,2.58-1.16,3.22-2.42l3.72-7.38c.3-.6.88-.9,1.46-.9M21.5,0c-2.04,0-3.88,1.13-4.79,2.95l-3.72,7.38c-.11.22-.33.38-.57.43l-8.04,1.51c-1.91.36-3.48,1.73-4.1,3.57-.62,1.85-.19,3.89,1.12,5.33l5.86,6.43c.16.18.24.42.2.66l-1.14,8.67c-.2,1.54.26,3.08,1.28,4.24,1.02,1.17,2.5,1.84,4.04,1.84.85,0,1.7-.21,2.46-.6l7.03-3.62c.11-.06.24-.09.37-.09s.25.03.37.09l7.03,3.62c.76.39,1.61.6,2.46.6,1.54,0,3.02-.67,4.04-1.84,1.02-1.16,1.48-2.7,1.28-4.24l-1.14-8.67c-.03-.24.04-.48.21-.66l5.86-6.43c1.31-1.44,1.74-3.48,1.12-5.33-.62-1.84-2.19-3.21-4.1-3.57l-8.04-1.51c-.24-.05-.46-.21-.57-.43l-3.72-7.38c-.92-1.82-2.75-2.95-4.79-2.95h0Z"/>
</svg>