<?xml version="1.0" encoding="UTF-8"?>
<svg id="Layer_1" xmlns="http://www.w3.org/2000/svg" version="1.1" viewBox="0 0 117 117">
  <!-- Generator: Adobe Illustrator 30.1.0, SVG Export Plug-In . SVG Version: 2.1.1 Build 136)  -->
  <circle id="Outer" cx="58.5" cy="58.5" r="51.35" fill="none" stroke="#000" stroke-width="14.3"/>
  <g>
    <g>
      <rect x="54.8" y="76.26" width="7.34" height="7.33"/>
      <path d="M61.04,77.36v5.14h-5.14v-5.14h5.14M63.23,75.16h-9.53v9.53h9.53v-9.53h0Z"/>
    </g>
    <g>
      <path d="M54.81,68.44l-.03-3.03c0-2.72,1.02-5.31,2.83-7.32l5.09-5.64c1.21-1.34,1.88-3.07,1.88-4.87,0-2.43-2-4.41-4.45-4.41h-3.27c-2.46,0-4.45,1.98-4.45,4.41v1.1h-7.38v-1.1c0-6.48,5.31-11.76,11.83-11.76h3.27c6.53,0,11.83,5.27,11.83,11.76,0,3.62-1.34,7.09-3.77,9.78l-5.09,5.64c-.62.68-.95,1.51-.95,2.4l-.03,3.04h-7.32Z"/>
      <path d="M60.14,36.91c5.92,0,10.74,4.78,10.74,10.66,0,3.35-1.24,6.56-3.49,9.05l-5.09,5.64c-.79.87-1.23,1.96-1.23,3.13l-.02,1.94h-5.14l-.02-1.94c0-2.44.91-4.76,2.55-6.57l5.09-5.64c1.39-1.54,2.16-3.54,2.16-5.61,0-3.04-2.49-5.51-5.55-5.51h-3.27c-3.06,0-5.55,2.47-5.55,5.51h-5.19c0-5.88,4.82-10.66,10.74-10.66h3.27M60.14,34.72h-3.27c-7.13,0-12.93,5.77-12.93,12.86v2.19h9.58v-2.19c0-1.83,1.51-3.32,3.36-3.32h3.27c1.85,0,3.36,1.49,3.36,3.32,0,1.53-.57,3-1.6,4.14l-5.09,5.64c-2,2.21-3.1,5.06-3.11,8.03l.02,1.97.02,2.17h9.49l.02-2.17.02-1.94c0-.64.23-1.2.66-1.68l5.1-5.65c2.61-2.89,4.05-6.63,4.05-10.52,0-7.09-5.8-12.86-12.93-12.86h0Z"/>
    </g>
  </g>
</svg>