<?xml version="1.0" encoding="UTF-8"?>
<svg id="Layer_1" xmlns="http://www.w3.org/2000/svg" version="1.1" viewBox="0 0 117 117">
  <!-- Generator: Adobe Illustrator 30.1.0, SVG Export Plug-In . SVG Version: 2.1.1 Build 136)  -->
  <circle id="Outer" cx="58.5" cy="58.5" r="53.42" fill="none" stroke="#000" stroke-width="10.16"/>
  <g>
    <g>
      <rect x="54.8" y="77.82" width="7.32" height="7.32"/>
      <path d="M61.39,78.55v5.86h-5.86v-5.86h5.86M62.86,77.09h-8.79v8.79h8.79v-8.79h0Z"/>
    </g>
    <g>
      <path d="M54.81,69.74l-.03-2.94c.01-2.96,1.11-5.8,3.09-7.99l5.8-6.43c1.47-1.63,2.28-3.72,2.28-5.9,0-3.06-2.51-5.55-5.59-5.55h-3.73c-3.08,0-5.59,2.49-5.59,5.55v.73h-7.38v-.73c0-7.1,5.82-12.88,12.97-12.88h3.73c7.15,0,12.97,5.78,12.97,12.88,0,3.99-1.48,7.83-4.16,10.8l-5.81,6.43c-.79.87-1.21,1.94-1.21,3.08l-.03,2.95h-7.31Z"/>
      <path d="M60.36,34.32c6.75,0,12.24,5.45,12.24,12.15,0,3.81-1.41,7.47-3.97,10.31l-5.81,6.43c-.9.99-1.4,2.23-1.4,3.57l-.02,2.22h-5.86l-.02-2.22c.01-2.78,1.03-5.42,2.9-7.49l5.8-6.43c1.59-1.76,2.46-4.03,2.46-6.39,0-3.46-2.84-6.28-6.33-6.28h-3.73c-3.49,0-6.33,2.82-6.33,6.28h-5.91c0-6.7,5.49-12.15,12.24-12.15h3.73M60.36,32.86h-3.73c-7.56,0-13.7,6.11-13.7,13.62v1.46h8.84v-1.46c0-2.66,2.18-4.82,4.86-4.82h3.73c2.68,0,4.86,2.16,4.86,4.82,0,2-.74,3.92-2.09,5.41l-5.81,6.43c-2.1,2.33-3.27,5.33-3.28,8.47l.02,2.23v1.45h8.77v-1.45s.04-2.22.04-2.22c0-.97.36-1.87,1.02-2.6l5.81-6.43c2.81-3.11,4.35-7.12,4.35-11.29,0-7.51-6.15-13.62-13.7-13.62h0Z"/>
    </g>
  </g>
</svg>