<?xml version="1.0" encoding="UTF-8"?>
<svg id="Layer_1" xmlns="http://www.w3.org/2000/svg" version="1.1" viewBox="0 0 117 117">
  <!-- Generator: Adobe Illustrator 30.1.0, SVG Export Plug-In . SVG Version: 2.1.1 Build 136)  -->
  <circle id="Outer" cx="58.5" cy="58.5" r="54.44" fill="none" stroke="#000" stroke-width="8.12"/>
  <g>
    <g>
      <rect x="54.8" y="78.58" width="7.33" height="7.33"/>
      <path d="M61.58,79.13v6.23h-6.23v-6.23h6.23M62.67,78.04h-8.42v8.42h8.42v-8.42h0Z"/>
    </g>
    <g>
      <path d="M54.81,70.42l-.03-2.9c.01-3.09,1.16-6.05,3.23-8.33l6.17-6.83c1.6-1.77,2.48-4.05,2.48-6.43,0-3.38-2.77-6.13-6.17-6.13h-3.96c-3.4,0-6.17,2.75-6.17,6.13v.55h-7.38v-.55c0-7.42,6.08-13.46,13.55-13.46h3.96c7.47,0,13.55,6.04,13.55,13.46,0,4.19-1.55,8.21-4.36,11.33l-6.17,6.84c-.88.97-1.34,2.16-1.35,3.43l-.03,2.9h-7.31Z"/>
      <path d="M60.48,33.01c7.17,0,13.01,5.79,13.01,12.91,0,4.05-1.5,7.94-4.22,10.96l-6.17,6.84c-.96,1.06-1.49,2.37-1.49,3.79l-.02,2.36h-6.23l-.02-2.36c.01-2.95,1.1-5.77,3.09-7.96l6.17-6.83c1.69-1.87,2.62-4.28,2.62-6.79,0-3.68-3.02-6.68-6.72-6.68h-3.96c-3.71,0-6.72,2.99-6.72,6.68h-6.28c0-7.12,5.83-12.91,13.01-12.91h3.96M60.48,31.91h-3.96c-7.78,0-14.1,6.29-14.1,14.01v1.1h8.48v-1.1c0-3.08,2.52-5.58,5.63-5.58h3.96c3.1,0,5.63,2.5,5.63,5.58,0,2.24-.83,4.39-2.34,6.06l-6.17,6.83c-2.16,2.39-3.36,5.48-3.37,8.69l.02,2.37v1.09h8.41v-1.09s.03-2.36.03-2.36c0-1.14.42-2.2,1.21-3.07l6.17-6.84c2.91-3.22,4.51-7.37,4.51-11.69,0-7.73-6.33-14.01-14.1-14.01h0Z"/>
    </g>
  </g>
</svg>