<?xml version="1.0" encoding="UTF-8"?>
<svg id="Layer_1" xmlns="http://www.w3.org/2000/svg" version="1.1" viewBox="0 0 117 117">
  <!-- Generator: Adobe Illustrator 30.1.0, SVG Export Plug-In . SVG Version: 2.1.1 Build 136)  -->
  <circle id="Outer" cx="58.5" cy="58.5" r="49.27" fill="none" stroke="#000" stroke-width="18.46"/>
  <g>
    <g>
      <rect x="54.78" y="74.67" width="7.37" height="7.38"/>
      <path d="M60.69,76.14v4.45h-4.45v-4.45h4.45M63.62,73.21h-10.3v10.3h10.3v-10.3h0Z"/>
    </g>
    <g>
      <path d="M54.8,67.22l-.03-3.13c0-2.48.93-4.85,2.58-6.68l4.4-4.88c.96-1.07,1.49-2.44,1.49-3.87,0-1.82-1.5-3.31-3.34-3.31h-2.83c-1.84,0-3.34,1.48-3.34,3.31v1.46h-7.41v-1.46c0-5.89,4.82-10.69,10.75-10.69h2.83c5.93,0,10.75,4.79,10.75,10.69,0,3.26-1.21,6.38-3.39,8.81l-4.41,4.88c-.45.5-.69,1.09-.69,1.73l-.03,3.14h-7.35Z"/>
      <path d="M59.92,39.43c5.12,0,9.29,4.14,9.29,9.23,0,2.89-1.07,5.67-3.02,7.83l-4.41,4.88c-.68.76-1.06,1.69-1.06,2.71l-.02,1.68h-4.45v-1.68c0-2.11.77-4.12,2.19-5.69l4.41-4.88c1.21-1.34,1.87-3.06,1.87-4.85,0-2.63-2.15-4.77-4.8-4.77h-2.83c-2.65,0-4.8,2.14-4.8,4.77h-4.49c0-5.09,4.17-9.23,9.29-9.23h2.83M59.92,36.5h-2.83c-6.74,0-12.22,5.45-12.22,12.15v2.93h10.34v-2.93c0-1.02.84-1.84,1.88-1.84h2.83c1.03,0,1.88.83,1.88,1.84,0,1.07-.4,2.1-1.12,2.89l-4.41,4.88c-1.9,2.1-2.95,4.81-2.96,7.64v1.72s.04,2.9.04,2.9h10.24l.03-2.9.02-1.68c0-.3.1-.55.31-.78l4.41-4.89c2.43-2.69,3.77-6.17,3.77-9.79,0-6.7-5.48-12.15-12.22-12.15h0Z"/>
    </g>
  </g>
</svg>