<?xml version="1.0" encoding="UTF-8"?>
<svg id="Layer_1" xmlns="http://www.w3.org/2000/svg" version="1.1" viewBox="0 0 117 117">
  <!-- Generator: Adobe Illustrator 30.1.0, SVG Export Plug-In . SVG Version: 2.1.1 Build 136)  -->
  <circle id="Outer" cx="58.5" cy="58.5" r="47.2" fill="none" stroke="#000" stroke-width="22.6"/>
  <g>
    <g>
      <rect x="54.74" y="73.08" width="7.45" height="7.45"/>
      <path d="M60.37,74.91v3.8h-3.8v-3.8h3.8M64.03,71.25h-11.11v11.11h11.11v-11.11h0Z"/>
    </g>
    <g>
      <path d="M54.77,66.12l-.03-3.25c0-2.27.84-4.43,2.35-6.1l3.76-4.17c.73-.8,1.13-1.84,1.13-2.92,0-1.24-1.02-2.24-2.27-2.24h-2.42c-1.25,0-2.27,1.01-2.27,2.24v1.83h-7.49v-1.83c0-5.35,4.38-9.7,9.76-9.7h2.42c5.38,0,9.76,4.35,9.76,9.7,0,2.92-1.08,5.73-3.05,7.91l-3.76,4.17c-.29.32-.44.69-.44,1.09l-.03,3.26h-7.42Z"/>
      <path d="M59.71,41.82c4.37,0,7.93,3.53,7.93,7.87,0,2.47-.91,4.84-2.57,6.68l-3.76,4.17c-.58.64-.91,1.45-.91,2.31v1.44h-3.81v-1.44c0-1.8.66-3.51,1.87-4.85l3.76-4.17c1.03-1.14,1.6-2.61,1.6-4.14,0-2.24-1.84-4.07-4.1-4.07h-2.42c-2.26,0-4.1,1.83-4.1,4.07h-3.83c0-4.34,3.56-7.87,7.93-7.87h2.42M59.71,38.16h-2.42c-6.39,0-11.59,5.17-11.59,11.53v3.66h11.14v-3.66c0-.22.2-.41.44-.41h2.42c.24,0,.44.19.44.41,0,.62-.23,1.22-.65,1.69l-3.76,4.17c-1.81,2-2.81,4.59-2.82,7.29v1.48s.04,3.62.04,3.62h11.04l.04-3.62v-1.37s3.74-4.13,3.74-4.13c2.27-2.51,3.52-5.75,3.52-9.13,0-6.36-5.2-11.53-11.59-11.53h0Z"/>
    </g>
  </g>
</svg>