<?xml version="1.0" encoding="UTF-8"?>
<svg id="Layer_1" xmlns="http://www.w3.org/2000/svg" version="1.1" viewBox="0 0 117 117">
  <!-- Generator: Adobe Illustrator 30.1.0, SVG Export Plug-In . SVG Version: 2.1.1 Build 136)  -->
  <circle id="Outer" cx="58.5" cy="58.5" r="46.18" fill="none" stroke="#000" stroke-width="24.64"/>
  <g>
    <g>
      <rect x="54.72" y="72.29" width="7.51" height="7.51"/>
      <path d="M60.22,74.3v3.49h-3.49v-3.49h3.49M64.24,70.27h-11.53v11.53h11.53v-11.53h0Z"/>
    </g>
    <g>
      <path d="M54.74,65.62l-.03-3.31c0-2.17.81-4.23,2.25-5.83l3.45-3.83c.61-.68.95-1.55.95-2.46,0-.95-.79-1.73-1.75-1.73h-2.22c-.97,0-1.75.78-1.75,1.73v2.01h-7.54v-2.01c0-5.1,4.17-9.24,9.29-9.24h2.22c5.12,0,9.29,4.15,9.29,9.24,0,2.77-1.02,5.43-2.88,7.49l-3.45,3.83c-.21.23-.32.5-.32.79l-.03,3.32h-7.47Z"/>
      <path d="M59.61,42.96c4.02,0,7.28,3.25,7.28,7.23,0,2.27-.84,4.45-2.37,6.14l-3.46,3.83c-.54.59-.83,1.33-.83,2.12v1.32h-3.5v-1.32c0-1.65.6-3.23,1.72-4.46l3.45-3.83c.95-1.05,1.47-2.4,1.47-3.81,0-2.06-1.69-3.74-3.76-3.74h-2.22c-2.08,0-3.76,1.68-3.76,3.74h-3.52c0-3.99,3.27-7.23,7.28-7.23h2.22M59.61,38.94h-2.22c-6.23,0-11.31,5.05-11.31,11.25v4.02h10.21l-.83.92c-1.77,1.96-2.75,4.5-2.76,7.14v.03s0,.03,0,.03v1.32s.05,3.99.05,3.99h11.46l.04-3.98v-1.01s3.27-3.61,3.27-3.61c2.19-2.43,3.4-5.57,3.4-8.83,0-6.21-5.07-11.25-11.31-11.25h0ZM57.65,50.48h1.68c-.05.3-.19.59-.41.83l-1.28,1.41v-2.24h0Z"/>
    </g>
  </g>
</svg>