<?xml version="1.0" encoding="UTF-8"?>
<svg id="Layer_1" xmlns="http://www.w3.org/2000/svg" version="1.1" viewBox="0 0 16 16">
  <!-- Generator: Adobe Illustrator 30.1.0, SVG Export Plug-In . SVG Version: 2.1.1 Build 136)  -->
  <path d="M8,2.53c.18,0,.36.09.45.28l1.15,2.27c.2.39.56.67.99.75l2.48.46c.39.07.54.54.28.84l-1.81,1.98c-.28.31-.41.72-.35,1.13l.35,2.67c.04.32-.21.57-.5.57-.08,0-.15-.02-.23-.06l-2.17-1.12c-.2-.1-.42-.16-.64-.16s-.44.05-.64.16l-2.17,1.12c-.08.04-.15.06-.23.06-.29,0-.54-.25-.5-.57l.35-2.67c.05-.41-.08-.82-.35-1.13l-1.81-1.98c-.27-.29-.11-.76.28-.84l2.48-.46c.43-.08.79-.36.99-.75l1.15-2.27c.09-.18.27-.28.45-.28M8,0c-1.15,0-2.19.64-2.7,1.67l-.9,1.78-1.93.36c-1.08.2-1.96.97-2.31,2.01-.35,1.04-.11,2.19.63,3l1.45,1.6-.28,2.16c-.11.87.15,1.74.72,2.39.58.66,1.41,1.03,2.28,1.03.48,0,.96-.12,1.39-.34l1.65-.85,1.65.85c.43.22.91.34,1.39.34.87,0,1.7-.38,2.28-1.03.57-.65.84-1.53.72-2.39l-.28-2.16,1.45-1.6c.74-.81.98-1.96.63-3-.35-1.04-1.23-1.81-2.31-2.01l-1.93-.36-.9-1.78c-.52-1.03-1.55-1.67-2.7-1.67h0Z"/>
</svg>