<?xml version="1.0" encoding="UTF-8"?>
<svg id="Layer_1" xmlns="http://www.w3.org/2000/svg" version="1.1" viewBox="0 0 16 16">
  <!-- Generator: Adobe Illustrator 30.1.0, SVG Export Plug-In . SVG Version: 2.1.1 Build 136)  -->
  <path d="M8,1.11c.22,0,.45.12.57.35l1.44,2.86c.25.49.71.84,1.25.94l3.12.58c.49.09.69.68.35,1.05l-2.27,2.49c-.35.38-.51.9-.45,1.42l.44,3.36c.05.4-.27.72-.63.72-.1,0-.19-.02-.29-.07l-2.73-1.4c-.25-.13-.53-.2-.81-.2s-.55.07-.81.2l-2.73,1.4c-.1.05-.19.07-.29.07-.36,0-.68-.32-.63-.72l.44-3.36c.07-.52-.09-1.04-.44-1.42l-2.27-2.49c-.33-.37-.14-.96.35-1.05l3.12-.58c.54-.1,1-.45,1.25-.94l1.44-2.86c.12-.23.34-.35.57-.35M8,0C7.34,0,6.74.37,6.44.96l-1.44,2.86c-.09.18-.26.31-.46.35l-3.12.58c-.62.12-1.13.56-1.33,1.16-.2.6-.06,1.26.36,1.73l2.27,2.49c.13.14.19.33.16.53l-.44,3.36c-.07.5.09,1,.42,1.38.33.38.81.6,1.31.6.27,0,.55-.07.8-.19l2.73-1.4c.09-.05.19-.07.3-.07s.21.02.3.07l2.73,1.4c.25.13.52.19.8.19.5,0,.98-.22,1.31-.6.33-.38.48-.88.42-1.38l-.44-3.36c-.03-.19.03-.39.17-.53l2.27-2.49c.43-.47.57-1.13.36-1.73-.2-.6-.71-1.04-1.33-1.16l-3.12-.58c-.2-.04-.37-.17-.46-.35l-1.44-2.86C9.26.37,8.66,0,8,0h0Z"/>
</svg>