<?xml version="1.0" encoding="UTF-8"?>
<svg id="Layer_1" xmlns="http://www.w3.org/2000/svg" version="1.1" viewBox="0 0 16 16">
  <!-- Generator: Adobe Illustrator 30.1.0, SVG Export Plug-In . SVG Version: 2.1.1 Build 136)  -->
  <path d="M8,1.96c.2,0,.39.1.5.31l1.26,2.51c.22.43.62.74,1.1.82l2.74.51c.43.08.6.6.31.92l-1.99,2.19c-.31.34-.45.79-.39,1.25l.39,2.95c.05.35-.23.63-.55.63-.08,0-.17-.02-.25-.06l-2.39-1.23c-.22-.11-.46-.17-.71-.17s-.49.06-.71.17l-2.39,1.23c-.08.04-.17.06-.25.06-.32,0-.6-.28-.55-.63l.39-2.95c.06-.45-.08-.91-.39-1.25l-1.99-2.19c-.29-.32-.12-.84.31-.92l2.74-.51c.47-.09.88-.39,1.09-.82l1.26-2.51c.1-.2.3-.31.5-.31M8,0C7.05,0,6.19.53,5.76,1.38l-1.17,2.33-2.54.48c-.89.17-1.63.81-1.92,1.67-.29.86-.09,1.82.53,2.49l1.87,2.05-.36,2.76c-.09.72.12,1.44.6,1.98.48.55,1.17.86,1.89.86.4,0,.79-.1,1.15-.28l2.2-1.14,2.2,1.14c.36.18.75.28,1.15.28.72,0,1.41-.31,1.89-.86.48-.54.69-1.27.6-1.98l-.36-2.76,1.87-2.05c.61-.67.81-1.63.53-2.49-.29-.86-1.02-1.5-1.92-1.67l-2.54-.48-1.17-2.33C9.81.53,8.95,0,8,0h0Z"/>
</svg>