<?xml version="1.0" encoding="UTF-8"?>
<svg id="Layer_1" xmlns="http://www.w3.org/2000/svg" version="1.1" viewBox="0 0 56 56">
  <!-- Generator: Adobe Illustrator 30.1.0, SVG Export Plug-In . SVG Version: 2.1.1 Build 136)  -->
  <g>
    <g>
      <rect x="25.97" y="15.96" width="4.06" height="4.06"/>
      <path d="M29.33,16.66v2.66h-2.66v-2.66h2.66M30.73,15.26h-5.46v5.46h5.46v-5.46h0Z"/>
    </g>
    <g>
      <polygon points="23.31 39.63 23.31 35.57 25.97 35.57 25.97 28.66 23.31 28.66 23.31 24.59 30.03 24.59 30.03 35.57 32.7 35.57 32.7 39.63 23.31 39.63"/>
      <path d="M29.33,25.29v10.98h2.66v2.66h-7.99v-2.66h2.66v-8.31h-2.66v-2.66h5.33M30.73,23.89h-8.13v5.46h2.66v5.51h-2.66v5.46h10.79v-5.46h-2.66v-10.98h0Z"/>
    </g>
  </g>
  <circle id="Outer" cx="28" cy="28" r="23.58" fill="none" stroke="#000" stroke-width="8.84"/>
</svg>