<?xml version="1.0" encoding="UTF-8"?>
<svg id="Layer_1" xmlns="http://www.w3.org/2000/svg" version="1.1" viewBox="0 0 56 56">
  <!-- Generator: Adobe Illustrator 30.1.0, SVG Export Plug-In . SVG Version: 2.1.1 Build 136)  -->
  <g>
    <g>
      <rect x="26.04" y="14.18" width="3.92" height="3.92"/>
      <path d="M29.69,14.44v3.39h-3.39v-3.39h3.39M30.22,13.92h-4.44v4.44h4.44v-4.44h0Z"/>
    </g>
    <g>
      <polygon points="22.65 41.82 22.65 37.91 26.04 37.91 26.04 27.85 22.65 27.85 22.65 23.93 29.96 23.93 29.96 37.91 33.35 37.91 33.35 41.82 22.65 41.82"/>
      <path d="M29.69,24.2v13.97h3.39v3.39h-10.17v-3.39h3.39v-10.58h-3.39v-3.39h6.78M30.22,23.67h-7.83v4.44h3.39v9.53h-3.39v4.44h11.22v-4.44h-3.39v-13.97h0Z"/>
    </g>
  </g>
  <circle id="Outer" cx="28" cy="28" r="26.06" fill="none" stroke="#000" stroke-width="3.88"/>
</svg>