<?xml version="1.0" encoding="UTF-8"?>
<svg id="Layer_1" xmlns="http://www.w3.org/2000/svg" version="1.1" viewBox="0 0 56 56">
  <!-- Generator: Adobe Illustrator 30.1.0, SVG Export Plug-In . SVG Version: 2.1.1 Build 136)  -->
  <g>
    <g>
      <rect x="25.92" y="17.02" width="4.17" height="4.17"/>
      <path d="M29.12,17.98v2.25h-2.25v-2.25h2.25M31.05,16.06h-6.1v6.1h6.1v-6.1h0Z"/>
    </g>
    <g>
      <polygon points="23.67 38.37 23.67 34.2 25.92 34.2 25.92 29.11 23.67 29.11 23.67 24.94 30.09 24.94 30.09 34.2 32.33 34.2 32.33 38.37 23.67 38.37"/>
      <path d="M29.12,25.91v9.25h2.25v2.25h-6.74v-2.25h2.25v-7.01h-2.25v-2.25h4.49M31.05,23.98h-8.34v6.1h2.25v3.16h-2.25v6.1h10.59v-6.1h-2.25v-9.25h0Z"/>
    </g>
  </g>
  <circle id="Outer" cx="28" cy="28" r="22.1" fill="none" stroke="#000" stroke-width="11.8"/>
</svg>