<?xml version="1.0" encoding="UTF-8"?>
<svg id="Layer_1" xmlns="http://www.w3.org/2000/svg" version="1.1" viewBox="0 0 72 72">
  <!-- Generator: Adobe Illustrator 30.1.0, SVG Export Plug-In . SVG Version: 2.1.1 Build 136)  -->
  <g>
    <g>
      <rect x="33.46" y="18.68" width="5.07" height="5.07"/>
      <path d="M38.09,19.13v4.17h-4.17v-4.17h4.17M38.99,18.23h-5.97v5.97h5.97v-5.97h0Z"/>
    </g>
    <g>
      <polygon points="29.29 53.21 29.29 48.14 33.46 48.14 33.46 36.02 29.29 36.02 29.29 30.95 38.54 30.95 38.54 48.14 42.71 48.14 42.71 53.21 29.29 53.21"/>
      <path d="M38.09,31.4v17.19h4.17v4.17h-12.51v-4.17h4.17v-13.02h-4.17v-4.17h8.34M38.99,30.5h-10.14v5.97h4.17v11.22h-4.17v5.97h14.31v-5.97h-4.17v-17.19h0Z"/>
    </g>
  </g>
  <circle id="Outer" cx="36" cy="36" r="32.87" fill="none" stroke="#000" stroke-width="6.26"/>
</svg>