<?xml version="1.0" encoding="UTF-8"?>
<svg id="Layer_1" xmlns="http://www.w3.org/2000/svg" version="1.1" viewBox="0 0 72 72">
  <!-- Generator: Adobe Illustrator 30.1.0, SVG Export Plug-In . SVG Version: 2.1.1 Build 136)  -->
  <g>
    <g>
      <rect x="33.43" y="19.6" width="5.15" height="5.15"/>
      <path d="M37.9,20.28v3.8h-3.8v-3.8h3.8M39.25,18.93h-6.5v6.5h6.5v-6.5h0Z"/>
    </g>
    <g>
      <polygon points="29.63 52.08 29.63 46.93 33.43 46.93 33.43 36.43 29.63 36.43 29.63 31.29 38.57 31.29 38.57 46.93 42.37 46.93 42.37 52.08 29.63 52.08"/>
      <path d="M37.9,31.96v15.65h3.8v3.8h-11.39v-3.8h3.8v-11.85h-3.8v-3.8h7.59M39.25,30.61h-10.29v6.5h3.8v9.15h-3.8v6.5h14.09v-6.5h-3.8v-15.65h0Z"/>
    </g>
  </g>
  <circle id="Outer" cx="36" cy="36" r="31.6" fill="none" stroke="#000" stroke-width="8.8"/>
</svg>