<?xml version="1.0" encoding="UTF-8"?>
<svg id="Layer_1" xmlns="http://www.w3.org/2000/svg" version="1.1" viewBox="0 0 72 72">
  <!-- Generator: Adobe Illustrator 30.1.0, SVG Export Plug-In . SVG Version: 2.1.1 Build 136)  -->
  <g>
    <g>
      <rect x="33.32" y="21.89" width="5.36" height="5.36"/>
      <path d="M37.44,23.12v2.89h-2.89v-2.89h2.89M39.92,20.65h-7.84v7.84h7.84v-7.84h0Z"/>
    </g>
    <g>
      <polygon points="30.43 49.33 30.43 43.97 33.32 43.97 33.32 37.43 30.43 37.43 30.43 32.07 38.68 32.07 38.68 43.97 41.57 43.97 41.57 49.33 30.43 49.33"/>
      <path d="M37.44,33.31v11.9h2.89v2.89h-8.66v-2.89h2.89v-9.01h-2.89v-2.89h5.77M39.92,30.83h-10.72v7.84h2.89v4.06h-2.89v7.84h13.61v-7.84h-2.89v-11.9h0Z"/>
    </g>
  </g>
  <circle id="Outer" cx="36" cy="36" r="28.42" fill="none" stroke="#000" stroke-width="15.16"/>
</svg>