<?xml version="1.0" encoding="UTF-8"?>
<svg id="Layer_1" xmlns="http://www.w3.org/2000/svg" version="1.1" viewBox="0 0 35 35">
  <!-- Generator: Adobe Illustrator 30.1.0, SVG Export Plug-In . SVG Version: 2.1.1 Build 136)  -->
  <g>
    <g>
      <rect x="16.21" y="10.42" width="2.58" height="2.58"/>
      <path d="M18.24,10.97v1.49h-1.49v-1.49h1.49M19.34,9.87h-3.68v3.68h3.68v-3.68h0Z"/>
    </g>
    <g>
      <polygon points="14.72 24.24 14.72 21.66 16.21 21.66 16.21 18.1 14.72 18.1 14.72 15.52 18.79 15.52 18.79 21.66 20.28 21.66 20.28 24.24 14.72 24.24"/>
      <path d="M18.24,16.07v6.14h1.49v1.49h-4.47v-1.49h1.49v-4.65h-1.49v-1.49h2.98M19.34,14.97h-5.17v3.68h1.49v2.46h-1.49v3.68h6.65v-3.68h-1.49v-6.14h0Z"/>
    </g>
  </g>
  <circle id="Outer" cx="17.5" cy="17.5" r="14.12" fill="none" stroke="#000" stroke-width="6.76"/>
</svg>