<?xml version="1.0" encoding="UTF-8"?>
<svg id="Layer_1" xmlns="http://www.w3.org/2000/svg" version="1.1" viewBox="0 0 35 35">
  <!-- Generator: Adobe Illustrator 30.1.0, SVG Export Plug-In . SVG Version: 2.1.1 Build 136)  -->
  <g>
    <g>
      <rect x="16.25" y="9.53" width="2.5" height="2.5"/>
      <path d="M18.42,9.86v1.85h-1.85v-1.85h1.85M19.08,9.2h-3.16v3.16h3.16v-3.16h0Z"/>
    </g>
    <g>
      <polygon points="14.4 25.32 14.4 22.82 16.25 22.82 16.25 17.71 14.4 17.71 14.4 15.21 18.75 15.21 18.75 22.82 20.6 22.82 20.6 25.32 14.4 25.32"/>
      <path d="M18.42,15.54v7.61h1.85v1.85h-5.54v-1.85h1.85v-5.76h-1.85v-1.85h3.69M19.08,14.88h-5v3.16h1.85v4.45h-1.85v3.16h6.85v-3.16h-1.85v-7.61h0Z"/>
    </g>
  </g>
  <circle id="Outer" cx="17.5" cy="17.5" r="15.36" fill="none" stroke="#000" stroke-width="4.28"/>
</svg>