<?xml version="1.0" encoding="UTF-8"?>
<svg id="Layer_1" xmlns="http://www.w3.org/2000/svg" version="1.1" viewBox="0 0 35 35">
  <!-- Generator: Adobe Illustrator 30.1.0, SVG Export Plug-In . SVG Version: 2.1.1 Build 136)  -->
  <g>
    <g>
      <rect x="16.2" y="10.64" width="2.61" height="2.61"/>
      <path d="M18.2,11.24v1.4h-1.4v-1.4h1.4M19.4,10.04h-3.81v3.81h3.81v-3.81h0Z"/>
    </g>
    <g>
      <polygon points="14.79 23.98 14.79 21.37 16.2 21.37 16.2 18.2 14.79 18.2 14.79 15.59 18.8 15.59 18.8 21.37 20.21 21.37 20.21 23.98 14.79 23.98"/>
      <path d="M18.2,16.19v5.78h1.4v1.4h-4.21v-1.4h1.4v-4.38h-1.4v-1.4h2.81M19.4,14.99h-5.21v3.81h1.4v1.97h-1.4v3.81h6.62v-3.81h-1.4v-5.78h0Z"/>
    </g>
  </g>
  <circle id="Outer" cx="17.5" cy="17.5" r="13.81" fill="none" stroke="#000" stroke-width="7.37"/>
</svg>