<?xml version="1.0" encoding="UTF-8"?>
<svg id="Layer_1" xmlns="http://www.w3.org/2000/svg" version="1.1" viewBox="0 0 35 35">
  <!-- Generator: Adobe Illustrator 30.1.0, SVG Export Plug-In . SVG Version: 2.1.1 Build 136)  -->
  <g>
    <g>
      <rect x="16.28" y="8.86" width="2.45" height="2.45"/>
      <path d="M18.56,9.03v2.12h-2.12v-2.12h2.12M18.89,8.7h-2.77v2.77h2.77v-2.77h0Z"/>
    </g>
    <g>
      <polygon points="14.16 26.14 14.16 23.69 16.28 23.69 16.28 17.41 14.16 17.41 14.16 14.96 18.72 14.96 18.72 23.69 20.84 23.69 20.84 26.14 14.16 26.14"/>
      <path d="M18.56,15.12v8.73h2.12v2.12h-6.36v-2.12h2.12v-6.61h-2.12v-2.12h4.24M18.89,14.79h-4.89v2.77h2.12v5.96h-2.12v2.77h7.01v-2.77h-2.12v-8.73h0Z"/>
    </g>
  </g>
  <circle id="Outer" cx="17.5" cy="17.5" r="16.29" fill="none" stroke="#000" stroke-width="2.43"/>
</svg>