<?xml version="1.0" encoding="UTF-8"?>
<svg id="Layer_1" xmlns="http://www.w3.org/2000/svg" version="1.1" viewBox="0 0 9 9">
  <!-- Generator: Adobe Illustrator 30.1.0, SVG Export Plug-In . SVG Version: 2.1.1 Build 136)  -->
  <circle id="Outer" cx="4.5" cy="4.5" r="3.95" fill="none" stroke="#000" stroke-width="1.1"/>
  <g>
    <g>
      <rect x="4.22" y="5.87" width=".56" height=".56"/>
      <path d="M4.7,5.95v.4h-.4v-.4h.4M4.86,5.78h-.73v.73h.73v-.73h0Z"/>
    </g>
    <g>
      <path d="M4.22,5.26v-.23c0-.21.08-.41.22-.56l.39-.43c.09-.1.14-.24.14-.37,0-.19-.15-.34-.34-.34h-.25c-.19,0-.34.15-.34.34v.08h-.57v-.08c0-.5.41-.9.91-.9h.25c.5,0,.91.41.91.9,0,.28-.1.54-.29.75l-.39.43c-.05.05-.07.12-.07.18v.23h-.56Z"/>
      <path d="M4.63,2.84c.46,0,.83.37.83.82,0,.26-.1.5-.27.7l-.39.43c-.06.07-.09.15-.09.24v.15h-.4v-.15c0-.19.07-.37.19-.51l.39-.43c.11-.12.17-.27.17-.43,0-.23-.19-.42-.43-.42h-.25c-.24,0-.43.19-.43.42h-.4c0-.45.37-.82.83-.82h.25M4.63,2.67h-.25c-.55,0-.99.44-.99.99v.17h.74v-.17c0-.14.12-.26.26-.26h.25c.14,0,.26.11.26.26,0,.12-.04.23-.12.32l-.39.43c-.15.17-.24.39-.24.62v.15s0,.17,0,.17h.73v-.17s0-.15,0-.15c0-.05.02-.09.05-.13l.39-.43c.2-.22.31-.51.31-.81,0-.55-.45-.99-.99-.99h0Z"/>
    </g>
  </g>
</svg>