<?xml version="1.0" encoding="UTF-8"?>
<svg id="Layer_1" xmlns="http://www.w3.org/2000/svg" version="1.1" viewBox="0 0 9 9">
  <!-- Generator: Adobe Illustrator 30.1.0, SVG Export Plug-In . SVG Version: 2.1.1 Build 136)  -->
  <circle id="Outer" cx="4.5" cy="4.5" r="3.79" fill="none" stroke="#000" stroke-width="1.42"/>
  <g>
    <g>
      <rect x="4.21" y="5.74" width=".57" height=".57"/>
      <path d="M4.67,5.86v.34h-.34v-.34h.34M4.89,5.63h-.79v.79h.79v-.79h0Z"/>
    </g>
    <g>
      <path d="M4.22,5.17v-.24c0-.19.07-.37.2-.51l.34-.38c.07-.08.11-.19.11-.3,0-.14-.12-.25-.26-.25h-.22c-.14,0-.26.11-.26.25v.11h-.57v-.11c0-.45.37-.82.83-.82h.22c.46,0,.83.37.83.82,0,.25-.09.49-.26.68l-.34.38s-.05.08-.05.13v.24h-.57Z"/>
      <path d="M4.61,3.03c.39,0,.71.32.71.71,0,.22-.08.44-.23.6l-.34.38c-.05.06-.08.13-.08.21v.13h-.34v-.13c0-.16.06-.32.17-.44l.34-.38c.09-.1.14-.24.14-.37,0-.2-.17-.37-.37-.37h-.22c-.2,0-.37.16-.37.37h-.35c0-.39.32-.71.71-.71h.22M4.61,2.81h-.22c-.52,0-.94.42-.94.93v.22h.8v-.22c0-.08.06-.14.14-.14h.22c.08,0,.14.06.14.14,0,.08-.03.16-.09.22l-.34.38c-.15.16-.23.37-.23.59v.13s0,.22,0,.22h.79v-.22s0-.13,0-.13c0-.02,0-.04.02-.06l.34-.38c.19-.21.29-.47.29-.75,0-.52-.42-.93-.94-.93h0Z"/>
    </g>
  </g>
</svg>