<?xml version="1.0" encoding="UTF-8"?>
<svg id="Layer_1" xmlns="http://www.w3.org/2000/svg" version="1.1" viewBox="0 0 9 9">
  <!-- Generator: Adobe Illustrator 30.1.0, SVG Export Plug-In . SVG Version: 2.1.1 Build 136)  -->
  <circle id="Outer" cx="4.5" cy="4.5" r="4.11" fill="none" stroke="#000" stroke-width=".78"/>
  <g>
    <g>
      <polygon points="4.27 6.55 4.22 6.04 4.72 5.99 4.78 6.49 4.78 6.55 4.27 6.55"/>
      <path d="M4.72,6.04v.45h-.45v-.45h.45M4.84,5.93h-.68v.68h.68v-.68h0Z"/>
    </g>
    <g>
      <path d="M4.27,5.37l-.06-.23c0-.23.09-.45.24-.61l.45-.49c.11-.12.17-.29.17-.45,0-.24-.19-.43-.43-.43h-.29c-.24,0-.43.19-.43.43l-.51.06c-.06-.6.39-1.05.94-1.05h.29c.55,0,1,.44,1,.99,0,.31-.11.6-.32.83l-.45.5c-.06.07-.09.15-.09.24v.23h-.51Z"/>
      <path d="M4.64,2.64c.52,0,.94.42.94.93,0,.29-.11.57-.31.79l-.45.49c-.07.08-.11.17-.11.27v.17h-.45v-.17c0-.21.08-.42.22-.58l.45-.49c.12-.14.19-.31.19-.49,0-.27-.22-.48-.49-.48h-.29c-.27,0-.49.22-.49.48h-.45c0-.52.42-.93.94-.93h.29M4.64,2.53h-.29c-.58,0-1.05.47-1.05,1.05v.11h.68v-.11c0-.2.17-.37.37-.37h.29c.21,0,.37.17.37.37,0,.15-.06.3-.16.42l-.45.49c-.16.18-.25.41-.25.65v.17s0,.11,0,.11h.67v-.11s0-.17,0-.17c0-.07.03-.14.08-.2l.45-.49c.22-.24.33-.55.33-.87,0-.58-.47-1.05-1.05-1.05h0Z"/>
    </g>
  </g>
</svg>