<?xml version="1.0" encoding="UTF-8"?>
<svg id="Layer_1" xmlns="http://www.w3.org/2000/svg" version="1.1" viewBox="0 0 9 9">
  <!-- Generator: Adobe Illustrator 30.1.0, SVG Export Plug-In . SVG Version: 2.1.1 Build 136)  -->
  <circle id="Outer" cx="4.5" cy="4.5" r="3.55" fill="none" stroke="#000" stroke-width="1.9"/>
  <g>
    <g>
      <rect x="4.21" y="5.56" width=".58" height=".58"/>
      <path d="M4.63,5.72v.27h-.27v-.27h.27M4.94,5.41h-.89v.89h.89v-.89h0Z"/>
    </g>
    <g>
      <path d="M4.21,5.05v-.25c0-.17.06-.33.17-.45l.27-.29c.05-.05.07-.12.07-.19,0-.07-.06-.13-.13-.13h-.17c-.07,0-.13.06-.13.13v.15h-.58v-.15c0-.39.32-.71.71-.71h.17c.39,0,.71.32.71.71,0,.21-.08.42-.22.58l-.27.29-.02.16v.15h-.58Z"/>
      <path d="M4.59,3.3c.31,0,.56.25.56.56,0,.17-.06.34-.18.47l-.27.29s-.06.1-.06.16v.1h-.27v-.1c0-.13.05-.25.13-.34l.27-.29c.07-.08.11-.18.11-.29,0-.16-.13-.29-.29-.29h-.17c-.16,0-.29.13-.29.29h-.27c0-.31.25-.56.56-.56h.17M4.59,3h-.17c-.48,0-.87.39-.87.87v.31h.79l-.06.07c-.14.15-.21.35-.21.55v.11s0,.31,0,.31h.88v-.31s0-.1,0-.1l.25-.25c.17-.19.26-.43.26-.68,0-.48-.39-.87-.87-.87h0ZM4.43,4.06v-.19l.15.02s-.03.04-.05.06l-.1.11h0Z"/>
    </g>
  </g>
</svg>