<?xml version="1.0" encoding="UTF-8"?>
<svg id="Layer_1" xmlns="http://www.w3.org/2000/svg" version="1.1" viewBox="0 0 9 9">
  <!-- Generator: Adobe Illustrator 30.1.0, SVG Export Plug-In . SVG Version: 2.1.1 Build 136)  -->
  <circle id="Outer" cx="4.5" cy="4.5" r="4.19" fill="none" stroke="#000" stroke-width=".62"/>
  <g>
    <g>
      <polygon points="4.26 6.61 4.22 6.09 4.74 6.04 4.78 6.61 4.26 6.61"/>
      <path d="M4.74,6.09v.48h-.48v-.48h.48M4.82,6h-.65v.65h.65v-.65h0Z"/>
    </g>
    <g>
      <path d="M4.26,5.42l-.04-.22c0-.24.09-.46.25-.64l.47-.53c.12-.14.19-.31.19-.49,0-.26-.21-.47-.48-.47h-.3c-.26,0-.48.21-.48.47l-.53.04c-.04-.61.43-1.08,1-1.08h.3c.58,0,1.04.46,1.04,1.04,0,.32-.12.63-.34.87l-.47.53c-.07.07-.1.17-.1.26v.22h-.52Z"/>
      <path d="M4.65,2.54c.55,0,1,.45,1,.99,0,.31-.12.61-.32.84l-.47.53c-.07.08-.11.18-.11.29v.18h-.48v-.18c0-.23.08-.44.24-.61l.47-.53c.13-.14.2-.33.2-.52,0-.28-.23-.51-.52-.51h-.3c-.29,0-.52.23-.52.51h-.48c0-.55.45-.99,1-.99h.3M4.65,2.45h-.3c-.6,0-1.08.48-1.08,1.08v.08h.65v-.08c0-.24.19-.43.43-.43h.3c.24,0,.43.19.43.43,0,.17-.06.34-.18.47l-.47.53c-.17.18-.26.42-.26.67v.18s0,.08,0,.08h.65v-.08s0-.18,0-.18c0-.09.03-.17.09-.24l.47-.53c.22-.25.35-.57.35-.9,0-.59-.49-1.08-1.08-1.08h0Z"/>
    </g>
  </g>
</svg>