<?xml version="1.0" encoding="UTF-8"?>
<svg id="Layer_1" xmlns="http://www.w3.org/2000/svg" version="1.1" viewBox="0 0 9 9">
  <!-- Generator: Adobe Illustrator 30.1.0, SVG Export Plug-In . SVG Version: 2.1.1 Build 136)  -->
  <circle id="Outer" cx="4.5" cy="4.5" r="3.63" fill="none" stroke="#000" stroke-width="1.74"/>
  <g>
    <g>
      <rect x="4.21" y="5.62" width=".57" height=".57"/>
      <path d="M4.64,5.76v.29h-.29v-.29h.29M4.93,5.48h-.85v.85h.85v-.85h0Z"/>
    </g>
    <g>
      <path d="M4.21,5.09v-.25c0-.18.06-.34.18-.47l.29-.32c.06-.06.09-.14.09-.22,0-.1-.08-.17-.17-.17h-.19c-.1,0-.17.08-.17.17v.14h-.58v-.14c0-.41.34-.75.75-.75h.19c.41,0,.75.33.75.75,0,.23-.08.44-.23.61l-.29.32-.03.2v.14h-.57Z"/>
      <path d="M4.59,3.22c.34,0,.61.27.61.61,0,.19-.07.37-.2.51l-.29.32s-.07.11-.07.18v.11h-.29v-.11c0-.14.05-.27.14-.37l.29-.32c.08-.09.12-.2.12-.32,0-.17-.14-.31-.32-.31h-.19c-.17,0-.32.14-.32.31h-.29c0-.33.27-.61.61-.61h.19M4.59,2.94h-.19c-.49,0-.89.4-.89.89v.28h.86v-.28l.22-.03c.03.08.02.13-.02.16l-.29.32c-.14.15-.22.35-.22.56v.11s0,.28,0,.28h.85v-.28s0-.11,0-.11l.29-.31c.17-.19.27-.44.27-.7,0-.49-.4-.89-.89-.89h0Z"/>
    </g>
  </g>
</svg>