<?xml version="1.0" encoding="UTF-8"?>
<svg id="Layer_1" xmlns="http://www.w3.org/2000/svg" version="1.1" viewBox="0 0 117 117">
  <!-- Generator: Adobe Illustrator 30.1.0, SVG Export Plug-In . SVG Version: 2.1.1 Build 136)  -->
  <path d="M58.5,22.6c1.17,0,2.33.61,2.94,1.82l7.51,14.91c1.29,2.56,3.69,4.37,6.5,4.9l16.25,3.05c2.54.48,3.57,3.56,1.83,5.48l-11.84,12.99c-1.83,2-2.68,4.72-2.32,7.41l2.31,17.52c.28,2.09-1.39,3.75-3.27,3.75-.5,0-1.01-.12-1.51-.37l-14.21-7.32c-1.32-.68-2.76-1.02-4.2-1.02s-2.88.34-4.2,1.02l-14.21,7.32c-.5.26-1.01.37-1.51.37-1.88,0-3.54-1.66-3.27-3.75l2.31-17.52c.35-2.69-.49-5.4-2.32-7.4l-11.84-12.99c-1.74-1.91-.71-5,1.83-5.48l16.25-3.05c2.81-.53,5.21-2.34,6.5-4.89l7.51-14.91c.61-1.21,1.78-1.82,2.94-1.82M58.5,0C48.66,0,39.8,5.46,35.37,14.25l-4.53,8.99-9.72,1.82c-9.22,1.73-16.8,8.33-19.78,17.23-2.98,8.9-.91,18.74,5.42,25.68l7.64,8.39-1.5,11.35c-.98,7.4,1.28,14.85,6.19,20.46,4.93,5.62,12.02,8.84,19.48,8.84,4.1,0,8.2-1,11.85-2.88l8.07-4.15,8.07,4.15c3.66,1.88,7.76,2.88,11.85,2.88,7.45,0,14.55-3.22,19.48-8.84,4.91-5.6,7.17-13.06,6.19-20.46l-1.5-11.35,7.65-8.39c6.32-6.94,8.4-16.78,5.42-25.68-2.98-8.9-10.56-15.5-19.78-17.23l-9.72-1.82-4.53-8.99C77.2,5.46,68.34,0,58.5,0h0Z"/>
</svg>