<?xml version="1.0" encoding="UTF-8"?>
<svg id="Layer_1" xmlns="http://www.w3.org/2000/svg" version="1.1" viewBox="0 0 117 117">
  <!-- Generator: Adobe Illustrator 30.1.0, SVG Export Plug-In . SVG Version: 2.1.1 Build 136)  -->
  <path d="M58.5,24.64c1.1,0,2.2.57,2.78,1.71l7.08,14.06c1.22,2.41,3.48,4.12,6.13,4.62l15.32,2.87c2.4.45,3.37,3.36,1.72,5.16l-11.16,12.25c-1.72,1.89-2.52,4.45-2.19,6.99l2.18,16.52c.26,1.97-1.31,3.53-3.08,3.53-.47,0-.95-.11-1.42-.35l-13.4-6.9c-1.24-.64-2.6-.96-3.96-.96s-2.72.32-3.96.96l-13.4,6.9c-.47.24-.95.35-1.42.35-1.77,0-3.34-1.56-3.08-3.53l2.18-16.52c.33-2.53-.47-5.09-2.19-6.98l-11.17-12.25c-1.64-1.81-.67-4.72,1.73-5.17l15.32-2.87c2.65-.5,4.92-2.2,6.13-4.61l7.08-14.06c.58-1.14,1.68-1.71,2.78-1.71M58.5,0c-10.54,0-20.04,5.85-24.78,15.27l-3.53,7-7.54,1.41c-9.88,1.85-18.01,8.93-21.2,18.47-3.2,9.54-.97,20.09,5.8,27.52l6.16,6.76-1.21,9.17c-1.05,7.93,1.37,15.92,6.64,21.92,5.28,6.02,12.89,9.47,20.88,9.47,4.39,0,8.79-1.07,12.7-3.09l6.08-3.13,6.08,3.13c3.92,2.02,8.31,3.09,12.7,3.09,7.99,0,15.6-3.45,20.88-9.47,5.26-6,7.68-14,6.64-21.92l-1.21-9.17,6.17-6.77c6.78-7.44,9-17.98,5.8-27.52-3.19-9.54-11.32-16.61-21.2-18.46l-7.55-1.41-3.53-7C78.54,5.85,69.04,0,58.5,0h0Z"/>
</svg>