<?xml version="1.0" encoding="UTF-8"?>
<svg id="Layer_1" xmlns="http://www.w3.org/2000/svg" version="1.1" viewBox="0 0 117 117">
  <!-- Generator: Adobe Illustrator 30.1.0, SVG Export Plug-In . SVG Version: 2.1.1 Build 136)  -->
  <path d="M58.5,8.12c1.64,0,3.28.85,4.13,2.55l10.54,20.92c1.81,3.59,5.18,6.13,9.13,6.87l22.8,4.27c3.57.67,5.01,5,2.57,7.69l-16.61,18.23c-2.56,2.81-3.76,6.62-3.26,10.39l3.24,24.58c.39,2.93-1.95,5.26-4.59,5.26-.7,0-1.42-.16-2.12-.52l-19.95-10.27c-1.85-.95-3.87-1.43-5.89-1.43-2.02,0-4.04.48-5.89,1.43l-19.95,10.27c-.7.36-1.42.52-2.12.52-2.64,0-4.97-2.32-4.59-5.26l3.24-24.59c.5-3.77-.69-7.57-3.25-10.38l-16.62-18.23c-2.45-2.69-1-7.02,2.57-7.69l22.8-4.27c3.94-.74,7.32-3.28,9.12-6.87l10.54-20.93c.86-1.7,2.49-2.55,4.13-2.55M58.5,0c-4.84,0-9.2,2.69-11.38,7.01l-10.54,20.93c-.66,1.32-1.92,2.27-3.37,2.54l-22.8,4.27c-4.54.85-8.27,4.1-9.74,8.48-1.47,4.39-.45,9.23,2.67,12.65l16.62,18.23c.95,1.04,1.39,2.45,1.21,3.85l-3.24,24.59c-.48,3.65.63,7.32,3.04,10.07,2.43,2.77,5.93,4.37,9.59,4.37,2.01,0,4.02-.49,5.83-1.42l19.95-10.27c.67-.35,1.42-.53,2.17-.53.75,0,1.51.18,2.18.53l19.95,10.27c1.81.93,3.82,1.42,5.83,1.42,3.67,0,7.16-1.59,9.59-4.37,2.41-2.75,3.52-6.42,3.04-10.07l-3.24-24.58c-.19-1.41.26-2.82,1.21-3.87l16.61-18.23c3.11-3.42,4.14-8.26,2.67-12.65-1.47-4.38-5.2-7.63-9.74-8.48l-22.8-4.27c-1.45-.27-2.71-1.22-3.37-2.54l-10.54-20.92c-2.18-4.33-6.54-7.01-11.38-7.01h0Z"/>
</svg>