<?xml version="1.0" encoding="UTF-8"?>
<svg id="Layer_1" xmlns="http://www.w3.org/2000/svg" version="1.1" viewBox="0 0 79 79">
  <!-- Generator: Adobe Illustrator 30.1.0, SVG Export Plug-In . SVG Version: 2.1.1 Build 136)  -->
  <path d="M39.5,15.26c.79,0,1.58.41,1.99,1.23l5.07,10.07c.87,1.73,2.49,2.95,4.39,3.31l10.97,2.06c1.72.32,2.41,2.41,1.23,3.7l-7.99,8.77c-1.23,1.35-1.81,3.18-1.57,5l1.56,11.83c.19,1.41-.94,2.53-2.21,2.53-.34,0-.68-.08-1.02-.25l-9.6-4.94c-.89-.46-1.86-.69-2.83-.69-.97,0-1.95.23-2.83.69l-9.6,4.94c-.33.17-.68.25-1.02.25-1.27,0-2.39-1.12-2.21-2.53l1.56-11.83c.24-1.82-.33-3.64-1.57-5l-7.99-8.77c-1.18-1.29-.48-3.38,1.24-3.7l10.97-2.06c1.9-.36,3.52-1.58,4.39-3.3l5.07-10.07c.41-.82,1.2-1.23,1.99-1.23M39.5,0c-6.64,0-12.62,3.69-15.61,9.62l-3.06,6.07-6.56,1.23c-6.23,1.17-11.35,5.62-13.36,11.63-2.01,6.01-.61,12.65,3.66,17.34l5.16,5.66-1.01,7.67c-.66,5,.87,10.03,4.18,13.81,3.33,3.79,8.12,5.97,13.15,5.97,2.77,0,5.53-.67,8-1.94l5.45-2.81,5.45,2.81c2.47,1.27,5.24,1.94,8,1.94,5.03,0,9.83-2.18,13.15-5.97,3.32-3.78,4.84-8.82,4.18-13.81l-1.01-7.66,5.16-5.67c4.27-4.68,5.67-11.33,3.66-17.34-2.01-6.01-7.13-10.47-13.36-11.63l-6.56-1.23-3.06-6.07C52.12,3.69,46.14,0,39.5,0h0Z"/>
</svg>