<?xml version="1.0" encoding="UTF-8"?>
<svg id="Layer_1" xmlns="http://www.w3.org/2000/svg" version="1.1" viewBox="0 0 79 79">
  <!-- Generator: Adobe Illustrator 30.1.0, SVG Export Plug-In . SVG Version: 2.1.1 Build 136)  -->
  <path d="M39.5,12.47c.88,0,1.76.46,2.22,1.37l5.66,11.23c.97,1.93,2.78,3.29,4.9,3.69l12.24,2.29c1.91.36,2.69,2.68,1.38,4.12l-8.91,9.78c-1.38,1.51-2.02,3.55-1.75,5.58l1.74,13.19c.21,1.57-1.05,2.82-2.46,2.82-.38,0-.76-.09-1.13-.28l-10.7-5.51c-.99-.51-2.08-.77-3.16-.77-1.08,0-2.17.26-3.16.77l-10.7,5.51c-.37.19-.76.28-1.13.28-1.41,0-2.67-1.25-2.46-2.82l1.74-13.19c.27-2.02-.37-4.06-1.75-5.57l-8.91-9.78c-1.31-1.44-.54-3.77,1.38-4.13l12.23-2.29c2.12-.4,3.92-1.76,4.89-3.68l5.66-11.23c.46-.91,1.34-1.37,2.22-1.37M39.5,0c-5.68,0-10.8,3.15-13.35,8.23l-4.42,8.77-9.53,1.79c-5.32,1-9.7,4.81-11.42,9.95-1.72,5.14-.52,10.82,3.13,14.83l7.18,7.88-1.4,10.64c-.56,4.27.74,8.58,3.57,11.81,2.85,3.25,6.94,5.11,11.25,5.11,2.36,0,4.73-.58,6.84-1.66l8.15-4.2,8.15,4.2c2.11,1.09,4.48,1.66,6.84,1.66,4.3,0,8.4-1.86,11.25-5.11,2.83-3.23,4.14-7.54,3.57-11.81l-1.4-10.64,7.18-7.88c3.65-4.01,4.85-9.69,3.13-14.83-1.72-5.14-6.1-8.95-11.42-9.95l-9.53-1.79-4.42-8.77c-2.56-5.07-7.67-8.23-13.35-8.23h0Z"/>
</svg>