<?xml version="1.0" encoding="UTF-8"?>
<svg id="Layer_1" xmlns="http://www.w3.org/2000/svg" version="1.1" viewBox="0 0 79 79">
  <!-- Generator: Adobe Illustrator 30.1.0, SVG Export Plug-In . SVG Version: 2.1.1 Build 136)  -->
  <path d="M39.5,5.48c1.11,0,2.21.57,2.79,1.72l7.12,14.13c1.22,2.42,3.5,4.14,6.16,4.64l15.4,2.89c2.41.45,3.38,3.38,1.73,5.19l-11.22,12.31c-1.73,1.9-2.54,4.47-2.2,7.02l2.19,16.6c.26,1.98-1.32,3.55-3.1,3.55-.47,0-.96-.11-1.43-.35l-13.47-6.94c-1.25-.64-2.61-.96-3.98-.96-1.36,0-2.73.32-3.98.96l-13.47,6.94c-.47.24-.96.35-1.43.35-1.78,0-3.36-1.57-3.1-3.55l2.19-16.6c.34-2.55-.47-5.11-2.2-7.01l-11.22-12.31c-1.65-1.81-.68-4.74,1.73-5.19l15.4-2.89c2.66-.5,4.94-2.21,6.16-4.64l7.12-14.13c.58-1.15,1.68-1.72,2.79-1.72M39.5,0C36.23,0,33.29,1.81,31.81,4.74l-7.12,14.13c-.45.89-1.3,1.53-2.28,1.71l-15.4,2.89c-3.06.57-5.58,2.77-6.58,5.73-.99,2.96-.3,6.24,1.8,8.54l11.22,12.31c.64.71.94,1.65.81,2.6l-2.19,16.6c-.32,2.46.42,4.94,2.05,6.8,1.64,1.87,4,2.95,6.48,2.95,1.36,0,2.72-.33,3.94-.96l13.47-6.94c.45-.23.96-.36,1.47-.36.51,0,1.02.12,1.47.36l13.47,6.94c1.22.63,2.58.96,3.94.96,2.47,0,4.84-1.07,6.48-2.95,1.63-1.86,2.38-4.34,2.05-6.8l-2.19-16.6c-.13-.95.17-1.9.82-2.61l11.22-12.31c2.1-2.31,2.79-5.58,1.8-8.54-.99-2.96-3.51-5.15-6.57-5.73l-15.4-2.89c-.98-.18-1.83-.83-2.28-1.72l-7.12-14.13C45.71,1.81,42.77,0,39.5,0h0Z"/>
</svg>