<?xml version="1.0" encoding="UTF-8"?>
<svg id="Layer_1" xmlns="http://www.w3.org/2000/svg" version="1.1" viewBox="0 0 93 93">
  <!-- Generator: Adobe Illustrator 30.1.0, SVG Export Plug-In . SVG Version: 2.1.1 Build 136)  -->
  <path d="M46.5,6.45c1.3,0,2.6.68,3.28,2.03l8.38,16.63c1.44,2.85,4.12,4.87,7.26,5.46l18.13,3.4c2.83.53,3.98,3.98,2.04,6.11l-13.21,14.49c-2.04,2.24-2.99,5.26-2.59,8.26l2.58,19.54c.31,2.33-1.55,4.18-3.65,4.18-.56,0-1.13-.13-1.68-.41l-15.85-8.17c-1.47-.76-3.08-1.14-4.68-1.14-1.61,0-3.21.38-4.68,1.14l-15.85,8.17c-.55.28-1.13.41-1.68.41-2.1,0-3.95-1.85-3.65-4.18l2.58-19.55c.4-3-.55-6.02-2.59-8.25l-13.21-14.49c-1.95-2.14-.8-5.58,2.04-6.11l18.12-3.4c3.13-.59,5.81-2.61,7.25-5.46l8.38-16.63c.68-1.35,1.98-2.03,3.28-2.03M46.5,0C42.65,0,39.18,2.14,37.45,5.57l-8.38,16.63c-.53,1.05-1.53,1.8-2.68,2.02l-18.12,3.4c-3.61.68-6.57,3.26-7.74,6.74-1.17,3.49-.36,7.34,2.12,10.06l13.21,14.49c.76.83,1.11,1.95.96,3.06l-2.58,19.55c-.38,2.9.5,5.82,2.42,8,1.93,2.21,4.71,3.47,7.63,3.47,1.6,0,3.2-.39,4.64-1.13l15.85-8.17c.53-.27,1.13-.42,1.73-.42.6,0,1.2.15,1.73.42l15.85,8.17c1.44.74,3.04,1.13,4.64,1.13,2.91,0,5.69-1.26,7.63-3.47,1.92-2.19,2.8-5.1,2.42-8l-2.58-19.54c-.15-1.12.2-2.24.96-3.07l13.21-14.49c2.48-2.72,3.29-6.57,2.12-10.05-1.17-3.48-4.13-6.07-7.74-6.74l-18.13-3.4c-1.15-.22-2.15-.97-2.68-2.02l-8.38-16.63C53.81,2.14,50.35,0,46.5,0h0Z"/>
</svg>