<?xml version="1.0" encoding="UTF-8"?>
<svg id="Layer_1" xmlns="http://www.w3.org/2000/svg" version="1.1" viewBox="0 0 93 93">
  <!-- Generator: Adobe Illustrator 30.1.0, SVG Export Plug-In . SVG Version: 2.1.1 Build 136)  -->
  <path d="M46.5,8.08c1.25,0,2.5.65,3.15,1.94l8.04,15.96c1.38,2.74,3.95,4.67,6.96,5.24l17.39,3.26c2.72.51,3.82,3.81,1.96,5.86l-12.67,13.9c-1.95,2.15-2.86,5.05-2.48,7.93l2.47,18.75c.29,2.24-1.49,4.01-3.5,4.01-.53,0-1.08-.12-1.61-.4l-15.21-7.83c-1.41-.73-2.95-1.09-4.49-1.09s-3.08.36-4.49,1.09l-15.21,7.83c-.53.27-1.08.4-1.61.4-2.01,0-3.79-1.77-3.5-4.01l2.47-18.75c.38-2.88-.53-5.77-2.48-7.92l-12.67-13.9c-1.87-2.05-.76-5.36,1.96-5.86l17.39-3.26c3.01-.56,5.58-2.5,6.96-5.24l8.04-15.96c.65-1.3,1.9-1.94,3.15-1.94M46.5,0C42.09,0,38.12,2.45,36.13,6.39l-8.04,15.96c-.24.48-.7.83-1.23.93l-17.39,3.26c-4.13.77-7.53,3.74-8.87,7.73-1.34,3.99-.41,8.41,2.43,11.52l12.67,13.9c.35.38.51.9.44,1.42l-2.47,18.75c-.44,3.32.57,6.66,2.77,9.17,2.21,2.52,5.4,3.97,8.74,3.97,1.83,0,3.67-.45,5.31-1.29l15.21-7.83c.25-.13.52-.19.79-.19s.55.06.79.19l15.21,7.83c1.64.85,3.48,1.29,5.31,1.29,3.34,0,6.52-1.45,8.74-3.97,2.2-2.51,3.21-5.85,2.77-9.17l-2.47-18.75c-.07-.52.09-1.04.45-1.43l12.67-13.9c2.84-3.11,3.77-7.53,2.43-11.52-1.34-3.99-4.73-6.95-8.87-7.73l-17.39-3.26c-.53-.1-.99-.45-1.23-.93l-8.04-15.96C54.88,2.45,50.91,0,46.5,0h0Z"/>
</svg>