<?xml version="1.0" encoding="UTF-8"?>
<svg id="Layer_1" xmlns="http://www.w3.org/2000/svg" version="1.1" viewBox="0 0 93 93">
  <!-- Generator: Adobe Illustrator 30.1.0, SVG Export Plug-In . SVG Version: 2.1.1 Build 136)  -->
  <path d="M46.5,14.68c1.03,0,2.07.54,2.61,1.61l6.66,13.22c1.14,2.27,3.27,3.87,5.77,4.34l14.4,2.7c2.25.42,3.17,3.16,1.62,4.85l-10.49,11.52c-1.62,1.78-2.37,4.18-2.06,6.57l2.05,15.53c.24,1.85-1.23,3.32-2.9,3.32-.44,0-.9-.1-1.34-.33l-12.6-6.49c-1.17-.6-2.44-.9-3.72-.9-1.28,0-2.55.3-3.72.9l-12.6,6.49c-.44.23-.89.33-1.34.33-1.67,0-3.14-1.47-2.9-3.32l2.05-15.53c.31-2.38-.44-4.78-2.06-6.56l-10.49-11.52c-1.55-1.7-.63-4.44,1.62-4.86l14.4-2.7c2.49-.47,4.62-2.07,5.76-4.34l6.66-13.22c.54-1.07,1.58-1.61,2.61-1.61M46.5,0C39.81,0,33.79,3.71,30.78,9.68l-5.2,10.33-11.22,2.1c-6.27,1.17-11.42,5.66-13.45,11.71-2.03,6.05-.62,12.74,3.68,17.46l8.45,9.27-1.65,12.53c-.66,5.03.87,10.1,4.21,13.9,3.35,3.82,8.18,6.01,13.24,6.01,2.78,0,5.57-.68,8.06-1.96l9.6-4.94,9.6,4.94c2.49,1.28,5.27,1.96,8.06,1.96,5.07,0,9.89-2.19,13.24-6.01,3.34-3.81,4.87-8.87,4.21-13.9l-1.65-12.53,8.45-9.28c4.3-4.72,5.71-11.4,3.68-17.46-2.03-6.05-7.18-10.54-13.45-11.71l-11.22-2.1-5.2-10.33C59.21,3.71,53.18,0,46.5,0h0Z"/>
</svg>