<?xml version="1.0" encoding="UTF-8"?>
<svg id="Layer_1" xmlns="http://www.w3.org/2000/svg" version="1.1" viewBox="0 0 22 22">
  <!-- Generator: Adobe Illustrator 30.1.0, SVG Export Plug-In . SVG Version: 2.1.1 Build 136)  -->
  <circle id="Outer" cx="11" cy="11" r="10.04" fill="none" stroke="#000" stroke-width="1.91"/>
  <g>
    <g>
      <rect x="10.3" y="14.63" width="1.38" height="1.38"/>
      <path d="M11.54,14.77v1.1h-1.1v-1.1h1.1M11.82,14.49h-1.65v1.65h1.65v-1.65h0Z"/>
    </g>
    <g>
      <path d="M10.31,13.11v-.55c0-.56.2-1.09.58-1.5l1.09-1.21c.28-.31.43-.7.43-1.11,0-.58-.47-1.04-1.05-1.04h-.7c-.58,0-1.05.47-1.05,1.04v.14h-1.39v-.14c0-1.34,1.09-2.42,2.44-2.42h.7c1.34,0,2.44,1.09,2.44,2.42,0,.75-.28,1.47-.78,2.03l-1.09,1.21c-.15.16-.23.36-.23.58v.55h-1.38Z"/>
      <path d="M11.35,6.45c1.27,0,2.3,1.03,2.3,2.29,0,.72-.27,1.41-.75,1.94l-1.09,1.21c-.17.19-.26.42-.26.67v.42h-1.11v-.42c0-.52.19-1.02.54-1.41l1.09-1.21c.3-.33.46-.76.46-1.2,0-.65-.53-1.18-1.19-1.18h-.7c-.66,0-1.19.53-1.19,1.18h-1.11c0-1.26,1.03-2.29,2.3-2.29h.7M11.35,6.18h-.7c-1.42,0-2.58,1.15-2.58,2.56v.27h1.66v-.27c0-.5.41-.91.91-.91h.7c.5,0,.91.41.91.91,0,.38-.14.74-.39,1.02l-1.09,1.21c-.4.44-.61,1-.62,1.59v.42s0,.27,0,.27h1.65v-.27s0-.42,0-.42c0-.18.07-.35.19-.49l1.09-1.21c.53-.58.82-1.34.82-2.12,0-1.41-1.16-2.56-2.58-2.56h0Z"/>
    </g>
  </g>
</svg>