<?xml version="1.0" encoding="UTF-8"?>
<svg id="Layer_1" xmlns="http://www.w3.org/2000/svg" version="1.1" viewBox="0 0 22 22">
  <!-- Generator: Adobe Illustrator 30.1.0, SVG Export Plug-In . SVG Version: 2.1.1 Build 136)  -->
  <circle id="Outer" cx="11" cy="11" r="9.66" fill="none" stroke="#000" stroke-width="2.69"/>
  <g>
    <g>
      <rect x="10.3" y="14.34" width="1.38" height="1.38"/>
      <path d="M11.48,14.55v.97h-.97v-.97h.97M11.89,14.13h-1.79v1.79h1.79v-1.79h0Z"/>
    </g>
    <g>
      <path d="M10.31,12.87v-.57c0-.51.19-1,.53-1.38l.96-1.06c.23-.25.35-.58.35-.92,0-.46-.38-.83-.84-.83h-.62c-.46,0-.84.37-.84.83v.21h-1.39v-.21c0-1.22,1-2.21,2.23-2.21h.62c1.23,0,2.22.99,2.22,2.21,0,.68-.25,1.33-.71,1.84l-.96,1.06c-.12.13-.18.28-.18.45v.57h-1.38Z"/>
      <path d="M11.31,6.94c1.11,0,2.02.9,2.02,2,0,.63-.23,1.23-.66,1.7l-.96,1.06c-.15.16-.23.37-.23.59v.37h-.97v-.37c0-.46.17-.89.48-1.24l.96-1.06c.26-.29.41-.66.41-1.05,0-.57-.47-1.04-1.04-1.04h-.62c-.58,0-1.04.46-1.04,1.04h-.98c0-1.11.91-2,2.02-2h.62M11.31,6.53h-.62c-1.34,0-2.43,1.08-2.43,2.42v.41h1.8v-.41c0-.34.28-.62.63-.62h.62c.35,0,.63.28.63.62,0,.29-.11.56-.3.78l-.96,1.06c-.38.41-.58.95-.59,1.51v.37s0,.41,0,.41h1.78v-.41s0-.37,0-.37c0-.12.04-.23.12-.32l.96-1.06c.49-.54.76-1.25.76-1.98,0-1.33-1.09-2.42-2.43-2.42h0Z"/>
    </g>
  </g>
</svg>