<?xml version="1.0" encoding="UTF-8"?>
<svg id="Layer_1" xmlns="http://www.w3.org/2000/svg" version="1.1" viewBox="0 0 22 22">
  <!-- Generator: Adobe Illustrator 30.1.0, SVG Export Plug-In . SVG Version: 2.1.1 Build 136)  -->
  <circle id="Outer" cx="11" cy="11" r="8.88" fill="none" stroke="#000" stroke-width="4.25"/>
  <g>
    <g>
      <rect x="10.29" y="13.74" width="1.4" height="1.4"/>
      <path d="M11.35,14.09v.71h-.71v-.71h.71M12.04,13.4h-2.09v2.09h2.09v-2.09h0Z"/>
    </g>
    <g>
      <path d="M10.3,12.43v-.61c0-.43.15-.83.44-1.15l.71-.78c.14-.15.21-.35.21-.55,0-.23-.19-.42-.43-.42h-.45c-.24,0-.43.19-.43.42v.34h-1.41v-.34c0-1.01.82-1.82,1.83-1.82h.45c1.01,0,1.83.82,1.83,1.82,0,.55-.2,1.08-.57,1.49l-.71.78c-.05.06-.08.13-.08.21v.61h-1.4Z"/>
      <path d="M11.23,7.86c.82,0,1.49.66,1.49,1.48,0,.46-.17.91-.48,1.26l-.71.78c-.11.12-.17.27-.17.43v.27h-.72v-.27c0-.34.12-.66.35-.91l.71-.78c.19-.21.3-.49.3-.78,0-.42-.35-.77-.77-.77h-.45c-.42,0-.77.34-.77.77h-.72c0-.82.67-1.48,1.49-1.48h.45M11.23,7.18h-.45c-1.2,0-2.18.97-2.18,2.17v.69h2.1v-.69s.04-.08.08-.08h.45s.08.04.08.08c0,.12-.04.23-.12.32l-.71.78c-.34.38-.53.86-.53,1.37v.28s0,.68,0,.68h2.08v-.68s0-.27,0-.27l.7-.77c.43-.47.66-1.08.66-1.72,0-1.2-.98-2.17-2.18-2.17h0Z"/>
    </g>
  </g>
</svg>