<?xml version="1.0" encoding="UTF-8"?>
<svg id="Layer_1" xmlns="http://www.w3.org/2000/svg" version="1.1" viewBox="0 0 22 22">
  <!-- Generator: Adobe Illustrator 30.1.0, SVG Export Plug-In . SVG Version: 2.1.1 Build 136)  -->
  <circle id="Outer" cx="11" cy="11" r="9.26" fill="none" stroke="#000" stroke-width="3.47"/>
  <g>
    <g>
      <rect x="10.3" y="14.04" width="1.39" height="1.39"/>
      <path d="M11.41,14.32v.84h-.84v-.84h.84M11.96,13.77h-1.94v1.94h1.94v-1.94h0Z"/>
    </g>
    <g>
      <path d="M10.3,12.64v-.59c0-.47.17-.91.48-1.26l.83-.92c.18-.2.28-.46.28-.73,0-.34-.28-.62-.63-.62h-.53c-.35,0-.63.28-.63.62v.27h-1.39v-.27c0-1.11.91-2.01,2.02-2.01h.53c1.11,0,2.02.9,2.02,2.01,0,.61-.23,1.2-.64,1.66l-.83.92c-.08.09-.13.21-.13.33v.59h-1.39Z"/>
      <path d="M11.27,7.41c.96,0,1.75.78,1.75,1.73,0,.54-.2,1.07-.57,1.47l-.83.92c-.13.14-.2.32-.2.51v.32h-.84v-.32c0-.4.14-.77.41-1.07l.83-.92c.23-.25.35-.58.35-.91,0-.49-.41-.9-.9-.9h-.53c-.5,0-.9.4-.9.9h-.84c0-.96.78-1.73,1.75-1.73h.53M11.27,6.86h-.53c-1.27,0-2.3,1.02-2.3,2.28v.55h1.94v-.55c0-.19.16-.35.35-.35h.53c.19,0,.35.16.35.35,0,.2-.07.39-.21.54l-.83.92c-.36.39-.55.9-.56,1.44v.32s0,.55,0,.55h1.93v-.54s0-.32,0-.32c0-.06.02-.1.06-.15l.83-.92c.46-.51.71-1.16.71-1.84,0-1.26-1.03-2.28-2.3-2.28h0Z"/>
    </g>
  </g>
</svg>