<?xml version="1.0" encoding="UTF-8"?>
<svg id="Layer_1" xmlns="http://www.w3.org/2000/svg" version="1.1" viewBox="0 0 22 22">
  <!-- Generator: Adobe Illustrator 30.1.0, SVG Export Plug-In . SVG Version: 2.1.1 Build 136)  -->
  <circle id="Outer" cx="11" cy="11" r="10.24" fill="none" stroke="#000" stroke-width="1.53"/>
  <g>
    <g>
      <rect x="10.3" y="14.78" width="1.38" height="1.38"/>
      <path d="M11.58,14.88v1.17h-1.17v-1.17h1.17M11.78,14.67h-1.58v1.58h1.58v-1.58h0Z"/>
    </g>
    <g>
      <path d="M10.31,13.24v-.55c0-.58.21-1.14.6-1.57l1.16-1.28c.3-.33.46-.76.46-1.21,0-.64-.52-1.15-1.16-1.15h-.75c-.64,0-1.16.52-1.16,1.15v.1h-1.39v-.1c0-1.4,1.14-2.53,2.55-2.53h.75c1.41,0,2.55,1.14,2.55,2.53,0,.79-.29,1.54-.82,2.13l-1.16,1.29c-.17.18-.25.41-.25.64v.55h-1.38Z"/>
      <path d="M11.37,6.21c1.35,0,2.45,1.09,2.45,2.43,0,.76-.28,1.49-.79,2.06l-1.16,1.29c-.18.2-.28.45-.28.71v.44h-1.18v-.44c0-.56.2-1.08.58-1.5l1.16-1.28c.32-.35.49-.81.49-1.28,0-.69-.57-1.26-1.26-1.26h-.75c-.7,0-1.26.56-1.26,1.26h-1.18c0-1.34,1.1-2.43,2.45-2.43h.75M11.37,6h-.75c-1.46,0-2.65,1.18-2.65,2.63v.21h1.59v-.21c0-.58.47-1.05,1.06-1.05h.75c.58,0,1.06.47,1.06,1.05,0,.42-.16.83-.44,1.14l-1.16,1.29c-.41.45-.63,1.03-.63,1.63v.45s0,.2,0,.2h1.58v-.2s0-.44,0-.44c0-.21.08-.41.23-.58l1.16-1.29c.55-.61.85-1.39.85-2.2,0-1.45-1.19-2.63-2.65-2.63h0Z"/>
    </g>
  </g>
</svg>