<?xml version="1.0" encoding="UTF-8"?>
<svg id="Layer_1" xmlns="http://www.w3.org/2000/svg" version="1.1" viewBox="0 0 22 22">
  <!-- Generator: Adobe Illustrator 30.1.0, SVG Export Plug-In . SVG Version: 2.1.1 Build 136)  -->
  <circle id="Outer" cx="11" cy="11" r="8.68" fill="none" stroke="#000" stroke-width="4.63"/>
  <g>
    <g>
      <rect x="10.29" y="13.59" width="1.41" height="1.41"/>
      <path d="M11.32,13.97v.66h-.66v-.66h.66M12.08,13.21h-2.17v2.17h2.17v-2.17h0Z"/>
    </g>
    <g>
      <path d="M10.29,12.34v-.62c0-.41.15-.8.42-1.1l.65-.72c.12-.13.18-.29.18-.46,0-.18-.15-.33-.33-.33h-.42c-.18,0-.33.15-.33.33v.38h-1.42v-.38c0-.96.78-1.74,1.75-1.74h.42c.96,0,1.75.78,1.75,1.74,0,.52-.19,1.02-.54,1.41l-.65.72s-.06.09-.06.15v.62h-1.41Z"/>
      <path d="M11.21,8.08c.76,0,1.37.61,1.37,1.36,0,.43-.16.84-.44,1.15l-.65.72c-.1.11-.16.25-.16.4v.25h-.66v-.25c0-.31.11-.61.32-.84l.65-.72c.18-.2.28-.45.28-.72,0-.39-.32-.7-.71-.7h-.42c-.39,0-.71.32-.71.7h-.66c0-.75.61-1.36,1.37-1.36h.42M11.21,7.32h-.42c-1.17,0-2.13.95-2.13,2.12v.76h1.92l-.16.17c-.33.37-.52.85-.52,1.34v.26s0,.75,0,.75h2.15v-.75s0-.19,0-.19l.61-.68c.41-.46.64-1.05.64-1.66,0-1.17-.95-2.12-2.13-2.12h0ZM10.84,9.49h.32c-.01.06-.04.11-.08.16l-.24.27v-.42h0Z"/>
    </g>
  </g>
</svg>