<?xml version="1.0" encoding="UTF-8"?>
<svg id="Layer_1" xmlns="http://www.w3.org/2000/svg" version="1.1" viewBox="0 0 41 41">
  <!-- Generator: Adobe Illustrator 30.1.0, SVG Export Plug-In . SVG Version: 2.1.1 Build 136)  -->
  <path d="M20.5,3.56c.55,0,1.1.29,1.39.86l3.54,7.03c.61,1.21,1.74,2.06,3.07,2.31l7.67,1.44c1.2.22,1.68,1.68.86,2.58l-5.59,6.13c-.86.95-1.26,2.22-1.1,3.49l1.09,8.26c.13.99-.66,1.77-1.54,1.77-.24,0-.48-.05-.71-.18l-6.71-3.45c-.62-.32-1.3-.48-1.98-.48-.68,0-1.36.16-1.98.48l-6.71,3.45c-.23.12-.48.18-.71.18-.89,0-1.67-.78-1.54-1.77l1.09-8.27c.17-1.27-.23-2.55-1.09-3.49l-5.59-6.13c-.82-.9-.34-2.36.86-2.59l7.67-1.44c1.33-.25,2.46-1.1,3.07-2.31l3.54-7.04c.29-.57.84-.86,1.39-.86M20.5,0C18.56,0,16.8,1.08,15.93,2.82l-3.54,7.04c-.11.21-.31.37-.54.41l-7.67,1.44c-1.82.34-3.32,1.65-3.91,3.41-.59,1.76-.18,3.71,1.07,5.08l5.59,6.13c.15.17.23.4.2.63l-1.09,8.27c-.19,1.46.25,2.94,1.22,4.04.98,1.11,2.38,1.75,3.85,1.75.81,0,1.62-.2,2.34-.57l6.71-3.45c.11-.06.23-.08.35-.08.12,0,.24.03.35.08l6.71,3.45c.72.37,1.53.57,2.34.57,1.47,0,2.88-.64,3.85-1.75.97-1.11,1.41-2.58,1.22-4.04l-1.09-8.26c-.03-.23.04-.46.2-.63l5.59-6.13c1.25-1.37,1.66-3.32,1.07-5.08-.59-1.76-2.09-3.06-3.91-3.41l-7.67-1.44c-.23-.04-.44-.2-.54-.41l-3.54-7.03C24.19,1.08,22.44,0,20.5,0h0Z"/>
</svg>