<?xml version="1.0" encoding="UTF-8"?>
<svg id="Layer_1" xmlns="http://www.w3.org/2000/svg" version="1.1" viewBox="0 0 41 41">
  <!-- Generator: Adobe Illustrator 30.1.0, SVG Export Plug-In . SVG Version: 2.1.1 Build 136)  -->
  <path d="M20.5,6.47c.46,0,.91.24,1.15.71l2.94,5.83c.5,1,1.44,1.71,2.54,1.91l6.35,1.19c.99.19,1.4,1.39.71,2.14l-4.63,5.08c-.71.78-1.05,1.84-.91,2.89l.9,6.85c.11.82-.54,1.46-1.28,1.46-.19,0-.4-.05-.59-.15l-5.55-2.86c-.51-.27-1.08-.4-1.64-.4-.56,0-1.13.13-1.64.4l-5.55,2.86c-.19.1-.39.15-.59.15-.73,0-1.39-.65-1.28-1.46l.9-6.85c.14-1.05-.19-2.11-.91-2.89l-4.63-5.08c-.68-.75-.28-1.96.71-2.14l6.35-1.19c1.1-.21,2.04-.91,2.54-1.91l2.94-5.83c.24-.47.69-.71,1.15-.71M20.5,0C17.55,0,14.9,1.64,13.57,4.27l-2.29,4.55-4.94.93c-2.76.52-5.03,2.5-5.93,5.16-.89,2.67-.27,5.62,1.62,7.7l3.73,4.09-.73,5.52c-.29,2.22.38,4.45,1.85,6.13,1.48,1.68,3.6,2.65,5.84,2.65,1.23,0,2.45-.3,3.55-.86l4.23-2.18,4.23,2.18c1.1.56,2.32.86,3.55.86,2.23,0,4.36-.97,5.84-2.65,1.47-1.68,2.15-3.91,1.85-6.13l-.73-5.52,3.73-4.09c1.89-2.08,2.52-5.03,1.62-7.7-.89-2.67-3.16-4.64-5.93-5.16l-4.95-.93-2.29-4.55C26.1,1.64,23.45,0,20.5,0h0Z"/>
</svg>