<?xml version="1.0" encoding="UTF-8"?>
<svg id="Layer_1" xmlns="http://www.w3.org/2000/svg" version="1.1" viewBox="0 0 41 41">
  <!-- Generator: Adobe Illustrator 30.1.0, SVG Export Plug-In . SVG Version: 2.1.1 Build 136)  -->
  <path d="M20.5,5.01c.5,0,1.01.26,1.27.78l3.24,6.43c.56,1.1,1.59,1.88,2.81,2.11l7.01,1.31c1.1.21,1.54,1.54.79,2.36l-5.11,5.61c-.79.86-1.15,2.03-1,3.2l1,7.56c.12.9-.6,1.62-1.41,1.62-.21,0-.44-.05-.65-.16l-6.13-3.16c-.57-.29-1.19-.44-1.81-.44-.62,0-1.24.15-1.81.44l-6.13,3.16c-.21.11-.44.16-.65.16-.81,0-1.53-.71-1.41-1.62l1-7.56c.15-1.16-.21-2.33-1-3.19l-5.11-5.61c-.75-.83-.31-2.16.79-2.36l7.01-1.31c1.21-.23,2.25-1.01,2.8-2.11l3.24-6.43c.26-.52.77-.78,1.27-.78M20.5,0C18.06,0,15.85,1.36,14.76,3.54l-3.01,5.97-6.5,1.22c-2.29.43-4.17,2.07-4.91,4.28-.74,2.21-.23,4.66,1.35,6.38l4.78,5.25-.93,7.08c-.24,1.84.32,3.69,1.54,5.08,1.23,1.4,2.99,2.2,4.84,2.2,1.02,0,2.03-.25,2.94-.72l5.65-2.91,5.65,2.91c.91.47,1.93.72,2.94.72,1.85,0,3.62-.8,4.84-2.2,1.22-1.39,1.78-3.24,1.54-5.08l-.93-7.08,4.78-5.25c1.57-1.72,2.09-4.17,1.35-6.38-.74-2.21-2.62-3.85-4.91-4.28l-6.5-1.22-3.01-5.97C25.14,1.36,22.94,0,20.5,0h0Z"/>
</svg>