<?xml version="1.0" encoding="UTF-8"?>
<svg id="Layer_1" xmlns="http://www.w3.org/2000/svg" version="1.1" viewBox="0 0 98 98">
  <!-- Generator: Adobe Illustrator 30.1.0, SVG Export Plug-In . SVG Version: 2.1.1 Build 136)  -->
  <circle id="Outer" cx="49" cy="49" r="41.27" fill="none" stroke="#000" stroke-width="15.47"/>
  <g>
    <g>
      <rect x="45.89" y="62.55" width="6.18" height="6.18"/>
      <path d="M50.84,63.77v3.73h-3.73v-3.73h3.73M53.29,61.32h-8.63v8.63h8.63v-8.63h0Z"/>
    </g>
    <g>
      <path d="M45.9,56.3l-.02-2.62c0-2.08.78-4.06,2.16-5.6l3.69-4.09c.81-.89,1.25-2.05,1.25-3.24,0-1.53-1.25-2.77-2.8-2.77h-2.37c-1.54,0-2.8,1.24-2.8,2.77v1.23h-6.21v-1.23c0-4.94,4.04-8.95,9.01-8.95h2.37c4.97,0,9.01,4.02,9.01,8.95,0,2.73-1.01,5.35-2.84,7.38l-3.69,4.09c-.38.42-.57.92-.58,1.45l-.03,2.63h-6.15Z"/>
      <path d="M50.19,33.03c4.29,0,7.78,3.47,7.78,7.73,0,2.42-.9,4.75-2.53,6.56l-3.69,4.09c-.57.63-.89,1.42-.89,2.27v1.41h-3.74v-1.41c0-1.77.64-3.45,1.83-4.76l3.69-4.09c1.01-1.12,1.57-2.56,1.57-4.06,0-2.2-1.8-3.99-4.02-3.99h-2.37c-2.22,0-4.02,1.79-4.02,3.99h-3.76c0-4.26,3.49-7.73,7.78-7.73h2.37M50.19,30.58h-2.37c-5.64,0-10.23,4.57-10.23,10.18v2.45h8.66v-2.45c0-.85.71-1.54,1.57-1.54h2.37c.87,0,1.57.69,1.57,1.54,0,.89-.33,1.76-.94,2.42l-3.69,4.09c-1.59,1.76-2.47,4.03-2.48,6.4v1.44s.03,2.43.03,2.43h8.58l.02-2.43v-1.41c.02-.25.1-.46.27-.65l3.69-4.09c2.04-2.26,3.16-5.17,3.16-8.2,0-5.61-4.59-10.18-10.23-10.18h0Z"/>
    </g>
  </g>
</svg>