<?xml version="1.0" encoding="UTF-8"?>
<svg id="Layer_1" xmlns="http://www.w3.org/2000/svg" version="1.1" viewBox="0 0 98 98">
  <!-- Generator: Adobe Illustrator 30.1.0, SVG Export Plug-In . SVG Version: 2.1.1 Build 136)  -->
  <circle id="Outer" cx="49" cy="49" r="38.68" fill="none" stroke="#000" stroke-width="20.64"/>
  <g>
    <g>
      <rect x="45.83" y="60.55" width="6.29" height="6.29"/>
      <path d="M50.44,62.23v2.92h-2.92v-2.92h2.92M53.81,58.86h-9.66v9.66h9.66v-9.66h0Z"/>
    </g>
    <g>
      <path d="M45.85,54.96l-.02-2.77c0-1.82.67-3.54,1.88-4.88l2.89-3.2c.51-.57.79-1.3.79-2.06,0-.8-.66-1.45-1.47-1.45h-1.86c-.81,0-1.47.65-1.47,1.45v1.68h-6.32v-1.68c0-4.27,3.49-7.74,7.79-7.74h1.86c4.29,0,7.79,3.47,7.79,7.74,0,2.32-.86,4.54-2.42,6.27l-2.89,3.21c-.17.19-.26.42-.26.66l-.03,2.78h-6.26Z"/>
      <path d="M49.93,35.98c3.36,0,6.1,2.72,6.1,6.06,0,1.9-.7,3.73-1.98,5.14l-2.89,3.21c-.45.5-.7,1.11-.7,1.78v1.11h-2.93v-1.11c0-1.38.51-2.7,1.44-3.73l2.89-3.21c.79-.88,1.23-2.01,1.23-3.19,0-1.73-1.41-3.13-3.15-3.13h-1.86c-1.74,0-3.15,1.4-3.15,3.13h-2.95c0-3.34,2.74-6.06,6.1-6.06h1.86M49.93,32.62h-1.86c-5.22,0-9.47,4.23-9.47,9.43v3.37h8.55l-.69.77c-1.48,1.64-2.31,3.77-2.32,5.98v1.15s.04,3.34.04,3.34h9.6l.03-3.33v-.85s2.74-3.02,2.74-3.02c1.84-2.03,2.85-4.66,2.85-7.4,0-5.2-4.25-9.43-9.47-9.43h0ZM48.29,42.28h1.41c-.04.26-.16.5-.34.69l-1.07,1.18v-1.88h0Z"/>
    </g>
  </g>
</svg>