<?xml version="1.0" encoding="UTF-8"?>
<svg id="Layer_1" xmlns="http://www.w3.org/2000/svg" version="1.1" viewBox="0 0 98 98">
  <!-- Generator: Adobe Illustrator 30.1.0, SVG Export Plug-In . SVG Version: 2.1.1 Build 136)  -->
  <circle id="Outer" cx="49" cy="49" r="44.74" fill="none" stroke="#000" stroke-width="8.51"/>
  <g>
    <g>
      <rect x="45.9" y="65.18" width="6.13" height="6.13"/>
      <path d="M51.42,65.79v4.91h-4.91v-4.91h4.91M52.65,64.57h-7.36v7.36h7.36v-7.36h0Z"/>
    </g>
    <g>
      <path d="M45.91,58.41l-.02-2.46c0-2.48.93-4.85,2.59-6.69l4.86-5.39c1.23-1.36,1.91-3.12,1.91-4.94,0-2.56-2.1-4.65-4.69-4.65h-3.12c-2.58,0-4.69,2.09-4.69,4.65v.61h-6.18v-.61c0-5.95,4.87-10.79,10.86-10.79h3.12c5.99,0,10.86,4.84,10.86,10.79,0,3.34-1.24,6.56-3.49,9.05l-4.86,5.39c-.66.73-1.01,1.62-1.02,2.58l-.03,2.47h-6.12Z"/>
      <path d="M50.56,28.75c5.65,0,10.25,4.57,10.25,10.18,0,3.19-1.18,6.26-3.33,8.64l-4.86,5.39c-.75.83-1.17,1.87-1.17,2.99l-.02,1.86h-4.91l-.02-1.86c0-2.33.87-4.54,2.43-6.28l4.86-5.39c1.33-1.47,2.06-3.38,2.06-5.36,0-2.9-2.38-5.26-5.3-5.26h-3.12c-2.92,0-5.3,2.36-5.3,5.26h-4.95c0-5.61,4.6-10.18,10.25-10.18h3.12M50.56,27.52h-3.12c-6.33,0-11.48,5.12-11.48,11.4v1.22h7.4v-1.22c0-2.23,1.83-4.04,4.07-4.04h3.12c2.25,0,4.07,1.81,4.07,4.04,0,1.68-.62,3.29-1.75,4.53l-4.86,5.39c-1.76,1.95-2.74,4.47-2.75,7.09l.02,1.87v1.21h7.35v-1.21s.03-1.86.03-1.86c0-.81.3-1.56.86-2.18l4.86-5.39c2.35-2.6,3.64-5.96,3.64-9.46,0-6.29-5.15-11.4-11.48-11.4h0Z"/>
    </g>
  </g>
</svg>