<?xml version="1.0" encoding="UTF-8"?>
<svg id="Layer_1" xmlns="http://www.w3.org/2000/svg" version="1.1" viewBox="0 0 98 98">
  <!-- Generator: Adobe Illustrator 30.1.0, SVG Export Plug-In . SVG Version: 2.1.1 Build 136)  -->
  <circle id="Outer" cx="49" cy="49" r="45.6" fill="none" stroke="#000" stroke-width="6.8"/>
  <g>
    <g>
      <rect x="45.9" y="65.82" width="6.14" height="6.13"/>
      <path d="M51.58,66.28v5.22h-5.22v-5.22h5.22M52.5,65.36h-7.05v7.05h7.05v-7.05h0Z"/>
    </g>
    <g>
      <path d="M45.91,58.98l-.02-2.43c0-2.59.97-5.06,2.7-6.98l5.17-5.72c1.34-1.48,2.08-3.39,2.08-5.38,0-2.83-2.32-5.13-5.17-5.13h-3.32c-2.85,0-5.17,2.3-5.17,5.13v.46h-6.18v-.46c0-6.22,5.09-11.28,11.35-11.28h3.32c6.26,0,11.35,5.06,11.35,11.28,0,3.51-1.3,6.88-3.66,9.49l-5.17,5.73c-.73.81-1.12,1.81-1.13,2.87l-.02,2.43h-6.13Z"/>
      <path d="M50.66,27.65c6.01,0,10.89,4.85,10.89,10.82,0,3.39-1.26,6.65-3.54,9.18l-5.17,5.73c-.8.89-1.24,1.99-1.25,3.18l-.02,1.97h-5.22l-.02-1.97c0-2.47.92-4.83,2.58-6.67l5.17-5.72c1.41-1.57,2.19-3.59,2.19-5.69,0-3.08-2.53-5.59-5.63-5.59h-3.32c-3.1,0-5.63,2.51-5.63,5.59h-5.26c0-5.96,4.89-10.82,10.89-10.82h3.32M50.66,26.73h-3.32c-6.51,0-11.81,5.26-11.81,11.74v.92h7.1v-.92c0-2.58,2.11-4.67,4.71-4.67h3.32c2.6,0,4.71,2.1,4.71,4.67,0,1.88-.69,3.68-1.96,5.08l-5.17,5.72c-1.81,2-2.81,4.59-2.82,7.28l.02,1.98v.91h7.05v-.91s.03-1.97.03-1.97c0-.96.35-1.84,1.01-2.57l5.17-5.73c2.43-2.7,3.77-6.17,3.77-9.79,0-6.47-5.3-11.74-11.81-11.74h0Z"/>
    </g>
  </g>
</svg>