<?xml version="1.0" encoding="UTF-8"?>
<svg id="Layer_1" xmlns="http://www.w3.org/2000/svg" version="1.1" viewBox="0 0 98 98">
  <!-- Generator: Adobe Illustrator 30.1.0, SVG Export Plug-In . SVG Version: 2.1.1 Build 136)  -->
  <circle id="Outer" cx="49" cy="49" r="43.01" fill="none" stroke="#000" stroke-width="11.97"/>
  <g>
    <g>
      <rect x="45.9" y="63.88" width="6.15" height="6.15"/>
      <path d="M51.13,64.79v4.31h-4.31v-4.31h4.31M52.96,62.96h-7.98v7.98h7.98v-7.98h0Z"/>
    </g>
    <g>
      <path d="M45.91,57.33l-.02-2.54c0-2.28.85-4.45,2.37-6.13l4.27-4.73c1.01-1.12,1.57-2.57,1.57-4.08,0-2.04-1.67-3.7-3.73-3.7h-2.74c-2.06,0-3.73,1.66-3.73,3.7v.92h-6.18v-.92c0-5.43,4.45-9.85,9.91-9.85h2.74c5.47,0,9.91,4.42,9.91,9.85,0,3.03-1.12,5.94-3.16,8.19l-4.27,4.73c-.52.57-.79,1.27-.79,2.01l-.03,2.54h-6.13Z"/>
      <path d="M50.37,30.92c4.96,0,8.99,4.01,8.99,8.93,0,2.8-1.04,5.49-2.92,7.58l-4.27,4.73c-.66.73-1.03,1.64-1.03,2.62l-.02,1.63h-4.31v-1.63c0-2.04.75-3.99,2.12-5.51l4.27-4.73c1.17-1.29,1.81-2.96,1.81-4.7,0-2.55-2.09-4.62-4.65-4.62h-2.74c-2.56,0-4.65,2.07-4.65,4.62h-4.35c0-4.92,4.03-8.93,8.99-8.93h2.74M50.37,29.08h-2.74c-5.97,0-10.83,4.83-10.83,10.77v1.84h8.02v-1.84c0-1.53,1.26-2.78,2.81-2.78h2.74c1.55,0,2.81,1.25,2.81,2.78,0,1.28-.47,2.51-1.34,3.47l-4.27,4.73c-1.67,1.85-2.6,4.24-2.61,6.73v1.65s.03,1.82.03,1.82h7.95l.02-1.82.02-1.63c0-.53.19-1,.56-1.41l4.27-4.73c2.19-2.42,3.39-5.55,3.39-8.81,0-5.94-4.86-10.77-10.83-10.77h0Z"/>
    </g>
  </g>
</svg>