<?xml version="1.0" encoding="UTF-8"?>
<svg id="Layer_1" xmlns="http://www.w3.org/2000/svg" version="1.1" viewBox="0 0 98 98">
  <!-- Generator: Adobe Illustrator 30.1.0, SVG Export Plug-In . SVG Version: 2.1.1 Build 136)  -->
  <circle id="Outer" cx="49" cy="49" r="39.54" fill="none" stroke="#000" stroke-width="18.93"/>
  <g>
    <g>
      <rect x="45.85" y="61.21" width="6.24" height="6.24"/>
      <path d="M50.57,62.75v3.18h-3.18v-3.18h3.18M53.63,59.68h-9.31v9.31h9.31v-9.31h0Z"/>
    </g>
    <g>
      <path d="M45.88,55.38l-.02-2.72c0-1.9.71-3.71,1.97-5.11l3.15-3.49c.61-.67.94-1.54.94-2.44,0-1.04-.85-1.88-1.9-1.88h-2.02c-1.05,0-1.9.84-1.9,1.88v1.53h-6.27v-1.53c0-4.48,3.67-8.13,8.17-8.13h2.02c4.51,0,8.17,3.65,8.17,8.13,0,2.45-.91,4.8-2.55,6.62l-3.15,3.49c-.24.27-.37.58-.37.92l-.03,2.73h-6.21Z"/>
      <path d="M50.01,35.03c3.66,0,6.64,2.96,6.64,6.6,0,2.07-.77,4.06-2.16,5.6l-3.15,3.49c-.49.54-.76,1.21-.76,1.94v1.2h-3.19v-1.2c0-1.51.55-2.94,1.56-4.07l3.15-3.49c.86-.96,1.34-2.19,1.34-3.47,0-1.88-1.54-3.41-3.43-3.41h-2.02c-1.89,0-3.43,1.53-3.43,3.41h-3.21c0-3.64,2.98-6.6,6.64-6.6h2.02M50.01,31.96h-2.02c-5.35,0-9.7,4.33-9.7,9.66v3.06h9.33v-3.06c0-.19.17-.35.37-.35h2.02c.2,0,.37.16.37.35,0,.52-.19,1.03-.55,1.42l-3.15,3.49c-1.52,1.68-2.36,3.85-2.36,6.11v1.24s.04,3.04.04,3.04h9.25l.03-3.03v-1.15s3.13-3.46,3.13-3.46c1.9-2.1,2.95-4.82,2.95-7.65,0-5.33-4.35-9.66-9.7-9.66h0Z"/>
    </g>
  </g>
</svg>