<?xml version="1.0" encoding="UTF-8"?>
<svg id="Layer_1" xmlns="http://www.w3.org/2000/svg" version="1.1" viewBox="0 0 30 30">
  <!-- Generator: Adobe Illustrator 30.1.0, SVG Export Plug-In . SVG Version: 2.1.1 Build 136)  -->
  <g>
    <g>
      <rect x="13.94" y="7.79" width="2.11" height="2.11"/>
      <path d="M15.87,7.97v1.74h-1.74v-1.74h1.74M16.24,7.6h-2.49v2.49h2.49v-2.49h0Z"/>
    </g>
    <g>
      <polygon points="12.21 22.17 12.21 20.06 13.94 20.06 13.94 15.01 12.21 15.01 12.21 12.89 16.06 12.89 16.06 20.06 17.79 20.06 17.79 22.17 12.21 22.17"/>
      <path d="M15.87,13.08v7.16h1.74v1.74h-5.21v-1.74h1.74v-5.42h-1.74v-1.74h3.48M16.24,12.71h-4.23v2.49h1.74v4.67h-1.74v2.49h5.96v-2.49h-1.74v-7.16h0Z"/>
    </g>
  </g>
  <circle id="Outer" cx="15" cy="15" r="13.7" fill="none" stroke="#000" stroke-width="2.61"/>
</svg>