<?xml version="1.0" encoding="UTF-8"?>
<svg id="Layer_1" xmlns="http://www.w3.org/2000/svg" version="1.1" viewBox="0 0 30 30">
  <!-- Generator: Adobe Illustrator 30.1.0, SVG Export Plug-In . SVG Version: 2.1.1 Build 136)  -->
  <g>
    <g>
      <rect x="13.88" y="9.12" width="2.23" height="2.23"/>
      <path d="M15.6,9.63v1.2h-1.2v-1.2h1.2M16.63,8.6h-3.27v3.27h3.27v-3.27h0Z"/>
    </g>
    <g>
      <polygon points="12.68 20.55 12.68 18.32 13.88 18.32 13.88 15.6 12.68 15.6 12.68 13.36 16.12 13.36 16.12 18.32 17.32 18.32 17.32 20.55 12.68 20.55"/>
      <path d="M15.6,13.88v4.96h1.2v1.2h-3.61v-1.2h1.2v-3.76h-1.2v-1.2h2.41M16.63,12.85h-4.47v3.27h1.2v1.69h-1.2v3.27h5.67v-3.27h-1.2v-4.96h0Z"/>
    </g>
  </g>
  <circle id="Outer" cx="15" cy="15" r="11.84" fill="none" stroke="#000" stroke-width="6.32"/>
</svg>