<?xml version="1.0" encoding="UTF-8"?>
<svg id="Layer_1" xmlns="http://www.w3.org/2000/svg" version="1.1" viewBox="0 0 30 30">
  <!-- Generator: Adobe Illustrator 30.1.0, SVG Export Plug-In . SVG Version: 2.1.1 Build 136)  -->
  <g>
    <g>
      <rect x="13.91" y="8.55" width="2.18" height="2.18"/>
      <path d="M15.71,8.93v1.43h-1.43v-1.43h1.43M16.46,8.18h-2.93v2.93h2.93v-2.93h0Z"/>
    </g>
    <g>
      <polygon points="12.48 21.23 12.48 19.06 13.91 19.06 13.91 15.35 12.48 15.35 12.48 13.17 16.09 13.17 16.09 19.06 17.51 19.06 17.51 21.23 12.48 21.23"/>
      <path d="M15.71,13.55v5.88h1.43v1.43h-4.28v-1.43h1.43v-4.45h-1.43v-1.43h2.85M16.46,12.8h-4.35v2.93h1.43v2.95h-1.43v2.93h5.78v-2.93h-1.43v-5.88h0Z"/>
    </g>
  </g>
  <circle id="Outer" cx="15" cy="15" r="12.63" fill="none" stroke="#000" stroke-width="4.73"/>
</svg>