<?xml version="1.0" encoding="UTF-8"?>
<svg id="Layer_1" xmlns="http://www.w3.org/2000/svg" version="1.1" viewBox="0 0 108 108">
  <!-- Generator: Adobe Illustrator 30.1.0, SVG Export Plug-In . SVG Version: 2.1.1 Build 136)  -->
  <path d="M54,20.86c1.08,0,2.16.56,2.72,1.68l6.93,13.76c1.19,2.36,3.41,4.03,6,4.52l15,2.81c2.35.44,3.3,3.29,1.69,5.06l-10.93,11.99c-1.69,1.85-2.47,4.35-2.14,6.84l2.13,16.17c.25,1.93-1.28,3.46-3.02,3.46-.46,0-.93-.11-1.39-.34l-13.12-6.76c-1.22-.63-2.55-.94-3.88-.94s-2.66.31-3.88.94l-13.12,6.76c-.46.24-.93.34-1.39.34-1.73,0-3.27-1.53-3.02-3.46l2.13-16.18c.33-2.48-.46-4.98-2.14-6.83l-10.93-11.99c-1.61-1.77-.66-4.62,1.69-5.06l15-2.81c2.59-.49,4.81-2.16,6-4.52l6.93-13.77c.56-1.12,1.64-1.68,2.72-1.68M54,0C44.92,0,36.74,5.04,32.65,13.15l-4.18,8.3-8.97,1.68c-8.51,1.6-15.51,7.69-18.26,15.9-2.75,8.22-.84,17.3,5,23.7l7.06,7.74-1.38,10.48c-.9,6.83,1.18,13.71,5.72,18.88,4.55,5.19,11.1,8.16,17.98,8.16,3.78,0,7.57-.92,10.94-2.66l7.45-3.83,7.45,3.83c3.38,1.74,7.16,2.66,10.94,2.66,6.88,0,13.43-2.97,17.98-8.16,4.53-5.17,6.62-12.05,5.72-18.88l-1.38-10.48,7.06-7.75c5.84-6.4,7.75-15.49,5-23.7-2.75-8.21-9.75-14.31-18.26-15.9l-8.97-1.68-4.18-8.3C71.26,5.04,63.08,0,54,0h0Z"/>
</svg>