<?xml version="1.0" encoding="UTF-8"?>
<svg id="Layer_1" xmlns="http://www.w3.org/2000/svg" version="1.1" viewBox="0 0 108 108">
  <!-- Generator: Adobe Illustrator 30.1.0, SVG Export Plug-In . SVG Version: 2.1.1 Build 136)  -->
  <path d="M54,17.04c1.2,0,2.4.62,3.03,1.87l7.73,15.35c1.33,2.63,3.8,4.5,6.7,5.04l16.73,3.14c2.62.49,3.68,3.67,1.88,5.64l-12.19,13.37c-1.88,2.06-2.75,4.85-2.39,7.62l2.38,18.03c.28,2.15-1.43,3.85-3.36,3.85-.51,0-1.04-.12-1.55-.38l-14.63-7.53c-1.36-.7-2.84-1.05-4.32-1.05s-2.97.35-4.32,1.05l-14.63,7.53c-.51.26-1.04.38-1.55.38-1.93,0-3.65-1.7-3.36-3.85l2.38-18.04c.36-2.77-.51-5.55-2.39-7.62l-12.19-13.37c-1.8-1.97-.73-5.15,1.88-5.64l16.72-3.13c2.89-.54,5.37-2.4,6.69-5.04l7.73-15.35c.63-1.25,1.83-1.87,3.03-1.87M54,0C46.23,0,39.24,4.31,35.75,11.24l-6.04,12-13.03,2.44c-7.28,1.36-13.26,6.58-15.62,13.6-2.35,7.03-.72,14.8,4.28,20.27l9.81,10.77-1.92,14.55c-.77,5.84,1.01,11.73,4.89,16.15,3.89,4.44,9.49,6.98,15.38,6.98,3.23,0,6.47-.79,9.36-2.27l11.15-5.74,11.15,5.74c2.89,1.49,6.12,2.27,9.36,2.27,5.88,0,11.49-2.54,15.38-6.98,3.88-4.42,5.66-10.31,4.89-16.15l-1.92-14.55,9.82-10.77c4.99-5.48,6.63-13.24,4.28-20.27-2.35-7.02-8.34-12.23-15.61-13.6l-13.03-2.44-6.04-12C68.76,4.31,61.76,0,54,0h0Z"/>
</svg>