<?xml version="1.0" encoding="UTF-8"?>
<svg id="Layer_1" xmlns="http://www.w3.org/2000/svg" version="1.1" viewBox="0 0 108 108">
  <!-- Generator: Adobe Illustrator 30.1.0, SVG Export Plug-In . SVG Version: 2.1.1 Build 136)  -->
  <path d="M54,22.75c1.02,0,2.03.53,2.56,1.58l6.54,12.98c1.12,2.23,3.22,3.8,5.66,4.26l14.14,2.65c2.21.41,3.11,3.1,1.59,4.77l-10.31,11.31c-1.59,1.74-2.33,4.1-2.02,6.45l2.01,15.25c.24,1.82-1.21,3.26-2.85,3.26-.43,0-.88-.1-1.31-.32l-12.37-6.37c-1.15-.59-2.4-.89-3.65-.89-1.25,0-2.51.3-3.65.89l-12.37,6.37c-.43.22-.88.32-1.31.32-1.64,0-3.09-1.44-2.85-3.26l2.01-15.25c.31-2.34-.43-4.7-2.02-6.44l-10.31-11.31c-1.52-1.67-.62-4.36,1.59-4.77l14.14-2.65c2.45-.46,4.54-2.03,5.66-4.26l6.54-12.98c.53-1.05,1.55-1.58,2.56-1.58M54,0C44.27,0,35.5,5.4,31.12,14.09l-3.26,6.46-6.96,1.31c-9.12,1.71-16.62,8.24-19.57,17.05-2.95,8.81-.9,18.54,5.36,25.41l5.69,6.24-1.12,8.46c-.97,7.32,1.27,14.7,6.13,20.24,4.87,5.56,11.9,8.74,19.27,8.74,4.05,0,8.11-.98,11.73-2.85l5.61-2.89,5.61,2.89c3.62,1.86,7.67,2.85,11.73,2.85,7.37,0,14.4-3.19,19.27-8.74,4.86-5.54,7.09-12.92,6.13-20.24l-1.12-8.46,5.69-6.25c6.25-6.86,8.31-16.6,5.36-25.4-2.95-8.8-10.45-15.33-19.57-17.04l-6.97-1.31-3.26-6.46C72.5,5.4,63.73,0,54,0h0Z"/>
</svg>