<?xml version="1.0" encoding="UTF-8"?>
<svg id="Layer_1" xmlns="http://www.w3.org/2000/svg" version="1.1" viewBox="0 0 108 108">
  <!-- Generator: Adobe Illustrator 30.1.0, SVG Export Plug-In . SVG Version: 2.1.1 Build 136)  -->
  <path d="M54,13.2c1.33,0,2.65.69,3.35,2.06l8.54,16.95c1.46,2.91,4.2,4.96,7.39,5.56l18.47,3.46c2.89.54,4.06,4.05,2.08,6.22l-13.46,14.77c-2.08,2.28-3.04,5.36-2.64,8.42l2.63,19.91c.31,2.38-1.58,4.26-3.71,4.26-.57,0-1.15-.13-1.71-.42l-16.15-8.32c-1.5-.77-3.13-1.16-4.77-1.16-1.64,0-3.27.39-4.77,1.16l-16.15,8.32c-.56.29-1.15.42-1.71.42-2.14,0-4.03-1.88-3.71-4.26l2.63-19.91c.4-3.06-.56-6.13-2.64-8.41l-13.46-14.77c-1.98-2.18-.81-5.69,2.08-6.23l18.47-3.46c3.19-.6,5.92-2.65,7.39-5.56l8.54-16.95c.69-1.38,2.02-2.06,3.35-2.06M54,0c-6.44,0-12.23,3.57-15.13,9.32l-7.92,15.73-17.11,3.21c-6.03,1.13-11,5.45-12.95,11.28-1.95,5.83-.59,12.27,3.55,16.81l12.6,13.82-2.46,18.65c-.64,4.84.84,9.72,4.05,13.39,3.23,3.68,7.87,5.79,12.75,5.79,2.68,0,5.36-.65,7.76-1.89l14.88-7.66,14.88,7.66c2.4,1.23,5.08,1.89,7.76,1.89,4.88,0,9.52-2.11,12.75-5.79,3.21-3.66,4.69-8.54,4.05-13.39l-2.46-18.65,12.6-13.83c4.14-4.54,5.5-10.98,3.54-16.81-1.95-5.82-6.91-10.14-12.94-11.27l-17.12-3.21-7.92-15.73c-2.9-5.75-8.7-9.32-15.13-9.32h0Z"/>
</svg>