<?xml version="1.0" encoding="UTF-8"?>
<svg id="Layer_1" xmlns="http://www.w3.org/2000/svg" version="1.1" viewBox="0 0 77 77">
  <!-- Generator: Adobe Illustrator 30.1.0, SVG Export Plug-In . SVG Version: 2.1.1 Build 136)  -->
  <path d="M38.5,6.69c1.03,0,2.07.54,2.61,1.61l6.66,13.21c1.14,2.27,3.27,3.87,5.76,4.34l14.4,2.7c2.25.42,3.16,3.16,1.62,4.85l-10.49,11.51c-1.62,1.78-2.37,4.18-2.06,6.56l2.05,15.52c.24,1.85-1.23,3.32-2.9,3.32-.44,0-.9-.1-1.34-.33l-12.59-6.49c-1.17-.6-2.44-.9-3.72-.9-1.28,0-2.55.3-3.72.9l-12.59,6.49c-.44.23-.89.33-1.34.33-1.66,0-3.14-1.47-2.9-3.32l2.05-15.53c.31-2.38-.44-4.78-2.05-6.55l-10.49-11.51c-1.55-1.7-.63-4.43,1.62-4.86l14.4-2.7c2.49-.47,4.62-2.07,5.76-4.33l6.66-13.21c.54-1.07,1.57-1.61,2.61-1.61M38.5,0C34.85,0,31.56,2.03,29.92,5.29l-6.66,13.21c-.2.4-.58.69-1.02.77l-14.4,2.7c-3.42.64-6.24,3.09-7.34,6.4-1.11,3.31-.34,6.96,2.01,9.54l10.49,11.51c.29.32.42.75.37,1.17l-2.05,15.53c-.36,2.75.47,5.52,2.29,7.59,1.83,2.09,4.47,3.29,7.23,3.29,1.52,0,3.04-.37,4.4-1.07l12.59-6.49c.21-.11.43-.16.66-.16.23,0,.45.06.66.16l12.59,6.49c1.36.7,2.88,1.07,4.4,1.07,2.76,0,5.4-1.2,7.23-3.29,1.82-2.08,2.66-4.84,2.29-7.59l-2.05-15.52c-.06-.43.08-.86.37-1.18l10.49-11.51c2.35-2.58,3.12-6.23,2.01-9.54-1.11-3.3-3.92-5.75-7.34-6.4l-14.4-2.7c-.44-.08-.82-.37-1.02-.77l-6.66-13.21C45.44,2.03,42.15,0,38.5,0h0Z"/>
</svg>