<?xml version="1.0" encoding="UTF-8"?>
<svg id="Layer_1" xmlns="http://www.w3.org/2000/svg" version="1.1" viewBox="0 0 68 68">
  <!-- Generator: Adobe Illustrator 30.1.0, SVG Export Plug-In . SVG Version: 2.1.1 Build 136)  -->
  <path d="M34,4.72c.95,0,1.9.49,2.4,1.48l6.13,12.16c1.05,2.09,3.01,3.56,5.31,3.99l13.25,2.48c2.07.39,2.91,2.91,1.49,4.47l-9.66,10.6c-1.49,1.63-2.18,3.85-1.89,6.04l1.88,14.29c.22,1.7-1.13,3.05-2.67,3.05-.41,0-.82-.09-1.23-.3l-11.59-5.97c-1.07-.55-2.25-.83-3.42-.83-1.17,0-2.35.28-3.42.83l-11.59,5.97c-.4.21-.82.3-1.23.3-1.53,0-2.89-1.35-2.67-3.05l1.88-14.29c.29-2.19-.4-4.4-1.89-6.03l-9.66-10.6c-1.42-1.56-.58-4.08,1.49-4.47l13.25-2.48c2.29-.43,4.25-1.9,5.3-3.99l6.13-12.16c.5-.99,1.45-1.48,2.4-1.48M34,0c-2.81,0-5.35,1.56-6.61,4.08l-6.13,12.16c-.39.77-1.12,1.32-1.96,1.48l-13.25,2.48c-2.64.49-4.81,2.38-5.66,4.93-.85,2.55-.26,5.37,1.55,7.35l9.66,10.6c.55.61.81,1.42.7,2.24l-1.88,14.29c-.28,2.12.36,4.25,1.77,5.85,1.41,1.61,3.45,2.54,5.58,2.54,1.17,0,2.34-.29,3.39-.83l11.59-5.97c.39-.2.83-.31,1.26-.31.44,0,.88.11,1.26.31l11.59,5.97c1.05.54,2.22.83,3.39.83,2.13,0,4.16-.92,5.58-2.54,1.4-1.6,2.05-3.73,1.77-5.85l-1.88-14.29c-.11-.82.15-1.64.7-2.25l9.66-10.6c1.81-1.99,2.4-4.8,1.55-7.35-.85-2.55-3.02-4.44-5.66-4.93l-13.25-2.48c-.84-.16-1.57-.71-1.96-1.48l-6.13-12.16c-1.27-2.51-3.8-4.08-6.61-4.08h0Z"/>
</svg>