<?xml version="1.0" encoding="UTF-8"?>
<svg id="Layer_1" xmlns="http://www.w3.org/2000/svg" version="1.1" viewBox="0 0 68 68">
  <!-- Generator: Adobe Illustrator 30.1.0, SVG Export Plug-In . SVG Version: 2.1.1 Build 136)  -->
  <path d="M34,8.31c.84,0,1.67.43,2.11,1.3l5.37,10.67c.92,1.83,2.64,3.13,4.65,3.5l11.63,2.18c1.82.34,2.56,2.55,1.31,3.92l-8.47,9.3c-1.31,1.43-1.92,3.37-1.66,5.3l1.65,12.54c.2,1.5-.99,2.68-2.34,2.68-.36,0-.72-.08-1.08-.27l-10.17-5.24c-.94-.49-1.97-.73-3-.73s-2.06.24-3,.73l-10.17,5.24c-.35.18-.72.27-1.08.27-1.34,0-2.54-1.18-2.34-2.68l1.65-12.54c.25-1.92-.35-3.86-1.66-5.29l-8.47-9.3c-1.25-1.37-.51-3.58,1.31-3.92l11.63-2.18c2.01-.38,3.73-1.67,4.65-3.5l5.38-10.67c.44-.87,1.27-1.3,2.11-1.3M34,0C29.95,0,26.3,2.25,24.47,5.87l-4.99,9.9-10.78,2.02c-3.8.71-6.92,3.43-8.15,7.1-1.23,3.67-.37,7.73,2.23,10.58l7.93,8.7-1.55,11.74c-.4,3.05.53,6.12,2.55,8.43,2.03,2.32,4.96,3.65,8.03,3.65,1.69,0,3.37-.41,4.88-1.19l9.37-4.83,9.37,4.83c1.51.78,3.2,1.19,4.88,1.19,3.07,0,6-1.33,8.03-3.65,2.02-2.31,2.95-5.38,2.55-8.43l-1.55-11.74,7.93-8.7c2.61-2.86,3.46-6.91,2.23-10.58-1.23-3.67-4.35-6.39-8.15-7.1l-10.78-2.02-4.99-9.9C41.7,2.25,38.05,0,34,0h0Z"/>
</svg>