<?xml version="1.0" encoding="UTF-8"?>
<svg id="Layer_1" xmlns="http://www.w3.org/2000/svg" version="1.1" viewBox="0 0 68 68">
  <!-- Generator: Adobe Illustrator 30.1.0, SVG Export Plug-In . SVG Version: 2.1.1 Build 136)  -->
  <path d="M34,14.32c.64,0,1.28.33,1.61,1l4.12,8.17c.71,1.4,2.02,2.39,3.57,2.68l8.91,1.67c1.39.26,1.96,1.95,1,3l-6.49,7.12c-1,1.1-1.47,2.58-1.27,4.06l1.27,9.6c.15,1.15-.76,2.05-1.79,2.05-.27,0-.55-.06-.83-.2l-7.79-4.01c-.72-.37-1.51-.56-2.3-.56-.79,0-1.58.19-2.3.56l-7.79,4.01c-.27.14-.55.2-.83.2-1.03,0-1.94-.91-1.79-2.05l1.27-9.6c.19-1.47-.27-2.96-1.27-4.05l-6.49-7.12c-.96-1.05-.39-2.74,1-3l8.91-1.67c1.54-.29,2.86-1.28,3.56-2.68l4.12-8.17c.33-.66.97-1,1.61-1M34,0c-6.13,0-11.65,3.4-14.4,8.87l-2.05,4.07-4.38.82c-5.74,1.08-10.47,5.19-12.32,10.73-1.86,5.54-.56,11.67,3.37,16l3.58,3.93-.7,5.33c-.61,4.61.8,9.25,3.86,12.74,3.07,3.5,7.49,5.5,12.13,5.5,2.55,0,5.11-.62,7.38-1.79l3.53-1.82,3.53,1.82c2.28,1.17,4.83,1.79,7.38,1.79,4.64,0,9.07-2.01,12.13-5.51,3.06-3.49,4.47-8.13,3.86-12.74l-.7-5.33,3.58-3.93c3.94-4.32,5.23-10.45,3.37-15.99-1.86-5.54-6.58-9.65-12.32-10.73l-4.39-.82-2.05-4.07C45.65,3.4,40.13,0,34,0h0Z"/>
</svg>