<?xml version="1.0" encoding="UTF-8"?>
<svg id="Layer_1" xmlns="http://www.w3.org/2000/svg" version="1.1" viewBox="0 0 68 68">
  <!-- Generator: Adobe Illustrator 30.1.0, SVG Export Plug-In . SVG Version: 2.1.1 Build 136)  -->
  <path d="M34,10.73c.76,0,1.51.39,1.91,1.18l4.87,9.66c.84,1.66,2.39,2.83,4.22,3.17l10.53,1.97c1.65.31,2.31,2.31,1.18,3.55l-7.67,8.42c-1.18,1.3-1.73,3.06-1.5,4.8l1.5,11.35c.18,1.35-.9,2.43-2.12,2.43-.32,0-.66-.08-.98-.24l-9.21-4.74c-.85-.44-1.79-.66-2.72-.66s-1.87.22-2.72.66l-9.21,4.74c-.32.17-.65.24-.98.24-1.22,0-2.3-1.07-2.12-2.43l1.5-11.36c.23-1.74-.32-3.5-1.5-4.79l-7.67-8.42c-1.13-1.24-.46-3.24,1.19-3.55l10.53-1.97c1.82-.34,3.38-1.51,4.21-3.17l4.87-9.66c.4-.78,1.15-1.18,1.91-1.18M34,0C29.11,0,24.71,2.71,22.51,7.08l-3.8,7.55-8.2,1.54c-4.58.86-8.35,4.14-9.83,8.56-1.48,4.42-.45,9.32,2.69,12.76l6.18,6.78-1.21,9.16c-.49,3.68.64,7.38,3.08,10.17,2.45,2.79,5.98,4.4,9.68,4.4,2.03,0,4.07-.5,5.89-1.43l7.02-3.62,7.02,3.61c1.82.94,3.86,1.43,5.89,1.43,3.7,0,7.23-1.6,9.68-4.4,2.44-2.78,3.56-6.49,3.08-10.17l-1.21-9.16,6.18-6.78c3.14-3.45,4.17-8.34,2.69-12.76-1.48-4.42-5.25-7.7-9.83-8.56l-8.2-1.54-3.8-7.55C43.29,2.71,38.89,0,34,0h0Z"/>
</svg>