<?xml version="1.0" encoding="UTF-8"?>
<svg id="Layer_1" xmlns="http://www.w3.org/2000/svg" version="1.1" viewBox="0 0 51 51">
  <!-- Generator: Adobe Illustrator 30.1.0, SVG Export Plug-In . SVG Version: 2.1.1 Build 136)  -->
  <g>
    <g>
      <rect x="23.72" y="12.91" width="3.57" height="3.57"/>
      <path d="M27.04,13.15v3.09h-3.09v-3.09h3.09M27.52,12.67h-4.04v4.04h4.04v-4.04h0Z"/>
    </g>
    <g>
      <polygon points="20.63 38.09 20.63 34.52 23.72 34.52 23.72 25.36 20.63 25.36 20.63 21.8 27.28 21.8 27.28 34.52 30.37 34.52 30.37 38.09 20.63 38.09"/>
      <path d="M27.04,22.04v12.72h3.09v3.09h-9.26v-3.09h3.09v-9.64h-3.09v-3.09h6.17M27.52,21.56h-7.13v4.04h3.09v8.68h-3.09v4.04h10.22v-4.04h-3.09v-12.72h0Z"/>
    </g>
  </g>
  <circle id="Outer" cx="25.5" cy="25.5" r="23.73" fill="none" stroke="#000" stroke-width="3.54"/>
</svg>