<?xml version="1.0" encoding="UTF-8"?>
<svg id="Layer_1" xmlns="http://www.w3.org/2000/svg" version="1.1" viewBox="0 0 51 51">
  <!-- Generator: Adobe Illustrator 30.1.0, SVG Export Plug-In . SVG Version: 2.1.1 Build 136)  -->
  <g>
    <g>
      <rect x="23.7" y="13.23" width="3.59" height="3.59"/>
      <path d="M26.98,13.55v2.95h-2.95v-2.95h2.95M27.61,12.92h-4.23v4.23h4.23v-4.23h0Z"/>
    </g>
    <g>
      <polygon points="20.75 37.69 20.75 34.1 23.7 34.1 23.7 25.51 20.75 25.51 20.75 21.92 27.29 21.92 27.29 34.1 30.25 34.1 30.25 37.69 20.75 37.69"/>
      <path d="M26.98,22.24v12.18h2.95v2.95h-8.86v-2.95h2.95v-9.22h-2.95v-2.95h5.91M27.61,21.6h-7.18v4.23h2.95v7.95h-2.95v4.23h10.14v-4.23h-2.95v-12.18h0Z"/>
    </g>
  </g>
  <circle id="Outer" cx="25.5" cy="25.5" r="23.28" fill="none" stroke="#000" stroke-width="4.43"/>
</svg>