<?xml version="1.0" encoding="UTF-8"?>
<svg id="Layer_1" xmlns="http://www.w3.org/2000/svg" version="1.1" viewBox="0 0 51 51">
  <!-- Generator: Adobe Illustrator 30.1.0, SVG Export Plug-In . SVG Version: 2.1.1 Build 136)  -->
  <g>
    <g>
      <rect x="23.62" y="15.18" width="3.76" height="3.76"/>
      <path d="M26.58,15.98v2.17h-2.17v-2.17h2.17M28.18,14.39h-5.36v5.36h5.36v-5.36h0Z"/>
    </g>
    <g>
      <polygon points="21.45 35.32 21.45 31.56 23.62 31.56 23.62 26.38 21.45 26.38 21.45 22.61 27.38 22.61 27.38 31.56 29.55 31.56 29.55 35.32 21.45 35.32"/>
      <path d="M26.58,23.41v8.94h2.17v2.17h-6.51v-2.17h2.17v-6.77h-2.17v-2.17h4.34M28.18,21.82h-7.53v5.36h2.17v3.59h-2.17v5.36h9.7v-5.36h-2.17v-8.94h0Z"/>
    </g>
  </g>
  <circle id="Outer" cx="25.5" cy="25.5" r="20.58" fill="none" stroke="#000" stroke-width="9.85"/>
</svg>