<?xml version="1.0" encoding="UTF-8"?>
<svg id="Layer_1" xmlns="http://www.w3.org/2000/svg" version="1.1" viewBox="0 0 128 128">
  <!-- Generator: Adobe Illustrator 30.1.0, SVG Export Plug-In . SVG Version: 2.1.1 Build 136)  -->
  <path d="M64,8.88c1.79,0,3.58.93,4.52,2.79l11.53,22.89c1.98,3.93,5.67,6.71,9.99,7.52l24.95,4.68c3.9.73,5.48,5.47,2.81,8.41l-18.18,19.95c-2.8,3.08-4.11,7.24-3.56,11.37l3.55,26.89c.42,3.21-2.13,5.75-5.02,5.75-.76,0-1.55-.18-2.31-.57l-21.82-11.24c-2.02-1.04-4.23-1.56-6.45-1.56-2.21,0-4.42.52-6.45,1.56l-21.82,11.24c-.76.39-1.55.57-2.31.57-2.88,0-5.44-2.54-5.02-5.75l3.55-26.9c.54-4.13-.76-8.28-3.56-11.36l-18.18-19.95c-2.68-2.94-1.09-7.68,2.81-8.41l24.94-4.68c4.31-.81,8-3.59,9.98-7.51l11.53-22.89c.94-1.86,2.73-2.79,4.52-2.79M64,0c-5.3,0-10.07,2.94-12.45,7.67l-11.53,22.89c-.73,1.44-2.11,2.48-3.69,2.78l-24.94,4.68c-4.97.93-9.05,4.49-10.65,9.28-1.61,4.8-.49,10.1,2.92,13.84l18.18,19.95c1.04,1.14,1.52,2.68,1.32,4.22l-3.55,26.9c-.53,3.99.69,8,3.33,11.02,2.66,3.03,6.49,4.78,10.5,4.78,2.2,0,4.4-.54,6.38-1.56l21.82-11.24c.73-.38,1.56-.58,2.38-.58.82,0,1.65.2,2.38.58l21.82,11.24c1.98,1.02,4.18,1.56,6.38,1.56,4.01,0,7.84-1.74,10.5-4.78,2.64-3.01,3.85-7.03,3.33-11.01l-3.55-26.89c-.2-1.54.28-3.08,1.32-4.23l18.18-19.95c3.41-3.74,4.52-9.04,2.92-13.84-1.61-4.79-5.69-8.35-10.65-9.28l-24.95-4.68c-1.58-.3-2.96-1.34-3.69-2.78l-11.53-22.89c-2.38-4.73-7.16-7.67-12.45-7.67h0Z"/>
</svg>