<?xml version="1.0" encoding="UTF-8"?>
<svg id="Layer_1" xmlns="http://www.w3.org/2000/svg" version="1.1" viewBox="0 0 128 128">
  <!-- Generator: Adobe Illustrator 30.1.0, SVG Export Plug-In . SVG Version: 2.1.1 Build 136)  -->
  <path d="M64,26.96c1.2,0,2.41.62,3.04,1.87l7.75,15.38c1.33,2.64,3.81,4.51,6.71,5.05l16.76,3.14c2.62.49,3.68,3.68,1.89,5.65l-12.21,13.4c-1.88,2.07-2.76,4.87-2.39,7.64l2.38,18.07c.28,2.16-1.43,3.86-3.37,3.86-.51,0-1.04-.12-1.56-.38l-14.66-7.55c-1.36-.7-2.85-1.05-4.33-1.05s-2.97.35-4.33,1.05l-14.66,7.55c-.51.26-1.04.38-1.56.38-1.94,0-3.66-1.71-3.37-3.86l2.38-18.08c.37-2.77-.51-5.57-2.39-7.63l-12.22-13.4c-1.8-1.97-.74-5.16,1.89-5.65l16.76-3.14c2.9-.54,5.38-2.41,6.71-5.05l7.75-15.38c.63-1.25,1.83-1.87,3.04-1.87M64,0C52.46,0,42.07,6.4,36.88,16.7l-3.86,7.66-8.25,1.55c-10.81,2.03-19.7,9.77-23.2,20.2-3.5,10.44-1.06,21.97,6.35,30.11l6.74,7.4-1.32,10.03c-1.14,8.68,1.5,17.42,7.26,23.99,5.77,6.59,14.1,10.36,22.84,10.36,4.8,0,9.61-1.17,13.9-3.38l6.65-3.43,6.65,3.43c4.29,2.21,9.09,3.38,13.9,3.38,8.74,0,17.06-3.78,22.84-10.36,5.76-6.57,8.41-15.31,7.26-23.99l-1.32-10.03,6.75-7.4c7.41-8.13,9.85-19.67,6.35-30.11-3.5-10.43-12.38-18.17-23.2-20.2l-8.26-1.55-3.86-7.66C85.92,6.4,75.53,0,64,0h0Z"/>
</svg>