<?xml version="1.0" encoding="UTF-8"?>
<svg id="Layer_1" xmlns="http://www.w3.org/2000/svg" version="1.1" viewBox="0 0 128 128">
  <!-- Generator: Adobe Illustrator 30.1.0, SVG Export Plug-In . SVG Version: 2.1.1 Build 136)  -->
  <path d="M64,20.2c1.42,0,2.85.74,3.59,2.22l9.16,18.19c1.57,3.12,4.51,5.33,7.94,5.97l19.82,3.72c3.1.58,4.36,4.35,2.23,6.68l-14.44,15.85c-2.23,2.45-3.27,5.75-2.83,9.04l2.82,21.37c.34,2.55-1.7,4.57-3.99,4.57-.61,0-1.23-.14-1.84-.45l-17.34-8.93c-1.61-.83-3.36-1.24-5.12-1.24-1.76,0-3.51.41-5.12,1.24l-17.34,8.93c-.6.31-1.23.45-1.84.45-2.29,0-4.32-2.02-3.99-4.57l2.82-21.38c.43-3.28-.6-6.58-2.83-9.03l-14.44-15.85c-2.13-2.34-.87-6.1,2.23-6.69l19.82-3.72c3.43-.64,6.36-2.85,7.93-5.97l9.16-18.19c.74-1.48,2.17-2.22,3.59-2.22M64,0c-9.2,0-17.49,5.11-21.63,13.33l-7.16,14.22-15.44,2.89c-8.63,1.62-15.72,7.79-18.51,16.12-2.79,8.33-.85,17.54,5.07,24.03l11.63,12.76-2.27,17.24c-.91,6.92,1.2,13.9,5.79,19.14,4.61,5.26,11.25,8.27,18.22,8.27,3.83,0,7.66-.93,11.09-2.7l13.21-6.8,13.21,6.8c3.42,1.76,7.26,2.7,11.09,2.7,6.97,0,13.61-3.02,18.22-8.27,4.59-5.24,6.7-12.21,5.79-19.14l-2.27-17.24,11.63-12.77c5.92-6.49,7.86-15.7,5.07-24.02-2.79-8.32-9.88-14.5-18.51-16.12l-15.44-2.89-7.16-14.22C81.49,5.11,73.2,0,64,0h0Z"/>
</svg>