<?xml version="1.0" encoding="UTF-8"?>
<svg id="Layer_1" xmlns="http://www.w3.org/2000/svg" version="1.1" viewBox="0 0 86 86">
  <!-- Generator: Adobe Illustrator 30.1.0, SVG Export Plug-In . SVG Version: 2.1.1 Build 136)  -->
  <circle id="Outer" cx="43" cy="43" r="39.26" fill="none" stroke="#000" stroke-width="7.47"/>
  <g>
    <g>
      <rect x="40.28" y="57.2" width="5.38" height="5.38"/>
      <path d="M45.13,57.74v4.31h-4.31v-4.31h4.31M46.2,56.66h-6.46v6.46h6.46v-6.46h0Z"/>
    </g>
    <g>
      <path d="M40.29,51.26l-.02-2.16c0-2.18.81-4.26,2.27-5.87l4.27-4.73c1.08-1.19,1.67-2.74,1.67-4.34,0-2.25-1.85-4.08-4.11-4.08h-2.74c-2.27,0-4.11,1.83-4.11,4.08v.54h-5.42v-.54c0-5.22,4.28-9.47,9.53-9.47h2.74c5.26,0,9.53,4.25,9.53,9.47,0,2.93-1.09,5.75-3.06,7.94l-4.27,4.73c-.58.64-.89,1.43-.89,2.27l-.02,2.17h-5.37Z"/>
      <path d="M44.37,25.23c4.96,0,9,4.01,9,8.93,0,2.8-1.04,5.49-2.92,7.58l-4.27,4.73c-.66.73-1.03,1.64-1.03,2.62l-.02,1.63h-4.31v-1.63c0-2.04.75-3.99,2.12-5.51l4.27-4.73c1.17-1.29,1.81-2.96,1.81-4.7,0-2.55-2.09-4.62-4.65-4.62h-2.74c-2.56,0-4.65,2.07-4.65,4.62h-4.35c0-4.92,4.04-8.93,9-8.93h2.74M44.37,24.15h-2.74c-5.55,0-10.07,4.49-10.07,10.01v1.08h6.5v-1.08c0-1.95,1.6-3.54,3.57-3.54h2.74c1.97,0,3.57,1.59,3.57,3.54,0,1.47-.54,2.88-1.53,3.98l-4.27,4.73c-1.55,1.71-2.4,3.92-2.41,6.22v1.64s.02,1.07.02,1.07h6.44v-1.06s.03-1.63.03-1.63c0-.71.26-1.37.75-1.91l4.27-4.73c2.06-2.28,3.2-5.23,3.2-8.3,0-5.52-4.52-10.01-10.07-10.01h0Z"/>
    </g>
  </g>
</svg>