<?xml version="1.0" encoding="UTF-8"?>
<svg id="Layer_1" xmlns="http://www.w3.org/2000/svg" version="1.1" viewBox="0 0 86 86">
  <!-- Generator: Adobe Illustrator 30.1.0, SVG Export Plug-In . SVG Version: 2.1.1 Build 136)  -->
  <circle id="Outer" cx="43" cy="43" r="33.94" fill="none" stroke="#000" stroke-width="18.11"/>
  <g>
    <g>
      <rect x="40.22" y="53.13" width="5.52" height="5.52"/>
      <path d="M44.26,54.61v2.56h-2.56v-2.56h2.56M47.22,51.65h-8.48v8.48h8.48v-8.48h0Z"/>
    </g>
    <g>
      <path d="M40.24,48.23l-.02-2.43c0-1.6.59-3.11,1.65-4.28l2.54-2.81c.45-.5.7-1.14.7-1.81,0-.7-.58-1.27-1.29-1.27h-1.63c-.71,0-1.29.57-1.29,1.27v1.48h-5.54v-1.48c0-3.75,3.06-6.79,6.83-6.79h1.63c3.77,0,6.83,3.05,6.83,6.79,0,2.03-.75,3.99-2.12,5.5l-2.54,2.81c-.15.17-.23.36-.23.58l-.03,2.44h-5.49Z"/>
      <path d="M43.82,31.58c2.95,0,5.35,2.39,5.35,5.32,0,1.67-.62,3.27-1.74,4.51l-2.54,2.81c-.39.44-.61.98-.61,1.56v.97h-2.57v-.97c0-1.22.44-2.37,1.26-3.28l2.54-2.81c.7-.77,1.08-1.76,1.08-2.8,0-1.52-1.24-2.75-2.77-2.75h-1.63c-1.53,0-2.77,1.23-2.77,2.75h-2.59c0-2.93,2.4-5.32,5.35-5.32h1.63M43.82,28.62h-1.63c-4.58,0-8.31,3.71-8.31,8.27v2.96h7.5l-.61.67c-1.3,1.44-2.02,3.3-2.03,5.25v1.01s.03,2.93.03,2.93h8.42l.03-2.93v-.74s2.4-2.65,2.4-2.65c1.61-1.79,2.5-4.09,2.5-6.49,0-4.56-3.73-8.27-8.31-8.27h0ZM42.37,37.1h1.24c-.04.22-.14.43-.3.61l-.94,1.04v-1.65h0Z"/>
    </g>
  </g>
</svg>