<?xml version="1.0" encoding="UTF-8"?>
<svg id="Layer_1" xmlns="http://www.w3.org/2000/svg" version="1.1" viewBox="0 0 86 86">
  <!-- Generator: Adobe Illustrator 30.1.0, SVG Export Plug-In . SVG Version: 2.1.1 Build 136)  -->
  <circle id="Outer" cx="43" cy="43" r="36.21" fill="none" stroke="#000" stroke-width="13.57"/>
  <g>
    <g>
      <rect x="40.27" y="54.89" width="5.42" height="5.42"/>
      <path d="M44.61,55.96v3.27h-3.27v-3.27h3.27M46.76,53.81h-7.57v7.57h7.57v-7.57h0Z"/>
    </g>
    <g>
      <path d="M40.28,49.41l-.02-2.3c0-1.83.68-3.57,1.9-4.91l3.24-3.59c.71-.78,1.1-1.8,1.1-2.85,0-1.34-1.1-2.43-2.46-2.43h-2.08c-1.35,0-2.45,1.09-2.45,2.43v1.08h-5.45v-1.08c0-4.33,3.55-7.86,7.9-7.86h2.08c4.36,0,7.9,3.52,7.9,7.86,0,2.39-.89,4.69-2.5,6.47l-3.24,3.59c-.33.36-.5.8-.5,1.27l-.02,2.31h-5.4Z"/>
      <path d="M44.04,28.98c3.77,0,6.83,3.04,6.83,6.78,0,2.13-.79,4.17-2.22,5.75l-3.24,3.59c-.5.56-.78,1.24-.78,1.99v1.24h-3.28v-1.24c0-1.55.57-3.03,1.61-4.18l3.24-3.59c.89-.98,1.37-2.25,1.37-3.57,0-1.93-1.58-3.5-3.53-3.5h-2.08c-1.95,0-3.53,1.57-3.53,3.5h-3.3c0-3.74,3.06-6.78,6.83-6.78h2.08M44.04,26.83h-2.08c-4.95,0-8.98,4.01-8.98,8.93v2.15h7.6v-2.15c0-.75.62-1.35,1.38-1.35h2.08c.76,0,1.38.61,1.38,1.35,0,.79-.29,1.54-.82,2.13l-3.24,3.59c-1.39,1.54-2.17,3.54-2.17,5.61v1.26s.03,2.13.03,2.13h7.53l.02-2.13v-1.24c.01-.22.09-.4.24-.57l3.24-3.59c1.79-1.98,2.77-4.53,2.77-7.19,0-4.92-4.03-8.93-8.98-8.93h0Z"/>
    </g>
  </g>
</svg>