<?xml version="1.0" encoding="UTF-8"?>
<svg id="Layer_1" xmlns="http://www.w3.org/2000/svg" version="1.1" viewBox="0 0 86 86">
  <!-- Generator: Adobe Illustrator 30.1.0, SVG Export Plug-In . SVG Version: 2.1.1 Build 136)  -->
  <circle id="Outer" cx="43" cy="43" r="34.7" fill="none" stroke="#000" stroke-width="16.61"/>
  <g>
    <g>
      <rect x="40.24" y="53.72" width="5.48" height="5.48"/>
      <path d="M44.37,55.06v2.79h-2.79v-2.79h2.79M47.06,52.38h-8.17v8.17h8.17v-8.17h0Z"/>
    </g>
    <g>
      <path d="M40.26,48.6l-.02-2.39c0-1.67.62-3.25,1.73-4.48l2.76-3.06c.53-.59.83-1.35.83-2.14,0-.91-.75-1.65-1.67-1.65h-1.78c-.92,0-1.67.74-1.67,1.65v1.34h-5.5v-1.34c0-3.93,3.22-7.13,7.17-7.13h1.78c3.96,0,7.17,3.2,7.17,7.13,0,2.15-.79,4.21-2.24,5.81l-2.77,3.06c-.21.23-.32.51-.32.8l-.02,2.4h-5.45Z"/>
      <path d="M43.89,30.74c3.21,0,5.83,2.6,5.83,5.79,0,1.82-.67,3.56-1.89,4.91l-2.77,3.06c-.43.47-.67,1.06-.67,1.7v1.06h-2.8v-1.06c0-1.32.48-2.58,1.37-3.57l2.76-3.06c.76-.84,1.17-1.92,1.17-3.04,0-1.65-1.35-2.99-3.01-2.99h-1.78c-1.66,0-3.01,1.34-3.01,2.99h-2.82c0-3.19,2.61-5.79,5.83-5.79h1.78M43.89,28.05h-1.78c-4.7,0-8.52,3.8-8.52,8.48v2.69h8.19v-2.69c0-.16.15-.3.33-.3h1.78c.18,0,.33.14.33.3,0,.46-.17.9-.48,1.24l-2.76,3.06c-1.33,1.47-2.07,3.37-2.08,5.36v1.09s.03,2.66.03,2.66h8.12l.03-2.66v-1.01s2.75-3.04,2.75-3.04c1.67-1.85,2.59-4.23,2.59-6.71,0-4.67-3.82-8.48-8.52-8.48h0Z"/>
    </g>
  </g>
</svg>