<?xml version="1.0" encoding="UTF-8"?>
<svg id="Layer_1" xmlns="http://www.w3.org/2000/svg" version="1.1" viewBox="0 0 86 86">
  <!-- Generator: Adobe Illustrator 30.1.0, SVG Export Plug-In . SVG Version: 2.1.1 Build 136)  -->
  <circle id="Outer" cx="43" cy="43" r="37.75" fill="none" stroke="#000" stroke-width="10.51"/>
  <g>
    <g>
      <rect x="40.28" y="56.05" width="5.39" height="5.39"/>
      <path d="M44.87,56.86v3.78h-3.78v-3.78h3.78M46.48,55.25h-7v7h7v-7h0Z"/>
    </g>
    <g>
      <path d="M40.29,50.31l-.02-2.23c0-2,.75-3.9,2.08-5.38l3.74-4.15c.89-.99,1.38-2.26,1.38-3.58,0-1.79-1.47-3.24-3.27-3.24h-2.4c-1.8,0-3.27,1.46-3.27,3.24v.81h-5.43v-.81c0-4.77,3.9-8.64,8.7-8.64h2.4c4.8,0,8.7,3.88,8.7,8.64,0,2.66-.98,5.21-2.77,7.19l-3.74,4.15c-.45.5-.69,1.11-.7,1.77l-.02,2.23h-5.38Z"/>
      <path d="M44.2,27.13c4.35,0,7.89,3.52,7.89,7.84,0,2.46-.91,4.82-2.56,6.65l-3.74,4.15c-.58.64-.9,1.44-.9,2.3v1.43h-3.79v-1.43c0-1.79.65-3.5,1.86-4.83l3.74-4.15c1.02-1.14,1.59-2.6,1.59-4.12,0-2.23-1.83-4.05-4.08-4.05h-2.4c-2.25,0-4.08,1.82-4.08,4.05h-3.81c0-4.32,3.54-7.84,7.89-7.84h2.4M44.2,25.52h-2.4c-5.24,0-9.51,4.24-9.51,9.45v1.61h7.04v-1.61c0-1.34,1.11-2.44,2.47-2.44h2.4c1.36,0,2.47,1.09,2.47,2.44,0,1.12-.42,2.2-1.17,3.04l-3.74,4.15c-1.47,1.62-2.28,3.72-2.29,5.91v1.45s.03,1.6.03,1.6h6.97l.02-1.6v-1.43c.02-.47.18-.88.5-1.24l3.75-4.15c1.92-2.13,2.98-4.87,2.98-7.73,0-5.21-4.26-9.45-9.51-9.45h0Z"/>
    </g>
  </g>
</svg>