<?xml version="1.0" encoding="UTF-8"?>
<svg id="Layer_1" xmlns="http://www.w3.org/2000/svg" version="1.1" viewBox="0 0 86 86">
  <!-- Generator: Adobe Illustrator 30.1.0, SVG Export Plug-In . SVG Version: 2.1.1 Build 136)  -->
  <circle id="Outer" cx="43" cy="43" r="40.02" fill="none" stroke="#000" stroke-width="5.97"/>
  <g>
    <g>
      <rect x="40.28" y="57.76" width="5.38" height="5.38"/>
      <path d="M45.26,58.17v4.58h-4.58v-4.58h4.58M46.07,57.36h-6.19v6.19h6.19v-6.19h0Z"/>
    </g>
    <g>
      <path d="M40.29,51.76l-.02-2.13c0-2.27.85-4.45,2.37-6.13l4.53-5.02c1.17-1.3,1.82-2.98,1.82-4.72,0-2.48-2.04-4.5-4.54-4.5h-2.91c-2.5,0-4.54,2.02-4.54,4.5v.4h-5.43v-.4c0-5.46,4.47-9.9,9.96-9.9h2.91c5.49,0,9.96,4.44,9.96,9.9,0,3.08-1.14,6.03-3.21,8.33l-4.54,5.03c-.65.71-.99,1.58-.99,2.52l-.02,2.13h-5.38Z"/>
      <path d="M44.46,24.26c5.27,0,9.56,4.26,9.56,9.49,0,2.98-1.1,5.84-3.1,8.06l-4.54,5.03c-.7.78-1.09,1.74-1.09,2.79l-.02,1.73h-4.58l-.02-1.73c0-2.17.81-4.24,2.27-5.85l4.53-5.02c1.24-1.38,1.92-3.15,1.92-4.99,0-2.71-2.22-4.91-4.94-4.91h-2.91c-2.72,0-4.94,2.2-4.94,4.91h-4.62c0-5.23,4.29-9.49,9.56-9.49h2.91M44.46,23.46h-2.91c-5.72,0-10.37,4.62-10.37,10.3v.81h6.23v-.81c0-2.26,1.85-4.1,4.14-4.1h2.91c2.28,0,4.14,1.84,4.14,4.1,0,1.65-.61,3.23-1.72,4.45l-4.53,5.02c-1.59,1.76-2.47,4.02-2.48,6.39l.02,1.74v.8h6.18v-.8s.03-1.73.03-1.73c0-.84.31-1.62.89-2.26l4.54-5.03c2.14-2.37,3.31-5.42,3.31-8.6,0-5.68-4.65-10.3-10.37-10.3h0Z"/>
    </g>
  </g>
</svg>