<?xml version="1.0" encoding="UTF-8"?>
<svg id="Layer_1" xmlns="http://www.w3.org/2000/svg" version="1.1" viewBox="0 0 32 32">
  <!-- Generator: Adobe Illustrator 30.1.0, SVG Export Plug-In . SVG Version: 2.1.1 Build 136)  -->
  <circle id="Outer" cx="16" cy="16" r="12.63" fill="none" stroke="#000" stroke-width="6.74"/>
  <g>
    <g>
      <rect x="14.97" y="19.77" width="2.05" height="2.05"/>
      <path d="M16.47,20.32v.95h-.95v-.95h.95M17.57,19.22h-3.15v3.15h3.15v-3.15h0Z"/>
    </g>
    <g>
      <path d="M14.97,17.95v-.91c0-.59.21-1.16.61-1.59l.94-1.05c.17-.19.26-.42.26-.67,0-.26-.22-.47-.48-.47h-.61c-.26,0-.48.21-.48.47v.55h-2.06v-.55c0-1.39,1.14-2.53,2.54-2.53h.61c1.4,0,2.54,1.13,2.54,2.53,0,.76-.28,1.48-.79,2.05l-.94,1.05c-.06.06-.09.13-.09.21v.91h-2.05Z"/>
      <path d="M16.3,11.75c1.1,0,1.99.89,1.99,1.98,0,.62-.23,1.22-.65,1.68l-.95,1.05c-.15.16-.23.36-.23.58v.36h-.96v-.36c0-.45.17-.88.47-1.22l.94-1.05c.26-.29.4-.66.4-1.04,0-.56-.46-1.02-1.03-1.02h-.61c-.57,0-1.03.46-1.03,1.02h-.96c0-1.09.89-1.98,1.99-1.98h.61M16.3,10.65h-.61c-1.71,0-3.09,1.38-3.09,3.08v1.1h2.79l-.23.25c-.48.54-.75,1.23-.76,1.95v.37s.01,1.09.01,1.09h3.13v-1.09s.01-.28.01-.28l.89-.99c.6-.66.93-1.52.93-2.42,0-1.7-1.39-3.08-3.09-3.08h0ZM15.77,13.81h.46c-.01.08-.05.16-.11.23l-.35.39v-.61h0Z"/>
    </g>
  </g>
</svg>