<?xml version="1.0" encoding="UTF-8"?>
<svg id="Layer_1" xmlns="http://www.w3.org/2000/svg" version="1.1" viewBox="0 0 32 32">
  <!-- Generator: Adobe Illustrator 30.1.0, SVG Export Plug-In . SVG Version: 2.1.1 Build 136)  -->
  <circle id="Outer" cx="16" cy="16" r="14.61" fill="none" stroke="#000" stroke-width="2.78"/>
  <g>
    <g>
      <rect x="14.99" y="21.28" width="2" height="2"/>
      <path d="M16.79,21.48v1.6h-1.6v-1.6h1.6M17.19,21.08h-2.4v2.4h2.4v-2.4h0Z"/>
    </g>
    <g>
      <path d="M14.99,19.07v-.8c0-.81.3-1.58.84-2.19l1.59-1.76c.4-.44.62-1.02.62-1.61,0-.84-.69-1.52-1.53-1.52h-1.02c-.84,0-1.53.68-1.53,1.52v.2h-2.02v-.2c0-1.94,1.59-3.52,3.55-3.52h1.02c1.96,0,3.55,1.58,3.55,3.52,0,1.09-.4,2.14-1.14,2.95l-1.59,1.76c-.22.24-.33.53-.33.84v.81h-2.01Z"/>
      <path d="M16.51,9.39c1.85,0,3.35,1.49,3.35,3.32,0,1.04-.39,2.04-1.09,2.82l-1.59,1.76c-.25.27-.38.61-.38.98v.61h-1.61v-.61c0-.76.28-1.48.79-2.05l1.59-1.76c.43-.48.67-1.1.67-1.75,0-.95-.78-1.72-1.73-1.72h-1.02c-.95,0-1.73.77-1.73,1.72h-1.62c0-1.83,1.5-3.32,3.35-3.32h1.02M16.51,8.99h-1.02c-2.07,0-3.75,1.67-3.75,3.72v.4h2.42v-.4c0-.73.6-1.32,1.33-1.32h1.02c.73,0,1.33.59,1.33,1.32,0,.55-.2,1.07-.57,1.48l-1.59,1.76c-.58.64-.89,1.46-.9,2.32v.61s0,.4,0,.4h2.4v-.4s.01-.61.01-.61c0-.27.1-.51.28-.71l1.59-1.76c.77-.85,1.19-1.95,1.19-3.09,0-2.05-1.68-3.72-3.75-3.72h0Z"/>
    </g>
  </g>
</svg>