<?xml version="1.0" encoding="UTF-8"?>
<svg id="Layer_1" xmlns="http://www.w3.org/2000/svg" version="1.1" viewBox="0 0 32 32">
  <!-- Generator: Adobe Illustrator 30.1.0, SVG Export Plug-In . SVG Version: 2.1.1 Build 136)  -->
  <circle id="Outer" cx="16" cy="16" r="13.48" fill="none" stroke="#000" stroke-width="5.05"/>
  <g>
    <g>
      <rect x="14.98" y="20.42" width="2.02" height="2.02"/>
      <path d="M16.6,20.82v1.22h-1.22v-1.22h1.22M17.4,20.02h-2.82v2.82h2.82v-2.82h0Z"/>
    </g>
    <g>
      <path d="M14.99,18.39v-.86c0-.68.25-1.33.7-1.83l1.2-1.33c.26-.29.41-.67.41-1.06,0-.5-.41-.9-.91-.9h-.77c-.5,0-.91.41-.91.9v.4h-2.03v-.4c0-1.61,1.32-2.92,2.94-2.92h.77c1.62,0,2.94,1.31,2.94,2.92,0,.89-.33,1.75-.93,2.41l-1.21,1.34c-.12.14-.19.3-.19.47v.86h-2.02Z"/>
      <path d="M16.39,10.78c1.4,0,2.54,1.13,2.54,2.52,0,.79-.29,1.55-.83,2.14l-1.21,1.34c-.19.21-.29.46-.29.74v.46h-1.22v-.46c0-.58.21-1.13.6-1.56l1.21-1.34c.33-.37.51-.84.51-1.33,0-.72-.59-1.3-1.31-1.3h-.77c-.72,0-1.31.59-1.31,1.3h-1.23c0-1.39,1.14-2.52,2.54-2.52h.77M16.39,9.98h-.77c-1.84,0-3.34,1.49-3.34,3.32v.8h2.83v-.8c0-.28.23-.5.51-.5h.77c.28,0,.51.23.51.5,0,.29-.11.57-.31.79l-1.21,1.34c-.52.57-.81,1.32-.81,2.09v.47s.01.79.01.79h2.8v-.79s.01-.46.01-.46c0-.08.03-.15.08-.21l1.21-1.34c.66-.74,1.03-1.69,1.03-2.68,0-1.83-1.5-3.32-3.34-3.32h0Z"/>
    </g>
  </g>
</svg>