<?xml version="1.0" encoding="UTF-8"?>
<svg id="Layer_1" xmlns="http://www.w3.org/2000/svg" version="1.1" viewBox="0 0 32 32">
  <!-- Generator: Adobe Illustrator 30.1.0, SVG Export Plug-In . SVG Version: 2.1.1 Build 136)  -->
  <circle id="Outer" cx="16" cy="16" r="12.91" fill="none" stroke="#000" stroke-width="6.18"/>
  <g>
    <g>
      <rect x="14.97" y="19.99" width="2.04" height="2.04"/>
      <path d="M16.51,20.49v1.04h-1.04v-1.04h1.04M17.51,19.49h-3.04v3.04h3.04v-3.04h0Z"/>
    </g>
    <g>
      <path d="M14.98,18.08v-.89c0-.62.22-1.21.64-1.67l1.03-1.14c.2-.22.31-.5.31-.8,0-.34-.28-.61-.62-.61h-.66c-.34,0-.62.27-.62.61v.5h-2.05v-.5c0-1.46,1.2-2.65,2.67-2.65h.66c1.47,0,2.67,1.19,2.67,2.65,0,.8-.3,1.57-.83,2.16l-1.03,1.14c-.08.09-.12.19-.12.3v.89h-2.04Z"/>
      <path d="M16.33,11.44c1.2,0,2.17.97,2.17,2.15,0,.68-.25,1.32-.7,1.83l-1.03,1.14c-.16.18-.25.4-.25.63v.39h-1.04v-.39c0-.49.18-.96.51-1.33l1.03-1.14c.28-.31.44-.71.44-1.13,0-.61-.5-1.11-1.12-1.11h-.66c-.62,0-1.12.5-1.12,1.11h-1.05c0-1.19.97-2.15,2.17-2.15h.66M16.33,10.44h-.66c-1.75,0-3.17,1.41-3.17,3.15v1h3.05v-1c0-.06.06-.11.12-.11h.66c.07,0,.12.05.12.11,0,.17-.06.33-.18.46l-1.03,1.14c-.5.55-.77,1.26-.77,1.99v.41s.01.99.01.99h3.02v-.99s.01-.39.01-.39l1.02-1.11c.62-.69.96-1.57.96-2.5,0-1.74-1.42-3.15-3.17-3.15h0Z"/>
    </g>
  </g>
</svg>