<?xml version="1.0" encoding="UTF-8"?>
<svg id="Layer_1" xmlns="http://www.w3.org/2000/svg" version="1.1" viewBox="0 0 32 32">
  <!-- Generator: Adobe Illustrator 30.1.0, SVG Export Plug-In . SVG Version: 2.1.1 Build 136)  -->
  <circle id="Outer" cx="16" cy="16" r="14.05" fill="none" stroke="#000" stroke-width="3.91"/>
  <g>
    <g>
      <rect x="14.99" y="20.86" width="2.01" height="2.01"/>
      <path d="M16.69,21.16v1.41h-1.41v-1.41h1.41M17.29,20.56h-2.61v2.61h2.61v-2.61h0Z"/>
    </g>
    <g>
      <path d="M14.99,18.72v-.83c0-.74.27-1.45.77-2l1.39-1.54c.33-.37.51-.84.51-1.33,0-.67-.55-1.21-1.22-1.21h-.89c-.67,0-1.22.54-1.22,1.21v.3h-2.02v-.3c0-1.77,1.45-3.22,3.24-3.22h.89c1.78,0,3.24,1.44,3.24,3.22,0,.99-.37,1.94-1.03,2.68l-1.39,1.54c-.17.19-.26.41-.26.66v.83h-2.01Z"/>
      <path d="M16.45,10.1c1.62,0,2.94,1.31,2.94,2.92,0,.91-.34,1.79-.95,2.47l-1.39,1.54c-.22.24-.34.54-.34.86v.53h-1.41v-.53c0-.67.24-1.3.69-1.8l1.39-1.54c.38-.42.59-.97.59-1.53,0-.83-.68-1.51-1.52-1.51h-.89c-.84,0-1.52.68-1.52,1.51h-1.42c0-1.61,1.32-2.92,2.94-2.92h.89M16.45,9.5h-.89c-1.95,0-3.54,1.58-3.54,3.52v.6h2.62v-.6c0-.5.41-.91.92-.91h.89c.51,0,.92.41.92.91,0,.42-.16.82-.44,1.13l-1.39,1.54c-.55.6-.85,1.38-.85,2.2v.54s0,.59,0,.59h2.6v-.59s.01-.53.01-.53c0-.17.06-.33.18-.46l1.39-1.54c.71-.79,1.11-1.81,1.11-2.88,0-1.94-1.59-3.52-3.54-3.52h0Z"/>
    </g>
  </g>
</svg>