<?xml version="1.0" encoding="UTF-8"?>
<svg id="Layer_1" xmlns="http://www.w3.org/2000/svg" version="1.1" viewBox="0 0 32 32">
  <!-- Generator: Adobe Illustrator 30.1.0, SVG Export Plug-In . SVG Version: 2.1.1 Build 136)  -->
  <circle id="Outer" cx="16" cy="16" r="14.89" fill="none" stroke="#000" stroke-width="2.22"/>
  <g>
    <g>
      <rect x="14.99" y="21.49" width="2" height="2"/>
      <path d="M16.84,21.64v1.7h-1.7v-1.7h1.7M17.14,21.34h-2.3v2.3h2.3v-2.3h0Z"/>
    </g>
    <g>
      <path d="M14.99,19.26v-.79c0-.84.31-1.65.88-2.28l1.69-1.87c.44-.48.68-1.11.68-1.76,0-.92-.76-1.68-1.69-1.68h-1.08c-.93,0-1.69.75-1.69,1.68v.15h-2.02v-.15c0-2.03,1.66-3.68,3.71-3.68h1.08c2.04,0,3.71,1.65,3.71,3.68,0,1.14-.42,2.24-1.19,3.1l-1.69,1.87c-.24.27-.37.59-.37.94v.79h-2.01Z"/>
      <path d="M16.54,9.03c1.96,0,3.56,1.58,3.56,3.53,0,1.11-.41,2.17-1.16,3l-1.69,1.87c-.26.29-.41.65-.41,1.04v.64h-1.71v-.64c0-.81.29-1.58.84-2.18l1.69-1.87c.46-.51.72-1.17.72-1.86,0-1.01-.82-1.83-1.84-1.83h-1.08c-1.01,0-1.84.82-1.84,1.83h-1.72c0-1.95,1.6-3.53,3.56-3.53h1.08M16.54,8.73h-1.08c-2.13,0-3.86,1.72-3.86,3.83v.3h2.32v-.3c0-.84.69-1.53,1.54-1.53h1.08c.85,0,1.54.68,1.54,1.53,0,.61-.23,1.2-.64,1.66l-1.69,1.87c-.59.65-.92,1.5-.92,2.38v.65s0,.3,0,.3h2.3v-.3s0-.64,0-.64c0-.31.12-.6.33-.84l1.69-1.87c.79-.88,1.23-2.02,1.23-3.2,0-2.11-1.73-3.83-3.86-3.83h0Z"/>
    </g>
  </g>
</svg>