<?xml version="1.0" encoding="UTF-8"?>
<svg id="Layer_1" xmlns="http://www.w3.org/2000/svg" version="1.1" viewBox="0 0 85 85">
  <!-- Generator: Adobe Illustrator 30.1.0, SVG Export Plug-In . SVG Version: 2.1.1 Build 136)  -->
  <g>
    <g>
      <rect x="39.51" y="22.06" width="5.99" height="5.99"/>
      <path d="M44.96,22.59v4.92h-4.92v-4.92h4.92M46.02,21.53h-7.05v7.05h7.05v-7.05h0Z"/>
    </g>
    <g>
      <polygon points="34.58 62.81 34.58 56.83 39.51 56.83 39.51 42.52 34.58 42.52 34.58 36.53 45.49 36.53 45.49 56.83 50.42 56.83 50.42 62.81 34.58 62.81"/>
      <path d="M44.96,37.07v20.29h4.92v4.92h-14.77v-4.92h4.92v-15.37h-4.92v-4.92h9.85M46.02,36h-11.97v7.05h4.92v13.25h-4.92v7.05h16.89v-7.05h-4.92v-20.29h0Z"/>
    </g>
  </g>
  <circle id="Outer" cx="42.5" cy="42.5" r="38.81" fill="none" stroke="#000" stroke-width="7.38"/>
</svg>