<?xml version="1.0" encoding="UTF-8"?>
<svg id="Layer_1" xmlns="http://www.w3.org/2000/svg" version="1.1" viewBox="0 0 85 85">
  <!-- Generator: Adobe Illustrator 30.1.0, SVG Export Plug-In . SVG Version: 2.1.1 Build 136)  -->
  <g>
    <g>
      <rect x="39.36" y="25.31" width="6.27" height="6.27"/>
      <path d="M44.31,26.64v3.62h-3.62v-3.62h3.62M46.96,23.98h-8.93v8.93h8.93v-8.93h0Z"/>
    </g>
    <g>
      <polygon points="35.75 58.87 35.75 52.6 39.36 52.6 39.36 43.96 35.75 43.96 35.75 37.69 45.64 37.69 45.64 52.6 49.25 52.6 49.25 58.87 35.75 58.87"/>
      <path d="M44.31,39.02v14.9h3.62v3.62h-10.85v-3.62h3.62v-11.29h-3.62v-3.62h7.23M46.96,36.36h-12.54v8.93h3.62v5.98h-3.62v8.93h16.16v-8.93h-3.62v-14.9h0Z"/>
    </g>
  </g>
  <circle id="Outer" cx="42.5" cy="42.5" r="34.29" fill="none" stroke="#000" stroke-width="16.42"/>
</svg>