<?xml version="1.0" encoding="UTF-8"?>
<svg id="Layer_1" xmlns="http://www.w3.org/2000/svg" version="1.1" viewBox="0 0 85 85">
  <!-- Generator: Adobe Illustrator 30.1.0, SVG Export Plug-In . SVG Version: 2.1.1 Build 136)  -->
  <g>
    <g>
      <rect x="39.42" y="24.23" width="6.17" height="6.17"/>
      <path d="M44.52,25.29v4.04h-4.04v-4.04h4.04M46.65,23.17h-8.29v8.29h8.29v-8.29h0Z"/>
    </g>
    <g>
      <polygon points="35.37 60.16 35.37 53.99 39.42 53.99 39.42 43.5 35.37 43.5 35.37 37.33 45.58 37.33 45.58 53.99 49.63 53.99 49.63 60.16 35.37 60.16"/>
      <path d="M44.52,38.39v16.66h4.04v4.04h-12.13v-4.04h4.04v-12.62h-4.04v-4.04h8.08M46.65,36.27h-12.33v8.29h4.04v8.37h-4.04v8.29h16.38v-8.29h-4.04v-16.66h0Z"/>
    </g>
  </g>
  <circle id="Outer" cx="42.5" cy="42.5" r="35.79" fill="none" stroke="#000" stroke-width="13.41"/>
</svg>