<?xml version="1.0" encoding="UTF-8"?>
<svg id="Layer_1" xmlns="http://www.w3.org/2000/svg" version="1.1" viewBox="0 0 16 16">
  <!-- Generator: Adobe Illustrator 30.1.0, SVG Export Plug-In . SVG Version: 2.1.1 Build 136)  -->
  <g>
    <g>
      <rect x="7.43" y="4.36" width="1.14" height="1.14"/>
      <path d="M8.42,4.51v.84h-.84v-.84h.84M8.72,4.21h-1.44v1.44h1.44v-1.44h0Z"/>
    </g>
    <g>
      <polygon points="6.58 11.57 6.58 10.43 7.43 10.43 7.43 8.1 6.58 8.1 6.58 6.95 8.57 6.95 8.57 10.43 9.42 10.43 9.42 11.57 6.58 11.57"/>
      <path d="M8.42,7.1v3.48h.84v.84h-2.53v-.84h.84v-2.63h-.84v-.84h1.69M8.72,6.8h-2.29v1.44h.84v2.03h-.84v1.44h3.13v-1.44h-.84v-3.48h0Z"/>
    </g>
  </g>
  <circle id="Outer" cx="8" cy="8" r="7.02" fill="none" stroke="#000" stroke-width="1.96"/>
</svg>