<?xml version="1.0" encoding="UTF-8"?>
<svg id="Layer_1" xmlns="http://www.w3.org/2000/svg" version="1.1" viewBox="0 0 16 16">
  <!-- Generator: Adobe Illustrator 30.1.0, SVG Export Plug-In . SVG Version: 2.1.1 Build 136)  -->
  <g>
    <g>
      <rect x="7.44" y="4.15" width="1.13" height="1.13"/>
      <path d="M8.46,4.25v.93h-.93v-.93h.93M8.66,4.05h-1.33v1.33h1.33v-1.33h0Z"/>
    </g>
    <g>
      <polygon points="6.51 11.82 6.51 10.7 7.44 10.7 7.44 8 6.51 8 6.51 6.88 8.56 6.88 8.56 10.7 9.49 10.7 9.49 11.82 6.51 11.82"/>
      <path d="M8.46,6.98v3.82h.93v.93h-2.78v-.93h.93v-2.89h-.93v-.93h1.85M8.66,6.78h-2.25v1.33h.93v2.49h-.93v1.33h3.18v-1.33h-.93v-3.82h0Z"/>
    </g>
  </g>
  <circle id="Outer" cx="8" cy="8" r="7.31" fill="none" stroke="#000" stroke-width="1.39"/>
</svg>