<?xml version="1.0" encoding="UTF-8"?>
<svg id="Layer_1" xmlns="http://www.w3.org/2000/svg" version="1.1" viewBox="0 0 8 8">
  <!-- Generator: Adobe Illustrator 30.1.0, SVG Export Plug-In . SVG Version: 2.1.1 Build 136)  -->
  <g>
    <g>
      <rect x="3.71" y="2.18" width=".57" height=".57"/>
      <path d="M4.21,2.25v.42h-.42v-.42h.42M4.36,2.1h-.72v.72h.72v-.72h0Z"/>
    </g>
    <g>
      <polygon points="3.29 5.79 3.29 5.21 3.71 5.21 3.71 4.05 3.29 4.05 3.29 3.48 4.29 3.48 4.29 5.21 4.71 5.21 4.71 5.79 3.29 5.79"/>
      <path d="M4.21,3.55v1.74h.42v.42h-1.27v-.42h.42v-1.32h-.42v-.42h.84M4.36,3.4h-1.14v.72h.42v1.02h-.42v.72h1.57v-.72h-.42v-1.74h0Z"/>
    </g>
  </g>
  <circle id="Outer" cx="4" cy="4" r="3.51" fill="none" stroke="#000" stroke-width=".98"/>
</svg>