<?xml version="1.0" encoding="UTF-8"?>
<svg id="Layer_1" xmlns="http://www.w3.org/2000/svg" version="1.1" viewBox="0 0 8 8">
  <!-- Generator: Adobe Illustrator 30.1.0, SVG Export Plug-In . SVG Version: 2.1.1 Build 136)  -->
  <g>
    <g>
      <rect x="3.71" y="2.38" width=".59" height=".59"/>
      <path d="M4.17,2.51v.34h-.34v-.34h.34M4.42,2.26h-.84v.84h.84v-.84h0Z"/>
    </g>
    <g>
      <polygon points="3.36 5.54 3.36 4.95 3.71 4.95 3.71 4.14 3.36 4.14 3.36 3.55 4.29 3.55 4.29 4.95 4.64 4.95 4.64 5.54 3.36 5.54"/>
      <path d="M4.17,3.67v1.4h.34v.34h-1.02v-.34h.34v-1.06h-.34v-.34h.68M4.42,3.42h-1.18v.84h.34v.56h-.34v.84h1.52v-.84h-.34v-1.4h0Z"/>
    </g>
  </g>
  <circle id="Outer" cx="4" cy="4" r="3.23" fill="none" stroke="#000" stroke-width="1.54"/>
</svg>