<?xml version="1.0" encoding="UTF-8"?>
<svg id="Layer_1" xmlns="http://www.w3.org/2000/svg" version="1.1" viewBox="0 0 8 8">
  <!-- Generator: Adobe Illustrator 30.1.0, SVG Export Plug-In . SVG Version: 2.1.1 Build 136)  -->
  <g>
    <g>
      <rect x="3.71" y="2.28" width=".58" height=".58"/>
      <path d="M4.19,2.38v.38h-.38v-.38h.38M4.39,2.18h-.78v.78h.78v-.78h0Z"/>
    </g>
    <g>
      <polygon points="3.33 5.66 3.33 5.08 3.71 5.08 3.71 4.09 3.33 4.09 3.33 3.51 4.29 3.51 4.29 5.08 4.67 5.08 4.67 5.66 3.33 5.66"/>
      <path d="M4.19,3.61v1.57h.38v.38h-1.14v-.38h.38v-1.19h-.38v-.38h.76M4.39,3.41h-1.16v.78h.38v.79h-.38v.78h1.54v-.78h-.38v-1.57h0Z"/>
    </g>
  </g>
  <circle id="Outer" cx="4" cy="4" r="3.37" fill="none" stroke="#000" stroke-width="1.26"/>
</svg>