<?xml version="1.0" encoding="UTF-8"?>
<svg id="Layer_1" xmlns="http://www.w3.org/2000/svg" version="1.1" viewBox="0 0 89 89">
  <!-- Generator: Adobe Illustrator 30.1.0, SVG Export Plug-In . SVG Version: 2.1.1 Build 136)  -->
  <g>
    <g>
      <rect x="41.37" y="23.1" width="6.27" height="6.27"/>
      <path d="M47.08,23.65v5.16h-5.16v-5.16h5.16M48.19,22.54h-7.38v7.38h7.38v-7.38h0Z"/>
    </g>
    <g>
      <polygon points="36.21 65.77 36.21 59.5 41.37 59.5 41.37 44.52 36.21 44.52 36.21 38.25 47.63 38.25 47.63 59.5 52.79 59.5 52.79 65.77 36.21 65.77"/>
      <path d="M47.08,38.81v21.25h5.15v5.15h-15.47v-5.15h5.15v-16.09h-5.15v-5.15h10.31M48.19,37.7h-12.54v7.38h5.15v13.87h-5.15v7.38h17.69v-7.38h-5.15v-21.25h0Z"/>
    </g>
  </g>
  <circle id="Outer" cx="44.5" cy="44.5" r="40.63" fill="none" stroke="#000" stroke-width="7.73"/>
</svg>