<?xml version="1.0" encoding="UTF-8"?>
<svg id="Layer_1" xmlns="http://www.w3.org/2000/svg" version="1.1" viewBox="0 0 89 89">
  <!-- Generator: Adobe Illustrator 30.1.0, SVG Export Plug-In . SVG Version: 2.1.1 Build 136)  -->
  <g>
    <g>
      <rect x="41.32" y="24.23" width="6.36" height="6.36"/>
      <path d="M46.85,25.06v4.69h-4.69v-4.69h4.69M48.51,23.4h-8.03v8.03h8.03v-8.03h0Z"/>
    </g>
    <g>
      <polygon points="36.63 64.38 36.63 58.02 41.32 58.02 41.32 45.04 36.63 45.04 36.63 38.68 47.68 38.68 47.68 58.02 52.37 58.02 52.37 64.38 36.63 64.38"/>
      <path d="M46.85,39.51v19.34h4.69v4.69h-14.08v-4.69h4.69v-14.65h-4.69v-4.69h9.38M48.51,37.84h-12.72v8.03h4.69v11.31h-4.69v8.03h17.41v-8.03h-4.69v-19.34h0Z"/>
    </g>
  </g>
  <circle id="Outer" cx="44.5" cy="44.5" r="39.06" fill="none" stroke="#000" stroke-width="10.87"/>
</svg>