<?xml version="1.0" encoding="UTF-8"?>
<svg id="Layer_1" xmlns="http://www.w3.org/2000/svg" version="1.1" viewBox="0 0 89 89">
  <!-- Generator: Adobe Illustrator 30.1.0, SVG Export Plug-In . SVG Version: 2.1.1 Build 136)  -->
  <g>
    <g>
      <rect x="41.27" y="25.37" width="6.46" height="6.46"/>
      <path d="M46.62,26.49v4.23h-4.23v-4.23h4.23M48.84,24.26h-8.68v8.68h8.68v-8.68h0Z"/>
    </g>
    <g>
      <polygon points="37.04 62.99 37.04 56.53 41.27 56.53 41.27 45.54 37.04 45.54 37.04 39.09 47.73 39.09 47.73 56.53 51.96 56.53 51.96 62.99 37.04 62.99"/>
      <path d="M46.62,40.2v17.45h4.23v4.23h-12.7v-4.23h4.23v-13.21h-4.23v-4.23h8.46M48.84,37.97h-12.91v8.68h4.23v8.76h-4.23v8.68h17.15v-8.68h-4.23v-17.45h0Z"/>
    </g>
  </g>
  <circle id="Outer" cx="44.5" cy="44.5" r="37.48" fill="none" stroke="#000" stroke-width="14.05"/>
</svg>