<?xml version="1.0" encoding="UTF-8"?>
<svg id="Layer_1" xmlns="http://www.w3.org/2000/svg" version="1.1" viewBox="0 0 64 64">
  <!-- Generator: Adobe Illustrator 30.1.0, SVG Export Plug-In . SVG Version: 2.1.1 Build 136)  -->
  <circle id="Outer" cx="32" cy="32" r="26.95" fill="none" stroke="#000" stroke-width="10.1"/>
  <g>
    <g>
      <rect x="29.97" y="40.85" width="4.03" height="4.03"/>
      <path d="M33.2,41.65v2.43h-2.43v-2.43h2.43M34.8,40.05h-5.63v5.63h5.63v-5.63h0Z"/>
    </g>
    <g>
      <path d="M29.98,36.77l-.02-1.71c0-1.36.51-2.65,1.41-3.65l2.41-2.67c.53-.58.82-1.34.82-2.12,0-1-.82-1.81-1.83-1.81h-1.55c-1.01,0-1.83.81-1.83,1.81v.8h-4.05v-.8c0-3.22,2.64-5.85,5.88-5.85h1.55c3.24,0,5.88,2.62,5.88,5.85,0,1.78-.66,3.49-1.86,4.82l-2.41,2.67c-.24.27-.38.6-.38.95l-.02,1.72h-4.02Z"/>
      <path d="M32.77,21.57c2.8,0,5.08,2.26,5.08,5.05,0,1.58-.59,3.1-1.65,4.28l-2.41,2.67c-.37.41-.58.93-.58,1.48v.92h-2.44v-.92c0-1.15.42-2.25,1.2-3.11l2.41-2.67c.66-.73,1.02-1.67,1.02-2.65,0-1.44-1.18-2.61-2.63-2.61h-1.55c-1.45,0-2.63,1.17-2.63,2.61h-2.46c0-2.78,2.28-5.05,5.08-5.05h1.55M32.77,19.97h-1.55c-3.68,0-6.68,2.98-6.68,6.65v1.6h5.66v-1.6c0-.56.46-1.01,1.03-1.01h1.55c.57,0,1.03.45,1.03,1.01,0,.58-.22,1.15-.61,1.58l-2.41,2.67c-1.04,1.15-1.61,2.63-1.62,4.18v.94s.02,1.59.02,1.59h5.6l.02-1.58v-.92c0-.16.07-.3.18-.43l2.41-2.67c1.33-1.47,2.06-3.37,2.06-5.35,0-3.66-3-6.65-6.68-6.65h0Z"/>
    </g>
  </g>
</svg>