<?xml version="1.0" encoding="UTF-8"?>
<svg id="Layer_1" xmlns="http://www.w3.org/2000/svg" version="1.1" viewBox="0 0 64 64">
  <!-- Generator: Adobe Illustrator 30.1.0, SVG Export Plug-In . SVG Version: 2.1.1 Build 136)  -->
  <circle id="Outer" cx="32" cy="32" r="28.09" fill="none" stroke="#000" stroke-width="7.82"/>
  <g>
    <g>
      <rect x="29.98" y="41.71" width="4.01" height="4.01"/>
      <path d="M33.39,42.31v2.81h-2.81v-2.81h2.81M34.59,41.11h-5.21v5.21h5.21v-5.21h0Z"/>
    </g>
    <g>
      <path d="M29.98,37.44v-1.66c0-1.49.54-2.91,1.53-4l2.79-3.09c.66-.73,1.03-1.68,1.03-2.67,0-1.33-1.09-2.41-2.44-2.41h-1.79c-1.34,0-2.44,1.08-2.44,2.41v.6h-4.04v-.6c0-3.55,2.9-6.43,6.47-6.43h1.79c3.57,0,6.47,2.89,6.47,6.43,0,1.98-.73,3.88-2.06,5.35l-2.79,3.09c-.34.37-.52.83-.52,1.31l-.02,1.66h-4Z"/>
      <path d="M32.89,20.19c3.24,0,5.87,2.62,5.87,5.83,0,1.83-.68,3.59-1.91,4.95l-2.79,3.09c-.43.48-.67,1.07-.67,1.71v1.06h-2.82v-1.06c0-1.33.49-2.6,1.38-3.6l2.79-3.09c.76-.84,1.18-1.93,1.18-3.07,0-1.66-1.36-3.01-3.04-3.01h-1.79c-1.67,0-3.04,1.35-3.04,3.01h-2.84c0-3.22,2.63-5.83,5.87-5.83h1.79M32.89,18.99h-1.79c-3.9,0-7.07,3.15-7.07,7.03v1.2h5.24v-1.2c0-1,.82-1.81,1.84-1.81h1.79c1.01,0,1.84.81,1.84,1.81,0,.84-.31,1.64-.87,2.26l-2.79,3.09c-1.09,1.21-1.7,2.77-1.7,4.4v1.08s.02,1.19.02,1.19h5.19v-1.19s.02-1.06.02-1.06c0-.35.12-.66.36-.92l2.79-3.09c1.43-1.58,2.22-3.63,2.22-5.75,0-3.88-3.17-7.03-7.07-7.03h0Z"/>
    </g>
  </g>
</svg>