<?xml version="1.0" encoding="UTF-8"?>
<svg id="Layer_1" xmlns="http://www.w3.org/2000/svg" version="1.1" viewBox="0 0 64 64">
  <!-- Generator: Adobe Illustrator 30.1.0, SVG Export Plug-In . SVG Version: 2.1.1 Build 136)  -->
  <circle id="Outer" cx="32" cy="32" r="29.22" fill="none" stroke="#000" stroke-width="5.56"/>
  <g>
    <g>
      <rect x="29.98" y="42.57" width="4.01" height="4.01"/>
      <path d="M33.58,42.97v3.21h-3.21v-3.21h3.21M34.38,42.17h-4.81v4.81h4.81v-4.81h0Z"/>
    </g>
    <g>
      <path d="M29.98,38.15v-1.61c0-1.62.59-3.17,1.68-4.37l3.17-3.52c.8-.89,1.25-2.04,1.25-3.23,0-1.67-1.37-3.04-3.06-3.04h-2.04c-1.69,0-3.06,1.36-3.06,3.04v.4h-4.03v-.4c0-3.89,3.18-7.05,7.09-7.05h2.04c3.91,0,7.1,3.16,7.1,7.05,0,2.18-.81,4.28-2.28,5.91l-3.18,3.52c-.43.48-.66,1.06-.66,1.69l-.02,1.61h-4Z"/>
      <path d="M33.02,18.77c3.69,0,6.69,2.98,6.69,6.65,0,2.09-.77,4.09-2.17,5.64l-3.18,3.52c-.49.54-.76,1.22-.77,1.95v1.21h-3.22v-1.21c0-1.52.55-2.97,1.58-4.1l3.18-3.52c.87-.96,1.35-2.2,1.35-3.5,0-1.89-1.55-3.44-3.46-3.44h-2.04c-1.91,0-3.46,1.54-3.46,3.44h-3.23c0-3.67,3-6.65,6.69-6.65h2.04M33.02,17.97h-2.04c-4.13,0-7.49,3.34-7.49,7.45v.8h4.83v-.8c0-1.45,1.19-2.64,2.66-2.64h2.04c1.47,0,2.66,1.18,2.66,2.64,0,1.09-.41,2.15-1.14,2.96l-3.18,3.52c-1.15,1.27-1.79,2.92-1.79,4.63v1.22s.02.79.02.79h4.79v-.79s.02-1.21.02-1.21c0-.53.2-1.02.56-1.42l3.18-3.52c1.53-1.7,2.38-3.89,2.38-6.18,0-4.11-3.36-7.45-7.49-7.45h0Z"/>
    </g>
  </g>
</svg>