<?xml version="1.0" encoding="UTF-8"?>
<svg id="Layer_1" xmlns="http://www.w3.org/2000/svg" version="1.1" viewBox="0 0 64 64">
  <!-- Generator: Adobe Illustrator 30.1.0, SVG Export Plug-In . SVG Version: 2.1.1 Build 136)  -->
  <circle id="Outer" cx="32" cy="32" r="29.78" fill="none" stroke="#000" stroke-width="4.44"/>
  <g>
    <g>
      <rect x="29.98" y="42.99" width="4.01" height="4.01"/>
      <path d="M33.68,43.29v3.41h-3.41v-3.41h3.41M34.28,42.69h-4.61v4.61h4.61v-4.61h0Z"/>
    </g>
    <g>
      <path d="M29.98,38.52v-1.58c0-1.69.62-3.31,1.75-4.56l3.37-3.74c.87-.97,1.36-2.22,1.36-3.52,0-1.85-1.51-3.35-3.38-3.35h-2.17c-1.86,0-3.38,1.5-3.38,3.35v.3h-4.04v-.3c0-4.06,3.33-7.36,7.41-7.36h2.17c4.09,0,7.41,3.3,7.41,7.36,0,2.29-.85,4.49-2.39,6.2l-3.38,3.74c-.48.53-.74,1.18-.74,1.88l-.02,1.59h-4Z"/>
      <path d="M33.08,18.05c3.92,0,7.11,3.17,7.11,7.06,0,2.22-.82,4.34-2.31,5.99l-3.38,3.74c-.52.58-.81,1.3-.81,2.08v1.29h-3.42v-1.29c0-1.61.59-3.15,1.68-4.36l3.37-3.74c.92-1.02,1.43-2.34,1.43-3.72,0-2.01-1.65-3.65-3.68-3.65h-2.17c-2.03,0-3.68,1.64-3.68,3.65h-3.44c0-3.89,3.19-7.06,7.11-7.06h2.17M33.08,17.45h-2.17c-4.25,0-7.71,3.44-7.71,7.66v.6h4.64v-.6c0-1.68,1.38-3.05,3.08-3.05h2.17c1.7,0,3.08,1.37,3.08,3.05,0,1.22-.45,2.4-1.28,3.31l-3.37,3.74c-1.18,1.31-1.84,3-1.84,4.75v1.3s.02.59.02.59h4.6v-.59s.02-1.29.02-1.29c0-.62.23-1.2.66-1.68l3.38-3.74c1.59-1.76,2.46-4.03,2.46-6.4,0-4.23-3.46-7.66-7.71-7.66h0Z"/>
    </g>
  </g>
</svg>