<?xml version="1.0" encoding="UTF-8"?>
<svg id="Layer_1" xmlns="http://www.w3.org/2000/svg" version="1.1" viewBox="0 0 64 64">
  <!-- Generator: Adobe Illustrator 30.1.0, SVG Export Plug-In . SVG Version: 2.1.1 Build 136)  -->
  <circle id="Outer" cx="32" cy="32" r="25.82" fill="none" stroke="#000" stroke-width="12.36"/>
  <g>
    <g>
      <rect x="29.95" y="39.98" width="4.08" height="4.08"/>
      <path d="M33.02,40.98v2.08h-2.08v-2.08h2.08M35.02,38.98h-6.08v6.08h6.08v-6.08h0Z"/>
    </g>
    <g>
      <path d="M29.96,36.17l-.02-1.78c0-1.24.46-2.42,1.29-3.33l2.06-2.28c.4-.44.62-1.01.62-1.6,0-.68-.56-1.23-1.24-1.23h-1.32c-.69,0-1.24.55-1.24,1.23v1h-4.1v-1c0-2.93,2.39-5.31,5.34-5.31h1.32c2.94,0,5.34,2.38,5.34,5.31,0,1.6-.59,3.13-1.67,4.32l-2.06,2.28c-.16.17-.24.38-.24.6l-.02,1.78h-4.06Z"/>
      <path d="M32.66,22.87c2.39,0,4.34,1.93,4.34,4.31,0,1.35-.5,2.65-1.41,3.65l-2.06,2.28c-.32.35-.5.79-.5,1.27v.79h-2.09v-.79c0-.98.36-1.92,1.02-2.66l2.06-2.28c.56-.62.87-1.43.87-2.27,0-1.23-1.01-2.23-2.24-2.23h-1.32c-1.24,0-2.24,1-2.24,2.23h-2.1c0-2.37,1.95-4.31,4.34-4.31h1.32M32.66,20.87h-1.32c-3.49,0-6.34,2.83-6.34,6.31v2h6.1v-2c0-.12.11-.23.24-.23h1.32c.13,0,.24.1.24.23,0,.34-.13.67-.36.93l-2.06,2.28c-.99,1.09-1.54,2.51-1.54,3.99v.81s.02,1.98.02,1.98h6.04l.02-1.98v-.75s2.05-2.26,2.05-2.26c1.24-1.37,1.92-3.15,1.92-4.99,0-3.48-2.84-6.31-6.34-6.31h0Z"/>
    </g>
  </g>
</svg>