<?xml version="1.0" encoding="UTF-8"?>
<svg id="Layer_1" xmlns="http://www.w3.org/2000/svg" version="1.1" viewBox="0 0 64 64">
  <!-- Generator: Adobe Illustrator 30.1.0, SVG Export Plug-In . SVG Version: 2.1.1 Build 136)  -->
  <circle id="Outer" cx="32" cy="32" r="25.26" fill="none" stroke="#000" stroke-width="13.48"/>
  <g>
    <g>
      <rect x="29.93" y="39.54" width="4.11" height="4.11"/>
      <path d="M32.94,40.64v1.91h-1.91v-1.91h1.91M35.14,38.44h-6.31v6.31h6.31v-6.31h0Z"/>
    </g>
    <g>
      <path d="M29.95,35.89l-.02-1.81c0-1.19.44-2.31,1.23-3.19l1.89-2.09c.33-.37.52-.85.52-1.34s-.43-.94-.96-.94h-1.21c-.53,0-.96.42-.96.94v1.1h-4.12v-1.1c0-2.79,2.28-5.06,5.08-5.06h1.21c2.8,0,5.08,2.27,5.08,5.06,0,1.51-.56,2.97-1.58,4.09l-1.89,2.09c-.11.13-.17.27-.17.43l-.02,1.82h-4.09Z"/>
      <path d="M32.61,23.5c2.2,0,3.98,1.78,3.98,3.96,0,1.24-.46,2.43-1.29,3.36l-1.89,2.09c-.29.32-.45.73-.46,1.16v.72h-1.92v-.72c0-.9.33-1.77.94-2.44l1.89-2.09c.52-.57.8-1.31.8-2.08,0-1.13-.92-2.05-2.06-2.05h-1.21c-1.14,0-2.06.92-2.06,2.05h-1.93c0-2.18,1.79-3.96,3.98-3.96h1.21M32.61,21.3h-1.21c-3.41,0-6.18,2.76-6.18,6.16v2.2h5.58l-.45.5c-.97,1.07-1.51,2.46-1.51,3.91v.75s.03,2.18.03,2.18h6.27l.02-2.18v-.55s1.79-1.97,1.79-1.97c1.2-1.33,1.86-3.04,1.86-4.83,0-3.39-2.77-6.16-6.18-6.16h0ZM31.53,27.61h.92c-.03.17-.11.32-.22.45l-.7.77v-1.23h0Z"/>
    </g>
  </g>
</svg>