<?xml version="1.0" encoding="UTF-8"?>
<svg id="Layer_1" xmlns="http://www.w3.org/2000/svg" version="1.1" viewBox="0 0 123 123">
  <!-- Generator: Adobe Illustrator 30.1.0, SVG Export Plug-In . SVG Version: 2.1.1 Build 136)  -->
  <path d="M61.5,15.03c1.51,0,3.02.78,3.81,2.35l9.72,19.3c1.67,3.31,4.78,5.65,8.42,6.34l21.03,3.94c3.29.62,4.62,4.61,2.37,7.09l-15.32,16.82c-2.36,2.59-3.46,6.1-3,9.59l2.99,22.67c.36,2.71-1.8,4.85-4.23,4.85-.64,0-1.31-.15-1.95-.48l-18.4-9.47c-1.71-.88-3.57-1.32-5.43-1.32s-3.73.44-5.43,1.32l-18.4,9.47c-.64.33-1.31.48-1.95.48-2.43,0-4.59-2.14-4.23-4.85l2.99-22.68c.46-3.48-.64-6.98-3-9.58l-15.33-16.82c-2.26-2.48-.92-6.48,2.37-7.09l21.03-3.94c3.64-.68,6.75-3.02,8.41-6.33l9.72-19.3c.79-1.57,2.3-2.35,3.81-2.35M61.5,0C54.17,0,47.56,4.07,44.27,10.62l-9.02,17.91-19.49,3.65c-6.87,1.29-12.52,6.21-14.74,12.84-2.22,6.64-.68,13.97,4.04,19.15l14.35,15.74-2.8,21.24c-.73,5.52.95,11.07,4.61,15.25,3.68,4.19,8.97,6.6,14.52,6.6,3.05,0,6.1-.74,8.83-2.15l16.95-8.73,16.95,8.73c2.73,1.41,5.78,2.15,8.83,2.15,5.55,0,10.85-2.4,14.52-6.6,3.66-4.17,5.34-9.73,4.61-15.25l-2.8-21.24,14.35-15.75c4.71-5.17,6.26-12.51,4.04-19.14-2.22-6.63-7.87-11.55-14.74-12.84l-19.5-3.65-9.02-17.91C75.43,4.07,68.83,0,61.5,0h0Z"/>
</svg>