<?xml version="1.0" encoding="UTF-8"?>
<svg id="Layer_1" xmlns="http://www.w3.org/2000/svg" version="1.1" viewBox="0 0 123 123">
  <!-- Generator: Adobe Illustrator 30.1.0, SVG Export Plug-In . SVG Version: 2.1.1 Build 136)  -->
  <path d="M61.5,23.75c1.23,0,2.45.64,3.1,1.91l7.9,15.68c1.36,2.69,3.88,4.59,6.84,5.15l17.08,3.2c2.67.5,3.75,3.75,1.92,5.76l-12.45,13.66c-1.92,2.11-2.81,4.96-2.44,7.79l2.43,18.42c.29,2.2-1.46,3.94-3.44,3.94-.52,0-1.06-.12-1.58-.39l-14.94-7.7c-1.39-.71-2.9-1.07-4.41-1.07s-3.03.36-4.41,1.07l-14.94,7.7c-.52.27-1.06.39-1.58.39-1.98,0-3.73-1.74-3.44-3.94l2.43-18.42c.37-2.83-.52-5.67-2.44-7.78l-12.45-13.66c-1.83-2.01-.75-5.26,1.92-5.76l17.08-3.2c2.95-.55,5.48-2.46,6.83-5.14l7.9-15.68c.64-1.27,1.87-1.91,3.1-1.91M61.5,0h0c-10.34,0-19.65,5.74-24.31,14.98l-4.76,9.45-10.22,1.92c-9.69,1.82-17.66,8.76-20.8,18.11-3.13,9.36-.95,19.7,5.69,27l8.04,8.82-1.57,11.93c-1.03,7.78,1.35,15.62,6.51,21.51,5.18,5.91,12.64,9.29,20.48,9.29,4.31,0,8.62-1.05,12.46-3.03l8.48-4.37,8.48,4.37c3.85,1.98,8.15,3.03,12.46,3.03,7.84,0,15.3-3.39,20.48-9.29,5.16-5.89,7.54-13.73,6.51-21.51l-1.57-11.93,8.04-8.82c6.65-7.29,8.83-17.64,5.69-26.99-3.13-9.35-11.1-16.29-20.8-18.11l-10.22-1.92-4.76-9.45C81.16,5.74,71.84,0,61.5,0h0Z"/>
</svg>