<?xml version="1.0" encoding="UTF-8"?>
<svg id="Layer_1" xmlns="http://www.w3.org/2000/svg" version="1.1" viewBox="0 0 123 123">
  <!-- Generator: Adobe Illustrator 30.1.0, SVG Export Plug-In . SVG Version: 2.1.1 Build 136)  -->
  <path d="M61.5,8.53c1.72,0,3.44.89,4.34,2.68l11.08,22c1.9,3.77,5.45,6.44,9.6,7.22l23.97,4.49c3.75.7,5.27,5.26,2.7,8.08l-17.47,19.17c-2.69,2.96-3.95,6.96-3.42,10.93l3.41,25.84c.41,3.08-2.05,5.52-4.82,5.52-.74,0-1.49-.17-2.22-.55l-20.97-10.8c-1.94-1-4.07-1.5-6.19-1.5-2.13,0-4.25.5-6.19,1.5l-20.97,10.8c-.73.38-1.49.55-2.22.55-2.77,0-5.23-2.44-4.82-5.52l3.41-25.85c.52-3.97-.73-7.96-3.42-10.91l-17.47-19.17c-2.57-2.82-1.05-7.38,2.7-8.09l23.97-4.49c4.14-.78,7.69-3.45,9.59-7.22l11.08-22c.9-1.79,2.62-2.68,4.34-2.68M61.5,0C56.41,0,51.82,2.83,49.53,7.37l-11.08,22c-.7,1.39-2.02,2.39-3.54,2.67l-23.97,4.49c-4.77.89-8.69,4.31-10.24,8.92-1.54,4.61-.47,9.71,2.8,13.3l17.47,19.17c1,1.1,1.46,2.57,1.27,4.05l-3.41,25.85c-.51,3.83.66,7.69,3.2,10.58,2.56,2.92,6.23,4.59,10.09,4.59,2.11,0,4.23-.52,6.13-1.5l20.97-10.8c.7-.36,1.5-.55,2.29-.55.79,0,1.58.19,2.29.55l20.97,10.8c1.9.98,4.02,1.5,6.13,1.5,3.85,0,7.53-1.67,10.09-4.59,2.54-2.89,3.7-6.75,3.2-10.58l-3.41-25.84c-.2-1.48.27-2.96,1.27-4.06l17.47-19.17c3.27-3.59,4.35-8.69,2.8-13.3-1.54-4.61-5.47-8.02-10.24-8.92l-23.97-4.49c-1.52-.29-2.85-1.28-3.55-2.67l-11.08-22C71.17,2.83,66.59,0,61.5,0h0Z"/>
</svg>