<?xml version="1.0" encoding="UTF-8"?>
<svg id="Layer_1" xmlns="http://www.w3.org/2000/svg" version="1.1" viewBox="0 0 123 123">
  <!-- Generator: Adobe Illustrator 30.1.0, SVG Export Plug-In . SVG Version: 2.1.1 Build 136)  -->
  <path d="M61.5,10.69c1.65,0,3.3.86,4.17,2.57l10.63,21.1c1.82,3.62,5.23,6.18,9.21,6.93l23,4.31c3.6.67,5.05,5.04,2.59,7.75l-16.76,18.39c-2.59,2.84-3.79,6.67-3.29,10.48l3.27,24.79c.39,2.96-1.97,5.3-4.63,5.3-.71,0-1.43-.16-2.13-.53l-20.12-10.36c-1.86-.96-3.9-1.44-5.94-1.44s-4.08.48-5.94,1.44l-20.12,10.36c-.7.36-1.43.53-2.13.53-2.66,0-5.02-2.34-4.63-5.3l3.27-24.8c.5-3.8-.7-7.64-3.28-10.47l-16.76-18.39c-2.47-2.71-1.01-7.08,2.59-7.76l23-4.31c3.98-.75,7.38-3.31,9.2-6.92l10.63-21.11c.86-1.71,2.52-2.57,4.17-2.57M61.5,0c-5.83,0-11.09,3.24-13.71,8.45l-10.63,21.11c-.32.64-.93,1.1-1.63,1.23l-23,4.31c-5.47,1.02-9.96,4.94-11.73,10.22-1.77,5.28-.54,11.12,3.21,15.24l16.76,18.39c.46.51.68,1.19.59,1.88l-3.27,24.8c-.58,4.39.76,8.81,3.66,12.13,2.93,3.34,7.14,5.25,11.56,5.25,2.42,0,4.85-.59,7.03-1.71l20.12-10.36c.33-.17.68-.25,1.05-.25s.72.09,1.05.25l20.12,10.36c2.17,1.12,4.6,1.71,7.03,1.71,4.42,0,8.63-1.92,11.56-5.25,2.91-3.32,4.24-7.74,3.66-12.13l-3.27-24.79c-.09-.69.12-1.38.59-1.89l16.76-18.39c3.75-4.12,4.98-9.95,3.21-15.23-1.77-5.28-6.26-9.19-11.73-10.22l-23-4.31c-.7-.13-1.31-.59-1.63-1.23l-10.63-21.1c-2.63-5.21-7.88-8.45-13.71-8.45h0Z"/>
</svg>