<?xml version="1.0" encoding="UTF-8"?>
<svg id="Layer_1" xmlns="http://www.w3.org/2000/svg" version="1.1" viewBox="0 0 94 94">
  <!-- Generator: Adobe Illustrator 30.1.0, SVG Export Plug-In . SVG Version: 2.1.1 Build 136)  -->
  <path d="M47,14.83c1.05,0,2.09.54,2.64,1.63l6.73,13.36c1.15,2.29,3.31,3.91,5.83,4.39l14.56,2.73c2.28.43,3.2,3.19,1.64,4.91l-10.61,11.64c-1.64,1.8-2.4,4.22-2.08,6.64l2.07,15.69c.25,1.87-1.25,3.36-2.93,3.36-.45,0-.91-.1-1.35-.33l-12.73-6.56c-1.18-.61-2.47-.91-3.76-.91-1.29,0-2.58.3-3.76.91l-12.73,6.56c-.44.23-.9.33-1.35.33-1.68,0-3.18-1.48-2.93-3.36l2.07-15.7c.32-2.41-.44-4.83-2.08-6.63l-10.61-11.64c-1.56-1.71-.64-4.48,1.64-4.91l14.56-2.73c2.52-.47,4.67-2.09,5.82-4.38l6.73-13.36c.55-1.08,1.59-1.63,2.64-1.63M47,0h0c-6.76,0-12.84,3.75-15.88,9.79l-5.26,10.44-11.34,2.12c-6.34,1.19-11.54,5.72-13.59,11.84-2.05,6.12-.62,12.88,3.72,17.65l8.54,9.37-1.67,12.66c-.67,5.08.88,10.21,4.25,14.05,3.39,3.86,8.26,6.08,13.38,6.08,2.81,0,5.63-.68,8.14-1.98l9.7-5,9.7,5c2.51,1.29,5.33,1.98,8.14,1.98,5.12,0,10-2.21,13.38-6.08,3.37-3.85,4.92-8.97,4.25-14.05l-1.67-12.66,8.54-9.38c4.34-4.77,5.77-11.53,3.72-17.64-2.05-6.11-7.26-10.65-13.59-11.84l-11.34-2.13-5.26-10.44C59.84,3.75,53.76,0,47,0h0Z"/>
</svg>