<?xml version="1.0" encoding="UTF-8"?>
<svg id="Layer_1" xmlns="http://www.w3.org/2000/svg" version="1.1" viewBox="0 0 94 94">
  <!-- Generator: Adobe Illustrator 30.1.0, SVG Export Plug-In . SVG Version: 2.1.1 Build 136)  -->
  <path d="M47,19.8c.88,0,1.77.46,2.23,1.38l5.69,11.3c.98,1.94,2.8,3.31,4.93,3.71l12.31,2.31c1.92.36,2.71,2.7,1.39,4.15l-8.97,9.84c-1.38,1.52-2.03,3.57-1.76,5.61l1.75,13.27c.21,1.58-1.05,2.84-2.48,2.84-.38,0-.77-.09-1.14-.28l-10.77-5.55c-1-.51-2.09-.77-3.18-.77s-2.18.26-3.18.77l-10.77,5.55c-.38.19-.76.28-1.14.28-1.42,0-2.69-1.25-2.48-2.84l1.75-13.28c.27-2.04-.37-4.09-1.76-5.6l-8.97-9.84c-1.32-1.45-.54-3.79,1.39-4.15l12.31-2.31c2.13-.4,3.95-1.77,4.93-3.71l5.69-11.3c.46-.92,1.35-1.38,2.23-1.38M47,0C38.53,0,30.9,4.7,27.09,12.27l-2.83,5.62-6.06,1.14c-7.94,1.49-14.47,7.17-17.04,14.84-2.57,7.66-.78,16.14,4.66,22.11l4.95,5.43-.97,7.37c-.84,6.37,1.1,12.79,5.33,17.62,4.24,4.84,10.35,7.61,16.77,7.61,0,0,0,0,0,0,3.53,0,7.06-.86,10.21-2.48l4.88-2.52,4.88,2.52c3.15,1.62,6.68,2.48,10.21,2.48,6.42,0,12.53-2.77,16.77-7.61,4.23-4.82,6.17-11.24,5.33-17.62l-.97-7.36,4.95-5.44c5.44-5.97,7.23-14.45,4.66-22.11-2.57-7.66-9.09-13.35-17.03-14.84l-6.06-1.14-2.83-5.62C63.1,4.7,55.47,0,47,0h0Z"/>
</svg>