<?xml version="1.0" encoding="UTF-8"?>
<svg id="Layer_1" xmlns="http://www.w3.org/2000/svg" version="1.1" viewBox="0 0 94 94">
  <!-- Generator: Adobe Illustrator 30.1.0, SVG Export Plug-In . SVG Version: 2.1.1 Build 136)  -->
  <path d="M47,6.52c1.32,0,2.63.68,3.32,2.05l8.47,16.81c1.45,2.88,4.16,4.93,7.33,5.52l18.32,3.43c2.86.54,4.03,4.02,2.06,6.18l-13.35,14.65c-2.06,2.26-3.02,5.32-2.62,8.35l2.6,19.75c.31,2.36-1.57,4.22-3.69,4.22-.56,0-1.14-.13-1.7-.42l-16.02-8.25c-1.49-.76-3.11-1.15-4.73-1.15-1.62,0-3.25.38-4.73,1.15l-16.02,8.25c-.56.29-1.14.42-1.7.42-2.12,0-4-1.87-3.69-4.22l2.61-19.76c.4-3.03-.56-6.08-2.61-8.34l-13.35-14.65c-1.97-2.16-.8-5.64,2.06-6.18l18.32-3.43c3.17-.59,5.88-2.63,7.33-5.52l8.47-16.81c.69-1.37,2-2.05,3.32-2.05M47,0C43.11,0,39.61,2.16,37.85,5.63l-8.47,16.81c-.53,1.06-1.55,1.82-2.71,2.04l-18.32,3.43c-3.65.68-6.64,3.3-7.82,6.82-1.18,3.52-.36,7.42,2.14,10.17l13.35,14.65c.76.84,1.12,1.97.97,3.1l-2.61,19.76c-.39,2.93.5,5.88,2.44,8.09,1.95,2.23,4.76,3.51,7.71,3.51,1.61,0,3.23-.4,4.69-1.14l16.02-8.25c.54-.28,1.14-.42,1.75-.42.61,0,1.21.15,1.75.42l16.02,8.25c1.45.75,3.07,1.14,4.69,1.14,2.94,0,5.75-1.28,7.71-3.51,1.94-2.21,2.83-5.16,2.44-8.09l-2.6-19.75c-.15-1.13.2-2.26.97-3.11l13.35-14.65c2.5-2.75,3.32-6.64,2.14-10.16-1.18-3.52-4.18-6.13-7.82-6.81l-18.32-3.43c-1.16-.22-2.18-.98-2.71-2.04l-8.47-16.81C54.39,2.16,50.89,0,47,0h0Z"/>
</svg>