<?xml version="1.0" encoding="UTF-8"?>
<svg id="Layer_1" xmlns="http://www.w3.org/2000/svg" version="1.1" viewBox="0 0 94 94">
  <!-- Generator: Adobe Illustrator 30.1.0, SVG Export Plug-In . SVG Version: 2.1.1 Build 136)  -->
  <path d="M47,18.15c.94,0,1.88.49,2.37,1.46l6.03,11.98c1.04,2.06,2.97,3.51,5.23,3.93l13.06,2.45c2.04.38,2.87,2.86,1.47,4.4l-9.51,10.44c-1.47,1.61-2.15,3.79-1.87,5.95l1.86,14.07c.22,1.68-1.12,3.01-2.63,3.01-.4,0-.81-.09-1.21-.3l-11.42-5.88c-1.06-.55-2.22-.82-3.37-.82-1.16,0-2.31.27-3.37.82l-11.42,5.88c-.4.21-.81.3-1.21.3-1.51,0-2.85-1.33-2.63-3.01l1.86-14.08c.28-2.16-.4-4.34-1.86-5.94l-9.51-10.44c-1.4-1.54-.57-4.02,1.47-4.4l13.05-2.45c2.26-.42,4.19-1.88,5.22-3.93l6.04-11.98c.49-.97,1.43-1.46,2.37-1.46M47,0c-7.9,0-15.02,4.39-18.58,11.45l-3.64,7.22-7.81,1.46c-7.41,1.39-13.5,6.69-15.89,13.84-2.4,7.15-.73,15.06,4.35,20.63l6.14,6.74-1.2,9.12c-.78,5.94,1.03,11.93,4.97,16.43,3.96,4.51,9.66,7.1,15.65,7.1,3.29,0,6.58-.8,9.52-2.31l6.48-3.34,6.48,3.34c2.94,1.51,6.23,2.31,9.52,2.31,5.99,0,11.69-2.59,15.65-7.1,3.95-4.5,5.76-10.49,4.97-16.43l-1.2-9.12,6.14-6.74c5.08-5.57,6.75-13.48,4.35-20.63-2.39-7.15-8.48-12.45-15.89-13.84l-7.81-1.46-3.64-7.22C62.02,4.39,54.9,0,47,0h0Z"/>
</svg>