<?xml version="1.0" encoding="UTF-8"?>
<svg id="Layer_1" xmlns="http://www.w3.org/2000/svg" version="1.1" viewBox="0 0 54 54">
  <!-- Generator: Adobe Illustrator 30.1.0, SVG Export Plug-In . SVG Version: 2.1.1 Build 136)  -->
  <circle id="Outer" cx="27" cy="27" r="25.13" fill="none" stroke="#000" stroke-width="3.75"/>
  <g>
    <g>
      <rect x="25.29" y="36.27" width="3.38" height="3.38"/>
      <path d="M28.42,36.52v2.87h-2.87v-2.87h2.87M28.93,36.02h-3.89v3.89h3.89v-3.89h0Z"/>
    </g>
    <g>
      <path d="M25.3,32.5v-1.34c0-1.43.52-2.79,1.48-3.85l2.85-3.15c.74-.82,1.14-1.87,1.14-2.97,0-1.56-1.28-2.83-2.85-2.83h-1.83c-1.57,0-2.85,1.27-2.85,2.83v.25h-3.41v-.25c0-3.43,2.81-6.21,6.26-6.21h1.83c3.45,0,6.26,2.79,6.26,6.21,0,1.93-.71,3.79-2.01,5.23l-2.85,3.16c-.41.45-.62.99-.62,1.58v1.34h-3.39Z"/>
      <path d="M27.91,15.23c3.31,0,6,2.67,6,5.96,0,1.87-.69,3.67-1.95,5.06l-2.85,3.16c-.44.49-.69,1.09-.69,1.75v1.09h-2.89v-1.09c0-1.36.5-2.66,1.41-3.67l2.85-3.15c.78-.86,1.21-1.98,1.21-3.14,0-1.7-1.39-3.08-3.1-3.08h-1.83c-1.71,0-3.1,1.38-3.1,3.08h-2.9c0-3.29,2.69-5.96,6-5.96h1.83M27.91,14.73h-1.83c-3.59,0-6.51,2.9-6.51,6.47v.51h3.91v-.51c0-1.42,1.16-2.57,2.6-2.57h1.83c1.43,0,2.6,1.15,2.6,2.57,0,1.03-.38,2.03-1.08,2.8l-2.85,3.15c-1,1.1-1.55,2.53-1.55,4.01v1.09s.01.5.01.5h3.88v-.5s.02-1.09.02-1.09c0-.53.19-1.02.56-1.42l2.85-3.16c1.34-1.49,2.08-3.4,2.08-5.4,0-3.57-2.92-6.47-6.51-6.47h0Z"/>
    </g>
  </g>
</svg>