<?xml version="1.0" encoding="UTF-8"?>
<svg id="Layer_1" xmlns="http://www.w3.org/2000/svg" version="1.1" viewBox="0 0 54 54">
  <!-- Generator: Adobe Illustrator 30.1.0, SVG Export Plug-In . SVG Version: 2.1.1 Build 136)  -->
  <circle id="Outer" cx="27" cy="27" r="21.31" fill="none" stroke="#000" stroke-width="11.37"/>
  <g>
    <g>
      <rect x="25.25" y="33.36" width="3.47" height="3.46"/>
      <path d="M27.79,34.29v1.61h-1.61v-1.61h1.61M29.65,32.43h-5.32v5.32h5.32v-5.32h0Z"/>
    </g>
    <g>
      <path d="M25.27,30.28v-1.53c0-1,.36-1.95,1.02-2.69l1.59-1.77c.28-.31.44-.72.44-1.13,0-.44-.36-.8-.81-.8h-1.02c-.45,0-.81.36-.81.8v.93h-3.48v-.93c0-2.35,1.92-4.27,4.29-4.27h1.02c2.37,0,4.29,1.91,4.29,4.27,0,1.28-.47,2.5-1.33,3.46l-1.59,1.77c-.1.11-.15.23-.15.36v1.53h-3.46Z"/>
      <path d="M27.51,19.83c1.85,0,3.36,1.5,3.36,3.34,0,1.05-.39,2.05-1.09,2.83l-1.59,1.77c-.25.27-.38.61-.39.98v.61h-1.62v-.61c0-.76.28-1.49.79-2.06l1.59-1.77c.44-.48.68-1.11.68-1.76,0-.95-.78-1.73-1.74-1.73h-1.02c-.96,0-1.74.77-1.74,1.73h-1.62c0-1.84,1.51-3.34,3.36-3.34h1.02M27.51,17.97h-1.02c-2.88,0-5.22,2.33-5.22,5.19v1.86h4.71l-.38.42c-.82.9-1.27,2.08-1.28,3.3v.63s.02,1.84.02,1.84h5.29l.02-1.84v-.47s1.51-1.67,1.51-1.67c1.01-1.12,1.57-2.57,1.57-4.08,0-2.86-2.34-5.19-5.22-5.19h0ZM26.61,23.3h.78c-.02.14-.09.27-.19.38l-.59.65v-1.03h0Z"/>
    </g>
  </g>
</svg>