<?xml version="1.0" encoding="UTF-8"?>
<svg id="Layer_1" xmlns="http://www.w3.org/2000/svg" version="1.1" viewBox="0 0 54 54">
  <!-- Generator: Adobe Illustrator 30.1.0, SVG Export Plug-In . SVG Version: 2.1.1 Build 136)  -->
  <circle id="Outer" cx="27" cy="27" r="24.65" fill="none" stroke="#000" stroke-width="4.69"/>
  <g>
    <g>
      <rect x="25.29" y="35.92" width="3.38" height="3.38"/>
      <path d="M28.34,36.25v2.71h-2.71v-2.71h2.71M29.01,35.58h-4.06v4.06h4.06v-4.06h0Z"/>
    </g>
    <g>
      <path d="M25.3,32.19v-1.36c0-1.37.5-2.67,1.42-3.69l2.68-2.97c.68-.75,1.05-1.72,1.05-2.72,0-1.41-1.16-2.56-2.58-2.56h-1.72c-1.42,0-2.58,1.15-2.58,2.56v.34h-3.4v-.34c0-3.28,2.69-5.95,5.99-5.95h1.72c3.3,0,5.99,2.67,5.99,5.95,0,1.84-.68,3.61-1.92,4.99l-2.68,2.97c-.37.4-.56.89-.56,1.42v1.36h-3.39Z"/>
      <path d="M27.86,15.84c3.11,0,5.65,2.52,5.65,5.61,0,1.76-.65,3.45-1.83,4.76l-2.68,2.97c-.42.46-.64,1.03-.65,1.65v1.02h-2.72v-1.02c0-1.28.47-2.5,1.33-3.46l2.68-2.97c.73-.81,1.14-1.86,1.14-2.95,0-1.6-1.31-2.9-2.92-2.9h-1.72c-1.61,0-2.92,1.3-2.92,2.9h-2.73c0-3.09,2.53-5.61,5.65-5.61h1.72M27.86,15.17h-1.72c-3.49,0-6.32,2.82-6.32,6.28v.68h4.08v-.68c0-1.23,1.01-2.22,2.24-2.22h1.72c1.24,0,2.24,1,2.24,2.22,0,.92-.34,1.81-.96,2.5l-2.68,2.97c-.97,1.07-1.51,2.46-1.51,3.91v1.03s.01.67.01.67h4.04v-.67s.02-1.02.02-1.02c0-.45.16-.86.47-1.2l2.68-2.97c1.29-1.43,2.01-3.29,2.01-5.21,0-3.47-2.84-6.28-6.32-6.28h0Z"/>
    </g>
  </g>
</svg>