<?xml version="1.0" encoding="UTF-8"?>
<svg id="Layer_1" xmlns="http://www.w3.org/2000/svg" version="1.1" viewBox="0 0 54 54">
  <!-- Generator: Adobe Illustrator 30.1.0, SVG Export Plug-In . SVG Version: 2.1.1 Build 136)  -->
  <circle id="Outer" cx="27" cy="27" r="21.79" fill="none" stroke="#000" stroke-width="10.43"/>
  <g>
    <g>
      <rect x="25.27" y="33.73" width="3.44" height="3.44"/>
      <path d="M27.86,34.57v1.75h-1.75v-1.75h1.75M29.55,32.89h-5.13v5.13h5.13v-5.13h0Z"/>
    </g>
    <g>
      <path d="M25.28,30.52v-1.5c0-1.05.38-2.04,1.07-2.81l1.74-1.92c.33-.37.52-.85.52-1.35,0-.57-.47-1.03-1.05-1.03h-1.12c-.58,0-1.05.46-1.05,1.03v.84h-3.46v-.84c0-2.47,2.02-4.48,4.5-4.48h1.12c2.48,0,4.5,2.01,4.5,4.48,0,1.35-.5,2.64-1.4,3.65l-1.74,1.92c-.13.15-.2.32-.2.5v1.5h-3.44Z"/>
      <path d="M27.56,19.3c2.02,0,3.66,1.63,3.66,3.63,0,1.14-.42,2.23-1.19,3.08l-1.74,1.92c-.27.3-.42.67-.42,1.07v.66h-1.76v-.66c0-.83.3-1.62.86-2.24l1.74-1.92c.48-.53.74-1.21.74-1.91,0-1.04-.85-1.88-1.89-1.88h-1.12c-1.04,0-1.89.84-1.89,1.88h-1.77c0-2,1.64-3.63,3.66-3.63h1.12M27.56,17.61h-1.12c-2.95,0-5.35,2.39-5.35,5.32v1.69h5.14v-1.69c0-.1.09-.19.2-.19h1.12c.11,0,.2.09.2.19,0,.29-.11.57-.3.78l-1.74,1.92c-.84.92-1.3,2.12-1.3,3.36v.68s.02,1.67.02,1.67h5.1l.02-1.67v-.63s1.73-1.91,1.73-1.91c1.05-1.16,1.62-2.66,1.62-4.21,0-2.93-2.4-5.32-5.35-5.32h0Z"/>
    </g>
  </g>
</svg>