<?xml version="1.0" encoding="UTF-8"?>
<svg id="Layer_1" xmlns="http://www.w3.org/2000/svg" version="1.1" viewBox="0 0 54 54">
  <!-- Generator: Adobe Illustrator 30.1.0, SVG Export Plug-In . SVG Version: 2.1.1 Build 136)  -->
  <circle id="Outer" cx="27" cy="27" r="22.74" fill="none" stroke="#000" stroke-width="8.52"/>
  <g>
    <g>
      <rect x="25.28" y="34.47" width="3.4" height="3.4"/>
      <path d="M28.01,35.14v2.05h-2.05v-2.05h2.05M29.36,33.79h-4.75v4.75h4.75v-4.75h0Z"/>
    </g>
    <g>
      <path d="M25.29,31.02v-1.45c0-1.15.42-2.24,1.18-3.08l2.03-2.25c.44-.49.69-1.13.69-1.79,0-.84-.69-1.53-1.54-1.53h-1.31c-.85,0-1.54.69-1.54,1.53v.67h-3.42v-.67c0-2.72,2.23-4.93,4.96-4.93h1.31c2.74,0,4.96,2.21,4.96,4.93,0,1.5-.56,2.95-1.57,4.06l-2.03,2.25c-.21.23-.32.5-.32.8v1.45h-3.41Z"/>
      <path d="M27.65,18.2c2.36,0,4.29,1.91,4.29,4.26,0,1.34-.49,2.62-1.39,3.61l-2.03,2.25c-.32.35-.49.78-.49,1.25v.78h-2.06v-.78c0-.97.36-1.9,1.01-2.62l2.03-2.25c.56-.62.86-1.41.86-2.24,0-1.21-.99-2.2-2.22-2.2h-1.31c-1.22,0-2.22.99-2.22,2.2h-2.07c0-2.35,1.92-4.26,4.29-4.26h1.31M27.65,16.85h-1.31c-3.11,0-5.64,2.52-5.64,5.61v1.35h4.77v-1.35c0-.47.39-.85.87-.85h1.31c.48,0,.87.38.87.85,0,.49-.18.97-.52,1.34l-2.03,2.25c-.88.97-1.36,2.22-1.37,3.52v.79s.02,1.34.02,1.34h4.73v-1.34s.02-.78.02-.78c0-.14.05-.25.14-.36l2.03-2.25c1.12-1.24,1.74-2.85,1.74-4.52,0-3.09-2.53-5.61-5.64-5.61h0Z"/>
    </g>
  </g>
</svg>