<?xml version="1.0" encoding="UTF-8"?>
<svg id="Layer_1" xmlns="http://www.w3.org/2000/svg" version="1.1" viewBox="0 0 54 54">
  <!-- Generator: Adobe Illustrator 30.1.0, SVG Export Plug-In . SVG Version: 2.1.1 Build 136)  -->
  <circle id="Outer" cx="27" cy="27" r="23.7" fill="none" stroke="#000" stroke-width="6.6"/>
  <g>
    <g>
      <rect x="25.29" y="35.2" width="3.39" height="3.38"/>
      <path d="M28.17,35.7v2.37h-2.37v-2.37h2.37M29.18,34.69h-4.4v4.4h4.4v-4.4h0Z"/>
    </g>
    <g>
      <path d="M25.3,31.59v-1.4c0-1.25.46-2.45,1.29-3.38l2.35-2.6c.56-.62.87-1.42.87-2.25,0-1.12-.92-2.04-2.06-2.04h-1.51c-1.13,0-2.06.91-2.06,2.04v.51h-3.41v-.51c0-2.99,2.45-5.43,5.46-5.43h1.51c3.01,0,5.46,2.43,5.46,5.43,0,1.67-.62,3.27-1.74,4.52l-2.35,2.6c-.28.32-.44.7-.44,1.11v1.4h-3.39Z"/>
      <path d="M27.75,17.04c2.73,0,4.96,2.21,4.96,4.92,0,1.54-.57,3.03-1.61,4.18l-2.35,2.61c-.36.4-.57.9-.57,1.45v.9h-2.38v-.9c0-1.12.41-2.2,1.17-3.03l2.35-2.6c.64-.71,1-1.63,1-2.59,0-1.4-1.15-2.54-2.56-2.54h-1.51c-1.41,0-2.56,1.14-2.56,2.54h-2.39c0-2.71,2.22-4.92,4.96-4.92h1.51M27.75,16.02h-1.51c-3.29,0-5.97,2.66-5.97,5.93v1.01h4.42v-1.01c0-.84.69-1.53,1.55-1.53h1.51c.85,0,1.55.69,1.55,1.53,0,.71-.26,1.38-.74,1.91l-2.35,2.6c-.92,1.02-1.43,2.34-1.44,3.71v.91s.02,1,.02,1h4.38v-1s.02-.9.02-.9c0-.29.1-.55.31-.78l2.35-2.61c1.21-1.34,1.87-3.06,1.87-4.85,0-3.27-2.68-5.93-5.97-5.93h0Z"/>
    </g>
  </g>
</svg>