<?xml version="1.0" encoding="UTF-8"?>
<svg id="Layer_1" xmlns="http://www.w3.org/2000/svg" version="1.1" viewBox="0 0 14 14">
  <!-- Generator: Adobe Illustrator 30.1.0, SVG Export Plug-In . SVG Version: 2.1.1 Build 136)  -->
  <path d="M7,2.7c.14,0,.28.07.35.22l.9,1.78c.15.31.44.52.78.59l1.94.36c.3.06.43.43.22.66l-1.42,1.55c-.22.24-.32.56-.28.89l.28,2.1c.03.25-.17.45-.39.45-.06,0-.12-.01-.18-.04l-1.7-.88c-.16-.08-.33-.12-.5-.12s-.34.04-.5.12l-1.7.88c-.06.03-.12.04-.18.04-.22,0-.42-.2-.39-.45l.28-2.1c.04-.32-.06-.65-.28-.89l-1.42-1.55c-.21-.23-.09-.6.22-.66l1.94-.36c.34-.06.62-.28.78-.59l.9-1.78c.07-.14.21-.22.35-.22M7,0C5.82,0,4.76.65,4.23,1.7l-.54,1.08-1.16.22c-1.1.21-2.01,1-2.37,2.06-.36,1.07-.11,2.24.65,3.07l.91,1-.18,1.36c-.12.89.15,1.78.74,2.45.59.67,1.44,1.06,2.33,1.06.49,0,.98-.12,1.42-.34l.97-.5.97.5c.44.23.93.34,1.42.34.89,0,1.74-.39,2.33-1.06.59-.67.86-1.56.74-2.45l-.18-1.36.92-1c.76-.83,1-2.01.65-3.07-.36-1.06-1.26-1.85-2.37-2.06l-1.16-.22-.54-1.08C9.24.65,8.18,0,7,0h0Z"/>
</svg>