<?xml version="1.0" encoding="UTF-8"?>
<svg id="Layer_1" xmlns="http://www.w3.org/2000/svg" version="1.1" viewBox="0 0 14 14">
  <!-- Generator: Adobe Illustrator 30.1.0, SVG Export Plug-In . SVG Version: 2.1.1 Build 136)  -->
  <path d="M7,1.22c.19,0,.38.1.47.29l1.21,2.4c.21.41.6.7,1.05.79l2.62.49c.41.08.58.57.29.88l-1.91,2.09c-.29.32-.43.76-.37,1.19l.37,2.82c.04.34-.22.6-.53.6-.08,0-.16-.02-.24-.06l-2.29-1.18c-.21-.11-.44-.16-.68-.16s-.46.05-.68.16l-2.29,1.18c-.08.04-.16.06-.24.06-.3,0-.57-.27-.53-.6l.37-2.82c.06-.43-.08-.87-.37-1.19l-1.91-2.09c-.28-.31-.11-.81.29-.88l2.62-.49c.45-.08.84-.38,1.05-.79l1.21-2.4c.1-.2.29-.29.47-.29M7,0c-.66,0-1.26.37-1.56.96l-1.21,2.4c-.04.07-.11.13-.19.14l-2.62.49c-.62.12-1.13.56-1.34,1.16-.2.6-.06,1.27.37,1.73l1.91,2.09c.05.06.08.14.07.21l-.37,2.82c-.07.5.09,1,.42,1.38.33.38.81.6,1.32.6.28,0,.55-.07.8-.19l2.29-1.18s.08-.03.12-.03.08,0,.12.03l2.29,1.18c.25.13.52.19.8.19.5,0,.98-.22,1.32-.6.33-.38.48-.88.42-1.38l-.37-2.82c-.01-.08.01-.16.07-.21l1.91-2.09c.43-.47.57-1.13.37-1.73-.2-.6-.71-1.05-1.34-1.16l-2.62-.49c-.08-.01-.15-.07-.19-.14l-1.21-2.4c-.3-.59-.9-.96-1.56-.96h0Z"/>
</svg>