<?xml version="1.0" encoding="UTF-8"?>
<svg id="Layer_1" xmlns="http://www.w3.org/2000/svg" version="1.1" viewBox="0 0 105 105">
  <!-- Generator: Adobe Illustrator 30.1.0, SVG Export Plug-In . SVG Version: 2.1.1 Build 136)  -->
  <circle id="Outer" cx="52.5" cy="52.5" r="46.09" fill="none" stroke="#000" stroke-width="12.83"/>
  <g>
    <g>
      <rect x="49.18" y="68.44" width="6.58" height="6.58"/>
      <path d="M54.78,69.42v4.61h-4.61v-4.61h4.61M56.75,67.45h-8.55v8.55h8.55v-8.55h0Z"/>
    </g>
    <g>
      <path d="M49.19,61.42l-.02-2.72c0-2.44.91-4.77,2.54-6.57l4.57-5.06c1.09-1.2,1.69-2.76,1.69-4.37,0-2.18-1.79-3.96-4-3.96h-2.94c-2.2,0-4,1.78-4,3.96v.98h-6.62v-.98c0-5.82,4.76-10.55,10.62-10.55h2.94c5.86,0,10.62,4.73,10.62,10.55,0,3.24-1.2,6.36-3.38,8.78l-4.57,5.06c-.55.61-.85,1.36-.85,2.16l-.03,2.73h-6.57Z"/>
      <path d="M53.97,33.13c5.31,0,9.64,4.29,9.64,9.57,0,3-1.11,5.88-3.13,8.12l-4.57,5.07c-.71.78-1.1,1.76-1.1,2.81l-.02,1.75h-4.61l-.02-1.75c0-2.19.81-4.27,2.29-5.9l4.57-5.06c1.25-1.39,1.94-3.17,1.94-5.03,0-2.73-2.23-4.95-4.98-4.95h-2.94c-2.75,0-4.98,2.22-4.98,4.95h-4.66c0-5.28,4.32-9.57,9.64-9.57h2.94M53.97,31.16h-2.94c-6.4,0-11.61,5.18-11.61,11.54v1.97h8.59v-1.97c0-1.64,1.35-2.98,3.01-2.98h2.94c1.66,0,3.01,1.34,3.01,2.98,0,1.37-.51,2.69-1.43,3.71l-4.57,5.06c-1.79,1.98-2.78,4.54-2.79,7.21l.02,1.77.02,1.95h8.52l.02-1.95.02-1.75c0-.57.2-1.08.6-1.51l4.57-5.07c2.34-2.6,3.64-5.95,3.64-9.44,0-6.36-5.21-11.54-11.61-11.54h0Z"/>
    </g>
  </g>
</svg>