<?xml version="1.0" encoding="UTF-8"?>
<svg id="Layer_1" xmlns="http://www.w3.org/2000/svg" version="1.1" viewBox="0 0 105 105">
  <!-- Generator: Adobe Illustrator 30.1.0, SVG Export Plug-In . SVG Version: 2.1.1 Build 136)  -->
  <circle id="Outer" cx="52.5" cy="52.5" r="42.36" fill="none" stroke="#000" stroke-width="20.28"/>
  <g>
    <g>
      <rect x="49.13" y="65.59" width="6.69" height="6.69"/>
      <path d="M54.18,67.23v3.41h-3.41v-3.41h3.41M57.46,63.95h-9.97v9.97h9.97v-9.97h0Z"/>
    </g>
    <g>
      <path d="M49.15,59.34l-.03-2.92c0-2.04.76-3.97,2.11-5.47l3.37-3.74c.65-.72,1.01-1.65,1.01-2.62,0-1.11-.91-2.01-2.04-2.01h-2.17c-1.12,0-2.04.9-2.04,2.01v1.64h-6.72v-1.64c0-4.8,3.93-8.71,8.76-8.71h2.17c4.83,0,8.76,3.91,8.76,8.71,0,2.62-.97,5.14-2.73,7.1l-3.38,3.74c-.26.29-.39.62-.39.98l-.03,2.92h-6.66Z"/>
      <path d="M53.58,37.53c3.92,0,7.12,3.17,7.12,7.07,0,2.22-.82,4.35-2.31,6l-3.38,3.74c-.52.58-.81,1.3-.82,2.08v1.29h-3.42v-1.29c0-1.62.59-3.15,1.68-4.36l3.38-3.74c.92-1.02,1.43-2.34,1.43-3.72,0-2.01-1.65-3.65-3.68-3.65h-2.17c-2.03,0-3.68,1.64-3.68,3.65h-3.44c0-3.9,3.19-7.07,7.12-7.07h2.17M53.58,34.25h-2.17c-5.73,0-10.4,4.64-10.4,10.35v3.28h10v-3.28c0-.2.18-.37.4-.37h2.17c.22,0,.4.17.4.37,0,.56-.21,1.1-.59,1.52l-3.38,3.74c-1.62,1.8-2.52,4.12-2.53,6.54v1.33s.04,3.25.04,3.25h9.91l.03-3.25v-1.23s3.36-3.71,3.36-3.71c2.04-2.25,3.16-5.16,3.16-8.19,0-5.71-4.66-10.35-10.4-10.35h0Z"/>
    </g>
  </g>
</svg>