<?xml version="1.0" encoding="UTF-8"?>
<svg id="Layer_1" xmlns="http://www.w3.org/2000/svg" version="1.1" viewBox="0 0 105 105">
  <!-- Generator: Adobe Illustrator 30.1.0, SVG Export Plug-In . SVG Version: 2.1.1 Build 136)  -->
  <circle id="Outer" cx="52.5" cy="52.5" r="47.94" fill="none" stroke="#000" stroke-width="9.12"/>
  <g>
    <g>
      <rect x="49.18" y="69.84" width="6.57" height="6.57"/>
      <path d="M55.1,70.49v5.26h-5.26v-5.26h5.26M56.41,69.18h-7.89v7.89h7.89v-7.89h0Z"/>
    </g>
    <g>
      <path d="M49.19,62.59l-.02-2.64c0-2.66,1-5.2,2.77-7.17l5.21-5.77c1.32-1.46,2.04-3.34,2.04-5.3,0-2.75-2.25-4.98-5.02-4.98h-3.35c-2.77,0-5.02,2.23-5.02,4.98v.66h-6.62v-.66c0-6.38,5.22-11.56,11.64-11.56h3.35c6.42,0,11.64,5.19,11.64,11.56,0,3.58-1.33,7.03-3.74,9.69l-5.21,5.77c-.71.79-1.09,1.74-1.09,2.77l-.03,2.64h-6.56Z"/>
      <path d="M54.17,30.8c6.06,0,10.98,4.89,10.98,10.91,0,3.42-1.27,6.71-3.57,9.25l-5.21,5.77c-.81.89-1.25,2-1.26,3.2l-.02,1.99h-5.26l-.02-1.99c0-2.49.93-4.87,2.61-6.72l5.21-5.77c1.43-1.58,2.21-3.62,2.21-5.74,0-3.11-2.55-5.64-5.68-5.64h-3.35c-3.13,0-5.68,2.53-5.68,5.64h-5.31c0-6.01,4.93-10.91,10.98-10.91h3.35M54.17,29.49h-3.35c-6.78,0-12.3,5.48-12.3,12.22v1.31h7.93v-1.31c0-2.38,1.96-4.32,4.36-4.32h3.35c2.41,0,4.36,1.94,4.36,4.32,0,1.79-.67,3.52-1.87,4.86l-5.21,5.77c-1.89,2.09-2.93,4.79-2.94,7.6l.02,2.01v1.3h7.87v-1.3s.03-1.99.03-1.99c0-.87.32-1.67.92-2.34l5.21-5.77c2.52-2.79,3.9-6.39,3.9-10.13,0-6.74-5.52-12.22-12.3-12.22h0Z"/>
    </g>
  </g>
</svg>