<?xml version="1.0" encoding="UTF-8"?>
<svg id="Layer_1" xmlns="http://www.w3.org/2000/svg" version="1.1" viewBox="0 0 105 105">
  <!-- Generator: Adobe Illustrator 30.1.0, SVG Export Plug-In . SVG Version: 2.1.1 Build 136)  -->
  <circle id="Outer" cx="52.5" cy="52.5" r="48.86" fill="none" stroke="#000" stroke-width="7.28"/>
  <g>
    <g>
      <rect x="49.18" y="70.53" width="6.57" height="6.57"/>
      <path d="M55.26,71.02v5.59h-5.59v-5.59h5.59M56.25,70.03h-7.56v7.56h7.56v-7.56h0Z"/>
    </g>
    <g>
      <path d="M49.19,63.19l-.02-2.6c0-2.77,1.04-5.42,2.9-7.48l5.54-6.13c1.43-1.59,2.22-3.64,2.22-5.77,0-3.03-2.49-5.5-5.54-5.5h-3.56c-3.06,0-5.54,2.47-5.54,5.5v.49h-6.62v-.49c0-6.66,5.46-12.08,12.16-12.08h3.56c6.71,0,12.16,5.42,12.16,12.08,0,3.76-1.39,7.37-3.92,10.16l-5.54,6.14c-.79.87-1.21,1.93-1.21,3.08l-.03,2.6h-6.56Z"/>
      <path d="M54.28,29.62c6.44,0,11.67,5.2,11.67,11.59,0,3.64-1.35,7.13-3.79,9.83l-5.54,6.14c-.86.95-1.33,2.13-1.34,3.4l-.02,2.11h-5.59l-.02-2.11c0-2.65.99-5.17,2.77-7.15l5.54-6.13c1.52-1.68,2.35-3.84,2.35-6.1,0-3.3-2.71-5.99-6.03-5.99h-3.56c-3.33,0-6.03,2.69-6.03,5.99h-5.64c0-6.39,5.24-11.59,11.67-11.59h3.56M54.28,28.64h-3.56c-6.98,0-12.66,5.64-12.66,12.57v.98h7.61v-.98c0-2.76,2.26-5.01,5.05-5.01h3.56c2.78,0,5.05,2.25,5.05,5.01,0,2.01-.74,3.94-2.1,5.44l-5.54,6.13c-1.94,2.14-3.01,4.91-3.02,7.8l.02,2.13v.98h7.55v-.97s.03-2.11.03-2.11c0-1.02.38-1.97,1.08-2.75l5.54-6.14c2.61-2.89,4.04-6.62,4.04-10.49,0-6.93-5.68-12.57-12.66-12.57h0Z"/>
    </g>
  </g>
</svg>