<?xml version="1.0" encoding="UTF-8"?>
<svg id="Layer_1" xmlns="http://www.w3.org/2000/svg" version="1.1" viewBox="0 0 105 105">
  <!-- Generator: Adobe Illustrator 30.1.0, SVG Export Plug-In . SVG Version: 2.1.1 Build 136)  -->
  <circle id="Outer" cx="52.5" cy="52.5" r="41.44" fill="none" stroke="#000" stroke-width="22.12"/>
  <g>
    <g>
      <rect x="49.11" y="64.87" width="6.74" height="6.74"/>
      <path d="M54.04,66.68v3.13h-3.13v-3.13h3.13M57.65,63.07h-10.35v10.35h10.35v-10.35h0Z"/>
    </g>
    <g>
      <path d="M49.13,58.89l-.03-2.97c0-1.95.72-3.8,2.02-5.23l3.1-3.43c.55-.61.85-1.39.85-2.21,0-.85-.71-1.55-1.57-1.55h-1.99c-.87,0-1.57.7-1.57,1.55v1.8h-6.77v-1.8c0-4.57,3.74-8.3,8.34-8.3h1.99c4.6,0,8.34,3.72,8.34,8.3,0,2.48-.92,4.87-2.59,6.72l-3.1,3.44c-.19.21-.28.44-.28.7l-.03,2.98h-6.7Z"/>
      <path d="M53.5,38.55c3.6,0,6.54,2.91,6.54,6.49,0,2.04-.75,3.99-2.12,5.51l-3.1,3.44c-.48.53-.75,1.19-.75,1.91v1.18h-3.14v-1.18c0-1.48.54-2.9,1.54-4l3.1-3.43c.85-.94,1.32-2.15,1.32-3.41,0-1.85-1.52-3.36-3.38-3.36h-1.99c-1.86,0-3.38,1.51-3.38,3.36h-3.16c0-3.58,2.93-6.49,6.54-6.49h1.99M53.5,34.95h-1.99c-5.59,0-10.15,4.53-10.15,10.1v3.61h9.16l-.74.82c-1.59,1.76-2.47,4.03-2.48,6.41v1.23s.04,3.58.04,3.58h10.28l.04-3.57v-.91s2.93-3.24,2.93-3.24c1.97-2.18,3.05-5,3.05-7.93,0-5.57-4.55-10.1-10.15-10.1h0ZM51.73,45.3h1.51c-.05.27-.17.53-.36.74l-1.14,1.27v-2.01h0Z"/>
    </g>
  </g>
</svg>