<?xml version="1.0" encoding="UTF-8"?>
<svg id="Layer_1" xmlns="http://www.w3.org/2000/svg" version="1.1" viewBox="0 0 105 105">
  <!-- Generator: Adobe Illustrator 30.1.0, SVG Export Plug-In . SVG Version: 2.1.1 Build 136)  -->
  <circle id="Outer" cx="52.5" cy="52.5" r="44.21" fill="none" stroke="#000" stroke-width="16.57"/>
  <g>
    <g>
      <rect x="49.16" y="67.02" width="6.62" height="6.62"/>
      <path d="M54.47,68.33v3.99h-3.99v-3.99h3.99M57.09,65.7h-9.24v9.24h9.24v-9.24h0Z"/>
    </g>
    <g>
      <path d="M49.18,60.33l-.02-2.81c0-2.23.83-4.35,2.32-6l3.95-4.38c.87-.96,1.34-2.19,1.34-3.48,0-1.64-1.34-2.97-3-2.97h-2.54c-1.65,0-3,1.33-3,2.97v1.31h-6.65v-1.31c0-5.29,4.33-9.59,9.65-9.59h2.54c5.32,0,9.65,4.3,9.65,9.59,0,2.92-1.08,5.73-3.04,7.9l-3.96,4.38c-.4.45-.62.98-.62,1.56l-.03,2.82h-6.59Z"/>
      <path d="M53.77,35.38c4.6,0,8.34,3.71,8.34,8.28,0,2.6-.96,5.09-2.71,7.03l-3.96,4.38c-.61.68-.95,1.52-.95,2.43l-.02,1.51h-3.99v-1.51c0-1.89.69-3.7,1.96-5.1l3.95-4.38c1.08-1.2,1.68-2.75,1.68-4.36,0-2.36-1.93-4.28-4.31-4.28h-2.54c-2.38,0-4.31,1.92-4.31,4.28h-4.03c0-4.56,3.74-8.28,8.34-8.28h2.54M53.77,32.76h-2.54c-6.04,0-10.96,4.89-10.96,10.9v2.62h9.28v-2.62c0-.91.76-1.65,1.68-1.65h2.54c.93,0,1.68.74,1.68,1.65,0,.96-.36,1.88-1,2.6l-3.95,4.38c-1.7,1.88-2.65,4.32-2.65,6.85v1.54s.04,2.6.04,2.6h9.19l.03-2.6.02-1.51c0-.27.09-.49.28-.7l3.96-4.38c2.18-2.42,3.38-5.54,3.38-8.78,0-6.01-4.92-10.9-10.96-10.9h0Z"/>
    </g>
  </g>
</svg>