<?xml version="1.0" encoding="UTF-8"?>
<svg id="Layer_1" xmlns="http://www.w3.org/2000/svg" version="1.1" viewBox="0 0 63 63">
  <!-- Generator: Adobe Illustrator 30.1.0, SVG Export Plug-In . SVG Version: 2.1.1 Build 136)  -->
  <path d="M31.5,4.37c.88,0,1.76.46,2.23,1.37l5.68,11.27c.97,1.93,2.79,3.3,4.92,3.7l12.28,2.3c1.92.36,2.7,2.69,1.38,4.14l-8.95,9.82c-1.38,1.51-2.02,3.56-1.75,5.6l1.75,13.24c.21,1.58-1.05,2.83-2.47,2.83-.38,0-.76-.09-1.14-.28l-10.74-5.53c-1-.51-2.08-.77-3.17-.77-1.09,0-2.18.26-3.17.77l-10.74,5.53c-.37.19-.76.28-1.14.28-1.42,0-2.68-1.25-2.47-2.83l1.75-13.24c.27-2.03-.37-4.08-1.75-5.59l-8.95-9.82c-1.32-1.45-.54-3.78,1.38-4.14l12.28-2.3c2.12-.4,3.94-1.76,4.91-3.7l5.68-11.27c.46-.91,1.34-1.37,2.23-1.37M31.5,0c-2.61,0-4.95,1.45-6.13,3.78l-5.68,11.27c-.36.71-1.04,1.22-1.81,1.37l-12.28,2.3c-2.44.46-4.45,2.21-5.24,4.57-.79,2.36-.24,4.97,1.44,6.81l8.95,9.82c.51.56.75,1.32.65,2.07l-1.75,13.24c-.26,1.96.34,3.94,1.64,5.42,1.31,1.49,3.19,2.35,5.17,2.35,1.08,0,2.17-.26,3.14-.77l10.74-5.53c.36-.19.77-.28,1.17-.28.41,0,.81.1,1.17.28l10.74,5.53c.97.5,2.06.77,3.14.77,1.97,0,3.86-.86,5.17-2.35,1.3-1.48,1.9-3.46,1.64-5.42l-1.75-13.24c-.1-.76.14-1.52.65-2.08l8.95-9.82c1.68-1.84,2.23-4.45,1.44-6.81-.79-2.36-2.8-4.11-5.24-4.57l-12.28-2.3c-.78-.15-1.46-.66-1.82-1.37l-5.68-11.27c-1.17-2.33-3.52-3.78-6.13-3.78h0Z"/>
</svg>