<?xml version="1.0" encoding="UTF-8"?>
<svg id="Layer_1" xmlns="http://www.w3.org/2000/svg" version="1.1" viewBox="0 0 63 63">
  <!-- Generator: Adobe Illustrator 30.1.0, SVG Export Plug-In . SVG Version: 2.1.1 Build 136)  -->
  <path d="M31.5,5.47c.85,0,1.69.44,2.13,1.32l5.45,10.81c.93,1.85,2.68,3.17,4.72,3.55l11.78,2.21c1.84.35,2.59,2.58,1.33,3.97l-8.58,9.42c-1.32,1.45-1.94,3.42-1.68,5.37l1.67,12.7c.2,1.51-1.01,2.71-2.37,2.71-.36,0-.73-.08-1.09-.27l-10.3-5.31c-.96-.49-2-.74-3.04-.74-1.04,0-2.09.25-3.04.74l-10.3,5.31c-.36.19-.73.27-1.09.27-1.36,0-2.57-1.2-2.37-2.71l1.68-12.7c.26-1.95-.36-3.91-1.68-5.36l-8.58-9.42c-1.26-1.39-.52-3.63,1.33-3.97l11.78-2.21c2.04-.38,3.78-1.69,4.71-3.55l5.45-10.81c.44-.88,1.29-1.32,2.13-1.32M31.5,0c-2.99,0-5.68,1.66-7.02,4.33l-5.45,10.81c-.16.33-.48.56-.83.63l-11.78,2.21c-2.8.52-5.1,2.53-6.01,5.23-.91,2.71-.28,5.7,1.65,7.8l8.58,9.42c.24.26.35.61.3.96l-1.68,12.7c-.3,2.25.39,4.51,1.88,6.21,1.5,1.71,3.66,2.69,5.92,2.69,1.24,0,2.48-.3,3.6-.88l10.3-5.31c.17-.09.35-.13.54-.13.19,0,.37.05.54.13l10.3,5.31c1.11.57,2.36.88,3.6.88,2.26,0,4.42-.98,5.92-2.69,1.49-1.7,2.17-3.96,1.88-6.21l-1.67-12.7c-.05-.35.06-.71.3-.97l8.58-9.42c1.92-2.11,2.55-5.1,1.65-7.8-.91-2.7-3.21-4.71-6.01-5.23l-11.78-2.21c-.36-.07-.67-.3-.84-.63l-5.45-10.81c-1.34-2.67-4.04-4.33-7.02-4.33h0Z"/>
</svg>