<?xml version="1.0" encoding="UTF-8"?>
<svg id="Layer_1" xmlns="http://www.w3.org/2000/svg" version="1.1" viewBox="0 0 123 123">
  <!-- Generator: Adobe Illustrator 30.1.0, SVG Export Plug-In . SVG Version: 2.1.1 Build 136)  -->
  <g>
    <g>
      <rect x="57.04" y="35.07" width="8.92" height="8.92"/>
      <path d="M64.42,36.6v5.85h-5.85v-5.85h5.85M67.5,33.53h-12v12h12v-12h0Z"/>
    </g>
    <g>
      <polygon points="51.19 87.05 51.19 78.13 57.04 78.13 57.04 62.94 51.19 62.94 51.19 54.02 65.96 54.02 65.96 78.13 71.81 78.13 71.81 87.05 51.19 87.05"/>
      <path d="M64.42,55.55v24.11h5.85v5.85h-17.55v-5.85h5.85v-18.26h-5.85v-5.85h11.7M67.5,52.48h-17.85v12h5.85v12.11h-5.85v12h23.7v-12h-5.85v-24.11h0Z"/>
    </g>
  </g>
  <circle id="Outer" cx="61.5" cy="61.5" r="51.79" fill="none" stroke="#000" stroke-width="19.41"/>
</svg>