<?xml version="1.0" encoding="UTF-8"?>
<svg id="Layer_1" xmlns="http://www.w3.org/2000/svg" version="1.1" viewBox="0 0 124 124">
  <!-- Generator: Adobe Illustrator 30.1.0, SVG Export Plug-In . SVG Version: 2.1.1 Build 136)  -->
  <path d="M62,26.12c1.17,0,2.33.61,2.94,1.82l7.51,14.9c1.29,2.56,3.69,4.37,6.5,4.89l16.24,3.04c2.54.48,3.57,3.56,1.83,5.47l-11.83,12.98c-1.83,2-2.67,4.71-2.32,7.4l2.31,17.51c.28,2.09-1.39,3.74-3.27,3.74-.5,0-1.01-.12-1.51-.37l-14.21-7.32c-1.32-.68-2.76-1.02-4.2-1.02-1.44,0-2.88.34-4.2,1.02l-14.21,7.32c-.5.26-1.01.37-1.51.37-1.88,0-3.54-1.65-3.27-3.74l2.31-17.51c.35-2.69-.49-5.39-2.32-7.39l-11.83-12.99c-1.74-1.91-.71-5,1.83-5.48l16.24-3.04c2.81-.53,5.21-2.33,6.5-4.89l7.51-14.9c.61-1.21,1.78-1.82,2.94-1.82M62,0C50.82,0,40.76,6.2,35.73,16.18l-3.74,7.42-7.99,1.5c-10.48,1.96-19.09,9.46-22.47,19.57-3.39,10.11-1.03,21.29,6.15,29.17l6.53,7.17-1.28,9.72c-1.11,8.4,1.46,16.87,7.04,23.24,5.59,6.38,13.66,10.04,22.12,10.04,4.65,0,9.31-1.13,13.46-3.27l6.44-3.32,6.44,3.32c4.15,2.14,8.81,3.27,13.46,3.27,8.47,0,16.53-3.66,22.12-10.04,5.58-6.36,8.14-14.83,7.04-23.24l-1.28-9.72,6.54-7.17c7.18-7.88,9.54-19.06,6.15-29.17-3.39-10.11-12-17.61-22.47-19.57l-8-1.5-3.74-7.42C83.24,6.2,73.17,0,62,0h0Z"/>
</svg>