<?xml version="1.0" encoding="UTF-8"?>
<svg id="Layer_1" xmlns="http://www.w3.org/2000/svg" version="1.1" viewBox="0 0 64 64">
  <!-- Generator: Adobe Illustrator 30.1.0, SVG Export Plug-In . SVG Version: 2.1.1 Build 136)  -->
  <path d="M32,13.48c.6,0,1.2.31,1.52.94l3.87,7.69c.66,1.32,1.91,2.25,3.36,2.53l8.38,1.57c1.31.25,1.84,1.84.94,2.83l-6.11,6.7c-.94,1.03-1.38,2.43-1.2,3.82l1.19,9.04c.14,1.08-.72,1.93-1.69,1.93-.26,0-.52-.06-.78-.19l-7.33-3.78c-.68-.35-1.42-.53-2.17-.53s-1.49.18-2.17.53l-7.33,3.78c-.26.13-.52.19-.78.19-.97,0-1.83-.85-1.69-1.93l1.19-9.04c.18-1.39-.25-2.78-1.2-3.82l-6.11-6.7c-.9-.99-.37-2.58.94-2.83l8.38-1.57c1.45-.27,2.69-1.2,3.35-2.52l3.88-7.69c.31-.62.92-.94,1.52-.94M32,0c-5.77,0-10.96,3.2-13.56,8.35l-1.93,3.83-4.13.77c-5.41,1.01-9.85,4.88-11.6,10.1-1.75,5.22-.53,10.99,3.18,15.05l3.37,3.7-.66,5.01c-.57,4.34.75,8.71,3.63,11.99,2.89,3.29,7.05,5.18,11.42,5.18,2.4,0,4.81-.58,6.95-1.69l3.33-1.71,3.33,1.71c2.14,1.1,4.55,1.69,6.95,1.69,4.37,0,8.53-1.89,11.42-5.18,2.88-3.28,4.2-7.66,3.63-11.99l-.66-5.01,3.37-3.7c3.71-4.07,4.92-9.84,3.17-15.05-1.75-5.22-6.19-9.09-11.6-10.1l-4.13-.77-1.93-3.83C42.96,3.2,37.77,0,32,0h0Z"/>
</svg>