<?xml version="1.0" encoding="UTF-8"?>
<svg id="Layer_1" xmlns="http://www.w3.org/2000/svg" version="1.1" viewBox="0 0 64 64">
  <!-- Generator: Adobe Illustrator 30.1.0, SVG Export Plug-In . SVG Version: 2.1.1 Build 136)  -->
  <path d="M32,5.56c.86,0,1.72.45,2.17,1.34l5.53,10.98c.95,1.88,2.72,3.22,4.79,3.61l11.97,2.24c1.87.35,2.63,2.62,1.35,4.03l-8.72,9.57c-1.35,1.48-1.97,3.47-1.71,5.45l1.7,12.9c.2,1.54-1.02,2.76-2.41,2.76-.37,0-.74-.09-1.11-.27l-10.47-5.39c-.97-.5-2.03-.75-3.09-.75-1.06,0-2.12.25-3.09.75l-10.47,5.39c-.37.19-.74.27-1.11.27-1.38,0-2.61-1.22-2.41-2.76l1.7-12.9c.26-1.98-.36-3.97-1.71-5.45l-8.72-9.57c-1.28-1.41-.52-3.69,1.35-4.04l11.97-2.24c2.07-.39,3.84-1.72,4.79-3.6l5.53-10.98c.45-.89,1.31-1.34,2.17-1.34M32,0C28.96,0,26.23,1.68,24.87,4.4l-5.53,10.98c-.17.33-.48.57-.85.64l-11.97,2.24c-2.85.53-5.18,2.57-6.1,5.32-.92,2.75-.28,5.79,1.67,7.93l8.72,9.57c.24.26.35.62.3.98l-1.7,12.9c-.3,2.29.39,4.59,1.91,6.31,1.52,1.74,3.71,2.73,6.01,2.73,1.26,0,2.52-.31,3.66-.89l10.47-5.39c.17-.09.35-.13.55-.13.19,0,.38.05.55.13l10.47,5.39c1.13.58,2.4.89,3.66.89,2.3,0,4.49-1,6.01-2.73,1.51-1.73,2.21-4.03,1.91-6.31l-1.7-12.9c-.05-.36.06-.72.31-.98l8.72-9.57c1.95-2.14,2.59-5.18,1.67-7.93-.92-2.75-3.26-4.78-6.1-5.32l-11.97-2.24c-.36-.07-.68-.31-.85-.64l-5.53-10.98C37.77,1.68,35.03,0,32,0h0Z"/>
</svg>