<?xml version="1.0" encoding="UTF-8"?>
<svg id="Layer_1" xmlns="http://www.w3.org/2000/svg" version="1.1" viewBox="0 0 42 42">
  <!-- Generator: Adobe Illustrator 30.1.0, SVG Export Plug-In . SVG Version: 2.1.1 Build 136)  -->
  <path d="M21,3.65c.56,0,1.13.29,1.42.88l3.63,7.21c.62,1.24,1.79,2.11,3.14,2.37l7.85,1.47c1.23.23,1.73,1.72.88,2.65l-5.72,6.28c-.88.97-1.29,2.28-1.12,3.58l1.12,8.47c.13,1.01-.67,1.81-1.58,1.81-.24,0-.49-.06-.73-.18l-6.87-3.54c-.64-.33-1.33-.49-2.03-.49s-1.39.16-2.03.49l-6.87,3.54c-.24.12-.49.18-.73.18-.91,0-1.71-.8-1.58-1.81l1.12-8.47c.17-1.3-.24-2.61-1.12-3.58l-5.72-6.28c-.84-.93-.34-2.42.88-2.65l7.85-1.47c1.36-.25,2.52-1.13,3.14-2.36l3.63-7.21c.29-.59.86-.88,1.42-.88M21,0c-1.99,0-3.79,1.11-4.68,2.88l-3.63,7.21c-.11.22-.32.38-.56.42l-7.85,1.47c-1.87.35-3.4,1.69-4.01,3.49-.6,1.8-.18,3.8,1.1,5.2l5.72,6.28c.16.17.23.41.2.64l-1.12,8.47c-.2,1.5.26,3.01,1.25,4.14,1,1.14,2.44,1.79,3.95,1.79.83,0,1.66-.2,2.4-.58l6.87-3.54c.11-.06.23-.09.36-.09s.25.03.36.09l6.87,3.54c.74.38,1.57.58,2.4.58,1.51,0,2.95-.65,3.95-1.79.99-1.13,1.45-2.64,1.25-4.14l-1.12-8.47c-.03-.24.04-.47.2-.64l5.72-6.28c1.28-1.41,1.7-3.4,1.1-5.2-.6-1.8-2.14-3.14-4.01-3.49l-7.85-1.47c-.24-.04-.45-.2-.56-.42l-3.63-7.21c-.9-1.78-2.69-2.88-4.68-2.88h0Z"/>
</svg>