<?xml version="1.0" encoding="UTF-8"?>
<svg id="Layer_1" xmlns="http://www.w3.org/2000/svg" version="1.1" viewBox="0 0 42 42">
  <!-- Generator: Adobe Illustrator 30.1.0, SVG Export Plug-In . SVG Version: 2.1.1 Build 136)  -->
  <path d="M21,8.11c.42,0,.84.22,1.06.65l2.7,5.35c.46.92,1.33,1.57,2.34,1.76l5.83,1.09c.91.17,1.28,1.28.66,1.97l-4.25,4.66c-.66.72-.96,1.69-.83,2.66l.83,6.29c.1.75-.5,1.34-1.17,1.34-.18,0-.36-.04-.54-.13l-5.1-2.63c-.47-.24-.99-.37-1.51-.37-.52,0-1.03.12-1.51.37l-5.1,2.63c-.18.09-.36.13-.54.13-.67,0-1.27-.59-1.17-1.34l.83-6.29c.13-.97-.18-1.94-.83-2.66l-4.25-4.66c-.63-.69-.26-1.8.66-1.97l5.83-1.09c1.01-.19,1.87-.84,2.33-1.76l2.7-5.35c.22-.43.64-.65,1.06-.65M21,0c-3.53,0-6.71,1.96-8.3,5.11l-1.63,3.23-3.49.65c-3.31.62-6.03,2.99-7.1,6.18-1.07,3.2-.33,6.73,1.94,9.22l2.74,3.01-.54,4.08c-.35,2.66.46,5.33,2.22,7.34,1.77,2.02,4.32,3.17,6.99,3.17,1.47,0,2.94-.36,4.26-1.03l2.9-1.49,2.9,1.49c1.31.68,2.78,1.03,4.25,1.03,2.68,0,5.22-1.16,6.99-3.17,1.76-2.01,2.57-4.69,2.22-7.34l-.54-4.08,2.75-3.01c2.27-2.49,3.01-6.02,1.94-9.22-1.07-3.19-3.79-5.56-7.1-6.18l-3.49-.65-1.63-3.23c-1.59-3.15-4.77-5.11-8.3-5.11h0Z"/>
</svg>