<?xml version="1.0" encoding="UTF-8"?>
<svg id="Layer_1" xmlns="http://www.w3.org/2000/svg" version="1.1" viewBox="0 0 42 42">
  <!-- Generator: Adobe Illustrator 30.1.0, SVG Export Plug-In . SVG Version: 2.1.1 Build 136)  -->
  <path d="M21,2.91c.59,0,1.18.3,1.48.91l3.78,7.51c.65,1.29,1.86,2.2,3.28,2.47l8.19,1.53c1.28.24,1.8,1.8.92,2.76l-5.96,6.54c-.92,1.01-1.35,2.38-1.17,3.73l1.16,8.82c.14,1.05-.7,1.89-1.65,1.89-.25,0-.51-.06-.76-.19l-7.16-3.69c-.66-.34-1.39-.51-2.11-.51s-1.45.17-2.11.51l-7.16,3.69c-.25.13-.51.19-.76.19-.95,0-1.79-.83-1.65-1.89l1.16-8.83c.18-1.35-.25-2.72-1.17-3.73l-5.96-6.55c-.88-.96-.36-2.52.92-2.76l8.19-1.53c1.42-.27,2.63-1.18,3.27-2.46l3.78-7.51c.31-.61.9-.91,1.48-.91M21,0C19.26,0,17.7.96,16.91,2.52l-3.78,7.51c-.24.47-.69.81-1.21.91l-8.19,1.53c-1.63.31-2.97,1.47-3.5,3.05-.53,1.57-.16,3.31.96,4.54l5.96,6.55c.34.37.5.88.43,1.38l-1.16,8.83c-.17,1.31.23,2.63,1.09,3.61.87,1,2.13,1.57,3.44,1.57.72,0,1.44-.18,2.09-.51l7.16-3.69c.24-.12.51-.19.78-.19s.54.07.78.19l7.16,3.69c.65.33,1.37.51,2.09.51,1.32,0,2.57-.57,3.44-1.57.87-.99,1.26-2.31,1.09-3.61l-1.16-8.82c-.07-.51.09-1.01.43-1.39l5.96-6.54c1.12-1.23,1.48-2.97.96-4.54-.53-1.57-1.87-2.74-3.5-3.04l-8.19-1.53c-.52-.1-.97-.44-1.21-.91l-3.78-7.51C24.3.96,22.74,0,21,0h0Z"/>
</svg>