<?xml version="1.0" encoding="UTF-8"?>
<svg id="Layer_1" xmlns="http://www.w3.org/2000/svg" version="1.1" viewBox="0 0 81 81">
  <!-- Generator: Adobe Illustrator 30.1.0, SVG Export Plug-In . SVG Version: 2.1.1 Build 136)  -->
  <path d="M40.5,9.9c1,0,1.99.52,2.51,1.55l6.4,12.71c1.1,2.18,3.15,3.72,5.54,4.17l13.85,2.6c2.17.41,3.04,3.04,1.56,4.67l-10.09,11.07c-1.56,1.71-2.28,4.02-1.98,6.31l1.97,14.93c.23,1.78-1.18,3.19-2.79,3.19-.42,0-.86-.1-1.28-.32l-12.12-6.24c-1.12-.58-2.35-.87-3.58-.87s-2.46.29-3.58.87l-12.12,6.24c-.42.22-.86.32-1.28.32-1.6,0-3.02-1.41-2.79-3.19l1.97-14.94c.3-2.29-.42-4.6-1.98-6.31l-10.09-11.07c-1.49-1.63-.61-4.27,1.56-4.67l13.85-2.6c2.39-.45,4.44-1.99,5.54-4.17l6.4-12.71c.52-1.03,1.51-1.55,2.51-1.55M40.5,0c-4.83,0-9.18,2.68-11.35,6.99l-5.94,11.8-12.84,2.41c-4.53.85-8.25,4.09-9.71,8.46-1.46,4.37-.45,9.2,2.66,12.61l9.45,10.37-1.85,13.99c-.48,3.63.63,7.29,3.04,10.04,2.42,2.76,5.91,4.34,9.56,4.34,2.01,0,4.02-.49,5.82-1.42l11.16-5.75,11.16,5.75c1.8.93,3.81,1.42,5.82,1.42,3.66,0,7.14-1.58,9.56-4.34,2.41-2.75,3.51-6.41,3.04-10.04l-1.85-13.99,9.45-10.37c3.1-3.41,4.12-8.24,2.66-12.61-1.46-4.37-5.18-7.61-9.71-8.46l-12.84-2.41-5.94-11.8c-2.17-4.31-6.52-6.99-11.35-6.99h0Z"/>
</svg>