<?xml version="1.0" encoding="UTF-8"?>
<svg id="Layer_1" xmlns="http://www.w3.org/2000/svg" version="1.1" viewBox="0 0 81 81">
  <!-- Generator: Adobe Illustrator 30.1.0, SVG Export Plug-In . SVG Version: 2.1.1 Build 136)  -->
  <path d="M40.5,5.62c1.13,0,2.27.59,2.86,1.76l7.3,14.49c1.25,2.49,3.59,4.24,6.32,4.76l15.79,2.96c2.47.46,3.47,3.46,1.78,5.32l-11.5,12.62c-1.77,1.95-2.6,4.58-2.26,7.2l2.24,17.02c.27,2.03-1.35,3.64-3.18,3.64-.48,0-.98-.11-1.46-.36l-13.81-7.11c-1.28-.66-2.68-.99-4.08-.99-1.4,0-2.8.33-4.08.99l-13.81,7.11c-.48.25-.98.36-1.46.36-1.83,0-3.44-1.61-3.18-3.64l2.25-17.02c.34-2.61-.48-5.24-2.25-7.19l-11.5-12.62c-1.69-1.86-.69-4.86,1.78-5.32l15.79-2.96c2.73-.51,5.06-2.27,6.32-4.75l7.3-14.49c.59-1.18,1.73-1.76,2.86-1.76M40.5,0c-3.35,0-6.37,1.86-7.88,4.86l-7.3,14.49c-.46.91-1.33,1.57-2.33,1.76l-15.79,2.96c-3.14.59-5.73,2.84-6.74,5.87-1.02,3.04-.31,6.39,1.85,8.76l11.5,12.62c.66.72.96,1.7.83,2.67l-2.25,17.02c-.33,2.52.43,5.07,2.1,6.97,1.68,1.92,4.11,3.02,6.64,3.02,1.39,0,2.79-.34,4.04-.98l13.81-7.11c.46-.24.98-.37,1.51-.37.52,0,1.04.13,1.51.37l13.81,7.11c1.25.64,2.65.98,4.04.98,2.54,0,4.96-1.1,6.64-3.02,1.67-1.91,2.44-4.45,2.1-6.97l-2.24-17.02c-.13-.98.18-1.95.84-2.68l11.5-12.62c2.16-2.37,2.86-5.72,1.85-8.76-1.02-3.03-3.6-5.28-6.74-5.87l-15.79-2.96c-1-.19-1.88-.85-2.34-1.76l-7.3-14.49c-1.51-3-4.53-4.86-7.88-4.86h0Z"/>
</svg>