<?xml version="1.0" encoding="UTF-8"?>
<svg id="Layer_1" xmlns="http://www.w3.org/2000/svg" version="1.1" viewBox="0 0 81 81">
  <!-- Generator: Adobe Illustrator 30.1.0, SVG Export Plug-In . SVG Version: 2.1.1 Build 136)  -->
  <path d="M40.5,17.06c.76,0,1.52.4,1.92,1.19l4.9,9.73c.84,1.67,2.41,2.85,4.25,3.2l10.61,1.99c1.66.31,2.33,2.33,1.19,3.58l-7.73,8.48c-1.19,1.31-1.75,3.08-1.52,4.84l1.51,11.44c.18,1.36-.91,2.44-2.13,2.44-.33,0-.66-.08-.98-.24l-9.28-4.78c-.86-.44-1.8-.66-2.74-.66-.94,0-1.88.22-2.74.66l-9.28,4.78c-.32.17-.66.24-.98.24-1.23,0-2.31-1.08-2.13-2.44l1.51-11.44c.23-1.75-.32-3.52-1.51-4.83l-7.73-8.48c-1.14-1.25-.47-3.27,1.19-3.58l10.61-1.99c1.83-.34,3.4-1.52,4.24-3.19l4.9-9.74c.4-.79,1.16-1.19,1.92-1.19M40.5,0C33.2,0,26.63,4.05,23.34,10.57l-2.44,4.85-5.22.98c-6.84,1.28-12.47,6.18-14.68,12.78-2.21,6.6-.67,13.91,4.02,19.05l4.27,4.68-.84,6.35c-.72,5.49.95,11.02,4.6,15.18,3.65,4.17,8.92,6.56,14.45,6.56,0,0,0,0,0,0,3.04,0,6.08-.74,8.8-2.14l4.21-2.17,4.21,2.17c2.71,1.4,5.75,2.14,8.8,2.14,5.53,0,10.8-2.39,14.45-6.56,3.64-4.16,5.32-9.69,4.6-15.18l-.84-6.35,4.27-4.69c4.69-5.15,6.23-12.45,4.02-19.05-2.21-6.6-7.84-11.5-14.68-12.78l-5.22-.98-2.44-4.85C54.37,4.05,47.8,0,40.5,0h0Z"/>
</svg>