<?xml version="1.0" encoding="UTF-8"?>
<svg id="Layer_1" xmlns="http://www.w3.org/2000/svg" version="1.1" viewBox="0 0 81 81">
  <!-- Generator: Adobe Illustrator 30.1.0, SVG Export Plug-In . SVG Version: 2.1.1 Build 136)  -->
  <path d="M40.5,15.64c.81,0,1.62.42,2.04,1.26l5.2,10.32c.89,1.77,2.56,3.02,4.5,3.39l11.25,2.11c1.76.33,2.47,2.47,1.27,3.79l-8.2,8.99c-1.26,1.39-1.85,3.26-1.61,5.13l1.6,12.13c.19,1.45-.96,2.59-2.26,2.59-.34,0-.7-.08-1.04-.26l-9.84-5.07c-.91-.47-1.91-.7-2.91-.7-1,0-1.99.23-2.91.7l-9.84,5.07c-.34.18-.7.26-1.04.26-1.3,0-2.45-1.15-2.26-2.59l1.6-12.13c.25-1.86-.34-3.74-1.61-5.12l-8.2-9c-1.21-1.33-.49-3.46,1.27-3.79l11.25-2.11c1.94-.36,3.61-1.62,4.5-3.39l5.2-10.32c.42-.84,1.23-1.26,2.04-1.26M40.5,0C33.69,0,27.55,3.78,24.49,9.86l-3.13,6.22-6.73,1.26c-6.38,1.2-11.63,5.77-13.7,11.93-2.06,6.16-.63,12.98,3.75,17.78l5.29,5.81-1.04,7.86c-.68,5.12.89,10.28,4.29,14.16,3.41,3.89,8.32,6.12,13.48,6.12,2.84,0,5.67-.69,8.21-1.99l5.58-2.88,5.58,2.88c2.53,1.3,5.37,1.99,8.21,1.99,5.16,0,10.08-2.23,13.48-6.12,3.4-3.88,4.96-9.04,4.29-14.16l-1.04-7.86,5.29-5.81c4.38-4.8,5.81-11.61,3.75-17.78-2.06-6.16-7.31-10.73-13.7-11.93l-6.73-1.26-3.13-6.22C53.44,3.78,47.31,0,40.5,0h0Z"/>
</svg>