<?xml version="1.0" encoding="UTF-8"?>
<svg id="Layer_1" xmlns="http://www.w3.org/2000/svg" version="1.1" viewBox="0 0 81 81">
  <!-- Generator: Adobe Illustrator 30.1.0, SVG Export Plug-In . SVG Version: 2.1.1 Build 136)  -->
  <path d="M40.5,7.04c1.09,0,2.18.56,2.74,1.69l7,13.9c1.2,2.38,3.44,4.07,6.06,4.56l15.15,2.84c2.37.44,3.33,3.32,1.7,5.1l-11.03,12.11c-1.7,1.87-2.49,4.4-2.16,6.9l2.15,16.33c.26,1.95-1.3,3.49-3.05,3.49-.46,0-.94-.11-1.4-.35l-13.25-6.82c-1.23-.63-2.57-.95-3.91-.95-1.34,0-2.68.32-3.91.95l-13.25,6.82c-.46.24-.94.35-1.4.35-1.75,0-3.3-1.54-3.05-3.49l2.15-16.33c.33-2.51-.46-5.03-2.16-6.9l-11.04-12.11c-1.63-1.78-.66-4.66,1.71-5.11l15.14-2.84c2.62-.49,4.86-2.18,6.06-4.56l7-13.9c.57-1.13,1.66-1.69,2.74-1.69M40.5,0c-3.84,0-7.3,2.13-9.03,5.56l-7,13.9c-.21.42-.61.72-1.07.81l-15.14,2.84c-3.6.67-6.56,3.25-7.73,6.73-1.17,3.48-.35,7.32,2.12,10.03l11.04,12.11c.3.33.45.78.39,1.24l-2.15,16.33c-.38,2.89.5,5.8,2.41,7.99,1.93,2.2,4.7,3.46,7.61,3.46,1.59,0,3.19-.39,4.63-1.13l13.25-6.82c.22-.11.45-.17.69-.17.24,0,.48.06.69.17l13.25,6.82c1.43.74,3.03,1.13,4.63,1.13,2.91,0,5.68-1.26,7.61-3.46,1.91-2.18,2.79-5.1,2.41-7.99l-2.15-16.33c-.06-.45.08-.91.39-1.24l11.04-12.11c2.47-2.71,3.28-6.55,2.12-10.03-1.16-3.48-4.12-6.05-7.72-6.73l-15.15-2.84c-.46-.09-.86-.39-1.07-.81l-7-13.9c-1.73-3.43-5.19-5.56-9.03-5.56h0Z"/>
</svg>