<?xml version="1.0" encoding="UTF-8"?>
<svg id="Layer_1" xmlns="http://www.w3.org/2000/svg" version="1.1" viewBox="0 0 12 12">
  <!-- Generator: Adobe Illustrator 30.1.0, SVG Export Plug-In . SVG Version: 2.1.1 Build 136)  -->
  <circle id="Outer" cx="6" cy="6" r="4.84" fill="none" stroke="#000" stroke-width="2.32"/>
  <g>
    <g>
      <rect x="5.61" y="7.5" width=".76" height=".76"/>
      <path d="M6.19,7.68v.39h-.39v-.39h.39M6.57,7.31h-1.14v1.14h1.14v-1.14h0Z"/>
    </g>
    <g>
      <path d="M5.62,6.78v-.33c0-.23.08-.46.24-.63l.39-.43c.07-.08.12-.19.12-.3,0-.13-.1-.23-.23-.23h-.25c-.13,0-.23.1-.23.23v.19h-.77v-.19c0-.55.45-1,1-1h.25c.55,0,1,.45,1,1,0,.3-.11.59-.31.81l-.39.43s-.04.07-.04.11v.33h-.76Z"/>
      <path d="M6.12,4.29c.45,0,.81.36.81.81,0,.25-.09.5-.26.69l-.39.43c-.06.07-.09.15-.09.24v.15h-.39v-.15c0-.18.07-.36.19-.5l.39-.43c.11-.12.16-.27.16-.42,0-.23-.19-.42-.42-.42h-.25c-.23,0-.42.19-.42.42h-.39c0-.45.36-.81.81-.81h.25M6.12,3.91h-.25c-.66,0-1.19.53-1.19,1.18v.38h1.14v-.38s.02-.04.05-.04h.25s.05.02.05.04c0,.06-.02.13-.07.17l-.39.43c-.19.21-.29.47-.29.75v.15s0,.37,0,.37h1.13v-.37s0-.15,0-.15l.38-.42c.23-.26.36-.59.36-.94,0-.65-.53-1.18-1.19-1.18h0Z"/>
    </g>
  </g>
</svg>