<?xml version="1.0" encoding="UTF-8"?>
<svg id="Layer_1" xmlns="http://www.w3.org/2000/svg" version="1.1" viewBox="0 0 12 12">
  <!-- Generator: Adobe Illustrator 30.1.0, SVG Export Plug-In . SVG Version: 2.1.1 Build 136)  -->
  <circle id="Outer" cx="6" cy="6" r="5.05" fill="none" stroke="#000" stroke-width="1.89"/>
  <g>
    <g>
      <rect x="5.62" y="7.66" width=".76" height=".76"/>
      <path d="M6.22,7.81v.46h-.46v-.46h.46M6.52,7.51h-1.06v1.06h1.06v-1.06h0Z"/>
    </g>
    <g>
      <path d="M5.62,6.89v-.32c0-.25.09-.5.26-.69l.45-.5c.1-.11.15-.25.15-.4,0-.19-.15-.34-.34-.34h-.29c-.19,0-.34.15-.34.34v.15h-.76v-.15c0-.6.49-1.1,1.1-1.1h.29c.61,0,1.1.49,1.1,1.1,0,.33-.12.65-.35.9l-.45.5c-.05.05-.07.11-.07.18v.32h-.76Z"/>
      <path d="M6.15,4.04c.53,0,.95.42.95.95,0,.3-.11.58-.31.8l-.45.5c-.07.08-.11.17-.11.28v.17h-.46v-.17c0-.22.08-.42.22-.58l.45-.5c.12-.14.19-.31.19-.5,0-.27-.22-.49-.49-.49h-.29c-.27,0-.49.22-.49.49h-.46c0-.52.43-.95.95-.95h.29M6.15,3.74h-.29c-.69,0-1.25.56-1.25,1.25v.3h1.06v-.3c0-.1.09-.19.19-.19h.29c.11,0,.19.08.19.19,0,.11-.04.21-.11.3l-.45.5c-.19.22-.3.49-.3.78v.18s0,.3,0,.3h1.05v-.3s0-.17,0-.17c0-.03.01-.06.03-.08l.45-.5c.25-.28.39-.63.39-1,0-.69-.56-1.25-1.25-1.25h0Z"/>
    </g>
  </g>
</svg>