<?xml version="1.0" encoding="UTF-8"?>
<svg id="Layer_1" xmlns="http://www.w3.org/2000/svg" version="1.1" viewBox="0 0 12 12">
  <!-- Generator: Adobe Illustrator 30.1.0, SVG Export Plug-In . SVG Version: 2.1.1 Build 136)  -->
  <circle id="Outer" cx="6" cy="6" r="5.48" fill="none" stroke="#000" stroke-width="1.04"/>
  <g>
    <g>
      <rect x="5.62" y="7.98" width=".75" height=".75"/>
      <path d="M6.3,8.06v.6h-.6v-.6h.6M6.45,7.91h-.9v.9h.9v-.9h0Z"/>
    </g>
    <g>
      <path d="M5.62,7.15v-.3c0-.3.11-.59.31-.82l.6-.66c.15-.17.23-.38.23-.61,0-.31-.26-.57-.57-.57h-.38c-.32,0-.57.25-.57.57v.08h-.76v-.08c0-.73.6-1.32,1.33-1.32h.38c.73,0,1.33.59,1.33,1.32,0,.41-.15.8-.43,1.11l-.6.66c-.08.09-.12.2-.12.32v.3h-.75Z"/>
      <path d="M6.19,3.52c.69,0,1.26.56,1.26,1.25,0,.39-.14.77-.41,1.06l-.6.66c-.09.1-.14.23-.14.37v.23h-.6v-.23c0-.28.1-.56.3-.77l.6-.66c.16-.18.25-.41.25-.66,0-.36-.29-.64-.65-.64h-.38c-.36,0-.65.29-.65.64h-.61c0-.69.56-1.25,1.26-1.25h.38M6.19,3.37h-.38c-.77,0-1.41.63-1.41,1.4v.15h.91v-.15c0-.27.22-.49.5-.49h.38c.28,0,.5.22.5.49,0,.21-.08.4-.21.56l-.6.66c-.22.24-.34.55-.34.87v.23s0,.15,0,.15h.9v-.15s0-.23,0-.23c0-.1.04-.19.11-.27l.6-.66c.29-.32.45-.73.45-1.16,0-.77-.63-1.4-1.41-1.4h0Z"/>
    </g>
  </g>
</svg>