<?xml version="1.0" encoding="UTF-8"?>
<svg id="Layer_1" xmlns="http://www.w3.org/2000/svg" version="1.1" viewBox="0 0 12 12">
  <!-- Generator: Adobe Illustrator 30.1.0, SVG Export Plug-In . SVG Version: 2.1.1 Build 136)  -->
  <circle id="Outer" cx="6" cy="6" r="5.27" fill="none" stroke="#000" stroke-width="1.47"/>
  <g>
    <g>
      <rect x="5.62" y="7.82" width=".75" height=".75"/>
      <path d="M6.26,7.93v.53h-.53v-.53h.53M6.49,7.71h-.98v.98h.98v-.98h0Z"/>
    </g>
    <g>
      <path d="M5.62,7.02v-.31c0-.28.1-.54.29-.75l.52-.58c.12-.14.19-.31.19-.5,0-.25-.21-.45-.46-.45h-.34c-.25,0-.46.2-.46.45v.11h-.76v-.11c0-.67.54-1.21,1.21-1.21h.34c.67,0,1.21.54,1.21,1.21,0,.37-.14.73-.39,1l-.52.58c-.06.07-.1.16-.1.25v.31h-.75Z"/>
      <path d="M6.17,3.79c.61,0,1.1.49,1.1,1.09,0,.34-.13.67-.36.93l-.52.58c-.08.09-.13.2-.13.32v.2h-.53v-.2c0-.25.09-.49.26-.67l.52-.58c.14-.16.22-.36.22-.58,0-.31-.26-.57-.57-.57h-.34c-.31,0-.57.25-.57.57h-.53c0-.6.49-1.09,1.1-1.09h.34M6.17,3.56h-.34c-.73,0-1.33.59-1.33,1.32v.22h.98v-.22c0-.19.15-.34.34-.34h.34c.19,0,.34.15.34.34,0,.16-.06.31-.16.42l-.52.58c-.2.23-.32.52-.32.82v.2s0,.22,0,.22h.97v-.22s0-.2,0-.2c0-.07.02-.12.07-.17l.52-.58c.27-.3.42-.68.42-1.08,0-.73-.59-1.32-1.33-1.32h0Z"/>
    </g>
  </g>
</svg>