<?xml version="1.0" encoding="UTF-8"?>
<svg id="Layer_1" xmlns="http://www.w3.org/2000/svg" version="1.1" viewBox="0 0 12 12">
  <!-- Generator: Adobe Illustrator 30.1.0, SVG Export Plug-In . SVG Version: 2.1.1 Build 136)  -->
  <circle id="Outer" cx="6" cy="6" r="5.58" fill="none" stroke="#000" stroke-width=".83"/>
  <g>
    <g>
      <polygon points="5.68 8.81 5.62 8.12 6.32 8.06 6.37 8.75 6.37 8.81 5.68 8.81"/>
      <path d="M6.32,8.12v.64h-.64v-.64h.64M6.43,8h-.86v.86h.86v-.86h0Z"/>
    </g>
    <g>
      <path d="M5.68,7.22l-.06-.3c0-.32.12-.62.33-.85l.63-.7c.16-.18.25-.42.25-.66,0-.35-.28-.63-.63-.63h-.41c-.35,0-.63.28-.63.63l-.7.06c-.06-.82.57-1.44,1.33-1.44h.41c.77,0,1.39.62,1.39,1.38,0,.43-.16.84-.45,1.16l-.63.7c-.09.1-.14.22-.14.35v.3h-.7Z"/>
      <path d="M6.2,3.39c.74,0,1.33.59,1.33,1.32,0,.42-.15.81-.43,1.12l-.63.7c-.1.11-.15.24-.15.39v.24h-.64v-.24c0-.3.11-.59.31-.82l.63-.7c.17-.19.27-.44.27-.7,0-.38-.31-.68-.69-.68h-.41c-.38,0-.69.31-.69.68h-.64c0-.73.6-1.32,1.33-1.32h.41M6.2,3.27h-.41c-.8,0-1.45.64-1.45,1.44v.11h.87v-.11c0-.32.26-.57.58-.57h.41c.32,0,.58.26.58.57,0,.23-.09.45-.24.62l-.63.7c-.22.24-.34.56-.35.89v.24s0,.11,0,.11h.86v-.11s0-.24,0-.24c0-.12.04-.23.12-.31l.63-.7c.3-.33.46-.76.46-1.2,0-.79-.65-1.44-1.45-1.44h0Z"/>
    </g>
  </g>
</svg>