<?xml version="1.0" encoding="UTF-8"?>
<svg id="Layer_1" xmlns="http://www.w3.org/2000/svg" version="1.1" viewBox="0 0 12 12">
  <!-- Generator: Adobe Illustrator 30.1.0, SVG Export Plug-In . SVG Version: 2.1.1 Build 136)  -->
  <circle id="Outer" cx="6" cy="6" r="4.74" fill="none" stroke="#000" stroke-width="2.53"/>
  <g>
    <g>
      <rect x="5.61" y="7.41" width=".77" height=".77"/>
      <path d="M6.18,7.62v.36h-.36v-.36h.36M6.59,7.21h-1.18v1.18h1.18v-1.18h0Z"/>
    </g>
    <g>
      <path d="M5.62,6.73v-.34c0-.22.08-.43.23-.6l.35-.39c.06-.07.1-.16.1-.25s-.08-.18-.18-.18h-.23c-.1,0-.18.08-.18.18v.21h-.77v-.21c0-.52.43-.95.95-.95h.23c.53,0,.95.43.95.95,0,.28-.11.56-.3.77l-.35.39-.03.22v.2h-.77Z"/>
      <path d="M6.11,4.41c.41,0,.75.33.75.74,0,.23-.09.46-.24.63l-.35.39c-.05.06-.09.14-.09.22v.14h-.36v-.14c0-.17.06-.33.18-.46l.35-.39c.1-.11.15-.25.15-.39,0-.21-.17-.38-.39-.38h-.23c-.21,0-.39.17-.39.38h-.36c0-.41.34-.74.75-.74h.23M6.11,3.99h-.23c-.64,0-1.16.52-1.16,1.15v.41h1.05l-.08.09c-.18.2-.28.46-.28.73v.14s0,.41,0,.41h1.18v-.41s0-.1,0-.1l.33-.37c.22-.25.35-.57.35-.91,0-.64-.52-1.15-1.16-1.15h0ZM5.91,5.41v-.26l.2.03s-.04.05-.07.08l-.13.14h0Z"/>
    </g>
  </g>
</svg>