<?xml version="1.0" encoding="UTF-8"?>
<svg id="Layer_1" xmlns="http://www.w3.org/2000/svg" version="1.1" viewBox="0 0 79 79">
  <!-- Generator: Adobe Illustrator 30.1.0, SVG Export Plug-In . SVG Version: 2.1.1 Build 136)  -->
  <circle id="Outer" cx="39.5" cy="39.5" r="31.18" fill="none" stroke="#000" stroke-width="16.64"/>
  <g>
    <g>
      <rect x="36.95" y="48.81" width="5.07" height="5.07"/>
      <path d="M40.66,50.17v2.36h-2.36v-2.36h2.36M43.37,47.45h-7.79v7.79h7.79v-7.79h0Z"/>
    </g>
    <g>
      <path d="M36.96,44.3l-.02-2.24c0-1.47.54-2.86,1.52-3.93l2.33-2.58c.41-.46.64-1.05.64-1.66,0-.64-.53-1.17-1.18-1.17h-1.5c-.65,0-1.18.52-1.18,1.17v1.36h-5.09v-1.36c0-3.44,2.82-6.24,6.28-6.24h1.5c3.46,0,6.28,2.8,6.28,6.24,0,1.87-.69,3.66-1.95,5.05l-2.33,2.58c-.14.16-.21.33-.21.53l-.02,2.24h-5.05Z"/>
      <path d="M40.25,29.01c2.71,0,4.92,2.19,4.92,4.88,0,1.53-.57,3-1.6,4.14l-2.33,2.59c-.36.4-.56.9-.56,1.43v.89h-2.36v-.89c0-1.12.41-2.18,1.16-3.01l2.33-2.58c.64-.71.99-1.62.99-2.57,0-1.39-1.14-2.52-2.54-2.52h-1.5c-1.4,0-2.54,1.13-2.54,2.52h-2.38c0-2.69,2.21-4.88,4.92-4.88h1.5M40.25,26.29h-1.5c-4.21,0-7.63,3.41-7.63,7.6v2.72h6.89l-.56.62c-1.2,1.32-1.86,3.04-1.87,4.82v.92s.03,2.69.03,2.69h2.69s2.36,0,2.36,0h2.69l.03-2.69v-.68s2.21-2.44,2.21-2.44c1.48-1.64,2.3-3.76,2.3-5.96,0-4.19-3.42-7.6-7.63-7.6h0ZM38.92,34.08h1.13c-.04.21-.13.4-.27.56l-.86.95v-1.51h0Z"/>
    </g>
  </g>
</svg>