<?xml version="1.0" encoding="UTF-8"?>
<svg id="Layer_1" xmlns="http://www.w3.org/2000/svg" version="1.1" viewBox="0 0 79 79">
  <!-- Generator: Adobe Illustrator 30.1.0, SVG Export Plug-In . SVG Version: 2.1.1 Build 136)  -->
  <circle id="Outer" cx="39.5" cy="39.5" r="31.87" fill="none" stroke="#000" stroke-width="15.26"/>
  <g>
    <g>
      <rect x="36.96" y="49.35" width="5.03" height="5.03"/>
      <path d="M40.76,50.58v2.56h-2.56v-2.56h2.56M43.23,48.11h-7.5v7.5h7.5v-7.5h0Z"/>
    </g>
    <g>
      <path d="M36.98,44.64l-.02-2.19c0-1.53.57-2.99,1.59-4.12l2.54-2.81c.49-.54.76-1.24.76-1.97,0-.83-.69-1.51-1.53-1.51h-1.63c-.85,0-1.53.68-1.53,1.51v1.23h-5.06v-1.23c0-3.61,2.96-6.55,6.59-6.55h1.63c3.63,0,6.59,2.94,6.59,6.55,0,1.97-.73,3.87-2.06,5.34l-2.54,2.81c-.19.21-.29.46-.29.74l-.02,2.2h-5.01Z"/>
      <path d="M40.32,28.24c2.95,0,5.35,2.39,5.35,5.32,0,1.67-.62,3.27-1.74,4.51l-2.54,2.81c-.39.44-.61.98-.61,1.56v.97h-2.57v-.97c0-1.22.44-2.37,1.26-3.28l2.54-2.81c.7-.77,1.08-1.76,1.08-2.8,0-1.52-1.24-2.75-2.77-2.75h-1.63c-1.53,0-2.77,1.23-2.77,2.75h-2.59c0-2.93,2.4-5.32,5.35-5.32h1.63M40.32,25.77h-1.63c-4.31,0-7.82,3.49-7.82,7.79v2.47h7.52v-2.47c0-.15.14-.28.3-.28h1.63c.16,0,.3.13.3.28,0,.42-.16.83-.44,1.14l-2.54,2.81c-1.22,1.35-1.9,3.1-1.91,4.92v1s.03,2.45.03,2.45h7.45l.02-2.44v-.93s2.53-2.79,2.53-2.79c1.53-1.7,2.37-3.89,2.37-6.17,0-4.29-3.51-7.79-7.82-7.79h0Z"/>
    </g>
  </g>
</svg>