<?xml version="1.0" encoding="UTF-8"?>
<svg id="Layer_1" xmlns="http://www.w3.org/2000/svg" version="1.1" viewBox="0 0 79 79">
  <!-- Generator: Adobe Illustrator 30.1.0, SVG Export Plug-In . SVG Version: 2.1.1 Build 136)  -->
  <circle id="Outer" cx="39.5" cy="39.5" r="36.76" fill="none" stroke="#000" stroke-width="5.48"/>
  <g>
    <g>
      <rect x="37" y="53.06" width="4.95" height="4.95"/>
      <path d="M41.58,53.43v4.21h-4.21v-4.21h4.21M42.32,52.69h-5.69v5.69h5.69v-5.69h0Z"/>
    </g>
    <g>
      <path d="M37.01,47.54l-.02-1.96c0-2.09.78-4.08,2.18-5.63l4.17-4.61c1.08-1.19,1.67-2.74,1.67-4.34,0-2.28-1.87-4.14-4.17-4.14h-2.68c-2.3,0-4.17,1.86-4.17,4.14v.37h-4.98v-.37c0-5.01,4.11-9.09,9.15-9.09h2.68c5.05,0,9.15,4.08,9.15,9.09,0,2.83-1.05,5.54-2.95,7.65l-4.17,4.62c-.59.66-.91,1.46-.91,2.32l-.02,1.96h-4.94Z"/>
      <path d="M40.84,22.29c4.84,0,8.78,3.91,8.78,8.72,0,2.74-1.01,5.36-2.85,7.4l-4.17,4.62c-.65.71-1,1.6-1.01,2.56l-.02,1.59h-4.21v-1.59c0-1.99.73-3.89,2.07-5.38l4.17-4.61c1.14-1.26,1.77-2.89,1.77-4.59,0-2.49-2.04-4.51-4.54-4.51h-2.68c-2.5,0-4.54,2.02-4.54,4.51h-4.24c0-4.81,3.94-8.72,8.78-8.72h2.68M40.84,21.55h-2.68c-5.25,0-9.52,4.24-9.52,9.46v.74h5.72v-.74c0-2.08,1.7-3.77,3.8-3.77h2.68c2.09,0,3.8,1.69,3.8,3.77,0,1.51-.56,2.96-1.58,4.09l-4.17,4.61c-1.46,1.61-2.27,3.7-2.27,5.87v1.6s.02.73.02.73h5.67v-.73s.02-1.59.02-1.59c0-.77.28-1.49.81-2.07l4.17-4.62c1.96-2.17,3.04-4.98,3.04-7.9,0-5.22-4.27-9.46-9.52-9.46h0Z"/>
    </g>
  </g>
</svg>