<?xml version="1.0" encoding="UTF-8"?>
<svg id="Layer_1" xmlns="http://www.w3.org/2000/svg" version="1.1" viewBox="0 0 79 79">
  <!-- Generator: Adobe Illustrator 30.1.0, SVG Export Plug-In . SVG Version: 2.1.1 Build 136)  -->
  <circle id="Outer" cx="39.5" cy="39.5" r="36.07" fill="none" stroke="#000" stroke-width="6.86"/>
  <g>
    <g>
      <rect x="37" y="52.54" width="4.95" height="4.95"/>
      <path d="M41.45,53.04v3.96h-3.96v-3.96h3.96M42.44,52.05h-5.93v5.93h5.93v-5.93h0Z"/>
    </g>
    <g>
      <path d="M37.01,47.09l-.02-1.99c0-2,.75-3.91,2.09-5.39l3.92-4.34c.99-1.1,1.54-2.51,1.54-3.99,0-2.07-1.69-3.75-3.78-3.75h-2.52c-2.08,0-3.78,1.68-3.78,3.75v.49h-4.98v-.49c0-4.8,3.93-8.7,8.76-8.7h2.52c4.83,0,8.76,3.9,8.76,8.7,0,2.7-1,5.29-2.81,7.29l-3.92,4.34c-.53.59-.82,1.31-.82,2.08l-.02,1.99h-4.94Z"/>
      <path d="M40.76,23.17c4.56,0,8.26,3.68,8.26,8.21,0,2.57-.95,5.05-2.68,6.96l-3.92,4.34c-.61.67-.94,1.51-.95,2.41l-.02,1.5h-3.96v-1.5c0-1.88.68-3.66,1.95-5.06l3.92-4.34c1.07-1.19,1.66-2.72,1.66-4.32,0-2.34-1.92-4.24-4.27-4.24h-2.52c-2.36,0-4.27,1.9-4.27,4.24h-3.99c0-4.52,3.71-8.21,8.26-8.21h2.52M40.76,22.19h-2.52c-5.1,0-9.25,4.12-9.25,9.19v.99h5.97v-.99c0-1.79,1.47-3.25,3.28-3.25h2.52c1.81,0,3.28,1.46,3.28,3.25,0,1.35-.5,2.65-1.41,3.66l-3.92,4.34c-1.42,1.57-2.21,3.6-2.21,5.72v1.51s.02.98.02.98h5.91v-.98s.03-1.5.03-1.5c0-.65.24-1.26.69-1.76l3.92-4.34c1.89-2.1,2.94-4.81,2.94-7.62,0-5.07-4.15-9.19-9.25-9.19h0Z"/>
    </g>
  </g>
</svg>