<?xml version="1.0" encoding="UTF-8"?>
<svg id="Layer_1" xmlns="http://www.w3.org/2000/svg" version="1.1" viewBox="0 0 79 79">
  <!-- Generator: Adobe Illustrator 30.1.0, SVG Export Plug-In . SVG Version: 2.1.1 Build 136)  -->
  <circle id="Outer" cx="39.5" cy="39.5" r="33.27" fill="none" stroke="#000" stroke-width="12.47"/>
  <g>
    <g>
      <rect x="36.99" y="50.42" width="4.98" height="4.98"/>
      <path d="M40.98,51.41v3h-3v-3h3M42.96,49.43h-6.95v6.95h6.95v-6.95h0Z"/>
    </g>
    <g>
      <path d="M37,45.39l-.02-2.12c0-1.68.62-3.27,1.74-4.51l2.97-3.29c.65-.72,1.01-1.65,1.01-2.62,0-1.23-1.01-2.23-2.25-2.23h-1.91c-1.24,0-2.25,1-2.25,2.23v.99h-5.01v-.99c0-3.98,3.26-7.22,7.26-7.22h1.91c4,0,7.26,3.24,7.26,7.22,0,2.2-.81,4.31-2.29,5.95l-2.98,3.3c-.3.33-.46.74-.46,1.17l-.02,2.12h-4.96Z"/>
      <path d="M40.46,26.62c3.46,0,6.27,2.79,6.27,6.23,0,1.95-.72,3.83-2.04,5.29l-2.98,3.3c-.46.51-.72,1.14-.72,1.83v1.14h-3.02v-1.14c0-1.42.52-2.78,1.48-3.84l2.98-3.3c.81-.9,1.26-2.07,1.26-3.28,0-1.78-1.45-3.22-3.24-3.22h-1.91c-1.79,0-3.24,1.44-3.24,3.22h-3.03c0-3.43,2.81-6.23,6.27-6.23h1.91M40.46,24.65h-1.91c-4.55,0-8.25,3.68-8.25,8.2v1.98h6.98v-1.98c0-.69.57-1.24,1.27-1.24h1.91c.7,0,1.27.56,1.27,1.24,0,.72-.27,1.41-.75,1.95l-2.98,3.3c-1.28,1.42-1.99,3.25-2,5.16v1.16s.03,1.96.03,1.96h6.92l.02-1.96v-1.14c.01-.2.08-.37.22-.53l2.98-3.3c1.64-1.82,2.55-4.17,2.55-6.61,0-4.52-3.7-8.2-8.25-8.2h0Z"/>
    </g>
  </g>
</svg>