<?xml version="1.0" encoding="UTF-8"?>
<svg id="Layer_1" xmlns="http://www.w3.org/2000/svg" version="1.1" viewBox="0 0 79 79">
  <!-- Generator: Adobe Illustrator 30.1.0, SVG Export Plug-In . SVG Version: 2.1.1 Build 136)  -->
  <circle id="Outer" cx="39.5" cy="39.5" r="34.67" fill="none" stroke="#000" stroke-width="9.65"/>
  <g>
    <g>
      <rect x="37" y="51.49" width="4.95" height="4.95"/>
      <path d="M41.21,52.23v3.47h-3.47v-3.47h3.47M42.69,50.75h-6.43v6.43h6.43v-6.43h0Z"/>
    </g>
    <g>
      <path d="M37.01,46.21l-.02-2.05c0-1.84.69-3.59,1.91-4.94l3.44-3.81c.82-.91,1.27-2.07,1.27-3.29,0-1.64-1.35-2.98-3.01-2.98h-2.21c-1.66,0-3.01,1.34-3.01,2.98v.74h-4.98v-.74c0-4.38,3.58-7.94,7.99-7.94h2.21c4.41,0,7.99,3.56,7.99,7.94,0,2.44-.9,4.79-2.54,6.61l-3.44,3.81c-.42.46-.64,1.02-.64,1.62l-.02,2.05h-4.94Z"/>
      <path d="M40.6,24.92c4,0,7.25,3.23,7.25,7.2,0,2.26-.84,4.43-2.35,6.11l-3.44,3.81c-.53.59-.83,1.32-.83,2.11v1.31h-3.49v-1.31c0-1.65.6-3.21,1.71-4.44l3.44-3.81c.94-1.04,1.46-2.39,1.46-3.79,0-2.05-1.68-3.72-3.75-3.72h-2.21c-2.07,0-3.75,1.67-3.75,3.72h-3.5c0-3.97,3.25-7.2,7.25-7.2h2.21M40.6,23.44h-2.21c-4.81,0-8.73,3.89-8.73,8.68v1.48h6.47v-1.48c0-1.24,1.02-2.24,2.27-2.24h2.21c1.25,0,2.27,1,2.27,2.24,0,1.03-.38,2.02-1.08,2.79l-3.44,3.81c-1.35,1.49-2.09,3.42-2.1,5.43v1.33s.02,1.47.02,1.47h6.41v-1.47s.03-1.31.03-1.31c0-.43.15-.81.45-1.14l3.44-3.81c1.76-1.95,2.74-4.48,2.74-7.1,0-4.79-3.92-8.68-8.73-8.68h0Z"/>
    </g>
  </g>
</svg>