<?xml version="1.0" encoding="UTF-8"?>
<svg id="Layer_1" xmlns="http://www.w3.org/2000/svg" version="1.1" viewBox="0 0 32 32">
  <!-- Generator: Adobe Illustrator 30.1.0, SVG Export Plug-In . SVG Version: 2.1.1 Build 136)  -->
  <path d="M16,3.91c.39,0,.79.2.99.61l2.53,5.02c.43.86,1.24,1.47,2.19,1.65l5.47,1.03c.86.16,1.2,1.2.62,1.84l-3.99,4.37c-.62.68-.9,1.59-.78,2.49l.78,5.9c.09.7-.47,1.26-1.1,1.26-.17,0-.34-.04-.51-.13l-4.79-2.46c-.44-.23-.93-.34-1.41-.34-.49,0-.97.11-1.41.34l-4.79,2.46c-.17.09-.34.13-.51.13-.63,0-1.19-.56-1.1-1.26l.78-5.9c.12-.91-.17-1.82-.78-2.49l-3.99-4.38c-.59-.64-.24-1.69.62-1.85l5.47-1.03c.95-.18,1.76-.79,2.19-1.65l2.53-5.02c.21-.41.6-.61.99-.61M16,0C14.09,0,12.37,1.06,11.52,2.76l-2.35,4.66-5.07.95c-1.79.34-3.26,1.62-3.84,3.34-.58,1.73-.18,3.64,1.05,4.98l3.73,4.1-.73,5.53c-.19,1.44.25,2.88,1.2,3.97.96,1.09,2.33,1.72,3.78,1.72.79,0,1.59-.19,2.3-.56l4.41-2.27,4.41,2.27c.71.37,1.5.56,2.3.56,1.44,0,2.82-.63,3.78-1.72.95-1.09,1.39-2.53,1.2-3.97l-.73-5.53,3.73-4.1c1.23-1.35,1.63-3.25,1.05-4.98-.58-1.73-2.05-3.01-3.84-3.34l-5.07-.95-2.35-4.66C19.62,1.06,17.91,0,16,0h0Z"/>
</svg>