<?xml version="1.0" encoding="UTF-8"?>
<svg id="Layer_1" xmlns="http://www.w3.org/2000/svg" version="1.1" viewBox="0 0 32 32">
  <!-- Generator: Adobe Illustrator 30.1.0, SVG Export Plug-In . SVG Version: 2.1.1 Build 136)  -->
  <path d="M16,6.74c.3,0,.6.16.76.47l1.94,3.85c.33.66.95,1.13,1.68,1.26l4.19.79c.66.12.92.92.47,1.41l-3.05,3.35c-.47.52-.69,1.22-.6,1.91l.6,4.52c.07.54-.36.97-.84.97-.13,0-.26-.03-.39-.1l-3.67-1.89c-.34-.18-.71-.26-1.08-.26s-.74.09-1.08.26l-3.67,1.89c-.13.07-.26.1-.39.1-.48,0-.91-.43-.84-.97l.6-4.52c.09-.69-.13-1.39-.6-1.91l-3.05-3.35c-.45-.49-.18-1.29.47-1.41l4.19-.79c.72-.14,1.34-.6,1.68-1.26l1.94-3.85c.16-.31.46-.47.76-.47M16,0C13.12,0,10.52,1.6,9.22,4.18l-.96,1.91-2.06.39c-2.7.51-4.93,2.44-5.8,5.05-.87,2.61-.27,5.49,1.59,7.53l1.69,1.85-.33,2.51c-.29,2.17.38,4.35,1.82,6,1.44,1.65,3.52,2.59,5.71,2.59,1.2,0,2.4-.29,3.47-.84l1.66-.86,1.66.86c1.07.55,2.27.84,3.47.84,2.19,0,4.27-.94,5.71-2.59,1.44-1.64,2.1-3.83,1.82-6l-.33-2.51,1.69-1.85c1.85-2.03,2.46-4.92,1.59-7.53-.87-2.61-3.1-4.54-5.8-5.05l-2.06-.39-.96-1.91C21.48,1.6,18.88,0,16,0h0Z"/>
</svg>