<?xml version="1.0" encoding="UTF-8"?>
<svg id="Layer_1" xmlns="http://www.w3.org/2000/svg" version="1.1" viewBox="0 0 32 32">
  <!-- Generator: Adobe Illustrator 30.1.0, SVG Export Plug-In . SVG Version: 2.1.1 Build 136)  -->
  <path d="M16,6.18c.32,0,.64.17.81.5l2.05,4.08c.35.7,1.01,1.19,1.78,1.34l4.44.83c.69.13.98.97.5,1.5l-3.24,3.55c-.5.55-.73,1.29-.63,2.03l.63,4.79c.08.57-.38,1.02-.89,1.02-.14,0-.28-.03-.41-.1l-3.89-2c-.36-.19-.75-.28-1.15-.28s-.79.09-1.15.28l-3.89,2c-.14.07-.28.1-.41.1-.51,0-.97-.45-.89-1.02l.63-4.79c.1-.74-.14-1.48-.63-2.02l-3.24-3.55c-.48-.52-.19-1.37.5-1.5l4.44-.83c.77-.14,1.43-.64,1.78-1.34l2.05-4.08c.17-.33.49-.5.81-.5M16,0C13.31,0,10.89,1.49,9.68,3.9l-1.24,2.46-2.66.5c-2.52.47-4.6,2.28-5.41,4.71-.82,2.43-.25,5.13,1.48,7.02l2.09,2.29-.41,3.1c-.27,2.02.35,4.06,1.69,5.59,1.35,1.54,3.29,2.42,5.33,2.42,1.12,0,2.24-.27,3.24-.79l2.21-1.14,2.21,1.14c1,.52,2.12.79,3.24.79,2.04,0,3.98-.88,5.33-2.42,1.34-1.53,1.96-3.57,1.69-5.59l-.41-3.1,2.09-2.3c1.73-1.9,2.3-4.59,1.48-7.02-.82-2.43-2.89-4.24-5.41-4.71l-2.66-.5-1.24-2.46C21.11,1.49,18.69,0,16,0h0Z"/>
</svg>