<?xml version="1.0" encoding="UTF-8"?>
<svg id="Layer_1" xmlns="http://www.w3.org/2000/svg" version="1.1" viewBox="0 0 118 118">
  <!-- Generator: Adobe Illustrator 30.1.0, SVG Export Plug-In . SVG Version: 2.1.1 Build 136)  -->
  <path d="M59,10.25c1.58,0,3.17.82,4,2.47l10.2,20.24c1.75,3.47,5.02,5.93,8.83,6.65l22.06,4.14c3.45.65,4.85,4.84,2.48,7.44l-16.08,17.64c-2.48,2.72-3.63,6.4-3.15,10.06l3.14,23.78c.37,2.84-1.89,5.08-4.44,5.08-.68,0-1.37-.16-2.05-.5l-19.3-9.94c-1.79-.92-3.74-1.38-5.7-1.38-1.96,0-3.91.46-5.7,1.38l-19.3,9.94c-.67.35-1.37.5-2.05.5-2.55,0-4.81-2.25-4.44-5.08l3.14-23.79c.48-3.65-.67-7.33-3.15-10.05l-16.08-17.64c-2.37-2.6-.97-6.79,2.48-7.44l22.06-4.14c3.81-.71,7.08-3.17,8.83-6.64l10.2-20.25c.83-1.64,2.41-2.47,4-2.47M59,0C53.4,0,48.36,3.11,45.85,8.1l-10.2,20.25c-.31.61-.89,1.05-1.56,1.18l-22.06,4.14c-5.25.98-9.56,4.74-11.25,9.8-1.7,5.07-.52,10.67,3.08,14.62l16.08,17.64c.44.49.65,1.14.56,1.8l-3.14,23.79c-.56,4.21.73,8.45,3.52,11.64,2.81,3.2,6.85,5.04,11.09,5.04,2.32,0,4.65-.57,6.74-1.64l19.3-9.94c.31-.16.65-.24,1.01-.24.35,0,.7.08,1.01.24l19.3,9.94c2.09,1.07,4.42,1.64,6.74,1.64,4.24,0,8.28-1.84,11.09-5.04,2.79-3.18,4.07-7.42,3.52-11.64l-3.14-23.79c-.09-.66.12-1.32.57-1.81l16.08-17.64c3.6-3.95,4.78-9.55,3.08-14.62-1.7-5.06-6.01-8.82-11.25-9.8l-22.06-4.14c-.67-.13-1.26-.57-1.57-1.18l-10.2-20.24C69.63,3.11,64.59,0,59,0h0Z"/>
</svg>