<?xml version="1.0" encoding="UTF-8"?>
<svg id="Layer_1" xmlns="http://www.w3.org/2000/svg" version="1.1" viewBox="0 0 118 118">
  <!-- Generator: Adobe Illustrator 30.1.0, SVG Export Plug-In . SVG Version: 2.1.1 Build 136)  -->
  <path d="M59,24.85c1.11,0,2.22.58,2.8,1.73l7.14,14.18c1.23,2.43,3.51,4.15,6.19,4.66l15.45,2.9c2.42.45,3.4,3.39,1.74,5.21l-11.26,12.36c-1.74,1.91-2.55,4.48-2.21,7.04l2.2,16.66c.26,1.99-1.32,3.56-3.11,3.56-.47,0-.96-.11-1.43-.35l-13.52-6.96c-1.25-.65-2.62-.97-3.99-.97s-2.74.32-3.99.97l-13.52,6.96c-.47.24-.96.35-1.43.35-1.79,0-3.37-1.57-3.11-3.56l2.2-16.67c.34-2.56-.47-5.13-2.21-7.04l-11.26-12.36c-1.66-1.82-.68-4.76,1.74-5.21l15.45-2.9c2.67-.5,4.96-2.22,6.18-4.65l7.14-14.18c.58-1.15,1.69-1.73,2.8-1.73M59,0C48.37,0,38.79,5.9,34,15.4l-3.56,7.06-7.61,1.43c-9.97,1.87-18.16,9-21.39,18.62-3.22,9.62-.98,20.26,5.85,27.76l6.22,6.82-1.22,9.25c-1.05,8,1.39,16.06,6.69,22.11,5.32,6.07,13,9.55,21.05,9.55,4.43,0,8.86-1.08,12.81-3.11l6.13-3.16,6.13,3.16c3.95,2.04,8.38,3.11,12.81,3.11,8.06,0,15.73-3.48,21.05-9.55,5.31-6.06,7.75-14.12,6.69-22.11l-1.22-9.25,6.22-6.83c6.83-7.5,9.08-18.13,5.85-27.76-3.22-9.62-11.42-16.75-21.38-18.62l-7.61-1.43-3.56-7.06C79.21,5.9,69.63,0,59,0h0Z"/>
</svg>