<?xml version="1.0" encoding="UTF-8"?>
<svg id="Layer_1" xmlns="http://www.w3.org/2000/svg" version="1.1" viewBox="0 0 21 21">
  <!-- Generator: Adobe Illustrator 30.1.0, SVG Export Plug-In . SVG Version: 2.1.1 Build 136)  -->
  <path d="M10.5,4.06c.21,0,.42.11.53.33l1.35,2.68c.23.46.66.78,1.17.88l2.92.55c.46.09.64.64.33.98l-2.13,2.33c-.33.36-.48.85-.42,1.33l.41,3.14c.05.38-.25.67-.59.67-.09,0-.18-.02-.27-.07l-2.55-1.31c-.24-.12-.5-.18-.75-.18-.26,0-.52.06-.75.18l-2.55,1.31c-.09.05-.18.07-.27.07-.34,0-.64-.3-.59-.67l.41-3.15c.06-.48-.09-.97-.42-1.33l-2.13-2.33c-.31-.34-.13-.9.33-.98l2.92-.55c.5-.09.94-.42,1.17-.88l1.35-2.68c.11-.22.32-.33.53-.33M10.5,0C8.73,0,7.14.98,6.35,2.56l-.81,1.61-1.74.33c-1.66.31-3.02,1.5-3.55,3.09-.54,1.6-.16,3.36.97,4.61l1.37,1.51-.27,2.04c-.18,1.33.23,2.67,1.11,3.67.88,1.01,2.16,1.59,3.5,1.59,0,0,0,0,0,0,.74,0,1.47-.18,2.13-.52l1.45-.75,1.45.75c.66.34,1.39.52,2.13.52,1.34,0,2.61-.58,3.5-1.59.88-1.01,1.29-2.34,1.11-3.67l-.27-2.04,1.37-1.51c1.13-1.25,1.51-3.01.97-4.61-.53-1.6-1.9-2.78-3.55-3.09l-1.75-.33-.81-1.61C13.86.98,12.27,0,10.5,0h0Z"/>
</svg>