<?xml version="1.0" encoding="UTF-8"?>
<svg id="Layer_1" xmlns="http://www.w3.org/2000/svg" version="1.1" viewBox="0 0 21 21">
  <!-- Generator: Adobe Illustrator 30.1.0, SVG Export Plug-In . SVG Version: 2.1.1 Build 136)  -->
  <path d="M10.5,2.57c.26,0,.52.13.65.4l1.66,3.29c.28.57.82.97,1.44,1.08l3.59.67c.56.11.79.79.4,1.21l-2.62,2.87c-.4.44-.59,1.04-.51,1.64l.51,3.87c.06.46-.31.83-.72.83-.11,0-.22-.03-.33-.08l-3.14-1.62c-.29-.15-.61-.22-.93-.22s-.64.07-.93.22l-3.14,1.62c-.11.06-.22.08-.33.08-.42,0-.78-.37-.72-.83l.51-3.87c.08-.59-.11-1.19-.51-1.63l-2.62-2.87c-.39-.42-.16-1.11.4-1.21l3.59-.67c.62-.12,1.15-.52,1.44-1.08l1.66-3.3c.13-.27.39-.4.65-.4M10.5,0C9.25,0,8.12.69,7.56,1.81l-1.54,3.06-3.33.62c-1.17.22-2.14,1.06-2.52,2.19-.38,1.13-.12,2.39.69,3.27l2.45,2.69-.48,3.63c-.12.94.16,1.89.79,2.6.63.72,1.53,1.13,2.48,1.13.52,0,1.04-.13,1.51-.37l2.89-1.49,2.89,1.49c.47.24.99.37,1.51.37.95,0,1.85-.41,2.48-1.13.62-.71.91-1.66.79-2.6l-.48-3.63,2.45-2.69c.8-.88,1.07-2.14.69-3.27-.38-1.13-1.34-1.97-2.52-2.19l-3.33-.62-1.54-3.06C12.88.69,11.75,0,10.5,0h0Z"/>
</svg>