<?xml version="1.0" encoding="UTF-8"?>
<svg id="Layer_1" xmlns="http://www.w3.org/2000/svg" version="1.1" viewBox="0 0 21 21">
  <!-- Generator: Adobe Illustrator 30.1.0, SVG Export Plug-In . SVG Version: 2.1.1 Build 136)  -->
  <path d="M10.5,4.42c.2,0,.4.1.5.31l1.27,2.52c.22.43.63.74,1.1.83l2.75.52c.43.08.6.6.31.93l-2,2.2c-.31.34-.45.8-.39,1.25l.39,2.96c.05.35-.24.63-.55.63-.08,0-.17-.02-.26-.06l-2.41-1.24c-.22-.11-.47-.17-.71-.17s-.49.06-.71.17l-2.41,1.24c-.08.04-.17.06-.26.06-.32,0-.6-.28-.55-.63l.39-2.97c.06-.45-.08-.91-.39-1.25l-2-2.2c-.3-.32-.12-.85.31-.93l2.75-.52c.48-.09.88-.4,1.1-.83l1.27-2.52c.1-.2.3-.31.5-.31M10.5,0C8.61,0,6.9,1.05,6.05,2.74l-.63,1.26-1.35.25c-1.77.33-3.23,1.6-3.81,3.31-.57,1.71-.17,3.61,1.04,4.94l1.11,1.21-.22,1.65c-.19,1.42.25,2.86,1.19,3.94.95,1.08,2.31,1.7,3.75,1.7.79,0,1.58-.19,2.28-.55l1.09-.56,1.09.56c.7.36,1.49.55,2.28.55,1.43,0,2.8-.62,3.75-1.7.94-1.08,1.38-2.51,1.19-3.94l-.22-1.65,1.11-1.21c1.22-1.33,1.62-3.23,1.04-4.94-.57-1.71-2.03-2.98-3.81-3.31l-1.35-.25-.63-1.26C14.1,1.05,12.39,0,10.5,0h0Z"/>
</svg>