<?xml version="1.0" encoding="UTF-8"?>
<svg id="Layer_1" xmlns="http://www.w3.org/2000/svg" version="1.1" viewBox="0 0 52 52">
  <!-- Generator: Adobe Illustrator 30.1.0, SVG Export Plug-In . SVG Version: 2.1.1 Build 136)  -->
  <g>
    <g>
      <rect x="24.18" y="13.17" width="3.64" height="3.63"/>
      <path d="M27.57,13.41v3.15h-3.15v-3.15h3.15M28.06,12.92h-4.12v4.12h4.12v-4.12h0Z"/>
    </g>
    <g>
      <polygon points="21.04 38.83 21.04 35.2 24.18 35.2 24.18 25.86 21.04 25.86 21.04 22.23 27.82 22.23 27.82 35.2 30.97 35.2 30.97 38.83 21.04 38.83"/>
      <path d="M27.57,22.47v12.97h3.15v3.15h-9.44v-3.15h3.15v-9.83h-3.15v-3.15h6.3M28.06,21.98h-7.27v4.12h3.15v8.85h-3.15v4.12h10.42v-4.12h-3.15v-12.97h0Z"/>
    </g>
  </g>
  <circle id="Outer" cx="26" cy="26" r="24.2" fill="none" stroke="#000" stroke-width="3.61"/>
</svg>