<?xml version="1.0" encoding="UTF-8"?>
<svg id="Layer_1" xmlns="http://www.w3.org/2000/svg" version="1.1" viewBox="0 0 52 52">
  <!-- Generator: Adobe Illustrator 30.1.0, SVG Export Plug-In . SVG Version: 2.1.1 Build 136)  -->
  <g>
    <g>
      <rect x="24.17" y="13.49" width="3.66" height="3.66"/>
      <path d="M27.51,13.82v3.01h-3.01v-3.01h3.01M28.16,13.17h-4.31v4.31h4.31v-4.31h0Z"/>
    </g>
    <g>
      <polygon points="21.16 38.43 21.16 34.77 24.17 34.77 24.17 26.01 21.16 26.01 21.16 22.35 27.83 22.35 27.83 34.77 30.84 34.77 30.84 38.43 21.16 38.43"/>
      <path d="M27.51,22.68v12.41h3.01v3.01h-9.04v-3.01h3.01v-9.4h-3.01v-3.01h6.02M28.16,22.03h-7.32v4.31h3.01v8.1h-3.01v4.31h10.34v-4.31h-3.01v-12.41h0Z"/>
    </g>
  </g>
  <circle id="Outer" cx="26" cy="26" r="23.74" fill="none" stroke="#000" stroke-width="4.52"/>
</svg>