<?xml version="1.0" encoding="UTF-8"?>
<svg id="Layer_1" xmlns="http://www.w3.org/2000/svg" version="1.1" viewBox="0 0 52 52">
  <!-- Generator: Adobe Illustrator 30.1.0, SVG Export Plug-In . SVG Version: 2.1.1 Build 136)  -->
  <g>
    <g>
      <rect x="24.06" y="15.81" width="3.87" height="3.87"/>
      <path d="M27.04,16.7v2.08h-2.08v-2.08h2.08M28.83,14.91h-5.66v5.66h5.66v-5.66h0Z"/>
    </g>
    <g>
      <polygon points="21.98 35.63 21.98 31.76 24.06 31.76 24.06 27.03 21.98 27.03 21.98 23.16 27.94 23.16 27.94 31.76 30.02 31.76 30.02 35.63 21.98 35.63"/>
      <path d="M27.04,24.06v8.59h2.08v2.08h-6.25v-2.08h2.08v-6.51h-2.08v-2.08h4.17M28.83,22.27h-7.74v5.66h2.08v2.93h-2.08v5.66h9.83v-5.66h-2.08v-8.59h0Z"/>
    </g>
  </g>
  <circle id="Outer" cx="26" cy="26" r="20.52" fill="none" stroke="#000" stroke-width="10.95"/>
</svg>