<?xml version="1.0" encoding="UTF-8"?>
<svg id="Layer_1" xmlns="http://www.w3.org/2000/svg" version="1.1" viewBox="0 0 78 78">
  <!-- Generator: Adobe Illustrator 30.1.0, SVG Export Plug-In . SVG Version: 2.1.1 Build 136)  -->
  <circle id="Outer" cx="39" cy="39" r="35.61" fill="none" stroke="#000" stroke-width="6.78"/>
  <g>
    <g>
      <rect x="36.54" y="51.88" width="4.88" height="4.88"/>
      <path d="M40.93,52.37v3.91h-3.91v-3.91h3.91M41.9,51.39h-5.86v5.86h5.86v-5.86h0Z"/>
    </g>
    <g>
      <path d="M36.54,46.49l-.02-1.96c0-1.97.74-3.86,2.06-5.33l3.87-4.29c.98-1.08,1.52-2.48,1.52-3.94,0-2.04-1.67-3.7-3.73-3.7h-2.49c-2.06,0-3.73,1.66-3.73,3.7v.49h-4.92v-.49c0-4.74,3.88-8.59,8.65-8.59h2.49c4.77,0,8.65,3.85,8.65,8.59,0,2.66-.99,5.22-2.77,7.2l-3.87,4.29c-.53.58-.81,1.29-.81,2.06l-.02,1.96h-4.87Z"/>
      <path d="M40.24,22.88c4.5,0,8.16,3.64,8.16,8.1,0,2.54-.94,4.98-2.65,6.88l-3.87,4.29c-.6.66-.93,1.49-.93,2.38v1.48h-3.92v-1.48c0-1.85.68-3.62,1.92-4.99l3.87-4.29c1.06-1.17,1.64-2.69,1.64-4.26,0-2.31-1.89-4.19-4.22-4.19h-2.49c-2.33,0-4.22,1.88-4.22,4.19h-3.94c0-4.47,3.66-8.1,8.16-8.1h2.49M40.24,21.91h-2.49c-5.04,0-9.13,4.07-9.13,9.08v.97h5.89v-.97c0-1.77,1.45-3.21,3.24-3.21h2.49c1.79,0,3.24,1.44,3.24,3.21,0,1.33-.49,2.62-1.39,3.61l-3.87,4.29c-1.4,1.55-2.18,3.56-2.19,5.64v1.49s.02.97.02.97h5.84v-.97s.02-1.48.02-1.48c0-.65.24-1.24.68-1.74l3.87-4.29c1.87-2.07,2.9-4.75,2.9-7.53,0-5.01-4.1-9.08-9.13-9.08h0Z"/>
    </g>
  </g>
</svg>