<?xml version="1.0" encoding="UTF-8"?>
<svg id="Layer_1" xmlns="http://www.w3.org/2000/svg" version="1.1" viewBox="0 0 78 78">
  <!-- Generator: Adobe Illustrator 30.1.0, SVG Export Plug-In . SVG Version: 2.1.1 Build 136)  -->
  <circle id="Outer" cx="39" cy="39" r="31.47" fill="none" stroke="#000" stroke-width="15.06"/>
  <g>
    <g>
      <rect x="36.5" y="48.72" width="4.97" height="4.97"/>
      <path d="M40.25,49.94v2.53h-2.53v-2.53h2.53M42.68,47.5h-7.41v7.41h7.41v-7.41h0Z"/>
    </g>
    <g>
      <path d="M36.51,44.08l-.02-2.17c0-1.51.56-2.95,1.57-4.06l2.51-2.78c.48-.54.75-1.23.75-1.94,0-.82-.68-1.49-1.51-1.49h-1.61c-.83,0-1.51.67-1.51,1.49v1.22h-4.99v-1.22c0-3.57,2.92-6.47,6.51-6.47h1.61c3.59,0,6.51,2.9,6.51,6.47,0,1.95-.72,3.82-2.03,5.27l-2.51,2.78c-.19.21-.29.46-.29.73l-.02,2.17h-4.94Z"/>
      <path d="M39.81,27.88c2.92,0,5.29,2.36,5.29,5.25,0,1.65-.61,3.23-1.72,4.45l-2.51,2.78c-.39.43-.6.96-.61,1.54v.96h-2.54v-.96c0-1.2.44-2.34,1.25-3.24l2.51-2.78c.69-.76,1.06-1.74,1.06-2.76,0-1.5-1.23-2.71-2.73-2.71h-1.61c-1.51,0-2.73,1.22-2.73,2.71h-2.55c0-2.89,2.37-5.25,5.29-5.25h1.61M39.81,25.44h-1.61c-4.26,0-7.72,3.45-7.72,7.69v2.44h7.43v-2.44c0-.15.14-.28.29-.28h1.61c.16,0,.29.13.29.28,0,.42-.15.82-.44,1.13l-2.51,2.78c-1.21,1.33-1.88,3.06-1.88,4.86v.99s.03,2.42.03,2.42h7.36l.02-2.41v-.92s2.5-2.75,2.5-2.75c1.51-1.67,2.34-3.84,2.34-6.09,0-4.24-3.46-7.69-7.72-7.69h0Z"/>
    </g>
  </g>
</svg>