<?xml version="1.0" encoding="UTF-8"?>
<svg id="Layer_1" xmlns="http://www.w3.org/2000/svg" version="1.1" viewBox="0 0 78 78">
  <!-- Generator: Adobe Illustrator 30.1.0, SVG Export Plug-In . SVG Version: 2.1.1 Build 136)  -->
  <circle id="Outer" cx="39" cy="39" r="36.29" fill="none" stroke="#000" stroke-width="5.41"/>
  <g>
    <g>
      <rect x="36.53" y="52.39" width="4.88" height="4.88"/>
      <path d="M41.05,52.76v4.15h-4.15v-4.15h4.15M41.78,52.02h-5.61v5.61h5.61v-5.61h0Z"/>
    </g>
    <g>
      <path d="M36.54,46.94l-.02-1.93c0-2.06.77-4.03,2.15-5.56l4.11-4.56c1.07-1.18,1.65-2.7,1.65-4.28,0-2.25-1.85-4.08-4.12-4.08h-2.64c-2.27,0-4.12,1.83-4.12,4.08v.37h-4.92v-.37c0-4.95,4.05-8.98,9.04-8.98h2.64c4.98,0,9.04,4.03,9.04,8.98,0,2.79-1.03,5.47-2.91,7.55l-4.11,4.56c-.59.65-.9,1.44-.9,2.29l-.02,1.93h-4.88Z"/>
      <path d="M40.32,22c4.78,0,8.67,3.86,8.67,8.61,0,2.7-1,5.3-2.82,7.31l-4.11,4.56c-.64.7-.99,1.58-.99,2.53l-.02,1.57h-4.15v-1.57c0-1.97.72-3.84,2.04-5.31l4.11-4.56c1.13-1.25,1.75-2.86,1.75-4.53,0-2.45-2.01-4.45-4.48-4.45h-2.64c-2.47,0-4.48,2-4.48,4.45h-4.19c0-4.75,3.89-8.61,8.67-8.61h2.64M40.32,21.27h-2.64c-5.18,0-9.4,4.19-9.4,9.34v.73h5.65v-.73c0-2.05,1.68-3.72,3.75-3.72h2.64c2.07,0,3.75,1.67,3.75,3.72,0,1.49-.55,2.93-1.56,4.04l-4.11,4.56c-1.44,1.59-2.24,3.65-2.25,5.8v1.58s.02.72.02.72h5.6v-.72s.02-1.57.02-1.57c0-.76.28-1.47.8-2.05l4.11-4.56c1.94-2.15,3-4.91,3-7.8,0-5.15-4.22-9.34-9.4-9.34h0Z"/>
    </g>
  </g>
</svg>