<?xml version="1.0" encoding="UTF-8"?>
<svg id="Layer_1" xmlns="http://www.w3.org/2000/svg" version="1.1" viewBox="0 0 78 78">
  <!-- Generator: Adobe Illustrator 30.1.0, SVG Export Plug-In . SVG Version: 2.1.1 Build 136)  -->
  <circle id="Outer" cx="39" cy="39" r="34.23" fill="none" stroke="#000" stroke-width="9.53"/>
  <g>
    <g>
      <rect x="36.53" y="50.84" width="4.89" height="4.89"/>
      <path d="M40.69,51.57v3.43h-3.43v-3.43h3.43M42.15,50.11h-6.35v6.35h6.35v-6.35h0Z"/>
    </g>
    <g>
      <path d="M36.54,45.63l-.02-2.02c0-1.81.68-3.54,1.89-4.88l3.39-3.76c.81-.9,1.25-2.05,1.25-3.25,0-1.62-1.33-2.94-2.97-2.94h-2.18c-1.64,0-2.97,1.32-2.97,2.94v.73h-4.92v-.73c0-4.32,3.54-7.84,7.89-7.84h2.18c4.35,0,7.89,3.52,7.89,7.84,0,2.41-.89,4.73-2.51,6.52l-3.4,3.76c-.41.45-.63,1.01-.63,1.6l-.02,2.03h-4.88Z"/>
      <path d="M40.09,24.61c3.95,0,7.16,3.19,7.16,7.11,0,2.23-.83,4.37-2.32,6.03l-3.4,3.76c-.53.58-.82,1.3-.82,2.09v1.3h-3.44v-1.3c0-1.62.59-3.17,1.69-4.38l3.4-3.76c.93-1.03,1.44-2.36,1.44-3.74,0-2.03-1.66-3.67-3.7-3.67h-2.18c-2.04,0-3.7,1.65-3.7,3.67h-3.46c0-3.92,3.21-7.11,7.16-7.11h2.18M40.09,23.15h-2.18c-4.75,0-8.62,3.84-8.62,8.57v1.46h6.38v-1.46c0-1.22,1-2.21,2.24-2.21h2.18c1.23,0,2.24.99,2.24,2.21,0,1.02-.38,2-1.06,2.76l-3.4,3.76c-1.33,1.47-2.07,3.37-2.07,5.36v1.31s.02,1.45.02,1.45h6.33v-1.45s.03-1.3.03-1.3c0-.42.15-.8.44-1.12l3.4-3.76c1.74-1.93,2.7-4.42,2.7-7.01,0-4.73-3.87-8.57-8.62-8.57h0Z"/>
    </g>
  </g>
</svg>