<?xml version="1.0" encoding="UTF-8"?>
<svg id="Layer_1" xmlns="http://www.w3.org/2000/svg" version="1.1" viewBox="0 0 78 78">
  <!-- Generator: Adobe Illustrator 30.1.0, SVG Export Plug-In . SVG Version: 2.1.1 Build 136)  -->
  <circle id="Outer" cx="39" cy="39" r="32.85" fill="none" stroke="#000" stroke-width="12.31"/>
  <g>
    <g>
      <rect x="36.52" y="49.78" width="4.92" height="4.92"/>
      <path d="M40.46,50.76v2.97h-2.97v-2.97h2.97M42.41,48.81h-6.87v6.87h6.87v-6.87h0Z"/>
    </g>
    <g>
      <path d="M36.53,44.81l-.02-2.09c0-1.66.62-3.23,1.72-4.45l2.94-3.25c.64-.71,1-1.63,1-2.58,0-1.22-1-2.2-2.23-2.2h-1.89c-1.23,0-2.23.99-2.23,2.2v.98h-4.94v-.98c0-3.93,3.22-7.13,7.17-7.13h1.89c3.95,0,7.17,3.2,7.17,7.13,0,2.17-.8,4.26-2.26,5.87l-2.94,3.26c-.3.33-.46.73-.46,1.16l-.02,2.09h-4.9Z"/>
      <path d="M39.94,26.29c3.42,0,6.19,2.76,6.19,6.15,0,1.93-.71,3.78-2.01,5.22l-2.94,3.26c-.46.5-.71,1.13-.71,1.81v1.12h-2.98v-1.12c0-1.41.51-2.75,1.46-3.79l2.94-3.25c.8-.89,1.25-2.04,1.25-3.24,0-1.75-1.44-3.18-3.2-3.18h-1.89c-1.77,0-3.2,1.43-3.2,3.18h-2.99c0-3.39,2.78-6.15,6.19-6.15h1.89M39.94,24.34h-1.89c-4.49,0-8.14,3.63-8.14,8.1v1.95h6.89v-1.95c0-.68.56-1.23,1.25-1.23h1.89c.69,0,1.25.55,1.25,1.23,0,.71-.26,1.4-.74,1.93l-2.94,3.25c-1.26,1.4-1.96,3.21-1.97,5.09v1.15s.03,1.93.03,1.93h6.83l.02-1.93v-1.12c.01-.2.08-.37.22-.52l2.94-3.26c1.62-1.8,2.51-4.11,2.51-6.53,0-4.47-3.65-8.1-8.14-8.1h0Z"/>
    </g>
  </g>
</svg>