<?xml version="1.0" encoding="UTF-8"?>
<svg id="Layer_1" xmlns="http://www.w3.org/2000/svg" version="1.1" viewBox="0 0 78 78">
  <!-- Generator: Adobe Illustrator 30.1.0, SVG Export Plug-In . SVG Version: 2.1.1 Build 136)  -->
  <circle id="Outer" cx="39" cy="39" r="30.79" fill="none" stroke="#000" stroke-width="16.43"/>
  <g>
    <g>
      <rect x="36.48" y="48.19" width="5.01" height="5.01"/>
      <path d="M40.14,49.53v2.33h-2.33v-2.33h2.33M42.83,46.85h-7.69v7.69h7.69v-7.69h0Z"/>
    </g>
    <g>
      <path d="M36.5,43.74l-.02-2.21c0-1.45.54-2.82,1.5-3.88l2.3-2.55c.41-.45.63-1.03.63-1.64,0-.63-.52-1.15-1.17-1.15h-1.48c-.64,0-1.17.52-1.17,1.15v1.34h-5.03v-1.34c0-3.4,2.78-6.16,6.2-6.16h1.48c3.42,0,6.2,2.76,6.2,6.16,0,1.85-.68,3.62-1.92,4.99l-2.3,2.55c-.14.15-.21.33-.21.52l-.02,2.22h-4.98Z"/>
      <path d="M39.74,28.64c2.68,0,4.86,2.16,4.86,4.82,0,1.51-.56,2.97-1.58,4.09l-2.3,2.55c-.36.39-.55.89-.56,1.42v.88h-2.33v-.88c0-1.1.4-2.15,1.14-2.97l2.3-2.55c.63-.7.98-1.6.98-2.54,0-1.37-1.13-2.49-2.51-2.49h-1.48c-1.38,0-2.51,1.12-2.51,2.49h-2.35c0-2.66,2.18-4.82,4.86-4.82h1.48M39.74,25.96h-1.48c-4.16,0-7.54,3.37-7.54,7.5v2.68h6.81l-.55.61c-1.18,1.31-1.84,3-1.84,4.76v.91s.03,2.66.03,2.66h7.64l.03-2.65v-.67s2.18-2.41,2.18-2.41c1.46-1.62,2.27-3.71,2.27-5.89,0-4.14-3.38-7.5-7.54-7.5h0ZM38.43,33.65h1.12c-.04.2-.13.39-.27.55l-.85.94v-1.49h0Z"/>
    </g>
  </g>
</svg>