<?xml version="1.0" encoding="UTF-8"?>
<svg id="Layer_1" xmlns="http://www.w3.org/2000/svg" version="1.1" viewBox="0 0 33 33">
  <!-- Generator: Adobe Illustrator 30.1.0, SVG Export Plug-In . SVG Version: 2.1.1 Build 136)  -->
  <circle id="Outer" cx="16.5" cy="16.5" r="15.07" fill="none" stroke="#000" stroke-width="2.87"/>
  <g>
    <g>
      <rect x="15.46" y="21.95" width="2.06" height="2.07"/>
      <path d="M17.32,22.15v1.65h-1.65v-1.65h1.65M17.73,21.74h-2.48v2.48h2.48v-2.48h0Z"/>
    </g>
    <g>
      <path d="M15.46,19.67v-.83c0-.84.31-1.63.86-2.25l1.64-1.81c.41-.46.64-1.05.64-1.67,0-.86-.71-1.57-1.58-1.57h-1.05c-.87,0-1.58.7-1.58,1.57v.21h-2.08v-.21c0-2,1.64-3.63,3.66-3.63h1.05c2.02,0,3.66,1.63,3.66,3.63,0,1.13-.42,2.21-1.17,3.05l-1.64,1.81c-.22.25-.34.55-.34.87v.83h-2.07Z"/>
      <path d="M17.03,9.68c1.9,0,3.45,1.54,3.45,3.43,0,1.08-.4,2.11-1.12,2.91l-1.64,1.81c-.25.28-.39.63-.4,1.01v.63h-1.66v-.63c0-.78.29-1.53.81-2.11l1.64-1.81c.45-.5.7-1.14.7-1.8,0-.98-.8-1.77-1.78-1.77h-1.05c-.98,0-1.78.79-1.78,1.77h-1.67c0-1.89,1.55-3.43,3.45-3.43h1.05M17.03,9.27h-1.05c-2.13,0-3.86,1.72-3.86,3.84v.41h2.49v-.41c0-.75.62-1.36,1.37-1.36h1.05c.76,0,1.37.61,1.37,1.36,0,.56-.21,1.11-.59,1.53l-1.64,1.81c-.59.66-.92,1.5-.93,2.39v.63s0,.41,0,.41h2.47v-.41s.01-.63.01-.63c0-.27.1-.53.29-.73l1.64-1.81c.79-.88,1.23-2.01,1.23-3.19,0-2.12-1.73-3.84-3.86-3.84h0Z"/>
    </g>
  </g>
</svg>