<?xml version="1.0" encoding="UTF-8"?>
<svg id="Layer_1" xmlns="http://www.w3.org/2000/svg" version="1.1" viewBox="0 0 33 33">
  <!-- Generator: Adobe Illustrator 30.1.0, SVG Export Plug-In . SVG Version: 2.1.1 Build 136)  -->
  <circle id="Outer" cx="16.5" cy="16.5" r="14.48" fill="none" stroke="#000" stroke-width="4.03"/>
  <g>
    <g>
      <rect x="15.46" y="21.51" width="2.07" height="2.07"/>
      <path d="M17.22,21.82v1.45h-1.45v-1.45h1.45M17.83,21.2h-2.69v2.69h2.69v-2.69h0Z"/>
    </g>
    <g>
      <path d="M15.46,19.3v-.86c0-.77.28-1.5.79-2.06l1.44-1.59c.34-.38.53-.87.53-1.37,0-.69-.56-1.25-1.26-1.25h-.92c-.69,0-1.26.56-1.26,1.25v.31h-2.08v-.31c0-1.83,1.5-3.32,3.34-3.32h.92c1.84,0,3.34,1.49,3.34,3.32,0,1.02-.38,2-1.06,2.76l-1.44,1.59c-.17.19-.27.43-.27.68v.86h-2.07Z"/>
      <path d="M16.96,10.41c1.67,0,3.03,1.35,3.03,3.01,0,.94-.35,1.85-.98,2.55l-1.44,1.59c-.22.25-.35.55-.35.88v.55h-1.46v-.55c0-.69.25-1.34.71-1.85l1.44-1.59c.39-.44.61-1,.61-1.58,0-.86-.7-1.55-1.57-1.55h-.92c-.86,0-1.57.7-1.57,1.55h-1.46c0-1.66,1.36-3.01,3.03-3.01h.92M16.96,9.79h-.92c-2.01,0-3.65,1.63-3.65,3.63v.62h2.7v-.62c0-.52.42-.94.95-.94h.92c.52,0,.95.42.95.94,0,.43-.16.85-.45,1.17l-1.44,1.59c-.56.62-.87,1.43-.88,2.27v.56s.01.61.01.61h2.68v-.61s.01-.55.01-.55c0-.18.06-.34.19-.47l1.44-1.59c.74-.82,1.14-1.87,1.14-2.97,0-2-1.64-3.63-3.65-3.63h0Z"/>
    </g>
  </g>
</svg>