<?xml version="1.0" encoding="UTF-8"?>
<svg id="Layer_1" xmlns="http://www.w3.org/2000/svg" version="1.1" viewBox="0 0 33 33">
  <!-- Generator: Adobe Illustrator 30.1.0, SVG Export Plug-In . SVG Version: 2.1.1 Build 136)  -->
  <circle id="Outer" cx="16.5" cy="16.5" r="15.36" fill="none" stroke="#000" stroke-width="2.29"/>
  <g>
    <g>
      <rect x="15.46" y="22.17" width="2.07" height="2.06"/>
      <path d="M17.37,22.32v1.76h-1.76v-1.76h1.76M17.68,22.01h-2.38v2.38h2.38v-2.38h0Z"/>
    </g>
    <g>
      <path d="M15.46,19.86v-.82c0-.87.32-1.71.9-2.35l1.74-1.93c.45-.5.7-1.14.7-1.81,0-.95-.78-1.73-1.74-1.73h-1.12c-.96,0-1.74.77-1.74,1.73v.15h-2.08v-.15c0-2.09,1.72-3.8,3.82-3.8h1.12c2.11,0,3.82,1.7,3.82,3.8,0,1.18-.44,2.31-1.23,3.19l-1.74,1.93c-.25.27-.38.61-.38.97v.82h-2.07Z"/>
      <path d="M17.06,9.31c2.02,0,3.67,1.63,3.67,3.64,0,1.14-.42,2.24-1.19,3.09l-1.74,1.93c-.27.3-.42.67-.42,1.07v.66h-1.76v-.66c0-.83.3-1.63.86-2.25l1.74-1.93c.48-.53.74-1.21.74-1.92,0-1.04-.85-1.88-1.9-1.88h-1.12c-1.05,0-1.9.84-1.9,1.88h-1.77c0-2.01,1.65-3.64,3.67-3.64h1.12M17.06,9h-1.12c-2.19,0-3.98,1.77-3.98,3.95v.31h2.39v-.31c0-.87.71-1.57,1.59-1.57h1.12c.87,0,1.59.71,1.59,1.57,0,.63-.23,1.24-.66,1.71l-1.74,1.93c-.61.67-.95,1.54-.95,2.45v.67s0,.31,0,.31h2.37v-.31s0-.66,0-.66c0-.32.12-.62.34-.87l1.74-1.93c.82-.91,1.27-2.08,1.27-3.3,0-2.18-1.78-3.95-3.98-3.95h0Z"/>
    </g>
  </g>
</svg>