<?xml version="1.0" encoding="UTF-8"?>
<svg id="Layer_1" xmlns="http://www.w3.org/2000/svg" version="1.1" viewBox="0 0 33 33">
  <!-- Generator: Adobe Illustrator 30.1.0, SVG Export Plug-In . SVG Version: 2.1.1 Build 136)  -->
  <circle id="Outer" cx="16.5" cy="16.5" r="13.31" fill="none" stroke="#000" stroke-width="6.37"/>
  <g>
    <g>
      <rect x="15.44" y="20.61" width="2.1" height="2.1"/>
      <path d="M17.03,21.13v1.07h-1.07v-1.07h1.07M18.06,20.1h-3.13v3.13h3.13v-3.13h0Z"/>
    </g>
    <g>
      <path d="M15.45,18.65v-.92c0-.64.23-1.25.66-1.72l1.06-1.17c.21-.23.32-.52.32-.82,0-.35-.29-.63-.64-.63h-.68c-.35,0-.64.28-.64.63v.52h-2.11v-.52c0-1.51,1.23-2.74,2.75-2.74h.68c1.52,0,2.75,1.23,2.75,2.74,0,.82-.31,1.62-.86,2.23l-1.06,1.18c-.08.09-.12.19-.12.31v.92h-2.1Z"/>
      <path d="M16.84,11.79c1.23,0,2.24,1,2.24,2.22,0,.7-.26,1.37-.73,1.88l-1.06,1.18c-.16.18-.26.41-.26.65v.41h-1.08v-.41c0-.51.19-.99.53-1.37l1.06-1.18c.29-.32.45-.74.45-1.17,0-.63-.52-1.15-1.16-1.15h-.68c-.64,0-1.16.51-1.16,1.15h-1.08c0-1.22,1-2.22,2.24-2.22h.68M16.84,10.76h-.68c-1.8,0-3.27,1.46-3.27,3.25v1.03h3.14v-1.03c0-.06.06-.12.12-.12h.68c.07,0,.12.05.12.12,0,.18-.07.35-.18.48l-1.06,1.18c-.51.56-.79,1.3-.8,2.06v.42s.01,1.02.01,1.02h3.11v-1.02s.01-.41.01-.41l1.05-1.15c.64-.71.99-1.62.99-2.58,0-1.79-1.47-3.25-3.27-3.25h0Z"/>
    </g>
  </g>
</svg>