<?xml version="1.0" encoding="UTF-8"?>
<svg id="Layer_1" xmlns="http://www.w3.org/2000/svg" version="1.1" viewBox="0 0 33 33">
  <!-- Generator: Adobe Illustrator 30.1.0, SVG Export Plug-In . SVG Version: 2.1.1 Build 136)  -->
  <circle id="Outer" cx="16.5" cy="16.5" r="13.9" fill="none" stroke="#000" stroke-width="5.21"/>
  <g>
    <g>
      <rect x="15.45" y="21.06" width="2.08" height="2.08"/>
      <path d="M17.12,21.47v1.25h-1.25v-1.25h1.25M17.94,20.65h-2.9v2.9h2.9v-2.9h0Z"/>
    </g>
    <g>
      <path d="M15.46,18.96v-.88c0-.7.25-1.37.72-1.88l1.24-1.38c.27-.3.42-.69.42-1.09,0-.51-.42-.93-.94-.93h-.8c-.52,0-.94.42-.94.93v.41h-2.09v-.41c0-1.66,1.36-3.01,3.03-3.01h.8c1.67,0,3.03,1.35,3.03,3.01,0,.92-.34,1.8-.96,2.48l-1.24,1.38c-.13.14-.19.31-.2.49v.89h-2.08Z"/>
      <path d="M16.9,11.12c1.44,0,2.62,1.17,2.62,2.6,0,.82-.3,1.6-.85,2.21l-1.24,1.38c-.19.21-.3.48-.3.76v.47h-1.26v-.47c0-.59.22-1.16.62-1.6l1.24-1.38c.34-.38.53-.86.53-1.37,0-.74-.61-1.34-1.35-1.34h-.8c-.75,0-1.35.6-1.35,1.34h-1.27c0-1.43,1.18-2.6,2.62-2.6h.8M16.9,10.3h-.8c-1.9,0-3.45,1.54-3.45,3.43v.82h2.92v-.82c0-.29.24-.52.53-.52h.8c.29,0,.53.23.53.52,0,.3-.11.59-.31.82l-1.24,1.38c-.53.59-.83,1.36-.83,2.15v.48s.01.82.01.82h2.89v-.82s.01-.47.01-.47c0-.08.03-.15.09-.22l1.24-1.38c.69-.76,1.06-1.74,1.06-2.76,0-1.89-1.55-3.43-3.45-3.43h0Z"/>
    </g>
  </g>
</svg>