<?xml version="1.0" encoding="UTF-8"?>
<svg id="Layer_1" xmlns="http://www.w3.org/2000/svg" version="1.1" viewBox="0 0 33 33">
  <!-- Generator: Adobe Illustrator 30.1.0, SVG Export Plug-In . SVG Version: 2.1.1 Build 136)  -->
  <circle id="Outer" cx="16.5" cy="16.5" r="13.02" fill="none" stroke="#000" stroke-width="6.95"/>
  <g>
    <g>
      <rect x="15.43" y="20.39" width="2.12" height="2.12"/>
      <path d="M16.98,20.96v.98h-.98v-.98h.98M18.12,19.82h-3.25v3.25h3.25v-3.25h0Z"/>
    </g>
    <g>
      <path d="M15.44,18.51v-.93c0-.61.22-1.19.62-1.64l.97-1.08c.17-.19.27-.44.27-.69s-.22-.49-.49-.49h-.63c-.27,0-.49.22-.49.49v.57h-2.13v-.57c0-1.44,1.18-2.61,2.62-2.61h.63c1.45,0,2.62,1.17,2.62,2.61,0,.78-.29,1.53-.81,2.11l-.97,1.08c-.06.07-.09.14-.09.22v.94h-2.12Z"/>
      <path d="M16.81,12.12c1.13,0,2.05.92,2.05,2.04,0,.64-.24,1.25-.67,1.73l-.97,1.08c-.15.17-.23.37-.24.6v.37h-.99v-.37c0-.47.17-.91.48-1.26l.97-1.08c.27-.3.41-.68.41-1.07,0-.58-.48-1.05-1.06-1.05h-.63c-.59,0-1.06.47-1.06,1.05h-.99c0-1.12.92-2.04,2.05-2.04h.63M16.81,10.98h-.63c-1.76,0-3.19,1.42-3.19,3.17v1.13h1.13s.99,0,.99,0h.75l-.23.26c-.5.55-.78,1.27-.78,2.01v.39s.01,1.12.01,1.12h3.23v-1.12s.01-.28.01-.28l.92-1.02c.62-.69.96-1.57.96-2.49,0-1.75-1.43-3.17-3.19-3.17h0ZM16.26,14.24h.47c-.02.09-.05.17-.11.23l-.36.4v-.63h0Z"/>
    </g>
  </g>
</svg>