<?xml version="1.0" encoding="UTF-8"?>
<svg id="Layer_1" xmlns="http://www.w3.org/2000/svg" version="1.1" viewBox="0 0 69 69">
  <!-- Generator: Adobe Illustrator 30.1.0, SVG Export Plug-In . SVG Version: 2.1.1 Build 136)  -->
  <g>
    <g>
      <rect x="31.93" y="20.97" width="5.14" height="5.14"/>
      <path d="M35.88,22.16v2.77h-2.77v-2.77h2.77M38.26,19.79h-7.51v7.51h7.51v-7.51h0Z"/>
    </g>
    <g>
      <polygon points="29.16 47.28 29.16 42.14 31.93 42.14 31.93 35.87 29.16 35.87 29.16 30.73 37.07 30.73 37.07 42.14 39.83 42.14 39.83 47.28 29.16 47.28"/>
      <path d="M35.88,31.92v11.4h2.77v2.77h-8.3v-2.77h2.77v-8.64h-2.77v-2.77h5.53M38.26,29.55h-10.28v7.51h2.77v3.89h-2.77v7.51h13.04v-7.51h-2.77v-11.4h0Z"/>
    </g>
  </g>
  <circle id="Outer" cx="34.5" cy="34.5" r="27.23" fill="none" stroke="#000" stroke-width="14.53"/>
</svg>