<?xml version="1.0" encoding="UTF-8"?>
<svg id="Layer_1" xmlns="http://www.w3.org/2000/svg" version="1.1" viewBox="0 0 69 69">
  <!-- Generator: Adobe Illustrator 30.1.0, SVG Export Plug-In . SVG Version: 2.1.1 Build 136)  -->
  <g>
    <g>
      <rect x="31.95" y="20.54" width="5.09" height="5.09"/>
      <path d="M35.97,21.62v2.94h-2.94v-2.94h2.94M38.12,19.47h-7.25v7.25h7.25v-7.25h0Z"/>
    </g>
    <g>
      <polygon points="29.02 47.79 29.02 42.7 31.95 42.7 31.95 35.69 29.02 35.69 29.02 30.6 37.05 30.6 37.05 42.7 39.98 42.7 39.98 47.79 29.02 47.79"/>
      <path d="M35.97,31.67v12.1h2.94v2.94h-8.81v-2.94h2.94v-9.16h-2.94v-2.94h5.87M38.12,29.52h-10.18v7.25h2.94v4.85h-2.94v7.25h13.12v-7.25h-2.94v-12.1h0Z"/>
    </g>
  </g>
  <circle id="Outer" cx="34.5" cy="34.5" r="27.84" fill="none" stroke="#000" stroke-width="13.33"/>
</svg>