<?xml version="1.0" encoding="UTF-8"?>
<svg id="Layer_1" xmlns="http://www.w3.org/2000/svg" version="1.1" viewBox="0 0 128 128">
  <!-- Generator: Adobe Illustrator 30.1.0, SVG Export Plug-In . SVG Version: 2.1.1 Build 136)  -->
  <circle id="Outer" cx="64" cy="64" r="56.18" fill="none" stroke="#000" stroke-width="15.64"/>
  <g>
    <g>
      <rect x="59.95" y="83.43" width="8.03" height="8.03"/>
      <path d="M66.78,84.63v5.63h-5.63v-5.63h5.63M69.18,82.23h-10.43v10.43h10.43v-10.43h0Z"/>
    </g>
    <g>
      <path d="M59.97,74.87l-.03-3.32c.01-2.97,1.11-5.81,3.1-8.01l5.57-6.17c1.33-1.47,2.06-3.36,2.06-5.33,0-2.66-2.19-4.83-4.87-4.83h-3.58c-2.69,0-4.87,2.17-4.87,4.83v1.2h-8.08v-1.2c0-7.09,5.81-12.86,12.95-12.86h3.58c7.14,0,12.95,5.77,12.95,12.86,0,3.96-1.46,7.76-4.12,10.7l-5.57,6.17c-.67.75-1.03,1.66-1.04,2.63l-.03,3.32h-8Z"/>
      <path d="M65.79,40.38c6.48,0,11.75,5.23,11.75,11.66,0,3.66-1.36,7.17-3.81,9.9l-5.57,6.17c-.86.95-1.34,2.14-1.35,3.43l-.02,2.13h-5.63l-.02-2.13c0-2.67.99-5.21,2.79-7.19l5.57-6.17c1.53-1.69,2.37-3.87,2.37-6.14,0-3.32-2.72-6.03-6.07-6.03h-3.58c-3.35,0-6.07,2.7-6.07,6.03h-5.68c0-6.43,5.27-11.66,11.75-11.66h3.58M65.79,37.98h-3.58c-7.8,0-14.15,6.31-14.15,14.06v2.4h10.48v-2.4c0-2,1.65-3.63,3.67-3.63h3.58c2.02,0,3.67,1.63,3.67,3.63,0,1.67-.62,3.28-1.75,4.53l-5.57,6.17c-2.18,2.41-3.39,5.54-3.41,8.79l.02,2.16.02,2.38h10.38l.02-2.38.02-2.13c0-.7.25-1.31.73-1.84l5.57-6.18c2.86-3.17,4.43-7.25,4.43-11.51,0-7.76-6.35-14.06-14.15-14.06h0Z"/>
    </g>
  </g>
</svg>