<?xml version="1.0" encoding="UTF-8"?>
<svg id="Layer_1" xmlns="http://www.w3.org/2000/svg" version="1.1" viewBox="0 0 128 128">
  <!-- Generator: Adobe Illustrator 30.1.0, SVG Export Plug-In . SVG Version: 2.1.1 Build 136)  -->
  <circle id="Outer" cx="64" cy="64" r="59.56" fill="none" stroke="#000" stroke-width="8.88"/>
  <g>
    <g>
      <rect x="59.95" y="85.97" width="8.01" height="8.01"/>
      <path d="M67.37,86.57v6.81h-6.81v-6.81h6.81M68.57,85.37h-9.21v9.21h9.21v-9.21h0Z"/>
    </g>
    <g>
      <path d="M59.96,77.04l-.03-3.17c.01-3.38,1.27-6.61,3.53-9.12l6.75-7.48c1.75-1.94,2.71-4.43,2.71-7.03,0-3.7-3.03-6.7-6.75-6.7h-4.34c-3.72,0-6.75,3.01-6.75,6.7v.6h-8.08v-.6c0-8.12,6.65-14.73,14.83-14.73h4.34c8.18,0,14.83,6.61,14.83,14.73,0,4.58-1.7,8.98-4.77,12.39l-6.75,7.48c-.96,1.06-1.47,2.36-1.47,3.75l-.03,3.17h-8Z"/>
      <path d="M66.17,36.11c7.85,0,14.23,6.34,14.23,14.13,0,4.43-1.64,8.69-4.62,11.99l-6.75,7.48c-1.05,1.16-1.62,2.59-1.63,4.15l-.03,2.58h-6.81l-.02-2.58c.01-3.23,1.2-6.31,3.38-8.71l6.75-7.48c1.85-2.05,2.86-4.69,2.86-7.43,0-4.03-3.3-7.3-7.35-7.3h-4.34c-4.05,0-7.35,3.28-7.35,7.3h-6.87c0-7.79,6.38-14.13,14.23-14.13h4.34M66.17,34.91h-4.34c-8.51,0-15.43,6.88-15.43,15.33v1.2h9.27v-1.2c0-3.37,2.76-6.1,6.15-6.1h4.34c3.39,0,6.15,2.74,6.15,6.1,0,2.45-.91,4.8-2.56,6.63l-6.75,7.48c-2.36,2.61-3.67,5.99-3.68,9.51l.02,2.59v1.19h9.2v-1.19s.04-2.58.04-2.58c0-1.25.46-2.41,1.32-3.36l6.75-7.48c3.18-3.52,4.93-8.06,4.93-12.79,0-8.45-6.92-15.33-15.43-15.33h0Z"/>
    </g>
  </g>
</svg>