<?xml version="1.0" encoding="UTF-8"?>
<svg id="Layer_1" xmlns="http://www.w3.org/2000/svg" version="1.1" viewBox="0 0 128 128">
  <!-- Generator: Adobe Illustrator 30.1.0, SVG Export Plug-In . SVG Version: 2.1.1 Build 136)  -->
  <circle id="Outer" cx="64" cy="64" r="50.52" fill="none" stroke="#000" stroke-width="26.96"/>
  <g>
    <g>
      <rect x="59.86" y="79.08" width="8.22" height="8.22"/>
      <path d="M65.88,81.28v3.82h-3.82v-3.82h3.82M70.28,76.88h-12.62v12.62h12.62v-12.62h0Z"/>
    </g>
    <g>
      <path d="M59.89,71.79l-.03-3.62c0-2.38.88-4.63,2.46-6.37l3.78-4.19c.67-.74,1.04-1.7,1.04-2.69,0-1.04-.86-1.89-1.92-1.89h-2.43c-1.06,0-1.92.85-1.92,1.89v2.2h-8.25v-2.2c0-5.58,4.56-10.11,10.17-10.11h2.43c5.61,0,10.17,4.54,10.17,10.11,0,3.03-1.12,5.94-3.15,8.19l-3.78,4.19c-.23.25-.34.54-.34.86l-.04,3.64h-8.17Z"/>
      <path d="M65.21,47c4.39,0,7.97,3.55,7.97,7.91,0,2.48-.92,4.87-2.59,6.71l-3.78,4.19c-.59.65-.91,1.45-.91,2.32v1.44h-3.83v-1.44c0-1.81.66-3.53,1.88-4.88l3.78-4.19c1.03-1.15,1.6-2.62,1.6-4.16,0-2.26-1.85-4.09-4.12-4.09h-2.43c-2.27,0-4.12,1.83-4.12,4.09h-3.85c0-4.36,3.57-7.91,7.97-7.91h2.43M65.21,42.6h-2.43c-6.82,0-12.37,5.52-12.37,12.31v4.4h11.17l-.9,1c-1.94,2.14-3.01,4.92-3.02,7.81v.03s0,.03,0,.03v1.44s.05,4.36.05,4.36h12.53l.04-4.36v-1.11s3.57-3.95,3.57-3.95c2.4-2.66,3.72-6.09,3.72-9.66,0-6.79-5.55-12.31-12.37-12.31h0ZM63.07,55.22h1.84c-.06.33-.21.65-.44.9l-1.4,1.55v-2.45h0Z"/>
    </g>
  </g>
</svg>