<?xml version="1.0" encoding="UTF-8"?>
<svg id="Layer_1" xmlns="http://www.w3.org/2000/svg" version="1.1" viewBox="0 0 128 128">
  <!-- Generator: Adobe Illustrator 30.1.0, SVG Export Plug-In . SVG Version: 2.1.1 Build 136)  -->
  <circle id="Outer" cx="64" cy="64" r="58.44" fill="none" stroke="#000" stroke-width="11.12"/>
  <g>
    <g>
      <rect x="59.96" y="85.13" width="8.01" height="8.01"/>
      <path d="M67.17,85.93v6.41h-6.41v-6.41h6.41M68.77,84.33h-9.61v9.61h9.61v-9.61h0Z"/>
    </g>
    <g>
      <path d="M59.97,76.3l-.03-3.22c.01-3.24,1.21-6.34,3.38-8.74l6.35-7.03c1.61-1.78,2.49-4.07,2.49-6.46,0-3.35-2.75-6.07-6.12-6.07h-4.08c-3.38,0-6.12,2.72-6.12,6.07v.8h-8.07v-.8c0-7.77,6.37-14.1,14.19-14.1h4.08c7.82,0,14.19,6.32,14.19,14.1,0,4.37-1.62,8.56-4.55,11.82l-6.35,7.04c-.87.96-1.32,2.12-1.33,3.37l-.03,3.22h-8Z"/>
      <path d="M66.04,37.55c7.38,0,13.39,5.97,13.39,13.3,0,4.17-1.54,8.18-4.35,11.28l-6.35,7.04c-.98,1.09-1.53,2.44-1.53,3.91l-.02,2.43h-6.41l-.02-2.43c.01-3.04,1.13-5.94,3.18-8.2l6.35-7.04c1.74-1.93,2.7-4.41,2.7-6.99,0-3.79-3.11-6.87-6.92-6.87h-4.08c-3.82,0-6.92,3.08-6.92,6.87h-6.47c0-7.33,6.01-13.3,13.39-13.3h4.08M66.04,35.95h-4.08c-8.27,0-14.99,6.68-14.99,14.9v1.6h9.67v-1.6c0-2.91,2.39-5.27,5.32-5.27h4.08c2.93,0,5.32,2.37,5.32,5.27,0,2.19-.81,4.29-2.28,5.92l-6.35,7.04c-2.3,2.54-3.58,5.83-3.59,9.26l.02,2.45v1.59h9.6l.02-1.58.02-2.43c0-1.06.39-2.04,1.12-2.85l6.35-7.04c3.07-3.4,4.76-7.79,4.76-12.35,0-8.21-6.72-14.9-14.99-14.9h0Z"/>
    </g>
  </g>
</svg>