<?xml version="1.0" encoding="UTF-8"?>
<svg id="Layer_1" xmlns="http://www.w3.org/2000/svg" version="1.1" viewBox="0 0 128 128">
  <!-- Generator: Adobe Illustrator 30.1.0, SVG Export Plug-In . SVG Version: 2.1.1 Build 136)  -->
  <circle id="Outer" cx="64" cy="64" r="51.64" fill="none" stroke="#000" stroke-width="24.72"/>
  <g>
    <g>
      <rect x="59.89" y="79.95" width="8.15" height="8.15"/>
      <path d="M66.05,81.95v4.15h-4.15v-4.15h4.15M70.05,77.95h-12.15v12.15h12.15v-12.15h0Z"/>
    </g>
    <g>
      <path d="M59.92,72.33l-.03-3.55c0-2.48.92-4.84,2.57-6.67l4.11-4.56c.79-.88,1.23-2.01,1.23-3.19,0-1.35-1.11-2.45-2.48-2.45h-2.64c-1.37,0-2.48,1.1-2.48,2.45v2h-8.19v-2c0-5.85,4.79-10.61,10.68-10.61h2.64c5.89,0,10.67,4.76,10.67,10.61,0,3.2-1.18,6.27-3.33,8.65l-4.12,4.56c-.32.35-.48.75-.48,1.2l-.04,3.57h-8.12Z"/>
      <path d="M65.32,45.75c4.78,0,8.67,3.87,8.67,8.61,0,2.7-1,5.3-2.82,7.31l-4.12,4.56c-.64.71-.99,1.58-.99,2.53l-.02,1.57h-4.15v-1.57c0-1.97.72-3.85,2.04-5.31l4.11-4.56c1.13-1.25,1.75-2.86,1.75-4.53,0-2.45-2.01-4.45-4.48-4.45h-2.64c-2.47,0-4.48,2-4.48,4.45h-4.19c0-4.75,3.89-8.61,8.67-8.61h2.64M65.32,41.75h-2.64c-6.99,0-12.67,5.66-12.67,12.61v4h12.19v-4c0-.25.22-.45.48-.45h2.64c.26,0,.48.21.48.45,0,.68-.25,1.34-.72,1.85l-4.11,4.56c-1.98,2.19-3.08,5.02-3.09,7.98v1.62s.05,3.96.05,3.96h12.08l.04-3.96.02-1.5,4.08-4.52c2.48-2.75,3.85-6.3,3.85-9.99,0-6.96-5.69-12.61-12.67-12.61h0Z"/>
    </g>
  </g>
</svg>