<?xml version="1.0" encoding="UTF-8"?>
<svg id="Layer_1" xmlns="http://www.w3.org/2000/svg" version="1.1" viewBox="0 0 128 128">
  <!-- Generator: Adobe Illustrator 30.1.0, SVG Export Plug-In . SVG Version: 2.1.1 Build 136)  -->
  <circle id="Outer" cx="64" cy="64" r="53.9" fill="none" stroke="#000" stroke-width="20.2"/>
  <g>
    <g>
      <rect x="59.93" y="81.7" width="8.07" height="8.07"/>
      <path d="M66.4,83.3v4.87h-4.87v-4.87h4.87M69.6,80.1h-11.27v11.27h11.27v-11.27h0Z"/>
    </g>
    <g>
      <path d="M59.95,73.54l-.03-3.43c.01-2.72,1.01-5.31,2.82-7.31l4.82-5.34c1.05-1.17,1.63-2.67,1.63-4.24,0-1.99-1.64-3.62-3.65-3.62h-3.1c-2.01,0-3.65,1.62-3.65,3.62v1.6h-8.11v-1.6c0-6.45,5.28-11.69,11.76-11.69h3.1c6.49,0,11.76,5.25,11.76,11.69,0,3.56-1.32,6.98-3.71,9.64l-4.82,5.34c-.49.54-.75,1.2-.75,1.9l-.03,3.43h-8.04Z"/>
      <path d="M65.55,43.13c5.6,0,10.16,4.53,10.16,10.09,0,3.17-1.17,6.21-3.3,8.56l-4.82,5.34c-.75.83-1.16,1.85-1.16,2.96l-.02,1.84h-4.87l-.02-1.84c0-2.31.86-4.51,2.41-6.22l4.82-5.34c1.32-1.46,2.05-3.35,2.05-5.31,0-2.88-2.36-5.22-5.25-5.22h-3.1c-2.9,0-5.25,2.34-5.25,5.22h-4.91c0-5.56,4.56-10.09,10.16-10.09h3.1M65.55,39.93h-3.1c-7.37,0-13.36,5.96-13.36,13.29v3.2h11.31v-3.2c0-1.11.92-2.02,2.05-2.02h3.1c1.13,0,2.05.9,2.05,2.02,0,1.17-.43,2.29-1.22,3.16l-4.82,5.34c-2.07,2.29-3.22,5.26-3.24,8.35l.02,1.88.03,3.17h11.21l.03-3.17.02-1.84c0-.33.11-.6.34-.85l4.82-5.34c2.66-2.95,4.12-6.75,4.12-10.71,0-7.33-6-13.29-13.36-13.29h0Z"/>
    </g>
  </g>
</svg>