<?xml version="1.0" encoding="UTF-8"?>
<svg id="Layer_1" xmlns="http://www.w3.org/2000/svg" version="1.1" viewBox="0 0 32 32">
  <!-- Generator: Adobe Illustrator 30.1.0, SVG Export Plug-In . SVG Version: 2.1.1 Build 136)  -->
  <g>
    <g>
      <rect x="14.88" y="8.1" width="2.24" height="2.24"/>
      <path d="M16.97,8.25v1.94h-1.94v-1.94h1.94M17.27,7.95h-2.54v2.54h2.54v-2.54h0Z"/>
    </g>
    <g>
      <polygon points="12.94 23.9 12.94 21.66 14.88 21.66 14.88 15.91 12.94 15.91 12.94 13.68 17.12 13.68 17.12 21.66 19.06 21.66 19.06 23.9 12.94 23.9"/>
      <path d="M16.97,13.83v7.98h1.94v1.94h-5.81v-1.94h1.94v-6.05h-1.94v-1.94h3.87M17.27,13.53h-4.47v2.54h1.94v5.45h-1.94v2.54h6.41v-2.54h-1.94v-7.98h0Z"/>
    </g>
  </g>
  <circle id="Outer" cx="16" cy="16" r="14.89" fill="none" stroke="#000" stroke-width="2.22"/>
</svg>