<?xml version="1.0" encoding="UTF-8"?>
<svg id="Layer_1" xmlns="http://www.w3.org/2000/svg" version="1.1" viewBox="0 0 32 32">
  <!-- Generator: Adobe Illustrator 30.1.0, SVG Export Plug-In . SVG Version: 2.1.1 Build 136)  -->
  <g>
    <g>
      <rect x="14.84" y="9.12" width="2.32" height="2.32"/>
      <path d="M16.76,9.52v1.52h-1.52v-1.52h1.52M17.56,8.72h-3.12v3.12h3.12v-3.12h0Z"/>
    </g>
    <g>
      <polygon points="13.32 22.65 13.32 20.33 14.84 20.33 14.84 16.37 13.32 16.37 13.32 14.05 17.16 14.05 17.16 20.33 18.68 20.33 18.68 22.65 13.32 22.65"/>
      <path d="M16.76,14.45v6.27h1.52v1.52h-4.57v-1.52h1.52v-4.75h-1.52v-1.52h3.04M17.56,13.65h-4.64v3.12h1.52v3.15h-1.52v3.12h6.17v-3.12h-1.52v-6.27h0Z"/>
    </g>
  </g>
  <circle id="Outer" cx="16" cy="16" r="13.48" fill="none" stroke="#000" stroke-width="5.05"/>
</svg>