<?xml version="1.0" encoding="UTF-8"?>
<svg id="Layer_1" xmlns="http://www.w3.org/2000/svg" version="1.1" viewBox="0 0 80 80">
  <!-- Generator: Adobe Illustrator 30.1.0, SVG Export Plug-In . SVG Version: 2.1.1 Build 136)  -->
  <g>
    <g>
      <rect x="37.14" y="21.78" width="5.72" height="5.72"/>
      <path d="M42.11,22.53v4.22h-4.22v-4.22h4.22M43.61,21.03h-7.22v7.22h7.22v-7.22h0Z"/>
    </g>
    <g>
      <polygon points="32.92 57.87 32.92 52.15 37.14 52.15 37.14 40.48 32.92 40.48 32.92 34.77 42.86 34.77 42.86 52.15 47.08 52.15 47.08 57.87 32.92 57.87"/>
      <path d="M42.11,35.52v17.38h4.22v4.22h-12.65v-4.22h4.22v-13.17h-4.22v-4.22h8.43M43.61,34.02h-11.43v7.22h4.22v10.17h-4.22v7.22h15.65v-7.22h-4.22v-17.38h0Z"/>
    </g>
  </g>
  <circle id="Outer" cx="40" cy="40" r="35.11" fill="none" stroke="#000" stroke-width="9.77"/>
</svg>