<?xml version="1.0" encoding="UTF-8"?>
<svg id="Layer_1" xmlns="http://www.w3.org/2000/svg" version="1.1" viewBox="0 0 80 80">
  <!-- Generator: Adobe Illustrator 30.1.0, SVG Export Plug-In . SVG Version: 2.1.1 Build 136)  -->
  <g>
    <g>
      <rect x="37.02" y="24.32" width="5.96" height="5.96"/>
      <path d="M41.6,25.69v3.21h-3.21v-3.21h3.21M44.35,22.94h-8.71v8.71h8.71v-8.71h0Z"/>
    </g>
    <g>
      <polygon points="33.81 54.81 33.81 48.86 37.02 48.86 37.02 41.59 33.81 41.59 33.81 35.63 42.98 35.63 42.98 48.86 46.19 48.86 46.19 54.81 33.81 54.81"/>
      <path d="M41.6,37.01v13.22h3.21v3.21h-9.62v-3.21h3.21v-10.01h-3.21v-3.21h6.42M44.35,34.26h-11.92v8.71h3.21v4.51h-3.21v8.71h15.12v-8.71h-3.21v-13.22h0Z"/>
    </g>
  </g>
  <circle id="Outer" cx="40" cy="40" r="31.58" fill="none" stroke="#000" stroke-width="16.85"/>
</svg>