<?xml version="1.0" encoding="UTF-8"?>
<svg id="Layer_1" xmlns="http://www.w3.org/2000/svg" version="1.1" viewBox="0 0 80 80">
  <!-- Generator: Adobe Illustrator 30.1.0, SVG Export Plug-In . SVG Version: 2.1.1 Build 136)  -->
  <g>
    <g>
      <rect x="37.1" y="22.81" width="5.8" height="5.8"/>
      <path d="M41.9,23.81v3.8h-3.8v-3.8h3.8M43.9,21.81h-7.8v7.8h7.8v-7.8h0Z"/>
    </g>
    <g>
      <polygon points="33.29 56.62 33.29 50.81 37.1 50.81 37.1 40.94 33.29 40.94 33.29 35.13 42.9 35.13 42.9 50.81 46.71 50.81 46.71 56.62 33.29 56.62"/>
      <path d="M41.9,36.13v15.68h3.8v3.8h-11.41v-3.8h3.8v-11.88h-3.8v-3.8h7.61M43.9,34.13h-11.61v7.8h3.8v7.88h-3.8v7.8h15.41v-7.8h-3.8v-15.68h0Z"/>
    </g>
  </g>
  <circle id="Outer" cx="40" cy="40" r="33.69" fill="none" stroke="#000" stroke-width="12.62"/>
</svg>