<?xml version="1.0" encoding="UTF-8"?>
<svg id="Layer_1" xmlns="http://www.w3.org/2000/svg" version="1.1" viewBox="0 0 80 80">
  <!-- Generator: Adobe Illustrator 30.1.0, SVG Export Plug-In . SVG Version: 2.1.1 Build 136)  -->
  <g>
    <g>
      <rect x="37.18" y="20.76" width="5.63" height="5.63"/>
      <path d="M42.32,21.26v4.63h-4.63v-4.63h4.63M43.32,20.26h-6.63v6.63h6.63v-6.63h0Z"/>
    </g>
    <g>
      <polygon points="32.55 59.12 32.55 53.49 37.18 53.49 37.18 40.02 32.55 40.02 32.55 34.39 42.82 34.39 42.82 53.49 47.45 53.49 47.45 59.12 32.55 59.12"/>
      <path d="M42.32,34.89v19.1h4.63v4.63h-13.9v-4.63h4.63v-14.47h-4.63v-4.63h9.27M43.32,33.89h-11.27v6.63h4.63v12.47h-4.63v6.63h15.9v-6.63h-4.63v-19.1h0Z"/>
    </g>
  </g>
  <circle id="Outer" cx="40" cy="40" r="36.53" fill="none" stroke="#000" stroke-width="6.95"/>
</svg>