<?xml version="1.0" encoding="UTF-8"?>
<svg id="Layer_1" xmlns="http://www.w3.org/2000/svg" version="1.1" viewBox="0 0 103 103">
  <!-- Generator: Adobe Illustrator 30.1.0, SVG Export Plug-In . SVG Version: 2.1.1 Build 136)  -->
  <g>
    <g>
      <rect x="47.76" y="29.36" width="7.47" height="7.47"/>
      <path d="M53.95,30.65v4.9h-4.9v-4.9h4.9M56.52,28.08h-10.05v10.05h10.05v-10.05h0Z"/>
    </g>
    <g>
      <polygon points="42.87 72.9 42.87 65.42 47.76 65.42 47.76 52.71 42.87 52.71 42.87 45.23 55.24 45.23 55.24 65.42 60.13 65.42 60.13 72.9 42.87 72.9"/>
      <path d="M53.95,46.52v20.19h4.9v4.9h-14.69v-4.9h4.9v-15.29h-4.9v-4.9h9.8M56.52,43.95h-14.95v10.05h4.9v10.14h-4.9v10.05h19.84v-10.05h-4.9v-20.19h0Z"/>
    </g>
  </g>
  <circle id="Outer" cx="51.5" cy="51.5" r="43.37" fill="none" stroke="#000" stroke-width="16.25"/>
</svg>