<?xml version="1.0" encoding="UTF-8"?>
<svg id="Layer_1" xmlns="http://www.w3.org/2000/svg" version="1.1" viewBox="0 0 103 103">
  <!-- Generator: Adobe Illustrator 30.1.0, SVG Export Plug-In . SVG Version: 2.1.1 Build 136)  -->
  <g>
    <g>
      <rect x="47.82" y="28.04" width="7.36" height="7.36"/>
      <path d="M54.21,29.01v5.43h-5.43v-5.43h5.43M56.15,27.08h-9.29v9.29h9.29v-9.29h0Z"/>
    </g>
    <g>
      <polygon points="42.39 74.5 42.39 67.14 47.82 67.14 47.82 52.12 42.39 52.12 42.39 44.76 55.18 44.76 55.18 67.14 60.61 67.14 60.61 74.5 42.39 74.5"/>
      <path d="M54.21,45.73v22.38h5.43v5.43h-16.29v-5.43h5.43v-16.95h-5.43v-5.43h10.86M56.15,43.79h-14.72v9.29h5.43v13.09h-5.43v9.29h20.15v-9.29h-5.43v-22.38h0Z"/>
    </g>
  </g>
  <circle id="Outer" cx="51.5" cy="51.5" r="45.21" fill="none" stroke="#000" stroke-width="12.59"/>
</svg>