<?xml version="1.0" encoding="UTF-8"?>
<svg id="Layer_1" xmlns="http://www.w3.org/2000/svg" version="1.1" viewBox="0 0 54 54">
  <!-- Generator: Adobe Illustrator 30.1.0, SVG Export Plug-In . SVG Version: 2.1.1 Build 136)  -->
  <g>
    <g>
      <rect x="25.11" y="13.67" width="3.77" height="3.77"/>
      <path d="M28.63,13.93v3.27h-3.27v-3.27h3.27M29.14,13.42h-4.28v4.28h4.28v-4.28h0Z"/>
    </g>
    <g>
      <polygon points="21.84 40.33 21.84 36.55 25.11 36.55 25.11 26.85 21.84 26.85 21.84 23.08 28.89 23.08 28.89 36.55 32.16 36.55 32.16 40.33 21.84 40.33"/>
      <path d="M28.63,23.33v13.47h3.27v3.27h-9.81v-3.27h3.27v-10.2h-3.27v-3.27h6.54M29.14,22.83h-7.55v4.28h3.27v9.19h-3.27v4.28h10.82v-4.28h-3.27v-13.47h0Z"/>
    </g>
  </g>
  <circle id="Outer" cx="27" cy="27" r="25.13" fill="none" stroke="#000" stroke-width="3.75"/>
</svg>