<?xml version="1.0" encoding="UTF-8"?>
<svg id="Layer_1" xmlns="http://www.w3.org/2000/svg" version="1.1" viewBox="0 0 54 54">
  <!-- Generator: Adobe Illustrator 30.1.0, SVG Export Plug-In . SVG Version: 2.1.1 Build 136)  -->
  <g>
    <g>
      <rect x="24.99" y="16.41" width="4.02" height="4.02"/>
      <path d="M28.08,17.34v2.17h-2.17v-2.17h2.17M29.94,15.49h-5.88v5.88h5.88v-5.88h0Z"/>
    </g>
    <g>
      <polygon points="22.82 37 22.82 32.98 24.99 32.98 24.99 28.07 22.82 28.07 22.82 24.05 29.01 24.05 29.01 32.98 31.18 32.98 31.18 37 22.82 37"/>
      <path d="M28.08,24.98v8.92h2.17v2.17h-6.5v-2.17h2.17v-6.76h-2.17v-2.17h4.33M29.94,23.12h-8.04v5.88h2.17v3.05h-2.17v5.88h10.21v-5.88h-2.17v-8.92h0Z"/>
    </g>
  </g>
  <circle id="Outer" cx="27" cy="27" r="21.31" fill="none" stroke="#000" stroke-width="11.37"/>
</svg>