<?xml version="1.0" encoding="UTF-8"?>
<svg id="Layer_1" xmlns="http://www.w3.org/2000/svg" version="1.1" viewBox="0 0 54 54">
  <!-- Generator: Adobe Illustrator 30.1.0, SVG Export Plug-In . SVG Version: 2.1.1 Build 136)  -->
  <g>
    <g>
      <rect x="25.04" y="15.39" width="3.92" height="3.92"/>
      <path d="M28.28,16.07v2.57h-2.57v-2.57h2.57M29.63,14.72h-5.27v5.27h5.27v-5.27h0Z"/>
    </g>
    <g>
      <polygon points="22.47 38.22 22.47 34.3 25.04 34.3 25.04 27.63 22.47 27.63 22.47 23.71 28.96 23.71 28.96 34.3 31.53 34.3 31.53 38.22 22.47 38.22"/>
      <path d="M28.28,24.39v10.59h2.57v2.57h-7.7v-2.57h2.57v-8.02h-2.57v-2.57h5.14M29.63,23.04h-7.84v5.27h2.57v5.32h-2.57v5.27h10.4v-5.27h-2.57v-10.59h0Z"/>
    </g>
  </g>
  <circle id="Outer" cx="27" cy="27" r="22.74" fill="none" stroke="#000" stroke-width="8.52"/>
</svg>