<?xml version="1.0" encoding="UTF-8"?>
<svg id="Layer_1" xmlns="http://www.w3.org/2000/svg" version="1.1" viewBox="0 0 54 54">
  <!-- Generator: Adobe Illustrator 30.1.0, SVG Export Plug-In . SVG Version: 2.1.1 Build 136)  -->
  <g>
    <g>
      <rect x="25.1" y="14.01" width="3.8" height="3.8"/>
      <path d="M28.56,14.35v3.13h-3.13v-3.13h3.13M29.24,13.68h-4.48v4.48h4.48v-4.48h0Z"/>
    </g>
    <g>
      <polygon points="21.97 39.91 21.97 36.1 25.1 36.1 25.1 27.01 21.97 27.01 21.97 23.21 28.9 23.21 28.9 36.1 32.03 36.1 32.03 39.91 21.97 39.91"/>
      <path d="M28.56,23.55v12.89h3.13v3.13h-9.38v-3.13h3.13v-9.76h-3.13v-3.13h6.26M29.24,22.87h-7.61v4.48h3.13v8.41h-3.13v4.48h10.73v-4.48h-3.13v-12.89h0Z"/>
    </g>
  </g>
  <circle id="Outer" cx="27" cy="27" r="24.65" fill="none" stroke="#000" stroke-width="4.69"/>
</svg>