<?xml version="1.0" encoding="UTF-8"?>
<svg id="Layer_1" xmlns="http://www.w3.org/2000/svg" version="1.1" viewBox="0 0 127 127">
  <!-- Generator: Adobe Illustrator 30.1.0, SVG Export Plug-In . SVG Version: 2.1.1 Build 136)  -->
  <path d="M63.5,15.52c1.56,0,3.12.81,3.94,2.43l10.04,19.93c1.72,3.42,4.94,5.84,8.69,6.54l21.72,4.07c3.4.64,4.77,4.76,2.44,7.32l-15.82,17.36c-2.44,2.68-3.58,6.3-3.1,9.9l3.09,23.41c.37,2.79-1.86,5-4.37,5-.67,0-1.35-.16-2.01-.5l-19-9.78c-1.76-.91-3.69-1.36-5.61-1.36s-3.85.45-5.61,1.36l-19,9.78c-.66.34-1.35.5-2.01.5-2.51,0-4.74-2.21-4.37-5.01l3.09-23.42c.47-3.59-.66-7.21-3.1-9.89l-15.82-17.36c-2.33-2.56-.95-6.69,2.44-7.32l21.71-4.07c3.75-.7,6.97-3.12,8.69-6.54l10.04-19.93c.82-1.62,2.38-2.43,3.94-2.43M63.5,0C55.93,0,49.11,4.2,45.7,10.96l-9.32,18.5-20.13,3.77c-7.1,1.33-12.93,6.41-15.22,13.26-2.3,6.85-.7,14.43,4.17,19.77l14.81,16.25-2.89,21.93c-.75,5.7.98,11.43,4.76,15.74,3.8,4.33,9.26,6.81,14.99,6.81,3.15,0,6.3-.77,9.12-2.22l17.5-9.01,17.5,9.01c2.82,1.45,5.97,2.22,9.12,2.22,5.73,0,11.2-2.48,14.99-6.81,3.78-4.31,5.51-10.04,4.76-15.74l-2.89-21.93,14.82-16.26c4.87-5.34,6.46-12.91,4.17-19.77-2.29-6.85-8.13-11.93-15.22-13.26l-20.13-3.77-9.32-18.5C77.89,4.2,71.07,0,63.5,0h0Z"/>
</svg>