<?xml version="1.0" encoding="UTF-8"?>
<svg id="Layer_1" xmlns="http://www.w3.org/2000/svg" version="1.1" viewBox="0 0 127 127">
  <!-- Generator: Adobe Illustrator 30.1.0, SVG Export Plug-In . SVG Version: 2.1.1 Build 136)  -->
  <path d="M63.5,11.03c1.71,0,3.41.88,4.3,2.65l10.98,21.79c1.88,3.74,5.4,6.38,9.51,7.15l23.75,4.45c3.71.7,5.22,5.21,2.67,8l-17.3,18.99c-2.67,2.93-3.91,6.89-3.39,10.82l3.38,25.6c.4,3.05-2.03,5.47-4.78,5.47-.73,0-1.48-.17-2.2-.54l-20.77-10.7c-1.93-.99-4.03-1.49-6.14-1.49-2.11,0-4.21.5-6.14,1.49l-20.77,10.7c-.72.37-1.47.54-2.2.54-2.75,0-5.18-2.42-4.78-5.47l3.38-25.61c.52-3.93-.72-7.89-3.39-10.81l-17.3-18.99c-2.55-2.8-1.04-7.31,2.67-8.01l23.74-4.45c4.11-.77,7.62-3.41,9.5-7.15l10.98-21.79c.89-1.77,2.6-2.65,4.3-2.65M63.5,0c-6.02,0-11.45,3.34-14.16,8.72l-10.98,21.79c-.33.66-.96,1.13-1.68,1.27l-23.74,4.45c-5.65,1.06-10.29,5.1-12.11,10.55-1.83,5.45-.56,11.48,3.32,15.73l17.3,18.99c.48.52.7,1.23.6,1.94l-3.38,25.61c-.6,4.53.78,9.1,3.78,12.52,3.02,3.45,7.37,5.43,11.93,5.43,2.5,0,5.01-.61,7.25-1.77l20.77-10.7c.34-.17.7-.26,1.08-.26.38,0,.75.09,1.08.26l20.77,10.7c2.25,1.16,4.75,1.77,7.25,1.77,4.56,0,8.91-1.98,11.93-5.43,3-3.42,4.38-7.99,3.78-12.52l-3.38-25.6c-.09-.71.13-1.42.61-1.95l17.3-18.99c3.87-4.25,5.14-10.28,3.32-15.73-1.83-5.45-6.47-9.49-12.11-10.55l-23.75-4.45c-.72-.14-1.35-.61-1.68-1.27l-10.98-21.79c-2.71-5.38-8.14-8.72-14.16-8.72h0Z"/>
</svg>