<?xml version="1.0" encoding="UTF-8"?>
<svg id="Layer_1" xmlns="http://www.w3.org/2000/svg" version="1.1" viewBox="0 0 127 127">
  <!-- Generator: Adobe Illustrator 30.1.0, SVG Export Plug-In . SVG Version: 2.1.1 Build 136)  -->
  <path d="M63.5,26.75c1.19,0,2.39.62,3.01,1.86l7.69,15.26c1.32,2.62,3.78,4.47,6.66,5.01l16.63,3.12c2.6.49,3.66,3.65,1.87,5.61l-12.12,13.3c-1.87,2.05-2.74,4.83-2.38,7.58l2.36,17.93c.28,2.14-1.42,3.83-3.35,3.83-.51,0-1.04-.12-1.54-.38l-14.55-7.49c-1.35-.69-2.82-1.04-4.3-1.04-1.47,0-2.95.35-4.3,1.04l-14.55,7.49c-.51.26-1.03.38-1.54.38-1.92,0-3.63-1.69-3.35-3.83l2.37-17.94c.36-2.75-.51-5.52-2.37-7.57l-12.12-13.3c-1.79-1.96-.73-5.12,1.87-5.61l16.63-3.12c2.88-.54,5.34-2.39,6.65-5.01l7.69-15.26c.62-1.24,1.82-1.86,3.01-1.86M63.5,0C52.05,0,41.75,6.35,36.6,16.57l-3.83,7.6-8.19,1.53c-10.73,2.01-19.55,9.69-23.02,20.04-3.47,10.36-1.05,21.8,6.3,29.87l6.69,7.34-1.31,9.95c-1.14,8.61,1.49,17.28,7.21,23.8,5.73,6.53,13.99,10.28,22.66,10.28,4.77,0,9.54-1.16,13.79-3.35l6.6-3.4,6.6,3.4c4.25,2.19,9.02,3.35,13.79,3.35,8.67,0,16.93-3.75,22.66-10.28,5.71-6.52,8.34-15.19,7.21-23.8l-1.31-9.95,6.69-7.35c7.35-8.07,9.77-19.52,6.3-29.87-3.47-10.35-12.29-18.03-23.01-20.04l-8.19-1.54-3.83-7.6C85.25,6.35,74.94,0,63.5,0h0Z"/>
</svg>