<?xml version="1.0" encoding="UTF-8"?>
<svg id="Layer_1" xmlns="http://www.w3.org/2000/svg" version="1.1" viewBox="0 0 37 37">
  <!-- Generator: Adobe Illustrator 30.1.0, SVG Export Plug-In . SVG Version: 2.1.1 Build 136)  -->
  <g>
    <g>
      <rect x="17.2" y="9.6" width="2.61" height="2.61"/>
      <path d="M19.57,9.83v2.14h-2.14v-2.14h2.14M20.03,9.37h-3.07v3.07h3.07v-3.07h0Z"/>
    </g>
    <g>
      <polygon points="15.05 27.34 15.05 24.74 17.2 24.74 17.2 18.51 15.05 18.51 15.05 15.9 19.8 15.9 19.8 24.74 21.95 24.74 21.95 27.34 15.05 27.34"/>
      <path d="M19.57,16.13v8.83h2.14v2.14h-6.43v-2.14h2.14v-6.69h-2.14v-2.14h4.29M20.03,15.67h-5.21v3.07h2.14v5.77h-2.14v3.07h7.35v-3.07h-2.14v-8.83h0Z"/>
    </g>
  </g>
  <circle id="Outer" cx="18.5" cy="18.5" r="16.89" fill="none" stroke="#000" stroke-width="3.21"/>
</svg>