<?xml version="1.0" encoding="UTF-8"?>
<svg id="Layer_1" xmlns="http://www.w3.org/2000/svg" version="1.1" viewBox="0 0 37 37">
  <!-- Generator: Adobe Illustrator 30.1.0, SVG Export Plug-In . SVG Version: 2.1.1 Build 136)  -->
  <g>
    <g>
      <rect x="17.21" y="9.37" width="2.59" height="2.59"/>
      <path d="M19.62,9.54v2.24h-2.24v-2.24h2.24M19.97,9.19h-2.93v2.93h2.93v-2.93h0Z"/>
    </g>
    <g>
      <polygon points="14.97 27.63 14.97 25.04 17.21 25.04 17.21 18.4 14.97 18.4 14.97 15.81 19.79 15.81 19.79 25.04 22.03 25.04 22.03 27.63 14.97 27.63"/>
      <path d="M19.62,15.99v9.23h2.24v2.24h-6.72v-2.24h2.24v-6.99h-2.24v-2.24h4.48M19.97,15.64h-5.17v2.93h2.24v6.3h-2.24v2.93h7.41v-2.93h-2.24v-9.23h0Z"/>
    </g>
  </g>
  <circle id="Outer" cx="18.5" cy="18.5" r="17.22" fill="none" stroke="#000" stroke-width="2.57"/>
</svg>