<?xml version="1.0" encoding="UTF-8"?>
<svg id="Layer_1" xmlns="http://www.w3.org/2000/svg" version="1.1" viewBox="0 0 124 124">
  <!-- Generator: Adobe Illustrator 30.1.0, SVG Export Plug-In . SVG Version: 2.1.1 Build 136)  -->
  <g>
    <g>
      <rect x="57.5" y="35.35" width="9" height="9"/>
      <path d="M64.95,36.9v5.9h-5.9v-5.9h5.9M68.05,33.8h-12.1v12.1h12.1v-12.1h0Z"/>
    </g>
    <g>
      <polygon points="51.6 87.76 51.6 78.76 57.5 78.76 57.5 63.45 51.6 63.45 51.6 54.46 66.5 54.46 66.5 78.76 72.4 78.76 72.4 87.76 51.6 87.76"/>
      <path d="M64.95,56.01v24.31h5.9v5.9h-17.69v-5.9h5.9v-18.41h-5.9v-5.9h11.79M68.05,52.91h-17.99v12.1h5.9v12.21h-5.9v12.1h23.89v-12.1h-5.9v-24.31h0Z"/>
    </g>
  </g>
  <circle id="Outer" cx="62" cy="62" r="52.22" fill="none" stroke="#000" stroke-width="19.57"/>
</svg>