<?xml version="1.0" encoding="UTF-8"?>
<svg id="Layer_1" xmlns="http://www.w3.org/2000/svg" version="1.1" viewBox="0 0 124 124">
  <!-- Generator: Adobe Illustrator 30.1.0, SVG Export Plug-In . SVG Version: 2.1.1 Build 136)  -->
  <g>
    <g>
      <rect x="57.63" y="32.18" width="8.73" height="8.73"/>
      <path d="M65.59,32.95v7.18h-7.18v-7.18h7.18M67.14,31.4h-10.28v10.28h10.28v-10.28h0Z"/>
    </g>
    <g>
      <polygon points="50.45 91.63 50.45 82.9 57.63 82.9 57.63 62.03 50.45 62.03 50.45 53.3 66.37 53.3 66.37 82.9 73.55 82.9 73.55 91.63 50.45 91.63"/>
      <path d="M65.59,54.07v29.6h7.18v7.18h-21.55v-7.18h7.18v-22.42h-7.18v-7.18h14.36M67.14,52.52h-17.46v10.28h7.18v19.32h-7.18v10.28h24.65v-10.28h-7.18v-29.6h0Z"/>
    </g>
  </g>
  <circle id="Outer" cx="62" cy="62" r="56.61" fill="none" stroke="#000" stroke-width="10.77"/>
</svg>