<?xml version="1.0" encoding="UTF-8"?>
<svg id="Layer_1" xmlns="http://www.w3.org/2000/svg" version="1.1" viewBox="0 0 124 124">
  <!-- Generator: Adobe Illustrator 30.1.0, SVG Export Plug-In . SVG Version: 2.1.1 Build 136)  -->
  <g>
    <g>
      <rect x="57.42" y="36.92" width="9.15" height="9.15"/>
      <path d="M64.64,38.86v5.27h-5.27v-5.27h5.27M68.51,34.98h-13.02v13.02h13.02v-13.02h0Z"/>
    </g>
    <g>
      <polygon points="52.15 85.88 52.15 76.73 57.42 76.73 57.42 64.13 52.15 64.13 52.15 54.98 66.58 54.98 66.58 76.73 71.85 76.73 71.85 85.88 52.15 85.88"/>
      <path d="M64.64,56.92v21.74h5.27v5.27h-15.82v-5.27h5.27v-16.47h-5.27v-5.27h10.55M68.51,53.05h-18.3v13.02h5.27v8.72h-5.27v13.02h23.57v-13.02h-5.27v-21.74h0Z"/>
    </g>
  </g>
  <circle id="Outer" cx="62" cy="62" r="50.03" fill="none" stroke="#000" stroke-width="23.95"/>
</svg>