<?xml version="1.0" encoding="UTF-8"?>
<svg id="Layer_1" xmlns="http://www.w3.org/2000/svg" version="1.1" viewBox="0 0 52 52">
  <!-- Generator: Adobe Illustrator 30.1.0, SVG Export Plug-In . SVG Version: 2.1.1 Build 136)  -->
  <circle id="Outer" cx="26" cy="26" r="20.52" fill="none" stroke="#000" stroke-width="10.95"/>
  <g>
    <g>
      <rect x="24.32" y="32.13" width="3.34" height="3.34"/>
      <path d="M26.76,33.02v1.55h-1.55v-1.55h1.55M28.55,31.23h-5.13v5.13h5.13v-5.13h0Z"/>
    </g>
    <g>
      <path d="M24.33,29.16v-1.47c0-.96.35-1.88.99-2.59l1.54-1.7c.27-.3.42-.69.42-1.09s-.35-.77-.78-.77h-.99c-.43,0-.78.34-.78.77v.89h-3.35v-.89c0-2.27,1.85-4.11,4.13-4.11h.99c2.28,0,4.13,1.84,4.13,4.11,0,1.23-.46,2.41-1.28,3.33l-1.54,1.7c-.09.1-.14.22-.14.35v1.48h-3.34Z"/>
      <path d="M26.49,19.09c1.79,0,3.24,1.44,3.24,3.21,0,1.01-.37,1.98-1.05,2.73l-1.54,1.7c-.24.26-.37.59-.37.94v.59h-1.56v-.59c0-.73.27-1.43.76-1.98l1.54-1.7c.42-.47.65-1.07.65-1.69,0-.92-.75-1.66-1.67-1.66h-.99c-.92,0-1.67.75-1.67,1.66h-1.56c0-1.77,1.45-3.21,3.24-3.21h.99M26.49,17.31h-.99c-2.77,0-5.02,2.24-5.02,5v1.79h4.54l-.37.41c-.79.87-1.22,2-1.23,3.17v.61s.02,1.77.02,1.77h5.09l.02-1.77v-.45s1.45-1.6,1.45-1.6c.97-1.08,1.51-2.47,1.51-3.93,0-2.76-2.25-5-5.02-5h0ZM25.62,22.43h.75c-.02.14-.09.26-.18.37l-.57.63v-1h0Z"/>
    </g>
  </g>
</svg>