<?xml version="1.0" encoding="UTF-8"?>
<svg id="Layer_1" xmlns="http://www.w3.org/2000/svg" version="1.1" viewBox="0 0 52 52">
  <!-- Generator: Adobe Illustrator 30.1.0, SVG Export Plug-In . SVG Version: 2.1.1 Build 136)  -->
  <circle id="Outer" cx="26" cy="26" r="24.2" fill="none" stroke="#000" stroke-width="3.61"/>
  <g>
    <g>
      <rect x="24.36" y="34.93" width="3.26" height="3.26"/>
      <path d="M27.37,35.17v2.77h-2.77v-2.77h2.77M27.86,34.68h-3.74v3.74h3.74v-3.74h0Z"/>
    </g>
    <g>
      <path d="M24.36,31.3v-1.29c0-1.37.5-2.69,1.42-3.7l2.74-3.04c.71-.79,1.1-1.8,1.1-2.86,0-1.5-1.23-2.72-2.74-2.72h-1.76c-1.51,0-2.74,1.22-2.74,2.72v.24h-3.28v-.24c0-3.3,2.7-5.98,6.02-5.98h1.76c3.32,0,6.02,2.68,6.02,5.98,0,1.86-.69,3.65-1.94,5.03l-2.74,3.04c-.39.43-.6.96-.6,1.52v1.29h-3.26Z"/>
      <path d="M26.88,14.67c3.19,0,5.78,2.58,5.78,5.74,0,1.8-.67,3.53-1.88,4.87l-2.74,3.04c-.42.47-.66,1.05-.66,1.69v1.05h-2.78v-1.05c0-1.31.48-2.56,1.36-3.54l2.74-3.04c.75-.83,1.16-1.9,1.16-3.02,0-1.64-1.34-2.97-2.99-2.97h-1.76c-1.65,0-2.99,1.33-2.99,2.97h-2.79c0-3.16,2.59-5.74,5.78-5.74h1.76M26.88,14.18h-1.76c-3.46,0-6.27,2.79-6.27,6.23v.49h3.77v-.49c0-1.37,1.12-2.48,2.5-2.48h1.76c1.38,0,2.5,1.11,2.5,2.48,0,1-.37,1.95-1.04,2.69l-2.74,3.04c-.96,1.06-1.49,2.43-1.5,3.86v1.05s.01.48.01.48h3.73v-.48s.02-1.05.02-1.05c0-.51.19-.98.54-1.36l2.74-3.04c1.29-1.43,2-3.28,2-5.2,0-3.43-2.81-6.23-6.27-6.23h0Z"/>
    </g>
  </g>
</svg>