<?xml version="1.0" encoding="UTF-8"?>
<svg id="Layer_1" xmlns="http://www.w3.org/2000/svg" version="1.1" viewBox="0 0 52 52">
  <!-- Generator: Adobe Illustrator 30.1.0, SVG Export Plug-In . SVG Version: 2.1.1 Build 136)  -->
  <circle id="Outer" cx="26" cy="26" r="20.98" fill="none" stroke="#000" stroke-width="10.04"/>
  <g>
    <g>
      <rect x="24.33" y="32.48" width="3.31" height="3.31"/>
      <path d="M26.83,33.29v1.69h-1.69v-1.69h1.69M28.46,31.67h-4.94v4.94h4.94v-4.94h0Z"/>
    </g>
    <g>
      <path d="M24.34,29.39v-1.44c0-1.01.36-1.97,1.03-2.71l1.67-1.85c.32-.36.5-.82.5-1.3,0-.55-.45-1-1.01-1h-1.07c-.56,0-1.01.45-1.01,1v.81h-3.33v-.81c0-2.38,1.95-4.31,4.34-4.31h1.07c2.39,0,4.34,1.93,4.34,4.31,0,1.3-.48,2.55-1.35,3.51l-1.67,1.85c-.13.14-.19.31-.19.49l-.02,1.45h-3.3Z"/>
      <path d="M26.54,18.59c1.94,0,3.52,1.57,3.52,3.5,0,1.1-.41,2.15-1.14,2.97l-1.67,1.85c-.26.29-.4.64-.4,1.03v.64h-1.69v-.64c0-.8.29-1.56.83-2.16l1.67-1.85c.46-.51.71-1.16.71-1.84,0-1-.82-1.81-1.82-1.81h-1.07c-1,0-1.82.81-1.82,1.81h-1.7c0-1.93,1.58-3.5,3.52-3.5h1.07M26.54,16.96h-1.07c-2.84,0-5.15,2.3-5.15,5.12v1.62h4.95v-1.62c0-.1.09-.18.2-.18h1.07c.11,0,.2.08.2.18,0,.28-.1.54-.29.75l-1.67,1.85c-.8.89-1.25,2.04-1.25,3.24v.66s.02,1.61.02,1.61h4.91l.02-1.61v-.61s1.66-1.84,1.66-1.84c1.01-1.12,1.56-2.56,1.56-4.06,0-2.83-2.31-5.12-5.15-5.12h0Z"/>
    </g>
  </g>
</svg>