<?xml version="1.0" encoding="UTF-8"?>
<svg id="Layer_1" xmlns="http://www.w3.org/2000/svg" version="1.1" viewBox="0 0 52 52">
  <!-- Generator: Adobe Illustrator 30.1.0, SVG Export Plug-In . SVG Version: 2.1.1 Build 136)  -->
  <circle id="Outer" cx="26" cy="26" r="23.74" fill="none" stroke="#000" stroke-width="4.52"/>
  <g>
    <g>
      <rect x="24.36" y="34.58" width="3.26" height="3.26"/>
      <path d="M27.29,34.91v2.6h-2.6v-2.6h2.6M27.94,34.26h-3.9v3.9h3.9v-3.9h0Z"/>
    </g>
    <g>
      <path d="M24.36,31v-1.31c0-1.32.48-2.58,1.36-3.55l2.58-2.86c.65-.72,1.01-1.66,1.01-2.62,0-1.36-1.12-2.47-2.49-2.47h-1.66c-1.37,0-2.49,1.11-2.49,2.47v.33h-3.28v-.33c0-3.16,2.59-5.73,5.76-5.73h1.66c3.18,0,5.77,2.57,5.77,5.73,0,1.77-.66,3.48-1.85,4.8l-2.58,2.86c-.35.39-.54.86-.54,1.37v1.31h-3.26Z"/>
      <path d="M26.83,15.25c3,0,5.44,2.42,5.44,5.4,0,1.69-.63,3.32-1.77,4.58l-2.58,2.86c-.4.44-.62.99-.62,1.59v.99h-2.61v-.99c0-1.23.45-2.41,1.28-3.33l2.58-2.86c.71-.78,1.1-1.79,1.1-2.84,0-1.54-1.26-2.79-2.81-2.79h-1.66c-1.55,0-2.81,1.25-2.81,2.79h-2.63c0-2.98,2.44-5.4,5.44-5.4h1.66M26.83,14.6h-1.66c-3.36,0-6.09,2.71-6.09,6.05v.65h3.93v-.65c0-1.18.97-2.14,2.16-2.14h1.66c1.19,0,2.16.96,2.16,2.14,0,.89-.33,1.74-.93,2.41l-2.58,2.86c-.93,1.03-1.45,2.37-1.46,3.76v.99s.01.64.01.64h3.89v-.64s.02-.99.02-.99c0-.43.16-.83.46-1.16l2.58-2.86c1.25-1.38,1.93-3.16,1.93-5.02,0-3.34-2.73-6.05-6.09-6.05h0Z"/>
    </g>
  </g>
</svg>