<?xml version="1.0" encoding="UTF-8"?>
<svg id="Layer_1" xmlns="http://www.w3.org/2000/svg" version="1.1" viewBox="0 0 52 52">
  <!-- Generator: Adobe Illustrator 30.1.0, SVG Export Plug-In . SVG Version: 2.1.1 Build 136)  -->
  <circle id="Outer" cx="26" cy="26" r="22.82" fill="none" stroke="#000" stroke-width="6.35"/>
  <g>
    <g>
      <rect x="24.35" y="33.89" width="3.26" height="3.26"/>
      <path d="M27.13,34.38v2.29h-2.29v-2.29h2.29M28.1,33.41h-4.24v4.24h4.24v-4.24h0Z"/>
    </g>
    <g>
      <path d="M24.36,30.42v-1.35c0-1.21.44-2.36,1.25-3.25l2.26-2.51c.54-.6.84-1.37.84-2.17,0-1.08-.89-1.96-1.98-1.96h-1.45c-1.09,0-1.98.88-1.98,1.96v.49h-3.28v-.49c0-2.88,2.36-5.23,5.26-5.23h1.45c2.9,0,5.26,2.34,5.26,5.23,0,1.61-.59,3.15-1.68,4.35l-2.26,2.51c-.27.3-.42.67-.42,1.07v1.35h-3.26Z"/>
      <path d="M26.73,16.41c2.63,0,4.77,2.13,4.77,4.74,0,1.49-.55,2.91-1.55,4.02l-2.26,2.51c-.35.39-.54.87-.55,1.39v.86h-2.29v-.86c0-1.08.4-2.12,1.12-2.92l2.26-2.51c.62-.69.96-1.57.96-2.49,0-1.35-1.11-2.45-2.47-2.45h-1.45c-1.36,0-2.47,1.1-2.47,2.45h-2.31c0-2.61,2.14-4.74,4.77-4.74h1.45M26.73,15.43h-1.45c-3.17,0-5.75,2.56-5.75,5.71v.98h4.26v-.98c0-.81.67-1.47,1.49-1.47h1.45c.82,0,1.49.66,1.49,1.47,0,.68-.25,1.33-.71,1.84l-2.26,2.51c-.89.98-1.38,2.25-1.38,3.57v.88s.02.97.02.97h4.22v-.97s.02-.86.02-.86c0-.28.1-.53.29-.75l2.26-2.51c1.16-1.29,1.8-2.95,1.8-4.67,0-3.15-2.58-5.71-5.75-5.71h0Z"/>
    </g>
  </g>
</svg>