<?xml version="1.0" encoding="UTF-8"?>
<svg id="Layer_1" xmlns="http://www.w3.org/2000/svg" version="1.1" viewBox="0 0 52 52">
  <!-- Generator: Adobe Illustrator 30.1.0, SVG Export Plug-In . SVG Version: 2.1.1 Build 136)  -->
  <circle id="Outer" cx="26" cy="26" r="21.9" fill="none" stroke="#000" stroke-width="8.21"/>
  <g>
    <g>
      <rect x="24.35" y="33.19" width="3.28" height="3.28"/>
      <path d="M26.97,33.84v1.98h-1.98v-1.98h1.98M28.27,32.54h-4.58v4.58h4.58v-4.58h0Z"/>
    </g>
    <g>
      <path d="M24.36,29.88v-1.39c0-1.1.4-2.16,1.14-2.97l1.96-2.17c.43-.48.66-1.09.66-1.72,0-.81-.67-1.47-1.48-1.47h-1.26c-.82,0-1.48.66-1.48,1.47v.65h-3.29v-.65c0-2.62,2.14-4.75,4.78-4.75h1.26c2.63,0,4.78,2.13,4.78,4.75,0,1.45-.54,2.84-1.51,3.92l-1.96,2.17c-.2.22-.3.49-.3.77v1.4h-3.28Z"/>
      <path d="M26.63,17.52c2.28,0,4.13,1.84,4.13,4.1,0,1.29-.48,2.52-1.34,3.48l-1.96,2.17c-.3.34-.47.75-.47,1.2v.75h-1.98v-.75c0-.94.34-1.83.97-2.53l1.96-2.17c.54-.59.83-1.36.83-2.16,0-1.17-.96-2.12-2.13-2.12h-1.26c-1.18,0-2.13.95-2.13,2.12h-1.99c0-2.26,1.85-4.1,4.13-4.1h1.26M26.63,16.22h-1.26c-2.99,0-5.43,2.42-5.43,5.4v1.3h4.59v-1.3c0-.45.37-.82.83-.82h1.26c.46,0,.83.37.83.82,0,.47-.18.93-.5,1.29l-1.96,2.17c-.84.93-1.31,2.14-1.31,3.39v.76s.02,1.29.02,1.29h4.55v-1.29s.02-.75.02-.75c0-.13.05-.24.14-.35l1.96-2.17c1.08-1.2,1.68-2.74,1.68-4.35,0-2.98-2.44-5.4-5.43-5.4h0Z"/>
    </g>
  </g>
</svg>