<?xml version="1.0" encoding="UTF-8"?>
<svg id="Layer_1" xmlns="http://www.w3.org/2000/svg" version="1.1" viewBox="0 0 85 85">
  <!-- Generator: Adobe Illustrator 30.1.0, SVG Export Plug-In . SVG Version: 2.1.1 Build 136)  -->
  <circle id="Outer" cx="42.5" cy="42.5" r="33.55" fill="none" stroke="#000" stroke-width="17.9"/>
  <g>
    <g>
      <rect x="39.75" y="52.52" width="5.46" height="5.46"/>
      <path d="M43.75,53.98v2.53h-2.53v-2.53h2.53M46.67,51.05h-8.38v8.38h8.38v-8.38h0Z"/>
    </g>
    <g>
      <path d="M39.77,47.67l-.02-2.41c0-1.58.59-3.07,1.63-4.23l2.51-2.78c.44-.49.69-1.13.69-1.79,0-.69-.57-1.25-1.27-1.25h-1.61c-.7,0-1.27.56-1.27,1.25v1.46h-5.48v-1.46c0-3.7,3.03-6.72,6.75-6.72h1.61c3.72,0,6.75,3.01,6.75,6.72,0,2.01-.74,3.94-2.09,5.44l-2.51,2.78c-.15.17-.23.36-.23.57l-.02,2.42h-5.43Z"/>
      <path d="M43.31,31.21c2.92,0,5.29,2.36,5.29,5.25,0,1.65-.61,3.23-1.72,4.46l-2.51,2.78c-.39.43-.6.96-.61,1.54v.96h-2.54v-.96c0-1.2.44-2.35,1.25-3.24l2.51-2.78c.69-.76,1.07-1.74,1.07-2.76,0-1.5-1.23-2.72-2.74-2.72h-1.61c-1.51,0-2.74,1.22-2.74,2.72h-2.56c0-2.9,2.37-5.25,5.29-5.25h1.61M43.31,28.29h-1.61c-4.53,0-8.21,3.67-8.21,8.18v2.92h7.42l-.6.67c-1.29,1.42-2,3.27-2.01,5.19v.99s.03,2.9.03,2.9h8.32l.03-2.89v-.73s2.37-2.62,2.37-2.62c1.59-1.76,2.47-4.04,2.47-6.42,0-4.51-3.68-8.18-8.21-8.18h0ZM41.88,36.67h1.22c-.04.22-.14.43-.29.6l-.93,1.03v-1.63h0Z"/>
    </g>
  </g>
</svg>