<?xml version="1.0" encoding="UTF-8"?>
<svg id="Layer_1" xmlns="http://www.w3.org/2000/svg" version="1.1" viewBox="0 0 85 85">
  <!-- Generator: Adobe Illustrator 30.1.0, SVG Export Plug-In . SVG Version: 2.1.1 Build 136)  -->
  <circle id="Outer" cx="42.5" cy="42.5" r="38.81" fill="none" stroke="#000" stroke-width="7.38"/>
  <g>
    <g>
      <rect x="39.81" y="56.53" width="5.32" height="5.32"/>
      <path d="M44.6,57.07v4.26h-4.26v-4.26h4.26M45.67,56h-6.38v6.38h6.38v-6.38h0Z"/>
    </g>
    <g>
      <path d="M39.82,50.67l-.02-2.14c0-2.15.81-4.21,2.25-5.8l4.22-4.67c1.07-1.18,1.65-2.7,1.65-4.29,0-2.22-1.82-4.03-4.06-4.03h-2.71c-2.24,0-4.06,1.81-4.06,4.03v.53h-5.36v-.53c0-5.16,4.23-9.36,9.42-9.36h2.71c5.2,0,9.42,4.2,9.42,9.36,0,2.9-1.07,5.69-3.02,7.85l-4.22,4.67c-.57.64-.88,1.41-.88,2.24l-.02,2.14h-5.31Z"/>
      <path d="M43.85,24.94c4.9,0,8.89,3.96,8.89,8.83,0,2.77-1.03,5.43-2.89,7.49l-4.22,4.67c-.65.72-1.02,1.62-1.02,2.59l-.02,1.61h-4.26v-1.61c0-2.02.74-3.94,2.1-5.44l4.22-4.67c1.15-1.28,1.79-2.93,1.79-4.64,0-2.52-2.06-4.56-4.6-4.56h-2.71c-2.53,0-4.6,2.05-4.6,4.56h-4.3c0-4.87,3.99-8.83,8.89-8.83h2.71M43.85,23.87h-2.71c-5.49,0-9.95,4.44-9.95,9.89v1.06h6.42v-1.06c0-1.93,1.59-3.5,3.53-3.5h2.71c1.95,0,3.53,1.57,3.53,3.5,0,1.45-.54,2.85-1.52,3.93l-4.22,4.67c-1.53,1.69-2.37,3.87-2.38,6.15v1.62s.02,1.05.02,1.05h6.36v-1.05s.03-1.61.03-1.61c0-.7.26-1.36.74-1.89l4.22-4.67c2.04-2.26,3.16-5.17,3.16-8.2,0-5.45-4.47-9.89-9.95-9.89h0Z"/>
    </g>
  </g>
</svg>