<?xml version="1.0" encoding="UTF-8"?>
<svg id="Layer_1" xmlns="http://www.w3.org/2000/svg" version="1.1" viewBox="0 0 85 85">
  <!-- Generator: Adobe Illustrator 30.1.0, SVG Export Plug-In . SVG Version: 2.1.1 Build 136)  -->
  <circle id="Outer" cx="42.5" cy="42.5" r="34.29" fill="none" stroke="#000" stroke-width="16.42"/>
  <g>
    <g>
      <rect x="39.77" y="53.09" width="5.41" height="5.42"/>
      <path d="M43.86,54.42v2.76h-2.76v-2.76h2.76M46.51,51.77h-8.07v8.07h8.07v-8.07h0Z"/>
    </g>
    <g>
      <path d="M39.79,48.04l-.02-2.36c0-1.65.61-3.22,1.71-4.43l2.73-3.03c.53-.58.82-1.34.82-2.12,0-.9-.74-1.63-1.65-1.63h-1.76c-.91,0-1.65.73-1.65,1.63v1.33h-5.44v-1.33c0-3.89,3.18-7.05,7.09-7.05h1.76c3.91,0,7.09,3.16,7.09,7.05,0,2.12-.79,4.16-2.21,5.74l-2.73,3.03c-.21.23-.32.5-.32.79l-.02,2.37h-5.39Z"/>
      <path d="M43.38,30.38c3.18,0,5.76,2.57,5.76,5.72,0,1.79-.66,3.52-1.87,4.85l-2.73,3.03c-.42.47-.66,1.05-.66,1.68v1.04h-2.77v-1.04c0-1.31.48-2.55,1.36-3.53l2.73-3.03c.75-.83,1.16-1.9,1.16-3.01,0-1.63-1.34-2.96-2.98-2.96h-1.76c-1.64,0-2.98,1.33-2.98,2.96h-2.78c0-3.15,2.58-5.72,5.76-5.72h1.76M43.38,27.72h-1.76c-4.64,0-8.42,3.76-8.42,8.38v2.66h8.1v-2.66c0-.16.15-.3.32-.3h1.76c.17,0,.32.14.32.3,0,.45-.17.89-.48,1.23l-2.73,3.03c-1.31,1.45-2.04,3.34-2.05,5.3v1.08s.03,2.63.03,2.63h8.02l.03-2.63v-1s2.72-3,2.72-3c1.65-1.82,2.55-4.18,2.55-6.63,0-4.62-3.78-8.38-8.42-8.38h0Z"/>
    </g>
  </g>
</svg>