<?xml version="1.0" encoding="UTF-8"?>
<svg id="Layer_1" xmlns="http://www.w3.org/2000/svg" version="1.1" viewBox="0 0 85 85">
  <!-- Generator: Adobe Illustrator 30.1.0, SVG Export Plug-In . SVG Version: 2.1.1 Build 136)  -->
  <circle id="Outer" cx="42.5" cy="42.5" r="39.55" fill="none" stroke="#000" stroke-width="5.9"/>
  <g>
    <g>
      <rect x="39.81" y="57.09" width="5.32" height="5.32"/>
      <path d="M44.74,57.49v4.53h-4.53v-4.53h4.53M45.53,56.69h-6.12v6.12h6.12v-6.12h0Z"/>
    </g>
    <g>
      <path d="M39.82,51.16l-.02-2.11c0-2.24.84-4.39,2.34-6.06l4.48-4.96c1.16-1.29,1.8-2.94,1.8-4.67,0-2.45-2.01-4.45-4.49-4.45h-2.88c-2.47,0-4.49,2-4.49,4.45v.4h-5.36v-.4c0-5.39,4.42-9.78,9.85-9.78h2.88c5.43,0,9.85,4.39,9.85,9.78,0,3.04-1.13,5.96-3.17,8.23l-4.48,4.97c-.64.71-.98,1.57-.98,2.49l-.02,2.11h-5.31Z"/>
      <path d="M43.94,23.98c5.21,0,9.45,4.21,9.45,9.38,0,2.94-1.09,5.77-3.07,7.96l-4.48,4.97c-.69.77-1.08,1.72-1.08,2.76l-.02,1.71h-4.53l-.02-1.71c0-2.14.8-4.19,2.24-5.78l4.48-4.96c1.23-1.36,1.9-3.11,1.9-4.94,0-2.67-2.19-4.85-4.88-4.85h-2.88c-2.69,0-4.88,2.18-4.88,4.85h-4.57c0-5.17,4.24-9.38,9.45-9.38h2.88M43.94,23.18h-2.88c-5.65,0-10.25,4.57-10.25,10.18v.8h6.16v-.8c0-2.23,1.83-4.05,4.09-4.05h2.88c2.25,0,4.09,1.82,4.09,4.05,0,1.63-.6,3.19-1.7,4.4l-4.48,4.96c-1.57,1.74-2.44,3.98-2.45,6.32l.02,1.72v.79h6.11v-.79s.03-1.71.03-1.71c0-.83.31-1.6.88-2.23l4.48-4.97c2.11-2.34,3.27-5.36,3.27-8.5,0-5.61-4.6-10.18-10.25-10.18h0Z"/>
    </g>
  </g>
</svg>