<?xml version="1.0" encoding="UTF-8"?>
<svg id="Layer_1" xmlns="http://www.w3.org/2000/svg" version="1.1" viewBox="0 0 85 85">
  <!-- Generator: Adobe Illustrator 30.1.0, SVG Export Plug-In . SVG Version: 2.1.1 Build 136)  -->
  <circle id="Outer" cx="42.5" cy="42.5" r="37.31" fill="none" stroke="#000" stroke-width="10.39"/>
  <g>
    <g>
      <rect x="39.81" y="55.4" width="5.33" height="5.33"/>
      <path d="M44.34,56.2v3.74h-3.74v-3.74h3.74M45.94,54.61h-6.92v6.92h6.92v-6.92h0Z"/>
    </g>
    <g>
      <path d="M39.82,49.72l-.02-2.2c0-1.97.74-3.86,2.06-5.32l3.7-4.1c.88-.98,1.37-2.23,1.37-3.54,0-1.77-1.45-3.21-3.24-3.21h-2.38c-1.78,0-3.23,1.44-3.23,3.21v.8h-5.36v-.8c0-4.71,3.86-8.54,8.6-8.54h2.38c4.74,0,8.6,3.83,8.6,8.54,0,2.63-.97,5.15-2.74,7.11l-3.7,4.1c-.45.5-.69,1.1-.69,1.74l-.02,2.21h-5.31Z"/>
      <path d="M43.69,26.82c4.3,0,7.8,3.48,7.8,7.75,0,2.43-.9,4.76-2.53,6.57l-3.7,4.1c-.57.63-.89,1.42-.89,2.28v1.41h-3.75v-1.41c0-1.77.65-3.46,1.84-4.78l3.7-4.1c1.01-1.12,1.57-2.57,1.57-4.07,0-2.21-1.81-4-4.03-4h-2.38c-2.22,0-4.03,1.8-4.03,4h-3.77c0-4.27,3.5-7.75,7.8-7.75h2.38M43.69,25.22h-2.38c-5.18,0-9.39,4.19-9.39,9.34v1.59h6.96v-1.59c0-1.33,1.09-2.41,2.44-2.41h2.38c1.34,0,2.44,1.08,2.44,2.41,0,1.11-.41,2.18-1.16,3.01l-3.7,4.1c-1.45,1.6-2.25,3.68-2.26,5.84v1.43s.03,1.58.03,1.58h6.89l.02-1.58v-1.41c.02-.46.18-.87.5-1.22l3.7-4.1c1.9-2.1,2.94-4.82,2.94-7.64,0-5.15-4.21-9.34-9.39-9.34h0Z"/>
    </g>
  </g>
</svg>