<?xml version="1.0" encoding="UTF-8"?>
<svg id="Layer_1" xmlns="http://www.w3.org/2000/svg" version="1.1" viewBox="0 0 85 85">
  <!-- Generator: Adobe Illustrator 30.1.0, SVG Export Plug-In . SVG Version: 2.1.1 Build 136)  -->
  <circle id="Outer" cx="42.5" cy="42.5" r="35.79" fill="none" stroke="#000" stroke-width="13.41"/>
  <g>
    <g>
      <rect x="39.8" y="54.25" width="5.36" height="5.36"/>
      <path d="M44.09,55.31v3.23h-3.23v-3.23h3.23M46.22,53.19h-7.48v7.48h7.48v-7.48h0Z"/>
    </g>
    <g>
      <path d="M39.81,48.83l-.02-2.28c0-1.8.67-3.52,1.88-4.85l3.2-3.55c.7-.77,1.08-1.77,1.08-2.81,0-1.32-1.09-2.4-2.43-2.4h-2.06c-1.34,0-2.43,1.08-2.43,2.4v1.06h-5.39v-1.06c0-4.28,3.5-7.76,7.81-7.76h2.06c4.31,0,7.81,3.48,7.81,7.76,0,2.37-.88,4.64-2.46,6.4l-3.2,3.55c-.33.36-.5.79-.5,1.26l-.02,2.28h-5.34Z"/>
      <path d="M43.53,28.64c3.72,0,6.75,3.01,6.75,6.7,0,2.1-.78,4.12-2.19,5.69l-3.2,3.55c-.5.55-.77,1.23-.77,1.97v1.22h-3.24v-1.22c0-1.53.56-2.99,1.59-4.13l3.2-3.55c.88-.97,1.36-2.22,1.36-3.53,0-1.91-1.57-3.46-3.49-3.46h-2.06c-1.92,0-3.49,1.55-3.49,3.46h-3.26c0-3.69,3.03-6.7,6.75-6.7h2.06M43.53,26.52h-2.06c-4.89,0-8.87,3.96-8.87,8.83v2.12h7.51v-2.12c0-.74.61-1.34,1.36-1.34h2.06c.75,0,1.36.6,1.36,1.34,0,.78-.29,1.52-.81,2.1l-3.2,3.55c-1.38,1.52-2.14,3.49-2.15,5.55v1.25s.03,2.11.03,2.11h7.44l.02-2.1v-1.22c.01-.22.09-.4.24-.57l3.2-3.55c1.77-1.96,2.74-4.48,2.74-7.11,0-4.87-3.98-8.83-8.87-8.83h0Z"/>
    </g>
  </g>
</svg>