<?xml version="1.0" encoding="UTF-8"?>
<svg id="Layer_1" xmlns="http://www.w3.org/2000/svg" version="1.1" viewBox="0 0 56 56">
  <!-- Generator: Adobe Illustrator 30.1.0, SVG Export Plug-In . SVG Version: 2.1.1 Build 136)  -->
  <circle id="Outer" cx="28" cy="28" r="23.58" fill="none" stroke="#000" stroke-width="8.84"/>
  <g>
    <g>
      <rect x="26.22" y="35.74" width="3.53" height="3.53"/>
      <path d="M29.05,36.44v2.13h-2.13v-2.13h2.13M30.45,35.04h-4.93v4.93h4.93v-4.93h0Z"/>
    </g>
    <g>
      <path d="M26.23,32.17v-1.5c0-1.19.43-2.32,1.22-3.2l2.11-2.34c.46-.51.71-1.17.71-1.85,0-.87-.72-1.58-1.6-1.58h-1.35c-.88,0-1.6.71-1.6,1.58v.7h-3.55v-.7c0-2.82,2.31-5.12,5.15-5.12h1.35c2.84,0,5.15,2.29,5.15,5.12,0,1.56-.58,3.06-1.62,4.22l-2.11,2.34c-.21.24-.33.52-.33.83l-.02,1.5h-3.52Z"/>
      <path d="M28.68,18.87c2.45,0,4.45,1.98,4.45,4.42,0,1.39-.51,2.72-1.44,3.75l-2.11,2.34c-.33.36-.51.81-.51,1.3v.81h-2.14v-.81c0-1.01.37-1.97,1.05-2.72l2.11-2.34c.58-.64.9-1.46.9-2.32,0-1.26-1.03-2.28-2.3-2.28h-1.35c-1.27,0-2.3,1.02-2.3,2.28h-2.15c0-2.43,1.99-4.42,4.45-4.42h1.35M28.68,17.47h-1.35c-3.22,0-5.85,2.61-5.85,5.82v1.4h4.95v-1.4c0-.49.4-.88.9-.88h1.35c.5,0,.9.4.9.88,0,.51-.19,1-.53,1.38l-2.11,2.34c-.91,1-1.41,2.3-1.42,3.66v.82s.02,1.39.02,1.39h4.9v-1.39s.02-.81.02-.81c0-.14.05-.26.15-.37l2.11-2.34c1.16-1.29,1.8-2.95,1.8-4.68,0-3.21-2.62-5.82-5.85-5.82h0Z"/>
    </g>
  </g>
</svg>