<?xml version="1.0" encoding="UTF-8"?>
<svg id="Layer_1" xmlns="http://www.w3.org/2000/svg" version="1.1" viewBox="0 0 56 56">
  <!-- Generator: Adobe Illustrator 30.1.0, SVG Export Plug-In . SVG Version: 2.1.1 Build 136)  -->
  <circle id="Outer" cx="28" cy="28" r="22.1" fill="none" stroke="#000" stroke-width="11.8"/>
  <g>
    <g>
      <rect x="26.19" y="34.6" width="3.59" height="3.6"/>
      <path d="M28.82,35.56v1.67h-1.67v-1.67h1.67M30.75,33.64h-5.52v5.52h5.52v-5.52h0Z"/>
    </g>
    <g>
      <path d="M26.2,31.41v-1.59c-.01-1.04.37-2.03,1.06-2.79l1.65-1.83c.29-.32.45-.74.45-1.18s-.38-.83-.84-.83h-1.06c-.46,0-.84.37-.84.83v.96h-3.61v-.96c0-2.44,2-4.42,4.45-4.42h1.06c2.45,0,4.45,1.98,4.45,4.42,0,1.32-.49,2.6-1.38,3.58l-1.65,1.83c-.1.11-.15.24-.15.38l-.02,1.59h-3.58Z"/>
      <path d="M28.53,20.56c1.92,0,3.49,1.55,3.49,3.46,0,1.09-.4,2.13-1.13,2.94l-1.65,1.83c-.26.28-.4.64-.4,1.02v.63h-1.68v-.63c0-.79.29-1.55.82-2.13l1.65-1.83c.45-.5.7-1.15.7-1.82,0-.99-.81-1.79-1.8-1.79h-1.06c-.99,0-1.8.8-1.8,1.79h-1.68c0-1.91,1.56-3.46,3.49-3.46h1.06M28.53,18.64h-1.06c-2.98,0-5.41,2.42-5.41,5.39v1.93h4.89l-.4.44c-.85.94-1.32,2.15-1.32,3.42v.66s.02,1.91.02,1.91h5.48l.02-1.91v-.48s1.56-1.73,1.56-1.73c1.05-1.16,1.63-2.66,1.63-4.23,0-2.97-2.43-5.39-5.41-5.39h0ZM27.59,24.16h.8c-.03.15-.09.28-.19.4l-.61.68v-1.07h0Z"/>
    </g>
  </g>
</svg>