<?xml version="1.0" encoding="UTF-8"?>
<svg id="Layer_1" xmlns="http://www.w3.org/2000/svg" version="1.1" viewBox="0 0 56 56">
  <!-- Generator: Adobe Illustrator 30.1.0, SVG Export Plug-In . SVG Version: 2.1.1 Build 136)  -->
  <circle id="Outer" cx="28" cy="28" r="26.06" fill="none" stroke="#000" stroke-width="3.88"/>
  <g>
    <g>
      <rect x="26.23" y="37.61" width="3.51" height="3.51"/>
      <path d="M29.47,37.88v2.98h-2.98v-2.98h2.98M30,37.35h-4.03v4.03h4.03v-4.03h0Z"/>
    </g>
    <g>
      <path d="M26.23,33.7v-1.39c0-1.48.54-2.89,1.53-3.99l2.95-3.27c.77-.85,1.19-1.94,1.19-3.08,0-1.62-1.33-2.93-2.96-2.93h-1.9c-1.63,0-2.96,1.32-2.96,2.93v.26h-3.53v-.26c0-3.55,2.91-6.44,6.49-6.44h1.9c3.58,0,6.49,2.89,6.49,6.44,0,2-.74,3.93-2.09,5.42l-2.95,3.27c-.42.46-.64,1.03-.65,1.64v1.39h-3.52Z"/>
      <path d="M28.95,15.8c3.43,0,6.23,2.77,6.23,6.18,0,1.94-.72,3.8-2.02,5.25l-2.95,3.27c-.46.51-.71,1.13-.71,1.82v1.13h-2.99v-1.13c0-1.41.52-2.76,1.47-3.81l2.95-3.27c.81-.9,1.25-2.05,1.25-3.25,0-1.76-1.44-3.2-3.22-3.2h-1.9c-1.77,0-3.22,1.43-3.22,3.2h-3.01c0-3.41,2.79-6.18,6.23-6.18h1.9M28.95,15.27h-1.9c-3.72,0-6.75,3.01-6.75,6.71v.52h4.06v-.52c0-1.47,1.21-2.67,2.69-2.67h1.9c1.48,0,2.69,1.2,2.69,2.67,0,1.07-.4,2.1-1.12,2.9l-2.95,3.27c-1.03,1.14-1.61,2.62-1.61,4.16v1.13s.01.52.01.52h4.02v-.52s.02-1.13.02-1.13c0-.55.2-1.05.58-1.47l2.95-3.27c1.39-1.54,2.16-3.53,2.16-5.6,0-3.7-3.03-6.71-6.75-6.71h0Z"/>
    </g>
  </g>
</svg>