<?xml version="1.0" encoding="UTF-8"?>
<svg id="Layer_1" xmlns="http://www.w3.org/2000/svg" version="1.1" viewBox="0 0 56 56">
  <!-- Generator: Adobe Illustrator 30.1.0, SVG Export Plug-In . SVG Version: 2.1.1 Build 136)  -->
  <circle id="Outer" cx="28" cy="28" r="25.57" fill="none" stroke="#000" stroke-width="4.86"/>
  <g>
    <g>
      <rect x="26.23" y="37.25" width="3.51" height="3.5"/>
      <path d="M29.39,37.6v2.81h-2.81v-2.81h2.81M30.09,36.9h-4.21v4.21h4.21v-4.21h0Z"/>
    </g>
    <g>
      <path d="M26.23,33.38v-1.41c0-1.42.52-2.77,1.47-3.82l2.78-3.08c.7-.78,1.09-1.78,1.09-2.83,0-1.46-1.2-2.66-2.68-2.66h-1.79c-1.48,0-2.68,1.19-2.68,2.66v.35h-3.53v-.35c0-3.4,2.79-6.17,6.21-6.17h1.79c3.42,0,6.21,2.77,6.21,6.17,0,1.91-.71,3.75-1.99,5.17l-2.78,3.08c-.38.42-.58.93-.58,1.48v1.41h-3.51Z"/>
      <path d="M28.89,16.43c3.23,0,5.86,2.61,5.86,5.82,0,1.83-.68,3.58-1.9,4.94l-2.78,3.08c-.43.48-.67,1.07-.67,1.71v1.06h-2.82v-1.06c0-1.33.49-2.6,1.38-3.59l2.78-3.08c.76-.84,1.18-1.93,1.18-3.06,0-1.66-1.36-3.01-3.03-3.01h-1.78c-1.67,0-3.03,1.35-3.03,3.01h-2.83c0-3.21,2.63-5.82,5.86-5.82h1.78M28.89,15.73h-1.78c-3.62,0-6.56,2.92-6.56,6.52v.7h4.23v-.7c0-1.27,1.04-2.31,2.33-2.31h1.78c1.28,0,2.33,1.03,2.33,2.31,0,.96-.35,1.88-1,2.59l-2.78,3.08c-1.01,1.11-1.56,2.55-1.57,4.05v1.07s.02.69.02.69h4.19v-.69s.02-1.06.02-1.06c0-.46.17-.89.49-1.25l2.78-3.08c1.34-1.49,2.08-3.41,2.08-5.4,0-3.59-2.94-6.52-6.56-6.52h0Z"/>
    </g>
  </g>
</svg>