<?xml version="1.0" encoding="UTF-8"?>
<svg id="Layer_1" xmlns="http://www.w3.org/2000/svg" version="1.1" viewBox="0 0 56 56">
  <!-- Generator: Adobe Illustrator 30.1.0, SVG Export Plug-In . SVG Version: 2.1.1 Build 136)  -->
  <circle id="Outer" cx="28" cy="28" r="24.58" fill="none" stroke="#000" stroke-width="6.84"/>
  <g>
    <g>
      <rect x="26.23" y="36.5" width="3.51" height="3.51"/>
      <path d="M29.21,37.03v2.46h-2.46v-2.46h2.46M30.26,35.98h-4.56v4.56h4.56v-4.56h0Z"/>
    </g>
    <g>
      <path d="M26.24,32.76v-1.45c0-1.3.47-2.54,1.34-3.5l2.44-2.7c.58-.64.9-1.47.9-2.33,0-1.17-.96-2.11-2.13-2.11h-1.57c-1.18,0-2.13.95-2.13,2.11v.52h-3.53v-.52c0-3.1,2.54-5.63,5.66-5.63h1.57c3.12,0,5.66,2.52,5.66,5.63,0,1.73-.64,3.39-1.8,4.68l-2.44,2.7c-.3.33-.45.72-.45,1.15l-.02,1.45h-3.5Z"/>
      <path d="M28.78,17.67c2.83,0,5.14,2.29,5.14,5.1,0,1.6-.59,3.14-1.67,4.33l-2.44,2.7c-.38.42-.59.94-.59,1.5v.93h-2.47v-.93c0-1.17.43-2.28,1.21-3.15l2.44-2.7c.67-.74,1.03-1.69,1.03-2.68,0-1.45-1.19-2.64-2.66-2.64h-1.57c-1.46,0-2.66,1.18-2.66,2.64h-2.48c0-2.81,2.31-5.1,5.14-5.1h1.57M28.78,16.62h-1.57c-3.41,0-6.19,2.76-6.19,6.15v1.05h4.58v-1.05c0-.88.72-1.59,1.61-1.59h1.57c.89,0,1.61.71,1.61,1.59,0,.73-.27,1.44-.76,1.98l-2.44,2.7c-.96,1.06-1.48,2.42-1.49,3.85v.94s.02,1.04.02,1.04h4.54v-1.04s.02-.93.02-.93c0-.3.11-.57.32-.81l2.44-2.7c1.25-1.39,1.94-3.17,1.94-5.03,0-3.39-2.78-6.15-6.19-6.15h0Z"/>
    </g>
  </g>
</svg>