<?xml version="1.0" encoding="UTF-8"?>
<svg id="Layer_1" xmlns="http://www.w3.org/2000/svg" version="1.1" viewBox="0 0 56 56">
  <!-- Generator: Adobe Illustrator 30.1.0, SVG Export Plug-In . SVG Version: 2.1.1 Build 136)  -->
  <circle id="Outer" cx="28" cy="28" r="22.59" fill="none" stroke="#000" stroke-width="10.81"/>
  <g>
    <g>
      <rect x="26.2" y="34.98" width="3.57" height="3.57"/>
      <path d="M28.9,35.85v1.82h-1.82v-1.82h1.82M30.65,34.1h-5.32v5.32h5.32v-5.32h0Z"/>
    </g>
    <g>
      <path d="M26.21,31.65v-1.55c0-1.09.39-2.12,1.11-2.92l1.8-1.99c.35-.38.54-.88.54-1.4,0-.59-.49-1.07-1.09-1.07h-1.16c-.6,0-1.09.48-1.09,1.07v.88h-3.58v-.88c0-2.56,2.1-4.64,4.67-4.64h1.16c2.58,0,4.67,2.08,4.67,4.64,0,1.4-.52,2.74-1.46,3.78l-1.8,2c-.14.15-.21.33-.21.52v1.56h-3.57Z"/>
      <path d="M28.58,20.02c2.09,0,3.8,1.69,3.8,3.77,0,1.18-.44,2.32-1.23,3.2l-1.8,2c-.28.31-.43.69-.43,1.11v.69h-1.82v-.69c0-.86.31-1.68.89-2.32l1.8-1.99c.49-.55.76-1.25.76-1.98,0-1.07-.88-1.95-1.96-1.95h-1.16c-1.08,0-1.96.87-1.96,1.95h-1.83c0-2.08,1.7-3.77,3.8-3.77h1.16M28.58,18.27h-1.16c-3.06,0-5.55,2.48-5.55,5.52v1.75h5.33v-1.75c0-.11.1-.2.21-.2h1.16c.11,0,.21.09.21.2,0,.3-.11.59-.31.81l-1.8,1.99c-.87.96-1.35,2.2-1.35,3.49v.71s.02,1.73.02,1.73h5.28l.02-1.73v-.66s1.79-1.98,1.79-1.98c1.09-1.2,1.68-2.75,1.68-4.37,0-3.04-2.49-5.52-5.55-5.52h0Z"/>
    </g>
  </g>
</svg>