<?xml version="1.0" encoding="UTF-8"?>
<svg id="Layer_1" xmlns="http://www.w3.org/2000/svg" version="1.1" viewBox="0 0 79 79">
  <!-- Generator: Adobe Illustrator 30.1.0, SVG Export Plug-In . SVG Version: 2.1.1 Build 136)  -->
  <g>
    <g>
      <rect x="36.72" y="20.5" width="5.56" height="5.56"/>
      <path d="M41.79,20.99v4.58h-4.58v-4.58h4.58M42.78,20.01h-6.55v6.55h6.55v-6.55h0Z"/>
    </g>
    <g>
      <polygon points="32.14 58.38 32.14 52.82 36.72 52.82 36.72 39.52 32.14 39.52 32.14 33.96 42.28 33.96 42.28 52.82 46.86 52.82 46.86 58.38 32.14 58.38"/>
      <path d="M41.79,34.45v18.86h4.58v4.58h-13.73v-4.58h4.58v-14.29h-4.58v-4.58h9.15M42.78,33.46h-11.13v6.55h4.58v12.31h-4.58v6.55h15.7v-6.55h-4.58v-18.86h0Z"/>
    </g>
  </g>
  <circle id="Outer" cx="39.5" cy="39.5" r="36.07" fill="none" stroke="#000" stroke-width="6.86"/>
</svg>