<?xml version="1.0" encoding="UTF-8"?>
<svg id="Layer_1" xmlns="http://www.w3.org/2000/svg" version="1.1" viewBox="0 0 79 79">
  <!-- Generator: Adobe Illustrator 30.1.0, SVG Export Plug-In . SVG Version: 2.1.1 Build 136)  -->
  <g>
    <g>
      <rect x="36.68" y="21.51" width="5.65" height="5.65"/>
      <path d="M41.58,22.25v4.16h-4.16v-4.16h4.16M43.06,20.77h-7.13v7.13h7.13v-7.13h0Z"/>
    </g>
    <g>
      <polygon points="32.51 57.14 32.51 51.5 36.68 51.5 36.68 39.98 32.51 39.98 32.51 34.33 42.32 34.33 42.32 51.5 46.49 51.5 46.49 57.14 32.51 57.14"/>
      <path d="M41.58,35.07v17.17h4.16v4.16h-12.49v-4.16h4.16v-13h-4.16v-4.16h8.33M43.06,33.59h-11.29v7.13h4.16v10.04h-4.16v7.13h15.46v-7.13h-4.16v-17.17h0Z"/>
    </g>
  </g>
  <circle id="Outer" cx="39.5" cy="39.5" r="34.67" fill="none" stroke="#000" stroke-width="9.65"/>
</svg>