<?xml version="1.0" encoding="UTF-8"?>
<svg id="Layer_1" xmlns="http://www.w3.org/2000/svg" version="1.1" viewBox="0 0 79 79">
  <!-- Generator: Adobe Illustrator 30.1.0, SVG Export Plug-In . SVG Version: 2.1.1 Build 136)  -->
  <g>
    <g>
      <rect x="36.56" y="24.01" width="5.88" height="5.88"/>
      <path d="M41.08,25.37v3.17h-3.17v-3.17h3.17M43.8,22.66h-8.6v8.6h8.6v-8.6h0Z"/>
    </g>
    <g>
      <polygon points="33.39 54.13 33.39 48.25 36.56 48.25 36.56 41.07 33.39 41.07 33.39 35.19 42.44 35.19 42.44 48.25 45.61 48.25 45.61 54.13 33.39 54.13"/>
      <path d="M41.08,36.55v13.06h3.17v3.17h-9.5v-3.17h3.17v-9.89h-3.17v-3.17h6.33M43.8,33.83h-11.77v8.6h3.17v4.46h-3.17v8.6h14.93v-8.6h-3.17v-13.06h0Z"/>
    </g>
  </g>
  <circle id="Outer" cx="39.5" cy="39.5" r="31.18" fill="none" stroke="#000" stroke-width="16.64"/>
</svg>