<?xml version="1.0" encoding="UTF-8"?>
<svg id="Layer_1" xmlns="http://www.w3.org/2000/svg" version="1.1" viewBox="0 0 87 87">
  <!-- Generator: Adobe Illustrator 30.1.0, SVG Export Plug-In . SVG Version: 2.1.1 Build 136)  -->
  <path d="M43.5,7.56c1.17,0,2.34.61,2.95,1.82l7.52,14.93c1.29,2.56,3.7,4.37,6.51,4.9l16.27,3.05c2.54.48,3.58,3.57,1.83,5.48l-11.85,13.01c-1.83,2.01-2.68,4.72-2.32,7.42l2.31,17.54c.28,2.09-1.39,3.75-3.27,3.75-.5,0-1.01-.12-1.51-.37l-14.23-7.33c-1.32-.68-2.76-1.02-4.2-1.02s-2.88.34-4.2,1.02l-14.23,7.33c-.5.26-1.01.37-1.51.37-1.88,0-3.55-1.66-3.27-3.75l2.31-17.54c.35-2.69-.49-5.4-2.32-7.41l-11.85-13.01c-1.75-1.92-.71-5.01,1.83-5.49l16.27-3.05c2.81-.53,5.22-2.34,6.51-4.9l7.52-14.93c.61-1.21,1.78-1.82,2.95-1.82M43.5,0C39.37,0,35.66,2.29,33.8,5.98l-7.52,14.93c-.23.45-.66.78-1.15.87l-16.27,3.05c-3.87.72-7.05,3.49-8.3,7.23-1.25,3.74-.38,7.87,2.27,10.78l11.85,13.01c.33.36.48.84.41,1.33l-2.31,17.54c-.41,3.11.53,6.23,2.59,8.58,2.07,2.36,5.05,3.72,8.17,3.72,1.71,0,3.43-.42,4.97-1.21l14.23-7.33c.23-.12.48-.18.74-.18s.51.06.74.18l14.23,7.33c1.54.79,3.26,1.21,4.97,1.21,3.12,0,6.1-1.35,8.17-3.72,2.06-2.35,3-5.47,2.59-8.58l-2.31-17.54c-.06-.49.09-.97.42-1.34l11.85-13.01c2.65-2.91,3.52-7.04,2.27-10.78-1.25-3.73-4.43-6.5-8.3-7.23l-16.27-3.05c-.49-.09-.93-.42-1.15-.87l-7.52-14.93C51.34,2.29,47.62,0,43.5,0h0Z"/>
</svg>