<?xml version="1.0" encoding="UTF-8"?>
<svg id="Layer_1" xmlns="http://www.w3.org/2000/svg" version="1.1" viewBox="0 0 87 87">
  <!-- Generator: Adobe Illustrator 30.1.0, SVG Export Plug-In . SVG Version: 2.1.1 Build 136)  -->
  <path d="M43.5,16.8c.87,0,1.74.45,2.19,1.35l5.59,11.09c.96,1.9,2.75,3.25,4.84,3.64l12.08,2.27c1.89.35,2.66,2.65,1.36,4.07l-8.8,9.66c-1.36,1.49-1.99,3.51-1.73,5.51l1.72,13.03c.2,1.55-1.03,2.78-2.43,2.78-.37,0-.75-.09-1.12-.28l-10.57-5.44c-.98-.5-2.05-.76-3.12-.76s-2.14.25-3.12.76l-10.57,5.44c-.37.19-.75.28-1.12.28-1.4,0-2.64-1.23-2.43-2.78l1.72-13.03c.26-2-.37-4.01-1.72-5.5l-8.8-9.66c-1.3-1.42-.53-3.72,1.36-4.08l12.08-2.26c2.09-.39,3.88-1.74,4.83-3.64l5.59-11.09c.45-.9,1.32-1.35,2.19-1.35M43.5,0C36.18,0,29.6,4.06,26.3,10.59l-3.37,6.68-7.23,1.35c-6.86,1.29-12.49,6.19-14.71,12.81-2.22,6.62-.67,13.94,4.03,19.1l5.68,6.24-1.11,8.44c-.73,5.5.95,11.05,4.6,15.21,3.66,4.18,8.94,6.57,14.48,6.57,3.05,0,6.09-.74,8.81-2.14l6-3.09,6,3.09c2.72,1.4,5.77,2.14,8.81,2.14,5.54,0,10.82-2.4,14.48-6.57,3.65-4.17,5.33-9.71,4.6-15.21l-1.11-8.44,5.69-6.24c4.7-5.16,6.24-12.48,4.03-19.09-2.22-6.62-7.85-11.53-14.71-12.81l-7.23-1.36-3.37-6.68C57.4,4.06,50.81,0,43.5,0h0Z"/>
</svg>