<?xml version="1.0" encoding="UTF-8"?>
<svg id="Layer_1" xmlns="http://www.w3.org/2000/svg" version="1.1" viewBox="0 0 87 87">
  <!-- Generator: Adobe Illustrator 30.1.0, SVG Export Plug-In . SVG Version: 2.1.1 Build 136)  -->
  <path d="M43.5,10.63c1.07,0,2.14.55,2.7,1.66l6.88,13.65c1.18,2.34,3.38,4,5.96,4.48l14.88,2.79c2.33.44,3.27,3.26,1.67,5.01l-10.84,11.89c-1.67,1.84-2.45,4.32-2.13,6.78l2.12,16.04c.25,1.91-1.27,3.43-2.99,3.43-.46,0-.93-.11-1.38-.34l-13.01-6.7c-1.21-.62-2.52-.93-3.84-.93s-2.64.31-3.84.93l-13.01,6.7c-.45.23-.92.34-1.38.34-1.72,0-3.24-1.52-2.99-3.43l2.12-16.04c.32-2.46-.45-4.94-2.12-6.77l-10.84-11.89c-1.6-1.75-.65-4.58,1.67-5.02l14.88-2.79c2.57-.48,4.77-2.14,5.95-4.48l6.88-13.65c.56-1.11,1.63-1.66,2.7-1.66M43.5,0C38.31,0,33.64,2.88,31.31,7.51l-6.38,12.67-13.79,2.58c-4.86.91-8.86,4.39-10.43,9.08-1.57,4.69-.48,9.88,2.86,13.54l10.15,11.13-1.98,15.03c-.51,3.9.67,7.83,3.26,10.78,2.6,2.97,6.34,4.67,10.27,4.67,2.16,0,4.32-.53,6.25-1.52l11.99-6.17,11.99,6.17c1.93.99,4.09,1.52,6.25,1.52,3.93,0,7.67-1.7,10.27-4.67,2.59-2.95,3.78-6.88,3.26-10.78l-1.98-15.03,10.15-11.14c3.33-3.66,4.43-8.85,2.86-13.54-1.57-4.69-5.57-8.17-10.43-9.08l-13.79-2.58-6.38-12.67C53.35,2.88,48.68,0,43.5,0h0Z"/>
</svg>