<?xml version="1.0" encoding="UTF-8"?>
<svg id="Layer_1" xmlns="http://www.w3.org/2000/svg" version="1.1" viewBox="0 0 87 87">
  <!-- Generator: Adobe Illustrator 30.1.0, SVG Export Plug-In . SVG Version: 2.1.1 Build 136)  -->
  <path d="M43.5,13.73c.97,0,1.94.5,2.44,1.51l6.23,12.36c1.07,2.12,3.06,3.62,5.39,4.06l13.47,2.53c2.11.39,2.96,2.96,1.52,4.54l-9.82,10.77c-1.51,1.66-2.22,3.91-1.92,6.14l1.92,14.53c.23,1.73-1.15,3.11-2.71,3.11-.41,0-.84-.1-1.25-.31l-11.79-6.07c-1.09-.56-2.29-.84-3.48-.84-1.19,0-2.39.28-3.48.84l-11.79,6.07c-.41.21-.84.31-1.25.31-1.56,0-2.94-1.37-2.71-3.11l1.92-14.53c.29-2.23-.41-4.47-1.92-6.13l-9.82-10.77c-1.45-1.59-.59-4.15,1.52-4.54l13.47-2.53c2.33-.44,4.32-1.94,5.39-4.06l6.23-12.37c.51-1,1.47-1.51,2.44-1.51M43.5,0C37.24,0,31.61,3.47,28.8,9.06l-4.87,9.66-10.49,1.97c-5.86,1.1-10.68,5.3-12.58,10.96-1.9,5.66-.58,11.92,3.44,16.33l7.91,8.68-1.55,11.72c-.62,4.71.81,9.45,3.94,13.01,3.13,3.57,7.65,5.62,12.39,5.62,2.6,0,5.21-.63,7.54-1.83l8.98-4.63,8.98,4.63c2.33,1.2,4.93,1.83,7.54,1.83,4.74,0,9.25-2.05,12.39-5.62,3.12-3.56,4.56-8.3,3.94-13.01l-1.55-11.72,7.91-8.68c4.02-4.41,5.34-10.67,3.44-16.33-1.9-5.66-6.72-9.86-12.58-10.95l-10.5-1.97-4.87-9.66C55.39,3.47,49.75,0,43.5,0h0Z"/>
</svg>