<?xml version="1.0" encoding="UTF-8"?>
<svg id="Layer_1" xmlns="http://www.w3.org/2000/svg" version="1.1" viewBox="0 0 109 109">
  <!-- Generator: Adobe Illustrator 30.1.0, SVG Export Plug-In . SVG Version: 2.1.1 Build 136)  -->
  <g>
    <g>
      <rect x="50.55" y="31.07" width="7.91" height="7.91"/>
      <path d="M57.09,32.44v5.18h-5.18v-5.18h5.18M59.82,29.71h-10.63v10.63h10.63v-10.63h0Z"/>
    </g>
    <g>
      <polygon points="45.36 77.14 45.36 69.23 50.55 69.23 50.55 55.78 45.36 55.78 45.36 47.87 58.45 47.87 58.45 69.23 63.64 69.23 63.64 77.14 45.36 77.14"/>
      <path d="M57.09,49.23v21.37h5.18v5.18h-15.55v-5.18h5.18v-16.18h-5.18v-5.18h10.37M59.82,46.51h-15.82v10.63h5.18v10.73h-5.18v10.63h21v-10.63h-5.18v-21.37h0Z"/>
    </g>
  </g>
  <circle id="Outer" cx="54.5" cy="54.5" r="45.9" fill="none" stroke="#000" stroke-width="17.2"/>
</svg>