<?xml version="1.0" encoding="UTF-8"?>
<svg id="Layer_1" xmlns="http://www.w3.org/2000/svg" version="1.1" viewBox="0 0 109 109">
  <!-- Generator: Adobe Illustrator 30.1.0, SVG Export Plug-In . SVG Version: 2.1.1 Build 136)  -->
  <g>
    <g>
      <rect x="50.6" y="29.67" width="7.79" height="7.79"/>
      <path d="M57.37,30.7v5.75h-5.75v-5.75h5.75M59.42,28.65h-9.83v9.83h9.83v-9.83h0Z"/>
    </g>
    <g>
      <polygon points="44.86 78.84 44.86 71.05 50.6 71.05 50.6 55.16 44.86 55.16 44.86 47.37 58.39 47.37 58.39 71.05 64.14 71.05 64.14 78.84 44.86 78.84"/>
      <path d="M57.37,48.39v23.69h5.75v5.75h-17.24v-5.75h5.75v-17.94h-5.75v-5.75h11.49M59.42,46.35h-15.58v9.83h5.75v13.85h-5.75v9.83h21.33v-9.83h-5.75v-23.69h0Z"/>
    </g>
  </g>
  <circle id="Outer" cx="54.5" cy="54.5" r="47.84" fill="none" stroke="#000" stroke-width="13.32"/>
</svg>