<?xml version="1.0" encoding="UTF-8"?>
<svg id="Layer_1" xmlns="http://www.w3.org/2000/svg" version="1.1" viewBox="0 0 109 109">
  <!-- Generator: Adobe Illustrator 30.1.0, SVG Export Plug-In . SVG Version: 2.1.1 Build 136)  -->
  <g>
    <g>
      <rect x="50.69" y="27.6" width="7.62" height="7.62"/>
      <path d="M57.8,28.11v6.6h-6.6v-6.6h6.6M58.82,27.09h-8.64v8.64h8.64v-8.64h0Z"/>
    </g>
    <g>
      <polygon points="44.09 81.4 44.09 73.78 50.69 73.78 50.69 54.21 44.09 54.21 44.09 46.59 58.31 46.59 58.31 73.78 64.91 73.78 64.91 81.4 44.09 81.4"/>
      <path d="M57.8,47.1v27.2h6.6v6.6h-19.79v-6.6h6.6v-20.6h-6.6v-6.6h13.2M58.82,46.08h-15.24v8.64h6.6v18.55h-6.6v8.64h21.84v-8.64h-6.6v-27.2h0Z"/>
    </g>
  </g>
  <circle id="Outer" cx="54.5" cy="54.5" r="50.72" fill="none" stroke="#000" stroke-width="7.56"/>
</svg>