<?xml version="1.0" encoding="UTF-8"?>
<svg id="Layer_1" xmlns="http://www.w3.org/2000/svg" version="1.1" viewBox="0 0 28 28">
  <!-- Generator: Adobe Illustrator 30.1.0, SVG Export Plug-In . SVG Version: 2.1.1 Build 136)  -->
  <path d="M14,1.94c.39,0,.78.2.99.61l2.52,5.01c.43.86,1.24,1.47,2.18,1.64l5.46,1.02c.85.16,1.2,1.2.61,1.84l-3.98,4.36c-.61.67-.9,1.58-.78,2.49l.78,5.88c.09.7-.47,1.26-1.1,1.26-.17,0-.34-.04-.51-.12l-4.77-2.46c-.44-.23-.93-.34-1.41-.34s-.97.11-1.41.34l-4.77,2.46c-.17.09-.34.12-.51.12-.63,0-1.19-.56-1.1-1.26l.78-5.88c.12-.9-.17-1.81-.78-2.48l-3.98-4.36c-.59-.64-.24-1.68.61-1.84l5.46-1.02c.94-.18,1.75-.78,2.18-1.64l2.52-5.01c.2-.41.6-.61.99-.61M14,0C12.84,0,11.8.64,11.28,1.68l-2.52,5.01c-.16.32-.46.54-.81.61l-5.46,1.02c-1.09.2-1.98.98-2.33,2.03-.35,1.05-.11,2.21.64,3.03l3.98,4.36c.23.25.33.59.29.92l-.78,5.88c-.12.87.15,1.75.73,2.41.58.66,1.42,1.04,2.3,1.04.48,0,.96-.12,1.4-.34l4.77-2.46c.16-.08.34-.13.52-.13s.36.04.52.13l4.77,2.46c.43.22.92.34,1.4.34.88,0,1.71-.38,2.3-1.04.58-.66.84-1.54.73-2.41l-.78-5.88c-.04-.34.06-.67.29-.93l3.98-4.36c.75-.82.99-1.98.64-3.03-.35-1.05-1.24-1.83-2.33-2.03l-5.46-1.02c-.35-.06-.65-.29-.81-.61l-2.52-5.01C16.2.64,15.16,0,14,0h0Z"/>
</svg>