<?xml version="1.0" encoding="UTF-8"?>
<svg id="Layer_1" xmlns="http://www.w3.org/2000/svg" version="1.1" viewBox="0 0 28 28">
  <!-- Generator: Adobe Illustrator 30.1.0, SVG Export Plug-In . SVG Version: 2.1.1 Build 136)  -->
  <path d="M14,5.9c.26,0,.53.14.66.41l1.7,3.36c.29.58.83.99,1.47,1.1l3.67.69c.57.11.81.8.41,1.24l-2.67,2.93c-.41.45-.6,1.06-.52,1.67l.52,3.95c.06.47-.31.85-.74.85-.11,0-.23-.03-.34-.08l-3.21-1.65c-.3-.15-.62-.23-.95-.23-.33,0-.65.08-.95.23l-3.21,1.65c-.11.06-.23.08-.34.08-.42,0-.8-.37-.74-.85l.52-3.95c.08-.61-.11-1.22-.52-1.67l-2.67-2.93c-.39-.43-.16-1.13.41-1.24l3.67-.69c.63-.12,1.18-.53,1.47-1.1l1.7-3.37c.14-.27.4-.41.66-.41M14,0C11.48,0,9.2,1.4,8.07,3.65l-.84,1.68-1.81.34c-2.37.44-4.31,2.14-5.07,4.42-.76,2.28-.23,4.81,1.39,6.59l1.48,1.62-.29,2.19c-.25,1.9.33,3.81,1.59,5.25,1.26,1.44,3.08,2.27,5,2.27,1.05,0,2.1-.26,3.04-.74l1.45-.75,1.45.75c.94.48,1.99.74,3.04.74,1.91,0,3.73-.83,5-2.27,1.26-1.44,1.84-3.35,1.59-5.25l-.29-2.19,1.48-1.62c1.62-1.78,2.15-4.3,1.39-6.59-.76-2.28-2.71-3.98-5.07-4.42l-1.81-.34-.84-1.68C18.8,1.4,16.52,0,14,0h0Z"/>
</svg>