<?xml version="1.0" encoding="UTF-8"?>
<svg id="Layer_1" xmlns="http://www.w3.org/2000/svg" version="1.1" viewBox="0 0 28 28">
  <!-- Generator: Adobe Illustrator 30.1.0, SVG Export Plug-In . SVG Version: 2.1.1 Build 136)  -->
  <path d="M14,2.43c.38,0,.75.2.95.59l2.42,4.8c.42.82,1.19,1.41,2.1,1.58l5.24.98c.82.15,1.15,1.15.59,1.76l-3.81,4.19c-.59.65-.86,1.52-.75,2.39l.74,5.64c.09.67-.45,1.21-1.05,1.21-.16,0-.33-.04-.49-.12l-4.58-2.36c-.42-.22-.89-.33-1.35-.33-.46,0-.93.11-1.35.33l-4.58,2.36c-.16.08-.33.12-.49.12-.61,0-1.14-.53-1.05-1.21l.74-5.65c.11-.87-.16-1.74-.75-2.38l-3.81-4.19c-.56-.62-.23-1.61.59-1.77l5.23-.98c.91-.17,1.68-.75,2.09-1.58l2.42-4.8c.2-.39.57-.59.95-.59M14,0c-1.33,0-2.52.74-3.12,1.92l-2.42,4.8c-.07.15-.21.25-.37.28l-5.23.98c-1.24.23-2.27,1.12-2.67,2.33-.4,1.2-.12,2.53.73,3.47l3.81,4.19c.11.12.15.27.13.43l-.74,5.65c-.13,1,.17,2.01.83,2.76.67.76,1.63,1.2,2.63,1.2.55,0,1.1-.13,1.6-.39l4.58-2.36c.07-.04.16-.06.24-.06.08,0,.17.02.24.06l4.58,2.36c.5.25,1.05.39,1.6.39,1.01,0,1.96-.44,2.63-1.2.66-.75.97-1.76.83-2.76l-.74-5.64c-.02-.16.03-.31.13-.43l3.81-4.19c.85-.94,1.13-2.27.73-3.47-.4-1.2-1.43-2.09-2.67-2.33l-5.24-.98c-.16-.03-.3-.13-.37-.28l-2.42-4.8c-.6-1.19-1.79-1.92-3.12-1.92h0Z"/>
</svg>