<?xml version="1.0" encoding="UTF-8"?>
<svg id="Layer_1" xmlns="http://www.w3.org/2000/svg" version="1.1" viewBox="0 0 28 28">
  <!-- Generator: Adobe Illustrator 30.1.0, SVG Export Plug-In . SVG Version: 2.1.1 Build 136)  -->
  <path d="M14,4.42c.31,0,.62.16.79.48l2,3.98c.34.68.99,1.17,1.74,1.31l4.34.81c.68.13.95.95.49,1.46l-3.16,3.47c-.49.53-.71,1.26-.62,1.98l.62,4.67c.07.56-.37,1-.87,1-.13,0-.27-.03-.4-.1l-3.79-1.95c-.35-.18-.74-.27-1.12-.27-.38,0-.77.09-1.12.27l-3.79,1.95c-.13.07-.27.1-.4.1-.5,0-.95-.44-.87-1l.62-4.68c.09-.72-.13-1.44-.62-1.97l-3.16-3.47c-.47-.51-.19-1.34.49-1.46l4.34-.81c.75-.14,1.39-.62,1.73-1.31l2-3.98c.16-.32.47-.48.79-.48M14,0C11.99,0,10.17,1.12,9.27,2.92l-1.57,3.11-3.38.63c-1.89.35-3.44,1.7-4.05,3.53-.61,1.82-.19,3.84,1.11,5.26l2.54,2.79-.5,3.77c-.2,1.51.26,3.04,1.27,4.19,1.01,1.15,2.46,1.81,3.99,1.81.84,0,1.68-.2,2.43-.59l2.89-1.49,2.89,1.49c.75.39,1.59.59,2.43.59,1.53,0,2.98-.66,3.99-1.81,1-1.15,1.47-2.67,1.27-4.19l-.5-3.77,2.55-2.79c1.29-1.42,1.72-3.43,1.11-5.26-.61-1.82-2.16-3.17-4.05-3.53l-3.38-.63-1.57-3.11C17.83,1.12,16.01,0,14,0h0Z"/>
</svg>