<?xml version="1.0" encoding="UTF-8"?>
<svg id="Layer_1" xmlns="http://www.w3.org/2000/svg" version="1.1" viewBox="0 0 53 53">
  <!-- Generator: Adobe Illustrator 30.1.0, SVG Export Plug-In . SVG Version: 2.1.1 Build 136)  -->
  <path d="M26.5,3.68c.74,0,1.48.38,1.87,1.15l4.77,9.48c.82,1.63,2.35,2.78,4.13,3.11l10.33,1.94c1.62.3,2.27,2.27,1.16,3.48l-7.53,8.26c-1.16,1.27-1.7,3-1.48,4.71l1.47,11.14c.18,1.33-.88,2.38-2.08,2.38-.32,0-.64-.07-.96-.24l-9.04-4.65c-.84-.43-1.75-.65-2.67-.65s-1.83.22-2.67.65l-9.04,4.65c-.32.16-.64.24-.96.24-1.19,0-2.25-1.05-2.08-2.38l1.47-11.14c.23-1.71-.31-3.43-1.47-4.7l-7.53-8.26c-1.11-1.22-.45-3.18,1.16-3.48l10.33-1.94c1.79-.33,3.31-1.48,4.13-3.11l4.78-9.48c.39-.77,1.13-1.15,1.87-1.15M26.5,0C24.31,0,22.33,1.22,21.34,3.18l-4.78,9.48c-.3.6-.87,1.03-1.53,1.15l-10.33,1.94c-2.06.39-3.75,1.86-4.41,3.84-.67,1.99-.2,4.18,1.21,5.73l7.53,8.26c.43.47.63,1.11.55,1.75l-1.47,11.14c-.22,1.65.28,3.31,1.38,4.56,1.1,1.26,2.69,1.98,4.35,1.98.91,0,1.82-.22,2.64-.64l9.04-4.65c.3-.16.64-.24.99-.24s.68.08.99.24l9.04,4.65c.82.42,1.73.64,2.64.64,1.66,0,3.24-.72,4.35-1.98,1.09-1.25,1.59-2.91,1.38-4.56l-1.47-11.14c-.08-.64.12-1.28.55-1.75l7.53-8.26c1.41-1.55,1.87-3.74,1.21-5.73-.66-1.98-2.35-3.46-4.41-3.84l-10.33-1.94c-.66-.12-1.23-.55-1.53-1.15l-4.77-9.48C30.67,1.22,28.69,0,26.5,0h0Z"/>
</svg>