<?xml version="1.0" encoding="UTF-8"?>
<svg id="Layer_1" xmlns="http://www.w3.org/2000/svg" version="1.1" viewBox="0 0 53 53">
  <!-- Generator: Adobe Illustrator 30.1.0, SVG Export Plug-In . SVG Version: 2.1.1 Build 136)  -->
  <path d="M26.5,4.6c.71,0,1.42.37,1.8,1.11l4.58,9.09c.79,1.56,2.25,2.66,3.97,2.99l9.91,1.86c1.55.29,2.18,2.17,1.11,3.34l-7.22,7.92c-1.11,1.22-1.63,2.88-1.42,4.52l1.41,10.68c.17,1.27-.85,2.28-1.99,2.28-.3,0-.62-.07-.92-.23l-8.67-4.46c-.8-.41-1.68-.62-2.56-.62s-1.76.21-2.56.62l-8.67,4.46c-.3.16-.62.23-.92.23-1.15,0-2.16-1.01-1.99-2.28l1.41-10.69c.22-1.64-.3-3.29-1.41-4.51l-7.22-7.92c-1.06-1.17-.43-3.05,1.12-3.34l9.91-1.86c1.71-.32,3.18-1.42,3.96-2.98l4.58-9.09c.37-.74,1.08-1.11,1.8-1.11M26.5,0C23.99,0,21.72,1.39,20.59,3.64l-4.58,9.09c-.14.28-.4.47-.7.53l-9.91,1.86c-2.36.44-4.29,2.13-5.06,4.4-.76,2.28-.23,4.79,1.38,6.57l7.22,7.92c.2.22.29.51.25.81l-1.41,10.69c-.25,1.89.33,3.8,1.58,5.23,1.26,1.44,3.08,2.26,4.98,2.26,1.04,0,2.09-.26,3.03-.74l8.67-4.46c.14-.07.29-.11.45-.11s.31.04.45.11l8.67,4.46c.94.48,1.98.74,3.03.74,1.9,0,3.72-.83,4.98-2.26,1.25-1.43,1.83-3.33,1.58-5.23l-1.41-10.68c-.04-.3.05-.59.25-.81l7.22-7.92c1.62-1.77,2.15-4.29,1.38-6.56-.76-2.27-2.7-3.96-5.05-4.4l-9.91-1.86c-.3-.06-.56-.26-.7-.53l-4.58-9.09C31.28,1.39,29.01,0,26.5,0h0Z"/>
</svg>