<?xml version="1.0" encoding="UTF-8"?>
<svg id="Layer_1" xmlns="http://www.w3.org/2000/svg" version="1.1" viewBox="0 0 74 74">
  <!-- Generator: Adobe Illustrator 30.1.0, SVG Export Plug-In . SVG Version: 2.1.1 Build 136)  -->
  <path d="M37,15.59c.7,0,1.39.36,1.76,1.08l4.48,8.89c.77,1.53,2.2,2.61,3.88,2.92l9.69,1.82c1.52.28,2.13,2.13,1.09,3.27l-7.06,7.75c-1.09,1.2-1.6,2.81-1.38,4.42l1.38,10.45c.16,1.25-.83,2.23-1.95,2.23-.3,0-.6-.07-.9-.22l-8.48-4.37c-.79-.4-1.65-.61-2.5-.61-.86,0-1.72.2-2.5.61l-8.48,4.37c-.3.15-.6.22-.9.22-1.12,0-2.11-.99-1.95-2.23l1.38-10.45c.21-1.6-.29-3.22-1.38-4.41l-7.06-7.75c-1.04-1.14-.43-2.98,1.09-3.27l9.69-1.82c1.68-.31,3.11-1.39,3.88-2.92l4.48-8.89c.36-.72,1.06-1.08,1.76-1.08M37,0c-6.67,0-12.68,3.7-15.68,9.66l-2.23,4.43-4.77.89c-6.25,1.17-11.39,5.65-13.41,11.68-2.02,6.03-.61,12.7,3.67,17.41l3.9,4.28-.76,5.8c-.66,5.02.87,10.07,4.2,13.87,3.34,3.81,8.15,5.99,13.2,5.99,2.78,0,5.56-.67,8.04-1.95l3.84-1.98,3.85,1.98c2.48,1.28,5.26,1.95,8.04,1.95,5.05,0,9.87-2.18,13.2-5.99,3.33-3.8,4.86-8.85,4.2-13.87l-.76-5.8,3.9-4.28c4.29-4.7,5.69-11.37,3.67-17.41-2.02-6.03-7.16-10.51-13.41-11.68l-4.77-.89-2.23-4.43C49.67,3.7,43.67,0,37,0h0Z"/>
</svg>