<?xml version="1.0" encoding="UTF-8"?>
<svg id="Layer_1" xmlns="http://www.w3.org/2000/svg" version="1.1" viewBox="0 0 74 74">
  <!-- Generator: Adobe Illustrator 30.1.0, SVG Export Plug-In . SVG Version: 2.1.1 Build 136)  -->
  <path d="M37,5.13c1.04,0,2.07.54,2.61,1.61l6.67,13.23c1.14,2.27,3.28,3.88,5.77,4.34l14.42,2.7c2.25.42,3.17,3.16,1.62,4.86l-10.51,11.53c-1.62,1.78-2.38,4.19-2.06,6.57l2.05,15.55c.24,1.85-1.23,3.32-2.9,3.32-.44,0-.9-.1-1.34-.33l-12.62-6.5c-1.17-.6-2.45-.9-3.73-.9-1.28,0-2.56.3-3.73.9l-12.62,6.5c-.44.23-.9.33-1.34.33-1.67,0-3.15-1.47-2.9-3.32l2.05-15.55c.31-2.39-.44-4.79-2.06-6.57l-10.51-11.53c-1.55-1.7-.63-4.44,1.62-4.86l14.42-2.7c2.49-.47,4.63-2.07,5.77-4.34l6.67-13.24c.54-1.07,1.58-1.61,2.61-1.61M37,0c-3.06,0-5.82,1.7-7.2,4.44l-6.67,13.24c-.42.83-1.22,1.44-2.13,1.61l-14.42,2.7c-2.87.54-5.23,2.59-6.16,5.37-.93,2.77-.28,5.84,1.69,8l10.51,11.53c.6.66.88,1.55.76,2.44l-2.05,15.55c-.3,2.31.4,4.63,1.92,6.37,1.54,1.75,3.75,2.76,6.07,2.76,1.27,0,2.55-.31,3.69-.9l12.62-6.5c.42-.22.9-.33,1.38-.33.48,0,.95.12,1.38.33l12.62,6.5c1.14.59,2.42.9,3.69.9,2.32,0,4.53-1.01,6.07-2.76,1.53-1.74,2.23-4.06,1.92-6.37l-2.05-15.55c-.12-.89.16-1.78.77-2.45l10.51-11.53c1.97-2.16,2.62-5.23,1.69-8-.93-2.77-3.29-4.83-6.16-5.36l-14.42-2.7c-.92-.17-1.71-.77-2.13-1.61l-6.67-13.23c-1.38-2.74-4.14-4.44-7.2-4.44h0Z"/>
</svg>