<?xml version="1.0" encoding="UTF-8"?>
<svg id="Layer_1" xmlns="http://www.w3.org/2000/svg" version="1.1" viewBox="0 0 74 74">
  <!-- Generator: Adobe Illustrator 30.1.0, SVG Export Plug-In . SVG Version: 2.1.1 Build 136)  -->
  <path d="M37,14.29c.74,0,1.48.38,1.86,1.15l4.75,9.43c.82,1.62,2.34,2.76,4.11,3.1l10.28,1.93c1.61.3,2.26,2.25,1.16,3.46l-7.49,8.22c-1.16,1.27-1.69,2.98-1.47,4.69l1.46,11.08c.17,1.32-.88,2.37-2.07,2.37-.32,0-.64-.07-.95-.24l-8.99-4.63c-.83-.43-1.74-.64-2.66-.64s-1.82.21-2.66.64l-8.99,4.63c-.31.16-.64.24-.95.24-1.19,0-2.24-1.05-2.07-2.37l1.46-11.08c.22-1.7-.31-3.41-1.47-4.68l-7.49-8.22c-1.1-1.21-.45-3.17,1.16-3.47l10.28-1.93c1.78-.33,3.3-1.48,4.11-3.09l4.75-9.43c.39-.77,1.12-1.15,1.86-1.15M37,0c-6.22,0-11.83,3.45-14.63,9.01l-2.86,5.68-6.15,1.15c-5.83,1.09-10.63,5.27-12.51,10.9-1.89,5.63-.57,11.85,3.43,16.24l4.84,5.31-.95,7.18c-.62,4.68.81,9.4,3.92,12.94,3.11,3.55,7.61,5.59,12.32,5.59,0,0,0,0,0,0,2.59,0,5.18-.63,7.5-1.82l5.1-2.63,5.1,2.63c2.31,1.19,4.91,1.82,7.5,1.82,0,0,0,0,0,0,4.71,0,9.2-2.04,12.32-5.59,3.11-3.54,4.53-8.26,3.92-12.94l-.95-7.18,4.84-5.31c4-4.39,5.31-10.61,3.43-16.24-1.89-5.63-6.68-9.8-12.51-10.9l-6.15-1.15-2.86-5.68C48.83,3.45,43.22,0,37,0h0Z"/>
</svg>