<?xml version="1.0" encoding="UTF-8"?>
<svg id="Layer_1" xmlns="http://www.w3.org/2000/svg" version="1.1" viewBox="0 0 74 74">
  <!-- Generator: Adobe Illustrator 30.1.0, SVG Export Plug-In . SVG Version: 2.1.1 Build 136)  -->
  <path d="M37,9.04c.91,0,1.82.47,2.29,1.41l5.85,11.61c1,1.99,2.88,3.4,5.07,3.81l12.65,2.37c1.98.37,2.78,2.78,1.42,4.27l-9.22,10.12c-1.42,1.56-2.08,3.67-1.81,5.77l1.8,13.64c.21,1.63-1.08,2.92-2.55,2.92-.39,0-.79-.09-1.17-.29l-11.07-5.7c-1.03-.53-2.15-.79-3.27-.79s-2.24.26-3.27.79l-11.07,5.7c-.39.2-.79.29-1.17.29-1.46,0-2.76-1.29-2.55-2.92l1.8-13.65c.28-2.09-.38-4.2-1.81-5.76l-9.22-10.12c-1.36-1.49-.56-3.9,1.42-4.27l12.65-2.37c2.19-.41,4.06-1.82,5.06-3.81l5.85-11.61c.47-.94,1.38-1.41,2.29-1.41M37,0C32.59,0,28.62,2.45,26.63,6.39l-5.43,10.78-11.73,2.2c-4.13.78-7.53,3.74-8.87,7.73-1.34,3.99-.41,8.41,2.43,11.52l8.63,9.47-1.69,12.78c-.44,3.32.57,6.66,2.77,9.17,2.21,2.52,5.4,3.97,8.74,3.97,1.83,0,3.67-.45,5.31-1.29l10.2-5.25,10.2,5.25c1.64.85,3.48,1.29,5.31,1.29,3.34,0,6.52-1.45,8.74-3.97,2.2-2.51,3.21-5.85,2.77-9.17l-1.69-12.78,8.63-9.47c2.84-3.11,3.77-7.52,2.43-11.52-1.34-3.99-4.74-6.95-8.87-7.73l-11.73-2.2-5.43-10.78C45.38,2.45,41.41,0,37,0h0Z"/>
</svg>