<?xml version="1.0" encoding="UTF-8"?>
<svg id="Layer_1" xmlns="http://www.w3.org/2000/svg" version="1.1" viewBox="0 0 111 111">
  <!-- Generator: Adobe Illustrator 30.1.0, SVG Export Plug-In . SVG Version: 2.1.1 Build 136)  -->
  <path d="M55.5,9.64c1.49,0,2.98.77,3.76,2.32l9.59,19.04c1.65,3.27,4.72,5.58,8.31,6.25l20.75,3.89c3.24.61,4.56,4.55,2.33,7l-15.12,16.59c-2.33,2.56-3.42,6.02-2.96,9.46l2.95,22.37c.35,2.67-1.78,4.78-4.17,4.78-.64,0-1.29-.15-1.93-.47l-18.15-9.35c-1.68-.87-3.52-1.3-5.36-1.3-1.84,0-3.68.43-5.36,1.3l-18.15,9.35c-.63.33-1.29.47-1.93.47-2.4,0-4.53-2.11-4.18-4.78l2.95-22.38c.45-3.43-.63-6.89-2.96-9.45l-15.12-16.59c-2.23-2.44-.91-6.39,2.34-7l20.75-3.89c3.59-.67,6.66-2.98,8.3-6.25l9.6-19.05c.78-1.55,2.27-2.32,3.76-2.32M55.5,0C50.24,0,45.49,2.92,43.13,7.62l-9.6,19.05c-.29.58-.84.99-1.47,1.11l-20.75,3.89c-4.93.92-8.99,4.46-10.59,9.22-1.6,4.77-.49,10.04,2.9,13.75l15.12,16.59c.42.46.61,1.08.53,1.69l-2.95,22.38c-.52,3.96.68,7.95,3.31,10.95,2.64,3.01,6.44,4.74,10.43,4.74,2.19,0,4.38-.53,6.34-1.55l18.15-9.35c.3-.15.61-.23.95-.23.33,0,.66.08.95.23l18.15,9.35c1.96,1.01,4.16,1.54,6.34,1.54,3.99,0,7.79-1.73,10.43-4.74,2.62-2.99,3.83-6.98,3.31-10.95l-2.95-22.37c-.08-.62.11-1.24.53-1.7l15.12-16.59c3.38-3.71,4.5-8.98,2.9-13.75-1.6-4.76-5.65-8.3-10.58-9.22l-20.75-3.89c-.63-.12-1.18-.53-1.47-1.11l-9.59-19.04C65.5,2.92,60.76,0,55.5,0h0Z"/>
</svg>