<?xml version="1.0" encoding="UTF-8"?>
<svg id="Layer_1" xmlns="http://www.w3.org/2000/svg" version="1.1" viewBox="0 0 102 102">
  <!-- Generator: Adobe Illustrator 30.1.0, SVG Export Plug-In . SVG Version: 2.1.1 Build 136)  -->
  <g>
    <g>
      <rect x="47.3" y="29.08" width="7.4" height="7.4"/>
      <path d="M53.43,30.35v4.85h-4.85v-4.85h4.85M55.98,27.8h-9.95v9.95h9.95v-9.95h0Z"/>
    </g>
    <g>
      <polygon points="42.45 72.19 42.45 64.79 47.3 64.79 47.3 52.2 42.45 52.2 42.45 44.79 54.7 44.79 54.7 64.79 59.55 64.79 59.55 72.19 42.45 72.19"/>
      <path d="M53.43,46.07v19.99h4.85v4.85h-14.55v-4.85h4.85v-15.14h-4.85v-4.85h9.7M55.98,43.52h-14.8v9.95h4.85v10.04h-4.85v9.95h19.65v-9.95h-4.85v-19.99h0Z"/>
    </g>
  </g>
  <circle id="Outer" cx="51" cy="51" r="42.95" fill="none" stroke="#000" stroke-width="16.1"/>
</svg>