<?xml version="1.0" encoding="UTF-8"?>
<svg id="Layer_1" xmlns="http://www.w3.org/2000/svg" version="1.1" viewBox="0 0 102 102">
  <!-- Generator: Adobe Illustrator 30.1.0, SVG Export Plug-In . SVG Version: 2.1.1 Build 136)  -->
  <g>
    <g>
      <rect x="47.44" y="25.83" width="7.13" height="7.13"/>
      <path d="M54.09,26.3v6.17h-6.17v-6.17h6.17M55.04,25.35h-8.09v8.09h8.09v-8.09h0Z"/>
    </g>
    <g>
      <polygon points="41.26 76.17 41.26 69.04 47.44 69.04 47.44 50.73 41.26 50.73 41.26 43.6 54.57 43.6 54.57 69.04 60.74 69.04 60.74 76.17 41.26 76.17"/>
      <path d="M54.09,44.07v25.45h6.17v6.17h-18.52v-6.17h6.17v-19.28h-6.17v-6.17h12.35M55.04,43.12h-14.26v8.09h6.17v17.36h-6.17v8.09h20.43v-8.09h-6.17v-25.45h0Z"/>
    </g>
  </g>
  <circle id="Outer" cx="51" cy="51" r="47.46" fill="none" stroke="#000" stroke-width="7.08"/>
</svg>