<?xml version="1.0" encoding="UTF-8"?>
<svg id="Layer_1" xmlns="http://www.w3.org/2000/svg" version="1.1" viewBox="0 0 102 102">
  <!-- Generator: Adobe Illustrator 30.1.0, SVG Export Plug-In . SVG Version: 2.1.1 Build 136)  -->
  <g>
    <g>
      <rect x="47.36" y="27.77" width="7.29" height="7.29"/>
      <path d="M53.69,28.73v5.38h-5.38v-5.38h5.38M55.6,26.81h-9.2v9.2h9.2v-9.2h0Z"/>
    </g>
    <g>
      <polygon points="41.98 73.78 41.98 66.49 47.36 66.49 47.36 51.62 41.98 51.62 41.98 44.33 54.64 44.33 54.64 66.49 60.02 66.49 60.02 73.78 41.98 73.78"/>
      <path d="M53.69,45.28v22.16h5.38v5.38h-16.13v-5.38h5.38v-16.79h-5.38v-5.38h10.75M55.6,43.37h-14.58v9.2h5.38v12.96h-5.38v9.2h19.96v-9.2h-5.38v-22.16h0Z"/>
    </g>
  </g>
  <circle id="Outer" cx="51" cy="51" r="44.77" fill="none" stroke="#000" stroke-width="12.46"/>
</svg>