<?xml version="1.0" encoding="UTF-8"?>
<svg id="Layer_1" xmlns="http://www.w3.org/2000/svg" version="1.1" viewBox="0 0 53 53">
  <!-- Generator: Adobe Illustrator 30.1.0, SVG Export Plug-In . SVG Version: 2.1.1 Build 136)  -->
  <path d="M26.5,8.36c.59,0,1.18.31,1.49.92l3.79,7.53c.65,1.29,1.87,2.21,3.29,2.47l8.21,1.54c1.28.24,1.8,1.8.92,2.77l-5.98,6.56c-.92,1.01-1.35,2.38-1.17,3.74l1.17,8.85c.14,1.06-.7,1.89-1.65,1.89-.25,0-.51-.06-.76-.19l-7.18-3.7c-.67-.34-1.39-.51-2.12-.51-.73,0-1.46.17-2.12.51l-7.18,3.7c-.25.13-.51.19-.76.19-.95,0-1.79-.84-1.65-1.89l1.17-8.85c.18-1.36-.25-2.73-1.17-3.74l-5.98-6.56c-.88-.97-.36-2.53.92-2.77l8.21-1.54c1.42-.27,2.63-1.18,3.28-2.47l3.79-7.53c.31-.61.9-.92,1.49-.92M26.5,0C22.69,0,19.26,2.11,17.54,5.52l-2.97,5.89-6.39,1.2c-3.57.67-6.51,3.23-7.66,6.67-1.16,3.45-.35,7.26,2.1,9.95l4.82,5.28-.94,7.14c-.38,2.87.5,5.75,2.4,7.92,1.91,2.18,4.66,3.43,7.55,3.43,1.59,0,3.17-.39,4.59-1.12l5.47-2.82,5.47,2.82c1.42.73,3.01,1.12,4.59,1.12,2.89,0,5.64-1.25,7.55-3.43,1.9-2.17,2.78-5.06,2.4-7.92l-.94-7.14,4.82-5.29c2.45-2.69,3.25-6.5,2.1-9.95-1.15-3.45-4.09-6-7.66-6.67l-6.39-1.2-2.97-5.89C33.74,2.11,30.31,0,26.5,0h0Z"/>
</svg>