<?xml version="1.0" encoding="UTF-8"?>
<svg id="Layer_1" xmlns="http://www.w3.org/2000/svg" version="1.1" viewBox="0 0 53 53">
  <!-- Generator: Adobe Illustrator 30.1.0, SVG Export Plug-In . SVG Version: 2.1.1 Build 136)  -->
  <path d="M26.5,10.24c.53,0,1.06.27,1.33.82l3.4,6.75c.58,1.16,1.67,1.98,2.95,2.22l7.36,1.38c1.15.22,1.62,1.61.83,2.48l-5.36,5.89c-.83.91-1.21,2.14-1.05,3.36l1.05,7.94c.12.95-.63,1.7-1.48,1.7-.23,0-.46-.05-.68-.17l-6.44-3.32c-.6-.31-1.25-.46-1.9-.46s-1.31.15-1.9.46l-6.44,3.32c-.22.12-.46.17-.68.17-.85,0-1.61-.75-1.48-1.7l1.05-7.94c.16-1.22-.22-2.44-1.05-3.35l-5.36-5.89c-.79-.87-.32-2.27.83-2.48l7.36-1.38c1.27-.24,2.36-1.06,2.95-2.22l3.4-6.76c.28-.55.81-.82,1.33-.82M26.5,0C22.04,0,18.03,2.47,16.02,6.45l-2.05,4.07-4.4.83c-4.18.78-7.61,3.77-8.96,7.8-1.35,4.03-.41,8.49,2.45,11.63l3.46,3.8-.68,5.14c-.44,3.35.58,6.73,2.81,9.27,2.23,2.54,5.45,4,8.82,4,1.86,0,3.71-.45,5.37-1.3l3.65-1.88,3.65,1.88c1.66.85,3.51,1.3,5.37,1.3,3.38,0,6.59-1.46,8.82-4,2.22-2.54,3.25-5.91,2.81-9.27l-.68-5.14,3.46-3.8c2.86-3.14,3.8-7.6,2.45-11.63-1.35-4.03-4.78-7.02-8.96-7.8l-4.4-.83-2.05-4.07C34.97,2.47,30.96,0,26.5,0h0Z"/>
</svg>