<?xml version="1.0" encoding="UTF-8"?>
<svg id="Layer_1" xmlns="http://www.w3.org/2000/svg" version="1.1" viewBox="0 0 53 53">
  <!-- Generator: Adobe Illustrator 30.1.0, SVG Export Plug-In . SVG Version: 2.1.1 Build 136)  -->
  <path d="M26.5,6.48c.65,0,1.3.34,1.64,1.01l4.19,8.32c.72,1.43,2.06,2.44,3.63,2.73l9.06,1.7c1.42.27,1.99,1.99,1.02,3.05l-6.6,7.25c-1.02,1.12-1.49,2.63-1.29,4.13l1.29,9.77c.15,1.17-.78,2.09-1.82,2.09-.28,0-.56-.06-.84-.21l-7.93-4.08c-.73-.38-1.54-.57-2.34-.57s-1.61.19-2.34.57l-7.93,4.08c-.28.14-.56.21-.84.21-1.05,0-1.98-.92-1.82-2.09l1.29-9.77c.2-1.5-.28-3.01-1.29-4.13l-6.6-7.25c-.97-1.07-.4-2.79,1.02-3.06l9.06-1.7c1.57-.29,2.91-1.3,3.63-2.73l4.19-8.32c.34-.68.99-1.01,1.64-1.01M26.5,0C23.34,0,20.5,1.75,19.07,4.58l-3.89,7.72-8.4,1.57c-2.96.56-5.4,2.68-6.35,5.53-.96,2.86-.29,6.02,1.74,8.25l6.18,6.78-1.21,9.15c-.31,2.38.41,4.77,1.99,6.57,1.58,1.81,3.86,2.84,6.26,2.84,1.31,0,2.63-.32,3.81-.93l7.3-3.76,7.3,3.76c1.18.61,2.49.93,3.81.93,2.39,0,4.67-1.04,6.26-2.84,1.58-1.8,2.3-4.19,1.99-6.57l-1.21-9.15,6.18-6.78c2.03-2.23,2.7-5.39,1.74-8.25-.96-2.86-3.39-4.98-6.35-5.53l-8.4-1.57-3.89-7.72C32.5,1.75,29.66,0,26.5,0h0Z"/>
</svg>