<?xml version="1.0" encoding="UTF-8"?>
<svg id="Layer_1" xmlns="http://www.w3.org/2000/svg" version="1.1" viewBox="0 0 53 53">
  <!-- Generator: Adobe Illustrator 30.1.0, SVG Export Plug-In . SVG Version: 2.1.1 Build 136)  -->
  <path d="M26.5,11.16c.5,0,1,.26,1.26.78l3.21,6.37c.55,1.09,1.58,1.87,2.78,2.09l6.94,1.3c1.09.2,1.53,1.52.78,2.34l-5.06,5.55c-.78.86-1.14,2.01-.99,3.16l.99,7.48c.12.89-.59,1.6-1.4,1.6-.21,0-.43-.05-.64-.16l-6.07-3.13c-.56-.29-1.18-.43-1.79-.43-.62,0-1.23.14-1.79.43l-6.07,3.13c-.21.11-.43.16-.64.16-.8,0-1.51-.71-1.4-1.6l.99-7.49c.15-1.15-.21-2.31-.99-3.16l-5.06-5.55c-.75-.82-.3-2.14.78-2.34l6.94-1.3c1.2-.22,2.23-1,2.78-2.09l3.21-6.37c.26-.52.76-.78,1.26-.78M26.5,0C21.72,0,17.42,2.65,15.27,6.92l-1.6,3.17-3.42.64c-4.48.84-8.16,4.04-9.61,8.37-1.45,4.32-.44,9.1,2.63,12.47l2.79,3.06-.55,4.15c-.47,3.59.62,7.21,3.01,9.93,2.39,2.73,5.84,4.29,9.46,4.29,1.99,0,3.98-.48,5.75-1.4l2.75-1.42,2.75,1.42c1.78.91,3.77,1.4,5.75,1.4,3.62,0,7.07-1.56,9.46-4.29,2.38-2.72,3.48-6.34,3.01-9.93l-.55-4.15,2.79-3.07c3.07-3.37,4.08-8.14,2.63-12.47-1.45-4.32-5.13-7.53-9.6-8.36l-3.42-.64-1.6-3.17C35.58,2.65,31.28,0,26.5,0h0Z"/>
</svg>