<?xml version="1.0" encoding="UTF-8"?>
<svg id="Layer_1" xmlns="http://www.w3.org/2000/svg" version="1.1" viewBox="0 0 35 35">
  <!-- Generator: Adobe Illustrator 30.1.0, SVG Export Plug-In . SVG Version: 2.1.1 Build 136)  -->
  <path d="M17.5,6.76c.35,0,.7.18.88.54l2.25,4.46c.39.77,1.11,1.31,1.95,1.46l4.86.91c.76.14,1.07,1.07.55,1.64l-3.54,3.89c-.55.6-.8,1.41-.69,2.22l.69,5.24c.08.63-.42,1.12-.98,1.12-.15,0-.3-.03-.45-.11l-4.25-2.19c-.39-.2-.83-.3-1.26-.3-.43,0-.86.1-1.26.3l-4.25,2.19c-.15.08-.3.11-.45.11-.56,0-1.06-.5-.98-1.12l.69-5.24c.11-.8-.15-1.61-.69-2.21l-3.54-3.89c-.52-.57-.21-1.5.55-1.64l4.86-.91c.84-.16,1.56-.7,1.94-1.46l2.25-4.46c.18-.36.53-.54.88-.54M17.5,0C14.56,0,11.91,1.63,10.58,4.26l-1.35,2.69-2.91.54c-2.76.52-5.03,2.49-5.92,5.15-.89,2.66-.27,5.61,1.62,7.68l2.29,2.51-.45,3.4c-.29,2.21.38,4.44,1.85,6.12,1.47,1.68,3.6,2.64,5.83,2.64,1.23,0,2.45-.3,3.55-.86l2.41-1.24,2.41,1.24c1.09.56,2.32.86,3.55.86,2.23,0,4.35-.96,5.83-2.64,1.47-1.68,2.14-3.91,1.85-6.12l-.45-3.4,2.29-2.51c1.89-2.08,2.51-5.02,1.62-7.68-.89-2.66-3.16-4.64-5.92-5.15l-2.91-.55-1.35-2.69C23.09,1.63,20.44,0,17.5,0h0Z"/>
</svg>