<?xml version="1.0" encoding="UTF-8"?>
<svg id="Layer_1" xmlns="http://www.w3.org/2000/svg" version="1.1" viewBox="0 0 35 35">
  <!-- Generator: Adobe Illustrator 30.1.0, SVG Export Plug-In . SVG Version: 2.1.1 Build 136)  -->
  <path d="M17.5,5.52c.39,0,.78.2.98.61l2.51,4.97c.43.85,1.23,1.46,2.17,1.63l5.42,1.02c.85.16,1.19,1.19.61,1.83l-3.95,4.33c-.61.67-.89,1.57-.77,2.47l.77,5.84c.09.7-.46,1.25-1.09,1.25-.17,0-.34-.04-.5-.12l-4.74-2.44c-.44-.23-.92-.34-1.4-.34-.48,0-.96.11-1.4.34l-4.74,2.44c-.17.09-.34.12-.5.12-.63,0-1.18-.55-1.09-1.25l.77-5.85c.12-.9-.16-1.8-.77-2.47l-3.95-4.33c-.58-.64-.24-1.67.61-1.83l5.42-1.02c.94-.18,1.74-.78,2.17-1.63l2.51-4.97c.2-.4.59-.61.98-.61M17.5,0C14.98,0,12.72,1.4,11.58,3.64l-1.96,3.89-4.22.79c-2.36.44-4.3,2.13-5.06,4.41-.76,2.28-.23,4.79,1.39,6.57l3.18,3.49-.62,4.71c-.25,1.89.33,3.8,1.58,5.23,1.26,1.44,3.08,2.26,4.98,2.26,1.05,0,2.1-.25,3.03-.74l3.61-1.86,3.61,1.86c.94.48,1.98.74,3.03.74,1.91,0,3.72-.82,4.98-2.26,1.26-1.43,1.83-3.34,1.58-5.23l-.62-4.71,3.18-3.49c1.62-1.77,2.15-4.29,1.39-6.57-.76-2.28-2.7-3.96-5.06-4.41l-4.22-.79-1.96-3.89C22.28,1.4,20.02,0,17.5,0h0Z"/>
</svg>