<?xml version="1.0" encoding="UTF-8"?>
<svg id="Layer_1" xmlns="http://www.w3.org/2000/svg" version="1.1" viewBox="0 0 35 35">
  <!-- Generator: Adobe Illustrator 30.1.0, SVG Export Plug-In . SVG Version: 2.1.1 Build 136)  -->
  <path d="M17.5,7.37c.33,0,.66.17.83.51l2.12,4.21c.36.72,1.04,1.23,1.83,1.38l4.58.86c.72.13,1.01,1.01.52,1.55l-3.34,3.66c-.52.57-.76,1.33-.65,2.09l.65,4.94c.08.59-.39,1.06-.92,1.06-.14,0-.29-.03-.43-.1l-4.01-2.06c-.37-.19-.78-.29-1.18-.29s-.81.1-1.18.29l-4.01,2.06c-.14.07-.28.1-.43.1-.53,0-1-.47-.92-1.06l.65-4.94c.1-.76-.14-1.52-.65-2.09l-3.34-3.67c-.49-.54-.2-1.41.52-1.55l4.58-.86c.79-.15,1.47-.66,1.83-1.38l2.12-4.21c.17-.34.5-.51.83-.51M17.5,0C14.35,0,11.5,1.75,10.09,4.57l-1.05,2.09-2.26.42c-2.96.55-5.39,2.67-6.34,5.52-.96,2.85-.29,6.01,1.74,8.23l1.84,2.02-.36,2.74c-.31,2.37.41,4.76,1.99,6.56,1.58,1.8,3.86,2.83,6.24,2.83,0,0,0,0,0,0,1.31,0,2.63-.32,3.8-.92l1.82-.94,1.82.94c1.17.6,2.49.92,3.8.92,2.39,0,4.67-1.03,6.24-2.83,1.57-1.8,2.3-4.19,1.99-6.56l-.36-2.74,1.84-2.02c2.03-2.22,2.69-5.38,1.74-8.23-.96-2.85-3.39-4.97-6.34-5.52l-2.26-.42-1.05-2.09C23.49,1.75,20.65,0,17.5,0h0Z"/>
</svg>