<?xml version="1.0" encoding="UTF-8"?>
<svg id="Layer_1" xmlns="http://www.w3.org/2000/svg" version="1.1" viewBox="0 0 55 55">
  <!-- Generator: Adobe Illustrator 30.1.0, SVG Export Plug-In . SVG Version: 2.1.1 Build 136)  -->
  <circle id="Outer" cx="27.5" cy="27.5" r="25.59" fill="none" stroke="#000" stroke-width="3.82"/>
  <g>
    <g>
      <rect x="25.76" y="36.94" width="3.44" height="3.44"/>
      <path d="M28.95,37.2v2.93h-2.93v-2.93h2.93M29.46,36.68h-3.96v3.96h3.96v-3.96h0Z"/>
    </g>
    <g>
      <path d="M25.76,33.1v-1.36c0-1.45.53-2.84,1.5-3.92l2.9-3.21c.75-.83,1.17-1.9,1.17-3.02,0-1.59-1.3-2.88-2.9-2.88h-1.86c-1.6,0-2.9,1.29-2.9,2.88v.26h-3.47v-.26c0-3.49,2.86-6.33,6.37-6.33h1.86c3.51,0,6.37,2.84,6.37,6.33,0,1.97-.73,3.86-2.05,5.32l-2.9,3.21c-.41.46-.63,1.01-.63,1.61v1.36h-3.45Z"/>
      <path d="M28.43,15.52c3.37,0,6.11,2.72,6.11,6.07,0,1.9-.71,3.73-1.99,5.15l-2.9,3.21c-.45.5-.7,1.11-.7,1.78v1.11h-2.94v-1.11c0-1.39.51-2.71,1.44-3.74l2.9-3.21c.79-.88,1.23-2.01,1.23-3.19,0-1.73-1.42-3.14-3.16-3.14h-1.86c-1.74,0-3.16,1.41-3.16,3.14h-2.95c0-3.35,2.74-6.07,6.11-6.07h1.86M28.43,15h-1.86c-3.66,0-6.63,2.95-6.63,6.59v.52h3.99v-.52c0-1.45,1.19-2.62,2.64-2.62h1.86c1.46,0,2.64,1.18,2.64,2.62,0,1.05-.39,2.06-1.1,2.85l-2.9,3.21c-1.02,1.12-1.58,2.57-1.58,4.09v1.11s.01.51.01.51h3.95v-.51s.02-1.11.02-1.11c0-.54.2-1.03.57-1.44l2.9-3.21c1.37-1.51,2.12-3.47,2.12-5.5,0-3.63-2.97-6.59-6.63-6.59h0Z"/>
    </g>
  </g>
</svg>