<?xml version="1.0" encoding="UTF-8"?>
<svg id="Layer_1" xmlns="http://www.w3.org/2000/svg" version="1.1" viewBox="0 0 55 55">
  <!-- Generator: Adobe Illustrator 30.1.0, SVG Export Plug-In . SVG Version: 2.1.1 Build 136)  -->
  <circle id="Outer" cx="27.5" cy="27.5" r="24.14" fill="none" stroke="#000" stroke-width="6.72"/>
  <g>
    <g>
      <rect x="25.76" y="35.85" width="3.45" height="3.45"/>
      <path d="M28.69,36.36v2.42h-2.42v-2.42h2.42M29.72,35.33h-4.48v4.48h4.48v-4.48h0Z"/>
    </g>
    <g>
      <path d="M25.77,32.17v-1.42c0-1.28.46-2.5,1.32-3.44l2.39-2.65c.57-.63.88-1.45.88-2.29,0-1.14-.94-2.07-2.09-2.07h-1.54c-1.15,0-2.09.93-2.09,2.07v.52h-3.47v-.52c0-3.05,2.5-5.53,5.56-5.53h1.54c3.07,0,5.56,2.48,5.56,5.53,0,1.7-.63,3.33-1.77,4.6l-2.39,2.65c-.29.32-.44.71-.45,1.13l-.02,1.43h-3.44Z"/>
      <path d="M28.27,17.35c2.78,0,5.05,2.25,5.05,5.01,0,1.57-.58,3.08-1.64,4.25l-2.39,2.65c-.37.41-.58.92-.58,1.47v.91h-2.43v-.91c0-1.15.42-2.24,1.19-3.09l2.39-2.65c.66-.73,1.02-1.66,1.02-2.64,0-1.43-1.17-2.59-2.61-2.59h-1.54c-1.44,0-2.61,1.16-2.61,2.59h-2.44c0-2.76,2.26-5.01,5.05-5.01h1.54M28.27,16.32h-1.54c-3.35,0-6.08,2.71-6.08,6.04v1.03h4.5v-1.03c0-.86.71-1.56,1.58-1.56h1.54c.87,0,1.58.7,1.58,1.56,0,.72-.27,1.41-.75,1.95l-2.39,2.65c-.94,1.04-1.46,2.38-1.46,3.78v.93s.02,1.02.02,1.02h4.46v-1.02s.02-.91.02-.91c0-.3.11-.56.31-.79l2.4-2.65c1.23-1.36,1.9-3.12,1.9-4.94,0-3.33-2.73-6.04-6.08-6.04h0Z"/>
    </g>
  </g>
</svg>