<?xml version="1.0" encoding="UTF-8"?>
<svg id="Layer_1" xmlns="http://www.w3.org/2000/svg" version="1.1" viewBox="0 0 55 55">
  <!-- Generator: Adobe Illustrator 30.1.0, SVG Export Plug-In . SVG Version: 2.1.1 Build 136)  -->
  <circle id="Outer" cx="27.5" cy="27.5" r="23.16" fill="none" stroke="#000" stroke-width="8.68"/>
  <g>
    <g>
      <rect x="25.75" y="35.1" width="3.47" height="3.47"/>
      <path d="M28.53,35.79v2.09h-2.09v-2.09h2.09M29.91,34.42h-4.84v4.84h4.84v-4.84h0Z"/>
    </g>
    <g>
      <path d="M25.76,31.6v-1.47c0-1.17.42-2.28,1.2-3.14l2.07-2.29c.45-.5.7-1.15.7-1.82,0-.86-.7-1.55-1.57-1.55h-1.33c-.87,0-1.57.7-1.57,1.55v.69h-3.48v-.69c0-2.77,2.27-5.02,5.05-5.02h1.33c2.79,0,5.05,2.25,5.05,5.02,0,1.53-.57,3-1.6,4.14l-2.07,2.3c-.21.23-.32.51-.32.82v1.48h-3.47Z"/>
      <path d="M28.17,18.53c2.41,0,4.37,1.95,4.37,4.34,0,1.36-.5,2.67-1.42,3.68l-2.07,2.3c-.32.35-.5.8-.5,1.27v.79h-2.1v-.79c0-.99.36-1.94,1.03-2.67l2.07-2.29c.57-.63.88-1.44.88-2.28,0-1.24-1.01-2.24-2.26-2.24h-1.33c-1.24,0-2.26,1.01-2.26,2.24h-2.11c0-2.39,1.96-4.34,4.37-4.34h1.33M28.17,17.16h-1.33c-3.17,0-5.74,2.56-5.74,5.71v1.38h4.86v-1.38c0-.48.4-.87.88-.87h1.33c.49,0,.88.39.88.87,0,.5-.19.99-.52,1.36l-2.07,2.29c-.89.99-1.39,2.26-1.39,3.59v.81s.02,1.36.02,1.36h4.82v-1.36s.02-.79.02-.79c0-.14.05-.26.15-.37l2.07-2.3c1.14-1.27,1.77-2.9,1.77-4.6,0-3.15-2.58-5.71-5.74-5.71h0Z"/>
    </g>
  </g>
</svg>