<?xml version="1.0" encoding="UTF-8"?>
<svg id="Layer_1" xmlns="http://www.w3.org/2000/svg" version="1.1" viewBox="0 0 55 55">
  <!-- Generator: Adobe Illustrator 30.1.0, SVG Export Plug-In . SVG Version: 2.1.1 Build 136)  -->
  <circle id="Outer" cx="27.5" cy="27.5" r="21.71" fill="none" stroke="#000" stroke-width="11.58"/>
  <g>
    <g>
      <rect x="25.72" y="33.98" width="3.53" height="3.53"/>
      <path d="M28.31,34.93v1.64h-1.64v-1.64h1.64M30.2,33.04h-5.42v5.42h5.42v-5.42h0Z"/>
    </g>
    <g>
      <path d="M25.73,30.84v-1.56c-.01-1.02.36-1.99,1.04-2.74l1.62-1.8c.29-.32.45-.73.45-1.16,0-.45-.37-.81-.82-.81h-1.04c-.45,0-.82.36-.82.81v.95h-3.54v-.95c0-2.4,1.96-4.35,4.37-4.35h1.04c2.41,0,4.37,1.95,4.37,4.35,0,1.3-.48,2.55-1.36,3.52l-1.63,1.8c-.1.11-.15.23-.15.37l-.02,1.56h-3.51Z"/>
      <path d="M28.02,20.2c1.89,0,3.42,1.53,3.42,3.4,0,1.07-.4,2.09-1.11,2.89l-1.62,1.8c-.25.28-.39.62-.39,1v.62h-1.65v-.62c0-.78.28-1.52.81-2.1l1.62-1.8c.44-.49.69-1.13.69-1.79,0-.97-.79-1.76-1.77-1.76h-1.04c-.98,0-1.77.79-1.77,1.76h-1.65c0-1.87,1.54-3.4,3.42-3.4h1.04M28.02,18.3h-1.04c-2.93,0-5.31,2.37-5.31,5.29v1.89h4.8l-.39.43c-.83.92-1.29,2.11-1.3,3.36v.64s.02,1.87.02,1.87h5.39l.02-1.87v-.47s1.54-1.7,1.54-1.7c1.03-1.14,1.6-2.62,1.6-4.15,0-2.92-2.38-5.29-5.31-5.29h0ZM27.1,23.73h.79c-.03.14-.09.28-.19.39l-.6.66v-1.05h0Z"/>
    </g>
  </g>
</svg>