<?xml version="1.0" encoding="UTF-8"?>
<svg id="Layer_1" xmlns="http://www.w3.org/2000/svg" version="1.1" viewBox="0 0 55 55">
  <!-- Generator: Adobe Illustrator 30.1.0, SVG Export Plug-In . SVG Version: 2.1.1 Build 136)  -->
  <circle id="Outer" cx="27.5" cy="27.5" r="25.11" fill="none" stroke="#000" stroke-width="4.78"/>
  <g>
    <g>
      <rect x="25.76" y="36.58" width="3.44" height="3.44"/>
      <path d="M28.86,36.92v2.76h-2.76v-2.76h2.76M29.55,36.24h-4.13v4.13h4.13v-4.13h0Z"/>
    </g>
    <g>
      <path d="M25.77,32.78v-1.38c0-1.39.51-2.72,1.44-3.75l2.73-3.02c.69-.76,1.07-1.75,1.07-2.77,0-1.44-1.18-2.61-2.63-2.61h-1.75c-1.45,0-2.63,1.17-2.63,2.61v.34h-3.47v-.34c0-3.34,2.74-6.06,6.1-6.06h1.75c3.36,0,6.1,2.72,6.1,6.06,0,1.88-.7,3.68-1.96,5.08l-2.73,3.02c-.37.41-.57.91-.57,1.45v1.38h-3.45Z"/>
      <path d="M28.38,16.13c3.17,0,5.75,2.56,5.75,5.71,0,1.79-.66,3.51-1.87,4.85l-2.73,3.02c-.42.47-.66,1.05-.66,1.68v1.04h-2.77v-1.04c0-1.31.48-2.55,1.36-3.52l2.73-3.02c.75-.83,1.16-1.89,1.16-3.01,0-1.63-1.33-2.95-2.97-2.95h-1.75c-1.64,0-2.97,1.32-2.97,2.95h-2.78c0-3.15,2.58-5.71,5.75-5.71h1.75M28.38,15.45h-1.75c-3.55,0-6.44,2.87-6.44,6.4v.69h4.15v-.69c0-1.25,1.03-2.27,2.29-2.27h1.75c1.26,0,2.29,1.02,2.29,2.27,0,.94-.35,1.84-.98,2.54l-2.73,3.02c-.99,1.09-1.54,2.51-1.54,3.98v1.05s.02.68.02.68h4.12v-.68s.02-1.04.02-1.04c0-.46.17-.88.48-1.22l2.73-3.02c1.32-1.46,2.05-3.35,2.05-5.31,0-3.53-2.89-6.4-6.44-6.4h0Z"/>
    </g>
  </g>
</svg>