<?xml version="1.0" encoding="UTF-8"?>
<svg id="Layer_1" xmlns="http://www.w3.org/2000/svg" version="1.1" viewBox="0 0 55 55">
  <!-- Generator: Adobe Illustrator 30.1.0, SVG Export Plug-In . SVG Version: 2.1.1 Build 136)  -->
  <circle id="Outer" cx="27.5" cy="27.5" r="22.19" fill="none" stroke="#000" stroke-width="10.62"/>
  <g>
    <g>
      <rect x="25.73" y="34.36" width="3.5" height="3.5"/>
      <path d="M28.38,35.21v1.79h-1.79v-1.79h1.79M30.1,33.5h-5.22v5.22h5.22v-5.22h0Z"/>
    </g>
    <g>
      <path d="M25.75,31.08v-1.53c0-1.07.38-2.08,1.09-2.87l1.77-1.96c.34-.38.53-.86.53-1.37,0-.58-.48-1.05-1.07-1.05h-1.14c-.59,0-1.07.47-1.07,1.05v.86h-3.52v-.86c0-2.51,2.06-4.56,4.59-4.56h1.14c2.53,0,4.59,2.05,4.59,4.56,0,1.37-.51,2.69-1.43,3.72l-1.77,1.96c-.14.15-.21.32-.21.51l-.02,1.53h-3.49Z"/>
      <path d="M28.07,19.66c2.06,0,3.73,1.66,3.73,3.7,0,1.16-.43,2.28-1.21,3.14l-1.77,1.96c-.27.3-.43.68-.43,1.09v.68h-1.79v-.68c0-.85.31-1.65.88-2.28l1.77-1.96c.48-.54.75-1.23.75-1.95,0-1.05-.86-1.91-1.93-1.91h-1.14c-1.06,0-1.93.86-1.93,1.91h-1.8c0-2.04,1.67-3.7,3.73-3.7h1.14M28.07,17.94h-1.14c-3,0-5.45,2.43-5.45,5.42v1.72h5.24v-1.72c0-.11.1-.19.21-.19h1.14c.11,0,.21.09.21.19,0,.29-.11.58-.31.8l-1.77,1.96c-.85.94-1.32,2.16-1.33,3.43v.7s.02,1.7.02,1.7h5.19l.02-1.7v-.65s1.76-1.94,1.76-1.94c1.07-1.18,1.65-2.71,1.65-4.29,0-2.99-2.44-5.42-5.45-5.42h0Z"/>
    </g>
  </g>
</svg>