<?xml version="1.0" encoding="UTF-8"?>
<svg id="Layer_1" xmlns="http://www.w3.org/2000/svg" version="1.1" viewBox="0 0 92 92">
  <!-- Generator: Adobe Illustrator 30.1.0, SVG Export Plug-In . SVG Version: 2.1.1 Build 136)  -->
  <path d="M46,6.38c1.29,0,2.58.67,3.25,2l8.29,16.45c1.42,2.82,4.08,4.82,7.18,5.4l17.93,3.36c2.8.53,3.94,3.93,2.02,6.04l-13.06,14.34c-2.02,2.21-2.95,5.2-2.56,8.17l2.55,19.33c.3,2.31-1.53,4.13-3.61,4.13-.55,0-1.12-.13-1.66-.41l-15.68-8.08c-1.45-.75-3.04-1.12-4.63-1.12s-3.18.37-4.63,1.12l-15.68,8.08c-.55.28-1.11.41-1.66.41-2.07,0-3.91-1.83-3.61-4.13l2.55-19.34c.39-2.97-.55-5.95-2.56-8.16l-13.07-14.34c-1.92-2.11-.79-5.52,2.02-6.05l17.93-3.36c3.1-.58,5.75-2.58,7.17-5.4l8.29-16.46c.67-1.34,1.96-2,3.25-2M46,0C42.19,0,38.76,2.11,37.05,5.51l-8.29,16.46c-.52,1.04-1.51,1.78-2.65,2l-17.93,3.36c-3.57.67-6.5,3.23-7.66,6.67-1.16,3.45-.35,7.26,2.1,9.95l13.07,14.34c.75.82,1.09,1.93.95,3.03l-2.55,19.34c-.38,2.87.49,5.75,2.39,7.92,1.91,2.18,4.66,3.43,7.54,3.43,1.58,0,3.16-.39,4.59-1.12l15.68-8.08c.53-.27,1.12-.41,1.71-.41s1.18.14,1.71.41l15.68,8.08c1.42.73,3.01,1.12,4.59,1.12,2.88,0,5.63-1.25,7.54-3.43,1.9-2.16,2.77-5.05,2.39-7.92l-2.55-19.33c-.15-1.11.2-2.22.95-3.04l13.06-14.34c2.45-2.69,3.25-6.5,2.1-9.95-1.15-3.44-4.09-6-7.66-6.67l-17.93-3.36c-1.14-.21-2.13-.96-2.65-2l-8.29-16.45C53.23,2.11,49.81,0,46,0h0Z"/>
</svg>