<?xml version="1.0" encoding="UTF-8"?>
<svg id="Layer_1" xmlns="http://www.w3.org/2000/svg" version="1.1" viewBox="0 0 92 92">
  <!-- Generator: Adobe Illustrator 30.1.0, SVG Export Plug-In . SVG Version: 2.1.1 Build 136)  -->
  <path d="M46,7.99c1.24,0,2.47.64,3.12,1.92l7.95,15.78c1.36,2.71,3.91,4.62,6.89,5.18l17.2,3.22c2.69.5,3.78,3.77,1.94,5.8l-12.53,13.75c-1.93,2.12-2.83,4.99-2.46,7.84l2.45,18.54c.29,2.21-1.47,3.96-3.46,3.96-.53,0-1.07-.12-1.6-.39l-15.05-7.75c-1.39-.72-2.92-1.08-4.44-1.08-1.53,0-3.05.36-4.44,1.08l-15.05,7.75c-.52.27-1.07.39-1.6.39-1.99,0-3.75-1.75-3.46-3.96l2.45-18.55c.38-2.85-.52-5.71-2.45-7.83l-12.53-13.75c-1.85-2.03-.75-5.3,1.94-5.8l17.2-3.22c2.97-.56,5.52-2.47,6.88-5.18l7.95-15.79c.65-1.28,1.88-1.92,3.12-1.92M46,0c-4.36,0-8.29,2.42-10.26,6.32l-7.95,15.79c-.24.48-.7.82-1.22.92l-17.2,3.22c-4.09.77-7.45,3.7-8.77,7.64-1.32,3.95-.4,8.32,2.4,11.4l12.53,13.75c.35.38.51.89.44,1.4l-2.45,18.55c-.43,3.28.57,6.59,2.74,9.07,2.19,2.5,5.34,3.93,8.64,3.93,1.81,0,3.63-.44,5.26-1.28l15.05-7.75c.25-.13.51-.19.78-.19.27,0,.54.07.79.19l15.05,7.75c1.63.84,3.44,1.28,5.26,1.28,0,0,0,0,0,0,3.3,0,6.45-1.43,8.64-3.93,2.17-2.48,3.17-5.79,2.74-9.07l-2.45-18.54c-.07-.52.09-1.03.44-1.41l12.53-13.75c2.81-3.08,3.73-7.44,2.4-11.4-1.32-3.95-4.68-6.88-8.77-7.64l-17.2-3.22c-.52-.1-.98-.44-1.22-.92l-7.95-15.78c-1.96-3.9-5.89-6.32-10.26-6.32h0Z"/>
</svg>