<?xml version="1.0" encoding="UTF-8"?>
<svg id="Layer_1" xmlns="http://www.w3.org/2000/svg" version="1.1" viewBox="0 0 92 92">
  <!-- Generator: Adobe Illustrator 30.1.0, SVG Export Plug-In . SVG Version: 2.1.1 Build 136)  -->
  <path d="M46,17.77c.92,0,1.84.48,2.32,1.43l5.91,11.72c1.01,2.01,2.9,3.44,5.11,3.85l12.78,2.4c2,.37,2.81,2.8,1.44,4.31l-9.31,10.22c-1.44,1.58-2.1,3.71-1.83,5.82l1.82,13.77c.22,1.64-1.09,2.94-2.57,2.94-.39,0-.8-.09-1.19-.29l-11.18-5.76c-1.04-.53-2.17-.8-3.3-.8s-2.27.27-3.3.8l-11.18,5.76c-.39.2-.79.29-1.19.29-1.48,0-2.79-1.3-2.57-2.94l1.82-13.78c.28-2.11-.39-4.24-1.82-5.82l-9.31-10.22c-1.37-1.51-.56-3.94,1.44-4.31l12.78-2.39c2.21-.41,4.1-1.84,5.11-3.85l5.91-11.73c.48-.95,1.4-1.43,2.32-1.43M46,0C38.26,0,31.3,4.29,27.82,11.2l-3.56,7.07-7.64,1.43c-7.25,1.36-13.21,6.55-15.56,13.55-2.34,7-.71,14.74,4.26,20.19l6.01,6.6-1.18,8.93c-.77,5.82,1.01,11.68,4.87,16.09,3.87,4.42,9.46,6.95,15.32,6.95,3.22,0,6.44-.78,9.32-2.26l6.34-3.27,6.34,3.27c2.88,1.48,6.1,2.26,9.32,2.26,5.86,0,11.44-2.53,15.32-6.95,3.86-4.4,5.64-10.27,4.87-16.09l-1.18-8.93,6.01-6.6c4.97-5.46,6.6-13.19,4.26-20.19-2.34-7-8.3-12.19-15.56-13.55l-7.65-1.43-3.56-7.07C60.7,4.29,53.73,0,46,0h0Z"/>
</svg>