<?xml version="1.0" encoding="UTF-8"?>
<svg id="Layer_1" xmlns="http://www.w3.org/2000/svg" version="1.1" viewBox="0 0 96 96">
  <!-- Generator: Adobe Illustrator 30.1.0, SVG Export Plug-In . SVG Version: 2.1.1 Build 136)  -->
  <path d="M48,8.34c1.29,0,2.58.67,3.25,2.01l8.3,16.47c1.42,2.83,4.08,4.83,7.19,5.41l17.95,3.36c2.81.53,3.95,3.94,2.02,6.05l-13.08,14.35c-2.02,2.21-2.96,5.21-2.56,8.18l2.55,19.35c.3,2.31-1.54,4.14-3.61,4.14-.55,0-1.12-.13-1.67-.41l-15.7-8.09c-1.46-.75-3.05-1.12-4.64-1.12-1.59,0-3.18.37-4.64,1.12l-15.7,8.09c-.55.28-1.11.41-1.67.41-2.08,0-3.92-1.83-3.61-4.14l2.55-19.36c.39-2.97-.55-5.96-2.56-8.17l-13.08-14.35c-1.93-2.11-.79-5.53,2.02-6.05l17.95-3.36c3.1-.58,5.76-2.58,7.18-5.4l8.3-16.47c.67-1.34,1.96-2.01,3.25-2.01M48,0c-4.55,0-8.65,2.53-10.7,6.59l-8.3,16.47c-.25.5-.73.86-1.27.96l-17.95,3.36c-4.27.8-7.78,3.86-9.16,7.98-1.38,4.12-.42,8.68,2.51,11.89l13.08,14.35c.36.4.53.93.46,1.46l-2.55,19.36c-.45,3.43.59,6.88,2.86,9.47,2.28,2.61,5.57,4.1,9.02,4.1,1.89,0,3.79-.46,5.48-1.34l15.7-8.09c.26-.13.53-.2.82-.2.28,0,.57.07.82.2l15.7,8.09c1.7.87,3.59,1.34,5.48,1.34,3.45,0,6.73-1.49,9.02-4.1,2.27-2.59,3.31-6.04,2.86-9.47l-2.55-19.35c-.07-.54.1-1.08.46-1.47l13.08-14.35c2.93-3.21,3.89-7.77,2.51-11.89-1.38-4.12-4.89-7.17-9.15-7.97l-17.95-3.36c-.55-.1-1.02-.46-1.27-.96l-8.3-16.47c-2.05-4.07-6.15-6.59-10.7-6.59h0Z"/>
</svg>