<?xml version="1.0" encoding="UTF-8"?>
<svg id="Layer_1" xmlns="http://www.w3.org/2000/svg" version="1.1" viewBox="0 0 96 96">
  <!-- Generator: Adobe Illustrator 30.1.0, SVG Export Plug-In . SVG Version: 2.1.1 Build 136)  -->
  <path d="M48,11.73c1.18,0,2.36.61,2.97,1.83l7.59,15.06c1.3,2.58,3.73,4.41,6.57,4.95l16.42,3.08c2.57.48,3.61,3.6,1.85,5.53l-11.96,13.12c-1.85,2.02-2.7,4.76-2.35,7.48l2.33,17.7c.28,2.11-1.4,3.78-3.3,3.78-.5,0-1.02-.12-1.52-.38l-14.36-7.39c-1.33-.69-2.79-1.03-4.24-1.03-1.46,0-2.91.34-4.24,1.03l-14.36,7.39c-.5.26-1.02.38-1.52.38-1.9,0-3.58-1.67-3.3-3.78l2.33-17.7c.36-2.72-.5-5.45-2.34-7.47l-11.96-13.13c-1.76-1.93-.72-5.06,1.85-5.54l16.41-3.08c2.84-.53,5.27-2.36,6.57-4.94l7.59-15.06c.62-1.22,1.8-1.83,2.97-1.83M48,0C42.28,0,37.12,3.18,34.55,8.29l-7.04,13.98-15.21,2.85c-5.36,1.01-9.77,4.85-11.51,10.02-1.74,5.18-.53,10.91,3.15,14.94l11.2,12.29-2.19,16.58c-.57,4.31.74,8.64,3.6,11.9,2.87,3.27,7,5.15,11.33,5.15,2.38,0,4.76-.58,6.89-1.68l13.23-6.81,13.23,6.81c2.13,1.1,4.51,1.68,6.89,1.68,4.33,0,8.46-1.88,11.33-5.15,2.85-3.26,4.17-7.59,3.6-11.9l-2.19-16.58,11.2-12.29c3.68-4.04,4.89-9.76,3.15-14.94-1.73-5.18-6.14-9.02-11.51-10.02l-15.22-2.85-7.04-13.98C58.87,3.18,53.72,0,48,0h0Z"/>
</svg>