<?xml version="1.0" encoding="UTF-8"?>
<svg id="Layer_1" xmlns="http://www.w3.org/2000/svg" version="1.1" viewBox="0 0 96 96">
  <!-- Generator: Adobe Illustrator 30.1.0, SVG Export Plug-In . SVG Version: 2.1.1 Build 136)  -->
  <path d="M48,6.66c1.34,0,2.69.7,3.39,2.09l8.65,17.17c1.48,2.95,4.25,5.03,7.49,5.64l18.71,3.51c2.93.55,4.11,4.1,2.11,6.31l-13.63,14.96c-2.1,2.31-3.08,5.43-2.67,8.53l2.66,20.17c.32,2.41-1.6,4.31-3.76,4.31-.57,0-1.16-.13-1.74-.43l-16.37-8.43c-1.52-.78-3.18-1.17-4.83-1.17-1.66,0-3.32.39-4.83,1.17l-16.37,8.43c-.57.29-1.16.43-1.74.43-2.16,0-4.08-1.91-3.76-4.31l2.66-20.18c.41-3.1-.57-6.21-2.67-8.52l-13.63-14.96c-2.01-2.2-.82-5.76,2.11-6.31l18.71-3.51c3.23-.61,6-2.69,7.49-5.63l8.65-17.17c.7-1.39,2.05-2.09,3.39-2.09M48,0C44.03,0,40.45,2.21,38.66,5.75l-8.65,17.17c-.55,1.08-1.58,1.86-2.76,2.08l-18.71,3.51c-3.72.7-6.79,3.37-7.99,6.96-1.21,3.6-.37,7.58,2.19,10.38l13.63,14.96c.78.86,1.14,2.01.99,3.16l-2.66,20.18c-.39,2.99.51,6,2.49,8.26,2,2.28,4.87,3.58,7.87,3.58,1.65,0,3.3-.4,4.78-1.17l16.37-8.43c.55-.28,1.17-.43,1.78-.43.62,0,1.24.15,1.79.43l16.37,8.43c1.48.76,3.14,1.17,4.78,1.17,3.01,0,5.88-1.31,7.87-3.58,1.98-2.26,2.89-5.27,2.49-8.26l-2.66-20.17c-.15-1.16.21-2.31.99-3.17l13.63-14.96c2.56-2.8,3.39-6.78,2.19-10.38-1.2-3.59-4.27-6.26-7.99-6.96l-18.71-3.51c-1.19-.22-2.22-1-2.77-2.09l-8.65-17.17C55.55,2.21,51.97,0,48,0h0Z"/>
</svg>