<?xml version="1.0" encoding="UTF-8"?>
<svg id="Layer_1" xmlns="http://www.w3.org/2000/svg" version="1.1" viewBox="0 0 74 74">
  <!-- Generator: Adobe Illustrator 30.1.0, SVG Export Plug-In . SVG Version: 2.1.1 Build 136)  -->
  <g>
    <g>
      <rect x="34.32" y="21.1" width="5.37" height="5.37"/>
      <path d="M38.76,22.02v3.52h-3.52v-3.52h3.52M40.61,20.17h-7.22v7.22h7.22v-7.22h0Z"/>
    </g>
    <g>
      <polygon points="30.8 52.37 30.8 47 34.32 47 34.32 37.87 30.8 37.87 30.8 32.5 39.68 32.5 39.68 47 43.2 47 43.2 52.37 30.8 52.37"/>
      <path d="M38.76,33.42v14.51h3.52v3.52h-10.56v-3.52h3.52v-10.99h-3.52v-3.52h7.04M40.61,31.57h-10.74v7.22h3.52v7.29h-3.52v7.22h14.26v-7.22h-3.52v-14.51h0Z"/>
    </g>
  </g>
  <circle id="Outer" cx="37" cy="37" r="31.16" fill="none" stroke="#000" stroke-width="11.68"/>
</svg>