<?xml version="1.0" encoding="UTF-8"?>
<svg id="Layer_1" xmlns="http://www.w3.org/2000/svg" version="1.1" viewBox="0 0 74 74">
  <!-- Generator: Adobe Illustrator 30.1.0, SVG Export Plug-In . SVG Version: 2.1.1 Build 136)  -->
  <g>
    <g>
      <rect x="34.27" y="22.03" width="5.46" height="5.46"/>
      <path d="M38.57,23.19v3.15h-3.15v-3.15h3.15M40.89,20.88h-7.77v7.77h7.77v-7.77h0Z"/>
    </g>
    <g>
      <polygon points="31.12 51.25 31.12 45.79 34.27 45.79 34.27 38.27 31.12 38.27 31.12 32.81 39.73 32.81 39.73 45.79 42.88 45.79 42.88 51.25 31.12 51.25"/>
      <path d="M38.57,33.97v12.98h3.15v3.15h-9.44v-3.15h3.15v-9.83h-3.15v-3.15h6.3M40.89,31.66h-10.92v7.77h3.15v5.2h-3.15v7.77h14.07v-7.77h-3.15v-12.98h0Z"/>
    </g>
  </g>
  <circle id="Outer" cx="37" cy="37" r="29.85" fill="none" stroke="#000" stroke-width="14.29"/>
</svg>