<?xml version="1.0" encoding="UTF-8"?>
<svg id="Layer_1" xmlns="http://www.w3.org/2000/svg" version="1.1" viewBox="0 0 74 74">
  <!-- Generator: Adobe Illustrator 30.1.0, SVG Export Plug-In . SVG Version: 2.1.1 Build 136)  -->
  <g>
    <g>
      <rect x="34.39" y="19.2" width="5.21" height="5.21"/>
      <path d="M39.14,19.67v4.29h-4.29v-4.29h4.29M40.07,18.74h-6.14v6.14h6.14v-6.14h0Z"/>
    </g>
    <g>
      <polygon points="30.11 54.69 30.11 49.47 34.39 49.47 34.39 37.02 30.11 37.02 30.11 31.81 39.61 31.81 39.61 49.47 43.89 49.47 43.89 54.69 30.11 54.69"/>
      <path d="M39.14,32.27v17.67h4.29v4.29h-12.86v-4.29h4.29v-13.38h-4.29v-4.29h8.57M40.07,31.34h-10.42v6.14h4.29v11.53h-4.29v6.14h14.71v-6.14h-4.29v-17.67h0Z"/>
    </g>
  </g>
  <circle id="Outer" cx="37" cy="37" r="33.79" fill="none" stroke="#000" stroke-width="6.43"/>
</svg>