<?xml version="1.0" encoding="UTF-8"?>
<svg id="Layer_1" xmlns="http://www.w3.org/2000/svg" version="1.1" viewBox="0 0 74 74">
  <!-- Generator: Adobe Illustrator 30.1.0, SVG Export Plug-In . SVG Version: 2.1.1 Build 136)  -->
  <g>
    <g>
      <rect x="34.41" y="18.74" width="5.17" height="5.17"/>
      <path d="M39.24,19.08v4.48h-4.48v-4.48h4.48M39.93,18.39h-5.87v5.87h5.87v-5.87h0Z"/>
    </g>
    <g>
      <polygon points="29.93 55.26 29.93 50.09 34.41 50.09 34.41 36.8 29.93 36.8 29.93 31.63 39.59 31.63 39.59 50.09 44.07 50.09 44.07 55.26 29.93 55.26"/>
      <path d="M39.24,31.97v18.46h4.48v4.48h-13.44v-4.48h4.48v-13.98h-4.48v-4.48h8.96M39.93,31.28h-10.35v5.87h4.48v12.6h-4.48v5.87h14.83v-5.87h-4.48v-18.46h0Z"/>
    </g>
  </g>
  <circle id="Outer" cx="37" cy="37" r="34.43" fill="none" stroke="#000" stroke-width="5.13"/>
</svg>