<?xml version="1.0" encoding="UTF-8"?>
<svg id="Layer_1" xmlns="http://www.w3.org/2000/svg" version="1.1" viewBox="0 0 88 88">
  <!-- Generator: Adobe Illustrator 30.1.0, SVG Export Plug-In . SVG Version: 2.1.1 Build 136)  -->
  <g>
    <g>
      <rect x="40.85" y="23.96" width="6.29" height="6.29"/>
      <path d="M46.32,24.78v4.64h-4.64v-4.64h4.64M47.97,23.13h-7.94v7.94h7.94v-7.94h0Z"/>
    </g>
    <g>
      <polygon points="36.22 63.65 36.22 57.36 40.85 57.36 40.85 44.53 36.22 44.53 36.22 38.24 47.14 38.24 47.14 57.36 51.78 57.36 51.78 63.65 36.22 63.65"/>
      <path d="M46.32,39.07v19.12h4.64v4.64h-13.92v-4.64h4.64v-14.48h-4.64v-4.64h9.28M47.97,37.42h-12.58v7.94h4.64v11.18h-4.64v7.94h17.22v-7.94h-4.64v-19.12h0Z"/>
    </g>
  </g>
  <circle id="Outer" cx="44" cy="44" r="38.62" fill="none" stroke="#000" stroke-width="10.75"/>
</svg>