<?xml version="1.0" encoding="UTF-8"?>
<svg id="Layer_1" xmlns="http://www.w3.org/2000/svg" version="1.1" viewBox="0 0 88 88">
  <!-- Generator: Adobe Illustrator 30.1.0, SVG Export Plug-In . SVG Version: 2.1.1 Build 136)  -->
  <g>
    <g>
      <rect x="40.75" y="26.2" width="6.49" height="6.49"/>
      <path d="M45.87,27.58v3.74h-3.74v-3.74h3.74M48.62,24.83h-9.24v9.24h9.24v-9.24h0Z"/>
    </g>
    <g>
      <polygon points="37.01 60.95 37.01 54.45 40.75 54.45 40.75 45.52 37.01 45.52 37.01 39.02 47.25 39.02 47.25 54.45 50.99 54.45 50.99 60.95 37.01 60.95"/>
      <path d="M45.87,40.4v15.43h3.74v3.74h-11.23v-3.74h3.74v-11.69h-3.74v-3.74h7.49M48.62,37.65h-12.99v9.24h3.74v6.19h-3.74v9.24h16.73v-9.24h-3.74v-15.43h0Z"/>
    </g>
  </g>
  <circle id="Outer" cx="44" cy="44" r="35.5" fill="none" stroke="#000" stroke-width="17"/>
</svg>