<?xml version="1.0" encoding="UTF-8"?>
<svg id="Layer_1" xmlns="http://www.w3.org/2000/svg" version="1.1" viewBox="0 0 107 107">
  <!-- Generator: Adobe Illustrator 30.1.0, SVG Export Plug-In . SVG Version: 2.1.1 Build 136)  -->
  <path d="M53.5,20.66c1.07,0,2.14.55,2.69,1.66l6.87,13.64c1.18,2.34,3.38,4,5.95,4.48l14.86,2.79c2.32.44,3.27,3.26,1.67,5.01l-10.83,11.88c-1.67,1.83-2.45,4.31-2.12,6.77l2.11,16.02c.25,1.91-1.27,3.43-2.99,3.43-.46,0-.92-.11-1.38-.34l-13-6.69c-1.21-.62-2.52-.93-3.84-.93s-2.63.31-3.84.93l-13,6.69c-.45.23-.92.34-1.38.34-1.72,0-3.24-1.51-2.99-3.43l2.11-16.03c.32-2.46-.45-4.94-2.12-6.77l-10.83-11.88c-1.6-1.75-.65-4.58,1.67-5.01l14.86-2.79c2.57-.48,4.77-2.14,5.95-4.47l6.87-13.64c.56-1.11,1.63-1.66,2.69-1.66M53.5,0c-9,0-17.1,4.99-21.15,13.03l-4.14,8.22-8.89,1.67c-8.43,1.58-15.37,7.62-18.09,15.76-2.73,8.14-.83,17.14,4.95,23.49l6.99,7.67-1.37,10.38c-.89,6.77,1.17,13.59,5.66,18.71,4.5,5.14,11,8.08,17.81,8.08,3.75,0,7.5-.91,10.84-2.63l7.38-3.8,7.38,3.8c3.34,1.72,7.09,2.63,10.84,2.63,6.82,0,13.31-2.95,17.81-8.08,4.49-5.12,6.56-11.94,5.66-18.71l-1.37-10.38,6.99-7.67c5.78-6.34,7.68-15.34,4.95-23.48-2.73-8.14-9.66-14.17-18.09-15.76l-8.89-1.67-4.14-8.22C70.6,4.99,62.5,0,53.5,0h0Z"/>
</svg>