<?xml version="1.0" encoding="UTF-8"?>
<svg id="Layer_1" xmlns="http://www.w3.org/2000/svg" version="1.1" viewBox="0 0 107 107">
  <!-- Generator: Adobe Illustrator 30.1.0, SVG Export Plug-In . SVG Version: 2.1.1 Build 136)  -->
  <path d="M53.5,13.07c1.31,0,2.63.68,3.32,2.04l8.46,16.79c1.45,2.88,4.16,4.92,7.32,5.51l18.3,3.43c2.86.54,4.02,4.01,2.06,6.17l-13.33,14.63c-2.06,2.26-3.01,5.31-2.61,8.34l2.6,19.72c.31,2.35-1.56,4.22-3.68,4.22-.56,0-1.14-.13-1.7-.42l-16-8.24c-1.48-.76-3.11-1.15-4.73-1.15-1.62,0-3.24.38-4.73,1.15l-16,8.24c-.56.29-1.14.42-1.7.42-2.12,0-3.99-1.86-3.68-4.22l2.6-19.73c.4-3.03-.56-6.08-2.61-8.33l-13.33-14.63c-1.96-2.16-.8-5.63,2.06-6.17l18.3-3.43c3.16-.59,5.87-2.63,7.32-5.51l8.46-16.79c.69-1.36,2-2.04,3.32-2.04M53.5,0C47.12,0,41.38,3.54,38.51,9.24l-7.85,15.58-16.96,3.18c-5.98,1.12-10.89,5.4-12.83,11.17-1.93,5.77-.59,12.16,3.51,16.66l12.48,13.69-2.44,18.48c-.63,4.8.83,9.63,4.01,13.26,3.2,3.65,7.8,5.74,12.63,5.74,2.65,0,5.31-.65,7.68-1.87l14.75-7.59,14.75,7.59c2.37,1.22,5.03,1.87,7.68,1.87,4.83,0,9.43-2.09,12.63-5.74,3.18-3.63,4.64-8.46,4.01-13.26l-2.44-18.48,12.48-13.7c4.1-4.5,5.45-10.88,3.51-16.65-1.93-5.77-6.85-10.05-12.82-11.17l-16.96-3.18-7.85-15.58C65.62,3.54,59.88,0,53.5,0h0Z"/>
</svg>