<?xml version="1.0" encoding="UTF-8"?>
<svg id="Layer_1" xmlns="http://www.w3.org/2000/svg" version="1.1" viewBox="0 0 61 61">
  <!-- Generator: Adobe Illustrator 30.1.0, SVG Export Plug-In . SVG Version: 2.1.1 Build 136)  -->
  <path d="M30.5,7.45c.75,0,1.5.39,1.89,1.17l4.82,9.57c.83,1.64,2.37,2.8,4.18,3.14l10.43,1.96c1.63.31,2.29,2.29,1.17,3.52l-7.6,8.34c-1.17,1.29-1.72,3.03-1.49,4.75l1.48,11.24c.18,1.34-.89,2.4-2.1,2.4-.32,0-.65-.07-.97-.24l-9.12-4.7c-.85-.44-1.77-.65-2.69-.65s-1.85.22-2.69.65l-9.12,4.7c-.32.16-.65.24-.97.24-1.21,0-2.28-1.06-2.1-2.4l1.48-11.25c.23-1.73-.32-3.46-1.49-4.75l-7.6-8.34c-1.12-1.23-.46-3.21,1.17-3.52l10.43-1.96c1.8-.34,3.35-1.5,4.17-3.14l4.82-9.57c.39-.78,1.14-1.17,1.89-1.17M30.5,0h0c-3.64,0-6.91,2.02-8.55,5.27l-4.48,8.88-9.67,1.81c-3.41.64-6.21,3.08-7.31,6.37-1.1,3.29-.34,6.93,2,9.5l7.11,7.81-1.39,10.54c-.36,2.74.47,5.49,2.29,7.56,1.82,2.08,4.45,3.27,7.2,3.27,1.51,0,3.03-.37,4.38-1.07l8.41-4.33,8.41,4.33c1.35.7,2.87,1.07,4.38,1.07,2.75,0,5.38-1.19,7.2-3.27,1.81-2.07,2.65-4.82,2.29-7.56l-1.39-10.54,7.12-7.81c2.34-2.56,3.1-6.2,2-9.49-1.1-3.29-3.9-5.73-7.31-6.37l-9.67-1.81-4.48-8.88C37.41,2.02,34.13,0,30.5,0h0Z"/>
</svg>