<?xml version="1.0" encoding="UTF-8"?>
<svg id="Layer_1" xmlns="http://www.w3.org/2000/svg" version="1.1" viewBox="0 0 61 61">
  <!-- Generator: Adobe Illustrator 30.1.0, SVG Export Plug-In . SVG Version: 2.1.1 Build 136)  -->
  <path d="M30.5,9.63c.68,0,1.36.35,1.71,1.06l4.37,8.67c.75,1.49,2.15,2.54,3.78,2.85l9.45,1.77c1.48.28,2.08,2.07,1.06,3.18l-6.88,7.55c-1.06,1.17-1.56,2.74-1.35,4.31l1.34,10.18c.16,1.22-.81,2.18-1.9,2.18-.29,0-.59-.07-.88-.22l-8.26-4.26c-.77-.39-1.6-.59-2.44-.59-.84,0-1.67.2-2.44.59l-8.26,4.26c-.29.15-.59.22-.88.22-1.09,0-2.06-.96-1.9-2.18l1.34-10.19c.21-1.56-.29-3.14-1.35-4.3l-6.88-7.55c-1.01-1.11-.41-2.91,1.06-3.19l9.45-1.77c1.63-.31,3.03-1.36,3.78-2.84l4.37-8.67c.35-.7,1.03-1.06,1.71-1.06M30.5,0C26.11,0,22.16,2.43,20.19,6.35l-3.41,6.78-7.36,1.38c-4.11.77-7.49,3.71-8.82,7.68-1.33,3.97-.4,8.36,2.41,11.45l5.54,6.08-1.08,8.22c-.44,3.3.57,6.62,2.76,9.12,2.2,2.51,5.36,3.94,8.68,3.94,1.83,0,3.65-.44,5.28-1.28l6.3-3.24,6.3,3.24c1.63.84,3.46,1.28,5.28,1.28,3.32,0,6.49-1.44,8.68-3.94,2.19-2.5,3.19-5.82,2.76-9.12l-1.08-8.22,5.54-6.08c2.82-3.09,3.74-7.48,2.41-11.45-1.33-3.97-4.71-6.91-8.82-7.68l-7.36-1.38-3.41-6.78C38.84,2.43,34.88,0,30.5,0h0Z"/>
</svg>