<?xml version="1.0" encoding="UTF-8"?>
<svg id="Layer_1" xmlns="http://www.w3.org/2000/svg" version="1.1" viewBox="0 0 61 61">
  <!-- Generator: Adobe Illustrator 30.1.0, SVG Export Plug-In . SVG Version: 2.1.1 Build 136)  -->
  <path d="M30.5,11.78c.61,0,1.22.32,1.54.95l3.92,7.77c.67,1.33,1.93,2.28,3.39,2.55l8.47,1.59c1.32.25,1.86,1.86.95,2.86l-6.17,6.77c-.95,1.05-1.4,2.46-1.21,3.86l1.2,9.13c.14,1.09-.72,1.95-1.7,1.95-.26,0-.53-.06-.79-.19l-7.41-3.82c-.69-.35-1.44-.53-2.19-.53s-1.5.18-2.19.53l-7.41,3.82c-.26.13-.53.19-.79.19-.98,0-1.85-.86-1.7-1.95l1.2-9.14c.18-1.4-.26-2.81-1.21-3.86l-6.17-6.77c-.91-1-.37-2.61.95-2.86l8.47-1.59c1.46-.27,2.72-1.22,3.39-2.55l3.92-7.78c.32-.63.93-.95,1.54-.95M30.5,0c-5.13,0-9.75,2.85-12.06,7.43l-2.36,4.69-5.07.95c-4.81.9-8.76,4.34-10.31,8.98-1.55,4.64-.47,9.77,2.82,13.39l3.99,4.37-.78,5.92c-.51,3.86.67,7.74,3.23,10.67,2.57,2.93,6.27,4.61,10.16,4.61,2.14,0,4.27-.52,6.18-1.5l4.21-2.17,4.21,2.17c1.91.98,4.04,1.5,6.18,1.5,3.89,0,7.59-1.68,10.16-4.61,2.56-2.92,3.74-6.81,3.23-10.67l-.78-5.92,3.99-4.38c3.3-3.62,4.38-8.75,2.82-13.39-1.55-4.64-5.51-8.08-10.31-8.98l-5.07-.95-2.36-4.69c-2.31-4.58-6.93-7.43-12.06-7.43h0Z"/>
</svg>