<?xml version="1.0" encoding="UTF-8"?>
<svg id="Layer_1" xmlns="http://www.w3.org/2000/svg" version="1.1" viewBox="0 0 61 61">
  <!-- Generator: Adobe Illustrator 30.1.0, SVG Export Plug-In . SVG Version: 2.1.1 Build 136)  -->
  <path d="M30.5,5.3c.82,0,1.64.42,2.07,1.27l5.27,10.47c.9,1.8,2.59,3.07,4.57,3.44l11.41,2.14c1.78.33,2.51,2.5,1.28,3.84l-8.31,9.12c-1.28,1.41-1.88,3.31-1.63,5.2l1.62,12.3c.19,1.47-.98,2.63-2.29,2.63-.35,0-.71-.08-1.06-.26l-9.98-5.14c-.92-.48-1.94-.71-2.95-.71s-2.02.24-2.95.71l-9.98,5.14c-.35.18-.71.26-1.06.26-1.32,0-2.49-1.16-2.29-2.63l1.62-12.3c.25-1.89-.35-3.79-1.63-5.19l-8.31-9.12c-1.22-1.34-.5-3.51,1.28-3.85l11.4-2.14c1.97-.37,3.66-1.64,4.56-3.43l5.27-10.47c.43-.85,1.25-1.27,2.07-1.27M30.5,0C27.61,0,25,1.61,23.7,4.19l-5.27,10.47c-.16.32-.46.54-.81.61l-11.4,2.14c-2.71.51-4.94,2.45-5.82,5.07-.88,2.62-.27,5.52,1.59,7.56l8.31,9.12c.23.25.34.59.29.93l-1.62,12.3c-.29,2.18.38,4.37,1.82,6.02,1.45,1.66,3.54,2.61,5.73,2.61,1.2,0,2.41-.29,3.48-.85l9.98-5.14c.16-.08.34-.13.52-.13s.36.04.52.13l9.98,5.14c1.08.56,2.28.85,3.48.85,2.19,0,4.28-.95,5.73-2.61,1.44-1.64,2.1-3.84,1.82-6.02l-1.62-12.3c-.05-.34.06-.68.29-.94l8.31-9.12c1.86-2.04,2.47-4.94,1.59-7.56-.88-2.62-3.11-4.56-5.82-5.07l-11.41-2.14c-.35-.06-.65-.29-.81-.61l-5.27-10.47C36,1.61,33.39,0,30.5,0h0Z"/>
</svg>