<?xml version="1.0" encoding="UTF-8"?>
<svg id="Layer_1" xmlns="http://www.w3.org/2000/svg" version="1.1" viewBox="0 0 61 61">
  <!-- Generator: Adobe Illustrator 30.1.0, SVG Export Plug-In . SVG Version: 2.1.1 Build 136)  -->
  <path d="M30.5,12.85c.57,0,1.15.3,1.45.89l3.69,7.33c.63,1.26,1.82,2.15,3.2,2.41l7.99,1.5c1.25.23,1.76,1.75.9,2.69l-5.82,6.39c-.9.99-1.32,2.32-1.14,3.64l1.14,8.61c.14,1.03-.68,1.84-1.61,1.84-.24,0-.5-.06-.74-.18l-6.99-3.6c-.65-.33-1.36-.5-2.06-.5s-1.42.17-2.06.5l-6.99,3.6c-.24.13-.5.18-.74.18-.92,0-1.74-.81-1.61-1.84l1.14-8.62c.17-1.32-.24-2.65-1.14-3.64l-5.82-6.39c-.86-.94-.35-2.46.9-2.69l7.99-1.5c1.38-.26,2.56-1.15,3.2-2.41l3.69-7.33c.3-.6.87-.89,1.45-.89M30.5,0C25,0,20.05,3.05,17.58,7.96l-1.84,3.65-3.93.74c-5.15.97-9.39,4.65-11.06,9.63-1.67,4.97-.51,10.47,3.03,14.35l3.21,3.53-.63,4.78c-.55,4.13.72,8.3,3.46,11.43,2.75,3.14,6.72,4.94,10.88,4.94,2.29,0,4.58-.56,6.62-1.61l3.17-1.63,3.17,1.63c2.04,1.05,4.33,1.61,6.62,1.61,4.17,0,8.13-1.8,10.88-4.94,2.74-3.13,4.01-7.3,3.46-11.43l-.63-4.78,3.22-3.53c3.53-3.88,4.69-9.37,3.03-14.35-1.67-4.97-5.9-8.66-11.05-9.63l-3.93-.74-1.84-3.65C40.95,3.05,36,0,30.5,0h0Z"/>
</svg>