<?xml version="1.0" encoding="UTF-8"?>
<svg id="Layer_1" xmlns="http://www.w3.org/2000/svg" version="1.1" viewBox="0 0 24 24">
  <!-- Generator: Adobe Illustrator 30.1.0, SVG Export Plug-In . SVG Version: 2.1.1 Build 136)  -->
  <path d="M12,2.93c.29,0,.59.15.74.46l1.9,3.77c.33.65.93,1.1,1.64,1.24l4.1.77c.64.12.9.9.46,1.38l-2.99,3.28c-.46.51-.68,1.19-.59,1.87l.58,4.42c.07.53-.35.95-.83.95-.13,0-.26-.03-.38-.09l-3.59-1.85c-.33-.17-.7-.26-1.06-.26s-.73.09-1.06.26l-3.59,1.85c-.13.06-.25.09-.38.09-.47,0-.9-.42-.83-.95l.58-4.43c.09-.68-.12-1.36-.59-1.87l-2.99-3.28c-.44-.48-.18-1.26.46-1.38l4.1-.77c.71-.13,1.32-.59,1.64-1.24l1.9-3.77c.15-.31.45-.46.74-.46M12,0C10.57,0,9.28.79,8.64,2.07l-1.76,3.5-3.8.71c-1.34.25-2.44,1.21-2.88,2.51-.43,1.3-.13,2.73.79,3.74l2.8,3.07-.55,4.15c-.14,1.08.19,2.16.9,2.97.72.82,1.75,1.29,2.83,1.29.59,0,1.19-.15,1.72-.42l3.31-1.7,3.31,1.7c.53.27,1.13.42,1.72.42,1.08,0,2.12-.47,2.83-1.29.71-.81,1.04-1.9.9-2.97l-.55-4.15,2.8-3.07c.92-1.01,1.22-2.44.79-3.74-.43-1.29-1.54-2.25-2.88-2.51l-3.8-.71-1.76-3.5C14.72.79,13.43,0,12,0h0Z"/>
</svg>