<?xml version="1.0" encoding="UTF-8"?>
<svg id="Layer_1" xmlns="http://www.w3.org/2000/svg" version="1.1" viewBox="0 0 24 24">
  <!-- Generator: Adobe Illustrator 30.1.0, SVG Export Plug-In . SVG Version: 2.1.1 Build 136)  -->
  <path d="M12,1.67c.34,0,.67.17.85.52l2.16,4.29c.37.74,1.06,1.26,1.87,1.41l4.68.88c.73.14,1.03,1.03.53,1.58l-3.41,3.74c-.53.58-.77,1.36-.67,2.13l.67,5.04c.08.6-.4,1.08-.94,1.08-.14,0-.29-.03-.43-.11l-4.09-2.11c-.38-.2-.79-.29-1.21-.29-.41,0-.83.1-1.21.29l-4.09,2.11c-.14.07-.29.11-.43.11-.54,0-1.02-.48-.94-1.08l.67-5.04c.1-.77-.14-1.55-.67-2.13l-3.41-3.74c-.5-.55-.21-1.44.53-1.58l4.68-.88c.81-.15,1.5-.67,1.87-1.41l2.16-4.29c.18-.35.51-.52.85-.52M12,0c-.99,0-1.89.55-2.33,1.44l-2.16,4.29c-.14.27-.39.47-.69.52l-4.68.88c-.93.17-1.7.84-2,1.74-.3.9-.09,1.89.55,2.6l3.41,3.74c.2.21.29.5.25.79l-.67,5.04c-.1.75.13,1.5.62,2.07.5.57,1.22.9,1.97.9.41,0,.83-.1,1.2-.29l4.09-2.11c.14-.07.29-.11.45-.11.15,0,.31.04.45.11l4.09,2.11c.37.19.78.29,1.2.29.75,0,1.47-.33,1.97-.9.49-.56.72-1.32.62-2.07l-.67-5.04c-.04-.29.05-.58.25-.79l3.41-3.74c.64-.7.85-1.7.55-2.59-.3-.9-1.07-1.57-2-1.74l-4.68-.88c-.3-.06-.56-.25-.69-.52l-2.16-4.29c-.45-.89-1.34-1.44-2.33-1.44h0Z"/>
</svg>