<?xml version="1.0" encoding="UTF-8"?>
<svg id="Layer_1" xmlns="http://www.w3.org/2000/svg" version="1.1" viewBox="0 0 24 24">
  <!-- Generator: Adobe Illustrator 30.1.0, SVG Export Plug-In . SVG Version: 2.1.1 Build 136)  -->
  <path d="M12,2.09c.32,0,.64.17.81.5l2.07,4.12c.36.71,1.02,1.21,1.8,1.35l4.49.84c.7.13.99.98.5,1.51l-3.27,3.59c-.5.55-.74,1.3-.64,2.05l.64,4.84c.08.58-.38,1.03-.9,1.03-.14,0-.28-.03-.42-.1l-3.93-2.02c-.36-.19-.76-.28-1.16-.28s-.8.09-1.16.28l-3.93,2.02c-.14.07-.28.1-.42.1-.52,0-.98-.46-.9-1.03l.64-4.84c.1-.74-.14-1.49-.64-2.04l-3.27-3.59c-.48-.53-.2-1.38.51-1.51l4.49-.84c.78-.15,1.44-.64,1.8-1.35l2.07-4.12c.17-.33.49-.5.81-.5M12,0C10.86,0,9.84.63,9.32,1.65l-2.07,4.12c-.06.12-.18.21-.32.24l-4.49.84c-1.07.2-1.94.96-2.29,1.99-.35,1.03-.11,2.17.63,2.97l3.27,3.59c.09.1.13.23.11.37l-.64,4.84c-.11.86.15,1.72.71,2.37.57.65,1.39,1.03,2.25,1.03.47,0,.95-.12,1.37-.33l3.93-2.02c.06-.03.13-.05.2-.05s.14.02.2.05l3.93,2.02c.42.22.9.33,1.37.33.86,0,1.68-.37,2.25-1.03.57-.65.83-1.51.71-2.37l-.64-4.84c-.02-.13.02-.27.12-.37l3.27-3.59c.73-.8.97-1.94.63-2.97-.34-1.03-1.22-1.79-2.29-1.99l-4.49-.84c-.14-.03-.26-.12-.32-.24l-2.07-4.12C14.16.63,13.14,0,12,0h0Z"/>
</svg>