<?xml version="1.0" encoding="UTF-8"?>
<svg id="Layer_1" xmlns="http://www.w3.org/2000/svg" version="1.1" viewBox="0 0 24 24">
  <!-- Generator: Adobe Illustrator 30.1.0, SVG Export Plug-In . SVG Version: 2.1.1 Build 136)  -->
  <path d="M12,4.64c.24,0,.48.12.6.37l1.54,3.06c.26.52.76.9,1.33,1l3.33.62c.52.1.73.73.38,1.12l-2.43,2.67c-.37.41-.55.97-.48,1.52l.47,3.59c.06.43-.29.77-.67.77-.1,0-.21-.02-.31-.08l-2.92-1.5c-.27-.14-.57-.21-.86-.21s-.59.07-.86.21l-2.92,1.5c-.1.05-.21.08-.31.08-.39,0-.73-.34-.67-.77l.47-3.59c.07-.55-.1-1.11-.48-1.52l-2.43-2.67c-.36-.39-.15-1.03.38-1.12l3.33-.62c.58-.11,1.07-.48,1.33-1l1.54-3.06c.13-.25.36-.37.6-.37M12,0C9.98,0,8.16,1.12,7.26,2.92l-.93,1.84-1.99.37c-1.89.35-3.45,1.71-4.06,3.53-.61,1.83-.19,3.84,1.11,5.27l1.57,1.72-.31,2.33c-.2,1.52.26,3.05,1.27,4.2,1.01,1.15,2.47,1.81,4,1.81.84,0,1.68-.2,2.43-.59l1.65-.85,1.65.85c.75.39,1.59.59,2.43.59,1.53,0,2.99-.66,4-1.81,1.01-1.15,1.47-2.68,1.27-4.2l-.31-2.33,1.57-1.72c1.3-1.42,1.72-3.44,1.11-5.27-.61-1.83-2.17-3.18-4.06-3.53l-1.99-.37-.93-1.84C15.84,1.12,14.02,0,12,0h0Z"/>
</svg>