<?xml version="1.0" encoding="UTF-8"?>
<svg id="Layer_1" xmlns="http://www.w3.org/2000/svg" version="1.1" viewBox="0 0 24 24">
  <!-- Generator: Adobe Illustrator 30.1.0, SVG Export Plug-In . SVG Version: 2.1.1 Build 136)  -->
  <path d="M12,5.05c.23,0,.45.12.57.35l1.45,2.88c.25.49.71.85,1.26.95l3.14.59c.49.09.69.69.35,1.06l-2.29,2.51c-.35.39-.52.91-.45,1.43l.45,3.39c.05.4-.27.72-.63.72-.1,0-.2-.02-.29-.07l-2.75-1.42c-.25-.13-.53-.2-.81-.2s-.56.07-.81.2l-2.75,1.42c-.1.05-.2.07-.29.07-.36,0-.69-.32-.63-.72l.45-3.39c.07-.52-.1-1.04-.45-1.43l-2.29-2.51c-.34-.37-.14-.97.35-1.06l3.14-.59c.54-.1,1.01-.45,1.26-.95l1.45-2.88c.12-.23.34-.35.57-.35M12,0C9.84,0,7.89,1.2,6.92,3.13l-.72,1.44-1.55.29c-2.03.38-3.69,1.83-4.35,3.79-.66,1.96-.2,4.12,1.19,5.65l1.26,1.39-.25,1.88c-.21,1.63.28,3.27,1.36,4.5,1.08,1.23,2.64,1.94,4.28,1.94.9,0,1.8-.22,2.61-.63l1.25-.64,1.25.64c.8.41,1.71.63,2.61.63,1.64,0,3.2-.71,4.28-1.94,1.08-1.23,1.58-2.87,1.36-4.5l-.25-1.88,1.27-1.39c1.39-1.53,1.85-3.69,1.19-5.65-.66-1.96-2.32-3.41-4.35-3.79l-1.55-.29-.72-1.44C16.11,1.2,14.16,0,12,0h0Z"/>
</svg>