<?xml version="1.0" encoding="UTF-8"?>
<svg id="Layer_1" xmlns="http://www.w3.org/2000/svg" version="1.1" viewBox="0 0 125 125">
  <!-- Generator: Adobe Illustrator 30.1.0, SVG Export Plug-In . SVG Version: 2.1.1 Build 136)  -->
  <circle id="Outer" cx="62.5" cy="62.5" r="52.64" fill="none" stroke="#000" stroke-width="19.73"/>
  <g>
    <g>
      <rect x="58.53" y="79.78" width="7.88" height="7.88"/>
      <path d="M64.84,81.34v4.75h-4.75v-4.75h4.75M67.97,78.22h-11v11h11v-11h0Z"/>
    </g>
    <g>
      <path d="M58.55,71.82l-.03-3.35c0-2.65.99-5.18,2.76-7.14l4.71-5.21c1.03-1.14,1.6-2.61,1.6-4.14,0-1.95-1.6-3.53-3.57-3.53h-3.02c-1.97,0-3.57,1.58-3.57,3.53v1.56h-7.92v-1.56c0-6.3,5.15-11.42,11.49-11.42h3.02c6.33,0,11.49,5.12,11.49,11.42,0,3.48-1.29,6.82-3.62,9.41l-4.71,5.22c-.48.53-.73,1.17-.73,1.85l-.03,3.36h-7.85Z"/>
      <path d="M64.01,42.12c5.47,0,9.93,4.42,9.93,9.86,0,3.09-1.14,6.06-3.22,8.36l-4.71,5.22c-.73.81-1.13,1.81-1.14,2.9l-.02,1.8h-4.75l-.02-1.8c0-2.25.84-4.4,2.35-6.08l4.71-5.22c1.29-1.43,2-3.27,2-5.18,0-2.81-2.3-5.09-5.13-5.09h-3.02c-2.83,0-5.13,2.29-5.13,5.09h-4.8c0-5.43,4.45-9.86,9.93-9.86h3.02M64.01,39h-3.02c-7.2,0-13.05,5.82-13.05,12.98v3.12h11.05v-3.12c0-1.09.9-1.97,2.01-1.97h3.02c1.11,0,2.01.88,2.01,1.97,0,1.14-.42,2.24-1.19,3.09l-4.71,5.22c-2.03,2.24-3.15,5.14-3.16,8.16l.02,1.84.03,3.1h10.94l.03-3.09.02-1.8c0-.32.11-.59.33-.83l4.71-5.22c2.6-2.88,4.03-6.59,4.03-10.46,0-7.16-5.85-12.98-13.05-12.98h0Z"/>
    </g>
  </g>
</svg>