<?xml version="1.0" encoding="UTF-8"?>
<svg id="Layer_1" xmlns="http://www.w3.org/2000/svg" version="1.1" viewBox="0 0 125 125">
  <!-- Generator: Adobe Illustrator 30.1.0, SVG Export Plug-In . SVG Version: 2.1.1 Build 136)  -->
  <circle id="Outer" cx="62.5" cy="62.5" r="57.07" fill="none" stroke="#000" stroke-width="10.86"/>
  <g>
    <g>
      <rect x="58.55" y="83.14" width="7.82" height="7.83"/>
      <path d="M65.59,83.92v6.26h-6.26v-6.26h6.26M67.16,82.36h-9.39v9.39h9.39v-9.39h0Z"/>
    </g>
    <g>
      <path d="M58.56,74.51l-.03-3.14c.01-3.17,1.18-6.19,3.3-8.53l6.2-6.87c1.57-1.74,2.43-3.98,2.43-6.31,0-3.27-2.68-5.93-5.98-5.93h-3.98c-3.3,0-5.98,2.66-5.98,5.93v.78h-7.88v-.78c0-7.59,6.22-13.77,13.86-13.77h3.98c7.64,0,13.86,6.17,13.86,13.77,0,4.27-1.58,8.36-4.45,11.54l-6.2,6.87c-.84.93-1.29,2.07-1.3,3.29l-.03,3.15h-7.81Z"/>
      <path d="M64.49,36.67c7.21,0,13.08,5.83,13.08,12.98,0,4.07-1.51,7.99-4.25,11.02l-6.2,6.87c-.96,1.06-1.49,2.38-1.5,3.81l-.02,2.37h-6.26l-.02-2.37c.01-2.97,1.1-5.8,3.1-8l6.2-6.87c1.7-1.88,2.63-4.31,2.63-6.83,0-3.7-3.03-6.71-6.76-6.71h-3.98c-3.73,0-6.76,3.01-6.76,6.71h-6.32c0-7.16,5.87-12.98,13.08-12.98h3.98M64.49,35.11h-3.98c-8.07,0-14.64,6.53-14.64,14.55v1.56h9.44v-1.56c0-2.84,2.33-5.15,5.2-5.15h3.98c2.87,0,5.2,2.31,5.2,5.15,0,2.14-.79,4.19-2.23,5.78l-6.2,6.87c-2.25,2.48-3.49,5.7-3.5,9.05l.02,2.39v1.55h9.37l.02-1.55.02-2.37c0-1.04.38-1.99,1.09-2.78l6.2-6.87c3-3.32,4.65-7.61,4.65-12.06,0-8.02-6.57-14.55-14.64-14.55h0Z"/>
    </g>
  </g>
</svg>