<?xml version="1.0" encoding="UTF-8"?>
<svg id="Layer_1" xmlns="http://www.w3.org/2000/svg" version="1.1" viewBox="0 0 125 125">
  <!-- Generator: Adobe Illustrator 30.1.0, SVG Export Plug-In . SVG Version: 2.1.1 Build 136)  -->
  <circle id="Outer" cx="62.5" cy="62.5" r="58.16" fill="none" stroke="#000" stroke-width="8.67"/>
  <g>
    <g>
      <rect x="58.55" y="83.96" width="7.83" height="7.83"/>
      <path d="M65.79,84.54v6.65h-6.65v-6.65h6.65M66.96,83.37h-9v9h9v-9h0Z"/>
    </g>
    <g>
      <path d="M58.56,75.23l-.03-3.1c.01-3.3,1.24-6.46,3.45-8.9l6.59-7.3c1.71-1.89,2.65-4.33,2.65-6.87,0-3.61-2.96-6.55-6.6-6.55h-4.23c-3.64,0-6.6,2.94-6.6,6.55v.59h-7.89v-.59c0-7.93,6.5-14.38,14.48-14.38h4.23c7.99,0,14.48,6.45,14.48,14.38,0,4.47-1.66,8.77-4.66,12.1l-6.59,7.3c-.94,1.04-1.44,2.3-1.44,3.66l-.03,3.1h-7.81Z"/>
      <path d="M64.62,35.26c7.66,0,13.9,6.19,13.9,13.8,0,4.33-1.6,8.49-4.51,11.71l-6.59,7.3c-1.02,1.13-1.59,2.53-1.59,4.05l-.03,2.52h-6.65l-.02-2.52c.01-3.15,1.17-6.16,3.3-8.51l6.59-7.3c1.8-2,2.8-4.58,2.8-7.26,0-3.93-3.22-7.13-7.18-7.13h-4.23c-3.96,0-7.18,3.2-7.18,7.13h-6.71c0-7.61,6.23-13.8,13.9-13.8h4.23M64.62,34.09h-4.23c-8.31,0-15.07,6.72-15.07,14.97v1.17h9.06v-1.17c0-3.29,2.7-5.96,6.01-5.96h4.23c3.31,0,6.01,2.67,6.01,5.96,0,2.39-.89,4.69-2.5,6.47l-6.59,7.3c-2.31,2.55-3.59,5.85-3.6,9.29l.02,2.53v1.16h8.99v-1.16s.04-2.52.04-2.52c0-1.22.45-2.35,1.29-3.28l6.59-7.31c3.1-3.44,4.81-7.88,4.81-12.49,0-8.25-6.76-14.97-15.07-14.97h0Z"/>
    </g>
  </g>
</svg>