<?xml version="1.0" encoding="UTF-8"?>
<svg id="Layer_1" xmlns="http://www.w3.org/2000/svg" version="1.1" viewBox="0 0 125 125">
  <!-- Generator: Adobe Illustrator 30.1.0, SVG Export Plug-In . SVG Version: 2.1.1 Build 136)  -->
  <circle id="Outer" cx="62.5" cy="62.5" r="50.43" fill="none" stroke="#000" stroke-width="24.14"/>
  <g>
    <g>
      <rect x="58.49" y="78.08" width="7.96" height="7.96"/>
      <path d="M64.5,80.03v4.06h-4.06v-4.06h4.06M68.4,76.13h-11.87v11.87h11.87v-11.87h0Z"/>
    </g>
    <g>
      <path d="M58.51,70.64l-.03-3.47c0-2.43.9-4.73,2.51-6.51l4.02-4.45c.78-.86,1.2-1.97,1.2-3.12,0-1.32-1.09-2.4-2.42-2.4h-2.58c-1.34,0-2.43,1.07-2.43,2.4v1.95h-8v-1.95c0-5.72,4.68-10.37,10.42-10.37h2.58c5.75,0,10.42,4.65,10.42,10.37,0,3.12-1.16,6.12-3.25,8.45l-4.02,4.45c-.31.34-.47.73-.47,1.17l-.04,3.48h-7.93Z"/>
      <path d="M63.79,44.68c4.67,0,8.47,3.77,8.47,8.41,0,2.64-.98,5.17-2.75,7.14l-4.02,4.45c-.62.69-.97,1.54-.97,2.47l-.02,1.53h-4.06v-1.53c0-1.92.7-3.76,2-5.19l4.02-4.45c1.1-1.22,1.71-2.79,1.71-4.43,0-2.4-1.96-4.35-4.38-4.35h-2.58c-2.41,0-4.38,1.95-4.38,4.35h-4.09c0-4.64,3.8-8.41,8.47-8.41h2.58M63.79,40.77h-2.58c-6.83,0-12.38,5.53-12.38,12.32v3.91h11.91v-3.91c0-.24.22-.44.47-.44h2.58c.26,0,.47.2.47.44,0,.67-.25,1.31-.7,1.81l-4.02,4.45c-1.93,2.14-3.01,4.91-3.02,7.79v1.58s.05,3.87.05,3.87h11.8l.04-3.87v-1.47s4-4.41,4-4.41c2.42-2.68,3.76-6.15,3.76-9.76,0-6.79-5.55-12.32-12.38-12.32h0Z"/>
    </g>
  </g>
</svg>