<?xml version="1.0" encoding="UTF-8"?>
<svg id="Layer_1" xmlns="http://www.w3.org/2000/svg" version="1.1" viewBox="0 0 125 125">
  <!-- Generator: Adobe Illustrator 30.1.0, SVG Export Plug-In . SVG Version: 2.1.1 Build 136)  -->
  <circle id="Outer" cx="62.5" cy="62.5" r="49.34" fill="none" stroke="#000" stroke-width="26.33"/>
  <g>
    <g>
      <rect x="58.46" y="77.23" width="8.02" height="8.02"/>
      <path d="M64.33,79.38v3.73h-3.73v-3.73h3.73M68.63,75.08h-12.32v12.32h12.32v-12.32h0Z"/>
    </g>
    <g>
      <path d="M58.49,70.1l-.03-3.54c0-2.32.86-4.52,2.4-6.22l3.69-4.09c.65-.72,1.01-1.66,1.01-2.63,0-1.02-.84-1.85-1.87-1.85h-2.37c-1.03,0-1.87.83-1.87,1.85v2.15h-8.06v-2.15c0-5.45,4.46-9.88,9.93-9.88h2.37c5.48,0,9.93,4.43,9.93,9.88,0,2.96-1.09,5.8-3.08,8l-3.69,4.09c-.22.25-.34.53-.34.84l-.04,3.55h-7.98Z"/>
      <path d="M63.69,45.9c4.29,0,7.78,3.47,7.78,7.73,0,2.42-.9,4.75-2.53,6.56l-3.69,4.09c-.57.63-.89,1.42-.89,2.27v1.41h-3.74v-1.41c0-1.77.64-3.45,1.83-4.76l3.69-4.09c1.01-1.12,1.57-2.56,1.57-4.07,0-2.2-1.8-3.99-4.02-3.99h-2.37c-2.22,0-4.02,1.79-4.02,3.99h-3.76c0-4.26,3.49-7.73,7.78-7.73h2.37M63.69,41.6h-2.37c-6.66,0-12.08,5.39-12.08,12.02v4.3h10.91l-.88.98c-1.89,2.09-2.94,4.8-2.95,7.63v.03s0,.03,0,.03v1.41s.05,4.26.05,4.26h12.24l.04-4.25v-1.08s3.49-3.86,3.49-3.86c2.34-2.6,3.63-5.95,3.63-9.44,0-6.63-5.42-12.02-12.08-12.02h0ZM61.59,53.93h1.8c-.06.33-.21.63-.43.88l-1.36,1.51v-2.39h0Z"/>
    </g>
  </g>
</svg>