<?xml version="1.0" encoding="UTF-8"?>
<svg id="Layer_1" xmlns="http://www.w3.org/2000/svg" version="1.1" viewBox="0 0 125 125">
  <!-- Generator: Adobe Illustrator 30.1.0, SVG Export Plug-In . SVG Version: 2.1.1 Build 136)  -->
  <circle id="Outer" cx="62.5" cy="62.5" r="54.86" fill="none" stroke="#000" stroke-width="15.27"/>
  <g>
    <g>
      <rect x="58.55" y="81.47" width="7.84" height="7.84"/>
      <path d="M65.21,82.65v5.49h-5.49v-5.49h5.49M67.56,80.3h-10.18v10.18h10.18v-10.18h0Z"/>
    </g>
    <g>
      <path d="M58.56,73.12l-.03-3.24c.01-2.9,1.08-5.67,3.02-7.82l5.44-6.03c1.29-1.43,2.01-3.28,2.01-5.21,0-2.6-2.13-4.72-4.76-4.72h-3.5c-2.62,0-4.76,2.12-4.76,4.72v1.17h-7.89v-1.17c0-6.93,5.67-12.56,12.64-12.56h3.5c6.97,0,12.64,5.64,12.64,12.56,0,3.86-1.43,7.57-4.03,10.45l-5.44,6.03c-.66.73-1.01,1.62-1.01,2.56l-.03,3.25h-7.82Z"/>
      <path d="M64.25,39.44c6.33,0,11.47,5.11,11.47,11.39,0,3.57-1.32,7.01-3.73,9.67l-5.44,6.03c-.84.93-1.31,2.09-1.31,3.35l-.02,2.08h-5.49l-.02-2.08c0-2.6.97-5.08,2.72-7.02l5.44-6.03c1.49-1.65,2.31-3.78,2.31-5.99,0-3.25-2.66-5.89-5.93-5.89h-3.5c-3.27,0-5.93,2.64-5.93,5.89h-5.54c0-6.28,5.15-11.39,11.47-11.39h3.5M64.25,37.09h-3.5c-7.62,0-13.82,6.16-13.82,13.73v2.34h10.23v-2.34c0-1.95,1.61-3.54,3.59-3.54h3.5c1.98,0,3.59,1.59,3.59,3.54,0,1.63-.61,3.2-1.71,4.42l-5.44,6.03c-2.13,2.36-3.31,5.41-3.33,8.58l.02,2.11.02,2.32h10.14l.02-2.32.02-2.08c0-.68.24-1.28.71-1.8l5.44-6.03c2.79-3.09,4.33-7.08,4.33-11.24,0-7.57-6.2-13.73-13.82-13.73h0Z"/>
    </g>
  </g>
</svg>