<?xml version="1.0" encoding="UTF-8"?>
<svg id="Layer_1" xmlns="http://www.w3.org/2000/svg" version="1.1" viewBox="0 0 26 26">
  <!-- Generator: Adobe Illustrator 30.1.0, SVG Export Plug-In . SVG Version: 2.1.1 Build 136)  -->
  <path d="M13,2.26c.35,0,.7.18.88.54l2.25,4.46c.39.77,1.11,1.31,1.95,1.46l4.86.91c.76.14,1.07,1.07.55,1.64l-3.54,3.89c-.55.6-.8,1.41-.69,2.22l.69,5.24c.08.63-.42,1.12-.98,1.12-.15,0-.3-.03-.45-.11l-4.25-2.19c-.39-.2-.83-.3-1.26-.3s-.86.1-1.26.3l-4.25,2.19c-.15.08-.3.11-.45.11-.56,0-1.06-.5-.98-1.12l.69-5.24c.11-.8-.15-1.61-.69-2.21l-3.54-3.89c-.52-.57-.21-1.5.55-1.64l4.86-.91c.84-.16,1.56-.7,1.94-1.46l2.25-4.46c.18-.36.53-.54.88-.54M13,0C11.77,0,10.66.68,10.1,1.79l-2.25,4.46c-.07.14-.2.23-.34.26l-4.86.91c-1.16.22-2.11,1.04-2.48,2.16-.37,1.12-.11,2.35.68,3.22l3.54,3.89c.1.11.14.25.12.4l-.69,5.24c-.12.93.16,1.86.77,2.56.62.71,1.51,1.11,2.44,1.11.51,0,1.03-.13,1.49-.36l4.25-2.19c.07-.04.14-.05.22-.05s.15.02.22.05l4.25,2.19c.46.24.97.36,1.49.36.93,0,1.82-.4,2.44-1.11.61-.7.9-1.64.77-2.56l-.69-5.24c-.02-.15.03-.29.12-.4l3.54-3.89c.79-.87,1.05-2.1.68-3.22-.37-1.12-1.32-1.94-2.48-2.16l-4.86-.91c-.15-.03-.28-.13-.34-.26l-2.25-4.46C15.34.68,14.23,0,13,0h0Z"/>
</svg>