<?xml version="1.0" encoding="UTF-8"?>
<svg id="Layer_1" xmlns="http://www.w3.org/2000/svg" version="1.1" viewBox="0 0 26 26">
  <!-- Generator: Adobe Illustrator 30.1.0, SVG Export Plug-In . SVG Version: 2.1.1 Build 136)  -->
  <path d="M13,5.48c.24,0,.49.13.62.38l1.57,3.12c.27.54.77.92,1.36,1.03l3.41.64c.53.1.75.75.38,1.15l-2.48,2.72c-.38.42-.56.99-.49,1.55l.48,3.67c.06.44-.29.78-.68.78-.1,0-.21-.02-.32-.08l-2.98-1.53c-.28-.14-.58-.21-.88-.21s-.6.07-.88.21l-2.98,1.53c-.1.05-.21.08-.32.08-.39,0-.74-.35-.69-.78l.48-3.67c.07-.56-.1-1.13-.49-1.55l-2.48-2.72c-.37-.4-.15-1.05.38-1.15l3.4-.64c.59-.11,1.09-.49,1.36-1.03l1.57-3.12c.13-.25.37-.38.62-.38M13,0C10.66,0,8.55,1.3,7.49,3.39l-.78,1.56-1.68.31c-2.2.41-4,1.98-4.71,4.1-.71,2.12-.22,4.46,1.29,6.12l1.37,1.5-.27,2.04c-.23,1.76.31,3.54,1.48,4.87,1.17,1.34,2.86,2.1,4.64,2.1.98,0,1.95-.24,2.82-.69l1.35-.7,1.35.7c.87.45,1.85.69,2.82.69,1.78,0,3.47-.77,4.64-2.1,1.17-1.33,1.71-3.11,1.48-4.87l-.27-2.04,1.37-1.5c1.51-1.65,2-4,1.29-6.12-.71-2.12-2.52-3.69-4.71-4.1l-1.68-.31-.78-1.56C17.45,1.3,15.34,0,13,0h0Z"/>
</svg>