<?xml version="1.0" encoding="UTF-8"?>
<svg id="Layer_1" xmlns="http://www.w3.org/2000/svg" version="1.1" viewBox="0 0 26 26">
  <!-- Generator: Adobe Illustrator 30.1.0, SVG Export Plug-In . SVG Version: 2.1.1 Build 136)  -->
  <path d="M13,5.02c.26,0,.52.13.65.4l1.67,3.31c.29.57.82.97,1.45,1.09l3.61.68c.56.11.79.79.41,1.22l-2.63,2.89c-.41.45-.59,1.05-.52,1.65l.51,3.89c.06.46-.31.83-.73.83-.11,0-.22-.03-.33-.08l-3.16-1.63c-.29-.15-.61-.23-.93-.23s-.64.08-.93.23l-3.16,1.63c-.11.06-.22.08-.33.08-.42,0-.79-.37-.73-.83l.51-3.89c.08-.6-.11-1.2-.52-1.64l-2.63-2.89c-.39-.43-.16-1.11.41-1.22l3.61-.68c.62-.12,1.16-.52,1.44-1.09l1.67-3.31c.14-.27.39-.4.65-.4M13,0C10.81,0,8.84,1.21,7.86,3.17l-1.01,2-2.16.4c-2.05.38-3.73,1.85-4.4,3.83-.66,1.98-.2,4.16,1.2,5.71l1.7,1.86-.33,2.52c-.22,1.64.28,3.3,1.38,4.55,1.09,1.25,2.67,1.96,4.33,1.96.91,0,1.82-.22,2.63-.64l1.79-.92,1.79.92c.81.42,1.72.64,2.63.64,1.66,0,3.23-.72,4.33-1.96,1.09-1.24,1.59-2.9,1.38-4.55l-.33-2.52,1.7-1.86c1.4-1.54,1.87-3.73,1.2-5.71-.66-1.98-2.35-3.44-4.4-3.83l-2.16-.4-1.01-2C17.15,1.21,15.19,0,13,0h0Z"/>
</svg>