<?xml version="1.0" encoding="UTF-8"?>
<svg id="Layer_1" xmlns="http://www.w3.org/2000/svg" version="1.1" viewBox="0 0 26 26">
  <!-- Generator: Adobe Illustrator 30.1.0, SVG Export Plug-In . SVG Version: 2.1.1 Build 136)  -->
  <path d="M13,4.1c.29,0,.58.15.73.45l1.86,3.69c.32.63.92,1.08,1.61,1.21l4.03.75c.63.12.88.88.45,1.36l-2.93,3.22c-.45.5-.66,1.17-.58,1.84l.57,4.34c.07.52-.34.93-.81.93-.12,0-.25-.03-.37-.09l-3.52-1.81c-.33-.17-.68-.25-1.04-.25-.36,0-.71.08-1.04.25l-3.52,1.81c-.12.06-.25.09-.37.09-.47,0-.88-.41-.81-.93l.57-4.34c.09-.67-.12-1.34-.57-1.83l-2.93-3.22c-.43-.47-.18-1.24.45-1.36l4.03-.75c.7-.13,1.29-.58,1.61-1.21l1.86-3.7c.15-.3.44-.45.73-.45M13,0C11.13,0,9.45,1.04,8.61,2.71l-1.45,2.89-3.14.59c-1.75.33-3.19,1.58-3.76,3.27-.57,1.69-.17,3.56,1.03,4.88l2.36,2.59-.46,3.5c-.19,1.41.24,2.82,1.18,3.89.94,1.07,2.29,1.68,3.7,1.68.78,0,1.56-.19,2.25-.55l2.68-1.38,2.68,1.38c.7.36,1.47.55,2.25.55,1.42,0,2.77-.61,3.7-1.68.93-1.06,1.36-2.48,1.18-3.89l-.46-3.5,2.36-2.59c1.2-1.32,1.6-3.19,1.03-4.88-.57-1.69-2.01-2.95-3.76-3.27l-3.14-.59-1.45-2.89C16.55,1.04,14.87,0,13,0h0Z"/>
</svg>