<?xml version="1.0" encoding="UTF-8"?>
<svg id="Layer_1" xmlns="http://www.w3.org/2000/svg" version="1.1" viewBox="0 0 100 100">
  <!-- Generator: Adobe Illustrator 30.1.0, SVG Export Plug-In . SVG Version: 2.1.1 Build 136)  -->
  <g>
    <g>
      <rect x="46.5" y="25.32" width="6.99" height="6.99"/>
      <path d="M53.03,25.79v6.05h-6.05v-6.05h6.05M53.96,24.85h-7.93v7.93h7.93v-7.93h0Z"/>
    </g>
    <g>
      <polygon points="40.45 74.68 40.45 67.69 46.5 67.69 46.5 49.73 40.45 49.73 40.45 42.74 53.5 42.74 53.5 67.69 59.55 67.69 59.55 74.68 40.45 74.68"/>
      <path d="M53.03,43.21v24.95h6.05v6.05h-18.16v-6.05h6.05v-18.9h-6.05v-6.05h12.11M53.96,42.27h-13.98v7.93h6.05v17.02h-6.05v7.93h20.03v-7.93h-6.05v-24.95h0Z"/>
    </g>
  </g>
  <circle id="Outer" cx="50" cy="50" r="46.53" fill="none" stroke="#000" stroke-width="6.94"/>
</svg>