<?xml version="1.0" encoding="UTF-8"?>
<svg id="Layer_1" xmlns="http://www.w3.org/2000/svg" version="1.1" viewBox="0 0 100 100">
  <!-- Generator: Adobe Illustrator 30.1.0, SVG Export Plug-In . SVG Version: 2.1.1 Build 136)  -->
  <g>
    <g>
      <rect x="46.31" y="29.77" width="7.38" height="7.38"/>
      <path d="M52.13,31.34v4.25h-4.25v-4.25h4.25M55.25,28.21h-10.5v10.5h10.5v-10.5h0Z"/>
    </g>
    <g>
      <polygon points="42.06 69.26 42.06 61.88 46.31 61.88 46.31 51.72 42.06 51.72 42.06 44.34 53.69 44.34 53.69 61.88 57.94 61.88 57.94 69.26 42.06 69.26"/>
      <path d="M52.13,45.91v17.53h4.25v4.25h-12.76v-4.25h4.25v-13.28h-4.25v-4.25h8.51M55.25,42.78h-14.76v10.5h4.25v7.03h-4.25v10.5h19.01v-10.5h-4.25v-17.53h0Z"/>
    </g>
  </g>
  <circle id="Outer" cx="50" cy="50" r="40.34" fill="none" stroke="#000" stroke-width="19.31"/>
</svg>