<?xml version="1.0" encoding="UTF-8"?>
<svg id="Layer_1" xmlns="http://www.w3.org/2000/svg" version="1.1" viewBox="0 0 100 100">
  <!-- Generator: Adobe Illustrator 30.1.0, SVG Export Plug-In . SVG Version: 2.1.1 Build 136)  -->
  <g>
    <g>
      <rect x="46.37" y="28.51" width="7.26" height="7.26"/>
      <path d="M52.38,29.76v4.76h-4.76v-4.76h4.76M54.88,27.26h-9.76v9.76h9.76v-9.76h0Z"/>
    </g>
    <g>
      <polygon points="41.62 70.77 41.62 63.52 46.37 63.52 46.37 51.17 41.62 51.17 41.62 43.92 53.63 43.92 53.63 63.52 58.38 63.52 58.38 70.77 41.62 70.77"/>
      <path d="M52.38,45.17v19.6h4.76v4.76h-14.27v-4.76h4.76v-14.85h-4.76v-4.76h9.51M54.88,42.67h-14.51v9.76h4.76v9.85h-4.76v9.76h19.27v-9.76h-4.76v-19.6h0Z"/>
    </g>
  </g>
  <circle id="Outer" cx="50" cy="50" r="42.11" fill="none" stroke="#000" stroke-width="15.78"/>
</svg>