<?xml version="1.0" encoding="UTF-8"?>
<svg id="Layer_1" xmlns="http://www.w3.org/2000/svg" version="1.1" viewBox="0 0 100 100">
  <!-- Generator: Adobe Illustrator 30.1.0, SVG Export Plug-In . SVG Version: 2.1.1 Build 136)  -->
  <g>
    <g>
      <rect x="46.28" y="30.4" width="7.45" height="7.45"/>
      <path d="M52,32.12v4.01h-4.01v-4.01h4.01M55.44,28.68h-10.88v10.88h10.88v-10.88h0Z"/>
    </g>
    <g>
      <polygon points="42.27 68.52 42.27 61.07 46.28 61.07 46.28 51.99 42.27 51.99 42.27 44.54 53.72 44.54 53.72 61.07 57.73 61.07 57.73 68.52 42.27 68.52"/>
      <path d="M52,46.26v16.53h4.01v4.01h-12.03v-4.01h4.01v-12.52h-4.01v-4.01h8.02M55.44,42.82h-14.89v10.88h4.01v5.64h-4.01v10.88h18.9v-10.88h-4.01v-16.53h0Z"/>
    </g>
  </g>
  <circle id="Outer" cx="50" cy="50" r="39.47" fill="none" stroke="#000" stroke-width="21.06"/>
</svg>