<?xml version="1.0" encoding="UTF-8"?>
<svg id="Layer_1" xmlns="http://www.w3.org/2000/svg" version="1.1" viewBox="0 0 18 18">
  <!-- Generator: Adobe Illustrator 30.1.0, SVG Export Plug-In . SVG Version: 2.1.1 Build 136)  -->
  <g>
    <g>
      <rect x="8.37" y="4.56" width="1.26" height="1.26"/>
      <path d="M9.54,4.64v1.09h-1.09v-1.09h1.09M9.71,4.47h-1.43v1.43h1.43v-1.43h0Z"/>
    </g>
    <g>
      <polygon points="7.28 13.44 7.28 12.18 8.37 12.18 8.37 8.95 7.28 8.95 7.28 7.69 9.63 7.69 9.63 12.18 10.72 12.18 10.72 13.44 7.28 13.44"/>
      <path d="M9.54,7.78v4.49h1.09v1.09h-3.27v-1.09h1.09v-3.4h-1.09v-1.09h2.18M9.71,7.61h-2.52v1.43h1.09v3.06h-1.09v1.43h3.61v-1.43h-1.09v-4.49h0Z"/>
    </g>
  </g>
  <circle id="Outer" cx="9" cy="9" r="8.38" fill="none" stroke="#000" stroke-width="1.25"/>
</svg>