<?xml version="1.0" encoding="UTF-8"?>
<svg id="Layer_1" xmlns="http://www.w3.org/2000/svg" version="1.1" viewBox="0 0 18 18">
  <!-- Generator: Adobe Illustrator 30.1.0, SVG Export Plug-In . SVG Version: 2.1.1 Build 136)  -->
  <g>
    <g>
      <rect x="8.36" y="4.9" width="1.29" height="1.29"/>
      <path d="M9.47,5.07v.95h-.95v-.95h.95M9.81,4.73h-1.62v1.62h1.62v-1.62h0Z"/>
    </g>
    <g>
      <polygon points="7.41 13.02 7.41 11.73 8.36 11.73 8.36 9.11 7.41 9.11 7.41 7.82 9.64 7.82 9.64 11.73 10.59 11.73 10.59 13.02 7.41 13.02"/>
      <path d="M9.47,7.99v3.91h.95v.95h-2.85v-.95h.95v-2.96h-.95v-.95h1.9M9.81,7.65h-2.57v1.62h.95v2.29h-.95v1.62h3.52v-1.62h-.95v-3.91h0Z"/>
    </g>
  </g>
  <circle id="Outer" cx="9" cy="9" r="7.9" fill="none" stroke="#000" stroke-width="2.2"/>
</svg>