<?xml version="1.0" encoding="UTF-8"?>
<svg id="Layer_1" xmlns="http://www.w3.org/2000/svg" version="1.1" viewBox="0 0 18 18">
  <!-- Generator: Adobe Illustrator 30.1.0, SVG Export Plug-In . SVG Version: 2.1.1 Build 136)  -->
  <g>
    <g>
      <rect x="8.37" y="4.67" width="1.27" height="1.27"/>
      <path d="M9.52,4.78v1.04h-1.04v-1.04h1.04M9.75,4.56h-1.49v1.49h1.49v-1.49h0Z"/>
    </g>
    <g>
      <polygon points="7.32 13.3 7.32 12.03 8.37 12.03 8.37 9 7.32 9 7.32 7.74 9.63 7.74 9.63 12.03 10.68 12.03 10.68 13.3 7.32 13.3"/>
      <path d="M9.52,7.85v4.3h1.04v1.04h-3.13v-1.04h1.04v-3.25h-1.04v-1.04h2.09M9.75,7.62h-2.54v1.49h1.04v2.8h-1.04v1.49h3.58v-1.49h-1.04v-4.3h0Z"/>
    </g>
  </g>
  <circle id="Outer" cx="9" cy="9" r="8.22" fill="none" stroke="#000" stroke-width="1.56"/>
</svg>