<?xml version="1.0" encoding="UTF-8"?>
<svg id="Layer_1" xmlns="http://www.w3.org/2000/svg" version="1.1" viewBox="0 0 18 18">
  <!-- Generator: Adobe Illustrator 30.1.0, SVG Export Plug-In . SVG Version: 2.1.1 Build 136)  -->
  <g>
    <g>
      <rect x="8.35" y="5.13" width="1.31" height="1.31"/>
      <path d="M9.43,5.36v.86h-.86v-.86h.86M9.88,4.91h-1.76v1.76h1.76v-1.76h0Z"/>
    </g>
    <g>
      <polygon points="7.49 12.74 7.49 11.43 8.35 11.43 8.35 9.21 7.49 9.21 7.49 7.9 9.65 7.9 9.65 11.43 10.51 11.43 10.51 12.74 7.49 12.74"/>
      <path d="M9.43,8.13v3.53h.86v.86h-2.57v-.86h.86v-2.67h-.86v-.86h1.71M9.88,7.68h-2.61v1.76h.86v1.77h-.86v1.76h3.47v-1.76h-.86v-3.53h0Z"/>
    </g>
  </g>
  <circle id="Outer" cx="9" cy="9" r="7.58" fill="none" stroke="#000" stroke-width="2.84"/>
</svg>