<?xml version="1.0" encoding="UTF-8"?>
<svg id="Layer_1" xmlns="http://www.w3.org/2000/svg" version="1.1" viewBox="0 0 95 95">
  <!-- Generator: Adobe Illustrator 30.1.0, SVG Export Plug-In . SVG Version: 2.1.1 Build 136)  -->
  <g>
    <g>
      <rect x="44.15" y="24.65" width="6.69" height="6.69"/>
      <path d="M50.25,25.25v5.5h-5.5v-5.5h5.5M51.44,24.06h-7.88v7.88h7.88v-7.88h0Z"/>
    </g>
    <g>
      <polygon points="38.65 70.2 38.65 63.51 44.15 63.51 44.15 47.52 38.65 47.52 38.65 40.83 50.84 40.83 50.84 63.51 56.35 63.51 56.35 70.2 38.65 70.2"/>
      <path d="M50.25,41.43v22.68h5.5v5.5h-16.51v-5.5h5.5v-17.18h-5.5v-5.5h11.01M51.44,40.24h-13.38v7.88h5.5v14.8h-5.5v7.88h18.88v-7.88h-5.5v-22.68h0Z"/>
    </g>
  </g>
  <circle id="Outer" cx="47.5" cy="47.5" r="43.37" fill="none" stroke="#000" stroke-width="8.25"/>
</svg>