<?xml version="1.0" encoding="UTF-8"?>
<svg id="Layer_1" xmlns="http://www.w3.org/2000/svg" version="1.1" viewBox="0 0 110 110">
  <!-- Generator: Adobe Illustrator 30.1.0, SVG Export Plug-In . SVG Version: 2.1.1 Build 136)  -->
  <path d="M55,21.24c1.1,0,2.2.57,2.77,1.71l7.06,14.02c1.21,2.41,3.47,4.11,6.12,4.6l15.28,2.86c2.39.45,3.36,3.35,1.72,5.15l-11.13,12.22c-1.72,1.88-2.52,4.43-2.18,6.96l2.17,16.47c.26,1.96-1.31,3.52-3.07,3.52-.47,0-.95-.11-1.42-.35l-13.36-6.88c-1.24-.64-2.59-.96-3.95-.96-1.35,0-2.71.32-3.95.96l-13.36,6.88c-.47.24-.95.35-1.42.35-1.77,0-3.33-1.56-3.07-3.52l2.17-16.48c.33-2.53-.46-5.07-2.18-6.96l-11.13-12.22c-1.64-1.8-.67-4.7,1.72-5.15l15.28-2.86c2.64-.5,4.9-2.2,6.11-4.6l7.06-14.02c.57-1.14,1.67-1.71,2.77-1.71M55,0C45.75,0,37.42,5.13,33.26,13.39l-4.26,8.45-9.14,1.71c-8.67,1.63-15.8,7.83-18.6,16.2-2.8,8.37-.85,17.62,5.09,24.14l7.19,7.89-1.41,10.67c-.92,6.96,1.2,13.97,5.82,19.23,4.63,5.28,11.31,8.31,18.31,8.31,3.85,0,7.71-.94,11.14-2.71l7.58-3.91,7.58,3.91c3.44,1.77,7.29,2.71,11.14,2.71,7.01,0,13.68-3.03,18.31-8.31,4.62-5.27,6.74-12.28,5.82-19.23l-1.41-10.67,7.19-7.89c5.94-6.52,7.89-15.77,5.09-24.14-2.8-8.37-9.93-14.57-18.6-16.2l-9.14-1.71-4.26-8.45C72.58,5.13,64.25,0,55,0h0Z"/>
</svg>