<?xml version="1.0" encoding="UTF-8"?>
<svg id="Layer_1" xmlns="http://www.w3.org/2000/svg" version="1.1" viewBox="0 0 110 110">
  <!-- Generator: Adobe Illustrator 30.1.0, SVG Export Plug-In . SVG Version: 2.1.1 Build 136)  -->
  <path d="M55,23.17c1.03,0,2.07.54,2.61,1.61l6.66,13.22c1.14,2.27,3.28,3.87,5.77,4.34l14.41,2.7c2.25.42,3.17,3.16,1.62,4.86l-10.5,11.52c-1.62,1.78-2.37,4.18-2.06,6.57l2.05,15.53c.24,1.85-1.23,3.32-2.9,3.32-.44,0-.9-.1-1.34-.33l-12.6-6.49c-1.17-.6-2.45-.9-3.72-.9s-2.55.3-3.72.9l-12.6,6.49c-.44.23-.89.33-1.34.33-1.67,0-3.14-1.47-2.9-3.32l2.05-15.54c.31-2.38-.44-4.78-2.06-6.56l-10.5-11.52c-1.55-1.7-.63-4.44,1.62-4.86l14.41-2.7c2.49-.47,4.62-2.07,5.76-4.34l6.66-13.22c.54-1.07,1.58-1.61,2.61-1.61M55,0c-9.91,0-18.84,5.5-23.3,14.35l-3.32,6.58-7.09,1.33c-9.29,1.74-16.93,8.39-19.94,17.36-3,8.97-.91,18.88,5.46,25.88l5.8,6.36-1.14,8.62c-.98,7.45,1.29,14.97,6.24,20.61,4.96,5.66,12.12,8.91,19.63,8.91,4.13,0,8.26-1,11.94-2.9l5.72-2.94,5.72,2.94c3.68,1.9,7.81,2.9,11.94,2.9,7.51,0,14.66-3.25,19.63-8.91,4.95-5.65,7.22-13.16,6.24-20.61l-1.14-8.62,5.8-6.36c6.37-6.99,8.46-16.91,5.46-25.87-3-8.97-10.64-15.62-19.93-17.36l-7.09-1.33-3.32-6.58C73.84,5.5,64.91,0,55,0h0Z"/>
</svg>