<?xml version="1.0" encoding="UTF-8"?>
<svg id="Layer_1" xmlns="http://www.w3.org/2000/svg" version="1.1" viewBox="0 0 110 110">
  <!-- Generator: Adobe Illustrator 30.1.0, SVG Export Plug-In . SVG Version: 2.1.1 Build 136)  -->
  <path d="M55,17.36c1.22,0,2.45.63,3.09,1.9l7.87,15.63c1.35,2.68,3.87,4.58,6.82,5.13l17.04,3.19c2.66.5,3.74,3.74,1.92,5.74l-12.41,13.62c-1.92,2.1-2.81,4.94-2.43,7.77l2.42,18.37c.29,2.19-1.46,3.93-3.43,3.93-.52,0-1.06-.12-1.58-.39l-14.9-7.67c-1.38-.71-2.89-1.07-4.4-1.07-1.51,0-3.02.36-4.4,1.07l-14.9,7.67c-.52.27-1.06.39-1.58.39-1.97,0-3.72-1.74-3.43-3.93l2.42-18.37c.37-2.82-.52-5.66-2.43-7.76l-12.41-13.62c-1.83-2.01-.75-5.25,1.92-5.75l17.03-3.19c2.95-.55,5.47-2.45,6.82-5.13l7.88-15.63c.64-1.27,1.86-1.9,3.09-1.9M55,0C47.09,0,39.97,4.39,36.41,11.45l-6.15,12.22-13.27,2.49c-7.41,1.39-13.51,6.7-15.91,13.85-2.4,7.16-.73,15.07,4.35,20.65l10,10.97-1.95,14.82c-.78,5.95,1.03,11.94,4.98,16.45,3.96,4.52,9.67,7.11,15.66,7.11,3.29,0,6.59-.8,9.53-2.32l11.35-5.85,11.35,5.85c2.94,1.52,6.24,2.32,9.53,2.32,5.99,0,11.7-2.59,15.66-7.11,3.95-4.5,5.76-10.5,4.98-16.45l-1.95-14.82,10-10.97c5.08-5.58,6.75-13.49,4.35-20.65-2.4-7.15-8.49-12.46-15.9-13.85l-13.27-2.49-6.15-12.22C70.03,4.39,62.91,0,55,0h0Z"/>
</svg>