<?xml version="1.0" encoding="UTF-8"?>
<svg id="Layer_1" xmlns="http://www.w3.org/2000/svg" version="1.1" viewBox="0 0 110 110">
  <!-- Generator: Adobe Illustrator 30.1.0, SVG Export Plug-In . SVG Version: 2.1.1 Build 136)  -->
  <path d="M55,7.63c1.54,0,3.08.8,3.88,2.4l9.91,19.67c1.7,3.38,4.87,5.76,8.58,6.46l21.44,4.02c3.35.63,4.71,4.7,2.41,7.23l-15.62,17.14c-2.41,2.64-3.53,6.22-3.06,9.77l3.05,23.11c.36,2.76-1.83,4.94-4.31,4.94-.66,0-1.33-.15-1.99-.49l-18.75-9.66c-1.74-.9-3.64-1.34-5.54-1.34-1.9,0-3.8.45-5.54,1.34l-18.75,9.66c-.65.34-1.33.49-1.99.49-2.48,0-4.68-2.18-4.31-4.94l3.05-23.12c.47-3.55-.65-7.12-3.06-9.76l-15.62-17.14c-2.3-2.53-.94-6.6,2.41-7.23l21.44-4.02c3.71-.69,6.88-3.08,8.58-6.46l9.91-19.67c.8-1.6,2.34-2.4,3.88-2.4M55,0C50.45,0,46.35,2.53,44.3,6.59l-9.91,19.67c-.62,1.24-1.81,2.13-3.17,2.39l-21.44,4.02c-4.27.8-7.78,3.86-9.16,7.98-1.38,4.12-.42,8.68,2.51,11.9l15.62,17.14c.89.98,1.31,2.3,1.13,3.62l-3.05,23.12c-.45,3.43.59,6.88,2.86,9.47,2.29,2.61,5.57,4.1,9.02,4.1,1.89,0,3.78-.46,5.48-1.34l18.75-9.66c.63-.32,1.34-.5,2.04-.5.71,0,1.42.17,2.05.5l18.75,9.66c1.7.87,3.59,1.34,5.48,1.34,3.45,0,6.73-1.5,9.02-4.1,2.27-2.59,3.31-6.04,2.86-9.47l-3.05-23.11c-.17-1.32.24-2.65,1.14-3.63l15.62-17.14c2.93-3.21,3.89-7.77,2.51-11.89-1.38-4.12-4.89-7.17-9.15-7.97l-21.44-4.02c-1.36-.26-2.55-1.15-3.17-2.39l-9.91-19.67C63.65,2.53,59.55,0,55,0h0Z"/>
</svg>