<?xml version="1.0" encoding="UTF-8"?>
<svg id="Layer_1" xmlns="http://www.w3.org/2000/svg" version="1.1" viewBox="0 0 40 40">
  <!-- Generator: Adobe Illustrator 30.1.0, SVG Export Plug-In . SVG Version: 2.1.1 Build 136)  -->
  <path d="M20,4.89c.49,0,.98.25,1.24.76l3.16,6.28c.54,1.08,1.55,1.84,2.74,2.06l6.84,1.28c1.07.2,1.5,1.5.77,2.31l-4.98,5.47c-.77.84-1.13,1.98-.98,3.12l.97,7.37c.12.88-.59,1.58-1.38,1.58-.21,0-.43-.05-.63-.16l-5.98-3.08c-.55-.29-1.16-.43-1.77-.43s-1.21.14-1.77.43l-5.98,3.08c-.21.11-.42.16-.63.16-.79,0-1.49-.7-1.38-1.58l.97-7.38c.15-1.13-.21-2.27-.98-3.11l-4.98-5.47c-.73-.81-.3-2.11.77-2.31l6.84-1.28c1.18-.22,2.19-.98,2.74-2.06l3.16-6.28c.26-.51.75-.76,1.24-.76M20,0C17.62,0,15.47,1.32,14.4,3.45l-2.93,5.83-6.34,1.19c-2.24.42-4.07,2.02-4.8,4.18-.72,2.16-.22,4.54,1.31,6.23l4.67,5.12-.91,6.91c-.24,1.79.31,3.6,1.5,4.96,1.2,1.36,2.92,2.15,4.72,2.15.99,0,1.98-.24,2.87-.7l5.51-2.84,5.51,2.84c.89.46,1.88.7,2.87.7,1.81,0,3.53-.78,4.72-2.15,1.19-1.36,1.74-3.16,1.5-4.96l-.91-6.91,4.67-5.12c1.53-1.68,2.04-4.07,1.31-6.23-.72-2.16-2.56-3.76-4.79-4.18l-6.34-1.19-2.93-5.83C24.53,1.32,22.38,0,20,0h0Z"/>
</svg>