<?xml version="1.0" encoding="UTF-8"?>
<svg id="Layer_1" xmlns="http://www.w3.org/2000/svg" version="1.1" viewBox="0 0 40 40">
  <!-- Generator: Adobe Illustrator 30.1.0, SVG Export Plug-In . SVG Version: 2.1.1 Build 136)  -->
  <path d="M20,6.31c.45,0,.89.23,1.12.69l2.86,5.68c.49.98,1.41,1.67,2.48,1.87l6.19,1.16c.97.18,1.36,1.36.7,2.09l-4.51,4.95c-.7.76-1.02,1.8-.88,2.82l.88,6.68c.11.8-.53,1.43-1.25,1.43-.19,0-.39-.04-.57-.14l-5.42-2.79c-.5-.26-1.05-.39-1.6-.39s-1.1.13-1.6.39l-5.42,2.79c-.19.1-.38.14-.57.14-.72,0-1.35-.63-1.25-1.43l.88-6.68c.14-1.02-.19-2.06-.88-2.82l-4.51-4.95c-.66-.73-.27-1.91.7-2.09l6.19-1.16c1.07-.2,1.99-.89,2.48-1.87l2.86-5.69c.23-.46.68-.69,1.12-.69M20,0C17.12,0,14.53,1.6,13.24,4.16l-2.24,4.44-4.82.9c-2.7.51-4.91,2.44-5.78,5.04-.87,2.6-.27,5.48,1.58,7.51l3.63,3.99-.71,5.39c-.29,2.16.37,4.34,1.81,5.98,1.44,1.64,3.52,2.59,5.7,2.59,1.2,0,2.4-.29,3.46-.84l4.13-2.13,4.13,2.13c1.07.55,2.27.84,3.46.84,2.18,0,4.25-.94,5.69-2.59,1.44-1.64,2.09-3.82,1.81-5.98l-.71-5.39,3.64-3.99c1.85-2.03,2.46-4.91,1.58-7.51-.87-2.6-3.09-4.53-5.78-5.04l-4.83-.9-2.24-4.44C25.47,1.6,22.88,0,20,0h0Z"/>
</svg>