<?xml version="1.0" encoding="UTF-8"?>
<svg id="Layer_1" xmlns="http://www.w3.org/2000/svg" version="1.1" viewBox="0 0 40 40">
  <!-- Generator: Adobe Illustrator 30.1.0, SVG Export Plug-In . SVG Version: 2.1.1 Build 136)  -->
  <path d="M20,3.47c.54,0,1.07.28,1.36.84l3.46,6.86c.59,1.18,1.7,2.01,2.99,2.25l7.48,1.4c1.17.22,1.64,1.64.84,2.52l-5.45,5.98c-.84.92-1.23,2.17-1.07,3.41l1.06,8.06c.13.96-.64,1.72-1.5,1.72-.23,0-.47-.05-.69-.17l-6.54-3.37c-.61-.31-1.27-.47-1.93-.47s-1.33.16-1.93.47l-6.54,3.37c-.23.12-.46.17-.69.17-.86,0-1.63-.76-1.5-1.72l1.06-8.07c.16-1.24-.23-2.48-1.07-3.41l-5.45-5.98c-.8-.88-.33-2.3.84-2.52l7.48-1.4c1.29-.24,2.4-1.07,2.99-2.25l3.46-6.86c.28-.56.82-.84,1.36-.84M20,0C18.1,0,16.39,1.05,15.54,2.75l-3.46,6.86c-.1.21-.3.36-.53.4l-7.48,1.4c-1.78.33-3.24,1.61-3.82,3.32-.58,1.72-.18,3.62,1.04,4.96l5.45,5.98c.15.17.22.39.19.61l-1.06,8.07c-.19,1.43.25,2.87,1.19,3.94.95,1.09,2.32,1.71,3.76,1.71.79,0,1.58-.19,2.28-.56l6.54-3.37c.11-.05.22-.08.34-.08s.23.03.34.08l6.54,3.37c.71.36,1.5.56,2.28.56,1.44,0,2.81-.62,3.76-1.71.95-1.08,1.38-2.52,1.19-3.94l-1.06-8.06c-.03-.22.04-.45.19-.61l5.45-5.98c1.22-1.34,1.62-3.24,1.04-4.95-.57-1.72-2.04-2.99-3.81-3.32l-7.48-1.4c-.23-.04-.43-.19-.53-.4l-3.46-6.86C23.6,1.05,21.9,0,20,0h0Z"/>
</svg>