<?xml version="1.0" encoding="UTF-8"?>
<svg id="Layer_1" xmlns="http://www.w3.org/2000/svg" version="1.1" viewBox="0 0 39 39">
  <!-- Generator: Adobe Illustrator 30.1.0, SVG Export Plug-In . SVG Version: 2.1.1 Build 136)  -->
  <path d="M19.5,7.53c.39,0,.78.2.98.61l2.5,4.97c.43.85,1.23,1.46,2.17,1.63l5.42,1.02c.85.16,1.19,1.19.61,1.83l-3.95,4.33c-.61.67-.89,1.57-.77,2.47l.77,5.84c.09.7-.46,1.25-1.09,1.25-.17,0-.34-.04-.5-.12l-4.74-2.44c-.44-.23-.92-.34-1.4-.34-.48,0-.96.11-1.4.34l-4.74,2.44c-.17.09-.34.12-.5.12-.63,0-1.18-.55-1.09-1.25l.77-5.84c.12-.9-.16-1.8-.77-2.47l-3.95-4.33c-.58-.64-.24-1.67.61-1.83l5.42-1.02c.94-.18,1.74-.78,2.17-1.63l2.5-4.97c.2-.4.59-.61.98-.61M19.5,0c-3.28,0-6.23,1.82-7.71,4.75l-1.51,3-3.24.61c-3.07.58-5.6,2.78-6.59,5.74-.99,2.97-.3,6.25,1.81,8.56l2.55,2.8-.5,3.78c-.33,2.47.43,4.95,2.06,6.82,1.64,1.87,4.01,2.95,6.49,2.95,1.37,0,2.73-.33,3.95-.96l2.69-1.38,2.69,1.38c1.22.63,2.59.96,3.95.96,2.48,0,4.85-1.07,6.49-2.95,1.64-1.87,2.39-4.35,2.06-6.82l-.5-3.78,2.55-2.8c2.11-2.31,2.8-5.59,1.81-8.56-.99-2.97-3.52-5.17-6.59-5.74l-3.24-.61-1.51-3c-1.48-2.93-4.43-4.75-7.71-4.75h0Z"/>
</svg>