<?xml version="1.0" encoding="UTF-8"?>
<svg id="Layer_1" xmlns="http://www.w3.org/2000/svg" version="1.1" viewBox="0 0 39 39">
  <!-- Generator: Adobe Illustrator 30.1.0, SVG Export Plug-In . SVG Version: 2.1.1 Build 136)  -->
  <path d="M19.5,6.15c.43,0,.87.23,1.09.68l2.79,5.54c.48.95,1.37,1.62,2.42,1.82l6.04,1.13c.94.18,1.33,1.32.68,2.04l-4.4,4.83c-.68.75-.99,1.75-.86,2.75l.86,6.51c.1.78-.52,1.39-1.21,1.39-.19,0-.38-.04-.56-.14l-5.28-2.72c-.49-.25-1.03-.38-1.56-.38-.54,0-1.07.13-1.56.38l-5.28,2.72c-.18.09-.38.14-.56.14-.7,0-1.32-.62-1.22-1.39l.86-6.51c.13-1-.18-2.01-.86-2.75l-4.4-4.83c-.65-.71-.26-1.86.68-2.04l6.04-1.13c1.04-.2,1.94-.87,2.42-1.82l2.79-5.54c.23-.45.66-.68,1.09-.68M19.5,0C16.7,0,14.17,1.56,12.91,4.06l-2.18,4.33-4.7.88c-2.63.49-4.79,2.37-5.64,4.91-.85,2.54-.26,5.34,1.54,7.32l3.54,3.89-.69,5.25c-.28,2.11.36,4.23,1.76,5.83,1.4,1.6,3.43,2.52,5.55,2.52,1.17,0,2.34-.28,3.38-.82l4.03-2.07,4.03,2.07c1.04.54,2.21.82,3.38.82,2.12,0,4.15-.92,5.55-2.52,1.4-1.6,2.04-3.72,1.76-5.83l-.69-5.25,3.55-3.89c1.8-1.98,2.39-4.78,1.54-7.32-.85-2.54-3.01-4.42-5.64-4.91l-4.71-.88-2.18-4.33C24.83,1.56,22.3,0,19.5,0h0Z"/>
</svg>