<?xml version="1.0" encoding="UTF-8"?>
<svg id="Layer_1" xmlns="http://www.w3.org/2000/svg" version="1.1" viewBox="0 0 39 39">
  <!-- Generator: Adobe Illustrator 30.1.0, SVG Export Plug-In . SVG Version: 2.1.1 Build 136)  -->
  <path d="M19.5,8.21c.37,0,.73.19.93.57l2.36,4.69c.41.8,1.16,1.37,2.04,1.54l5.11.96c.8.15,1.12,1.12.57,1.72l-3.72,4.08c-.57.63-.84,1.48-.73,2.33l.73,5.51c.09.66-.44,1.18-1.03,1.18-.16,0-.32-.04-.47-.12l-4.47-2.3c-.41-.21-.87-.32-1.32-.32s-.91.11-1.32.32l-4.47,2.3c-.16.08-.32.12-.47.12-.59,0-1.11-.52-1.03-1.18l.73-5.51c.11-.84-.16-1.7-.73-2.33l-3.72-4.08c-.55-.6-.22-1.57.58-1.72l5.11-.96c.88-.17,1.64-.73,2.04-1.54l2.36-4.69c.19-.38.56-.57.93-.57M19.5,0c-3.51,0-6.68,1.95-8.26,5.09l-1.18,2.33-2.51.47c-3.29.62-6,2.98-7.07,6.16-1.07,3.18-.32,6.7,1.93,9.17l2.05,2.25-.4,3.06c-.35,2.64.46,5.31,2.21,7.31,1.76,2.01,4.3,3.16,6.96,3.16,1.46,0,2.93-.36,4.23-1.03l2.03-1.04,2.03,1.04c1.31.67,2.77,1.03,4.23,1.03,2.66,0,5.2-1.15,6.96-3.16,1.75-2,2.56-4.67,2.21-7.31l-.4-3.06,2.06-2.26c2.26-2.48,3-5.99,1.93-9.17-1.06-3.18-3.77-5.54-7.07-6.15l-2.52-.47-1.18-2.33c-1.58-3.14-4.75-5.09-8.26-5.09h0Z"/>
</svg>