<?xml version="1.0" encoding="UTF-8"?>
<svg id="Layer_1" xmlns="http://www.w3.org/2000/svg" version="1.1" viewBox="0 0 78 78">
  <!-- Generator: Adobe Illustrator 30.1.0, SVG Export Plug-In . SVG Version: 2.1.1 Build 136)  -->
  <g>
    <g>
      <rect x="36.12" y="23.22" width="5.76" height="5.76"/>
      <path d="M40.66,24.44v3.32h-3.32v-3.32h3.32M43.1,22h-8.19v8.19h8.19v-8.19h0Z"/>
    </g>
    <g>
      <polygon points="32.8 54.02 32.8 48.26 36.12 48.26 36.12 40.34 32.8 40.34 32.8 34.59 41.88 34.59 41.88 48.26 45.2 48.26 45.2 54.02 32.8 54.02"/>
      <path d="M40.66,35.81v13.68h3.32v3.32h-9.95v-3.32h3.32v-10.36h-3.32v-3.32h6.64M43.1,33.37h-11.51v8.19h3.32v5.48h-3.32v8.19h14.83v-8.19h-3.32v-13.68h0Z"/>
    </g>
  </g>
  <circle id="Outer" cx="39" cy="39" r="31.47" fill="none" stroke="#000" stroke-width="15.06"/>
</svg>