<?xml version="1.0" encoding="UTF-8"?>
<svg id="Layer_1" xmlns="http://www.w3.org/2000/svg" version="1.1" viewBox="0 0 78 78">
  <!-- Generator: Adobe Illustrator 30.1.0, SVG Export Plug-In . SVG Version: 2.1.1 Build 136)  -->
  <g>
    <g>
      <rect x="36.1" y="23.71" width="5.81" height="5.81"/>
      <path d="M40.56,25.05v3.13h-3.13v-3.13h3.13M43.24,22.37h-8.49v8.49h8.49v-8.49h0Z"/>
    </g>
    <g>
      <polygon points="32.97 53.44 32.97 47.63 36.1 47.63 36.1 40.55 32.97 40.55 32.97 34.74 41.9 34.74 41.9 47.63 45.03 47.63 45.03 53.44 32.97 53.44"/>
      <path d="M40.56,36.08v12.89h3.13v3.13h-9.38v-3.13h3.13v-9.76h-3.13v-3.13h6.25M43.24,33.4h-11.62v8.49h3.13v4.4h-3.13v8.49h14.74v-8.49h-3.13v-12.89h0Z"/>
    </g>
  </g>
  <circle id="Outer" cx="39" cy="39" r="30.79" fill="none" stroke="#000" stroke-width="16.43"/>
</svg>