<?xml version="1.0" encoding="UTF-8"?>
<svg id="Layer_1" xmlns="http://www.w3.org/2000/svg" version="1.1" viewBox="0 0 78 78">
  <!-- Generator: Adobe Illustrator 30.1.0, SVG Export Plug-In . SVG Version: 2.1.1 Build 136)  -->
  <g>
    <g>
      <rect x="36.21" y="21.23" width="5.57" height="5.58"/>
      <path d="M41.06,21.97v4.11h-4.11v-4.11h4.11M42.52,20.5h-7.04v7.04h7.04v-7.04h0Z"/>
    </g>
    <g>
      <polygon points="32.1 56.42 32.1 50.84 36.21 50.84 36.21 39.47 32.1 39.47 32.1 33.9 41.79 33.9 41.79 50.84 45.9 50.84 45.9 56.42 32.1 56.42"/>
      <path d="M41.06,34.63v16.95h4.11v4.11h-12.34v-4.11h4.11v-12.84h-4.11v-4.11h8.22M42.52,33.16h-11.15v7.04h4.11v9.91h-4.11v7.04h15.26v-7.04h-4.11v-16.95h0Z"/>
    </g>
  </g>
  <circle id="Outer" cx="39" cy="39" r="34.23" fill="none" stroke="#000" stroke-width="9.53"/>
</svg>