<?xml version="1.0" encoding="UTF-8"?>
<svg id="Layer_1" xmlns="http://www.w3.org/2000/svg" version="1.1" viewBox="0 0 82 82">
  <!-- Generator: Adobe Illustrator 30.1.0, SVG Export Plug-In . SVG Version: 2.1.1 Build 136)  -->
  <circle id="Outer" cx="41" cy="41" r="32.36" fill="none" stroke="#000" stroke-width="17.27"/>
  <g>
    <g>
      <rect x="38.35" y="50.66" width="5.26" height="5.26"/>
      <path d="M42.2,52.07v2.44h-2.44v-2.44h2.44M45.02,49.25h-8.08v8.08h8.08v-8.08h0Z"/>
    </g>
    <g>
      <path d="M38.37,45.99l-.02-2.32c0-1.52.56-2.96,1.57-4.08l2.42-2.68c.43-.47.66-1.09.66-1.72s-.55-1.21-1.23-1.21h-1.56c-.68,0-1.23.54-1.23,1.21v1.41h-5.28v-1.41c0-3.57,2.92-6.48,6.51-6.48h1.56c3.59,0,6.51,2.91,6.51,6.48,0,1.94-.72,3.8-2.02,5.25l-2.42,2.68c-.15.16-.22.35-.22.55l-.02,2.33h-5.24Z"/>
      <path d="M41.78,30.11c2.82,0,5.11,2.27,5.11,5.07,0,1.59-.59,3.12-1.66,4.3l-2.42,2.68c-.38.41-.58.93-.58,1.49v.92h-2.45v-.92c0-1.16.42-2.26,1.2-3.13l2.42-2.68c.66-.73,1.03-1.68,1.03-2.67,0-1.44-1.18-2.62-2.64-2.62h-1.56c-1.45,0-2.64,1.18-2.64,2.62h-2.47c0-2.79,2.29-5.07,5.11-5.07h1.56M41.78,27.29h-1.56c-4.37,0-7.92,3.54-7.92,7.89v2.82h7.16l-.58.64c-1.24,1.37-1.93,3.15-1.94,5v.96s.03,2.79.03,2.79h8.03l.03-2.79v-.71s2.29-2.53,2.29-2.53c1.54-1.7,2.38-3.9,2.38-6.19,0-4.35-3.55-7.89-7.92-7.89h0ZM40.4,35.38h1.18c-.04.21-.14.41-.28.58l-.89.99v-1.57h0Z"/>
    </g>
  </g>
</svg>