<?xml version="1.0" encoding="UTF-8"?>
<svg id="Layer_1" xmlns="http://www.w3.org/2000/svg" version="1.1" viewBox="0 0 82 82">
  <!-- Generator: Adobe Illustrator 30.1.0, SVG Export Plug-In . SVG Version: 2.1.1 Build 136)  -->
  <circle id="Outer" cx="41" cy="41" r="38.16" fill="none" stroke="#000" stroke-width="5.69"/>
  <g>
    <g>
      <rect x="38.41" y="55.08" width="5.13" height="5.14"/>
      <path d="M43.16,55.46v4.37h-4.37v-4.37h4.37M43.93,54.69h-5.9v5.9h5.9v-5.9h0Z"/>
    </g>
    <g>
      <path d="M38.41,49.35l-.02-2.03c0-2.16.81-4.24,2.26-5.84l4.32-4.79c1.12-1.24,1.74-2.84,1.74-4.5,0-2.37-1.94-4.29-4.33-4.29h-2.78c-2.39,0-4.33,1.93-4.33,4.29v.38h-5.17v-.38c0-5.2,4.26-9.44,9.5-9.44h2.78c5.24,0,9.5,4.23,9.5,9.44,0,2.93-1.09,5.75-3.06,7.94l-4.32,4.79c-.62.68-.94,1.51-.94,2.4l-.02,2.04h-5.13Z"/>
      <path d="M42.39,23.13c5.03,0,9.12,4.06,9.12,9.05,0,2.84-1.05,5.57-2.96,7.68l-4.32,4.79c-.67.74-1.04,1.66-1.04,2.66l-.02,1.65h-4.37v-1.65c0-2.07.76-4.04,2.15-5.58l4.32-4.79c1.18-1.31,1.84-3,1.84-4.76,0-2.58-2.11-4.68-4.71-4.68h-2.78c-2.6,0-4.71,2.1-4.71,4.68h-4.4c0-4.99,4.09-9.05,9.12-9.05h2.78M42.39,22.36h-2.78c-5.45,0-9.88,4.41-9.88,9.82v.77h5.94v-.77c0-2.16,1.77-3.91,3.94-3.91h2.78c2.17,0,3.94,1.75,3.94,3.91,0,1.57-.58,3.08-1.64,4.25l-4.32,4.79c-1.51,1.67-2.35,3.84-2.36,6.09v1.66s.02.76.02.76h5.89v-.76s.02-1.65.02-1.65c0-.8.29-1.54.85-2.15l4.32-4.79c2.04-2.26,3.16-5.17,3.16-8.2,0-5.41-4.43-9.82-9.88-9.82h0Z"/>
    </g>
  </g>
</svg>