<?xml version="1.0" encoding="UTF-8"?>
<svg id="Layer_1" xmlns="http://www.w3.org/2000/svg" version="1.1" viewBox="0 0 82 82">
  <!-- Generator: Adobe Illustrator 30.1.0, SVG Export Plug-In . SVG Version: 2.1.1 Build 136)  -->
  <circle id="Outer" cx="41" cy="41" r="33.08" fill="none" stroke="#000" stroke-width="15.84"/>
  <g>
    <g>
      <rect x="38.37" y="51.22" width="5.22" height="5.22"/>
      <path d="M42.31,52.5v2.66h-2.66v-2.66h2.66M44.87,49.94h-7.79v7.79h7.79v-7.79h0Z"/>
    </g>
    <g>
      <path d="M38.38,46.34l-.02-2.28c0-1.59.59-3.1,1.65-4.27l2.63-2.92c.51-.56.79-1.29.79-2.04,0-.87-.71-1.57-1.59-1.57h-1.69c-.88,0-1.59.7-1.59,1.57v1.28h-5.25v-1.28c0-3.75,3.07-6.8,6.84-6.8h1.69c3.77,0,6.84,3.05,6.84,6.8,0,2.05-.76,4.02-2.13,5.54l-2.64,2.92c-.2.22-.31.48-.31.77l-.02,2.28h-5.2Z"/>
      <path d="M41.85,29.31c3.06,0,5.56,2.48,5.56,5.52,0,1.73-.64,3.39-1.8,4.68l-2.64,2.92c-.41.45-.63,1.01-.64,1.62v1.01h-2.67v-1.01c0-1.26.46-2.46,1.31-3.4l2.64-2.92c.72-.8,1.12-1.83,1.12-2.9,0-1.57-1.29-2.85-2.87-2.85h-1.69c-1.58,0-2.87,1.28-2.87,2.85h-2.68c0-3.04,2.49-5.52,5.56-5.52h1.69M41.85,26.75h-1.69c-4.48,0-8.12,3.63-8.12,8.08v2.56h7.81v-2.56c0-.16.14-.29.31-.29h1.69c.17,0,.31.13.31.29,0,.44-.16.86-.46,1.19l-2.64,2.92c-1.27,1.4-1.97,3.22-1.98,5.11v1.04s.03,2.54.03,2.54h7.74l.03-2.54v-.96s2.62-2.9,2.62-2.9c1.59-1.76,2.46-4.03,2.46-6.4,0-4.46-3.64-8.08-8.12-8.08h0Z"/>
    </g>
  </g>
</svg>