<?xml version="1.0" encoding="UTF-8"?>
<svg id="Layer_1" xmlns="http://www.w3.org/2000/svg" version="1.1" viewBox="0 0 82 82">
  <!-- Generator: Adobe Illustrator 30.1.0, SVG Export Plug-In . SVG Version: 2.1.1 Build 136)  -->
  <circle id="Outer" cx="41" cy="41" r="34.53" fill="none" stroke="#000" stroke-width="12.94"/>
  <g>
    <g>
      <rect x="38.39" y="52.34" width="5.17" height="5.17"/>
      <path d="M42.54,53.36v3.12h-3.12v-3.12h3.12M44.59,51.31h-7.22v7.22h7.22v-7.22h0Z"/>
    </g>
    <g>
      <path d="M38.41,47.11l-.02-2.2c0-1.74.65-3.4,1.81-4.68l3.09-3.42c.68-.75,1.05-1.71,1.05-2.71,0-1.28-1.05-2.32-2.34-2.32h-1.98c-1.29,0-2.34,1.04-2.34,2.32v1.02h-5.2v-1.02c0-4.13,3.38-7.49,7.54-7.49h1.98c4.16,0,7.54,3.36,7.54,7.49,0,2.28-.84,4.47-2.38,6.17l-3.09,3.42c-.31.35-.48.77-.48,1.22l-.02,2.2h-5.15Z"/>
      <path d="M41.99,27.63c3.59,0,6.51,2.9,6.51,6.47,0,2.03-.75,3.98-2.11,5.49l-3.09,3.42c-.48.53-.74,1.19-.75,1.9v1.18h-3.13v-1.18c0-1.48.54-2.89,1.53-3.99l3.09-3.42c.85-.94,1.31-2.14,1.31-3.4,0-1.84-1.51-3.34-3.37-3.34h-1.98c-1.86,0-3.37,1.5-3.37,3.34h-3.15c0-3.56,2.92-6.47,6.51-6.47h1.98M41.99,25.58h-1.98c-4.72,0-8.56,3.82-8.56,8.52v2.05h7.25v-2.05c0-.71.59-1.29,1.32-1.29h1.98c.73,0,1.32.58,1.32,1.29,0,.75-.28,1.47-.78,2.03l-3.09,3.42c-1.33,1.47-2.07,3.37-2.07,5.35v1.2s.03,2.03.03,2.03h7.18l.02-2.03v-1.18c.01-.21.08-.38.23-.55l3.09-3.42c1.7-1.89,2.64-4.32,2.64-6.86,0-4.7-3.84-8.52-8.56-8.52h0Z"/>
    </g>
  </g>
</svg>