<?xml version="1.0" encoding="UTF-8"?>
<svg id="Layer_1" xmlns="http://www.w3.org/2000/svg" version="1.1" viewBox="0 0 82 82">
  <!-- Generator: Adobe Illustrator 30.1.0, SVG Export Plug-In . SVG Version: 2.1.1 Build 136)  -->
  <circle id="Outer" cx="41" cy="41" r="35.99" fill="none" stroke="#000" stroke-width="10.02"/>
  <g>
    <g>
      <rect x="38.41" y="53.45" width="5.14" height="5.14"/>
      <path d="M42.78,54.22v3.6h-3.6v-3.6h3.6M44.32,52.68h-6.68v6.68h6.68v-6.68h0Z"/>
    </g>
    <g>
      <path d="M38.42,47.97l-.02-2.12c0-1.9.71-3.72,1.98-5.13l3.57-3.95c.85-.94,1.32-2.15,1.32-3.42,0-1.71-1.4-3.09-3.12-3.09h-2.29c-1.72,0-3.12,1.39-3.12,3.09v.77h-5.17v-.77c0-4.54,3.72-8.24,8.29-8.24h2.29c4.57,0,8.29,3.7,8.29,8.24,0,2.53-.94,4.97-2.64,6.86l-3.57,3.96c-.43.48-.66,1.06-.66,1.68l-.02,2.13h-5.13Z"/>
      <path d="M42.15,25.87c4.15,0,7.53,3.35,7.53,7.47,0,2.34-.87,4.6-2.44,6.34l-3.57,3.96c-.55.61-.86,1.37-.86,2.2v1.36h-3.62v-1.36c0-1.71.62-3.34,1.77-4.61l3.57-3.95c.98-1.08,1.52-2.48,1.52-3.93,0-2.13-1.75-3.86-3.89-3.86h-2.29c-2.14,0-3.89,1.73-3.89,3.86h-3.64c0-4.12,3.38-7.47,7.53-7.47h2.29M42.15,24.33h-2.29c-5,0-9.06,4.04-9.06,9.01v1.54h6.71v-1.54c0-1.28,1.06-2.32,2.35-2.32h2.29c1.3,0,2.35,1.04,2.35,2.32,0,1.07-.4,2.1-1.12,2.9l-3.57,3.95c-1.4,1.55-2.17,3.55-2.18,5.63v1.38s.03,1.52.03,1.52h6.65l.02-1.52v-1.36c.02-.45.17-.84.48-1.18l3.57-3.96c1.83-2.03,2.84-4.65,2.84-7.37,0-4.97-4.07-9.01-9.06-9.01h0Z"/>
    </g>
  </g>
</svg>