<?xml version="1.0" encoding="UTF-8"?>
<svg id="Layer_1" xmlns="http://www.w3.org/2000/svg" version="1.1" viewBox="0 0 82 82">
  <!-- Generator: Adobe Illustrator 30.1.0, SVG Export Plug-In . SVG Version: 2.1.1 Build 136)  -->
  <circle id="Outer" cx="41" cy="41" r="37.44" fill="none" stroke="#000" stroke-width="7.12"/>
  <g>
    <g>
      <rect x="38.41" y="54.54" width="5.13" height="5.13"/>
      <path d="M43.03,55.05v4.11h-4.11v-4.11h4.11M44.05,54.03h-6.16v6.16h6.16v-6.16h0Z"/>
    </g>
    <g>
      <path d="M38.42,48.88l-.02-2.06c0-2.08.78-4.06,2.17-5.6l4.07-4.51c1.03-1.14,1.59-2.61,1.59-4.14,0-2.15-1.76-3.89-3.92-3.89h-2.61c-2.16,0-3.92,1.74-3.92,3.89v.51h-5.17v-.51c0-4.98,4.08-9.03,9.09-9.03h2.61c5.01,0,9.09,4.05,9.09,9.03,0,2.8-1.04,5.49-2.92,7.57l-4.07,4.51c-.55.61-.85,1.36-.85,2.16l-.02,2.06h-5.12Z"/>
      <path d="M42.31,24.06c4.73,0,8.58,3.82,8.58,8.52,0,2.67-.99,5.24-2.79,7.23l-4.07,4.51c-.63.7-.98,1.56-.98,2.5l-.02,1.55h-4.11v-1.55c0-1.95.71-3.8,2.02-5.25l4.07-4.51c1.11-1.23,1.73-2.83,1.73-4.48,0-2.43-1.99-4.4-4.43-4.4h-2.61c-2.44,0-4.43,1.98-4.43,4.4h-4.14c0-4.7,3.85-8.52,8.58-8.52h2.61M42.31,23.03h-2.61c-5.3,0-9.6,4.28-9.6,9.54v1.02h6.19v-1.02c0-1.86,1.53-3.38,3.41-3.38h2.61c1.88,0,3.41,1.52,3.41,3.38,0,1.4-.52,2.75-1.46,3.79l-4.07,4.51c-1.47,1.63-2.29,3.74-2.3,5.93v1.57s.02,1.02.02,1.02h6.14v-1.01s.03-1.55.03-1.55c0-.68.25-1.31.72-1.83l4.07-4.51c1.97-2.18,3.05-4.99,3.05-7.91,0-5.26-4.31-9.54-9.6-9.54h0Z"/>
    </g>
  </g>
</svg>