<?xml version="1.0" encoding="UTF-8"?>
<svg id="Layer_1" xmlns="http://www.w3.org/2000/svg" version="1.1" viewBox="0 0 101 101">
  <!-- Generator: Adobe Illustrator 30.1.0, SVG Export Plug-In . SVG Version: 2.1.1 Build 136)  -->
  <circle id="Outer" cx="50.5" cy="50.5" r="40.75" fill="none" stroke="#000" stroke-width="19.51"/>
  <g>
    <g>
      <rect x="47.26" y="63.09" width="6.43" height="6.43"/>
      <path d="M52.11,64.67v3.28h-3.28v-3.28h3.28M55.27,61.51h-9.59v9.59h9.59v-9.59h0Z"/>
    </g>
    <g>
      <path d="M47.28,57.08l-.03-2.8c0-1.96.73-3.82,2.03-5.26l3.24-3.6c.63-.69.97-1.59.97-2.52,0-1.07-.88-1.94-1.96-1.94h-2.09c-1.08,0-1.96.87-1.96,1.94v1.58h-6.46v-1.58c0-4.62,3.78-8.38,8.42-8.38h2.09c4.64,0,8.42,3.76,8.42,8.38,0,2.52-.93,4.95-2.63,6.83l-3.25,3.6c-.25.28-.38.59-.38.94l-.03,2.81h-6.4Z"/>
      <path d="M51.54,36.1c3.77,0,6.85,3.05,6.85,6.8,0,2.13-.79,4.18-2.22,5.77l-3.25,3.6c-.5.56-.78,1.25-.78,2v1.24h-3.29v-1.24c0-1.55.57-3.03,1.61-4.19l3.25-3.6c.89-.98,1.38-2.25,1.38-3.58,0-1.94-1.59-3.51-3.54-3.51h-2.09c-1.95,0-3.54,1.58-3.54,3.51h-3.31c0-3.75,3.07-6.8,6.85-6.8h2.09M51.54,32.94h-2.09c-5.51,0-10,4.47-10,9.95v3.16h9.62v-3.16c0-.19.17-.36.38-.36h2.09c.21,0,.38.16.38.36,0,.54-.2,1.06-.56,1.46l-3.25,3.6c-1.56,1.73-2.43,3.96-2.44,6.29v1.28s.04,3.13.04,3.13h9.53l.03-3.12v-1.18s3.23-3.57,3.23-3.57c1.96-2.17,3.04-4.97,3.04-7.88,0-5.49-4.49-9.95-10-9.95h0Z"/>
    </g>
  </g>
</svg>