<?xml version="1.0" encoding="UTF-8"?>
<svg id="Layer_1" xmlns="http://www.w3.org/2000/svg" version="1.1" viewBox="0 0 101 101">
  <!-- Generator: Adobe Illustrator 30.1.0, SVG Export Plug-In . SVG Version: 2.1.1 Build 136)  -->
  <circle id="Outer" cx="50.5" cy="50.5" r="46.11" fill="none" stroke="#000" stroke-width="8.77"/>
  <g>
    <g>
      <rect x="47.31" y="67.18" width="6.32" height="6.32"/>
      <path d="M53,67.81v5.06h-5.06v-5.06h5.06M54.26,66.54h-7.58v7.58h7.58v-7.58h0Z"/>
    </g>
    <g>
      <path d="M47.32,60.2l-.02-2.54c0-2.56.96-5,2.67-6.9l5.01-5.55c1.27-1.4,1.96-3.21,1.96-5.1,0-2.64-2.17-4.79-4.83-4.79h-3.22c-2.66,0-4.83,2.15-4.83,4.79v.63h-6.37v-.63c0-6.13,5.02-11.12,11.2-11.12h3.22c6.17,0,11.2,4.99,11.2,11.12,0,3.45-1.28,6.76-3.59,9.33l-5.01,5.55c-.68.75-1.04,1.67-1.05,2.66l-.03,2.54h-6.31Z"/>
      <path d="M52.11,29.63c5.83,0,10.57,4.71,10.57,10.49,0,3.29-1.22,6.45-3.43,8.9l-5.01,5.55c-.78.86-1.21,1.93-1.21,3.08l-.02,1.91h-5.06l-.02-1.91c0-2.4.89-4.68,2.51-6.47l5.01-5.55c1.37-1.52,2.13-3.48,2.13-5.52,0-2.99-2.45-5.42-5.46-5.42h-3.22c-3.01,0-5.46,2.43-5.46,5.42h-5.1c0-5.78,4.74-10.49,10.57-10.49h3.22M52.11,28.37h-3.22c-6.52,0-11.83,5.27-11.83,11.75v1.26h7.63v-1.26c0-2.29,1.88-4.16,4.2-4.16h3.22c2.32,0,4.2,1.87,4.2,4.16,0,1.73-.64,3.39-1.8,4.67l-5.01,5.55c-1.82,2.01-2.82,4.6-2.83,7.31l.02,1.93v1.25h7.57v-1.25s.03-1.91.03-1.91c0-.84.31-1.61.88-2.25l5.01-5.55c2.42-2.68,3.76-6.14,3.76-9.75,0-6.48-5.31-11.75-11.83-11.75h0Z"/>
    </g>
  </g>
</svg>