<?xml version="1.0" encoding="UTF-8"?>
<svg id="Layer_1" xmlns="http://www.w3.org/2000/svg" version="1.1" viewBox="0 0 101 101">
  <!-- Generator: Adobe Illustrator 30.1.0, SVG Export Plug-In . SVG Version: 2.1.1 Build 136)  -->
  <circle id="Outer" cx="50.5" cy="50.5" r="39.86" fill="none" stroke="#000" stroke-width="21.27"/>
  <g>
    <g>
      <rect x="47.23" y="62.4" width="6.48" height="6.48"/>
      <path d="M51.98,64.14v3.01h-3.01v-3.01h3.01M55.45,60.66h-9.96v9.96h9.96v-9.96h0Z"/>
    </g>
    <g>
      <path d="M47.26,56.64l-.03-2.86c0-1.88.7-3.65,1.94-5.03l2.98-3.3c.53-.58.82-1.34.82-2.12,0-.82-.68-1.49-1.51-1.49h-1.92c-.83,0-1.51.67-1.51,1.49v1.74h-6.51v-1.74c0-4.4,3.6-7.98,8.02-7.98h1.92c4.42,0,8.02,3.58,8.02,7.98,0,2.39-.88,4.68-2.49,6.46l-2.98,3.31c-.18.2-.27.43-.27.68l-.03,2.87h-6.45Z"/>
      <path d="M51.46,37.09c3.47,0,6.29,2.8,6.29,6.24,0,1.96-.73,3.84-2.04,5.3l-2.98,3.31c-.46.51-.72,1.15-.72,1.83v1.14h-3.02v-1.14c0-1.43.52-2.79,1.48-3.85l2.98-3.3c.82-.9,1.27-2.07,1.27-3.28,0-1.78-1.46-3.23-3.25-3.23h-1.92c-1.79,0-3.25,1.45-3.25,3.23h-3.04c0-3.44,2.82-6.24,6.29-6.24h1.92M51.46,33.61h-1.92c-5.38,0-9.76,4.36-9.76,9.72v3.47h8.81l-.71.79c-1.53,1.69-2.38,3.88-2.39,6.16v1.18s.04,3.44.04,3.44h9.89l.03-3.44v-.87s2.82-3.12,2.82-3.12c1.89-2.1,2.94-4.81,2.94-7.62,0-5.36-4.38-9.72-9.76-9.72h0ZM49.76,43.57h1.45c-.05.26-.17.51-.35.71l-1.1,1.22v-1.93h0Z"/>
    </g>
  </g>
</svg>