<?xml version="1.0" encoding="UTF-8"?>
<svg id="Layer_1" xmlns="http://www.w3.org/2000/svg" version="1.1" viewBox="0 0 101 101">
  <!-- Generator: Adobe Illustrator 30.1.0, SVG Export Plug-In . SVG Version: 2.1.1 Build 136)  -->
  <circle id="Outer" cx="50.5" cy="50.5" r="47" fill="none" stroke="#000" stroke-width="7.01"/>
  <g>
    <g>
      <rect x="47.31" y="67.84" width="6.32" height="6.32"/>
      <path d="M53.16,68.31v5.38h-5.38v-5.38h5.38M54.1,67.37h-7.27v7.27h7.27v-7.27h0Z"/>
    </g>
    <g>
      <path d="M47.31,60.79l-.02-2.5c0-2.67,1-5.22,2.79-7.19l5.32-5.9c1.38-1.53,2.14-3.5,2.14-5.55,0-2.92-2.39-5.29-5.33-5.29h-3.42c-2.94,0-5.33,2.37-5.33,5.29v.47h-6.37v-.47c0-6.41,5.25-11.62,11.7-11.62h3.42c6.45,0,11.7,5.21,11.7,11.62,0,3.61-1.34,7.09-3.77,9.78l-5.33,5.9c-.76.84-1.16,1.86-1.16,2.96l-.03,2.5h-6.31Z"/>
      <path d="M52.21,28.49c6.19,0,11.23,5,11.23,11.15,0,3.5-1.3,6.86-3.65,9.46l-5.33,5.9c-.83.91-1.28,2.05-1.29,3.27l-.02,2.03h-5.38l-.02-2.03c0-2.55.95-4.98,2.66-6.87l5.33-5.9c1.46-1.61,2.26-3.7,2.26-5.87,0-3.18-2.6-5.76-5.8-5.76h-3.42c-3.2,0-5.8,2.59-5.8,5.76h-5.42c0-6.15,5.04-11.15,11.23-11.15h3.42M52.21,27.55h-3.42c-6.71,0-12.17,5.43-12.17,12.1v.95h7.32v-.95c0-2.66,2.18-4.82,4.86-4.82h3.42c2.68,0,4.86,2.16,4.86,4.82,0,1.93-.72,3.79-2.02,5.23l-5.33,5.9c-1.86,2.06-2.9,4.73-2.91,7.5l.02,2.05v.94h7.26v-.94s.03-2.03.03-2.03c0-.99.36-1.9,1.04-2.65l5.33-5.9c2.51-2.78,3.89-6.36,3.89-10.09,0-6.67-5.46-12.1-12.17-12.1h0Z"/>
    </g>
  </g>
</svg>