<?xml version="1.0" encoding="UTF-8"?>
<svg id="Layer_1" xmlns="http://www.w3.org/2000/svg" version="1.1" viewBox="0 0 101 101">
  <!-- Generator: Adobe Illustrator 30.1.0, SVG Export Plug-In . SVG Version: 2.1.1 Build 136)  -->
  <circle id="Outer" cx="50.5" cy="50.5" r="44.33" fill="none" stroke="#000" stroke-width="12.34"/>
  <g>
    <g>
      <rect x="47.31" y="65.83" width="6.33" height="6.33"/>
      <path d="M52.69,66.78v4.44h-4.44v-4.44h4.44M54.58,64.88h-8.23v8.23h8.23v-8.23h0Z"/>
    </g>
    <g>
      <path d="M47.32,59.08l-.02-2.62c0-2.34.88-4.58,2.44-6.32l4.4-4.87c1.05-1.16,1.62-2.65,1.62-4.21,0-2.1-1.72-3.81-3.84-3.81h-2.82c-2.12,0-3.84,1.71-3.84,3.81v.95h-6.37v-.95c0-5.6,4.58-10.15,10.22-10.15h2.82c5.63,0,10.22,4.55,10.22,10.15,0,3.12-1.16,6.12-3.25,8.45l-4.4,4.87c-.53.59-.82,1.3-.82,2.07l-.03,2.62h-6.31Z"/>
      <path d="M51.91,31.86c5.11,0,9.27,4.13,9.27,9.2,0,2.89-1.07,5.66-3.01,7.81l-4.4,4.87c-.68.75-1.06,1.69-1.06,2.7l-.02,1.68h-4.44v-1.68c0-2.1.77-4.11,2.18-5.67l4.4-4.87c1.2-1.33,1.87-3.05,1.87-4.84,0-2.62-2.15-4.76-4.79-4.76h-2.82c-2.64,0-4.79,2.13-4.79,4.76h-4.48c0-5.07,4.16-9.2,9.27-9.2h2.82M51.91,29.97h-2.82c-6.16,0-11.16,4.98-11.16,11.1v1.89h8.27v-1.89c0-1.58,1.3-2.86,2.9-2.86h2.82c1.6,0,2.9,1.28,2.9,2.86,0,1.32-.49,2.59-1.38,3.57l-4.4,4.87c-1.72,1.9-2.68,4.37-2.69,6.94v1.7s.03,1.88.03,1.88h8.19l.02-1.87.02-1.68c0-.55.19-1.03.57-1.45l4.4-4.87c2.26-2.5,3.5-5.72,3.5-9.08,0-6.12-5.01-11.1-11.16-11.1h0Z"/>
    </g>
  </g>
</svg>