<?xml version="1.0" encoding="UTF-8"?>
<svg id="Layer_1" xmlns="http://www.w3.org/2000/svg" version="1.1" viewBox="0 0 101 101">
  <!-- Generator: Adobe Illustrator 30.1.0, SVG Export Plug-In . SVG Version: 2.1.1 Build 136)  -->
  <circle id="Outer" cx="50.5" cy="50.5" r="42.53" fill="none" stroke="#000" stroke-width="15.94"/>
  <g>
    <g>
      <rect x="47.29" y="64.46" width="6.37" height="6.37"/>
      <path d="M52.39,65.73v3.84h-3.84v-3.84h3.84M54.92,63.2h-8.89v8.89h8.89v-8.89h0Z"/>
    </g>
    <g>
      <path d="M47.31,58.03l-.02-2.7c0-2.14.8-4.19,2.23-5.77l3.8-4.21c.83-.92,1.29-2.11,1.29-3.34,0-1.57-1.29-2.85-2.88-2.85h-2.44c-1.59,0-2.88,1.28-2.88,2.85v1.26h-6.4v-1.26c0-5.09,4.16-9.23,9.28-9.23h2.44c5.12,0,9.28,4.14,9.28,9.23,0,2.81-1.04,5.51-2.93,7.6l-3.8,4.22c-.39.43-.59.95-.59,1.5l-.03,2.71h-6.34Z"/>
      <path d="M51.72,34.04c4.42,0,8.02,3.57,8.02,7.96,0,2.5-.93,4.9-2.6,6.76l-3.8,4.22c-.59.65-.92,1.46-.92,2.34v1.45h-3.86v-1.45c0-1.82.66-3.55,1.89-4.91l3.8-4.21c1.04-1.15,1.61-2.64,1.61-4.19,0-2.27-1.86-4.12-4.15-4.12h-2.44c-2.29,0-4.15,1.85-4.15,4.12h-3.87c0-4.39,3.6-7.96,8.02-7.96h2.44M51.72,31.51h-2.44c-5.81,0-10.54,4.71-10.54,10.49v2.53h8.92v-2.53c0-.88.73-1.59,1.62-1.59h2.44c.89,0,1.62.71,1.62,1.59,0,.92-.34,1.81-.96,2.5l-3.8,4.21c-1.64,1.81-2.54,4.15-2.55,6.59v1.48s.04,2.5.04,2.5h8.84l.03-2.5v-1.45c.02-.26.1-.47.28-.67l3.81-4.22c2.1-2.32,3.25-5.33,3.25-8.45,0-5.78-4.73-10.49-10.54-10.49h0Z"/>
    </g>
  </g>
</svg>