<?xml version="1.0" encoding="UTF-8"?>
<svg id="Layer_1" xmlns="http://www.w3.org/2000/svg" version="1.1" viewBox="0 0 127 127">
  <!-- Generator: Adobe Illustrator 30.1.0, SVG Export Plug-In . SVG Version: 2.1.1 Build 136)  -->
  <path d="M63.5,8.81c1.78,0,3.56.92,4.49,2.77l11.44,22.71c1.96,3.9,5.63,6.65,9.91,7.46l24.75,4.64c3.87.73,5.44,5.43,2.78,8.34l-18.03,19.79c-2.78,3.05-4.08,7.18-3.54,11.28l3.52,26.68c.42,3.18-2.12,5.7-4.98,5.7-.76,0-1.54-.18-2.3-.57l-21.65-11.15c-2.01-1.03-4.2-1.55-6.4-1.55-2.19,0-4.39.52-6.4,1.55l-21.65,11.15c-.76.39-1.54.57-2.3.57-2.86,0-5.4-2.52-4.98-5.7l3.52-26.69c.54-4.09-.75-8.22-3.53-11.27l-18.04-19.79c-2.66-2.92-1.09-7.62,2.79-8.35l24.75-4.64c4.28-.8,7.94-3.56,9.9-7.45l11.44-22.72c.93-1.84,2.71-2.77,4.49-2.77M63.5,0C58.24,0,53.51,2.92,51.14,7.61l-11.44,22.72c-.72,1.43-2.09,2.46-3.66,2.76l-24.75,4.64c-4.93.92-8.98,4.45-10.57,9.21-1.59,4.76-.49,10.02,2.9,13.73l18.04,19.79c1.03,1.13,1.51,2.66,1.31,4.18l-3.52,26.69c-.52,3.96.68,7.94,3.3,10.93,2.64,3.01,6.44,4.74,10.41,4.74,2.18,0,4.37-.53,6.33-1.54l21.65-11.15c.73-.37,1.54-.57,2.36-.57.82,0,1.63.2,2.36.57l21.65,11.15c1.96,1.01,4.15,1.54,6.33,1.54,3.98,0,7.77-1.73,10.41-4.74,2.62-2.99,3.82-6.97,3.3-10.93l-3.52-26.68c-.2-1.53.28-3.06,1.31-4.2l18.03-19.79c3.38-3.71,4.49-8.97,2.89-13.73-1.59-4.76-5.64-8.28-10.57-9.21l-24.75-4.64c-1.57-.29-2.94-1.33-3.66-2.76l-11.44-22.71C73.49,2.92,68.75,0,63.5,0h0Z"/>
</svg>