<?xml version="1.0" encoding="UTF-8"?>
<svg id="Layer_1" xmlns="http://www.w3.org/2000/svg" version="1.1" viewBox="0 0 127 127">
  <!-- Generator: Adobe Illustrator 30.1.0, SVG Export Plug-In . SVG Version: 2.1.1 Build 136)  -->
  <path d="M63.5,20.04c1.41,0,2.83.73,3.56,2.2l9.09,18.05c1.56,3.1,4.47,5.29,7.87,5.93l19.67,3.69c3.08.58,4.32,4.31,2.21,6.63l-14.33,15.73c-2.21,2.43-3.24,5.71-2.81,8.97l2.8,21.2c.33,2.53-1.68,4.53-3.96,4.53-.6,0-1.22-.14-1.82-.45l-17.2-8.86c-1.59-.82-3.34-1.23-5.08-1.23s-3.49.41-5.08,1.23l-17.2,8.86c-.6.31-1.22.45-1.82.45-2.27,0-4.29-2-3.96-4.53l2.8-21.21c.43-3.25-.6-6.53-2.81-8.95l-14.33-15.73c-2.11-2.32-.86-6.06,2.21-6.63l19.67-3.69c3.4-.64,6.31-2.83,7.87-5.92l9.09-18.05c.74-1.47,2.15-2.2,3.56-2.2M63.5,0C54.37,0,46.14,5.07,42.04,13.22l-7.11,14.11-15.32,2.87c-8.56,1.6-15.6,7.73-18.36,15.99-2.77,8.26-.84,17.4,5.03,23.84l11.54,12.66-2.26,17.11c-.91,6.87,1.19,13.79,5.75,18.99,4.57,5.22,11.16,8.21,18.08,8.21,3.8,0,7.6-.92,11-2.67l13.11-6.75,13.11,6.75c3.4,1.75,7.2,2.67,11,2.67,6.92,0,13.51-2.99,18.08-8.21,4.56-5.2,6.65-12.12,5.74-18.99l-2.26-17.11,11.54-12.67c5.87-6.44,7.8-15.57,5.03-23.84-2.77-8.26-9.8-14.39-18.36-15.99l-15.32-2.87-7.11-14.11C80.85,5.07,72.63,0,63.5,0h0Z"/>
</svg>