<?xml version="1.0" encoding="UTF-8"?>
<svg id="Layer_1" xmlns="http://www.w3.org/2000/svg" version="1.1" viewBox="0 0 127 127">
  <!-- Generator: Adobe Illustrator 30.1.0, SVG Export Plug-In . SVG Version: 2.1.1 Build 136)  -->
  <path d="M63.5,24.53c1.27,0,2.53.66,3.2,1.97l8.15,16.18c1.4,2.78,4.01,4.74,7.06,5.31l17.64,3.31c2.76.52,3.88,3.87,1.98,5.95l-12.85,14.1c-1.98,2.18-2.91,5.12-2.52,8.04l2.51,19.02c.3,2.27-1.51,4.07-3.55,4.07-.54,0-1.1-.13-1.64-.4l-15.43-7.95c-1.43-.74-2.99-1.1-4.56-1.1-1.56,0-3.13.37-4.56,1.1l-15.43,7.95c-.54.28-1.1.4-1.64.4-2.04,0-3.85-1.8-3.55-4.07l2.51-19.02c.38-2.92-.54-5.86-2.52-8.03l-12.85-14.1c-1.89-2.08-.77-5.43,1.99-5.95l17.64-3.31c3.05-.57,5.66-2.54,7.06-5.31l8.15-16.19c.66-1.31,1.93-1.97,3.2-1.97M63.5,0C52.82,0,43.2,5.93,38.4,15.46l-4.91,9.75-10.55,1.98c-10.01,1.88-18.24,9.04-21.47,18.7-3.24,9.66-.98,20.34,5.88,27.87l8.3,9.11-1.63,12.32c-1.06,8.03,1.39,16.12,6.72,22.2,5.35,6.1,13.05,9.59,21.14,9.59,4.45,0,8.9-1.08,12.87-3.13l8.76-4.51,8.76,4.51c3.97,2.04,8.42,3.13,12.87,3.13,8.09,0,15.8-3.5,21.14-9.59,5.33-6.08,7.78-14.17,6.72-22.2l-1.63-12.32,8.3-9.11c6.86-7.53,9.12-18.21,5.88-27.87-3.24-9.66-11.46-16.82-21.47-18.7l-10.55-1.98-4.91-9.75C83.79,5.93,74.18,0,63.5,0h0Z"/>
</svg>