<?xml version="1.0" encoding="UTF-8"?>
<svg id="Layer_1" xmlns="http://www.w3.org/2000/svg" version="1.1" viewBox="0 0 61 61">
  <!-- Generator: Adobe Illustrator 30.1.0, SVG Export Plug-In . SVG Version: 2.1.1 Build 136)  -->
  <g>
    <g>
      <rect x="28.25" y="18.16" width="4.5" height="4.5"/>
      <path d="M31.8,19.11v2.59h-2.59v-2.59h2.59M33.7,17.21h-6.41v6.41h6.41v-6.41h0Z"/>
    </g>
    <g>
      <polygon points="25.65 42.25 25.65 37.75 28.25 37.75 28.25 31.55 25.65 31.55 25.65 27.05 32.75 27.05 32.75 37.75 35.35 37.75 35.35 42.25 25.65 42.25"/>
      <path d="M31.8,28v10.7h2.59v2.59h-7.78v-2.59h2.59v-8.1h-2.59v-2.59h5.19M33.7,26.1h-9v6.41h2.59v4.29h-2.59v6.41h11.6v-6.41h-2.59v-10.7h0Z"/>
    </g>
  </g>
  <circle id="Outer" cx="30.5" cy="30.5" r="24.61" fill="none" stroke="#000" stroke-width="11.78"/>
</svg>