<?xml version="1.0" encoding="UTF-8"?>
<svg id="Layer_1" xmlns="http://www.w3.org/2000/svg" version="1.1" viewBox="0 0 61 61">
  <!-- Generator: Adobe Illustrator 30.1.0, SVG Export Plug-In . SVG Version: 2.1.1 Build 136)  -->
  <g>
    <g>
      <rect x="28.29" y="17.39" width="4.43" height="4.43"/>
      <path d="M31.95,18.15v2.9h-2.9v-2.9h2.9M33.48,16.63h-5.95v5.95h5.95v-5.95h0Z"/>
    </g>
    <g>
      <polygon points="25.39 43.17 25.39 38.75 28.29 38.75 28.29 31.21 25.39 31.21 25.39 26.79 32.71 26.79 32.71 38.75 35.61 38.75 35.61 43.17 25.39 43.17"/>
      <path d="M31.95,27.55v11.96h2.9v2.9h-8.7v-2.9h2.9v-9.06h-2.9v-2.9h5.8M33.48,26.03h-8.85v5.95h2.9v6.01h-2.9v5.95h11.75v-5.95h-2.9v-11.96h0Z"/>
    </g>
  </g>
  <circle id="Outer" cx="30.5" cy="30.5" r="25.69" fill="none" stroke="#000" stroke-width="9.63"/>
</svg>