<?xml version="1.0" encoding="UTF-8"?>
<svg id="Layer_1" xmlns="http://www.w3.org/2000/svg" version="1.1" viewBox="0 0 61 61">
  <!-- Generator: Adobe Illustrator 30.1.0, SVG Export Plug-In . SVG Version: 2.1.1 Build 136)  -->
  <g>
    <g>
      <rect x="28.23" y="18.54" width="4.54" height="4.54"/>
      <path d="M31.72,19.59v2.45h-2.45v-2.45h2.45M33.82,17.49h-6.64v6.64h6.64v-6.64h0Z"/>
    </g>
    <g>
      <polygon points="25.78 41.79 25.78 37.25 28.23 37.25 28.23 31.71 25.78 31.71 25.78 27.17 32.77 27.17 32.77 37.25 35.22 37.25 35.22 41.79 25.78 41.79"/>
      <path d="M31.72,28.22v10.08h2.45v2.45h-7.34v-2.45h2.45v-7.64h-2.45v-2.45h4.89M33.82,26.12h-9.09v6.64h2.45v3.44h-2.45v6.64h11.53v-6.64h-2.45v-10.08h0Z"/>
    </g>
  </g>
  <circle id="Outer" cx="30.5" cy="30.5" r="24.08" fill="none" stroke="#000" stroke-width="12.85"/>
</svg>