<?xml version="1.0" encoding="UTF-8"?>
<svg id="Layer_1" xmlns="http://www.w3.org/2000/svg" version="1.1" viewBox="0 0 61 61">
  <!-- Generator: Adobe Illustrator 30.1.0, SVG Export Plug-In . SVG Version: 2.1.1 Build 136)  -->
  <g>
    <g>
      <rect x="28.35" y="15.83" width="4.3" height="4.3"/>
      <path d="M32.27,16.21v3.53h-3.53v-3.53h3.53M33.03,15.45h-5.06v5.06h5.06v-5.06h0Z"/>
    </g>
    <g>
      <polygon points="24.82 45.08 24.82 40.78 28.35 40.78 28.35 30.51 24.82 30.51 24.82 26.22 32.65 26.22 32.65 40.78 36.18 40.78 36.18 45.08 24.82 45.08"/>
      <path d="M32.27,26.6v14.56h3.53v3.53h-10.6v-3.53h3.53v-11.03h-3.53v-3.53h7.07M33.03,25.84h-8.59v5.06h3.53v9.51h-3.53v5.06h12.12v-5.06h-3.53v-14.56h0Z"/>
    </g>
  </g>
  <circle id="Outer" cx="30.5" cy="30.5" r="27.85" fill="none" stroke="#000" stroke-width="5.3"/>
</svg>