<?xml version="1.0" encoding="UTF-8"?>
<svg id="Layer_1" xmlns="http://www.w3.org/2000/svg" version="1.1" viewBox="0 0 61 61">
  <!-- Generator: Adobe Illustrator 30.1.0, SVG Export Plug-In . SVG Version: 2.1.1 Build 136)  -->
  <g>
    <g>
      <rect x="28.32" y="16.61" width="4.36" height="4.36"/>
      <path d="M32.11,17.18v3.22h-3.22v-3.22h3.22M33.25,16.04h-5.5v5.5h5.5v-5.5h0Z"/>
    </g>
    <g>
      <polygon points="25.1 44.12 25.1 39.76 28.32 39.76 28.32 30.87 25.1 30.87 25.1 26.51 32.68 26.51 32.68 39.76 35.9 39.76 35.9 44.12 25.1 44.12"/>
      <path d="M32.11,27.08v13.26h3.22v3.22h-9.65v-3.22h3.22v-10.04h-3.22v-3.22h6.43M33.25,25.94h-8.72v5.5h3.22v7.75h-3.22v5.5h11.93v-5.5h-3.22v-13.26h0Z"/>
    </g>
  </g>
  <circle id="Outer" cx="30.5" cy="30.5" r="26.77" fill="none" stroke="#000" stroke-width="7.45"/>
</svg>