<?xml version="1.0" encoding="UTF-8"?>
<svg id="Layer_1" xmlns="http://www.w3.org/2000/svg" version="1.1" viewBox="0 0 61 61">
  <!-- Generator: Adobe Illustrator 30.1.0, SVG Export Plug-In . SVG Version: 2.1.1 Build 136)  -->
  <g>
    <g>
      <rect x="28.37" y="15.44" width="4.27" height="4.26"/>
      <path d="M32.35,15.73v3.69h-3.69v-3.69h3.69M32.92,15.16h-4.84v4.84h4.84v-4.84h0Z"/>
    </g>
    <g>
      <polygon points="24.68 45.56 24.68 41.29 28.37 41.29 28.37 30.34 24.68 30.34 24.68 26.07 32.63 26.07 32.63 41.29 36.32 41.29 36.32 45.56 24.68 45.56"/>
      <path d="M32.35,26.36v15.22h3.69v3.69h-11.08v-3.69h3.69v-11.53h-3.69v-3.69h7.38M32.92,25.79h-8.53v4.84h3.69v10.38h-3.69v4.84h12.22v-4.84h-3.69v-15.22h0Z"/>
    </g>
  </g>
  <circle id="Outer" cx="30.5" cy="30.5" r="28.38" fill="none" stroke="#000" stroke-width="4.23"/>
</svg>