<?xml version="1.0" encoding="UTF-8"?>
<svg id="Layer_1" xmlns="http://www.w3.org/2000/svg" version="1.1" viewBox="0 0 115 115">
  <!-- Generator: Adobe Illustrator 30.1.0, SVG Export Plug-In . SVG Version: 2.1.1 Build 136)  -->
  <path d="M57.5,14.05c1.41,0,2.83.73,3.56,2.2l9.09,18.04c1.56,3.1,4.47,5.29,7.87,5.92l19.66,3.69c3.07.58,4.32,4.31,2.21,6.63l-14.33,15.72c-2.21,2.43-3.24,5.71-2.81,8.96l2.8,21.2c.33,2.53-1.68,4.53-3.96,4.53-.6,0-1.22-.14-1.82-.45l-17.2-8.86c-1.59-.82-3.34-1.23-5.08-1.23s-3.49.41-5.08,1.23l-17.2,8.86c-.6.31-1.22.45-1.82.45-2.27,0-4.29-2-3.96-4.53l2.8-21.21c.43-3.25-.6-6.53-2.81-8.95l-14.33-15.72c-2.11-2.32-.86-6.06,2.21-6.63l19.66-3.69c3.4-.64,6.31-2.83,7.87-5.92l9.09-18.05c.74-1.47,2.15-2.2,3.56-2.2M57.5,0C50.64,0,44.47,3.8,41.39,9.93l-8.44,16.75-18.22,3.42c-6.43,1.2-11.71,5.81-13.79,12.01-2.08,6.21-.63,13.06,3.77,17.9l13.41,14.72-2.62,19.86c-.68,5.16.89,10.35,4.31,14.25,3.44,3.92,8.38,6.17,13.58,6.17,2.85,0,5.71-.69,8.26-2.01l15.85-8.16,15.85,8.16c2.55,1.31,5.41,2.01,8.26,2.01,5.19,0,10.14-2.25,13.58-6.17,3.42-3.9,4.99-9.1,4.31-14.25l-2.62-19.86,13.42-14.72c4.41-4.84,5.85-11.69,3.77-17.9-2.08-6.2-7.36-10.8-13.78-12.01l-18.23-3.42-8.44-16.75C70.53,3.8,64.35,0,57.5,0h0Z"/>
</svg>