<?xml version="1.0" encoding="UTF-8"?>
<svg id="Layer_1" xmlns="http://www.w3.org/2000/svg" version="1.1" viewBox="0 0 115 115">
  <!-- Generator: Adobe Illustrator 30.1.0, SVG Export Plug-In . SVG Version: 2.1.1 Build 136)  -->
  <path d="M57.5,7.98c1.61,0,3.22.83,4.06,2.5l10.36,20.57c1.78,3.53,5.1,6.03,8.97,6.75l22.41,4.2c3.5.66,4.93,4.92,2.52,7.55l-16.33,17.92c-2.52,2.76-3.69,6.5-3.2,10.22l3.19,24.16c.38,2.88-1.92,5.17-4.51,5.17-.69,0-1.39-.16-2.08-.51l-19.6-10.1c-1.82-.94-3.8-1.4-5.79-1.4-1.99,0-3.97.47-5.79,1.4l-19.6,10.1c-.68.35-1.39.51-2.08.51-2.59,0-4.89-2.28-4.51-5.17l3.19-24.17c.49-3.71-.68-7.44-3.2-10.2l-16.33-17.92c-2.41-2.64-.98-6.9,2.52-7.56l22.41-4.2c3.87-.73,7.19-3.22,8.97-6.75l10.36-20.57c.84-1.67,2.45-2.5,4.06-2.5M57.5,0c-4.76,0-9.04,2.64-11.19,6.89l-10.36,20.57c-.65,1.3-1.89,2.23-3.31,2.5l-22.41,4.2c-4.46.84-8.13,4.03-9.57,8.34-1.44,4.31-.44,9.08,2.62,12.44l16.33,17.92c.94,1.03,1.37,2.41,1.19,3.79l-3.19,24.17c-.47,3.58.62,7.19,2.99,9.9,2.39,2.73,5.83,4.29,9.43,4.29,1.97,0,3.96-.48,5.73-1.4l19.6-10.1c.66-.34,1.4-.52,2.14-.52.74,0,1.48.18,2.14.52l19.6,10.1c1.78.91,3.76,1.4,5.73,1.4,3.6,0,7.04-1.56,9.43-4.29,2.37-2.7,3.46-6.31,2.99-9.9l-3.19-24.16c-.18-1.39.25-2.77,1.19-3.8l16.33-17.92c3.06-3.36,4.07-8.12,2.62-12.43-1.44-4.31-5.11-7.5-9.57-8.34l-22.41-4.2c-1.42-.27-2.66-1.2-3.32-2.5l-10.36-20.57c-2.14-4.25-6.43-6.89-11.19-6.89h0Z"/>
</svg>