<?xml version="1.0" encoding="UTF-8"?>
<svg id="Layer_1" xmlns="http://www.w3.org/2000/svg" version="1.1" viewBox="0 0 115 115">
  <!-- Generator: Adobe Illustrator 30.1.0, SVG Export Plug-In . SVG Version: 2.1.1 Build 136)  -->
  <path d="M57.5,18.15c1.28,0,2.56.66,3.23,1.99l8.23,16.34c1.41,2.8,4.05,4.79,7.13,5.37l17.81,3.34c2.78.52,3.91,3.91,2,6l-12.98,14.24c-2,2.2-2.93,5.17-2.54,8.12l2.53,19.2c.3,2.29-1.52,4.1-3.58,4.1-.55,0-1.11-.13-1.65-.41l-15.58-8.02c-1.44-.74-3.02-1.12-4.6-1.12-1.58,0-3.16.37-4.6,1.12l-15.58,8.02c-.54.28-1.11.41-1.65.41-2.06,0-3.88-1.81-3.58-4.1l2.53-19.21c.39-2.95-.54-5.91-2.54-8.11l-12.98-14.24c-1.91-2.1-.78-5.48,2.01-6.01l17.81-3.34c3.08-.58,5.71-2.56,7.13-5.36l8.23-16.34c.67-1.33,1.95-1.99,3.23-1.99M57.5,0C49.23,0,41.78,4.59,38.06,11.97l-6.43,12.77-13.87,2.6c-7.75,1.45-14.12,7-16.63,14.48-2.51,7.48-.76,15.75,4.55,21.59l10.45,11.47-2.04,15.49c-.82,6.22,1.08,12.49,5.2,17.19,4.14,4.72,10.11,7.43,16.37,7.43,3.44,0,6.89-.84,9.96-2.42l11.87-6.11,11.87,6.11c3.08,1.58,6.52,2.42,9.96,2.42,6.26,0,12.23-2.71,16.37-7.43,4.13-4.71,6.02-10.97,5.2-17.19l-2.04-15.49,10.45-11.47c5.31-5.83,7.06-14.1,4.55-21.58-2.51-7.48-8.88-13.03-16.63-14.48l-13.87-2.6-6.43-12.77C73.21,4.59,65.77,0,57.5,0h0Z"/>
</svg>