<?xml version="1.0" encoding="UTF-8"?>
<svg id="Layer_1" xmlns="http://www.w3.org/2000/svg" version="1.1" viewBox="0 0 115 115">
  <!-- Generator: Adobe Illustrator 30.1.0, SVG Export Plug-In . SVG Version: 2.1.1 Build 136)  -->
  <path d="M57.5,22.21c1.15,0,2.29.6,2.89,1.79l7.38,14.66c1.27,2.51,3.63,4.29,6.39,4.81l15.97,2.99c2.5.47,3.51,3.5,1.8,5.38l-11.64,12.77c-1.8,1.97-2.63,4.64-2.28,7.28l2.27,17.22c.27,2.05-1.37,3.68-3.21,3.68-.49,0-.99-.11-1.48-.37l-13.97-7.2c-1.3-.67-2.71-1-4.13-1s-2.83.33-4.13,1l-13.97,7.2c-.49.25-.99.37-1.48.37-1.85,0-3.48-1.63-3.21-3.68l2.27-17.22c.35-2.64-.49-5.3-2.28-7.27l-11.64-12.77c-1.71-1.88-.7-4.92,1.8-5.39l15.97-2.99c2.76-.52,5.12-2.3,6.39-4.81l7.38-14.66c.6-1.19,1.75-1.79,2.89-1.79M57.5,0C47.83,0,39.12,5.37,34.77,14l-4.45,8.83-9.55,1.79c-9.06,1.7-16.52,8.19-19.45,16.93-2.93,8.75-.89,18.42,5.32,25.24l7.51,8.25-1.47,11.16c-.96,7.27,1.26,14.6,6.09,20.11,4.84,5.52,11.82,8.69,19.15,8.69,4.03,0,8.06-.98,11.65-2.83l7.93-4.08,7.93,4.08c3.6,1.85,7.62,2.83,11.65,2.83,7.33,0,14.3-3.17,19.15-8.69,4.83-5.51,7.05-12.83,6.09-20.11l-1.47-11.16,7.52-8.25c6.21-6.82,8.25-16.49,5.32-25.24-2.93-8.75-10.38-15.23-19.44-16.93l-9.56-1.79-4.45-8.83C75.88,5.37,67.17,0,57.5,0h0Z"/>
</svg>