<?xml version="1.0" encoding="UTF-8"?>
<svg id="Layer_1" xmlns="http://www.w3.org/2000/svg" version="1.1" viewBox="0 0 115 115">
  <!-- Generator: Adobe Illustrator 30.1.0, SVG Export Plug-In . SVG Version: 2.1.1 Build 136)  -->
  <path d="M57.5,9.99c1.54,0,3.09.8,3.9,2.4l9.94,19.73c1.71,3.39,4.89,5.78,8.61,6.48l21.5,4.03c3.36.63,4.73,4.72,2.42,7.25l-15.67,17.19c-2.42,2.65-3.54,6.24-3.07,9.8l3.06,23.18c.36,2.77-1.84,4.96-4.33,4.96-.66,0-1.34-.15-1.99-.49l-18.81-9.69c-1.74-.9-3.65-1.35-5.56-1.35s-3.81.45-5.56,1.35l-18.81,9.69c-.66.34-1.34.49-1.99.49-2.49,0-4.69-2.19-4.33-4.96l3.06-23.19c.47-3.56-.65-7.14-3.07-9.79l-15.67-17.19c-2.31-2.53-.94-6.62,2.42-7.25l21.5-4.03c3.72-.7,6.9-3.09,8.6-6.47l9.94-19.73c.81-1.6,2.35-2.4,3.9-2.4M57.5,0C52.05,0,47.13,3.03,44.68,7.9l-9.94,19.73c-.3.6-.87,1.03-1.52,1.15l-21.5,4.03c-5.11.96-9.32,4.62-10.97,9.55-1.65,4.94-.5,10.4,3,14.25l15.67,17.19c.43.47.63,1.11.55,1.75l-3.06,23.19c-.54,4.11.71,8.24,3.43,11.34,2.74,3.12,6.68,4.91,10.8,4.91,2.26,0,4.54-.55,6.57-1.6l18.81-9.69c.31-.16.64-.24.98-.24s.67.08.98.24l18.81,9.69c2.03,1.05,4.3,1.6,6.57,1.6,4.13,0,8.07-1.79,10.8-4.91,2.72-3.1,3.97-7.23,3.43-11.34l-3.06-23.18c-.08-.64.12-1.29.55-1.77l15.67-17.19c3.51-3.85,4.66-9.31,3-14.24-1.65-4.93-5.85-8.59-10.97-9.55l-21.5-4.03c-.65-.12-1.22-.55-1.53-1.15l-9.94-19.73C67.86,3.03,62.95,0,57.5,0h0Z"/>
</svg>