<?xml version="1.0" encoding="UTF-8"?>
<svg id="Layer_1" xmlns="http://www.w3.org/2000/svg" version="1.1" viewBox="0 0 126 126">
  <!-- Generator: Adobe Illustrator 30.1.0, SVG Export Plug-In . SVG Version: 2.1.1 Build 136)  -->
  <circle id="Outer" cx="63" cy="63" r="57.53" fill="none" stroke="#000" stroke-width="10.95"/>
  <g>
    <g>
      <rect x="59.02" y="83.8" width="7.89" height="7.89"/>
      <path d="M66.12,84.59v6.31h-6.31v-6.31h6.31M67.69,83.02h-9.46v9.46h9.46v-9.46h0Z"/>
    </g>
    <g>
      <path d="M59.03,75.1l-.03-3.17c.01-3.19,1.19-6.24,3.33-8.6l6.25-6.92c1.58-1.75,2.45-4.01,2.45-6.36,0-3.3-2.7-5.98-6.03-5.98h-4.02c-3.32,0-6.02,2.68-6.02,5.98v.79h-7.94v-.79c0-7.65,6.27-13.88,13.97-13.88h4.02c7.7,0,13.97,6.22,13.97,13.88,0,4.3-1.59,8.43-4.48,11.63l-6.25,6.93c-.85.94-1.3,2.09-1.31,3.32l-.03,3.17h-7.87Z"/>
      <path d="M65.01,36.96c7.27,0,13.18,5.87,13.18,13.09,0,4.11-1.52,8.05-4.28,11.11l-6.25,6.93c-.97,1.07-1.5,2.4-1.51,3.84l-.02,2.39h-6.31l-.02-2.39c.01-2.99,1.11-5.84,3.13-8.07l6.25-6.93c1.71-1.9,2.65-4.34,2.65-6.89,0-3.73-3.06-6.76-6.81-6.76h-4.02c-3.76,0-6.81,3.04-6.81,6.76h-6.37c0-7.22,5.91-13.09,13.18-13.09h4.02M65.01,35.39h-4.02c-8.14,0-14.76,6.58-14.76,14.66v1.57h9.52v-1.57c0-2.86,2.35-5.19,5.24-5.19h4.02c2.89,0,5.24,2.33,5.24,5.19,0,2.15-.8,4.22-2.25,5.83l-6.25,6.93c-2.27,2.5-3.52,5.74-3.53,9.12l.02,2.41v1.56h9.45l.02-1.56.02-2.39c0-1.04.38-2.01,1.1-2.8l6.25-6.93c3.02-3.35,4.69-7.67,4.69-12.16,0-8.09-6.62-14.66-14.76-14.66h0Z"/>
    </g>
  </g>
</svg>