<?xml version="1.0" encoding="UTF-8"?>
<svg id="Layer_1" xmlns="http://www.w3.org/2000/svg" version="1.1" viewBox="0 0 126 126">
  <!-- Generator: Adobe Illustrator 30.1.0, SVG Export Plug-In . SVG Version: 2.1.1 Build 136)  -->
  <circle id="Outer" cx="63" cy="63" r="50.83" fill="none" stroke="#000" stroke-width="24.33"/>
  <g>
    <g>
      <rect x="58.96" y="78.71" width="8.03" height="8.03"/>
      <path d="M65.01,80.67v4.09h-4.09v-4.09h4.09M68.95,76.74h-11.96v11.96h11.96v-11.96h0Z"/>
    </g>
    <g>
      <path d="M58.98,71.2l-.03-3.5c0-2.45.91-4.77,2.53-6.57l4.05-4.49c.78-.87,1.21-1.98,1.21-3.14,0-1.33-1.1-2.41-2.45-2.41h-2.6c-1.35,0-2.45,1.08-2.45,2.41v1.97h-8.06v-1.97c0-5.76,4.71-10.45,10.51-10.45h2.6c5.79,0,10.51,4.69,10.51,10.45,0,3.15-1.17,6.17-3.28,8.51l-4.05,4.49c-.31.34-.47.74-.47,1.18l-.04,3.51h-7.99Z"/>
      <path d="M64.3,45.03c4.71,0,8.54,3.8,8.54,8.48,0,2.66-.99,5.21-2.77,7.2l-4.05,4.49c-.63.69-.98,1.56-.98,2.49l-.02,1.55h-4.09v-1.55c0-1.94.71-3.79,2.01-5.23l4.05-4.49c1.11-1.23,1.72-2.81,1.72-4.46,0-2.42-1.98-4.38-4.41-4.38h-2.6c-2.43,0-4.41,1.97-4.41,4.38h-4.13c0-4.67,3.83-8.48,8.54-8.48h2.6M64.3,41.1h-2.6c-6.88,0-12.48,5.57-12.48,12.42v3.94h12v-3.94c0-.24.22-.45.48-.45h2.6c.26,0,.48.2.48.45,0,.67-.25,1.32-.7,1.82l-4.05,4.49c-1.95,2.16-3.03,4.94-3.04,7.85v1.6s.05,3.9.05,3.9h11.89l.04-3.9v-1.48s4.03-4.45,4.03-4.45c2.44-2.71,3.79-6.2,3.79-9.83,0-6.85-5.6-12.42-12.48-12.42h0Z"/>
    </g>
  </g>
</svg>