<?xml version="1.0" encoding="UTF-8"?>
<svg id="Layer_1" xmlns="http://www.w3.org/2000/svg" version="1.1" viewBox="0 0 126 126">
  <!-- Generator: Adobe Illustrator 30.1.0, SVG Export Plug-In . SVG Version: 2.1.1 Build 136)  -->
  <circle id="Outer" cx="63" cy="63" r="49.73" fill="none" stroke="#000" stroke-width="26.54"/>
  <g>
    <g>
      <rect x="58.93" y="77.85" width="8.09" height="8.09"/>
      <path d="M64.85,80.01v3.76h-3.76v-3.76h3.76M69.18,75.68h-12.42v12.42h12.42v-12.42h0Z"/>
    </g>
    <g>
      <path d="M58.95,70.66l-.03-3.57c0-2.34.87-4.56,2.42-6.27l3.72-4.12c.66-.73,1.02-1.67,1.02-2.65,0-1.03-.85-1.86-1.89-1.86h-2.39c-1.04,0-1.89.83-1.89,1.86v2.17h-8.12v-2.17c0-5.49,4.49-9.95,10.01-9.95h2.39c5.52,0,10.01,4.47,10.01,9.95,0,2.98-1.1,5.84-3.11,8.06l-3.72,4.12c-.22.25-.34.53-.34.85l-.04,3.58h-8.05Z"/>
      <path d="M64.19,46.27c4.33,0,7.84,3.5,7.84,7.79,0,2.44-.9,4.79-2.55,6.61l-3.72,4.12c-.58.64-.9,1.43-.9,2.29v1.42h-3.77v-1.42c0-1.78.65-3.48,1.85-4.8l3.72-4.12c1.02-1.13,1.58-2.58,1.58-4.1,0-2.22-1.82-4.03-4.05-4.03h-2.39c-2.24,0-4.05,1.81-4.05,4.03h-3.79c0-4.29,3.52-7.79,7.84-7.79h2.39M64.19,41.93h-2.39c-6.71,0-12.18,5.44-12.18,12.12v4.33h11l-.89.99c-1.91,2.11-2.97,4.84-2.98,7.69v.03s0,.03,0,.03v1.42s.05,4.29.05,4.29h12.34l.04-4.29v-1.09s3.52-3.89,3.52-3.89c2.36-2.62,3.66-5.99,3.66-9.51,0-6.68-5.46-12.12-12.18-12.12h0ZM62.08,54.36h1.81c-.06.33-.21.64-.44.89l-1.37,1.52v-2.41h0Z"/>
    </g>
  </g>
</svg>