<?xml version="1.0" encoding="UTF-8"?>
<svg id="Layer_1" xmlns="http://www.w3.org/2000/svg" version="1.1" viewBox="0 0 126 126">
  <!-- Generator: Adobe Illustrator 30.1.0, SVG Export Plug-In . SVG Version: 2.1.1 Build 136)  -->
  <circle id="Outer" cx="63" cy="63" r="53.06" fill="none" stroke="#000" stroke-width="19.88"/>
  <g>
    <g>
      <rect x="59" y="80.42" width="7.94" height="7.94"/>
      <path d="M65.36,81.99v4.79h-4.79v-4.79h4.79M68.51,78.84h-11.09v11.09h11.09v-11.09h0Z"/>
    </g>
    <g>
      <path d="M59.02,72.39l-.03-3.37c0-2.68,1-5.22,2.78-7.2l4.74-5.26c1.04-1.15,1.61-2.63,1.61-4.17,0-1.96-1.61-3.56-3.6-3.56h-3.05c-1.98,0-3.6,1.6-3.6,3.56v1.58h-7.98v-1.58c0-6.35,5.2-11.51,11.58-11.51h3.05c6.38,0,11.58,5.16,11.58,11.51,0,3.51-1.3,6.88-3.66,9.49l-4.75,5.26c-.48.53-.74,1.18-.74,1.87l-.03,3.38h-7.91Z"/>
      <path d="M64.52,42.46c5.52,0,10.01,4.46,10.01,9.93,0,3.12-1.15,6.11-3.25,8.43l-4.75,5.26c-.74.81-1.14,1.82-1.15,2.92l-.02,1.81h-4.79l-.02-1.81c0-2.27.85-4.43,2.37-6.12l4.75-5.26c1.3-1.44,2.01-3.3,2.01-5.23,0-2.83-2.32-5.14-5.17-5.14h-3.05c-2.85,0-5.17,2.3-5.17,5.14h-4.83c0-5.48,4.49-9.93,10.01-9.93h3.05M64.52,39.31h-3.05c-7.25,0-13.16,5.87-13.16,13.08v3.15h11.13v-3.15c0-1.09.91-1.99,2.02-1.99h3.05c1.11,0,2.02.89,2.02,1.99,0,1.15-.43,2.26-1.2,3.12l-4.75,5.26c-2.04,2.26-3.17,5.18-3.19,8.22l.02,1.85.03,3.12h11.03l.03-3.12.02-1.81c0-.32.11-.59.33-.84l4.75-5.26c2.62-2.9,4.06-6.64,4.06-10.54,0-7.22-5.9-13.08-13.16-13.08h0Z"/>
    </g>
  </g>
</svg>