<?xml version="1.0" encoding="UTF-8"?>
<svg id="Layer_1" xmlns="http://www.w3.org/2000/svg" version="1.1" viewBox="0 0 126 126">
  <!-- Generator: Adobe Illustrator 30.1.0, SVG Export Plug-In . SVG Version: 2.1.1 Build 136)  -->
  <circle id="Outer" cx="63" cy="63" r="58.63" fill="none" stroke="#000" stroke-width="8.74"/>
  <g>
    <g>
      <rect x="59.02" y="84.63" width="7.89" height="7.89"/>
      <path d="M66.31,85.22v6.71h-6.71v-6.71h6.71M67.5,84.04h-9.07v9.07h9.07v-9.07h0Z"/>
    </g>
    <g>
      <path d="M59.02,75.83l-.03-3.12c.01-3.33,1.25-6.51,3.48-8.98l6.64-7.36c1.72-1.91,2.67-4.36,2.67-6.92,0-3.64-2.98-6.6-6.65-6.6h-4.27c-3.67,0-6.65,2.96-6.65,6.6v.59h-7.95v-.59c0-8,6.55-14.5,14.6-14.5h4.27c8.05,0,14.6,6.5,14.6,14.5,0,4.51-1.67,8.84-4.7,12.2l-6.64,7.36c-.95,1.05-1.45,2.32-1.45,3.69l-.03,3.13h-7.88Z"/>
      <path d="M65.13,35.55c7.72,0,14.01,6.24,14.01,13.91,0,4.36-1.62,8.55-4.55,11.8l-6.64,7.36c-1.03,1.14-1.6,2.55-1.6,4.09l-.03,2.54h-6.71l-.02-2.54c.01-3.18,1.18-6.21,3.32-8.57l6.64-7.36c1.82-2.01,2.82-4.61,2.82-7.32,0-3.96-3.25-7.19-7.24-7.19h-4.27c-3.99,0-7.24,3.23-7.24,7.19h-6.77c0-7.67,6.28-13.91,14.01-13.91h4.27M65.13,34.36h-4.27c-8.37,0-15.19,6.77-15.19,15.09v1.18h9.13v-1.18c0-3.31,2.72-6.01,6.06-6.01h4.27c3.34,0,6.06,2.69,6.06,6.01,0,2.41-.89,4.73-2.52,6.53l-6.64,7.36c-2.33,2.57-3.61,5.9-3.63,9.36l.02,2.55v1.17h9.06v-1.17s.04-2.54.04-2.54c0-1.23.45-2.37,1.3-3.31l6.65-7.36c3.13-3.47,4.85-7.94,4.85-12.59,0-8.32-6.81-15.09-15.19-15.09h0Z"/>
    </g>
  </g>
</svg>