<?xml version="1.0" encoding="UTF-8"?>
<svg id="Layer_1" xmlns="http://www.w3.org/2000/svg" version="1.1" viewBox="0 0 126 126">
  <!-- Generator: Adobe Illustrator 30.1.0, SVG Export Plug-In . SVG Version: 2.1.1 Build 136)  -->
  <circle id="Outer" cx="63" cy="63" r="55.3" fill="none" stroke="#000" stroke-width="15.4"/>
  <g>
    <g>
      <rect x="59.01" y="82.12" width="7.9" height="7.9"/>
      <path d="M65.73,83.31v5.54h-5.54v-5.54h5.54M68.1,80.94h-10.26v10.26h10.26v-10.26h0Z"/>
    </g>
    <g>
      <path d="M59.03,73.7l-.03-3.27c.01-2.93,1.09-5.72,3.05-7.88l5.48-6.07c1.31-1.45,2.02-3.31,2.02-5.25,0-2.62-2.15-4.75-4.79-4.75h-3.52c-2.64,0-4.8,2.13-4.8,4.75v1.18h-7.95v-1.18c0-6.98,5.72-12.66,12.74-12.66h3.52c7.03,0,12.75,5.68,12.75,12.66,0,3.89-1.44,7.64-4.06,10.53l-5.49,6.08c-.67.74-1.02,1.63-1.02,2.58l-.03,3.27h-7.88Z"/>
      <path d="M64.76,39.75c6.38,0,11.56,5.15,11.56,11.48,0,3.6-1.33,7.06-3.75,9.74l-5.49,6.08c-.85.94-1.32,2.11-1.32,3.37l-.02,2.09h-5.54l-.02-2.09c0-2.62.98-5.13,2.74-7.08l5.48-6.08c1.5-1.66,2.33-3.81,2.33-6.04,0-3.27-2.68-5.93-5.98-5.93h-3.52c-3.3,0-5.98,2.66-5.98,5.93h-5.59c0-6.33,5.19-11.48,11.56-11.48h3.52M64.76,37.39h-3.52c-7.68,0-13.93,6.21-13.93,13.84v2.36h10.31v-2.36c0-1.97,1.62-3.57,3.61-3.57h3.52c1.99,0,3.61,1.6,3.61,3.57,0,1.65-.61,3.23-1.72,4.46l-5.48,6.08c-2.15,2.38-3.34,5.45-3.35,8.65l.02,2.12.02,2.34h10.22l.02-2.34.02-2.09c0-.69.24-1.29.71-1.81l5.49-6.08c2.81-3.12,4.36-7.14,4.36-11.33,0-7.63-6.25-13.84-13.93-13.84h0Z"/>
    </g>
  </g>
</svg>