<?xml version="1.0" encoding="UTF-8"?>
<svg id="Layer_1" xmlns="http://www.w3.org/2000/svg" version="1.1" viewBox="0 0 59 59">
  <!-- Generator: Adobe Illustrator 30.1.0, SVG Export Plug-In . SVG Version: 2.1.1 Build 136)  -->
  <circle id="Outer" cx="29.5" cy="29.5" r="23.8" fill="none" stroke="#000" stroke-width="11.39"/>
  <g>
    <g>
      <rect x="27.61" y="36.85" width="3.76" height="3.76"/>
      <path d="M30.44,37.78v1.91h-1.91v-1.91h1.91M32.29,35.93h-5.6v5.6h5.6v-5.6h0Z"/>
    </g>
    <g>
      <path d="M27.62,33.34v-1.64c0-1.14.41-2.23,1.17-3.07l1.9-2.1c.37-.41.57-.93.57-1.47,0-.62-.51-1.13-1.14-1.13h-1.22c-.63,0-1.14.51-1.14,1.13v.92h-3.78v-.92c0-2.7,2.21-4.89,4.92-4.89h1.22c2.71,0,4.92,2.19,4.92,4.89,0,1.47-.54,2.89-1.54,3.99l-1.9,2.1c-.15.16-.22.35-.22.55l-.02,1.64h-3.74Z"/>
      <path d="M30.11,21.09c2.2,0,4,1.78,4,3.97,0,1.25-.46,2.44-1.3,3.37l-1.9,2.1c-.29.33-.46.73-.46,1.17v.72h-1.92v-.72c0-.91.33-1.77.94-2.45l1.9-2.1c.52-.58.81-1.32.81-2.09,0-1.13-.93-2.05-2.07-2.05h-1.22c-1.14,0-2.07.92-2.07,2.05h-1.93c0-2.19,1.79-3.97,4-3.97h1.22M30.11,19.24h-1.22c-3.22,0-5.84,2.61-5.84,5.81v1.84h5.62v-1.84c0-.11.1-.21.22-.21h1.22c.12,0,.22.1.22.21,0,.31-.12.62-.33.85l-1.9,2.1c-.91,1.01-1.42,2.32-1.42,3.68v.75s.02,1.83.02,1.83h5.57l.02-1.83v-.69s1.89-2.08,1.89-2.08c1.14-1.27,1.77-2.9,1.77-4.6,0-3.21-2.62-5.81-5.84-5.81h0Z"/>
    </g>
  </g>
</svg>