<?xml version="1.0" encoding="UTF-8"?>
<svg id="Layer_1" xmlns="http://www.w3.org/2000/svg" version="1.1" viewBox="0 0 59 59">
  <!-- Generator: Adobe Illustrator 30.1.0, SVG Export Plug-In . SVG Version: 2.1.1 Build 136)  -->
  <circle id="Outer" cx="29.5" cy="29.5" r="24.84" fill="none" stroke="#000" stroke-width="9.31"/>
  <g>
    <g>
      <rect x="27.63" y="37.66" width="3.72" height="3.72"/>
      <path d="M30.61,38.39v2.24h-2.24v-2.24h2.24M32.08,36.92h-5.19v5.19h5.19v-5.19h0Z"/>
    </g>
    <g>
      <path d="M27.64,33.9v-1.58c0-1.25.45-2.45,1.29-3.37l2.22-2.46c.49-.54.75-1.23.75-1.95,0-.92-.75-1.67-1.68-1.67h-1.43c-.93,0-1.68.75-1.68,1.67v.74h-3.74v-.74c0-2.97,2.43-5.39,5.42-5.39h1.43c2.99,0,5.42,2.42,5.42,5.39,0,1.64-.61,3.22-1.71,4.44l-2.22,2.46c-.23.25-.35.55-.35.88l-.02,1.58h-3.7Z"/>
      <path d="M30.21,19.88c2.58,0,4.68,2.09,4.68,4.65,0,1.46-.54,2.86-1.52,3.95l-2.22,2.46c-.34.38-.53.85-.54,1.37v.85h-2.25v-.85c0-1.06.39-2.08,1.1-2.87l2.22-2.46c.61-.67.94-1.54.94-2.45,0-1.33-1.09-2.4-2.42-2.4h-1.43c-1.34,0-2.42,1.08-2.42,2.4h-2.26c0-2.56,2.1-4.65,4.68-4.65h1.43M30.21,18.41h-1.43c-3.4,0-6.16,2.75-6.16,6.13v1.48h5.21v-1.48c0-.51.42-.93.95-.93h1.43c.52,0,.95.42.95.93,0,.54-.2,1.06-.56,1.46l-2.22,2.46c-.96,1.06-1.49,2.43-1.49,3.85v.87s.02,1.46.02,1.46h5.17v-1.46s.02-.85.02-.85c0-.15.05-.28.16-.39l2.22-2.46c1.23-1.36,1.9-3.11,1.9-4.94,0-3.38-2.76-6.13-6.16-6.13h0Z"/>
    </g>
  </g>
</svg>