<?xml version="1.0" encoding="UTF-8"?>
<svg id="Layer_1" xmlns="http://www.w3.org/2000/svg" version="1.1" viewBox="0 0 59 59">
  <!-- Generator: Adobe Illustrator 30.1.0, SVG Export Plug-In . SVG Version: 2.1.1 Build 136)  -->
  <circle id="Outer" cx="29.5" cy="29.5" r="25.9" fill="none" stroke="#000" stroke-width="7.21"/>
  <g>
    <g>
      <rect x="27.63" y="38.46" width="3.7" height="3.7"/>
      <path d="M30.78,39.01v2.59h-2.59v-2.59h2.59M31.89,37.9h-4.81v4.81h4.81v-4.81h0Z"/>
    </g>
    <g>
      <path d="M27.64,34.51v-1.53c0-1.37.5-2.68,1.41-3.69l2.57-2.84c.61-.68.95-1.55.95-2.46,0-1.23-1.01-2.23-2.25-2.23h-1.65c-1.24,0-2.25,1-2.25,2.23v.55h-3.72v-.55c0-3.27,2.68-5.93,5.97-5.93h1.65c3.29,0,5.97,2.66,5.97,5.93,0,1.82-.67,3.58-1.9,4.93l-2.57,2.85c-.31.34-.48.76-.48,1.21v1.53h-3.7Z"/>
      <path d="M30.32,18.61c2.99,0,5.41,2.41,5.41,5.38,0,1.69-.62,3.31-1.76,4.56l-2.57,2.85c-.4.44-.62.99-.62,1.58v.98h-2.6v-.98c0-1.23.45-2.4,1.28-3.31l2.57-2.84c.7-.78,1.09-1.78,1.09-2.83,0-1.53-1.26-2.78-2.8-2.78h-1.65c-1.54,0-2.8,1.25-2.8,2.78h-2.62c0-2.96,2.43-5.38,5.41-5.38h1.65M30.32,17.51h-1.65c-3.6,0-6.52,2.91-6.52,6.48v1.11h4.83v-1.11c0-.92.76-1.67,1.69-1.67h1.65c.93,0,1.69.75,1.69,1.67,0,.77-.29,1.51-.81,2.09l-2.57,2.85c-1.01,1.11-1.56,2.55-1.57,4.05v.99s.02,1.1.02,1.1h4.78v-1.1s.02-.98.02-.98c0-.32.11-.6.33-.85l2.57-2.85c1.32-1.46,2.04-3.34,2.04-5.3,0-3.57-2.93-6.48-6.52-6.48h0Z"/>
    </g>
  </g>
</svg>