<?xml version="1.0" encoding="UTF-8"?>
<svg id="Layer_1" xmlns="http://www.w3.org/2000/svg" version="1.1" viewBox="0 0 59 59">
  <!-- Generator: Adobe Illustrator 30.1.0, SVG Export Plug-In . SVG Version: 2.1.1 Build 136)  -->
  <circle id="Outer" cx="29.5" cy="29.5" r="27.45" fill="none" stroke="#000" stroke-width="4.09"/>
  <g>
    <g>
      <rect x="27.63" y="39.63" width="3.69" height="3.69"/>
      <path d="M31.05,39.91v3.14h-3.14v-3.14h3.14M31.61,39.35h-4.25v4.25h4.25v-4.25h0Z"/>
    </g>
    <g>
      <path d="M27.64,35.51v-1.46c0-1.56.57-3.05,1.61-4.2l3.11-3.45c.81-.89,1.25-2.04,1.25-3.24,0-1.7-1.4-3.09-3.11-3.09h-2c-1.72,0-3.11,1.39-3.11,3.09v.28h-3.72v-.28c0-3.74,3.07-6.79,6.84-6.79h2c3.77,0,6.83,3.05,6.83,6.79,0,2.11-.78,4.14-2.2,5.71l-3.11,3.45c-.44.49-.68,1.09-.68,1.73v1.46h-3.7Z"/>
      <path d="M30.5,16.64c3.62,0,6.56,2.92,6.56,6.51,0,2.04-.76,4.01-2.13,5.53l-3.11,3.45c-.48.53-.75,1.2-.75,1.91v1.19h-3.15v-1.19c0-1.49.54-2.91,1.55-4.01l3.11-3.45c.85-.94,1.32-2.16,1.32-3.43,0-1.86-1.52-3.37-3.39-3.37h-2c-1.87,0-3.39,1.51-3.39,3.37h-3.17c0-3.59,2.94-6.51,6.56-6.51h2M30.5,16.09h-2c-3.92,0-7.11,3.17-7.11,7.07v.55h4.28v-.55c0-1.55,1.27-2.81,2.84-2.81h2c1.56,0,2.84,1.26,2.84,2.81,0,1.13-.42,2.21-1.18,3.06l-3.11,3.45c-1.09,1.2-1.69,2.76-1.7,4.38v1.19s.02.55.02.55h4.24v-.55s.02-1.19.02-1.19c0-.58.21-1.11.61-1.55l3.11-3.45c1.47-1.62,2.27-3.72,2.27-5.9,0-3.9-3.19-7.07-7.11-7.07h0Z"/>
    </g>
  </g>
</svg>