<?xml version="1.0" encoding="UTF-8"?>
<svg id="Layer_1" xmlns="http://www.w3.org/2000/svg" version="1.1" viewBox="0 0 59 59">
  <!-- Generator: Adobe Illustrator 30.1.0, SVG Export Plug-In . SVG Version: 2.1.1 Build 136)  -->
  <circle id="Outer" cx="29.5" cy="29.5" r="23.29" fill="none" stroke="#000" stroke-width="12.43"/>
  <g>
    <g>
      <rect x="27.59" y="36.45" width="3.79" height="3.79"/>
      <path d="M30.37,37.47v1.76h-1.76v-1.76h1.76M32.39,35.44h-5.82v5.82h5.82v-5.82h0Z"/>
    </g>
    <g>
      <path d="M27.61,33.09v-1.67c-.01-1.09.39-2.13,1.12-2.94l1.74-1.93c.31-.34.48-.78.48-1.24,0-.48-.4-.87-.88-.87h-1.12c-.49,0-.88.39-.88.87v1.01h-3.8v-1.01c0-2.57,2.1-4.66,4.69-4.66h1.12c2.58,0,4.69,2.09,4.69,4.66,0,1.4-.52,2.74-1.45,3.77l-1.74,1.93c-.11.12-.16.25-.16.39l-.02,1.68h-3.77Z"/>
      <path d="M30.06,21.66c2.03,0,3.67,1.64,3.67,3.65,0,1.14-.42,2.24-1.19,3.1l-1.74,1.93c-.27.3-.42.67-.42,1.07v.67h-1.77v-.67c0-.83.3-1.63.87-2.25l1.74-1.93c.48-.53.74-1.21.74-1.92,0-1.04-.85-1.89-1.9-1.89h-1.12c-1.05,0-1.9.85-1.9,1.89h-1.77c0-2.01,1.65-3.65,3.67-3.65h1.12M30.06,19.64h-1.12c-3.14,0-5.7,2.55-5.7,5.68v2.03h5.15l-.42.46c-.89.99-1.39,2.27-1.39,3.6v.69s.02,2.01.02,2.01h5.78l.02-2.01v-.51s1.65-1.82,1.65-1.82c1.11-1.23,1.72-2.81,1.72-4.45,0-3.13-2.56-5.68-5.7-5.68h0ZM29.07,25.45h.85c-.03.15-.1.3-.2.42l-.64.71v-1.13h0Z"/>
    </g>
  </g>
</svg>