<?xml version="1.0" encoding="UTF-8"?>
<svg id="Layer_1" xmlns="http://www.w3.org/2000/svg" version="1.1" viewBox="0 0 59 59">
  <!-- Generator: Adobe Illustrator 30.1.0, SVG Export Plug-In . SVG Version: 2.1.1 Build 136)  -->
  <circle id="Outer" cx="29.5" cy="29.5" r="26.94" fill="none" stroke="#000" stroke-width="5.13"/>
  <g>
    <g>
      <rect x="27.64" y="39.24" width="3.69" height="3.69"/>
      <path d="M30.96,39.61v2.96h-2.96v-2.96h2.96M31.7,38.87h-4.43v4.43h4.43v-4.43h0Z"/>
    </g>
    <g>
      <path d="M27.64,35.17v-1.48c0-1.49.55-2.92,1.55-4.03l2.93-3.24c.74-.82,1.15-1.88,1.15-2.98,0-1.54-1.26-2.8-2.82-2.8h-1.88c-1.56,0-2.82,1.26-2.82,2.8v.37h-3.72v-.37c0-3.58,2.93-6.5,6.54-6.5h1.88c3.61,0,6.54,2.91,6.54,6.5,0,2.01-.75,3.95-2.1,5.45l-2.93,3.24c-.4.44-.61.98-.61,1.56v1.48h-3.7Z"/>
      <path d="M30.44,17.31c3.4,0,6.17,2.75,6.17,6.13,0,1.92-.71,3.77-2,5.2l-2.93,3.24c-.45.5-.7,1.13-.71,1.8v1.12h-2.97v-1.12c0-1.4.51-2.74,1.45-3.78l2.93-3.24c.8-.89,1.24-2.03,1.24-3.22,0-1.75-1.43-3.17-3.19-3.17h-1.88c-1.76,0-3.19,1.42-3.19,3.17h-2.98c0-3.38,2.77-6.13,6.17-6.13h1.88M30.44,16.57h-1.88c-3.81,0-6.91,3.08-6.91,6.87v.74h4.46v-.74c0-1.34,1.1-2.43,2.45-2.43h1.88c1.35,0,2.45,1.09,2.45,2.43,0,1.01-.37,1.98-1.05,2.73l-2.93,3.24c-1.06,1.17-1.65,2.69-1.65,4.27v1.13s.02.73.02.73h4.42v-.73s.02-1.12.02-1.12c0-.49.18-.94.52-1.31l2.93-3.24c1.41-1.57,2.19-3.59,2.19-5.69,0-3.79-3.1-6.87-6.91-6.87h0Z"/>
    </g>
  </g>
</svg>