<?xml version="1.0" encoding="UTF-8"?>
<svg id="Layer_1" xmlns="http://www.w3.org/2000/svg" version="1.1" viewBox="0 0 77 77">
  <!-- Generator: Adobe Illustrator 30.1.0, SVG Export Plug-In . SVG Version: 2.1.1 Build 136)  -->
  <path d="M38.5,14.87c.77,0,1.54.4,1.94,1.2l4.94,9.81c.85,1.68,2.43,2.88,4.28,3.22l10.69,2c1.67.31,2.35,2.35,1.2,3.6l-7.79,8.55c-1.2,1.32-1.76,3.1-1.53,4.87l1.52,11.53c.18,1.38-.91,2.46-2.15,2.46-.33,0-.67-.08-.99-.24l-9.35-4.82c-.87-.45-1.82-.67-2.76-.67-.95,0-1.9.22-2.76.67l-9.35,4.82c-.33.17-.66.24-.99.24-1.24,0-2.33-1.09-2.15-2.46l1.52-11.53c.23-1.77-.33-3.55-1.53-4.87l-7.79-8.55c-1.15-1.26-.47-3.29,1.2-3.61l10.69-2c1.85-.35,3.43-1.54,4.28-3.22l4.94-9.81c.4-.8,1.17-1.2,1.94-1.2M38.5,0c-6.47,0-12.31,3.59-15.22,9.38l-2.98,5.91-6.4,1.2c-6.07,1.14-11.06,5.48-13.02,11.34-1.96,5.86-.6,12.33,3.56,16.9l5.03,5.52-.99,7.47c-.64,4.87.84,9.78,4.08,13.46,3.24,3.7,7.91,5.82,12.82,5.82,2.7,0,5.39-.66,7.8-1.89l5.31-2.73,5.31,2.73c2.41,1.24,5.1,1.89,7.8,1.89,4.91,0,9.58-2.12,12.82-5.82,3.23-3.69,4.72-8.59,4.08-13.46l-.99-7.47,5.03-5.52c4.16-4.57,5.53-11.04,3.56-16.9-1.96-5.86-6.95-10.2-13.02-11.34l-6.4-1.2-2.98-5.91C50.8,3.59,44.97,0,38.5,0h0Z"/>
</svg>