<?xml version="1.0" encoding="UTF-8"?>
<svg id="Layer_1" xmlns="http://www.w3.org/2000/svg" version="1.1" viewBox="0 0 77 77">
  <!-- Generator: Adobe Illustrator 30.1.0, SVG Export Plug-In . SVG Version: 2.1.1 Build 136)  -->
  <path d="M38.5,9.41c.95,0,1.89.49,2.39,1.47l6.09,12.08c1.04,2.07,2.99,3.54,5.27,3.97l13.17,2.47c2.06.39,2.89,2.89,1.48,4.44l-9.59,10.53c-1.48,1.62-2.17,3.82-1.88,6l1.87,14.19c.22,1.69-1.13,3.03-2.65,3.03-.4,0-.82-.09-1.22-.3l-11.52-5.93c-1.07-.55-2.23-.82-3.4-.82-1.17,0-2.33.27-3.4.82l-11.52,5.93c-.4.21-.82.3-1.22.3-1.52,0-2.87-1.34-2.65-3.03l1.87-14.2c.29-2.18-.4-4.37-1.88-5.99l-9.59-10.53c-1.41-1.55-.58-4.05,1.48-4.44l13.17-2.47c2.28-.43,4.22-1.89,5.27-3.96l6.09-12.08c.49-.98,1.44-1.47,2.39-1.47M38.5,0C33.91,0,29.78,2.55,27.71,6.65l-5.65,11.21-12.2,2.29c-4.3.81-7.84,3.89-9.23,8.04-1.39,4.15-.42,8.75,2.53,11.99l8.98,9.85-1.75,13.3c-.46,3.45.6,6.93,2.89,9.54,2.3,2.62,5.61,4.13,9.09,4.13,1.91,0,3.82-.47,5.53-1.35l10.61-5.46,10.61,5.46c1.71.88,3.62,1.35,5.53,1.35,3.48,0,6.79-1.51,9.09-4.13,2.29-2.61,3.34-6.09,2.89-9.54l-1.75-13.3,8.98-9.86c2.95-3.24,3.92-7.83,2.53-11.98-1.39-4.15-4.93-7.23-9.23-8.04l-12.21-2.29-5.65-11.21C47.22,2.55,43.09,0,38.5,0h0Z"/>
</svg>