<?xml version="1.0" encoding="UTF-8"?>
<svg id="Layer_1" xmlns="http://www.w3.org/2000/svg" version="1.1" viewBox="0 0 77 77">
  <!-- Generator: Adobe Illustrator 30.1.0, SVG Export Plug-In . SVG Version: 2.1.1 Build 136)  -->
  <path d="M38.5,16.22c.72,0,1.45.38,1.83,1.13l4.66,9.25c.8,1.59,2.29,2.71,4.04,3.04l10.08,1.89c1.58.3,2.22,2.21,1.13,3.4l-7.35,8.06c-1.13,1.24-1.66,2.93-1.44,4.6l1.43,10.87c.17,1.3-.86,2.32-2.03,2.32-.31,0-.63-.07-.94-.23l-8.82-4.54c-.82-.42-1.71-.63-2.61-.63s-1.79.21-2.61.63l-8.82,4.54c-.31.16-.63.23-.94.23-1.17,0-2.2-1.03-2.03-2.32l1.43-10.88c.22-1.67-.31-3.35-1.44-4.59l-7.35-8.06c-1.08-1.19-.44-3.11,1.14-3.4l10.08-1.89c1.74-.33,3.24-1.45,4.03-3.04l4.66-9.25c.38-.75,1.1-1.13,1.83-1.13M38.5,0C31.56,0,25.31,3.85,22.19,10.05l-2.32,4.61-4.96.93c-6.5,1.22-11.85,5.88-13.95,12.15-2.1,6.28-.64,13.22,3.82,18.11l4.06,4.45-.8,6.03c-.69,5.22.9,10.48,4.37,14.43,3.47,3.96,8.48,6.23,13.74,6.23,2.89,0,5.78-.7,8.36-2.03l4-2.06,4,2.06c2.58,1.33,5.47,2.03,8.36,2.03,5.26,0,10.27-2.27,13.74-6.23,3.46-3.95,5.06-9.21,4.37-14.43l-.8-6.03,4.06-4.45c4.46-4.89,5.92-11.83,3.82-18.11-2.1-6.28-7.45-10.93-13.95-12.15l-4.97-.93-2.32-4.61C51.69,3.85,45.44,0,38.5,0h0Z"/>
</svg>