<?xml version="1.0" encoding="UTF-8"?>
<svg id="Layer_1" xmlns="http://www.w3.org/2000/svg" version="1.1" viewBox="0 0 77 77">
  <!-- Generator: Adobe Illustrator 30.1.0, SVG Export Plug-In . SVG Version: 2.1.1 Build 136)  -->
  <path d="M38.5,5.34c1.08,0,2.16.56,2.72,1.68l6.94,13.77c1.19,2.36,3.41,4.03,6.01,4.52l15.01,2.81c2.35.44,3.3,3.29,1.69,5.06l-10.93,12c-1.69,1.85-2.47,4.36-2.14,6.84l2.13,16.18c.25,1.93-1.28,3.46-3.02,3.46-.46,0-.93-.11-1.39-.34l-13.13-6.76c-1.22-.63-2.55-.94-3.88-.94-1.33,0-2.66.31-3.88.94l-13.13,6.76c-.46.24-.93.34-1.39.34-1.74,0-3.27-1.53-3.02-3.46l2.13-16.18c.33-2.48-.46-4.98-2.14-6.83l-10.93-12c-1.61-1.77-.66-4.62,1.69-5.06l15.01-2.81c2.59-.49,4.81-2.16,6-4.52l6.94-13.77c.56-1.12,1.64-1.68,2.72-1.68M38.5,0c-3.19,0-6.06,1.77-7.49,4.62l-6.94,13.77c-.44.87-1.27,1.49-2.22,1.67l-15.01,2.81c-2.99.56-5.44,2.7-6.41,5.58-.97,2.89-.29,6.08,1.76,8.33l10.93,12c.63.69.92,1.61.79,2.54l-2.13,16.18c-.32,2.4.41,4.82,2,6.63,1.6,1.83,3.9,2.87,6.31,2.87,1.32,0,2.65-.32,3.84-.94l13.13-6.76c.44-.23.94-.35,1.43-.35.5,0,.99.12,1.43.35l13.13,6.76c1.19.61,2.52.94,3.84.94,2.41,0,4.71-1.05,6.31-2.87,1.59-1.81,2.32-4.23,2-6.63l-2.13-16.18c-.12-.93.17-1.85.8-2.54l10.93-12c2.05-2.25,2.72-5.44,1.76-8.32-.97-2.88-3.42-5.02-6.41-5.58l-15.01-2.81c-.95-.18-1.78-.8-2.22-1.67l-6.94-13.77c-1.43-2.85-4.3-4.62-7.49-4.62h0Z"/>
</svg>