<?xml version="1.0" encoding="UTF-8"?>
<svg id="Layer_1" xmlns="http://www.w3.org/2000/svg" version="1.1" viewBox="0 0 77 77">
  <!-- Generator: Adobe Illustrator 30.1.0, SVG Export Plug-In . SVG Version: 2.1.1 Build 136)  -->
  <path d="M38.5,12.15c.86,0,1.71.44,2.16,1.33l5.51,10.94c.95,1.88,2.71,3.21,4.77,3.59l11.93,2.24c1.86.35,2.62,2.62,1.34,4.02l-8.69,9.53c-1.34,1.47-1.96,3.46-1.7,5.44l1.7,12.86c.2,1.53-1.02,2.75-2.4,2.75-.37,0-.74-.09-1.11-.27l-10.43-5.37c-.97-.5-2.02-.75-3.08-.75s-2.11.25-3.08.75l-10.43,5.37c-.36.19-.74.27-1.11.27-1.38,0-2.6-1.21-2.4-2.75l1.7-12.86c.26-1.97-.36-3.96-1.7-5.43l-8.69-9.53c-1.28-1.4-.52-3.67,1.34-4.02l11.92-2.24c2.06-.39,3.83-1.71,4.77-3.59l5.51-10.94c.45-.89,1.3-1.33,2.16-1.33M38.5,0C32.96,0,27.98,3.07,25.49,8.02l-4.31,8.55-9.29,1.74c-5.19.97-9.46,4.69-11.13,9.7-1.68,5.01-.51,10.55,3.05,14.45l7,7.68-1.37,10.37c-.55,4.16.72,8.36,3.48,11.51,2.77,3.16,6.77,4.98,10.96,4.98,2.3,0,4.61-.56,6.67-1.62l7.95-4.09,7.95,4.09c2.06,1.06,4.37,1.62,6.67,1.62,4.19,0,8.19-1.81,10.96-4.98,2.76-3.15,4.03-7.35,3.48-11.51l-1.37-10.37,7-7.68c3.56-3.9,4.73-9.44,3.05-14.45-1.68-5.01-5.94-8.72-11.13-9.7l-9.29-1.74-4.31-8.55C49.02,3.07,44.03,0,38.5,0h0Z"/>
</svg>