<?xml version="1.0" encoding="UTF-8"?>
<svg id="Layer_1" xmlns="http://www.w3.org/2000/svg" version="1.1" viewBox="0 0 95 95">
  <!-- Generator: Adobe Illustrator 30.1.0, SVG Export Plug-In . SVG Version: 2.1.1 Build 136)  -->
  <circle id="Outer" cx="47.5" cy="47.5" r="43.37" fill="none" stroke="#000" stroke-width="8.25"/>
  <g>
    <g>
      <rect x="44.5" y="63.18" width="5.95" height="5.95"/>
      <path d="M49.85,63.78v4.76h-4.76v-4.76h4.76M51.04,62.59h-7.13v7.13h7.13v-7.13h0Z"/>
    </g>
    <g>
      <path d="M44.51,56.63l-.02-2.39c0-2.4.9-4.71,2.51-6.49l4.71-5.22c1.19-1.32,1.85-3.02,1.85-4.79,0-2.48-2.04-4.51-4.54-4.51h-3.03c-2.5,0-4.54,2.02-4.54,4.51v.59h-5.99v-.59c0-5.77,4.72-10.46,10.53-10.46h3.03c5.81,0,10.53,4.69,10.53,10.46,0,3.24-1.2,6.36-3.38,8.77l-4.71,5.22c-.64.71-.98,1.58-.98,2.5l-.02,2.39h-5.94Z"/>
      <path d="M49.01,27.87c5.48,0,9.94,4.43,9.94,9.87,0,3.1-1.15,6.07-3.23,8.37l-4.71,5.22c-.73.81-1.13,1.81-1.14,2.9l-.02,1.8h-4.76l-.02-1.8c0-2.26.84-4.4,2.36-6.08l4.71-5.22c1.29-1.43,2-3.27,2-5.19,0-2.81-2.3-5.1-5.14-5.1h-3.03c-2.83,0-5.14,2.29-5.14,5.1h-4.8c0-5.44,4.46-9.87,9.94-9.87h3.03M49.01,26.68h-3.03c-6.13,0-11.13,4.96-11.13,11.06v1.19h7.18v-1.19c0-2.16,1.77-3.91,3.95-3.91h3.03c2.18,0,3.95,1.76,3.95,3.91,0,1.62-.6,3.18-1.69,4.4l-4.71,5.22c-1.71,1.89-2.65,4.33-2.66,6.87l.02,1.81v1.18h7.12v-1.18s.03-1.8.03-1.8c0-.79.29-1.52.83-2.11l4.72-5.22c2.28-2.52,3.53-5.78,3.53-9.17,0-6.1-4.99-11.06-11.13-11.06h0Z"/>
    </g>
  </g>
</svg>