<?xml version="1.0" encoding="UTF-8"?>
<svg id="Layer_1" xmlns="http://www.w3.org/2000/svg" version="1.1" viewBox="0 0 95 95">
  <!-- Generator: Adobe Illustrator 30.1.0, SVG Export Plug-In . SVG Version: 2.1.1 Build 136)  -->
  <circle id="Outer" cx="47.5" cy="47.5" r="40" fill="none" stroke="#000" stroke-width="14.99"/>
  <g>
    <g>
      <rect x="44.48" y="60.63" width="5.99" height="5.99"/>
      <path d="M49.28,61.82v3.61h-3.61v-3.61h3.61M51.66,59.45h-8.36v8.36h8.36v-8.36h0Z"/>
    </g>
    <g>
      <path d="M44.5,54.58l-.02-2.54c0-2.02.75-3.94,2.1-5.42l3.58-3.96c.78-.87,1.21-1.98,1.21-3.14,0-1.48-1.22-2.68-2.71-2.68h-2.3c-1.5,0-2.71,1.2-2.71,2.68v1.19h-6.02v-1.19c0-4.79,3.92-8.68,8.73-8.68h2.3c4.81,0,8.73,3.89,8.73,8.68,0,2.64-.98,5.18-2.75,7.15l-3.58,3.97c-.36.4-.56.89-.56,1.41l-.03,2.55h-5.97Z"/>
      <path d="M48.65,32.01c4.16,0,7.54,3.36,7.54,7.49,0,2.35-.87,4.61-2.45,6.36l-3.58,3.97c-.55.61-.86,1.38-.86,2.2v1.37h-3.63v-1.37c0-1.71.63-3.34,1.78-4.62l3.58-3.96c.98-1.08,1.52-2.48,1.52-3.94,0-2.13-1.75-3.87-3.9-3.87h-2.3c-2.15,0-3.9,1.74-3.9,3.87h-3.64c0-4.13,3.38-7.49,7.54-7.49h2.3M48.65,29.64h-2.3c-5.47,0-9.92,4.43-9.92,9.87v2.38h8.39v-2.38c0-.83.68-1.5,1.52-1.5h2.3c.84,0,1.52.67,1.52,1.5,0,.87-.32,1.7-.91,2.35l-3.58,3.96c-1.54,1.7-2.39,3.91-2.4,6.2v1.4s.03,2.35.03,2.35h8.32l.02-2.35v-1.37c.01-.24.1-.45.26-.63l3.58-3.97c1.97-2.19,3.06-5.01,3.06-7.95,0-5.44-4.45-9.87-9.92-9.87h0Z"/>
    </g>
  </g>
</svg>