<?xml version="1.0" encoding="UTF-8"?>
<svg id="Layer_1" xmlns="http://www.w3.org/2000/svg" version="1.1" viewBox="0 0 95 95">
  <!-- Generator: Adobe Illustrator 30.1.0, SVG Export Plug-In . SVG Version: 2.1.1 Build 136)  -->
  <circle id="Outer" cx="47.5" cy="47.5" r="37.5" fill="none" stroke="#000" stroke-width="20.01"/>
  <g>
    <g>
      <rect x="44.43" y="58.69" width="6.1" height="6.1"/>
      <path d="M48.89,60.33v2.83h-2.83v-2.83h2.83M52.16,57.06h-9.36v9.36h9.36v-9.36h0Z"/>
    </g>
    <g>
      <path d="M44.45,53.28l-.02-2.69c0-1.76.65-3.43,1.82-4.73l2.8-3.11c.5-.55.77-1.26.77-2,0-.77-.64-1.4-1.42-1.4h-1.8c-.79,0-1.42.63-1.42,1.4v1.63h-6.12v-1.63c0-4.14,3.39-7.51,7.55-7.51h1.8c4.16,0,7.55,3.37,7.55,7.51,0,2.25-.83,4.4-2.34,6.08l-2.81,3.11c-.17.19-.25.4-.26.64l-.03,2.7h-6.07Z"/>
      <path d="M48.4,34.88c3.26,0,5.91,2.64,5.91,5.87,0,1.84-.68,3.61-1.92,4.98l-2.81,3.11c-.43.48-.68,1.08-.68,1.73v1.07h-2.84v-1.07c0-1.34.49-2.62,1.39-3.62l2.81-3.11c.77-.85,1.19-1.95,1.19-3.09,0-1.67-1.37-3.04-3.06-3.04h-1.8c-1.69,0-3.06,1.36-3.06,3.04h-2.86c0-3.24,2.65-5.87,5.91-5.87h1.8M48.4,31.62h-1.8c-5.06,0-9.18,4.1-9.18,9.14v3.27h8.29l-.67.74c-1.44,1.59-2.24,3.65-2.24,5.8v1.11s.04,3.24.04,3.24h9.3l.03-3.23v-.82s2.65-2.93,2.65-2.93c1.78-1.97,2.76-4.52,2.76-7.17,0-5.04-4.12-9.14-9.18-9.14h0ZM46.81,40.99h1.36c-.04.25-.16.48-.33.67l-1.04,1.15v-1.82h0Z"/>
    </g>
  </g>
</svg>