<?xml version="1.0" encoding="UTF-8"?>
<svg id="Layer_1" xmlns="http://www.w3.org/2000/svg" version="1.1" viewBox="0 0 95 95">
  <!-- Generator: Adobe Illustrator 30.1.0, SVG Export Plug-In . SVG Version: 2.1.1 Build 136)  -->
  <circle id="Outer" cx="47.5" cy="47.5" r="41.7" fill="none" stroke="#000" stroke-width="11.61"/>
  <g>
    <g>
      <rect x="44.49" y="61.92" width="5.96" height="5.96"/>
      <path d="M49.56,62.81v4.18h-4.18v-4.18h4.18M51.34,61.03h-7.74v7.74h7.74v-7.74h0Z"/>
    </g>
    <g>
      <path d="M44.51,55.57l-.02-2.46c0-2.21.82-4.31,2.3-5.94l4.13-4.58c.98-1.09,1.53-2.5,1.53-3.96,0-1.98-1.62-3.58-3.62-3.58h-2.66c-1.99,0-3.62,1.61-3.62,3.58v.89h-5.99v-.89c0-5.26,4.31-9.55,9.61-9.55h2.66c5.3,0,9.61,4.28,9.61,9.55,0,2.94-1.09,5.76-3.06,7.94l-4.14,4.58c-.5.55-.77,1.23-.77,1.95l-.03,2.47h-5.94Z"/>
      <path d="M48.83,29.97c4.81,0,8.72,3.88,8.72,8.66,0,2.72-1.01,5.32-2.83,7.35l-4.14,4.58c-.64.71-1,1.59-1,2.54l-.02,1.58h-4.18v-1.58c0-1.98.72-3.86,2.05-5.34l4.14-4.58c1.13-1.25,1.76-2.87,1.76-4.55,0-2.47-2.02-4.47-4.51-4.47h-2.66c-2.48,0-4.51,2.01-4.51,4.47h-4.21c0-4.77,3.91-8.66,8.72-8.66h2.66M48.83,28.19h-2.66c-5.79,0-10.5,4.68-10.5,10.44v1.78h7.77v-1.78c0-1.49,1.22-2.69,2.73-2.69h2.66c1.5,0,2.73,1.21,2.73,2.69,0,1.24-.46,2.43-1.3,3.36l-4.14,4.58c-1.62,1.79-2.52,4.11-2.53,6.52v1.6s.03,1.77.03,1.77h7.7l.02-1.76.02-1.58c0-.52.18-.97.54-1.37l4.14-4.58c2.12-2.35,3.29-5.38,3.29-8.54,0-5.76-4.71-10.44-10.5-10.44h0Z"/>
    </g>
  </g>
</svg>