<?xml version="1.0" encoding="UTF-8"?>
<svg id="Layer_1" xmlns="http://www.w3.org/2000/svg" version="1.1" viewBox="0 0 95 95">
  <!-- Generator: Adobe Illustrator 30.1.0, SVG Export Plug-In . SVG Version: 2.1.1 Build 136)  -->
  <circle id="Outer" cx="47.5" cy="47.5" r="38.33" fill="none" stroke="#000" stroke-width="18.35"/>
  <g>
    <g>
      <rect x="44.45" y="59.34" width="6.05" height="6.05"/>
      <path d="M49.02,60.83v3.08h-3.08v-3.08h3.08M51.99,57.86h-9.02v9.02h9.02v-9.02h0Z"/>
    </g>
    <g>
      <path d="M44.47,53.69l-.02-2.64c0-1.84.69-3.59,1.91-4.95l3.05-3.38c.59-.65.91-1.49.91-2.37,0-1-.83-1.82-1.84-1.82h-1.96c-1.02,0-1.84.82-1.84,1.82v1.48h-6.08v-1.48c0-4.34,3.55-7.88,7.92-7.88h1.96c4.37,0,7.92,3.53,7.92,7.88,0,2.37-.88,4.65-2.47,6.42l-3.05,3.38c-.23.26-.35.56-.35.89l-.03,2.65h-6.02Z"/>
      <path d="M48.48,33.95c3.55,0,6.44,2.87,6.44,6.39,0,2.01-.74,3.93-2.09,5.42l-3.05,3.38c-.47.52-.74,1.17-.74,1.88v1.17h-3.1v-1.17c0-1.46.53-2.85,1.52-3.94l3.05-3.38c.84-.93,1.3-2.12,1.3-3.36,0-1.82-1.49-3.3-3.33-3.3h-1.96c-1.83,0-3.33,1.48-3.33,3.3h-3.11c0-3.52,2.89-6.39,6.44-6.39h1.96M48.48,30.99h-1.96c-5.19,0-9.41,4.2-9.41,9.36v2.97h9.05v-2.97c0-.18.16-.34.36-.34h1.96c.19,0,.36.15.36.34,0,.51-.19.99-.53,1.37l-3.05,3.38c-1.47,1.62-2.28,3.73-2.29,5.92v1.2s.04,2.94.04,2.94h8.96l.03-2.94v-1.11s3.04-3.35,3.04-3.35c1.84-2.04,2.86-4.67,2.86-7.41,0-5.16-4.22-9.36-9.41-9.36h0Z"/>
    </g>
  </g>
</svg>