<?xml version="1.0" encoding="UTF-8"?>
<svg id="Layer_1" xmlns="http://www.w3.org/2000/svg" version="1.1" viewBox="0 0 95 95">
  <!-- Generator: Adobe Illustrator 30.1.0, SVG Export Plug-In . SVG Version: 2.1.1 Build 136)  -->
  <circle id="Outer" cx="47.5" cy="47.5" r="44.2" fill="none" stroke="#000" stroke-width="6.59"/>
  <g>
    <g>
      <rect x="44.5" y="63.81" width="5.95" height="5.95"/>
      <path d="M50,64.25v5.06h-5.06v-5.06h5.06M50.89,63.36h-6.84v6.84h6.84v-6.84h0Z"/>
    </g>
    <g>
      <path d="M44.5,57.17l-.02-2.35c0-2.51.94-4.91,2.62-6.77l5.01-5.55c1.3-1.44,2.01-3.29,2.01-5.22,0-2.74-2.25-4.97-5.01-4.97h-3.22c-2.76,0-5.01,2.23-5.01,4.97v.45h-5.99v-.45c0-6.03,4.94-10.93,11.01-10.93h3.22c6.07,0,11.01,4.9,11.01,10.93,0,3.4-1.26,6.67-3.54,9.2l-5.01,5.55c-.71.79-1.09,1.75-1.1,2.78l-.02,2.36h-5.94Z"/>
      <path d="M49.11,26.8c5.82,0,10.56,4.71,10.56,10.49,0,3.29-1.22,6.45-3.43,8.9l-5.01,5.55c-.78.86-1.21,1.93-1.21,3.08l-.02,1.91h-5.06l-.02-1.91c0-2.4.89-4.68,2.51-6.46l5.01-5.55c1.37-1.52,2.13-3.48,2.13-5.52,0-2.99-2.45-5.42-5.46-5.42h-3.22c-3.01,0-5.46,2.43-5.46,5.42h-5.1c0-5.78,4.74-10.49,10.56-10.49h3.22M49.11,25.91h-3.22c-6.31,0-11.45,5.1-11.45,11.38v.89h6.88v-.89c0-2.5,2.05-4.53,4.57-4.53h3.22c2.52,0,4.57,2.03,4.57,4.53,0,1.82-.67,3.57-1.9,4.92l-5.01,5.55c-1.75,1.94-2.73,4.45-2.73,7.06l.02,1.92v.88h6.83v-.88s.03-1.91.03-1.91c0-.93.34-1.79.98-2.49l5.01-5.55c2.36-2.61,3.66-5.99,3.66-9.5,0-6.27-5.14-11.38-11.45-11.38h0Z"/>
    </g>
  </g>
</svg>