<?xml version="1.0" encoding="UTF-8"?>
<svg id="Layer_1" xmlns="http://www.w3.org/2000/svg" version="1.1" viewBox="0 0 114 114">
  <!-- Generator: Adobe Illustrator 30.1.0, SVG Export Plug-In . SVG Version: 2.1.1 Build 136)  -->
  <path d="M57,24.01c1.07,0,2.15.56,2.71,1.67l6.9,13.7c1.18,2.35,3.39,4.01,5.98,4.5l14.93,2.8c2.33.44,3.28,3.27,1.68,5.03l-10.88,11.94c-1.68,1.84-2.46,4.33-2.13,6.81l2.12,16.1c.25,1.92-1.28,3.44-3,3.44-.46,0-.93-.11-1.38-.34l-13.06-6.73c-1.21-.62-2.53-.94-3.86-.94s-2.65.31-3.86.94l-13.06,6.73c-.46.23-.93.34-1.39.34-1.73,0-3.26-1.52-3-3.44l2.12-16.1c.33-2.47-.45-4.96-2.13-6.8l-10.88-11.94c-1.6-1.76-.66-4.6,1.68-5.04l14.93-2.8c2.58-.48,4.79-2.15,5.97-4.5l6.9-13.7c.56-1.11,1.63-1.67,2.71-1.67M57,0C46.73,0,37.47,5.7,32.85,14.88l-3.44,6.82-7.35,1.38c-9.63,1.81-17.55,8.7-20.66,17.99-3.11,9.3-.95,19.57,5.66,26.82l6.01,6.59-1.18,8.93c-1.02,7.73,1.34,15.51,6.47,21.36,5.14,5.87,12.56,9.23,20.34,9.23,4.28,0,8.56-1.04,12.38-3.01l5.92-3.05,5.92,3.05c3.82,1.97,8.1,3.01,12.38,3.01,7.78,0,15.2-3.36,20.34-9.23,5.13-5.85,7.49-13.64,6.47-21.36l-1.18-8.93,6.01-6.59c6.6-7.24,8.77-17.52,5.66-26.81-3.11-9.29-11.03-16.19-20.66-17.99l-7.35-1.38-3.44-6.82C76.53,5.7,67.27,0,57,0h0Z"/>
</svg>