<?xml version="1.0" encoding="UTF-8"?>
<svg id="Layer_1" xmlns="http://www.w3.org/2000/svg" version="1.1" viewBox="0 0 114 114">
  <!-- Generator: Adobe Illustrator 30.1.0, SVG Export Plug-In . SVG Version: 2.1.1 Build 136)  -->
  <path d="M57,9.9c1.53,0,3.06.79,3.86,2.38l9.85,19.56c1.69,3.36,4.85,5.73,8.53,6.42l21.32,4c3.33.62,4.68,4.68,2.4,7.18l-15.53,17.04c-2.4,2.63-3.51,6.19-3.05,9.72l3.03,22.98c.36,2.74-1.82,4.91-4.29,4.91-.65,0-1.33-.15-1.98-.49l-18.64-9.6c-1.73-.89-3.62-1.34-5.51-1.34-1.89,0-3.78.44-5.51,1.34l-18.64,9.6c-.65.34-1.32.49-1.98.49-2.46,0-4.65-2.17-4.29-4.91l3.03-22.99c.47-3.53-.65-7.08-3.04-9.7l-15.53-17.04c-2.29-2.51-.94-6.56,2.4-7.19l21.31-4c3.68-.69,6.84-3.06,8.53-6.42l9.85-19.56c.8-1.59,2.33-2.38,3.86-2.38M57,0C51.59,0,46.72,3,44.29,7.83l-9.85,19.56c-.3.59-.86,1.02-1.51,1.14l-21.31,4c-5.07.95-9.23,4.58-10.87,9.47-1.64,4.9-.5,10.31,2.98,14.12l15.53,17.04c.43.47.63,1.1.54,1.74l-3.03,22.99c-.54,4.07.7,8.17,3.4,11.24,2.71,3.09,6.62,4.87,10.71,4.87,2.24,0,4.5-.55,6.51-1.59l18.64-9.6c.3-.16.63-.24.97-.24.34,0,.67.08.97.24l18.64,9.6c2.02,1.04,4.27,1.59,6.51,1.59,4.09,0,8-1.78,10.71-4.87,2.7-3.07,3.93-7.17,3.4-11.24l-3.03-22.98c-.08-.64.11-1.28.55-1.75l15.53-17.04c3.48-3.81,4.62-9.23,2.98-14.12-1.64-4.89-5.8-8.52-10.87-9.47l-21.32-4c-.65-.12-1.21-.55-1.51-1.14l-9.85-19.56C67.27,3,62.4,0,57,0h0Z"/>
</svg>