<?xml version="1.0" encoding="UTF-8"?>
<svg id="Layer_1" xmlns="http://www.w3.org/2000/svg" version="1.1" viewBox="0 0 114 114">
  <!-- Generator: Adobe Illustrator 30.1.0, SVG Export Plug-In . SVG Version: 2.1.1 Build 136)  -->
  <path d="M57,7.91c1.6,0,3.19.83,4.03,2.48l10.27,20.39c1.76,3.5,5.05,5.97,8.89,6.69l22.22,4.16c3.47.65,4.88,4.87,2.5,7.49l-16.19,17.76c-2.5,2.74-3.66,6.45-3.17,10.13l3.16,23.95c.38,2.86-1.9,5.12-4.47,5.12-.68,0-1.38-.16-2.06-.51l-19.43-10.01c-1.8-.93-3.77-1.39-5.74-1.39-1.97,0-3.94.46-5.74,1.39l-19.43,10.01c-.68.35-1.38.51-2.06.51-2.57,0-4.85-2.26-4.47-5.12l3.16-23.96c.48-3.68-.68-7.38-3.17-10.12l-16.19-17.77c-2.39-2.62-.97-6.84,2.5-7.49l22.22-4.16c3.84-.72,7.13-3.19,8.89-6.69l10.27-20.39c.83-1.66,2.43-2.48,4.03-2.48M57,0C52.28,0,48.03,2.62,45.91,6.83l-10.27,20.39c-.65,1.29-1.87,2.21-3.28,2.47l-22.22,4.16c-4.42.83-8.06,4-9.49,8.27-1.43,4.27-.44,9,2.6,12.33l16.19,17.77c.93,1.02,1.36,2.39,1.17,3.75l-3.16,23.96c-.47,3.55.61,7.13,2.96,9.81,2.37,2.7,5.78,4.25,9.35,4.25,1.96,0,3.92-.48,5.68-1.39l19.43-10.01c.65-.34,1.39-.51,2.12-.51.73,0,1.47.18,2.12.51l19.43,10.01c1.76.91,3.73,1.39,5.68,1.39,3.57,0,6.98-1.55,9.35-4.25,2.35-2.68,3.43-6.26,2.96-9.81l-3.16-23.95c-.18-1.37.25-2.75,1.18-3.77l16.19-17.76c3.03-3.33,4.03-8.05,2.6-12.33-1.43-4.27-5.07-7.44-9.49-8.26l-22.22-4.16c-1.41-.26-2.64-1.19-3.29-2.48l-10.27-20.39C65.96,2.62,61.72,0,57,0h0Z"/>
</svg>