<?xml version="1.0" encoding="UTF-8"?>
<svg id="Layer_1" xmlns="http://www.w3.org/2000/svg" version="1.1" viewBox="0 0 114 114">
  <!-- Generator: Adobe Illustrator 30.1.0, SVG Export Plug-In . SVG Version: 2.1.1 Build 136)  -->
  <path d="M57,13.93c1.4,0,2.8.73,3.53,2.18l9.01,17.89c1.55,3.07,4.43,5.24,7.8,5.87l19.49,3.65c3.05.57,4.28,4.28,2.19,6.57l-14.2,15.59c-2.19,2.4-3.21,5.66-2.78,8.89l2.77,21.01c.33,2.51-1.67,4.49-3.92,4.49-.6,0-1.21-.14-1.81-.45l-17.05-8.78c-1.58-.81-3.31-1.22-5.04-1.22-1.73,0-3.46.41-5.04,1.22l-17.05,8.78c-.59.31-1.21.45-1.81.45-2.25,0-4.25-1.99-3.92-4.49l2.77-21.02c.43-3.22-.59-6.47-2.78-8.88l-14.2-15.59c-2.09-2.3-.86-6,2.19-6.57l19.49-3.65c3.37-.63,6.25-2.8,7.8-5.87l9.01-17.89c.73-1.45,2.13-2.18,3.53-2.18M57,0C50.2,0,44.08,3.77,41.03,9.84l-8.36,16.6-18.07,3.39c-6.37,1.19-11.61,5.75-13.67,11.9-2.06,6.15-.63,12.95,3.74,17.75l13.3,14.59-2.6,19.69c-.67,5.11.88,10.26,4.27,14.13,3.41,3.89,8.31,6.11,13.46,6.11,2.83,0,5.66-.69,8.19-1.99l15.71-8.09,15.71,8.09c2.53,1.3,5.36,1.99,8.19,1.99,5.15,0,10.05-2.23,13.46-6.11,3.39-3.87,4.95-9.02,4.27-14.13l-2.6-19.69,13.3-14.59c4.37-4.79,5.8-11.59,3.74-17.74-2.06-6.15-7.29-10.71-13.66-11.9l-18.07-3.39-8.36-16.6C69.91,3.77,63.79,0,57,0h0Z"/>
</svg>