<?xml version="1.0" encoding="UTF-8"?>
<svg id="Layer_1" xmlns="http://www.w3.org/2000/svg" version="1.1" viewBox="0 0 114 114">
  <!-- Generator: Adobe Illustrator 30.1.0, SVG Export Plug-In . SVG Version: 2.1.1 Build 136)  -->
  <path d="M57,22.02c1.14,0,2.27.59,2.87,1.77l7.32,14.53c1.26,2.49,3.6,4.26,6.34,4.77l15.83,2.97c2.48.46,3.48,3.47,1.78,5.34l-11.54,12.66c-1.78,1.95-2.61,4.59-2.26,7.22l2.25,17.07c.27,2.04-1.35,3.65-3.19,3.65-.49,0-.99-.11-1.47-.36l-13.85-7.13c-1.28-.66-2.69-.99-4.09-.99s-2.81.33-4.09.99l-13.85,7.13c-.48.25-.98.36-1.47.36-1.83,0-3.45-1.61-3.19-3.65l2.25-17.07c.35-2.62-.48-5.26-2.26-7.21l-11.54-12.66c-1.7-1.87-.69-4.88,1.78-5.34l15.83-2.97c2.74-.51,5.08-2.28,6.33-4.77l7.32-14.53c.59-1.18,1.73-1.77,2.87-1.77M57,0C47.41,0,38.78,5.32,34.47,13.88l-4.41,8.76-9.47,1.78c-8.99,1.68-16.37,8.12-19.28,16.79-2.91,8.67-.88,18.26,5.28,25.02l7.45,8.17-1.46,11.06c-.95,7.21,1.25,14.47,6.03,19.93,4.8,5.47,11.72,8.61,18.98,8.61,3.99,0,7.98-.97,11.55-2.81l7.86-4.05,7.86,4.05c3.56,1.84,7.56,2.81,11.55,2.81,7.26,0,14.18-3.14,18.98-8.61,4.79-5.46,6.98-12.72,6.03-19.93l-1.46-11.06,7.45-8.18c6.16-6.76,8.18-16.35,5.28-25.02-2.9-8.67-10.29-15.1-19.27-16.79l-9.47-1.78-4.41-8.76C75.22,5.32,66.58,0,57,0h0Z"/>
</svg>