<?xml version="1.0" encoding="UTF-8"?>
<svg id="Layer_1" xmlns="http://www.w3.org/2000/svg" version="1.1" viewBox="0 0 66 66">
  <!-- Generator: Adobe Illustrator 30.1.0, SVG Export Plug-In . SVG Version: 2.1.1 Build 136)  -->
  <circle id="Outer" cx="33" cy="33" r="30.71" fill="none" stroke="#000" stroke-width="4.58"/>
  <g>
    <g>
      <rect x="30.91" y="44.33" width="4.13" height="4.13"/>
      <path d="M34.74,44.64v3.51h-3.51v-3.51h3.51M35.35,44.02h-4.75v4.75h4.75v-4.75h0Z"/>
    </g>
    <g>
      <path d="M30.92,39.72v-1.64c0-1.74.64-3.41,1.81-4.7l3.48-3.85c.9-1,1.4-2.29,1.4-3.63,0-1.91-1.56-3.46-3.48-3.46h-2.23c-1.92,0-3.48,1.55-3.48,3.46v.31h-4.16v-.31c0-4.19,3.43-7.59,7.65-7.59h2.23c4.22,0,7.65,3.41,7.65,7.59,0,2.36-.87,4.63-2.46,6.39l-3.48,3.86c-.5.55-.76,1.22-.76,1.93l-.02,1.64h-4.13Z"/>
      <path d="M34.12,18.62c4.05,0,7.34,3.27,7.34,7.29,0,2.29-.85,4.48-2.38,6.18l-3.48,3.86c-.54.6-.84,1.34-.84,2.14v1.33h-3.53v-1.33c0-1.67.61-3.25,1.73-4.49l3.48-3.85c.95-1.06,1.48-2.42,1.48-3.83,0-2.08-1.7-3.77-3.79-3.77h-2.24c-2.09,0-3.79,1.69-3.79,3.77h-3.54c0-4.02,3.29-7.29,7.34-7.29h2.24M34.12,18h-2.24c-4.39,0-7.96,3.55-7.96,7.9v.62h4.78v-.62c0-1.74,1.42-3.15,3.17-3.15h2.24c1.75,0,3.17,1.41,3.17,3.15,0,1.26-.47,2.48-1.32,3.42l-3.48,3.85c-1.22,1.35-1.89,3.09-1.9,4.9v1.34s.02.61.02.61h4.74v-.61s.02-1.33.02-1.33c0-.64.24-1.24.68-1.73l3.48-3.86c1.64-1.82,2.54-4.16,2.54-6.6,0-4.36-3.57-7.9-7.96-7.9h0Z"/>
    </g>
  </g>
</svg>