<?xml version="1.0" encoding="UTF-8"?>
<svg id="Layer_1" xmlns="http://www.w3.org/2000/svg" version="1.1" viewBox="0 0 66 66">
  <!-- Generator: Adobe Illustrator 30.1.0, SVG Export Plug-In . SVG Version: 2.1.1 Build 136)  -->
  <circle id="Outer" cx="33" cy="33" r="26.63" fill="none" stroke="#000" stroke-width="12.75"/>
  <g>
    <g>
      <rect x="30.88" y="41.23" width="4.2" height="4.2"/>
      <path d="M34.06,42.26v2.14h-2.14v-2.14h2.14M36.12,40.2h-6.27v6.27h6.27v-6.27h0Z"/>
    </g>
    <g>
      <path d="M30.9,37.3l-.02-1.83c0-1.28.48-2.5,1.33-3.44l2.12-2.35c.41-.45.63-1.04.63-1.65,0-.7-.57-1.26-1.28-1.26h-1.36c-.71,0-1.28.57-1.28,1.26v1.03h-4.22v-1.03c0-3.02,2.47-5.47,5.5-5.47h1.36c3.04,0,5.5,2.46,5.5,5.47,0,1.65-.61,3.23-1.72,4.46l-2.12,2.35c-.16.18-.25.39-.25.62l-.02,1.84h-4.19Z"/>
      <path d="M33.68,23.59c2.47,0,4.47,1.99,4.47,4.44,0,1.39-.52,2.73-1.45,3.77l-2.12,2.35c-.33.36-.51.82-.51,1.3v.81h-2.15v-.81c0-1.02.37-1.98,1.05-2.74l2.12-2.35c.58-.64.9-1.47.9-2.34,0-1.27-1.04-2.3-2.31-2.3h-1.36c-1.27,0-2.31,1.03-2.31,2.3h-2.16c0-2.45,2.01-4.44,4.47-4.44h1.36M33.68,21.53h-1.36c-3.6,0-6.54,2.92-6.54,6.5v2.06h6.29v-2.06c0-.13.11-.23.25-.23h1.36c.14,0,.25.11.25.23,0,.35-.13.69-.37.95l-2.12,2.35c-1.02,1.13-1.59,2.59-1.59,4.11v.84s.03,2.04.03,2.04h6.23l.02-2.04v-.77s2.11-2.33,2.11-2.33c1.28-1.42,1.98-3.25,1.98-5.15,0-3.59-2.93-6.5-6.54-6.5h0Z"/>
    </g>
  </g>
</svg>