<?xml version="1.0" encoding="UTF-8"?>
<svg id="Layer_1" xmlns="http://www.w3.org/2000/svg" version="1.1" viewBox="0 0 66 66">
  <!-- Generator: Adobe Illustrator 30.1.0, SVG Export Plug-In . SVG Version: 2.1.1 Build 136)  -->
  <circle id="Outer" cx="33" cy="33" r="26.05" fill="none" stroke="#000" stroke-width="13.9"/>
  <g>
    <g>
      <rect x="30.87" y="40.78" width="4.24" height="4.24"/>
      <path d="M33.97,41.91v1.97h-1.97v-1.97h1.97M36.24,39.64h-6.51v6.51h6.51v-6.51h0Z"/>
    </g>
    <g>
      <path d="M30.88,37.01l-.02-1.87c0-1.23.45-2.39,1.27-3.29l1.95-2.16c.34-.38.53-.87.53-1.39,0-.54-.44-.98-.99-.98h-1.25c-.55,0-.99.44-.99.98v1.13h-4.25v-1.13c0-2.88,2.35-5.21,5.24-5.21h1.25c2.89,0,5.24,2.34,5.24,5.21,0,1.56-.58,3.06-1.63,4.22l-1.95,2.16c-.12.13-.18.28-.18.44l-.02,1.88h-4.21Z"/>
      <path d="M33.63,24.23c2.27,0,4.11,1.83,4.11,4.08,0,1.28-.47,2.51-1.33,3.46l-1.95,2.16c-.3.33-.47.75-.47,1.2v.74h-1.98v-.74c0-.93.34-1.82.97-2.52l1.95-2.16c.53-.59.83-1.35.83-2.15,0-1.16-.95-2.11-2.12-2.11h-1.25c-1.17,0-2.12.95-2.12,2.11h-1.99c0-2.25,1.84-4.08,4.11-4.08h1.25M33.63,21.97h-1.25c-3.52,0-6.38,2.85-6.38,6.35v2.27h5.76l-.47.52c-1,1.11-1.55,2.54-1.56,4.03v.77s.03,2.25.03,2.25h6.46l.02-2.25v-.57s1.84-2.04,1.84-2.04c1.24-1.37,1.92-3.14,1.92-4.98,0-3.5-2.86-6.35-6.38-6.35h0ZM32.52,28.47h.95c-.03.17-.11.33-.23.47l-.72.8v-1.26h0Z"/>
    </g>
  </g>
</svg>