<?xml version="1.0" encoding="UTF-8"?>
<svg id="Layer_1" xmlns="http://www.w3.org/2000/svg" version="1.1" viewBox="0 0 66 66">
  <!-- Generator: Adobe Illustrator 30.1.0, SVG Export Plug-In . SVG Version: 2.1.1 Build 136)  -->
  <circle id="Outer" cx="33" cy="33" r="30.13" fill="none" stroke="#000" stroke-width="5.73"/>
  <g>
    <g>
      <rect x="30.91" y="43.9" width="4.13" height="4.13"/>
      <path d="M34.63,44.31v3.31h-3.31v-3.31h3.31M35.46,43.48h-4.96v4.96h4.96v-4.96h0Z"/>
    </g>
    <g>
      <path d="M30.92,39.34l-.02-1.66c0-1.67.63-3.27,1.74-4.51l3.27-3.63c.83-.92,1.28-2.1,1.28-3.33,0-1.73-1.42-3.13-3.16-3.13h-2.1c-1.74,0-3.16,1.4-3.16,3.13v.41h-4.16v-.41c0-4.01,3.28-7.27,7.32-7.27h2.1c4.03,0,7.32,3.26,7.32,7.27,0,2.25-.83,4.42-2.35,6.09l-3.28,3.63c-.45.49-.68,1.09-.69,1.74l-.02,1.66h-4.12Z"/>
      <path d="M34.05,19.36c3.81,0,6.9,3.08,6.9,6.86,0,2.15-.8,4.22-2.24,5.82l-3.28,3.63c-.51.56-.79,1.26-.79,2.01v1.25h-3.32v-1.25c0-1.57.57-3.06,1.63-4.23l3.27-3.63c.9-.99,1.39-2.27,1.39-3.61,0-1.95-1.6-3.54-3.57-3.54h-2.1c-1.97,0-3.57,1.59-3.57,3.54h-3.34c0-3.78,3.1-6.86,6.9-6.86h2.1M34.05,18.54h-2.1c-4.26,0-7.73,3.45-7.73,7.68v.83h4.99v-.83c0-1.5,1.23-2.72,2.74-2.72h2.1c1.51,0,2.74,1.22,2.74,2.72,0,1.13-.42,2.21-1.18,3.05l-3.27,3.63c-1.19,1.31-1.84,3.01-1.85,4.78v1.26s.02.82.02.82h4.94v-.82s.02-1.25.02-1.25c0-.55.2-1.05.58-1.47l3.28-3.63c1.58-1.75,2.45-4.02,2.45-6.37,0-4.24-3.47-7.68-7.73-7.68h0Z"/>
    </g>
  </g>
</svg>