<?xml version="1.0" encoding="UTF-8"?>
<svg id="Layer_1" xmlns="http://www.w3.org/2000/svg" version="1.1" viewBox="0 0 66 66">
  <!-- Generator: Adobe Illustrator 30.1.0, SVG Export Plug-In . SVG Version: 2.1.1 Build 136)  -->
  <circle id="Outer" cx="33" cy="33" r="27.79" fill="none" stroke="#000" stroke-width="10.42"/>
  <g>
    <g>
      <rect x="30.9" y="42.12" width="4.16" height="4.16"/>
      <path d="M34.24,42.95v2.51h-2.51v-2.51h2.51M35.89,41.3h-5.81v5.81h5.81v-5.81h0Z"/>
    </g>
    <g>
      <path d="M30.91,37.92l-.02-1.77c0-1.4.52-2.73,1.46-3.77l2.49-2.75c.54-.6.84-1.38.84-2.19,0-1.03-.84-1.86-1.88-1.86h-1.6c-1.04,0-1.88.84-1.88,1.86v.83h-4.18v-.83c0-3.32,2.72-6.03,6.07-6.03h1.6c3.34,0,6.07,2.71,6.07,6.03,0,1.84-.68,3.6-1.92,4.97l-2.49,2.75c-.25.28-.39.62-.39.98l-.02,1.77h-4.14Z"/>
      <path d="M33.8,22.24c2.89,0,5.24,2.33,5.24,5.2,0,1.63-.6,3.2-1.7,4.42l-2.49,2.75c-.39.43-.6.96-.6,1.53v.95h-2.52v-.95c0-1.19.43-2.32,1.23-3.21l2.49-2.75c.68-.75,1.06-1.73,1.06-2.74,0-1.48-1.22-2.69-2.71-2.69h-1.6c-1.49,0-2.71,1.21-2.71,2.69h-2.53c0-2.87,2.35-5.2,5.24-5.2h1.6M33.8,20.59h-1.6c-3.8,0-6.89,3.07-6.89,6.85v1.65h5.83v-1.65c0-.57.47-1.04,1.06-1.04h1.6c.58,0,1.06.47,1.06,1.04,0,.6-.22,1.18-.63,1.63l-2.49,2.75c-1.07,1.18-1.66,2.71-1.67,4.31v.97s.02,1.64.02,1.64h5.78l.02-1.63v-.95c.01-.17.07-.31.18-.44l2.49-2.76c1.37-1.52,2.13-3.48,2.13-5.52,0-3.78-3.09-6.85-6.89-6.85h0Z"/>
    </g>
  </g>
</svg>