<?xml version="1.0" encoding="UTF-8"?>
<svg id="Layer_1" xmlns="http://www.w3.org/2000/svg" version="1.1" viewBox="0 0 66 66">
  <!-- Generator: Adobe Illustrator 30.1.0, SVG Export Plug-In . SVG Version: 2.1.1 Build 136)  -->
  <circle id="Outer" cx="33" cy="33" r="28.97" fill="none" stroke="#000" stroke-width="8.06"/>
  <g>
    <g>
      <rect x="30.91" y="43.02" width="4.14" height="4.14"/>
      <path d="M34.43,43.64v2.9h-2.9v-2.9h2.9M35.67,42.4h-5.38v5.38h5.38v-5.38h0Z"/>
    </g>
    <g>
      <path d="M30.92,38.61v-1.71c0-1.53.56-3,1.58-4.13l2.87-3.18c.68-.76,1.06-1.73,1.06-2.75,0-1.37-1.13-2.49-2.51-2.49h-1.85c-1.38,0-2.51,1.12-2.51,2.49v.62h-4.16v-.62c0-3.66,2.99-6.63,6.68-6.63h1.85c3.68,0,6.68,2.98,6.68,6.63,0,2.04-.76,4-2.13,5.52l-2.87,3.18c-.35.38-.53.85-.53,1.36l-.02,1.71h-4.13Z"/>
      <path d="M33.92,20.82c3.34,0,6.06,2.7,6.06,6.01,0,1.89-.7,3.7-1.97,5.1l-2.87,3.18c-.45.49-.69,1.1-.69,1.77v1.1h-2.91v-1.1c0-1.37.5-2.68,1.43-3.71l2.87-3.18c.79-.87,1.22-1.99,1.22-3.16,0-1.71-1.4-3.11-3.13-3.11h-1.85c-1.73,0-3.13,1.39-3.13,3.11h-2.93c0-3.32,2.72-6.01,6.06-6.01h1.85M33.92,19.58h-1.85c-4.02,0-7.29,3.25-7.29,7.25v1.24h5.4v-1.24c0-1.03.85-1.87,1.89-1.87h1.85c1.04,0,1.89.84,1.89,1.87,0,.86-.32,1.69-.9,2.33l-2.87,3.18c-1.13,1.24-1.75,2.85-1.76,4.53v1.11s.02,1.23.02,1.23h5.35v-1.22s.02-1.1.02-1.1c0-.36.13-.68.37-.95l2.87-3.18c1.47-1.63,2.29-3.74,2.29-5.93,0-4-3.27-7.25-7.29-7.25h0Z"/>
    </g>
  </g>
</svg>