<?xml version="1.0" encoding="UTF-8"?>
<svg id="Layer_1" xmlns="http://www.w3.org/2000/svg" version="1.1" viewBox="0 0 72 72">
  <!-- Generator: Adobe Illustrator 30.1.0, SVG Export Plug-In . SVG Version: 2.1.1 Build 136)  -->
  <circle id="Outer" cx="36" cy="36" r="33.5" fill="none" stroke="#000" stroke-width="4.99"/>
  <g>
    <g>
      <rect x="33.72" y="48.36" width="4.51" height="4.51"/>
      <path d="M37.89,48.7v3.83h-3.83v-3.83h3.83M38.57,48.02h-5.18v5.18h5.18v-5.18h0Z"/>
    </g>
    <g>
      <path d="M33.73,43.33l-.02-1.79c0-1.9.71-3.72,1.99-5.13l3.8-4.21c.98-1.09,1.52-2.49,1.52-3.96,0-2.08-1.7-3.77-3.8-3.77h-2.44c-2.1,0-3.8,1.69-3.8,3.77v.34h-4.54v-.34c0-4.57,3.74-8.29,8.34-8.29h2.44c4.6,0,8.34,3.72,8.34,8.29,0,2.58-.95,5.05-2.69,6.97l-3.8,4.21c-.54.6-.83,1.33-.83,2.11l-.02,1.79h-4.5Z"/>
      <path d="M37.22,20.31c4.41,0,8,3.57,8,7.95,0,2.49-.92,4.89-2.6,6.74l-3.8,4.21c-.59.65-.91,1.46-.92,2.33v1.45h-3.85v-1.45c0-1.82.66-3.55,1.89-4.9l3.8-4.21c1.04-1.15,1.61-2.64,1.61-4.18,0-2.26-1.86-4.11-4.14-4.11h-2.44c-2.28,0-4.14,1.84-4.14,4.11h-3.87c0-4.38,3.59-7.95,8-7.95h2.44M37.22,19.64h-2.44c-4.79,0-8.68,3.87-8.68,8.62v.67h5.22v-.67c0-1.89,1.55-3.43,3.46-3.43h2.44c1.91,0,3.46,1.54,3.46,3.43,0,1.38-.51,2.7-1.44,3.73l-3.8,4.21c-1.33,1.47-2.07,3.37-2.07,5.35v1.46s.02.67.02.67h5.17v-.67s.02-1.45.02-1.45c0-.7.26-1.35.74-1.89l3.8-4.21c1.79-1.98,2.77-4.54,2.77-7.2,0-4.75-3.89-8.62-8.68-8.62h0Z"/>
    </g>
  </g>
</svg>