<?xml version="1.0" encoding="UTF-8"?>
<svg id="Layer_1" xmlns="http://www.w3.org/2000/svg" version="1.1" viewBox="0 0 72 72">
  <!-- Generator: Adobe Illustrator 30.1.0, SVG Export Plug-In . SVG Version: 2.1.1 Build 136)  -->
  <circle id="Outer" cx="36" cy="36" r="28.42" fill="none" stroke="#000" stroke-width="15.16"/>
  <g>
    <g>
      <rect x="33.67" y="44.48" width="4.62" height="4.62"/>
      <path d="M37.06,45.72v2.15h-2.15v-2.15h2.15M39.53,43.25h-7.1v7.1h7.1v-7.1h0Z"/>
    </g>
    <g>
      <path d="M33.69,40.38l-.02-2.04c0-1.34.5-2.6,1.38-3.58l2.13-2.35c.38-.42.58-.95.58-1.51,0-.59-.48-1.06-1.08-1.06h-1.37c-.6,0-1.08.48-1.08,1.06v1.24h-4.64v-1.24c0-3.14,2.57-5.69,5.72-5.69h1.37c3.15,0,5.72,2.55,5.72,5.69,0,1.7-.63,3.34-1.77,4.61l-2.13,2.36c-.13.14-.19.3-.19.48l-.02,2.05h-4.6Z"/>
      <path d="M36.68,26.44c2.47,0,4.48,2,4.48,4.45,0,1.4-.52,2.74-1.46,3.78l-2.13,2.36c-.33.36-.51.82-.51,1.31v.81h-2.15v-.81c0-1.02.37-1.99,1.06-2.74l2.13-2.36c.58-.64.9-1.48.9-2.34,0-1.27-1.04-2.3-2.32-2.3h-1.37c-1.28,0-2.32,1.03-2.32,2.3h-2.17c0-2.45,2.01-4.45,4.48-4.45h1.37M36.68,23.96h-1.37c-3.84,0-6.96,3.11-6.96,6.93v2.48h6.28l-.51.56c-1.09,1.21-1.7,2.77-1.7,4.39v.84s.03,2.45.03,2.45h7.05l.02-2.45v-.62s2.01-2.22,2.01-2.22c1.35-1.5,2.09-3.43,2.09-5.44,0-3.82-3.12-6.93-6.96-6.93h0ZM35.48,31.06h1.03c-.03.19-.12.36-.25.51l-.78.87v-1.38h0Z"/>
    </g>
  </g>
</svg>