<?xml version="1.0" encoding="UTF-8"?>
<svg id="Layer_1" xmlns="http://www.w3.org/2000/svg" version="1.1" viewBox="0 0 72 72">
  <!-- Generator: Adobe Illustrator 30.1.0, SVG Export Plug-In . SVG Version: 2.1.1 Build 136)  -->
  <circle id="Outer" cx="36" cy="36" r="31.6" fill="none" stroke="#000" stroke-width="8.8"/>
  <g>
    <g>
      <rect x="33.72" y="46.93" width="4.51" height="4.51"/>
      <path d="M37.56,47.6v3.16h-3.16v-3.16h3.16M38.91,46.25h-5.86v5.86h5.86v-5.86h0Z"/>
    </g>
    <g>
      <path d="M33.73,42.12l-.02-1.87c0-1.67.62-3.27,1.74-4.5l3.13-3.47c.75-.83,1.16-1.89,1.16-3,0-1.5-1.23-2.72-2.74-2.72h-2.01c-1.51,0-2.74,1.22-2.74,2.72v.67h-4.54v-.67c0-3.99,3.27-7.24,7.28-7.24h2.01c4.02,0,7.28,3.25,7.28,7.24,0,2.23-.82,4.36-2.32,6.02l-3.13,3.47c-.38.42-.58.93-.58,1.48l-.02,1.87h-4.5Z"/>
      <path d="M37.01,22.71c3.64,0,6.61,2.94,6.61,6.56,0,2.06-.76,4.04-2.15,5.57l-3.13,3.47c-.49.54-.75,1.2-.76,1.93v1.2h-3.18v-1.2c0-1.5.55-2.93,1.56-4.04l3.13-3.47c.86-.95,1.33-2.18,1.33-3.45,0-1.87-1.53-3.39-3.42-3.39h-2.01c-1.88,0-3.42,1.52-3.42,3.39h-3.19c0-3.62,2.96-6.56,6.61-6.56h2.01M37.01,21.36h-2.01c-4.39,0-7.96,3.55-7.96,7.91v1.35h5.89v-1.35c0-1.13.93-2.04,2.07-2.04h2.01c1.14,0,2.07.92,2.07,2.04,0,.94-.35,1.85-.98,2.55l-3.13,3.47c-1.23,1.36-1.91,3.11-1.92,4.94v1.21s.02,1.34.02,1.34h5.84v-1.34s.03-1.2.03-1.2c0-.39.14-.74.41-1.04l3.14-3.47c1.61-1.78,2.49-4.08,2.49-6.47,0-4.36-3.57-7.91-7.96-7.91h0Z"/>
    </g>
  </g>
</svg>