<?xml version="1.0" encoding="UTF-8"?>
<svg id="Layer_1" xmlns="http://www.w3.org/2000/svg" version="1.1" viewBox="0 0 72 72">
  <!-- Generator: Adobe Illustrator 30.1.0, SVG Export Plug-In . SVG Version: 2.1.1 Build 136)  -->
  <circle id="Outer" cx="36" cy="36" r="30.32" fill="none" stroke="#000" stroke-width="11.36"/>
  <g>
    <g>
      <rect x="33.71" y="45.95" width="4.54" height="4.54"/>
      <path d="M37.35,46.85v2.74h-2.74v-2.74h2.74M39.15,45.05h-6.34v6.34h6.34v-6.34h0Z"/>
    </g>
    <g>
      <path d="M33.72,41.37l-.02-1.93c0-1.53.57-2.98,1.59-4.11l2.71-3c.59-.66.92-1.5.92-2.38,0-1.12-.92-2.03-2.05-2.03h-1.74c-1.13,0-2.06.91-2.06,2.03v.9h-4.56v-.9c0-3.63,2.97-6.58,6.62-6.58h1.74c3.65,0,6.62,2.95,6.62,6.58,0,2-.74,3.93-2.09,5.42l-2.71,3c-.28.31-.42.67-.42,1.07l-.02,1.93h-4.52Z"/>
      <path d="M36.87,24.26c3.15,0,5.72,2.55,5.72,5.68,0,1.78-.66,3.49-1.86,4.82l-2.71,3.01c-.42.46-.65,1.04-.65,1.67v1.04h-2.75v-1.04c0-1.3.47-2.53,1.35-3.5l2.71-3c.74-.82,1.15-1.88,1.15-2.99,0-1.62-1.33-2.93-2.96-2.93h-1.74c-1.63,0-2.96,1.32-2.96,2.93h-2.76c0-3.13,2.56-5.68,5.72-5.68h1.74M36.87,22.46h-1.74c-4.15,0-7.52,3.35-7.52,7.48v1.8h6.36v-1.8c0-.63.52-1.13,1.16-1.13h1.74c.64,0,1.16.51,1.16,1.13,0,.66-.24,1.29-.69,1.78l-2.71,3c-1.17,1.29-1.81,2.96-1.82,4.7v1.06s.02,1.78.02,1.78h6.3l.02-1.78v-1.04c.01-.19.07-.34.2-.48l2.71-3.01c1.5-1.66,2.32-3.8,2.32-6.02,0-4.12-3.37-7.48-7.52-7.48h0Z"/>
    </g>
  </g>
</svg>