<?xml version="1.0" encoding="UTF-8"?>
<svg id="Layer_1" xmlns="http://www.w3.org/2000/svg" version="1.1" viewBox="0 0 72 72">
  <!-- Generator: Adobe Illustrator 30.1.0, SVG Export Plug-In . SVG Version: 2.1.1 Build 136)  -->
  <circle id="Outer" cx="36" cy="36" r="29.05" fill="none" stroke="#000" stroke-width="13.9"/>
  <g>
    <g>
      <rect x="33.69" y="44.97" width="4.59" height="4.59"/>
      <path d="M37.15,46.1v2.34h-2.34v-2.34h2.34M39.4,43.85h-6.84v6.84h6.84v-6.84h0Z"/>
    </g>
    <g>
      <path d="M33.7,40.69l-.02-2c0-1.4.52-2.72,1.45-3.75l2.31-2.56c.45-.49.69-1.13.69-1.79,0-.76-.63-1.38-1.4-1.38h-1.49c-.77,0-1.4.62-1.4,1.38v1.12h-4.61v-1.12c0-3.29,2.69-5.97,6-5.97h1.49c3.31,0,6,2.68,6,5.97,0,1.8-.67,3.53-1.88,4.87l-2.31,2.56c-.18.2-.27.42-.27.67l-.02,2.01h-4.56Z"/>
      <path d="M36.74,25.73c2.69,0,4.88,2.17,4.88,4.85,0,1.52-.56,2.98-1.58,4.11l-2.31,2.57c-.36.4-.56.89-.56,1.42v.88h-2.35v-.88c0-1.11.4-2.16,1.15-2.99l2.31-2.56c.63-.7.98-1.61.98-2.55,0-1.38-1.13-2.5-2.52-2.5h-1.49c-1.39,0-2.52,1.12-2.52,2.5h-2.36c0-2.67,2.19-4.85,4.88-4.85h1.49M36.74,23.48h-1.49c-3.93,0-7.13,3.18-7.13,7.1v2.25h6.86v-2.25c0-.14.12-.25.27-.25h1.49c.15,0,.27.12.27.25,0,.38-.14.75-.4,1.04l-2.31,2.56c-1.11,1.23-1.73,2.83-1.74,4.49v.91s.03,2.23.03,2.23h6.79l.02-2.23v-.84s2.3-2.54,2.3-2.54c1.4-1.55,2.16-3.54,2.16-5.62,0-3.91-3.2-7.1-7.13-7.1h0Z"/>
    </g>
  </g>
</svg>