<?xml version="1.0" encoding="UTF-8"?>
<svg id="Layer_1" xmlns="http://www.w3.org/2000/svg" version="1.1" viewBox="0 0 72 72">
  <!-- Generator: Adobe Illustrator 30.1.0, SVG Export Plug-In . SVG Version: 2.1.1 Build 136)  -->
  <circle id="Outer" cx="36" cy="36" r="32.87" fill="none" stroke="#000" stroke-width="6.26"/>
  <g>
    <g>
      <rect x="33.72" y="47.89" width="4.51" height="4.51"/>
      <path d="M37.78,48.34v3.61h-3.61v-3.61h3.61M38.68,47.44h-5.41v5.41h5.41v-5.41h0Z"/>
    </g>
    <g>
      <path d="M33.73,42.92l-.02-1.81c0-1.82.68-3.57,1.9-4.92l3.57-3.96c.9-1,1.4-2.29,1.4-3.63,0-1.88-1.54-3.42-3.44-3.42h-2.29c-1.9,0-3.44,1.53-3.44,3.42v.45h-4.54v-.45c0-4.37,3.58-7.93,7.98-7.93h2.29c4.4,0,7.98,3.56,7.98,7.93,0,2.46-.91,4.82-2.56,6.65l-3.57,3.96c-.49.54-.74,1.19-.75,1.9l-.02,1.81h-4.5Z"/>
      <path d="M37.15,21.12c4.15,0,7.53,3.36,7.53,7.48,0,2.35-.87,4.6-2.45,6.35l-3.57,3.96c-.55.61-.86,1.37-.86,2.2v1.36h-3.62v-1.36c0-1.71.62-3.34,1.77-4.61l3.57-3.96c.98-1.08,1.52-2.48,1.52-3.93,0-2.13-1.75-3.87-3.89-3.87h-2.29c-2.15,0-3.89,1.73-3.89,3.87h-3.64c0-4.12,3.38-7.48,7.53-7.48h2.29M37.15,20.22h-2.29c-4.65,0-8.43,3.76-8.43,8.38v.9h5.44v-.9c0-1.64,1.34-2.97,2.99-2.97h2.29c1.65,0,2.99,1.33,2.99,2.97,0,1.23-.46,2.41-1.28,3.33l-3.57,3.96c-1.29,1.43-2.01,3.28-2.02,5.21v1.38s.02.89.02.89h5.39v-.89s.02-1.36.02-1.36c0-.6.22-1.15.63-1.6l3.57-3.96c1.73-1.91,2.68-4.38,2.68-6.95,0-4.62-3.78-8.38-8.43-8.38h0Z"/>
    </g>
  </g>
</svg>