<?xml version="1.0" encoding="UTF-8"?>
<svg id="Layer_1" xmlns="http://www.w3.org/2000/svg" version="1.1" viewBox="0 0 119 119">
  <!-- Generator: Adobe Illustrator 30.1.0, SVG Export Plug-In . SVG Version: 2.1.1 Build 136)  -->
  <circle id="Outer" cx="59.5" cy="59.5" r="52.23" fill="none" stroke="#000" stroke-width="14.54"/>
  <g>
    <g>
      <rect x="55.74" y="77.56" width="7.46" height="7.46"/>
      <path d="M62.08,78.68v5.23h-5.23v-5.23h5.23M64.31,76.45h-9.69v9.69h9.69v-9.69h0Z"/>
    </g>
    <g>
      <path d="M55.75,69.61l-.03-3.08c0-2.76,1.03-5.4,2.88-7.44l5.18-5.74c1.23-1.37,1.91-3.13,1.91-4.96,0-2.48-2.03-4.49-4.53-4.49h-3.33c-2.5,0-4.53,2.01-4.53,4.49v1.12h-7.51v-1.12c0-6.59,5.4-11.96,12.04-11.96h3.33c6.64,0,12.04,5.37,12.04,11.96,0,3.68-1.36,7.21-3.83,9.95l-5.18,5.74c-.63.69-.96,1.54-.96,2.44l-.03,3.09h-7.44Z"/>
      <path d="M61.16,37.54c6.02,0,10.92,4.87,10.92,10.84,0,3.4-1.26,6.67-3.55,9.2l-5.18,5.74c-.8.89-1.25,1.99-1.25,3.19l-.02,1.98h-5.23l-.02-1.98c0-2.48.92-4.84,2.59-6.69l5.18-5.74c1.42-1.57,2.2-3.6,2.2-5.7,0-3.09-2.53-5.61-5.64-5.61h-3.33c-3.11,0-5.64,2.51-5.64,5.61h-5.28c0-5.98,4.9-10.84,10.92-10.84h3.33M61.16,35.31h-3.33c-7.25,0-13.15,5.87-13.15,13.08v2.23h9.74v-2.23c0-1.86,1.53-3.37,3.41-3.37h3.33c1.88,0,3.41,1.51,3.41,3.37,0,1.55-.58,3.05-1.62,4.21l-5.18,5.74c-2.03,2.24-3.15,5.15-3.17,8.17l.02,2.01.02,2.21h9.65l.02-2.21.02-1.98c0-.65.23-1.22.67-1.71l5.18-5.74c2.66-2.94,4.12-6.74,4.12-10.7,0-7.21-5.9-13.08-13.15-13.08h0Z"/>
    </g>
  </g>
</svg>