<?xml version="1.0" encoding="UTF-8"?>
<svg id="Layer_1" xmlns="http://www.w3.org/2000/svg" version="1.1" viewBox="0 0 119 119">
  <!-- Generator: Adobe Illustrator 30.1.0, SVG Export Plug-In . SVG Version: 2.1.1 Build 136)  -->
  <circle id="Outer" cx="59.5" cy="59.5" r="48.01" fill="none" stroke="#000" stroke-width="22.98"/>
  <g>
    <g>
      <rect x="55.68" y="74.33" width="7.58" height="7.58"/>
      <path d="M61.4,76.19v3.86h-3.86v-3.86h3.86M65.12,72.47h-11.3v11.3h11.3v-11.3h0Z"/>
    </g>
    <g>
      <path d="M55.7,67.25l-.03-3.3c0-2.31.86-4.5,2.39-6.2l3.82-4.24c.74-.82,1.14-1.87,1.14-2.97,0-1.26-1.04-2.28-2.31-2.28h-2.46c-1.27,0-2.31,1.02-2.31,2.28v1.86h-7.62v-1.86c0-5.44,4.45-9.87,9.92-9.87h2.46c5.47,0,9.92,4.43,9.92,9.87,0,2.97-1.1,5.83-3.1,8.04l-3.83,4.24c-.29.33-.44.7-.44,1.11l-.03,3.31h-7.55Z"/>
      <path d="M60.73,42.53c4.45,0,8.07,3.59,8.07,8.01,0,2.51-.93,4.93-2.62,6.8l-3.83,4.24c-.59.66-.92,1.47-.92,2.35v1.46h-3.88v-1.46c0-1.83.67-3.57,1.9-4.94l3.83-4.24c1.05-1.16,1.62-2.66,1.62-4.21,0-2.28-1.87-4.14-4.17-4.14h-2.46c-2.3,0-4.17,1.86-4.17,4.14h-3.9c0-4.42,3.62-8.01,8.07-8.01h2.46M60.73,38.81h-2.46c-6.5,0-11.78,5.26-11.78,11.73v3.72h11.33v-3.72c0-.23.21-.42.45-.42h2.46c.24,0,.45.19.45.42,0,.63-.24,1.25-.67,1.72l-3.83,4.24c-1.84,2.04-2.86,4.67-2.87,7.42v1.51s.05,3.69.05,3.69h11.23l.04-3.68v-1.4s3.81-4.2,3.81-4.2c2.31-2.55,3.58-5.85,3.58-9.29,0-6.47-5.29-11.73-11.78-11.73h0Z"/>
    </g>
  </g>
</svg>