<?xml version="1.0" encoding="UTF-8"?>
<svg id="Layer_1" xmlns="http://www.w3.org/2000/svg" version="1.1" viewBox="0 0 119 119">
  <!-- Generator: Adobe Illustrator 30.1.0, SVG Export Plug-In . SVG Version: 2.1.1 Build 136)  -->
  <circle id="Outer" cx="59.5" cy="59.5" r="54.33" fill="none" stroke="#000" stroke-width="10.34"/>
  <g>
    <g>
      <rect x="55.74" y="79.15" width="7.45" height="7.45"/>
      <path d="M62.44,79.89v5.96h-5.96v-5.96h5.96M63.93,78.4h-8.94v8.94h8.94v-8.94h0Z"/>
    </g>
    <g>
      <path d="M55.75,70.93l-.03-2.99c.01-3.01,1.13-5.9,3.15-8.13l5.9-6.54c1.49-1.65,2.31-3.79,2.31-6,0-3.11-2.55-5.65-5.69-5.65h-3.79c-3.14,0-5.69,2.53-5.69,5.65v.74h-7.5v-.74c0-7.23,5.92-13.1,13.19-13.1h3.79c7.27,0,13.19,5.88,13.19,13.1,0,4.06-1.5,7.96-4.23,10.99l-5.91,6.54c-.8.89-1.23,1.97-1.23,3.14l-.03,3h-7.44Z"/>
      <path d="M61.4,34.91c6.86,0,12.45,5.55,12.45,12.36,0,3.88-1.44,7.6-4.04,10.49l-5.91,6.54c-.91,1.01-1.42,2.27-1.43,3.63l-.02,2.25h-5.96l-.02-2.25c.01-2.83,1.05-5.52,2.95-7.62l5.9-6.54c1.62-1.79,2.51-4.1,2.51-6.5,0-3.52-2.89-6.39-6.43-6.39h-3.79c-3.55,0-6.43,2.87-6.43,6.39h-6.01c0-6.81,5.58-12.36,12.45-12.36h3.79M61.4,33.42h-3.79c-7.68,0-13.94,6.21-13.94,13.85v1.49h8.99v-1.49c0-2.7,2.22-4.9,4.95-4.9h3.79c2.73,0,4.95,2.2,4.95,4.9,0,2.03-.75,3.99-2.12,5.51l-5.9,6.54c-2.14,2.37-3.32,5.42-3.34,8.61l.02,2.27v1.47h8.92v-1.47s.04-2.25.04-2.25c0-.99.36-1.9,1.04-2.65l5.91-6.54c2.85-3.16,4.43-7.24,4.43-11.49,0-7.64-6.25-13.85-13.94-13.85h0Z"/>
    </g>
  </g>
</svg>