<?xml version="1.0" encoding="UTF-8"?>
<svg id="Layer_1" xmlns="http://www.w3.org/2000/svg" version="1.1" viewBox="0 0 119 119">
  <!-- Generator: Adobe Illustrator 30.1.0, SVG Export Plug-In . SVG Version: 2.1.1 Build 136)  -->
  <circle id="Outer" cx="59.5" cy="59.5" r="50.11" fill="none" stroke="#000" stroke-width="18.78"/>
  <g>
    <g>
      <rect x="55.72" y="75.95" width="7.5" height="7.5"/>
      <path d="M61.73,77.44v4.53h-4.53v-4.53h4.53M64.71,74.46h-10.48v10.48h10.48v-10.48h0Z"/>
    </g>
    <g>
      <path d="M55.74,68.37l-.03-3.19c0-2.53.94-4.93,2.63-6.79l4.48-4.96c.98-1.08,1.52-2.48,1.52-3.94,0-1.85-1.52-3.36-3.4-3.36h-2.88c-1.87,0-3.4,1.51-3.4,3.36v1.49h-7.54v-1.49c0-5.99,4.91-10.87,10.94-10.87h2.88c6.03,0,10.94,4.88,10.94,10.87,0,3.31-1.23,6.49-3.45,8.96l-4.48,4.97c-.46.5-.7,1.11-.7,1.77l-.03,3.19h-7.47Z"/>
      <path d="M60.94,40.1c5.21,0,9.45,4.21,9.45,9.38,0,2.94-1.09,5.77-3.07,7.96l-4.48,4.97c-.69.77-1.08,1.72-1.08,2.76l-.02,1.71h-4.53l-.02-1.71c0-2.14.8-4.19,2.24-5.78l4.48-4.96c1.23-1.36,1.9-3.11,1.9-4.94,0-2.67-2.19-4.85-4.88-4.85h-2.88c-2.69,0-4.88,2.18-4.88,4.85h-4.57c0-5.17,4.24-9.38,9.45-9.38h2.88M60.94,37.13h-2.88c-6.85,0-12.42,5.54-12.42,12.36v2.97h10.52v-2.97c0-1.03.86-1.87,1.91-1.87h2.88c1.05,0,1.91.84,1.91,1.87,0,1.09-.4,2.13-1.14,2.94l-4.48,4.97c-1.93,2.13-3,4.89-3.01,7.77l.02,1.75.03,2.95h10.42l.03-2.94.02-1.71c0-.31.1-.56.31-.79l4.48-4.97c2.47-2.74,3.83-6.27,3.83-9.96,0-6.81-5.57-12.36-12.42-12.36h0Z"/>
    </g>
  </g>
</svg>