<?xml version="1.0" encoding="UTF-8"?>
<svg id="Layer_1" xmlns="http://www.w3.org/2000/svg" version="1.1" viewBox="0 0 119 119">
  <!-- Generator: Adobe Illustrator 30.1.0, SVG Export Plug-In . SVG Version: 2.1.1 Build 136)  -->
  <circle id="Outer" cx="59.5" cy="59.5" r="55.37" fill="none" stroke="#000" stroke-width="8.26"/>
  <g>
    <g>
      <rect x="55.74" y="79.93" width="7.45" height="7.45"/>
      <path d="M62.63,80.49v6.34h-6.34v-6.34h6.34M63.75,79.37h-8.57v8.57h8.57v-8.57h0Z"/>
    </g>
    <g>
      <path d="M55.75,71.62l-.03-2.95c.01-3.14,1.18-6.15,3.28-8.48l6.27-6.95c1.62-1.8,2.52-4.12,2.52-6.54,0-3.44-2.82-6.23-6.28-6.23h-4.03c-3.46,0-6.28,2.8-6.28,6.23v.56h-7.51v-.56c0-7.55,6.18-13.69,13.79-13.69h4.03c7.6,0,13.79,6.14,13.79,13.69,0,4.26-1.58,8.35-4.44,11.52l-6.28,6.95c-.89.99-1.37,2.19-1.37,3.49l-.03,2.95h-7.44Z"/>
      <path d="M61.52,33.57c7.29,0,13.23,5.89,13.23,13.14,0,4.12-1.53,8.08-4.3,11.15l-6.28,6.95c-.97,1.08-1.51,2.41-1.52,3.86l-.02,2.4h-6.34l-.02-2.4c.01-3,1.12-5.86,3.14-8.1l6.27-6.95c1.72-1.9,2.66-4.36,2.66-6.91,0-3.74-3.07-6.79-6.84-6.79h-4.03c-3.77,0-6.84,3.05-6.84,6.79h-6.39c0-7.24,5.93-13.14,13.23-13.14h4.03M61.52,32.46h-4.03c-7.91,0-14.34,6.39-14.34,14.25v1.12h8.62v-1.12c0-3.13,2.57-5.67,5.72-5.67h4.03c3.16,0,5.72,2.55,5.72,5.67,0,2.28-.84,4.47-2.38,6.16l-6.27,6.95c-2.2,2.43-3.41,5.57-3.43,8.84l.02,2.41v1.11h8.56v-1.1s.04-2.4.04-2.4c0-1.16.43-2.24,1.23-3.12l6.28-6.95c2.96-3.27,4.58-7.5,4.58-11.89,0-7.86-6.43-14.25-14.34-14.25h0Z"/>
    </g>
  </g>
</svg>