<?xml version="1.0" encoding="UTF-8"?>
<svg id="Layer_1" xmlns="http://www.w3.org/2000/svg" version="1.1" viewBox="0 0 119 119">
  <!-- Generator: Adobe Illustrator 30.1.0, SVG Export Plug-In . SVG Version: 2.1.1 Build 136)  -->
  <circle id="Outer" cx="59.5" cy="59.5" r="46.97" fill="none" stroke="#000" stroke-width="25.06"/>
  <g>
    <g>
      <rect x="55.65" y="73.52" width="7.64" height="7.64"/>
      <path d="M61.25,75.57v3.55h-3.55v-3.55h3.55M65.34,71.48h-11.73v11.73h11.73v-11.73h0Z"/>
    </g>
    <g>
      <path d="M55.68,66.74l-.03-3.37c0-2.21.82-4.3,2.29-5.92l3.51-3.89c.62-.69.97-1.58.97-2.5,0-.97-.8-1.76-1.78-1.76h-2.26c-.98,0-1.78.79-1.78,1.76v2.05h-7.67v-2.05c0-5.18,4.24-9.4,9.45-9.4h2.26c5.21,0,9.45,4.22,9.45,9.4,0,2.81-1.04,5.52-2.93,7.61l-3.51,3.89c-.21.24-.32.5-.32.8l-.03,3.38h-7.6Z"/>
      <path d="M60.63,43.7c4.09,0,7.41,3.3,7.41,7.36,0,2.31-.85,4.52-2.41,6.24l-3.51,3.89c-.54.6-.85,1.35-.85,2.16v1.34h-3.56v-1.34c0-1.68.61-3.28,1.75-4.54l3.51-3.89c.96-1.07,1.49-2.44,1.49-3.87,0-2.1-1.72-3.8-3.83-3.8h-2.26c-2.11,0-3.83,1.71-3.83,3.8h-3.58c0-4.06,3.32-7.36,7.41-7.36h2.26M60.63,39.6h-2.26c-6.34,0-11.5,5.14-11.5,11.45v4.09h10.38l-.84.93c-1.8,1.99-2.8,4.57-2.81,7.26v.03s0,.03,0,.03v1.34s.05,4.05.05,4.05h11.65l.04-4.05v-1.03s3.32-3.67,3.32-3.67c2.23-2.47,3.46-5.66,3.46-8.98,0-6.31-5.16-11.45-11.5-11.45h0ZM58.63,51.34h1.71c-.05.31-.2.6-.41.84l-1.3,1.44v-2.28h0Z"/>
    </g>
  </g>
</svg>