<?xml version="1.0" encoding="UTF-8"?>
<svg id="Layer_1" xmlns="http://www.w3.org/2000/svg" version="1.1" viewBox="0 0 83 83">
  <!-- Generator: Adobe Illustrator 30.1.0, SVG Export Plug-In . SVG Version: 2.1.1 Build 136)  -->
  <circle id="Outer" cx="41.5" cy="41.5" r="32.76" fill="none" stroke="#000" stroke-width="17.48"/>
  <g>
    <g>
      <rect x="38.82" y="51.28" width="5.33" height="5.33"/>
      <path d="M42.72,52.71v2.47h-2.47v-2.47h2.47M45.57,49.85h-8.18v8.18h8.18v-8.18h0Z"/>
    </g>
    <g>
      <path d="M38.83,46.55l-.02-2.35c0-1.54.57-3,1.59-4.13l2.45-2.71c.43-.48.67-1.1.67-1.74,0-.68-.56-1.23-1.24-1.23h-1.57c-.69,0-1.24.55-1.24,1.23v1.43h-5.35v-1.43c0-3.62,2.96-6.56,6.59-6.56h1.57c3.64,0,6.59,2.94,6.59,6.56,0,1.96-.73,3.85-2.05,5.31l-2.45,2.72c-.15.16-.22.35-.22.56l-.02,2.36h-5.3Z"/>
      <path d="M42.29,30.48c2.85,0,5.17,2.3,5.17,5.13,0,1.61-.6,3.16-1.68,4.35l-2.45,2.72c-.38.42-.59.94-.59,1.51v.94h-2.48v-.94c0-1.17.43-2.29,1.22-3.16l2.45-2.72c.67-.74,1.04-1.7,1.04-2.7,0-1.46-1.2-2.65-2.67-2.65h-1.57c-1.47,0-2.67,1.19-2.67,2.65h-2.5c0-2.83,2.32-5.13,5.17-5.13h1.57M42.29,27.62h-1.57c-4.42,0-8.02,3.58-8.02,7.98v2.85h7.24l-.59.65c-1.26,1.39-1.95,3.19-1.96,5.06v.97s.03,2.83.03,2.83h8.13l.03-2.82v-.72s2.32-2.56,2.32-2.56c1.56-1.72,2.41-3.95,2.41-6.27,0-4.4-3.6-7.98-8.02-7.98h0ZM40.9,35.81h1.19c-.04.22-.14.42-.29.59l-.9,1v-1.59h0Z"/>
    </g>
  </g>
</svg>