<?xml version="1.0" encoding="UTF-8"?>
<svg id="Layer_1" xmlns="http://www.w3.org/2000/svg" version="1.1" viewBox="0 0 83 83">
  <!-- Generator: Adobe Illustrator 30.1.0, SVG Export Plug-In . SVG Version: 2.1.1 Build 136)  -->
  <circle id="Outer" cx="41.5" cy="41.5" r="34.95" fill="none" stroke="#000" stroke-width="13.1"/>
  <g>
    <g>
      <rect x="38.86" y="52.97" width="5.23" height="5.23"/>
      <path d="M43.06,54.01v3.16h-3.16v-3.16h3.16M45.13,51.94h-7.31v7.31h7.31v-7.31h0Z"/>
    </g>
    <g>
      <path d="M38.88,47.69l-.02-2.22c0-1.76.66-3.44,1.83-4.74l3.13-3.46c.68-.76,1.06-1.73,1.06-2.75,0-1.29-1.06-2.34-2.37-2.34h-2.01c-1.31,0-2.37,1.05-2.37,2.34v1.04h-5.26v-1.04c0-4.18,3.42-7.58,7.63-7.58h2.01c4.21,0,7.63,3.4,7.63,7.58,0,2.31-.85,4.53-2.41,6.25l-3.13,3.46c-.32.35-.49.78-.49,1.23l-.02,2.23h-5.21Z"/>
      <path d="M42.5,27.97c3.63,0,6.59,2.94,6.59,6.54,0,2.05-.76,4.02-2.14,5.55l-3.13,3.46c-.48.54-.75,1.2-.75,1.92v1.19h-3.17v-1.19c0-1.5.55-2.92,1.55-4.03l3.13-3.46c.86-.95,1.33-2.17,1.33-3.44,0-1.86-1.53-3.38-3.41-3.38h-2.01c-1.88,0-3.41,1.52-3.41,3.38h-3.18c0-3.61,2.96-6.54,6.59-6.54h2.01M42.5,25.9h-2.01c-4.78,0-8.67,3.87-8.67,8.62v2.07h7.33v-2.07c0-.72.6-1.31,1.33-1.31h2.01c.73,0,1.33.59,1.33,1.31,0,.76-.28,1.49-.79,2.05l-3.13,3.46c-1.35,1.49-2.09,3.41-2.1,5.42v1.22s.03,2.06.03,2.06h7.27l.02-2.05v-1.19c.01-.21.08-.39.23-.55l3.13-3.47c1.72-1.91,2.67-4.38,2.67-6.94,0-4.75-3.89-8.62-8.67-8.62h0Z"/>
    </g>
  </g>
</svg>