<?xml version="1.0" encoding="UTF-8"?>
<svg id="Layer_1" xmlns="http://www.w3.org/2000/svg" version="1.1" viewBox="0 0 83 83">
  <!-- Generator: Adobe Illustrator 30.1.0, SVG Export Plug-In . SVG Version: 2.1.1 Build 136)  -->
  <circle id="Outer" cx="41.5" cy="41.5" r="38.62" fill="none" stroke="#000" stroke-width="5.76"/>
  <g>
    <g>
      <rect x="38.88" y="55.75" width="5.2" height="5.2"/>
      <path d="M43.68,56.14v4.42h-4.42v-4.42h4.42M44.46,55.36h-5.97v5.97h5.97v-5.97h0Z"/>
    </g>
    <g>
      <path d="M38.88,49.95l-.02-2.06c0-2.19.82-4.29,2.29-5.91l4.38-4.85c1.13-1.26,1.76-2.88,1.76-4.56,0-2.4-1.97-4.35-4.38-4.35h-2.81c-2.42,0-4.38,1.95-4.38,4.35v.39h-5.24v-.39c0-5.27,4.31-9.55,9.62-9.55h2.81c5.3,0,9.62,4.28,9.62,9.55,0,2.97-1.1,5.82-3.1,8.04l-4.38,4.85c-.62.69-.95,1.53-.96,2.43l-.02,2.06h-5.19Z"/>
      <path d="M42.91,23.41c5.09,0,9.23,4.11,9.23,9.16,0,2.87-1.06,5.63-3,7.77l-4.38,4.85c-.68.75-1.05,1.68-1.06,2.69l-.02,1.67h-4.42v-1.67c0-2.09.76-4.09,2.17-5.65l4.38-4.85c1.2-1.33,1.86-3.04,1.86-4.82,0-2.61-2.14-4.74-4.77-4.74h-2.81c-2.63,0-4.77,2.12-4.77,4.74h-4.46c0-5.05,4.14-9.16,9.23-9.16h2.81M42.91,22.64h-2.81c-5.52,0-10,4.46-10,9.94v.78h6.01v-.78c0-2.18,1.79-3.96,3.99-3.96h2.81c2.2,0,3.99,1.78,3.99,3.96,0,1.59-.59,3.11-1.66,4.3l-4.38,4.85c-1.53,1.69-2.38,3.88-2.39,6.17v1.68s.02.77.02.77h5.96v-.77s.02-1.67.02-1.67c0-.81.3-1.56.86-2.18l4.38-4.85c2.06-2.28,3.2-5.23,3.2-8.3,0-5.48-4.49-9.94-10-9.94h0Z"/>
    </g>
  </g>
</svg>