<?xml version="1.0" encoding="UTF-8"?>
<svg id="Layer_1" xmlns="http://www.w3.org/2000/svg" version="1.1" viewBox="0 0 83 83">
  <!-- Generator: Adobe Illustrator 30.1.0, SVG Export Plug-In . SVG Version: 2.1.1 Build 136)  -->
  <circle id="Outer" cx="41.5" cy="41.5" r="36.43" fill="none" stroke="#000" stroke-width="10.14"/>
  <g>
    <g>
      <rect x="38.87" y="54.1" width="5.21" height="5.2"/>
      <path d="M43.3,54.88v3.65h-3.65v-3.65h3.65M44.86,53.32h-6.76v6.76h6.76v-6.76h0Z"/>
    </g>
    <g>
      <path d="M38.88,48.55l-.02-2.15c0-1.93.72-3.77,2.01-5.19l3.61-4c.86-.95,1.33-2.18,1.33-3.46,0-1.73-1.42-3.13-3.16-3.13h-2.32c-1.74,0-3.16,1.4-3.16,3.13v.78h-5.24v-.78c0-4.6,3.77-8.34,8.4-8.34h2.32c4.63,0,8.4,3.74,8.4,8.34,0,2.57-.95,5.03-2.67,6.94l-3.61,4c-.44.48-.67,1.07-.67,1.7l-.02,2.16h-5.19Z"/>
      <path d="M42.66,26.19c4.2,0,7.62,3.39,7.62,7.56,0,2.37-.88,4.65-2.47,6.42l-3.61,4c-.56.62-.87,1.39-.87,2.22v1.38h-3.66v-1.38c0-1.73.63-3.38,1.79-4.66l3.61-4c.99-1.1,1.53-2.51,1.53-3.98,0-2.16-1.77-3.91-3.94-3.91h-2.32c-2.17,0-3.94,1.75-3.94,3.91h-3.68c0-4.17,3.42-7.56,7.62-7.56h2.32M42.66,24.63h-2.32c-5.06,0-9.17,4.09-9.17,9.12v1.56h6.79v-1.56c0-1.3,1.07-2.35,2.38-2.35h2.32c1.31,0,2.38,1.06,2.38,2.35,0,1.08-.4,2.13-1.13,2.94l-3.61,4c-1.42,1.57-2.2,3.59-2.21,5.7v1.4s.03,1.54.03,1.54h6.73l.02-1.54v-1.38c.02-.45.17-.85.48-1.19l3.61-4.01c1.85-2.05,2.87-4.7,2.87-7.46,0-5.03-4.12-9.12-9.17-9.12h0Z"/>
    </g>
  </g>
</svg>