<?xml version="1.0" encoding="UTF-8"?>
<svg id="Layer_1" xmlns="http://www.w3.org/2000/svg" version="1.1" viewBox="0 0 83 83">
  <!-- Generator: Adobe Illustrator 30.1.0, SVG Export Plug-In . SVG Version: 2.1.1 Build 136)  -->
  <circle id="Outer" cx="41.5" cy="41.5" r="33.49" fill="none" stroke="#000" stroke-width="16.03"/>
  <g>
    <g>
      <rect x="38.84" y="51.84" width="5.29" height="5.29"/>
      <path d="M42.83,53.14v2.69h-2.69v-2.69h2.69M45.42,50.55h-7.88v7.88h7.88v-7.88h0Z"/>
    </g>
    <g>
      <path d="M38.85,46.9l-.02-2.3c0-1.61.6-3.14,1.67-4.33l2.67-2.95c.52-.57.8-1.31.8-2.07,0-.88-.72-1.59-1.61-1.59h-1.71c-.89,0-1.61.71-1.61,1.59v1.3h-5.31v-1.3c0-3.79,3.1-6.88,6.92-6.88h1.71c3.82,0,6.92,3.09,6.92,6.88,0,2.07-.77,4.06-2.16,5.61l-2.67,2.96c-.21.23-.31.49-.31.78l-.02,2.31h-5.26Z"/>
      <path d="M42.36,29.67c3.1,0,5.63,2.51,5.63,5.59,0,1.75-.65,3.44-1.83,4.74l-2.67,2.96c-.41.46-.64,1.03-.64,1.64v1.02h-2.7v-1.02c0-1.28.47-2.49,1.33-3.44l2.67-2.96c.73-.81,1.13-1.85,1.13-2.94,0-1.59-1.3-2.89-2.91-2.89h-1.71c-1.6,0-2.91,1.3-2.91,2.89h-2.72c0-3.08,2.52-5.59,5.63-5.59h1.71M42.36,27.07h-1.71c-4.53,0-8.22,3.67-8.22,8.18v2.59h7.91v-2.59c0-.16.14-.29.31-.29h1.71c.17,0,.31.13.31.29,0,.44-.16.87-.46,1.2l-2.67,2.96c-1.28,1.42-2,3.26-2,5.17v1.05s.03,2.57.03,2.57h7.83l.03-2.57v-.97s2.66-2.93,2.66-2.93c1.61-1.78,2.49-4.08,2.49-6.48,0-4.51-3.69-8.18-8.22-8.18h0Z"/>
    </g>
  </g>
</svg>