<?xml version="1.0" encoding="UTF-8"?>
<svg id="Layer_1" xmlns="http://www.w3.org/2000/svg" version="1.1" viewBox="0 0 83 83">
  <!-- Generator: Adobe Illustrator 30.1.0, SVG Export Plug-In . SVG Version: 2.1.1 Build 136)  -->
  <circle id="Outer" cx="41.5" cy="41.5" r="37.89" fill="none" stroke="#000" stroke-width="7.21"/>
  <g>
    <g>
      <rect x="38.88" y="55.2" width="5.2" height="5.2"/>
      <path d="M43.55,55.72v4.16h-4.16v-4.16h4.16M44.59,54.68h-6.23v6.23h6.23v-6.23h0Z"/>
    </g>
    <g>
      <path d="M38.88,49.47l-.02-2.09c0-2.1.79-4.11,2.19-5.67l4.12-4.56c1.04-1.15,1.61-2.64,1.61-4.19,0-2.17-1.78-3.94-3.97-3.94h-2.65c-2.19,0-3.97,1.77-3.97,3.94v.52h-5.23v-.52c0-5.04,4.13-9.14,9.2-9.14h2.65c5.07,0,9.2,4.1,9.2,9.14,0,2.83-1.05,5.55-2.95,7.66l-4.12,4.56c-.56.62-.86,1.38-.86,2.19l-.02,2.09h-5.19Z"/>
      <path d="M42.82,24.35c4.79,0,8.68,3.87,8.68,8.62,0,2.71-1,5.3-2.82,7.32l-4.12,4.56c-.64.71-.99,1.58-.99,2.53l-.02,1.57h-4.16v-1.57c0-1.97.72-3.85,2.05-5.31l4.12-4.56c1.13-1.25,1.75-2.86,1.75-4.54,0-2.46-2.01-4.46-4.49-4.46h-2.65c-2.47,0-4.49,2-4.49,4.46h-4.19c0-4.75,3.89-8.62,8.68-8.62h2.65M42.82,23.31h-2.65c-5.36,0-9.72,4.33-9.72,9.66v1.04h6.27v-1.04c0-1.89,1.55-3.42,3.45-3.42h2.65c1.9,0,3.45,1.53,3.45,3.42,0,1.42-.53,2.78-1.48,3.84l-4.12,4.56c-1.49,1.65-2.32,3.78-2.33,6.01v1.59s.02,1.03.02,1.03h6.21v-1.03s.03-1.57.03-1.57c0-.69.25-1.32.73-1.85l4.12-4.56c1.99-2.2,3.09-5.05,3.09-8.01,0-5.33-4.36-9.66-9.72-9.66h0Z"/>
    </g>
  </g>
</svg>