<?xml version="1.0" encoding="UTF-8"?>
<svg id="Layer_1" xmlns="http://www.w3.org/2000/svg" version="1.1" viewBox="0 0 69 69">
  <!-- Generator: Adobe Illustrator 30.1.0, SVG Export Plug-In . SVG Version: 2.1.1 Build 136)  -->
  <path d="M34.5,8.43c.85,0,1.7.44,2.14,1.32l5.45,10.83c.94,1.86,2.68,3.17,4.72,3.55l11.8,2.21c1.84.35,2.59,2.59,1.33,3.98l-8.6,9.43c-1.33,1.46-1.94,3.42-1.69,5.38l1.68,12.72c.2,1.52-1.01,2.72-2.37,2.72-.36,0-.73-.08-1.09-.27l-10.32-5.32c-.96-.49-2-.74-3.05-.74s-2.09.25-3.05.74l-10.32,5.32c-.36.19-.73.27-1.09.27-1.36,0-2.57-1.2-2.37-2.72l1.68-12.72c.26-1.95-.36-3.92-1.68-5.37l-8.6-9.43c-1.27-1.39-.52-3.63,1.33-3.98l11.8-2.21c2.04-.38,3.79-1.7,4.72-3.55l5.45-10.83c.44-.88,1.29-1.32,2.14-1.32M34.5,0c-4.11,0-7.82,2.28-9.67,5.96l-5.06,10.05-10.93,2.05c-3.86.72-7.02,3.48-8.27,7.2-1.25,3.72-.38,7.84,2.26,10.74l8.05,8.83-1.57,11.92c-.41,3.1.53,6.21,2.59,8.55,2.06,2.35,5.03,3.7,8.15,3.7,1.71,0,3.42-.42,4.95-1.21l9.51-4.9,9.51,4.9c1.53.79,3.24,1.21,4.95,1.21,3.11,0,6.08-1.35,8.15-3.7,2.05-2.34,2.99-5.46,2.59-8.55l-1.57-11.92,8.05-8.83c2.64-2.9,3.51-7.02,2.26-10.74-1.25-3.72-4.42-6.48-8.27-7.2l-10.94-2.05-5.06-10.05c-1.85-3.67-5.56-5.96-9.67-5.96h0Z"/>
</svg>