<?xml version="1.0" encoding="UTF-8"?>
<svg id="Layer_1" xmlns="http://www.w3.org/2000/svg" version="1.1" viewBox="0 0 69 69">
  <!-- Generator: Adobe Illustrator 30.1.0, SVG Export Plug-In . SVG Version: 2.1.1 Build 136)  -->
  <path d="M34.5,10.89c.77,0,1.54.4,1.94,1.19l4.94,9.81c.85,1.68,2.43,2.87,4.28,3.22l10.69,2c1.67.31,2.35,2.34,1.2,3.6l-7.79,8.54c-1.2,1.32-1.76,3.1-1.53,4.87l1.52,11.52c.18,1.37-.91,2.46-2.15,2.46-.33,0-.67-.08-.99-.24l-9.35-4.81c-.87-.45-1.81-.67-2.76-.67-.95,0-1.89.22-2.76.67l-9.35,4.81c-.33.17-.66.24-.99.24-1.24,0-2.33-1.09-2.15-2.46l1.52-11.52c.23-1.77-.32-3.55-1.52-4.87l-7.79-8.54c-1.15-1.26-.47-3.29,1.2-3.6l10.69-2c1.85-.35,3.43-1.54,4.28-3.22l4.94-9.81c.4-.8,1.17-1.19,1.94-1.19M34.5,0C29.54,0,25.07,2.75,22.84,7.18l-3.86,7.66-8.32,1.56c-4.65.87-8.47,4.2-9.98,8.69-1.5,4.49-.46,9.45,2.73,12.95l6.27,6.88-1.23,9.29c-.49,3.73.65,7.49,3.12,10.32,2.49,2.83,6.07,4.46,9.82,4.46,2.06,0,4.13-.5,5.98-1.45l7.12-3.67,7.12,3.67c1.85.95,3.91,1.45,5.98,1.45,3.76,0,7.34-1.63,9.82-4.46,2.48-2.82,3.61-6.58,3.12-10.32l-1.23-9.29,6.27-6.88c3.19-3.5,4.24-8.46,2.73-12.95-1.5-4.49-5.33-7.82-9.98-8.69l-8.32-1.56-3.86-7.66C43.93,2.75,39.46,0,34.5,0h0Z"/>
</svg>