<?xml version="1.0" encoding="UTF-8"?>
<svg id="Layer_1" xmlns="http://www.w3.org/2000/svg" version="1.1" viewBox="0 0 69 69">
  <!-- Generator: Adobe Illustrator 30.1.0, SVG Export Plug-In . SVG Version: 2.1.1 Build 136)  -->
  <path d="M34.5,4.79c.97,0,1.93.5,2.44,1.5l6.22,12.34c1.07,2.12,3.06,3.62,5.38,4.05l13.45,2.52c2.1.39,2.96,2.95,1.51,4.53l-9.8,10.75c-1.51,1.66-2.21,3.9-1.92,6.13l1.91,14.5c.23,1.73-1.15,3.1-2.71,3.1-.41,0-.84-.1-1.25-.31l-11.76-6.06c-1.09-.56-2.28-.84-3.47-.84s-2.38.28-3.47.84l-11.76,6.06c-.41.21-.84.31-1.25.31-1.56,0-2.93-1.37-2.71-3.1l1.91-14.5c.29-2.22-.41-4.47-1.92-6.12l-9.8-10.75c-1.44-1.58-.59-4.14,1.51-4.54l13.45-2.52c2.32-.44,4.31-1.93,5.38-4.05l6.22-12.34c.5-1,1.47-1.5,2.44-1.5M34.5,0C31.64,0,29.07,1.58,27.79,4.14l-6.22,12.34c-.39.78-1.13,1.34-1.99,1.5l-13.45,2.52c-2.68.5-4.88,2.42-5.74,5-.87,2.59-.26,5.45,1.57,7.46l9.8,10.75c.56.62.82,1.44.71,2.27l-1.91,14.5c-.28,2.15.37,4.31,1.79,5.94,1.43,1.64,3.5,2.57,5.66,2.57,1.18,0,2.37-.29,3.44-.84l11.76-6.06c.4-.2.84-.31,1.28-.31s.89.11,1.28.31l11.76,6.06c1.07.55,2.25.84,3.44.84,2.16,0,4.22-.94,5.66-2.57,1.42-1.62,2.08-3.79,1.79-5.94l-1.91-14.5c-.11-.83.15-1.66.71-2.28l9.8-10.75c1.84-2.02,2.44-4.87,1.57-7.46-.87-2.58-3.07-4.5-5.74-5l-13.45-2.52c-.85-.16-1.6-.72-1.99-1.5l-6.22-12.34C39.93,1.58,37.35,0,34.5,0h0Z"/>
</svg>