<?xml version="1.0" encoding="UTF-8"?>
<svg id="Layer_1" xmlns="http://www.w3.org/2000/svg" version="1.1" viewBox="0 0 69 69">
  <!-- Generator: Adobe Illustrator 30.1.0, SVG Export Plug-In . SVG Version: 2.1.1 Build 136)  -->
  <path d="M34.5,5.99c.93,0,1.85.48,2.34,1.44l5.96,11.84c1.02,2.03,2.93,3.47,5.16,3.89l12.9,2.42c2.02.38,2.84,2.83,1.45,4.35l-9.4,10.32c-1.45,1.59-2.12,3.74-1.84,5.88l1.83,13.91c.22,1.66-1.1,2.97-2.6,2.97-.4,0-.8-.09-1.2-.3l-11.28-5.81c-1.05-.54-2.19-.81-3.33-.81s-2.29.27-3.33.81l-11.28,5.81c-.39.2-.8.3-1.2.3-1.49,0-2.81-1.31-2.6-2.97l1.83-13.91c.28-2.13-.39-4.28-1.84-5.87l-9.4-10.32c-1.38-1.52-.57-3.97,1.45-4.35l12.9-2.42c2.23-.42,4.14-1.85,5.16-3.88l5.96-11.84c.48-.96,1.41-1.44,2.34-1.44M34.5,0C31.23,0,28.28,1.82,26.81,4.74l-5.96,11.84c-.18.36-.52.62-.91.69l-12.9,2.42c-3.07.57-5.59,2.77-6.58,5.73-.99,2.96-.3,6.24,1.8,8.55l9.4,10.32c.26.28.38.67.33,1.05l-1.83,13.91c-.32,2.46.42,4.94,2.06,6.8,1.64,1.87,4.01,2.95,6.48,2.95,1.36,0,2.72-.33,3.94-.96l11.28-5.81c.18-.09.38-.14.59-.14s.4.05.59.14l11.28,5.81c1.22.63,2.58.96,3.94.96,2.48,0,4.84-1.07,6.48-2.95,1.63-1.86,2.38-4.34,2.06-6.8l-1.83-13.91c-.05-.39.07-.77.33-1.06l9.4-10.32c2.1-2.31,2.79-5.58,1.8-8.55-.99-2.96-3.51-5.16-6.58-5.73l-12.9-2.42c-.39-.07-.73-.33-.92-.69l-5.96-11.84C40.72,1.82,37.77,0,34.5,0h0Z"/>
</svg>