<?xml version="1.0" encoding="UTF-8"?>
<svg id="Layer_1" xmlns="http://www.w3.org/2000/svg" version="1.1" viewBox="0 0 31 31">
  <!-- Generator: Adobe Illustrator 30.1.0, SVG Export Plug-In . SVG Version: 2.1.1 Build 136)  -->
  <g>
    <g>
      <rect x="14.38" y="8.84" width="2.25" height="2.25"/>
      <path d="M16.24,9.23v1.47h-1.47v-1.47h1.47M17.01,8.45h-3.02v3.02h3.02v-3.02h0Z"/>
    </g>
    <g>
      <polygon points="12.9 21.94 12.9 19.69 14.38 19.69 14.38 15.86 12.9 15.86 12.9 13.61 16.62 13.61 16.62 19.69 18.1 19.69 18.1 21.94 12.9 21.94"/>
      <path d="M16.24,14v6.08h1.47v1.47h-4.42v-1.47h1.47v-4.6h-1.47v-1.47h2.95M17.01,13.23h-4.5v3.02h1.47v3.05h-1.47v3.02h5.97v-3.02h-1.47v-6.08h0Z"/>
    </g>
  </g>
  <circle id="Outer" cx="15.5" cy="15.5" r="13.05" fill="none" stroke="#000" stroke-width="4.89"/>
</svg>