<?xml version="1.0" encoding="UTF-8"?>
<svg id="Layer_1" xmlns="http://www.w3.org/2000/svg" version="1.1" viewBox="0 0 31 31">
  <!-- Generator: Adobe Illustrator 30.1.0, SVG Export Plug-In . SVG Version: 2.1.1 Build 136)  -->
  <g>
    <g>
      <rect x="14.36" y="9.23" width="2.29" height="2.29"/>
      <path d="M16.16,9.71v1.32h-1.32v-1.32h1.32M17.13,8.75h-3.26v3.26h3.26v-3.26h0Z"/>
    </g>
    <g>
      <polygon points="13.04 21.47 13.04 19.18 14.36 19.18 14.36 16.03 13.04 16.03 13.04 13.75 16.64 13.75 16.64 19.18 17.96 19.18 17.96 21.47 13.04 21.47"/>
      <path d="M16.16,14.23v5.44h1.32v1.32h-3.96v-1.32h1.32v-4.12h-1.32v-1.32h2.64M17.13,13.26h-4.57v3.26h1.32v2.18h-1.32v3.26h5.89v-3.26h-1.32v-5.44h0Z"/>
    </g>
  </g>
  <circle id="Outer" cx="15.5" cy="15.5" r="12.51" fill="none" stroke="#000" stroke-width="5.99"/>
</svg>