<?xml version="1.0" encoding="UTF-8"?>
<svg id="Layer_1" xmlns="http://www.w3.org/2000/svg" version="1.1" viewBox="0 0 31 31">
  <!-- Generator: Adobe Illustrator 30.1.0, SVG Export Plug-In . SVG Version: 2.1.1 Build 136)  -->
  <g>
    <g>
      <rect x="14.41" y="8.04" width="2.18" height="2.18"/>
      <path d="M16.4,8.24v1.8h-1.8v-1.8h1.8M16.79,7.85h-2.57v2.57h2.57v-2.57h0Z"/>
    </g>
    <g>
      <polygon points="12.61 22.91 12.61 20.73 14.41 20.73 14.41 15.51 12.61 15.51 12.61 13.32 16.59 13.32 16.59 20.73 18.39 20.73 18.39 22.91 12.61 22.91"/>
      <path d="M16.4,13.52v7.4h1.8v1.8h-5.39v-1.8h1.8v-5.61h-1.8v-1.8h3.59M16.79,13.13h-4.37v2.57h1.8v4.83h-1.8v2.57h6.16v-2.57h-1.8v-7.4h0Z"/>
    </g>
  </g>
  <circle id="Outer" cx="15.5" cy="15.5" r="14.15" fill="none" stroke="#000" stroke-width="2.69"/>
</svg>