<?xml version="1.0" encoding="UTF-8"?>
<svg id="Layer_1" xmlns="http://www.w3.org/2000/svg" version="1.1" viewBox="0 0 26 26">
  <!-- Generator: Adobe Illustrator 30.1.0, SVG Export Plug-In . SVG Version: 2.1.1 Build 136)  -->
  <path d="M13,3.18c.32,0,.64.17.81.5l2.06,4.08c.35.7,1.01,1.2,1.78,1.34l4.45.83c.7.13.98.98.5,1.5l-3.24,3.55c-.5.55-.73,1.29-.64,2.03l.63,4.79c.08.57-.38,1.02-.89,1.02-.14,0-.28-.03-.41-.1l-3.89-2c-.36-.19-.75-.28-1.15-.28s-.79.09-1.15.28l-3.89,2c-.14.07-.28.1-.41.1-.51,0-.97-.45-.89-1.02l.63-4.79c.1-.74-.14-1.48-.63-2.02l-3.24-3.55c-.48-.52-.2-1.37.5-1.5l4.45-.83c.77-.14,1.43-.64,1.78-1.34l2.06-4.08c.17-.33.49-.5.81-.5M13,0C11.45,0,10.05.86,9.36,2.24l-1.91,3.79-4.12.77c-1.45.27-2.65,1.31-3.12,2.71-.47,1.4-.14,2.95.85,4.05l3.03,3.33-.59,4.49c-.15,1.17.2,2.34.97,3.22.78.89,1.9,1.39,3.07,1.39.64,0,1.29-.16,1.87-.45l3.58-1.85,3.58,1.85c.58.3,1.22.45,1.87.45,1.17,0,2.29-.51,3.07-1.39.77-.88,1.13-2.06.97-3.22l-.59-4.49,3.03-3.33c1-1.09,1.32-2.64.85-4.05-.47-1.4-1.66-2.44-3.12-2.71l-4.12-.77-1.91-3.79C15.95.86,14.55,0,13,0h0Z"/>
</svg>