<?xml version="1.0" encoding="UTF-8"?>
<svg id="Layer_1" xmlns="http://www.w3.org/2000/svg" version="1.1" viewBox="0 0 26 26">
  <!-- Generator: Adobe Illustrator 30.1.0, SVG Export Plug-In . SVG Version: 2.1.1 Build 136)  -->
  <path d="M13,1.8c.36,0,.73.19.92.57l2.34,4.65c.4.8,1.15,1.36,2.03,1.53l5.07.95c.79.15,1.11,1.11.57,1.71l-3.69,4.05c-.57.63-.83,1.47-.72,2.31l.72,5.46c.09.65-.43,1.17-1.02,1.17-.16,0-.32-.04-.47-.12l-4.43-2.28c-.41-.21-.86-.32-1.31-.32s-.9.11-1.31.32l-4.43,2.28c-.15.08-.31.12-.47.12-.59,0-1.11-.52-1.02-1.17l.72-5.46c.11-.84-.15-1.68-.72-2.31l-3.69-4.05c-.54-.6-.22-1.56.57-1.71l5.07-.95c.88-.16,1.63-.73,2.03-1.53l2.34-4.65c.19-.38.55-.57.92-.57M13,0c-1.08,0-2.04.6-2.53,1.56l-2.34,4.65c-.15.29-.43.5-.75.56l-5.07.95c-1.01.19-1.84.91-2.16,1.89-.33.97-.1,2.05.59,2.81l3.69,4.05c.21.23.31.54.27.86l-.72,5.46c-.11.81.14,1.63.68,2.24.54.62,1.32.97,2.13.97.45,0,.89-.11,1.3-.32l4.43-2.28c.15-.08.32-.12.48-.12s.33.04.48.12l4.43,2.28c.4.21.85.32,1.3.32.81,0,1.59-.35,2.13-.97.54-.61.78-1.43.68-2.24l-.72-5.46c-.04-.31.06-.63.27-.86l3.69-4.05c.69-.76.92-1.84.59-2.81-.33-.97-1.16-1.7-2.16-1.88l-5.07-.95c-.32-.06-.6-.27-.75-.57l-2.34-4.65c-.48-.96-1.45-1.56-2.53-1.56h0Z"/>
</svg>