<?xml version="1.0" encoding="UTF-8"?>
<svg id="Layer_1" xmlns="http://www.w3.org/2000/svg" version="1.1" viewBox="0 0 19 19">
  <!-- Generator: Adobe Illustrator 30.1.0, SVG Export Plug-In . SVG Version: 2.1.1 Build 136)  -->
  <path d="M9.5,2.32c.23,0,.47.12.59.36l1.5,2.98c.26.51.74.87,1.3.98l3.25.61c.51.1.71.71.37,1.1l-2.37,2.6c-.37.4-.54.94-.46,1.48l.46,3.5c.06.42-.28.75-.65.75-.1,0-.2-.02-.3-.07l-2.84-1.46c-.26-.14-.55-.2-.84-.2-.29,0-.58.07-.84.2l-2.84,1.46c-.1.05-.2.07-.3.07-.38,0-.71-.33-.65-.75l.46-3.5c.07-.54-.1-1.08-.46-1.48l-2.37-2.6c-.35-.38-.14-1,.37-1.1l3.25-.61c.56-.11,1.04-.47,1.3-.98l1.5-2.98c.12-.24.36-.36.59-.36M9.5,0C8.37,0,7.35.63,6.84,1.64l-1.39,2.77-3.01.56c-1.06.2-1.93.96-2.28,1.98-.34,1.03-.1,2.16.62,2.96l2.22,2.43-.43,3.28c-.11.85.15,1.71.71,2.35.57.65,1.39,1.02,2.24,1.02.47,0,.94-.11,1.36-.33l2.62-1.35,2.62,1.35c.42.22.89.33,1.36.33.86,0,1.68-.37,2.24-1.02.56-.64.82-1.5.71-2.35l-.43-3.28,2.22-2.43c.73-.8.97-1.93.62-2.96-.34-1.02-1.22-1.78-2.28-1.98l-3.01-.56-1.39-2.77C11.65.63,10.63,0,9.5,0h0Z"/>
</svg>