<?xml version="1.0" encoding="UTF-8"?>
<svg id="Layer_1" xmlns="http://www.w3.org/2000/svg" version="1.1" viewBox="0 0 19 19">
  <!-- Generator: Adobe Illustrator 30.1.0, SVG Export Plug-In . SVG Version: 2.1.1 Build 136)  -->
  <path d="M9.5,3c.21,0,.42.11.53.33l1.36,2.7c.23.46.67.79,1.18.89l2.94.55c.46.09.65.65.33.99l-2.14,2.35c-.33.36-.48.85-.42,1.34l.42,3.17c.05.38-.25.68-.59.68-.09,0-.18-.02-.27-.07l-2.57-1.33c-.24-.12-.5-.18-.76-.18s-.52.06-.76.18l-2.57,1.33c-.09.05-.18.07-.27.07-.34,0-.64-.3-.59-.68l.42-3.17c.06-.49-.09-.98-.42-1.34l-2.14-2.35c-.32-.35-.13-.91.33-.99l2.94-.55c.51-.1.94-.42,1.18-.89l1.36-2.7c.11-.22.32-.33.53-.33M9.5,0C8.13,0,6.9.76,6.29,1.98l-1.06,2.11-2.29.43c-1.28.24-2.33,1.16-2.75,2.39-.41,1.24-.13,2.6.75,3.57l1.73,1.89-.34,2.56c-.14,1.03.18,2.06.86,2.84.68.78,1.67,1.23,2.71,1.23.57,0,1.14-.14,1.65-.4l1.96-1.01,1.96,1.01c.51.26,1.08.4,1.65.4,1.03,0,2.02-.45,2.71-1.23.68-.78,1-1.81.86-2.84l-.34-2.56,1.73-1.9c.88-.96,1.17-2.33.75-3.57-.41-1.24-1.47-2.15-2.75-2.39l-2.29-.43-1.06-2.11C12.1.76,10.87,0,9.5,0h0Z"/>
</svg>