<?xml version="1.0" encoding="UTF-8"?>
<svg id="Layer_1" xmlns="http://www.w3.org/2000/svg" version="1.1" viewBox="0 0 15 15">
  <!-- Generator: Adobe Illustrator 30.1.0, SVG Export Plug-In . SVG Version: 2.1.1 Build 136)  -->
  <path d="M7.5,1.04c.21,0,.42.11.53.33l1.35,2.68c.23.46.66.79,1.17.88l2.92.55c.46.09.64.64.33.99l-2.13,2.34c-.33.36-.48.85-.42,1.33l.42,3.15c.05.38-.25.67-.59.67-.09,0-.18-.02-.27-.07l-2.56-1.32c-.24-.12-.5-.18-.76-.18s-.52.06-.76.18l-2.56,1.32c-.09.05-.18.07-.27.07-.34,0-.64-.3-.59-.67l.42-3.15c.06-.48-.09-.97-.42-1.33l-2.13-2.34c-.31-.34-.13-.9.33-.99l2.92-.55c.51-.09.94-.42,1.17-.88l1.35-2.68c.11-.22.32-.33.53-.33M7.5,0c-.62,0-1.18.34-1.46.9l-1.35,2.68c-.09.17-.25.29-.43.33l-2.92.55c-.58.11-1.06.53-1.25,1.09-.19.56-.06,1.18.34,1.62l2.13,2.34c.12.13.18.31.15.49l-.42,3.15c-.06.47.08.94.39,1.29.31.36.76.56,1.23.56.26,0,.52-.06.75-.18l2.56-1.32c.09-.04.18-.07.28-.07s.19.02.28.07l2.56,1.32c.23.12.49.18.75.18.47,0,.92-.2,1.23-.56.31-.35.45-.82.39-1.29l-.42-3.15c-.02-.18.03-.36.16-.5l2.13-2.34c.4-.44.53-1.06.34-1.62-.19-.56-.67-.98-1.25-1.09l-2.92-.55c-.19-.03-.35-.16-.43-.33l-1.35-2.68C8.68.34,8.12,0,7.5,0h0Z"/>
</svg>