<?xml version="1.0" encoding="UTF-8"?>
<svg id="Layer_1" xmlns="http://www.w3.org/2000/svg" version="1.1" viewBox="0 0 120 120">
  <!-- Generator: Adobe Illustrator 30.1.0, SVG Export Plug-In . SVG Version: 2.1.1 Build 136)  -->
  <path d="M60,25.27c1.13,0,2.26.59,2.85,1.76l7.26,14.42c1.25,2.47,3.57,4.23,6.29,4.73l15.72,2.95c2.46.46,3.45,3.45,1.77,5.3l-11.45,12.57c-1.77,1.94-2.59,4.56-2.25,7.16l2.23,16.94c.27,2.02-1.34,3.62-3.16,3.62-.48,0-.98-.11-1.46-.36l-13.75-7.08c-1.27-.66-2.67-.98-4.06-.98s-2.79.33-4.06.98l-13.75,7.08c-.48.25-.98.36-1.46.36-1.82,0-3.43-1.6-3.16-3.62l2.24-16.95c.34-2.6-.48-5.22-2.24-7.16l-11.45-12.57c-1.69-1.85-.69-4.84,1.77-5.3l15.72-2.95c2.72-.51,5.04-2.26,6.29-4.73l7.27-14.42c.59-1.17,1.72-1.76,2.85-1.76M60,0C49.19,0,39.44,6,34.58,15.66l-3.62,7.18-7.74,1.45c-10.14,1.9-18.47,9.16-21.75,18.94-3.28,9.79-1,20.6,5.95,28.23l6.32,6.94-1.24,9.4c-1.07,8.13,1.41,16.33,6.81,22.49,5.41,6.17,13.22,9.71,21.41,9.71,4.5,0,9.01-1.09,13.03-3.16l6.23-3.21,6.24,3.21c4.02,2.07,8.53,3.16,13.03,3.16,8.19,0,16-3.54,21.41-9.71,5.4-6.16,7.88-14.35,6.81-22.49l-1.24-9.4,6.33-6.94c6.95-7.63,9.23-18.44,5.95-28.23-3.28-9.78-11.61-17.04-21.75-18.94l-7.74-1.45-3.62-7.18C80.55,6,70.81,0,60,0h0Z"/>
</svg>