<?xml version="1.0" encoding="UTF-8"?>
<svg id="Layer_1" xmlns="http://www.w3.org/2000/svg" version="1.1" viewBox="0 0 19 19">
  <!-- Generator: Adobe Illustrator 30.1.0, SVG Export Plug-In . SVG Version: 2.1.1 Build 136)  -->
  <g>
    <g>
      <rect x="8.84" y="4.81" width="1.33" height="1.33"/>
      <path d="M10.08,4.9v1.15h-1.15v-1.15h1.15M10.25,4.72h-1.51v1.51h1.51v-1.51h0Z"/>
    </g>
    <g>
      <polygon points="7.69 14.19 7.69 12.86 8.84 12.86 8.84 9.45 7.69 9.45 7.69 8.12 10.16 8.12 10.16 12.86 11.31 12.86 11.31 14.19 7.69 14.19"/>
      <path d="M10.08,8.21v4.74h1.15v1.15h-3.45v-1.15h1.15v-3.59h-1.15v-1.15h2.3M10.25,8.03h-2.66v1.51h1.15v3.23h-1.15v1.51h3.81v-1.51h-1.15v-4.74h0Z"/>
    </g>
  </g>
  <circle id="Outer" cx="9.5" cy="9.5" r="8.84" fill="none" stroke="#000" stroke-width="1.32"/>
</svg>