<?xml version="1.0" encoding="UTF-8"?>
<svg id="Layer_1" xmlns="http://www.w3.org/2000/svg" version="1.1" viewBox="0 0 19 19">
  <!-- Generator: Adobe Illustrator 30.1.0, SVG Export Plug-In . SVG Version: 2.1.1 Build 136)  -->
  <g>
    <g>
      <rect x="8.79" y="5.78" width="1.41" height="1.42"/>
      <path d="M9.88,6.1v.76h-.76v-.76h.76M10.53,5.45h-2.07v2.07h2.07v-2.07h0Z"/>
    </g>
    <g>
      <polygon points="8.03 13.02 8.03 11.6 8.79 11.6 8.79 9.88 8.03 9.88 8.03 8.46 10.21 8.46 10.21 11.6 10.97 11.6 10.97 13.02 8.03 13.02"/>
      <path d="M9.88,8.79v3.14h.76v.76h-2.29v-.76h.76v-2.38h-.76v-.76h1.52M10.53,8.14h-2.83v2.07h.76v1.07h-.76v2.07h3.59v-2.07h-.76v-3.14h0Z"/>
    </g>
  </g>
  <circle id="Outer" cx="9.5" cy="9.5" r="7.5" fill="none" stroke="#000" stroke-width="4"/>
</svg>