<?xml version="1.0" encoding="UTF-8"?>
<svg id="Layer_1" xmlns="http://www.w3.org/2000/svg" version="1.1" viewBox="0 0 19 19">
  <!-- Generator: Adobe Illustrator 30.1.0, SVG Export Plug-In . SVG Version: 2.1.1 Build 136)  -->
  <g>
    <g>
      <rect x="8.82" y="5.17" width="1.36" height="1.36"/>
      <path d="M10,5.35v1h-1v-1h1M10.36,4.99h-1.71v1.71h1.71v-1.71h0Z"/>
    </g>
    <g>
      <polygon points="7.82 13.74 7.82 12.39 8.82 12.39 8.82 9.61 7.82 9.61 7.82 8.26 10.18 8.26 10.18 12.39 11.18 12.39 11.18 13.74 7.82 13.74"/>
      <path d="M10,8.43v4.13h1v1h-3v-1h1v-3.13h-1v-1h2M10.36,8.08h-2.72v1.71h1v2.41h-1v1.71h3.72v-1.71h-1v-4.13h0Z"/>
    </g>
  </g>
  <circle id="Outer" cx="9.5" cy="9.5" r="8.34" fill="none" stroke="#000" stroke-width="2.32"/>
</svg>