<?xml version="1.0" encoding="UTF-8"?>
<svg id="Layer_1" xmlns="http://www.w3.org/2000/svg" version="1.1" viewBox="0 0 10 10">
  <!-- Generator: Adobe Illustrator 30.1.0, SVG Export Plug-In . SVG Version: 2.1.1 Build 136)  -->
  <circle id="Outer" cx="5" cy="5" r="4.39" fill="none" stroke="#000" stroke-width="1.22"/>
  <g>
    <g>
      <rect x="4.68" y="6.52" width=".63" height=".63"/>
      <path d="M5.22,6.61v.44h-.44v-.44h.44M5.4,6.42h-.81v.81h.81v-.81h0Z"/>
    </g>
    <g>
      <path d="M4.69,5.85v-.26c0-.23.08-.45.24-.63l.43-.48c.1-.11.16-.26.16-.42,0-.21-.17-.38-.38-.38h-.28c-.21,0-.38.17-.38.38v.09h-.63v-.09c0-.55.45-1,1.01-1h.28c.56,0,1.01.45,1.01,1,0,.31-.11.61-.32.84l-.44.48c-.05.06-.08.13-.08.2v.26h-.63Z"/>
      <path d="M5.14,3.15c.51,0,.92.41.92.91,0,.29-.11.56-.3.77l-.44.48c-.07.07-.1.17-.11.27v.17h-.44v-.17c0-.21.08-.41.22-.56l.44-.48c.12-.13.18-.3.18-.48,0-.26-.21-.47-.47-.47h-.28c-.26,0-.47.21-.47.47h-.44c0-.5.41-.91.92-.91h.28M5.14,2.97h-.28c-.61,0-1.11.49-1.11,1.1v.19h.82v-.19c0-.16.13-.28.29-.28h.28c.16,0,.29.13.29.28,0,.13-.05.26-.14.35l-.44.48c-.17.19-.27.43-.27.69v.17s0,.19,0,.19h.81v-.19s0-.17,0-.17c0-.05.02-.1.06-.14l.44-.48c.22-.25.35-.57.35-.9,0-.61-.5-1.1-1.11-1.1h0Z"/>
    </g>
  </g>
</svg>