<?xml version="1.0" encoding="UTF-8"?>
<svg id="Layer_1" xmlns="http://www.w3.org/2000/svg" version="1.1" viewBox="0 0 10 10">
  <!-- Generator: Adobe Illustrator 30.1.0, SVG Export Plug-In . SVG Version: 2.1.1 Build 136)  -->
  <circle id="Outer" cx="5" cy="5" r="4.65" fill="none" stroke="#000" stroke-width=".69"/>
  <g>
    <g>
      <polygon points="4.73 7.34 4.68 6.76 5.26 6.72 5.31 7.3 5.31 7.34 4.73 7.34"/>
      <path d="M5.26,6.76v.53h-.53v-.53h.53M5.36,6.67h-.72v.72h.72v-.72h0Z"/>
    </g>
    <g>
      <path d="M4.73,6.02l-.05-.25c0-.26.1-.52.28-.71l.53-.58c.14-.15.21-.35.21-.55,0-.29-.24-.52-.53-.52h-.34c-.29,0-.53.23-.53.52l-.58.05c-.05-.68.47-1.2,1.11-1.2h.34c.64,0,1.16.52,1.16,1.15,0,.36-.13.7-.37.97l-.53.58c-.07.08-.11.18-.12.29v.25h-.58Z"/>
      <path d="M5.17,2.82c.61,0,1.11.5,1.11,1.1,0,.35-.13.68-.36.94l-.53.58c-.08.09-.13.2-.13.32v.2h-.53v-.2c0-.25.09-.49.26-.68l.53-.58c.14-.16.22-.37.22-.58,0-.31-.26-.57-.57-.57h-.34c-.32,0-.57.26-.57.57h-.54c0-.61.5-1.1,1.11-1.1h.34M5.17,2.73h-.34c-.66,0-1.21.54-1.21,1.2v.09h.72v-.09c0-.26.22-.48.48-.48h.34c.27,0,.48.21.48.48,0,.19-.07.38-.2.52l-.53.58c-.18.2-.29.47-.29.74v.2s0,.09,0,.09h.72v-.09s0-.2,0-.2c0-.1.04-.19.1-.26l.53-.58c.25-.28.39-.63.39-1,0-.66-.54-1.2-1.21-1.2h0Z"/>
    </g>
  </g>
</svg>