<?xml version="1.0" encoding="UTF-8"?>
<svg id="Layer_1" xmlns="http://www.w3.org/2000/svg" version="1.1" viewBox="0 0 10 10">
  <!-- Generator: Adobe Illustrator 30.1.0, SVG Export Plug-In . SVG Version: 2.1.1 Build 136)  -->
  <circle id="Outer" cx="5" cy="5" r="4.03" fill="none" stroke="#000" stroke-width="1.93"/>
  <g>
    <g>
      <rect x="4.68" y="6.25" width=".64" height=".64"/>
      <path d="M5.16,6.4v.32h-.32v-.32h.32M5.47,6.09h-.95v.95h.95v-.95h0Z"/>
    </g>
    <g>
      <path d="M4.68,5.65v-.28c0-.19.07-.38.2-.52l.32-.36c.06-.07.1-.16.1-.25,0-.11-.09-.19-.19-.19h-.21c-.11,0-.19.09-.19.19v.16h-.64v-.16c0-.46.37-.83.83-.83h.21c.46,0,.83.37.83.83,0,.25-.09.49-.26.68l-.32.36s-.04.06-.04.09v.28h-.64Z"/>
      <path d="M5.1,3.57c.37,0,.68.3.68.67,0,.21-.08.41-.22.57l-.32.36c-.05.06-.08.12-.08.2v.12h-.33v-.12c0-.15.06-.3.16-.41l.32-.36c.09-.1.14-.22.14-.35,0-.19-.16-.35-.35-.35h-.21c-.19,0-.35.16-.35.35h-.33c0-.37.3-.67.68-.67h.21M5.1,3.26h-.21c-.55,0-.99.44-.99.99v.31h.95v-.31s.02-.04.04-.04h.21s.04.02.04.04c0,.05-.02.1-.06.14l-.32.36c-.15.17-.24.39-.24.62v.13s0,.31,0,.31h.94v-.31s0-.12,0-.12l.32-.35c.19-.21.3-.49.3-.78,0-.54-.44-.99-.99-.99h0Z"/>
    </g>
  </g>
</svg>