<?xml version="1.0" encoding="UTF-8"?>
<svg id="Layer_1" xmlns="http://www.w3.org/2000/svg" version="1.1" viewBox="0 0 10 10">
  <!-- Generator: Adobe Illustrator 30.1.0, SVG Export Plug-In . SVG Version: 2.1.1 Build 136)  -->
  <circle id="Outer" cx="5" cy="5" r="3.95" fill="none" stroke="#000" stroke-width="2.11"/>
  <g>
    <g>
      <rect x="4.68" y="6.18" width=".64" height=".64"/>
      <path d="M5.15,6.35v.3h-.3v-.3h.3M5.49,6.01h-.99v.99h.99v-.99h0Z"/>
    </g>
    <g>
      <path d="M4.68,5.61v-.28c0-.19.07-.36.19-.5l.3-.33c.05-.06.08-.13.08-.21,0-.08-.07-.15-.15-.15h-.19c-.08,0-.15.07-.15.15v.17h-.64v-.17c0-.44.36-.79.79-.79h.19c.44,0,.79.35.79.79,0,.24-.09.46-.25.64l-.3.33-.03.18v.17h-.64Z"/>
      <path d="M5.09,3.67c.34,0,.62.28.62.62,0,.19-.07.38-.2.52l-.3.33c-.05.05-.07.11-.07.18v.11h-.3v-.11c0-.14.05-.28.15-.38l.3-.33c.08-.09.13-.21.13-.33,0-.18-.14-.32-.32-.32h-.19c-.18,0-.32.14-.32.32h-.3c0-.34.28-.62.62-.62h.19M5.09,3.33h-.19c-.53,0-.97.43-.97.96v.34h.87l-.07.08c-.15.17-.24.38-.24.61v.12s0,.34,0,.34h.98v-.34s0-.09,0-.09l.28-.31c.19-.21.29-.48.29-.75,0-.53-.43-.96-.97-.96h0ZM4.93,4.51v-.22l.17.02s-.04.04-.06.07l-.11.12h0Z"/>
    </g>
  </g>
</svg>