<?xml version="1.0" encoding="UTF-8"?>
<svg id="Layer_1" xmlns="http://www.w3.org/2000/svg" version="1.1" viewBox="0 0 10 10">
  <!-- Generator: Adobe Illustrator 30.1.0, SVG Export Plug-In . SVG Version: 2.1.1 Build 136)  -->
  <circle id="Outer" cx="5" cy="5" r="4.21" fill="none" stroke="#000" stroke-width="1.58"/>
  <g>
    <g>
      <rect x="4.68" y="6.38" width=".63" height=".63"/>
      <path d="M5.19,6.51v.38h-.38v-.38h.38M5.44,6.26h-.88v.88h.88v-.88h0Z"/>
    </g>
    <g>
      <path d="M4.68,5.75v-.27c0-.21.08-.41.22-.57l.38-.42c.08-.09.13-.21.13-.33,0-.16-.13-.28-.29-.28h-.24c-.16,0-.29.13-.29.28v.12h-.63v-.12c0-.5.41-.91.92-.91h.24c.51,0,.92.41.92.91,0,.28-.1.55-.29.75l-.38.42s-.06.09-.06.15v.27h-.63Z"/>
      <path d="M5.12,3.37c.44,0,.79.35.79.79,0,.25-.09.48-.26.67l-.38.42c-.06.06-.09.14-.09.23v.14h-.38v-.14c0-.18.07-.35.19-.49l.38-.42c.1-.11.16-.26.16-.41,0-.22-.18-.41-.41-.41h-.24c-.23,0-.41.18-.41.41h-.38c0-.43.36-.79.79-.79h.24M5.12,3.12h-.24c-.58,0-1.04.47-1.04,1.04v.25h.88v-.25c0-.09.07-.16.16-.16h.24c.09,0,.16.07.16.16,0,.09-.03.18-.1.25l-.38.42c-.16.18-.25.41-.25.65v.15s0,.25,0,.25h.88v-.25s0-.14,0-.14c0-.03,0-.05.03-.07l.38-.42c.21-.23.32-.53.32-.84,0-.57-.47-1.04-1.04-1.04h0Z"/>
    </g>
  </g>
</svg>