<?xml version="1.0" encoding="UTF-8"?>
<svg id="Layer_1" xmlns="http://www.w3.org/2000/svg" version="1.1" viewBox="0 0 10 10">
  <!-- Generator: Adobe Illustrator 30.1.0, SVG Export Plug-In . SVG Version: 2.1.1 Build 136)  -->
  <circle id="Outer" cx="5" cy="5" r="4.57" fill="none" stroke="#000" stroke-width=".87"/>
  <g>
    <g>
      <polygon points="4.75 7.28 4.68 6.71 5.25 6.65 5.31 7.21 5.31 7.28 4.75 7.28"/>
      <path d="M5.25,6.71v.5h-.5v-.5h.5M5.37,6.59h-.75v.75h.75v-.75h0Z"/>
    </g>
    <g>
      <path d="M4.75,5.96l-.06-.25c0-.25.09-.5.26-.68l.5-.55c.13-.14.19-.32.19-.5,0-.26-.21-.47-.48-.47h-.32c-.26,0-.48.21-.48.47l-.57.06c-.06-.67.44-1.16,1.05-1.16h.32c.61,0,1.11.49,1.11,1.1,0,.34-.13.67-.36.92l-.5.55c-.07.07-.1.17-.1.26v.25h-.57Z"/>
      <path d="M5.16,2.93c.58,0,1.05.47,1.05,1.04,0,.33-.12.64-.34.88l-.5.55c-.08.09-.12.19-.12.31v.19h-.5v-.19c0-.24.09-.46.25-.64l.5-.55c.14-.15.21-.34.21-.55,0-.3-.24-.54-.54-.54h-.32c-.3,0-.54.24-.54.54h-.51c0-.57.47-1.04,1.05-1.04h.32M5.16,2.81h-.32c-.65,0-1.17.52-1.17,1.16v.12h.76v-.12c0-.23.19-.41.42-.41h.32c.23,0,.42.18.42.41,0,.17-.06.34-.18.46l-.5.55c-.18.2-.28.46-.28.72v.19s0,.12,0,.12h.75v-.12s0-.19,0-.19c0-.08.03-.16.09-.22l.5-.55c.24-.27.37-.61.37-.97,0-.64-.53-1.16-1.17-1.16h0Z"/>
    </g>
  </g>
</svg>