<?xml version="1.0" encoding="UTF-8"?>
<svg id="Layer_1" xmlns="http://www.w3.org/2000/svg" version="1.1" viewBox="0 0 101 101">
  <!-- Generator: Adobe Illustrator 30.1.0, SVG Export Plug-In . SVG Version: 2.1.1 Build 136)  -->
  <g>
    <g>
      <rect x="46.74" y="30.7" width="7.52" height="7.52"/>
      <path d="M52.52,32.44v4.05h-4.05v-4.05h4.05M56,28.96h-10.99v10.99h10.99v-10.99h0Z"/>
    </g>
    <g>
      <polygon points="42.69 69.2 42.69 61.68 46.74 61.68 46.74 52.51 42.69 52.51 42.69 44.99 54.26 44.99 54.26 61.68 58.31 61.68 58.31 69.2 42.69 69.2"/>
      <path d="M52.52,46.72v16.69h4.05v4.05h-12.15v-4.05h4.05v-12.64h-4.05v-4.05h8.1M56,43.25h-15.04v10.99h4.05v5.7h-4.05v10.99h19.09v-10.99h-4.05v-16.69h0Z"/>
    </g>
  </g>
  <circle id="Outer" cx="50.5" cy="50.5" r="39.86" fill="none" stroke="#000" stroke-width="21.27"/>
</svg>