<?xml version="1.0" encoding="UTF-8"?>
<svg id="Layer_1" xmlns="http://www.w3.org/2000/svg" version="1.1" viewBox="0 0 101 101">
  <!-- Generator: Adobe Illustrator 30.1.0, SVG Export Plug-In . SVG Version: 2.1.1 Build 136)  -->
  <g>
    <g>
      <rect x="46.94" y="26.21" width="7.11" height="7.11"/>
      <path d="M53.43,26.84v5.85h-5.85v-5.85h5.85M54.69,25.58h-8.38v8.38h8.38v-8.38h0Z"/>
    </g>
    <g>
      <polygon points="41.09 74.64 41.09 67.53 46.94 67.53 46.94 50.52 41.09 50.52 41.09 43.41 54.06 43.41 54.06 67.53 59.91 67.53 59.91 74.64 41.09 74.64"/>
      <path d="M53.43,44.04v24.11h5.85v5.85h-17.55v-5.85h5.85v-18.26h-5.85v-5.85h11.7M54.69,42.78h-14.23v8.38h5.85v15.74h-5.85v8.38h20.08v-8.38h-5.85v-24.11h0Z"/>
    </g>
  </g>
  <circle id="Outer" cx="50.5" cy="50.5" r="46.11" fill="none" stroke="#000" stroke-width="8.77"/>
</svg>