<?xml version="1.0" encoding="UTF-8"?>
<svg id="Layer_1" xmlns="http://www.w3.org/2000/svg" version="1.1" viewBox="0 0 101 101">
  <!-- Generator: Adobe Illustrator 30.1.0, SVG Export Plug-In . SVG Version: 2.1.1 Build 136)  -->
  <g>
    <g>
      <rect x="46.89" y="27.5" width="7.22" height="7.22"/>
      <path d="M53.16,28.44v5.32h-5.32v-5.32h5.32M55.06,26.55h-9.11v9.11h9.11v-9.11h0Z"/>
    </g>
    <g>
      <polygon points="41.57 73.06 41.57 65.84 46.89 65.84 46.89 51.11 41.57 51.11 41.57 43.89 54.11 43.89 54.11 65.84 59.43 65.84 59.43 73.06 41.57 73.06"/>
      <path d="M53.16,44.84v21.95h5.32v5.32h-15.97v-5.32h5.32v-16.62h-5.32v-5.32h10.65M55.06,42.94h-14.44v9.11h5.32v12.83h-5.32v9.11h19.76v-9.11h-5.32v-21.95h0Z"/>
    </g>
  </g>
  <circle id="Outer" cx="50.5" cy="50.5" r="44.33" fill="none" stroke="#000" stroke-width="12.34"/>
</svg>