<?xml version="1.0" encoding="UTF-8"?>
<svg id="Layer_1" xmlns="http://www.w3.org/2000/svg" version="1.1" viewBox="0 0 101 101">
  <!-- Generator: Adobe Illustrator 30.1.0, SVG Export Plug-In . SVG Version: 2.1.1 Build 136)  -->
  <g>
    <g>
      <rect x="46.77" y="30.07" width="7.45" height="7.45"/>
      <path d="M52.65,31.65v4.3h-4.3v-4.3h4.3M55.8,28.49h-10.61v10.61h10.61v-10.61h0Z"/>
    </g>
    <g>
      <polygon points="42.48 69.95 42.48 62.5 46.77 62.5 46.77 52.24 42.48 52.24 42.48 44.79 54.23 44.79 54.23 62.5 58.52 62.5 58.52 69.95 42.48 69.95"/>
      <path d="M52.65,46.36v17.71h4.3v4.3h-12.89v-4.3h4.3v-13.41h-4.3v-4.3h8.59M55.8,43.21h-14.91v10.61h4.3v7.1h-4.3v10.61h19.2v-10.61h-4.3v-17.71h0Z"/>
    </g>
  </g>
  <circle id="Outer" cx="50.5" cy="50.5" r="40.75" fill="none" stroke="#000" stroke-width="19.51"/>
</svg>