<?xml version="1.0" encoding="UTF-8"?>
<svg id="Layer_1" xmlns="http://www.w3.org/2000/svg" version="1.1" viewBox="0 0 18 18">
  <!-- Generator: Adobe Illustrator 30.1.0, SVG Export Plug-In . SVG Version: 2.1.1 Build 136)  -->
  <path d="M9,1.25c.25,0,.5.13.64.39l1.62,3.22c.28.55.8.94,1.4,1.06l3.51.66c.55.1.77.77.39,1.18l-2.56,2.8c-.39.43-.58,1.02-.5,1.6l.5,3.78c.06.45-.3.81-.71.81-.11,0-.22-.03-.33-.08l-3.07-1.58c-.28-.15-.6-.22-.91-.22s-.62.07-.91.22l-3.07,1.58c-.11.06-.22.08-.33.08-.41,0-.77-.36-.71-.81l.5-3.78c.08-.58-.11-1.16-.5-1.6l-2.56-2.81c-.38-.41-.15-1.08.39-1.18l3.51-.66c.61-.11,1.13-.5,1.4-1.06l1.62-3.22c.13-.26.38-.39.64-.39M9,0C8.26,0,7.58.41,7.25,1.08l-1.62,3.22c-.1.2-.3.35-.52.39l-3.51.66c-.7.13-1.27.63-1.5,1.31-.23.67-.07,1.42.41,1.95l2.56,2.81c.15.16.21.38.19.59l-.5,3.78c-.07.56.1,1.13.47,1.55.37.43.91.67,1.48.67.31,0,.62-.08.9-.22l3.07-1.58c.1-.05.22-.08.33-.08s.23.03.33.08l3.07,1.58c.28.14.59.22.9.22.56,0,1.1-.24,1.48-.67.37-.42.54-.99.47-1.55l-.5-3.78c-.03-.22.04-.43.19-.59l2.56-2.8c.48-.53.64-1.27.41-1.95-.23-.67-.8-1.17-1.5-1.3l-3.51-.66c-.22-.04-.42-.19-.52-.39l-1.62-3.22C10.42.41,9.74,0,9,0h0Z"/>
</svg>