<?xml version="1.0" encoding="UTF-8"?>
<svg id="Layer_1" xmlns="http://www.w3.org/2000/svg" version="1.1" viewBox="0 0 18 18">
  <!-- Generator: Adobe Illustrator 30.1.0, SVG Export Plug-In . SVG Version: 2.1.1 Build 136)  -->
  <path d="M9,2.84c.2,0,.4.1.51.31l1.29,2.56c.22.44.63.75,1.12.84l2.79.52c.44.08.61.61.31.94l-2.03,2.23c-.31.34-.46.81-.4,1.27l.4,3.01c.05.36-.24.64-.56.64-.09,0-.17-.02-.26-.06l-2.44-1.26c-.23-.12-.47-.17-.72-.17-.25,0-.49.06-.72.17l-2.44,1.26c-.09.04-.17.06-.26.06-.32,0-.61-.28-.56-.64l.4-3.01c.06-.46-.08-.93-.4-1.27l-2.03-2.23c-.3-.33-.12-.86.31-.94l2.79-.52c.48-.09.89-.4,1.12-.84l1.29-2.56c.1-.21.3-.31.51-.31M9,0C7.71,0,6.54.72,5.96,1.87l-1.01,2-2.17.41c-1.21.23-2.21,1.1-2.6,2.27-.39,1.17-.12,2.47.71,3.38l1.64,1.79-.32,2.42c-.13.97.17,1.95.81,2.69.65.74,1.58,1.16,2.56,1.16,0,0,0,0,0,0,.54,0,1.08-.13,1.56-.38l1.86-.96,1.86.96c.48.25,1.02.38,1.56.38.98,0,1.91-.42,2.56-1.16.65-.74.94-1.72.81-2.69l-.32-2.42,1.64-1.8c.83-.91,1.1-2.21.71-3.38-.39-1.17-1.39-2.04-2.6-2.27l-2.17-.41-1.01-2C11.46.72,10.29,0,9,0h0Z"/>
</svg>