<?xml version="1.0" encoding="UTF-8"?>
<svg id="Layer_1" xmlns="http://www.w3.org/2000/svg" version="1.1" viewBox="0 0 18 18">
  <!-- Generator: Adobe Illustrator 30.1.0, SVG Export Plug-In . SVG Version: 2.1.1 Build 136)  -->
  <path d="M9,2.2c.22,0,.44.11.56.34l1.42,2.82c.24.48.7.83,1.23.93l3.08.58c.48.09.68.68.35,1.04l-2.24,2.46c-.35.38-.51.89-.44,1.4l.44,3.32c.05.4-.26.71-.62.71-.09,0-.19-.02-.29-.07l-2.69-1.39c-.25-.13-.52-.19-.8-.19s-.55.06-.8.19l-2.69,1.39c-.09.05-.19.07-.29.07-.36,0-.67-.31-.62-.71l.44-3.32c.07-.51-.09-1.02-.44-1.4l-2.24-2.46c-.33-.36-.14-.95.35-1.04l3.08-.58c.53-.1.99-.44,1.23-.93l1.42-2.82c.12-.23.34-.34.56-.34M9,0C7.93,0,6.96.6,6.48,1.55l-1.32,2.62-2.85.53c-1.01.19-1.83.91-2.16,1.88-.33.97-.1,2.04.59,2.8l2.1,2.3-.41,3.11c-.11.81.14,1.62.67,2.23.54.61,1.31.97,2.13.97.45,0,.89-.11,1.29-.31l2.48-1.28,2.48,1.28c.4.21.85.31,1.29.31.81,0,1.59-.35,2.13-.97.54-.61.78-1.42.67-2.23l-.41-3.11,2.1-2.3c.69-.76.92-1.83.59-2.8-.33-.97-1.15-1.69-2.16-1.88l-2.85-.53-1.32-2.62C11.04.6,10.07,0,9,0h0Z"/>
</svg>