<?xml version="1.0" encoding="UTF-8"?>
<svg id="Layer_1" xmlns="http://www.w3.org/2000/svg" version="1.1" viewBox="0 0 18 18">
  <!-- Generator: Adobe Illustrator 30.1.0, SVG Export Plug-In . SVG Version: 2.1.1 Build 136)  -->
  <path d="M9,3.79c.17,0,.34.09.43.26l1.09,2.16c.19.37.54.63.94.71l2.36.44c.37.07.52.52.27.79l-1.72,1.88c-.27.29-.39.68-.34,1.07l.34,2.54c.04.3-.2.54-.47.54-.07,0-.15-.02-.22-.05l-2.06-1.06c-.19-.1-.4-.15-.61-.15s-.42.05-.61.15l-2.06,1.06c-.07.04-.15.05-.22.05-.27,0-.51-.24-.47-.54l.34-2.54c.05-.39-.07-.78-.34-1.07l-1.72-1.88c-.25-.28-.1-.73.27-.8l2.36-.44c.41-.08.76-.34.94-.71l1.09-2.16c.09-.18.26-.26.43-.26M9,0C7.38,0,5.92.9,5.19,2.35l-.54,1.08-1.16.22c-1.52.29-2.77,1.37-3.26,2.84-.49,1.47-.15,3.09.89,4.23l.95,1.04-.19,1.41c-.16,1.22.21,2.45,1.02,3.37.81.93,1.98,1.46,3.21,1.46.68,0,1.35-.16,1.95-.47l.94-.48.94.48c.6.31,1.28.47,1.95.47,1.23,0,2.4-.53,3.21-1.46.81-.92,1.18-2.15,1.02-3.37l-.19-1.41.95-1.04c1.04-1.14,1.38-2.77.89-4.23-.49-1.47-1.74-2.56-3.26-2.84l-1.16-.22-.54-1.08C12.08.9,10.62,0,9,0h0Z"/>
</svg>