<?xml version="1.0" encoding="UTF-8"?>
<svg id="Layer_1" xmlns="http://www.w3.org/2000/svg" version="1.1" viewBox="0 0 111 111">
  <!-- Generator: Adobe Illustrator 30.1.0, SVG Export Plug-In . SVG Version: 2.1.1 Build 136)  -->
  <circle id="Outer" cx="55.5" cy="55.5" r="46.74" fill="none" stroke="#000" stroke-width="17.52"/>
  <g>
    <g>
      <rect x="51.97" y="70.84" width="7" height="7"/>
      <path d="M57.58,72.23v4.22h-4.22v-4.22h4.22M60.36,69.46h-9.77v9.77h9.77v-9.77h0Z"/>
    </g>
    <g>
      <path d="M51.99,63.77l-.03-2.97c0-2.36.88-4.6,2.45-6.34l4.18-4.63c.91-1.01,1.42-2.32,1.42-3.67,0-1.73-1.42-3.14-3.17-3.14h-2.69c-1.75,0-3.17,1.41-3.17,3.14v1.39h-7.03v-1.39c0-5.59,4.58-10.14,10.2-10.14h2.69c5.62,0,10.2,4.55,10.2,10.14,0,3.09-1.14,6.06-3.22,8.36l-4.18,4.63c-.42.47-.65,1.04-.65,1.65l-.03,2.98h-6.97Z"/>
      <path d="M56.84,37.41c4.86,0,8.81,3.93,8.81,8.75,0,2.75-1.02,5.38-2.86,7.43l-4.18,4.63c-.65.72-1.01,1.61-1.01,2.57l-.02,1.6h-4.22v-1.6c0-2,.73-3.91,2.08-5.4l4.18-4.63c1.14-1.27,1.77-2.9,1.77-4.6,0-2.49-2.04-4.52-4.56-4.52h-2.69c-2.51,0-4.56,2.03-4.56,4.52h-4.26c0-4.83,3.95-8.75,8.81-8.75h2.69M56.84,34.63h-2.69c-6.39,0-11.59,5.17-11.59,11.53v2.77h9.81v-2.77c0-.96.8-1.75,1.78-1.75h2.69c.98,0,1.78.78,1.78,1.75,0,1.01-.38,1.99-1.06,2.74l-4.18,4.63c-1.8,1.99-2.8,4.56-2.81,7.24v1.63s.04,2.75.04,2.75h9.72l.03-2.75.02-1.6c0-.29.1-.52.29-.74l4.18-4.63c2.31-2.55,3.58-5.85,3.58-9.29,0-6.36-5.2-11.53-11.59-11.53h0Z"/>
    </g>
  </g>
</svg>