<?xml version="1.0" encoding="UTF-8"?>
<svg id="Layer_1" xmlns="http://www.w3.org/2000/svg" version="1.1" viewBox="0 0 111 111">
  <!-- Generator: Adobe Illustrator 30.1.0, SVG Export Plug-In . SVG Version: 2.1.1 Build 136)  -->
  <circle id="Outer" cx="55.5" cy="55.5" r="51.65" fill="none" stroke="#000" stroke-width="7.7"/>
  <g>
    <g>
      <rect x="51.99" y="74.56" width="6.95" height="6.95"/>
      <path d="M58.42,75.08v5.91h-5.91v-5.91h5.91M59.46,74.04h-7.99v7.99h7.99v-7.99h0Z"/>
    </g>
    <g>
      <path d="M52,66.8l-.02-2.75c.01-2.93,1.1-5.74,3.06-7.91l5.85-6.48c1.52-1.68,2.35-3.84,2.35-6.1,0-3.21-2.63-5.81-5.86-5.81h-3.76c-3.23,0-5.86,2.61-5.86,5.81v.52h-7v-.52c0-7.04,5.77-12.77,12.86-12.77h3.76c7.09,0,12.86,5.73,12.86,12.77,0,3.97-1.47,7.79-4.14,10.75l-5.85,6.49c-.83.92-1.28,2.05-1.28,3.25l-.03,2.75h-6.94Z"/>
      <path d="M57.38,31.31c6.8,0,12.34,5.5,12.34,12.25,0,3.84-1.42,7.54-4.01,10.4l-5.85,6.49c-.91,1-1.41,2.25-1.41,3.6l-.02,2.23h-5.91l-.02-2.23c.01-2.8,1.04-5.47,2.93-7.55l5.85-6.48c1.6-1.77,2.48-4.06,2.48-6.45,0-3.49-2.86-6.33-6.38-6.33h-3.76c-3.52,0-6.38,2.84-6.38,6.33h-5.96c0-6.76,5.54-12.25,12.34-12.25h3.76M57.38,30.27h-3.76c-7.38,0-13.38,5.96-13.38,13.29v1.04h8.04v-1.04c0-2.92,2.39-5.29,5.34-5.29h3.76c2.94,0,5.34,2.37,5.34,5.29,0,2.12-.79,4.17-2.22,5.75l-5.85,6.48c-2.05,2.27-3.18,5.19-3.2,8.25l.02,2.25v1.03h7.98v-1.03s.03-2.23.03-2.23c0-1.08.4-2.09,1.14-2.91l5.85-6.49c2.76-3.05,4.27-6.99,4.27-11.09,0-7.33-6-13.29-13.38-13.29h0Z"/>
    </g>
  </g>
</svg>