<?xml version="1.0" encoding="UTF-8"?>
<svg id="Layer_1" xmlns="http://www.w3.org/2000/svg" version="1.1" viewBox="0 0 111 111">
  <!-- Generator: Adobe Illustrator 30.1.0, SVG Export Plug-In . SVG Version: 2.1.1 Build 136)  -->
  <circle id="Outer" cx="55.5" cy="55.5" r="50.68" fill="none" stroke="#000" stroke-width="9.64"/>
  <g>
    <g>
      <rect x="51.99" y="73.83" width="6.95" height="6.95"/>
      <path d="M58.25,74.52v5.56h-5.56v-5.56h5.56M59.63,73.13h-8.34v8.34h8.34v-8.34h0Z"/>
    </g>
    <g>
      <path d="M52,66.16l-.02-2.79c.01-2.81,1.05-5.5,2.93-7.58l5.51-6.1c1.39-1.54,2.16-3.53,2.16-5.6,0-2.9-2.38-5.27-5.31-5.27h-3.54c-2.93,0-5.31,2.36-5.31,5.27v.69h-7v-.69c0-6.74,5.52-12.22,12.31-12.22h3.54c6.79,0,12.31,5.48,12.31,12.22,0,3.79-1.4,7.43-3.95,10.25l-5.51,6.1c-.75.83-1.15,1.84-1.15,2.92l-.03,2.79h-6.93Z"/>
      <path d="M57.27,32.56c6.4,0,11.61,5.17,11.61,11.53,0,3.62-1.34,7.09-3.77,9.78l-5.51,6.1c-.85.94-1.33,2.12-1.33,3.39l-.02,2.1h-5.56l-.02-2.1c0-2.64.98-5.15,2.75-7.11l5.51-6.1c1.51-1.67,2.34-3.82,2.34-6.07,0-3.29-2.69-5.96-6-5.96h-3.54c-3.31,0-6,2.67-6,5.96h-5.61c0-6.36,5.21-11.53,11.61-11.53h3.54M57.27,31.17h-3.54c-7.17,0-13,5.79-13,12.92v1.39h8.38v-1.39c0-2.52,2.07-4.57,4.61-4.57h3.54c2.54,0,4.61,2.05,4.61,4.57,0,1.9-.7,3.72-1.98,5.14l-5.51,6.1c-2,2.21-3.1,5.06-3.11,8.03l.02,2.12v1.38h8.32v-1.37s.04-2.1.04-2.1c0-.92.34-1.77.97-2.47l5.51-6.1c2.66-2.95,4.13-6.75,4.13-10.71,0-7.12-5.83-12.92-13-12.92h0Z"/>
    </g>
  </g>
</svg>