<?xml version="1.0" encoding="UTF-8"?>
<svg id="Layer_1" xmlns="http://www.w3.org/2000/svg" version="1.1" viewBox="0 0 111 111">
  <!-- Generator: Adobe Illustrator 30.1.0, SVG Export Plug-In . SVG Version: 2.1.1 Build 136)  -->
  <circle id="Outer" cx="55.5" cy="55.5" r="48.72" fill="none" stroke="#000" stroke-width="13.56"/>
  <g>
    <g>
      <rect x="51.99" y="72.35" width="6.96" height="6.96"/>
      <path d="M57.91,73.39v4.88h-4.88v-4.88h4.88M59.99,71.31h-9.04v9.04h9.04v-9.04h0Z"/>
    </g>
    <g>
      <path d="M52,64.93l-.02-2.88c0-2.58.96-5.04,2.69-6.94l4.83-5.35c1.15-1.27,1.78-2.92,1.78-4.62,0-2.31-1.89-4.19-4.22-4.19h-3.1c-2.33,0-4.22,1.88-4.22,4.19v1.04h-7v-1.04c0-6.15,5.04-11.16,11.23-11.16h3.1c6.19,0,11.23,5,11.23,11.16,0,3.43-1.27,6.73-3.58,9.28l-4.83,5.35c-.58.65-.9,1.44-.9,2.28l-.03,2.88h-6.94Z"/>
      <path d="M57.05,35.02c5.62,0,10.19,4.54,10.19,10.12,0,3.17-1.18,6.22-3.31,8.58l-4.83,5.35c-.75.83-1.16,1.86-1.17,2.97l-.02,1.84h-4.88l-.02-1.84c0-2.31.86-4.52,2.42-6.24l4.83-5.35c1.32-1.47,2.05-3.36,2.05-5.32,0-2.88-2.36-5.23-5.27-5.23h-3.1c-2.9,0-5.27,2.35-5.27,5.23h-4.92c0-5.58,4.57-10.12,10.19-10.12h3.1M57.05,32.94h-3.1c-6.76,0-12.27,5.47-12.27,12.2v2.08h9.08v-2.08c0-1.74,1.43-3.15,3.18-3.15h3.1c1.76,0,3.18,1.41,3.18,3.15,0,1.45-.54,2.84-1.51,3.93l-4.83,5.35c-1.89,2.09-2.94,4.8-2.95,7.62l.02,1.87.02,2.06h9l.02-2.06.02-1.84c0-.6.21-1.14.63-1.6l4.83-5.36c2.48-2.75,3.84-6.29,3.84-9.98,0-6.73-5.5-12.2-12.27-12.2h0Z"/>
    </g>
  </g>
</svg>