<?xml version="1.0" encoding="UTF-8"?>
<svg id="Layer_1" xmlns="http://www.w3.org/2000/svg" version="1.1" viewBox="0 0 111 111">
  <!-- Generator: Adobe Illustrator 30.1.0, SVG Export Plug-In . SVG Version: 2.1.1 Build 136)  -->
  <circle id="Outer" cx="55.5" cy="55.5" r="44.78" fill="none" stroke="#000" stroke-width="21.44"/>
  <g>
    <g>
      <rect x="51.94" y="69.33" width="7.07" height="7.07"/>
      <path d="M57.27,71.07v3.6h-3.6v-3.6h3.6M60.74,67.6h-10.54v10.54h10.54v-10.54h0Z"/>
    </g>
    <g>
      <path d="M51.96,62.73l-.03-3.08c0-2.15.8-4.2,2.23-5.78l3.57-3.95c.69-.76,1.07-1.75,1.07-2.77,0-1.17-.97-2.13-2.15-2.13h-2.29c-1.19,0-2.15.95-2.15,2.13v1.73h-7.1v-1.73c0-5.08,4.15-9.2,9.26-9.2h2.29c5.1,0,9.26,4.13,9.26,9.2,0,2.77-1.03,5.44-2.89,7.5l-3.57,3.95c-.27.3-.41.65-.41,1.04l-.03,3.09h-7.04Z"/>
      <path d="M56.65,39.67c4.15,0,7.52,3.35,7.52,7.47,0,2.34-.87,4.59-2.44,6.34l-3.57,3.95c-.55.61-.86,1.37-.86,2.19v1.36h-3.62v-1.36c0-1.71.62-3.33,1.77-4.61l3.57-3.95c.98-1.08,1.51-2.48,1.51-3.93,0-2.13-1.74-3.86-3.89-3.86h-2.29c-2.14,0-3.89,1.73-3.89,3.86h-3.63c0-4.12,3.37-7.47,7.52-7.47h2.29M56.65,36.2h-2.29c-6.06,0-10.99,4.91-10.99,10.94v3.47h10.57v-3.47c0-.21.19-.39.42-.39h2.29c.23,0,.42.18.42.39,0,.59-.22,1.16-.62,1.61l-3.57,3.95c-1.72,1.9-2.67,4.36-2.68,6.92v1.41s.04,3.44.04,3.44h10.47l.03-3.43v-1.3s3.55-3.92,3.55-3.92c2.15-2.38,3.34-5.46,3.34-8.66,0-6.03-4.93-10.94-10.99-10.94h0Z"/>
    </g>
  </g>
</svg>