<?xml version="1.0" encoding="UTF-8"?>
<svg id="Layer_1" xmlns="http://www.w3.org/2000/svg" version="1.1" viewBox="0 0 111 111">
  <!-- Generator: Adobe Illustrator 30.1.0, SVG Export Plug-In . SVG Version: 2.1.1 Build 136)  -->
  <circle id="Outer" cx="55.5" cy="55.5" r="43.81" fill="none" stroke="#000" stroke-width="23.38"/>
  <g>
    <g>
      <rect x="51.91" y="68.58" width="7.13" height="7.13"/>
      <path d="M57.13,70.49v3.31h-3.31v-3.31h3.31M60.94,66.67h-10.94v10.94h10.94v-10.94h0Z"/>
    </g>
    <g>
      <path d="M51.94,62.25l-.03-3.14c0-2.06.76-4.01,2.13-5.53l3.28-3.63c.58-.64.9-1.47.9-2.33,0-.9-.75-1.64-1.66-1.64h-2.11c-.92,0-1.66.74-1.66,1.64v1.91h-7.15v-1.91c0-4.84,3.96-8.77,8.82-8.77h2.11c4.86,0,8.82,3.93,8.82,8.77,0,2.62-.97,5.15-2.74,7.1l-3.28,3.63c-.2.22-.3.47-.3.75l-.03,3.15h-7.09Z"/>
      <path d="M56.55,40.76c3.81,0,6.91,3.08,6.91,6.86,0,2.15-.8,4.22-2.24,5.82l-3.28,3.63c-.51.56-.79,1.26-.79,2.02v1.25h-3.32v-1.25c0-1.57.57-3.06,1.63-4.23l3.28-3.63c.9-.99,1.39-2.28,1.39-3.61,0-1.96-1.6-3.55-3.57-3.55h-2.11c-1.97,0-3.57,1.59-3.57,3.55h-3.34c0-3.78,3.1-6.86,6.91-6.86h2.11M56.55,36.94h-2.11c-5.91,0-10.73,4.79-10.73,10.68v3.82h9.69l-.78.87c-1.68,1.86-2.61,4.27-2.62,6.77v1.3s.04,3.78.04,3.78h10.87l.04-3.78v-.96s3.1-3.42,3.1-3.42c2.08-2.3,3.23-5.28,3.23-8.38,0-5.89-4.81-10.68-10.73-10.68h0ZM54.69,47.89h1.59c-.05.29-.18.56-.38.78l-1.21,1.34v-2.12h0Z"/>
    </g>
  </g>
</svg>