<?xml version="1.0" encoding="UTF-8"?>
<svg id="Layer_1" xmlns="http://www.w3.org/2000/svg" version="1.1" viewBox="0 0 12 12">
  <!-- Generator: Adobe Illustrator 30.1.0, SVG Export Plug-In . SVG Version: 2.1.1 Build 136)  -->
  <path d="M6,.83c.17,0,.34.09.42.26l1.08,2.15c.19.37.53.63.94.7l2.34.44c.37.07.51.51.26.79l-1.7,1.87c-.26.29-.39.68-.33,1.07l.33,2.52c.04.3-.2.54-.47.54-.07,0-.15-.02-.22-.05l-2.05-1.05c-.19-.1-.4-.15-.6-.15s-.41.05-.6.15l-2.05,1.05c-.07.04-.15.05-.22.05-.27,0-.51-.24-.47-.54l.33-2.52c.05-.39-.07-.78-.33-1.06l-1.7-1.87c-.25-.28-.1-.72.26-.79l2.34-.44c.4-.08.75-.34.94-.7l1.08-2.15c.09-.17.26-.26.42-.26M6,0C5.5,0,5.06.28,4.83.72l-1.08,2.15c-.07.14-.2.23-.35.26l-2.34.44c-.47.09-.85.42-1,.87-.15.45-.05.95.27,1.3l1.7,1.87c.1.11.14.25.12.4l-.33,2.52c-.05.37.06.75.31,1.03.25.28.61.45.98.45.21,0,.41-.05.6-.15l2.05-1.05c.07-.04.15-.05.22-.05s.15.02.22.05l2.05,1.05c.19.1.39.15.6.15.38,0,.73-.16.98-.45.25-.28.36-.66.31-1.03l-.33-2.52c-.02-.14.03-.29.12-.4l1.7-1.87c.32-.35.42-.85.27-1.3-.15-.45-.53-.78-1-.87l-2.34-.44c-.15-.03-.28-.13-.35-.26l-1.08-2.15C6.94.28,6.5,0,6,0h0Z"/>
</svg>