<?xml version="1.0" encoding="UTF-8"?>
<svg id="Layer_1" xmlns="http://www.w3.org/2000/svg" version="1.1" viewBox="0 0 12 12">
  <!-- Generator: Adobe Illustrator 30.1.0, SVG Export Plug-In . SVG Version: 2.1.1 Build 136)  -->
  <path d="M6,1.89c.13,0,.27.07.34.21l.86,1.71c.15.29.42.5.74.56l1.86.35c.29.05.41.41.21.63l-1.35,1.49c-.21.23-.31.54-.27.85l.26,2c.03.24-.16.43-.37.43-.06,0-.12-.01-.17-.04l-1.63-.84c-.15-.08-.32-.12-.48-.12-.16,0-.33.04-.48.12l-1.63.84c-.06.03-.12.04-.17.04-.21,0-.41-.19-.37-.43l.26-2c.04-.31-.06-.62-.27-.85l-1.35-1.49c-.2-.22-.08-.57.21-.63l1.86-.35c.32-.06.6-.27.74-.56l.86-1.71c.07-.14.2-.21.34-.21M6,0C5.14,0,4.36.48,3.97,1.25l-.67,1.33-1.45.27c-.81.15-1.47.73-1.74,1.51-.26.78-.08,1.64.48,2.25l1.09,1.2-.21,1.62c-.09.65.11,1.3.54,1.79.43.49,1.05.78,1.71.78.36,0,.72-.09,1.04-.25l1.24-.64,1.24.64c.32.17.68.25,1.04.25.65,0,1.28-.28,1.71-.78.43-.49.63-1.15.54-1.79l-.21-1.62,1.09-1.2c.55-.61.74-1.47.47-2.25-.26-.78-.93-1.36-1.73-1.51l-1.45-.27-.67-1.33C7.64.48,6.86,0,6,0h0Z"/>
</svg>