<?xml version="1.0" encoding="UTF-8"?>
<svg id="Layer_1" xmlns="http://www.w3.org/2000/svg" version="1.1" viewBox="0 0 54 54">
  <!-- Generator: Adobe Illustrator 30.1.0, SVG Export Plug-In . SVG Version: 2.1.1 Build 136)  -->
  <path d="M27,3.75c.76,0,1.51.39,1.91,1.18l4.86,9.66c.83,1.66,2.39,2.83,4.21,3.17l10.52,1.97c1.65.31,2.31,2.31,1.18,3.55l-7.67,8.41c-1.18,1.3-1.73,3.05-1.5,4.8l1.5,11.35c.18,1.35-.9,2.43-2.12,2.43-.32,0-.66-.08-.98-.24l-9.21-4.74c-.85-.44-1.79-.66-2.72-.66s-1.87.22-2.72.66l-9.21,4.74c-.32.17-.65.24-.98.24-1.22,0-2.3-1.07-2.12-2.43l1.5-11.35c.23-1.74-.32-3.49-1.5-4.79l-7.67-8.42c-1.13-1.24-.46-3.24,1.18-3.55l10.52-1.97c1.82-.34,3.38-1.51,4.21-3.17l4.87-9.66c.4-.78,1.15-1.18,1.91-1.18M27,0C24.77,0,22.75,1.24,21.75,3.24l-4.87,9.66c-.31.61-.89,1.05-1.56,1.17l-10.52,1.97c-2.09.39-3.82,1.89-4.49,3.92-.68,2.02-.21,4.26,1.23,5.84l7.67,8.42c.44.48.64,1.13.56,1.78l-1.5,11.35c-.22,1.68.29,3.38,1.4,4.65,1.12,1.28,2.74,2.01,4.43,2.01.93,0,1.86-.23,2.69-.66l9.21-4.74c.31-.16.66-.24,1-.24s.69.08,1,.24l9.21,4.74c.83.43,1.76.66,2.69.66,1.69,0,3.31-.73,4.43-2.01,1.11-1.27,1.62-2.96,1.4-4.65l-1.5-11.35c-.09-.65.12-1.3.56-1.78l7.67-8.41c1.44-1.58,1.91-3.81,1.23-5.84-.68-2.02-2.4-3.52-4.49-3.91l-10.52-1.97c-.67-.13-1.25-.56-1.56-1.17l-4.86-9.66C31.25,1.24,29.23,0,27,0h0Z"/>
</svg>