<?xml version="1.0" encoding="UTF-8"?>
<svg id="Layer_1" xmlns="http://www.w3.org/2000/svg" version="1.1" viewBox="0 0 54 54">
  <!-- Generator: Adobe Illustrator 30.1.0, SVG Export Plug-In . SVG Version: 2.1.1 Build 136)  -->
  <path d="M27,11.37c.51,0,1.02.26,1.28.79l3.27,6.49c.56,1.11,1.61,1.9,2.83,2.13l7.07,1.33c1.11.21,1.55,1.55.8,2.38l-5.15,5.65c-.8.87-1.16,2.05-1.01,3.22l1.01,7.62c.12.91-.6,1.63-1.42,1.63-.22,0-.44-.05-.66-.16l-6.19-3.19c-.57-.3-1.2-.44-1.83-.44s-1.25.15-1.83.44l-6.19,3.19c-.22.11-.44.16-.66.16-.82,0-1.54-.72-1.42-1.63l1.01-7.63c.15-1.17-.22-2.35-1.01-3.22l-5.15-5.65c-.76-.83-.31-2.18.8-2.39l7.07-1.33c1.22-.23,2.27-1.02,2.83-2.13l3.27-6.49c.27-.53.77-.79,1.28-.79M27,0C22.13,0,17.75,2.7,15.56,7.05l-1.63,3.23-3.48.65c-4.56.86-8.31,4.12-9.79,8.52-1.48,4.4-.45,9.27,2.68,12.7l2.85,3.12-.56,4.23c-.48,3.66.63,7.35,3.06,10.12,2.44,2.78,5.95,4.37,9.64,4.37,2.03,0,4.05-.49,5.86-1.42l2.81-1.45,2.81,1.45c1.81.93,3.84,1.42,5.86,1.42,3.69,0,7.2-1.59,9.63-4.37,2.43-2.77,3.55-6.46,3.06-10.12l-.56-4.23,2.85-3.12c3.13-3.43,4.15-8.3,2.68-12.7-1.47-4.4-5.22-7.67-9.79-8.52l-3.48-.65-1.63-3.23C36.25,2.7,31.87,0,27,0h0Z"/>
</svg>