<?xml version="1.0" encoding="UTF-8"?>
<svg id="Layer_1" xmlns="http://www.w3.org/2000/svg" version="1.1" viewBox="0 0 54 54">
  <!-- Generator: Adobe Illustrator 30.1.0, SVG Export Plug-In . SVG Version: 2.1.1 Build 136)  -->
  <path d="M27,6.6c.66,0,1.33.34,1.67,1.03l4.27,8.47c.73,1.45,2.1,2.48,3.7,2.78l9.23,1.73c1.44.27,2.03,2.03,1.04,3.11l-6.73,7.38c-1.04,1.14-1.52,2.68-1.32,4.21l1.31,9.95c.16,1.19-.79,2.13-1.86,2.13-.28,0-.57-.07-.86-.21l-8.08-4.16c-.75-.39-1.57-.58-2.39-.58-.82,0-1.64.19-2.39.58l-8.08,4.16c-.28.15-.57.21-.86.21-1.07,0-2.01-.94-1.86-2.13l1.31-9.96c.2-1.53-.28-3.07-1.32-4.2l-6.73-7.38c-.99-1.09-.41-2.84,1.04-3.11l9.23-1.73c1.6-.3,2.96-1.33,3.69-2.78l4.27-8.47c.35-.69,1.01-1.03,1.67-1.03M27,0C23.78,0,20.88,1.79,19.43,4.66l-3.96,7.86-8.56,1.6c-3.02.57-5.5,2.73-6.47,5.64-.98,2.91-.3,6.13,1.77,8.41l6.3,6.91-1.23,9.33c-.32,2.42.42,4.86,2.02,6.69,1.61,1.84,3.94,2.9,6.38,2.9,1.34,0,2.68-.33,3.88-.94l7.44-3.83,7.44,3.83c1.2.62,2.54.94,3.88.94,2.44,0,4.76-1.06,6.38-2.9,1.61-1.83,2.34-4.27,2.02-6.69l-1.23-9.33,6.3-6.91c2.07-2.27,2.75-5.49,1.77-8.4-.98-2.91-3.46-5.07-6.47-5.64l-8.56-1.6-3.96-7.86C33.12,1.79,30.22,0,27,0h0Z"/>
</svg>