<?xml version="1.0" encoding="UTF-8"?>
<svg id="Layer_1" xmlns="http://www.w3.org/2000/svg" version="1.1" viewBox="0 0 54 54">
  <!-- Generator: Adobe Illustrator 30.1.0, SVG Export Plug-In . SVG Version: 2.1.1 Build 136)  -->
  <path d="M27,4.69c.73,0,1.45.38,1.83,1.13l4.67,9.26c.8,1.59,2.3,2.71,4.04,3.04l10.1,1.89c1.58.3,2.22,2.21,1.14,3.4l-7.36,8.07c-1.14,1.25-1.66,2.93-1.44,4.6l1.44,10.88c.17,1.3-.86,2.33-2.03,2.33-.31,0-.63-.07-.94-.23l-8.83-4.55c-.82-.42-1.71-.63-2.61-.63-.9,0-1.79.21-2.61.63l-8.83,4.55c-.31.16-.63.23-.94.23-1.17,0-2.2-1.03-2.03-2.33l1.44-10.89c.22-1.67-.31-3.35-1.44-4.6l-7.36-8.07c-1.08-1.19-.44-3.11,1.14-3.41l10.1-1.89c1.75-.33,3.24-1.45,4.04-3.04l4.67-9.27c.38-.75,1.1-1.13,1.83-1.13M27,0C24.44,0,22.13,1.42,20.98,3.71l-4.67,9.27c-.14.28-.41.48-.71.54l-10.1,1.89c-2.4.45-4.37,2.17-5.15,4.49-.78,2.32-.24,4.88,1.41,6.69l7.36,8.07c.2.22.3.52.26.82l-1.44,10.89c-.25,1.93.33,3.87,1.61,5.32,1.29,1.47,3.13,2.31,5.07,2.31,1.06,0,2.13-.26,3.08-.75l8.83-4.55c.14-.07.3-.11.46-.11.16,0,.32.04.46.11l8.83,4.55c.95.49,2.02.75,3.08.75,1.94,0,3.79-.84,5.07-2.31,1.28-1.46,1.86-3.4,1.61-5.32l-1.44-10.88c-.04-.3.05-.6.26-.83l7.36-8.07c1.65-1.81,2.19-4.37,1.41-6.69-.78-2.32-2.75-4.04-5.15-4.49l-10.1-1.89c-.31-.06-.57-.26-.72-.54l-4.67-9.26C31.87,1.42,29.56,0,27,0h0Z"/>
</svg>