<?xml version="1.0" encoding="UTF-8"?>
<svg id="Layer_1" xmlns="http://www.w3.org/2000/svg" version="1.1" viewBox="0 0 66 66">
  <!-- Generator: Adobe Illustrator 30.1.0, SVG Export Plug-In . SVG Version: 2.1.1 Build 136)  -->
  <path d="M33,4.58c.92,0,1.85.48,2.33,1.44l5.95,11.8c1.02,2.03,2.92,3.46,5.15,3.88l12.86,2.41c2.01.38,2.83,2.82,1.45,4.34l-9.37,10.28c-1.45,1.59-2.12,3.73-1.84,5.86l1.83,13.87c.22,1.65-1.1,2.96-2.59,2.96-.39,0-.8-.09-1.19-.29l-11.25-5.79c-1.04-.54-2.18-.81-3.32-.81-1.14,0-2.28.27-3.32.81l-11.25,5.79c-.39.2-.8.29-1.19.29-1.49,0-2.81-1.31-2.59-2.96l1.83-13.87c.28-2.13-.39-4.27-1.84-5.86l-9.37-10.29c-1.38-1.52-.56-3.96,1.45-4.34l12.86-2.41c2.22-.42,4.13-1.85,5.15-3.87l5.95-11.8c.48-.96,1.41-1.44,2.33-1.44M33,0C30.27,0,27.81,1.52,26.58,3.96l-5.95,11.8c-.37.74-1.09,1.28-1.9,1.43l-12.86,2.41c-2.56.48-4.67,2.31-5.49,4.79-.83,2.47-.25,5.21,1.5,7.14l9.37,10.29c.54.59.78,1.38.68,2.17l-1.83,13.87c-.27,2.06.35,4.13,1.71,5.68,1.37,1.56,3.34,2.46,5.41,2.46,1.13,0,2.27-.28,3.29-.8l11.25-5.79c.38-.19.8-.3,1.23-.3.42,0,.85.1,1.23.3l11.25,5.79c1.02.52,2.16.8,3.29.8,2.07,0,4.04-.9,5.41-2.46,1.36-1.55,1.99-3.62,1.71-5.68l-1.83-13.87c-.1-.79.14-1.59.68-2.18l9.37-10.28c1.76-1.93,2.33-4.66,1.5-7.14-.83-2.47-2.93-4.3-5.49-4.78l-12.86-2.41c-.82-.15-1.53-.69-1.9-1.43l-5.95-11.8C38.19,1.52,35.73,0,33,0h0Z"/>
</svg>