<?xml version="1.0" encoding="UTF-8"?>
<svg id="Layer_1" xmlns="http://www.w3.org/2000/svg" version="1.1" viewBox="0 0 66 66">
  <!-- Generator: Adobe Illustrator 30.1.0, SVG Export Plug-In . SVG Version: 2.1.1 Build 136)  -->
  <path d="M33,12.75c.66,0,1.32.34,1.66,1.02l4.24,8.41c.73,1.44,2.08,2.46,3.67,2.76l9.17,1.72c1.43.27,2.01,2.01,1.03,3.09l-6.68,7.33c-1.03,1.13-1.51,2.66-1.31,4.18l1.3,9.88c.16,1.18-.78,2.11-1.84,2.11-.28,0-.57-.07-.85-.21l-8.02-4.13c-.74-.38-1.56-.57-2.37-.57s-1.63.19-2.37.57l-8.02,4.13c-.28.14-.57.21-.85.21-1.06,0-2-.93-1.84-2.11l1.3-9.89c.2-1.52-.28-3.04-1.31-4.17l-6.68-7.33c-.98-1.08-.4-2.82,1.03-3.09l9.17-1.72c1.58-.3,2.94-1.32,3.67-2.76l4.24-8.41c.34-.68,1-1.02,1.66-1.02M33,0C27.45,0,22.45,3.08,19.95,8.04l-2.55,5.07-5.48,1.03c-5.2.98-9.48,4.7-11.16,9.72-1.68,5.02-.51,10.57,3.06,14.49l4.31,4.73-.84,6.4c-.55,4.17.72,8.38,3.49,11.54,2.78,3.17,6.78,4.99,10.99,4.99,2.31,0,4.62-.56,6.69-1.62l4.55-2.34,4.55,2.34c2.06,1.06,4.38,1.62,6.69,1.62,4.2,0,8.21-1.82,10.99-4.99,2.77-3.16,4.04-7.37,3.49-11.54l-.84-6.4,4.31-4.73c3.57-3.91,4.74-9.46,3.05-14.48-1.68-5.02-5.96-8.74-11.16-9.72l-5.48-1.03-2.55-5.07C43.55,3.08,38.55,0,33,0h0Z"/>
</svg>