<?xml version="1.0" encoding="UTF-8"?>
<svg id="Layer_1" xmlns="http://www.w3.org/2000/svg" version="1.1" viewBox="0 0 66 66">
  <!-- Generator: Adobe Illustrator 30.1.0, SVG Export Plug-In . SVG Version: 2.1.1 Build 136)  -->
  <path d="M33,10.42c.73,0,1.47.38,1.85,1.14l4.72,9.38c.81,1.61,2.32,2.75,4.09,3.08l10.22,1.92c1.6.3,2.25,2.24,1.15,3.45l-7.45,8.17c-1.15,1.26-1.68,2.97-1.46,4.66l1.45,11.02c.17,1.31-.87,2.36-2.06,2.36-.31,0-.64-.07-.95-.23l-8.94-4.6c-.83-.43-1.73-.64-2.64-.64s-1.81.21-2.64.64l-8.94,4.6c-.31.16-.63.23-.95.23-1.18,0-2.23-1.04-2.06-2.36l1.45-11.02c.22-1.69-.31-3.39-1.46-4.65l-7.45-8.17c-1.1-1.2-.45-3.15,1.15-3.45l10.22-1.92c1.77-.33,3.28-1.47,4.09-3.08l4.73-9.38c.38-.76,1.12-1.14,1.85-1.14M33,0h0c-4.74,0-9.02,2.63-11.15,6.87l-3.69,7.33-7.96,1.49c-4.45.83-8.1,4.02-9.54,8.31-1.44,4.29-.44,9.04,2.61,12.39l6,6.58-1.17,8.89c-.47,3.57.62,7.17,2.99,9.87,2.38,2.71,5.8,4.27,9.4,4.27,1.97,0,3.95-.48,5.72-1.39l6.81-3.51,6.81,3.51c1.77.91,3.74,1.39,5.72,1.39,3.59,0,7.02-1.55,9.4-4.27,2.37-2.7,3.46-6.3,2.99-9.87l-1.17-8.89,6-6.58c3.05-3.35,4.05-8.09,2.61-12.39-1.44-4.29-5.09-7.48-9.54-8.31l-7.96-1.49-3.69-7.33C42.02,2.63,37.74,0,33,0h0Z"/>
</svg>