<?xml version="1.0" encoding="UTF-8"?>
<svg id="Layer_1" xmlns="http://www.w3.org/2000/svg" version="1.1" viewBox="0 0 26 26">
  <!-- Generator: Adobe Illustrator 30.1.0, SVG Export Plug-In . SVG Version: 2.1.1 Build 136)  -->
  <circle id="Outer" cx="13" cy="13" r="10.95" fill="none" stroke="#000" stroke-width="4.1"/>
  <g>
    <g>
      <rect x="12.17" y="16.59" width="1.64" height="1.64"/>
      <path d="M13.49,16.92v.99h-.99v-.99h.99M14.14,16.27h-2.29v2.29h2.29v-2.29h0Z"/>
    </g>
    <g>
      <path d="M12.18,14.94v-.7c0-.55.2-1.08.57-1.49l.98-1.08c.21-.24.33-.54.33-.86,0-.41-.33-.73-.74-.73h-.63c-.41,0-.74.33-.74.73v.33h-1.65v-.33c0-1.31,1.07-2.38,2.39-2.38h.63c1.32,0,2.39,1.07,2.39,2.38,0,.72-.27,1.42-.75,1.96l-.98,1.09c-.1.11-.15.24-.15.39v.7h-1.64Z"/>
      <path d="M13.31,8.76c1.14,0,2.06.92,2.06,2.05,0,.64-.24,1.26-.67,1.74l-.98,1.09c-.15.17-.24.38-.24.6v.37h-.99v-.37c0-.47.17-.92.49-1.26l.98-1.08c.27-.3.42-.68.42-1.08,0-.58-.48-1.06-1.07-1.06h-.63c-.59,0-1.07.48-1.07,1.06h-1c0-1.13.93-2.05,2.06-2.05h.63M13.31,8.11h-.63c-1.5,0-2.71,1.21-2.71,2.7v.65h2.3v-.65c0-.23.19-.41.42-.41h.63c.23,0,.42.18.42.41,0,.24-.09.47-.25.64l-.98,1.08c-.42.47-.65,1.07-.66,1.7v.38s0,.64,0,.64h2.28v-.64s.01-.37.01-.37c0-.07.02-.12.07-.17l.98-1.09c.54-.6.84-1.37.84-2.18,0-1.49-1.22-2.7-2.71-2.7h0Z"/>
    </g>
  </g>
</svg>