<?xml version="1.0" encoding="UTF-8"?>
<svg id="Layer_1" xmlns="http://www.w3.org/2000/svg" version="1.1" viewBox="0 0 26 26">
  <!-- Generator: Adobe Illustrator 30.1.0, SVG Export Plug-In . SVG Version: 2.1.1 Build 136)  -->
  <circle id="Outer" cx="13" cy="13" r="12.1" fill="none" stroke="#000" stroke-width="1.8"/>
  <g>
    <g>
      <rect x="12.18" y="17.46" width="1.63" height="1.63"/>
      <path d="M13.68,17.59v1.38h-1.38v-1.38h1.38M13.93,17.34h-1.87v1.87h1.87v-1.87h0Z"/>
    </g>
    <g>
      <path d="M12.18,15.65v-.64c0-.69.25-1.34.71-1.85l1.37-1.52c.36-.39.55-.9.55-1.43,0-.75-.62-1.36-1.37-1.36h-.88c-.76,0-1.37.61-1.37,1.36v.12h-1.64v-.12c0-1.65,1.35-2.99,3.01-2.99h.88c1.66,0,3.01,1.34,3.01,2.99,0,.93-.34,1.82-.97,2.52l-1.37,1.52c-.2.22-.3.48-.3.76v.65h-1.63Z"/>
      <path d="M13.44,7.33c1.59,0,2.89,1.29,2.89,2.87,0,.9-.33,1.77-.94,2.44l-1.37,1.52c-.21.23-.33.53-.33.84v.52h-1.39v-.52c0-.66.24-1.28.68-1.77l1.37-1.52c.38-.42.58-.95.58-1.51,0-.82-.67-1.48-1.49-1.48h-.88c-.82,0-1.49.67-1.49,1.48h-1.4c0-1.58,1.3-2.87,2.89-2.87h.88M13.44,7.09h-.88c-1.73,0-3.13,1.4-3.13,3.11v.24h1.88v-.24c0-.68.56-1.24,1.25-1.24h.88c.69,0,1.25.56,1.25,1.24,0,.5-.18.98-.52,1.35l-1.37,1.52c-.48.53-.75,1.22-.75,1.93v.53s0,.24,0,.24h1.87v-.24s0-.52,0-.52c0-.25.09-.49.27-.68l1.37-1.52c.65-.72,1-1.64,1-2.6,0-1.72-1.41-3.11-3.13-3.11h0Z"/>
    </g>
  </g>
</svg>