<?xml version="1.0" encoding="UTF-8"?>
<svg id="Layer_1" xmlns="http://www.w3.org/2000/svg" version="1.1" viewBox="0 0 26 26">
  <!-- Generator: Adobe Illustrator 30.1.0, SVG Export Plug-In . SVG Version: 2.1.1 Build 136)  -->
  <circle id="Outer" cx="13" cy="13" r="10.49" fill="none" stroke="#000" stroke-width="5.02"/>
  <g>
    <g>
      <rect x="12.17" y="16.24" width="1.66" height="1.66"/>
      <path d="M13.42,16.65v.84h-.84v-.84h.84M14.23,15.83h-2.47v2.47h2.47v-2.47h0Z"/>
    </g>
    <g>
      <path d="M12.17,14.69v-.72c0-.5.18-.98.52-1.35l.83-.93c.16-.18.25-.41.25-.65,0-.27-.23-.5-.5-.5h-.54c-.28,0-.5.22-.5.5v.41h-1.66v-.41c0-1.19.97-2.16,2.17-2.16h.54c1.2,0,2.17.97,2.17,2.16,0,.65-.24,1.27-.68,1.76l-.84.93c-.06.07-.1.15-.1.24v.72h-1.66Z"/>
      <path d="M13.27,9.29c.97,0,1.76.79,1.76,1.75,0,.55-.2,1.08-.57,1.48l-.84.93c-.13.14-.2.32-.2.51v.32h-.85v-.32c0-.4.15-.78.42-1.08l.84-.93c.23-.25.35-.58.35-.92,0-.5-.41-.9-.91-.9h-.54c-.5,0-.91.41-.91.9h-.85c0-.96.79-1.75,1.76-1.75h.54M13.27,8.48h-.54c-1.42,0-2.57,1.15-2.57,2.56v.81h2.48v-.81s.05-.09.1-.09h.54c.05,0,.1.04.1.09,0,.14-.05.27-.15.38l-.84.93c-.4.44-.63,1.02-.63,1.62v.33s0,.81,0,.81h2.45v-.8s.01-.32.01-.32l.83-.9c.5-.56.78-1.28.78-2.03,0-1.41-1.15-2.56-2.57-2.56h0Z"/>
    </g>
  </g>
</svg>