<?xml version="1.0" encoding="UTF-8"?>
<svg id="Layer_1" xmlns="http://www.w3.org/2000/svg" version="1.1" viewBox="0 0 26 26">
  <!-- Generator: Adobe Illustrator 30.1.0, SVG Export Plug-In . SVG Version: 2.1.1 Build 136)  -->
  <circle id="Outer" cx="13" cy="13" r="10.26" fill="none" stroke="#000" stroke-width="5.48"/>
  <g>
    <g>
      <rect x="12.16" y="16.06" width="1.67" height="1.67"/>
      <path d="M13.38,16.51v.78h-.78v-.78h.78M14.28,15.62h-2.56v2.56h2.56v-2.56h0Z"/>
    </g>
    <g>
      <path d="M12.17,14.58v-.74c0-.48.17-.94.49-1.3l.77-.85c.14-.15.21-.34.21-.55s-.17-.38-.39-.38h-.49c-.21,0-.39.17-.39.38v.45h-1.68v-.45c0-1.13.93-2.05,2.07-2.05h.49c1.14,0,2.07.92,2.07,2.05,0,.61-.23,1.21-.64,1.66l-.77.85c-.05.05-.07.11-.07.17v.74h-1.67Z"/>
      <path d="M13.25,9.55c.89,0,1.62.72,1.62,1.61,0,.5-.19.99-.53,1.36l-.77.85c-.12.13-.18.3-.19.47v.29h-.78v-.29c0-.37.13-.72.38-.99l.77-.85c.21-.23.33-.53.33-.85,0-.46-.38-.83-.84-.83h-.49c-.46,0-.84.37-.84.83h-.78c0-.89.73-1.61,1.62-1.61h.49M13.25,8.65h-.49c-1.39,0-2.51,1.12-2.51,2.5v.89h2.27l-.18.2c-.39.44-.61,1-.61,1.59v.3s.01.89.01.89h2.55v-.88s.01-.22.01-.22l.72-.8c.49-.54.76-1.24.76-1.96,0-1.38-1.13-2.5-2.51-2.5h0ZM12.81,11.22h.37c-.01.07-.04.13-.09.18l-.28.31v-.5h0Z"/>
    </g>
  </g>
</svg>