<?xml version="1.0" encoding="UTF-8"?>
<svg id="Layer_1" xmlns="http://www.w3.org/2000/svg" version="1.1" viewBox="0 0 26 26">
  <!-- Generator: Adobe Illustrator 30.1.0, SVG Export Plug-In . SVG Version: 2.1.1 Build 136)  -->
  <circle id="Outer" cx="13" cy="13" r="11.87" fill="none" stroke="#000" stroke-width="2.26"/>
  <g>
    <g>
      <rect x="12.18" y="17.29" width="1.63" height="1.63"/>
      <path d="M13.64,17.46v1.3h-1.3v-1.3h1.3M13.97,17.13h-1.95v1.95h1.95v-1.95h0Z"/>
    </g>
    <g>
      <path d="M12.18,15.5v-.65c0-.66.24-1.29.68-1.77l1.29-1.43c.33-.36.51-.83.51-1.31,0-.68-.56-1.23-1.24-1.23h-.83c-.69,0-1.24.55-1.24,1.23v.16h-1.64v-.16c0-1.58,1.29-2.86,2.88-2.86h.83c1.59,0,2.88,1.28,2.88,2.86,0,.89-.33,1.74-.92,2.4l-1.29,1.43c-.18.19-.27.43-.27.69v.65h-1.63Z"/>
      <path d="M13.41,7.63c1.5,0,2.72,1.21,2.72,2.7,0,.85-.31,1.66-.88,2.29l-1.29,1.43c-.2.22-.31.5-.31.79v.49h-1.31v-.49c0-.62.23-1.21.64-1.66l1.29-1.43c.35-.39.55-.9.55-1.42,0-.77-.63-1.4-1.41-1.4h-.83c-.78,0-1.41.63-1.41,1.4h-1.31c0-1.49,1.22-2.7,2.72-2.7h.83M13.41,7.3h-.83c-1.68,0-3.04,1.36-3.04,3.03v.32h1.96v-.32c0-.59.48-1.07,1.08-1.07h.83c.6,0,1.08.48,1.08,1.07,0,.44-.16.87-.46,1.2l-1.29,1.43c-.47.52-.73,1.19-.73,1.88v.5s0,.32,0,.32h1.95v-.32s0-.49,0-.49c0-.22.08-.41.23-.58l1.29-1.43c.62-.69.97-1.58.97-2.51,0-1.67-1.37-3.03-3.04-3.03h0Z"/>
    </g>
  </g>
</svg>