<?xml version="1.0" encoding="UTF-8"?>
<svg id="Layer_1" xmlns="http://www.w3.org/2000/svg" version="1.1" viewBox="0 0 26 26">
  <!-- Generator: Adobe Illustrator 30.1.0, SVG Export Plug-In . SVG Version: 2.1.1 Build 136)  -->
  <circle id="Outer" cx="13" cy="13" r="11.41" fill="none" stroke="#000" stroke-width="3.18"/>
  <g>
    <g>
      <rect x="12.18" y="16.95" width="1.63" height="1.63"/>
      <path d="M13.56,17.19v1.14h-1.14v-1.14h1.14M14.05,16.7h-2.12v2.12h2.12v-2.12h0Z"/>
    </g>
    <g>
      <path d="M12.18,15.21v-.67c0-.6.22-1.18.62-1.63l1.13-1.25c.27-.3.42-.68.42-1.08,0-.54-.44-.98-.99-.98h-.73c-.55,0-.99.44-.99.98v.24h-1.64v-.24c0-1.44,1.18-2.61,2.63-2.61h.73c1.45,0,2.63,1.17,2.63,2.61,0,.8-.3,1.58-.84,2.17l-1.13,1.25c-.14.15-.21.34-.21.53v.67h-1.63Z"/>
      <path d="M13.36,8.2c1.32,0,2.39,1.06,2.39,2.37,0,.74-.28,1.46-.77,2.01l-1.13,1.25c-.18.19-.27.43-.27.7v.43h-1.15v-.43c0-.54.2-1.06.56-1.46l1.13-1.25c.31-.34.48-.79.48-1.25,0-.68-.55-1.22-1.23-1.22h-.73c-.68,0-1.23.55-1.23,1.22h-1.15c0-1.31,1.07-2.37,2.39-2.37h.73M13.36,7.72h-.73c-1.58,0-2.87,1.28-2.87,2.86v.49h2.13v-.49c0-.41.33-.74.75-.74h.73c.41,0,.75.33.75.74,0,.34-.13.67-.35.92l-1.13,1.25c-.44.49-.69,1.12-.69,1.79v.44s0,.48,0,.48h2.11v-.48s0-.43,0-.43c0-.14.05-.27.15-.37l1.13-1.25c.58-.64.9-1.47.9-2.34,0-1.58-1.29-2.86-2.87-2.86h0Z"/>
    </g>
  </g>
</svg>