<?xml version="1.0" encoding="UTF-8"?>
<svg id="Layer_1" xmlns="http://www.w3.org/2000/svg" version="1.1" viewBox="0 0 20 20">
  <!-- Generator: Adobe Illustrator 30.1.0, SVG Export Plug-In . SVG Version: 2.1.1 Build 136)  -->
  <path d="M10,3.86c.2,0,.4.1.5.31l1.28,2.55c.22.44.63.75,1.11.84l2.78.52c.43.08.61.61.31.94l-2.02,2.22c-.31.34-.46.81-.4,1.27l.39,2.99c.05.36-.24.64-.56.64-.09,0-.17-.02-.26-.06l-2.43-1.25c-.23-.12-.47-.17-.72-.17s-.49.06-.72.17l-2.43,1.25c-.08.04-.17.06-.26.06-.32,0-.61-.28-.56-.64l.4-3c.06-.46-.08-.92-.4-1.26l-2.02-2.22c-.3-.33-.12-.86.31-.94l2.78-.52c.48-.09.89-.4,1.11-.84l1.28-2.55c.1-.21.3-.31.5-.31M10,0c-1.68,0-3.2.93-3.95,2.44l-.77,1.54-1.66.31c-1.58.3-2.87,1.42-3.38,2.95-.51,1.52-.15,3.2.93,4.39l1.31,1.43-.26,1.94c-.17,1.26.22,2.54,1.06,3.5.84.96,2.06,1.51,3.33,1.51.7,0,1.4-.17,2.03-.49l1.38-.71,1.38.71c.63.32,1.33.49,2.03.49,1.27,0,2.49-.55,3.33-1.51.84-.96,1.23-2.23,1.06-3.5l-.26-1.94,1.31-1.43c1.08-1.19,1.44-2.87.93-4.39-.51-1.52-1.81-2.65-3.38-2.94l-1.66-.31-.77-1.54c-.76-1.5-2.27-2.44-3.95-2.44h0Z"/>
</svg>