<?xml version="1.0" encoding="UTF-8"?>
<svg id="Layer_1" xmlns="http://www.w3.org/2000/svg" version="1.1" viewBox="0 0 20 20">
  <!-- Generator: Adobe Illustrator 30.1.0, SVG Export Plug-In . SVG Version: 2.1.1 Build 136)  -->
  <path d="M10,1.74c.27,0,.54.14.68.42l1.73,3.43c.3.59.85,1.01,1.5,1.13l3.74.7c.58.11.82.82.42,1.26l-2.72,2.99c-.42.46-.62,1.09-.53,1.7l.53,4.03c.06.48-.32.86-.75.86-.11,0-.23-.03-.35-.09l-3.27-1.68c-.3-.16-.63-.23-.97-.23-.33,0-.66.08-.97.23l-3.27,1.68c-.11.06-.23.09-.35.09-.43,0-.82-.38-.75-.86l.53-4.03c.08-.62-.11-1.24-.53-1.7l-2.72-2.99c-.4-.44-.16-1.15.42-1.26l3.74-.7c.65-.12,1.2-.54,1.5-1.13l1.73-3.43c.14-.28.41-.42.68-.42M10,0C9.05,0,8.2.53,7.77,1.37l-1.73,3.43c-.05.1-.15.18-.26.2l-3.74.7c-.89.17-1.62.8-1.91,1.66-.29.86-.09,1.81.52,2.48l2.72,2.99c.08.08.11.19.1.31l-.53,4.03c-.09.71.12,1.43.6,1.97.48.54,1.16.85,1.88.85.39,0,.79-.1,1.14-.28l3.27-1.68c.05-.03.11-.04.17-.04s.12.01.17.04l3.27,1.68c.35.18.75.28,1.14.28.72,0,1.4-.31,1.88-.85.47-.54.69-1.26.6-1.97l-.53-4.03c-.01-.11.02-.22.1-.31l2.72-2.99c.61-.67.81-1.62.52-2.48-.29-.86-1.02-1.49-1.91-1.66l-3.74-.7c-.11-.02-.21-.1-.27-.2l-1.73-3.43C11.8.53,10.95,0,10,0h0Z"/>
</svg>