<?xml version="1.0" encoding="UTF-8"?>
<svg id="Layer_1" xmlns="http://www.w3.org/2000/svg" version="1.1" viewBox="0 0 41 41">
  <!-- Generator: Adobe Illustrator 30.1.0, SVG Export Plug-In . SVG Version: 2.1.1 Build 136)  -->
  <circle id="Outer" cx="20.5" cy="20.5" r="19.08" fill="none" stroke="#000" stroke-width="2.84"/>
  <g>
    <g>
      <rect x="19.2" y="27.54" width="2.57" height="2.57"/>
      <path d="M21.58,27.73v2.18h-2.18v-2.18h2.18M21.96,27.35h-2.95v2.95h2.95v-2.95h0Z"/>
    </g>
    <g>
      <path d="M19.21,24.68v-1.02c0-1.08.4-2.12,1.12-2.92l2.16-2.39c.56-.62.87-1.42.87-2.25,0-1.18-.97-2.15-2.16-2.15h-1.39c-1.19,0-2.16.96-2.16,2.15v.19h-2.59v-.19c0-2.6,2.13-4.72,4.75-4.72h1.39c2.62,0,4.75,2.12,4.75,4.72,0,1.47-.54,2.88-1.53,3.97l-2.16,2.4c-.31.34-.47.76-.47,1.2v1.02h-2.57Z"/>
      <path d="M21.19,11.57c2.51,0,4.56,2.03,4.56,4.53,0,1.42-.53,2.78-1.48,3.84l-2.16,2.4c-.33.37-.52.83-.52,1.33v.83h-2.19v-.83c0-1.03.38-2.02,1.07-2.79l2.16-2.39c.59-.66.92-1.5.92-2.38,0-1.29-1.06-2.34-2.36-2.34h-1.39c-1.3,0-2.36,1.05-2.36,2.34h-2.2c0-2.5,2.04-4.53,4.56-4.53h1.39M21.19,11.18h-1.39c-2.73,0-4.94,2.2-4.94,4.91v.38h2.97v-.38c0-1.08.88-1.95,1.97-1.95h1.39c1.09,0,1.97.88,1.97,1.95,0,.78-.29,1.54-.82,2.12l-2.16,2.39c-.76.84-1.18,1.92-1.18,3.05v.83s.01.38.01.38h2.94v-.38s.01-.83.01-.83c0-.4.15-.77.42-1.08l2.16-2.4c1.02-1.13,1.58-2.58,1.58-4.1,0-2.71-2.22-4.91-4.94-4.91h0Z"/>
    </g>
  </g>
</svg>