<?xml version="1.0" encoding="UTF-8"?>
<svg id="Layer_1" xmlns="http://www.w3.org/2000/svg" version="1.1" viewBox="0 0 41 41">
  <!-- Generator: Adobe Illustrator 30.1.0, SVG Export Plug-In . SVG Version: 2.1.1 Build 136)  -->
  <circle id="Outer" cx="20.5" cy="20.5" r="16.54" fill="none" stroke="#000" stroke-width="7.92"/>
  <g>
    <g>
      <rect x="19.18" y="25.61" width="2.61" height="2.61"/>
      <path d="M21.16,26.25v1.33h-1.33v-1.33h1.33M22.44,24.97h-3.89v3.89h3.89v-3.89h0Z"/>
    </g>
    <g>
      <path d="M19.19,23.17v-1.14c0-.79.28-1.55.81-2.14l1.32-1.46c.25-.28.39-.64.39-1.02,0-.43-.36-.79-.8-.79h-.85c-.44,0-.8.35-.8.79v.64h-2.62v-.64c0-1.87,1.53-3.4,3.42-3.4h.85c1.89,0,3.42,1.53,3.42,3.4,0,1.02-.38,2.01-1.07,2.77l-1.32,1.46c-.1.11-.15.24-.15.38v1.14h-2.61Z"/>
      <path d="M20.92,14.65c1.53,0,2.78,1.24,2.78,2.76,0,.87-.32,1.7-.9,2.34l-1.32,1.46c-.2.23-.32.51-.32.81v.5h-1.34v-.5c0-.63.23-1.23.65-1.7l1.32-1.46c.36-.4.56-.92.56-1.45,0-.79-.64-1.43-1.44-1.43h-.85c-.79,0-1.44.64-1.44,1.43h-1.34c0-1.52,1.25-2.76,2.78-2.76h.85M20.92,13.37h-.85c-2.24,0-4.06,1.81-4.06,4.04v1.28h3.9v-1.28c0-.08.07-.14.15-.14h.85c.08,0,.15.07.15.14,0,.22-.08.43-.23.59l-1.32,1.46c-.63.7-.99,1.61-.99,2.55v.52s.02,1.27.02,1.27h3.87v-1.27s.02-.5.02-.5l1.31-1.43c.79-.88,1.23-2.02,1.23-3.2,0-2.23-1.82-4.04-4.06-4.04h0Z"/>
    </g>
  </g>
</svg>