<?xml version="1.0" encoding="UTF-8"?>
<svg id="Layer_1" xmlns="http://www.w3.org/2000/svg" version="1.1" viewBox="0 0 41 41">
  <!-- Generator: Adobe Illustrator 30.1.0, SVG Export Plug-In . SVG Version: 2.1.1 Build 136)  -->
  <circle id="Outer" cx="20.5" cy="20.5" r="16.18" fill="none" stroke="#000" stroke-width="8.64"/>
  <g>
    <g>
      <rect x="19.17" y="25.33" width="2.63" height="2.63"/>
      <path d="M21.1,26.04v1.22h-1.22v-1.22h1.22M22.51,24.63h-4.04v4.04h4.04v-4.04h0Z"/>
    </g>
    <g>
      <path d="M19.18,22.99v-1.16c0-.76.27-1.48.78-2.04l1.21-1.34c.21-.24.33-.54.33-.86,0-.33-.28-.61-.61-.61h-.78c-.34,0-.61.27-.61.61v.7h-2.64v-.7c0-1.79,1.46-3.24,3.26-3.24h.78c1.8,0,3.26,1.45,3.26,3.24,0,.97-.36,1.9-1.01,2.62l-1.21,1.34c-.07.08-.11.17-.11.28v1.17h-2.63Z"/>
      <path d="M20.89,15.05c1.41,0,2.55,1.14,2.55,2.53,0,.8-.29,1.56-.83,2.15l-1.21,1.34c-.19.21-.29.47-.29.74v.46h-1.23v-.46c0-.58.21-1.13.6-1.56l1.21-1.34c.33-.37.51-.84.51-1.33,0-.72-.59-1.31-1.32-1.31h-.78c-.73,0-1.32.59-1.32,1.31h-1.23c0-1.4,1.15-2.53,2.55-2.53h.78M20.89,13.65h-.78c-2.18,0-3.96,1.77-3.96,3.94v1.41h3.58l-.29.32c-.62.69-.97,1.58-.97,2.5v.48s.02,1.4.02,1.4h4.01v-1.4s.02-.35.02-.35l1.14-1.26c.77-.85,1.19-1.95,1.19-3.1,0-2.17-1.78-3.94-3.96-3.94h0ZM20.2,17.69h.59c-.02.11-.07.21-.14.29l-.45.5v-.78h0Z"/>
    </g>
  </g>
</svg>