<?xml version="1.0" encoding="UTF-8"?>
<svg id="Layer_1" xmlns="http://www.w3.org/2000/svg" version="1.1" viewBox="0 0 41 41">
  <!-- Generator: Adobe Illustrator 30.1.0, SVG Export Plug-In . SVG Version: 2.1.1 Build 136)  -->
  <circle id="Outer" cx="20.5" cy="20.5" r="18" fill="none" stroke="#000" stroke-width="5.01"/>
  <g>
    <g>
      <rect x="19.2" y="26.72" width="2.57" height="2.57"/>
      <path d="M21.39,27.11v1.8h-1.8v-1.8h1.8M22.16,26.34h-3.34v3.34h3.34v-3.34h0Z"/>
    </g>
    <g>
      <path d="M19.21,23.98v-1.06c0-.95.35-1.86.98-2.56l1.79-1.98c.42-.47.66-1.08.66-1.71,0-.85-.7-1.55-1.56-1.55h-1.15c-.86,0-1.56.69-1.56,1.55v.38h-2.59v-.38c0-2.27,1.86-4.12,4.15-4.12h1.15c2.29,0,4.15,1.85,4.15,4.12,0,1.27-.47,2.48-1.32,3.43l-1.79,1.98c-.22.24-.33.53-.33.84v1.07h-2.57Z"/>
      <path d="M21.07,12.93c2.07,0,3.76,1.68,3.76,3.74,0,1.17-.43,2.3-1.22,3.17l-1.79,1.98c-.28.31-.43.69-.43,1.1v.68h-1.81v-.68c0-.85.31-1.67.89-2.3l1.78-1.98c.49-.54.76-1.24.76-1.97,0-1.06-.87-1.93-1.94-1.93h-1.15c-1.07,0-1.94.87-1.94,1.93h-1.82c0-2.06,1.69-3.74,3.76-3.74h1.15M21.07,12.17h-1.15c-2.5,0-4.53,2.02-4.53,4.51v.77h3.36v-.77c0-.64.53-1.16,1.18-1.16h1.15c.65,0,1.18.52,1.18,1.16,0,.54-.2,1.05-.56,1.45l-1.78,1.98c-.7.77-1.09,1.77-1.09,2.82v.69s.01.76.01.76h3.32v-.76s.01-.68.01-.68c0-.22.08-.42.23-.59l1.79-1.98c.92-1.01,1.42-2.32,1.42-3.69,0-2.48-2.03-4.51-4.53-4.51h0Z"/>
    </g>
  </g>
</svg>