<?xml version="1.0" encoding="UTF-8"?>
<svg id="Layer_1" xmlns="http://www.w3.org/2000/svg" version="1.1" viewBox="0 0 41 41">
  <!-- Generator: Adobe Illustrator 30.1.0, SVG Export Plug-In . SVG Version: 2.1.1 Build 136)  -->
  <circle id="Outer" cx="20.5" cy="20.5" r="17.26" fill="none" stroke="#000" stroke-width="6.47"/>
  <g>
    <g>
      <rect x="19.2" y="26.17" width="2.58" height="2.58"/>
      <path d="M21.27,26.68v1.56h-1.56v-1.56h1.56M22.29,25.66h-3.61v3.61h3.61v-3.61h0Z"/>
    </g>
    <g>
      <path d="M19.2,23.56v-1.1c0-.87.31-1.7.89-2.34l1.54-1.71c.34-.37.52-.86.52-1.36,0-.64-.52-1.16-1.17-1.16h-.99c-.65,0-1.17.52-1.17,1.16v.51h-2.6v-.51c0-2.07,1.69-3.75,3.77-3.75h.99c2.08,0,3.77,1.68,3.77,3.75,0,1.14-.42,2.24-1.19,3.09l-1.54,1.71c-.16.17-.24.38-.24.61v1.1h-2.59Z"/>
      <path d="M21,13.82c1.8,0,3.26,1.45,3.26,3.23,0,1.01-.38,1.99-1.06,2.74l-1.54,1.71c-.24.26-.37.59-.37.95v.59h-1.57v-.59c0-.74.27-1.44.77-1.99l1.54-1.71c.42-.47.66-1.07.66-1.7,0-.92-.75-1.67-1.68-1.67h-.99c-.93,0-1.68.75-1.68,1.67h-1.57c0-1.78,1.46-3.23,3.26-3.23h.99M21,12.79h-.99c-2.36,0-4.28,1.91-4.28,4.26v1.03h3.62v-1.03c0-.36.3-.65.66-.65h.99c.36,0,.66.29.66.65,0,.37-.14.73-.39,1.01l-1.54,1.71c-.66.73-1.03,1.69-1.04,2.68v.6s.01,1.02.01,1.02h3.59v-1.01s.02-.59.02-.59c0-.11.04-.19.11-.27l1.55-1.71c.85-.94,1.32-2.16,1.32-3.43,0-2.35-1.92-4.26-4.28-4.26h0Z"/>
    </g>
  </g>
</svg>