<?xml version="1.0" encoding="UTF-8"?>
<svg id="Layer_1" xmlns="http://www.w3.org/2000/svg" version="1.1" viewBox="0 0 41 41">
  <!-- Generator: Adobe Illustrator 30.1.0, SVG Export Plug-In . SVG Version: 2.1.1 Build 136)  -->
  <circle id="Outer" cx="20.5" cy="20.5" r="18.72" fill="none" stroke="#000" stroke-width="3.56"/>
  <g>
    <g>
      <rect x="19.2" y="27.27" width="2.57" height="2.57"/>
      <path d="M21.51,27.53v2.05h-2.05v-2.05h2.05M22.03,27.01h-3.08v3.08h3.08v-3.08h0Z"/>
    </g>
    <g>
      <path d="M19.21,24.44v-1.03c0-1.04.38-2.03,1.07-2.8l2.03-2.25c.51-.57.8-1.3.8-2.07,0-1.07-.88-1.94-1.96-1.94h-1.31c-1.08,0-1.96.87-1.96,1.94v.26h-2.58v-.26c0-2.49,2.04-4.52,4.55-4.52h1.31c2.51,0,4.54,2.03,4.54,4.52,0,1.4-.52,2.74-1.46,3.79l-2.04,2.25c-.28.31-.42.68-.43,1.08v1.03h-2.57Z"/>
      <path d="M21.15,12.03c2.37,0,4.29,1.91,4.29,4.26,0,1.34-.49,2.62-1.39,3.61l-2.03,2.25c-.32.35-.49.78-.49,1.25v.78h-2.06v-.78c0-.97.36-1.9,1.01-2.63l2.03-2.25c.56-.62.86-1.41.86-2.24,0-1.21-.99-2.2-2.22-2.2h-1.31c-1.22,0-2.22.99-2.22,2.2h-2.07c0-2.35,1.92-4.26,4.29-4.26h1.31M21.15,11.52h-1.31c-2.65,0-4.8,2.14-4.8,4.77v.51h3.1v-.51c0-.93.76-1.69,1.7-1.69h1.31c.94,0,1.7.76,1.7,1.69,0,.7-.26,1.37-.73,1.9l-2.03,2.25c-.74.82-1.15,1.87-1.15,2.97v.78s.01.51.01.51h3.07v-.51s.01-.78.01-.78c0-.34.13-.65.36-.91l2.03-2.25c.98-1.09,1.52-2.49,1.52-3.96,0-2.63-2.15-4.77-4.8-4.77h0Z"/>
    </g>
  </g>
</svg>