<?xml version="1.0" encoding="UTF-8"?>
<svg id="Layer_1" xmlns="http://www.w3.org/2000/svg" version="1.1" viewBox="0 0 11 11">
  <!-- Generator: Adobe Illustrator 30.1.0, SVG Export Plug-In . SVG Version: 2.1.1 Build 136)  -->
  <g>
    <g>
      <rect x="5.1" y="3.14" width=".8" height=".8"/>
      <path d="M5.76,3.27v.52h-.52v-.52h.52M6.04,3h-1.07v1.07h1.07v-1.07h0Z"/>
    </g>
    <g>
      <polygon points="4.58 7.79 4.58 6.99 5.1 6.99 5.1 5.63 4.58 5.63 4.58 4.83 5.9 4.83 5.9 6.99 6.42 6.99 6.42 7.79 4.58 7.79"/>
      <path d="M5.76,4.97v2.16h.52v.52h-1.57v-.52h.52v-1.63h-.52v-.52h1.05M6.04,4.69h-1.6v1.07h.52v1.08h-.52v1.07h2.12v-1.07h-.52v-2.16h0Z"/>
    </g>
  </g>
  <circle id="Outer" cx="5.5" cy="5.5" r="4.63" fill="none" stroke="#000" stroke-width="1.74"/>
</svg>