<?xml version="1.0" encoding="UTF-8"?>
<svg id="Layer_1" xmlns="http://www.w3.org/2000/svg" version="1.1" viewBox="0 0 11 11">
  <!-- Generator: Adobe Illustrator 30.1.0, SVG Export Plug-In . SVG Version: 2.1.1 Build 136)  -->
  <g>
    <g>
      <polygon points="5.18 3.63 5.11 2.92 5.82 2.85 5.89 3.56 5.89 3.63 5.18 3.63"/>
      <path d="M5.82,2.92v.64h-.64v-.64h.64M5.96,2.79h-.91v.91h.91v-.91h0Z"/>
    </g>
    <g>
      <polygon points="4.54 8.13 4.48 7.42 5.18 7.35 5.11 5.43 4.54 5.5 4.48 4.8 5.82 4.73 5.89 7.42 6.46 7.35 6.52 8.06 6.52 8.13 4.54 8.13"/>
      <path d="M5.82,4.8v2.63h.64v.64h-1.91v-.64h.64v-1.99h-.64v-.64h1.27M5.96,4.66h-1.55v.91h.64v1.71h-.64v.91h2.19v-.91h-.64v-2.63h0Z"/>
    </g>
  </g>
  <circle id="Outer" cx="5.5" cy="5.5" r="5.02" fill="none" stroke="#000" stroke-width=".96"/>
</svg>