<?xml version="1.0" encoding="UTF-8"?>
<svg id="Layer_1" xmlns="http://www.w3.org/2000/svg" version="1.1" viewBox="0 0 11 11">
  <!-- Generator: Adobe Illustrator 30.1.0, SVG Export Plug-In . SVG Version: 2.1.1 Build 136)  -->
  <g>
    <g>
      <rect x="5.09" y="3.27" width=".81" height=".81"/>
      <path d="M5.73,3.45v.47h-.47v-.47h.47M6.08,3.1h-1.16v1.16h1.16v-1.16h0Z"/>
    </g>
    <g>
      <polygon points="4.63 7.62 4.63 6.81 5.09 6.81 5.09 5.69 4.63 5.69 4.63 4.88 5.91 4.88 5.91 6.81 6.37 6.81 6.37 7.62 4.63 7.62"/>
      <path d="M5.73,5.05v1.93h.47v.47h-1.4v-.47h.47v-1.46h-.47v-.47h.94M6.08,4.71h-1.62v1.16h.47v.77h-.47v1.16h2.09v-1.16h-.47v-1.93h0Z"/>
    </g>
  </g>
  <circle id="Outer" cx="5.5" cy="5.5" r="4.44" fill="none" stroke="#000" stroke-width="2.12"/>
</svg>