<?xml version="1.0" encoding="UTF-8"?>
<svg id="Layer_1" xmlns="http://www.w3.org/2000/svg" version="1.1" viewBox="0 0 69 69">
  <!-- Generator: Adobe Illustrator 30.1.0, SVG Export Plug-In . SVG Version: 2.1.1 Build 136)  -->
  <circle id="Outer" cx="34.5" cy="34.5" r="27.84" fill="none" stroke="#000" stroke-width="13.33"/>
  <g>
    <g>
      <rect x="32.29" y="43.1" width="4.4" height="4.4"/>
      <path d="M35.6,44.18v2.24h-2.24v-2.24h2.24M37.76,42.02h-6.55v6.55h6.55v-6.55h0Z"/>
    </g>
    <g>
      <path d="M32.3,38.99l-.02-1.92c0-1.34.5-2.61,1.39-3.6l2.22-2.46c.43-.47.67-1.09.67-1.72,0-.73-.6-1.32-1.34-1.32h-1.42c-.74,0-1.34.59-1.34,1.32v1.08h-4.42v-1.08c0-3.15,2.58-5.72,5.75-5.72h1.42c3.17,0,5.75,2.57,5.75,5.72,0,1.72-.64,3.38-1.8,4.66l-2.22,2.46c-.17.19-.26.4-.26.65l-.02,1.92h-4.38Z"/>
      <path d="M35.21,24.66c2.58,0,4.68,2.08,4.68,4.64,0,1.46-.54,2.86-1.52,3.94l-2.22,2.46c-.34.38-.53.85-.54,1.36v.85h-2.25v-.85c0-1.06.39-2.07,1.1-2.86l2.22-2.46c.61-.67.94-1.54.94-2.44,0-1.32-1.08-2.4-2.42-2.4h-1.42c-1.33,0-2.42,1.08-2.42,2.4h-2.26c0-2.56,2.1-4.64,4.68-4.64h1.42M35.21,22.51h-1.42c-3.77,0-6.83,3.05-6.83,6.8v2.16h6.57v-2.16c0-.13.12-.24.26-.24h1.42c.14,0,.26.11.26.24,0,.37-.14.72-.39,1l-2.22,2.46c-1.07,1.18-1.66,2.71-1.66,4.3v.87s.03,2.14.03,2.14h6.51l.02-2.13v-.81s2.21-2.44,2.21-2.44c1.34-1.48,2.07-3.39,2.07-5.38,0-3.75-3.07-6.8-6.83-6.8h0Z"/>
    </g>
  </g>
</svg>