<?xml version="1.0" encoding="UTF-8"?>
<svg id="Layer_1" xmlns="http://www.w3.org/2000/svg" version="1.1" viewBox="0 0 69 69">
  <!-- Generator: Adobe Illustrator 30.1.0, SVG Export Plug-In . SVG Version: 2.1.1 Build 136)  -->
  <circle id="Outer" cx="34.5" cy="34.5" r="32.11" fill="none" stroke="#000" stroke-width="4.79"/>
  <g>
    <g>
      <rect x="32.32" y="46.35" width="4.32" height="4.32"/>
      <path d="M36.31,46.67v3.67h-3.67v-3.67h3.67M36.96,46.02h-4.97v4.97h4.97v-4.97h0Z"/>
    </g>
    <g>
      <path d="M32.32,41.53v-1.71c0-1.82.67-3.57,1.89-4.92l3.64-4.03c.94-1.04,1.46-2.39,1.46-3.79,0-1.99-1.63-3.61-3.64-3.61h-2.34c-2.01,0-3.64,1.62-3.64,3.61v.32h-4.35v-.32c0-4.38,3.59-7.94,7.99-7.94h2.34c4.41,0,7.99,3.56,7.99,7.94,0,2.47-.91,4.84-2.57,6.68l-3.64,4.03c-.52.57-.79,1.27-.79,2.02l-.02,1.71h-4.31Z"/>
      <path d="M35.67,19.47c4.23,0,7.67,3.42,7.67,7.62,0,2.39-.88,4.68-2.49,6.46l-3.64,4.03c-.56.62-.88,1.4-.88,2.24v1.39h-3.69v-1.39c0-1.74.64-3.4,1.81-4.7l3.64-4.03c1-1.1,1.54-2.53,1.54-4.01,0-2.17-1.78-3.94-3.96-3.94h-2.34c-2.19,0-3.96,1.77-3.96,3.94h-3.71c0-4.2,3.44-7.62,7.67-7.62h2.34M35.67,18.82h-2.34c-4.59,0-8.32,3.71-8.32,8.26v.65h5v-.65c0-1.81,1.49-3.29,3.32-3.29h2.34c1.83,0,3.32,1.48,3.32,3.29,0,1.32-.49,2.59-1.38,3.57l-3.64,4.03c-1.27,1.41-1.98,3.23-1.99,5.13v1.4s.02.64.02.64h4.95v-.64s.02-1.39.02-1.39c0-.67.25-1.3.71-1.81l3.64-4.03c1.71-1.9,2.66-4.35,2.66-6.9,0-4.56-3.73-8.26-8.32-8.26h0Z"/>
    </g>
  </g>
</svg>