<?xml version="1.0" encoding="UTF-8"?>
<svg id="Layer_1" xmlns="http://www.w3.org/2000/svg" version="1.1" viewBox="0 0 69 69">
  <!-- Generator: Adobe Illustrator 30.1.0, SVG Export Plug-In . SVG Version: 2.1.1 Build 136)  -->
  <circle id="Outer" cx="34.5" cy="34.5" r="31.5" fill="none" stroke="#000" stroke-width="5.99"/>
  <g>
    <g>
      <rect x="32.32" y="45.89" width="4.32" height="4.32"/>
      <path d="M36.21,46.32v3.46h-3.46v-3.46h3.46M37.07,45.46h-5.18v5.18h5.18v-5.18h0Z"/>
    </g>
    <g>
      <path d="M32.33,41.13l-.02-1.74c0-1.75.65-3.42,1.82-4.71l3.42-3.79c.87-.96,1.34-2.19,1.34-3.48,0-1.81-1.48-3.27-3.3-3.27h-2.2c-1.82,0-3.3,1.47-3.3,3.27v.43h-4.35v-.43c0-4.19,3.43-7.6,7.65-7.6h2.2c4.22,0,7.65,3.41,7.65,7.6,0,2.35-.87,4.62-2.46,6.37l-3.42,3.79c-.47.51-.71,1.14-.72,1.82l-.02,1.74h-4.31Z"/>
      <path d="M35.6,20.24c3.98,0,7.22,3.22,7.22,7.17,0,2.25-.83,4.41-2.34,6.08l-3.42,3.79c-.53.59-.82,1.32-.83,2.11v1.31h-3.47v-1.31c0-1.64.6-3.2,1.7-4.42l3.42-3.79c.94-1.04,1.45-2.38,1.45-3.77,0-2.04-1.67-3.7-3.73-3.7h-2.2c-2.06,0-3.73,1.66-3.73,3.7h-3.49c0-3.95,3.24-7.17,7.22-7.17h2.2M35.6,19.38h-2.2c-4.46,0-8.08,3.6-8.08,8.03v.86h5.21v-.86c0-1.57,1.29-2.84,2.87-2.84h2.2c1.58,0,2.87,1.27,2.87,2.84,0,1.18-.44,2.31-1.23,3.19l-3.42,3.79c-1.24,1.37-1.93,3.15-1.93,4.99v1.32s.02.85.02.85h5.17v-.85s.02-1.31.02-1.31c0-.57.21-1.1.6-1.54l3.42-3.79c1.65-1.83,2.57-4.2,2.57-6.66,0-4.43-3.62-8.03-8.08-8.03h0Z"/>
    </g>
  </g>
</svg>