<?xml version="1.0" encoding="UTF-8"?>
<svg id="Layer_1" xmlns="http://www.w3.org/2000/svg" version="1.1" viewBox="0 0 69 69">
  <!-- Generator: Adobe Illustrator 30.1.0, SVG Export Plug-In . SVG Version: 2.1.1 Build 136)  -->
  <circle id="Outer" cx="34.5" cy="34.5" r="27.23" fill="none" stroke="#000" stroke-width="14.53"/>
  <g>
    <g>
      <rect x="32.27" y="42.63" width="4.43" height="4.43"/>
      <path d="M35.51,43.82v2.06h-2.06v-2.06h2.06M37.88,41.44h-6.8v6.8h6.8v-6.8h0Z"/>
    </g>
    <g>
      <path d="M32.29,38.7l-.02-1.95c0-1.28.48-2.5,1.33-3.44l2.04-2.26c.36-.4.56-.91.56-1.45,0-.56-.46-1.02-1.04-1.02h-1.31c-.57,0-1.03.46-1.03,1.02v1.19h-4.45v-1.19c0-3.01,2.46-5.45,5.48-5.45h1.31c3.02,0,5.48,2.45,5.48,5.45,0,1.63-.6,3.2-1.7,4.41l-2.04,2.26c-.12.14-.19.29-.19.46l-.02,1.96h-4.41Z"/>
      <path d="M35.15,25.34c2.37,0,4.3,1.91,4.3,4.27,0,1.34-.5,2.62-1.39,3.62l-2.04,2.26c-.32.35-.49.78-.49,1.25v.78h-2.07v-.78c0-.98.36-1.9,1.01-2.63l2.04-2.26c.56-.62.86-1.41.86-2.24,0-1.22-1-2.2-2.22-2.2h-1.31c-1.22,0-2.22.99-2.22,2.2h-2.08c0-2.35,1.93-4.27,4.3-4.27h1.31M35.15,22.96h-1.31c-3.68,0-6.67,2.98-6.67,6.64v2.37h6.02l-.49.54c-1.05,1.16-1.62,2.65-1.63,4.21v.81s.03,2.35.03,2.35h6.76l.02-2.35v-.6s1.93-2.13,1.93-2.13c1.29-1.43,2.01-3.28,2.01-5.21,0-3.66-2.99-6.64-6.67-6.64h0ZM34,29.77h.99c-.03.18-.11.35-.24.49l-.75.83v-1.32h0Z"/>
    </g>
  </g>
</svg>