<?xml version="1.0" encoding="UTF-8"?>
<svg id="Layer_1" xmlns="http://www.w3.org/2000/svg" version="1.1" viewBox="0 0 69 69">
  <!-- Generator: Adobe Illustrator 30.1.0, SVG Export Plug-In . SVG Version: 2.1.1 Build 136)  -->
  <circle id="Outer" cx="34.5" cy="34.5" r="30.28" fill="none" stroke="#000" stroke-width="8.43"/>
  <g>
    <g>
      <rect x="32.32" y="44.97" width="4.33" height="4.33"/>
      <path d="M36,45.62v3.03h-3.03v-3.03h3.03M37.29,44.33h-5.62v5.62h5.62v-5.62h0Z"/>
    </g>
    <g>
      <path d="M32.33,40.36l-.02-1.79c0-1.6.6-3.13,1.67-4.32l3-3.33c.71-.79,1.11-1.81,1.11-2.87,0-1.44-1.18-2.6-2.63-2.6h-1.93c-1.45,0-2.63,1.17-2.63,2.6v.65h-4.35v-.65c0-3.82,3.13-6.94,6.98-6.94h1.93c3.85,0,6.98,3.11,6.98,6.94,0,2.13-.79,4.18-2.22,5.77l-3,3.33c-.36.4-.56.89-.56,1.42l-.02,1.79h-4.31Z"/>
      <path d="M35.46,21.77c3.49,0,6.33,2.82,6.33,6.29,0,1.97-.73,3.87-2.06,5.34l-3,3.33c-.47.51-.72,1.15-.73,1.85v1.15h-3.04v-1.15c0-1.44.52-2.81,1.49-3.88l3-3.33c.82-.91,1.27-2.09,1.27-3.31,0-1.79-1.47-3.25-3.27-3.25h-1.93c-1.8,0-3.27,1.46-3.27,3.25h-3.06c0-3.47,2.84-6.29,6.33-6.29h1.93M35.46,20.47h-1.93c-4.21,0-7.63,3.4-7.63,7.58v1.29h5.65v-1.29c0-1.08.89-1.96,1.98-1.96h1.93c1.09,0,1.98.88,1.98,1.96,0,.9-.33,1.77-.94,2.44l-3,3.33c-1.18,1.3-1.83,2.98-1.84,4.74v1.16s.02,1.28.02,1.28h5.6v-1.28s.02-1.15.02-1.15c0-.38.13-.71.39-.99l3-3.33c1.54-1.71,2.39-3.91,2.39-6.2,0-4.18-3.42-7.58-7.63-7.58h0Z"/>
    </g>
  </g>
</svg>