<?xml version="1.0" encoding="UTF-8"?>
<svg id="Layer_1" xmlns="http://www.w3.org/2000/svg" version="1.1" viewBox="0 0 69 69">
  <!-- Generator: Adobe Illustrator 30.1.0, SVG Export Plug-In . SVG Version: 2.1.1 Build 136)  -->
  <circle id="Outer" cx="34.5" cy="34.5" r="29.06" fill="none" stroke="#000" stroke-width="10.89"/>
  <g>
    <g>
      <rect x="32.31" y="44.04" width="4.35" height="4.35"/>
      <path d="M35.79,44.9v2.62h-2.62v-2.62h2.62M37.52,43.18h-6.07v6.07h6.07v-6.07h0Z"/>
    </g>
    <g>
      <path d="M32.32,39.64l-.02-1.85c0-1.46.55-2.86,1.52-3.94l2.6-2.88c.57-.63.88-1.44.88-2.28,0-1.08-.88-1.95-1.97-1.95h-1.67c-1.09,0-1.97.87-1.97,1.95v.86h-4.37v-.86c0-3.48,2.84-6.3,6.34-6.3h1.67c3.5,0,6.34,2.83,6.34,6.3,0,1.92-.71,3.77-2,5.19l-2.6,2.88c-.26.29-.41.65-.41,1.02l-.02,1.85h-4.33Z"/>
      <path d="M35.33,23.25c3.02,0,5.48,2.44,5.48,5.44,0,1.71-.63,3.35-1.78,4.62l-2.6,2.88c-.4.45-.63,1-.63,1.6v.99h-2.63v-.99c0-1.24.45-2.43,1.29-3.35l2.6-2.88c.71-.79,1.1-1.8,1.1-2.86,0-1.55-1.27-2.81-2.83-2.81h-1.67c-1.56,0-2.83,1.26-2.83,2.81h-2.65c0-3,2.46-5.44,5.48-5.44h1.67M35.33,21.53h-1.67c-3.97,0-7.2,3.21-7.2,7.17v1.72h6.1v-1.72c0-.6.5-1.09,1.11-1.09h1.67c.61,0,1.11.49,1.11,1.09,0,.63-.23,1.24-.66,1.71l-2.6,2.88c-1.12,1.24-1.74,2.84-1.74,4.5v1.01s.02,1.71.02,1.71h6.04l.02-1.71v-.99c.01-.18.07-.32.19-.46l2.6-2.88c1.43-1.59,2.22-3.64,2.22-5.77,0-3.95-3.23-7.17-7.2-7.17h0Z"/>
    </g>
  </g>
</svg>