<?xml version="1.0" encoding="UTF-8"?>
<svg id="Layer_1" xmlns="http://www.w3.org/2000/svg" version="1.1" viewBox="0 0 123 123">
  <!-- Generator: Adobe Illustrator 30.1.0, SVG Export Plug-In . SVG Version: 2.1.1 Build 136)  -->
  <path d="M61.5,25.91c1.16,0,2.31.6,2.92,1.8l7.45,14.78c1.28,2.54,3.66,4.33,6.45,4.85l16.11,3.02c2.52.47,3.54,3.53,1.81,5.43l-11.74,12.88c-1.81,1.99-2.65,4.67-2.3,7.34l2.29,17.37c.27,2.07-1.38,3.71-3.24,3.71-.49,0-1-.12-1.49-.37l-14.09-7.26c-1.31-.67-2.73-1.01-4.16-1.01s-2.86.34-4.16,1.01l-14.09,7.26c-.49.25-1,.37-1.49.37-1.86,0-3.51-1.64-3.24-3.71l2.29-17.37c.35-2.66-.49-5.35-2.3-7.33l-11.74-12.88c-1.73-1.9-.71-4.96,1.81-5.43l16.11-3.02c2.78-.52,5.17-2.32,6.44-4.85l7.45-14.78c.6-1.2,1.76-1.8,2.92-1.8M61.5,0C50.41,0,40.43,6.15,35.44,16.05l-3.71,7.36-7.93,1.49c-10.39,1.95-18.93,9.39-22.29,19.41-3.36,10.03-1.02,21.12,6.1,28.93l6.48,7.11-1.27,9.64c-1.1,8.34,1.44,16.74,6.98,23.05,5.55,6.33,13.55,9.96,21.95,9.96,4.62,0,9.24-1.12,13.36-3.24l6.39-3.29,6.39,3.29c4.12,2.12,8.74,3.24,13.36,3.24,8.4,0,16.4-3.63,21.95-9.96,5.53-6.31,8.08-14.71,6.98-23.05l-1.27-9.64,6.48-7.11c7.12-7.82,9.46-18.9,6.1-28.93-3.36-10.03-11.9-17.46-22.29-19.41l-7.93-1.49-3.71-7.36C82.57,6.15,72.58,0,61.5,0h0Z"/>
</svg>