<?xml version="1.0" encoding="UTF-8"?>
<svg id="Layer_1" xmlns="http://www.w3.org/2000/svg" version="1.1" viewBox="0 0 123 123">
  <!-- Generator: Adobe Illustrator 30.1.0, SVG Export Plug-In . SVG Version: 2.1.1 Build 136)  -->
  <path d="M61.5,19.41c1.37,0,2.74.71,3.45,2.13l8.81,17.48c1.51,3,4.33,5.12,7.63,5.74l19.05,3.57c2.98.56,4.19,4.18,2.14,6.42l-13.88,15.23c-2.14,2.35-3.14,5.53-2.72,8.68l2.71,20.54c.32,2.45-1.63,4.39-3.83,4.39-.58,0-1.19-.14-1.77-.44l-16.66-8.58c-1.54-.8-3.23-1.19-4.92-1.19-1.69,0-3.38.4-4.92,1.19l-16.66,8.58c-.58.3-1.18.44-1.77.44-2.2,0-4.16-1.94-3.83-4.39l2.71-20.54c.42-3.15-.58-6.33-2.72-8.67l-13.88-15.23c-2.04-2.24-.84-5.87,2.14-6.42l19.05-3.57c3.29-.62,6.11-2.74,7.62-5.74l8.81-17.48c.72-1.42,2.08-2.13,3.45-2.13M61.5,0C52.66,0,44.69,4.91,40.71,12.81l-6.88,13.66-14.83,2.78c-8.29,1.55-15.1,7.49-17.78,15.49-2.68,8-.82,16.85,4.87,23.09l11.18,12.26-2.19,16.57c-.88,6.65,1.15,13.36,5.56,18.39,4.43,5.05,10.81,7.95,17.51,7.95,3.68,0,7.36-.9,10.65-2.59l12.7-6.54,12.7,6.54c3.29,1.69,6.97,2.59,10.65,2.59,6.7,0,13.08-2.9,17.51-7.95,4.41-5.03,6.44-11.74,5.56-18.39l-2.19-16.57,11.18-12.27c5.68-6.24,7.55-15.08,4.87-23.09-2.68-8-9.49-13.93-17.78-15.49l-14.84-2.78-6.88-13.66C78.31,4.91,70.34,0,61.5,0h0Z"/>
</svg>