<?xml version="1.0" encoding="UTF-8"?>
<svg id="Layer_1" xmlns="http://www.w3.org/2000/svg" version="1.1" viewBox="0 0 112 112">
  <!-- Generator: Adobe Illustrator 30.1.0, SVG Export Plug-In . SVG Version: 2.1.1 Build 136)  -->
  <g>
    <g>
      <rect x="51.94" y="31.93" width="8.13" height="8.13"/>
      <path d="M58.66,33.33v5.33h-5.33v-5.33h5.33M61.46,30.53h-10.93v10.93h10.93v-10.93h0Z"/>
    </g>
    <g>
      <polygon points="46.61 79.27 46.61 71.14 51.94 71.14 51.94 57.31 46.61 57.31 46.61 49.19 60.06 49.19 60.06 71.14 65.39 71.14 65.39 79.27 46.61 79.27"/>
      <path d="M58.66,50.59v21.95h5.33v5.33h-15.98v-5.33h5.33v-16.63h-5.33v-5.33h10.65M61.46,47.79h-16.25v10.93h5.33v11.03h-5.33v10.93h21.58v-10.93h-5.33v-21.95h0Z"/>
    </g>
  </g>
  <circle id="Outer" cx="56" cy="56" r="47.16" fill="none" stroke="#000" stroke-width="17.67"/>
</svg>