<?xml version="1.0" encoding="UTF-8"?>
<svg id="Layer_1" xmlns="http://www.w3.org/2000/svg" version="1.1" viewBox="0 0 112 112">
  <!-- Generator: Adobe Illustrator 30.1.0, SVG Export Plug-In . SVG Version: 2.1.1 Build 136)  -->
  <g>
    <g>
      <rect x="52.09" y="28.36" width="7.83" height="7.83"/>
      <path d="M59.39,28.88v6.78h-6.78v-6.78h6.78M60.44,27.83h-8.88v8.88h8.88v-8.88h0Z"/>
    </g>
    <g>
      <polygon points="45.31 83.64 45.31 75.81 52.09 75.81 52.09 55.7 45.31 55.7 45.31 47.87 59.92 47.87 59.92 75.81 66.69 75.81 66.69 83.64 45.31 83.64"/>
      <path d="M59.39,48.39v27.94h6.78v6.78h-20.34v-6.78h6.78v-21.16h-6.78v-6.78h13.56M60.44,47.34h-15.66v8.88h6.78v19.06h-6.78v8.88h22.44v-8.88h-6.78v-27.94h0Z"/>
    </g>
  </g>
  <circle id="Outer" cx="56" cy="56" r="52.12" fill="none" stroke="#000" stroke-width="7.77"/>
</svg>