<?xml version="1.0" encoding="UTF-8"?>
<svg id="Layer_1" xmlns="http://www.w3.org/2000/svg" version="1.1" viewBox="0 0 112 112">
  <!-- Generator: Adobe Illustrator 30.1.0, SVG Export Plug-In . SVG Version: 2.1.1 Build 136)  -->
  <g>
    <g>
      <rect x="52.06" y="29.06" width="7.89" height="7.89"/>
      <path d="M59.24,29.76v6.49h-6.49v-6.49h6.49M60.64,28.36h-9.29v9.29h9.29v-9.29h0Z"/>
    </g>
    <g>
      <polygon points="45.57 82.77 45.57 74.88 52.06 74.88 52.06 56.03 45.57 56.03 45.57 48.14 59.94 48.14 59.94 74.88 66.43 74.88 66.43 82.77 45.57 82.77"/>
      <path d="M59.24,48.84v26.74h6.49v6.49h-19.46v-6.49h6.49v-20.25h-6.49v-6.49h12.97M60.64,47.44h-15.77v9.29h6.49v17.45h-6.49v9.29h22.26v-9.29h-6.49v-26.74h0Z"/>
    </g>
  </g>
  <circle id="Outer" cx="56" cy="56" r="51.14" fill="none" stroke="#000" stroke-width="9.73"/>
</svg>