<?xml version="1.0" encoding="UTF-8"?>
<svg id="Layer_1" xmlns="http://www.w3.org/2000/svg" version="1.1" viewBox="0 0 112 112">
  <!-- Generator: Adobe Illustrator 30.1.0, SVG Export Plug-In . SVG Version: 2.1.1 Build 136)  -->
  <g>
    <g>
      <rect x="52" y="30.49" width="8" height="8"/>
      <path d="M58.95,31.54v5.9h-5.9v-5.9h5.9M61.05,29.44h-10.1v10.1h10.1v-10.1h0Z"/>
    </g>
    <g>
      <polygon points="46.09 81.01 46.09 73.01 52 73.01 52 56.68 46.09 56.68 46.09 48.67 60 48.67 60 73.01 65.91 73.01 65.91 81.01 46.09 81.01"/>
      <path d="M58.95,49.72v24.34h5.9v5.9h-17.71v-5.9h5.9v-18.43h-5.9v-5.9h11.81M61.05,47.62h-16.01v10.1h5.9v14.23h-5.9v10.1h21.91v-10.1h-5.9v-24.34h0Z"/>
    </g>
  </g>
  <circle id="Outer" cx="56" cy="56" r="49.16" fill="none" stroke="#000" stroke-width="13.69"/>
</svg>