<?xml version="1.0" encoding="UTF-8"?>
<svg id="Layer_1" xmlns="http://www.w3.org/2000/svg" version="1.1" viewBox="0 0 112 112">
  <!-- Generator: Adobe Illustrator 30.1.0, SVG Export Plug-In . SVG Version: 2.1.1 Build 136)  -->
  <g>
    <g>
      <rect x="51.83" y="34.04" width="8.34" height="8.34"/>
      <path d="M58.25,35.97v4.49h-4.49v-4.49h4.49M62.1,32.12h-12.19v12.19h12.19v-12.19h0Z"/>
    </g>
    <g>
      <polygon points="47.34 76.74 47.34 68.4 51.83 68.4 51.83 58.23 47.34 58.23 47.34 49.89 60.17 49.89 60.17 68.4 64.66 68.4 64.66 76.74 47.34 76.74"/>
      <path d="M58.25,51.81v18.51h4.49v4.49h-13.47v-4.49h4.49v-14.02h-4.49v-4.49h8.98M62.1,47.96h-16.68v12.19h4.49v6.32h-4.49v12.19h21.17v-12.19h-4.49v-18.51h0Z"/>
    </g>
  </g>
  <circle id="Outer" cx="56" cy="56" r="44.21" fill="none" stroke="#000" stroke-width="23.59"/>
</svg>