<?xml version="1.0" encoding="UTF-8"?>
<svg id="Layer_1" xmlns="http://www.w3.org/2000/svg" version="1.1" viewBox="0 0 34 34">
  <!-- Generator: Adobe Illustrator 30.1.0, SVG Export Plug-In . SVG Version: 2.1.1 Build 136)  -->
  <path d="M17,6.57c.34,0,.68.18.86.53l2.18,4.33c.37.74,1.07,1.27,1.89,1.42l4.72.89c.74.14,1.04,1.04.53,1.59l-3.44,3.78c-.53.58-.78,1.37-.67,2.15l.67,5.09c.08.61-.4,1.09-.95,1.09-.14,0-.29-.03-.44-.11l-4.13-2.13c-.38-.2-.8-.3-1.22-.3s-.84.1-1.22.3l-4.13,2.13c-.14.07-.29.11-.44.11-.55,0-1.03-.48-.95-1.09l.67-5.09c.1-.78-.14-1.57-.67-2.15l-3.44-3.78c-.51-.56-.21-1.45.53-1.59l4.72-.89c.82-.15,1.51-.68,1.89-1.42l2.18-4.33c.18-.35.52-.53.86-.53M17,0C14.14,0,11.57,1.59,10.28,4.14l-1.32,2.61-2.82.53c-2.68.5-4.88,2.42-5.75,5.01-.87,2.59-.26,5.45,1.57,7.46l2.22,2.44-.44,3.3c-.28,2.15.37,4.32,1.8,5.94,1.43,1.63,3.49,2.57,5.66,2.57,1.19,0,2.38-.29,3.44-.84l2.34-1.21,2.34,1.21c1.06.55,2.25.84,3.44.84,2.17,0,4.23-.94,5.66-2.57,1.43-1.63,2.08-3.79,1.8-5.94l-.44-3.3,2.22-2.44c1.84-2.02,2.44-4.88,1.57-7.46-.87-2.59-3.07-4.5-5.75-5.01l-2.83-.53-1.32-2.61C22.43,1.59,19.86,0,17,0h0Z"/>
</svg>