<?xml version="1.0" encoding="UTF-8"?>
<svg id="Layer_1" xmlns="http://www.w3.org/2000/svg" version="1.1" viewBox="0 0 34 34">
  <!-- Generator: Adobe Illustrator 30.1.0, SVG Export Plug-In . SVG Version: 2.1.1 Build 136)  -->
  <path d="M17,2.95c.46,0,.91.24,1.15.71l2.94,5.83c.5,1,1.45,1.71,2.54,1.92l6.36,1.19c.99.19,1.4,1.39.72,2.14l-4.63,5.08c-.71.78-1.05,1.84-.91,2.9l.9,6.85c.11.82-.54,1.47-1.28,1.47-.19,0-.4-.05-.59-.15l-5.56-2.86c-.52-.27-1.08-.4-1.64-.4s-1.13.13-1.64.4l-5.56,2.86c-.19.1-.39.15-.59.15-.74,0-1.39-.65-1.28-1.47l.9-6.86c.14-1.05-.19-2.11-.91-2.89l-4.63-5.08c-.68-.75-.28-1.96.72-2.14l6.36-1.19c1.1-.21,2.04-.91,2.54-1.91l2.94-5.83c.24-.47.7-.71,1.15-.71M17,0C15.39,0,13.94.89,13.21,2.34l-2.94,5.83c-.09.18-.26.3-.45.34l-6.36,1.19c-1.51.28-2.75,1.37-3.24,2.82-.49,1.46-.15,3.07.89,4.21l4.63,5.08c.13.14.19.33.16.52l-.9,6.86c-.16,1.21.21,2.44,1.01,3.35.81.92,1.97,1.45,3.19,1.45.67,0,1.34-.16,1.94-.47l5.56-2.86c.09-.05.19-.07.29-.07s.2.02.29.07l5.56,2.86c.6.31,1.27.47,1.94.47,1.22,0,2.39-.53,3.19-1.45.8-.92,1.17-2.14,1.01-3.35l-.9-6.85c-.03-.19.03-.38.16-.52l4.63-5.08c1.04-1.14,1.38-2.75.89-4.21-.49-1.46-1.73-2.54-3.24-2.82l-6.36-1.19c-.19-.04-.36-.16-.45-.34l-2.94-5.83C20.06.89,18.61,0,17,0h0Z"/>
</svg>