<?xml version="1.0" encoding="UTF-8"?>
<svg id="Layer_1" xmlns="http://www.w3.org/2000/svg" version="1.1" viewBox="0 0 34 34">
  <!-- Generator: Adobe Illustrator 30.1.0, SVG Export Plug-In . SVG Version: 2.1.1 Build 136)  -->
  <path d="M17,2.36c.48,0,.95.25,1.2.74l3.06,6.08c.53,1.04,1.51,1.78,2.65,2l6.63,1.24c1.04.19,1.46,1.45.75,2.23l-4.83,5.3c-.74.82-1.09,1.92-.95,3.02l.94,7.14c.11.85-.57,1.53-1.33,1.53-.2,0-.41-.05-.61-.15l-5.8-2.99c-.54-.28-1.12-.42-1.71-.42-.59,0-1.17.14-1.71.42l-5.8,2.99c-.2.1-.41.15-.61.15-.77,0-1.45-.67-1.33-1.53l.94-7.15c.14-1.1-.2-2.2-.95-3.02l-4.83-5.3c-.71-.78-.29-2.04.75-2.24l6.63-1.24c1.15-.21,2.13-.95,2.65-2l3.06-6.08c.25-.49.72-.74,1.2-.74M17,0C15.59,0,14.33.78,13.69,2.04l-3.06,6.08c-.19.38-.56.66-.98.74l-6.63,1.24c-1.32.25-2.4,1.19-2.83,2.47-.43,1.27-.13,2.68.78,3.68l4.83,5.3c.28.3.4.71.35,1.12l-.94,7.15c-.14,1.06.18,2.13.88,2.93.71.81,1.72,1.27,2.79,1.27.58,0,1.17-.14,1.69-.41l5.8-2.99c.19-.1.41-.15.63-.15.22,0,.44.05.63.15l5.8,2.99c.53.27,1.11.41,1.69.41,1.07,0,2.08-.46,2.79-1.27.7-.8,1.02-1.87.88-2.93l-.94-7.14c-.05-.41.07-.82.35-1.12l4.83-5.3c.9-.99,1.2-2.4.78-3.68-.43-1.27-1.51-2.22-2.83-2.46l-6.63-1.24c-.42-.08-.79-.36-.98-.74l-3.06-6.08C19.67.78,18.41,0,17,0h0Z"/>
</svg>