<?xml version="1.0" encoding="UTF-8"?>
<svg id="Layer_1" xmlns="http://www.w3.org/2000/svg" version="1.1" viewBox="0 0 34 34">
  <!-- Generator: Adobe Illustrator 30.1.0, SVG Export Plug-In . SVG Version: 2.1.1 Build 136)  -->
  <path d="M17,5.37c.38,0,.76.2.95.59l2.43,4.83c.42.83,1.2,1.42,2.11,1.59l5.27.99c.82.15,1.16,1.16.59,1.77l-3.84,4.21c-.59.65-.87,1.53-.75,2.4l.75,5.68c.09.68-.45,1.21-1.06,1.21-.16,0-.33-.04-.49-.12l-4.61-2.37c-.43-.22-.89-.33-1.36-.33-.47,0-.93.11-1.36.33l-4.61,2.37c-.16.08-.33.12-.49.12-.61,0-1.15-.54-1.06-1.21l.75-5.68c.11-.87-.16-1.75-.75-2.4l-3.84-4.21c-.57-.62-.23-1.62.59-1.78l5.27-.99c.91-.17,1.69-.76,2.11-1.59l2.43-4.83c.2-.39.58-.59.95-.59M17,0C14.56,0,12.35,1.36,11.25,3.54l-1.9,3.78-4.1.77c-2.29.43-4.18,2.07-4.92,4.28-.74,2.21-.23,4.66,1.35,6.38l3.09,3.39-.6,4.58c-.24,1.84.32,3.69,1.54,5.08,1.22,1.4,2.99,2.2,4.84,2.2,1.02,0,2.04-.25,2.95-.72l3.51-1.81,3.51,1.81c.91.47,1.93.72,2.95.72,1.85,0,3.62-.8,4.84-2.2,1.22-1.39,1.78-3.24,1.54-5.08l-.6-4.58,3.09-3.39c1.57-1.72,2.09-4.17,1.35-6.38-.74-2.21-2.62-3.85-4.92-4.28l-4.1-.77-1.9-3.78C21.65,1.36,19.44,0,17,0h0Z"/>
</svg>