<?xml version="1.0" encoding="UTF-8"?>
<svg id="Layer_1" xmlns="http://www.w3.org/2000/svg" version="1.1" viewBox="0 0 34 34">
  <!-- Generator: Adobe Illustrator 30.1.0, SVG Export Plug-In . SVG Version: 2.1.1 Build 136)  -->
  <path d="M17,7.16c.32,0,.64.17.81.5l2.06,4.09c.35.7,1.01,1.2,1.78,1.34l4.45.83c.7.13.98.98.5,1.5l-3.24,3.56c-.5.55-.73,1.29-.64,2.03l.63,4.8c.08.57-.38,1.03-.9,1.03-.14,0-.28-.03-.41-.1l-3.89-2.01c-.36-.19-.76-.28-1.15-.28-.39,0-.79.09-1.15.28l-3.89,2.01c-.14.07-.28.1-.41.1-.51,0-.97-.45-.9-1.03l.63-4.8c.1-.74-.14-1.48-.64-2.03l-3.24-3.56c-.48-.52-.2-1.37.5-1.5l4.45-.83c.77-.14,1.43-.64,1.78-1.34l2.06-4.09c.17-.33.49-.5.81-.5M17,0c-3.06,0-5.82,1.7-7.2,4.44l-1.02,2.03-2.19.41c-2.87.54-5.23,2.59-6.16,5.37-.93,2.77-.28,5.84,1.69,8l1.79,1.97-.35,2.66c-.3,2.3.4,4.63,1.93,6.37,1.53,1.75,3.74,2.75,6.07,2.75,1.28,0,2.55-.31,3.69-.9l1.77-.91,1.77.91c1.14.59,2.42.9,3.69.9,2.32,0,4.53-1,6.07-2.75,1.53-1.74,2.23-4.07,1.93-6.37l-.35-2.66,1.79-1.97c1.97-2.16,2.62-5.23,1.69-8-.93-2.77-3.29-4.83-6.16-5.37l-2.19-.41-1.02-2.03c-1.38-2.74-4.14-4.44-7.2-4.44h0Z"/>
</svg>