<?xml version="1.0" encoding="UTF-8"?>
<svg id="Layer_1" xmlns="http://www.w3.org/2000/svg" version="1.1" viewBox="0 0 34 34">
  <!-- Generator: Adobe Illustrator 30.1.0, SVG Export Plug-In . SVG Version: 2.1.1 Build 136)  -->
  <path d="M17,4.15c.42,0,.84.22,1.05.65l2.69,5.33c.46.92,1.32,1.56,2.33,1.75l5.81,1.09c.91.17,1.28,1.28.65,1.96l-4.24,4.65c-.65.72-.96,1.69-.83,2.65l.83,6.27c.1.75-.5,1.34-1.17,1.34-.18,0-.36-.04-.54-.13l-5.09-2.62c-.47-.24-.99-.36-1.5-.36s-1.03.12-1.5.36l-5.09,2.62c-.18.09-.36.13-.54.13-.67,0-1.27-.59-1.17-1.34l.83-6.27c.13-.96-.18-1.93-.83-2.65l-4.24-4.65c-.62-.68-.26-1.79.65-1.96l5.81-1.09c1.01-.19,1.87-.84,2.33-1.75l2.69-5.34c.22-.43.64-.65,1.05-.65M17,0C14.97,0,13.15,1.12,12.24,2.94l-2.49,4.95-5.39,1.01c-1.9.36-3.46,1.72-4.08,3.55-.61,1.83-.19,3.86,1.12,5.29l3.97,4.35-.77,5.87c-.2,1.53.26,3.06,1.27,4.21,1.02,1.16,2.48,1.82,4.01,1.82.84,0,1.69-.21,2.44-.59l4.69-2.41,4.69,2.41c.75.39,1.6.59,2.44.59,1.53,0,3-.66,4.01-1.82,1.01-1.15,1.48-2.69,1.27-4.21l-.77-5.87,3.97-4.35c1.3-1.43,1.73-3.46,1.12-5.29-.61-1.83-2.18-3.19-4.08-3.55l-5.39-1.01-2.49-4.95C20.85,1.12,19.03,0,17,0h0Z"/>
</svg>