<?xml version="1.0" encoding="UTF-8"?>
<svg id="Layer_1" xmlns="http://www.w3.org/2000/svg" version="1.1" viewBox="0 0 39 39">
  <!-- Generator: Adobe Illustrator 30.1.0, SVG Export Plug-In . SVG Version: 2.1.1 Build 136)  -->
  <g>
    <g>
      <rect x="18.14" y="9.87" width="2.73" height="2.73"/>
      <path d="M20.68,10.06v2.36h-2.36v-2.36h2.36M21.05,9.69h-3.09v3.09h3.09v-3.09h0Z"/>
    </g>
    <g>
      <polygon points="15.78 29.12 15.78 26.4 18.14 26.4 18.14 19.39 15.78 19.39 15.78 16.67 20.86 16.67 20.86 26.4 23.22 26.4 23.22 29.12 15.78 29.12"/>
      <path d="M20.68,16.85v9.73h2.36v2.36h-7.08v-2.36h2.36v-7.37h-2.36v-2.36h4.72M21.05,16.49h-5.45v3.09h2.36v6.64h-2.36v3.09h7.81v-3.09h-2.36v-9.73h0Z"/>
    </g>
  </g>
  <circle id="Outer" cx="19.5" cy="19.5" r="18.15" fill="none" stroke="#000" stroke-width="2.71"/>
</svg>