<?xml version="1.0" encoding="UTF-8"?>
<svg id="Layer_1" xmlns="http://www.w3.org/2000/svg" version="1.1" viewBox="0 0 39 39">
  <!-- Generator: Adobe Illustrator 30.1.0, SVG Export Plug-In . SVG Version: 2.1.1 Build 136)  -->
  <g>
    <g>
      <rect x="18.11" y="10.62" width="2.79" height="2.79"/>
      <path d="M20.53,10.98v2.06h-2.06v-2.06h2.06M21.26,10.25h-3.52v3.52h3.52v-3.52h0Z"/>
    </g>
    <g>
      <polygon points="16.05 28.21 16.05 25.42 18.11 25.42 18.11 19.74 16.05 19.74 16.05 16.95 20.89 16.95 20.89 25.42 22.95 25.42 22.95 28.21 16.05 28.21"/>
      <path d="M20.53,17.31v8.47h2.06v2.06h-6.17v-2.06h2.06v-6.42h-2.06v-2.06h4.11M21.26,16.58h-5.57v3.52h2.06v4.96h-2.06v3.52h7.63v-3.52h-2.06v-8.47h0Z"/>
    </g>
  </g>
  <circle id="Outer" cx="19.5" cy="19.5" r="17.12" fill="none" stroke="#000" stroke-width="4.77"/>
</svg>