<?xml version="1.0" encoding="UTF-8"?>
<svg id="Layer_1" xmlns="http://www.w3.org/2000/svg" version="1.1" viewBox="0 0 39 39">
  <!-- Generator: Adobe Illustrator 30.1.0, SVG Export Plug-In . SVG Version: 2.1.1 Build 136)  -->
  <g>
    <g>
      <rect x="18.05" y="11.85" width="2.9" height="2.9"/>
      <path d="M20.28,12.52v1.56h-1.56v-1.56h1.56M21.62,11.18h-4.24v4.24h4.24v-4.24h0Z"/>
    </g>
    <g>
      <polygon points="16.48 26.72 16.48 23.82 18.05 23.82 18.05 20.28 16.48 20.28 16.48 17.37 20.95 17.37 20.95 23.82 22.52 23.82 22.52 26.72 16.48 26.72"/>
      <path d="M20.28,18.04v6.45h1.56v1.56h-4.69v-1.56h1.56v-4.88h-1.56v-1.56h3.13M21.62,16.7h-5.81v4.24h1.56v2.2h-1.56v4.24h7.37v-4.24h-1.56v-6.45h0Z"/>
    </g>
  </g>
  <circle id="Outer" cx="19.5" cy="19.5" r="15.39" fill="none" stroke="#000" stroke-width="8.21"/>
</svg>