<?xml version="1.0" encoding="UTF-8"?>
<svg id="Layer_1" xmlns="http://www.w3.org/2000/svg" version="1.1" viewBox="0 0 39 39">
  <!-- Generator: Adobe Illustrator 30.1.0, SVG Export Plug-In . SVG Version: 2.1.1 Build 136)  -->
  <g>
    <g>
      <rect x="18.13" y="10.12" width="2.75" height="2.75"/>
      <path d="M20.63,10.36v2.26h-2.26v-2.26h2.26M21.12,9.88h-3.23v3.23h3.23v-3.23h0Z"/>
    </g>
    <g>
      <polygon points="15.87 28.82 15.87 26.07 18.13 26.07 18.13 19.51 15.87 19.51 15.87 16.76 20.87 16.76 20.87 26.07 23.13 26.07 23.13 28.82 15.87 28.82"/>
      <path d="M20.63,17.01v9.31h2.26v2.26h-6.78v-2.26h2.26v-7.05h-2.26v-2.26h4.52M21.12,16.52h-5.49v3.23h2.26v6.08h-2.26v3.23h7.75v-3.23h-2.26v-9.31h0Z"/>
    </g>
  </g>
  <circle id="Outer" cx="19.5" cy="19.5" r="17.81" fill="none" stroke="#000" stroke-width="3.39"/>
</svg>