<?xml version="1.0" encoding="UTF-8"?>
<svg id="Layer_1" xmlns="http://www.w3.org/2000/svg" version="1.1" viewBox="0 0 24 24">
  <!-- Generator: Adobe Illustrator 30.1.0, SVG Export Plug-In . SVG Version: 2.1.1 Build 136)  -->
  <path d="M12,3.79c.27,0,.53.14.67.42l1.72,3.41c.29.59.84,1,1.49,1.12l3.72.7c.58.11.82.82.42,1.25l-2.71,2.97c-.42.46-.61,1.08-.53,1.69l.53,4.01c.06.48-.32.86-.75.86-.11,0-.23-.03-.34-.09l-3.25-1.67c-.3-.16-.63-.23-.96-.23-.33,0-.66.08-.96.23l-3.25,1.67c-.11.06-.23.09-.34.09-.43,0-.81-.38-.75-.86l.53-4.01c.08-.61-.11-1.23-.53-1.69l-2.71-2.97c-.4-.44-.16-1.14.42-1.25l3.72-.7c.64-.12,1.19-.53,1.49-1.12l1.72-3.41c.14-.28.41-.42.67-.42M12,0C10.27,0,8.72.96,7.94,2.5l-1.34,2.67-2.89.54c-1.62.3-2.95,1.46-3.47,3.02-.52,1.56-.16,3.29.95,4.51l2.18,2.39-.43,3.23c-.17,1.3.22,2.61,1.09,3.59.86.99,2.11,1.55,3.42,1.55.72,0,1.44-.17,2.08-.51l2.48-1.28,2.48,1.28c.64.33,1.36.51,2.08.51,1.31,0,2.55-.57,3.42-1.55.86-.98,1.26-2.29,1.09-3.59l-.43-3.23,2.18-2.39c1.11-1.22,1.47-2.94.95-4.5-.52-1.56-1.85-2.72-3.47-3.02l-2.9-.54-1.34-2.67C15.28.96,13.73,0,12,0h0Z"/>
</svg>