<?xml version="1.0" encoding="UTF-8"?>
<svg id="Layer_1" xmlns="http://www.w3.org/2000/svg" version="1.1" viewBox="0 0 17 17">
  <!-- Generator: Adobe Illustrator 30.1.0, SVG Export Plug-In . SVG Version: 2.1.1 Build 136)  -->
  <circle id="Outer" cx="8.5" cy="8.5" r="7.76" fill="none" stroke="#000" stroke-width="1.48"/>
  <g>
    <g>
      <rect x="7.96" y="11.31" width="1.06" height="1.06"/>
      <path d="M8.92,11.41v.85h-.85v-.85h.85M9.13,11.2h-1.28v1.28h1.28v-1.28h0Z"/>
    </g>
    <g>
      <path d="M7.96,10.13v-.43c0-.43.16-.84.45-1.16l.84-.93c.21-.24.33-.54.33-.86,0-.44-.36-.81-.81-.81h-.54c-.45,0-.81.36-.81.81v.11h-1.07v-.11c0-1.03.85-1.87,1.88-1.87h.54c1.04,0,1.88.84,1.88,1.87,0,.58-.21,1.14-.6,1.57l-.84.94c-.11.13-.18.28-.18.45v.43h-1.07Z"/>
      <path d="M8.77,4.99c.98,0,1.78.79,1.78,1.77,0,.55-.21,1.09-.58,1.5l-.84.93c-.13.14-.2.32-.2.52v.32h-.85v-.32c0-.4.15-.79.42-1.09l.84-.93c.23-.26.36-.59.36-.93,0-.5-.41-.91-.92-.91h-.54c-.51,0-.92.41-.92.91h-.86c0-.97.8-1.77,1.78-1.77h.54M8.77,4.77h-.54c-1.1,0-1.99.89-1.99,1.98v.21h1.28v-.21c0-.39.32-.7.71-.7h.54c.39,0,.71.31.71.7,0,.29-.11.57-.3.79l-.84.93c-.31.34-.47.77-.48,1.23v.32s0,.21,0,.21h1.27v-.21s0-.32,0-.32c0-.14.05-.27.15-.38l.84-.93c.41-.45.63-1.03.63-1.64,0-1.09-.89-1.98-1.99-1.98h0Z"/>
    </g>
  </g>
</svg>