<?xml version="1.0" encoding="UTF-8"?>
<svg id="Layer_1" xmlns="http://www.w3.org/2000/svg" version="1.1" viewBox="0 0 17 17">
  <!-- Generator: Adobe Illustrator 30.1.0, SVG Export Plug-In . SVG Version: 2.1.1 Build 136)  -->
  <circle id="Outer" cx="8.5" cy="8.5" r="7.16" fill="none" stroke="#000" stroke-width="2.68"/>
  <g>
    <g>
      <rect x="7.96" y="10.85" width="1.07" height="1.07"/>
      <path d="M8.82,11.06v.65h-.65v-.65h.65M9.24,10.64h-1.5v1.5h1.5v-1.5h0Z"/>
    </g>
    <g>
      <path d="M7.96,9.77v-.46c0-.36.13-.71.37-.97l.64-.71c.14-.16.22-.35.22-.56,0-.26-.22-.48-.48-.48h-.41c-.27,0-.49.22-.49.48v.21h-1.08v-.21c0-.86.7-1.55,1.56-1.55h.41c.86,0,1.56.7,1.56,1.55,0,.47-.18.93-.49,1.28l-.64.71c-.07.07-.1.16-.1.25v.46h-1.07Z"/>
      <path d="M8.71,5.73c.74,0,1.35.6,1.35,1.34,0,.42-.16.82-.44,1.14l-.64.71c-.1.11-.15.25-.15.39v.24h-.65v-.24c0-.31.11-.6.32-.83l.64-.71c.18-.19.27-.44.27-.71,0-.38-.31-.69-.7-.69h-.41c-.38,0-.7.31-.7.69h-.65c0-.74.61-1.34,1.35-1.34h.41M8.71,5.3h-.41c-.98,0-1.77.79-1.77,1.77v.43h1.5v-.43c0-.15.12-.27.27-.27h.41c.15,0,.27.12.27.27,0,.16-.06.3-.16.42l-.64.71c-.28.3-.43.7-.43,1.11v.25s0,.42,0,.42h1.49v-.42s0-.24,0-.24c0-.04.01-.08.04-.11l.64-.71c.35-.39.55-.9.55-1.42,0-.97-.8-1.77-1.77-1.77h0Z"/>
    </g>
  </g>
</svg>