<?xml version="1.0" encoding="UTF-8"?>
<svg id="Layer_1" xmlns="http://www.w3.org/2000/svg" version="1.1" viewBox="0 0 17 17">
  <!-- Generator: Adobe Illustrator 30.1.0, SVG Export Plug-In . SVG Version: 2.1.1 Build 136)  -->
  <circle id="Outer" cx="8.5" cy="8.5" r="6.71" fill="none" stroke="#000" stroke-width="3.58"/>
  <g>
    <g>
      <rect x="7.95" y="10.5" width="1.09" height="1.09"/>
      <path d="M8.75,10.8v.51h-.51v-.51h.51M9.33,10.21h-1.68v1.68h1.68v-1.68h0Z"/>
    </g>
    <g>
      <path d="M7.95,9.53v-.48c0-.31.11-.61.32-.85l.5-.56c.09-.1.14-.23.14-.36s-.11-.25-.25-.25h-.32c-.14,0-.26.11-.26.25v.29h-1.1v-.29c0-.74.61-1.34,1.35-1.34h.32c.75,0,1.35.6,1.35,1.34,0,.4-.15.79-.42,1.09l-.5.56s-.05.07-.05.11v.48h-1.09Z"/>
      <path d="M8.66,6.24c.58,0,1.06.47,1.06,1.05,0,.33-.12.65-.34.89l-.5.56c-.08.09-.12.19-.12.31v.19h-.51v-.19c0-.24.09-.47.25-.65l.5-.56c.14-.15.21-.35.21-.55,0-.3-.25-.54-.55-.54h-.32c-.3,0-.55.24-.55.54h-.51c0-.58.47-1.05,1.06-1.05h.32M8.66,5.66h-.32c-.91,0-1.64.73-1.64,1.64v.58h1.48l-.12.13c-.26.28-.4.65-.4,1.04v.2s0,.58,0,.58h1.66v-.58s0-.15,0-.15l.47-.52c.32-.35.49-.81.49-1.28,0-.9-.74-1.64-1.64-1.64h0ZM8.38,7.33h.24s-.03.09-.06.12l-.19.21v-.33h0Z"/>
    </g>
  </g>
</svg>