<?xml version="1.0" encoding="UTF-8"?>
<svg id="Layer_1" xmlns="http://www.w3.org/2000/svg" version="1.1" viewBox="0 0 17 17">
  <!-- Generator: Adobe Illustrator 30.1.0, SVG Export Plug-In . SVG Version: 2.1.1 Build 136)  -->
  <circle id="Outer" cx="8.5" cy="8.5" r="6.86" fill="none" stroke="#000" stroke-width="3.28"/>
  <g>
    <g>
      <rect x="7.95" y="10.62" width="1.08" height="1.08"/>
      <path d="M8.77,10.88v.55h-.55v-.55h.55M9.3,10.35h-1.61v1.61h1.61v-1.61h0Z"/>
    </g>
    <g>
      <path d="M7.96,9.61v-.47c0-.33.12-.64.34-.89l.55-.6c.11-.12.16-.27.16-.42,0-.18-.15-.33-.33-.33h-.35c-.18,0-.33.15-.33.33v.27h-1.09v-.27c0-.78.64-1.41,1.42-1.41h.35c.78,0,1.42.63,1.42,1.41,0,.42-.16.83-.44,1.15l-.55.6s-.06.1-.06.16v.47h-1.08Z"/>
      <path d="M8.68,6.08c.64,0,1.15.51,1.15,1.14,0,.36-.13.7-.37.97l-.55.61c-.08.09-.13.21-.13.34v.21h-.55v-.21c0-.26.1-.51.27-.71l.55-.61c.15-.17.23-.38.23-.6,0-.33-.27-.59-.6-.59h-.35c-.33,0-.6.27-.6.59h-.56c0-.63.52-1.14,1.15-1.14h.35M8.68,5.54h-.35c-.93,0-1.68.75-1.68,1.68v.53h1.62v-.53s.03-.06.06-.06h.35s.06.03.06.06c0,.09-.03.18-.1.25l-.55.61c-.26.29-.41.67-.41,1.06v.22s0,.53,0,.53h1.6v-.53s0-.21,0-.21l.54-.59c.33-.36.51-.84.51-1.33,0-.92-.76-1.68-1.68-1.68h0Z"/>
    </g>
  </g>
</svg>