<?xml version="1.0" encoding="UTF-8"?>
<svg id="Layer_1" xmlns="http://www.w3.org/2000/svg" version="1.1" viewBox="0 0 17 17">
  <!-- Generator: Adobe Illustrator 30.1.0, SVG Export Plug-In . SVG Version: 2.1.1 Build 136)  -->
  <circle id="Outer" cx="8.5" cy="8.5" r="7.91" fill="none" stroke="#000" stroke-width="1.18"/>
  <g>
    <g>
      <rect x="7.96" y="11.42" width="1.06" height="1.07"/>
      <path d="M8.95,11.5v.9h-.91v-.9h.91M9.11,11.34h-1.22v1.22h1.22v-1.22h0Z"/>
    </g>
    <g>
      <path d="M7.96,10.23v-.42c0-.45.16-.88.47-1.21l.9-.99c.23-.26.36-.59.36-.93,0-.49-.4-.89-.9-.89h-.58c-.49,0-.9.4-.9.89v.08h-1.07v-.08c0-1.08.88-1.96,1.97-1.96h.58c1.09,0,1.97.88,1.97,1.96,0,.61-.23,1.19-.63,1.65l-.9.99c-.13.14-.2.31-.2.5v.42h-1.07Z"/>
      <path d="M8.79,4.8c1.04,0,1.89.84,1.89,1.88,0,.59-.22,1.15-.61,1.59l-.9.99c-.14.15-.22.34-.22.55v.34h-.91v-.34c0-.43.16-.84.45-1.16l.9-.99c.25-.27.38-.62.38-.99,0-.53-.44-.97-.98-.97h-.58c-.54,0-.98.44-.98.97h-.91c0-1.03.85-1.88,1.89-1.88h.58M8.79,4.64h-.58c-1.13,0-2.05.91-2.05,2.04v.16h1.23v-.16c0-.45.37-.81.82-.81h.58c.45,0,.82.36.82.81,0,.33-.12.64-.34.88l-.9.99c-.31.35-.49.8-.49,1.26v.34s0,.16,0,.16h1.22v-.16s0-.34,0-.34c0-.17.06-.32.18-.45l.9-.99c.42-.47.65-1.07.65-1.7,0-1.12-.92-2.04-2.05-2.04h0Z"/>
    </g>
  </g>
</svg>