<?xml version="1.0" encoding="UTF-8"?>
<svg id="Layer_1" xmlns="http://www.w3.org/2000/svg" version="1.1" viewBox="0 0 17 17">
  <!-- Generator: Adobe Illustrator 30.1.0, SVG Export Plug-In . SVG Version: 2.1.1 Build 136)  -->
  <circle id="Outer" cx="8.5" cy="8.5" r="7.46" fill="none" stroke="#000" stroke-width="2.08"/>
  <g>
    <g>
      <rect x="7.96" y="11.08" width="1.07" height="1.07"/>
      <path d="M8.87,11.24v.75h-.75v-.75h.75M9.19,10.92h-1.38v1.38h1.38v-1.38h0Z"/>
    </g>
    <g>
      <path d="M7.96,9.94v-.44c0-.39.14-.77.41-1.06l.74-.82c.18-.19.27-.45.27-.71,0-.35-.29-.64-.65-.64h-.48c-.36,0-.65.29-.65.64v.16h-1.07v-.16c0-.94.77-1.71,1.72-1.71h.48c.95,0,1.72.77,1.72,1.71,0,.53-.19,1.03-.55,1.42l-.74.82c-.09.1-.14.22-.14.35v.44h-1.07Z"/>
      <path d="M8.74,5.36c.86,0,1.56.7,1.56,1.55,0,.49-.18.95-.51,1.31l-.74.82c-.11.13-.18.28-.18.46v.28h-.75v-.28c0-.35.13-.69.37-.96l.74-.82c.2-.22.31-.51.31-.81,0-.44-.36-.8-.81-.8h-.48c-.44,0-.81.36-.81.8h-.75c0-.85.7-1.55,1.56-1.55h.48M8.74,5.04h-.48c-1.04,0-1.88.84-1.88,1.87v.32h1.39v-.32c0-.27.22-.48.49-.48h.48c.27,0,.49.22.49.48,0,.22-.08.44-.23.6l-.74.82c-.29.32-.45.74-.45,1.17v.29s0,.32,0,.32h1.38v-.32s0-.28,0-.28c0-.09.03-.17.1-.24l.74-.82c.38-.42.59-.96.59-1.53,0-1.03-.84-1.87-1.88-1.87h0Z"/>
    </g>
  </g>
</svg>