<?xml version="1.0" encoding="UTF-8"?>
<svg id="Layer_1" xmlns="http://www.w3.org/2000/svg" version="1.1" viewBox="0 0 47 47">
  <!-- Generator: Adobe Illustrator 30.1.0, SVG Export Plug-In . SVG Version: 2.1.1 Build 136)  -->
  <circle id="Outer" cx="23.5" cy="23.5" r="18.55" fill="none" stroke="#000" stroke-width="9.9"/>
  <g>
    <g>
      <rect x="21.98" y="29.04" width="3.02" height="3.02"/>
      <path d="M24.19,29.85v1.4h-1.4v-1.4h1.4M25.81,28.23h-4.63v4.63h4.63v-4.63h0Z"/>
    </g>
    <g>
      <path d="M21.99,26.36v-1.33c0-.87.31-1.7.89-2.34l1.39-1.54c.25-.27.38-.62.38-.99,0-.38-.32-.69-.7-.69h-.89c-.39,0-.7.31-.7.69v.81h-3.03v-.81c0-2.05,1.67-3.71,3.73-3.71h.89c2.06,0,3.73,1.67,3.73,3.71,0,1.11-.41,2.18-1.16,3.01l-1.39,1.54c-.08.09-.13.2-.13.32v1.33h-3.02Z"/>
      <path d="M23.95,17.26c1.61,0,2.93,1.3,2.93,2.91,0,.91-.34,1.79-.95,2.47l-1.39,1.54c-.22.24-.33.53-.34.85v.53h-1.41v-.53c0-.66.24-1.3.69-1.79l1.39-1.54c.38-.42.59-.96.59-1.53,0-.83-.68-1.5-1.51-1.5h-.89c-.83,0-1.51.67-1.51,1.5h-1.41c0-1.6,1.31-2.91,2.93-2.91h.89M23.95,15.64h-.89c-2.5,0-4.54,2.03-4.54,4.52v1.62h4.1l-.33.37c-.71.79-1.11,1.81-1.11,2.87v.55s.02,1.6.02,1.6h4.6l.02-1.6v-.41s1.31-1.45,1.31-1.45c.88-.98,1.37-2.24,1.37-3.55,0-2.49-2.04-4.52-4.54-4.52h0ZM23.16,20.28h.68c-.02.12-.08.24-.16.33l-.51.57v-.9h0Z"/>
    </g>
  </g>
</svg>