<?xml version="1.0" encoding="UTF-8"?>
<svg id="Layer_1" xmlns="http://www.w3.org/2000/svg" version="1.1" viewBox="0 0 47 47">
  <!-- Generator: Adobe Illustrator 30.1.0, SVG Export Plug-In . SVG Version: 2.1.1 Build 136)  -->
  <circle id="Outer" cx="23.5" cy="23.5" r="20.63" fill="none" stroke="#000" stroke-width="5.74"/>
  <g>
    <g>
      <rect x="22.01" y="30.63" width="2.95" height="2.95"/>
      <path d="M24.52,31.07v2.07h-2.07v-2.07h2.07M25.4,30.19h-3.83v3.83h3.83v-3.83h0Z"/>
    </g>
    <g>
      <path d="M22.02,27.49v-1.22c0-1.09.4-2.13,1.13-2.94l2.05-2.27c.49-.54.76-1.23.76-1.96,0-.98-.8-1.77-1.79-1.77h-1.31c-.99,0-1.79.8-1.79,1.77v.44h-2.96v-.44c0-2.6,2.13-4.72,4.75-4.72h1.31c2.62,0,4.75,2.12,4.75,4.72,0,1.45-.54,2.85-1.51,3.93l-2.05,2.27c-.25.27-.38.61-.38.96v1.22h-2.95Z"/>
      <path d="M24.16,14.83c2.38,0,4.31,1.92,4.31,4.28,0,1.34-.5,2.63-1.4,3.63l-2.05,2.27c-.32.35-.49.79-.49,1.26v.78h-2.07v-.78c0-.98.36-1.91,1.02-2.64l2.05-2.27c.56-.62.87-1.42.87-2.25,0-1.22-1-2.21-2.23-2.21h-1.31c-1.23,0-2.23.99-2.23,2.21h-2.08c0-2.36,1.93-4.28,4.31-4.28h1.31M24.16,13.95h-1.31c-2.86,0-5.19,2.32-5.19,5.16v.88h3.85v-.88c0-.73.6-1.33,1.35-1.33h1.31c.74,0,1.35.6,1.35,1.33,0,.61-.23,1.2-.64,1.66l-2.05,2.27c-.8.89-1.25,2.03-1.25,3.23v.79s.01.87.01.87h3.81v-.87s.02-.78.02-.78c0-.26.09-.48.27-.68l2.05-2.27c1.05-1.16,1.63-2.66,1.63-4.22,0-2.85-2.33-5.16-5.19-5.16h0Z"/>
    </g>
  </g>
</svg>