<?xml version="1.0" encoding="UTF-8"?>
<svg id="Layer_1" xmlns="http://www.w3.org/2000/svg" version="1.1" viewBox="0 0 47 47">
  <!-- Generator: Adobe Illustrator 30.1.0, SVG Export Plug-In . SVG Version: 2.1.1 Build 136)  -->
  <circle id="Outer" cx="23.5" cy="23.5" r="19.79" fill="none" stroke="#000" stroke-width="7.42"/>
  <g>
    <g>
      <rect x="22.01" y="30" width="2.96" height="2.96"/>
      <path d="M24.38,30.58v1.79h-1.79v-1.79h1.79M25.56,29.41h-4.14v4.14h4.14v-4.14h0Z"/>
    </g>
    <g>
      <path d="M22.01,27v-1.26c0-1,.36-1.95,1.03-2.68l1.77-1.96c.39-.43.6-.98.6-1.56,0-.73-.6-1.33-1.34-1.33h-1.14c-.74,0-1.34.6-1.34,1.33v.59h-2.98v-.59c0-2.37,1.94-4.29,4.32-4.29h1.14c2.38,0,4.32,1.93,4.32,4.29,0,1.31-.48,2.56-1.36,3.54l-1.77,1.96c-.18.2-.28.44-.28.7v1.26h-2.96Z"/>
      <path d="M24.07,15.84c2.06,0,3.73,1.66,3.73,3.71,0,1.16-.43,2.28-1.21,3.14l-1.77,1.96c-.27.3-.43.68-.43,1.09v.68h-1.79v-.68c0-.85.31-1.65.88-2.28l1.77-1.96c.48-.54.75-1.23.75-1.95,0-1.06-.87-1.92-1.93-1.92h-1.14c-1.06,0-1.93.86-1.93,1.92h-1.8c0-2.04,1.67-3.71,3.73-3.71h1.14M24.07,14.66h-1.14c-2.71,0-4.91,2.19-4.91,4.88v1.17h4.15v-1.17c0-.41.34-.74.75-.74h1.14c.42,0,.75.33.75.74,0,.43-.16.84-.45,1.16l-1.77,1.96c-.76.84-1.18,1.93-1.19,3.07v.69s.02,1.16.02,1.16h4.12v-1.16s.02-.68.02-.68c0-.12.04-.22.12-.31l1.77-1.96c.98-1.08,1.51-2.48,1.51-3.93,0-2.69-2.2-4.88-4.91-4.88h0Z"/>
    </g>
  </g>
</svg>