<?xml version="1.0" encoding="UTF-8"?>
<svg id="Layer_1" xmlns="http://www.w3.org/2000/svg" version="1.1" viewBox="0 0 47 47">
  <!-- Generator: Adobe Illustrator 30.1.0, SVG Export Plug-In . SVG Version: 2.1.1 Build 136)  -->
  <circle id="Outer" cx="23.5" cy="23.5" r="21.87" fill="none" stroke="#000" stroke-width="3.26"/>
  <g>
    <g>
      <rect x="22.01" y="31.57" width="2.94" height="2.94"/>
      <path d="M24.74,31.79v2.5h-2.5v-2.5h2.5M25.18,31.35h-3.38v3.38h3.38v-3.38h0Z"/>
    </g>
    <g>
      <path d="M22.02,28.29v-1.17c0-1.24.45-2.43,1.29-3.35l2.48-2.74c.64-.71.99-1.63.99-2.58,0-1.36-1.11-2.46-2.48-2.46h-1.59c-1.37,0-2.48,1.1-2.48,2.46v.22h-2.96v-.22c0-2.98,2.44-5.41,5.44-5.41h1.59c3,0,5.45,2.43,5.45,5.41,0,1.68-.62,3.3-1.75,4.55l-2.48,2.75c-.35.39-.54.87-.54,1.38v1.17h-2.95Z"/>
      <path d="M24.3,13.26c2.88,0,5.22,2.33,5.22,5.19,0,1.63-.6,3.19-1.7,4.4l-2.48,2.75c-.38.42-.6.95-.6,1.52v.95h-2.51v-.95c0-1.19.43-2.32,1.23-3.2l2.48-2.75c.68-.75,1.05-1.72,1.05-2.73,0-1.48-1.21-2.68-2.7-2.68h-1.59c-1.49,0-2.7,1.2-2.7,2.68h-2.52c0-2.86,2.34-5.19,5.22-5.19h1.59M24.3,12.82h-1.59c-3.12,0-5.67,2.53-5.67,5.63v.44h3.41v-.44c0-1.24,1.01-2.24,2.26-2.24h1.59c1.25,0,2.26,1.01,2.26,2.24,0,.9-.33,1.76-.94,2.43l-2.48,2.75c-.87.96-1.35,2.2-1.35,3.49v.95s.01.44.01.44h3.38v-.44s.01-.95.01-.95c0-.46.17-.88.48-1.23l2.48-2.75c1.17-1.29,1.81-2.96,1.81-4.7,0-3.1-2.54-5.63-5.67-5.63h0Z"/>
    </g>
  </g>
</svg>