<?xml version="1.0" encoding="UTF-8"?>
<svg id="Layer_1" xmlns="http://www.w3.org/2000/svg" version="1.1" viewBox="0 0 47 47">
  <!-- Generator: Adobe Illustrator 30.1.0, SVG Export Plug-In . SVG Version: 2.1.1 Build 136)  -->
  <circle id="Outer" cx="23.5" cy="23.5" r="18.96" fill="none" stroke="#000" stroke-width="9.08"/>
  <g>
    <g>
      <rect x="21.99" y="29.36" width="2.99" height="2.99"/>
      <path d="M24.25,30.09v1.53h-1.53v-1.53h1.53M25.72,28.62h-4.46v4.46h4.46v-4.46h0Z"/>
    </g>
    <g>
      <path d="M22,26.56v-1.31c0-.91.33-1.78.93-2.45l1.51-1.67c.29-.32.45-.74.45-1.17,0-.5-.41-.9-.91-.9h-.97c-.5,0-.91.4-.91.9v.73h-3.01v-.73c0-2.15,1.76-3.9,3.92-3.9h.97c2.16,0,3.92,1.75,3.92,3.9,0,1.17-.43,2.3-1.22,3.18l-1.51,1.68c-.12.13-.17.28-.17.44v1.31h-2.99Z"/>
      <path d="M23.99,16.8c1.76,0,3.19,1.42,3.19,3.16,0,.99-.37,1.95-1.03,2.68l-1.51,1.67c-.23.26-.36.58-.36.93v.58h-1.53v-.58c0-.72.26-1.41.75-1.95l1.51-1.67c.41-.46.64-1.05.64-1.66,0-.9-.74-1.63-1.65-1.63h-.97c-.91,0-1.65.73-1.65,1.63h-1.54c0-1.74,1.43-3.16,3.19-3.16h.97M23.99,15.33h-.97c-2.57,0-4.65,2.08-4.65,4.63v1.47h4.48v-1.47c0-.09.08-.17.18-.17h.97c.1,0,.18.08.18.17,0,.25-.09.49-.26.68l-1.51,1.67c-.73.8-1.13,1.84-1.13,2.93v.6s.02,1.46.02,1.46h4.44v-1.45s.02-.55.02-.55l1.5-1.66c.91-1.01,1.41-2.31,1.41-3.67,0-2.55-2.09-4.63-4.65-4.63h0Z"/>
    </g>
  </g>
</svg>