<?xml version="1.0" encoding="UTF-8"?>
<svg id="Layer_1" xmlns="http://www.w3.org/2000/svg" version="1.1" viewBox="0 0 47 47">
  <!-- Generator: Adobe Illustrator 30.1.0, SVG Export Plug-In . SVG Version: 2.1.1 Build 136)  -->
  <circle id="Outer" cx="23.5" cy="23.5" r="21.46" fill="none" stroke="#000" stroke-width="4.08"/>
  <g>
    <g>
      <rect x="22.01" y="31.26" width="2.94" height="2.94"/>
      <path d="M24.66,31.55v2.35h-2.35v-2.35h2.35M25.25,30.97h-3.53v3.53h3.53v-3.53h0Z"/>
    </g>
    <g>
      <path d="M22.02,28.02v-1.18c0-1.19.43-2.33,1.23-3.21l2.33-2.58c.59-.65.91-1.5.91-2.37,0-1.23-1.01-2.23-2.25-2.23h-1.5c-1.24,0-2.25,1-2.25,2.23v.29h-2.96v-.29c0-2.85,2.34-5.18,5.21-5.18h1.5c2.87,0,5.21,2.32,5.21,5.18,0,1.6-.59,3.15-1.67,4.34l-2.33,2.58c-.32.35-.49.78-.49,1.24v1.18h-2.95Z"/>
      <path d="M24.25,13.79c2.71,0,4.92,2.19,4.92,4.88,0,1.53-.57,3-1.6,4.14l-2.33,2.58c-.36.4-.56.9-.56,1.43v.89h-2.36v-.89c0-1.12.41-2.18,1.16-3.01l2.33-2.58c.64-.71.99-1.62.99-2.57,0-1.39-1.14-2.52-2.54-2.52h-1.5c-1.4,0-2.54,1.13-2.54,2.52h-2.38c0-2.69,2.21-4.88,4.92-4.88h1.5M24.25,13.2h-1.5c-3.03,0-5.5,2.45-5.5,5.47v.59h3.55v-.59c0-1.07.88-1.94,1.95-1.94h1.5c1.08,0,1.95.87,1.95,1.94,0,.8-.3,1.58-.84,2.17l-2.33,2.58c-.85.93-1.31,2.14-1.32,3.4v.9s.01.58.01.58h3.52v-.58s.01-.89.01-.89c0-.39.14-.75.41-1.05l2.33-2.58c1.13-1.25,1.75-2.86,1.75-4.54,0-3.02-2.47-5.47-5.5-5.47h0Z"/>
    </g>
  </g>
</svg>