<?xml version="1.0" encoding="UTF-8"?>
<svg id="Layer_1" xmlns="http://www.w3.org/2000/svg" version="1.1" viewBox="0 0 31 31">
  <!-- Generator: Adobe Illustrator 30.1.0, SVG Export Plug-In . SVG Version: 2.1.1 Build 136)  -->
  <circle id="Outer" cx="15.5" cy="15.5" r="14.42" fill="none" stroke="#000" stroke-width="2.15"/>
  <g>
    <g>
      <rect x="14.52" y="20.82" width="1.94" height="1.94"/>
      <path d="M16.32,20.97v1.65h-1.65v-1.65h1.65M16.61,20.68h-2.23v2.23h2.23v-2.23h0Z"/>
    </g>
    <g>
      <path d="M14.52,18.66v-.77c0-.82.3-1.6.85-2.21l1.63-1.81c.42-.47.66-1.07.66-1.7,0-.9-.73-1.62-1.64-1.62h-1.05c-.9,0-1.64.73-1.64,1.62v.15h-1.96v-.15c0-1.97,1.61-3.57,3.59-3.57h1.05c1.98,0,3.59,1.6,3.59,3.57,0,1.11-.41,2.17-1.16,3l-1.64,1.81c-.23.26-.36.57-.36.91v.77h-1.95Z"/>
      <path d="M16.02,8.75c1.9,0,3.45,1.54,3.45,3.42,0,1.07-.4,2.1-1.12,2.9l-1.63,1.81c-.25.28-.39.63-.39,1.01v.62h-1.66v-.62c0-.78.29-1.53.81-2.11l1.63-1.81c.45-.5.69-1.13.69-1.8,0-.98-.8-1.77-1.78-1.77h-1.05c-.98,0-1.78.79-1.78,1.77h-1.66c0-1.89,1.55-3.42,3.45-3.42h1.05M16.02,8.45h-1.05c-2.06,0-3.74,1.67-3.74,3.71v.29h2.25v-.29c0-.82.67-1.48,1.49-1.48h1.05c.82,0,1.49.66,1.49,1.48,0,.59-.22,1.16-.62,1.61l-1.63,1.81c-.57.63-.89,1.45-.89,2.3v.63s0,.29,0,.29h2.23v-.29s0-.62,0-.62c0-.3.11-.58.32-.81l1.64-1.81c.77-.85,1.19-1.95,1.19-3.1,0-2.05-1.68-3.71-3.74-3.71h0Z"/>
    </g>
  </g>
</svg>