<?xml version="1.0" encoding="UTF-8"?>
<svg id="Layer_1" xmlns="http://www.w3.org/2000/svg" version="1.1" viewBox="0 0 31 31">
  <!-- Generator: Adobe Illustrator 30.1.0, SVG Export Plug-In . SVG Version: 2.1.1 Build 136)  -->
  <circle id="Outer" cx="15.5" cy="15.5" r="13.61" fill="none" stroke="#000" stroke-width="3.79"/>
  <g>
    <g>
      <rect x="14.52" y="20.21" width="1.94" height="1.94"/>
      <path d="M16.17,20.5v1.36h-1.36v-1.36h1.36M16.75,19.91h-2.52v2.52h2.52v-2.52h0Z"/>
    </g>
    <g>
      <path d="M14.52,18.13v-.8c0-.72.26-1.41.74-1.94l1.35-1.49c.32-.36.5-.81.5-1.29,0-.64-.53-1.17-1.18-1.17h-.87c-.65,0-1.18.52-1.18,1.17v.29h-1.96v-.29c0-1.72,1.41-3.12,3.14-3.12h.87c1.73,0,3.14,1.4,3.14,3.12,0,.96-.36,1.88-1,2.59l-1.35,1.5c-.16.18-.25.4-.25.64v.81h-1.95Z"/>
      <path d="M15.93,9.78c1.57,0,2.85,1.27,2.85,2.83,0,.89-.33,1.74-.92,2.4l-1.35,1.5c-.21.23-.32.52-.33.83v.52h-1.37v-.52c0-.65.24-1.26.67-1.74l1.35-1.49c.37-.41.57-.94.57-1.49,0-.81-.66-1.46-1.47-1.46h-.87c-.81,0-1.47.66-1.47,1.46h-1.37c0-1.56,1.28-2.83,2.85-2.83h.87M15.93,9.2h-.87c-1.89,0-3.43,1.53-3.43,3.41v.58h2.54v-.58c0-.48.4-.88.89-.88h.87c.49,0,.89.39.89.88,0,.41-.15.79-.42,1.1l-1.35,1.49c-.53.58-.82,1.34-.82,2.13v.52s0,.58,0,.58h2.51v-.58s.01-.52.01-.52c0-.17.06-.32.18-.45l1.35-1.5c.69-.77,1.07-1.76,1.07-2.79,0-1.88-1.54-3.41-3.43-3.41h0Z"/>
    </g>
  </g>
</svg>