<?xml version="1.0" encoding="UTF-8"?>
<svg id="Layer_1" xmlns="http://www.w3.org/2000/svg" version="1.1" viewBox="0 0 31 31">
  <!-- Generator: Adobe Illustrator 30.1.0, SVG Export Plug-In . SVG Version: 2.1.1 Build 136)  -->
  <circle id="Outer" cx="15.5" cy="15.5" r="12.51" fill="none" stroke="#000" stroke-width="5.99"/>
  <g>
    <g>
      <rect x="14.5" y="19.36" width="1.98" height="1.97"/>
      <path d="M16,19.85v1.01h-1.01v-1.01h1.01M16.96,18.88h-2.94v2.94h2.94v-2.94h0Z"/>
    </g>
    <g>
      <path d="M14.51,17.52v-.86c0-.6.22-1.17.62-1.61l1-1.1c.19-.21.3-.49.3-.77,0-.33-.27-.59-.6-.59h-.64c-.33,0-.6.27-.6.59v.48h-1.98v-.48c0-1.42,1.16-2.57,2.59-2.57h.64c1.43,0,2.59,1.15,2.59,2.57,0,.77-.29,1.52-.81,2.09l-1,1.1c-.08.08-.12.18-.12.29v.86h-1.97Z"/>
      <path d="M15.82,11.08c1.16,0,2.1.94,2.1,2.09,0,.65-.24,1.28-.68,1.77l-1,1.1c-.15.17-.24.38-.24.61v.38h-1.01v-.38c0-.48.17-.93.5-1.29l1-1.1c.27-.3.42-.69.42-1.1,0-.59-.49-1.08-1.09-1.08h-.64c-.6,0-1.09.48-1.09,1.08h-1.02c0-1.15.94-2.09,2.1-2.09h.64M15.82,10.11h-.64c-1.69,0-3.07,1.37-3.07,3.05v.97h2.95v-.97c0-.06.05-.11.12-.11h.64c.06,0,.12.05.12.11,0,.17-.06.32-.17.45l-1,1.1c-.48.53-.75,1.22-.75,1.93v.39s.01.96.01.96h2.93v-.96s.01-.38.01-.38l.99-1.08c.6-.67.93-1.52.93-2.42,0-1.68-1.38-3.05-3.07-3.05h0Z"/>
    </g>
  </g>
</svg>