<?xml version="1.0" encoding="UTF-8"?>
<svg id="Layer_1" xmlns="http://www.w3.org/2000/svg" version="1.1" viewBox="0 0 31 31">
  <!-- Generator: Adobe Illustrator 30.1.0, SVG Export Plug-In . SVG Version: 2.1.1 Build 136)  -->
  <circle id="Outer" cx="15.5" cy="15.5" r="14.15" fill="none" stroke="#000" stroke-width="2.69"/>
  <g>
    <g>
      <rect x="14.52" y="20.62" width="1.94" height="1.94"/>
      <path d="M16.27,20.81v1.55h-1.55v-1.55h1.55M16.65,20.42h-2.33v2.33h2.33v-2.33h0Z"/>
    </g>
    <g>
      <path d="M14.52,18.48v-.78c0-.78.29-1.54.81-2.12l1.54-1.7c.39-.43.6-.99.6-1.56,0-.81-.67-1.47-1.48-1.47h-.99c-.82,0-1.48.66-1.48,1.47v.19h-1.95v-.19c0-1.88,1.54-3.41,3.44-3.41h.99c1.9,0,3.44,1.53,3.44,3.41,0,1.06-.39,2.07-1.1,2.86l-1.54,1.7c-.21.23-.32.51-.32.82v.78h-1.95Z"/>
      <path d="M15.99,9.09c1.79,0,3.24,1.44,3.24,3.22,0,1.01-.37,1.98-1.05,2.73l-1.54,1.7c-.24.26-.37.59-.37.95v.59h-1.56v-.59c0-.74.27-1.44.76-1.99l1.54-1.7c.42-.47.65-1.07.65-1.69,0-.92-.75-1.66-1.68-1.66h-.99c-.92,0-1.68.75-1.68,1.66h-1.57c0-1.78,1.45-3.22,3.24-3.22h.99M15.99,8.71h-.99c-2,0-3.63,1.62-3.63,3.61v.39h2.34v-.39c0-.7.58-1.28,1.29-1.28h.99c.71,0,1.29.57,1.29,1.28,0,.53-.2,1.04-.55,1.43l-1.54,1.7c-.56.62-.87,1.41-.87,2.24v.59s0,.38,0,.38h2.32v-.38s0-.59,0-.59c0-.26.09-.49.27-.69l1.54-1.7c.74-.82,1.15-1.89,1.15-2.99,0-1.99-1.63-3.61-3.63-3.61h0Z"/>
    </g>
  </g>
</svg>