<?xml version="1.0" encoding="UTF-8"?>
<svg id="Layer_1" xmlns="http://www.w3.org/2000/svg" version="1.1" viewBox="0 0 31 31">
  <!-- Generator: Adobe Illustrator 30.1.0, SVG Export Plug-In . SVG Version: 2.1.1 Build 136)  -->
  <circle id="Outer" cx="15.5" cy="15.5" r="12.24" fill="none" stroke="#000" stroke-width="6.53"/>
  <g>
    <g>
      <rect x="14.5" y="19.15" width="1.99" height="1.99"/>
      <path d="M15.95,19.69v.92h-.92v-.92h.92M17.02,18.62h-3.06v3.06h3.06v-3.06h0Z"/>
    </g>
    <g>
      <path d="M14.5,17.39v-.88c0-.58.21-1.12.59-1.54l.92-1.01c.16-.18.25-.41.25-.65,0-.25-.21-.46-.46-.46h-.59c-.26,0-.46.21-.46.46v.53h-2v-.53c0-1.35,1.1-2.45,2.46-2.45h.59c1.36,0,2.46,1.1,2.46,2.45,0,.73-.27,1.44-.76,1.98l-.92,1.01c-.06.06-.08.13-.08.21v.88h-1.99Z"/>
      <path d="M15.79,11.38c1.06,0,1.93.86,1.93,1.92,0,.6-.22,1.18-.63,1.63l-.92,1.01c-.14.16-.22.35-.22.56v.35h-.93v-.35c0-.44.16-.86.45-1.18l.92-1.01c.25-.28.39-.64.39-1.01,0-.55-.45-.99-1-.99h-.59c-.55,0-1,.44-1,.99h-.93c0-1.06.87-1.92,1.93-1.92h.59M15.79,10.32h-.59c-1.65,0-3,1.34-3,2.98v1.07h2.71l-.22.24c-.47.52-.73,1.19-.73,1.89v.36s.01,1.06.01,1.06h3.04v-1.05s.01-.27.01-.27l.86-.96c.58-.64.9-1.47.9-2.34,0-1.64-1.34-2.98-3-2.98h0ZM15.27,13.37h.45c-.01.08-.05.16-.11.22l-.34.37v-.59h0Z"/>
    </g>
  </g>
</svg>