<?xml version="1.0" encoding="UTF-8"?>
<svg id="Layer_1" xmlns="http://www.w3.org/2000/svg" version="1.1" viewBox="0 0 31 31">
  <!-- Generator: Adobe Illustrator 30.1.0, SVG Export Plug-In . SVG Version: 2.1.1 Build 136)  -->
  <circle id="Outer" cx="15.5" cy="15.5" r="13.05" fill="none" stroke="#000" stroke-width="4.89"/>
  <g>
    <g>
      <rect x="14.51" y="19.79" width="1.95" height="1.95"/>
      <path d="M16.08,20.17v1.18h-1.18v-1.18h1.18M16.86,19.4h-2.73v2.73h2.73v-2.73h0Z"/>
    </g>
    <g>
      <path d="M14.52,17.81v-.83c0-.66.24-1.29.68-1.77l1.17-1.29c.26-.28.4-.65.4-1.03,0-.48-.4-.88-.88-.88h-.75c-.49,0-.88.39-.88.88v.39h-1.96v-.39c0-1.56,1.28-2.83,2.85-2.83h.75c1.57,0,2.85,1.27,2.85,2.83,0,.86-.32,1.69-.9,2.33l-1.17,1.29c-.12.13-.18.29-.18.46v.83h-1.96Z"/>
      <path d="M15.87,10.45c1.36,0,2.46,1.1,2.46,2.44,0,.77-.28,1.5-.8,2.07l-1.17,1.29c-.18.2-.28.45-.28.72v.45h-1.18v-.45c0-.56.2-1.09.58-1.51l1.17-1.29c.32-.35.5-.81.5-1.29,0-.7-.57-1.26-1.27-1.26h-.75c-.7,0-1.27.57-1.27,1.26h-1.19c0-1.35,1.1-2.44,2.46-2.44h.75M15.87,9.67h-.75c-1.78,0-3.24,1.44-3.24,3.22v.78h2.74v-.78c0-.27.22-.49.5-.49h.75c.27,0,.5.22.5.49,0,.28-.11.56-.3.77l-1.17,1.29c-.5.56-.78,1.27-.78,2.02v.46s.01.77.01.77h2.71v-.77s.01-.45.01-.45c0-.08.03-.15.08-.21l1.17-1.29c.64-.71,1-1.63,1-2.59,0-1.78-1.45-3.22-3.24-3.22h0Z"/>
    </g>
  </g>
</svg>