<?xml version="1.0" encoding="UTF-8"?>
<svg id="Layer_1" xmlns="http://www.w3.org/2000/svg" version="1.1" viewBox="0 0 59 59">
  <!-- Generator: Adobe Illustrator 30.1.0, SVG Export Plug-In . SVG Version: 2.1.1 Build 136)  -->
  <g>
    <g>
      <rect x="27.44" y="14.94" width="4.12" height="4.12"/>
      <path d="M31.29,15.21v3.57h-3.57v-3.57h3.57M31.84,14.66h-4.68v4.68h4.68v-4.68h0Z"/>
    </g>
    <g>
      <polygon points="23.87 44.06 23.87 39.94 27.44 39.94 27.44 29.34 23.87 29.34 23.87 25.22 31.56 25.22 31.56 39.94 35.13 39.94 35.13 44.06 23.87 44.06"/>
      <path d="M31.29,25.49v14.72h3.57v3.57h-10.71v-3.57h3.57v-11.15h-3.57v-3.57h7.14M31.84,24.94h-8.25v4.68h3.57v10.04h-3.57v4.68h11.82v-4.68h-3.57v-14.72h0Z"/>
    </g>
  </g>
  <circle id="Outer" cx="29.5" cy="29.5" r="27.45" fill="none" stroke="#000" stroke-width="4.09"/>
</svg>