<?xml version="1.0" encoding="UTF-8"?>
<svg id="Layer_1" xmlns="http://www.w3.org/2000/svg" version="1.1" viewBox="0 0 59 59">
  <!-- Generator: Adobe Illustrator 30.1.0, SVG Export Plug-In . SVG Version: 2.1.1 Build 136)  -->
  <g>
    <g>
      <rect x="27.3" y="17.93" width="4.39" height="4.39"/>
      <path d="M30.68,18.95v2.37h-2.37v-2.37h2.37M32.71,16.92h-6.42v6.42h6.42v-6.42h0Z"/>
    </g>
    <g>
      <polygon points="24.94 40.42 24.94 36.03 27.3 36.03 27.3 30.67 24.94 30.67 24.94 26.28 31.7 26.28 31.7 36.03 34.06 36.03 34.06 40.42 24.94 40.42"/>
      <path d="M30.68,27.29v9.75h2.37v2.37h-7.1v-2.37h2.37v-7.39h-2.37v-2.37h4.73M32.71,25.27h-8.79v6.42h2.37v3.33h-2.37v6.42h11.15v-6.42h-2.37v-9.75h0Z"/>
    </g>
  </g>
  <circle id="Outer" cx="29.5" cy="29.5" r="23.29" fill="none" stroke="#000" stroke-width="12.43"/>
</svg>