<?xml version="1.0" encoding="UTF-8"?>
<svg id="Layer_1" xmlns="http://www.w3.org/2000/svg" version="1.1" viewBox="0 0 59 59">
  <!-- Generator: Adobe Illustrator 30.1.0, SVG Export Plug-In . SVG Version: 2.1.1 Build 136)  -->
  <g>
    <g>
      <rect x="27.36" y="16.82" width="4.28" height="4.28"/>
      <path d="M30.9,17.56v2.81h-2.81v-2.81h2.81M32.38,16.08h-5.76v5.76h5.76v-5.76h0Z"/>
    </g>
    <g>
      <polygon points="24.55 41.76 24.55 37.48 27.36 37.48 27.36 30.19 24.55 30.19 24.55 25.91 31.64 25.91 31.64 37.48 34.45 37.48 34.45 41.76 24.55 41.76"/>
      <path d="M30.9,26.65v11.57h2.81v2.81h-8.42v-2.81h2.81v-8.76h-2.81v-2.81h5.61M32.38,25.17h-8.56v5.76h2.81v5.81h-2.81v5.76h11.37v-5.76h-2.81v-11.57h0Z"/>
    </g>
  </g>
  <circle id="Outer" cx="29.5" cy="29.5" r="24.84" fill="none" stroke="#000" stroke-width="9.31"/>
</svg>