<?xml version="1.0" encoding="UTF-8"?>
<svg id="Layer_1" xmlns="http://www.w3.org/2000/svg" version="1.1" viewBox="0 0 59 59">
  <!-- Generator: Adobe Illustrator 30.1.0, SVG Export Plug-In . SVG Version: 2.1.1 Build 136)  -->
  <g>
    <g>
      <rect x="27.39" y="16.06" width="4.22" height="4.22"/>
      <path d="M31.06,16.62v3.11h-3.11v-3.11h3.11M32.16,15.51h-5.32v5.32h5.32v-5.32h0Z"/>
    </g>
    <g>
      <polygon points="24.28 42.68 24.28 38.46 27.39 38.46 27.39 29.86 24.28 29.86 24.28 25.64 31.61 25.64 31.61 38.46 34.72 38.46 34.72 42.68 24.28 42.68"/>
      <path d="M31.06,26.19v12.82h3.11v3.11h-9.33v-3.11h3.11v-9.71h-3.11v-3.11h6.22M32.16,25.09h-8.43v5.32h3.11v7.5h-3.11v5.32h11.54v-5.32h-3.11v-12.82h0Z"/>
    </g>
  </g>
  <circle id="Outer" cx="29.5" cy="29.5" r="25.9" fill="none" stroke="#000" stroke-width="7.21"/>
</svg>