<?xml version="1.0" encoding="UTF-8"?>
<svg id="Layer_1" xmlns="http://www.w3.org/2000/svg" version="1.1" viewBox="0 0 54 54">
  <!-- Generator: Adobe Illustrator 30.1.0, SVG Export Plug-In . SVG Version: 2.1.1 Build 136)  -->
  <path d="M27,10.43c.54,0,1.08.28,1.36.84l3.47,6.88c.59,1.18,1.7,2.02,3,2.26l7.5,1.41c1.17.22,1.65,1.65.84,2.53l-5.46,6c-.84.93-1.24,2.18-1.07,3.42l1.07,8.09c.13.96-.64,1.73-1.51,1.73-.23,0-.47-.05-.7-.17l-6.56-3.38c-.61-.31-1.27-.47-1.94-.47-.66,0-1.33.16-1.94.47l-6.56,3.38c-.23.12-.47.17-.7.17-.87,0-1.64-.76-1.51-1.73l1.07-8.09c.16-1.24-.23-2.49-1.07-3.41l-5.46-6c-.81-.88-.33-2.31.84-2.53l7.5-1.41c1.3-.24,2.41-1.08,3-2.26l3.47-6.88c.28-.56.82-.84,1.36-.84M27,0c-4.54,0-8.63,2.52-10.67,6.57l-2.09,4.15-4.49.84c-4.26.8-7.76,3.84-9.13,7.95-1.38,4.11-.42,8.65,2.5,11.85l3.53,3.87-.69,5.24c-.45,3.41.59,6.86,2.86,9.44,2.27,2.59,5.55,4.08,8.99,4.08,1.89,0,3.78-.46,5.47-1.33l3.72-1.92,3.72,1.92c1.69.87,3.58,1.33,5.47,1.33,3.44,0,6.72-1.49,8.99-4.08,2.27-2.59,3.31-6.03,2.86-9.44l-.69-5.24,3.53-3.87c2.92-3.2,3.88-7.74,2.5-11.85-1.38-4.11-4.87-7.15-9.13-7.95l-4.49-.84-2.09-4.15c-2.04-4.06-6.13-6.57-10.67-6.57h0Z"/>
</svg>