<?xml version="1.0" encoding="UTF-8"?>
<svg id="Layer_1" xmlns="http://www.w3.org/2000/svg" version="1.1" viewBox="0 0 54 54">
  <!-- Generator: Adobe Illustrator 30.1.0, SVG Export Plug-In . SVG Version: 2.1.1 Build 136)  -->
  <path d="M27,8.52c.6,0,1.2.31,1.52.93l3.87,7.67c.66,1.32,1.9,2.25,3.35,2.52l8.36,1.57c1.31.25,1.84,1.83.94,2.82l-6.09,6.69c-.94,1.03-1.38,2.43-1.19,3.81l1.19,9.02c.14,1.08-.72,1.93-1.68,1.93-.26,0-.52-.06-.78-.19l-7.32-3.77c-.68-.35-1.42-.52-2.16-.52s-1.48.17-2.16.52l-7.32,3.77c-.26.13-.52.19-.78.19-.97,0-1.82-.85-1.68-1.93l1.19-9.02c.18-1.38-.25-2.78-1.19-3.81l-6.09-6.69c-.9-.99-.37-2.58.94-2.82l8.36-1.57c1.45-.27,2.68-1.2,3.35-2.52l3.87-7.67c.31-.62.91-.93,1.52-.93M27,0C23.12,0,19.62,2.15,17.87,5.62l-3.02,6-6.51,1.22c-3.64.68-6.63,3.29-7.81,6.8-1.18,3.51-.36,7.4,2.14,10.14l4.91,5.38-.96,7.27c-.39,2.92.51,5.86,2.44,8.07,1.94,2.22,4.75,3.49,7.69,3.49,1.62,0,3.23-.39,4.68-1.14l5.57-2.87,5.57,2.87c1.44.74,3.06,1.14,4.68,1.14,2.94,0,5.74-1.27,7.69-3.49,1.94-2.21,2.83-5.15,2.44-8.07l-.96-7.27,4.91-5.39c2.5-2.74,3.31-6.62,2.14-10.14-1.18-3.51-4.17-6.12-7.81-6.8l-6.51-1.22-3.02-6C34.38,2.15,30.88,0,27,0h0Z"/>
</svg>