<?xml version="1.0" encoding="UTF-8"?>
<svg id="Layer_1" xmlns="http://www.w3.org/2000/svg" version="1.1" viewBox="0 0 21 21">
  <!-- Generator: Adobe Illustrator 30.1.0, SVG Export Plug-In . SVG Version: 2.1.1 Build 136)  -->
  <path d="M10.5,1.46c.29,0,.59.15.74.46l1.89,3.76c.32.64.93,1.1,1.64,1.23l4.09.77c.64.12.9.9.46,1.38l-2.98,3.27c-.46.5-.67,1.19-.58,1.87l.58,4.41c.07.53-.35.94-.82.94-.13,0-.25-.03-.38-.09l-3.58-1.84c-.33-.17-.69-.26-1.06-.26s-.73.09-1.06.26l-3.58,1.84c-.12.06-.25.09-.38.09-.47,0-.89-.42-.82-.94l.58-4.41c.09-.68-.12-1.36-.58-1.86l-2.98-3.27c-.44-.48-.18-1.26.46-1.38l4.09-.77c.71-.13,1.31-.59,1.64-1.23l1.89-3.76c.15-.3.45-.46.74-.46M10.5,0C9.63,0,8.85.48,8.46,1.26l-1.89,3.76c-.12.24-.35.41-.6.46l-4.09.77c-.81.15-1.48.74-1.75,1.52-.26.79-.08,1.66.48,2.27l2.98,3.27c.17.19.25.44.22.69l-.58,4.41c-.09.65.11,1.31.55,1.81.44.5,1.06.78,1.72.78.36,0,.72-.09,1.05-.26l3.58-1.84c.12-.06.26-.09.39-.09s.27.03.39.09l3.58,1.84c.32.17.69.26,1.05.26.66,0,1.29-.29,1.72-.78.43-.49.63-1.15.55-1.81l-.58-4.41c-.03-.25.05-.51.22-.69l2.98-3.27c.56-.61.74-1.48.48-2.27-.26-.79-.93-1.37-1.75-1.52l-4.09-.77c-.26-.05-.49-.22-.61-.46l-1.89-3.76C12.15.48,11.37,0,10.5,0h0Z"/>
</svg>