<?xml version="1.0" encoding="UTF-8"?>
<svg id="Layer_1" xmlns="http://www.w3.org/2000/svg" version="1.1" viewBox="0 0 21 21">
  <!-- Generator: Adobe Illustrator 30.1.0, SVG Export Plug-In . SVG Version: 2.1.1 Build 136)  -->
  <path d="M10.5,3.31c.23,0,.47.12.59.36l1.5,2.98c.26.51.74.87,1.3.98l3.25.61c.51.1.71.71.37,1.1l-2.37,2.6c-.37.4-.54.94-.46,1.48l.46,3.51c.06.42-.28.75-.65.75-.1,0-.2-.02-.3-.07l-2.84-1.47c-.26-.14-.55-.2-.84-.2s-.58.07-.84.2l-2.84,1.47c-.1.05-.2.07-.3.07-.38,0-.71-.33-.65-.75l.46-3.51c.07-.54-.1-1.08-.46-1.48l-2.37-2.6c-.35-.38-.14-1,.37-1.1l3.25-.61c.56-.11,1.04-.47,1.3-.98l1.5-2.98c.12-.24.36-.36.59-.36M10.5,0c-1.51,0-2.87.84-3.55,2.19l-1.18,2.33-2.53.47c-1.42.27-2.58,1.28-3.04,2.64-.46,1.37-.14,2.88.83,3.94l1.91,2.09-.37,2.83c-.15,1.14.2,2.28.95,3.14.76.86,1.85,1.36,2.99,1.36.63,0,1.26-.15,1.82-.44l2.17-1.12,2.17,1.12c.56.29,1.19.44,1.82.44,1.14,0,2.23-.49,2.99-1.36.75-.86,1.1-2,.95-3.14l-.37-2.83,1.91-2.09c.97-1.06,1.29-2.58.83-3.94-.46-1.37-1.62-2.38-3.04-2.64l-2.53-.47-1.18-2.33c-.68-1.35-2.04-2.19-3.55-2.19h0Z"/>
</svg>