<?xml version="1.0" encoding="UTF-8"?>
<svg id="Layer_1" xmlns="http://www.w3.org/2000/svg" version="1.1" viewBox="0 0 21 21">
  <!-- Generator: Adobe Illustrator 30.1.0, SVG Export Plug-In . SVG Version: 2.1.1 Build 136)  -->
  <path d="M10.5,1.82c.28,0,.56.15.71.44l1.82,3.6c.31.62.89,1.06,1.57,1.18l3.93.74c.61.12.86.86.44,1.32l-2.86,3.14c-.44.48-.65,1.14-.56,1.79l.56,4.23c.07.51-.34.9-.79.9-.12,0-.24-.03-.36-.09l-3.43-1.77c-.32-.16-.67-.25-1.01-.25s-.7.08-1.01.25l-3.43,1.77c-.12.06-.24.09-.36.09-.45,0-.86-.4-.79-.9l.56-4.23c.09-.65-.12-1.3-.56-1.79l-2.86-3.14c-.42-.46-.17-1.21.44-1.32l3.93-.74c.68-.13,1.26-.56,1.57-1.18l1.82-3.6c.15-.29.43-.44.71-.44M10.5,0C9.5,0,8.61.55,8.16,1.44l-1.82,3.6c-.05.11-.16.19-.28.21l-3.93.74c-.93.18-1.7.84-2,1.74-.3.9-.09,1.9.55,2.6l2.86,3.14c.08.09.12.2.1.32l-.56,4.23c-.1.75.13,1.5.63,2.07.5.57,1.22.9,1.97.9.41,0,.83-.1,1.2-.29l3.43-1.77c.06-.03.12-.04.18-.04s.12.01.18.04l3.43,1.77c.37.19.79.29,1.2.29.75,0,1.47-.33,1.97-.9.5-.57.72-1.32.63-2.07l-.56-4.23c-.02-.12.02-.24.1-.32l2.86-3.14c.64-.7.85-1.7.55-2.6-.3-.9-1.07-1.57-2-1.74l-3.93-.74c-.12-.02-.22-.1-.28-.21l-1.82-3.6C12.39.55,11.5,0,10.5,0h0Z"/>
</svg>