<?xml version="1.0" encoding="UTF-8"?>
<svg id="Layer_1" xmlns="http://www.w3.org/2000/svg" version="1.1" viewBox="0 0 33 33">
  <!-- Generator: Adobe Illustrator 30.1.0, SVG Export Plug-In . SVG Version: 2.1.1 Build 136)  -->
  <path d="M16.5,6.37c.33,0,.66.17.83.51l2.12,4.21c.36.72,1.04,1.23,1.83,1.38l4.58.86c.72.13,1.01,1.01.52,1.54l-3.34,3.66c-.52.57-.75,1.33-.65,2.09l.65,4.94c.08.59-.39,1.06-.92,1.06-.14,0-.29-.03-.43-.1l-4.01-2.06c-.37-.19-.78-.29-1.18-.29s-.81.1-1.18.29l-4.01,2.06c-.14.07-.28.1-.43.1-.53,0-1-.47-.92-1.06l.65-4.94c.1-.76-.14-1.52-.65-2.09l-3.34-3.66c-.49-.54-.2-1.41.52-1.55l4.58-.86c.79-.15,1.47-.66,1.83-1.38l2.12-4.21c.17-.34.5-.51.83-.51M16.5,0c-2.77,0-5.27,1.54-6.52,4.02l-1.28,2.53-2.74.51c-2.6.49-4.74,2.35-5.58,4.86-.84,2.51-.26,5.29,1.53,7.24l2.16,2.37-.42,3.2c-.28,2.09.36,4.19,1.75,5.77,1.39,1.58,3.39,2.49,5.49,2.49,1.16,0,2.31-.28,3.34-.81l2.28-1.17,2.28,1.17c1.03.53,2.19.81,3.34.81,2.1,0,4.1-.91,5.49-2.49,1.39-1.58,2.02-3.68,1.75-5.77l-.42-3.2,2.16-2.37c1.78-1.96,2.37-4.73,1.53-7.24-.84-2.51-2.98-4.37-5.58-4.86l-2.74-.51-1.28-2.53C21.77,1.54,19.27,0,16.5,0h0Z"/>
</svg>