<?xml version="1.0" encoding="UTF-8"?>
<svg id="Layer_1" xmlns="http://www.w3.org/2000/svg" version="1.1" viewBox="0 0 33 33">
  <!-- Generator: Adobe Illustrator 30.1.0, SVG Export Plug-In . SVG Version: 2.1.1 Build 136)  -->
  <path d="M16.5,2.87c.44,0,.89.23,1.12.69l2.85,5.66c.49.97,1.4,1.66,2.47,1.86l6.17,1.16c.96.18,1.36,1.35.69,2.08l-4.5,4.93c-.69.76-1.02,1.79-.88,2.81l.88,6.65c.1.79-.53,1.42-1.24,1.42-.19,0-.38-.04-.57-.14l-5.4-2.78c-.5-.26-1.05-.39-1.59-.39-.55,0-1.09.13-1.59.39l-5.4,2.78c-.19.1-.38.14-.57.14-.71,0-1.35-.63-1.24-1.42l.88-6.65c.13-1.02-.19-2.05-.88-2.81l-4.5-4.93c-.66-.73-.27-1.9.69-2.08l6.17-1.16c1.07-.2,1.98-.89,2.47-1.86l2.85-5.66c.23-.46.67-.69,1.12-.69M16.5,0C14.93,0,13.53.87,12.82,2.27l-2.85,5.66c-.09.17-.25.29-.44.33l-6.17,1.16c-1.47.27-2.67,1.33-3.15,2.74-.47,1.42-.14,2.98.86,4.09l4.5,4.93c.12.14.18.32.16.5l-.88,6.65c-.16,1.18.2,2.36.98,3.25.79.9,1.92,1.41,3.1,1.41.65,0,1.3-.16,1.88-.46l5.4-2.78c.09-.05.18-.07.28-.07.1,0,.19.02.28.07l5.4,2.78c.58.3,1.24.46,1.88.46,1.18,0,2.31-.51,3.1-1.41.78-.89,1.14-2.08.98-3.25l-.88-6.65c-.02-.18.03-.37.16-.51l4.5-4.93c1.01-1.1,1.34-2.67.86-4.09-.47-1.42-1.68-2.47-3.15-2.74l-6.17-1.16c-.19-.04-.35-.16-.44-.33l-2.85-5.66C19.47.87,18.06,0,16.5,0h0Z"/>
</svg>