<?xml version="1.0" encoding="UTF-8"?>
<svg id="Layer_1" xmlns="http://www.w3.org/2000/svg" version="1.1" viewBox="0 0 33 33">
  <!-- Generator: Adobe Illustrator 30.1.0, SVG Export Plug-In . SVG Version: 2.1.1 Build 136)  -->
  <path d="M16.5,6.95c.31,0,.62.16.78.48l2,3.97c.34.68.98,1.16,1.73,1.3l4.32.81c.68.13.95.95.49,1.46l-3.15,3.46c-.49.53-.71,1.25-.62,1.97l.61,4.66c.07.56-.37,1-.87,1-.13,0-.27-.03-.4-.1l-3.78-1.95c-.35-.18-.73-.27-1.12-.27-.38,0-.77.09-1.12.27l-3.78,1.95c-.13.07-.27.1-.4.1-.5,0-.94-.44-.87-1l.61-4.66c.09-.72-.13-1.44-.62-1.97l-3.15-3.46c-.46-.51-.19-1.33.49-1.46l4.32-.81c.75-.14,1.39-.62,1.73-1.3l2-3.97c.16-.32.47-.48.78-.48M16.5,0C13.53,0,10.85,1.65,9.51,4.31l-.99,1.97-2.13.4c-2.79.52-5.08,2.52-5.98,5.21-.9,2.69-.27,5.67,1.64,7.76l1.74,1.91-.34,2.59c-.29,2.24.39,4.49,1.87,6.18,1.49,1.7,3.63,2.67,5.89,2.67,1.24,0,2.48-.3,3.58-.87l1.71-.88,1.71.88c1.11.57,2.34.87,3.58.87,2.25,0,4.4-.97,5.89-2.67,1.48-1.69,2.17-3.95,1.87-6.18l-.34-2.59,1.74-1.91c1.91-2.1,2.54-5.07,1.64-7.76-.9-2.69-3.19-4.69-5.98-5.21l-2.13-.4-.99-1.97C22.15,1.65,19.47,0,16.5,0h0Z"/>
</svg>