<?xml version="1.0" encoding="UTF-8"?>
<svg id="Layer_1" xmlns="http://www.w3.org/2000/svg" version="1.1" viewBox="0 0 33 33">
  <!-- Generator: Adobe Illustrator 30.1.0, SVG Export Plug-In . SVG Version: 2.1.1 Build 136)  -->
  <path d="M16.5,4.03c.41,0,.81.21,1.02.63l2.61,5.18c.45.89,1.28,1.52,2.26,1.7l5.64,1.06c.88.17,1.24,1.24.63,1.9l-4.11,4.51c-.63.7-.93,1.64-.81,2.57l.8,6.08c.1.73-.48,1.3-1.14,1.3-.17,0-.35-.04-.52-.13l-4.94-2.54c-.46-.24-.96-.35-1.46-.35-.5,0-1,.12-1.46.35l-4.94,2.54c-.17.09-.35.13-.52.13-.65,0-1.23-.57-1.14-1.3l.8-6.09c.12-.93-.17-1.87-.81-2.57l-4.11-4.51c-.61-.66-.25-1.74.64-1.9l5.64-1.06c.98-.18,1.81-.81,2.26-1.7l2.61-5.18c.21-.42.62-.63,1.02-.63M16.5,0c-1.97,0-3.74,1.09-4.62,2.85l-2.42,4.81-5.23.98c-1.84.35-3.36,1.67-3.96,3.45-.6,1.78-.18,3.75,1.08,5.14l3.85,4.22-.75,5.7c-.2,1.48.26,2.97,1.24,4.09.99,1.12,2.41,1.77,3.9,1.77.82,0,1.64-.2,2.37-.58l4.55-2.34,4.55,2.34c.73.38,1.55.58,2.37.58,1.49,0,2.91-.65,3.9-1.77.98-1.12,1.43-2.61,1.24-4.09l-.75-5.7,3.85-4.22c1.26-1.39,1.68-3.36,1.08-5.14-.6-1.78-2.11-3.1-3.96-3.45l-5.23-.98-2.42-4.81c-.89-1.76-2.66-2.85-4.62-2.85h0Z"/>
</svg>