<?xml version="1.0" encoding="UTF-8"?>
<svg id="Layer_1" xmlns="http://www.w3.org/2000/svg" version="1.1" viewBox="0 0 33 33">
  <!-- Generator: Adobe Illustrator 30.1.0, SVG Export Plug-In . SVG Version: 2.1.1 Build 136)  -->
  <path d="M16.5,5.21c.37,0,.73.19.93.57l2.36,4.69c.41.8,1.16,1.37,2.05,1.54l5.11.96c.8.15,1.12,1.12.57,1.72l-3.72,4.09c-.57.63-.84,1.48-.73,2.33l.73,5.51c.09.66-.44,1.18-1.03,1.18-.16,0-.32-.04-.47-.12l-4.47-2.3c-.41-.21-.87-.32-1.32-.32s-.91.11-1.32.32l-4.47,2.3c-.16.08-.32.12-.47.12-.59,0-1.11-.52-1.03-1.18l.73-5.51c.11-.85-.16-1.7-.73-2.33l-3.72-4.09c-.55-.6-.22-1.57.58-1.72l5.11-.96c.88-.17,1.64-.73,2.04-1.54l2.36-4.69c.19-.38.56-.57.93-.57M16.5,0C14.13,0,11.99,1.32,10.92,3.44l-1.85,3.67-3.98.75c-2.22.42-4.05,2.01-4.77,4.16-.72,2.15-.22,4.52,1.31,6.19l3,3.29-.59,4.45c-.24,1.78.31,3.58,1.49,4.93,1.19,1.36,2.9,2.13,4.7,2.13.99,0,1.98-.24,2.86-.69l3.41-1.75,3.41,1.75c.88.45,1.87.69,2.86.69,1.8,0,3.51-.78,4.7-2.13,1.18-1.35,1.73-3.15,1.49-4.93l-.59-4.45,3-3.29c1.52-1.67,2.03-4.05,1.31-6.19-.72-2.15-2.55-3.74-4.77-4.16l-3.98-.75-1.85-3.67C21.01,1.32,18.87,0,16.5,0h0Z"/>
</svg>