<?xml version="1.0" encoding="UTF-8"?>
<svg id="Layer_1" xmlns="http://www.w3.org/2000/svg" version="1.1" viewBox="0 0 112 112">
  <!-- Generator: Adobe Illustrator 30.1.0, SVG Export Plug-In . SVG Version: 2.1.1 Build 136)  -->
  <path d="M56,17.67c1.25,0,2.49.65,3.14,1.94l8.02,15.92c1.38,2.73,3.94,4.66,6.94,5.23l17.35,3.25c2.71.51,3.81,3.8,1.95,5.85l-12.64,13.87c-1.95,2.14-2.86,5.03-2.48,7.91l2.47,18.7c.29,2.23-1.48,4-3.49,4-.53,0-1.08-.12-1.61-.4l-15.17-7.81c-1.41-.72-2.94-1.09-4.48-1.09s-3.08.36-4.48,1.09l-15.17,7.81c-.53.27-1.08.4-1.61.4-2.01,0-3.78-1.77-3.49-4l2.47-18.71c.38-2.87-.53-5.76-2.47-7.9l-12.64-13.87c-1.86-2.04-.76-5.34,1.95-5.85l17.34-3.25c3-.56,5.56-2.49,6.94-5.22l8.02-15.92c.65-1.29,1.9-1.94,3.14-1.94M56,0C47.95,0,40.69,4.47,37.07,11.66l-6.27,12.44-13.51,2.53c-7.55,1.41-13.75,6.82-16.19,14.1-2.44,7.29-.74,15.34,4.43,21.02l10.18,11.17-1.99,15.09c-.8,6.06,1.05,12.16,5.07,16.74,4.03,4.6,9.85,7.24,15.95,7.24,3.35,0,6.71-.82,9.7-2.36l11.56-5.95,11.56,5.95c3,1.54,6.35,2.36,9.7,2.36,6.1,0,11.91-2.64,15.95-7.24,4.02-4.58,5.87-10.69,5.07-16.74l-1.99-15.09,10.18-11.17c5.18-5.68,6.87-13.73,4.43-21.02-2.44-7.28-8.64-12.69-16.19-14.1l-13.51-2.53-6.27-12.44C71.3,4.47,64.05,0,56,0h0Z"/>
</svg>