<?xml version="1.0" encoding="UTF-8"?>
<svg id="Layer_1" xmlns="http://www.w3.org/2000/svg" version="1.1" viewBox="0 0 112 112">
  <!-- Generator: Adobe Illustrator 30.1.0, SVG Export Plug-In . SVG Version: 2.1.1 Build 136)  -->
  <path d="M56,21.63c1.12,0,2.23.58,2.82,1.74l7.19,14.27c1.23,2.45,3.54,4.18,6.23,4.69l15.56,2.92c2.43.46,3.42,3.41,1.75,5.24l-11.33,12.44c-1.75,1.92-2.56,4.51-2.22,7.09l2.21,16.77c.26,2-1.33,3.59-3.13,3.59-.48,0-.97-.11-1.44-.36l-13.61-7.01c-1.26-.65-2.64-.97-4.02-.97-1.38,0-2.76.32-4.02.97l-13.61,7.01c-.47.24-.97.36-1.44.36-1.8,0-3.39-1.58-3.13-3.59l2.21-16.77c.34-2.57-.47-5.17-2.22-7.08l-11.33-12.44c-1.67-1.83-.68-4.79,1.75-5.25l15.55-2.92c2.69-.5,4.99-2.24,6.22-4.68l7.19-14.28c.58-1.16,1.7-1.74,2.82-1.74M56,0C46.58,0,38.1,5.23,33.86,13.64l-4.33,8.6-9.3,1.74c-8.83,1.65-16.08,7.97-18.94,16.49-2.85,8.52-.87,17.94,5.18,24.58l7.32,8.03-1.43,10.87c-.93,7.08,1.23,14.22,5.93,19.58,4.71,5.38,11.51,8.46,18.65,8.46,3.92,0,7.85-.95,11.35-2.76l7.72-3.98,7.72,3.98c3.5,1.8,7.42,2.76,11.35,2.76,7.13,0,13.93-3.08,18.65-8.46,4.7-5.36,6.86-12.5,5.93-19.58l-1.43-10.87,7.32-8.03c6.05-6.64,8.04-16.06,5.18-24.58-2.85-8.52-10.11-14.84-18.94-16.49l-9.31-1.74-4.33-8.6C73.9,5.23,65.42,0,56,0h0Z"/>
</svg>