<?xml version="1.0" encoding="UTF-8"?>
<svg id="Layer_1" xmlns="http://www.w3.org/2000/svg" version="1.1" viewBox="0 0 112 112">
  <!-- Generator: Adobe Illustrator 30.1.0, SVG Export Plug-In . SVG Version: 2.1.1 Build 136)  -->
  <path d="M56,13.68c1.38,0,2.75.71,3.47,2.14l8.85,17.57c1.52,3.02,4.35,5.15,7.67,5.77l19.15,3.59c2.99.56,4.21,4.2,2.15,6.46l-13.95,15.31c-2.15,2.36-3.15,5.56-2.74,8.73l2.72,20.65c.32,2.46-1.64,4.41-3.85,4.41-.59,0-1.19-.14-1.78-.44l-16.75-8.63c-1.55-.8-3.25-1.2-4.95-1.2s-3.4.4-4.95,1.2l-16.75,8.63c-.58.3-1.19.44-1.78.44-2.21,0-4.18-1.95-3.85-4.41l2.72-20.65c.42-3.17-.58-6.36-2.73-8.72l-13.95-15.31c-2.06-2.26-.84-5.9,2.16-6.46l19.15-3.59c3.31-.62,6.14-2.75,7.66-5.77l8.85-17.58c.72-1.43,2.09-2.14,3.47-2.14M56,0C49.32,0,43.31,3.7,40.31,9.67l-8.22,16.31-17.75,3.33c-6.26,1.17-11.4,5.65-13.43,11.69-2.02,6.04-.62,12.72,3.68,17.43l13.06,14.33-2.55,19.34c-.66,5.02.87,10.08,4.2,13.88,3.35,3.82,8.17,6.01,13.22,6.01,2.78,0,5.56-.68,8.04-1.96l15.43-7.95,15.43,7.95c2.49,1.28,5.27,1.96,8.04,1.96,5.06,0,9.88-2.19,13.22-6.01,3.33-3.8,4.86-8.86,4.2-13.88l-2.55-19.34,13.07-14.34c4.29-4.71,5.7-11.39,3.68-17.43-2.02-6.04-7.17-10.52-13.42-11.69l-17.75-3.33-8.22-16.31C68.69,3.7,62.67,0,56,0h0Z"/>
</svg>