<?xml version="1.0" encoding="UTF-8"?>
<svg id="Layer_1" xmlns="http://www.w3.org/2000/svg" version="1.1" viewBox="0 0 112 112">
  <!-- Generator: Adobe Illustrator 30.1.0, SVG Export Plug-In . SVG Version: 2.1.1 Build 136)  -->
  <path d="M56,9.73c1.5,0,3.01.78,3.79,2.34l9.68,19.22c1.66,3.3,4.76,5.63,8.38,6.31l20.94,3.93c3.27.61,4.6,4.59,2.36,7.06l-15.26,16.74c-2.35,2.58-3.45,6.08-2.99,9.55l2.98,22.58c.36,2.69-1.79,4.83-4.21,4.83-.64,0-1.3-.15-1.94-.48l-18.32-9.43c-1.7-.87-3.55-1.31-5.41-1.31s-3.71.44-5.41,1.31l-18.32,9.43c-.64.33-1.3.48-1.94.48-2.42,0-4.57-2.13-4.21-4.83l2.98-22.58c.46-3.46-.64-6.95-2.99-9.53l-15.26-16.74c-2.25-2.47-.92-6.45,2.36-7.06l20.94-3.93c3.62-.68,6.72-3.01,8.38-6.31l9.68-19.22c.79-1.56,2.29-2.34,3.79-2.34M56,0C50.69,0,45.9,2.95,43.51,7.69l-9.68,19.22c-.29.58-.85,1-1.48,1.12l-20.94,3.93c-4.98.93-9.07,4.5-10.68,9.31-1.61,4.81-.49,10.13,2.93,13.88l15.26,16.74c.42.46.62,1.08.53,1.71l-2.98,22.58c-.53,4,.69,8.02,3.34,11.04,2.67,3.04,6.5,4.78,10.52,4.78,2.21,0,4.42-.54,6.4-1.56l18.32-9.43c.3-.15.62-.23.96-.23s.66.08.96.23l18.32,9.43c1.98,1.02,4.19,1.56,6.4,1.56,4.02,0,7.86-1.74,10.52-4.78,2.65-3.02,3.86-7.05,3.34-11.04l-2.98-22.58c-.08-.63.11-1.25.54-1.72l15.26-16.74c3.42-3.75,4.54-9.06,2.93-13.87-1.61-4.81-5.7-8.37-10.68-9.3l-20.94-3.93c-.64-.12-1.19-.54-1.49-1.12l-9.68-19.22C66.09,2.95,61.31,0,56,0h0Z"/>
</svg>