<?xml version="1.0" encoding="UTF-8"?>
<svg id="Layer_1" xmlns="http://www.w3.org/2000/svg" version="1.1" viewBox="0 0 112 112">
  <!-- Generator: Adobe Illustrator 30.1.0, SVG Export Plug-In . SVG Version: 2.1.1 Build 136)  -->
  <path d="M56,7.77c1.57,0,3.14.81,3.96,2.44l10.09,20.03c1.73,3.44,4.96,5.87,8.74,6.58l21.83,4.09c3.41.64,4.8,4.79,2.46,7.36l-15.9,17.45c-2.45,2.69-3.6,6.33-3.12,9.95l3.1,23.53c.37,2.81-1.87,5.03-4.39,5.03-.67,0-1.36-.16-2.02-.5l-19.09-9.83c-1.77-.91-3.71-1.37-5.64-1.37-1.94,0-3.87.46-5.64,1.37l-19.09,9.83c-.67.34-1.36.5-2.02.5-2.52,0-4.76-2.22-4.39-5.03l3.1-23.54c.48-3.61-.66-7.25-3.11-9.94l-15.91-17.45c-2.34-2.57-.96-6.72,2.46-7.36l21.83-4.09c3.77-.71,7-3.14,8.73-6.57l10.09-20.03c.82-1.63,2.39-2.44,3.96-2.44M56,0C51.36,0,47.19,2.57,45.1,6.71l-10.09,20.03c-.64,1.26-1.84,2.17-3.23,2.43l-21.83,4.09c-4.35.81-7.92,3.93-9.32,8.12-1.41,4.2-.43,8.84,2.55,12.11l15.91,17.45c.91,1,1.33,2.34,1.15,3.69l-3.1,23.54c-.46,3.49.6,7,2.91,9.64,2.33,2.66,5.68,4.18,9.18,4.18,1.92,0,3.85-.47,5.58-1.36l19.09-9.83c.64-.33,1.36-.51,2.08-.51.72,0,1.44.17,2.08.51l19.09,9.83c1.73.89,3.66,1.36,5.58,1.36,3.51,0,6.86-1.52,9.18-4.18,2.31-2.63,3.37-6.15,2.91-9.64l-3.1-23.53c-.18-1.35.24-2.7,1.16-3.7l15.9-17.45c2.98-3.27,3.96-7.91,2.55-12.11-1.4-4.19-4.98-7.31-9.32-8.12l-21.83-4.09c-1.39-.26-2.59-1.17-3.23-2.43l-10.09-20.03C64.81,2.57,60.63,0,56,0h0Z"/>
</svg>