<?xml version="1.0" encoding="UTF-8"?>
<svg id="Layer_1" xmlns="http://www.w3.org/2000/svg" version="1.1" viewBox="0 0 71 71">
  <!-- Generator: Adobe Illustrator 30.1.0, SVG Export Plug-In . SVG Version: 2.1.1 Build 136)  -->
  <path d="M35.5,8.68c.87,0,1.74.45,2.2,1.36l5.61,11.14c.96,1.91,2.76,3.26,4.86,3.66l12.14,2.28c1.9.36,2.67,2.66,1.37,4.09l-8.85,9.71c-1.36,1.5-2,3.52-1.73,5.53l1.73,13.09c.21,1.56-1.04,2.8-2.44,2.8-.37,0-.76-.09-1.13-.28l-10.62-5.47c-.98-.51-2.06-.76-3.14-.76-1.08,0-2.15.25-3.14.76l-10.62,5.47c-.37.19-.75.28-1.13.28-1.4,0-2.65-1.24-2.44-2.8l1.73-13.09c.26-2.01-.37-4.03-1.73-5.53l-8.85-9.71c-1.3-1.43-.53-3.74,1.37-4.09l12.14-2.28c2.1-.39,3.89-1.75,4.86-3.66l5.61-11.14c.46-.9,1.33-1.36,2.2-1.36M35.5,0C31.27,0,27.46,2.35,25.55,6.13l-5.21,10.34-11.25,2.11c-3.97.74-7.23,3.58-8.51,7.41-1.28,3.83-.39,8.07,2.33,11.05l8.28,9.09-1.62,12.26c-.42,3.18.55,6.39,2.66,8.8,2.12,2.42,5.18,3.81,8.38,3.81,1.76,0,3.52-.43,5.1-1.24l9.78-5.04,9.78,5.04c1.58.81,3.34,1.24,5.1,1.24,3.21,0,6.26-1.39,8.38-3.81,2.11-2.41,3.08-5.62,2.66-8.8l-1.62-12.26,8.28-9.09c2.72-2.99,3.61-7.22,2.33-11.05-1.28-3.83-4.54-6.67-8.51-7.41l-11.25-2.11-5.21-10.34C43.54,2.35,39.73,0,35.5,0h0Z"/>
</svg>