<?xml version="1.0" encoding="UTF-8"?>
<svg id="Layer_1" xmlns="http://www.w3.org/2000/svg" version="1.1" viewBox="0 0 83 83">
  <!-- Generator: Adobe Illustrator 30.1.0, SVG Export Plug-In . SVG Version: 2.1.1 Build 136)  -->
  <g>
    <g>
      <rect x="38.6" y="21.01" width="5.8" height="5.8"/>
      <path d="M44.01,21.4v5.02h-5.02v-5.02h5.02M44.79,20.63h-6.58v6.58h6.58v-6.58h0Z"/>
    </g>
    <g>
      <polygon points="33.57 61.98 33.57 56.18 38.6 56.18 38.6 41.28 33.57 41.28 33.57 35.47 44.4 35.47 44.4 56.18 49.42 56.18 49.42 61.98 33.57 61.98"/>
      <path d="M44.01,35.86v20.71h5.02v5.02h-15.07v-5.02h5.02v-15.68h-5.02v-5.02h10.05M44.79,35.09h-11.6v6.58h5.02v14.13h-5.02v6.58h16.63v-6.58h-5.02v-20.71h0Z"/>
    </g>
  </g>
  <circle id="Outer" cx="41.5" cy="41.5" r="38.62" fill="none" stroke="#000" stroke-width="5.76"/>
</svg>