<?xml version="1.0" encoding="UTF-8"?>
<svg id="Layer_1" xmlns="http://www.w3.org/2000/svg" version="1.1" viewBox="0 0 83 83">
  <!-- Generator: Adobe Illustrator 30.1.0, SVG Export Plug-In . SVG Version: 2.1.1 Build 136)  -->
  <g>
    <g>
      <rect x="38.41" y="25.23" width="6.18" height="6.18"/>
      <path d="M43.16,26.66v3.33h-3.33v-3.33h3.33M46.02,23.8h-9.03v9.03h9.03v-9.03h0Z"/>
    </g>
    <g>
      <polygon points="35.08 56.87 35.08 50.69 38.41 50.69 38.41 43.15 35.08 43.15 35.08 36.97 44.59 36.97 44.59 50.69 47.92 50.69 47.92 56.87 35.08 56.87"/>
      <path d="M43.16,38.4v13.72h3.33v3.33h-9.98v-3.33h3.33v-10.39h-3.33v-3.33h6.66M46.02,35.54h-12.36v9.03h3.33v4.68h-3.33v9.03h15.69v-9.03h-3.33v-13.72h0Z"/>
    </g>
  </g>
  <circle id="Outer" cx="41.5" cy="41.5" r="32.76" fill="none" stroke="#000" stroke-width="17.48"/>
</svg>