<?xml version="1.0" encoding="UTF-8"?>
<svg id="Layer_1" xmlns="http://www.w3.org/2000/svg" version="1.1" viewBox="0 0 52 52">
  <!-- Generator: Adobe Illustrator 30.1.0, SVG Export Plug-In . SVG Version: 2.1.1 Build 136)  -->
  <path d="M26,6.35c.64,0,1.28.33,1.61.99l4.11,8.16c.71,1.4,2.02,2.39,3.56,2.68l8.89,1.67c1.39.26,1.95,1.95,1,3l-6.48,7.11c-1,1.1-1.46,2.58-1.27,4.05l1.26,9.59c.15,1.14-.76,2.05-1.79,2.05-.27,0-.55-.06-.82-.2l-7.78-4.01c-.72-.37-1.51-.56-2.3-.56-.79,0-1.58.19-2.3.56l-7.78,4.01c-.27.14-.55.2-.82.2-1.03,0-1.94-.91-1.79-2.05l1.26-9.59c.19-1.47-.27-2.95-1.27-4.05l-6.48-7.11c-.95-1.05-.39-2.74,1-3l8.89-1.67c1.54-.29,2.85-1.28,3.56-2.68l4.11-8.16c.33-.66.97-.99,1.61-.99M26,0C22.9,0,20.11,1.72,18.71,4.49l-3.82,7.57-8.24,1.54c-2.91.54-5.29,2.63-6.23,5.43-.94,2.81-.29,5.91,1.71,8.09l6.06,6.65-1.18,8.98c-.31,2.33.4,4.68,1.95,6.45,1.55,1.77,3.79,2.79,6.14,2.79,1.29,0,2.58-.31,3.73-.91l7.17-3.69,7.17,3.69c1.15.59,2.45.91,3.73.91,2.35,0,4.59-1.02,6.14-2.79,1.55-1.76,2.26-4.11,1.95-6.45l-1.18-8.98,6.07-6.66c1.99-2.19,2.65-5.29,1.71-8.09-.94-2.8-3.33-4.88-6.23-5.43l-8.24-1.55-3.82-7.57C31.89,1.72,29.1,0,26,0h0Z"/>
</svg>