<?xml version="1.0" encoding="UTF-8"?>
<svg id="Layer_1" xmlns="http://www.w3.org/2000/svg" version="1.1" viewBox="0 0 52 52">
  <!-- Generator: Adobe Illustrator 30.1.0, SVG Export Plug-In . SVG Version: 2.1.1 Build 136)  -->
  <path d="M26,8.21c.58,0,1.16.3,1.46.9l3.72,7.39c.64,1.27,1.83,2.17,3.22,2.43l8.05,1.51c1.26.24,1.77,1.77.91,2.71l-5.87,6.44c-.91.99-1.33,2.34-1.15,3.67l1.15,8.68c.14,1.04-.69,1.86-1.62,1.86-.25,0-.5-.06-.75-.18l-7.04-3.63c-.65-.34-1.37-.5-2.08-.5s-1.43.17-2.08.5l-7.04,3.63c-.25.13-.5.18-.75.18-.93,0-1.76-.82-1.62-1.86l1.15-8.68c.18-1.33-.24-2.67-1.15-3.67l-5.87-6.44c-.86-.95-.35-2.48.91-2.72l8.05-1.51c1.39-.26,2.58-1.16,3.22-2.42l3.72-7.39c.3-.6.88-.9,1.46-.9M26,0c-3.74,0-7.11,2.07-8.79,5.41l-2.91,5.78-6.27,1.18c-3.5.66-6.39,3.17-7.52,6.55-1.13,3.38-.34,7.12,2.06,9.76l4.73,5.19-.92,7c-.37,2.81.49,5.65,2.35,7.77,1.87,2.14,4.57,3.36,7.4,3.36,1.56,0,3.11-.38,4.5-1.09l5.37-2.76,5.37,2.76c1.39.72,2.95,1.09,4.5,1.09,2.83,0,5.53-1.23,7.4-3.36,1.87-2.13,2.72-4.96,2.35-7.77l-.92-7,4.73-5.19c2.4-2.64,3.19-6.38,2.06-9.76-1.13-3.38-4.01-5.89-7.52-6.55l-6.27-1.18-2.91-5.78c-1.68-3.34-5.05-5.41-8.79-5.41h0Z"/>
</svg>