<?xml version="1.0" encoding="UTF-8"?>
<svg id="Layer_1" xmlns="http://www.w3.org/2000/svg" version="1.1" viewBox="0 0 52 52">
  <!-- Generator: Adobe Illustrator 30.1.0, SVG Export Plug-In . SVG Version: 2.1.1 Build 136)  -->
  <path d="M26,3.61c.73,0,1.46.38,1.84,1.13l4.68,9.3c.8,1.6,2.3,2.72,4.06,3.05l10.13,1.9c1.58.3,2.23,2.22,1.14,3.42l-7.38,8.1c-1.14,1.25-1.67,2.94-1.45,4.62l1.44,10.93c.17,1.3-.87,2.34-2.04,2.34-.31,0-.63-.07-.94-.23l-8.86-4.57c-.82-.42-1.72-.63-2.62-.63-.9,0-1.8.21-2.62.63l-8.86,4.57c-.31.16-.63.23-.94.23-1.17,0-2.21-1.03-2.04-2.34l1.44-10.93c.22-1.68-.31-3.37-1.45-4.61l-7.38-8.1c-1.09-1.19-.44-3.12,1.14-3.42l10.13-1.9c1.75-.33,3.25-1.46,4.05-3.05l4.69-9.3c.38-.76,1.11-1.13,1.84-1.13M26,0c-2.15,0-4.09,1.19-5.06,3.12l-4.69,9.3c-.3.59-.86,1.01-1.5,1.13l-10.13,1.9c-2.02.38-3.68,1.82-4.33,3.77-.65,1.95-.2,4.1,1.19,5.62l7.38,8.1c.42.46.62,1.09.54,1.71l-1.44,10.93c-.21,1.62.28,3.25,1.35,4.47,1.08,1.23,2.64,1.94,4.26,1.94.89,0,1.79-.22,2.59-.63l8.86-4.57c.3-.15.63-.23.97-.23.33,0,.67.08.97.23l8.86,4.57c.8.41,1.7.63,2.59.63,1.63,0,3.18-.71,4.26-1.94,1.07-1.22,1.56-2.85,1.35-4.47l-1.44-10.93c-.08-.63.11-1.25.54-1.72l7.38-8.1c1.38-1.52,1.84-3.67,1.19-5.62-.65-1.95-2.31-3.39-4.33-3.77l-10.13-1.9c-.64-.12-1.2-.54-1.5-1.13l-4.68-9.3c-.97-1.92-2.91-3.12-5.06-3.12h0Z"/>
</svg>