<?xml version="1.0" encoding="UTF-8"?>
<svg id="Layer_1" xmlns="http://www.w3.org/2000/svg" version="1.1" viewBox="0 0 52 52">
  <!-- Generator: Adobe Illustrator 30.1.0, SVG Export Plug-In . SVG Version: 2.1.1 Build 136)  -->
  <path d="M26,10.04c.52,0,1.04.27,1.31.81l3.34,6.63c.57,1.14,1.64,1.94,2.89,2.18l7.22,1.35c1.13.21,1.59,1.58.81,2.43l-5.26,5.77c-.81.89-1.19,2.1-1.03,3.29l1.03,7.79c.12.93-.62,1.66-1.45,1.66-.22,0-.45-.05-.67-.17l-6.32-3.25c-.59-.3-1.23-.45-1.87-.45s-1.28.15-1.87.45l-6.32,3.25c-.22.11-.45.17-.67.17-.84,0-1.58-.74-1.45-1.66l1.03-7.79c.16-1.19-.22-2.4-1.03-3.29l-5.26-5.77c-.78-.85-.32-2.22.81-2.44l7.22-1.35c1.25-.23,2.32-1.04,2.89-2.17l3.34-6.63c.27-.54.79-.81,1.31-.81M26,0C21.63,0,17.69,2.43,15.72,6.33l-2.01,3.99-4.32.81c-4.1.77-7.47,3.7-8.79,7.66-1.33,3.96-.4,8.33,2.41,11.41l3.4,3.73-.67,5.05c-.43,3.29.57,6.6,2.75,9.09,2.19,2.5,5.34,3.93,8.66,3.93,1.82,0,3.64-.44,5.27-1.28l3.59-1.85,3.59,1.85c1.63.84,3.45,1.28,5.27,1.28,3.31,0,6.47-1.43,8.66-3.93,2.18-2.49,3.19-5.8,2.75-9.09l-.67-5.05,3.4-3.73c2.81-3.08,3.73-7.46,2.41-11.41-1.32-3.95-4.69-6.89-8.79-7.66l-4.32-.81-2.01-3.99C34.31,2.43,30.37,0,26,0h0Z"/>
</svg>