<?xml version="1.0" encoding="UTF-8"?>
<svg id="Layer_1" xmlns="http://www.w3.org/2000/svg" version="1.1" viewBox="0 0 117 117">
  <!-- Generator: Adobe Illustrator 30.1.0, SVG Export Plug-In . SVG Version: 2.1.1 Build 136)  -->
  <g>
    <g>
      <rect x="54.38" y="30.36" width="8.24" height="8.24"/>
      <path d="M61.89,31.09v6.78h-6.78v-6.78h6.78M63.35,29.63h-9.7v9.7h9.7v-9.7h0Z"/>
    </g>
    <g>
      <polygon points="47.6 86.46 47.6 78.22 54.38 78.22 54.38 58.53 47.6 58.53 47.6 50.29 62.62 50.29 62.62 78.22 69.4 78.22 69.4 86.46 47.6 86.46"/>
      <path d="M61.89,51.02v27.93h6.78v6.78h-20.33v-6.78h6.78v-21.16h-6.78v-6.78h13.55M63.35,49.56h-16.48v9.7h6.78v18.23h-6.78v9.7h23.26v-9.7h-6.78v-27.93h0Z"/>
    </g>
  </g>
  <circle id="Outer" cx="58.5" cy="58.5" r="53.42" fill="none" stroke="#000" stroke-width="10.16"/>
</svg>