<?xml version="1.0" encoding="UTF-8"?>
<svg id="Layer_1" xmlns="http://www.w3.org/2000/svg" version="1.1" viewBox="0 0 117 117">
  <!-- Generator: Adobe Illustrator 30.1.0, SVG Export Plug-In . SVG Version: 2.1.1 Build 136)  -->
  <g>
    <g>
      <rect x="54.14" y="35.56" width="8.71" height="8.71"/>
      <path d="M60.85,37.57v4.69h-4.69v-4.69h4.69M64.87,33.55h-12.73v12.73h12.73v-12.73h0Z"/>
    </g>
    <g>
      <polygon points="49.45 80.16 49.45 71.45 54.14 71.45 54.14 60.83 49.45 60.83 49.45 52.11 62.86 52.11 62.86 71.45 67.55 71.45 67.55 80.16 49.45 80.16"/>
      <path d="M60.85,54.13v19.34h4.69v4.69h-14.07v-4.69h4.69v-14.65h-4.69v-4.69h9.38M64.87,50.1h-17.43v12.73h4.69v6.6h-4.69v12.73h22.12v-12.73h-4.69v-19.34h0Z"/>
    </g>
  </g>
  <circle id="Outer" cx="58.5" cy="58.5" r="46.18" fill="none" stroke="#000" stroke-width="24.64"/>
</svg>