<?xml version="1.0" encoding="UTF-8"?>
<svg id="Layer_1" xmlns="http://www.w3.org/2000/svg" version="1.1" viewBox="0 0 117 117">
  <!-- Generator: Adobe Illustrator 30.1.0, SVG Export Plug-In . SVG Version: 2.1.1 Build 136)  -->
  <g>
    <g>
      <rect x="54.41" y="29.62" width="8.18" height="8.18"/>
      <path d="M62.04,30.17v7.08h-7.08v-7.08h7.08M63.14,29.07h-9.28v9.28h9.28v-9.28h0Z"/>
    </g>
    <g>
      <polygon points="47.33 87.38 47.33 79.2 54.41 79.2 54.41 58.18 47.33 58.18 47.33 50.01 62.59 50.01 62.59 79.2 69.67 79.2 69.67 87.38 47.33 87.38"/>
      <path d="M62.04,50.55v29.19h7.08v7.08h-21.25v-7.08h7.08v-22.11h-7.08v-7.08h14.16M63.14,49.46h-16.36v9.28h7.08v19.92h-7.08v9.28h23.44v-9.28h-7.08v-29.19h0Z"/>
    </g>
  </g>
  <circle id="Outer" cx="58.5" cy="58.5" r="54.44" fill="none" stroke="#000" stroke-width="8.12"/>
</svg>