<?xml version="1.0" encoding="UTF-8"?>
<svg id="Layer_1" xmlns="http://www.w3.org/2000/svg" version="1.1" viewBox="0 0 43 43">
  <!-- Generator: Adobe Illustrator 30.1.0, SVG Export Plug-In . SVG Version: 2.1.1 Build 136)  -->
  <g>
    <g>
      <rect x="19.94" y="12.26" width="3.12" height="3.12"/>
      <path d="M22.52,12.8v2.04h-2.04v-2.04h2.04M23.6,11.72h-4.19v4.19h4.19v-4.19h0Z"/>
    </g>
    <g>
      <polygon points="17.9 30.43 17.9 27.31 19.94 27.31 19.94 22 17.9 22 17.9 18.88 23.06 18.88 23.06 27.31 25.1 27.31 25.1 30.43 17.9 30.43"/>
      <path d="M22.52,19.42v8.43h2.04v2.04h-6.13v-2.04h2.04v-6.38h-2.04v-2.04h4.09M23.6,18.35h-6.24v4.19h2.04v4.23h-2.04v4.19h8.28v-4.19h-2.04v-8.43h0Z"/>
    </g>
  </g>
  <circle id="Outer" cx="21.5" cy="21.5" r="18.11" fill="none" stroke="#000" stroke-width="6.79"/>
</svg>