<?xml version="1.0" encoding="UTF-8"?>
<svg id="Layer_1" xmlns="http://www.w3.org/2000/svg" version="1.1" viewBox="0 0 65 65">
  <!-- Generator: Adobe Illustrator 30.1.0, SVG Export Plug-In . SVG Version: 2.1.1 Build 136)  -->
  <g>
    <g>
      <rect x="30.23" y="16.46" width="4.54" height="4.54"/>
      <path d="M34.47,16.76v3.93h-3.93v-3.93h3.93M35.08,16.15h-5.15v5.15h5.15v-5.15h0Z"/>
    </g>
    <g>
      <polygon points="26.29 48.54 26.29 44 30.23 44 30.23 32.32 26.29 32.32 26.29 27.78 34.77 27.78 34.77 44 38.71 44 38.71 48.54 26.29 48.54"/>
      <path d="M34.47,28.09v16.22h3.93v3.93h-11.8v-3.93h3.93v-12.28h-3.93v-3.93h7.87M35.08,27.48h-9.09v5.15h3.93v11.06h-3.93v5.15h13.02v-5.15h-3.93v-16.22h0Z"/>
    </g>
  </g>
  <circle id="Outer" cx="32.5" cy="32.5" r="30.25" fill="none" stroke="#000" stroke-width="4.51"/>
</svg>