<?xml version="1.0" encoding="UTF-8"?>
<svg id="Layer_1" xmlns="http://www.w3.org/2000/svg" version="1.1" viewBox="0 0 65 65">
  <!-- Generator: Adobe Illustrator 30.1.0, SVG Export Plug-In . SVG Version: 2.1.1 Build 136)  -->
  <g>
    <g>
      <rect x="30.1" y="19.35" width="4.8" height="4.8"/>
      <path d="M33.88,20.37v2.77h-2.77v-2.77h2.77M35.91,18.34h-6.83v6.83h6.83v-6.83h0Z"/>
    </g>
    <g>
      <polygon points="27.34 45.02 27.34 40.22 30.1 40.22 30.1 33.62 27.34 33.62 27.34 28.82 34.9 28.82 34.9 40.22 37.66 40.22 37.66 45.02 27.34 45.02"/>
      <path d="M33.88,29.84v11.4h2.77v2.77h-8.3v-2.77h2.77v-8.63h-2.77v-2.77h5.53M35.91,27.81h-9.59v6.83h2.77v4.57h-2.77v6.83h12.36v-6.83h-2.77v-11.4h0Z"/>
    </g>
  </g>
  <circle id="Outer" cx="32.5" cy="32.5" r="26.22" fill="none" stroke="#000" stroke-width="12.55"/>
</svg>