<?xml version="1.0" encoding="UTF-8"?>
<svg id="Layer_1" xmlns="http://www.w3.org/2000/svg" version="1.1" viewBox="0 0 65 65">
  <!-- Generator: Adobe Illustrator 30.1.0, SVG Export Plug-In . SVG Version: 2.1.1 Build 136)  -->
  <g>
    <g>
      <rect x="30.08" y="19.76" width="4.84" height="4.84"/>
      <path d="M33.8,20.87v2.61h-2.61v-2.61h2.61M36.04,18.64h-7.07v7.07h7.07v-7.07h0Z"/>
    </g>
    <g>
      <polygon points="27.47 44.54 27.47 39.69 30.08 39.69 30.08 33.79 27.47 33.79 27.47 28.95 34.92 28.95 34.92 39.69 37.53 39.69 37.53 44.54 27.47 44.54"/>
      <path d="M33.8,30.07v10.74h2.61v2.61h-7.82v-2.61h2.61v-8.14h-2.61v-2.61h5.21M36.04,27.84h-9.68v7.07h2.61v3.67h-2.61v7.07h12.29v-7.07h-2.61v-10.74h0Z"/>
    </g>
  </g>
  <circle id="Outer" cx="32.5" cy="32.5" r="25.65" fill="none" stroke="#000" stroke-width="13.69"/>
</svg>