<?xml version="1.0" encoding="UTF-8"?>
<svg id="Layer_1" xmlns="http://www.w3.org/2000/svg" version="1.1" viewBox="0 0 9 9">
  <!-- Generator: Adobe Illustrator 30.1.0, SVG Export Plug-In . SVG Version: 2.1.1 Build 136)  -->
  <g>
    <g>
      <rect x="4.17" y="2.57" width=".65" height=".65"/>
      <path d="M4.71,2.68v.43h-.43v-.43h.43M4.94,2.45h-.88v.88h.88v-.88h0Z"/>
    </g>
    <g>
      <polygon points="3.75 6.37 3.75 5.72 4.17 5.72 4.17 4.61 3.75 4.61 3.75 3.95 4.83 3.95 4.83 5.72 5.25 5.72 5.25 6.37 3.75 6.37"/>
      <path d="M4.71,4.06v1.76h.43v.43h-1.28v-.43h.43v-1.34h-.43v-.43h.86M4.94,3.84h-1.31v.88h.43v.89h-.43v.88h1.73v-.88h-.43v-1.76h0Z"/>
    </g>
  </g>
  <circle id="Outer" cx="4.5" cy="4.5" r="3.79" fill="none" stroke="#000" stroke-width="1.42"/>
</svg>