<?xml version="1.0" encoding="UTF-8"?>
<svg id="Layer_1" xmlns="http://www.w3.org/2000/svg" version="1.1" viewBox="0 0 9 9">
  <!-- Generator: Adobe Illustrator 30.1.0, SVG Export Plug-In . SVG Version: 2.1.1 Build 136)  -->
  <g>
    <g>
      <rect x="4.17" y="2.68" width=".66" height=".66"/>
      <path d="M4.69,2.82v.38h-.38v-.38h.38M4.97,2.54h-.95v.95h.95v-.95h0Z"/>
    </g>
    <g>
      <polygon points="3.79 6.23 3.79 5.57 4.17 5.57 4.17 4.65 3.79 4.65 3.79 3.99 4.83 3.99 4.83 5.57 5.21 5.57 5.21 6.23 3.79 6.23"/>
      <path d="M4.69,4.13v1.58h.38v.38h-1.15v-.38h.38v-1.2h-.38v-.38h.77M4.97,3.85h-1.33v.95h.38v.63h-.38v.95h1.71v-.95h-.38v-1.58h0Z"/>
    </g>
  </g>
  <circle id="Outer" cx="4.5" cy="4.5" r="3.63" fill="none" stroke="#000" stroke-width="1.74"/>
</svg>