<?xml version="1.0" encoding="UTF-8"?>
<svg id="Layer_1" xmlns="http://www.w3.org/2000/svg" version="1.1" viewBox="0 0 9 9">
  <!-- Generator: Adobe Illustrator 30.1.0, SVG Export Plug-In . SVG Version: 2.1.1 Build 136)  -->
  <g>
    <g>
      <polygon points="4.23 2.91 4.19 2.32 4.77 2.28 4.81 2.91 4.23 2.91"/>
      <path d="M4.77,2.32v.54h-.54v-.54h.54M4.86,2.24h-.71v.71h.71v-.71h0Z"/>
    </g>
    <g>
      <polygon points="3.68 6.72 3.64 6.13 4.23 6.09 4.19 4.43 3.68 4.48 3.64 3.89 4.77 3.85 4.81 6.13 5.32 6.09 5.36 6.72 3.68 6.72"/>
      <path d="M4.77,3.89v2.25h.54v.54h-1.63v-.54h.54v-1.7h-.54v-.54h1.09M4.86,3.8h-1.26v.71h.54v1.53h-.54v.71h1.8v-.71h-.54v-2.25h0Z"/>
    </g>
  </g>
  <circle id="Outer" cx="4.5" cy="4.5" r="4.19" fill="none" stroke="#000" stroke-width=".62"/>
</svg>