<?xml version="1.0" encoding="UTF-8"?>
<svg id="Layer_1" xmlns="http://www.w3.org/2000/svg" version="1.1" viewBox="0 0 13 13">
  <!-- Generator: Adobe Illustrator 30.1.0, SVG Export Plug-In . SVG Version: 2.1.1 Build 136)  -->
  <g>
    <g>
      <rect x="6.02" y="3.95" width=".97" height=".97"/>
      <path d="M6.76,4.17v.52h-.52v-.52h.52M7.21,3.73h-1.41v1.41h1.41v-1.41h0Z"/>
    </g>
    <g>
      <polygon points="5.49 8.91 5.49 7.94 6.02 7.94 6.02 6.76 5.49 6.76 5.49 5.79 6.98 5.79 6.98 7.94 7.51 7.94 7.51 8.91 5.49 8.91"/>
      <path d="M6.76,6.01v2.15h.52v.52h-1.56v-.52h.52v-1.63h-.52v-.52h1.04M7.21,5.57h-1.94v1.41h.52v.73h-.52v1.41h2.46v-1.41h-.52v-2.15h0Z"/>
    </g>
  </g>
  <circle id="Outer" cx="6.5" cy="6.5" r="5.13" fill="none" stroke="#000" stroke-width="2.74"/>
</svg>