<?xml version="1.0" encoding="UTF-8"?>
<svg id="Layer_1" xmlns="http://www.w3.org/2000/svg" version="1.1" viewBox="0 0 13 13">
  <!-- Generator: Adobe Illustrator 30.1.0, SVG Export Plug-In . SVG Version: 2.1.1 Build 136)  -->
  <g>
    <g>
      <rect x="6.04" y="3.37" width=".92" height=".92"/>
      <path d="M6.88,3.45v.75h-.75v-.75h.75M7.04,3.29h-1.08v1.08h1.08v-1.08h0Z"/>
    </g>
    <g>
      <polygon points="5.29 9.61 5.29 8.69 6.04 8.69 6.04 6.5 5.29 6.5 5.29 5.59 6.96 5.59 6.96 8.69 7.71 8.69 7.71 9.61 5.29 9.61"/>
      <path d="M6.88,5.67v3.1h.75v.75h-2.26v-.75h.75v-2.35h-.75v-.75h1.51M7.04,5.51h-1.83v1.08h.75v2.03h-.75v1.08h2.58v-1.08h-.75v-3.1h0Z"/>
    </g>
  </g>
  <circle id="Outer" cx="6.5" cy="6.5" r="5.94" fill="none" stroke="#000" stroke-width="1.13"/>
</svg>