<?xml version="1.0" encoding="UTF-8"?>
<svg id="Layer_1" xmlns="http://www.w3.org/2000/svg" version="1.1" viewBox="0 0 99 99">
  <!-- Generator: Adobe Illustrator 30.1.0, SVG Export Plug-In . SVG Version: 2.1.1 Build 136)  -->
  <path d="M49.5,12.1c1.22,0,2.43.63,3.07,1.89l7.83,15.53c1.34,2.67,3.85,4.55,6.78,5.1l16.93,3.17c2.65.5,3.72,3.71,1.9,5.71l-12.33,13.53c-1.9,2.09-2.79,4.91-2.42,7.72l2.41,18.25c.29,2.18-1.45,3.9-3.41,3.9-.52,0-1.05-.12-1.57-.39l-14.81-7.63c-1.37-.71-2.87-1.06-4.37-1.06s-3,.35-4.37,1.06l-14.81,7.63c-.52.27-1.05.39-1.57.39-1.96,0-3.69-1.72-3.41-3.9l2.41-18.26c.37-2.8-.51-5.62-2.42-7.71l-12.33-13.54c-1.82-1.99-.74-5.21,1.91-5.71l16.93-3.17c2.93-.55,5.43-2.43,6.77-5.1l7.83-15.54c.64-1.26,1.85-1.89,3.07-1.89M49.5,0C43.6,0,38.28,3.27,35.63,8.55l-7.26,14.42-15.69,2.94c-5.53,1.04-10.08,5-11.87,10.34-1.79,5.34-.54,11.25,3.25,15.41l11.55,12.67-2.26,17.1c-.59,4.44.77,8.91,3.71,12.27,2.96,3.37,7.22,5.31,11.69,5.31,2.45,0,4.91-.6,7.11-1.73l13.64-7.03,13.64,7.03c2.2,1.13,4.66,1.73,7.11,1.73,4.47,0,8.73-1.94,11.69-5.31,2.94-3.36,4.3-7.83,3.71-12.27l-2.26-17.1,11.55-12.67c3.79-4.16,5.04-10.07,3.25-15.41-1.79-5.34-6.34-9.3-11.87-10.34l-15.69-2.94-7.26-14.42C60.71,3.27,55.4,0,49.5,0h0Z"/>
</svg>