<?xml version="1.0" encoding="UTF-8"?>
<svg id="Layer_1" xmlns="http://www.w3.org/2000/svg" version="1.1" viewBox="0 0 99 99">
  <!-- Generator: Adobe Illustrator 30.1.0, SVG Export Plug-In . SVG Version: 2.1.1 Build 136)  -->
  <path d="M49.5,8.6c1.33,0,2.66.69,3.35,2.07l8.56,16.98c1.47,2.91,4.21,4.98,7.41,5.58l18.51,3.47c2.89.54,4.07,4.06,2.08,6.24l-13.49,14.8c-2.08,2.28-3.05,5.37-2.64,8.44l2.63,19.96c.31,2.38-1.58,4.27-3.72,4.27-.57,0-1.15-.13-1.72-.42l-16.19-8.34c-1.5-.77-3.14-1.16-4.78-1.16-1.64,0-3.28.39-4.78,1.16l-16.19,8.34c-.56.29-1.15.42-1.72.42-2.14,0-4.04-1.89-3.72-4.27l2.63-19.96c.4-3.06-.56-6.15-2.64-8.43l-13.49-14.8c-1.99-2.18-.81-5.7,2.08-6.24l18.51-3.47c3.2-.6,5.94-2.66,7.41-5.57l8.56-16.99c.69-1.38,2.02-2.07,3.35-2.07M49.5,0c-4.69,0-8.92,2.61-11.04,6.8l-8.56,16.99c-.26.51-.75.88-1.31.99l-18.51,3.47c-4.4.82-8.02,3.98-9.44,8.23-1.42,4.25-.43,8.95,2.59,12.26l13.49,14.8c.37.41.54.96.47,1.51l-2.63,19.96c-.47,3.53.61,7.09,2.95,9.76,2.36,2.69,5.75,4.23,9.3,4.23,1.95,0,3.9-.48,5.66-1.38l16.19-8.34c.26-.14.55-.21.84-.21.29,0,.58.07.85.21l16.19,8.34c1.75.9,3.71,1.38,5.65,1.38,3.55,0,6.94-1.54,9.3-4.23,2.34-2.67,3.42-6.23,2.95-9.76l-2.63-19.96c-.07-.55.1-1.11.47-1.52l13.49-14.8c3.02-3.31,4.01-8.01,2.59-12.26-1.42-4.25-5.04-7.4-9.44-8.22l-18.51-3.47c-.56-.11-1.05-.48-1.31-.99l-8.56-16.98c-2.11-4.19-6.34-6.8-11.04-6.8h0Z"/>
</svg>