<?xml version="1.0" encoding="UTF-8"?>
<svg id="Layer_1" xmlns="http://www.w3.org/2000/svg" version="1.1" viewBox="0 0 99 99">
  <!-- Generator: Adobe Illustrator 30.1.0, SVG Export Plug-In . SVG Version: 2.1.1 Build 136)  -->
  <path d="M49.5,19.12c.99,0,1.98.51,2.49,1.54l6.36,12.62c1.09,2.16,3.13,3.7,5.5,4.14l13.75,2.58c2.15.4,3.02,3.02,1.55,4.63l-10.02,10.99c-1.55,1.7-2.26,3.99-1.96,6.27l1.96,14.82c.23,1.77-1.18,3.17-2.77,3.17-.42,0-.86-.1-1.28-.31l-12.03-6.19c-1.11-.57-2.33-.86-3.55-.86s-2.44.29-3.55.86l-12.03,6.19c-.42.22-.85.31-1.28.31-1.59,0-3-1.4-2.77-3.17l1.96-14.83c.3-2.27-.42-4.57-1.96-6.26l-10.02-10.99c-1.48-1.62-.6-4.23,1.55-4.64l13.75-2.58c2.38-.45,4.41-1.98,5.5-4.14l6.36-12.62c.52-1.02,1.5-1.54,2.49-1.54M49.5,0C41.18,0,33.68,4.62,29.93,12.05l-3.83,7.6-8.22,1.54c-7.8,1.46-14.22,7.05-16.74,14.58-2.52,7.53-.77,15.86,4.58,21.73l6.47,7.1-1.27,9.61c-.83,6.26,1.08,12.57,5.24,17.31,4.17,4.75,10.17,7.48,16.48,7.48,3.47,0,6.93-.84,10.03-2.44l6.83-3.52,6.83,3.52c3.1,1.59,6.56,2.44,10.03,2.44,6.31,0,12.31-2.73,16.48-7.48,4.16-4.74,6.07-11.05,5.24-17.31l-1.27-9.61,6.47-7.1c5.35-5.87,7.11-14.2,4.58-21.73-2.52-7.53-8.94-13.12-16.74-14.58l-8.23-1.54-3.83-7.6C65.32,4.62,57.82,0,49.5,0h0Z"/>
</svg>