<?xml version="1.0" encoding="UTF-8"?>
<svg id="Layer_1" xmlns="http://www.w3.org/2000/svg" version="1.1" viewBox="0 0 99 99">
  <!-- Generator: Adobe Illustrator 30.1.0, SVG Export Plug-In . SVG Version: 2.1.1 Build 136)  -->
  <path d="M49.5,15.62c1.1,0,2.2.57,2.78,1.71l7.09,14.07c1.22,2.41,3.49,4.12,6.14,4.62l15.33,2.87c2.4.45,3.37,3.36,1.72,5.17l-11.17,12.26c-1.72,1.89-2.53,4.45-2.19,6.99l2.18,16.53c.26,1.97-1.31,3.53-3.08,3.53-.47,0-.95-.11-1.42-.35l-13.41-6.91c-1.24-.64-2.6-.96-3.96-.96-1.36,0-2.72.32-3.96.96l-13.41,6.91c-.47.24-.95.35-1.42.35-1.77,0-3.34-1.56-3.08-3.53l2.18-16.53c.33-2.54-.47-5.09-2.19-6.98l-11.17-12.26c-1.65-1.81-.67-4.72,1.73-5.17l15.33-2.87c2.65-.5,4.92-2.2,6.13-4.62l7.09-14.07c.58-1.14,1.68-1.71,2.78-1.71M49.5,0C42.38,0,35.97,3.95,32.77,10.31l-5.54,11-11.94,2.24c-6.67,1.25-12.16,6.03-14.31,12.47-2.16,6.44-.66,13.56,3.92,18.58l9,9.87-1.76,13.34c-.71,5.35.93,10.75,4.48,14.8,3.57,4.07,8.7,6.4,14.1,6.4,2.96,0,5.93-.72,8.58-2.08l10.22-5.26,10.22,5.26c2.65,1.36,5.61,2.08,8.58,2.08,5.39,0,10.53-2.33,14.1-6.4,3.55-4.05,5.18-9.45,4.48-14.8l-1.76-13.34,9-9.87c4.57-5.02,6.08-12.14,3.92-18.58-2.16-6.44-7.64-11.22-14.31-12.47l-11.94-2.24-5.54-11C63.03,3.95,56.62,0,49.5,0h0Z"/>
</svg>