<?xml version="1.0" encoding="UTF-8"?>
<svg id="Layer_1" xmlns="http://www.w3.org/2000/svg" version="1.1" viewBox="0 0 35 35">
  <!-- Generator: Adobe Illustrator 30.1.0, SVG Export Plug-In . SVG Version: 2.1.1 Build 136)  -->
  <path d="M17.5,3.04c.47,0,.94.24,1.19.73l3.03,6c.52,1.03,1.49,1.76,2.62,1.97l6.54,1.23c1.02.19,1.44,1.44.74,2.21l-4.77,5.23c-.74.81-1.08,1.9-.93,2.98l.93,7.05c.11.84-.56,1.51-1.32,1.51-.2,0-.41-.05-.61-.15l-5.72-2.95c-.53-.27-1.11-.41-1.69-.41s-1.16.14-1.69.41l-5.72,2.95c-.2.1-.41.15-.61.15-.76,0-1.43-.67-1.32-1.51l.93-7.06c.14-1.08-.2-2.17-.93-2.98l-4.77-5.23c-.7-.77-.29-2.02.74-2.21l6.54-1.23c1.13-.21,2.1-.94,2.62-1.97l3.03-6.01c.25-.49.72-.73,1.19-.73M17.5,0C15.84,0,14.35.92,13.6,2.4l-3.03,6.01c-.09.18-.26.31-.46.35l-6.54,1.23c-1.56.29-2.84,1.41-3.34,2.91-.5,1.5-.15,3.16.91,4.34l4.77,5.23c.13.14.19.34.17.53l-.93,7.06c-.16,1.25.22,2.51,1.04,3.45.83.95,2.03,1.5,3.29,1.5.69,0,1.38-.17,2-.49l5.72-2.95c.09-.05.19-.07.3-.07s.21.02.3.07l5.72,2.95c.62.32,1.31.49,2,.49,1.26,0,2.46-.54,3.29-1.5.83-.94,1.21-2.2,1.04-3.45l-.93-7.05c-.03-.2.04-.39.17-.54l4.77-5.23c1.07-1.17,1.42-2.83.91-4.34-.5-1.5-1.78-2.62-3.34-2.91l-6.54-1.23c-.2-.04-.37-.17-.46-.35l-3.03-6C20.65.92,19.16,0,17.5,0h0Z"/>
</svg>