<?xml version="1.0" encoding="UTF-8"?>
<svg id="Layer_1" xmlns="http://www.w3.org/2000/svg" version="1.1" viewBox="0 0 35 35">
  <!-- Generator: Adobe Illustrator 30.1.0, SVG Export Plug-In . SVG Version: 2.1.1 Build 136)  -->
  <path d="M17.5,4.28c.43,0,.86.22,1.08.67l2.77,5.49c.47.94,1.36,1.61,2.4,1.8l5.98,1.12c.94.18,1.32,1.31.67,2.02l-4.36,4.79c-.67.74-.99,1.74-.85,2.73l.85,6.45c.1.77-.51,1.38-1.2,1.38-.18,0-.37-.04-.56-.14l-5.23-2.7c-.49-.25-1.02-.37-1.55-.37s-1.06.12-1.55.37l-5.23,2.7c-.18.09-.37.14-.56.14-.69,0-1.31-.61-1.2-1.38l.85-6.45c.13-.99-.18-1.99-.85-2.72l-4.36-4.79c-.64-.7-.26-1.84.67-2.02l5.98-1.12c1.03-.19,1.92-.86,2.39-1.8l2.77-5.49c.22-.45.65-.67,1.08-.67M17.5,0C15.41,0,13.53,1.16,12.6,3.02l-2.57,5.1-5.55,1.04c-1.96.37-3.56,1.77-4.2,3.65-.63,1.89-.19,3.98,1.15,5.45l4.08,4.48-.8,6.05c-.21,1.57.27,3.15,1.31,4.34,1.05,1.19,2.55,1.88,4.13,1.88.87,0,1.74-.21,2.51-.61l4.82-2.48,4.82,2.48c.78.4,1.65.61,2.51.61,1.58,0,3.09-.68,4.13-1.88,1.04-1.19,1.52-2.77,1.31-4.34l-.8-6.04,4.08-4.48c1.34-1.47,1.78-3.56,1.15-5.45-.63-1.89-2.24-3.29-4.2-3.65l-5.55-1.04-2.57-5.1C21.46,1.16,19.59,0,17.5,0h0Z"/>
</svg>