<?xml version="1.0" encoding="UTF-8"?>
<svg id="Layer_1" xmlns="http://www.w3.org/2000/svg" version="1.1" viewBox="0 0 35 35">
  <!-- Generator: Adobe Illustrator 30.1.0, SVG Export Plug-In . SVG Version: 2.1.1 Build 136)  -->
  <path d="M17.5,2.43c.49,0,.98.25,1.24.76l3.15,6.26c.54,1.07,1.55,1.83,2.73,2.06l6.82,1.28c1.07.2,1.5,1.5.77,2.3l-4.97,5.45c-.77.84-1.12,1.98-.97,3.11l.97,7.35c.12.88-.58,1.57-1.37,1.57-.21,0-.42-.05-.63-.16l-5.97-3.07c-.55-.28-1.16-.43-1.76-.43-.6,0-1.21.14-1.76.43l-5.97,3.07c-.21.11-.42.16-.63.16-.79,0-1.49-.69-1.37-1.57l.97-7.36c.15-1.13-.21-2.27-.97-3.11l-4.97-5.45c-.73-.8-.3-2.1.77-2.3l6.82-1.28c1.18-.22,2.19-.98,2.73-2.05l3.15-6.26c.26-.51.75-.76,1.24-.76M17.5,0C16.05,0,14.75.8,14.09,2.1l-3.15,6.26c-.2.39-.58.68-1.01.76l-6.82,1.28c-1.36.25-2.47,1.23-2.91,2.54-.44,1.31-.13,2.76.8,3.78l4.97,5.45c.28.31.42.73.36,1.15l-.97,7.36c-.14,1.09.19,2.19.91,3.01.73.83,1.77,1.31,2.87,1.31.6,0,1.2-.15,1.74-.43l5.97-3.07c.2-.1.43-.16.65-.16.23,0,.45.05.65.16l5.97,3.07c.54.28,1.14.43,1.74.43,1.1,0,2.14-.48,2.87-1.31.72-.82,1.05-1.92.91-3.01l-.97-7.35c-.06-.42.08-.84.36-1.16l4.97-5.45c.93-1.02,1.24-2.47.8-3.78-.44-1.31-1.56-2.28-2.91-2.54l-6.82-1.28c-.43-.08-.81-.37-1.01-.76l-3.15-6.26C20.25.8,18.95,0,17.5,0h0Z"/>
</svg>