<?xml version="1.0" encoding="UTF-8"?>
<svg id="Layer_1" xmlns="http://www.w3.org/2000/svg" version="1.1" viewBox="0 0 104 104">
  <!-- Generator: Adobe Illustrator 30.1.0, SVG Export Plug-In . SVG Version: 2.1.1 Build 136)  -->
  <path d="M52,16.41c1.16,0,2.31.6,2.92,1.8l7.45,14.78c1.28,2.54,3.66,4.33,6.45,4.85l16.11,3.02c2.52.47,3.54,3.53,1.81,5.43l-11.74,12.88c-1.81,1.99-2.65,4.67-2.3,7.34l2.29,17.36c.27,2.07-1.38,3.71-3.24,3.71-.49,0-1-.12-1.49-.37l-14.09-7.26c-1.31-.67-2.73-1.01-4.16-1.01s-2.86.34-4.16,1.01l-14.09,7.26c-.49.25-1,.37-1.49.37-1.86,0-3.51-1.64-3.24-3.71l2.29-17.37c.35-2.66-.49-5.35-2.3-7.33l-11.74-12.88c-1.73-1.9-.71-4.96,1.81-5.43l16.11-3.02c2.78-.52,5.17-2.32,6.44-4.85l7.45-14.78c.6-1.2,1.76-1.8,2.92-1.8M52,0c-7.48,0-14.21,4.15-17.58,10.83l-5.82,11.55-12.54,2.35c-7.01,1.31-12.77,6.33-15.04,13.1-2.27,6.77-.69,14.25,4.12,19.52l9.45,10.37-1.85,14.01c-.74,5.63.97,11.29,4.7,15.55,3.75,4.27,9.14,6.72,14.81,6.72,3.11,0,6.23-.76,9.01-2.19l10.74-5.53,10.74,5.53c2.78,1.43,5.9,2.19,9.01,2.19,5.66,0,11.06-2.45,14.81-6.72,3.73-4.26,5.45-9.92,4.7-15.55l-1.85-14.01,9.45-10.37c4.81-5.27,6.38-12.75,4.12-19.52-2.27-6.76-8.03-11.78-15.04-13.1l-12.55-2.35-5.82-11.55c-3.36-6.68-10.1-10.83-17.58-10.83h0Z"/>
</svg>