<?xml version="1.0" encoding="UTF-8"?>
<svg id="Layer_1" xmlns="http://www.w3.org/2000/svg" version="1.1" viewBox="0 0 104 104">
  <!-- Generator: Adobe Illustrator 30.1.0, SVG Export Plug-In . SVG Version: 2.1.1 Build 136)  -->
  <path d="M52,9.04c1.4,0,2.79.72,3.52,2.17l8.99,17.84c1.54,3.06,4.42,5.23,7.78,5.86l19.45,3.65c3.04.57,4.27,4.27,2.19,6.55l-14.17,15.55c-2.19,2.4-3.2,5.64-2.78,8.86l2.76,20.96c.33,2.5-1.66,4.48-3.91,4.48-.6,0-1.21-.14-1.8-.44l-17.01-8.76c-1.58-.81-3.3-1.22-5.02-1.22-1.72,0-3.45.41-5.02,1.22l-17.01,8.76c-.59.31-1.21.44-1.8.44-2.25,0-4.24-1.98-3.91-4.48l2.77-20.97c.42-3.22-.59-6.46-2.77-8.85l-14.17-15.55c-2.09-2.29-.85-5.99,2.19-6.56l19.44-3.64c3.36-.63,6.24-2.79,7.78-5.86l8.99-17.85c.73-1.45,2.13-2.17,3.52-2.17M52,0C47.07,0,42.63,2.74,40.41,7.14l-8.99,17.85c-.27.54-.79.93-1.38,1.04l-19.44,3.64c-4.62.87-8.42,4.18-9.92,8.64-1.5,4.47-.46,9.4,2.72,12.88l14.17,15.55c.39.43.57,1.01.5,1.59l-2.77,20.97c-.49,3.71.64,7.45,3.1,10.26,2.48,2.82,6.04,4.44,9.77,4.44,2.05,0,4.1-.5,5.94-1.45l17.01-8.76c.28-.14.58-.22.89-.22.31,0,.61.07.89.22l17.01,8.76c1.84.95,3.89,1.45,5.94,1.45,3.73,0,7.3-1.62,9.77-4.44,2.46-2.8,3.59-6.54,3.1-10.26l-2.76-20.96c-.08-.58.1-1.16.5-1.6l14.17-15.55c3.17-3.48,4.21-8.42,2.72-12.88-1.49-4.46-5.29-7.77-9.92-8.64l-19.45-3.65c-.59-.11-1.11-.5-1.38-1.04l-8.99-17.84C61.37,2.74,56.93,0,52,0h0Z"/>
</svg>