<?xml version="1.0" encoding="UTF-8"?>
<svg id="Layer_1" xmlns="http://www.w3.org/2000/svg" version="1.1" viewBox="0 0 104 104">
  <!-- Generator: Adobe Illustrator 30.1.0, SVG Export Plug-In . SVG Version: 2.1.1 Build 136)  -->
  <path d="M52,21.91c.98,0,1.96.51,2.47,1.52l6.3,12.5c1.08,2.14,3.1,3.66,5.45,4.1l13.62,2.55c2.13.4,2.99,2.99,1.53,4.59l-9.92,10.89c-1.53,1.68-2.24,3.95-1.95,6.21l1.94,14.68c.23,1.75-1.17,3.14-2.74,3.14-.42,0-.85-.1-1.26-.31l-11.91-6.14c-1.1-.57-2.31-.85-3.52-.85s-2.41.28-3.52.85l-11.91,6.14c-.42.21-.85.31-1.26.31-1.58,0-2.97-1.39-2.74-3.14l1.94-14.69c.3-2.25-.41-4.52-1.94-6.2l-9.92-10.89c-1.46-1.6-.6-4.19,1.53-4.59l13.62-2.55c2.35-.44,4.37-1.96,5.45-4.1l6.3-12.5c.51-1.01,1.49-1.52,2.47-1.52M52,0C42.63,0,34.19,5.2,29.97,13.57l-3.13,6.22-6.7,1.26c-8.79,1.65-16.01,7.94-18.85,16.41-2.84,8.48-.86,17.85,5.16,24.46l5.48,6.01-1.07,8.15c-.93,7.05,1.22,14.15,5.9,19.49,4.69,5.35,11.45,8.42,18.56,8.42,3.9,0,7.81-.95,11.29-2.74l5.4-2.78,5.4,2.78c3.48,1.79,7.39,2.74,11.29,2.74,7.1,0,13.86-3.07,18.56-8.42,4.68-5.34,6.83-12.44,5.9-19.49l-1.07-8.15,5.48-6.02c6.02-6.61,8-15.98,5.16-24.46-2.84-8.48-10.06-14.77-18.85-16.41l-6.71-1.26-3.13-6.22C69.81,5.2,61.37,0,52,0h0Z"/>
</svg>