<?xml version="1.0" encoding="UTF-8"?>
<svg id="Layer_1" xmlns="http://www.w3.org/2000/svg" version="1.1" viewBox="0 0 11 11">
  <!-- Generator: Adobe Illustrator 30.1.0, SVG Export Plug-In . SVG Version: 2.1.1 Build 136)  -->
  <path d="M5.5,2.12c.11,0,.22.06.28.17l.71,1.4c.12.24.35.41.61.46l1.53.29c.24.04.34.34.17.51l-1.11,1.22c-.17.19-.25.44-.22.7l.22,1.65c.03.2-.13.35-.31.35-.05,0-.1-.01-.14-.03l-1.34-.69c-.12-.06-.26-.1-.39-.1s-.27.03-.39.1l-1.34.69s-.09.03-.14.03c-.18,0-.33-.16-.31-.35l.22-1.65c.03-.25-.05-.51-.22-.7l-1.11-1.22c-.16-.18-.07-.47.17-.52l1.53-.29c.26-.05.49-.22.61-.46l.71-1.4c.06-.11.17-.17.28-.17M5.5,0C4.58,0,3.74.51,3.33,1.34l-.43.84-.91.17c-.87.16-1.58.78-1.86,1.62-.28.84-.09,1.76.51,2.41l.72.79-.14,1.07c-.09.7.12,1.4.58,1.92.46.53,1.13.83,1.83.83.39,0,.77-.09,1.11-.27l.76-.39.76.39c.34.18.73.27,1.11.27.7,0,1.37-.3,1.83-.83.46-.53.67-1.23.58-1.92l-.14-1.07.72-.79c.59-.65.79-1.58.51-2.41-.28-.84-.99-1.46-1.86-1.62l-.91-.17-.43-.84C7.26.51,6.42,0,5.5,0h0Z"/>
</svg>