<?xml version="1.0" encoding="UTF-8"?>
<svg id="Layer_1" xmlns="http://www.w3.org/2000/svg" version="1.1" viewBox="0 0 73 73">
  <!-- Generator: Adobe Illustrator 30.1.0, SVG Export Plug-In . SVG Version: 2.1.1 Build 136)  -->
  <circle id="Outer" cx="36.5" cy="36.5" r="29.45" fill="none" stroke="#000" stroke-width="14.1"/>
  <g>
    <g>
      <rect x="34.16" y="45.6" width="4.65" height="4.65"/>
      <path d="M37.67,46.74v2.37h-2.37v-2.37h2.37M39.95,44.46h-6.93v6.93h6.93v-6.93h0Z"/>
    </g>
    <g>
      <path d="M34.17,41.25l-.02-2.03c0-1.42.53-2.76,1.47-3.8l2.35-2.6c.45-.5.7-1.15.7-1.82,0-.77-.63-1.4-1.42-1.4h-1.51c-.78,0-1.42.63-1.42,1.4v1.14h-4.67v-1.14c0-3.34,2.73-6.05,6.09-6.05h1.51c3.36,0,6.09,2.72,6.09,6.05,0,1.82-.67,3.58-1.9,4.93l-2.35,2.6c-.18.2-.27.43-.27.68l-.02,2.03h-4.63Z"/>
      <path d="M37.25,26.09c2.73,0,4.95,2.2,4.95,4.91,0,1.54-.57,3.02-1.61,4.17l-2.35,2.6c-.36.4-.56.9-.57,1.44v.9h-2.38v-.9c0-1.12.41-2.19,1.17-3.03l2.35-2.6c.64-.71,1-1.63,1-2.58,0-1.4-1.15-2.54-2.56-2.54h-1.51c-1.41,0-2.56,1.14-2.56,2.54h-2.39c0-2.71,2.22-4.91,4.95-4.91h1.51M37.25,23.81h-1.51c-3.99,0-7.23,3.23-7.23,7.19v2.28h6.95v-2.28c0-.14.13-.26.28-.26h1.51c.15,0,.28.12.28.26,0,.39-.14.76-.41,1.06l-2.35,2.6c-1.13,1.25-1.76,2.86-1.76,4.55v.92s.03,2.26.03,2.26h6.89l.02-2.26v-.86s2.34-2.58,2.34-2.58c1.41-1.57,2.19-3.59,2.19-5.7,0-3.97-3.24-7.19-7.23-7.19h0Z"/>
    </g>
  </g>
</svg>