<?xml version="1.0" encoding="UTF-8"?>
<svg id="Layer_1" xmlns="http://www.w3.org/2000/svg" version="1.1" viewBox="0 0 73 73">
  <!-- Generator: Adobe Illustrator 30.1.0, SVG Export Plug-In . SVG Version: 2.1.1 Build 136)  -->
  <circle id="Outer" cx="36.5" cy="36.5" r="30.74" fill="none" stroke="#000" stroke-width="11.52"/>
  <g>
    <g>
      <rect x="34.18" y="46.59" width="4.6" height="4.6"/>
      <path d="M37.87,47.5v2.78h-2.78v-2.78h2.78M39.69,45.68h-6.43v6.43h6.43v-6.43h0Z"/>
    </g>
    <g>
      <path d="M34.19,41.94l-.02-1.95c0-1.55.58-3.03,1.61-4.17l2.75-3.04c.6-.67.93-1.52.93-2.42,0-1.14-.94-2.06-2.08-2.06h-1.77c-1.15,0-2.08.93-2.08,2.06v.91h-4.63v-.91c0-3.68,3.01-6.67,6.71-6.67h1.77c3.7,0,6.71,2.99,6.71,6.67,0,2.03-.75,3.98-2.12,5.5l-2.75,3.05c-.28.31-.43.68-.43,1.08l-.02,1.96h-4.58Z"/>
      <path d="M37.38,24.6c3.2,0,5.8,2.58,5.8,5.76,0,1.81-.67,3.54-1.88,4.88l-2.75,3.05c-.43.47-.66,1.06-.66,1.69v1.05h-2.79v-1.05c0-1.32.48-2.57,1.37-3.55l2.75-3.05c.75-.83,1.17-1.91,1.17-3.03,0-1.64-1.34-2.98-3-2.98h-1.77c-1.65,0-3,1.33-3,2.98h-2.8c0-3.17,2.6-5.76,5.8-5.76h1.77M37.38,22.78h-1.77c-4.2,0-7.62,3.4-7.62,7.58v1.82h6.45v-1.82c0-.63.53-1.15,1.17-1.15h1.77c.65,0,1.17.52,1.17,1.15,0,.67-.25,1.31-.7,1.8l-2.75,3.05c-1.18,1.31-1.84,3-1.85,4.76v1.07s.03,1.81.03,1.81h6.39l.02-1.81v-1.05c.01-.19.07-.34.2-.49l2.75-3.05c1.52-1.68,2.35-3.85,2.35-6.11,0-4.18-3.42-7.58-7.62-7.58h0Z"/>
    </g>
  </g>
</svg>