<?xml version="1.0" encoding="UTF-8"?>
<svg id="Layer_1" xmlns="http://www.w3.org/2000/svg" version="1.1" viewBox="0 0 73 73">
  <!-- Generator: Adobe Illustrator 30.1.0, SVG Export Plug-In . SVG Version: 2.1.1 Build 136)  -->
  <circle id="Outer" cx="36.5" cy="36.5" r="33.97" fill="none" stroke="#000" stroke-width="5.06"/>
  <g>
    <g>
      <rect x="34.19" y="49.03" width="4.57" height="4.57"/>
      <path d="M38.42,49.37v3.89h-3.89v-3.89h3.89M39.1,48.69h-5.25v5.25h5.25v-5.25h0Z"/>
    </g>
    <g>
      <path d="M34.2,43.93l-.02-1.81c0-1.93.72-3.77,2.01-5.2l3.85-4.26c1-1.1,1.55-2.53,1.55-4.01,0-2.11-1.73-3.82-3.85-3.82h-2.47c-2.12,0-3.85,1.71-3.85,3.82v.34h-4.6v-.34c0-4.63,3.79-8.4,8.46-8.4h2.47c4.66,0,8.46,3.77,8.46,8.4,0,2.61-.97,5.12-2.72,7.07l-3.85,4.27c-.55.61-.84,1.35-.84,2.14l-.02,1.81h-4.56Z"/>
      <path d="M37.74,20.59c4.47,0,8.12,3.62,8.12,8.06,0,2.53-.94,4.96-2.64,6.84l-3.85,4.27c-.6.66-.93,1.48-.93,2.37v1.47h-3.9v-1.47c0-1.84.67-3.6,1.91-4.97l3.85-4.26c1.05-1.17,1.63-2.67,1.63-4.24,0-2.3-1.88-4.16-4.19-4.16h-2.47c-2.31,0-4.19,1.87-4.19,4.16h-3.92c0-4.44,3.64-8.06,8.12-8.06h2.47M37.74,19.91h-2.47c-4.85,0-8.8,3.92-8.8,8.74v.68h5.29v-.68c0-1.92,1.57-3.48,3.51-3.48h2.47c1.94,0,3.51,1.56,3.51,3.48,0,1.4-.52,2.74-1.46,3.78l-3.85,4.26c-1.35,1.49-2.09,3.42-2.1,5.42v1.48s.02.68.02.68h5.24v-.68s.02-1.47.02-1.47c0-.71.26-1.37.75-1.92l3.85-4.27c1.81-2.01,2.81-4.6,2.81-7.3,0-4.82-3.95-8.74-8.8-8.74h0Z"/>
    </g>
  </g>
</svg>