<?xml version="1.0" encoding="UTF-8"?>
<svg id="Layer_1" xmlns="http://www.w3.org/2000/svg" version="1.1" viewBox="0 0 73 73">
  <!-- Generator: Adobe Illustrator 30.1.0, SVG Export Plug-In . SVG Version: 2.1.1 Build 136)  -->
  <circle id="Outer" cx="36.5" cy="36.5" r="33.33" fill="none" stroke="#000" stroke-width="6.34"/>
  <g>
    <g>
      <rect x="34.19" y="48.55" width="4.57" height="4.57"/>
      <path d="M38.31,49.01v3.66h-3.66v-3.66h3.66M39.22,48.1h-5.48v5.48h5.48v-5.48h0Z"/>
    </g>
    <g>
      <path d="M34.2,43.51l-.02-1.83c0-1.85.69-3.62,1.93-4.98l3.62-4.01c.92-1.01,1.42-2.32,1.42-3.68,0-1.91-1.57-3.46-3.49-3.46h-2.33c-1.92,0-3.49,1.55-3.49,3.46v.46h-4.6v-.46c0-4.43,3.63-8.04,8.09-8.04h2.33c4.46,0,8.09,3.61,8.09,8.04,0,2.49-.92,4.88-2.6,6.74l-3.62,4.01c-.49.54-.75,1.21-.76,1.92l-.02,1.84h-4.56Z"/>
      <path d="M37.66,21.41c4.21,0,7.64,3.4,7.64,7.58,0,2.38-.88,4.66-2.48,6.43l-3.62,4.01c-.56.62-.87,1.39-.87,2.23v1.38h-3.67v-1.38c0-1.73.63-3.38,1.8-4.67l3.62-4.01c.99-1.1,1.54-2.52,1.54-3.99,0-2.16-1.77-3.92-3.95-3.92h-2.33c-2.18,0-3.95,1.76-3.95,3.92h-3.69c0-4.18,3.43-7.58,7.64-7.58h2.33M37.66,20.5h-2.33c-4.71,0-8.55,3.81-8.55,8.5v.91h5.51v-.91c0-1.66,1.36-3.01,3.03-3.01h2.33c1.67,0,3.03,1.35,3.03,3.01,0,1.25-.46,2.45-1.3,3.38l-3.62,4.01c-1.31,1.45-2.04,3.33-2.05,5.28v1.39s.02.9.02.9h5.46v-.9s.02-1.38.02-1.38c0-.6.22-1.16.64-1.62l3.62-4.01c1.75-1.94,2.71-4.44,2.71-7.05,0-4.68-3.84-8.5-8.55-8.5h0Z"/>
    </g>
  </g>
</svg>