<?xml version="1.0" encoding="UTF-8"?>
<svg id="Layer_1" xmlns="http://www.w3.org/2000/svg" version="1.1" viewBox="0 0 73 73">
  <!-- Generator: Adobe Illustrator 30.1.0, SVG Export Plug-In . SVG Version: 2.1.1 Build 136)  -->
  <circle id="Outer" cx="36.5" cy="36.5" r="32.04" fill="none" stroke="#000" stroke-width="8.92"/>
  <g>
    <g>
      <rect x="34.19" y="47.58" width="4.58" height="4.58"/>
      <path d="M38.08,48.26v3.21h-3.21v-3.21h3.21M39.45,46.9h-5.95v5.95h5.95v-5.95h0Z"/>
    </g>
    <g>
      <path d="M34.2,42.7l-.02-1.89c0-1.7.63-3.31,1.77-4.57l3.18-3.52c.76-.84,1.17-1.92,1.17-3.04,0-1.52-1.25-2.75-2.78-2.75h-2.04c-1.53,0-2.78,1.24-2.78,2.75v.68h-4.61v-.68c0-4.05,3.31-7.34,7.38-7.34h2.04c4.07,0,7.38,3.29,7.38,7.34,0,2.26-.83,4.42-2.35,6.1l-3.18,3.52c-.38.42-.59.94-.59,1.5l-.02,1.89h-4.56Z"/>
      <path d="M37.52,23.03c3.69,0,6.7,2.98,6.7,6.65,0,2.09-.77,4.09-2.18,5.64l-3.18,3.52c-.49.54-.76,1.22-.77,1.95v1.21h-3.22v-1.21c0-1.52.56-2.97,1.58-4.1l3.18-3.52c.87-.96,1.35-2.21,1.35-3.5,0-1.9-1.55-3.44-3.46-3.44h-2.04c-1.91,0-3.46,1.54-3.46,3.44h-3.24c0-3.67,3.01-6.65,6.7-6.65h2.04M37.52,21.66h-2.04c-4.45,0-8.07,3.6-8.07,8.02v1.37h5.97v-1.37c0-1.14.94-2.07,2.09-2.07h2.04c1.15,0,2.09.93,2.09,2.07,0,.95-.35,1.87-1,2.58l-3.18,3.52c-1.25,1.38-1.94,3.16-1.94,5.01v1.23s.02,1.36.02,1.36h5.92v-1.35s.03-1.21.03-1.21c0-.4.14-.75.41-1.05l3.18-3.52c1.63-1.81,2.53-4.14,2.53-6.56,0-4.42-3.62-8.02-8.07-8.02h0Z"/>
    </g>
  </g>
</svg>