<?xml version="1.0" encoding="UTF-8"?>
<svg id="Layer_1" xmlns="http://www.w3.org/2000/svg" version="1.1" viewBox="0 0 73 73">
  <!-- Generator: Adobe Illustrator 30.1.0, SVG Export Plug-In . SVG Version: 2.1.1 Build 136)  -->
  <circle id="Outer" cx="36.5" cy="36.5" r="28.81" fill="none" stroke="#000" stroke-width="15.38"/>
  <g>
    <g>
      <rect x="34.14" y="45.1" width="4.69" height="4.69"/>
      <path d="M37.57,46.36v2.18h-2.18v-2.18h2.18M40.08,43.85h-7.2v7.2h7.2v-7.2h0Z"/>
    </g>
    <g>
      <path d="M34.16,40.94l-.02-2.07c0-1.36.5-2.64,1.4-3.64l2.15-2.39c.38-.42.59-.97.59-1.53,0-.59-.49-1.08-1.09-1.08h-1.38c-.6,0-1.09.48-1.09,1.08v1.25h-4.71v-1.25c0-3.18,2.6-5.77,5.8-5.77h1.38c3.2,0,5.8,2.59,5.8,5.77,0,1.73-.64,3.38-1.8,4.67l-2.16,2.39c-.13.14-.2.31-.2.49l-.02,2.07h-4.66Z"/>
      <path d="M37.19,26.8c2.51,0,4.54,2.02,4.54,4.51,0,1.42-.52,2.78-1.48,3.83l-2.16,2.39c-.33.37-.52.83-.52,1.33v.82h-2.18v-.82c0-1.03.38-2.01,1.07-2.78l2.16-2.39c.59-.65.92-1.5.92-2.37,0-1.29-1.05-2.33-2.35-2.33h-1.38c-1.3,0-2.35,1.05-2.35,2.33h-2.2c0-2.49,2.04-4.51,4.54-4.51h1.38M37.19,24.3h-1.38c-3.89,0-7.05,3.15-7.05,7.02v2.51h6.37l-.52.57c-1.11,1.22-1.72,2.81-1.72,4.45v.85s.03,2.49.03,2.49h7.15l.03-2.48v-.63s2.04-2.25,2.04-2.25c1.37-1.52,2.12-3.47,2.12-5.51,0-3.87-3.16-7.02-7.05-7.02h0ZM35.97,31.49h1.05c-.03.19-.12.37-.25.52l-.8.88v-1.4h0Z"/>
    </g>
  </g>
</svg>