<?xml version="1.0" encoding="UTF-8"?>
<svg id="Layer_1" xmlns="http://www.w3.org/2000/svg" version="1.1" viewBox="0 0 39 39">
  <!-- Generator: Adobe Illustrator 30.1.0, SVG Export Plug-In . SVG Version: 2.1.1 Build 136)  -->
  <path d="M19.5,2.71c.55,0,1.09.28,1.38.85l3.51,6.97c.6,1.2,1.73,2.04,3.04,2.29l7.6,1.42c1.19.22,1.67,1.67.86,2.56l-5.54,6.08c-.85.94-1.25,2.21-1.09,3.46l1.08,8.19c.13.98-.65,1.75-1.53,1.75-.23,0-.47-.05-.71-.17l-6.65-3.42c-.62-.32-1.29-.48-1.96-.48-.67,0-1.35.16-1.96.48l-6.65,3.42c-.23.12-.47.17-.71.17-.88,0-1.66-.77-1.53-1.75l1.08-8.2c.17-1.26-.23-2.52-1.08-3.46l-5.54-6.08c-.82-.9-.33-2.34.86-2.56l7.6-1.42c1.31-.25,2.44-1.09,3.04-2.29l3.51-6.98c.29-.57.83-.85,1.38-.85M19.5,0C17.89,0,16.43.9,15.71,2.34l-3.51,6.98c-.22.44-.64.76-1.12.85l-7.6,1.42c-1.51.28-2.76,1.37-3.25,2.83-.49,1.46-.15,3.08.89,4.22l5.54,6.08c.32.35.46.82.4,1.28l-1.08,8.2c-.16,1.22.21,2.44,1.01,3.36.81.92,1.98,1.46,3.2,1.46.67,0,1.34-.16,1.94-.47l6.65-3.42c.22-.12.47-.18.72-.18.25,0,.5.06.73.18l6.65,3.42c.6.31,1.27.47,1.94.47,1.22,0,2.39-.53,3.2-1.46.8-.92,1.17-2.14,1.01-3.36l-1.08-8.19c-.06-.47.09-.94.4-1.29l5.54-6.08c1.04-1.14,1.38-2.75.89-4.22-.49-1.46-1.73-2.54-3.25-2.83l-7.6-1.42c-.48-.09-.9-.41-1.12-.85l-3.51-6.97C22.57.9,21.11,0,19.5,0h0Z"/>
</svg>