<?xml version="1.0" encoding="UTF-8"?>
<svg id="Layer_1" xmlns="http://www.w3.org/2000/svg" version="1.1" viewBox="0 0 39 39">
  <!-- Generator: Adobe Illustrator 30.1.0, SVG Export Plug-In . SVG Version: 2.1.1 Build 136)  -->
  <path d="M19.5,4.77c.48,0,.96.25,1.21.75l3.08,6.12c.53,1.05,1.52,1.79,2.67,2.01l6.67,1.25c1.04.2,1.47,1.46.75,2.25l-4.86,5.33c-.75.82-1.1,1.94-.95,3.04l.95,7.19c.11.86-.57,1.54-1.34,1.54-.2,0-.42-.05-.62-.15l-5.83-3c-.54-.28-1.13-.42-1.72-.42-.59,0-1.18.14-1.72.42l-5.83,3c-.2.1-.41.15-.62.15-.77,0-1.45-.68-1.34-1.54l.95-7.19c.15-1.1-.2-2.21-.95-3.04l-4.86-5.33c-.72-.79-.29-2.05.75-2.25l6.67-1.25c1.15-.22,2.14-.96,2.67-2.01l3.08-6.12c.25-.5.73-.75,1.21-.75M19.5,0c-2.32,0-4.42,1.29-5.46,3.37l-2.86,5.68-6.18,1.16c-2.18.41-3.97,1.97-4.68,4.07-.7,2.1-.21,4.43,1.28,6.07l4.55,4.99-.89,6.74c-.23,1.75.3,3.51,1.46,4.83,1.17,1.33,2.84,2.09,4.6,2.09.97,0,1.93-.24,2.8-.68l5.37-2.77,5.37,2.77c.87.45,1.83.68,2.8.68,1.76,0,3.44-.76,4.6-2.09,1.16-1.32,1.69-3.08,1.46-4.83l-.89-6.74,4.55-4.99c1.49-1.64,1.98-3.97,1.28-6.07-.7-2.1-2.5-3.66-4.67-4.07l-6.18-1.16-2.86-5.68c-1.05-2.08-3.14-3.37-5.46-3.37h0Z"/>
</svg>