<?xml version="1.0" encoding="UTF-8"?>
<svg id="Layer_1" xmlns="http://www.w3.org/2000/svg" version="1.1" viewBox="0 0 39 39">
  <!-- Generator: Adobe Illustrator 30.1.0, SVG Export Plug-In . SVG Version: 2.1.1 Build 136)  -->
  <path d="M19.5,3.39c.52,0,1.05.27,1.32.81l3.37,6.69c.58,1.15,1.66,1.96,2.92,2.2l7.29,1.37c1.14.21,1.6,1.6.82,2.46l-5.31,5.83c-.82.9-1.2,2.12-1.04,3.32l1.04,7.86c.12.94-.62,1.68-1.47,1.68-.22,0-.45-.05-.68-.17l-6.38-3.28c-.59-.3-1.24-.46-1.88-.46-.65,0-1.29.15-1.88.46l-6.38,3.28c-.22.11-.45.17-.68.17-.84,0-1.59-.74-1.47-1.68l1.04-7.86c.16-1.21-.22-2.42-1.04-3.32l-5.31-5.83c-.78-.86-.32-2.25.82-2.46l7.29-1.37c1.26-.24,2.34-1.05,2.92-2.2l3.37-6.69c.27-.54.8-.81,1.32-.81M19.5,0C17.65,0,15.98,1.03,15.15,2.68l-3.37,6.69c-.1.2-.29.35-.52.39l-7.29,1.37c-1.73.33-3.16,1.57-3.72,3.24-.56,1.67-.17,3.53,1.02,4.83l5.31,5.83c.15.16.21.38.19.59l-1.04,7.86c-.18,1.39.24,2.79,1.16,3.85.93,1.06,2.26,1.67,3.66,1.67.77,0,1.54-.19,2.23-.54l6.38-3.28c.1-.05.22-.08.33-.08.12,0,.23.03.33.08l6.38,3.28c.69.36,1.46.54,2.23.54,1.4,0,2.74-.61,3.66-1.67.92-1.05,1.35-2.45,1.16-3.85l-1.04-7.86c-.03-.22.04-.44.19-.6l5.31-5.83c1.19-1.31,1.58-3.16,1.02-4.83-.56-1.67-1.99-2.91-3.72-3.24l-7.29-1.37c-.22-.04-.41-.19-.52-.39l-3.37-6.69C23.01,1.03,21.35,0,19.5,0h0Z"/>
</svg>