<?xml version="1.0" encoding="UTF-8"?>
<svg id="Layer_1" xmlns="http://www.w3.org/2000/svg" version="1.1" viewBox="0 0 109 109">
  <!-- Generator: Adobe Illustrator 30.1.0, SVG Export Plug-In . SVG Version: 2.1.1 Build 136)  -->
  <path d="M54.5,7.56c1.53,0,3.05.79,3.85,2.37l9.82,19.49c1.69,3.34,4.83,5.71,8.5,6.4l21.24,3.98c3.32.62,4.67,4.66,2.39,7.16l-15.48,16.99c-2.39,2.62-3.5,6.17-3.03,9.68l3.02,22.9c.36,2.73-1.82,4.9-4.27,4.9-.65,0-1.32-.15-1.97-.49l-18.58-9.57c-1.72-.89-3.61-1.33-5.49-1.33-1.88,0-3.77.44-5.49,1.33l-18.58,9.57c-.65.33-1.32.49-1.97.49-2.46,0-4.63-2.16-4.27-4.9l3.02-22.91c.46-3.51-.65-7.05-3.03-9.67l-15.48-16.99c-2.28-2.5-.93-6.54,2.39-7.17l21.24-3.98c3.67-.69,6.82-3.05,8.5-6.4l9.82-19.5c.8-1.58,2.32-2.37,3.85-2.37M54.5,0C49.99,0,45.93,2.5,43.9,6.53l-9.82,19.5c-.62,1.23-1.79,2.11-3.14,2.37l-21.24,3.98c-4.23.79-7.71,3.82-9.07,7.9-1.37,4.09-.42,8.6,2.49,11.79l15.48,16.99c.89.97,1.3,2.28,1.12,3.59l-3.02,22.91c-.45,3.4.58,6.82,2.83,9.38,2.27,2.58,5.52,4.07,8.94,4.07,1.87,0,3.75-.46,5.43-1.33l18.58-9.57c.62-.32,1.33-.49,2.03-.49.7,0,1.4.17,2.03.49l18.58,9.57c1.68.87,3.56,1.33,5.43,1.33,3.41,0,6.67-1.48,8.94-4.07,2.25-2.56,3.28-5.98,2.83-9.38l-3.02-22.9c-.17-1.31.24-2.63,1.13-3.6l15.48-16.99c2.9-3.18,3.85-7.7,2.48-11.78-1.37-4.08-4.84-7.11-9.07-7.9l-21.24-3.98c-1.35-.25-2.52-1.14-3.14-2.37l-9.82-19.49C63.07,2.5,59.01,0,54.5,0h0Z"/>
</svg>