<?xml version="1.0" encoding="UTF-8"?>
<svg id="Layer_1" xmlns="http://www.w3.org/2000/svg" version="1.1" viewBox="0 0 109 109">
  <!-- Generator: Adobe Illustrator 30.1.0, SVG Export Plug-In . SVG Version: 2.1.1 Build 136)  -->
  <path d="M54.5,17.2c1.21,0,2.43.63,3.06,1.89l7.8,15.49c1.34,2.66,3.84,4.54,6.76,5.09l16.88,3.16c2.64.49,3.71,3.7,1.9,5.69l-12.3,13.5c-1.9,2.08-2.78,4.9-2.41,7.7l2.4,18.2c.29,2.17-1.44,3.89-3.4,3.89-.52,0-1.05-.12-1.57-.39l-14.77-7.6c-1.37-.7-2.87-1.06-4.36-1.06s-2.99.35-4.36,1.06l-14.77,7.6c-.52.27-1.05.39-1.57.39-1.95,0-3.68-1.72-3.4-3.89l2.4-18.2c.37-2.79-.51-5.61-2.41-7.69l-12.3-13.5c-1.81-1.99-.74-5.2,1.9-5.69l16.88-3.16c2.92-.55,5.42-2.43,6.75-5.08l7.8-15.49c.63-1.26,1.85-1.89,3.06-1.89M54.5,0C46.66,0,39.6,4.35,36.08,11.35l-6.1,12.11-13.15,2.46c-7.35,1.38-13.39,6.64-15.76,13.73-2.38,7.09-.72,14.93,4.32,20.46l9.9,10.87-1.94,14.68c-.78,5.9,1.02,11.84,4.93,16.3,3.93,4.48,9.58,7.05,15.52,7.05,3.26,0,6.53-.79,9.44-2.3l11.25-5.79,11.25,5.79c2.92,1.5,6.18,2.3,9.44,2.3,5.94,0,11.59-2.57,15.52-7.05,3.91-4.46,5.71-10.4,4.93-16.3l-1.94-14.68,9.91-10.87c5.04-5.53,6.69-13.37,4.31-20.46-2.37-7.09-8.41-12.35-15.76-13.72l-13.15-2.46-6.1-12.11C69.39,4.35,62.34,0,54.5,0h0Z"/>
</svg>