<?xml version="1.0" encoding="UTF-8"?>
<svg id="Layer_1" xmlns="http://www.w3.org/2000/svg" version="1.1" viewBox="0 0 109 109">
  <!-- Generator: Adobe Illustrator 30.1.0, SVG Export Plug-In . SVG Version: 2.1.1 Build 136)  -->
  <path d="M54.5,9.47c1.46,0,2.93.76,3.69,2.28l9.42,18.7c1.62,3.21,4.63,5.48,8.16,6.14l20.38,3.82c3.19.6,4.48,4.47,2.29,6.87l-14.85,16.29c-2.29,2.51-3.36,5.91-2.91,9.29l2.9,21.97c.35,2.62-1.74,4.7-4.1,4.7-.62,0-1.27-.15-1.89-.47l-17.83-9.18c-1.65-.85-3.46-1.28-5.27-1.28-1.81,0-3.61.43-5.27,1.28l-17.83,9.18c-.62.32-1.27.47-1.89.47-2.36,0-4.45-2.08-4.1-4.7l2.9-21.98c.44-3.37-.62-6.77-2.91-9.28l-14.85-16.3c-2.19-2.4-.89-6.28,2.29-6.87l20.38-3.82c3.52-.66,6.54-2.93,8.15-6.14l9.42-18.7c.76-1.52,2.23-2.28,3.69-2.28M54.5,0c-5.17,0-9.82,2.87-12.15,7.49l-9.42,18.7c-.29.57-.82.97-1.44,1.09l-20.38,3.82c-4.85.91-8.83,4.38-10.4,9.06-1.57,4.68-.48,9.86,2.85,13.5l14.85,16.3c.41.45.6,1.06.52,1.66l-2.9,21.98c-.51,3.89.67,7.81,3.25,10.75,2.59,2.96,6.33,4.66,10.24,4.66,2.15,0,4.3-.52,6.23-1.52l17.83-9.18c.29-.15.6-.23.93-.23.32,0,.64.08.93.23l17.83,9.18c1.93.99,4.08,1.52,6.23,1.52,3.91,0,7.65-1.7,10.24-4.66,2.58-2.94,3.76-6.86,3.25-10.75l-2.9-21.97c-.08-.61.11-1.22.52-1.67l14.85-16.29c3.32-3.65,4.41-8.82,2.85-13.5-1.57-4.68-5.55-8.15-10.39-9.05l-20.38-3.82c-.62-.12-1.16-.52-1.45-1.09l-9.42-18.7c-2.33-4.62-6.98-7.49-12.15-7.49h0Z"/>
</svg>