<?xml version="1.0" encoding="UTF-8"?>
<svg id="Layer_1" xmlns="http://www.w3.org/2000/svg" version="1.1" viewBox="0 0 97 97">
  <!-- Generator: Adobe Illustrator 30.1.0, SVG Export Plug-In . SVG Version: 2.1.1 Build 136)  -->
  <circle id="Outer" cx="48.5" cy="48.5" r="40.85" fill="none" stroke="#000" stroke-width="15.31"/>
  <g>
    <g>
      <rect x="45.42" y="61.91" width="6.11" height="6.11"/>
      <path d="M50.32,63.12v3.69h-3.69v-3.69h3.69M52.74,60.7h-8.54v8.54h8.54v-8.54h0Z"/>
    </g>
    <g>
      <path d="M45.43,55.73l-.02-2.6c0-2.06.77-4.02,2.14-5.54l3.65-4.05c.8-.88,1.24-2.02,1.24-3.21,0-1.51-1.24-2.74-2.77-2.74h-2.35c-1.53,0-2.77,1.23-2.77,2.74v1.21h-6.15v-1.21c0-4.89,4-8.86,8.91-8.86h2.35c4.92,0,8.92,3.98,8.92,8.86,0,2.7-1,5.29-2.81,7.3l-3.65,4.05c-.37.41-.57.91-.57,1.44l-.03,2.6h-6.09Z"/>
      <path d="M49.67,32.69c4.25,0,7.7,3.43,7.7,7.65,0,2.4-.89,4.7-2.5,6.49l-3.65,4.05c-.57.63-.88,1.4-.88,2.25v1.39h-3.7v-1.39c0-1.75.64-3.41,1.81-4.71l3.65-4.05c1-1.11,1.55-2.54,1.55-4.02,0-2.18-1.79-3.95-3.98-3.95h-2.35c-2.19,0-3.98,1.77-3.98,3.95h-3.72c0-4.22,3.46-7.65,7.7-7.65h2.35M49.67,30.26h-2.35c-5.58,0-10.13,4.52-10.13,10.07v2.42h8.57v-2.42c0-.84.7-1.53,1.56-1.53h2.35c.86,0,1.56.69,1.56,1.53,0,.89-.33,1.74-.93,2.4l-3.65,4.05c-1.57,1.74-2.44,3.99-2.45,6.33v1.43s.03,2.4.03,2.4h8.49l.02-2.4v-1.39c.01-.25.1-.46.27-.65l3.66-4.05c2.02-2.23,3.13-5.11,3.13-8.11,0-5.55-4.54-10.07-10.13-10.07h0Z"/>
    </g>
  </g>
</svg>