<?xml version="1.0" encoding="UTF-8"?>
<svg id="Layer_1" xmlns="http://www.w3.org/2000/svg" version="1.1" viewBox="0 0 97 97">
  <!-- Generator: Adobe Illustrator 30.1.0, SVG Export Plug-In . SVG Version: 2.1.1 Build 136)  -->
  <circle id="Outer" cx="48.5" cy="48.5" r="38.28" fill="none" stroke="#000" stroke-width="20.43"/>
  <g>
    <g>
      <rect x="45.36" y="59.93" width="6.23" height="6.23"/>
      <path d="M49.92,61.6v2.89h-2.89v-2.89h2.89M53.26,58.26h-9.56v9.56h9.56v-9.56h0Z"/>
    </g>
    <g>
      <path d="M45.38,54.4l-.02-2.75c0-1.8.67-3.51,1.86-4.83l2.86-3.17c.51-.56.79-1.29.79-2.04,0-.79-.65-1.43-1.45-1.43h-1.84c-.8,0-1.45.64-1.45,1.43v1.67h-6.25v-1.67c0-4.23,3.46-7.66,7.71-7.66h1.84c4.25,0,7.71,3.44,7.71,7.66,0,2.29-.85,4.5-2.39,6.21l-2.87,3.17c-.17.19-.26.41-.26.65l-.03,2.76h-6.2Z"/>
      <path d="M49.42,35.62c3.33,0,6.04,2.69,6.04,6,0,1.88-.7,3.69-1.96,5.09l-2.86,3.17c-.44.49-.69,1.1-.69,1.76v1.09h-2.9v-1.09c0-1.37.5-2.68,1.42-3.7l2.86-3.17c.78-.87,1.22-1.99,1.22-3.15,0-1.71-1.4-3.1-3.12-3.1h-1.84c-1.72,0-3.12,1.39-3.12,3.1h-2.92c0-3.31,2.71-6,6.04-6h1.84M49.42,32.28h-1.84c-5.17,0-9.37,4.19-9.37,9.33v3.33h8.46l-.69.76c-1.47,1.62-2.28,3.73-2.29,5.92v1.14s.04,3.3.04,3.3h9.5l.03-3.3v-.84s2.71-2.99,2.71-2.99c1.82-2.01,2.82-4.61,2.82-7.32,0-5.15-4.2-9.33-9.37-9.33h0ZM47.79,41.85h1.39c-.04.25-.16.49-.34.69l-1.06,1.17v-1.86h0Z"/>
    </g>
  </g>
</svg>