<?xml version="1.0" encoding="UTF-8"?>
<svg id="Layer_1" xmlns="http://www.w3.org/2000/svg" version="1.1" viewBox="0 0 97 97">
  <!-- Generator: Adobe Illustrator 30.1.0, SVG Export Plug-In . SVG Version: 2.1.1 Build 136)  -->
  <circle id="Outer" cx="48.5" cy="48.5" r="45.14" fill="none" stroke="#000" stroke-width="6.73"/>
  <g>
    <g>
      <rect x="45.43" y="65.15" width="6.07" height="6.07"/>
      <path d="M51.05,65.61v5.16h-5.16v-5.16h5.16M51.96,64.7h-6.98v6.98h6.98v-6.98h0Z"/>
    </g>
    <g>
      <path d="M45.44,58.38l-.02-2.4c0-2.56.96-5.01,2.68-6.91l5.11-5.67c1.33-1.47,2.05-3.36,2.05-5.33,0-2.8-2.3-5.08-5.12-5.08h-3.29c-2.82,0-5.12,2.28-5.12,5.08v.45h-6.12v-.45c0-6.15,5.04-11.16,11.24-11.16h3.29c6.2,0,11.24,5.01,11.24,11.16,0,3.47-1.29,6.81-3.62,9.39l-5.12,5.67c-.73.81-1.12,1.79-1.12,2.84l-.02,2.41h-6.06Z"/>
      <path d="M50.14,27.36c5.95,0,10.78,4.8,10.78,10.71,0,3.36-1.24,6.59-3.5,9.09l-5.12,5.67c-.79.88-1.23,1.97-1.23,3.15l-.02,1.95h-5.16l-.02-1.95c0-2.45.91-4.78,2.56-6.6l5.11-5.67c1.4-1.55,2.17-3.55,2.17-5.63,0-3.05-2.5-5.53-5.57-5.53h-3.29c-3.07,0-5.57,2.48-5.57,5.53h-5.21c0-5.9,4.84-10.71,10.78-10.71h3.29M50.14,26.46h-3.29c-6.45,0-11.69,5.21-11.69,11.62v.91h7.03v-.91c0-2.55,2.09-4.62,4.66-4.62h3.29c2.57,0,4.66,2.07,4.66,4.62,0,1.86-.69,3.64-1.94,5.02l-5.11,5.67c-1.79,1.98-2.78,4.54-2.79,7.21l.02,1.96v.9h6.97v-.9s.03-1.95.03-1.95c0-.95.35-1.82,1-2.54l5.12-5.67c2.41-2.67,3.74-6.11,3.74-9.69,0-6.41-5.25-11.62-11.69-11.62h0Z"/>
    </g>
  </g>
</svg>