<?xml version="1.0" encoding="UTF-8"?>
<svg id="Layer_1" xmlns="http://www.w3.org/2000/svg" version="1.1" viewBox="0 0 97 97">
  <!-- Generator: Adobe Illustrator 30.1.0, SVG Export Plug-In . SVG Version: 2.1.1 Build 136)  -->
  <circle id="Outer" cx="48.5" cy="48.5" r="44.29" fill="none" stroke="#000" stroke-width="8.43"/>
  <g>
    <g>
      <rect x="45.43" y="64.51" width="6.07" height="6.07"/>
      <path d="M50.9,65.12v4.86h-4.86v-4.86h4.86M52.11,63.91h-7.28v7.28h7.28v-7.28h0Z"/>
    </g>
    <g>
      <path d="M45.44,57.82l-.02-2.44c0-2.46.92-4.8,2.56-6.62l4.81-5.33c1.22-1.35,1.89-3.08,1.89-4.89,0-2.54-2.08-4.6-4.64-4.6h-3.09c-2.56,0-4.64,2.06-4.64,4.6v.61h-6.12v-.61c0-5.89,4.82-10.68,10.75-10.68h3.09c5.93,0,10.75,4.79,10.75,10.68,0,3.31-1.23,6.49-3.45,8.96l-4.81,5.33c-.66.72-1,1.61-1.01,2.55l-.02,2.44h-6.06Z"/>
      <path d="M50.05,28.46c5.6,0,10.15,4.52,10.15,10.08,0,3.16-1.17,6.2-3.29,8.55l-4.81,5.33c-.75.82-1.16,1.85-1.16,2.96l-.02,1.84h-4.86l-.02-1.84c0-2.3.86-4.5,2.41-6.21l4.81-5.33c1.32-1.46,2.04-3.34,2.04-5.3,0-2.87-2.35-5.21-5.24-5.21h-3.09c-2.89,0-5.24,2.34-5.24,5.21h-4.9c0-5.55,4.55-10.08,10.15-10.08h3.09M50.05,27.24h-3.09c-6.26,0-11.36,5.06-11.36,11.29v1.21h7.33v-1.21c0-2.2,1.81-4,4.03-4h3.09c2.22,0,4.03,1.79,4.03,4,0,1.66-.61,3.25-1.73,4.49l-4.81,5.33c-1.74,1.93-2.71,4.42-2.72,7.02l.02,1.85v1.2h7.27v-1.2s.03-1.84.03-1.84c0-.8.3-1.55.85-2.16l4.81-5.33c2.33-2.58,3.61-5.9,3.61-9.36,0-6.22-5.1-11.29-11.36-11.29h0Z"/>
    </g>
  </g>
</svg>