<?xml version="1.0" encoding="UTF-8"?>
<svg id="Layer_1" xmlns="http://www.w3.org/2000/svg" version="1.1" viewBox="0 0 97 97">
  <!-- Generator: Adobe Illustrator 30.1.0, SVG Export Plug-In . SVG Version: 2.1.1 Build 136)  -->
  <circle id="Outer" cx="48.5" cy="48.5" r="39.13" fill="none" stroke="#000" stroke-width="18.73"/>
  <g>
    <g>
      <rect x="45.39" y="60.59" width="6.18" height="6.18"/>
      <path d="M50.05,62.11v3.15h-3.15v-3.15h3.15M53.08,59.07h-9.21v9.21h9.21v-9.21h0Z"/>
    </g>
    <g>
      <path d="M45.41,54.82l-.02-2.69c0-1.88.7-3.67,1.95-5.05l3.12-3.45c.6-.67.93-1.53.93-2.42,0-1.02-.84-1.86-1.88-1.86h-2c-1.04,0-1.88.83-1.88,1.86v1.52h-6.21v-1.52c0-4.44,3.63-8.04,8.09-8.04h2c4.46,0,8.09,3.61,8.09,8.04,0,2.42-.9,4.75-2.53,6.56l-3.12,3.46c-.24.26-.36.57-.36.91l-.03,2.7h-6.15Z"/>
      <path d="M49.5,34.67c3.63,0,6.57,2.93,6.57,6.53,0,2.05-.76,4.01-2.13,5.54l-3.12,3.46c-.48.53-.75,1.2-.75,1.92v1.19h-3.16v-1.19c0-1.49.54-2.91,1.55-4.02l3.12-3.45c.85-.95,1.32-2.17,1.32-3.43,0-1.86-1.52-3.37-3.4-3.37h-2c-1.87,0-3.4,1.51-3.4,3.37h-3.18c0-3.6,2.95-6.53,6.57-6.53h2M49.5,31.64h-2c-5.3,0-9.61,4.29-9.61,9.56v3.03h9.24v-3.03c0-.19.17-.34.37-.34h2c.2,0,.37.16.37.34,0,.52-.19,1.02-.54,1.4l-3.12,3.45c-1.5,1.66-2.33,3.81-2.34,6.04v1.23s.04,3,.04,3h9.15l.03-3v-1.14s3.1-3.43,3.1-3.43c1.88-2.08,2.92-4.77,2.92-7.57,0-5.27-4.31-9.56-9.61-9.56h0Z"/>
    </g>
  </g>
</svg>