<?xml version="1.0" encoding="UTF-8"?>
<svg id="Layer_1" xmlns="http://www.w3.org/2000/svg" version="1.1" viewBox="0 0 97 97">
  <!-- Generator: Adobe Illustrator 30.1.0, SVG Export Plug-In . SVG Version: 2.1.1 Build 136)  -->
  <circle id="Outer" cx="48.5" cy="48.5" r="42.57" fill="none" stroke="#000" stroke-width="11.85"/>
  <g>
    <g>
      <rect x="45.43" y="63.22" width="6.08" height="6.08"/>
      <path d="M50.6,64.13v4.26h-4.26v-4.26h4.26M52.42,62.31h-7.9v7.9h7.9v-7.9h0Z"/>
    </g>
    <g>
      <path d="M45.44,56.74l-.02-2.51c0-2.25.84-4.4,2.35-6.07l4.22-4.68c1-1.11,1.56-2.55,1.56-4.04,0-2.02-1.66-3.66-3.69-3.66h-2.71c-2.04,0-3.69,1.64-3.69,3.66v.91h-6.12v-.91c0-5.38,4.4-9.75,9.81-9.75h2.71c5.41,0,9.81,4.37,9.81,9.75,0,3-1.11,5.88-3.12,8.11l-4.22,4.68c-.51.57-.78,1.25-.79,1.99l-.03,2.52h-6.06Z"/>
      <path d="M49.86,30.6c4.91,0,8.9,3.97,8.9,8.84,0,2.77-1.03,5.44-2.89,7.5l-4.22,4.68c-.65.72-1.02,1.62-1.02,2.6l-.02,1.61h-4.26v-1.61c0-2.02.74-3.95,2.1-5.45l4.22-4.68c1.16-1.28,1.79-2.93,1.79-4.65,0-2.52-2.06-4.57-4.6-4.57h-2.71c-2.54,0-4.6,2.05-4.6,4.57h-4.3c0-4.87,3.99-8.84,8.9-8.84h2.71M49.86,28.78h-2.71c-5.91,0-10.72,4.78-10.72,10.66v1.82h7.94v-1.82c0-1.52,1.25-2.75,2.78-2.75h2.71c1.53,0,2.78,1.23,2.78,2.75,0,1.27-.47,2.49-1.32,3.43l-4.22,4.68c-1.65,1.83-2.57,4.2-2.58,6.66v1.63s.03,1.8.03,1.8h7.87l.02-1.8.02-1.61c0-.53.19-.99.55-1.4l4.22-4.68c2.17-2.4,3.36-5.5,3.36-8.72,0-5.88-4.81-10.66-10.72-10.66h0Z"/>
    </g>
  </g>
</svg>