<?xml version="1.0" encoding="UTF-8"?>
<svg id="Layer_1" xmlns="http://www.w3.org/2000/svg" version="1.1" viewBox="0 0 104 104">
  <!-- Generator: Adobe Illustrator 30.1.0, SVG Export Plug-In . SVG Version: 2.1.1 Build 136)  -->
  <circle id="Outer" cx="52" cy="52" r="41.05" fill="none" stroke="#000" stroke-width="21.91"/>
  <g>
    <g>
      <rect x="48.64" y="64.25" width="6.68" height="6.67"/>
      <path d="M53.53,66.04v3.1h-3.1v-3.1h3.1M57.1,62.47h-10.25v10.25h10.25v-10.25h0Z"/>
    </g>
    <g>
      <path d="M48.66,58.32l-.03-2.94c0-1.93.72-3.76,2-5.18l3.07-3.4c.54-.6.84-1.38.84-2.18,0-.85-.7-1.54-1.56-1.54h-1.97c-.86,0-1.56.69-1.56,1.54v1.79h-6.7v-1.79c0-4.53,3.71-8.22,8.26-8.22h1.97c4.56,0,8.26,3.69,8.26,8.22,0,2.46-.91,4.82-2.56,6.65l-3.07,3.4c-.19.21-.28.44-.28.7l-.03,2.95h-6.64Z"/>
      <path d="M52.99,38.19c3.57,0,6.47,2.88,6.47,6.43,0,2.02-.75,3.95-2.1,5.46l-3.07,3.4c-.48.53-.74,1.18-.74,1.89v1.17h-3.11v-1.17c0-1.47.54-2.87,1.53-3.96l3.07-3.4c.84-.93,1.3-2.13,1.3-3.38,0-1.83-1.5-3.32-3.35-3.32h-1.97c-1.85,0-3.35,1.49-3.35,3.32h-3.13c0-3.54,2.9-6.43,6.47-6.43h1.97M52.99,34.61h-1.97c-5.54,0-10.05,4.49-10.05,10v3.58h9.08l-.73.81c-1.58,1.74-2.45,4-2.46,6.35v1.22s.04,3.54.04,3.54h10.18l.04-3.54v-.9s2.9-3.21,2.9-3.21c1.95-2.16,3.02-4.95,3.02-7.85,0-5.52-4.51-10-10.05-10h0ZM51.24,44.87h1.49c-.05.27-.17.53-.36.73l-1.13,1.26v-1.99h0Z"/>
    </g>
  </g>
</svg>