<?xml version="1.0" encoding="UTF-8"?>
<svg id="Layer_1" xmlns="http://www.w3.org/2000/svg" version="1.1" viewBox="0 0 104 104">
  <!-- Generator: Adobe Illustrator 30.1.0, SVG Export Plug-In . SVG Version: 2.1.1 Build 136)  -->
  <circle id="Outer" cx="52" cy="52" r="43.79" fill="none" stroke="#000" stroke-width="16.41"/>
  <g>
    <g>
      <rect x="48.7" y="66.38" width="6.55" height="6.55"/>
      <path d="M53.95,67.68v3.95h-3.95v-3.95h3.95M56.55,65.08h-9.15v9.15h9.15v-9.15h0Z"/>
    </g>
    <g>
      <path d="M48.71,59.75l-.02-2.78c0-2.21.82-4.31,2.29-5.94l3.92-4.34c.86-.95,1.33-2.17,1.33-3.44,0-1.62-1.33-2.94-2.97-2.94h-2.52c-1.64,0-2.97,1.32-2.97,2.94v1.3h-6.59v-1.3c0-5.24,4.29-9.5,9.56-9.5h2.52c5.27,0,9.56,4.26,9.56,9.5,0,2.89-1.07,5.67-3.02,7.83l-3.92,4.34c-.4.44-.61.97-.61,1.54l-.03,2.79h-6.53Z"/>
      <path d="M53.26,35.05c4.55,0,8.26,3.68,8.26,8.2,0,2.57-.95,5.04-2.68,6.96l-3.92,4.34c-.61.67-.94,1.51-.95,2.41l-.02,1.5h-3.95v-1.5c0-1.87.68-3.66,1.95-5.06l3.92-4.34c1.07-1.19,1.66-2.72,1.66-4.31,0-2.34-1.92-4.24-4.27-4.24h-2.52c-2.35,0-4.27,1.9-4.27,4.24h-3.99c0-4.52,3.7-8.2,8.26-8.2h2.52M53.26,32.45h-2.52c-5.99,0-10.86,4.84-10.86,10.8v2.6h9.19v-2.6c0-.9.75-1.64,1.67-1.64h2.52c.92,0,1.67.73,1.67,1.64,0,.95-.35,1.86-.99,2.57l-3.92,4.34c-1.69,1.86-2.62,4.28-2.63,6.79v1.53s.04,2.58.04,2.58h9.11l.03-2.57.02-1.5c0-.27.09-.49.27-.69l3.92-4.34c2.16-2.39,3.35-5.48,3.35-8.7,0-5.96-4.87-10.8-10.86-10.8h0Z"/>
    </g>
  </g>
</svg>