<?xml version="1.0" encoding="UTF-8"?>
<svg id="Layer_1" xmlns="http://www.w3.org/2000/svg" version="1.1" viewBox="0 0 104 104">
  <!-- Generator: Adobe Illustrator 30.1.0, SVG Export Plug-In . SVG Version: 2.1.1 Build 136)  -->
  <circle id="Outer" cx="52" cy="52" r="48.39" fill="none" stroke="#000" stroke-width="7.22"/>
  <g>
    <g>
      <rect x="48.71" y="69.85" width="6.51" height="6.51"/>
      <path d="M54.74,70.34v5.54h-5.54v-5.54h5.54M55.71,69.37h-7.49v7.49h7.49v-7.49h0Z"/>
    </g>
    <g>
      <path d="M48.72,62.59l-.02-2.58c0-2.75,1.03-5.37,2.87-7.41l5.48-6.07c1.42-1.57,2.2-3.6,2.2-5.71,0-3-2.46-5.45-5.49-5.45h-3.52c-3.03,0-5.49,2.44-5.49,5.45v.49h-6.56v-.49c0-6.6,5.4-11.97,12.05-11.97h3.52c6.64,0,12.05,5.37,12.05,11.97,0,3.72-1.38,7.3-3.88,10.07l-5.48,6.08c-.78.86-1.2,1.92-1.2,3.05l-.03,2.58h-6.5Z"/>
      <path d="M53.76,29.34c6.38,0,11.56,5.15,11.56,11.48,0,3.6-1.33,7.06-3.75,9.74l-5.48,6.08c-.85.94-1.32,2.11-1.32,3.37l-.02,2.09h-5.54l-.02-2.09c0-2.62.98-5.12,2.74-7.08l5.48-6.07c1.5-1.66,2.33-3.81,2.33-6.04,0-3.27-2.68-5.93-5.98-5.93h-3.52c-3.29,0-5.98,2.66-5.98,5.93h-5.59c0-6.33,5.19-11.48,11.56-11.48h3.52M53.76,28.36h-3.52c-6.91,0-12.54,5.59-12.54,12.45v.98h7.54v-.98c0-2.73,2.24-4.96,5-4.96h3.52c2.76,0,5,2.22,5,4.96,0,1.99-.74,3.9-2.08,5.39l-5.48,6.07c-1.92,2.12-2.98,4.87-2.99,7.73l.02,2.11v.97h7.48v-.97s.03-2.09.03-2.09c0-1.01.37-1.96,1.07-2.73l5.49-6.08c2.58-2.86,4.01-6.55,4.01-10.39,0-6.87-5.62-12.45-12.54-12.45h0Z"/>
    </g>
  </g>
</svg>