<?xml version="1.0" encoding="UTF-8"?>
<svg id="Layer_1" xmlns="http://www.w3.org/2000/svg" version="1.1" viewBox="0 0 104 104">
  <!-- Generator: Adobe Illustrator 30.1.0, SVG Export Plug-In . SVG Version: 2.1.1 Build 136)  -->
  <circle id="Outer" cx="52" cy="52" r="47.48" fill="none" stroke="#000" stroke-width="9.03"/>
  <g>
    <g>
      <rect x="48.71" y="69.17" width="6.51" height="6.51"/>
      <path d="M54.57,69.82v5.21h-5.21v-5.21h5.21M55.87,68.52h-7.81v7.81h7.81v-7.81h0Z"/>
    </g>
    <g>
      <path d="M48.72,61.99l-.02-2.62c0-2.63.99-5.15,2.75-7.1l5.16-5.72c1.3-1.44,2.02-3.31,2.02-5.25,0-2.72-2.23-4.93-4.97-4.93h-3.31c-2.74,0-4.97,2.21-4.97,4.93v.65h-6.56v-.65c0-6.31,5.17-11.45,11.53-11.45h3.31c6.36,0,11.53,5.14,11.53,11.45,0,3.55-1.31,6.96-3.7,9.6l-5.16,5.72c-.7.78-1.08,1.72-1.08,2.74l-.03,2.62h-6.5Z"/>
      <path d="M53.66,30.51c6,0,10.88,4.85,10.88,10.8,0,3.39-1.26,6.64-3.53,9.17l-5.16,5.72c-.8.88-1.24,1.98-1.25,3.17l-.02,1.97h-5.21l-.02-1.97c0-2.47.92-4.82,2.58-6.66l5.16-5.72c1.41-1.56,2.19-3.58,2.19-5.68,0-3.08-2.52-5.58-5.62-5.58h-3.31c-3.1,0-5.62,2.51-5.62,5.58h-5.26c0-5.96,4.88-10.8,10.88-10.8h3.31M53.66,29.21h-3.31c-6.72,0-12.18,5.43-12.18,12.1v1.3h7.86v-1.3c0-2.36,1.94-4.28,4.32-4.28h3.31c2.38,0,4.32,1.92,4.32,4.28,0,1.78-.66,3.49-1.86,4.81l-5.16,5.72c-1.87,2.07-2.91,4.74-2.92,7.53l.02,1.99v1.29h7.8v-1.29s.03-1.97.03-1.97c0-.86.32-1.66.91-2.31l5.16-5.72c2.49-2.76,3.87-6.33,3.87-10.04,0-6.67-5.46-12.1-12.18-12.1h0Z"/>
    </g>
  </g>
</svg>