<?xml version="1.0" encoding="UTF-8"?>
<svg id="Layer_1" xmlns="http://www.w3.org/2000/svg" version="1.1" viewBox="0 0 104 104">
  <!-- Generator: Adobe Illustrator 30.1.0, SVG Export Plug-In . SVG Version: 2.1.1 Build 136)  -->
  <circle id="Outer" cx="52" cy="52" r="41.96" fill="none" stroke="#000" stroke-width="20.08"/>
  <g>
    <g>
      <rect x="48.66" y="64.96" width="6.62" height="6.62"/>
      <path d="M53.66,66.59v3.38h-3.38v-3.38h3.38M56.91,63.34h-9.88v9.88h9.88v-9.88h0Z"/>
    </g>
    <g>
      <path d="M48.68,58.77l-.03-2.89c0-2.02.75-3.94,2.09-5.42l3.34-3.7c.64-.71,1-1.64,1-2.59,0-1.1-.91-1.99-2.02-1.99h-2.15c-1.11,0-2.02.89-2.02,1.99v1.62h-6.66v-1.62c0-4.75,3.89-8.62,8.67-8.62h2.15c4.78,0,8.67,3.87,8.67,8.62,0,2.6-.96,5.09-2.71,7.03l-3.34,3.71c-.26.28-.39.61-.39.97l-.03,2.9h-6.59Z"/>
      <path d="M53.07,37.17c3.89,0,7.05,3.14,7.05,7,0,2.2-.81,4.3-2.29,5.94l-3.34,3.71c-.52.57-.8,1.28-.81,2.06v1.28h-3.39v-1.28c0-1.6.58-3.12,1.66-4.31l3.34-3.7c.92-1.01,1.42-2.32,1.42-3.68,0-1.99-1.63-3.62-3.64-3.62h-2.15c-2.01,0-3.64,1.62-3.64,3.62h-3.41c0-3.86,3.16-7,7.05-7h2.15M53.07,33.92h-2.15c-5.68,0-10.3,4.6-10.3,10.25v3.25h9.91v-3.25c0-.2.18-.37.39-.37h2.15c.21,0,.39.17.39.37,0,.55-.21,1.09-.58,1.5l-3.34,3.7c-1.61,1.78-2.5,4.08-2.51,6.48v1.32s.04,3.22.04,3.22h9.81l.03-3.22v-1.22s3.33-3.67,3.33-3.67c2.02-2.23,3.13-5.12,3.13-8.12,0-5.65-4.62-10.25-10.3-10.25h0Z"/>
    </g>
  </g>
</svg>