<?xml version="1.0" encoding="UTF-8"?>
<svg id="Layer_1" xmlns="http://www.w3.org/2000/svg" version="1.1" viewBox="0 0 104 104">
  <!-- Generator: Adobe Illustrator 30.1.0, SVG Export Plug-In . SVG Version: 2.1.1 Build 136)  -->
  <circle id="Outer" cx="52" cy="52" r="45.65" fill="none" stroke="#000" stroke-width="12.71"/>
  <g>
    <g>
      <rect x="48.71" y="67.79" width="6.52" height="6.52"/>
      <path d="M54.26,68.76v4.57h-4.57v-4.57h4.57M56.21,66.81h-8.47v8.47h8.47v-8.47h0Z"/>
    </g>
    <g>
      <path d="M48.72,60.83l-.02-2.69c0-2.42.9-4.72,2.52-6.5l4.53-5.01c1.08-1.19,1.67-2.73,1.67-4.33,0-2.16-1.78-3.92-3.96-3.92h-2.91c-2.18,0-3.96,1.76-3.96,3.92v.98h-6.56v-.98c0-5.76,4.72-10.45,10.52-10.45h2.91c5.8,0,10.52,4.69,10.52,10.45,0,3.21-1.19,6.3-3.35,8.7l-4.53,5.02c-.55.61-.84,1.34-.84,2.13l-.03,2.7h-6.5Z"/>
      <path d="M53.45,32.81c5.26,0,9.54,4.25,9.54,9.48,0,2.97-1.1,5.83-3.1,8.04l-4.53,5.02c-.7.78-1.09,1.74-1.09,2.78l-.02,1.73h-4.57l-.02-1.73c0-2.17.81-4.23,2.26-5.84l4.53-5.01c1.24-1.37,1.92-3.14,1.92-4.99,0-2.7-2.21-4.9-4.93-4.9h-2.91c-2.72,0-4.93,2.2-4.93,4.9h-4.61c0-5.23,4.28-9.48,9.54-9.48h2.91M53.45,30.86h-2.91c-6.34,0-11.49,5.13-11.49,11.43v1.95h8.51v-1.95c0-1.63,1.34-2.95,2.98-2.95h2.91c1.64,0,2.98,1.32,2.98,2.95,0,1.36-.5,2.67-1.42,3.68l-4.53,5.02c-1.77,1.96-2.76,4.5-2.77,7.14l.02,1.75.02,1.93h8.43l.02-1.93.02-1.73c0-.57.2-1.07.59-1.5l4.53-5.02c2.32-2.57,3.6-5.89,3.6-9.35,0-6.3-5.16-11.43-11.49-11.43h0Z"/>
    </g>
  </g>
</svg>