<?xml version="1.0" encoding="UTF-8"?>
<svg id="Layer_1" xmlns="http://www.w3.org/2000/svg" version="1.1" viewBox="0 0 124 124">
  <!-- Generator: Adobe Illustrator 30.1.0, SVG Export Plug-In . SVG Version: 2.1.1 Build 136)  -->
  <path d="M62,8.6c1.74,0,3.47.9,4.38,2.7l11.17,22.18c1.92,3.81,5.49,6.5,9.67,7.28l24.17,4.53c3.78.71,5.31,5.3,2.72,8.15l-17.61,19.32c-2.72,2.98-3.98,7.01-3.45,11.02l3.44,26.05c.41,3.11-2.07,5.57-4.86,5.57-.74,0-1.5-.17-2.24-.55l-21.14-10.89c-1.96-1.01-4.1-1.51-6.24-1.51s-4.28.5-6.24,1.51l-21.14,10.89c-.74.38-1.5.55-2.24.55-2.79,0-5.27-2.46-4.86-5.57l3.44-26.06c.53-4-.73-8.03-3.45-11l-17.61-19.32c-2.59-2.85-1.06-7.44,2.72-8.15l24.17-4.53c4.18-.78,7.75-3.47,9.67-7.28l11.17-22.18c.91-1.8,2.64-2.7,4.38-2.7M62,0C56.87,0,52.25,2.85,49.94,7.43l-11.17,22.18c-.7,1.4-2.04,2.4-3.57,2.69l-24.17,4.53c-4.81.9-8.77,4.35-10.32,8.99-1.56,4.65-.47,9.79,2.83,13.41l17.61,19.32c1.01,1.11,1.47,2.6,1.28,4.08l-3.44,26.06c-.51,3.87.66,7.75,3.22,10.67,2.58,2.94,6.28,4.63,10.17,4.63,2.13,0,4.27-.52,6.18-1.51l21.14-10.89c.71-.37,1.51-.56,2.31-.56s1.6.19,2.31.56l21.14,10.89c1.92.99,4.05,1.51,6.18,1.51,3.88,0,7.59-1.69,10.17-4.63,2.56-2.92,3.73-6.81,3.22-10.67l-3.44-26.05c-.2-1.49.27-2.99,1.28-4.1l17.61-19.32c3.3-3.62,4.38-8.76,2.83-13.41-1.56-4.64-5.51-8.09-10.32-8.99l-24.17-4.53c-1.53-.29-2.87-1.3-3.58-2.7l-11.17-22.18C71.75,2.85,67.13,0,62,0h0Z"/>
</svg>