<?xml version="1.0" encoding="UTF-8"?>
<svg id="Layer_1" xmlns="http://www.w3.org/2000/svg" version="1.1" viewBox="0 0 124 124">
  <!-- Generator: Adobe Illustrator 30.1.0, SVG Export Plug-In . SVG Version: 2.1.1 Build 136)  -->
  <path d="M62,19.57c1.38,0,2.76.72,3.48,2.15l8.88,17.62c1.52,3.02,4.37,5.16,7.69,5.79l19.2,3.6c3,.56,4.22,4.21,2.16,6.47l-13.99,15.35c-2.16,2.37-3.16,5.57-2.74,8.75l2.73,20.7c.33,2.47-1.64,4.43-3.86,4.43-.59,0-1.2-.14-1.78-.44l-16.8-8.65c-1.56-.8-3.26-1.2-4.96-1.2-1.7,0-3.4.4-4.96,1.2l-16.8,8.65c-.59.3-1.19.44-1.78.44-2.22,0-4.19-1.96-3.86-4.43l2.73-20.71c.42-3.18-.58-6.38-2.74-8.74l-13.99-15.36c-2.06-2.26-.84-5.91,2.16-6.48l19.2-3.6c3.32-.62,6.16-2.76,7.68-5.78l8.88-17.62c.72-1.43,2.1-2.15,3.48-2.15M62,0C53.08,0,45.05,4.95,41.04,12.91l-6.94,13.77-14.95,2.8c-8.36,1.57-15.23,7.55-17.93,15.62-2.7,8.07-.82,16.99,4.91,23.28l11.27,12.36-2.2,16.7c-.88,6.71,1.16,13.46,5.61,18.54,4.47,5.09,10.9,8.01,17.65,8.01,3.71,0,7.42-.9,10.74-2.61l12.8-6.59,12.8,6.59c3.32,1.71,7.03,2.61,10.74,2.61,6.75,0,13.19-2.92,17.65-8.02,4.45-5.07,6.49-11.83,5.61-18.54l-2.2-16.7,11.27-12.37c5.73-6.29,7.61-15.21,4.91-23.27-2.7-8.06-9.57-14.05-17.93-15.61l-14.96-2.8-6.94-13.77C78.94,4.95,70.91,0,62,0h0Z"/>
</svg>