<?xml version="1.0" encoding="UTF-8"?>
<svg id="Layer_1" xmlns="http://www.w3.org/2000/svg" version="1.1" viewBox="0 0 124 124">
  <!-- Generator: Adobe Illustrator 30.1.0, SVG Export Plug-In . SVG Version: 2.1.1 Build 136)  -->
  <path d="M62,23.95c1.24,0,2.47.64,3.12,1.92l7.96,15.8c1.37,2.71,3.92,4.63,6.89,5.19l17.22,3.23c2.69.5,3.79,3.78,1.94,5.81l-12.55,13.77c-1.94,2.12-2.84,5-2.46,7.85l2.45,18.57c.29,2.22-1.47,3.97-3.46,3.97-.53,0-1.07-.12-1.6-.39l-15.06-7.76c-1.4-.72-2.92-1.08-4.45-1.08s-3.05.36-4.45,1.08l-15.06,7.76c-.53.27-1.07.39-1.6.39-1.99,0-3.76-1.75-3.46-3.97l2.45-18.57c.38-2.85-.52-5.72-2.46-7.84l-12.55-13.77c-1.85-2.03-.76-5.3,1.94-5.81l17.22-3.23c2.98-.56,5.52-2.48,6.89-5.19l7.96-15.81c.65-1.28,1.88-1.92,3.12-1.92M62,0C51.57,0,42.18,5.79,37.49,15.1l-4.8,9.52-10.3,1.93c-9.77,1.83-17.81,8.83-20.97,18.26-3.16,9.43-.96,19.86,5.74,27.22l8.1,8.89-1.59,12.03c-1.03,7.84,1.36,15.74,6.56,21.68,5.22,5.95,12.74,9.37,20.64,9.37,4.34,0,8.69-1.06,12.56-3.05l8.55-4.4,8.55,4.4c3.88,2,8.22,3.05,12.56,3.05,7.9,0,15.42-3.41,20.64-9.37,5.2-5.94,7.6-13.84,6.56-21.68l-1.59-12.03,8.11-8.89c6.7-7.35,8.9-17.78,5.74-27.21-3.16-9.43-11.19-16.43-20.97-18.26l-10.3-1.93-4.8-9.52C81.82,5.79,72.42,0,62,0h0Z"/>
</svg>