<?xml version="1.0" encoding="UTF-8"?>
<svg id="Layer_1" xmlns="http://www.w3.org/2000/svg" version="1.1" viewBox="0 0 124 124">
  <!-- Generator: Adobe Illustrator 30.1.0, SVG Export Plug-In . SVG Version: 2.1.1 Build 136)  -->
  <path d="M62,10.77c1.67,0,3.33.86,4.2,2.59l10.72,21.27c1.84,3.65,5.27,6.23,9.28,6.98l23.19,4.35c3.62.68,5.1,5.09,2.61,7.81l-16.89,18.54c-2.61,2.86-3.82,6.73-3.31,10.57l3.3,24.99c.39,2.98-1.98,5.34-4.66,5.34-.71,0-1.44-.17-2.15-.53l-20.28-10.44c-1.88-.97-3.94-1.45-5.99-1.45-2.06,0-4.11.48-5.99,1.45l-20.28,10.44c-.71.36-1.44.53-2.15.53-2.68,0-5.06-2.36-4.66-5.34l3.3-25c.51-3.84-.7-7.7-3.31-10.56l-16.89-18.54c-2.49-2.73-1.02-7.14,2.61-7.82l23.18-4.35c4.01-.75,7.44-3.33,9.28-6.98l10.72-21.28c.87-1.73,2.54-2.59,4.2-2.59M62,0C56.12,0,50.82,3.26,48.18,8.52l-10.72,21.28c-.32.64-.94,1.11-1.64,1.24l-23.18,4.35c-5.51,1.03-10.04,4.98-11.83,10.3-1.78,5.33-.54,11.21,3.24,15.36l16.89,18.54c.47.51.68,1.2.59,1.89l-3.3,25c-.58,4.43.76,8.88,3.69,12.23,2.95,3.37,7.2,5.3,11.65,5.3,2.44,0,4.89-.6,7.08-1.73l20.28-10.44c.33-.17.69-.26,1.06-.26.37,0,.73.09,1.06.26l20.28,10.44c2.19,1.13,4.64,1.73,7.08,1.73,4.45,0,8.7-1.93,11.65-5.3,2.93-3.34,4.28-7.8,3.69-12.23l-3.3-24.99c-.09-.69.13-1.39.59-1.9l16.89-18.54c3.78-4.15,5.02-10.03,3.24-15.36-1.78-5.32-6.31-9.27-11.82-10.3l-23.19-4.35c-.7-.13-1.32-.6-1.65-1.24l-10.72-21.27C73.17,3.26,67.88,0,62,0h0Z"/>
</svg>