<?xml version="1.0" encoding="UTF-8"?>
<svg id="Layer_1" xmlns="http://www.w3.org/2000/svg" version="1.1" viewBox="0 0 124 124">
  <!-- Generator: Adobe Illustrator 30.1.0, SVG Export Plug-In . SVG Version: 2.1.1 Build 136)  -->
  <path d="M62,15.15c1.52,0,3.05.79,3.84,2.37l9.8,19.46c1.68,3.34,4.82,5.7,8.49,6.39l21.2,3.97c3.32.62,4.66,4.65,2.39,7.15l-15.45,16.95c-2.38,2.62-3.49,6.15-3.03,9.67l3.01,22.86c.36,2.73-1.81,4.89-4.27,4.89-.65,0-1.32-.15-1.97-.49l-18.55-9.55c-1.72-.89-3.6-1.33-5.48-1.33-1.88,0-3.76.44-5.48,1.33l-18.55,9.55c-.65.33-1.32.49-1.97.49-2.45,0-4.63-2.16-4.27-4.89l3.02-22.87c.46-3.51-.64-7.04-3.03-9.65l-15.45-16.95c-2.28-2.5-.93-6.53,2.39-7.15l21.2-3.97c3.67-.69,6.8-3.05,8.48-6.38l9.8-19.46c.8-1.58,2.32-2.37,3.84-2.37M62,0c-7.39,0-14.05,4.1-17.37,10.7l-9.1,18.06-19.65,3.68c-6.93,1.3-12.62,6.26-14.86,12.95-2.24,6.69-.68,14.09,4.07,19.3l14.46,15.87-2.82,21.42c-.73,5.56.96,11.16,4.65,15.37,3.71,4.23,9.04,6.65,14.64,6.65,3.07,0,6.15-.75,8.9-2.17l17.09-8.8,17.09,8.8c2.75,1.42,5.83,2.17,8.9,2.17,5.6,0,10.93-2.42,14.64-6.65,3.69-4.21,5.38-9.81,4.65-15.37l-2.82-21.42,14.47-15.87c4.75-5.21,6.31-12.61,4.07-19.3-2.24-6.69-7.93-11.65-14.86-12.95l-19.66-3.68-9.1-18.06c-3.33-6.6-9.98-10.7-17.37-10.7h0Z"/>
</svg>