<?xml version="1.0" encoding="UTF-8"?>
<svg id="Layer_1" xmlns="http://www.w3.org/2000/svg" version="1.1" viewBox="0 0 55 55">
  <!-- Generator: Adobe Illustrator 30.1.0, SVG Export Plug-In . SVG Version: 2.1.1 Build 136)  -->
  <path d="M27.5,10.62c.55,0,1.1.28,1.38.85l3.53,7.01c.61,1.2,1.74,2.05,3.06,2.3l7.64,1.43c1.19.22,1.68,1.68.86,2.57l-5.57,6.11c-.86.94-1.26,2.22-1.09,3.48l1.09,8.24c.13.98-.65,1.76-1.54,1.76-.23,0-.48-.05-.71-.17l-6.68-3.44c-.62-.32-1.3-.48-1.97-.48-.68,0-1.35.16-1.97.48l-6.68,3.44c-.23.12-.47.17-.71.17-.88,0-1.67-.78-1.54-1.76l1.09-8.24c.17-1.26-.23-2.54-1.09-3.48l-5.57-6.11c-.82-.9-.34-2.35.86-2.58l7.64-1.43c1.32-.25,2.45-1.1,3.06-2.3l3.53-7.01c.29-.57.84-.85,1.38-.85M27.5,0c-4.62,0-8.79,2.57-10.87,6.7l-2.13,4.22-4.57.86c-4.34.81-7.9,3.92-9.3,8.1-1.4,4.18-.43,8.81,2.55,12.07l3.59,3.94-.7,5.34c-.46,3.48.6,6.98,2.91,9.62,2.32,2.64,5.65,4.16,9.16,4.16,1.93,0,3.85-.47,5.57-1.35l3.79-1.95,3.79,1.95c1.72.89,3.65,1.35,5.57,1.35,3.5,0,6.84-1.51,9.16-4.16,2.31-2.63,3.37-6.14,2.91-9.62l-.7-5.34,3.6-3.94c2.97-3.26,3.95-7.89,2.55-12.07-1.4-4.18-4.96-7.29-9.3-8.1l-4.57-.86-2.13-4.22c-2.08-4.13-6.25-6.7-10.87-6.7h0Z"/>
</svg>