<?xml version="1.0" encoding="UTF-8"?>
<svg id="Layer_1" xmlns="http://www.w3.org/2000/svg" version="1.1" viewBox="0 0 55 55">
  <!-- Generator: Adobe Illustrator 30.1.0, SVG Export Plug-In . SVG Version: 2.1.1 Build 136)  -->
  <path d="M27.5,8.68c.61,0,1.22.32,1.54.95l3.94,7.82c.68,1.34,1.94,2.29,3.41,2.57l8.52,1.6c1.33.25,1.87,1.87.96,2.87l-6.21,6.81c-.96,1.05-1.4,2.47-1.22,3.88l1.21,9.18c.14,1.1-.73,1.96-1.71,1.96-.26,0-.53-.06-.79-.19l-7.45-3.84c-.69-.36-1.45-.53-2.2-.53-.76,0-1.51.18-2.2.53l-7.45,3.84c-.26.13-.53.19-.79.19-.99,0-1.86-.87-1.71-1.96l1.21-9.19c.19-1.41-.26-2.83-1.22-3.88l-6.21-6.81c-.91-1-.37-2.62.96-2.87l8.52-1.6c1.47-.28,2.73-1.22,3.41-2.56l3.94-7.82c.32-.63.93-.95,1.54-.95M27.5,0C23.55,0,19.98,2.19,18.2,5.73l-3.08,6.11-6.63,1.24c-3.71.69-6.75,3.35-7.95,6.93-1.2,3.58-.36,7.53,2.18,10.32l5,5.48-.98,7.41c-.39,2.97.51,5.97,2.49,8.22,1.98,2.26,4.84,3.56,7.83,3.56,1.65,0,3.29-.4,4.76-1.16l5.68-2.92,5.68,2.92c1.47.76,3.12,1.16,4.76,1.16,3,0,5.85-1.3,7.83-3.56,1.97-2.25,2.88-5.25,2.49-8.22l-.98-7.41,5-5.49c2.54-2.79,3.38-6.74,2.18-10.32-1.2-3.58-4.25-6.23-7.95-6.93l-6.64-1.24-3.08-6.11C35.02,2.19,31.45,0,27.5,0h0Z"/>
</svg>