<?xml version="1.0" encoding="UTF-8"?>
<svg id="Layer_1" xmlns="http://www.w3.org/2000/svg" version="1.1" viewBox="0 0 55 55">
  <!-- Generator: Adobe Illustrator 30.1.0, SVG Export Plug-In . SVG Version: 2.1.1 Build 136)  -->
  <path d="M27.5,6.72c.68,0,1.35.35,1.7,1.05l4.35,8.63c.75,1.48,2.14,2.53,3.76,2.83l9.4,1.76c1.47.28,2.07,2.06,1.06,3.17l-6.85,7.52c-1.06,1.16-1.55,2.73-1.34,4.29l1.34,10.14c.16,1.21-.8,2.17-1.89,2.17-.29,0-.59-.07-.87-.22l-8.23-4.24c-.76-.39-1.6-.59-2.43-.59-.83,0-1.67.2-2.43.59l-8.23,4.24c-.29.15-.58.22-.87.22-1.09,0-2.05-.96-1.89-2.17l1.34-10.14c.21-1.56-.29-3.12-1.34-4.28l-6.85-7.52c-1.01-1.11-.41-2.9,1.06-3.17l9.4-1.76c1.63-.3,3.02-1.35,3.76-2.83l4.35-8.63c.35-.7,1.03-1.05,1.7-1.05M27.5,0C24.22,0,21.27,1.82,19.79,4.75l-4.04,8.01-8.72,1.63c-3.07.58-5.6,2.78-6.59,5.74-.99,2.97-.3,6.25,1.81,8.56l6.41,7.04-1.25,9.5c-.33,2.47.43,4.95,2.06,6.82,1.64,1.87,4.01,2.95,6.49,2.95,1.36,0,2.73-.33,3.95-.96l7.58-3.9,7.58,3.9c1.22.63,2.59.96,3.95.96,2.48,0,4.85-1.08,6.49-2.95,1.64-1.87,2.39-4.35,2.06-6.82l-1.25-9.5,6.42-7.04c2.11-2.31,2.8-5.59,1.81-8.56-.99-2.97-3.52-5.17-6.59-5.74l-8.72-1.63-4.04-8.01C33.73,1.82,30.78,0,27.5,0h0Z"/>
</svg>