<?xml version="1.0" encoding="UTF-8"?>
<svg id="Layer_1" xmlns="http://www.w3.org/2000/svg" version="1.1" viewBox="0 0 55 55">
  <!-- Generator: Adobe Illustrator 30.1.0, SVG Export Plug-In . SVG Version: 2.1.1 Build 136)  -->
  <path d="M27.5,4.78c.74,0,1.48.38,1.86,1.15l4.75,9.44c.82,1.62,2.34,2.76,4.12,3.1l10.28,1.93c1.61.3,2.26,2.26,1.16,3.47l-7.49,8.22c-1.16,1.27-1.69,2.98-1.47,4.69l1.46,11.09c.17,1.32-.88,2.37-2.07,2.37-.32,0-.64-.07-.95-.24l-9-4.63c-.83-.43-1.75-.64-2.66-.64-.91,0-1.82.21-2.66.64l-9,4.63c-.31.16-.64.24-.95.24-1.19,0-2.24-1.05-2.07-2.37l1.46-11.09c.22-1.7-.31-3.41-1.47-4.68l-7.49-8.22c-1.1-1.21-.45-3.17,1.16-3.47l10.28-1.93c1.78-.33,3.3-1.48,4.11-3.1l4.75-9.44c.39-.77,1.12-1.15,1.86-1.15M27.5,0C24.89,0,22.54,1.45,21.37,3.78l-4.75,9.44c-.14.29-.42.49-.73.55l-10.28,1.93c-2.45.46-4.46,2.21-5.25,4.57-.79,2.36-.24,4.97,1.44,6.81l7.49,8.22c.21.23.3.53.26.84l-1.46,11.09c-.26,1.96.34,3.94,1.64,5.42,1.31,1.49,3.19,2.35,5.17,2.35,1.08,0,2.17-.26,3.14-.77l9-4.63c.15-.08.3-.11.47-.11.16,0,.32.04.47.11l9,4.63c.97.5,2.06.77,3.14.77,1.97,0,3.86-.86,5.17-2.35,1.3-1.48,1.9-3.46,1.64-5.42l-1.46-11.09c-.04-.31.06-.62.26-.84l7.49-8.22c1.68-1.84,2.23-4.45,1.44-6.81-.79-2.36-2.8-4.11-5.24-4.57l-10.28-1.93c-.31-.06-.59-.26-.73-.55l-4.75-9.44C32.46,1.45,30.11,0,27.5,0h0Z"/>
</svg>