<?xml version="1.0" encoding="UTF-8"?>
<svg id="Layer_1" xmlns="http://www.w3.org/2000/svg" version="1.1" viewBox="0 0 81 81">
  <!-- Generator: Adobe Illustrator 30.1.0, SVG Export Plug-In . SVG Version: 2.1.1 Build 136)  -->
  <circle id="Outer" cx="40.5" cy="40.5" r="32.68" fill="none" stroke="#000" stroke-width="15.64"/>
  <g>
    <g>
      <rect x="37.9" y="50.6" width="5.16" height="5.16"/>
      <path d="M41.79,51.86v2.63h-2.63v-2.63h2.63M44.33,49.33h-7.69v7.69h7.69v-7.69h0Z"/>
    </g>
    <g>
      <path d="M37.92,45.77l-.02-2.25c0-1.57.58-3.07,1.63-4.22l2.6-2.88c.5-.56.78-1.27.78-2.02,0-.86-.71-1.55-1.57-1.55h-1.67c-.87,0-1.57.7-1.57,1.55v1.27h-5.18v-1.27c0-3.7,3.03-6.72,6.75-6.72h1.67c3.73,0,6.76,3.01,6.76,6.72,0,2.02-.75,3.97-2.11,5.47l-2.6,2.89c-.2.22-.3.48-.3.76l-.02,2.26h-5.13Z"/>
      <path d="M41.34,28.95c3.03,0,5.49,2.45,5.49,5.45,0,1.71-.63,3.35-1.78,4.63l-2.6,2.89c-.4.45-.63,1-.63,1.6v.99h-2.64v-.99c0-1.25.45-2.43,1.29-3.36l2.6-2.88c.71-.79,1.11-1.81,1.11-2.87,0-1.55-1.27-2.82-2.84-2.82h-1.67c-1.56,0-2.84,1.26-2.84,2.82h-2.65c0-3.01,2.46-5.45,5.49-5.45h1.67M41.34,26.42h-1.67c-4.42,0-8.02,3.58-8.02,7.98v2.53h7.71v-2.53c0-.16.14-.29.31-.29h1.67c.17,0,.31.13.31.29,0,.43-.16.85-.45,1.17l-2.6,2.88c-1.25,1.39-1.95,3.18-1.95,5.05v1.03s.03,2.51.03,2.51h7.64l.03-2.51v-.95s2.59-2.86,2.59-2.86c1.57-1.74,2.43-3.98,2.43-6.32,0-4.4-3.6-7.98-8.02-7.98h0Z"/>
    </g>
  </g>
</svg>