<?xml version="1.0" encoding="UTF-8"?>
<svg id="Layer_1" xmlns="http://www.w3.org/2000/svg" version="1.1" viewBox="0 0 81 81">
  <!-- Generator: Adobe Illustrator 30.1.0, SVG Export Plug-In . SVG Version: 2.1.1 Build 136)  -->
  <circle id="Outer" cx="40.5" cy="40.5" r="34.11" fill="none" stroke="#000" stroke-width="12.78"/>
  <g>
    <g>
      <rect x="37.93" y="51.7" width="5.11" height="5.11"/>
      <path d="M42.02,52.71v3.08h-3.08v-3.08h3.08M44.04,50.69h-7.13v7.13h7.13v-7.13h0Z"/>
    </g>
    <g>
      <path d="M37.94,46.54l-.02-2.17c0-1.72.64-3.36,1.79-4.62l3.05-3.38c.67-.74,1.04-1.69,1.04-2.68,0-1.26-1.04-2.29-2.31-2.29h-1.96c-1.27,0-2.31,1.03-2.31,2.29v1.01h-5.13v-1.01c0-4.08,3.34-7.4,7.44-7.4h1.96c4.11,0,7.45,3.32,7.45,7.4,0,2.25-.83,4.42-2.35,6.1l-3.05,3.38c-.31.34-.47.76-.48,1.2l-.02,2.17h-5.09Z"/>
      <path d="M41.48,27.3c3.55,0,6.43,2.87,6.43,6.39,0,2-.74,3.93-2.09,5.42l-3.05,3.38c-.47.52-.73,1.17-.74,1.88v1.16h-3.09v-1.16c0-1.46.53-2.85,1.52-3.94l3.05-3.38c.84-.93,1.3-2.12,1.3-3.36,0-1.82-1.49-3.3-3.32-3.3h-1.96c-1.83,0-3.32,1.48-3.32,3.3h-3.11c0-3.52,2.89-6.39,6.43-6.39h1.96M41.48,25.27h-1.96c-4.66,0-8.46,3.77-8.46,8.41v2.03h7.16v-2.03c0-.7.58-1.28,1.3-1.28h1.96c.72,0,1.3.57,1.3,1.28,0,.74-.27,1.45-.77,2l-3.05,3.38c-1.31,1.45-2.04,3.33-2.05,5.29v1.19s.03,2.01.03,2.01h7.09l.02-2v-1.16c.01-.21.08-.38.23-.54l3.05-3.38c1.68-1.86,2.61-4.27,2.61-6.78,0-4.64-3.79-8.41-8.46-8.41h0Z"/>
    </g>
  </g>
</svg>