<?xml version="1.0" encoding="UTF-8"?>
<svg id="Layer_1" xmlns="http://www.w3.org/2000/svg" version="1.1" viewBox="0 0 81 81">
  <!-- Generator: Adobe Illustrator 30.1.0, SVG Export Plug-In . SVG Version: 2.1.1 Build 136)  -->
  <circle id="Outer" cx="40.5" cy="40.5" r="35.55" fill="none" stroke="#000" stroke-width="9.9"/>
  <g>
    <g>
      <rect x="37.94" y="52.79" width="5.08" height="5.08"/>
      <path d="M42.26,53.55v3.56h-3.56v-3.56h3.56M43.78,52.04h-6.6v6.6h6.6v-6.6h0Z"/>
    </g>
    <g>
      <path d="M37.95,47.38l-.02-2.1c0-1.88.7-3.68,1.96-5.07l3.53-3.91c.84-.93,1.3-2.13,1.3-3.37,0-1.69-1.38-3.06-3.08-3.06h-2.27c-1.7,0-3.08,1.37-3.08,3.06v.76h-5.11v-.76c0-4.49,3.68-8.14,8.19-8.14h2.27c4.52,0,8.19,3.65,8.19,8.14,0,2.5-.93,4.91-2.61,6.77l-3.53,3.91c-.43.47-.65,1.05-.66,1.66l-.02,2.1h-5.06Z"/>
      <path d="M41.63,25.55c4.1,0,7.43,3.31,7.43,7.38,0,2.32-.86,4.54-2.41,6.26l-3.53,3.91c-.55.6-.85,1.36-.85,2.17v1.35h-3.57v-1.35c0-1.69.62-3.29,1.75-4.55l3.53-3.91c.97-1.07,1.5-2.45,1.5-3.88,0-2.1-1.72-3.82-3.84-3.82h-2.26c-2.12,0-3.84,1.71-3.84,3.82h-3.59c0-4.07,3.33-7.38,7.43-7.38h2.26M41.63,24.04h-2.26c-4.94,0-8.95,3.99-8.95,8.9v1.52h6.63v-1.52c0-1.27,1.04-2.3,2.32-2.3h2.26c1.28,0,2.32,1.03,2.32,2.3,0,1.06-.39,2.08-1.11,2.87l-3.53,3.91c-1.38,1.53-2.15,3.5-2.15,5.56v1.37s.03,1.51.03,1.51h6.57l.02-1.5v-1.35c.02-.44.17-.83.47-1.17l3.53-3.91c1.81-2,2.81-4.59,2.81-7.28,0-4.91-4.02-8.9-8.95-8.9h0Z"/>
    </g>
  </g>
</svg>