<?xml version="1.0" encoding="UTF-8"?>
<svg id="Layer_1" xmlns="http://www.w3.org/2000/svg" version="1.1" viewBox="0 0 81 81">
  <!-- Generator: Adobe Illustrator 30.1.0, SVG Export Plug-In . SVG Version: 2.1.1 Build 136)  -->
  <circle id="Outer" cx="40.5" cy="40.5" r="31.97" fill="none" stroke="#000" stroke-width="17.06"/>
  <g>
    <g>
      <rect x="37.88" y="50.04" width="5.2" height="5.2"/>
      <path d="M41.69,51.44v2.42h-2.42v-2.42h2.42M44.47,48.65h-7.98v7.98h7.98v-7.98h0Z"/>
    </g>
    <g>
      <path d="M37.9,45.43l-.02-2.29c0-1.5.56-2.93,1.56-4.03l2.39-2.65c.42-.47.66-1.07.66-1.7,0-.66-.54-1.2-1.21-1.2h-1.54c-.67,0-1.21.54-1.21,1.2v1.39h-5.22v-1.39c0-3.53,2.89-6.4,6.44-6.4h1.54c3.55,0,6.44,2.87,6.44,6.4,0,1.92-.71,3.76-2,5.18l-2.39,2.65c-.14.16-.22.34-.22.54l-.03,2.3h-5.17Z"/>
      <path d="M41.27,29.74c2.78,0,5.04,2.25,5.04,5.01,0,1.57-.58,3.08-1.64,4.25l-2.39,2.65c-.37.41-.58.92-.58,1.47v.91h-2.42v-.91c0-1.14.42-2.24,1.19-3.09l2.39-2.65c.65-.73,1.02-1.66,1.02-2.63,0-1.43-1.17-2.59-2.61-2.59h-1.54c-1.44,0-2.61,1.16-2.61,2.59h-2.44c0-2.76,2.26-5.01,5.04-5.01h1.54M41.27,26.96h-1.54c-4.32,0-7.83,3.5-7.83,7.79v2.78h7.07l-.57.63c-1.23,1.36-1.91,3.11-1.91,4.94v.95s.03,2.76.03,2.76h7.93l.03-2.76v-.7s2.26-2.5,2.26-2.5c1.52-1.68,2.35-3.85,2.35-6.11,0-4.3-3.51-7.79-7.83-7.79h0ZM39.91,34.95h1.16c-.04.21-.13.41-.28.57l-.88.98v-1.55h0Z"/>
    </g>
  </g>
</svg>