<?xml version="1.0" encoding="UTF-8"?>
<svg id="Layer_1" xmlns="http://www.w3.org/2000/svg" version="1.1" viewBox="0 0 81 81">
  <!-- Generator: Adobe Illustrator 30.1.0, SVG Export Plug-In . SVG Version: 2.1.1 Build 136)  -->
  <circle id="Outer" cx="40.5" cy="40.5" r="37.69" fill="none" stroke="#000" stroke-width="5.62"/>
  <g>
    <g>
      <rect x="37.94" y="54.41" width="5.07" height="5.07"/>
      <path d="M42.63,54.79v4.31h-4.31v-4.31h4.31M43.39,54.03h-5.83v5.83h5.83v-5.83h0Z"/>
    </g>
    <g>
      <path d="M37.94,48.75l-.02-2.01c0-2.14.8-4.18,2.23-5.77l4.27-4.73c1.11-1.23,1.71-2.81,1.71-4.45,0-2.34-1.92-4.24-4.27-4.24h-2.74c-2.36,0-4.27,1.9-4.27,4.24v.38h-5.11v-.38c0-5.14,4.21-9.32,9.38-9.32h2.74c5.17,0,9.38,4.18,9.38,9.32,0,2.9-1.07,5.68-3.02,7.84l-4.27,4.73c-.61.67-.93,1.49-.93,2.37l-.02,2.01h-5.06Z"/>
      <path d="M41.87,22.85c4.97,0,9,4.01,9,8.94,0,2.81-1.04,5.5-2.92,7.59l-4.27,4.73c-.66.73-1.03,1.64-1.03,2.63l-.02,1.63h-4.31v-1.63c0-2.04.75-3.99,2.12-5.51l4.27-4.73c1.17-1.3,1.81-2.97,1.81-4.7,0-2.55-2.09-4.62-4.65-4.62h-2.74c-2.57,0-4.65,2.07-4.65,4.62h-4.35c0-4.93,4.04-8.94,9-8.94h2.74M41.87,22.09h-2.74c-5.38,0-9.76,4.35-9.76,9.7v.76h5.87v-.76c0-2.13,1.75-3.86,3.89-3.86h2.74c2.15,0,3.89,1.73,3.89,3.86,0,1.55-.57,3.04-1.62,4.19l-4.27,4.73c-1.5,1.65-2.32,3.79-2.33,6.02v1.64s.02.75.02.75h5.82v-.75s.02-1.63.02-1.63c0-.79.29-1.52.84-2.12l4.27-4.73c2.01-2.23,3.12-5.1,3.12-8.1,0-5.35-4.38-9.7-9.76-9.7h0Z"/>
    </g>
  </g>
</svg>