<?xml version="1.0" encoding="UTF-8"?>
<svg id="Layer_1" xmlns="http://www.w3.org/2000/svg" version="1.1" viewBox="0 0 81 81">
  <!-- Generator: Adobe Illustrator 30.1.0, SVG Export Plug-In . SVG Version: 2.1.1 Build 136)  -->
  <circle id="Outer" cx="40.5" cy="40.5" r="36.98" fill="none" stroke="#000" stroke-width="7.04"/>
  <g>
    <g>
      <rect x="37.94" y="53.87" width="5.07" height="5.07"/>
      <path d="M42.5,54.38v4.06h-4.06v-4.06h4.06M43.52,53.37h-6.08v6.08h6.08v-6.08h0Z"/>
    </g>
    <g>
      <path d="M37.95,48.28l-.02-2.04c0-2.05.77-4.01,2.14-5.53l4.02-4.45c1.02-1.12,1.58-2.58,1.58-4.09,0-2.12-1.74-3.84-3.87-3.84h-2.58c-2.14,0-3.87,1.72-3.87,3.84v.51h-5.11v-.51c0-4.92,4.03-8.92,8.98-8.92h2.58c4.95,0,8.98,4,8.98,8.92,0,2.76-1.02,5.42-2.88,7.48l-4.02,4.45c-.55.61-.84,1.34-.84,2.13l-.02,2.04h-5.06Z"/>
      <path d="M41.79,23.76c4.67,0,8.47,3.78,8.47,8.41,0,2.64-.98,5.17-2.75,7.14l-4.02,4.45c-.62.69-.97,1.54-.97,2.47l-.02,1.53h-4.06v-1.53c0-1.92.7-3.76,2-5.19l4.02-4.45c1.1-1.22,1.71-2.79,1.71-4.43,0-2.4-1.96-4.35-4.38-4.35h-2.58c-2.41,0-4.38,1.95-4.38,4.35h-4.09c0-4.64,3.8-8.41,8.47-8.41h2.58M41.79,22.75h-2.58c-5.23,0-9.49,4.23-9.49,9.43v1.01h6.12v-1.01c0-1.84,1.51-3.34,3.37-3.34h2.58c1.86,0,3.37,1.5,3.37,3.34,0,1.38-.51,2.72-1.45,3.75l-4.02,4.45c-1.46,1.61-2.26,3.69-2.27,5.86v1.55s.02,1,.02,1h6.06v-1s.03-1.53.03-1.53c0-.67.25-1.29.71-1.8l4.02-4.45c1.94-2.15,3.01-4.93,3.01-7.82,0-5.2-4.26-9.43-9.49-9.43h0Z"/>
    </g>
  </g>
</svg>