<?xml version="1.0" encoding="UTF-8"?>
<svg id="Layer_1" xmlns="http://www.w3.org/2000/svg" version="1.1" viewBox="0 0 16 16">
  <!-- Generator: Adobe Illustrator 30.1.0, SVG Export Plug-In . SVG Version: 2.1.1 Build 136)  -->
  <circle id="Outer" cx="8" cy="8" r="7.45" fill="none" stroke="#000" stroke-width="1.11"/>
  <g>
    <g>
      <rect x="7.49" y="10.75" width="1" height="1"/>
      <path d="M8.42,10.82v.85h-.85v-.85h.85M8.57,10.67h-1.15v1.15h1.15v-1.15h0Z"/>
    </g>
    <g>
      <path d="M7.5,9.63v-.4c0-.42.15-.83.44-1.14l.84-.93c.22-.24.34-.55.34-.88,0-.46-.38-.84-.84-.84h-.54c-.47,0-.84.38-.84.84v.08h-1.01v-.08c0-1.02.83-1.84,1.85-1.84h.54c1.02,0,1.85.83,1.85,1.84,0,.57-.21,1.12-.6,1.55l-.84.94c-.12.13-.18.29-.18.47v.4h-1Z"/>
      <path d="M8.27,4.51c.98,0,1.78.79,1.78,1.77,0,.55-.21,1.09-.58,1.5l-.84.93c-.13.14-.2.32-.2.52v.32h-.86v-.32c0-.4.15-.79.42-1.09l.84-.93c.23-.26.36-.59.36-.93,0-.5-.41-.91-.92-.91h-.54c-.51,0-.92.41-.92.91h-.86c0-.97.8-1.77,1.78-1.77h.54M8.27,4.36h-.54c-1.06,0-1.93.86-1.93,1.92v.15h1.16v-.15c0-.42.35-.76.77-.76h.54c.42,0,.77.34.77.76,0,.31-.11.6-.32.83l-.84.93c-.3.33-.46.75-.46,1.19v.32s0,.15,0,.15h1.15v-.15s0-.32,0-.32c0-.16.06-.3.16-.42l.84-.94c.4-.44.62-1.01.62-1.6,0-1.06-.87-1.92-1.93-1.92h0Z"/>
    </g>
  </g>
</svg>