<?xml version="1.0" encoding="UTF-8"?>
<svg id="Layer_1" xmlns="http://www.w3.org/2000/svg" version="1.1" viewBox="0 0 16 16">
  <!-- Generator: Adobe Illustrator 30.1.0, SVG Export Plug-In . SVG Version: 2.1.1 Build 136)  -->
  <circle id="Outer" cx="8" cy="8" r="6.32" fill="none" stroke="#000" stroke-width="3.37"/>
  <g>
    <g>
      <rect x="7.48" y="9.88" width="1.03" height="1.03"/>
      <path d="M8.23,10.16v.48h-.48v-.48h.48M8.78,9.61h-1.58v1.58h1.58v-1.58h0Z"/>
    </g>
    <g>
      <path d="M7.49,8.97v-.45c0-.3.11-.58.3-.8l.47-.52c.08-.09.13-.21.13-.34,0-.13-.11-.24-.24-.24h-.3c-.13,0-.24.11-.24.24v.27h-1.03v-.27c0-.7.57-1.26,1.27-1.26h.3c.7,0,1.27.57,1.27,1.26,0,.38-.14.74-.39,1.02l-.47.52s-.04.07-.04.11v.45h-1.03Z"/>
      <path d="M8.15,5.88c.55,0,1,.44,1,.99,0,.31-.11.61-.32.84l-.47.52c-.07.08-.11.18-.11.29v.18h-.48v-.18c0-.23.08-.44.23-.61l.47-.52c.13-.14.2-.33.2-.52,0-.28-.23-.51-.51-.51h-.3c-.28,0-.51.23-.51.51h-.48c0-.55.45-.99,1-.99h.3M8.15,5.33h-.3c-.85,0-1.55.69-1.55,1.54v.55h1.4l-.11.13c-.24.27-.38.61-.38.98v.19s0,.55,0,.55h1.57v-.54s0-.14,0-.14l.45-.49c.3-.33.47-.76.47-1.21,0-.85-.69-1.54-1.55-1.54h0ZM7.88,6.9h.23s-.03.08-.06.11l-.17.19v-.31h0Z"/>
    </g>
  </g>
</svg>