<?xml version="1.0" encoding="UTF-8"?>
<svg id="Layer_1" xmlns="http://www.w3.org/2000/svg" version="1.1" viewBox="0 0 16 16">
  <!-- Generator: Adobe Illustrator 30.1.0, SVG Export Plug-In . SVG Version: 2.1.1 Build 136)  -->
  <circle id="Outer" cx="8" cy="8" r="7.02" fill="none" stroke="#000" stroke-width="1.96"/>
  <g>
    <g>
      <rect x="7.49" y="10.43" width="1" height="1"/>
      <path d="M8.35,10.58v.7h-.7v-.7h.7M8.65,10.28h-1.3v1.3h1.3v-1.3h0Z"/>
    </g>
    <g>
      <path d="M7.5,9.36v-.41c0-.37.14-.73.38-1l.7-.77c.17-.18.26-.42.26-.67,0-.33-.27-.6-.61-.6h-.45c-.34,0-.61.27-.61.6v.15h-1.01v-.15c0-.89.73-1.61,1.62-1.61h.45c.89,0,1.62.72,1.62,1.61,0,.49-.18.97-.52,1.34l-.7.77c-.08.09-.13.21-.13.33v.42h-1Z"/>
      <path d="M8.22,5.05c.81,0,1.47.65,1.47,1.46,0,.46-.17.9-.48,1.24l-.7.77c-.11.12-.17.27-.17.43v.27h-.71v-.27c0-.33.12-.65.35-.9l.7-.77c.19-.21.3-.48.3-.77,0-.42-.34-.75-.76-.75h-.45c-.42,0-.76.34-.76.75h-.71c0-.8.66-1.46,1.47-1.46h.45M8.22,4.75h-.45c-.98,0-1.77.79-1.77,1.76v.3h1.31v-.3c0-.25.21-.45.46-.45h.45c.25,0,.46.2.46.45,0,.21-.08.41-.22.57l-.7.77c-.27.3-.42.69-.43,1.1v.27s0,.3,0,.3h1.3v-.3s0-.27,0-.27c0-.09.03-.16.09-.23l.7-.77c.36-.4.55-.91.55-1.44,0-.97-.79-1.76-1.77-1.76h0Z"/>
    </g>
  </g>
</svg>