<?xml version="1.0" encoding="UTF-8"?>
<svg id="Layer_1" xmlns="http://www.w3.org/2000/svg" version="1.1" viewBox="0 0 16 16">
  <!-- Generator: Adobe Illustrator 30.1.0, SVG Export Plug-In . SVG Version: 2.1.1 Build 136)  -->
  <circle id="Outer" cx="8" cy="8" r="6.74" fill="none" stroke="#000" stroke-width="2.53"/>
  <g>
    <g>
      <rect x="7.49" y="10.21" width="1.01" height="1.01"/>
      <path d="M8.3,10.41v.61h-.61v-.61h.61M8.7,10.01h-1.41v1.41h1.41v-1.41h0Z"/>
    </g>
    <g>
      <path d="M7.49,9.19v-.43c0-.34.12-.66.35-.91l.6-.67c.13-.15.2-.33.2-.53,0-.25-.2-.45-.46-.45h-.39c-.25,0-.46.2-.46.45v.2h-1.01v-.2c0-.81.66-1.46,1.47-1.46h.39c.81,0,1.47.66,1.47,1.46,0,.44-.17.87-.46,1.2l-.6.67c-.06.07-.09.15-.09.24v.43h-1.01Z"/>
      <path d="M8.19,5.39c.7,0,1.27.57,1.27,1.26,0,.4-.15.78-.41,1.07l-.6.67c-.09.1-.15.23-.15.37v.23h-.61v-.23c0-.29.11-.56.3-.78l.6-.67c.16-.18.26-.42.26-.66,0-.36-.29-.65-.66-.65h-.39c-.36,0-.66.29-.66.65h-.61c0-.7.57-1.26,1.27-1.26h.39M8.19,4.99h-.39c-.92,0-1.67.75-1.67,1.66v.4h1.41v-.4c0-.14.12-.25.26-.25h.39c.14,0,.26.11.26.25,0,.15-.05.29-.15.4l-.6.67c-.26.29-.4.66-.4,1.04v.24s0,.4,0,.4h1.4v-.4s0-.23,0-.23c0-.04.01-.08.04-.11l.6-.67c.33-.37.52-.84.52-1.34,0-.92-.75-1.66-1.67-1.66h0Z"/>
    </g>
  </g>
</svg>