<?xml version="1.0" encoding="UTF-8"?>
<svg id="Layer_1" xmlns="http://www.w3.org/2000/svg" version="1.1" viewBox="0 0 16 16">
  <!-- Generator: Adobe Illustrator 30.1.0, SVG Export Plug-In . SVG Version: 2.1.1 Build 136)  -->
  <circle id="Outer" cx="8" cy="8" r="6.46" fill="none" stroke="#000" stroke-width="3.09"/>
  <g>
    <g>
      <rect x="7.49" y="9.99" width="1.02" height="1.02"/>
      <path d="M8.26,10.24v.52h-.52v-.52h.52M8.76,9.74h-1.52v1.52h1.52v-1.52h0Z"/>
    </g>
    <g>
      <path d="M7.49,9.04v-.44c0-.31.11-.6.32-.83l.51-.57c.1-.11.15-.25.15-.4,0-.17-.14-.31-.31-.31h-.33c-.17,0-.31.14-.31.31v.25h-1.02v-.25c0-.73.6-1.33,1.33-1.33h.33c.74,0,1.33.6,1.33,1.33,0,.4-.15.78-.42,1.08l-.51.57s-.06.09-.06.15v.45h-1.02Z"/>
      <path d="M8.17,5.72c.6,0,1.08.48,1.08,1.08,0,.34-.13.66-.35.91l-.51.57c-.08.09-.12.2-.12.32v.2h-.52v-.2c0-.25.09-.48.26-.66l.51-.57c.14-.16.22-.36.22-.57,0-.31-.25-.56-.56-.56h-.33c-.31,0-.56.25-.56.56h-.52c0-.59.49-1.08,1.08-1.08h.33M8.17,5.22h-.33c-.87,0-1.58.71-1.58,1.58v.5h1.52v-.5s.03-.06.06-.06h.33s.06.03.06.06c0,.09-.03.17-.09.23l-.51.57c-.25.27-.38.63-.39,1v.2s0,.5,0,.5h1.51v-.49s0-.2,0-.2l.51-.56c.31-.34.48-.79.48-1.25,0-.87-.71-1.58-1.58-1.58h0Z"/>
    </g>
  </g>
</svg>