<?xml version="1.0" encoding="UTF-8"?>
<svg id="Layer_1" xmlns="http://www.w3.org/2000/svg" version="1.1" viewBox="0 0 16 16">
  <!-- Generator: Adobe Illustrator 30.1.0, SVG Export Plug-In . SVG Version: 2.1.1 Build 136)  -->
  <circle id="Outer" cx="8" cy="8" r="7.31" fill="none" stroke="#000" stroke-width="1.39"/>
  <g>
    <g>
      <rect x="7.49" y="10.64" width="1" height="1"/>
      <path d="M8.4,10.74v.8h-.8v-.8h.8M8.6,10.54h-1.2v1.2h1.2v-1.2h0Z"/>
    </g>
    <g>
      <path d="M7.5,9.54v-.4c0-.41.15-.79.42-1.09l.79-.88c.2-.22.31-.51.31-.81,0-.42-.34-.76-.77-.76h-.51c-.42,0-.77.34-.77.76v.1h-1.01v-.1c0-.97.8-1.76,1.77-1.76h.51c.98,0,1.77.79,1.77,1.76,0,.55-.2,1.07-.57,1.48l-.79.88c-.11.12-.17.27-.17.42v.4h-1Z"/>
      <path d="M8.25,4.69c.92,0,1.67.75,1.67,1.66,0,.52-.19,1.02-.54,1.41l-.79.88c-.12.14-.19.31-.19.49v.3h-.8v-.3c0-.38.14-.74.39-1.02l.79-.88c.22-.24.34-.55.34-.87,0-.47-.39-.86-.87-.86h-.51c-.48,0-.87.39-.87.86h-.81c0-.92.75-1.66,1.67-1.66h.51M8.25,4.49h-.51c-1.03,0-1.87.84-1.87,1.86v.2h1.21v-.2c0-.36.3-.66.67-.66h.51c.37,0,.67.3.67.66,0,.27-.1.54-.29.74l-.79.88c-.29.32-.45.73-.45,1.16v.31s0,.2,0,.2h1.2v-.2s0-.3,0-.3c0-.13.05-.26.14-.36l.79-.88c.38-.43.6-.97.6-1.54,0-1.03-.84-1.86-1.87-1.86h0Z"/>
    </g>
  </g>
</svg>