<?xml version="1.0" encoding="UTF-8"?>
<svg id="Layer_1" xmlns="http://www.w3.org/2000/svg" version="1.1" viewBox="0 0 125 125">
  <!-- Generator: Adobe Illustrator 30.1.0, SVG Export Plug-In . SVG Version: 2.1.1 Build 136)  -->
  <path d="M62.5,24.14c1.25,0,2.49.65,3.15,1.94l8.03,15.93c1.38,2.73,3.95,4.67,6.95,5.23l17.36,3.25c2.71.51,3.82,3.81,1.95,5.85l-12.65,13.88c-1.95,2.14-2.86,5.04-2.48,7.91l2.47,18.72c.29,2.23-1.48,4-3.49,4-.53,0-1.08-.12-1.61-.4l-15.19-7.82c-1.41-.72-2.95-1.09-4.49-1.09-1.54,0-3.08.36-4.49,1.09l-15.19,7.82c-.53.27-1.08.4-1.61.4-2.01,0-3.79-1.77-3.49-4l2.47-18.72c.38-2.87-.53-5.77-2.48-7.9l-12.65-13.88c-1.86-2.04-.76-5.35,1.95-5.86l17.36-3.25c3-.56,5.57-2.5,6.95-5.23l8.03-15.93c.65-1.29,1.9-1.94,3.15-1.94M62.5,0C51.99,0,42.52,5.83,37.79,15.22l-4.84,9.6-10.38,1.95c-9.85,1.85-17.95,8.9-21.14,18.41-3.19,9.51-.97,20.02,5.79,27.44l8.17,8.96-1.6,12.13c-1.04,7.9,1.37,15.87,6.62,21.85,5.26,6,12.85,9.44,20.81,9.44,4.38,0,8.76-1.06,12.66-3.08l8.62-4.44,8.62,4.44c3.91,2.01,8.29,3.08,12.66,3.08,7.96,0,15.55-3.44,20.81-9.44,5.25-5.98,7.66-13.95,6.62-21.85l-1.6-12.13,8.17-8.97c6.75-7.41,8.97-17.92,5.79-27.43-3.18-9.51-11.28-16.56-21.13-18.41l-10.39-1.95-4.84-9.6C82.47,5.83,73.01,0,62.5,0h0Z"/>
</svg>