<?xml version="1.0" encoding="UTF-8"?>
<svg id="Layer_1" xmlns="http://www.w3.org/2000/svg" version="1.1" viewBox="0 0 125 125">
  <!-- Generator: Adobe Illustrator 30.1.0, SVG Export Plug-In . SVG Version: 2.1.1 Build 136)  -->
  <path d="M62.5,19.73c1.39,0,2.78.72,3.51,2.16l8.95,17.76c1.54,3.05,4.4,5.2,7.75,5.83l19.36,3.63c3.03.57,4.25,4.25,2.18,6.53l-14.11,15.48c-2.18,2.39-3.19,5.62-2.77,8.82l2.75,20.87c.33,2.49-1.66,4.46-3.89,4.46-.59,0-1.2-.14-1.8-.44l-16.93-8.72c-1.57-.81-3.29-1.21-5-1.21s-3.43.4-5,1.21l-16.93,8.72c-.59.3-1.2.44-1.8.44-2.24,0-4.22-1.97-3.89-4.46l2.75-20.88c.42-3.2-.59-6.43-2.76-8.81l-14.11-15.48c-2.08-2.28-.85-5.96,2.18-6.53l19.36-3.63c3.35-.63,6.21-2.78,7.75-5.83l8.95-17.77c.73-1.44,2.12-2.16,3.51-2.16M62.5,0C53.51,0,45.42,4.99,41.37,13.02l-6.99,13.88-15.08,2.83c-8.42,1.58-15.35,7.61-18.07,15.74-2.72,8.13-.83,17.12,4.95,23.46l11.36,12.46-2.22,16.84c-.89,6.76,1.17,13.57,5.65,18.69,4.5,5.13,10.99,8.08,17.8,8.08,3.74,0,7.48-.91,10.83-2.63l12.9-6.65,12.9,6.65c3.34,1.72,7.09,2.63,10.83,2.63,6.81,0,13.29-2.94,17.8-8.08,4.49-5.12,6.55-11.93,5.65-18.69l-2.22-16.84,11.36-12.47c5.78-6.34,7.67-15.33,4.95-23.46-2.72-8.13-9.65-14.16-18.07-15.74l-15.08-2.83-6.99-13.88C79.58,4.99,71.49,0,62.5,0h0Z"/>
</svg>