<?xml version="1.0" encoding="UTF-8"?>
<svg id="Layer_1" xmlns="http://www.w3.org/2000/svg" version="1.1" viewBox="0 0 125 125">
  <!-- Generator: Adobe Illustrator 30.1.0, SVG Export Plug-In . SVG Version: 2.1.1 Build 136)  -->
  <path d="M62.5,10.86c1.68,0,3.36.87,4.24,2.61l10.8,21.45c1.85,3.68,5.31,6.28,9.36,7.04l23.37,4.38c3.65.68,5.14,5.13,2.63,7.88l-17.03,18.69c-2.63,2.88-3.85,6.78-3.34,10.65l3.32,25.2c.4,3.01-2,5.39-4.7,5.39-.72,0-1.45-.17-2.17-.53l-20.44-10.53c-1.89-.98-3.97-1.46-6.04-1.46-2.07,0-4.14.49-6.04,1.46l-20.44,10.53c-.71.37-1.45.53-2.17.53-2.7,0-5.1-2.38-4.7-5.39l3.32-25.2c.51-3.87-.71-7.76-3.33-10.64l-17.03-18.69c-2.51-2.75-1.03-7.2,2.63-7.88l23.37-4.38c4.04-.76,7.5-3.36,9.35-7.04l10.81-21.45c.88-1.74,2.56-2.61,4.24-2.61M62.5,0C56.57,0,51.23,3.29,48.56,8.59l-10.81,21.45c-.33.65-.95,1.12-1.65,1.25l-23.37,4.38c-5.56,1.04-10.13,5.02-11.92,10.39-1.8,5.37-.55,11.3,3.27,15.49l17.03,18.69c.47.52.69,1.21.6,1.91l-3.32,25.2c-.59,4.46.77,8.96,3.72,12.33,2.98,3.39,7.26,5.34,11.74,5.34,2.46,0,4.93-.6,7.14-1.74l20.44-10.53c.33-.17.69-.26,1.07-.26.37,0,.74.09,1.07.26l20.44,10.53c2.21,1.14,4.68,1.74,7.14,1.74,4.49,0,8.77-1.95,11.74-5.34,2.96-3.37,4.31-7.86,3.72-12.33l-3.32-25.2c-.09-.7.13-1.4.6-1.92l17.03-18.69c3.81-4.18,5.06-10.12,3.26-15.48-1.8-5.36-6.36-9.34-11.92-10.38l-23.37-4.38c-.71-.13-1.33-.6-1.66-1.25l-10.8-21.45C73.76,3.29,68.43,0,62.5,0h0Z"/>
</svg>