<?xml version="1.0" encoding="UTF-8"?>
<svg id="Layer_1" xmlns="http://www.w3.org/2000/svg" version="1.1" viewBox="0 0 90 90">
  <!-- Generator: Adobe Illustrator 30.1.0, SVG Export Plug-In . SVG Version: 2.1.1 Build 136)  -->
  <path d="M45,14.2c1,0,2,.52,2.53,1.56l6.44,12.79c1.11,2.19,3.17,3.75,5.58,4.2l13.94,2.61c2.18.41,3.06,3.06,1.57,4.7l-10.16,11.14c-1.57,1.72-2.3,4.04-1.99,6.35l1.98,15.03c.24,1.79-1.19,3.21-2.8,3.21-.43,0-.87-.1-1.29-.32l-12.19-6.28c-1.13-.58-2.37-.87-3.6-.87-1.24,0-2.47.29-3.6.87l-12.19,6.28c-.43.22-.87.32-1.29.32-1.61,0-3.04-1.42-2.8-3.21l1.98-15.03c.3-2.31-.42-4.63-1.99-6.35l-10.16-11.14c-1.5-1.64-.61-4.29,1.57-4.7l13.94-2.61c2.41-.45,4.47-2,5.58-4.2l6.44-12.79c.52-1.04,1.52-1.56,2.53-1.56M45,0C38.53,0,32.7,3.59,29.79,9.37l-5.04,10-10.85,2.03c-6.07,1.14-11.05,5.48-13.01,11.33-1.96,5.86-.6,12.33,3.56,16.89l8.18,8.97-1.6,12.12c-.64,4.87.84,9.77,4.07,13.46,3.24,3.7,7.91,5.82,12.81,5.82,2.69,0,5.39-.66,7.8-1.9l9.29-4.78,9.29,4.78c2.41,1.24,5.1,1.9,7.8,1.9,4.9,0,9.57-2.12,12.81-5.82,3.23-3.68,4.71-8.59,4.07-13.46l-1.6-12.12,8.18-8.98c4.16-4.56,5.52-11.04,3.56-16.89-1.96-5.85-6.95-10.2-13.01-11.33l-10.86-2.04-5.04-10C57.3,3.59,51.47,0,45,0h0Z"/>
</svg>