<?xml version="1.0" encoding="UTF-8"?>
<svg id="Layer_1" xmlns="http://www.w3.org/2000/svg" version="1.1" viewBox="0 0 90 90">
  <!-- Generator: Adobe Illustrator 30.1.0, SVG Export Plug-In . SVG Version: 2.1.1 Build 136)  -->
  <path d="M45,6.24c1.26,0,2.52.65,3.18,1.96l8.11,16.09c1.39,2.76,3.99,4.72,7.02,5.28l17.54,3.29c2.74.51,3.86,3.85,1.97,5.91l-12.78,14.02c-1.97,2.16-2.89,5.09-2.51,8l2.49,18.91c.3,2.26-1.5,4.04-3.53,4.04-.54,0-1.09-.13-1.63-.4l-15.34-7.9c-1.42-.73-2.98-1.1-4.53-1.1s-3.11.37-4.53,1.1l-15.34,7.9c-.54.28-1.09.4-1.63.4-2.03,0-3.83-1.79-3.53-4.04l2.49-18.92c.38-2.9-.53-5.82-2.5-7.99l-12.78-14.03c-1.88-2.07-.77-5.4,1.97-5.92l17.54-3.29c3.03-.57,5.63-2.52,7.02-5.28l8.11-16.1c.66-1.31,1.92-1.96,3.18-1.96M45,0C41.28,0,37.92,2.07,36.24,5.4l-8.11,16.1c-.51,1.01-1.48,1.75-2.59,1.95l-17.54,3.29c-3.49.65-6.36,3.16-7.49,6.53-1.13,3.37-.34,7.1,2.05,9.73l12.78,14.03c.73.8,1.07,1.88.93,2.96l-2.49,18.92c-.37,2.81.48,5.63,2.34,7.74,1.87,2.13,4.56,3.36,7.38,3.36,1.54,0,3.1-.38,4.49-1.09l15.34-7.9c.52-.27,1.09-.41,1.67-.41s1.16.14,1.67.41l15.34,7.9c1.39.72,2.94,1.09,4.49,1.09,2.82,0,5.51-1.22,7.38-3.36,1.86-2.12,2.71-4.94,2.34-7.74l-2.49-18.91c-.14-1.08.2-2.17.93-2.97l12.78-14.02c2.4-2.63,3.18-6.36,2.05-9.73-1.13-3.37-4-5.87-7.49-6.52l-17.54-3.29c-1.11-.21-2.08-.94-2.6-1.96l-8.11-16.09C52.08,2.07,48.72,0,45,0h0Z"/>
</svg>