<?xml version="1.0" encoding="UTF-8"?>
<svg id="Layer_1" xmlns="http://www.w3.org/2000/svg" version="1.1" viewBox="0 0 90 90">
  <!-- Generator: Adobe Illustrator 30.1.0, SVG Export Plug-In . SVG Version: 2.1.1 Build 136)  -->
  <path d="M45,11c1.11,0,2.21.57,2.79,1.72l7.11,14.12c1.22,2.42,3.5,4.14,6.16,4.64l15.39,2.88c2.41.45,3.38,3.38,1.73,5.19l-11.21,12.3c-1.73,1.9-2.53,4.47-2.2,7.02l2.19,16.59c.26,1.98-1.32,3.55-3.1,3.55-.47,0-.96-.11-1.43-.35l-13.46-6.93c-1.25-.64-2.61-.96-3.98-.96-1.36,0-2.73.32-3.98.96l-13.46,6.93c-.47.24-.96.35-1.43.35-1.78,0-3.36-1.57-3.1-3.55l2.19-16.6c.34-2.55-.47-5.11-2.2-7.01l-11.21-12.31c-1.65-1.81-.68-4.74,1.73-5.19l15.39-2.88c2.66-.5,4.94-2.21,6.16-4.63l7.11-14.12c.58-1.15,1.68-1.72,2.79-1.72M45,0C39.64,0,34.8,2.98,32.39,7.77l-6.6,13.11-14.26,2.67c-5.03.94-9.16,4.54-10.79,9.4-1.63,4.86-.49,10.22,2.95,14.01l10.5,11.52-2.05,15.54c-.53,4.04.7,8.1,3.37,11.16,2.69,3.07,6.56,4.83,10.63,4.83,2.23,0,4.47-.54,6.46-1.57l12.4-6.39,12.4,6.39c2,1.03,4.23,1.57,6.46,1.57,4.06,0,7.94-1.76,10.63-4.83,2.68-3.05,3.91-7.12,3.37-11.16l-2.05-15.54,10.5-11.52c3.45-3.78,4.58-9.15,2.95-14.01-1.63-4.85-5.76-8.45-10.79-9.4l-14.27-2.67-6.6-13.11C55.19,2.98,50.36,0,45,0h0Z"/>
</svg>