<?xml version="1.0" encoding="UTF-8"?>
<svg id="Layer_1" xmlns="http://www.w3.org/2000/svg" version="1.1" viewBox="0 0 98 98">
  <!-- Generator: Adobe Illustrator 30.1.0, SVG Export Plug-In . SVG Version: 2.1.1 Build 136)  -->
  <path d="M49,20.64c.92,0,1.84.48,2.33,1.43l5.93,11.78c1.02,2.02,2.92,3.45,5.14,3.87l12.84,2.41c2.01.38,2.82,2.82,1.44,4.33l-9.35,10.26c-1.44,1.58-2.11,3.72-1.83,5.85l1.82,13.84c.22,1.65-1.1,2.96-2.58,2.96-.39,0-.8-.09-1.19-.29l-11.23-5.78c-1.04-.54-2.18-.8-3.32-.8s-2.28.27-3.32.8l-11.23,5.78c-.39.2-.8.29-1.19.29-1.48,0-2.8-1.31-2.58-2.96l1.83-13.84c.28-2.12-.39-4.26-1.83-5.84l-9.35-10.26c-1.38-1.51-.56-3.95,1.44-4.33l12.83-2.41c2.22-.42,4.12-1.84,5.13-3.86l5.93-11.78c.48-.96,1.4-1.43,2.33-1.43M49,0C40.17,0,32.21,4.9,28.24,12.79l-2.95,5.86-6.32,1.18c-8.28,1.55-15.08,7.48-17.76,15.47-2.68,7.99-.81,16.82,4.86,23.05l5.16,5.67-1.01,7.68c-.88,6.64,1.15,13.34,5.56,18.36,4.42,5.04,10.79,7.93,17.49,7.93,3.68,0,7.36-.89,10.64-2.58l5.09-2.62,5.09,2.62c3.28,1.69,6.96,2.58,10.64,2.58,6.69,0,13.07-2.89,17.49-7.93,4.41-5.03,6.44-11.72,5.56-18.36l-1.01-7.68,5.17-5.67c5.68-6.23,7.54-15.06,4.86-23.05-2.68-7.99-9.48-13.91-17.76-15.47l-6.32-1.18-2.95-5.86C65.79,4.9,57.83,0,49,0h0Z"/>
</svg>