<?xml version="1.0" encoding="UTF-8"?>
<svg id="Layer_1" xmlns="http://www.w3.org/2000/svg" version="1.1" viewBox="0 0 98 98">
  <!-- Generator: Adobe Illustrator 30.1.0, SVG Export Plug-In . SVG Version: 2.1.1 Build 136)  -->
  <path d="M49,15.47c1.09,0,2.18.57,2.75,1.7l7.02,13.93c1.2,2.39,3.45,4.08,6.08,4.57l15.18,2.84c2.37.44,3.34,3.33,1.71,5.12l-11.06,12.13c-1.71,1.87-2.5,4.4-2.17,6.92l2.16,16.36c.26,1.95-1.3,3.5-3.05,3.5-.47,0-.94-.11-1.41-.35l-13.28-6.84c-1.23-.63-2.58-.95-3.92-.95-1.35,0-2.69.32-3.92.95l-13.28,6.84c-.46.24-.94.35-1.41.35-1.76,0-3.31-1.55-3.05-3.5l2.16-16.37c.33-2.51-.46-5.04-2.17-6.91l-11.06-12.14c-1.63-1.79-.67-4.67,1.71-5.12l15.18-2.84c2.62-.49,4.87-2.18,6.07-4.57l7.02-13.93c.57-1.13,1.66-1.7,2.75-1.7M49,0c-7.05,0-13.39,3.91-16.56,10.2l-5.48,10.88-11.82,2.22c-6.61,1.24-12.03,5.97-14.17,12.34-2.14,6.38-.65,13.43,3.88,18.4l8.91,9.77-1.74,13.2c-.7,5.3.92,10.64,4.43,14.65,3.53,4.03,8.62,6.33,13.95,6.33,2.93,0,5.87-.71,8.49-2.06l10.12-5.21,10.12,5.21c2.62,1.35,5.56,2.06,8.49,2.06,5.34,0,10.42-2.31,13.95-6.33,3.52-4.01,5.13-9.35,4.43-14.65l-1.74-13.2,8.91-9.78c4.53-4.97,6.02-12.02,3.88-18.39-2.14-6.37-7.56-11.1-14.17-12.34l-11.82-2.22-5.48-10.88C62.39,3.91,56.04,0,49,0h0Z"/>
</svg>