<?xml version="1.0" encoding="UTF-8"?>
<svg id="Layer_1" xmlns="http://www.w3.org/2000/svg" version="1.1" viewBox="0 0 68 68">
  <!-- Generator: Adobe Illustrator 30.1.0, SVG Export Plug-In . SVG Version: 2.1.1 Build 136)  -->
  <g>
    <g>
      <rect x="31.61" y="17.65" width="4.79" height="4.79"/>
      <path d="M35.97,18.07v3.94h-3.94v-3.94h3.94M36.82,17.22h-5.64v5.64h5.64v-5.64h0Z"/>
    </g>
    <g>
      <polygon points="27.67 50.25 27.67 45.46 31.61 45.46 31.61 34.02 27.67 34.02 27.67 29.23 36.39 29.23 36.39 45.46 40.33 45.46 40.33 50.25 27.67 50.25"/>
      <path d="M35.97,29.65v16.23h3.94v3.94h-11.82v-3.94h3.94v-12.3h-3.94v-3.94h7.88M36.82,28.8h-9.58v5.64h3.94v10.6h-3.94v5.64h13.52v-5.64h-3.94v-16.23h0Z"/>
    </g>
  </g>
  <circle id="Outer" cx="34" cy="34" r="31.05" fill="none" stroke="#000" stroke-width="5.91"/>
</svg>