<?xml version="1.0" encoding="UTF-8"?>
<svg id="Layer_1" xmlns="http://www.w3.org/2000/svg" version="1.1" viewBox="0 0 68 68">
  <!-- Generator: Adobe Illustrator 30.1.0, SVG Export Plug-In . SVG Version: 2.1.1 Build 136)  -->
  <g>
    <g>
      <rect x="31.47" y="20.67" width="5.06" height="5.06"/>
      <path d="M35.36,21.84v2.73h-2.73v-2.73h2.73M37.7,19.5h-7.4v7.4h7.4v-7.4h0Z"/>
    </g>
    <g>
      <polygon points="28.74 46.59 28.74 41.53 31.47 41.53 31.47 35.35 28.74 35.35 28.74 30.29 36.53 30.29 36.53 41.53 39.26 41.53 39.26 46.59 28.74 46.59"/>
      <path d="M35.36,31.46v11.24h2.73v2.73h-8.18v-2.73h2.73v-8.51h-2.73v-2.73h5.45M37.7,29.12h-10.13v7.4h2.73v3.84h-2.73v7.4h12.85v-7.4h-2.73v-11.24h0Z"/>
    </g>
  </g>
  <circle id="Outer" cx="34" cy="34" r="26.84" fill="none" stroke="#000" stroke-width="14.32"/>
</svg>