<?xml version="1.0" encoding="UTF-8"?>
<svg id="Layer_1" xmlns="http://www.w3.org/2000/svg" version="1.1" viewBox="0 0 68 68">
  <!-- Generator: Adobe Illustrator 30.1.0, SVG Export Plug-In . SVG Version: 2.1.1 Build 136)  -->
  <g>
    <g>
      <rect x="31.57" y="18.51" width="4.86" height="4.86"/>
      <path d="M35.79,19.15v3.58h-3.58v-3.58h3.58M37.07,17.88h-6.13v6.13h6.13v-6.13h0Z"/>
    </g>
    <g>
      <polygon points="27.99 49.19 27.99 44.33 31.57 44.33 31.57 34.41 27.99 34.41 27.99 29.55 36.43 29.55 36.43 44.33 40.01 44.33 40.01 49.19 27.99 49.19"/>
      <path d="M35.79,30.19v14.78h3.58v3.58h-10.75v-3.58h3.58v-11.19h-3.58v-3.58h7.17M37.07,28.91h-9.72v6.13h3.58v8.64h-3.58v6.13h13.3v-6.13h-3.58v-14.78h0Z"/>
    </g>
  </g>
  <circle id="Outer" cx="34" cy="34" r="29.85" fill="none" stroke="#000" stroke-width="8.31"/>
</svg>