<?xml version="1.0" encoding="UTF-8"?>
<svg id="Layer_1" xmlns="http://www.w3.org/2000/svg" version="1.1" viewBox="0 0 91 91">
  <!-- Generator: Adobe Illustrator 30.1.0, SVG Export Plug-In . SVG Version: 2.1.1 Build 136)  -->
  <path d="M45.5,14.36c1.01,0,2.02.53,2.55,1.58l6.51,12.93c1.12,2.22,3.2,3.79,5.64,4.25l14.09,2.64c2.2.41,3.1,3.09,1.59,4.75l-10.27,11.27c-1.58,1.74-2.32,4.09-2.01,6.42l2,15.19c.24,1.81-1.21,3.25-2.83,3.25-.43,0-.88-.1-1.31-.32l-12.33-6.35c-1.14-.59-2.39-.88-3.64-.88-1.25,0-2.5.29-3.64.88l-12.33,6.35c-.43.22-.88.32-1.31.32-1.63,0-3.07-1.44-2.84-3.25l2-15.2c.31-2.33-.43-4.68-2.01-6.42l-10.27-11.27c-1.51-1.66-.62-4.34,1.59-4.75l14.09-2.64c2.44-.46,4.52-2.03,5.64-4.24l6.52-12.93c.53-1.05,1.54-1.58,2.55-1.58M45.5,0c-6.54,0-12.44,3.63-15.38,9.48l-5.09,10.11-10.97,2.06c-6.13,1.15-11.18,5.54-13.16,11.46-1.98,5.92-.6,12.47,3.6,17.08l8.27,9.07-1.62,12.26c-.65,4.92.85,9.88,4.12,13.6,3.28,3.74,8,5.88,12.96,5.88,2.72,0,5.45-.66,7.88-1.92l9.39-4.84,9.39,4.84c2.43,1.25,5.16,1.92,7.88,1.92,4.96,0,9.68-2.14,12.96-5.88,3.27-3.72,4.77-8.68,4.12-13.6l-1.62-12.26,8.27-9.08c4.21-4.61,5.59-11.16,3.6-17.08-1.98-5.92-7.02-10.31-13.16-11.46l-10.98-2.06-5.09-10.11C57.93,3.63,52.04,0,45.5,0h0Z"/>
</svg>