<?xml version="1.0" encoding="UTF-8"?>
<svg id="Layer_1" xmlns="http://www.w3.org/2000/svg" version="1.1" viewBox="0 0 17 17">
  <!-- Generator: Adobe Illustrator 30.1.0, SVG Export Plug-In . SVG Version: 2.1.1 Build 136)  -->
  <path d="M8.5,3.28c.17,0,.34.09.43.26l1.09,2.17c.19.37.54.63.95.71l2.36.44c.37.07.52.52.27.8l-1.72,1.89c-.27.29-.39.69-.34,1.08l.34,2.55c.04.3-.2.54-.47.54-.07,0-.15-.02-.22-.05l-2.07-1.06c-.19-.1-.4-.15-.61-.15s-.42.05-.61.15l-2.07,1.06c-.07.04-.15.05-.22.05-.27,0-.52-.24-.47-.54l.34-2.55c.05-.39-.07-.78-.34-1.07l-1.72-1.89c-.25-.28-.1-.73.27-.8l2.36-.44c.41-.08.76-.34.94-.71l1.09-2.17c.09-.18.26-.26.43-.26M8.5,0C7.07,0,5.78.79,5.14,2.07l-.66,1.31-1.41.26c-1.34.25-2.44,1.21-2.87,2.5-.43,1.29-.13,2.72.79,3.73l1.11,1.22-.22,1.65c-.14,1.08.19,2.16.9,2.97.72.82,1.75,1.28,2.83,1.28,0,0,0,0,0,0,.6,0,1.19-.14,1.72-.42l1.17-.6,1.17.6c.53.27,1.13.42,1.72.42,1.08,0,2.11-.47,2.83-1.28.71-.81,1.04-1.9.9-2.97l-.22-1.65,1.11-1.22c.92-1.01,1.22-2.44.79-3.73-.43-1.29-1.53-2.25-2.87-2.5l-1.41-.26-.66-1.31C11.22.79,9.93,0,8.5,0h0Z"/>
</svg>