<?xml version="1.0" encoding="UTF-8"?>
<svg id="Layer_1" xmlns="http://www.w3.org/2000/svg" version="1.1" viewBox="0 0 17 17">
  <!-- Generator: Adobe Illustrator 30.1.0, SVG Export Plug-In . SVG Version: 2.1.1 Build 136)  -->
  <path d="M8.5,1.48c.23,0,.46.12.58.36l1.47,2.92c.25.5.72.85,1.27.96l3.18.6c.5.09.7.7.36,1.07l-2.32,2.54c-.36.39-.52.92-.45,1.45l.45,3.43c.05.41-.27.73-.64.73-.1,0-.2-.02-.29-.07l-2.78-1.43c-.26-.13-.54-.2-.82-.2s-.56.07-.82.2l-2.78,1.43c-.1.05-.2.07-.29.07-.37,0-.69-.32-.64-.73l.45-3.43c.07-.53-.1-1.06-.45-1.45l-2.32-2.54c-.34-.37-.14-.98.36-1.07l3.18-.6c.55-.1,1.02-.46,1.27-.96l1.47-2.92c.12-.24.35-.36.58-.36M8.5,0C7.69,0,6.97.45,6.6,1.17l-1.47,2.92c-.04.09-.13.15-.22.17l-3.18.6c-.76.14-1.38.68-1.62,1.41-.24.73-.07,1.54.44,2.11l2.32,2.54c.06.07.09.16.08.26l-.45,3.43c-.08.61.1,1.22.51,1.68.4.46.99.73,1.6.73.33,0,.67-.08.97-.24l2.78-1.43s.09-.04.15-.04.1.01.15.04l2.78,1.43c.3.15.64.24.97.24.61,0,1.19-.26,1.6-.73.4-.46.59-1.07.51-1.68l-.45-3.43c-.01-.1.02-.19.08-.26l2.32-2.54c.52-.57.69-1.38.44-2.11-.24-.73-.87-1.27-1.62-1.41l-3.18-.6c-.1-.02-.18-.08-.23-.17l-1.47-2.92C10.03.45,9.31,0,8.5,0h0Z"/>
</svg>