<?xml version="1.0" encoding="UTF-8"?>
<svg id="Layer_1" xmlns="http://www.w3.org/2000/svg" version="1.1" viewBox="0 0 17 17">
  <!-- Generator: Adobe Illustrator 30.1.0, SVG Export Plug-In . SVG Version: 2.1.1 Build 136)  -->
  <path d="M8.5,1.18c.24,0,.48.12.6.37l1.53,3.04c.26.52.75.89,1.33,1l3.31.62c.52.1.73.73.37,1.12l-2.41,2.65c-.37.41-.55.96-.47,1.51l.47,3.57c.06.43-.28.76-.67.76-.1,0-.21-.02-.31-.08l-2.9-1.49c-.27-.14-.56-.21-.86-.21s-.59.07-.86.21l-2.9,1.49c-.1.05-.21.08-.31.08-.38,0-.72-.34-.67-.76l.47-3.57c.07-.55-.1-1.1-.47-1.51l-2.41-2.65c-.36-.39-.15-1.02.37-1.12l3.31-.62c.57-.11,1.06-.48,1.33-1l1.53-3.04c.12-.25.36-.37.6-.37M8.5,0C7.8,0,7.16.39,6.85,1.02l-1.53,3.04c-.1.19-.28.33-.49.37l-3.31.62c-.66.12-1.2.6-1.42,1.23-.21.64-.06,1.34.39,1.84l2.41,2.65c.14.15.2.36.18.56l-.47,3.57c-.07.53.09,1.06.44,1.46.35.4.86.63,1.39.63.29,0,.58-.07.85-.21l2.9-1.49c.1-.05.21-.08.32-.08s.22.03.32.08l2.9,1.49c.26.14.56.21.85.21.53,0,1.04-.23,1.39-.63.35-.4.51-.93.44-1.46l-.47-3.57c-.03-.2.04-.41.18-.56l2.41-2.65c.45-.5.6-1.2.39-1.84-.21-.64-.76-1.11-1.41-1.23l-3.31-.62c-.21-.04-.39-.18-.49-.37l-1.53-3.04C9.84.39,9.2,0,8.5,0h0Z"/>
</svg>