<?xml version="1.0" encoding="UTF-8"?>
<svg id="Layer_1" xmlns="http://www.w3.org/2000/svg" version="1.1" viewBox="0 0 17 17">
  <!-- Generator: Adobe Illustrator 30.1.0, SVG Export Plug-In . SVG Version: 2.1.1 Build 136)  -->
  <path d="M8.5,2.68c.19,0,.38.1.48.29l1.22,2.42c.21.41.6.71,1.05.79l2.63.49c.41.08.58.58.3.89l-1.92,2.11c-.3.32-.43.76-.38,1.2l.37,2.84c.04.34-.23.61-.53.61-.08,0-.16-.02-.24-.06l-2.3-1.19c-.21-.11-.45-.16-.68-.16s-.47.05-.68.16l-2.3,1.19c-.08.04-.16.06-.24.06-.3,0-.57-.27-.53-.61l.37-2.84c.06-.44-.08-.87-.38-1.2l-1.92-2.11c-.28-.31-.12-.81.3-.89l2.63-.49c.46-.09.84-.38,1.05-.79l1.22-2.42c.1-.2.29-.29.48-.29M8.5,0C7.28,0,6.18.68,5.63,1.77l-.95,1.89-2.05.38c-1.15.21-2.09,1.04-2.46,2.14-.37,1.11-.11,2.33.67,3.19l1.54,1.7-.3,2.29c-.12.92.16,1.85.77,2.54.61.7,1.49,1.1,2.42,1.1.51,0,1.02-.12,1.47-.36l1.75-.9,1.75.9c.45.23.96.36,1.47.36.93,0,1.81-.4,2.42-1.1.61-.7.89-1.62.77-2.54l-.3-2.29,1.55-1.7c.79-.86,1.04-2.08.67-3.19-.37-1.11-1.31-1.93-2.46-2.14l-2.05-.38-.95-1.89C10.82.68,9.72,0,8.5,0h0Z"/>
</svg>