<?xml version="1.0" encoding="UTF-8"?>
<svg id="Layer_1" xmlns="http://www.w3.org/2000/svg" version="1.1" viewBox="0 0 82 82">
  <!-- Generator: Adobe Illustrator 30.1.0, SVG Export Plug-In . SVG Version: 2.1.1 Build 136)  -->
  <path d="M41,5.69c1.15,0,2.3.6,2.9,1.79l7.39,14.66c1.27,2.52,3.63,4.3,6.4,4.81l15.98,3c2.5.47,3.51,3.51,1.8,5.39l-11.64,12.78c-1.8,1.97-2.63,4.64-2.28,7.29l2.27,17.23c.27,2.06-1.37,3.68-3.21,3.68-.49,0-.99-.11-1.48-.37l-13.98-7.2c-1.3-.67-2.71-1-4.13-1s-2.83.33-4.13,1l-13.98,7.2c-.49.25-.99.37-1.48.37-1.85,0-3.49-1.63-3.21-3.68l2.27-17.23c.35-2.64-.49-5.31-2.28-7.28l-11.65-12.78c-1.72-1.88-.7-4.92,1.8-5.39l15.98-3c2.76-.52,5.13-2.3,6.39-4.81l7.39-14.67c.6-1.19,1.75-1.79,2.9-1.79M41,0C37.61,0,34.55,1.88,33.02,4.92l-7.39,14.67c-.47.92-1.35,1.59-2.36,1.78l-15.98,3c-3.18.6-5.8,2.87-6.83,5.95-1.03,3.07-.31,6.47,1.87,8.87l11.64,12.78c.67.73.97,1.72.85,2.7l-2.27,17.23c-.34,2.56.44,5.13,2.13,7.06,1.7,1.94,4.16,3.06,6.72,3.06,1.41,0,2.82-.34,4.09-1l13.98-7.2c.47-.24,1-.37,1.52-.37s1.05.13,1.52.37l13.98,7.2c1.27.65,2.68,1,4.09,1,0,0,0,0,0,0,2.57,0,5.02-1.12,6.72-3.06,1.69-1.93,2.47-4.5,2.13-7.06l-2.27-17.23c-.13-.99.18-1.98.85-2.71l11.64-12.78c2.18-2.39,2.9-5.79,1.87-8.87-1.03-3.07-3.64-5.35-6.82-5.94l-15.98-3c-1.01-.19-1.9-.86-2.37-1.78l-7.39-14.66C47.45,1.88,44.39,0,41,0h0Z"/>
</svg>