<?xml version="1.0" encoding="UTF-8"?>
<svg id="Layer_1" xmlns="http://www.w3.org/2000/svg" version="1.1" viewBox="0 0 82 82">
  <!-- Generator: Adobe Illustrator 30.1.0, SVG Export Plug-In . SVG Version: 2.1.1 Build 136)  -->
  <path d="M41,12.94c.91,0,1.82.47,2.3,1.42l5.87,11.65c1.01,2,2.89,3.41,5.08,3.83l12.7,2.38c1.99.37,2.79,2.79,1.43,4.28l-9.25,10.15c-1.43,1.57-2.09,3.69-1.81,5.79l1.81,13.69c.22,1.63-1.09,2.93-2.55,2.93-.39,0-.79-.09-1.18-.29l-11.11-5.72c-1.03-.53-2.16-.8-3.28-.8-1.13,0-2.25.27-3.28.8l-11.11,5.72c-.39.2-.79.29-1.18.29-1.47,0-2.77-1.29-2.55-2.93l1.81-13.69c.28-2.1-.39-4.22-1.81-5.78l-9.25-10.15c-1.36-1.5-.56-3.91,1.43-4.28l12.7-2.38c2.2-.41,4.07-1.83,5.08-3.82l5.87-11.65c.48-.95,1.39-1.42,2.3-1.42M41,0C35.1,0,29.79,3.27,27.14,8.54l-4.59,9.11-9.89,1.85c-5.53,1.04-10.07,4.99-11.86,10.33-1.79,5.34-.54,11.23,3.25,15.39l7.45,8.18-1.46,11.05c-.58,4.44.77,8.9,3.71,12.26,2.95,3.37,7.21,5.3,11.67,5.3,2.45,0,4.91-.6,7.1-1.73l8.46-4.36,8.46,4.36c2.19,1.13,4.65,1.73,7.1,1.73,4.47,0,8.72-1.93,11.67-5.3,2.94-3.36,4.29-7.82,3.71-12.26l-1.46-11.05,7.45-8.18c3.79-4.16,5.03-10.06,3.25-15.39-1.79-5.33-6.33-9.29-11.86-10.33l-9.89-1.85-4.59-9.11C52.2,3.27,46.89,0,41,0h0Z"/>
</svg>