<?xml version="1.0" encoding="UTF-8"?>
<svg id="Layer_1" xmlns="http://www.w3.org/2000/svg" version="1.1" viewBox="0 0 90 90">
  <!-- Generator: Adobe Illustrator 30.1.0, SVG Export Plug-In . SVG Version: 2.1.1 Build 136)  -->
  <g>
    <g>
      <rect x="41.65" y="27.36" width="6.7" height="6.7"/>
      <path d="M46.8,28.9v3.61h-3.61v-3.61h3.61M49.9,25.81h-9.8v9.8h9.8v-9.8h0Z"/>
    </g>
    <g>
      <polygon points="38.04 61.66 38.04 54.96 41.65 54.96 41.65 46.79 38.04 46.79 38.04 40.09 48.35 40.09 48.35 54.96 51.96 54.96 51.96 61.66 38.04 61.66"/>
      <path d="M46.8,41.63v14.87h3.61v3.61h-10.83v-3.61h3.61v-11.27h-3.61v-3.61h7.22M49.9,38.54h-13.4v9.8h3.61v5.08h-3.61v9.8h17.01v-9.8h-3.61v-14.87h0Z"/>
    </g>
  </g>
  <circle id="Outer" cx="45" cy="45" r="35.52" fill="none" stroke="#000" stroke-width="18.96"/>
</svg>