<?xml version="1.0" encoding="UTF-8"?>
<svg id="Layer_1" xmlns="http://www.w3.org/2000/svg" version="1.1" viewBox="0 0 90 90">
  <!-- Generator: Adobe Illustrator 30.1.0, SVG Export Plug-In . SVG Version: 2.1.1 Build 136)  -->
  <g>
    <g>
      <rect x="41.85" y="22.79" width="6.29" height="6.29"/>
      <path d="M47.72,23.21v5.45h-5.45v-5.45h5.45M48.57,22.37h-7.14v7.14h7.14v-7.14h0Z"/>
    </g>
    <g>
      <polygon points="36.41 67.21 36.41 60.92 41.85 60.92 41.85 44.76 36.41 44.76 36.41 38.47 48.15 38.47 48.15 60.92 53.59 60.92 53.59 67.21 36.41 67.21"/>
      <path d="M47.72,38.89v22.46h5.45v5.45h-16.34v-5.45h5.45v-17.01h-5.45v-5.45h10.9M48.57,38.04h-12.58v7.14h5.45v15.32h-5.45v7.14h18.03v-7.14h-5.45v-22.46h0Z"/>
    </g>
  </g>
  <circle id="Outer" cx="45" cy="45" r="41.88" fill="none" stroke="#000" stroke-width="6.24"/>
</svg>