<?xml version="1.0" encoding="UTF-8"?>
<svg id="Layer_1" xmlns="http://www.w3.org/2000/svg" version="1.1" viewBox="0 0 62 62">
  <!-- Generator: Adobe Illustrator 30.1.0, SVG Export Plug-In . SVG Version: 2.1.1 Build 136)  -->
  <circle id="Outer" cx="31" cy="31" r="24.47" fill="none" stroke="#000" stroke-width="13.06"/>
  <g>
    <g>
      <rect x="29" y="38.31" width="3.98" height="3.98"/>
      <path d="M31.91,39.37v1.85h-1.85v-1.85h1.85M34.04,37.24h-6.11v6.11h6.11v-6.11h0Z"/>
    </g>
    <g>
      <path d="M29.01,34.77l-.02-1.75c0-1.15.43-2.24,1.19-3.09l1.83-2.03c.32-.36.5-.82.5-1.3s-.42-.92-.93-.92h-1.18c-.51,0-.93.41-.93.92v1.07h-4v-1.07c0-2.7,2.21-4.9,4.93-4.9h1.18c2.72,0,4.93,2.2,4.93,4.9,0,1.47-.54,2.88-1.53,3.97l-1.83,2.03c-.11.12-.17.26-.17.42l-.02,1.76h-3.96Z"/>
      <path d="M31.59,22.77c2.13,0,3.86,1.72,3.86,3.83,0,1.2-.45,2.36-1.25,3.25l-1.83,2.03c-.28.31-.44.7-.44,1.13v.7h-1.86v-.7c0-.88.32-1.71.91-2.36l1.83-2.03c.5-.56.78-1.27.78-2.02,0-1.09-.9-1.98-2-1.98h-1.18c-1.1,0-2,.89-2,1.98h-1.86c0-2.11,1.73-3.83,3.86-3.83h1.18M31.59,20.63h-1.18c-3.3,0-5.99,2.68-5.99,5.96v2.13h5.41l-.44.49c-.94,1.04-1.46,2.38-1.46,3.78v.73s.02,2.11.02,2.11h6.07l.02-2.11v-.54s1.73-1.91,1.73-1.91c1.16-1.29,1.8-2.95,1.8-4.68,0-3.29-2.69-5.96-5.99-5.96h0ZM30.55,26.75h.89c-.03.16-.1.31-.21.44l-.68.75v-1.19h0Z"/>
    </g>
  </g>
</svg>