<?xml version="1.0" encoding="UTF-8"?>
<svg id="Layer_1" xmlns="http://www.w3.org/2000/svg" version="1.1" viewBox="0 0 62 62">
  <!-- Generator: Adobe Illustrator 30.1.0, SVG Export Plug-In . SVG Version: 2.1.1 Build 136)  -->
  <circle id="Outer" cx="31" cy="31" r="28.31" fill="none" stroke="#000" stroke-width="5.39"/>
  <g>
    <g>
      <rect x="29.04" y="41.24" width="3.88" height="3.88"/>
      <path d="M32.53,41.62v3.11h-3.11v-3.11h3.11M33.31,40.85h-4.66v4.66h4.66v-4.66h0Z"/>
    </g>
    <g>
      <path d="M29.05,36.96v-1.56c0-1.57.57-3.07,1.62-4.23l3.08-3.41c.78-.86,1.21-1.97,1.21-3.13,0-1.62-1.33-2.94-2.96-2.94h-1.98c-1.63,0-2.96,1.32-2.96,2.94v.39h-3.91v-.39c0-3.76,3.08-6.83,6.87-6.83h1.98c3.79,0,6.87,3.06,6.87,6.83,0,2.12-.78,4.15-2.21,5.72l-3.08,3.41c-.42.46-.64,1.03-.64,1.63l-.02,1.56h-3.87Z"/>
      <path d="M31.99,18.19c3.58,0,6.49,2.89,6.49,6.44,0,2.02-.75,3.96-2.11,5.46l-3.08,3.41c-.48.53-.74,1.18-.74,1.89v1.17h-3.12v-1.17c0-1.47.54-2.87,1.53-3.97l3.08-3.41c.84-.93,1.31-2.14,1.31-3.39,0-1.84-1.5-3.33-3.35-3.33h-1.98c-1.85,0-3.35,1.49-3.35,3.33h-3.13c0-3.55,2.91-6.44,6.49-6.44h1.98M31.99,17.41h-1.98c-4,0-7.26,3.24-7.26,7.22v.77h4.68v-.77c0-1.41,1.16-2.55,2.58-2.55h1.98c1.42,0,2.58,1.15,2.58,2.55,0,1.06-.39,2.08-1.11,2.87l-3.08,3.41c-1.11,1.23-1.73,2.83-1.74,4.49v1.18s.02.77.02.77h4.64v-.77s.02-1.17.02-1.17c0-.51.19-.99.54-1.38l3.08-3.41c1.49-1.65,2.31-3.77,2.31-5.98,0-3.98-3.26-7.22-7.26-7.22h0Z"/>
    </g>
  </g>
</svg>