<?xml version="1.0" encoding="UTF-8"?>
<svg id="Layer_1" xmlns="http://www.w3.org/2000/svg" version="1.1" viewBox="0 0 62 62">
  <!-- Generator: Adobe Illustrator 30.1.0, SVG Export Plug-In . SVG Version: 2.1.1 Build 136)  -->
  <circle id="Outer" cx="31" cy="31" r="25.01" fill="none" stroke="#000" stroke-width="11.97"/>
  <g>
    <g>
      <rect x="29.01" y="38.73" width="3.95" height="3.95"/>
      <path d="M31.99,39.7v2.01h-2.01v-2.01h2.01M33.93,37.76h-5.89v5.89h5.89v-5.89h0Z"/>
    </g>
    <g>
      <path d="M29.02,35.04l-.02-1.72c0-1.2.45-2.35,1.25-3.23l1.99-2.21c.38-.43.6-.97.6-1.55,0-.66-.54-1.19-1.2-1.19h-1.28c-.66,0-1.2.53-1.2,1.19v.97h-3.97v-.97c0-2.83,2.32-5.14,5.17-5.14h1.28c2.85,0,5.17,2.31,5.17,5.14,0,1.55-.57,3.04-1.61,4.19l-1.99,2.21c-.15.17-.23.36-.23.58l-.02,1.73h-3.93Z"/>
      <path d="M31.64,22.16c2.32,0,4.2,1.87,4.2,4.17,0,1.31-.48,2.57-1.36,3.54l-1.99,2.21c-.31.34-.48.77-.48,1.23v.76h-2.02v-.76c0-.95.35-1.86.99-2.57l1.99-2.21c.55-.6.85-1.38.85-2.19,0-1.19-.97-2.16-2.17-2.16h-1.28c-1.2,0-2.17.97-2.17,2.16h-2.03c0-2.3,1.88-4.17,4.2-4.17h1.28M31.64,20.22h-1.28c-3.39,0-6.14,2.74-6.14,6.11v1.94h5.91v-1.94c0-.12.11-.22.23-.22h1.28c.13,0,.23.1.23.22,0,.33-.12.65-.35.9l-1.99,2.21c-.96,1.06-1.49,2.43-1.5,3.86v.79s.02,1.92.02,1.92h5.85l.02-1.92v-.73s1.98-2.19,1.98-2.19c1.2-1.33,1.86-3.05,1.86-4.84,0-3.37-2.75-6.11-6.14-6.11h0Z"/>
    </g>
  </g>
</svg>