<?xml version="1.0" encoding="UTF-8"?>
<svg id="Layer_1" xmlns="http://www.w3.org/2000/svg" version="1.1" viewBox="0 0 62 62">
  <!-- Generator: Adobe Illustrator 30.1.0, SVG Export Plug-In . SVG Version: 2.1.1 Build 136)  -->
  <circle id="Outer" cx="31" cy="31" r="26.11" fill="none" stroke="#000" stroke-width="9.78"/>
  <g>
    <g>
      <rect x="29.03" y="39.57" width="3.91" height="3.91"/>
      <path d="M32.16,40.35v2.36h-2.36v-2.36h2.36M33.71,38.8h-5.46v5.46h5.46v-5.46h0Z"/>
    </g>
    <g>
      <path d="M29.04,35.62l-.02-1.66c0-1.32.49-2.57,1.37-3.54l2.33-2.59c.51-.57.79-1.29.79-2.05,0-.97-.79-1.75-1.77-1.75h-1.5c-.98,0-1.77.79-1.77,1.75v.77h-3.93v-.77c0-3.12,2.56-5.66,5.7-5.66h1.5c3.14,0,5.7,2.54,5.7,5.66,0,1.73-.64,3.38-1.8,4.67l-2.33,2.59c-.24.26-.36.58-.36.92l-.02,1.66h-3.89Z"/>
      <path d="M31.75,20.89c2.71,0,4.92,2.19,4.92,4.89,0,1.53-.57,3.01-1.6,4.15l-2.34,2.59c-.36.4-.56.9-.56,1.44v.89h-2.37v-.89c0-1.12.41-2.18,1.16-3.01l2.33-2.59c.64-.71.99-1.62.99-2.57,0-1.39-1.14-2.53-2.54-2.53h-1.5c-1.4,0-2.54,1.13-2.54,2.53h-2.38c0-2.7,2.21-4.89,4.92-4.89h1.5M31.75,19.34h-1.5c-3.57,0-6.47,2.89-6.47,6.44v1.55h5.48v-1.55c0-.54.45-.98.99-.98h1.5c.55,0,.99.44.99.98,0,.57-.21,1.11-.59,1.53l-2.34,2.59c-1,1.11-1.56,2.55-1.57,4.05v.91s.02,1.54.02,1.54h5.43l.02-1.53v-.89c0-.16.06-.29.17-.41l2.34-2.59c1.29-1.43,2-3.27,2-5.19,0-3.55-2.9-6.44-6.47-6.44h0Z"/>
    </g>
  </g>
</svg>