<?xml version="1.0" encoding="UTF-8"?>
<svg id="Layer_1" xmlns="http://www.w3.org/2000/svg" version="1.1" viewBox="0 0 62 62">
  <!-- Generator: Adobe Illustrator 30.1.0, SVG Export Plug-In . SVG Version: 2.1.1 Build 136)  -->
  <circle id="Outer" cx="31" cy="31" r="27.21" fill="none" stroke="#000" stroke-width="7.58"/>
  <g>
    <g>
      <rect x="29.04" y="40.41" width="3.89" height="3.89"/>
      <path d="M32.34,40.99v2.72h-2.72v-2.72h2.72M33.51,39.83h-5.05v5.05h5.05v-5.05h0Z"/>
    </g>
    <g>
      <path d="M29.05,36.27v-1.61c0-1.44.52-2.81,1.49-3.88l2.7-2.99c.64-.71,1-1.63,1-2.58,0-1.29-1.06-2.34-2.36-2.34h-1.73c-1.3,0-2.36,1.05-2.36,2.34v.58h-3.91v-.58c0-3.44,2.81-6.23,6.27-6.23h1.73c3.46,0,6.27,2.79,6.27,6.23,0,1.92-.71,3.76-2,5.18l-2.7,2.99c-.33.36-.5.8-.5,1.27l-.02,1.61h-3.88Z"/>
      <path d="M31.87,19.56c3.14,0,5.69,2.54,5.69,5.65,0,1.77-.66,3.47-1.85,4.79l-2.7,2.99c-.42.46-.65,1.04-.65,1.66v1.03h-2.74v-1.03c0-1.29.47-2.52,1.34-3.48l2.7-2.99c.74-.82,1.15-1.87,1.15-2.97,0-1.61-1.32-2.92-2.94-2.92h-1.73c-1.62,0-2.94,1.31-2.94,2.92h-2.75c0-3.11,2.55-5.65,5.69-5.65h1.73M31.87,18.4h-1.73c-3.78,0-6.85,3.06-6.85,6.81v1.16h5.07v-1.16c0-.97.8-1.76,1.78-1.76h1.73c.98,0,1.78.79,1.78,1.76,0,.81-.3,1.59-.85,2.19l-2.7,2.99c-1.06,1.17-1.64,2.68-1.65,4.26v1.05s.02,1.15.02,1.15h5.03v-1.15s.02-1.03.02-1.03c0-.34.12-.64.35-.89l2.7-2.99c1.38-1.53,2.15-3.51,2.15-5.57,0-3.76-3.07-6.81-6.85-6.81h0Z"/>
    </g>
  </g>
</svg>