<?xml version="1.0" encoding="UTF-8"?>
<svg id="Layer_1" xmlns="http://www.w3.org/2000/svg" version="1.1" viewBox="0 0 62 62">
  <!-- Generator: Adobe Illustrator 30.1.0, SVG Export Plug-In . SVG Version: 2.1.1 Build 136)  -->
  <circle id="Outer" cx="31" cy="31" r="28.85" fill="none" stroke="#000" stroke-width="4.3"/>
  <g>
    <g>
      <rect x="29.04" y="41.64" width="3.88" height="3.88"/>
      <path d="M32.63,41.93v3.3h-3.3v-3.3h3.3M33.21,41.35h-4.46v4.46h4.46v-4.46h0Z"/>
    </g>
    <g>
      <path d="M29.04,37.31v-1.54c0-1.64.6-3.21,1.7-4.42l3.27-3.62c.85-.94,1.31-2.15,1.31-3.41,0-1.79-1.47-3.25-3.27-3.25h-2.1c-1.8,0-3.27,1.46-3.27,3.25v.29h-3.91v-.29c0-3.93,3.22-7.13,7.18-7.13h2.1c3.96,0,7.18,3.2,7.18,7.13,0,2.22-.82,4.35-2.31,6l-3.27,3.62c-.47.51-.71,1.14-.71,1.82v1.54h-3.89Z"/>
      <path d="M32.05,17.49c3.8,0,6.89,3.07,6.89,6.84,0,2.15-.8,4.21-2.24,5.81l-3.27,3.62c-.51.56-.79,1.26-.79,2.01v1.25h-3.31v-1.25c0-1.56.57-3.05,1.62-4.22l3.27-3.62c.9-.99,1.39-2.27,1.39-3.6,0-1.95-1.6-3.54-3.56-3.54h-2.1c-1.96,0-3.56,1.59-3.56,3.54h-3.33c0-3.77,3.09-6.84,6.89-6.84h2.1M32.05,16.91h-2.1c-4.12,0-7.47,3.33-7.47,7.43v.58h4.49v-.58c0-1.63,1.34-2.96,2.98-2.96h2.1c1.64,0,2.98,1.33,2.98,2.96,0,1.19-.44,2.33-1.24,3.21l-3.27,3.62c-1.14,1.27-1.78,2.9-1.78,4.61v1.26s.02.58.02.58h4.45v-.58s.02-1.25.02-1.25c0-.6.22-1.17.64-1.63l3.27-3.62c1.54-1.71,2.39-3.91,2.39-6.2,0-4.09-3.35-7.43-7.47-7.43h0Z"/>
    </g>
  </g>
</svg>