<?xml version="1.0" encoding="UTF-8"?>
<svg id="Layer_1" xmlns="http://www.w3.org/2000/svg" version="1.1" viewBox="0 0 23 23">
  <!-- Generator: Adobe Illustrator 30.1.0, SVG Export Plug-In . SVG Version: 2.1.1 Build 136)  -->
  <g>
    <g>
      <rect x="10.69" y="5.97" width="1.62" height="1.62"/>
      <path d="M12.17,6.11v1.33h-1.33v-1.33h1.33M12.45,5.82h-1.91v1.91h1.91v-1.91h0Z"/>
    </g>
    <g>
      <polygon points="9.36 17 9.36 15.38 10.69 15.38 10.69 11.51 9.36 11.51 9.36 9.89 12.31 9.89 12.31 15.38 13.64 15.38 13.64 17 9.36 17"/>
      <path d="M12.17,10.03v5.49h1.33v1.33h-4v-1.33h1.33v-4.16h-1.33v-1.33h2.66M12.45,9.74h-3.24v1.91h1.33v3.58h-1.33v1.91h4.57v-1.91h-1.33v-5.49h0Z"/>
    </g>
  </g>
  <circle id="Outer" cx="11.5" cy="11.5" r="10.5" fill="none" stroke="#000" stroke-width="2"/>
</svg>