<?xml version="1.0" encoding="UTF-8"?>
<svg id="Layer_1" xmlns="http://www.w3.org/2000/svg" version="1.1" viewBox="0 0 23 23">
  <!-- Generator: Adobe Illustrator 30.1.0, SVG Export Plug-In . SVG Version: 2.1.1 Build 136)  -->
  <g>
    <g>
      <rect x="10.64" y="6.99" width="1.71" height="1.71"/>
      <path d="M11.96,7.39v.92h-.92v-.92h.92M12.75,6.6h-2.5v2.5h2.5v-2.5h0Z"/>
    </g>
    <g>
      <polygon points="9.72 15.76 9.72 14.05 10.64 14.05 10.64 11.96 9.72 11.96 9.72 10.24 12.36 10.24 12.36 14.05 13.28 14.05 13.28 15.76 9.72 15.76"/>
      <path d="M11.96,10.64v3.8h.92v.92h-2.77v-.92h.92v-2.88h-.92v-.92h1.84M12.75,9.85h-3.43v2.5h.92v1.3h-.92v2.5h4.35v-2.5h-.92v-3.8h0Z"/>
    </g>
  </g>
  <circle id="Outer" cx="11.5" cy="11.5" r="9.08" fill="none" stroke="#000" stroke-width="4.84"/>
</svg>