<?xml version="1.0" encoding="UTF-8"?>
<svg id="Layer_1" xmlns="http://www.w3.org/2000/svg" version="1.1" viewBox="0 0 23 23">
  <!-- Generator: Adobe Illustrator 30.1.0, SVG Export Plug-In . SVG Version: 2.1.1 Build 136)  -->
  <g>
    <g>
      <rect x="10.65" y="6.85" width="1.7" height="1.7"/>
      <path d="M11.99,7.21v.98h-.98v-.98h.98M12.71,6.49h-2.42v2.42h2.42v-2.42h0Z"/>
    </g>
    <g>
      <polygon points="9.67 15.93 9.67 14.23 10.65 14.23 10.65 11.9 9.67 11.9 9.67 10.2 12.35 10.2 12.35 14.23 13.33 14.23 13.33 15.93 9.67 15.93"/>
      <path d="M11.99,10.56v4.03h.98v.98h-2.94v-.98h.98v-3.05h-.98v-.98h1.96M12.71,9.84h-3.39v2.42h.98v1.62h-.98v2.42h4.37v-2.42h-.98v-4.03h0Z"/>
    </g>
  </g>
  <circle id="Outer" cx="11.5" cy="11.5" r="9.28" fill="none" stroke="#000" stroke-width="4.44"/>
</svg>