<?xml version="1.0" encoding="UTF-8"?>
<svg id="Layer_1" xmlns="http://www.w3.org/2000/svg" version="1.1" viewBox="0 0 76 76">
  <!-- Generator: Adobe Illustrator 30.1.0, SVG Export Plug-In . SVG Version: 2.1.1 Build 136)  -->
  <circle id="Outer" cx="38" cy="38" r="34.7" fill="none" stroke="#000" stroke-width="6.6"/>
  <g>
    <g>
      <rect x="35.6" y="50.55" width="4.76" height="4.76"/>
      <path d="M39.88,51.02v3.81h-3.81v-3.81h3.81M40.83,50.07h-5.71v5.71h5.71v-5.71h0Z"/>
    </g>
    <g>
      <path d="M35.6,45.3l-.02-1.91c0-1.92.72-3.76,2.01-5.19l3.77-4.18c.95-1.06,1.48-2.42,1.48-3.83,0-1.99-1.63-3.61-3.63-3.61h-2.42c-2,0-3.63,1.62-3.63,3.61v.48h-4.79v-.48c0-4.61,3.78-8.37,8.43-8.37h2.42c4.65,0,8.42,3.75,8.42,8.37,0,2.59-.96,5.09-2.7,7.02l-3.77,4.18c-.51.57-.79,1.26-.79,2l-.02,1.91h-4.75Z"/>
      <path d="M39.21,22.29c4.38,0,7.95,3.54,7.95,7.89,0,2.48-.92,4.86-2.58,6.7l-3.77,4.18c-.58.65-.91,1.45-.91,2.32v1.44h-3.82v-1.44c0-1.8.66-3.52,1.87-4.87l3.77-4.18c1.03-1.14,1.6-2.62,1.6-4.15,0-2.25-1.84-4.08-4.11-4.08h-2.42c-2.27,0-4.11,1.83-4.11,4.08h-3.84c0-4.35,3.57-7.89,7.95-7.89h2.42M39.21,21.34h-2.42c-4.91,0-8.9,3.97-8.9,8.84v.95h5.74v-.95c0-1.73,1.42-3.13,3.16-3.13h2.42c1.74,0,3.16,1.4,3.16,3.13,0,1.3-.48,2.55-1.36,3.52l-3.77,4.18c-1.37,1.51-2.12,3.46-2.13,5.5v1.45s.02.94.02.94h5.69v-.94s.02-1.44.02-1.44c0-.63.23-1.21.67-1.69l3.77-4.18c1.82-2.02,2.83-4.62,2.83-7.34,0-4.88-3.99-8.84-8.9-8.84h0Z"/>
    </g>
  </g>
</svg>