<?xml version="1.0" encoding="UTF-8"?>
<svg id="Layer_1" xmlns="http://www.w3.org/2000/svg" version="1.1" viewBox="0 0 76 76">
  <!-- Generator: Adobe Illustrator 30.1.0, SVG Export Plug-In . SVG Version: 2.1.1 Build 136)  -->
  <circle id="Outer" cx="38" cy="38" r="30.66" fill="none" stroke="#000" stroke-width="14.68"/>
  <g>
    <g>
      <rect x="35.56" y="47.47" width="4.84" height="4.84"/>
      <path d="M39.21,48.66v2.47h-2.47v-2.47h2.47M41.59,46.29h-7.22v7.22h7.22v-7.22h0Z"/>
    </g>
    <g>
      <path d="M35.58,42.95l-.02-2.11c0-1.47.55-2.88,1.53-3.96l2.44-2.71c.47-.52.73-1.19.73-1.9,0-.8-.66-1.46-1.48-1.46h-1.57c-.81,0-1.47.65-1.47,1.46v1.19h-4.86v-1.19c0-3.47,2.84-6.3,6.34-6.3h1.57c3.49,0,6.34,2.83,6.34,6.3,0,1.9-.7,3.72-1.98,5.14l-2.44,2.71c-.19.21-.28.45-.28.71l-.02,2.12h-4.82Z"/>
      <path d="M38.78,27.16c2.84,0,5.15,2.29,5.15,5.11,0,1.6-.59,3.15-1.67,4.34l-2.44,2.71c-.38.42-.59.94-.59,1.5v.93h-2.48v-.93c0-1.17.43-2.28,1.21-3.15l2.44-2.71c.67-.74,1.04-1.7,1.04-2.69,0-1.46-1.19-2.64-2.66-2.64h-1.57c-1.47,0-2.66,1.19-2.66,2.64h-2.49c0-2.82,2.31-5.11,5.15-5.11h1.57M38.78,24.79h-1.57c-4.15,0-7.53,3.36-7.53,7.49v2.38h7.24v-2.38c0-.15.13-.27.29-.27h1.57c.16,0,.29.12.29.27,0,.41-.15.8-.42,1.1l-2.44,2.71c-1.18,1.3-1.83,2.98-1.83,4.74v.96s.03,2.35.03,2.35h7.17l.02-2.35v-.89s2.43-2.68,2.43-2.68c1.47-1.63,2.28-3.74,2.28-5.93,0-4.13-3.38-7.49-7.53-7.49h0Z"/>
    </g>
  </g>
</svg>