<?xml version="1.0" encoding="UTF-8"?>
<svg id="Layer_1" xmlns="http://www.w3.org/2000/svg" version="1.1" viewBox="0 0 76 76">
  <!-- Generator: Adobe Illustrator 30.1.0, SVG Export Plug-In . SVG Version: 2.1.1 Build 136)  -->
  <circle id="Outer" cx="38" cy="38" r="35.36" fill="none" stroke="#000" stroke-width="5.27"/>
  <g>
    <g>
      <rect x="35.6" y="51.05" width="4.76" height="4.76"/>
      <path d="M40,51.4v4.05h-4.05v-4.05h4.05M40.71,50.69h-5.47v5.47h5.47v-5.47h0Z"/>
    </g>
    <g>
      <path d="M35.6,45.74l-.02-1.88c0-2.01.75-3.93,2.1-5.41l4.01-4.44c1.04-1.15,1.61-2.63,1.61-4.17,0-2.19-1.8-3.98-4.01-3.98h-2.57c-2.21,0-4.01,1.79-4.01,3.98v.36h-4.79v-.36c0-4.82,3.95-8.75,8.8-8.75h2.57c4.85,0,8.8,3.92,8.8,8.75,0,2.72-1.01,5.33-2.83,7.36l-4.01,4.44c-.57.63-.87,1.4-.88,2.23l-.02,1.89h-4.75Z"/>
      <path d="M39.29,21.44c4.66,0,8.45,3.76,8.45,8.39,0,2.63-.97,5.16-2.74,7.12l-4.01,4.44c-.62.69-.96,1.54-.97,2.46l-.02,1.53h-4.05v-1.53c0-1.92.7-3.74,1.99-5.17l4.01-4.44c1.1-1.22,1.7-2.78,1.7-4.41,0-2.39-1.96-4.34-4.37-4.34h-2.57c-2.41,0-4.37,1.95-4.37,4.34h-4.08c0-4.63,3.79-8.39,8.45-8.39h2.57M39.29,20.73h-2.57c-5.05,0-9.16,4.08-9.16,9.1v.71h5.51v-.71c0-2,1.64-3.62,3.65-3.62h2.57c2.01,0,3.65,1.63,3.65,3.62,0,1.45-.54,2.85-1.52,3.94l-4.01,4.44c-1.4,1.55-2.18,3.56-2.19,5.65v1.54s.02.71.02.71h5.46v-.71s.02-1.53.02-1.53c0-.74.27-1.43.78-1.99l4.01-4.44c1.89-2.09,2.93-4.79,2.93-7.6,0-5.02-4.11-9.1-9.16-9.1h0Z"/>
    </g>
  </g>
</svg>