<?xml version="1.0" encoding="UTF-8"?>
<svg id="Layer_1" xmlns="http://www.w3.org/2000/svg" version="1.1" viewBox="0 0 76 76">
  <!-- Generator: Adobe Illustrator 30.1.0, SVG Export Plug-In . SVG Version: 2.1.1 Build 136)  -->
  <circle id="Outer" cx="38" cy="38" r="33.36" fill="none" stroke="#000" stroke-width="9.29"/>
  <g>
    <g>
      <rect x="35.6" y="49.54" width="4.77" height="4.77"/>
      <path d="M39.65,50.25v3.34h-3.34v-3.34h3.34M41.07,48.82h-6.19v6.19h6.19v-6.19h0Z"/>
    </g>
    <g>
      <path d="M35.61,44.46l-.02-1.97c0-1.76.66-3.45,1.84-4.75l3.31-3.66c.79-.87,1.22-2,1.22-3.17,0-1.58-1.3-2.87-2.89-2.87h-2.12c-1.59,0-2.89,1.29-2.89,2.87v.71h-4.79v-.71c0-4.21,3.45-7.64,7.69-7.64h2.12c4.24,0,7.69,3.43,7.69,7.64,0,2.35-.87,4.6-2.45,6.35l-3.31,3.67c-.4.44-.61.98-.62,1.56l-.02,1.97h-4.75Z"/>
      <path d="M39.06,23.98c3.85,0,6.97,3.11,6.97,6.93,0,2.17-.8,4.26-2.26,5.88l-3.31,3.67c-.51.57-.8,1.27-.8,2.03v1.26h-3.35v-1.26c0-1.58.58-3.09,1.64-4.27l3.31-3.66c.91-1,1.4-2.3,1.4-3.64,0-1.97-1.62-3.58-3.61-3.58h-2.13c-1.99,0-3.61,1.61-3.61,3.58h-3.37c0-3.82,3.13-6.93,6.97-6.93h2.13M39.06,22.55h-2.13c-4.63,0-8.4,3.75-8.4,8.35v1.43h6.22v-1.43c0-1.19.98-2.15,2.18-2.15h2.13c1.2,0,2.18.97,2.18,2.15,0,.99-.37,1.95-1.04,2.69l-3.31,3.66c-1.3,1.43-2.01,3.29-2.02,5.22v1.28s.02,1.41.02,1.41h6.16v-1.41s.03-1.26.03-1.26c0-.41.15-.78.43-1.09l3.31-3.67c1.7-1.88,2.63-4.31,2.63-6.83,0-4.6-3.77-8.35-8.4-8.35h0Z"/>
    </g>
  </g>
</svg>