<?xml version="1.0" encoding="UTF-8"?>
<svg id="Layer_1" xmlns="http://www.w3.org/2000/svg" version="1.1" viewBox="0 0 76 76">
  <!-- Generator: Adobe Illustrator 30.1.0, SVG Export Plug-In . SVG Version: 2.1.1 Build 136)  -->
  <circle id="Outer" cx="38" cy="38" r="30" fill="none" stroke="#000" stroke-width="16.01"/>
  <g>
    <g>
      <rect x="35.54" y="46.95" width="4.88" height="4.88"/>
      <path d="M39.12,48.26v2.27h-2.27v-2.27h2.27M41.73,45.65h-7.49v7.49h7.49v-7.49h0Z"/>
    </g>
    <g>
      <path d="M35.56,42.62l-.02-2.15c0-1.41.52-2.75,1.46-3.78l2.24-2.49c.4-.44.62-1.01.62-1.6,0-.62-.51-1.12-1.14-1.12h-1.44c-.63,0-1.14.5-1.14,1.12v1.31h-4.9v-1.31c0-3.31,2.71-6,6.04-6h1.44c3.33,0,6.04,2.69,6.04,6,0,1.8-.67,3.52-1.87,4.86l-2.25,2.49c-.14.15-.21.32-.21.51l-.02,2.16h-4.86Z"/>
      <path d="M38.72,27.91c2.61,0,4.73,2.11,4.73,4.7,0,1.47-.55,2.89-1.54,3.99l-2.24,2.49c-.35.38-.54.86-.54,1.38v.86h-2.27v-.86c0-1.07.39-2.1,1.11-2.9l2.24-2.49c.61-.68.95-1.56.95-2.47,0-1.34-1.1-2.43-2.45-2.43h-1.44c-1.35,0-2.45,1.09-2.45,2.43h-2.29c0-2.59,2.12-4.7,4.73-4.7h1.44M38.72,25.29h-1.44c-4.05,0-7.34,3.28-7.34,7.31v2.61h6.63l-.54.59c-1.15,1.27-1.79,2.92-1.8,4.64v.89s.03,2.59.03,2.59h7.44l.03-2.59v-.66s2.12-2.34,2.12-2.34c1.42-1.58,2.21-3.62,2.21-5.74,0-4.03-3.29-7.31-7.34-7.31h0ZM37.45,32.79h1.09c-.03.2-.13.38-.26.54l-.83.92v-1.45h0Z"/>
    </g>
  </g>
</svg>