<?xml version="1.0" encoding="UTF-8"?>
<svg id="Layer_1" xmlns="http://www.w3.org/2000/svg" version="1.1" viewBox="0 0 76 76">
  <!-- Generator: Adobe Illustrator 30.1.0, SVG Export Plug-In . SVG Version: 2.1.1 Build 136)  -->
  <circle id="Outer" cx="38" cy="38" r="32" fill="none" stroke="#000" stroke-width="11.99"/>
  <g>
    <g>
      <rect x="35.58" y="48.51" width="4.79" height="4.79"/>
      <path d="M39.42,49.46v2.89h-2.89v-2.89h2.89M41.32,47.56h-6.69v6.69h6.69v-6.69h0Z"/>
    </g>
    <g>
      <path d="M35.6,43.66l-.02-2.04c0-1.61.6-3.15,1.68-4.34l2.86-3.17c.63-.69.97-1.59.97-2.52,0-1.18-.97-2.15-2.17-2.15h-1.84c-1.2,0-2.17.96-2.17,2.15v.95h-4.82v-.95c0-3.83,3.13-6.94,6.98-6.94h1.84c3.85,0,6.98,3.11,6.98,6.94,0,2.11-.78,4.15-2.21,5.72l-2.86,3.17c-.29.32-.45.71-.45,1.13l-.02,2.04h-4.77Z"/>
      <path d="M38.92,25.61c3.33,0,6.03,2.69,6.03,5.99,0,1.88-.7,3.69-1.96,5.08l-2.86,3.17c-.44.49-.69,1.1-.69,1.76v1.09h-2.9v-1.09c0-1.37.5-2.67,1.42-3.69l2.86-3.17c.78-.87,1.22-1.99,1.22-3.15,0-1.71-1.4-3.1-3.12-3.1h-1.84c-1.72,0-3.12,1.39-3.12,3.1h-2.92c0-3.3,2.71-5.99,6.03-5.99h1.84M38.92,23.71h-1.84c-4.38,0-7.93,3.54-7.93,7.89v1.9h6.72v-1.9c0-.66.55-1.2,1.22-1.2h1.84c.67,0,1.22.54,1.22,1.2,0,.69-.26,1.36-.73,1.88l-2.86,3.17c-1.23,1.36-1.91,3.12-1.92,4.96v1.12s.03,1.88.03,1.88h6.65l.02-1.88v-1.09c.01-.2.08-.36.21-.51l2.86-3.17c1.58-1.75,2.45-4.01,2.45-6.36,0-4.35-3.56-7.89-7.93-7.89h0Z"/>
    </g>
  </g>
</svg>