<?xml version="1.0" encoding="UTF-8"?>
<svg id="Layer_1" xmlns="http://www.w3.org/2000/svg" version="1.1" viewBox="0 0 110 110">
  <!-- Generator: Adobe Illustrator 30.1.0, SVG Export Plug-In . SVG Version: 2.1.1 Build 136)  -->
  <circle id="Outer" cx="55" cy="55" r="50.22" fill="none" stroke="#000" stroke-width="9.56"/>
  <g>
    <g>
      <rect x="51.52" y="73.16" width="6.89" height="6.89"/>
      <path d="M57.72,73.85v5.51h-5.51v-5.51h5.51M59.1,72.47h-8.26v8.26h8.26v-8.26h0Z"/>
    </g>
    <g>
      <path d="M51.53,65.57l-.02-2.77c.01-2.79,1.04-5.45,2.91-7.51l5.46-6.04c1.38-1.53,2.14-3.5,2.14-5.55,0-2.88-2.36-5.22-5.26-5.22h-3.51c-2.9,0-5.26,2.34-5.26,5.22v.69h-6.93v-.69c0-6.68,5.47-12.11,12.19-12.11h3.51c6.72,0,12.19,5.43,12.19,12.11,0,3.75-1.39,7.36-3.91,10.16l-5.46,6.05c-.74.82-1.14,1.82-1.14,2.9l-.03,2.77h-6.87Z"/>
      <path d="M56.75,32.27c6.35,0,11.51,5.13,11.51,11.43,0,3.58-1.33,7.03-3.74,9.7l-5.46,6.05c-.85.94-1.31,2.1-1.32,3.36l-.02,2.08h-5.51l-.02-2.08c0-2.61.97-5.1,2.73-7.04l5.46-6.05c1.49-1.66,2.32-3.79,2.32-6.01,0-3.26-2.67-5.91-5.95-5.91h-3.51c-3.28,0-5.95,2.65-5.95,5.91h-5.56c0-6.3,5.16-11.43,11.51-11.43h3.51M56.75,30.89h-3.51c-7.1,0-12.88,5.74-12.88,12.8v1.38h8.31v-1.38c0-2.5,2.05-4.53,4.57-4.53h3.51c2.52,0,4.57,2.03,4.57,4.53,0,1.88-.7,3.69-1.96,5.09l-5.46,6.05c-1.98,2.19-3.07,5.01-3.08,7.96l.02,2.1v1.36h8.25v-1.36s.03-2.08.03-2.08c0-.91.34-1.75.96-2.45l5.46-6.05c2.64-2.92,4.09-6.69,4.09-10.62,0-7.06-5.78-12.8-12.88-12.8h0Z"/>
    </g>
  </g>
</svg>