<?xml version="1.0" encoding="UTF-8"?>
<svg id="Layer_1" xmlns="http://www.w3.org/2000/svg" version="1.1" viewBox="0 0 110 110">
  <!-- Generator: Adobe Illustrator 30.1.0, SVG Export Plug-In . SVG Version: 2.1.1 Build 136)  -->
  <circle id="Outer" cx="55" cy="55" r="51.18" fill="none" stroke="#000" stroke-width="7.63"/>
  <g>
    <g>
      <rect x="51.52" y="73.88" width="6.89" height="6.89"/>
      <path d="M57.89,74.4v5.86h-5.86v-5.86h5.86M58.92,73.37h-7.92v7.92h7.92v-7.92h0Z"/>
    </g>
    <g>
      <path d="M51.53,66.2l-.02-2.73c.01-2.9,1.09-5.68,3.03-7.84l5.8-6.42c1.5-1.66,2.33-3.81,2.33-6.04,0-3.18-2.6-5.76-5.81-5.76h-3.73c-3.2,0-5.8,2.58-5.8,5.76v.52h-6.94v-.52c0-6.98,5.72-12.66,12.74-12.66h3.73c7.03,0,12.74,5.68,12.74,12.66,0,3.94-1.46,7.72-4.1,10.65l-5.8,6.43c-.83.91-1.26,2.03-1.27,3.22l-.03,2.73h-6.88Z"/>
      <path d="M56.86,31.03c6.74,0,12.23,5.45,12.23,12.14,0,3.81-1.41,7.47-3.97,10.3l-5.8,6.43c-.9.99-1.4,2.23-1.4,3.57l-.02,2.21h-5.86l-.02-2.21c.01-2.78,1.03-5.42,2.9-7.49l5.8-6.42c1.59-1.76,2.46-4.03,2.46-6.39,0-3.46-2.84-6.28-6.32-6.28h-3.73c-3.48,0-6.32,2.82-6.32,6.28h-5.91c0-6.69,5.49-12.14,12.23-12.14h3.73M56.86,30h-3.73c-7.31,0-13.26,5.91-13.26,13.17v1.03h7.97v-1.03c0-2.89,2.37-5.24,5.29-5.24h3.73c2.92,0,5.29,2.35,5.29,5.24,0,2.1-.78,4.13-2.2,5.7l-5.8,6.43c-2.03,2.25-3.16,5.15-3.17,8.17l.02,2.23v1.02h7.91v-1.02s.03-2.21.03-2.21c0-1.07.4-2.07,1.13-2.89l5.8-6.43c2.73-3.03,4.24-6.93,4.24-10.99,0-7.26-5.95-13.17-13.26-13.17h0Z"/>
    </g>
  </g>
</svg>