<?xml version="1.0" encoding="UTF-8"?>
<svg id="Layer_1" xmlns="http://www.w3.org/2000/svg" version="1.1" viewBox="0 0 110 110">
  <!-- Generator: Adobe Illustrator 30.1.0, SVG Export Plug-In . SVG Version: 2.1.1 Build 136)  -->
  <circle id="Outer" cx="55" cy="55" r="44.38" fill="none" stroke="#000" stroke-width="21.24"/>
  <g>
    <g>
      <rect x="51.47" y="68.71" width="7.01" height="7.01"/>
      <path d="M56.76,70.43v3.57h-3.57v-3.57h3.57M60.2,66.99h-10.45v10.45h10.45v-10.45h0Z"/>
    </g>
    <g>
      <path d="M51.49,62.16l-.03-3.05c0-2.13.79-4.16,2.21-5.73l3.54-3.92c.68-.76,1.06-1.73,1.06-2.74,0-1.16-.96-2.11-2.13-2.11h-2.27c-1.18,0-2.13.95-2.13,2.11v1.72h-7.04v-1.72c0-5.03,4.12-9.12,9.17-9.12h2.27c5.06,0,9.17,4.09,9.17,9.12,0,2.75-1.02,5.39-2.86,7.43l-3.54,3.92c-.27.3-.41.65-.41,1.03l-.03,3.06h-6.98Z"/>
      <path d="M56.14,39.32c4.11,0,7.46,3.32,7.46,7.4,0,2.32-.86,4.55-2.42,6.28l-3.54,3.92c-.55.61-.85,1.36-.85,2.17v1.35h-3.58v-1.35c0-1.69.62-3.3,1.76-4.56l3.54-3.92c.97-1.07,1.5-2.46,1.5-3.89,0-2.11-1.73-3.83-3.85-3.83h-2.27c-2.12,0-3.85,1.72-3.85,3.83h-3.6c0-4.08,3.34-7.4,7.46-7.4h2.27M56.14,35.88h-2.27c-6.01,0-10.89,4.86-10.89,10.84v3.44h10.48v-3.44c0-.21.19-.39.42-.39h2.27c.23,0,.42.18.42.39,0,.59-.22,1.15-.61,1.59l-3.54,3.92c-1.7,1.88-2.65,4.32-2.65,6.85v1.39s.04,3.41.04,3.41h10.38l.03-3.4v-1.29s3.52-3.88,3.52-3.88c2.13-2.36,3.31-5.41,3.31-8.58,0-5.98-4.89-10.84-10.89-10.84h0Z"/>
    </g>
  </g>
</svg>