<?xml version="1.0" encoding="UTF-8"?>
<svg id="Layer_1" xmlns="http://www.w3.org/2000/svg" version="1.1" viewBox="0 0 110 110">
  <!-- Generator: Adobe Illustrator 30.1.0, SVG Export Plug-In . SVG Version: 2.1.1 Build 136)  -->
  <circle id="Outer" cx="55" cy="55" r="43.42" fill="none" stroke="#000" stroke-width="23.17"/>
  <g>
    <g>
      <rect x="51.44" y="67.96" width="7.06" height="7.06"/>
      <path d="M56.61,69.85v3.28h-3.28v-3.28h3.28M60.4,66.07h-10.84v10.84h10.84v-10.84h0Z"/>
    </g>
    <g>
      <path d="M51.47,61.69l-.03-3.12c0-2.04.76-3.98,2.11-5.48l3.25-3.6c.58-.64.89-1.46.89-2.31,0-.9-.74-1.62-1.65-1.62h-2.09c-.91,0-1.65.73-1.65,1.62v1.89h-7.09v-1.89c0-4.79,3.92-8.69,8.74-8.69h2.09c4.82,0,8.74,3.9,8.74,8.69,0,2.6-.96,5.1-2.71,7.04l-3.25,3.6c-.2.22-.3.46-.3.74l-.03,3.13h-7.03Z"/>
      <path d="M56.04,40.39c3.78,0,6.85,3.05,6.85,6.8,0,2.13-.79,4.18-2.22,5.77l-3.25,3.6c-.5.56-.78,1.25-.78,2v1.24h-3.29v-1.24c0-1.55.57-3.04,1.61-4.19l3.25-3.6c.89-.98,1.38-2.26,1.38-3.58,0-1.94-1.59-3.51-3.54-3.51h-2.09c-1.95,0-3.54,1.58-3.54,3.51h-3.31c0-3.75,3.07-6.8,6.85-6.8h2.09M56.04,36.61h-2.09c-5.86,0-10.63,4.75-10.63,10.58v3.78h9.6l-.78.86c-1.67,1.84-2.59,4.23-2.6,6.71v1.29s.04,3.75.04,3.75h10.77l.04-3.74v-.95s3.07-3.39,3.07-3.39c2.06-2.28,3.2-5.23,3.2-8.3,0-5.83-4.77-10.58-10.63-10.58h0ZM54.2,47.46h1.58c-.05.29-.18.56-.38.78l-1.2,1.33v-2.11h0Z"/>
    </g>
  </g>
</svg>