<?xml version="1.0" encoding="UTF-8"?>
<svg id="Layer_1" xmlns="http://www.w3.org/2000/svg" version="1.1" viewBox="0 0 110 110">
  <!-- Generator: Adobe Illustrator 30.1.0, SVG Export Plug-In . SVG Version: 2.1.1 Build 136)  -->
  <circle id="Outer" cx="55" cy="55" r="48.28" fill="none" stroke="#000" stroke-width="13.44"/>
  <g>
    <g>
      <rect x="51.52" y="71.7" width="6.9" height="6.9"/>
      <path d="M57.39,72.73v4.83h-4.83v-4.83h4.83M59.45,70.67h-8.96v8.96h8.96v-8.96h0Z"/>
    </g>
    <g>
      <path d="M51.53,64.34l-.03-2.85c0-2.55.95-4.99,2.66-6.88l4.79-5.3c1.14-1.26,1.77-2.89,1.77-4.58,0-2.29-1.88-4.15-4.19-4.15h-3.08c-2.31,0-4.19,1.86-4.19,4.15v1.03h-6.94v-1.03c0-6.1,4.99-11.06,11.13-11.06h3.08c6.13,0,11.13,4.96,11.13,11.06,0,3.4-1.26,6.67-3.54,9.2l-4.79,5.31c-.58.64-.89,1.42-.89,2.26l-.03,2.86h-6.88Z"/>
      <path d="M56.54,34.7c5.57,0,10.1,4.5,10.1,10.02,0,3.15-1.16,6.16-3.28,8.51l-4.79,5.31c-.74.82-1.15,1.84-1.16,2.94l-.02,1.83h-4.83l-.02-1.83c0-2.29.85-4.47,2.39-6.18l4.79-5.3c1.31-1.45,2.03-3.32,2.03-5.27,0-2.86-2.34-5.18-5.22-5.18h-3.08c-2.88,0-5.22,2.32-5.22,5.18h-4.88c0-5.53,4.53-10.02,10.1-10.02h3.08M56.54,32.64h-3.08c-6.7,0-12.16,5.42-12.16,12.09v2.06h9v-2.06c0-1.72,1.42-3.12,3.16-3.12h3.08c1.74,0,3.16,1.4,3.16,3.12,0,1.44-.53,2.82-1.5,3.89l-4.79,5.3c-1.88,2.07-2.92,4.76-2.93,7.55l.02,1.85.02,2.04h8.92l.02-2.04.02-1.83c0-.6.21-1.13.62-1.58l4.79-5.31c2.46-2.72,3.81-6.23,3.81-9.89,0-6.66-5.45-12.09-12.16-12.09h0Z"/>
    </g>
  </g>
</svg>