<?xml version="1.0" encoding="UTF-8"?>
<svg id="Layer_1" xmlns="http://www.w3.org/2000/svg" version="1.1" viewBox="0 0 110 110">
  <!-- Generator: Adobe Illustrator 30.1.0, SVG Export Plug-In . SVG Version: 2.1.1 Build 136)  -->
  <circle id="Outer" cx="55" cy="55" r="46.32" fill="none" stroke="#000" stroke-width="17.36"/>
  <g>
    <g>
      <rect x="51.5" y="70.21" width="6.93" height="6.93"/>
      <path d="M57.06,71.58v4.18h-4.18v-4.18h4.18M59.81,68.83h-9.68v9.68h9.68v-9.68h0Z"/>
    </g>
    <g>
      <path d="M51.52,63.2l-.03-2.95c0-2.33.87-4.56,2.43-6.28l4.14-4.59c.91-1,1.4-2.3,1.4-3.64,0-1.71-1.41-3.11-3.14-3.11h-2.66c-1.73,0-3.14,1.39-3.14,3.11v1.38h-6.97v-1.38c0-5.54,4.54-10.05,10.11-10.05h2.66c5.57,0,10.11,4.51,10.11,10.05,0,3.06-1.13,6-3.19,8.28l-4.14,4.59c-.42.47-.64,1.03-.65,1.63l-.03,2.95h-6.91Z"/>
      <path d="M56.33,37.07c4.82,0,8.73,3.89,8.73,8.67,0,2.72-1.01,5.33-2.84,7.36l-4.14,4.59c-.64.71-1,1.59-1,2.55l-.02,1.58h-4.18v-1.58c0-1.98.72-3.87,2.06-5.35l4.14-4.59c1.13-1.26,1.76-2.88,1.76-4.56,0-2.47-2.03-4.48-4.51-4.48h-2.66c-2.49,0-4.51,2.01-4.51,4.48h-4.22c0-4.78,3.92-8.67,8.73-8.67h2.66M56.33,34.32h-2.66c-6.33,0-11.48,5.12-11.48,11.42v2.75h9.72v-2.75c0-.96.79-1.73,1.76-1.73h2.66c.97,0,1.76.78,1.76,1.73,0,1-.37,1.97-1.05,2.72l-4.14,4.59c-1.78,1.97-2.77,4.52-2.78,7.18v1.62s.04,2.73.04,2.73h9.63l.03-2.72.02-1.58c0-.28.1-.52.29-.73l4.15-4.59c2.29-2.53,3.54-5.8,3.54-9.2,0-6.3-5.15-11.42-11.48-11.42h0Z"/>
    </g>
  </g>
</svg>