<?xml version="1.0" encoding="UTF-8"?>
<svg id="Layer_1" xmlns="http://www.w3.org/2000/svg" version="1.1" viewBox="0 0 40 40">
  <!-- Generator: Adobe Illustrator 30.1.0, SVG Export Plug-In . SVG Version: 2.1.1 Build 136)  -->
  <path d="M20,7.73c.4,0,.8.21,1.01.62l2.57,5.1c.44.87,1.26,1.49,2.22,1.67l5.56,1.04c.87.16,1.22,1.22.63,1.87l-4.05,4.44c-.62.69-.92,1.61-.79,2.53l.79,5.99c.09.71-.48,1.28-1.12,1.28-.17,0-.35-.04-.52-.13l-4.86-2.5c-.45-.23-.94-.35-1.44-.35s-.98.12-1.44.35l-4.86,2.5c-.17.09-.35.13-.52.13-.64,0-1.21-.57-1.12-1.28l.79-5.99c.12-.92-.17-1.84-.79-2.53l-4.05-4.44c-.6-.65-.24-1.71.63-1.87l5.56-1.04c.96-.18,1.78-.8,2.22-1.67l2.57-5.1c.21-.41.61-.62,1.01-.62M20,0c-3.36,0-6.39,1.87-7.91,4.87l-1.55,3.07-3.32.62c-3.15.59-5.74,2.85-6.76,5.89-1.02,3.04-.31,6.41,1.85,8.78l2.61,2.87-.51,3.88c-.33,2.53.44,5.08,2.12,6.99,1.68,1.92,4.11,3.02,6.66,3.02,1.4,0,2.8-.34,4.05-.98l2.76-1.42,2.76,1.42c1.25.64,2.65.98,4.05.98,2.55,0,4.98-1.1,6.66-3.02,1.68-1.92,2.45-4.46,2.12-6.99l-.51-3.88,2.61-2.87c2.16-2.37,2.87-5.74,1.85-8.78-1.02-3.04-3.61-5.3-6.76-5.89l-3.32-.62-1.55-3.07c-1.51-3-4.54-4.87-7.91-4.87h0Z"/>
</svg>