<?xml version="1.0" encoding="UTF-8"?>
<svg id="Layer_1" xmlns="http://www.w3.org/2000/svg" version="1.1" viewBox="0 0 40 40">
  <!-- Generator: Adobe Illustrator 30.1.0, SVG Export Plug-In . SVG Version: 2.1.1 Build 136)  -->
  <path d="M20,8.42c.38,0,.75.2.95.59l2.42,4.81c.42.82,1.19,1.41,2.1,1.58l5.24.98c.82.15,1.15,1.15.59,1.77l-3.82,4.19c-.59.65-.86,1.52-.75,2.39l.74,5.65c.09.67-.45,1.21-1.05,1.21-.16,0-.33-.04-.49-.12l-4.58-2.36c-.42-.22-.89-.33-1.35-.33-.46,0-.93.11-1.35.33l-4.58,2.36c-.16.08-.33.12-.49.12-.61,0-1.14-.53-1.05-1.21l.75-5.65c.11-.87-.16-1.74-.75-2.39l-3.82-4.19c-.56-.62-.23-1.61.59-1.77l5.24-.98c.91-.17,1.68-.75,2.1-1.58l2.42-4.81c.2-.39.57-.59.95-.59M20,0C16.4,0,13.15,2,11.53,5.22l-1.21,2.39-2.58.48c-3.38.63-6.16,3.05-7.25,6.31-1.09,3.26-.33,6.87,1.98,9.41l2.11,2.31-.41,3.13c-.36,2.71.47,5.44,2.27,7.5,1.8,2.06,4.41,3.24,7.14,3.24,1.5,0,3-.36,4.34-1.05l2.08-1.07,2.08,1.07c1.34.69,2.84,1.05,4.34,1.05,2.73,0,5.33-1.18,7.14-3.24,1.8-2.05,2.63-4.78,2.27-7.5l-.41-3.13,2.11-2.31c2.32-2.54,3.08-6.15,1.98-9.41-1.09-3.26-3.87-5.68-7.25-6.31l-2.58-.48-1.21-2.39C26.85,2,23.6,0,20,0h0Z"/>
</svg>