<?xml version="1.0" encoding="UTF-8"?>
<svg id="Layer_1" xmlns="http://www.w3.org/2000/svg" version="1.1" viewBox="0 0 40 40">
  <!-- Generator: Adobe Illustrator 30.1.0, SVG Export Plug-In . SVG Version: 2.1.1 Build 136)  -->
  <path d="M20,2.77c.56,0,1.12.29,1.41.87l3.6,7.15c.62,1.23,1.77,2.1,3.12,2.35l7.8,1.46c1.22.23,1.71,1.71.88,2.63l-5.68,6.23c-.88.96-1.28,2.26-1.11,3.55l1.11,8.4c.13,1-.67,1.8-1.57,1.8-.24,0-.49-.06-.72-.18l-6.82-3.51c-.63-.33-1.32-.49-2.01-.49-.69,0-1.38.16-2.01.49l-6.82,3.51c-.24.12-.48.18-.72.18-.9,0-1.7-.79-1.57-1.8l1.11-8.41c.17-1.29-.24-2.59-1.11-3.55l-5.68-6.23c-.84-.92-.34-2.4.88-2.63l7.8-1.46c1.35-.25,2.5-1.12,3.12-2.35l3.6-7.15c.29-.58.85-.87,1.41-.87M20,0C18.34,0,16.85.92,16.11,2.4l-3.6,7.15c-.23.45-.66.78-1.15.87l-7.8,1.46c-1.55.29-2.83,1.4-3.33,2.9-.5,1.5-.15,3.16.91,4.33l5.68,6.23c.33.36.48.84.41,1.32l-1.11,8.41c-.16,1.25.21,2.5,1.04,3.44.83.95,2.03,1.49,3.28,1.49.69,0,1.38-.17,1.99-.49l6.82-3.51c.23-.12.49-.18.74-.18.26,0,.51.06.74.18l6.82,3.51c.62.32,1.31.49,1.99.49,1.25,0,2.45-.54,3.28-1.49.82-.94,1.2-2.2,1.04-3.44l-1.11-8.4c-.06-.48.09-.96.41-1.32l5.68-6.23c1.06-1.17,1.41-2.83.91-4.32-.5-1.5-1.78-2.61-3.33-2.9l-7.8-1.46c-.49-.09-.93-.42-1.15-.87l-3.6-7.15C23.15.92,21.65,0,20,0h0Z"/>
</svg>