<?xml version="1.0" encoding="UTF-8"?>
<svg id="Layer_1" xmlns="http://www.w3.org/2000/svg" version="1.1" viewBox="0 0 101 101">
  <!-- Generator: Adobe Illustrator 30.1.0, SVG Export Plug-In . SVG Version: 2.1.1 Build 136)  -->
  <path d="M50.5,21.27c.95,0,1.9.49,2.4,1.48l6.11,12.14c1.05,2.08,3.01,3.56,5.3,3.99l13.23,2.48c2.07.39,2.91,2.9,1.49,4.46l-9.64,10.58c-1.49,1.63-2.18,3.84-1.89,6.03l1.88,14.26c.22,1.7-1.13,3.05-2.66,3.05-.41,0-.82-.09-1.23-.3l-11.57-5.96c-1.07-.55-2.25-.83-3.42-.83s-2.35.28-3.42.83l-11.57,5.96c-.4.21-.82.3-1.23.3-1.53,0-2.89-1.35-2.66-3.05l1.88-14.26c.29-2.19-.4-4.39-1.89-6.02l-9.64-10.58c-1.42-1.56-.58-4.07,1.49-4.46l13.23-2.48c2.29-.43,4.24-1.9,5.29-3.98l6.12-12.14c.5-.99,1.45-1.48,2.4-1.48M50.5,0C41.4,0,33.2,5.05,29.1,13.18l-3.04,6.04-6.51,1.22c-8.53,1.6-15.55,7.71-18.3,15.94-2.76,8.24-.84,17.34,5.01,23.76l5.32,5.84-1.04,7.91c-.9,6.84,1.19,13.74,5.73,18.93,4.56,5.2,11.12,8.18,18.02,8.18,3.79,0,7.58-.92,10.97-2.66l5.25-2.7,5.25,2.7c3.38,1.74,7.18,2.66,10.97,2.66,6.9,0,13.46-2.98,18.02-8.18,4.54-5.18,6.63-12.08,5.73-18.93l-1.04-7.91,5.32-5.84c5.85-6.42,7.77-15.52,5.01-23.76-2.76-8.23-9.77-14.34-18.3-15.94l-6.51-1.22-3.04-6.04C67.8,5.05,59.6,0,50.5,0h0Z"/>
</svg>