<?xml version="1.0" encoding="UTF-8"?>
<svg id="Layer_1" xmlns="http://www.w3.org/2000/svg" version="1.1" viewBox="0 0 101 101">
  <!-- Generator: Adobe Illustrator 30.1.0, SVG Export Plug-In . SVG Version: 2.1.1 Build 136)  -->
  <path d="M50.5,15.94c1.12,0,2.25.58,2.83,1.75l7.23,14.35c1.24,2.46,3.56,4.21,6.26,4.71l15.64,2.93c2.45.46,3.44,3.43,1.76,5.27l-11.4,12.51c-1.76,1.93-2.58,4.54-2.23,7.13l2.22,16.86c.27,2.01-1.34,3.6-3.15,3.6-.48,0-.97-.11-1.45-.36l-13.68-7.05c-1.27-.65-2.65-.98-4.04-.98s-2.77.33-4.04.98l-13.68,7.05c-.48.25-.97.36-1.45.36-1.81,0-3.41-1.59-3.15-3.61l2.22-16.87c.34-2.59-.48-5.19-2.23-7.12l-11.4-12.51c-1.68-1.84-.69-4.82,1.76-5.28l15.64-2.93c2.7-.51,5.02-2.25,6.26-4.71l7.23-14.35c.59-1.17,1.71-1.75,2.83-1.75M50.5,0C43.24,0,36.7,4.03,33.43,10.52l-5.65,11.22-12.18,2.28c-6.81,1.28-12.4,6.15-14.6,12.72-2.2,6.57-.67,13.84,4,18.96l9.18,10.07-1.79,13.61c-.72,5.46.94,10.97,4.57,15.1,3.64,4.15,8.88,6.53,14.38,6.53,3.02,0,6.05-.74,8.75-2.13l10.43-5.37,10.43,5.37c2.7,1.39,5.73,2.13,8.75,2.13,5.5,0,10.74-2.38,14.38-6.53,3.62-4.13,5.29-9.64,4.57-15.1l-1.79-13.6,9.18-10.07c4.67-5.12,6.2-12.39,4-18.96-2.2-6.57-7.8-11.44-14.6-12.72l-12.18-2.28-5.65-11.22C64.3,4.03,57.76,0,50.5,0h0Z"/>
</svg>