<?xml version="1.0" encoding="UTF-8"?>
<svg id="Layer_1" xmlns="http://www.w3.org/2000/svg" version="1.1" viewBox="0 0 101 101">
  <!-- Generator: Adobe Illustrator 30.1.0, SVG Export Plug-In . SVG Version: 2.1.1 Build 136)  -->
  <path d="M50.5,12.34c1.24,0,2.48.64,3.13,1.93l7.98,15.85c1.37,2.72,3.93,4.64,6.91,5.2l17.27,3.24c2.7.51,3.8,3.79,1.94,5.82l-12.58,13.81c-1.94,2.13-2.84,5.01-2.47,7.87l2.46,18.62c.29,2.22-1.48,3.98-3.47,3.98-.53,0-1.07-.12-1.6-.4l-15.11-7.78c-1.4-.72-2.93-1.08-4.46-1.08s-3.06.36-4.46,1.08l-15.11,7.78c-.53.27-1.07.4-1.6.4-2,0-3.77-1.76-3.47-3.98l2.46-18.62c.38-2.86-.53-5.74-2.46-7.86l-12.58-13.81c-1.85-2.03-.76-5.32,1.94-5.83l17.27-3.24c2.99-.56,5.54-2.48,6.91-5.2l7.98-15.85c.65-1.29,1.89-1.93,3.13-1.93M50.5,0C44.48,0,39.06,3.34,36.35,8.72l-7.41,14.71-16.01,3c-5.64,1.06-10.28,5.1-12.11,10.55-1.83,5.45-.56,11.47,3.32,15.72l11.78,12.93-2.3,17.44c-.6,4.53.78,9.09,3.79,12.52,3.02,3.44,7.36,5.42,11.92,5.42,2.5,0,5.01-.61,7.25-1.76l13.92-7.17,13.92,7.17c2.24,1.15,4.75,1.76,7.25,1.76,4.56,0,8.91-1.97,11.92-5.42,3-3.43,4.38-7.99,3.79-12.52l-2.3-17.44,11.78-12.93c3.87-4.25,5.14-10.27,3.31-15.72-1.82-5.45-6.46-9.49-12.11-10.54l-16.01-3-7.41-14.71C61.94,3.34,56.52,0,50.5,0h0Z"/>
</svg>