<?xml version="1.0" encoding="UTF-8"?>
<svg id="Layer_1" xmlns="http://www.w3.org/2000/svg" version="1.1" viewBox="0 0 101 101">
  <!-- Generator: Adobe Illustrator 30.1.0, SVG Export Plug-In . SVG Version: 2.1.1 Build 136)  -->
  <path d="M50.5,8.77c1.36,0,2.71.7,3.42,2.11l8.73,17.33c1.5,2.97,4.29,5.08,7.56,5.69l18.88,3.54c2.95.55,4.15,4.14,2.12,6.37l-13.76,15.1c-2.12,2.33-3.11,5.48-2.7,8.61l2.69,20.36c.32,2.43-1.62,4.35-3.8,4.35-.58,0-1.18-.14-1.75-.43l-16.52-8.51c-1.53-.79-3.21-1.18-4.88-1.18-1.67,0-3.35.39-4.88,1.18l-16.52,8.51c-.58.3-1.17.43-1.75.43-2.18,0-4.12-1.92-3.8-4.35l2.69-20.36c.41-3.12-.57-6.27-2.69-8.6l-13.76-15.1c-2.03-2.22-.83-5.82,2.13-6.37l18.88-3.54c3.26-.61,6.06-2.71,7.56-5.69l8.73-17.33c.71-1.41,2.07-2.11,3.42-2.11M50.5,0c-4.79,0-9.1,2.66-11.26,6.94l-8.73,17.33c-.26.52-.76.9-1.34,1.01l-18.88,3.54c-4.49.84-8.18,4.06-9.63,8.39-1.45,4.34-.44,9.13,2.64,12.51l13.76,15.1c.38.42.56.98.48,1.54l-2.69,20.36c-.48,3.61.62,7.24,3.01,9.96,2.4,2.74,5.86,4.31,9.49,4.31,1.99,0,3.98-.49,5.77-1.41l16.52-8.51c.27-.14.56-.21.86-.21.3,0,.6.07.86.21l16.52,8.51c1.79.92,3.78,1.41,5.77,1.41,3.63,0,7.09-1.57,9.49-4.31,2.39-2.72,3.48-6.35,3.01-9.96l-2.69-20.36c-.07-.57.1-1.13.48-1.55l13.76-15.1c3.08-3.38,4.09-8.17,2.64-12.51-1.45-4.33-5.14-7.55-9.63-8.39l-18.88-3.54c-.57-.11-1.07-.49-1.34-1.01l-8.73-17.33c-2.16-4.28-6.47-6.94-11.26-6.94h0Z"/>
</svg>