<?xml version="1.0" encoding="UTF-8"?>
<svg id="Layer_1" xmlns="http://www.w3.org/2000/svg" version="1.1" viewBox="0 0 49 49">
  <!-- Generator: Adobe Illustrator 30.1.0, SVG Export Plug-In . SVG Version: 2.1.1 Build 136)  -->
  <path d="M24.5,3.4c.69,0,1.37.36,1.73,1.07l4.41,8.76c.76,1.5,2.17,2.57,3.82,2.88l9.55,1.79c1.49.28,2.1,2.09,1.07,3.22l-6.96,7.64c-1.07,1.18-1.57,2.77-1.36,4.35l1.36,10.3c.16,1.23-.82,2.2-1.92,2.2-.29,0-.59-.07-.89-.22l-8.35-4.3c-.77-.4-1.62-.6-2.47-.6s-1.69.2-2.47.6l-8.35,4.3c-.29.15-.59.22-.89.22-1.1,0-2.08-.97-1.92-2.2l1.36-10.3c.21-1.58-.29-3.17-1.36-4.35l-6.96-7.64c-1.03-1.12-.42-2.94,1.08-3.22l9.55-1.79c1.65-.31,3.06-1.37,3.82-2.88l4.42-8.76c.36-.71,1.04-1.07,1.73-1.07M24.5,0C22.47,0,20.65,1.13,19.73,2.94l-4.42,8.76c-.28.55-.81.95-1.41,1.06l-9.55,1.79c-1.9.36-3.46,1.72-4.08,3.55-.62,1.84-.19,3.87,1.12,5.3l6.96,7.64c.4.44.58,1.03.51,1.61l-1.36,10.3c-.2,1.53.26,3.06,1.27,4.22,1.02,1.16,2.48,1.83,4.02,1.83.84,0,1.69-.21,2.44-.6l8.35-4.3c.28-.14.6-.22.91-.22s.63.08.91.22l8.35,4.3c.76.39,1.6.6,2.44.6h0c1.53,0,3-.67,4.02-1.83,1.01-1.15,1.47-2.69,1.27-4.22l-1.36-10.3c-.08-.59.11-1.18.51-1.62l6.96-7.64c1.3-1.43,1.73-3.46,1.12-5.3-.61-1.83-2.18-3.2-4.08-3.55l-9.55-1.79c-.61-.11-1.13-.51-1.41-1.07l-4.41-8.76C28.35,1.13,26.53,0,24.5,0h0Z"/>
</svg>