<?xml version="1.0" encoding="UTF-8"?>
<svg id="Layer_1" xmlns="http://www.w3.org/2000/svg" version="1.1" viewBox="0 0 99 99">
  <!-- Generator: Adobe Illustrator 30.1.0, SVG Export Plug-In . SVG Version: 2.1.1 Build 136)  -->
  <g>
    <g>
      <rect x="46.01" y="25.69" width="6.97" height="6.97"/>
      <path d="M52.37,26.31v5.73h-5.73v-5.73h5.73M53.6,25.07h-8.21v8.21h8.21v-8.21h0Z"/>
    </g>
    <g>
      <polygon points="40.28 73.16 40.28 66.19 46.01 66.19 46.01 49.52 40.28 49.52 40.28 42.55 52.99 42.55 52.99 66.19 58.72 66.19 58.72 73.16 40.28 73.16"/>
      <path d="M52.37,43.17v23.64h5.73v5.73h-17.2v-5.73h5.73v-17.9h-5.73v-5.73h11.47M53.6,41.93h-13.94v8.21h5.73v15.43h-5.73v8.21h19.68v-8.21h-5.73v-23.64h0Z"/>
    </g>
  </g>
  <circle id="Outer" cx="49.5" cy="49.5" r="45.2" fill="none" stroke="#000" stroke-width="8.6"/>
</svg>