<?xml version="1.0" encoding="UTF-8"?>
<svg id="Layer_1" xmlns="http://www.w3.org/2000/svg" version="1.1" viewBox="0 0 76 76">
  <!-- Generator: Adobe Illustrator 30.1.0, SVG Export Plug-In . SVG Version: 2.1.1 Build 136)  -->
  <path d="M38,11.99c.85,0,1.69.44,2.13,1.32l5.44,10.8c.93,1.85,2.68,3.16,4.71,3.55l11.77,2.21c1.84.34,2.59,2.58,1.32,3.97l-8.58,9.41c-1.32,1.45-1.94,3.42-1.68,5.37l1.67,12.69c.2,1.51-1.01,2.71-2.37,2.71-.36,0-.73-.08-1.09-.27l-10.3-5.3c-.95-.49-2-.74-3.04-.74-1.04,0-2.09.25-3.04.74l-10.3,5.3c-.36.18-.73.27-1.09.27-1.36,0-2.57-1.2-2.37-2.71l1.67-12.69c.26-1.95-.36-3.91-1.68-5.36l-8.58-9.41c-1.26-1.39-.52-3.62,1.33-3.97l11.77-2.21c2.03-.38,3.78-1.69,4.71-3.54l5.44-10.8c.44-.88,1.29-1.32,2.13-1.32M38,0c-5.46,0-10.39,3.03-12.84,7.91l-4.25,8.44-9.17,1.72c-5.12.96-9.33,4.63-10.99,9.57-1.66,4.95-.5,10.41,3.01,14.27l6.91,7.58-1.35,10.24c-.54,4.11.71,8.25,3.44,11.36,2.74,3.12,6.68,4.91,10.82,4.91,2.27,0,4.55-.55,6.58-1.6l7.84-4.04,7.85,4.04c2.03,1.05,4.31,1.6,6.58,1.6,4.14,0,8.08-1.79,10.82-4.91,2.73-3.11,3.98-7.25,3.44-11.36l-1.35-10.24,6.91-7.58c3.51-3.85,4.66-9.32,3.01-14.26-1.66-4.94-5.87-8.61-10.99-9.57l-9.17-1.72-4.25-8.44c-2.46-4.88-7.38-7.91-12.84-7.91h0Z"/>
</svg>