<?xml version="1.0" encoding="UTF-8"?>
<svg id="Layer_1" xmlns="http://www.w3.org/2000/svg" version="1.1" viewBox="0 0 21 21">
  <!-- Generator: Adobe Illustrator 30.1.0, SVG Export Plug-In . SVG Version: 2.1.1 Build 136)  -->
  <g>
    <g>
      <rect x="9.77" y="5.32" width="1.47" height="1.47"/>
      <path d="M11.14,5.42v1.27h-1.27v-1.27h1.27M11.33,5.22h-1.66v1.66h1.66v-1.66h0Z"/>
    </g>
    <g>
      <polygon points="8.49 15.68 8.49 14.21 9.77 14.21 9.77 10.44 8.49 10.44 8.49 8.98 11.23 8.98 11.23 14.21 12.5 14.21 12.5 15.68 8.49 15.68"/>
      <path d="M11.14,9.07v5.24h1.27v1.27h-3.81v-1.27h1.27v-3.97h-1.27v-1.27h2.54M11.33,8.88h-2.94v1.66h1.27v3.57h-1.27v1.66h4.21v-1.66h-1.27v-5.24h0Z"/>
    </g>
  </g>
  <circle id="Outer" cx="10.5" cy="10.5" r="9.77" fill="none" stroke="#000" stroke-width="1.46"/>
</svg>