<?xml version="1.0" encoding="UTF-8"?>
<svg id="Layer_1" xmlns="http://www.w3.org/2000/svg" version="1.1" viewBox="0 0 21 21">
  <!-- Generator: Adobe Illustrator 30.1.0, SVG Export Plug-In . SVG Version: 2.1.1 Build 136)  -->
  <g>
    <g>
      <rect x="9.73" y="6.25" width="1.55" height="1.55"/>
      <path d="M10.95,6.58v.89h-.89v-.89h.89M11.6,5.92h-2.21v2.21h2.21v-2.21h0Z"/>
    </g>
    <g>
      <polygon points="8.83 14.54 8.83 12.99 9.73 12.99 9.73 10.86 8.83 10.86 8.83 9.31 11.28 9.31 11.28 12.99 12.17 12.99 12.17 14.54 8.83 14.54"/>
      <path d="M10.95,9.64v3.68h.89v.89h-2.68v-.89h.89v-2.79h-.89v-.89h1.79M11.6,8.98h-3.1v2.21h.89v1.48h-.89v2.21h3.99v-2.21h-.89v-3.68h0Z"/>
    </g>
  </g>
  <circle id="Outer" cx="10.5" cy="10.5" r="8.47" fill="none" stroke="#000" stroke-width="4.06"/>
</svg>