<?xml version="1.0" encoding="UTF-8"?>
<svg id="Layer_1" xmlns="http://www.w3.org/2000/svg" version="1.1" viewBox="0 0 21 21">
  <!-- Generator: Adobe Illustrator 30.1.0, SVG Export Plug-In . SVG Version: 2.1.1 Build 136)  -->
  <g>
    <g>
      <rect x="9.74" y="5.99" width="1.52" height="1.52"/>
      <path d="M11,6.25v1h-1v-1h1M11.52,5.72h-2.05v2.05h2.05v-2.05h0Z"/>
    </g>
    <g>
      <polygon points="8.74 14.86 8.74 13.34 9.74 13.34 9.74 10.75 8.74 10.75 8.74 9.22 11.26 9.22 11.26 13.34 12.26 13.34 12.26 14.86 8.74 14.86"/>
      <path d="M11,9.48v4.12h1v1h-3v-1h1v-3.12h-1v-1h2M11.52,8.96h-3.05v2.05h1v2.07h-1v2.05h4.05v-2.05h-1v-4.12h0Z"/>
    </g>
  </g>
  <circle id="Outer" cx="10.5" cy="10.5" r="8.84" fill="none" stroke="#000" stroke-width="3.31"/>
</svg>