<?xml version="1.0" encoding="UTF-8"?>
<svg id="Layer_1" xmlns="http://www.w3.org/2000/svg" version="1.1" viewBox="0 0 21 21">
  <!-- Generator: Adobe Illustrator 30.1.0, SVG Export Plug-In . SVG Version: 2.1.1 Build 136)  -->
  <g>
    <g>
      <rect x="9.76" y="5.45" width="1.48" height="1.48"/>
      <path d="M11.11,5.58v1.22h-1.22v-1.22h1.22M11.37,5.32h-1.74v1.74h1.74v-1.74h0Z"/>
    </g>
    <g>
      <polygon points="8.54 15.52 8.54 14.04 9.76 14.04 9.76 10.5 8.54 10.5 8.54 9.03 11.24 9.03 11.24 14.04 12.46 14.04 12.46 15.52 8.54 15.52"/>
      <path d="M11.11,9.16v5.01h1.22v1.22h-3.65v-1.22h1.22v-3.8h-1.22v-1.22h2.43M11.37,8.89h-2.96v1.74h1.22v3.27h-1.22v1.74h4.17v-1.74h-1.22v-5.01h0Z"/>
    </g>
  </g>
  <circle id="Outer" cx="10.5" cy="10.5" r="9.59" fill="none" stroke="#000" stroke-width="1.82"/>
</svg>