<?xml version="1.0" encoding="UTF-8"?>
<svg id="Layer_1" xmlns="http://www.w3.org/2000/svg" version="1.1" viewBox="0 0 128 128">
  <!-- Generator: Adobe Illustrator 30.1.0, SVG Export Plug-In . SVG Version: 2.1.1 Build 136)  -->
  <path d="M64,15.64c1.57,0,3.14.82,3.97,2.45l10.12,20.08c1.74,3.45,4.98,5.88,8.76,6.59l21.89,4.1c3.42.64,4.81,4.8,2.46,7.38l-15.95,17.5c-2.46,2.7-3.6,6.35-3.13,9.98l3.11,23.6c.37,2.81-1.87,5.04-4.4,5.04-.67,0-1.36-.16-2.03-.5l-19.14-9.86c-1.77-.91-3.72-1.37-5.66-1.37-1.94,0-3.88.46-5.66,1.37l-19.14,9.86c-.67.34-1.36.5-2.03.5-2.53,0-4.77-2.23-4.4-5.04l3.11-23.6c.48-3.62-.67-7.27-3.12-9.96l-15.95-17.5c-2.35-2.58-.96-6.74,2.46-7.38l21.89-4.1c3.78-.71,7.02-3.15,8.76-6.59l10.12-20.09c.82-1.63,2.39-2.45,3.97-2.45M64,0C56.37,0,49.5,4.23,46.06,11.05l-9.39,18.64-20.28,3.8c-7.15,1.34-13.03,6.46-15.34,13.36-2.31,6.91-.7,14.54,4.2,19.92l14.93,16.38-2.92,22.11c-.76,5.74.99,11.52,4.8,15.86,3.82,4.36,9.33,6.86,15.11,6.86,3.17,0,6.35-.77,9.19-2.24l17.64-9.08,17.64,9.08c2.84,1.46,6.02,2.24,9.19,2.24,5.78,0,11.29-2.5,15.11-6.86,3.81-4.34,5.55-10.12,4.8-15.86l-2.92-22.11,14.93-16.39c4.9-5.38,6.51-13.02,4.2-19.92-2.31-6.9-8.19-12.02-15.34-13.36l-20.29-3.8-9.39-18.64C78.5,4.23,71.63,0,64,0h0Z"/>
</svg>