<?xml version="1.0" encoding="UTF-8"?>
<svg id="Layer_1" xmlns="http://www.w3.org/2000/svg" version="1.1" viewBox="0 0 128 128">
  <!-- Generator: Adobe Illustrator 30.1.0, SVG Export Plug-In . SVG Version: 2.1.1 Build 136)  -->
  <path d="M64,11.12c1.72,0,3.44.89,4.34,2.67l11.06,21.96c1.9,3.77,5.44,6.43,9.58,7.21l23.93,4.49c3.74.7,5.26,5.25,2.69,8.07l-17.44,19.14c-2.69,2.95-3.94,6.95-3.42,10.91l3.4,25.8c.41,3.08-2.05,5.52-4.81,5.52-.73,0-1.49-.17-2.22-.55l-20.93-10.78c-1.94-1-4.06-1.5-6.18-1.5-2.12,0-4.24.5-6.18,1.5l-20.93,10.78c-.73.38-1.49.55-2.22.55-2.77,0-5.22-2.44-4.81-5.52l3.4-25.81c.52-3.96-.73-7.95-3.41-10.9l-17.44-19.14c-2.57-2.82-1.05-7.37,2.69-8.07l23.93-4.49c4.14-.78,7.68-3.44,9.58-7.21l11.06-21.96c.9-1.78,2.62-2.67,4.34-2.67M64,0C57.93,0,52.46,3.37,49.73,8.79l-11.06,21.96c-.34.67-.97,1.14-1.69,1.28l-23.93,4.49c-5.69,1.07-10.37,5.14-12.21,10.63-1.84,5.5-.56,11.57,3.34,15.86l17.44,19.14c.48.53.7,1.24.61,1.95l-3.4,25.81c-.6,4.57.79,9.17,3.81,12.62,3.05,3.47,7.43,5.47,12.03,5.47,2.52,0,5.05-.62,7.31-1.78l20.93-10.78c.34-.18.71-.27,1.09-.27.38,0,.76.09,1.09.27l20.93,10.78c2.26,1.17,4.79,1.78,7.31,1.78,4.6,0,8.98-1.99,12.03-5.47,3.03-3.45,4.42-8.05,3.81-12.62l-3.4-25.8c-.09-.72.13-1.43.61-1.97l17.44-19.14c3.9-4.28,5.18-10.36,3.34-15.85-1.84-5.49-6.52-9.57-12.21-10.63l-23.93-4.49c-.73-.14-1.36-.62-1.7-1.28l-11.06-21.96C75.53,3.37,70.07,0,64,0h0Z"/>
</svg>