<?xml version="1.0" encoding="UTF-8"?>
<svg id="Layer_1" xmlns="http://www.w3.org/2000/svg" version="1.1" viewBox="0 0 128 128">
  <!-- Generator: Adobe Illustrator 30.1.0, SVG Export Plug-In . SVG Version: 2.1.1 Build 136)  -->
  <path d="M64,24.72c1.28,0,2.55.66,3.22,1.99l8.22,16.31c1.41,2.8,4.04,4.78,7.12,5.36l17.78,3.33c2.78.52,3.91,3.9,2,5.99l-12.95,14.21c-2,2.19-2.93,5.16-2.54,8.1l2.53,19.17c.3,2.29-1.52,4.1-3.58,4.1-.55,0-1.11-.13-1.65-.41l-15.55-8.01c-1.44-.74-3.02-1.11-4.59-1.11-1.58,0-3.15.37-4.59,1.11l-15.55,8.01c-.54.28-1.1.41-1.65.41-2.06,0-3.88-1.81-3.58-4.1l2.53-19.17c.39-2.94-.54-5.9-2.54-8.09l-12.95-14.21c-1.91-2.09-.78-5.47,2-6l17.78-3.33c3.07-.58,5.7-2.56,7.11-5.35l8.22-16.31c.67-1.32,1.94-1.99,3.22-1.99M64,0C53.24,0,43.54,5.97,38.7,15.58l-4.95,9.83-10.63,1.99c-10.09,1.89-18.38,9.11-21.64,18.85-3.26,9.74-.99,20.5,5.93,28.09l8.36,9.18-1.64,12.42c-1.07,8.09,1.4,16.25,6.77,22.38,5.39,6.15,13.16,9.67,21.31,9.67,4.48,0,8.97-1.09,12.97-3.15l8.82-4.54,8.83,4.55c4,2.06,8.49,3.15,12.97,3.15,8.15,0,15.92-3.52,21.31-9.67,5.37-6.13,7.84-14.29,6.77-22.38l-1.64-12.42,8.37-9.18c6.92-7.59,9.19-18.35,5.92-28.09-3.26-9.73-11.55-16.96-21.64-18.85l-10.64-1.99-4.95-9.83C84.45,5.97,74.76,0,64,0h0Z"/>
</svg>