<?xml version="1.0" encoding="UTF-8"?>
<svg id="Layer_1" xmlns="http://www.w3.org/2000/svg" version="1.1" viewBox="0 0 20 20">
  <!-- Generator: Adobe Illustrator 30.1.0, SVG Export Plug-In . SVG Version: 2.1.1 Build 136)  -->
  <circle id="Outer" cx="10" cy="10" r="8.78" fill="none" stroke="#000" stroke-width="2.44"/>
  <g>
    <g>
      <rect x="9.37" y="13.04" width="1.25" height="1.25"/>
      <path d="M10.43,13.22v.88h-.88v-.88h.88M10.81,12.85h-1.63v1.63h1.63v-1.63h0Z"/>
    </g>
    <g>
      <path d="M9.37,11.7v-.52c0-.46.17-.91.48-1.25l.87-.96c.21-.23.32-.53.32-.83,0-.42-.34-.75-.76-.75h-.56c-.42,0-.76.34-.76.75v.19h-1.26v-.19c0-1.11.91-2.01,2.02-2.01h.56c1.12,0,2.02.9,2.02,2.01,0,.62-.23,1.21-.64,1.67l-.87.96c-.11.12-.16.26-.16.41v.52h-1.26Z"/>
      <path d="M10.28,6.31c1.01,0,1.84.82,1.84,1.82,0,.57-.21,1.12-.6,1.55l-.87.96c-.13.15-.21.33-.21.54v.33h-.88v-.33c0-.42.15-.81.43-1.12l.87-.96c.24-.26.37-.6.37-.96,0-.52-.43-.94-.95-.94h-.56c-.52,0-.95.42-.95.94h-.89c0-1,.82-1.82,1.84-1.82h.56M10.28,5.93h-.56c-1.22,0-2.21.99-2.21,2.2v.38h1.64v-.38c0-.31.26-.57.57-.57h.56c.32,0,.57.25.57.57,0,.26-.1.51-.27.71l-.87.96c-.34.38-.53.87-.53,1.37v.34s0,.37,0,.37h1.62v-.37s0-.33,0-.33c0-.11.04-.2.11-.29l.87-.97c.45-.49.69-1.13.69-1.8,0-1.21-.99-2.2-2.21-2.2h0Z"/>
    </g>
  </g>
</svg>