<?xml version="1.0" encoding="UTF-8"?>
<svg id="Layer_1" xmlns="http://www.w3.org/2000/svg" version="1.1" viewBox="0 0 20 20">
  <!-- Generator: Adobe Illustrator 30.1.0, SVG Export Plug-In . SVG Version: 2.1.1 Build 136)  -->
  <circle id="Outer" cx="10" cy="10" r="8.42" fill="none" stroke="#000" stroke-width="3.16"/>
  <g>
    <g>
      <rect x="9.36" y="12.76" width="1.26" height="1.26"/>
      <path d="M10.37,13.01v.76h-.76v-.76h.76M10.87,12.51h-1.76v1.76h1.76v-1.76h0Z"/>
    </g>
    <g>
      <path d="M9.37,11.49v-.54c0-.42.15-.83.44-1.14l.75-.83c.16-.18.25-.42.25-.66,0-.31-.26-.57-.57-.57h-.48c-.31,0-.57.25-.57.57v.25h-1.27v-.25c0-1.01.82-1.83,1.84-1.83h.48c1.01,0,1.84.82,1.84,1.83,0,.56-.21,1.09-.58,1.51l-.75.83c-.08.08-.12.19-.12.3v.54h-1.26Z"/>
      <path d="M10.24,6.74c.88,0,1.59.71,1.59,1.58,0,.49-.18.97-.52,1.34l-.75.83c-.12.13-.18.29-.18.46v.29h-.76v-.29c0-.36.13-.7.37-.97l.75-.83c.21-.23.32-.52.32-.83,0-.45-.37-.82-.82-.82h-.48c-.45,0-.82.37-.82.82h-.77c0-.87.71-1.58,1.59-1.58h.48M10.24,6.24h-.48c-1.15,0-2.09.93-2.09,2.08v.5h1.77v-.5c0-.17.14-.32.32-.32h.48c.18,0,.32.14.32.32,0,.18-.07.36-.19.49l-.75.83c-.32.36-.5.82-.51,1.31v.29s0,.5,0,.5h1.75v-.49s0-.29,0-.29c0-.05.02-.09.05-.13l.75-.84c.42-.46.64-1.05.64-1.67,0-1.15-.94-2.08-2.09-2.08h0Z"/>
    </g>
  </g>
</svg>