<?xml version="1.0" encoding="UTF-8"?>
<svg id="Layer_1" xmlns="http://www.w3.org/2000/svg" version="1.1" viewBox="0 0 20 20">
  <!-- Generator: Adobe Illustrator 30.1.0, SVG Export Plug-In . SVG Version: 2.1.1 Build 136)  -->
  <circle id="Outer" cx="10" cy="10" r="9.31" fill="none" stroke="#000" stroke-width="1.39"/>
  <g>
    <g>
      <rect x="9.37" y="13.43" width="1.25" height="1.25"/>
      <path d="M10.53,13.53v1.06h-1.06v-1.06h1.06M10.71,13.34h-1.44v1.44h1.44v-1.44h0Z"/>
    </g>
    <g>
      <path d="M9.37,12.04v-.5c0-.53.19-1.03.55-1.42l1.05-1.17c.27-.3.42-.69.42-1.1,0-.58-.47-1.05-1.06-1.05h-.68c-.58,0-1.06.47-1.06,1.05v.09h-1.26v-.09c0-1.27,1.04-2.3,2.32-2.3h.68c1.28,0,2.32,1.03,2.32,2.3,0,.72-.26,1.4-.75,1.94l-1.05,1.17c-.15.17-.23.37-.23.58v.5h-1.26Z"/>
      <path d="M10.34,5.64c1.23,0,2.22.99,2.22,2.21,0,.69-.26,1.36-.72,1.87l-1.05,1.17c-.16.18-.25.41-.25.65v.4h-1.07v-.4c0-.5.18-.99.52-1.36l1.05-1.17c.29-.32.45-.73.45-1.16,0-.63-.52-1.14-1.15-1.14h-.68c-.63,0-1.15.51-1.15,1.14h-1.07c0-1.22,1-2.21,2.22-2.21h.68M10.34,5.45h-.68c-1.33,0-2.41,1.07-2.41,2.4v.19h1.45v-.19c0-.53.43-.95.96-.95h.68c.53,0,.96.43.96.95,0,.38-.14.75-.4,1.04l-1.05,1.17c-.37.41-.57.94-.58,1.49v.4s0,.19,0,.19h1.44v-.19s0-.4,0-.4c0-.2.07-.38.21-.52l1.05-1.17c.5-.55.77-1.26.77-2,0-1.32-1.08-2.4-2.41-2.4h0Z"/>
    </g>
  </g>
</svg>