<?xml version="1.0" encoding="UTF-8"?>
<svg id="Layer_1" xmlns="http://www.w3.org/2000/svg" version="1.1" viewBox="0 0 20 20">
  <!-- Generator: Adobe Illustrator 30.1.0, SVG Export Plug-In . SVG Version: 2.1.1 Build 136)  -->
  <circle id="Outer" cx="10" cy="10" r="7.89" fill="none" stroke="#000" stroke-width="4.21"/>
  <g>
    <g>
      <rect x="9.35" y="12.36" width="1.28" height="1.28"/>
      <path d="M10.29,12.7v.6h-.6v-.6h.6M10.98,12.01h-1.97v1.97h1.97v-1.97h0Z"/>
    </g>
    <g>
      <path d="M9.36,11.22v-.57c0-.37.13-.72.38-1l.59-.65c.1-.12.16-.26.16-.42,0-.16-.13-.3-.3-.3h-.38c-.17,0-.3.13-.3.3v.34h-1.29v-.34c0-.87.71-1.58,1.59-1.58h.38c.88,0,1.59.71,1.59,1.58,0,.47-.17.93-.49,1.28l-.59.65s-.05.08-.05.13v.57h-1.28Z"/>
      <path d="M10.19,7.34c.69,0,1.25.55,1.25,1.24,0,.39-.14.76-.4,1.05l-.59.65c-.09.1-.14.23-.14.36v.23h-.6v-.23c0-.28.1-.55.29-.76l.59-.65c.16-.18.25-.41.25-.65,0-.35-.29-.64-.64-.64h-.38c-.35,0-.64.29-.64.64h-.6c0-.68.56-1.24,1.25-1.24h.38M10.19,6.66h-.38c-1.07,0-1.93.86-1.93,1.92v.69h1.75l-.14.16c-.3.33-.47.77-.47,1.22v.23s0,.68,0,.68h1.96v-.68s0-.17,0-.17l.56-.62c.37-.42.58-.95.58-1.51,0-1.06-.87-1.92-1.93-1.92h0ZM9.85,8.63h.29c0,.05-.03.1-.07.14l-.22.24v-.38h0Z"/>
    </g>
  </g>
</svg>