<?xml version="1.0" encoding="UTF-8"?>
<svg id="Layer_1" xmlns="http://www.w3.org/2000/svg" version="1.1" viewBox="0 0 20 20">
  <!-- Generator: Adobe Illustrator 30.1.0, SVG Export Plug-In . SVG Version: 2.1.1 Build 136)  -->
  <circle id="Outer" cx="10" cy="10" r="9.13" fill="none" stroke="#000" stroke-width="1.74"/>
  <g>
    <g>
      <rect x="9.37" y="13.3" width="1.25" height="1.25"/>
      <path d="M10.49,13.43v1h-1v-1h1M10.74,13.18h-1.5v1.5h1.5v-1.5h0Z"/>
    </g>
    <g>
      <path d="M9.37,11.92v-.5c0-.51.19-.99.52-1.37l.99-1.1c.25-.28.39-.64.39-1.01,0-.52-.43-.95-.96-.95h-.64c-.53,0-.96.43-.96.95v.12h-1.26v-.12c0-1.21.99-2.2,2.22-2.2h.64c1.22,0,2.22.99,2.22,2.2,0,.68-.25,1.34-.71,1.85l-.99,1.1c-.14.15-.21.33-.21.53v.5h-1.25Z"/>
      <path d="M10.32,5.87c1.15,0,2.09.93,2.09,2.08,0,.65-.24,1.28-.68,1.76l-.99,1.1c-.15.17-.24.38-.24.61v.38h-1.01v-.38c0-.47.17-.93.49-1.28l.99-1.1c.27-.3.42-.69.42-1.09,0-.59-.49-1.07-1.08-1.07h-.64c-.6,0-1.08.48-1.08,1.07h-1.01c0-1.15.94-2.08,2.09-2.08h.64M10.32,5.62h-.64c-1.29,0-2.34,1.04-2.34,2.33v.25h1.51v-.25c0-.45.37-.82.83-.82h.64c.46,0,.83.37.83.82,0,.34-.13.67-.36.93l-.99,1.1c-.36.4-.56.91-.56,1.45v.38s0,.25,0,.25h1.5v-.25s0-.38,0-.38c0-.17.06-.32.18-.45l.99-1.1c.48-.53.74-1.22.74-1.93,0-1.28-1.05-2.33-2.34-2.33h0Z"/>
    </g>
  </g>
</svg>