<?xml version="1.0" encoding="UTF-8"?>
<svg id="Layer_1" xmlns="http://www.w3.org/2000/svg" version="1.1" viewBox="0 0 20 20">
  <!-- Generator: Adobe Illustrator 30.1.0, SVG Export Plug-In . SVG Version: 2.1.1 Build 136)  -->
  <circle id="Outer" cx="10" cy="10" r="8.07" fill="none" stroke="#000" stroke-width="3.86"/>
  <g>
    <g>
      <rect x="9.36" y="12.49" width="1.27" height="1.27"/>
      <path d="M10.32,12.81v.65h-.65v-.65h.65M10.94,12.18h-1.9v1.9h1.9v-1.9h0Z"/>
    </g>
    <g>
      <path d="M9.36,11.3v-.56c0-.39.14-.76.4-1.04l.64-.71c.12-.14.19-.31.19-.5,0-.21-.17-.38-.39-.38h-.41c-.21,0-.39.17-.39.38v.31h-1.28v-.31c0-.91.75-1.66,1.67-1.66h.41c.92,0,1.67.74,1.67,1.66,0,.5-.18.98-.52,1.35l-.64.71c-.05.05-.07.12-.07.19v.56h-1.27Z"/>
      <path d="M10.21,7.15c.75,0,1.36.6,1.36,1.35,0,.42-.16.83-.44,1.14l-.64.71c-.1.11-.15.25-.16.4v.25h-.65v-.25c0-.31.11-.6.32-.83l.64-.71c.18-.19.27-.45.27-.71,0-.38-.31-.7-.7-.7h-.41c-.39,0-.7.31-.7.7h-.65c0-.74.61-1.35,1.36-1.35h.41M10.21,6.52h-.41c-1.09,0-1.98.88-1.98,1.97v.62h1.9v-.62s.03-.07.08-.07h.41s.08.03.08.07c0,.11-.04.21-.11.29l-.64.71c-.31.34-.48.78-.48,1.25v.25s0,.62,0,.62h1.89v-.62s0-.25,0-.25l.64-.7c.39-.43.6-.98.6-1.56,0-1.09-.89-1.97-1.98-1.97h0Z"/>
    </g>
  </g>
</svg>