<?xml version="1.0" encoding="UTF-8"?>
<svg id="Layer_1" xmlns="http://www.w3.org/2000/svg" version="1.1" viewBox="0 0 100 100">
  <!-- Generator: Adobe Illustrator 30.1.0, SVG Export Plug-In . SVG Version: 2.1.1 Build 136)  -->
  <path d="M50,6.94c1.4,0,2.8.73,3.53,2.18l9.01,17.88c1.55,3.07,4.43,5.24,7.8,5.87l19.49,3.65c3.05.57,4.28,4.28,2.19,6.57l-14.2,15.58c-2.19,2.4-3.21,5.66-2.78,8.88l2.77,21.01c.33,2.51-1.67,4.49-3.92,4.49-.6,0-1.21-.14-1.81-.45l-17.05-8.78c-1.58-.81-3.31-1.22-5.04-1.22-1.73,0-3.46.41-5.04,1.22l-17.05,8.78c-.59.31-1.21.45-1.81.45-2.25,0-4.25-1.98-3.92-4.49l2.77-21.02c.43-3.22-.59-6.47-2.78-8.87l-14.2-15.58c-2.09-2.3-.86-6,2.19-6.57l19.49-3.65c3.37-.63,6.25-2.8,7.8-5.87l9.01-17.89c.73-1.45,2.13-2.18,3.53-2.18M50,0C45.86,0,42.13,2.3,40.27,5.99l-9.01,17.89c-.57,1.13-1.64,1.94-2.88,2.17l-19.49,3.65c-3.88.73-7.07,3.51-8.32,7.25-1.26,3.75-.38,7.89,2.28,10.81l14.2,15.58c.81.89,1.19,2.09,1.03,3.29l-2.77,21.02c-.41,3.12.54,6.25,2.6,8.61,2.08,2.37,5.07,3.73,8.2,3.73,1.72,0,3.44-.42,4.98-1.22l17.05-8.78c.57-.3,1.22-.45,1.86-.45.64,0,1.29.16,1.86.45l17.05,8.78c1.54.8,3.27,1.22,4.98,1.22,3.13,0,6.12-1.36,8.2-3.73,2.06-2.35,3.01-5.49,2.6-8.61l-2.77-21.01c-.16-1.2.22-2.41,1.03-3.3l14.2-15.58c2.66-2.92,3.54-7.06,2.28-10.81-1.25-3.74-4.44-6.52-8.32-7.25l-19.49-3.65c-1.24-.23-2.32-1.04-2.88-2.17l-9.01-17.88C57.86,2.3,54.14,0,50,0h0Z"/>
</svg>