<?xml version="1.0" encoding="UTF-8"?>
<svg id="Layer_1" xmlns="http://www.w3.org/2000/svg" version="1.1" viewBox="0 0 27 27">
  <!-- Generator: Adobe Illustrator 30.1.0, SVG Export Plug-In . SVG Version: 2.1.1 Build 136)  -->
  <path d="M13.5,4.26c.3,0,.6.16.76.47l1.93,3.84c.33.66.95,1.12,1.67,1.26l4.18.78c.65.12.92.92.47,1.41l-3.05,3.34c-.47.52-.69,1.21-.6,1.91l.59,4.51c.07.54-.36.96-.84.96-.13,0-.26-.03-.39-.1l-3.66-1.88c-.34-.17-.71-.26-1.08-.26s-.74.09-1.08.26l-3.66,1.88c-.13.07-.26.1-.39.1-.48,0-.91-.43-.84-.96l.59-4.51c.09-.69-.13-1.39-.6-1.9l-3.05-3.34c-.45-.49-.18-1.29.47-1.41l4.18-.78c.72-.14,1.34-.6,1.67-1.26l1.93-3.84c.16-.31.46-.47.76-.47M13.5,0C11.56,0,9.81,1.08,8.94,2.81l-1.51,3-3.26.61c-1.82.34-3.32,1.64-3.9,3.4-.59,1.76-.18,3.7,1.07,5.07l2.45,2.69-.48,3.64c-.19,1.46.25,2.93,1.22,4.04.97,1.11,2.37,1.75,3.84,1.75.81,0,1.62-.2,2.34-.57l2.79-1.44,2.79,1.44c.72.37,1.53.57,2.34.57,1.47,0,2.87-.64,3.84-1.75.97-1.1,1.41-2.58,1.22-4.04l-.48-3.64,2.45-2.69c1.25-1.37,1.66-3.31,1.07-5.07-.59-1.76-2.08-3.06-3.9-3.4l-3.26-.61-1.51-3C17.19,1.08,15.44,0,13.5,0h0Z"/>
</svg>