<?xml version="1.0" encoding="UTF-8"?>
<svg id="Layer_1" xmlns="http://www.w3.org/2000/svg" version="1.1" viewBox="0 0 27 27">
  <!-- Generator: Adobe Illustrator 30.1.0, SVG Export Plug-In . SVG Version: 2.1.1 Build 136)  -->
  <path d="M13.5,5.21c.27,0,.54.14.68.42l1.73,3.44c.3.59.85,1.01,1.5,1.13l3.75.7c.59.11.82.82.42,1.26l-2.73,3c-.42.46-.62,1.09-.54,1.71l.53,4.04c.06.48-.32.86-.75.86-.11,0-.23-.03-.35-.09l-3.28-1.69c-.3-.16-.64-.23-.97-.23s-.66.08-.97.23l-3.28,1.69c-.11.06-.23.09-.35.09-.43,0-.82-.38-.75-.86l.53-4.04c.08-.62-.11-1.25-.54-1.71l-2.73-3c-.4-.44-.16-1.15.42-1.26l3.75-.7c.65-.12,1.2-.54,1.5-1.13l1.73-3.44c.14-.28.41-.42.68-.42M13.5,0C11.23,0,9.18,1.26,8.16,3.29l-1.04,2.07-2.24.42c-2.13.4-3.88,1.92-4.57,3.98-.69,2.05-.21,4.33,1.25,5.93l1.76,1.94-.35,2.62c-.23,1.71.3,3.43,1.43,4.72,1.14,1.3,2.77,2.04,4.5,2.04.95,0,1.89-.23,2.74-.66l1.86-.96,1.86.96c.84.43,1.79.66,2.74.66,1.72,0,3.36-.74,4.49-2.04,1.13-1.29,1.65-3.01,1.43-4.72l-.35-2.62,1.76-1.94c1.46-1.6,1.94-3.87,1.25-5.93-.69-2.05-2.44-3.58-4.57-3.98l-2.24-.42-1.04-2.07C17.81,1.26,15.77,0,13.5,0h0Z"/>
</svg>