<?xml version="1.0" encoding="UTF-8"?>
<svg id="Layer_1" xmlns="http://www.w3.org/2000/svg" version="1.1" viewBox="0 0 36 36">
  <!-- Generator: Adobe Illustrator 30.1.0, SVG Export Plug-In . SVG Version: 2.1.1 Build 136)  -->
  <path d="M18,3.13c.48,0,.97.25,1.22.75l3.11,6.18c.53,1.06,1.53,1.81,2.69,2.03l6.73,1.26c1.05.2,1.48,1.48.76,2.27l-4.9,5.38c-.76.83-1.11,1.95-.96,3.07l.96,7.26c.11.87-.58,1.55-1.35,1.55-.21,0-.42-.05-.62-.15l-5.89-3.03c-.55-.28-1.14-.42-1.74-.42-.6,0-1.19.14-1.74.42l-5.89,3.03c-.21.11-.42.15-.62.15-.78,0-1.47-.69-1.35-1.55l.96-7.26c.15-1.11-.2-2.24-.96-3.06l-4.9-5.38c-.72-.79-.3-2.07.76-2.27l6.73-1.26c1.16-.22,2.16-.97,2.69-2.03l3.11-6.18c.25-.5.74-.75,1.22-.75M18,0C16.29,0,14.76.95,13.99,2.47l-3.11,6.18c-.09.19-.27.32-.48.36l-6.73,1.26c-1.6.3-2.92,1.45-3.43,2.99-.52,1.55-.16,3.26.94,4.46l4.9,5.38c.14.15.2.35.17.55l-.96,7.26c-.17,1.29.22,2.58,1.07,3.55.86.98,2.09,1.54,3.38,1.54.71,0,1.42-.17,2.06-.5l5.89-3.03c.1-.05.2-.07.31-.07.11,0,.21.03.31.07l5.89,3.03c.64.33,1.35.5,2.06.5,1.29,0,2.53-.56,3.38-1.54.85-.97,1.24-2.26,1.07-3.55l-.96-7.26c-.03-.2.04-.4.17-.55l4.9-5.38c1.1-1.2,1.46-2.91.94-4.46-.52-1.54-1.83-2.69-3.43-2.99l-6.73-1.26c-.2-.04-.38-.17-.48-.36l-3.11-6.18C21.24.95,19.71,0,18,0h0Z"/>
</svg>