<?xml version="1.0" encoding="UTF-8"?>
<svg id="Layer_1" xmlns="http://www.w3.org/2000/svg" version="1.1" viewBox="0 0 36 36">
  <!-- Generator: Adobe Illustrator 30.1.0, SVG Export Plug-In . SVG Version: 2.1.1 Build 136)  -->
  <path d="M18,6.95c.36,0,.72.19.91.56l2.31,4.59c.4.79,1.14,1.34,2,1.51l5,.94c.78.15,1.1,1.1.56,1.69l-3.64,4c-.56.62-.82,1.45-.71,2.28l.71,5.39c.08.64-.43,1.15-1.01,1.15-.15,0-.31-.04-.46-.11l-4.37-2.25c-.41-.21-.85-.31-1.29-.31s-.89.1-1.29.31l-4.37,2.25c-.15.08-.31.11-.46.11-.58,0-1.09-.51-1.01-1.15l.71-5.39c.11-.83-.15-1.66-.71-2.28l-3.64-4c-.54-.59-.22-1.54.56-1.69l5-.94c.86-.16,1.6-.72,2-1.51l2.31-4.59c.19-.37.55-.56.91-.56M18,0C14.97,0,12.25,1.68,10.88,4.38l-1.39,2.77-2.99.56c-2.84.53-5.17,2.56-6.09,5.3-.92,2.74-.28,5.77,1.67,7.9l2.35,2.58-.46,3.49c-.3,2.28.39,4.57,1.91,6.29,1.52,1.73,3.7,2.72,5.99,2.72,1.26,0,2.52-.31,3.65-.89l2.48-1.28,2.48,1.28c1.13.58,2.39.89,3.65.89,2.29,0,4.48-.99,5.99-2.72,1.51-1.72,2.21-4.02,1.91-6.29l-.46-3.49,2.35-2.58c1.95-2.13,2.58-5.16,1.67-7.9-.92-2.74-3.25-4.77-6.09-5.3l-2.99-.56-1.39-2.77C23.75,1.68,21.03,0,18,0h0Z"/>
</svg>