<?xml version="1.0" encoding="UTF-8"?>
<svg id="Layer_1" xmlns="http://www.w3.org/2000/svg" version="1.1" viewBox="0 0 36 36">
  <!-- Generator: Adobe Illustrator 30.1.0, SVG Export Plug-In . SVG Version: 2.1.1 Build 136)  -->
  <path d="M18,5.68c.4,0,.8.21,1.01.62l2.58,5.12c.44.88,1.27,1.5,2.23,1.68l5.58,1.05c.87.16,1.23,1.22.63,1.88l-4.06,4.46c-.63.69-.92,1.62-.8,2.54l.79,6.01c.09.72-.48,1.28-1.12,1.28-.17,0-.35-.04-.52-.13l-4.88-2.51c-.45-.23-.95-.35-1.44-.35-.49,0-.99.12-1.44.35l-4.88,2.51c-.17.09-.35.13-.52.13-.64,0-1.22-.57-1.12-1.28l.79-6.01c.12-.92-.17-1.85-.8-2.54l-4.06-4.46c-.6-.66-.24-1.72.63-1.88l5.57-1.04c.96-.18,1.79-.8,2.23-1.68l2.58-5.12c.21-.42.61-.62,1.01-.62M18,0C15.41,0,13.08,1.44,11.92,3.75l-2.01,4-4.34.81c-2.43.45-4.42,2.19-5.21,4.53-.78,2.34-.24,4.93,1.43,6.76l3.27,3.59-.64,4.85c-.26,1.95.34,3.91,1.63,5.38,1.3,1.48,3.16,2.33,5.13,2.33,1.08,0,2.16-.26,3.12-.76l3.72-1.91,3.72,1.91c.96.5,2.04.76,3.12.76,1.96,0,3.83-.85,5.13-2.33,1.29-1.47,1.89-3.44,1.63-5.38l-.64-4.85,3.27-3.59c1.66-1.83,2.21-4.41,1.42-6.76-.78-2.34-2.78-4.08-5.2-4.53l-4.34-.81-2.01-4C22.92,1.44,20.59,0,18,0h0Z"/>
</svg>