<?xml version="1.0" encoding="UTF-8"?>
<svg id="Layer_1" xmlns="http://www.w3.org/2000/svg" version="1.1" viewBox="0 0 41 41">
  <!-- Generator: Adobe Illustrator 30.1.0, SVG Export Plug-In . SVG Version: 2.1.1 Build 136)  -->
  <path d="M20.5,2.84c.57,0,1.15.3,1.45.89l3.69,7.33c.63,1.26,1.82,2.15,3.2,2.41l7.99,1.5c1.25.23,1.76,1.75.9,2.69l-5.82,6.39c-.9.99-1.32,2.32-1.14,3.64l1.14,8.61c.14,1.03-.68,1.84-1.61,1.84-.25,0-.5-.06-.74-.18l-6.99-3.6c-.65-.33-1.36-.5-2.06-.5-.71,0-1.42.17-2.06.5l-6.99,3.6c-.24.13-.5.18-.74.18-.92,0-1.74-.81-1.61-1.84l1.14-8.62c.17-1.32-.24-2.65-1.14-3.64l-5.82-6.39c-.86-.94-.35-2.46.9-2.7l7.99-1.5c1.38-.26,2.56-1.15,3.2-2.41l3.69-7.33c.3-.6.87-.89,1.45-.89M20.5,0C18.8,0,17.27.94,16.51,2.46l-3.69,7.33c-.23.46-.67.8-1.18.89l-7.99,1.5c-1.59.3-2.9,1.44-3.41,2.97-.51,1.54-.16,3.24.93,4.43l5.82,6.39c.33.37.49.86.42,1.35l-1.14,8.62c-.17,1.28.22,2.56,1.07,3.53.85.97,2.08,1.53,3.36,1.53.7,0,1.41-.17,2.04-.5l6.99-3.6c.23-.12.5-.18.76-.18.26,0,.53.06.76.18l6.99,3.6c.63.33,1.34.5,2.04.5,1.28,0,2.51-.56,3.36-1.53.85-.96,1.23-2.25,1.07-3.53l-1.14-8.61c-.07-.49.09-.99.42-1.35l5.82-6.39c1.09-1.2,1.45-2.9.93-4.43-.51-1.54-1.82-2.67-3.41-2.97l-7.99-1.5c-.51-.1-.95-.43-1.18-.89l-3.69-7.33C23.72.94,22.2,0,20.5,0h0Z"/>
</svg>