<?xml version="1.0" encoding="UTF-8"?>
<svg id="Layer_1" xmlns="http://www.w3.org/2000/svg" version="1.1" viewBox="0 0 41 41">
  <!-- Generator: Adobe Illustrator 30.1.0, SVG Export Plug-In . SVG Version: 2.1.1 Build 136)  -->
  <path d="M20.5,8.64c.39,0,.77.2.97.6l2.48,4.93c.43.85,1.22,1.44,2.15,1.62l5.37,1.01c.84.16,1.18,1.18.6,1.81l-3.91,4.29c-.6.66-.88,1.56-.77,2.45l.76,5.79c.09.69-.46,1.24-1.08,1.24-.16,0-.33-.04-.5-.12l-4.7-2.42c-.44-.22-.91-.34-1.39-.34s-.95.11-1.39.34l-4.7,2.42c-.16.08-.33.12-.5.12-.62,0-1.17-.55-1.08-1.24l.76-5.79c.12-.89-.16-1.78-.77-2.44l-3.91-4.29c-.58-.63-.24-1.65.6-1.81l5.37-1.01c.93-.17,1.72-.77,2.15-1.62l2.48-4.93c.2-.4.59-.6.97-.6M20.5,0C16.81,0,13.48,2.05,11.81,5.35l-1.24,2.45-2.64.5c-3.46.65-6.31,3.13-7.43,6.47-1.12,3.34-.34,7.04,2.03,9.64l2.16,2.37-.42,3.21c-.37,2.78.48,5.58,2.33,7.68,1.85,2.11,4.52,3.32,7.32,3.32,1.54,0,3.08-.37,4.45-1.08l2.13-1.1,2.13,1.1c1.37.71,2.91,1.08,4.45,1.08,2.8,0,5.47-1.21,7.32-3.32,1.84-2.1,2.69-4.9,2.33-7.68l-.42-3.21,2.16-2.37c2.37-2.61,3.15-6.3,2.03-9.64-1.12-3.34-3.97-5.82-7.43-6.47l-2.64-.5-1.24-2.45C27.52,2.05,24.19,0,20.5,0h0Z"/>
</svg>