<?xml version="1.0" encoding="UTF-8"?>
<svg id="Layer_1" xmlns="http://www.w3.org/2000/svg" version="1.1" viewBox="0 0 41 41">
  <!-- Generator: Adobe Illustrator 30.1.0, SVG Export Plug-In . SVG Version: 2.1.1 Build 136)  -->
  <path d="M20.5,7.92c.41,0,.82.21,1.03.64l2.63,5.23c.45.9,1.29,1.53,2.28,1.72l5.69,1.07c.89.17,1.25,1.25.64,1.92l-4.15,4.55c-.64.7-.94,1.65-.81,2.6l.81,6.14c.1.73-.49,1.31-1.15,1.31-.17,0-.35-.04-.53-.13l-4.98-2.57c-.46-.24-.97-.36-1.47-.36s-1.01.12-1.47.36l-4.98,2.57c-.17.09-.35.13-.53.13-.66,0-1.24-.58-1.15-1.31l.81-6.14c.12-.94-.17-1.89-.81-2.59l-4.15-4.55c-.61-.67-.25-1.75.64-1.92l5.69-1.07c.98-.18,1.83-.82,2.28-1.71l2.63-5.23c.21-.42.62-.64,1.03-.64M20.5,0h0c-3.45,0-6.55,1.91-8.1,4.99l-1.59,3.15-3.41.64c-3.23.61-5.89,2.92-6.93,6.04-1.04,3.12-.32,6.57,1.9,9l2.68,2.94-.52,3.98c-.34,2.59.45,5.21,2.17,7.17,1.73,1.97,4.21,3.1,6.83,3.1,1.44,0,2.87-.35,4.15-1.01l2.83-1.46,2.83,1.46c1.28.66,2.72,1.01,4.15,1.01,2.61,0,5.1-1.13,6.83-3.1,1.72-1.96,2.51-4.58,2.17-7.17l-.52-3.98,2.68-2.94c2.22-2.43,2.94-5.88,1.9-9-1.04-3.12-3.7-5.43-6.93-6.04l-3.41-.64-1.59-3.15C27.05,1.91,23.95,0,20.5,0h0Z"/>
</svg>