<?xml version="1.0" encoding="UTF-8"?>
<svg id="Layer_1" xmlns="http://www.w3.org/2000/svg" version="1.1" viewBox="0 0 80 80">
  <!-- Generator: Adobe Illustrator 30.1.0, SVG Export Plug-In . SVG Version: 2.1.1 Build 136)  -->
  <path d="M40,6.95c1.07,0,2.15.56,2.71,1.67l6.91,13.73c1.19,2.36,3.4,4.02,5.99,4.51l14.96,2.8c2.34.44,3.29,3.28,1.68,5.04l-10.9,11.96c-1.68,1.85-2.46,4.34-2.14,6.82l2.13,16.13c.25,1.92-1.28,3.45-3.01,3.45-.46,0-.93-.11-1.39-.34l-13.08-6.74c-1.21-.62-2.54-.94-3.86-.94-1.33,0-2.65.31-3.86.94l-13.08,6.74c-.46.24-.93.34-1.39.34-1.73,0-3.26-1.52-3.01-3.45l2.13-16.13c.33-2.47-.45-4.97-2.13-6.81l-10.9-11.96c-1.61-1.76-.66-4.61,1.68-5.05l14.96-2.8c2.59-.48,4.8-2.15,5.98-4.5l6.92-13.73c.56-1.11,1.64-1.67,2.71-1.67M40,0C36.21,0,32.79,2.11,31.08,5.49l-6.92,13.73c-.21.42-.6.71-1.06.8l-14.96,2.8c-3.56.67-6.48,3.21-7.63,6.65-1.15,3.44-.35,7.23,2.09,9.91l10.9,11.96c.3.33.44.77.38,1.22l-2.13,16.13c-.38,2.86.49,5.73,2.38,7.89,1.9,2.17,4.64,3.42,7.52,3.42,1.58,0,3.16-.39,4.57-1.11l13.08-6.74c.21-.11.44-.17.68-.17.24,0,.47.06.68.17l13.08,6.74c1.41.73,2.99,1.11,4.57,1.11,2.87,0,5.61-1.25,7.52-3.42,1.89-2.16,2.76-5.03,2.38-7.89l-2.13-16.13c-.06-.45.08-.9.38-1.23l10.9-11.96c2.44-2.68,3.24-6.47,2.09-9.91-1.15-3.43-4.07-5.98-7.63-6.65l-14.96-2.8c-.45-.09-.85-.39-1.06-.8l-6.91-13.73C47.21,2.11,43.79,0,40,0h0Z"/>
</svg>