<?xml version="1.0" encoding="UTF-8"?>
<svg id="Layer_1" xmlns="http://www.w3.org/2000/svg" version="1.1" viewBox="0 0 80 80">
  <!-- Generator: Adobe Illustrator 30.1.0, SVG Export Plug-In . SVG Version: 2.1.1 Build 136)  -->
  <path d="M40,16.85c.75,0,1.51.39,1.9,1.17l4.84,9.61c.83,1.65,2.38,2.82,4.19,3.16l10.48,1.96c1.64.31,2.3,2.3,1.18,3.53l-7.63,8.38c-1.18,1.29-1.73,3.04-1.5,4.78l1.49,11.3c.18,1.35-.9,2.41-2.11,2.41-.32,0-.65-.08-.97-.24l-9.16-4.72c-.85-.44-1.78-.66-2.71-.66-.93,0-1.86.22-2.71.66l-9.16,4.72c-.32.16-.65.24-.97.24-1.21,0-2.29-1.07-2.11-2.41l1.49-11.3c.23-1.73-.32-3.48-1.49-4.77l-7.63-8.38c-1.12-1.23-.46-3.23,1.18-3.53l10.48-1.96c1.81-.34,3.36-1.51,4.19-3.15l4.84-9.62c.39-.78,1.15-1.17,1.9-1.17M40,0C32.79,0,26.3,4,23.05,10.44l-2.41,4.79-5.16.97c-6.76,1.27-12.31,6.1-14.5,12.63-2.19,6.52-.66,13.73,3.97,18.82l4.21,4.63-.83,6.27c-.72,5.42.94,10.89,4.54,14.99,3.61,4.12,8.81,6.48,14.27,6.48,3,0,6.01-.73,8.69-2.11l4.16-2.14,4.16,2.14c2.68,1.38,5.68,2.11,8.69,2.11,5.46,0,10.67-2.36,14.27-6.48,3.6-4.11,5.25-9.57,4.54-14.99l-.83-6.27,4.22-4.63c4.63-5.08,6.15-12.29,3.97-18.82-2.18-6.52-7.74-11.36-14.5-12.63l-5.16-.97-2.41-4.79C53.7,4,47.21,0,40,0h0Z"/>
</svg>