<?xml version="1.0" encoding="UTF-8"?>
<svg id="Layer_1" xmlns="http://www.w3.org/2000/svg" version="1.1" viewBox="0 0 121 121">
  <!-- Generator: Adobe Illustrator 30.1.0, SVG Export Plug-In . SVG Version: 2.1.1 Build 136)  -->
  <path d="M60.5,10.51c1.63,0,3.25.84,4.1,2.53l10.46,20.76c1.79,3.56,5.14,6.08,9.06,6.82l22.62,4.24c3.54.66,4.97,4.96,2.55,7.63l-16.48,18.09c-2.54,2.79-3.73,6.57-3.23,10.31l3.22,24.39c.38,2.91-1.94,5.21-4.55,5.21-.69,0-1.41-.16-2.1-.52l-19.79-10.19c-1.83-.94-3.84-1.42-5.85-1.42-2.01,0-4.01.47-5.85,1.42l-19.79,10.19c-.69.36-1.41.52-2.1.52-2.62,0-4.93-2.3-4.55-5.21l3.22-24.4c.49-3.74-.69-7.51-3.23-10.3l-16.49-18.09c-2.43-2.66-.99-6.97,2.55-7.63l22.62-4.24c3.91-.73,7.26-3.25,9.05-6.81l10.46-20.76c.85-1.69,2.47-2.53,4.1-2.53M60.5,0C54.76,0,49.59,3.18,47.01,8.31l-10.46,20.76c-.32.63-.92,1.08-1.6,1.21l-22.62,4.24c-5.38,1.01-9.8,4.86-11.54,10.05-1.74,5.2-.53,10.94,3.16,14.99l16.49,18.09c.45.5.66,1.17.58,1.85l-3.22,24.4c-.57,4.32.74,8.67,3.6,11.93,2.88,3.28,7.02,5.17,11.37,5.17,2.38,0,4.77-.58,6.91-1.68l19.79-10.19c.32-.17.67-.25,1.03-.25.36,0,.71.09,1.03.25l19.79,10.19c2.14,1.1,4.53,1.68,6.91,1.68,4.34,0,8.49-1.88,11.37-5.17,2.86-3.26,4.17-7.61,3.6-11.93l-3.22-24.39c-.09-.68.12-1.36.58-1.86l16.48-18.09c3.69-4.05,4.9-9.79,3.16-14.99-1.74-5.19-6.16-9.04-11.54-10.05l-22.62-4.24c-.69-.13-1.29-.58-1.61-1.21l-10.46-20.76C71.4,3.18,66.24,0,60.5,0h0Z"/>
</svg>