<?xml version="1.0" encoding="UTF-8"?>
<svg id="Layer_1" xmlns="http://www.w3.org/2000/svg" version="1.1" viewBox="0 0 121 121">
  <!-- Generator: Adobe Illustrator 30.1.0, SVG Export Plug-In . SVG Version: 2.1.1 Build 136)  -->
  <path d="M60.5,8.39c1.69,0,3.39.88,4.27,2.64l10.9,21.64c1.87,3.71,5.36,6.34,9.44,7.1l23.58,4.42c3.69.69,5.18,5.17,2.65,7.95l-17.18,18.86c-2.65,2.91-3.88,6.84-3.37,10.75l3.35,25.42c.4,3.03-2.02,5.44-4.74,5.44-.72,0-1.47-.17-2.19-.54l-20.63-10.62c-1.91-.98-4-1.48-6.09-1.48-2.09,0-4.18.49-6.09,1.48l-20.63,10.62c-.72.37-1.46.54-2.19.54-2.73,0-5.14-2.4-4.74-5.44l3.35-25.43c.51-3.9-.72-7.83-3.36-10.74l-17.18-18.86c-2.53-2.78-1.03-7.26,2.65-7.95l23.58-4.42c4.08-.76,7.57-3.39,9.43-7.1l10.9-21.64c.89-1.76,2.58-2.64,4.27-2.64M60.5,0C55.49,0,50.98,2.78,48.73,7.25l-10.9,21.64c-.69,1.36-1.99,2.35-3.48,2.63l-23.58,4.42c-4.69.88-8.55,4.24-10.07,8.77-1.52,4.54-.46,9.55,2.76,13.09l17.18,18.86c.98,1.08,1.44,2.53,1.25,3.98l-3.35,25.43c-.5,3.77.65,7.57,3.14,10.41,2.52,2.87,6.13,4.51,9.92,4.51,2.08,0,4.16-.51,6.03-1.47l20.63-10.62c.69-.36,1.47-.55,2.25-.55.78,0,1.56.19,2.25.55l20.63,10.62c1.87.96,3.95,1.47,6.03,1.47,3.79,0,7.41-1.65,9.92-4.51,2.5-2.85,3.64-6.64,3.14-10.41l-3.35-25.42c-.19-1.46.26-2.91,1.25-4l17.18-18.86c3.22-3.53,4.28-8.55,2.76-13.08-1.52-4.53-5.38-7.89-10.07-8.77l-23.58-4.42c-1.5-.28-2.8-1.26-3.49-2.63l-10.9-21.64C70.01,2.78,65.5,0,60.5,0h0Z"/>
</svg>