<?xml version="1.0" encoding="UTF-8"?>
<svg id="Layer_1" xmlns="http://www.w3.org/2000/svg" version="1.1" viewBox="0 0 13 13">
  <!-- Generator: Adobe Illustrator 30.1.0, SVG Export Plug-In . SVG Version: 2.1.1 Build 136)  -->
  <circle id="Outer" cx="6.5" cy="6.5" r="5.47" fill="none" stroke="#000" stroke-width="2.05"/>
  <g>
    <g>
      <rect x="6.09" y="8.3" width=".82" height=".82"/>
      <path d="M6.74,8.46v.49h-.49v-.49h.49M7.07,8.13h-1.14v1.14h1.14v-1.14h0Z"/>
    </g>
    <g>
      <path d="M6.09,7.47v-.35c0-.28.1-.54.28-.74l.49-.54c.11-.12.17-.27.17-.43,0-.2-.17-.37-.37-.37h-.31c-.2,0-.37.16-.37.37v.16h-.82v-.16c0-.65.54-1.19,1.19-1.19h.31c.66,0,1.19.53,1.19,1.19,0,.36-.13.71-.38.98l-.49.54c-.05.06-.08.12-.08.19v.35h-.82Z"/>
      <path d="M6.66,4.38c.57,0,1.03.46,1.03,1.03,0,.32-.12.63-.34.87l-.49.54c-.08.08-.12.19-.12.3v.19h-.5v-.19c0-.23.09-.46.24-.63l.49-.54c.13-.15.21-.34.21-.54,0-.29-.24-.53-.53-.53h-.31c-.29,0-.53.24-.53.53h-.5c0-.57.46-1.03,1.03-1.03h.31M6.66,4.06h-.31c-.75,0-1.36.61-1.36,1.35v.32h1.15v-.32c0-.11.09-.2.21-.2h.31c.11,0,.21.09.21.2,0,.12-.04.23-.12.32l-.49.54c-.21.23-.33.53-.33.85v.19s0,.32,0,.32h1.14v-.32s0-.19,0-.19c0-.03.01-.06.03-.09l.49-.54c.27-.3.42-.69.42-1.09,0-.74-.61-1.35-1.36-1.35h0Z"/>
    </g>
  </g>
</svg>