<?xml version="1.0" encoding="UTF-8"?>
<svg id="Layer_1" xmlns="http://www.w3.org/2000/svg" version="1.1" viewBox="0 0 13 13">
  <!-- Generator: Adobe Illustrator 30.1.0, SVG Export Plug-In . SVG Version: 2.1.1 Build 136)  -->
  <circle id="Outer" cx="6.5" cy="6.5" r="5.13" fill="none" stroke="#000" stroke-width="2.74"/>
  <g>
    <g>
      <rect x="6.08" y="8.03" width=".83" height=".83"/>
      <path d="M6.69,8.26v.39h-.39v-.39h.39M7.14,7.81h-1.28v1.28h1.28v-1.28h0Z"/>
    </g>
    <g>
      <path d="M6.08,7.29v-.37c0-.24.09-.47.25-.65l.38-.43c.07-.08.11-.17.11-.27,0-.11-.09-.19-.19-.19h-.25c-.11,0-.19.09-.19.19v.22h-.84v-.22c0-.57.46-1.03,1.03-1.03h.25c.57,0,1.03.46,1.03,1.03,0,.31-.11.6-.32.83l-.38.43-.04.23v.22h-.83Z"/>
      <path d="M6.62,4.77c.45,0,.81.36.81.8,0,.25-.09.49-.26.68l-.38.43c-.06.07-.09.15-.09.24v.15h-.39v-.15c0-.18.07-.36.19-.5l.38-.43c.11-.12.16-.27.16-.42,0-.23-.19-.42-.42-.42h-.25c-.23,0-.42.19-.42.42h-.39c0-.44.36-.8.81-.8h.25M6.62,4.33h-.25c-.69,0-1.26.56-1.26,1.25v.45h1.13l-.09.1c-.2.22-.31.5-.31.79v.15s0,.44,0,.44h1.27v-.44s0-.11,0-.11l.36-.4c.24-.27.38-.62.38-.98,0-.69-.56-1.25-1.26-1.25h0ZM6.41,5.86v-.28l.22.03s-.05.06-.08.09l-.14.16h0Z"/>
    </g>
  </g>
</svg>