<?xml version="1.0" encoding="UTF-8"?>
<svg id="Layer_1" xmlns="http://www.w3.org/2000/svg" version="1.1" viewBox="0 0 13 13">
  <!-- Generator: Adobe Illustrator 30.1.0, SVG Export Plug-In . SVG Version: 2.1.1 Build 136)  -->
  <circle id="Outer" cx="6.5" cy="6.5" r="6.05" fill="none" stroke="#000" stroke-width=".9"/>
  <g>
    <g>
      <polygon points="6.15 9.54 6.09 8.79 6.84 8.73 6.9 9.48 6.9 9.54 6.15 9.54"/>
      <path d="M6.84,8.79v.69h-.69v-.69h.69M6.96,8.67h-.94v.94h.94v-.94h0Z"/>
    </g>
    <g>
      <path d="M6.15,7.82l-.06-.32c0-.34.13-.67.36-.93l.69-.76c.18-.2.28-.45.28-.71,0-.38-.31-.68-.69-.68h-.44c-.38,0-.69.31-.69.68l-.76.06c-.06-.89.61-1.56,1.45-1.56h.44c.83,0,1.51.67,1.51,1.5,0,.47-.17.91-.48,1.26l-.69.76c-.1.11-.15.24-.15.38v.32h-.76Z"/>
      <path d="M6.72,3.67c.8,0,1.45.64,1.45,1.43,0,.45-.17.88-.47,1.22l-.69.76c-.11.12-.17.26-.17.42v.26h-.69v-.26c0-.33.12-.64.34-.88l.69-.76c.19-.21.29-.48.29-.75,0-.41-.34-.74-.75-.74h-.44c-.41,0-.75.33-.75.74h-.7c0-.79.65-1.43,1.45-1.43h.44M6.72,3.55h-.44c-.86,0-1.57.7-1.57,1.56v.12h.94v-.12c0-.34.28-.62.63-.62h.44c.34,0,.63.28.63.62,0,.25-.09.49-.26.67l-.69.76c-.24.27-.37.61-.37.97v.26s0,.12,0,.12h.93v-.12s0-.26,0-.26c0-.13.05-.24.13-.34l.69-.76c.32-.36.5-.82.5-1.3,0-.86-.7-1.56-1.57-1.56h0Z"/>
    </g>
  </g>
</svg>