<?xml version="1.0" encoding="UTF-8"?>
<svg id="Layer_1" xmlns="http://www.w3.org/2000/svg" version="1.1" viewBox="0 0 13 13">
  <!-- Generator: Adobe Illustrator 30.1.0, SVG Export Plug-In . SVG Version: 2.1.1 Build 136)  -->
  <circle id="Outer" cx="6.5" cy="6.5" r="5.94" fill="none" stroke="#000" stroke-width="1.13"/>
  <g>
    <g>
      <rect x="6.09" y="8.65" width=".81" height=".81"/>
      <path d="M6.82,8.73v.65h-.65v-.65h.65M6.98,8.57h-.98v.98h.98v-.98h0Z"/>
    </g>
    <g>
      <path d="M6.09,7.75v-.33c0-.33.12-.64.34-.89l.65-.71c.16-.18.25-.41.25-.66,0-.34-.28-.62-.62-.62h-.41c-.34,0-.62.28-.62.62v.08h-.82v-.08c0-.79.65-1.43,1.44-1.43h.41c.79,0,1.44.64,1.44,1.43,0,.44-.16.87-.46,1.2l-.64.71c-.09.1-.13.21-.14.34v.33h-.82Z"/>
      <path d="M6.71,3.81c.75,0,1.36.61,1.36,1.35,0,.42-.16.83-.44,1.15l-.65.71c-.1.11-.16.25-.16.4v.25h-.65v-.25c0-.31.11-.6.32-.83l.64-.71c.18-.2.27-.45.27-.71,0-.38-.32-.7-.7-.7h-.41c-.39,0-.7.31-.7.7h-.66c0-.74.61-1.35,1.36-1.35h.41M6.71,3.65h-.41c-.84,0-1.52.68-1.52,1.51v.16h.98v-.16c0-.3.24-.54.54-.54h.41c.3,0,.54.24.54.54,0,.22-.08.44-.23.6l-.64.71c-.23.26-.36.59-.36.94v.25s0,.16,0,.16h.97v-.16s0-.25,0-.25c0-.11.04-.21.11-.29l.65-.71c.31-.35.48-.79.48-1.25,0-.83-.68-1.51-1.52-1.51h0Z"/>
    </g>
  </g>
</svg>