<?xml version="1.0" encoding="UTF-8"?>
<svg id="Layer_1" xmlns="http://www.w3.org/2000/svg" version="1.1" viewBox="0 0 13 13">
  <!-- Generator: Adobe Illustrator 30.1.0, SVG Export Plug-In . SVG Version: 2.1.1 Build 136)  -->
  <circle id="Outer" cx="6.5" cy="6.5" r="5.71" fill="none" stroke="#000" stroke-width="1.59"/>
  <g>
    <g>
      <rect x="6.09" y="8.47" width=".82" height=".82"/>
      <path d="M6.78,8.6v.57h-.57v-.57h.57M7.03,8.35h-1.06v1.06h1.06v-1.06h0Z"/>
    </g>
    <g>
      <path d="M6.09,7.6v-.34c0-.3.11-.59.31-.81l.57-.63c.13-.15.21-.34.21-.54,0-.27-.22-.49-.5-.49h-.36c-.27,0-.49.22-.49.49v.12h-.82v-.12c0-.72.59-1.31,1.32-1.31h.36c.73,0,1.32.59,1.32,1.31,0,.4-.15.79-.42,1.09l-.57.63c-.07.08-.1.17-.1.27v.34h-.82Z"/>
      <path d="M6.68,4.1c.66,0,1.19.53,1.19,1.18,0,.37-.14.73-.39,1.01l-.57.63c-.09.1-.14.22-.14.35v.22h-.57v-.22c0-.27.1-.53.28-.73l.57-.63c.15-.17.24-.39.24-.62,0-.34-.28-.61-.62-.61h-.36c-.34,0-.62.27-.62.61h-.58c0-.65.54-1.18,1.19-1.18h.36M6.68,3.86h-.36c-.79,0-1.44.64-1.44,1.43v.24h1.06v-.24c0-.2.17-.37.37-.37h.36c.21,0,.37.17.37.37,0,.17-.06.33-.18.46l-.57.63c-.22.25-.34.56-.35.89v.22s0,.24,0,.24h1.05v-.24s0-.22,0-.22c0-.07.03-.13.07-.19l.57-.63c.29-.32.45-.74.45-1.17,0-.79-.64-1.43-1.44-1.43h0Z"/>
    </g>
  </g>
</svg>