<?xml version="1.0" encoding="UTF-8"?>
<svg id="Layer_1" xmlns="http://www.w3.org/2000/svg" version="1.1" viewBox="0 0 13 13">
  <!-- Generator: Adobe Illustrator 30.1.0, SVG Export Plug-In . SVG Version: 2.1.1 Build 136)  -->
  <circle id="Outer" cx="6.5" cy="6.5" r="5.24" fill="none" stroke="#000" stroke-width="2.51"/>
  <g>
    <g>
      <rect x="6.08" y="8.12" width=".83" height=".83"/>
      <path d="M6.71,8.32v.42h-.42v-.42h.42M7.11,7.92h-1.23v1.23h1.23v-1.23h0Z"/>
    </g>
    <g>
      <path d="M6.09,7.35v-.36c0-.25.09-.49.26-.68l.42-.46c.08-.09.13-.2.13-.32,0-.14-.11-.25-.25-.25h-.27c-.14,0-.25.11-.25.25v.2h-.83v-.2c0-.59.49-1.08,1.08-1.08h.27c.6,0,1.08.48,1.08,1.08,0,.33-.12.64-.34.88l-.42.46s-.05.08-.05.12v.36h-.83Z"/>
      <path d="M6.63,4.65c.49,0,.88.39.88.87,0,.27-.1.54-.29.74l-.42.46c-.06.07-.1.16-.1.26v.16h-.42v-.16c0-.2.07-.39.21-.54l.42-.46c.11-.13.18-.29.18-.46,0-.25-.2-.45-.46-.45h-.27c-.25,0-.46.2-.46.45h-.43c0-.48.4-.87.88-.87h.27M6.63,4.24h-.27c-.71,0-1.29.57-1.29,1.28v.41h1.24v-.41s.02-.05.05-.05h.27s.05.02.05.05c0,.07-.03.14-.07.19l-.42.46c-.2.22-.31.51-.31.81v.16s0,.4,0,.4h1.23v-.4s0-.16,0-.16l.41-.45c.25-.28.39-.64.39-1.01,0-.71-.58-1.28-1.29-1.28h0Z"/>
    </g>
  </g>
</svg>