<?xml version="1.0" encoding="UTF-8"?>
<svg id="Layer_1" xmlns="http://www.w3.org/2000/svg" version="1.1" viewBox="0 0 103 103">
  <!-- Generator: Adobe Illustrator 30.1.0, SVG Export Plug-In . SVG Version: 2.1.1 Build 136)  -->
  <path d="M51.5,16.25c1.15,0,2.29.59,2.89,1.78l7.37,14.64c1.27,2.51,3.63,4.29,6.39,4.81l15.95,2.99c2.49.47,3.51,3.5,1.79,5.38l-11.62,12.75c-1.79,1.97-2.63,4.63-2.28,7.27l2.27,17.2c.27,2.05-1.36,3.68-3.21,3.68-.49,0-.99-.11-1.48-.36l-13.95-7.19c-1.29-.67-2.71-1-4.12-1-1.41,0-2.83.33-4.12,1l-13.95,7.19c-.49.25-.99.36-1.48.36-1.84,0-3.48-1.62-3.21-3.68l2.27-17.2c.35-2.64-.49-5.3-2.28-7.26l-11.62-12.75c-1.71-1.88-.7-4.91,1.8-5.38l15.95-2.99c2.76-.52,5.12-2.29,6.38-4.8l7.37-14.64c.6-1.19,1.74-1.78,2.89-1.78M51.5,0C44.09,0,37.42,4.11,34.09,10.72l-5.76,11.44-12.42,2.33c-6.94,1.3-12.65,6.27-14.89,12.97-2.25,6.7-.68,14.11,4.08,19.33l9.36,10.27-1.83,13.87c-.73,5.57.96,11.18,4.66,15.4,3.71,4.23,9.05,6.66,14.66,6.66,3.08,0,6.17-.75,8.92-2.17l10.63-5.48,10.63,5.48c2.76,1.42,5.84,2.17,8.92,2.17,5.61,0,10.96-2.43,14.66-6.66,3.7-4.22,5.39-9.83,4.66-15.4l-1.83-13.87,9.36-10.27c4.76-5.22,6.32-12.63,4.08-19.33-2.24-6.7-7.95-11.67-14.89-12.97l-12.43-2.33-5.76-11.44C65.57,4.11,58.9,0,51.5,0h0Z"/>
</svg>