<?xml version="1.0" encoding="UTF-8"?>
<svg id="Layer_1" xmlns="http://www.w3.org/2000/svg" version="1.1" viewBox="0 0 103 103">
  <!-- Generator: Adobe Illustrator 30.1.0, SVG Export Plug-In . SVG Version: 2.1.1 Build 136)  -->
  <path d="M51.5,21.69c.97,0,1.94.5,2.44,1.51l6.24,12.38c1.07,2.12,3.07,3.63,5.4,4.06l13.49,2.53c2.11.4,2.96,2.96,1.52,4.55l-9.83,10.79c-1.52,1.66-2.22,3.91-1.93,6.15l1.92,14.54c.23,1.73-1.15,3.11-2.71,3.11-.41,0-.84-.1-1.25-.31l-11.8-6.08c-1.09-.56-2.29-.84-3.49-.84-1.2,0-2.39.28-3.49.85l-11.8,6.08c-.41.21-.84.31-1.25.31-1.56,0-2.94-1.37-2.71-3.11l1.92-14.55c.29-2.23-.41-4.48-1.92-6.14l-9.83-10.79c-1.45-1.59-.59-4.15,1.52-4.55l13.49-2.53c2.33-.44,4.33-1.94,5.4-4.06l6.24-12.38c.51-1.01,1.48-1.51,2.44-1.51M51.5,0C42.22,0,33.86,5.15,29.68,13.44l-3.1,6.16-6.64,1.24c-8.7,1.63-15.85,7.86-18.67,16.26-2.81,8.4-.86,17.68,5.11,24.23l5.43,5.96-1.06,8.07c-.92,6.98,1.21,14.02,5.84,19.3,4.65,5.3,11.34,8.34,18.38,8.34,3.87,0,7.73-.94,11.18-2.72l5.35-2.76,5.35,2.76c3.45,1.78,7.32,2.72,11.18,2.72,7.03,0,13.73-3.04,18.38-8.34,4.63-5.29,6.76-12.32,5.84-19.3l-1.06-8.07,5.43-5.96c5.97-6.55,7.92-15.83,5.11-24.23-2.81-8.4-9.96-14.62-18.67-16.26l-6.64-1.25-3.1-6.16C69.14,5.15,60.78,0,51.5,0h0Z"/>
</svg>