<?xml version="1.0" encoding="UTF-8"?>
<svg id="Layer_1" xmlns="http://www.w3.org/2000/svg" version="1.1" viewBox="0 0 51 51">
  <!-- Generator: Adobe Illustrator 30.1.0, SVG Export Plug-In . SVG Version: 2.1.1 Build 136)  -->
  <circle id="Outer" cx="25.5" cy="25.5" r="20.58" fill="none" stroke="#000" stroke-width="9.85"/>
  <g>
    <g>
      <rect x="23.86" y="31.86" width="3.25" height="3.25"/>
      <path d="M26.32,32.65v1.66h-1.66v-1.66h1.66M27.91,31.06h-4.84v4.84h4.84v-4.84h0Z"/>
    </g>
    <g>
      <path d="M23.87,28.82v-1.42c0-.99.35-1.93,1.01-2.66l1.64-1.82c.32-.35.49-.8.49-1.27,0-.54-.44-.98-.99-.98h-1.05c-.55,0-.99.44-.99.98v.8h-3.26v-.8c0-2.33,1.91-4.23,4.25-4.23h1.05c2.35,0,4.25,1.9,4.25,4.23,0,1.27-.47,2.5-1.33,3.45l-1.64,1.82c-.13.14-.19.3-.19.48l-.02,1.42h-3.23Z"/>
      <path d="M26.03,18.23c1.91,0,3.46,1.54,3.46,3.43,0,1.08-.4,2.11-1.12,2.91l-1.64,1.82c-.25.28-.39.63-.4,1.01v.63h-1.66v-.63c0-.78.29-1.53.81-2.12l1.64-1.82c.45-.5.7-1.14.7-1.81,0-.98-.8-1.77-1.79-1.77h-1.05c-.98,0-1.79.8-1.79,1.77h-1.67c0-1.89,1.55-3.43,3.46-3.43h1.05M26.03,16.63h-1.05c-2.78,0-5.05,2.25-5.05,5.03v1.59h4.86v-1.59c0-.1.09-.18.19-.18h1.05c.1,0,.19.08.19.18,0,.27-.1.53-.29.74l-1.64,1.82c-.79.87-1.23,2-1.23,3.18v.65s.02,1.58.02,1.58h4.81l.02-1.58v-.6s1.63-1.8,1.63-1.8c.99-1.09,1.53-2.51,1.53-3.98,0-2.77-2.27-5.03-5.05-5.03h0Z"/>
    </g>
  </g>
</svg>