<?xml version="1.0" encoding="UTF-8"?>
<svg id="Layer_1" xmlns="http://www.w3.org/2000/svg" version="1.1" viewBox="0 0 51 51">
  <!-- Generator: Adobe Illustrator 30.1.0, SVG Export Plug-In . SVG Version: 2.1.1 Build 136)  -->
  <circle id="Outer" cx="25.5" cy="25.5" r="23.73" fill="none" stroke="#000" stroke-width="3.54"/>
  <g>
    <g>
      <rect x="23.89" y="34.25" width="3.19" height="3.19"/>
      <path d="M26.84,34.49v2.72h-2.72v-2.72h2.72M27.32,34.02h-3.67v3.67h3.67v-3.67h0Z"/>
    </g>
    <g>
      <path d="M23.89,30.69v-1.26c0-1.35.49-2.63,1.4-3.63l2.69-2.98c.7-.77,1.08-1.77,1.08-2.8,0-1.47-1.21-2.67-2.69-2.67h-1.73c-1.48,0-2.69,1.2-2.69,2.67v.24h-3.22v-.24c0-3.24,2.65-5.87,5.91-5.87h1.73c3.26,0,5.91,2.63,5.91,5.87,0,1.82-.68,3.58-1.9,4.94l-2.69,2.98c-.38.42-.59.94-.59,1.49v1.27h-3.2Z"/>
      <path d="M26.36,14.39c3.13,0,5.67,2.53,5.67,5.63,0,1.77-.65,3.46-1.84,4.78l-2.69,2.98c-.42.46-.65,1.03-.65,1.65v1.03h-2.73v-1.03c0-1.29.47-2.51,1.34-3.47l2.69-2.98c.74-.82,1.14-1.87,1.14-2.96,0-1.6-1.31-2.91-2.93-2.91h-1.73c-1.62,0-2.93,1.31-2.93,2.91h-2.74c0-3.1,2.54-5.63,5.67-5.63h1.73M26.36,13.91h-1.73c-3.39,0-6.15,2.74-6.15,6.11v.48h3.7v-.48c0-1.34,1.1-2.43,2.45-2.43h1.73c1.35,0,2.45,1.09,2.45,2.43,0,.98-.36,1.91-1.02,2.64l-2.69,2.98c-.94,1.04-1.46,2.39-1.47,3.79v1.03s.01.47.01.47h3.66v-.47s.02-1.03.02-1.03c0-.5.18-.96.53-1.34l2.69-2.98c1.27-1.4,1.96-3.21,1.96-5.1,0-3.37-2.76-6.11-6.15-6.11h0Z"/>
    </g>
  </g>
</svg>