<?xml version="1.0" encoding="UTF-8"?>
<svg id="Layer_1" xmlns="http://www.w3.org/2000/svg" version="1.1" viewBox="0 0 51 51">
  <!-- Generator: Adobe Illustrator 30.1.0, SVG Export Plug-In . SVG Version: 2.1.1 Build 136)  -->
  <circle id="Outer" cx="25.5" cy="25.5" r="22.38" fill="none" stroke="#000" stroke-width="6.23"/>
  <g>
    <g>
      <rect x="23.89" y="33.24" width="3.2" height="3.2"/>
      <path d="M26.61,33.72v2.24h-2.24v-2.24h2.24M27.56,32.76h-4.15v4.15h4.15v-4.15h0Z"/>
    </g>
    <g>
      <path d="M23.89,29.83v-1.32c0-1.18.43-2.32,1.22-3.19l2.22-2.46c.53-.58.82-1.34.82-2.12,0-1.06-.87-1.92-1.94-1.92h-1.43c-1.07,0-1.94.86-1.94,1.92v.48h-3.22v-.48c0-2.83,2.31-5.13,5.16-5.13h1.43c2.84,0,5.16,2.3,5.16,5.13,0,1.58-.58,3.09-1.64,4.26l-2.22,2.46c-.27.3-.41.66-.41,1.05v1.32h-3.2Z"/>
      <path d="M26.21,16.09c2.58,0,4.68,2.09,4.68,4.65,0,1.46-.54,2.86-1.52,3.94l-2.22,2.46c-.34.38-.53.85-.54,1.37v.85h-2.25v-.85c0-1.06.39-2.07,1.1-2.87l2.22-2.46c.61-.67.94-1.54.94-2.44,0-1.32-1.09-2.4-2.42-2.4h-1.43c-1.33,0-2.42,1.08-2.42,2.4h-2.26c0-2.56,2.1-4.65,4.68-4.65h1.43M26.21,15.13h-1.43c-3.11,0-5.64,2.51-5.64,5.6v.96h4.17v-.96c0-.8.66-1.45,1.46-1.45h1.43c.81,0,1.46.65,1.46,1.45,0,.67-.25,1.31-.7,1.8l-2.22,2.46c-.87.96-1.35,2.21-1.36,3.5v.86s.02.95.02.95h4.14v-.95s.02-.85.02-.85c0-.28.1-.52.29-.73l2.22-2.46c1.14-1.26,1.77-2.89,1.77-4.58,0-3.09-2.53-5.6-5.64-5.6h0Z"/>
    </g>
  </g>
</svg>