<?xml version="1.0" encoding="UTF-8"?>
<svg id="Layer_1" xmlns="http://www.w3.org/2000/svg" version="1.1" viewBox="0 0 51 51">
  <!-- Generator: Adobe Illustrator 30.1.0, SVG Export Plug-In . SVG Version: 2.1.1 Build 136)  -->
  <circle id="Outer" cx="25.5" cy="25.5" r="20.13" fill="none" stroke="#000" stroke-width="10.74"/>
  <g>
    <g>
      <rect x="23.85" y="31.51" width="3.27" height="3.27"/>
      <path d="M26.25,32.39v1.52h-1.52v-1.52h1.52M28,30.63h-5.03v5.03h5.03v-5.03h0Z"/>
    </g>
    <g>
      <path d="M23.86,28.6v-1.44c0-.95.34-1.84.97-2.54l1.51-1.67c.27-.3.41-.68.41-1.07,0-.42-.34-.75-.76-.75h-.97c-.42,0-.76.34-.76.75v.88h-3.29v-.88c0-2.22,1.82-4.03,4.05-4.03h.97c2.23,0,4.05,1.81,4.05,4.03,0,1.21-.45,2.37-1.26,3.26l-1.51,1.67c-.09.1-.14.21-.14.34v1.45h-3.27Z"/>
      <path d="M25.98,18.73c1.75,0,3.18,1.41,3.18,3.15,0,.99-.37,1.94-1.03,2.68l-1.51,1.67c-.23.26-.36.58-.36.93v.58h-1.53v-.58c0-.72.26-1.41.75-1.94l1.51-1.67c.41-.46.64-1.05.64-1.66,0-.9-.74-1.63-1.64-1.63h-.97c-.9,0-1.64.73-1.64,1.63h-1.53c0-1.74,1.42-3.15,3.18-3.15h.97M25.98,16.97h-.97c-2.72,0-4.93,2.2-4.93,4.91v1.75h4.45l-.36.4c-.77.85-1.2,1.96-1.2,3.11v.6s.02,1.74.02,1.74h4.99l.02-1.74v-.44s1.42-1.57,1.42-1.57c.96-1.06,1.48-2.43,1.48-3.85,0-2.71-2.21-4.91-4.93-4.91h0ZM25.13,22h.73c-.02.13-.08.26-.18.36l-.56.62v-.98h0Z"/>
    </g>
  </g>
</svg>