<?xml version="1.0" encoding="UTF-8"?>
<svg id="Layer_1" xmlns="http://www.w3.org/2000/svg" version="1.1" viewBox="0 0 51 51">
  <!-- Generator: Adobe Illustrator 30.1.0, SVG Export Plug-In . SVG Version: 2.1.1 Build 136)  -->
  <circle id="Outer" cx="25.5" cy="25.5" r="21.48" fill="none" stroke="#000" stroke-width="8.05"/>
  <g>
    <g>
      <rect x="23.88" y="32.55" width="3.21" height="3.21"/>
      <path d="M26.46,33.19v1.94h-1.94v-1.94h1.94M27.73,31.91h-4.49v4.49h4.49v-4.49h0Z"/>
    </g>
    <g>
      <path d="M23.89,29.3v-1.37c0-1.08.39-2.11,1.11-2.91l1.92-2.13c.42-.46.65-1.06.65-1.69,0-.79-.65-1.44-1.46-1.44h-1.23c-.8,0-1.46.65-1.46,1.44v.64h-3.23v-.64c0-2.57,2.1-4.66,4.69-4.66h1.23c2.58,0,4.69,2.09,4.69,4.66,0,1.42-.53,2.78-1.48,3.84l-1.92,2.13c-.2.22-.3.48-.3.75v1.37h-3.22Z"/>
      <path d="M26.12,17.19c2.23,0,4.05,1.8,4.05,4.02,0,1.26-.47,2.47-1.32,3.41l-1.92,2.13c-.3.33-.46.74-.46,1.18v.73h-1.95v-.73c0-.92.34-1.8.95-2.48l1.92-2.13c.53-.58.82-1.33.82-2.12,0-1.15-.94-2.08-2.09-2.08h-1.23c-1.15,0-2.09.93-2.09,2.08h-1.96c0-2.22,1.82-4.02,4.05-4.02h1.23M26.12,15.91h-1.23c-2.94,0-5.32,2.38-5.32,5.3v1.27h4.51v-1.27c0-.44.37-.8.82-.8h1.23c.45,0,.82.36.82.8,0,.47-.17.91-.49,1.26l-1.92,2.13c-.83.91-1.28,2.1-1.29,3.33v.75s.02,1.26.02,1.26h4.47v-1.26s.02-.73.02-.73c0-.13.04-.24.13-.34l1.92-2.13c1.06-1.17,1.64-2.69,1.64-4.27,0-2.92-2.39-5.3-5.32-5.3h0Z"/>
    </g>
  </g>
</svg>