<?xml version="1.0" encoding="UTF-8"?>
<svg id="Layer_1" xmlns="http://www.w3.org/2000/svg" version="1.1" viewBox="0 0 51 51">
  <!-- Generator: Adobe Illustrator 30.1.0, SVG Export Plug-In . SVG Version: 2.1.1 Build 136)  -->
  <circle id="Outer" cx="25.5" cy="25.5" r="23.28" fill="none" stroke="#000" stroke-width="4.43"/>
  <g>
    <g>
      <rect x="23.89" y="33.92" width="3.19" height="3.19"/>
      <path d="M26.76,34.24v2.55h-2.55v-2.55h2.55M27.4,33.6h-3.83v3.83h3.83v-3.83h0Z"/>
    </g>
    <g>
      <path d="M23.89,30.4v-1.28c0-1.29.47-2.53,1.34-3.48l2.53-2.8c.64-.71.99-1.62.99-2.57,0-1.33-1.09-2.42-2.44-2.42h-1.62c-1.34,0-2.44,1.09-2.44,2.42v.32h-3.22v-.32c0-3.1,2.54-5.62,5.65-5.62h1.62c3.12,0,5.65,2.52,5.65,5.62,0,1.74-.64,3.41-1.81,4.71l-2.53,2.81c-.34.38-.53.84-.53,1.34v1.28h-3.2Z"/>
      <path d="M26.31,14.96c2.94,0,5.34,2.38,5.34,5.3,0,1.66-.62,3.26-1.73,4.5l-2.53,2.8c-.39.43-.61.97-.61,1.56v.97h-2.56v-.97c0-1.21.44-2.36,1.26-3.27l2.53-2.8c.69-.77,1.07-1.76,1.07-2.79,0-1.51-1.24-2.74-2.76-2.74h-1.63c-1.52,0-2.76,1.23-2.76,2.74h-2.58c0-2.92,2.39-5.3,5.34-5.3h1.63M26.31,14.32h-1.63c-3.29,0-5.97,2.66-5.97,5.94v.64h3.85v-.64c0-1.16.95-2.1,2.12-2.1h1.63c1.17,0,2.12.94,2.12,2.1,0,.87-.32,1.71-.91,2.36l-2.53,2.8c-.92,1.01-1.42,2.32-1.43,3.69v.97s.01.63.01.63h3.82v-.63s.02-.97.02-.97c0-.42.16-.81.45-1.14l2.53-2.8c1.22-1.35,1.9-3.1,1.9-4.92,0-3.27-2.68-5.94-5.97-5.94h0Z"/>
    </g>
  </g>
</svg>