<?xml version="1.0" encoding="UTF-8"?>
<svg id="Layer_1" xmlns="http://www.w3.org/2000/svg" version="1.1" viewBox="0 0 63 63">
  <!-- Generator: Adobe Illustrator 30.1.0, SVG Export Plug-In . SVG Version: 2.1.1 Build 136)  -->
  <g>
    <g>
      <rect x="29.3" y="15.95" width="4.4" height="4.4"/>
      <path d="M33.41,16.25v3.81h-3.81v-3.81h3.81M34,15.66h-4.99v4.99h4.99v-4.99h0Z"/>
    </g>
    <g>
      <polygon points="25.48 47.05 25.48 42.65 29.3 42.65 29.3 31.33 25.48 31.33 25.48 26.93 33.7 26.93 33.7 42.65 37.51 42.65 37.51 47.05 25.48 47.05"/>
      <path d="M33.41,27.22v15.72h3.81v3.81h-11.44v-3.81h3.81v-11.91h-3.81v-3.81h7.63M34,26.63h-8.81v4.99h3.81v10.72h-3.81v4.99h12.62v-4.99h-3.81v-15.72h0Z"/>
    </g>
  </g>
  <circle id="Outer" cx="31.5" cy="31.5" r="29.31" fill="none" stroke="#000" stroke-width="4.37"/>
</svg>