<?xml version="1.0" encoding="UTF-8"?>
<svg id="Layer_1" xmlns="http://www.w3.org/2000/svg" version="1.1" viewBox="0 0 95 95">
  <!-- Generator: Adobe Illustrator 30.1.0, SVG Export Plug-In . SVG Version: 2.1.1 Build 136)  -->
  <path d="M47.5,8.25c1.28,0,2.55.66,3.22,1.99l8.21,16.3c1.41,2.8,4.04,4.78,7.11,5.35l17.76,3.33c2.78.52,3.9,3.9,2,5.99l-12.94,14.2c-2,2.19-2.93,5.15-2.54,8.1l2.53,19.15c.3,2.28-1.52,4.09-3.57,4.09-.54,0-1.11-.13-1.65-.41l-15.54-8c-1.44-.74-3.01-1.11-4.59-1.11s-3.15.37-4.59,1.11l-15.54,8c-.54.28-1.1.41-1.65.41-2.05,0-3.87-1.81-3.57-4.09l2.53-19.16c.39-2.94-.54-5.9-2.53-8.09l-12.94-14.2c-1.91-2.09-.78-5.47,2-5.99l17.76-3.33c3.07-.58,5.7-2.55,7.11-5.35l8.21-16.3c.67-1.32,1.94-1.99,3.22-1.99M47.5,0C42.99,0,38.94,2.5,36.91,6.53l-8.21,16.3c-.25.49-.72.85-1.26.95l-17.76,3.33c-4.22.79-7.7,3.82-9.06,7.89-1.37,4.08-.42,8.59,2.48,11.77l12.94,14.2c.36.39.52.92.45,1.45l-2.53,19.16c-.45,3.39.58,6.81,2.83,9.37,2.26,2.58,5.51,4.06,8.93,4.06,1.87,0,3.75-.46,5.43-1.32l15.54-8c.25-.13.53-.2.81-.2s.56.07.81.2l15.54,8c1.68.87,3.56,1.32,5.43,1.32,3.41,0,6.66-1.48,8.93-4.06,2.25-2.56,3.28-5.98,2.83-9.37l-2.53-19.15c-.07-.53.1-1.06.46-1.46l12.94-14.2c2.9-3.18,3.85-7.69,2.48-11.77-1.37-4.08-4.84-7.1-9.06-7.89l-17.76-3.33c-.54-.1-1.01-.46-1.26-.95l-8.21-16.3C56.06,2.5,52,0,47.5,0h0Z"/>
</svg>