<?xml version="1.0" encoding="UTF-8"?>
<svg id="Layer_1" xmlns="http://www.w3.org/2000/svg" version="1.1" viewBox="0 0 122 122">
  <!-- Generator: Adobe Illustrator 30.1.0, SVG Export Plug-In . SVG Version: 2.1.1 Build 136)  -->
  <path d="M61,25.7c1.15,0,2.3.6,2.9,1.79l7.39,14.66c1.27,2.52,3.63,4.3,6.4,4.81l15.98,3c2.5.47,3.51,3.5,1.8,5.39l-11.64,12.78c-1.8,1.97-2.63,4.64-2.28,7.28l2.27,17.23c.27,2.05-1.37,3.68-3.21,3.68-.49,0-.99-.11-1.48-.37l-13.98-7.2c-1.3-.67-2.71-1-4.13-1-1.42,0-2.83.33-4.13,1l-13.98,7.2c-.49.25-.99.37-1.48.37-1.85,0-3.49-1.63-3.21-3.68l2.27-17.23c.35-2.64-.49-5.31-2.28-7.27l-11.64-12.78c-1.72-1.88-.7-4.92,1.8-5.39l15.98-2.99c2.76-.52,5.13-2.3,6.39-4.81l7.39-14.66c.6-1.19,1.75-1.79,2.9-1.79M61,0C50,0,40.1,6.1,35.15,15.92l-3.68,7.3-7.86,1.47c-10.31,1.93-18.78,9.31-22.11,19.26-3.33,9.95-1.01,20.94,6.05,28.7l6.43,7.05-1.26,9.56c-1.09,8.27,1.43,16.6,6.92,22.86,5.5,6.28,13.44,9.88,21.77,9.88,4.58,0,9.16-1.11,13.25-3.22l6.34-3.26,6.34,3.26c4.09,2.1,8.67,3.22,13.25,3.22,8.33,0,16.26-3.6,21.77-9.88,5.49-6.26,8.01-14.59,6.92-22.86l-1.26-9.56,6.43-7.06c7.07-7.75,9.38-18.75,6.05-28.7-3.33-9.94-11.8-17.32-22.11-19.25l-7.87-1.47-3.68-7.3C81.9,6.1,71.99,0,61,0h0Z"/>
</svg>