<?xml version="1.0" encoding="UTF-8"?>
<svg id="Layer_1" xmlns="http://www.w3.org/2000/svg" version="1.1" viewBox="0 0 122 122">
  <!-- Generator: Adobe Illustrator 30.1.0, SVG Export Plug-In . SVG Version: 2.1.1 Build 136)  -->
  <path d="M61,23.56c1.22,0,2.43.63,3.07,1.89l7.83,15.55c1.34,2.67,3.85,4.56,6.78,5.1l16.94,3.18c2.65.5,3.72,3.72,1.91,5.71l-12.35,13.55c-1.9,2.09-2.79,4.92-2.42,7.72l2.41,18.27c.29,2.18-1.45,3.91-3.41,3.91-.52,0-1.05-.12-1.57-.39l-14.82-7.63c-1.37-.71-2.88-1.06-4.38-1.06s-3,.35-4.38,1.06l-14.82,7.63c-.52.27-1.05.39-1.57.39-1.96,0-3.7-1.73-3.41-3.91l2.41-18.27c.37-2.8-.52-5.63-2.42-7.71l-12.35-13.55c-1.82-2-.74-5.22,1.91-5.72l16.94-3.18c2.93-.55,5.44-2.44,6.78-5.1l7.83-15.55c.64-1.26,1.85-1.89,3.07-1.89M61,0c-10.26,0-19.5,5.69-24.11,14.85l-4.72,9.37-10.13,1.9c-9.62,1.8-17.52,8.69-20.63,17.97-3.11,9.28-.95,19.54,5.65,26.78l7.97,8.75-1.56,11.84c-1.02,7.72,1.34,15.49,6.46,21.33,5.14,5.86,12.54,9.22,20.31,9.22,4.27,0,8.55-1.04,12.36-3l8.41-4.33,8.41,4.33c3.81,1.96,8.09,3,12.36,3,7.77,0,15.17-3.36,20.31-9.22,5.12-5.84,7.47-13.62,6.46-21.33l-1.56-11.84,7.97-8.75c6.59-7.23,8.76-17.49,5.65-26.78-3.11-9.28-11.01-16.16-20.63-17.96l-10.14-1.9-4.72-9.37C80.5,5.69,71.26,0,61,0h0Z"/>
</svg>