<?xml version="1.0" encoding="UTF-8"?>
<svg id="Layer_1" xmlns="http://www.w3.org/2000/svg" version="1.1" viewBox="0 0 122 122">
  <!-- Generator: Adobe Illustrator 30.1.0, SVG Export Plug-In . SVG Version: 2.1.1 Build 136)  -->
  <path d="M61,8.46c1.71,0,3.42.89,4.31,2.66l10.99,21.82c1.89,3.74,5.41,6.39,9.52,7.16l23.78,4.46c3.72.7,5.23,5.22,2.68,8.01l-17.32,19.01c-2.67,2.93-3.92,6.9-3.4,10.84l3.38,25.63c.4,3.06-2.03,5.48-4.78,5.48-.73,0-1.48-.17-2.21-.54l-20.8-10.71c-1.93-.99-4.04-1.49-6.14-1.49-2.11,0-4.22.5-6.14,1.49l-20.8,10.71c-.73.37-1.48.54-2.21.54-2.75,0-5.19-2.42-4.78-5.48l3.38-25.64c.52-3.93-.72-7.9-3.39-10.83l-17.33-19.01c-2.55-2.8-1.04-7.32,2.68-8.02l23.78-4.46c4.11-.77,7.63-3.42,9.51-7.16l10.99-21.82c.89-1.77,2.6-2.66,4.31-2.66M61,0c-5.05,0-9.59,2.8-11.87,7.31l-10.99,21.82c-.69,1.38-2.01,2.37-3.51,2.65l-23.78,4.46c-4.73.89-8.62,4.28-10.15,8.85-1.53,4.57-.47,9.63,2.78,13.19l17.33,19.01c.99,1.09,1.45,2.55,1.26,4.02l-3.38,25.64c-.5,3.8.65,7.63,3.17,10.5,2.54,2.89,6.18,4.55,10,4.55,2.09,0,4.2-.51,6.08-1.48l20.8-10.71c.7-.36,1.48-.55,2.27-.55.79,0,1.57.19,2.27.55l20.8,10.71c1.88.97,3.99,1.48,6.08,1.48,3.82,0,7.47-1.66,10-4.55,2.52-2.87,3.67-6.7,3.17-10.5l-3.38-25.63c-.19-1.47.27-2.94,1.26-4.03l17.32-19.01c3.25-3.56,4.31-8.62,2.78-13.19-1.53-4.57-5.42-7.96-10.15-8.84l-23.78-4.46c-1.51-.28-2.82-1.27-3.52-2.65l-10.99-21.82c-2.27-4.51-6.82-7.31-11.87-7.31h0Z"/>
</svg>