<?xml version="1.0" encoding="UTF-8"?>
<svg id="Layer_1" xmlns="http://www.w3.org/2000/svg" version="1.1" viewBox="0 0 45 45">
  <!-- Generator: Adobe Illustrator 30.1.0, SVG Export Plug-In . SVG Version: 2.1.1 Build 136)  -->
  <circle id="Outer" cx="22.5" cy="22.5" r="18.95" fill="none" stroke="#000" stroke-width="7.1"/>
  <g>
    <g>
      <rect x="21.07" y="28.72" width="2.84" height="2.84"/>
      <path d="M23.34,29.28v1.71h-1.71v-1.71h1.71M24.47,28.16h-3.96v3.96h3.96v-3.96h0Z"/>
    </g>
    <g>
      <path d="M21.08,25.85v-1.2c0-.96.35-1.87.98-2.57l1.69-1.88c.37-.41.58-.94.58-1.49,0-.7-.58-1.27-1.29-1.27h-1.09c-.71,0-1.28.57-1.28,1.27v.56h-2.85v-.56c0-2.27,1.86-4.11,4.14-4.11h1.09c2.28,0,4.14,1.84,4.14,4.11,0,1.25-.46,2.46-1.3,3.39l-1.7,1.88c-.17.19-.26.42-.26.67v1.21h-2.84Z"/>
      <path d="M23.04,15.16c1.97,0,3.57,1.59,3.57,3.55,0,1.11-.41,2.18-1.16,3.01l-1.7,1.88c-.26.29-.41.65-.41,1.04v.65h-1.72v-.65c0-.81.3-1.58.84-2.19l1.69-1.88c.46-.51.72-1.18.72-1.87,0-1.01-.83-1.83-1.85-1.83h-1.09c-1.02,0-1.85.82-1.85,1.83h-1.73c0-1.96,1.6-3.55,3.57-3.55h1.09M23.04,14.04h-1.09c-2.59,0-4.7,2.1-4.7,4.67v1.12h3.98v-1.12c0-.39.32-.71.72-.71h1.09c.4,0,.72.32.72.71,0,.41-.15.81-.43,1.11l-1.69,1.88c-.73.81-1.13,1.85-1.14,2.94v.66s.02,1.12.02,1.12h3.94v-1.11s.02-.65.02-.65c0-.12.04-.21.12-.3l1.7-1.88c.94-1.04,1.45-2.37,1.45-3.76,0-2.58-2.11-4.67-4.7-4.67h0Z"/>
    </g>
  </g>
</svg>