<?xml version="1.0" encoding="UTF-8"?>
<svg id="Layer_1" xmlns="http://www.w3.org/2000/svg" version="1.1" viewBox="0 0 45 45">
  <!-- Generator: Adobe Illustrator 30.1.0, SVG Export Plug-In . SVG Version: 2.1.1 Build 136)  -->
  <circle id="Outer" cx="22.5" cy="22.5" r="19.75" fill="none" stroke="#000" stroke-width="5.5"/>
  <g>
    <g>
      <rect x="21.08" y="29.33" width="2.82" height="2.82"/>
      <path d="M23.48,29.75v1.98h-1.98v-1.98h1.98M24.32,28.91h-3.67v3.67h3.67v-3.67h0Z"/>
    </g>
    <g>
      <path d="M21.08,26.32v-1.17c0-1.04.38-2.04,1.08-2.82l1.96-2.17c.47-.52.72-1.18.72-1.87,0-.94-.77-1.7-1.71-1.7h-1.26c-.94,0-1.71.76-1.71,1.7v.42h-2.84v-.42c0-2.49,2.04-4.52,4.55-4.52h1.26c2.51,0,4.55,2.03,4.55,4.52,0,1.39-.51,2.73-1.45,3.76l-1.96,2.17c-.24.26-.36.58-.37.92v1.17h-2.82Z"/>
      <path d="M23.13,14.2c2.28,0,4.13,1.84,4.13,4.1,0,1.29-.48,2.52-1.34,3.48l-1.96,2.17c-.3.34-.47.75-.47,1.2v.75h-1.99v-.75c0-.94.34-1.83.97-2.53l1.96-2.17c.54-.59.83-1.36.83-2.16,0-1.17-.96-2.12-2.13-2.12h-1.26c-1.18,0-2.13.95-2.13,2.12h-2c0-2.26,1.85-4.1,4.13-4.1h1.26M23.13,13.35h-1.26c-2.74,0-4.97,2.22-4.97,4.94v.84h3.68v-.84c0-.7.58-1.28,1.29-1.28h1.26c.71,0,1.29.57,1.29,1.28,0,.59-.22,1.15-.61,1.59l-1.96,2.17c-.77.85-1.19,1.95-1.2,3.09v.76s.01.84.01.84h3.65v-.84s.02-.75.02-.75c0-.25.09-.46.26-.65l1.96-2.17c1-1.11,1.56-2.55,1.56-4.05,0-2.73-2.23-4.94-4.97-4.94h0Z"/>
    </g>
  </g>
</svg>