<?xml version="1.0" encoding="UTF-8"?>
<svg id="Layer_1" xmlns="http://www.w3.org/2000/svg" version="1.1" viewBox="0 0 45 45">
  <!-- Generator: Adobe Illustrator 30.1.0, SVG Export Plug-In . SVG Version: 2.1.1 Build 136)  -->
  <circle id="Outer" cx="22.5" cy="22.5" r="18.15" fill="none" stroke="#000" stroke-width="8.69"/>
  <g>
    <g>
      <rect x="21.06" y="28.11" width="2.87" height="2.87"/>
      <path d="M23.22,28.81v1.46h-1.46v-1.46h1.46M24.63,27.41h-4.27v4.27h4.27v-4.27h0Z"/>
    </g>
    <g>
      <path d="M21.06,25.43v-1.25c0-.87.31-1.7.89-2.34l1.45-1.6c.28-.31.43-.71.43-1.12,0-.48-.39-.86-.87-.86h-.93c-.48,0-.87.39-.87.86v.7h-2.88v-.7c0-2.06,1.68-3.73,3.75-3.73h.93c2.07,0,3.75,1.67,3.75,3.73,0,1.12-.42,2.2-1.17,3.04l-1.45,1.6c-.11.12-.17.27-.17.42v1.25h-2.87Z"/>
      <path d="M22.96,16.08c1.68,0,3.05,1.36,3.05,3.03,0,.95-.35,1.86-.99,2.57l-1.45,1.6c-.22.25-.35.56-.35.89v.55h-1.47v-.55c0-.69.25-1.35.72-1.87l1.45-1.6c.4-.44.61-1,.61-1.59,0-.86-.71-1.57-1.58-1.57h-.93c-.87,0-1.58.7-1.58,1.57h-1.47c0-1.67,1.37-3.03,3.05-3.03h.93M22.96,14.68h-.93c-2.46,0-4.46,1.99-4.46,4.43v1.41h4.29v-1.41c0-.09.08-.16.17-.16h.93c.09,0,.17.07.17.16,0,.24-.09.47-.25.65l-1.45,1.6c-.7.77-1.08,1.77-1.09,2.8v.57s.02,1.39.02,1.39h4.25v-1.39s.02-.53.02-.53l1.43-1.59c.87-.97,1.35-2.21,1.35-3.51,0-2.45-2-4.43-4.46-4.43h0Z"/>
    </g>
  </g>
</svg>