<?xml version="1.0" encoding="UTF-8"?>
<svg id="Layer_1" xmlns="http://www.w3.org/2000/svg" version="1.1" viewBox="0 0 45 45">
  <!-- Generator: Adobe Illustrator 30.1.0, SVG Export Plug-In . SVG Version: 2.1.1 Build 136)  -->
  <circle id="Outer" cx="22.5" cy="22.5" r="17.76" fill="none" stroke="#000" stroke-width="9.48"/>
  <g>
    <g>
      <rect x="21.05" y="27.8" width="2.89" height="2.89"/>
      <path d="M23.16,28.58v1.34h-1.34v-1.34h1.34M24.71,27.03h-4.44v4.44h4.44v-4.44h0Z"/>
    </g>
    <g>
      <path d="M21.06,25.24v-1.27c0-.83.3-1.63.85-2.24l1.33-1.47c.24-.26.37-.6.37-.95,0-.37-.3-.66-.67-.66h-.85c-.37,0-.67.3-.67.66v.77h-2.9v-.77c0-1.96,1.6-3.56,3.58-3.56h.85c1.97,0,3.58,1.6,3.58,3.56,0,1.06-.39,2.09-1.11,2.88l-1.33,1.47c-.08.09-.12.19-.12.3v1.28h-2.89Z"/>
      <path d="M22.93,16.52c1.54,0,2.8,1.25,2.8,2.78,0,.87-.32,1.71-.91,2.36l-1.33,1.47c-.21.23-.32.51-.32.82v.51h-1.35v-.51c0-.64.23-1.24.66-1.71l1.33-1.47c.36-.4.56-.92.56-1.46,0-.79-.65-1.44-1.45-1.44h-.85c-.8,0-1.45.65-1.45,1.44h-1.35c0-1.53,1.26-2.78,2.8-2.78h.85M22.93,14.98h-.85c-2.4,0-4.35,1.94-4.35,4.33v1.55h3.93l-.32.35c-.68.75-1.06,1.73-1.06,2.75v.53s.02,1.53.02,1.53h4.41l.02-1.53v-.39s1.26-1.39,1.26-1.39c.84-.93,1.31-2.14,1.31-3.4,0-2.39-1.95-4.33-4.35-4.33h0ZM22.17,19.41h.65c-.02.12-.07.23-.16.32l-.49.54v-.86h0Z"/>
    </g>
  </g>
</svg>