<?xml version="1.0" encoding="UTF-8"?>
<svg id="Layer_1" xmlns="http://www.w3.org/2000/svg" version="1.1" viewBox="0 0 45 45">
  <!-- Generator: Adobe Illustrator 30.1.0, SVG Export Plug-In . SVG Version: 2.1.1 Build 136)  -->
  <circle id="Outer" cx="22.5" cy="22.5" r="20.55" fill="none" stroke="#000" stroke-width="3.91"/>
  <g>
    <g>
      <rect x="21.08" y="29.93" width="2.82" height="2.82"/>
      <path d="M23.61,30.21v2.25h-2.25v-2.25h2.25M24.18,29.65h-3.38v3.38h3.38v-3.38h0Z"/>
    </g>
    <g>
      <path d="M21.08,26.82v-1.13c0-1.14.42-2.23,1.18-3.07l2.23-2.47c.57-.63.88-1.43.88-2.27,0-1.18-.97-2.13-2.15-2.13h-1.43c-1.19,0-2.15.96-2.15,2.13v.28h-2.84v-.28c0-2.73,2.24-4.96,4.99-4.96h1.43c2.75,0,4.99,2.22,4.99,4.96,0,1.54-.57,3.01-1.6,4.15l-2.23,2.47c-.3.34-.47.75-.47,1.19v1.13h-2.82Z"/>
      <path d="M23.22,13.2c2.6,0,4.71,2.1,4.71,4.67,0,1.47-.54,2.87-1.53,3.97l-2.23,2.47c-.35.38-.54.86-.54,1.37v.85h-2.26v-.85c0-1.07.39-2.09,1.11-2.88l2.23-2.47c.61-.68.95-1.55.95-2.46,0-1.33-1.09-2.42-2.43-2.42h-1.43c-1.34,0-2.43,1.08-2.43,2.42h-2.27c0-2.58,2.11-4.67,4.71-4.67h1.43M23.22,12.64h-1.43c-2.91,0-5.27,2.35-5.27,5.24v.56h3.4v-.56c0-1.02.84-1.85,1.87-1.85h1.43c1.03,0,1.87.83,1.87,1.85,0,.77-.29,1.51-.8,2.08l-2.23,2.47c-.81.89-1.26,2.05-1.26,3.26v.86s.01.56.01.56h3.37v-.56s.01-.85.01-.85c0-.37.14-.72.39-1l2.23-2.47c1.08-1.2,1.67-2.74,1.67-4.34,0-2.89-2.36-5.24-5.27-5.24h0Z"/>
    </g>
  </g>
</svg>