<?xml version="1.0" encoding="UTF-8"?>
<svg id="Layer_1" xmlns="http://www.w3.org/2000/svg" version="1.1" viewBox="0 0 45 45">
  <!-- Generator: Adobe Illustrator 30.1.0, SVG Export Plug-In . SVG Version: 2.1.1 Build 136)  -->
  <circle id="Outer" cx="22.5" cy="22.5" r="20.94" fill="none" stroke="#000" stroke-width="3.12"/>
  <g>
    <g>
      <rect x="21.08" y="30.23" width="2.82" height="2.82"/>
      <path d="M23.68,30.44v2.4h-2.4v-2.4h2.4M24.11,30.01h-3.24v3.24h3.24v-3.24h0Z"/>
    </g>
    <g>
      <path d="M21.08,27.08v-1.12c0-1.19.44-2.33,1.23-3.21l2.37-2.63c.61-.68.95-1.56.95-2.47,0-1.3-1.07-2.36-2.38-2.36h-1.52c-1.31,0-2.37,1.06-2.37,2.36v.21h-2.84v-.21c0-2.86,2.34-5.18,5.21-5.18h1.52c2.88,0,5.21,2.32,5.21,5.18,0,1.61-.6,3.16-1.68,4.36l-2.37,2.63c-.34.37-.52.83-.52,1.32v1.12h-2.83Z"/>
      <path d="M23.26,12.69c2.76,0,5,2.23,5,4.97,0,1.56-.58,3.05-1.62,4.21l-2.37,2.63c-.37.41-.57.91-.57,1.46v.91h-2.4v-.91c0-1.14.41-2.22,1.18-3.06l2.37-2.63c.65-.72,1.01-1.65,1.01-2.61,0-1.42-1.16-2.57-2.59-2.57h-1.52c-1.43,0-2.59,1.15-2.59,2.57h-2.42c0-2.74,2.24-4.97,5-4.97h1.52M23.26,12.27h-1.52c-2.99,0-5.42,2.42-5.42,5.39v.42h3.26v-.42c0-1.18.97-2.15,2.16-2.15h1.52c1.19,0,2.16.96,2.16,2.15,0,.86-.32,1.69-.9,2.33l-2.37,2.63c-.83.92-1.29,2.11-1.3,3.34v.91s.01.42.01.42h3.23v-.42s.01-.91.01-.91c0-.44.16-.85.46-1.18l2.37-2.63c1.12-1.24,1.73-2.84,1.73-4.5,0-2.97-2.43-5.39-5.42-5.39h0Z"/>
    </g>
  </g>
</svg>