<?xml version="1.0" encoding="UTF-8"?>
<svg id="Layer_1" xmlns="http://www.w3.org/2000/svg" version="1.1" viewBox="0 0 70 70">
  <!-- Generator: Adobe Illustrator 30.1.0, SVG Export Plug-In . SVG Version: 2.1.1 Build 136)  -->
  <path d="M35,13.52c.7,0,1.4.36,1.76,1.09l4.49,8.92c.77,1.53,2.21,2.61,3.89,2.93l9.72,1.82c1.52.28,2.14,2.13,1.09,3.28l-7.08,7.77c-1.09,1.2-1.6,2.82-1.39,4.43l1.38,10.48c.16,1.25-.83,2.24-1.96,2.24-.3,0-.61-.07-.9-.22l-8.5-4.38c-.79-.41-1.65-.61-2.51-.61-.86,0-1.72.2-2.51.61l-8.5,4.38c-.3.15-.6.22-.9.22-1.12,0-2.12-.99-1.96-2.24l1.38-10.48c.21-1.61-.3-3.23-1.39-4.43l-7.08-7.77c-1.04-1.15-.43-2.99,1.09-3.28l9.72-1.82c1.68-.32,3.12-1.4,3.89-2.93l4.49-8.92c.36-.72,1.06-1.09,1.76-1.09M35,0C29.11,0,23.81,3.27,21.16,8.52l-2.71,5.38-5.81,1.09c-5.52,1.03-10.05,4.98-11.84,10.31-1.78,5.33-.54,11.21,3.24,15.36l4.57,5.02-.9,6.79c-.58,4.43.77,8.89,3.7,12.24,2.95,3.36,7.19,5.29,11.65,5.29,2.45,0,4.9-.6,7.09-1.72l4.83-2.49,4.83,2.49c2.19,1.13,4.64,1.72,7.09,1.72,4.46,0,8.71-1.93,11.65-5.29,2.94-3.35,4.29-7.81,3.7-12.24l-.9-6.79,4.58-5.02c3.78-4.15,5.02-10.04,3.24-15.36-1.78-5.32-6.32-9.27-11.84-10.31l-5.82-1.09-2.71-5.38C46.19,3.27,40.88,0,35,0h0Z"/>
</svg>