<?xml version="1.0" encoding="UTF-8"?>
<svg id="Layer_1" xmlns="http://www.w3.org/2000/svg" version="1.1" viewBox="0 0 70 70">
  <!-- Generator: Adobe Illustrator 30.1.0, SVG Export Plug-In . SVG Version: 2.1.1 Build 136)  -->
  <path d="M35,11.05c.78,0,1.56.4,1.96,1.21l5.01,9.95c.86,1.71,2.46,2.91,4.34,3.27l10.84,2.03c1.69.32,2.38,2.38,1.22,3.65l-7.9,8.67c-1.22,1.34-1.79,3.15-1.55,4.94l1.54,11.69c.18,1.39-.93,2.5-2.18,2.5-.33,0-.67-.08-1.01-.25l-9.48-4.88c-.88-.45-1.84-.68-2.8-.68s-1.92.23-2.8.68l-9.48,4.88c-.33.17-.67.25-1.01.25-1.25,0-2.36-1.1-2.18-2.5l1.54-11.69c.24-1.79-.33-3.6-1.55-4.94l-7.9-8.67c-1.16-1.28-.48-3.34,1.22-3.66l10.84-2.03c1.87-.35,3.48-1.56,4.34-3.26l5.01-9.95c.41-.81,1.19-1.21,1.96-1.21M35,0c-5.03,0-9.57,2.79-11.83,7.29l-3.92,7.77-8.44,1.58c-4.72.88-8.6,4.26-10.12,8.82-1.53,4.55-.46,9.59,2.77,13.14l6.36,6.98-1.24,9.43c-.5,3.79.65,7.6,3.17,10.47,2.52,2.88,6.15,4.52,9.97,4.52,2.09,0,4.19-.51,6.06-1.47l7.23-3.72,7.23,3.72c1.87.96,3.97,1.47,6.06,1.47,3.81,0,7.45-1.65,9.97-4.52,2.51-2.86,3.67-6.68,3.17-10.47l-1.24-9.43,6.36-6.98c3.23-3.55,4.3-8.58,2.77-13.14-1.53-4.55-5.4-7.93-10.12-8.81l-8.44-1.58-3.92-7.77c-2.26-4.5-6.8-7.29-11.83-7.29h0Z"/>
</svg>