<?xml version="1.0" encoding="UTF-8"?>
<svg id="Layer_1" xmlns="http://www.w3.org/2000/svg" version="1.1" viewBox="0 0 70 70">
  <!-- Generator: Adobe Illustrator 30.1.0, SVG Export Plug-In . SVG Version: 2.1.1 Build 136)  -->
  <path d="M35,14.74c.66,0,1.32.34,1.66,1.02l4.24,8.41c.73,1.44,2.08,2.46,3.67,2.76l9.17,1.72c1.43.27,2.01,2.01,1.03,3.09l-6.68,7.33c-1.03,1.13-1.51,2.66-1.31,4.18l1.3,9.88c.16,1.18-.78,2.11-1.84,2.11-.28,0-.57-.07-.85-.21l-8.02-4.13c-.74-.38-1.56-.57-2.37-.57s-1.63.19-2.37.57l-8.02,4.13c-.28.14-.57.21-.85.21-1.06,0-2-.93-1.84-2.11l1.3-9.89c.2-1.52-.28-3.04-1.31-4.17l-6.68-7.33c-.98-1.08-.4-2.82,1.03-3.09l9.17-1.72c1.58-.3,2.94-1.32,3.67-2.76l4.24-8.41c.34-.68,1-1.02,1.66-1.02M35,0C28.69,0,23.01,3.5,20.17,9.14l-2.11,4.19-4.51.85c-5.91,1.11-10.77,5.34-12.69,11.05-1.91,5.71-.58,12.02,3.47,16.47l3.69,4.05-.72,5.48c-.63,4.74.82,9.53,3.97,13.12,3.16,3.6,7.71,5.67,12.49,5.67,0,0,0,0,0,0,2.63,0,5.26-.64,7.6-1.85l3.64-1.87,3.64,1.87c2.35,1.21,4.97,1.85,7.6,1.85,4.78,0,9.33-2.07,12.49-5.67,3.15-3.59,4.6-8.37,3.97-13.12l-.72-5.48,3.69-4.05c4.05-4.45,5.38-10.76,3.47-16.47-1.91-5.71-6.77-9.94-12.69-11.05l-4.51-.85-2.11-4.19C46.99,3.5,41.31,0,35,0h0Z"/>
</svg>