<?xml version="1.0" encoding="UTF-8"?>
<svg id="Layer_1" xmlns="http://www.w3.org/2000/svg" version="1.1" viewBox="0 0 70 70">
  <!-- Generator: Adobe Illustrator 30.1.0, SVG Export Plug-In . SVG Version: 2.1.1 Build 136)  -->
  <path d="M35,6.08c.94,0,1.88.49,2.37,1.46l6.05,12.01c1.04,2.06,2.98,3.52,5.24,3.94l13.09,2.45c2.05.38,2.88,2.87,1.47,4.41l-9.54,10.46c-1.47,1.61-2.16,3.8-1.87,5.97l1.86,14.11c.22,1.68-1.12,3.02-2.63,3.02-.4,0-.81-.09-1.21-.3l-11.45-5.9c-1.06-.55-2.22-.82-3.38-.82-1.16,0-2.32.27-3.38.82l-11.45,5.9c-.4.21-.81.3-1.21.3-1.51,0-2.85-1.33-2.63-3.02l1.86-14.11c.29-2.17-.4-4.35-1.87-5.96l-9.54-10.47c-1.4-1.54-.57-4.03,1.47-4.41l13.09-2.45c2.26-.42,4.2-1.88,5.24-3.94l6.05-12.01c.49-.98,1.43-1.46,2.37-1.46M35,0h0c-3.32,0-6.31,1.84-7.8,4.81l-6.05,12.01c-.18.36-.53.63-.93.7l-13.09,2.45c-3.11.58-5.67,2.81-6.68,5.82-1.01,3.01-.31,6.33,1.83,8.67l9.54,10.47c.26.29.38.68.33,1.07l-1.86,14.11c-.33,2.5.43,5.02,2.09,6.9,1.67,1.9,4.06,2.99,6.58,2.99,1.38,0,2.76-.34,4-.97l11.45-5.9c.19-.1.39-.14.6-.14.21,0,.41.05.6.14l11.45,5.9c1.24.64,2.62.97,4,.97,2.51,0,4.91-1.09,6.58-2.99,1.65-1.89,2.41-4.4,2.09-6.9l-1.86-14.11c-.05-.39.07-.78.34-1.07l9.54-10.46c2.13-2.34,2.84-5.66,1.83-8.67-1.01-3-3.56-5.23-6.68-5.81l-13.09-2.45c-.4-.07-.74-.34-.93-.7l-6.05-12.01c-1.49-2.97-4.48-4.81-7.8-4.81h0Z"/>
</svg>