<?xml version="1.0" encoding="UTF-8"?>
<svg id="Layer_1" xmlns="http://www.w3.org/2000/svg" version="1.1" viewBox="0 0 70 70">
  <!-- Generator: Adobe Illustrator 30.1.0, SVG Export Plug-In . SVG Version: 2.1.1 Build 136)  -->
  <path d="M35,8.55c.86,0,1.72.45,2.17,1.34l5.53,10.98c.95,1.88,2.72,3.22,4.79,3.61l11.97,2.24c1.87.35,2.63,2.63,1.35,4.03l-8.72,9.57c-1.35,1.48-1.97,3.47-1.71,5.46l1.7,12.9c.2,1.54-1.02,2.76-2.41,2.76-.37,0-.74-.09-1.11-.27l-10.47-5.39c-.97-.5-2.03-.75-3.09-.75-1.06,0-2.12.25-3.09.75l-10.47,5.39c-.37.19-.74.27-1.11.27-1.38,0-2.61-1.22-2.41-2.76l1.7-12.91c.26-1.98-.36-3.97-1.71-5.45l-8.72-9.57c-1.28-1.41-.53-3.69,1.35-4.04l11.97-2.24c2.07-.39,3.84-1.72,4.79-3.6l5.53-10.98c.45-.89,1.31-1.34,2.17-1.34M35,0c-4.17,0-7.93,2.32-9.81,6.04l-5.14,10.19-11.09,2.08c-3.91.73-7.13,3.53-8.39,7.31-1.27,3.78-.38,7.95,2.3,10.9l8.16,8.96-1.59,12.09c-.41,3.14.54,6.3,2.62,8.68,2.09,2.39,5.1,3.75,8.26,3.75,1.73,0,3.47-.42,5.03-1.22l9.65-4.97,9.65,4.97c1.55.8,3.29,1.22,5.03,1.22,3.16,0,6.17-1.37,8.26-3.75,2.08-2.37,3.04-5.54,2.62-8.68l-1.59-12.09,8.17-8.96c2.68-2.94,3.56-7.12,2.3-10.89-1.26-3.77-4.48-6.57-8.39-7.31l-11.1-2.08-5.14-10.19c-1.88-3.73-5.64-6.04-9.81-6.04h0Z"/>
</svg>