<?xml version="1.0" encoding="UTF-8"?>
<svg id="Layer_1" xmlns="http://www.w3.org/2000/svg" version="1.1" viewBox="0 0 93 93">
  <!-- Generator: Adobe Illustrator 30.1.0, SVG Export Plug-In . SVG Version: 2.1.1 Build 136)  -->
  <circle id="Outer" cx="46.5" cy="46.5" r="40.82" fill="none" stroke="#000" stroke-width="11.36"/>
  <g>
    <g>
      <rect x="43.56" y="60.62" width="5.83" height="5.83"/>
      <path d="M48.52,61.49v4.09h-4.09v-4.09h4.09M50.26,59.74h-7.57v7.57h7.57v-7.57h0Z"/>
    </g>
    <g>
      <path d="M43.57,54.4l-.02-2.41c0-2.16.81-4.22,2.25-5.82l4.05-4.48c.96-1.07,1.49-2.44,1.49-3.87,0-1.93-1.59-3.51-3.54-3.51h-2.6c-1.95,0-3.54,1.57-3.54,3.51v.87h-5.87v-.87c0-5.15,4.22-9.35,9.41-9.35h2.6c5.19,0,9.41,4.19,9.41,9.35,0,2.87-1.06,5.64-3,7.78l-4.05,4.49c-.49.54-.75,1.2-.75,1.91l-.02,2.42h-5.81Z"/>
      <path d="M47.8,29.34c4.71,0,8.54,3.8,8.54,8.48,0,2.66-.98,5.21-2.77,7.19l-4.05,4.49c-.63.69-.97,1.56-.98,2.49l-.02,1.55h-4.09v-1.55c0-1.94.71-3.78,2.01-5.22l4.05-4.48c1.11-1.23,1.72-2.81,1.72-4.46,0-2.42-1.98-4.38-4.41-4.38h-2.6c-2.43,0-4.41,1.97-4.41,4.38h-4.12c0-4.67,3.83-8.48,8.54-8.48h2.6M47.8,27.6h-2.6c-5.67,0-10.28,4.58-10.28,10.22v1.74h7.61v-1.74c0-1.45,1.2-2.64,2.67-2.64h2.6c1.47,0,2.67,1.18,2.67,2.64,0,1.22-.45,2.38-1.27,3.29l-4.05,4.48c-1.59,1.75-2.47,4.02-2.47,6.39v1.57s.03,1.73.03,1.73h7.54l.02-1.73.02-1.55c0-.51.18-.95.53-1.34l4.05-4.49c2.08-2.3,3.22-5.27,3.22-8.36,0-5.63-4.61-10.22-10.28-10.22h0Z"/>
    </g>
  </g>
</svg>