<?xml version="1.0" encoding="UTF-8"?>
<svg id="Layer_1" xmlns="http://www.w3.org/2000/svg" version="1.1" viewBox="0 0 93 93">
  <!-- Generator: Adobe Illustrator 30.1.0, SVG Export Plug-In . SVG Version: 2.1.1 Build 136)  -->
  <circle id="Outer" cx="46.5" cy="46.5" r="42.46" fill="none" stroke="#000" stroke-width="8.08"/>
  <g>
    <g>
      <rect x="43.56" y="61.85" width="5.82" height="5.82"/>
      <path d="M48.8,62.44v4.66h-4.66v-4.66h4.66M49.96,61.27h-6.98v6.98h6.98v-6.98h0Z"/>
    </g>
    <g>
      <path d="M43.57,55.43l-.02-2.34c0-2.35.88-4.61,2.46-6.35l4.61-5.11c1.17-1.29,1.81-2.96,1.81-4.69,0-2.43-2-4.41-4.45-4.41h-2.96c-2.45,0-4.45,1.98-4.45,4.41v.58h-5.86v-.58c0-5.65,4.62-10.24,10.31-10.24h2.96c5.68,0,10.31,4.59,10.31,10.24,0,3.17-1.17,6.22-3.31,8.59l-4.62,5.11c-.63.7-.96,1.54-.96,2.45l-.02,2.34h-5.81Z"/>
      <path d="M47.98,27.28c5.36,0,9.73,4.33,9.73,9.66,0,3.03-1.12,5.94-3.16,8.2l-4.62,5.11c-.71.79-1.11,1.77-1.11,2.84l-.02,1.76h-4.66l-.02-1.76c0-2.21.82-4.31,2.31-5.96l4.61-5.11c1.26-1.4,1.96-3.2,1.96-5.08,0-2.75-2.26-4.99-5.03-4.99h-2.96c-2.77,0-5.03,2.24-5.03,4.99h-4.7c0-5.33,4.36-9.66,9.73-9.66h2.96M47.98,26.12h-2.96c-6.01,0-10.89,4.86-10.89,10.82v1.16h7.03v-1.16c0-2.11,1.73-3.83,3.87-3.83h2.96c2.13,0,3.87,1.72,3.87,3.83,0,1.59-.59,3.12-1.66,4.3l-4.61,5.11c-1.67,1.85-2.6,4.24-2.61,6.73l.02,1.78v1.15h6.97v-1.15s.03-1.76.03-1.76c0-.77.28-1.48.81-2.07l4.62-5.11c2.23-2.47,3.46-5.66,3.46-8.98,0-5.97-4.89-10.82-10.89-10.82h0Z"/>
    </g>
  </g>
</svg>