<?xml version="1.0" encoding="UTF-8"?>
<svg id="Layer_1" xmlns="http://www.w3.org/2000/svg" version="1.1" viewBox="0 0 93 93">
  <!-- Generator: Adobe Illustrator 30.1.0, SVG Export Plug-In . SVG Version: 2.1.1 Build 136)  -->
  <circle id="Outer" cx="46.5" cy="46.5" r="36.71" fill="none" stroke="#000" stroke-width="19.59"/>
  <g>
    <g>
      <rect x="43.49" y="57.46" width="5.97" height="5.97"/>
      <path d="M47.86,59.06v2.77h-2.77v-2.77h2.77M51.06,55.86h-9.17v9.17h9.17v-9.17h0Z"/>
    </g>
    <g>
      <path d="M43.51,52.16l-.02-2.63c0-1.73.64-3.36,1.79-4.63l2.74-3.04c.49-.54.75-1.23.75-1.95,0-.76-.62-1.37-1.39-1.37h-1.76c-.77,0-1.39.62-1.39,1.37v1.6h-5.99v-1.6c0-4.05,3.31-7.35,7.39-7.35h1.76c4.07,0,7.39,3.3,7.39,7.35,0,2.2-.81,4.31-2.29,5.95l-2.75,3.04c-.17.18-.25.39-.25.62l-.03,2.64h-5.94Z"/>
      <path d="M47.38,34.15c3.19,0,5.79,2.58,5.79,5.75,0,1.8-.67,3.54-1.88,4.88l-2.75,3.04c-.43.47-.66,1.06-.66,1.69v1.05h-2.78v-1.05c0-1.31.48-2.57,1.36-3.54l2.75-3.04c.75-.83,1.17-1.91,1.17-3.02,0-1.64-1.34-2.97-2.99-2.97h-1.76c-1.65,0-2.99,1.33-2.99,2.97h-2.8c0-3.17,2.6-5.75,5.79-5.75h1.76M47.38,30.95h-1.76c-4.96,0-8.99,4.01-8.99,8.95v3.2h8.12l-.66.73c-1.41,1.56-2.19,3.57-2.2,5.67v1.09s.04,3.17.04,3.17h9.11l.03-3.16v-.8s2.6-2.87,2.6-2.87c1.74-1.93,2.7-4.42,2.7-7.02,0-4.93-4.03-8.95-8.99-8.95h0ZM45.82,40.12h1.34c-.04.24-.15.47-.32.66l-1.01,1.12v-1.78h0Z"/>
    </g>
  </g>
</svg>