<?xml version="1.0" encoding="UTF-8"?>
<svg id="Layer_1" xmlns="http://www.w3.org/2000/svg" version="1.1" viewBox="0 0 93 93">
  <!-- Generator: Adobe Illustrator 30.1.0, SVG Export Plug-In . SVG Version: 2.1.1 Build 136)  -->
  <circle id="Outer" cx="46.5" cy="46.5" r="37.52" fill="none" stroke="#000" stroke-width="17.96"/>
  <g>
    <g>
      <rect x="43.52" y="58.09" width="5.92" height="5.92"/>
      <path d="M47.99,59.54v3.02h-3.02v-3.02h3.02M50.89,56.64h-8.83v8.83h8.83v-8.83h0Z"/>
    </g>
    <g>
      <path d="M43.53,52.56l-.02-2.58c0-1.81.67-3.52,1.87-4.85l2.99-3.31c.58-.64.89-1.46.89-2.32,0-.98-.81-1.78-1.8-1.78h-1.92c-1,0-1.8.8-1.8,1.78v1.45h-5.95v-1.45c0-4.25,3.48-7.71,7.76-7.71h1.92c4.28,0,7.76,3.46,7.76,7.71,0,2.32-.86,4.56-2.42,6.28l-2.99,3.31c-.23.25-.35.55-.35.87l-.02,2.59h-5.9Z"/>
      <path d="M47.46,33.24c3.48,0,6.3,2.81,6.3,6.26,0,1.96-.73,3.85-2.05,5.31l-2.99,3.31c-.46.51-.72,1.15-.72,1.84v1.14h-3.03v-1.14c0-1.43.52-2.79,1.49-3.86l2.99-3.31c.82-.91,1.27-2.08,1.27-3.29,0-1.78-1.46-3.23-3.26-3.23h-1.92c-1.8,0-3.26,1.45-3.26,3.23h-3.05c0-3.45,2.83-6.26,6.3-6.26h1.92M47.46,30.33h-1.92c-5.08,0-9.21,4.11-9.21,9.16v2.91h8.86v-2.91c0-.18.16-.33.35-.33h1.92c.19,0,.35.15.35.33,0,.5-.18.97-.52,1.34l-2.99,3.31c-1.44,1.59-2.24,3.65-2.24,5.8v1.18s.04,2.88.04,2.88h8.78l.03-2.88v-1.09s2.97-3.28,2.97-3.28c1.8-2,2.8-4.57,2.8-7.26,0-5.05-4.13-9.16-9.21-9.16h0Z"/>
    </g>
  </g>
</svg>