<?xml version="1.0" encoding="UTF-8"?>
<svg id="Layer_1" xmlns="http://www.w3.org/2000/svg" version="1.1" viewBox="0 0 93 93">
  <!-- Generator: Adobe Illustrator 30.1.0, SVG Export Plug-In . SVG Version: 2.1.1 Build 136)  -->
  <circle id="Outer" cx="46.5" cy="46.5" r="39.16" fill="none" stroke="#000" stroke-width="14.68"/>
  <g>
    <g>
      <rect x="43.54" y="59.36" width="5.86" height="5.86"/>
      <path d="M48.24,60.52v3.54h-3.54v-3.54h3.54M50.57,58.19h-8.19v8.19h8.19v-8.19h0Z"/>
    </g>
    <g>
      <path d="M43.56,53.43l-.02-2.49c0-1.97.74-3.85,2.05-5.31l3.5-3.88c.77-.85,1.19-1.94,1.19-3.08,0-1.45-1.19-2.63-2.65-2.63h-2.25c-1.46,0-2.65,1.18-2.65,2.63v1.16h-5.89v-1.16c0-4.68,3.83-8.5,8.55-8.5h2.25c4.71,0,8.55,3.81,8.55,8.5,0,2.59-.96,5.08-2.7,7l-3.5,3.88c-.36.39-.54.87-.55,1.38l-.03,2.5h-5.84Z"/>
      <path d="M47.62,31.34c4.07,0,7.38,3.29,7.38,7.33,0,2.3-.85,4.51-2.4,6.22l-3.5,3.88c-.54.6-.84,1.35-.85,2.15v1.34h-3.55v-1.34c0-1.68.61-3.27,1.74-4.52l3.5-3.88c.96-1.06,1.49-2.43,1.49-3.86,0-2.09-1.71-3.79-3.82-3.79h-2.25c-2.1,0-3.82,1.7-3.82,3.79h-3.57c0-4.04,3.31-7.33,7.38-7.33h2.25M47.62,29.02h-2.25c-5.35,0-9.71,4.33-9.71,9.66v2.33h8.22v-2.33c0-.81.67-1.47,1.49-1.47h2.25c.82,0,1.49.66,1.49,1.47,0,.85-.32,1.67-.89,2.3l-3.5,3.88c-1.51,1.67-2.34,3.82-2.35,6.07v1.37s.03,2.3.03,2.3h8.14l.02-2.3v-1.34c.01-.24.09-.44.26-.62l3.5-3.88c1.93-2.14,3-4.9,3-7.78,0-5.33-4.36-9.66-9.71-9.66h0Z"/>
    </g>
  </g>
</svg>