<?xml version="1.0" encoding="UTF-8"?>
<svg id="Layer_1" xmlns="http://www.w3.org/2000/svg" version="1.1" viewBox="0 0 93 93">
  <!-- Generator: Adobe Illustrator 30.1.0, SVG Export Plug-In . SVG Version: 2.1.1 Build 136)  -->
  <circle id="Outer" cx="46.5" cy="46.5" r="43.27" fill="none" stroke="#000" stroke-width="6.45"/>
  <g>
    <g>
      <rect x="43.56" y="62.47" width="5.82" height="5.82"/>
      <path d="M48.95,62.9v4.95h-4.95v-4.95h4.95M49.82,62.03h-6.69v6.69h6.69v-6.69h0Z"/>
    </g>
    <g>
      <path d="M43.57,55.97l-.02-2.3c0-2.46.92-4.81,2.57-6.62l4.9-5.43c1.27-1.41,1.97-3.22,1.97-5.11,0-2.69-2.2-4.87-4.91-4.87h-3.15c-2.71,0-4.91,2.18-4.91,4.87v.44h-5.87v-.44c0-5.9,4.83-10.7,10.77-10.7h3.15c5.94,0,10.77,4.8,10.77,10.7,0,3.33-1.23,6.52-3.47,9l-4.91,5.43c-.7.77-1.07,1.71-1.07,2.72l-.02,2.31h-5.81Z"/>
      <path d="M48.07,26.24c5.7,0,10.34,4.61,10.34,10.27,0,3.22-1.19,6.31-3.36,8.71l-4.9,5.43c-.76.84-1.18,1.88-1.18,3.02l-.02,1.87h-4.95l-.02-1.87c0-2.35.87-4.58,2.45-6.33l4.9-5.43c1.34-1.49,2.08-3.4,2.08-5.4,0-2.93-2.4-5.31-5.34-5.31h-3.15c-2.95,0-5.34,2.38-5.34,5.31h-4.99c0-5.66,4.64-10.27,10.34-10.27h3.15M48.07,25.36h-3.15c-6.18,0-11.21,5-11.21,11.14v.87h6.74v-.87c0-2.44,2.01-4.43,4.47-4.43h3.15c2.47,0,4.47,1.99,4.47,4.43,0,1.78-.66,3.49-1.86,4.82l-4.9,5.43c-1.72,1.9-2.67,4.35-2.68,6.91l.02,1.88v.86h6.69v-.86s.03-1.87.03-1.87c0-.91.33-1.75.96-2.44l4.91-5.43c2.31-2.56,3.58-5.86,3.58-9.3,0-6.14-5.03-11.14-11.21-11.14h0Z"/>
    </g>
  </g>
</svg>