<?xml version="1.0" encoding="UTF-8"?>
<svg id="Layer_1" xmlns="http://www.w3.org/2000/svg" version="1.1" viewBox="0 0 21 21">
  <!-- Generator: Adobe Illustrator 30.1.0, SVG Export Plug-In . SVG Version: 2.1.1 Build 136)  -->
  <circle id="Outer" cx="10.5" cy="10.5" r="8.47" fill="none" stroke="#000" stroke-width="4.06"/>
  <g>
    <g>
      <rect x="9.83" y="13.12" width="1.34" height="1.34"/>
      <path d="M10.84,13.45v.68h-.68v-.68h.68M11.49,12.79h-1.99v1.99h1.99v-1.99h0Z"/>
    </g>
    <g>
      <path d="M9.83,11.87v-.58c0-.41.15-.79.42-1.09l.68-.75c.13-.14.2-.33.2-.52,0-.22-.18-.4-.41-.4h-.43c-.22,0-.41.18-.41.4v.33h-1.34v-.33c0-.96.79-1.74,1.75-1.74h.43c.97,0,1.75.78,1.75,1.74,0,.52-.19,1.03-.55,1.42l-.67.75c-.05.06-.08.12-.08.2v.58h-1.34Z"/>
      <path d="M10.72,7.51c.78,0,1.42.63,1.42,1.41,0,.44-.16.87-.46,1.2l-.68.75c-.1.12-.16.26-.16.42v.26h-.68v-.26c0-.32.12-.63.34-.87l.68-.75c.18-.2.29-.47.29-.74,0-.4-.33-.73-.74-.73h-.43c-.41,0-.74.33-.74.73h-.69c0-.78.64-1.41,1.42-1.41h.43M10.72,6.85h-.43c-1.15,0-2.08.93-2.08,2.07v.66h2v-.66s.04-.07.08-.07h.43s.08.03.08.07c0,.11-.04.22-.12.3l-.68.75c-.32.36-.5.82-.51,1.31v.27s0,.65,0,.65h1.98v-.65s0-.26,0-.26l.67-.73c.41-.45.63-1.03.63-1.64,0-1.14-.93-2.07-2.08-2.07h0Z"/>
    </g>
  </g>
</svg>