<?xml version="1.0" encoding="UTF-8"?>
<svg id="Layer_1" xmlns="http://www.w3.org/2000/svg" version="1.1" viewBox="0 0 21 21">
  <!-- Generator: Adobe Illustrator 30.1.0, SVG Export Plug-In . SVG Version: 2.1.1 Build 136)  -->
  <circle id="Outer" cx="10.5" cy="10.5" r="8.29" fill="none" stroke="#000" stroke-width="4.42"/>
  <g>
    <g>
      <rect x="9.82" y="12.97" width="1.35" height="1.35"/>
      <path d="M10.81,13.34v.63h-.63v-.63h.63M11.53,12.61h-2.07v2.07h2.07v-2.07h0Z"/>
    </g>
    <g>
      <path d="M9.83,11.78v-.59c0-.39.14-.76.4-1.05l.62-.69c.11-.12.17-.28.17-.44,0-.17-.14-.31-.31-.31h-.4c-.17,0-.31.14-.31.31v.36h-1.35v-.36c0-.92.75-1.66,1.67-1.66h.4c.92,0,1.67.74,1.67,1.66,0,.5-.18.97-.52,1.34l-.62.69s-.06.09-.06.14v.6h-1.35Z"/>
      <path d="M10.7,7.71c.72,0,1.31.58,1.31,1.3,0,.41-.15.8-.42,1.1l-.62.69c-.1.11-.15.24-.15.38v.24h-.63v-.24c0-.3.11-.58.31-.8l.62-.69c.17-.19.26-.43.26-.68,0-.37-.3-.67-.68-.67h-.4c-.37,0-.68.3-.68.67h-.63c0-.72.59-1.3,1.31-1.3h.4M10.7,6.99h-.4c-1.12,0-2.03.91-2.03,2.02v.72h1.83l-.15.16c-.32.35-.49.81-.5,1.28v.25s0,.72,0,.72h2.06v-.71s0-.18,0-.18l.58-.65c.39-.44.61-1,.61-1.59,0-1.11-.91-2.02-2.03-2.02h0ZM10.35,9.06h.3c0,.05-.03.11-.07.15l-.23.25v-.4h0Z"/>
    </g>
  </g>
</svg>