<?xml version="1.0" encoding="UTF-8"?>
<svg id="Layer_1" xmlns="http://www.w3.org/2000/svg" version="1.1" viewBox="0 0 21 21">
  <!-- Generator: Adobe Illustrator 30.1.0, SVG Export Plug-In . SVG Version: 2.1.1 Build 136)  -->
  <circle id="Outer" cx="10.5" cy="10.5" r="9.59" fill="none" stroke="#000" stroke-width="1.82"/>
  <g>
    <g>
      <rect x="9.84" y="13.97" width="1.31" height="1.31"/>
      <path d="M11.02,14.1v1.05h-1.05v-1.05h1.05M11.28,13.84h-1.58v1.58h1.58v-1.58h0Z"/>
    </g>
    <g>
      <path d="M9.84,12.52v-.53c0-.53.19-1.04.55-1.43l1.04-1.15c.26-.29.41-.67.41-1.06,0-.55-.45-1-1-1h-.67c-.55,0-1,.45-1,1v.13h-1.32v-.13c0-1.27,1.04-2.31,2.33-2.31h.67c1.28,0,2.33,1.04,2.33,2.31,0,.72-.26,1.41-.75,1.94l-1.04,1.15c-.14.16-.22.35-.22.55v.53h-1.32Z"/>
      <path d="M10.83,6.16c1.21,0,2.2.98,2.2,2.18,0,.68-.25,1.34-.71,1.85l-1.04,1.15c-.16.18-.25.4-.25.64v.4h-1.06v-.4c0-.5.18-.97.52-1.34l1.04-1.15c.29-.32.44-.72.44-1.15,0-.62-.51-1.13-1.14-1.13h-.67c-.63,0-1.14.51-1.14,1.13h-1.06c0-1.2.99-2.18,2.2-2.18h.67M10.83,5.9h-.67c-1.36,0-2.46,1.1-2.46,2.44v.26h1.59v-.26c0-.48.39-.86.87-.86h.67c.48,0,.87.39.87.86,0,.36-.13.7-.37.97l-1.04,1.15c-.38.42-.59.96-.59,1.52v.4s0,.26,0,.26h1.57v-.26s0-.4,0-.4c0-.17.06-.34.18-.47l1.04-1.15c.5-.56.78-1.28.78-2.03,0-1.35-1.1-2.44-2.46-2.44h0Z"/>
    </g>
  </g>
</svg>