<?xml version="1.0" encoding="UTF-8"?>
<svg id="Layer_1" xmlns="http://www.w3.org/2000/svg" version="1.1" viewBox="0 0 21 21">
  <!-- Generator: Adobe Illustrator 30.1.0, SVG Export Plug-In . SVG Version: 2.1.1 Build 136)  -->
  <circle id="Outer" cx="10.5" cy="10.5" r="9.77" fill="none" stroke="#000" stroke-width="1.46"/>
  <g>
    <g>
      <rect x="9.84" y="14.1" width="1.32" height="1.32"/>
      <path d="M11.05,14.2v1.12h-1.12v-1.12h1.12M11.25,14.01h-1.51v1.51h1.51v-1.51h0Z"/>
    </g>
    <g>
      <path d="M9.84,12.64v-.52c0-.55.2-1.08.57-1.5l1.11-1.23c.29-.32.45-.73.45-1.15,0-.61-.5-1.1-1.11-1.1h-.71c-.61,0-1.11.49-1.11,1.1v.1h-1.33v-.1c0-1.33,1.09-2.42,2.43-2.42h.71c1.34,0,2.43,1.08,2.43,2.42,0,.75-.28,1.47-.78,2.03l-1.11,1.23c-.16.17-.24.39-.24.61v.52h-1.32Z"/>
      <path d="M10.86,5.92c1.29,0,2.33,1.04,2.33,2.32,0,.73-.27,1.43-.76,1.97l-1.11,1.23c-.17.19-.27.43-.27.68v.42h-1.12v-.42c0-.53.19-1.03.55-1.43l1.11-1.23c.3-.34.47-.77.47-1.22,0-.66-.54-1.2-1.21-1.2h-.71c-.67,0-1.21.54-1.21,1.2h-1.13c0-1.28,1.05-2.32,2.33-2.32h.71M10.86,5.73h-.71c-1.4,0-2.53,1.13-2.53,2.51v.2h1.52v-.2c0-.55.45-1,1.01-1h.71c.56,0,1.01.45,1.01,1,0,.4-.15.79-.42,1.09l-1.11,1.23c-.39.43-.6.98-.6,1.56v.43s0,.2,0,.2h1.51v-.19s0-.42,0-.42c0-.2.08-.39.22-.55l1.11-1.23c.52-.58.81-1.32.81-2.1,0-1.39-1.14-2.51-2.53-2.51h0Z"/>
    </g>
  </g>
</svg>