<?xml version="1.0" encoding="UTF-8"?>
<svg id="Layer_1" xmlns="http://www.w3.org/2000/svg" version="1.1" viewBox="0 0 21 21">
  <!-- Generator: Adobe Illustrator 30.1.0, SVG Export Plug-In . SVG Version: 2.1.1 Build 136)  -->
  <circle id="Outer" cx="10.5" cy="10.5" r="8.84" fill="none" stroke="#000" stroke-width="3.31"/>
  <g>
    <g>
      <rect x="9.83" y="13.4" width="1.32" height="1.32"/>
      <path d="M10.89,13.67v.8h-.8v-.8h.8M11.42,13.14h-1.85v1.85h1.85v-1.85h0Z"/>
    </g>
    <g>
      <path d="M9.84,12.07v-.56c0-.45.16-.87.46-1.2l.79-.88c.17-.19.27-.44.27-.7,0-.33-.27-.59-.6-.59h-.51c-.33,0-.6.27-.6.59v.26h-1.33v-.26c0-1.06.87-1.92,1.93-1.92h.51c1.06,0,1.93.86,1.93,1.92,0,.58-.22,1.15-.61,1.58l-.79.88c-.08.09-.12.2-.12.31v.56h-1.32Z"/>
      <path d="M10.75,7.08c.92,0,1.67.74,1.67,1.66,0,.52-.19,1.02-.54,1.41l-.79.88c-.12.14-.19.3-.19.49v.3h-.8v-.3c0-.38.14-.74.39-1.02l.79-.88c.22-.24.34-.55.34-.87,0-.47-.39-.86-.86-.86h-.51c-.48,0-.86.38-.86.86h-.81c0-.91.75-1.66,1.67-1.66h.51M10.75,6.55h-.51c-1.21,0-2.19.98-2.19,2.18v.52h1.86v-.52c0-.18.15-.33.34-.33h.51c.19,0,.34.15.34.33,0,.19-.07.38-.2.52l-.79.88c-.34.38-.53.86-.53,1.37v.31s0,.52,0,.52h1.84v-.52s0-.3,0-.3c0-.05.02-.1.06-.14l.79-.88c.44-.48.68-1.11.68-1.76,0-1.2-.98-2.18-2.19-2.18h0Z"/>
    </g>
  </g>
</svg>