<?xml version="1.0" encoding="UTF-8"?>
<svg id="Layer_1" xmlns="http://www.w3.org/2000/svg" version="1.1" viewBox="0 0 21 21">
  <!-- Generator: Adobe Illustrator 30.1.0, SVG Export Plug-In . SVG Version: 2.1.1 Build 136)  -->
  <circle id="Outer" cx="10.5" cy="10.5" r="9.22" fill="none" stroke="#000" stroke-width="2.57"/>
  <g>
    <g>
      <rect x="9.84" y="13.69" width="1.32" height="1.32"/>
      <path d="M10.96,13.88v.92h-.92v-.92h.92M11.35,13.49h-1.71v1.71h1.71v-1.71h0Z"/>
    </g>
    <g>
      <path d="M9.84,12.28v-.54c0-.49.18-.95.5-1.31l.91-1.01c.22-.24.34-.55.34-.88,0-.44-.36-.79-.8-.79h-.59c-.44,0-.8.36-.8.79v.2h-1.32v-.2c0-1.16.95-2.11,2.12-2.11h.59c1.17,0,2.12.95,2.12,2.11,0,.65-.24,1.27-.68,1.76l-.91,1.01c-.11.12-.17.27-.17.43v.55h-1.32Z"/>
      <path d="M10.79,6.63c1.06,0,1.93.86,1.93,1.91,0,.6-.22,1.18-.63,1.62l-.91,1.01c-.14.16-.22.35-.22.56v.35h-.93v-.35c0-.44.16-.85.45-1.18l.91-1.01c.25-.28.39-.63.39-1.01,0-.55-.45-.99-1-.99h-.59c-.55,0-1,.44-1,.99h-.93c0-1.06.86-1.91,1.93-1.91h.59M10.79,6.23h-.59c-1.28,0-2.32,1.04-2.32,2.31v.39h1.72v-.39c0-.33.27-.6.6-.6h.59c.33,0,.6.27.6.6,0,.27-.1.54-.29.74l-.91,1.01c-.36.4-.56.91-.56,1.44v.35s0,.39,0,.39h1.7v-.39s0-.35,0-.35c0-.11.04-.22.12-.3l.91-1.01c.47-.52.73-1.19.73-1.89,0-1.27-1.04-2.31-2.32-2.31h0Z"/>
    </g>
  </g>
</svg>