<?xml version="1.0" encoding="UTF-8"?>
<svg id="Layer_1" xmlns="http://www.w3.org/2000/svg" version="1.1" viewBox="0 0 18 18">
  <!-- Generator: Adobe Illustrator 30.1.0, SVG Export Plug-In . SVG Version: 2.1.1 Build 136)  -->
  <path d="M9,1.56c.24,0,.48.13.61.38l1.56,3.09c.27.53.77.9,1.35,1.01l3.37.63c.53.1.74.74.38,1.13l-2.45,2.69c-.38.42-.55.98-.48,1.53l.48,3.63c.06.43-.29.78-.68.78-.1,0-.21-.02-.31-.08l-2.94-1.52c-.27-.14-.57-.21-.87-.21s-.6.07-.87.21l-2.94,1.52c-.1.05-.21.08-.31.08-.39,0-.73-.34-.68-.78l.48-3.63c.07-.56-.1-1.12-.48-1.53l-2.45-2.69c-.36-.4-.15-1.04.38-1.14l3.37-.63c.58-.11,1.08-.48,1.35-1.01l1.56-3.09c.13-.25.37-.38.61-.38M9,0C8.15,0,7.38.47,6.99,1.24l-1.56,3.09c-.05.09-.14.16-.24.18l-3.37.63c-.8.15-1.46.72-1.72,1.5-.26.77-.08,1.63.47,2.23l2.45,2.69c.07.07.1.17.09.27l-.48,3.63c-.08.64.11,1.29.54,1.77.43.49,1.04.77,1.69.77.35,0,.71-.09,1.03-.25l2.94-1.52s.1-.04.15-.04.11.01.15.04l2.94,1.52c.32.16.67.25,1.03.25.65,0,1.26-.28,1.69-.77.43-.49.62-1.13.54-1.77l-.48-3.63c-.01-.1.02-.2.09-.28l2.45-2.69c.55-.6.73-1.46.47-2.23-.26-.77-.92-1.35-1.72-1.5l-3.37-.63c-.1-.02-.19-.09-.24-.18l-1.56-3.09C10.62.47,9.85,0,9,0h0Z"/>
</svg>