<?xml version="1.0" encoding="UTF-8"?>
<svg id="Layer_1" xmlns="http://www.w3.org/2000/svg" version="1.1" viewBox="0 0 18 18">
  <!-- Generator: Adobe Illustrator 30.1.0, SVG Export Plug-In . SVG Version: 2.1.1 Build 136)  -->
  <path d="M9,3.48c.18,0,.36.09.45.28l1.16,2.29c.2.39.57.67,1,.75l2.5.47c.39.07.55.55.28.84l-1.82,2c-.28.31-.41.73-.36,1.14l.36,2.7c.04.32-.21.58-.5.58-.08,0-.16-.02-.23-.06l-2.19-1.13c-.2-.1-.42-.16-.65-.16-.22,0-.44.05-.65.16l-2.19,1.13c-.08.04-.16.06-.23.06-.29,0-.55-.25-.5-.58l.36-2.7c.05-.41-.08-.83-.36-1.14l-1.82-2c-.27-.29-.11-.77.28-.84l2.5-.47c.43-.08.8-.36,1-.75l1.16-2.29c.09-.19.27-.28.45-.28M9,0C7.49,0,6.12.84,5.44,2.19l-.7,1.38-1.5.28c-1.42.27-2.59,1.28-3.04,2.65-.46,1.37-.14,2.88.83,3.95l1.18,1.29-.23,1.75c-.15,1.14.2,2.29.95,3.15.76.86,1.85,1.36,3,1.36.63,0,1.26-.15,1.82-.44l1.24-.64,1.24.64c.56.29,1.19.44,1.82.44,1.15,0,2.24-.5,3-1.36.76-.86,1.1-2.01.95-3.15l-.23-1.75,1.18-1.29c.97-1.07,1.29-2.58.83-3.95-.46-1.37-1.62-2.38-3.04-2.65l-1.5-.28-.7-1.38C11.88.84,10.51,0,9,0h0Z"/>
</svg>