<?xml version="1.0" encoding="UTF-8"?>
<svg id="Layer_1" xmlns="http://www.w3.org/2000/svg" version="1.1" viewBox="0 0 110 110">
  <!-- Generator: Adobe Illustrator 30.1.0, SVG Export Plug-In . SVG Version: 2.1.1 Build 136)  -->
  <g>
    <g>
      <rect x="50.9" y="33.44" width="8.19" height="8.19"/>
      <path d="M57.21,35.33v4.41h-4.41v-4.41h4.41M60.99,31.55h-11.97v11.97h11.97v-11.97h0Z"/>
    </g>
    <g>
      <polygon points="46.49 75.37 46.49 67.18 50.9 67.18 50.9 57.19 46.49 57.19 46.49 49 59.1 49 59.1 67.18 63.51 67.18 63.51 75.37 46.49 75.37"/>
      <path d="M57.21,50.89v18.18h4.41v4.41h-13.23v-4.41h4.41v-13.77h-4.41v-4.41h8.82M60.99,47.11h-16.38v11.97h4.41v6.21h-4.41v11.97h20.79v-11.97h-4.41v-18.18h0Z"/>
    </g>
  </g>
  <circle id="Outer" cx="55" cy="55" r="43.42" fill="none" stroke="#000" stroke-width="23.17"/>
</svg>