<?xml version="1.0" encoding="UTF-8"?>
<svg id="Layer_1" xmlns="http://www.w3.org/2000/svg" version="1.1" viewBox="0 0 44 44">
  <!-- Generator: Adobe Illustrator 30.1.0, SVG Export Plug-In . SVG Version: 2.1.1 Build 136)  -->
  <circle id="Outer" cx="22" cy="22" r="17.75" fill="none" stroke="#000" stroke-width="8.5"/>
  <g>
    <g>
      <rect x="20.59" y="27.48" width="2.8" height="2.8"/>
      <path d="M22.7,28.17v1.43h-1.43v-1.43h1.43M24.08,26.8h-4.18v4.18h4.18v-4.18h0Z"/>
    </g>
    <g>
      <path d="M20.6,24.87v-1.22c0-.85.31-1.66.87-2.29l1.41-1.57c.27-.3.42-.69.42-1.1,0-.46-.38-.84-.85-.84h-.91c-.47,0-.85.38-.85.84v.69h-2.82v-.69c0-2.01,1.65-3.65,3.67-3.65h.91c2.02,0,3.67,1.64,3.67,3.65,0,1.1-.41,2.16-1.15,2.97l-1.41,1.57c-.11.12-.17.26-.17.41v1.23h-2.8Z"/>
      <path d="M22.45,15.73c1.64,0,2.98,1.33,2.98,2.96,0,.93-.34,1.82-.97,2.51l-1.41,1.57c-.22.24-.34.54-.34.87v.54h-1.43v-.54c0-.68.25-1.32.7-1.83l1.41-1.57c.39-.43.6-.98.6-1.56,0-.84-.69-1.53-1.54-1.53h-.91c-.85,0-1.54.69-1.54,1.53h-1.44c0-1.63,1.34-2.96,2.98-2.96h.91M22.45,14.35h-.91c-2.4,0-4.36,1.95-4.36,4.34v1.38h4.19v-1.38c0-.08.08-.16.17-.16h.91c.09,0,.17.07.17.16,0,.23-.09.46-.25.64l-1.41,1.57c-.68.75-1.06,1.73-1.06,2.74v.56s.02,1.36.02,1.36h4.15v-1.36s.02-.52.02-.52l1.4-1.55c.85-.94,1.32-2.16,1.32-3.43,0-2.39-1.95-4.34-4.36-4.34h0Z"/>
    </g>
  </g>
</svg>