<?xml version="1.0" encoding="UTF-8"?>
<svg id="Layer_1" xmlns="http://www.w3.org/2000/svg" version="1.1" viewBox="0 0 44 44">
  <!-- Generator: Adobe Illustrator 30.1.0, SVG Export Plug-In . SVG Version: 2.1.1 Build 136)  -->
  <circle id="Outer" cx="22" cy="22" r="17.37" fill="none" stroke="#000" stroke-width="9.27"/>
  <g>
    <g>
      <rect x="20.58" y="27.18" width="2.82" height="2.82"/>
      <path d="M22.65,27.94v1.31h-1.31v-1.31h1.31M24.16,26.43h-4.34v4.34h4.34v-4.34h0Z"/>
    </g>
    <g>
      <path d="M20.59,24.68v-1.25c0-.82.29-1.59.83-2.19l1.3-1.44c.23-.25.36-.58.36-.92s-.3-.65-.66-.65h-.83c-.36,0-.66.29-.66.65v.76h-2.84v-.76c0-1.92,1.57-3.48,3.5-3.48h.83c1.93,0,3.49,1.56,3.49,3.48,0,1.04-.38,2.04-1.08,2.81l-1.3,1.44c-.08.09-.12.19-.12.3v1.25h-2.82Z"/>
      <path d="M22.42,16.16c1.51,0,2.74,1.22,2.74,2.72,0,.85-.32,1.67-.89,2.31l-1.3,1.44c-.2.22-.31.5-.31.8v.5h-1.32v-.5c0-.62.23-1.21.65-1.68l1.3-1.44c.36-.39.55-.9.55-1.43,0-.78-.64-1.41-1.42-1.41h-.83c-.78,0-1.42.63-1.42,1.41h-1.32c0-1.5,1.23-2.72,2.74-2.72h.83M22.42,14.64h-.83c-2.34,0-4.25,1.9-4.25,4.23v1.51h3.84l-.31.34c-.67.74-1.04,1.69-1.04,2.68v.51s.02,1.5.02,1.5h4.31l.02-1.5v-.38s1.23-1.36,1.23-1.36c.82-.91,1.28-2.09,1.28-3.32,0-2.33-1.91-4.23-4.25-4.23h0ZM21.68,18.98h.63c-.02.11-.07.22-.15.31l-.48.53v-.84h0Z"/>
    </g>
  </g>
</svg>