<?xml version="1.0" encoding="UTF-8"?>
<svg id="Layer_1" xmlns="http://www.w3.org/2000/svg" version="1.1" viewBox="0 0 44 44">
  <!-- Generator: Adobe Illustrator 30.1.0, SVG Export Plug-In . SVG Version: 2.1.1 Build 136)  -->
  <circle id="Outer" cx="22" cy="22" r="20.09" fill="none" stroke="#000" stroke-width="3.82"/>
  <g>
    <g>
      <rect x="20.61" y="29.26" width="2.75" height="2.75"/>
      <path d="M23.09,29.54v2.2h-2.2v-2.2h2.2M23.64,28.99h-3.3v3.3h3.3v-3.3h0Z"/>
    </g>
    <g>
      <path d="M20.61,26.23v-1.11c0-1.11.41-2.18,1.15-3l2.18-2.42c.55-.61.86-1.4.86-2.22,0-1.15-.94-2.09-2.1-2.09h-1.4c-1.16,0-2.1.94-2.1,2.09v.27h-2.77v-.27c0-2.67,2.19-4.85,4.88-4.85h1.4c2.69,0,4.88,2.17,4.88,4.85,0,1.5-.56,2.95-1.57,4.06l-2.18,2.42c-.3.33-.46.73-.46,1.16v1.11h-2.76Z"/>
      <path d="M22.7,12.91c2.54,0,4.6,2.05,4.6,4.57,0,1.43-.53,2.81-1.49,3.88l-2.18,2.42c-.34.37-.53.84-.53,1.34v.83h-2.21v-.83c0-1.04.38-2.04,1.08-2.82l2.18-2.42c.6-.66.93-1.52.93-2.4,0-1.3-1.07-2.36-2.38-2.36h-1.4c-1.31,0-2.38,1.06-2.38,2.36h-2.22c0-2.52,2.06-4.57,4.6-4.57h1.4M22.7,12.36h-1.4c-2.84,0-5.15,2.3-5.15,5.12v.55h3.32v-.55c0-1,.82-1.81,1.83-1.81h1.4c1.01,0,1.83.81,1.83,1.81,0,.75-.28,1.48-.78,2.04l-2.18,2.42c-.79.87-1.23,2.01-1.23,3.18v.84s.01.55.01.55h3.29v-.54s.01-.83.01-.83c0-.36.13-.7.39-.98l2.18-2.42c1.06-1.17,1.64-2.68,1.64-4.25,0-2.82-2.31-5.12-5.15-5.12h0Z"/>
    </g>
  </g>
</svg>