<?xml version="1.0" encoding="UTF-8"?>
<svg id="Layer_1" xmlns="http://www.w3.org/2000/svg" version="1.1" viewBox="0 0 44 44">
  <!-- Generator: Adobe Illustrator 30.1.0, SVG Export Plug-In . SVG Version: 2.1.1 Build 136)  -->
  <circle id="Outer" cx="22" cy="22" r="20.47" fill="none" stroke="#000" stroke-width="3.05"/>
  <g>
    <g>
      <rect x="20.61" y="29.55" width="2.75" height="2.75"/>
      <path d="M23.16,29.76v2.34h-2.34v-2.34h2.34M23.57,29.35h-3.17v3.17h3.17v-3.17h0Z"/>
    </g>
    <g>
      <path d="M20.61,26.48v-1.09c0-1.16.43-2.27,1.2-3.13l2.32-2.57c.6-.67.93-1.52.93-2.42,0-1.27-1.04-2.3-2.32-2.3h-1.49c-1.28,0-2.32,1.03-2.32,2.3v.21h-2.77v-.21c0-2.79,2.29-5.06,5.1-5.06h1.49c2.81,0,5.1,2.27,5.1,5.06,0,1.57-.58,3.09-1.64,4.26l-2.32,2.57c-.33.37-.51.81-.51,1.29v1.09h-2.76Z"/>
      <path d="M22.75,12.41c2.7,0,4.89,2.18,4.89,4.86,0,1.52-.56,2.99-1.59,4.12l-2.32,2.57c-.36.4-.56.89-.56,1.43v.89h-2.35v-.89c0-1.11.41-2.17,1.15-2.99l2.32-2.57c.64-.7.98-1.61.98-2.56,0-1.38-1.13-2.51-2.53-2.51h-1.49c-1.39,0-2.53,1.13-2.53,2.51h-2.36c0-2.68,2.19-4.86,4.89-4.86h1.49M22.75,12h-1.49c-2.92,0-5.3,2.36-5.3,5.27v.41h3.19v-.41c0-1.16.95-2.1,2.12-2.1h1.49c1.17,0,2.12.94,2.12,2.1,0,.84-.31,1.65-.88,2.28l-2.32,2.57c-.81.9-1.26,2.06-1.27,3.27v.89s.01.41.01.41h3.16v-.41s.01-.89.01-.89c0-.43.16-.83.45-1.15l2.32-2.57c1.09-1.21,1.69-2.77,1.69-4.4,0-2.91-2.38-5.27-5.3-5.27h0Z"/>
    </g>
  </g>
</svg>