<?xml version="1.0" encoding="UTF-8"?>
<svg id="Layer_1" xmlns="http://www.w3.org/2000/svg" version="1.1" viewBox="0 0 44 44">
  <!-- Generator: Adobe Illustrator 30.1.0, SVG Export Plug-In . SVG Version: 2.1.1 Build 136)  -->
  <circle id="Outer" cx="22" cy="22" r="19.31" fill="none" stroke="#000" stroke-width="5.38"/>
  <g>
    <g>
      <rect x="20.61" y="28.68" width="2.76" height="2.76"/>
      <path d="M22.95,29.09v1.93h-1.93v-1.93h1.93M23.78,28.27h-3.58v3.58h3.58v-3.58h0Z"/>
    </g>
    <g>
      <path d="M20.61,25.74v-1.14c0-1.02.37-2,1.05-2.75l1.92-2.12c.46-.5.71-1.16.71-1.83,0-.92-.75-1.66-1.67-1.66h-1.23c-.92,0-1.67.74-1.67,1.66v.41h-2.78v-.41c0-2.44,2-4.42,4.45-4.42h1.23c2.45,0,4.45,1.98,4.45,4.42,0,1.36-.5,2.67-1.42,3.68l-1.92,2.12c-.23.26-.36.57-.36.9v1.14h-2.76Z"/>
      <path d="M22.62,13.88c2.23,0,4.04,1.8,4.04,4.01,0,1.26-.47,2.47-1.31,3.4l-1.92,2.12c-.3.33-.46.74-.46,1.18v.73h-1.94v-.73c0-.92.33-1.79.95-2.47l1.92-2.12c.52-.58.81-1.33.81-2.11,0-1.14-.94-2.07-2.09-2.07h-1.23c-1.15,0-2.09.93-2.09,2.07h-1.95c0-2.21,1.81-4.01,4.04-4.01h1.23M22.62,13.06h-1.23c-2.68,0-4.86,2.17-4.86,4.83v.83h3.6v-.83c0-.69.57-1.25,1.26-1.25h1.23c.7,0,1.26.56,1.26,1.25,0,.57-.21,1.13-.6,1.56l-1.92,2.12c-.75.83-1.17,1.9-1.17,3.02v.74s.01.82.01.82h3.57v-.82s.02-.73.02-.73c0-.24.08-.45.25-.63l1.92-2.12c.98-1.09,1.52-2.49,1.52-3.96,0-2.67-2.18-4.83-4.86-4.83h0Z"/>
    </g>
  </g>
</svg>