<?xml version="1.0" encoding="UTF-8"?>
<svg id="Layer_1" xmlns="http://www.w3.org/2000/svg" version="1.1" viewBox="0 0 44 44">
  <!-- Generator: Adobe Illustrator 30.1.0, SVG Export Plug-In . SVG Version: 2.1.1 Build 136)  -->
  <circle id="Outer" cx="22" cy="22" r="18.53" fill="none" stroke="#000" stroke-width="6.94"/>
  <g>
    <g>
      <rect x="20.6" y="28.08" width="2.77" height="2.77"/>
      <path d="M22.82,28.63v1.67h-1.67v-1.67h1.67M23.92,27.53h-3.87v3.87h3.87v-3.87h0Z"/>
    </g>
    <g>
      <path d="M20.61,25.28v-1.18c0-.93.34-1.82.96-2.51l1.66-1.84c.36-.4.56-.92.56-1.46,0-.69-.56-1.24-1.26-1.24h-1.06c-.69,0-1.26.56-1.26,1.24v.55h-2.79v-.55c0-2.22,1.81-4.02,4.04-4.02h1.06c2.23,0,4.04,1.8,4.04,4.02,0,1.22-.45,2.4-1.28,3.31l-1.66,1.84c-.17.19-.26.41-.26.65v1.18h-2.77Z"/>
      <path d="M22.53,14.83c1.93,0,3.49,1.56,3.49,3.47,0,1.09-.4,2.13-1.13,2.94l-1.66,1.84c-.26.28-.4.64-.4,1.02v.63h-1.68v-.63c0-.79.29-1.55.82-2.14l1.66-1.84c.45-.5.7-1.15.7-1.83,0-.99-.81-1.79-1.81-1.79h-1.06c-1,0-1.81.8-1.81,1.79h-1.69c0-1.91,1.57-3.47,3.49-3.47h1.06M22.53,13.73h-1.06c-2.53,0-4.59,2.05-4.59,4.57v1.1h3.89v-1.1c0-.38.32-.69.71-.69h1.06c.39,0,.71.31.71.69,0,.4-.15.79-.42,1.09l-1.66,1.84c-.71.79-1.11,1.81-1.11,2.87v.65s.02,1.09.02,1.09h3.85v-1.09s.02-.63.02-.63c0-.11.04-.21.12-.29l1.66-1.84c.91-1.01,1.42-2.32,1.42-3.68,0-2.52-2.06-4.57-4.59-4.57h0Z"/>
    </g>
  </g>
</svg>