<?xml version="1.0" encoding="UTF-8"?>
<svg id="Layer_1" xmlns="http://www.w3.org/2000/svg" version="1.1" viewBox="0 0 89 89">
  <!-- Generator: Adobe Illustrator 30.1.0, SVG Export Plug-In . SVG Version: 2.1.1 Build 136)  -->
  <path d="M44.5,6.17c1.25,0,2.49.65,3.14,1.94l8.02,15.92c1.38,2.73,3.94,4.66,6.94,5.23l17.35,3.25c2.71.51,3.81,3.8,1.95,5.85l-12.64,13.87c-1.95,2.14-2.86,5.03-2.48,7.91l2.47,18.7c.29,2.23-1.48,4-3.49,4-.53,0-1.08-.12-1.61-.4l-15.17-7.81c-1.41-.72-2.94-1.09-4.48-1.09-1.54,0-3.08.36-4.48,1.09l-15.17,7.81c-.53.27-1.08.4-1.61.4-2.01,0-3.78-1.77-3.49-4l2.47-18.71c.38-2.87-.53-5.76-2.48-7.9l-12.64-13.87c-1.86-2.04-.76-5.34,1.95-5.85l17.34-3.25c3-.56,5.56-2.49,6.94-5.22l8.02-15.92c.65-1.29,1.9-1.94,3.14-1.94M44.5,0c-3.68,0-7,2.04-8.66,5.34l-8.02,15.92c-.51,1-1.46,1.73-2.56,1.93l-17.34,3.25c-3.45.65-6.29,3.12-7.41,6.45-1.12,3.34-.34,7.02,2.03,9.62l12.64,13.87c.72.79,1.06,1.86.92,2.93l-2.47,18.71c-.37,2.77.48,5.57,2.31,7.66,1.85,2.11,4.51,3.32,7.3,3.32,1.53,0,3.06-.37,4.44-1.08l15.17-7.81c.51-.26,1.08-.4,1.65-.4.57,0,1.15.14,1.66.4l15.17,7.81c1.37.71,2.91,1.08,4.44,1.08,2.79,0,5.45-1.21,7.3-3.32,1.84-2.09,2.68-4.88,2.31-7.66l-2.47-18.7c-.14-1.07.19-2.14.92-2.94l12.64-13.87c2.37-2.6,3.15-6.29,2.03-9.62-1.12-3.33-3.95-5.8-7.41-6.45l-17.35-3.25c-1.1-.21-2.06-.93-2.57-1.93l-8.02-15.92c-1.66-3.29-4.98-5.34-8.66-5.34h0Z"/>
</svg>