<?xml version="1.0" encoding="UTF-8"?>
<svg id="Layer_1" xmlns="http://www.w3.org/2000/svg" version="1.1" viewBox="0 0 89 89">
  <!-- Generator: Adobe Illustrator 30.1.0, SVG Export Plug-In . SVG Version: 2.1.1 Build 136)  -->
  <path d="M44.5,18.75c.84,0,1.67.43,2.11,1.3l5.39,10.7c.92,1.84,2.65,3.13,4.67,3.51l11.66,2.18c1.82.34,2.56,2.56,1.31,3.93l-8.49,9.32c-1.31,1.44-1.92,3.38-1.67,5.31l1.66,12.57c.2,1.5-1,2.69-2.34,2.69-.36,0-.73-.08-1.08-.27l-10.2-5.25c-.95-.49-1.98-.73-3.01-.73s-2.07.24-3.01.73l-10.2,5.25c-.36.18-.72.27-1.08.27-1.35,0-2.54-1.19-2.34-2.69l1.66-12.57c.25-1.93-.35-3.87-1.66-5.31l-8.49-9.32c-1.25-1.37-.51-3.59,1.31-3.93l11.66-2.18c2.02-.38,3.74-1.68,4.66-3.51l5.39-10.7c.44-.87,1.27-1.3,2.11-1.3M44.5,0c-8.02,0-15.24,4.45-18.85,11.61l-2.68,5.33-5.74,1.08c-7.52,1.41-13.7,6.79-16.13,14.05-2.43,7.26-.74,15.28,4.42,20.94l4.69,5.15-.92,6.97c-.8,6.03,1.05,12.11,5.05,16.68,4.01,4.58,9.8,7.2,15.88,7.2,3.34,0,6.68-.81,9.66-2.35l4.62-2.38,4.62,2.38c2.98,1.54,6.32,2.35,9.66,2.35,6.08,0,11.87-2.63,15.88-7.21,4-4.57,5.85-10.65,5.05-16.68l-.92-6.97,4.69-5.15c5.15-5.66,6.85-13.68,4.42-20.93-2.43-7.25-8.61-12.64-16.13-14.05l-5.74-1.08-2.68-5.33C59.74,4.45,52.52,0,44.5,0h0Z"/>
</svg>