<?xml version="1.0" encoding="UTF-8"?>
<svg id="Layer_1" xmlns="http://www.w3.org/2000/svg" version="1.1" viewBox="0 0 89 89">
  <!-- Generator: Adobe Illustrator 30.1.0, SVG Export Plug-In . SVG Version: 2.1.1 Build 136)  -->
  <path d="M44.5,14.05c.99,0,1.98.51,2.5,1.54l6.37,12.65c1.09,2.17,3.13,3.71,5.52,4.15l13.78,2.58c2.16.4,3.03,3.02,1.55,4.65l-10.04,11.02c-1.55,1.7-2.27,4-1.97,6.28l1.96,14.86c.23,1.77-1.18,3.18-2.77,3.18-.42,0-.86-.1-1.28-.32l-12.06-6.21c-1.12-.58-2.34-.86-3.56-.86s-2.44.29-3.56.86l-12.06,6.21c-.42.22-.86.32-1.28.32-1.59,0-3.01-1.4-2.77-3.18l1.96-14.86c.3-2.28-.42-4.58-1.97-6.28l-10.04-11.02c-1.48-1.62-.6-4.24,1.55-4.65l13.78-2.58c2.38-.45,4.42-1.98,5.51-4.15l6.37-12.65c.52-1.03,1.51-1.54,2.5-1.54M44.5,0C38.1,0,32.34,3.55,29.46,9.27l-4.98,9.89-10.73,2.01c-6,1.12-10.93,5.42-12.87,11.21-1.94,5.79-.59,12.19,3.52,16.71l8.09,8.87-1.58,11.99c-.63,4.81.83,9.66,4.03,13.31,3.21,3.66,7.82,5.75,12.67,5.75,2.66,0,5.33-.65,7.71-1.87l9.19-4.73,9.19,4.73c2.38,1.23,5.05,1.87,7.71,1.87,4.85,0,9.47-2.1,12.67-5.75,3.19-3.64,4.66-8.49,4.03-13.31l-1.58-11.99,8.09-8.88c4.11-4.51,5.46-10.91,3.52-16.7-1.94-5.79-6.87-10.08-12.87-11.21l-10.74-2.01-4.98-9.89C56.66,3.55,50.9,0,44.5,0h0Z"/>
</svg>