<?xml version="1.0" encoding="UTF-8"?>
<svg id="Layer_1" xmlns="http://www.w3.org/2000/svg" version="1.1" viewBox="0 0 58 58">
  <!-- Generator: Adobe Illustrator 30.1.0, SVG Export Plug-In . SVG Version: 2.1.1 Build 136)  -->
  <g>
    <g>
      <rect x="26.9" y="16.53" width="4.21" height="4.21"/>
      <path d="M30.38,17.26v2.76h-2.76v-2.76h2.76M31.83,15.81h-5.66v5.66h5.66v-5.66h0Z"/>
    </g>
    <g>
      <polygon points="24.14 41.05 24.14 36.84 26.9 36.84 26.9 29.68 24.14 29.68 24.14 25.47 31.1 25.47 31.1 36.84 33.86 36.84 33.86 41.05 24.14 41.05"/>
      <path d="M30.38,26.2v11.37h2.76v2.76h-8.27v-2.76h2.76v-8.61h-2.76v-2.76h5.52M31.83,24.75h-8.42v5.66h2.76v5.71h-2.76v5.66h11.17v-5.66h-2.76v-11.37h0Z"/>
    </g>
  </g>
  <circle id="Outer" cx="29" cy="29" r="24.42" fill="none" stroke="#000" stroke-width="9.15"/>
</svg>