<?xml version="1.0" encoding="UTF-8"?>
<svg id="Layer_1" xmlns="http://www.w3.org/2000/svg" version="1.1" viewBox="0 0 58 58">
  <!-- Generator: Adobe Illustrator 30.1.0, SVG Export Plug-In . SVG Version: 2.1.1 Build 136)  -->
  <g>
    <g>
      <rect x="26.84" y="17.63" width="4.32" height="4.32"/>
      <path d="M30.16,18.63v2.33h-2.33v-2.33h2.33M32.16,16.63h-6.31v6.31h6.31v-6.31h0Z"/>
    </g>
    <g>
      <polygon points="24.51 39.74 24.51 35.42 26.84 35.42 26.84 30.15 24.51 30.15 24.51 25.83 31.16 25.83 31.16 35.42 33.49 35.42 33.49 39.74 24.51 39.74"/>
      <path d="M30.16,26.83v9.59h2.33v2.33h-6.98v-2.33h2.33v-7.26h-2.33v-2.33h4.65M32.16,24.84h-8.64v6.31h2.33v3.27h-2.33v6.31h10.96v-6.31h-2.33v-9.59h0Z"/>
    </g>
  </g>
  <circle id="Outer" cx="29" cy="29" r="22.89" fill="none" stroke="#000" stroke-width="12.22"/>
</svg>