<?xml version="1.0" encoding="UTF-8"?>
<svg id="Layer_1" xmlns="http://www.w3.org/2000/svg" version="1.1" viewBox="0 0 58 58">
  <!-- Generator: Adobe Illustrator 30.1.0, SVG Export Plug-In . SVG Version: 2.1.1 Build 136)  -->
  <g>
    <g>
      <rect x="26.96" y="15.05" width="4.08" height="4.08"/>
      <path d="M30.68,15.41v3.36h-3.36v-3.36h3.36M31.4,14.69h-4.81v4.81h4.81v-4.81h0Z"/>
    </g>
    <g>
      <polygon points="23.6 42.86 23.6 38.78 26.96 38.78 26.96 29.01 23.6 29.01 23.6 24.93 31.04 24.93 31.04 38.78 34.4 38.78 34.4 42.86 23.6 42.86"/>
      <path d="M30.68,25.29v13.85h3.36v3.36h-10.08v-3.36h3.36v-10.49h-3.36v-3.36h6.72M31.4,24.57h-8.17v4.81h3.36v9.04h-3.36v4.81h11.53v-4.81h-3.36v-13.85h0Z"/>
    </g>
  </g>
  <circle id="Outer" cx="29" cy="29" r="26.48" fill="none" stroke="#000" stroke-width="5.04"/>
</svg>