<?xml version="1.0" encoding="UTF-8"?>
<svg id="Layer_1" xmlns="http://www.w3.org/2000/svg" version="1.1" viewBox="0 0 84 84">
  <!-- Generator: Adobe Illustrator 30.1.0, SVG Export Plug-In . SVG Version: 2.1.1 Build 136)  -->
  <path d="M42,16.22c.84,0,1.68.43,2.11,1.3l5.39,10.71c.93,1.84,2.65,3.14,4.67,3.51l11.67,2.19c1.82.34,2.56,2.56,1.31,3.93l-8.5,9.33c-1.31,1.44-1.92,3.39-1.67,5.32l1.66,12.58c.2,1.5-1,2.69-2.35,2.69-.36,0-.73-.08-1.08-.27l-10.2-5.26c-.95-.49-1.98-.73-3.01-.73s-2.07.24-3.01.73l-10.2,5.26c-.36.18-.72.27-1.08.27-1.35,0-2.54-1.19-2.35-2.69l1.66-12.58c.25-1.93-.35-3.87-1.66-5.31l-8.5-9.33c-1.25-1.37-.51-3.59,1.31-3.94l11.67-2.19c2.02-.38,3.74-1.68,4.67-3.51l5.39-10.71c.44-.87,1.28-1.3,2.11-1.3M42,0C34.94,0,28.58,3.92,25.4,10.23l-3.25,6.45-6.98,1.31c-6.62,1.24-12.06,5.98-14.2,12.37-2.14,6.39-.65,13.46,3.89,18.44l5.49,6.02-1.07,8.15c-.7,5.31.92,10.66,4.45,14.69,3.54,4.03,8.63,6.35,13.98,6.35,2.94,0,5.88-.71,8.51-2.07l5.79-2.98,5.79,2.98c2.63,1.35,5.57,2.07,8.51,2.07,5.35,0,10.45-2.31,13.98-6.35,3.53-4.02,5.15-9.37,4.45-14.69l-1.07-8.15,5.49-6.03c4.54-4.98,6.03-12.04,3.89-18.44-2.14-6.39-7.58-11.13-14.2-12.37l-6.98-1.31-3.25-6.45C55.42,3.92,49.06,0,42,0h0Z"/>
</svg>