<?xml version="1.0" encoding="UTF-8"?>
<svg id="Layer_1" xmlns="http://www.w3.org/2000/svg" version="1.1" viewBox="0 0 78 78">
  <!-- Generator: Adobe Illustrator 30.1.0, SVG Export Plug-In . SVG Version: 2.1.1 Build 136)  -->
  <path d="M39,15.06c.78,0,1.56.4,1.96,1.21l5.01,9.94c.86,1.71,2.46,2.91,4.34,3.26l10.83,2.03c1.69.32,2.38,2.38,1.22,3.65l-7.89,8.66c-1.22,1.34-1.78,3.14-1.55,4.94l1.54,11.68c.18,1.39-.93,2.5-2.18,2.5-.33,0-.67-.08-1-.25l-9.48-4.88c-.88-.45-1.84-.68-2.8-.68s-1.92.23-2.8.68l-9.48,4.88c-.33.17-.67.25-1,.25-1.25,0-2.36-1.1-2.18-2.5l1.54-11.68c.24-1.79-.33-3.6-1.55-4.93l-7.89-8.66c-1.16-1.28-.48-3.34,1.22-3.65l10.83-2.03c1.87-.35,3.48-1.56,4.33-3.26l5.01-9.94c.41-.81,1.18-1.21,1.96-1.21M39,0C32.44,0,26.53,3.64,23.58,9.5l-3.02,5.99-6.48,1.21c-6.15,1.15-11.2,5.55-13.19,11.49-1.99,5.93-.6,12.49,3.61,17.12l5.1,5.59-1,7.57c-.65,4.93.85,9.9,4.13,13.64,3.28,3.74,8.02,5.89,12.99,5.89,2.73,0,5.46-.66,7.9-1.92l5.38-2.77,5.38,2.77c2.44,1.26,5.17,1.92,7.9,1.92,4.97,0,9.7-2.15,12.99-5.89,3.27-3.73,4.78-8.7,4.13-13.64l-1-7.57,5.1-5.59c4.21-4.63,5.6-11.18,3.61-17.12-1.99-5.93-7.04-10.33-13.19-11.49l-6.48-1.22-3.02-5.99C51.46,3.64,45.56,0,39,0h0Z"/>
</svg>