<?xml version="1.0" encoding="UTF-8"?>
<svg id="Layer_1" xmlns="http://www.w3.org/2000/svg" version="1.1" viewBox="0 0 78 78">
  <!-- Generator: Adobe Illustrator 30.1.0, SVG Export Plug-In . SVG Version: 2.1.1 Build 136)  -->
  <path d="M39,16.43c.73,0,1.47.38,1.85,1.14l4.72,9.37c.81,1.61,2.32,2.75,4.09,3.08l10.22,1.91c1.6.3,2.25,2.24,1.15,3.44l-7.44,8.17c-1.15,1.26-1.68,2.96-1.46,4.66l1.45,11.01c.17,1.31-.87,2.35-2.05,2.35-.31,0-.64-.07-.95-.23l-8.94-4.6c-.83-.43-1.73-.64-2.64-.64s-1.81.21-2.64.64l-8.94,4.6c-.31.16-.63.23-.95.23-1.18,0-2.23-1.04-2.05-2.35l1.45-11.02c.22-1.69-.31-3.39-1.46-4.65l-7.44-8.17c-1.1-1.2-.45-3.15,1.15-3.45l10.21-1.91c1.77-.33,3.28-1.47,4.09-3.08l4.72-9.37c.38-.76,1.12-1.14,1.85-1.14M39,0c-7.03,0-13.36,3.9-16.52,10.18l-2.35,4.67-5.03.94c-6.59,1.24-12.01,5.95-14.14,12.31-2.13,6.36-.65,13.39,3.87,18.35l4.11,4.51-.81,6.11c-.7,5.29.92,10.61,4.43,14.62,3.52,4.01,8.59,6.31,13.92,6.31,2.93,0,5.86-.71,8.47-2.06l4.05-2.09,4.05,2.09c2.61,1.35,5.54,2.06,8.47,2.06,5.33,0,10.4-2.3,13.92-6.31,3.51-4,5.12-9.33,4.43-14.62l-.81-6.11,4.11-4.51c4.52-4.96,6-11.99,3.87-18.35-2.13-6.36-7.55-11.07-14.13-12.31l-5.03-.94-2.35-4.67C52.36,3.9,46.03,0,39,0h0Z"/>
</svg>