<?xml version="1.0" encoding="UTF-8"?>
<svg id="Layer_1" xmlns="http://www.w3.org/2000/svg" version="1.1" viewBox="0 0 78 78">
  <!-- Generator: Adobe Illustrator 30.1.0, SVG Export Plug-In . SVG Version: 2.1.1 Build 136)  -->
  <path d="M39,6.78c1.05,0,2.1.54,2.64,1.63l6.74,13.38c1.16,2.3,3.32,3.92,5.84,4.39l14.58,2.73c2.28.43,3.21,3.2,1.64,4.92l-10.63,11.66c-1.64,1.8-2.4,4.23-2.08,6.65l2.07,15.72c.25,1.88-1.25,3.36-2.93,3.36-.45,0-.91-.1-1.35-.33l-12.76-6.57c-1.18-.61-2.48-.91-3.77-.91s-2.59.3-3.77.91l-12.76,6.57c-.45.23-.91.33-1.35.33-1.69,0-3.18-1.49-2.93-3.36l2.07-15.73c.32-2.41-.44-4.84-2.08-6.64l-10.63-11.66c-1.57-1.72-.64-4.49,1.64-4.92l14.58-2.73c2.52-.47,4.68-2.1,5.83-4.39l6.74-13.38c.55-1.09,1.6-1.63,2.64-1.63M39,0C35.3,0,31.97,2.05,30.3,5.36l-6.74,13.38c-.2.41-.59.7-1.03.78l-14.58,2.73c-3.47.65-6.32,3.13-7.44,6.48-1.12,3.35-.34,7.05,2.04,9.66l10.63,11.66c.29.32.43.76.37,1.19l-2.07,15.73c-.37,2.79.48,5.59,2.32,7.69,1.86,2.12,4.53,3.33,7.33,3.33,1.54,0,3.08-.38,4.46-1.09l12.76-6.57c.21-.11.43-.16.67-.16s.46.05.67.16l12.76,6.57c1.38.71,2.92,1.09,4.46,1.09,2.8,0,5.47-1.21,7.33-3.33,1.84-2.1,2.69-4.91,2.32-7.69l-2.07-15.72c-.06-.44.08-.87.37-1.2l10.63-11.66c2.38-2.61,3.16-6.31,2.04-9.66-1.12-3.35-3.97-5.83-7.44-6.48l-14.58-2.73c-.44-.08-.83-.38-1.03-.78l-6.74-13.38C46.03,2.05,42.7,0,39,0h0Z"/>
</svg>