<?xml version="1.0" encoding="UTF-8"?>
<svg id="Layer_1" xmlns="http://www.w3.org/2000/svg" version="1.1" viewBox="0 0 78 78">
  <!-- Generator: Adobe Illustrator 30.1.0, SVG Export Plug-In . SVG Version: 2.1.1 Build 136)  -->
  <path d="M39,9.53c.96,0,1.92.5,2.42,1.49l6.17,12.24c1.06,2.1,3.03,3.59,5.34,4.02l13.34,2.5c2.09.39,2.93,2.93,1.5,4.5l-9.72,10.66c-1.5,1.65-2.2,3.87-1.91,6.08l1.9,14.38c.23,1.72-1.14,3.07-2.68,3.07-.41,0-.83-.1-1.24-.31l-11.67-6.01c-1.08-.56-2.26-.84-3.45-.84-1.18,0-2.36.28-3.45.84l-11.67,6.01c-.41.21-.83.31-1.24.31-1.54,0-2.91-1.36-2.68-3.07l1.9-14.38c.29-2.21-.41-4.43-1.9-6.07l-9.72-10.66c-1.43-1.57-.59-4.11,1.5-4.5l13.34-2.5c2.31-.43,4.28-1.92,5.34-4.02l6.17-12.24c.5-.99,1.46-1.49,2.42-1.49M39,0C34.35,0,30.16,2.58,28.07,6.73l-5.72,11.36-12.36,2.32c-4.36.82-7.94,3.94-9.35,8.14-1.41,4.21-.43,8.86,2.56,12.14l9.1,9.98-1.78,13.47c-.46,3.5.6,7.02,2.92,9.67,2.33,2.66,5.69,4.18,9.21,4.18,1.93,0,3.87-.47,5.6-1.36l10.75-5.54,10.75,5.54c1.73.89,3.67,1.36,5.6,1.36,3.52,0,6.88-1.52,9.21-4.18,2.32-2.65,3.38-6.17,2.92-9.67l-1.78-13.47,9.1-9.98c2.99-3.28,3.97-7.93,2.56-12.14-1.41-4.21-4.99-7.33-9.35-8.14l-12.36-2.32-5.72-11.36C47.84,2.58,43.65,0,39,0h0Z"/>
</svg>