<?xml version="1.0" encoding="UTF-8"?>
<svg id="Layer_1" xmlns="http://www.w3.org/2000/svg" version="1.1" viewBox="0 0 30 30">
  <!-- Generator: Adobe Illustrator 30.1.0, SVG Export Plug-In . SVG Version: 2.1.1 Build 136)  -->
  <path d="M15,4.73c.33,0,.67.17.84.52l2.15,4.26c.37.73,1.06,1.25,1.86,1.4l4.65.87c.73.14,1.02,1.02.52,1.57l-3.39,3.71c-.52.57-.77,1.35-.66,2.12l.66,5.01c.08.6-.4,1.07-.93,1.07-.14,0-.29-.03-.43-.11l-4.06-2.09c-.38-.19-.79-.29-1.2-.29-.41,0-.82.1-1.2.29l-4.06,2.09c-.14.07-.29.11-.43.11-.54,0-1.01-.47-.93-1.07l.66-5.01c.1-.77-.14-1.54-.66-2.12l-3.39-3.71c-.5-.55-.2-1.43.52-1.57l4.65-.87c.8-.15,1.49-.67,1.86-1.4l2.15-4.26c.17-.35.51-.52.84-.52M15,0c-2.16,0-4.1,1.2-5.07,3.12l-1.68,3.33-3.62.68c-2.02.38-3.68,1.83-4.34,3.78-.65,1.95-.2,4.11,1.19,5.63l2.73,2.99-.53,4.04c-.21,1.62.28,3.26,1.36,4.49,1.08,1.23,2.64,1.94,4.27,1.94.9,0,1.8-.22,2.6-.63l3.1-1.59,3.1,1.59c.8.41,1.7.63,2.6.63,1.63,0,3.19-.71,4.27-1.94,1.08-1.23,1.57-2.86,1.36-4.49l-.53-4.04,2.73-2.99c1.39-1.52,1.84-3.68,1.19-5.63-.65-1.95-2.32-3.4-4.34-3.78l-3.62-.68-1.68-3.33C19.1,1.2,17.16,0,15,0h0Z"/>
</svg>