<?xml version="1.0" encoding="UTF-8"?>
<svg id="Layer_1" xmlns="http://www.w3.org/2000/svg" version="1.1" viewBox="0 0 30 30">
  <!-- Generator: Adobe Illustrator 30.1.0, SVG Export Plug-In . SVG Version: 2.1.1 Build 136)  -->
  <path d="M15,6.32c.28,0,.56.15.71.44l1.82,3.61c.31.62.89,1.06,1.57,1.18l3.93.74c.61.12.86.86.44,1.32l-2.86,3.14c-.44.48-.65,1.14-.56,1.79l.56,4.24c.07.51-.34.91-.79.91-.12,0-.24-.03-.36-.09l-3.44-1.77c-.32-.16-.67-.25-1.02-.25s-.7.08-1.02.25l-3.44,1.77c-.12.06-.24.09-.36.09-.45,0-.86-.4-.79-.91l.56-4.24c.09-.65-.12-1.3-.56-1.79l-2.86-3.14c-.42-.46-.17-1.21.44-1.33l3.93-.74c.68-.13,1.26-.56,1.57-1.18l1.82-3.61c.15-.29.43-.44.71-.44M15,0C12.3,0,9.86,1.5,8.64,3.92l-.9,1.79-1.93.36c-2.53.48-4.62,2.29-5.44,4.73-.82,2.45-.25,5.15,1.49,7.06l1.58,1.73-.31,2.35c-.27,2.03.35,4.08,1.7,5.62,1.35,1.54,3.3,2.43,5.35,2.43,1.13,0,2.25-.27,3.26-.79l1.56-.8,1.56.8c1,.52,2.13.79,3.26.79,2.05,0,4-.89,5.35-2.43,1.35-1.54,1.97-3.59,1.7-5.62l-.31-2.35,1.58-1.74c1.74-1.91,2.31-4.61,1.49-7.06-.82-2.45-2.9-4.26-5.44-4.73l-1.93-.36-.9-1.79C20.14,1.5,17.7,0,15,0h0Z"/>
</svg>