<?xml version="1.0" encoding="UTF-8"?>
<svg id="Layer_1" xmlns="http://www.w3.org/2000/svg" version="1.1" viewBox="0 0 28 28">
  <!-- Generator: Adobe Illustrator 30.1.0, SVG Export Plug-In . SVG Version: 2.1.1 Build 136)  -->
  <g>
    <g>
      <rect x="12.96" y="8.51" width="2.09" height="2.09"/>
      <path d="M14.56,8.99v1.12h-1.12v-1.12h1.12M15.52,8.03h-3.05v3.05h3.05v-3.05h0Z"/>
    </g>
    <g>
      <polygon points="11.83 19.18 11.83 17.1 12.96 17.1 12.96 14.56 11.83 14.56 11.83 12.47 15.04 12.47 15.04 17.1 16.17 17.1 16.17 19.18 11.83 19.18"/>
      <path d="M14.56,12.95v4.63h1.12v1.12h-3.37v-1.12h1.12v-3.5h-1.12v-1.12h2.25M15.52,11.99h-4.17v3.05h1.12v1.58h-1.12v3.05h5.29v-3.05h-1.12v-4.63h0Z"/>
    </g>
  </g>
  <circle id="Outer" cx="14" cy="14" r="11.05" fill="none" stroke="#000" stroke-width="5.9"/>
</svg>