<?xml version="1.0" encoding="UTF-8"?>
<svg id="Layer_1" xmlns="http://www.w3.org/2000/svg" version="1.1" viewBox="0 0 28 28">
  <!-- Generator: Adobe Illustrator 30.1.0, SVG Export Plug-In . SVG Version: 2.1.1 Build 136)  -->
  <g>
    <g>
      <rect x="13" y="7.62" width="2" height="2"/>
      <path d="M14.74,7.89v1.48h-1.48v-1.48h1.48M15.26,7.36h-2.53v2.53h2.53v-2.53h0Z"/>
    </g>
    <g>
      <polygon points="11.52 20.25 11.52 18.25 13 18.25 13 14.17 11.52 14.17 11.52 12.17 15 12.17 15 18.25 16.48 18.25 16.48 20.25 11.52 20.25"/>
      <path d="M14.74,12.43v6.08h1.48v1.48h-4.43v-1.48h1.48v-4.61h-1.48v-1.48h2.95M15.26,11.91h-4v2.53h1.48v3.56h-1.48v2.53h5.48v-2.53h-1.48v-6.08h0Z"/>
    </g>
  </g>
  <circle id="Outer" cx="14" cy="14" r="12.29" fill="none" stroke="#000" stroke-width="3.42"/>
</svg>