<?xml version="1.0" encoding="UTF-8"?>
<svg id="Layer_1" xmlns="http://www.w3.org/2000/svg" version="1.1" viewBox="0 0 28 28">
  <!-- Generator: Adobe Illustrator 30.1.0, SVG Export Plug-In . SVG Version: 2.1.1 Build 136)  -->
  <g>
    <g>
      <rect x="13.02" y="7.09" width="1.96" height="1.96"/>
      <path d="M14.85,7.22v1.69h-1.69v-1.69h1.69M15.11,6.96h-2.22v2.22h2.22v-2.22h0Z"/>
    </g>
    <g>
      <polygon points="11.33 20.91 11.33 18.95 13.02 18.95 13.02 13.92 11.33 13.92 11.33 11.97 14.98 11.97 14.98 18.95 16.67 18.95 16.67 20.91 11.33 20.91"/>
      <path d="M14.85,12.1v6.99h1.69v1.69h-5.08v-1.69h1.69v-5.29h-1.69v-1.69h3.39M15.11,11.84h-3.91v2.22h1.69v4.77h-1.69v2.22h5.61v-2.22h-1.69v-6.99h0Z"/>
    </g>
  </g>
  <circle id="Outer" cx="14" cy="14" r="13.03" fill="none" stroke="#000" stroke-width="1.94"/>
</svg>