<?xml version="1.0" encoding="UTF-8"?>
<svg id="Layer_1" xmlns="http://www.w3.org/2000/svg" version="1.1" viewBox="0 0 120 120">
  <!-- Generator: Adobe Illustrator 30.1.0, SVG Export Plug-In . SVG Version: 2.1.1 Build 136)  -->
  <g>
    <g>
      <rect x="55.57" y="35.73" width="8.85" height="8.85"/>
      <path d="M62.55,37.6v5.1h-5.1v-5.1h5.1M66.3,33.85h-12.6v12.6h12.6v-12.6h0Z"/>
    </g>
    <g>
      <polygon points="50.47 83.11 50.47 74.25 55.57 74.25 55.57 62.07 50.47 62.07 50.47 53.21 64.43 53.21 64.43 74.25 69.53 74.25 69.53 83.11 50.47 83.11"/>
      <path d="M62.55,55.09v21.04h5.1v5.1h-15.31v-5.1h5.1v-15.94h-5.1v-5.1h10.21M66.3,51.34h-17.71v12.6h5.1v8.44h-5.1v12.6h22.81v-12.6h-5.1v-21.04h0Z"/>
    </g>
  </g>
  <circle id="Outer" cx="60" cy="60" r="48.41" fill="none" stroke="#000" stroke-width="23.17"/>
</svg>