<?xml version="1.0" encoding="UTF-8"?>
<svg id="Layer_1" xmlns="http://www.w3.org/2000/svg" version="1.1" viewBox="0 0 120 120">
  <!-- Generator: Adobe Illustrator 30.1.0, SVG Export Plug-In . SVG Version: 2.1.1 Build 136)  -->
  <g>
    <g>
      <rect x="55.77" y="31.14" width="8.45" height="8.45"/>
      <path d="M63.48,31.89v6.95h-6.95v-6.95h6.95M64.98,30.39h-9.95v9.95h9.95v-9.95h0Z"/>
    </g>
    <g>
      <polygon points="48.82 88.68 48.82 80.23 55.77 80.23 55.77 60.03 48.82 60.03 48.82 51.58 64.23 51.58 64.23 80.23 71.18 80.23 71.18 88.68 48.82 88.68"/>
      <path d="M63.48,52.33v28.65h6.95v6.95h-20.85v-6.95h6.95v-21.7h-6.95v-6.95h13.9M64.98,50.83h-16.9v9.95h6.95v18.7h-6.95v9.95h23.85v-9.95h-6.95v-28.65h0Z"/>
    </g>
  </g>
  <circle id="Outer" cx="60" cy="60" r="54.79" fill="none" stroke="#000" stroke-width="10.43"/>
</svg>