<?xml version="1.0" encoding="UTF-8"?>
<svg id="Layer_1" xmlns="http://www.w3.org/2000/svg" version="1.1" viewBox="0 0 120 120">
  <!-- Generator: Adobe Illustrator 30.1.0, SVG Export Plug-In . SVG Version: 2.1.1 Build 136)  -->
  <g>
    <g>
      <rect x="55.53" y="36.48" width="8.94" height="8.94"/>
      <path d="M62.41,38.54v4.81h-4.81v-4.81h4.81M66.53,34.41h-13.06v13.06h13.06v-13.06h0Z"/>
    </g>
    <g>
      <polygon points="50.72 82.22 50.72 73.28 55.53 73.28 55.53 62.39 50.72 62.39 50.72 53.45 64.47 53.45 64.47 73.28 69.28 73.28 69.28 82.22 50.72 82.22"/>
      <path d="M62.41,55.51v19.83h4.81v4.81h-14.43v-4.81h4.81v-15.02h-4.81v-4.81h9.62M66.53,51.39h-17.87v13.06h4.81v6.77h-4.81v13.06h22.68v-13.06h-4.81v-19.83h0Z"/>
    </g>
  </g>
  <circle id="Outer" cx="60" cy="60" r="47.36" fill="none" stroke="#000" stroke-width="25.27"/>
</svg>