<?xml version="1.0" encoding="UTF-8"?>
<svg id="Layer_1" xmlns="http://www.w3.org/2000/svg" version="1.1" viewBox="0 0 87 87">
  <!-- Generator: Adobe Illustrator 30.1.0, SVG Export Plug-In . SVG Version: 2.1.1 Build 136)  -->
  <circle id="Outer" cx="43.5" cy="43.5" r="38.18" fill="none" stroke="#000" stroke-width="10.63"/>
  <g>
    <g>
      <rect x="40.75" y="56.71" width="5.45" height="5.45"/>
      <path d="M45.39,57.52v3.82h-3.82v-3.82h3.82M47.02,55.89h-7.09v7.09h7.09v-7.09h0Z"/>
    </g>
    <g>
      <path d="M40.76,50.89l-.02-2.25c0-2.02.75-3.95,2.1-5.44l3.79-4.19c.9-1,1.4-2.29,1.4-3.62,0-1.81-1.49-3.28-3.31-3.28h-2.43c-1.83,0-3.31,1.47-3.31,3.28v.82h-5.49v-.82c0-4.82,3.95-8.74,8.8-8.74h2.43c4.85,0,8.8,3.92,8.8,8.74,0,2.69-1,5.27-2.8,7.27l-3.79,4.2c-.46.51-.7,1.12-.71,1.79l-.02,2.26h-5.44Z"/>
      <path d="M44.72,27.45c4.4,0,7.98,3.56,7.98,7.93,0,2.49-.92,4.88-2.59,6.73l-3.79,4.2c-.59.65-.91,1.46-.91,2.33v1.45h-3.84v-1.45c0-1.81.66-3.54,1.88-4.89l3.79-4.2c1.04-1.15,1.61-2.63,1.61-4.17,0-2.26-1.85-4.1-4.13-4.1h-2.43c-2.28,0-4.13,1.84-4.13,4.1h-3.86c0-4.37,3.58-7.93,7.98-7.93h2.43M44.72,25.82h-2.43c-5.3,0-9.62,4.29-9.62,9.56v1.63h7.12v-1.63c0-1.36,1.12-2.47,2.5-2.47h2.43c1.38,0,2.5,1.11,2.5,2.47,0,1.14-.42,2.23-1.19,3.08l-3.79,4.2c-1.48,1.64-2.31,3.76-2.31,5.97v1.47s.03,1.62.03,1.62h7.06l.02-1.61v-1.45c.02-.47.18-.89.51-1.25l3.79-4.2c1.94-2.15,3.01-4.93,3.01-7.82,0-5.27-4.31-9.56-9.62-9.56h0Z"/>
    </g>
  </g>
</svg>