<?xml version="1.0" encoding="UTF-8"?>
<svg id="Layer_1" xmlns="http://www.w3.org/2000/svg" version="1.1" viewBox="0 0 87 87">
  <!-- Generator: Adobe Illustrator 30.1.0, SVG Export Plug-In . SVG Version: 2.1.1 Build 136)  -->
  <circle id="Outer" cx="43.5" cy="43.5" r="34.34" fill="none" stroke="#000" stroke-width="18.32"/>
  <g>
    <g>
      <rect x="40.69" y="53.75" width="5.58" height="5.58"/>
      <path d="M44.78,55.25v2.59h-2.59v-2.59h2.59M47.77,52.26h-8.58v8.58h8.58v-8.58h0Z"/>
    </g>
    <g>
      <path d="M40.71,48.79l-.02-2.46c0-1.62.6-3.15,1.67-4.33l2.57-2.84c.46-.5.71-1.15.71-1.83,0-.71-.58-1.28-1.3-1.28h-1.65c-.72,0-1.3.58-1.3,1.28v1.5h-5.61v-1.5c0-3.79,3.1-6.87,6.91-6.87h1.65c3.81,0,6.91,3.08,6.91,6.87,0,2.06-.76,4.04-2.14,5.57l-2.57,2.85c-.16.17-.23.37-.24.58l-.02,2.47h-5.56Z"/>
      <path d="M44.33,31.95c2.99,0,5.42,2.41,5.42,5.38,0,1.69-.62,3.31-1.76,4.56l-2.57,2.85c-.4.44-.62.99-.62,1.58v.98h-2.6v-.98c0-1.23.45-2.4,1.28-3.32l2.57-2.85c.7-.78,1.09-1.78,1.09-2.83,0-1.53-1.26-2.78-2.8-2.78h-1.65c-1.54,0-2.8,1.25-2.8,2.78h-2.62c0-2.97,2.43-5.38,5.42-5.38h1.65M44.33,28.95h-1.65c-4.64,0-8.41,3.75-8.41,8.37v2.99h7.59l-.61.68c-1.32,1.46-2.05,3.34-2.06,5.31v1.02s.03,2.96.03,2.96h8.52l.03-2.96v-.75s2.43-2.68,2.43-2.68c1.63-1.81,2.53-4.14,2.53-6.57,0-4.61-3.77-8.37-8.41-8.37h0ZM42.87,37.53h1.25c-.04.23-.14.44-.3.61l-.95,1.05v-1.67h0Z"/>
    </g>
  </g>
</svg>