<?xml version="1.0" encoding="UTF-8"?>
<svg id="Layer_1" xmlns="http://www.w3.org/2000/svg" version="1.1" viewBox="0 0 87 87">
  <!-- Generator: Adobe Illustrator 30.1.0, SVG Export Plug-In . SVG Version: 2.1.1 Build 136)  -->
  <circle id="Outer" cx="43.5" cy="43.5" r="35.1" fill="none" stroke="#000" stroke-width="16.8"/>
  <g>
    <g>
      <rect x="40.71" y="54.34" width="5.54" height="5.54"/>
      <path d="M44.89,55.7v2.82h-2.82v-2.82h2.82M47.61,52.98h-8.26v8.26h8.26v-8.26h0Z"/>
    </g>
    <g>
      <path d="M40.73,49.17l-.02-2.42c0-1.69.63-3.29,1.75-4.53l2.8-3.1c.54-.6.84-1.37.84-2.17,0-.92-.76-1.67-1.69-1.67h-1.8c-.93,0-1.69.75-1.69,1.67v1.36h-5.57v-1.36c0-3.98,3.25-7.21,7.26-7.21h1.8c4,0,7.26,3.24,7.26,7.21,0,2.17-.8,4.26-2.27,5.88l-2.8,3.1c-.21.24-.32.51-.33.81l-.02,2.42h-5.52Z"/>
      <path d="M44.4,31.1c3.25,0,5.9,2.63,5.9,5.85,0,1.84-.68,3.6-1.91,4.97l-2.8,3.1c-.43.48-.67,1.07-.68,1.72v1.07h-2.83v-1.07c0-1.34.49-2.61,1.39-3.61l2.8-3.1c.77-.85,1.19-1.94,1.19-3.08,0-1.67-1.37-3.03-3.05-3.03h-1.8c-1.68,0-3.05,1.36-3.05,3.03h-2.85c0-3.23,2.64-5.85,5.9-5.85h1.8M44.4,28.38h-1.8c-4.75,0-8.62,3.85-8.62,8.57v2.72h8.29v-2.72c0-.17.15-.31.33-.31h1.8c.18,0,.33.14.33.31,0,.46-.17.91-.49,1.26l-2.8,3.1c-1.35,1.49-2.09,3.41-2.1,5.42v1.1s.03,2.69.03,2.69h8.21l.03-2.69v-1.02s2.78-3.07,2.78-3.07c1.69-1.87,2.62-4.28,2.62-6.79,0-4.73-3.86-8.57-8.62-8.57h0Z"/>
    </g>
  </g>
</svg>