<?xml version="1.0" encoding="UTF-8"?>
<svg id="Layer_1" xmlns="http://www.w3.org/2000/svg" version="1.1" viewBox="0 0 87 87">
  <!-- Generator: Adobe Illustrator 30.1.0, SVG Export Plug-In . SVG Version: 2.1.1 Build 136)  -->
  <circle id="Outer" cx="43.5" cy="43.5" r="36.64" fill="none" stroke="#000" stroke-width="13.73"/>
  <g>
    <g>
      <rect x="40.74" y="55.53" width="5.48" height="5.48"/>
      <path d="M45.13,56.61v3.31h-3.31v-3.31h3.31M47.31,54.44h-7.66v7.66h7.66v-7.66h0Z"/>
    </g>
    <g>
      <path d="M40.75,49.98l-.02-2.33c0-1.85.69-3.61,1.92-4.97l3.28-3.63c.72-.79,1.11-1.82,1.11-2.88,0-1.36-1.11-2.46-2.48-2.46h-2.1c-1.37,0-2.48,1.1-2.48,2.46v1.09h-5.51v-1.09c0-4.38,3.59-7.95,8-7.95h2.1c4.41,0,8,3.56,8,7.95,0,2.42-.9,4.75-2.52,6.55l-3.28,3.63c-.33.37-.51.81-.51,1.29l-.02,2.33h-5.46Z"/>
      <path d="M44.55,29.32c3.81,0,6.91,3.08,6.91,6.86,0,2.15-.8,4.22-2.24,5.82l-3.28,3.63c-.51.56-.79,1.26-.79,2.02v1.25h-3.32v-1.25c0-1.57.57-3.06,1.63-4.23l3.28-3.63c.9-.99,1.39-2.28,1.39-3.61,0-1.95-1.6-3.55-3.57-3.55h-2.1c-1.97,0-3.57,1.59-3.57,3.55h-3.34c0-3.78,3.1-6.86,6.91-6.86h2.1M44.55,27.14h-2.1c-5.01,0-9.08,4.05-9.08,9.03v2.17h7.69v-2.17c0-.76.63-1.37,1.4-1.37h2.1c.77,0,1.4.61,1.4,1.37,0,.79-.29,1.56-.83,2.15l-3.28,3.63c-1.41,1.56-2.19,3.58-2.2,5.68v1.28s.03,2.16.03,2.16h7.62l.02-2.15v-1.25c.01-.22.09-.41.24-.58l3.28-3.63c1.81-2,2.8-4.59,2.8-7.28,0-4.98-4.07-9.03-9.08-9.03h0Z"/>
    </g>
  </g>
</svg>