<?xml version="1.0" encoding="UTF-8"?>
<svg id="Layer_1" xmlns="http://www.w3.org/2000/svg" version="1.1" viewBox="0 0 87 87">
  <!-- Generator: Adobe Illustrator 30.1.0, SVG Export Plug-In . SVG Version: 2.1.1 Build 136)  -->
  <circle id="Outer" cx="43.5" cy="43.5" r="39.72" fill="none" stroke="#000" stroke-width="7.56"/>
  <g>
    <g>
      <rect x="40.75" y="57.86" width="5.45" height="5.45"/>
      <path d="M45.65,58.41v4.36h-4.36v-4.36h4.36M46.74,57.32h-6.53v6.53h6.53v-6.53h0Z"/>
    </g>
    <g>
      <path d="M40.76,51.86l-.02-2.19c0-2.2.82-4.31,2.3-5.94l4.32-4.78c1.09-1.21,1.69-2.77,1.69-4.39,0-2.28-1.87-4.13-4.16-4.13h-2.77c-2.29,0-4.16,1.85-4.16,4.13v.54h-5.48v-.54c0-5.28,4.33-9.58,9.65-9.58h2.77c5.32,0,9.64,4.3,9.64,9.58,0,2.97-1.1,5.82-3.1,8.03l-4.32,4.78c-.59.65-.9,1.44-.9,2.29l-.02,2.19h-5.44Z"/>
      <path d="M44.89,25.52c5.02,0,9.1,4.05,9.1,9.04,0,2.84-1.05,5.56-2.96,7.67l-4.32,4.78c-.67.74-1.04,1.66-1.04,2.65l-.02,1.65h-4.36v-1.65c0-2.07.75-4.03,2.14-5.57l4.32-4.78c1.18-1.31,1.83-3,1.83-4.75,0-2.58-2.11-4.67-4.7-4.67h-2.77c-2.59,0-4.7,2.1-4.7,4.67h-4.4c0-4.98,4.08-9.04,9.1-9.04h2.77M44.89,24.43h-2.77c-5.62,0-10.19,4.54-10.19,10.12v1.09h6.57v-1.09c0-1.98,1.62-3.58,3.62-3.58h2.77c1.99,0,3.62,1.61,3.62,3.58,0,1.49-.55,2.92-1.55,4.03l-4.32,4.78c-1.56,1.73-2.43,3.97-2.44,6.3v1.66s.02,1.08.02,1.08h6.51v-1.08s.03-1.65.03-1.65c0-.72.27-1.39.76-1.94l4.32-4.78c2.09-2.31,3.24-5.29,3.24-8.4,0-5.58-4.57-10.12-10.19-10.12h0Z"/>
    </g>
  </g>
</svg>