<?xml version="1.0" encoding="UTF-8"?>
<svg id="Layer_1" xmlns="http://www.w3.org/2000/svg" version="1.1" viewBox="0 0 87 87">
  <!-- Generator: Adobe Illustrator 30.1.0, SVG Export Plug-In . SVG Version: 2.1.1 Build 136)  -->
  <circle id="Outer" cx="43.5" cy="43.5" r="40.48" fill="none" stroke="#000" stroke-width="6.04"/>
  <g>
    <g>
      <rect x="40.75" y="58.43" width="5.45" height="5.45"/>
      <path d="M45.79,58.84v4.63h-4.63v-4.63h4.63M46.6,58.03h-6.26v6.26h6.26v-6.26h0Z"/>
    </g>
    <g>
      <path d="M40.75,52.36l-.02-2.16c0-2.3.86-4.5,2.4-6.2l4.59-5.08c1.19-1.31,1.84-3.01,1.84-4.78,0-2.51-2.06-4.56-4.59-4.56h-2.95c-2.53,0-4.59,2.04-4.59,4.56v.41h-5.49v-.41c0-5.52,4.52-10.01,10.08-10.01h2.95c5.56,0,10.08,4.49,10.08,10.01,0,3.11-1.15,6.1-3.25,8.42l-4.59,5.08c-.65.72-1,1.6-1,2.55l-.02,2.16h-5.44Z"/>
      <path d="M44.97,24.54c5.33,0,9.67,4.31,9.67,9.6,0,3.01-1.12,5.91-3.14,8.15l-4.59,5.08c-.71.79-1.1,1.76-1.11,2.82l-.02,1.75h-4.63l-.02-1.75c0-2.2.82-4.29,2.29-5.92l4.59-5.08c1.26-1.39,1.95-3.19,1.95-5.05,0-2.74-2.24-4.96-5-4.96h-2.95c-2.76,0-5,2.23-5,4.96h-4.67c0-5.29,4.34-9.6,9.67-9.6h2.95M44.97,23.73h-2.95c-5.78,0-10.49,4.67-10.49,10.42v.82h6.3v-.82c0-2.29,1.88-4.15,4.18-4.15h2.95c2.31,0,4.18,1.86,4.18,4.15,0,1.66-.62,3.26-1.74,4.51l-4.59,5.08c-1.61,1.78-2.5,4.07-2.5,6.46l.02,1.76v.81h6.25v-.81s.03-1.75.03-1.75c0-.85.31-1.64.9-2.28l4.59-5.08c2.16-2.39,3.35-5.48,3.35-8.7,0-5.75-4.7-10.42-10.49-10.42h0Z"/>
    </g>
  </g>
</svg>