<?xml version="1.0" encoding="UTF-8"?>
<svg id="Layer_1" xmlns="http://www.w3.org/2000/svg" version="1.1" viewBox="0 0 95 95">
  <!-- Generator: Adobe Illustrator 30.1.0, SVG Export Plug-In . SVG Version: 2.1.1 Build 136)  -->
  <path d="M47.5,20.01c.89,0,1.79.46,2.25,1.39l5.75,11.42c.99,1.96,2.83,3.34,4.98,3.75l12.44,2.33c1.95.36,2.73,2.73,1.4,4.19l-9.07,9.95c-1.4,1.53-2.05,3.61-1.78,5.67l1.77,13.41c.21,1.6-1.06,2.87-2.5,2.87-.38,0-.77-.09-1.15-.28l-10.88-5.6c-1.01-.52-2.11-.78-3.21-.78-1.1,0-2.21.26-3.21.78l-10.88,5.6c-.38.2-.77.28-1.15.28-1.44,0-2.71-1.27-2.5-2.87l1.77-13.42c.27-2.06-.38-4.13-1.78-5.66l-9.07-9.95c-1.34-1.47-.55-3.83,1.4-4.2l12.44-2.33c2.15-.4,3.99-1.79,4.98-3.75l5.75-11.42c.47-.93,1.36-1.39,2.25-1.39M47.5,0C38.94,0,31.23,4.75,27.37,12.4l-2.86,5.68-6.12,1.15c-8.03,1.5-14.62,7.25-17.22,14.99-2.59,7.75-.79,16.31,4.71,22.35l5.01,5.49-.98,7.44c-.85,6.44,1.12,12.93,5.39,17.8,4.29,4.89,10.46,7.69,16.95,7.69,3.57,0,7.13-.87,10.32-2.51l4.94-2.54,4.94,2.54c3.18,1.64,6.75,2.51,10.32,2.51,6.49,0,12.67-2.8,16.95-7.69,4.27-4.88,6.24-11.36,5.39-17.8l-.98-7.44,5.01-5.49c5.5-6.04,7.31-14.6,4.71-22.35-2.59-7.74-9.19-13.49-17.22-14.99l-6.13-1.15-2.86-5.68C63.77,4.75,56.06,0,47.5,0h0Z"/>
</svg>