<?xml version="1.0" encoding="UTF-8"?>
<svg id="Layer_1" xmlns="http://www.w3.org/2000/svg" version="1.1" viewBox="0 0 95 95">
  <!-- Generator: Adobe Illustrator 30.1.0, SVG Export Plug-In . SVG Version: 2.1.1 Build 136)  -->
  <path d="M47.5,6.59c1.33,0,2.66.69,3.36,2.07l8.56,16.99c1.47,2.92,4.21,4.98,7.41,5.58l18.52,3.47c2.89.54,4.07,4.06,2.08,6.24l-13.49,14.8c-2.08,2.28-3.05,5.37-2.65,8.44l2.63,19.96c.31,2.38-1.58,4.27-3.72,4.27-.57,0-1.15-.13-1.72-.42l-16.2-8.34c-1.5-.77-3.14-1.16-4.78-1.16-1.64,0-3.28.39-4.78,1.16l-16.2,8.34c-.57.29-1.15.42-1.72.42-2.14,0-4.04-1.89-3.72-4.27l2.63-19.97c.4-3.06-.56-6.15-2.64-8.43l-13.49-14.8c-1.99-2.18-.81-5.7,2.08-6.24l18.51-3.47c3.2-.6,5.94-2.66,7.41-5.57l8.56-16.99c.69-1.38,2.03-2.07,3.36-2.07M47.5,0C43.57,0,40.03,2.18,38.26,5.69l-8.56,16.99c-.54,1.07-1.56,1.84-2.74,2.06l-18.51,3.47c-3.69.69-6.72,3.33-7.91,6.89-1.19,3.56-.36,7.5,2.17,10.27l13.49,14.8c.77.85,1.13,1.99.98,3.13l-2.63,19.97c-.39,2.96.51,5.94,2.47,8.18,1.97,2.25,4.81,3.54,7.79,3.54,1.63,0,3.27-.4,4.74-1.16l16.2-8.34c.54-.28,1.15-.43,1.77-.43.61,0,1.22.15,1.77.43l16.2,8.34c1.47.76,3.1,1.16,4.74,1.16,2.98,0,5.82-1.29,7.79-3.54,1.96-2.23,2.86-5.21,2.47-8.18l-2.63-19.96c-.15-1.14.21-2.29.98-3.14l13.49-14.8c2.53-2.77,3.36-6.71,2.17-10.27-1.19-3.56-4.22-6.2-7.91-6.89l-18.52-3.47c-1.18-.22-2.2-.99-2.74-2.07l-8.56-16.99C54.97,2.18,51.43,0,47.5,0h0Z"/>
</svg>