<?xml version="1.0" encoding="UTF-8"?>
<svg id="Layer_1" xmlns="http://www.w3.org/2000/svg" version="1.1" viewBox="0 0 95 95">
  <!-- Generator: Adobe Illustrator 30.1.0, SVG Export Plug-In . SVG Version: 2.1.1 Build 136)  -->
  <path d="M47.5,14.99c1.06,0,2.11.55,2.67,1.64l6.8,13.5c1.17,2.32,3.34,3.96,5.89,4.43l14.71,2.76c2.3.43,3.23,3.23,1.66,4.96l-10.72,11.76c-1.65,1.81-2.42,4.27-2.1,6.71l2.09,15.86c.25,1.89-1.26,3.39-2.96,3.39-.45,0-.92-.11-1.36-.34l-12.87-6.63c-1.19-.61-2.5-.92-3.8-.92-1.3,0-2.61.31-3.8.92l-12.87,6.63c-.45.23-.91.34-1.36.34-1.7,0-3.21-1.5-2.96-3.39l2.09-15.87c.32-2.43-.45-4.89-2.1-6.7l-10.72-11.76c-1.58-1.73-.65-4.53,1.66-4.96l14.71-2.76c2.54-.48,4.72-2.11,5.89-4.43l6.8-13.5c.55-1.1,1.61-1.64,2.67-1.64M47.5,0c-6.83,0-12.98,3.79-16.06,9.89l-5.32,10.55-11.46,2.15c-6.4,1.2-11.67,5.78-13.74,11.96-2.07,6.18-.63,13.01,3.76,17.83l8.63,9.47-1.69,12.8c-.68,5.14.89,10.32,4.3,14.2,3.42,3.9,8.35,6.14,13.53,6.14,2.84,0,5.69-.69,8.23-2l9.81-5.05,9.81,5.05c2.54,1.31,5.39,2,8.23,2,5.17,0,10.1-2.24,13.53-6.14,3.41-3.89,4.98-9.06,4.3-14.2l-1.69-12.8,8.64-9.48c4.39-4.82,5.83-11.65,3.76-17.83-2.07-6.18-7.33-10.76-13.73-11.96l-11.46-2.15-5.32-10.55C60.48,3.79,54.33,0,47.5,0h0Z"/>
</svg>