<?xml version="1.0" encoding="UTF-8"?>
<svg id="Layer_1" xmlns="http://www.w3.org/2000/svg" version="1.1" viewBox="0 0 95 95">
  <!-- Generator: Adobe Illustrator 30.1.0, SVG Export Plug-In . SVG Version: 2.1.1 Build 136)  -->
  <path d="M47.5,18.35c.95,0,1.9.49,2.39,1.47l6.1,12.11c1.05,2.08,3,3.55,5.28,3.97l13.19,2.47c2.06.39,2.9,2.89,1.48,4.45l-9.61,10.55c-1.48,1.63-2.17,3.83-1.88,6.01l1.88,14.22c.22,1.7-1.13,3.04-2.65,3.04-.4,0-.82-.09-1.22-.3l-11.54-5.94c-1.07-.55-2.24-.83-3.41-.83-1.17,0-2.34.28-3.41.83l-11.54,5.94c-.4.21-.82.3-1.22.3-1.53,0-2.88-1.34-2.65-3.04l1.88-14.23c.29-2.18-.4-4.38-1.88-6.01l-9.61-10.55c-1.42-1.55-.58-4.06,1.49-4.45l13.19-2.47c2.28-.43,4.23-1.9,5.28-3.97l6.1-12.11c.5-.98,1.44-1.47,2.39-1.47M47.5,0C39.51,0,32.32,4.43,28.72,11.57l-3.68,7.3-7.89,1.48c-7.49,1.4-13.64,6.76-16.06,13.99-2.42,7.23-.74,15.22,4.4,20.85l6.21,6.81-1.22,9.22c-.79,6.01,1.04,12.06,5.03,16.61,4,4.56,9.76,7.18,15.82,7.18,3.33,0,6.65-.81,9.62-2.34l6.55-3.37,6.55,3.37c2.97,1.53,6.3,2.34,9.62,2.34,6.05,0,11.82-2.62,15.82-7.18,3.99-4.55,5.82-10.6,5.03-16.61l-1.22-9.22,6.21-6.81c5.13-5.63,6.82-13.62,4.4-20.85-2.42-7.22-8.57-12.59-16.06-13.99l-7.89-1.48-3.68-7.3C62.68,4.43,55.49,0,47.5,0h0Z"/>
</svg>