<?xml version="1.0" encoding="UTF-8"?>
<svg id="Layer_1" xmlns="http://www.w3.org/2000/svg" version="1.1" viewBox="0 0 95 95">
  <!-- Generator: Adobe Illustrator 30.1.0, SVG Export Plug-In . SVG Version: 2.1.1 Build 136)  -->
  <path d="M47.5,11.61c1.17,0,2.33.61,2.94,1.82l7.51,14.91c1.29,2.56,3.69,4.37,6.5,4.89l16.24,3.05c2.54.48,3.57,3.56,1.83,5.48l-11.84,12.99c-1.83,2-2.68,4.71-2.32,7.4l2.31,17.51c.28,2.09-1.39,3.74-3.27,3.74-.5,0-1.01-.12-1.51-.37l-14.21-7.32c-1.32-.68-2.76-1.02-4.2-1.02-1.44,0-2.88.34-4.2,1.02l-14.21,7.32c-.5.26-1.01.37-1.51.37-1.88,0-3.54-1.65-3.27-3.74l2.31-17.52c.35-2.69-.49-5.39-2.32-7.4l-11.84-12.99c-1.74-1.91-.71-5,1.83-5.48l16.24-3.04c2.81-.53,5.21-2.33,6.5-4.89l7.51-14.91c.61-1.21,1.78-1.82,2.94-1.82M47.5,0C41.84,0,36.74,3.14,34.19,8.2l-6.97,13.83-15.05,2.82c-5.31,1-9.67,4.8-11.39,9.92-1.72,5.13-.52,10.79,3.12,14.79l11.08,12.16-2.16,16.41c-.56,4.26.74,8.55,3.56,11.77,2.84,3.24,6.93,5.09,11.22,5.09,2.35,0,4.71-.57,6.82-1.66l13.09-6.74,13.09,6.74c2.11,1.09,4.47,1.66,6.82,1.66,4.29,0,8.38-1.86,11.22-5.09,2.82-3.22,4.12-7.51,3.56-11.77l-2.16-16.41,11.08-12.16c3.64-3.99,4.83-9.66,3.12-14.79-1.72-5.12-6.08-8.92-11.39-9.92l-15.06-2.82-6.97-13.84C58.26,3.14,53.16,0,47.5,0h0Z"/>
</svg>