<?xml version="1.0" encoding="UTF-8"?>
<svg id="Layer_1" xmlns="http://www.w3.org/2000/svg" version="1.1" viewBox="0 0 121 121">
  <!-- Generator: Adobe Illustrator 30.1.0, SVG Export Plug-In . SVG Version: 2.1.1 Build 136)  -->
  <g>
    <g>
      <rect x="56.18" y="32.94" width="8.65" height="8.65"/>
      <path d="M63.69,34.08v6.38h-6.38v-6.38h6.38M65.96,31.81h-10.92v10.92h10.92v-10.92h0Z"/>
    </g>
    <g>
      <polygon points="49.8 87.52 49.8 78.88 56.18 78.88 56.18 61.23 49.8 61.23 49.8 52.58 64.82 52.58 64.82 78.88 71.2 78.88 71.2 87.52 49.8 87.52"/>
      <path d="M63.69,53.72v26.29h6.38v6.38h-19.14v-6.38h6.38v-19.91h-6.38v-6.38h12.76M65.96,51.45h-17.3v10.92h6.38v15.38h-6.38v10.92h23.67v-10.92h-6.38v-26.29h0Z"/>
    </g>
  </g>
  <circle id="Outer" cx="60.5" cy="60.5" r="53.11" fill="none" stroke="#000" stroke-width="14.78"/>
</svg>