<?xml version="1.0" encoding="UTF-8"?>
<svg id="Layer_1" xmlns="http://www.w3.org/2000/svg" version="1.1" viewBox="0 0 121 121">
  <!-- Generator: Adobe Illustrator 30.1.0, SVG Export Plug-In . SVG Version: 2.1.1 Build 136)  -->
  <g>
    <g>
      <rect x="56.27" y="30.64" width="8.46" height="8.46"/>
      <path d="M64.16,31.2v7.32h-7.32v-7.32h7.32M65.3,30.07h-9.59v9.59h9.59v-9.59h0Z"/>
    </g>
    <g>
      <polygon points="48.95 90.36 48.95 81.91 56.27 81.91 56.27 60.17 48.95 60.17 48.95 51.72 64.73 51.72 64.73 81.91 72.05 81.91 72.05 90.36 48.95 90.36"/>
      <path d="M64.16,52.28v30.19h7.32v7.32h-21.97v-7.32h7.32v-22.87h-7.32v-7.32h14.65M65.3,51.15h-16.92v9.59h7.32v20.6h-7.32v9.59h24.24v-9.59h-7.32v-30.19h0Z"/>
    </g>
  </g>
  <circle id="Outer" cx="60.5" cy="60.5" r="56.3" fill="none" stroke="#000" stroke-width="8.39"/>
</svg>