<?xml version="1.0" encoding="UTF-8"?>
<svg id="Layer_1" xmlns="http://www.w3.org/2000/svg" version="1.1" viewBox="0 0 121 121">
  <!-- Generator: Adobe Illustrator 30.1.0, SVG Export Plug-In . SVG Version: 2.1.1 Build 136)  -->
  <g>
    <g>
      <rect x="56.04" y="36.03" width="8.93" height="8.93"/>
      <path d="M63.07,37.92v5.15h-5.15v-5.15h5.15M66.85,34.13h-12.71v12.71h12.71v-12.71h0Z"/>
    </g>
    <g>
      <polygon points="50.89 83.8 50.89 74.87 56.04 74.87 56.04 62.58 50.89 62.58 50.89 53.65 64.96 53.65 64.96 74.87 70.11 74.87 70.11 83.8 50.89 83.8"/>
      <path d="M63.07,55.55v21.22h5.15v5.15h-15.44v-5.15h5.15v-16.07h-5.15v-5.15h10.29M66.85,51.76h-17.86v12.71h5.15v8.51h-5.15v12.71h23v-12.71h-5.15v-21.22h0Z"/>
    </g>
  </g>
  <circle id="Outer" cx="60.5" cy="60.5" r="48.82" fill="none" stroke="#000" stroke-width="23.37"/>
</svg>