<?xml version="1.0" encoding="UTF-8"?>
<svg id="Layer_1" xmlns="http://www.w3.org/2000/svg" version="1.1" viewBox="0 0 121 121">
  <!-- Generator: Adobe Illustrator 30.1.0, SVG Export Plug-In . SVG Version: 2.1.1 Build 136)  -->
  <g>
    <g>
      <rect x="56.24" y="31.4" width="8.52" height="8.52"/>
      <path d="M64,32.16v7.01h-7.01v-7.01h7.01M65.52,30.64h-10.03v10.03h10.03v-10.03h0Z"/>
    </g>
    <g>
      <polygon points="49.23 89.42 49.23 80.9 56.24 80.9 56.24 60.53 49.23 60.53 49.23 52.01 64.76 52.01 64.76 80.9 71.77 80.9 71.77 89.42 49.23 89.42"/>
      <path d="M64,52.76v28.89h7.01v7.01h-21.03v-7.01h7.01v-21.88h-7.01v-7.01h14.02M65.52,51.25h-17.04v10.03h7.01v18.86h-7.01v10.03h24.05v-10.03h-7.01v-28.89h0Z"/>
    </g>
  </g>
  <circle id="Outer" cx="60.5" cy="60.5" r="55.24" fill="none" stroke="#000" stroke-width="10.51"/>
</svg>