<?xml version="1.0" encoding="UTF-8"?>
<svg id="Layer_1" xmlns="http://www.w3.org/2000/svg" version="1.1" viewBox="0 0 121 121">
  <!-- Generator: Adobe Illustrator 30.1.0, SVG Export Plug-In . SVG Version: 2.1.1 Build 136)  -->
  <g>
    <g>
      <rect x="55.99" y="36.78" width="9.01" height="9.01"/>
      <path d="M62.93,38.86v4.85h-4.85v-4.85h4.85M67.09,34.7h-13.17v13.17h13.17v-13.17h0Z"/>
    </g>
    <g>
      <polygon points="51.14 82.9 51.14 73.89 55.99 73.89 55.99 62.91 51.14 62.91 51.14 53.9 65.01 53.9 65.01 73.89 69.86 73.89 69.86 82.9 51.14 82.9"/>
      <path d="M62.93,55.98v20h4.85v4.85h-14.55v-4.85h4.85v-15.15h-4.85v-4.85h9.7M67.09,51.82h-18.02v13.17h4.85v6.83h-4.85v13.17h22.87v-13.17h-4.85v-20h0Z"/>
    </g>
  </g>
  <circle id="Outer" cx="60.5" cy="60.5" r="47.76" fill="none" stroke="#000" stroke-width="25.49"/>
</svg>