<?xml version="1.0" encoding="UTF-8"?>
<svg id="Layer_1" xmlns="http://www.w3.org/2000/svg" version="1.1" viewBox="0 0 20 20">
  <!-- Generator: Adobe Illustrator 30.1.0, SVG Export Plug-In . SVG Version: 2.1.1 Build 136)  -->
  <g>
    <g>
      <rect x="9.29" y="5.44" width="1.43" height="1.43"/>
      <path d="M10.53,5.63v1.05h-1.05v-1.05h1.05M10.9,5.26h-1.8v1.8h1.8v-1.8h0Z"/>
    </g>
    <g>
      <polygon points="8.23 14.47 8.23 13.04 9.29 13.04 9.29 10.12 8.23 10.12 8.23 8.69 10.71 8.69 10.71 13.04 11.77 13.04 11.77 14.47 8.23 14.47"/>
      <path d="M10.53,8.88v4.35h1.05v1.05h-3.16v-1.05h1.05v-3.29h-1.05v-1.05h2.11M10.9,8.5h-2.86v1.8h1.05v2.54h-1.05v1.8h3.91v-1.8h-1.05v-4.35h0Z"/>
    </g>
  </g>
  <circle id="Outer" cx="10" cy="10" r="8.78" fill="none" stroke="#000" stroke-width="2.44"/>
</svg>