<?xml version="1.0" encoding="UTF-8"?>
<svg id="Layer_1" xmlns="http://www.w3.org/2000/svg" version="1.1" viewBox="0 0 24 24">
  <!-- Generator: Adobe Illustrator 30.1.0, SVG Export Plug-In . SVG Version: 2.1.1 Build 136)  -->
  <g>
    <g>
      <rect x="11.13" y="6.84" width="1.74" height="1.74"/>
      <path d="M12.57,7.14v1.14h-1.14v-1.14h1.14M13.17,6.54h-2.34v2.34h2.34v-2.34h0Z"/>
    </g>
    <g>
      <polygon points="9.99 16.99 9.99 15.24 11.13 15.24 11.13 12.28 9.99 12.28 9.99 10.54 12.87 10.54 12.87 15.24 14.01 15.24 14.01 16.99 9.99 16.99"/>
      <path d="M12.57,10.84v4.7h1.14v1.14h-3.42v-1.14h1.14v-3.56h-1.14v-1.14h2.28M13.17,10.24h-3.48v2.34h1.14v2.36h-1.14v2.34h4.62v-2.34h-1.14v-4.7h0Z"/>
    </g>
  </g>
  <circle id="Outer" cx="12" cy="12" r="10.11" fill="none" stroke="#000" stroke-width="3.79"/>
</svg>