<?xml version="1.0" encoding="UTF-8"?>
<svg id="Layer_1" xmlns="http://www.w3.org/2000/svg" version="1.1" viewBox="0 0 24 24">
  <!-- Generator: Adobe Illustrator 30.1.0, SVG Export Plug-In . SVG Version: 2.1.1 Build 136)  -->
  <g>
    <g>
      <rect x="11.16" y="6.08" width="1.68" height="1.68"/>
      <path d="M12.73,6.19v1.45h-1.45v-1.45h1.45M12.95,5.96h-1.9v1.9h1.9v-1.9h0Z"/>
    </g>
    <g>
      <polygon points="9.71 17.92 9.71 16.25 11.16 16.25 11.16 11.94 9.71 11.94 9.71 10.26 12.84 10.26 12.84 16.25 14.29 16.25 14.29 17.92 9.71 17.92"/>
      <path d="M12.73,10.37v5.99h1.45v1.45h-4.36v-1.45h1.45v-4.54h-1.45v-1.45h2.91M12.95,10.15h-3.36v1.9h1.45v4.09h-1.45v1.9h4.81v-1.9h-1.45v-5.99h0Z"/>
    </g>
  </g>
  <circle id="Outer" cx="12" cy="12" r="11.17" fill="none" stroke="#000" stroke-width="1.66"/>
</svg>