<?xml version="1.0" encoding="UTF-8"?>
<svg id="Layer_1" xmlns="http://www.w3.org/2000/svg" version="1.1" viewBox="0 0 76 76">
  <!-- Generator: Adobe Illustrator 30.1.0, SVG Export Plug-In . SVG Version: 2.1.1 Build 136)  -->
  <g>
    <g>
      <rect x="35.2" y="22.63" width="5.61" height="5.61"/>
      <path d="M39.62,23.82v3.23h-3.23v-3.23h3.23M41.99,21.44h-7.98v7.98h7.98v-7.98h0Z"/>
    </g>
    <g>
      <polygon points="31.96 52.63 31.96 47.03 35.2 47.03 35.2 39.31 31.96 39.31 31.96 33.7 40.8 33.7 40.8 47.03 44.04 47.03 44.04 52.63 31.96 52.63"/>
      <path d="M39.62,34.89v13.33h3.23v3.23h-9.7v-3.23h3.23v-10.09h-3.23v-3.23h6.47M41.99,32.51h-11.22v7.98h3.23v5.34h-3.23v7.98h14.45v-7.98h-3.23v-13.33h0Z"/>
    </g>
  </g>
  <circle id="Outer" cx="38" cy="38" r="30.66" fill="none" stroke="#000" stroke-width="14.68"/>
</svg>