<?xml version="1.0" encoding="UTF-8"?>
<svg id="Layer_1" xmlns="http://www.w3.org/2000/svg" version="1.1" viewBox="0 0 76 76">
  <!-- Generator: Adobe Illustrator 30.1.0, SVG Export Plug-In . SVG Version: 2.1.1 Build 136)  -->
  <g>
    <g>
      <rect x="35.28" y="20.69" width="5.43" height="5.43"/>
      <path d="M40,21.4v4.01h-4.01v-4.01h4.01M41.43,19.98h-6.86v6.86h6.86v-6.86h0Z"/>
    </g>
    <g>
      <polygon points="31.28 54.97 31.28 49.54 35.28 49.54 35.28 38.46 31.28 38.46 31.28 33.03 40.72 33.03 40.72 49.54 44.72 49.54 44.72 54.97 31.28 54.97"/>
      <path d="M40,33.74v16.51h4.01v4.01h-12.02v-4.01h4.01v-12.51h-4.01v-4.01h8.01M41.43,32.31h-10.86v6.86h4.01v9.66h-4.01v6.86h14.87v-6.86h-4.01v-16.51h0Z"/>
    </g>
  </g>
  <circle id="Outer" cx="38" cy="38" r="33.36" fill="none" stroke="#000" stroke-width="9.29"/>
</svg>