<?xml version="1.0" encoding="UTF-8"?>
<svg id="Layer_1" xmlns="http://www.w3.org/2000/svg" version="1.1" viewBox="0 0 76 76">
  <!-- Generator: Adobe Illustrator 30.1.0, SVG Export Plug-In . SVG Version: 2.1.1 Build 136)  -->
  <g>
    <g>
      <rect x="35.32" y="19.72" width="5.35" height="5.35"/>
      <path d="M40.2,20.2v4.4h-4.4v-4.4h4.4M41.15,19.25h-6.3v6.3h6.3v-6.3h0Z"/>
    </g>
    <g>
      <polygon points="30.92 56.16 30.92 50.81 35.32 50.81 35.32 38.02 30.92 38.02 30.92 32.67 40.68 32.67 40.68 50.81 45.08 50.81 45.08 56.16 30.92 56.16"/>
      <path d="M40.2,33.14v18.14h4.4v4.4h-13.21v-4.4h4.4v-13.74h-4.4v-4.4h8.8M41.15,32.19h-10.7v6.3h4.4v11.84h-4.4v6.3h15.11v-6.3h-4.4v-18.14h0Z"/>
    </g>
  </g>
  <circle id="Outer" cx="38" cy="38" r="34.7" fill="none" stroke="#000" stroke-width="6.6"/>
</svg>