<?xml version="1.0" encoding="UTF-8"?>
<svg id="Layer_1" xmlns="http://www.w3.org/2000/svg" version="1.1" viewBox="0 0 76 76">
  <!-- Generator: Adobe Illustrator 30.1.0, SVG Export Plug-In . SVG Version: 2.1.1 Build 136)  -->
  <g>
    <g>
      <rect x="35.34" y="19.24" width="5.31" height="5.31"/>
      <path d="M40.3,19.6v4.6h-4.6v-4.6h4.6M41.01,18.89h-6.03v6.03h6.03v-6.03h0Z"/>
    </g>
    <g>
      <polygon points="30.74 56.76 30.74 51.44 35.34 51.44 35.34 37.8 30.74 37.8 30.74 32.48 40.66 32.48 40.66 51.44 45.26 51.44 45.26 56.76 30.74 56.76"/>
      <path d="M40.3,32.84v18.96h4.6v4.6h-13.8v-4.6h4.6v-14.36h-4.6v-4.6h9.2M41.01,32.13h-10.63v6.03h4.6v12.94h-4.6v6.03h15.23v-6.03h-4.6v-18.96h0Z"/>
    </g>
  </g>
  <circle id="Outer" cx="38" cy="38" r="35.36" fill="none" stroke="#000" stroke-width="5.27"/>
</svg>