<?xml version="1.0" encoding="UTF-8"?>
<svg id="Layer_1" xmlns="http://www.w3.org/2000/svg" version="1.1" viewBox="0 0 76 76">
  <!-- Generator: Adobe Illustrator 30.1.0, SVG Export Plug-In . SVG Version: 2.1.1 Build 136)  -->
  <g>
    <g>
      <rect x="35.24" y="21.67" width="5.52" height="5.52"/>
      <path d="M39.81,22.62v3.61h-3.61v-3.61h3.61M41.71,20.72h-7.41v7.41h7.41v-7.41h0Z"/>
    </g>
    <g>
      <polygon points="31.63 53.79 31.63 48.27 35.24 48.27 35.24 38.89 31.63 38.89 31.63 33.38 40.76 33.38 40.76 48.27 44.37 48.27 44.37 53.79 31.63 53.79"/>
      <path d="M39.81,34.33v14.9h3.61v3.61h-10.84v-3.61h3.61v-11.28h-3.61v-3.61h7.23M41.71,32.43h-11.03v7.41h3.61v7.48h-3.61v7.41h14.64v-7.41h-3.61v-14.9h0Z"/>
    </g>
  </g>
  <circle id="Outer" cx="38" cy="38" r="32" fill="none" stroke="#000" stroke-width="11.99"/>
</svg>