<?xml version="1.0" encoding="UTF-8"?>
<svg id="Layer_1" xmlns="http://www.w3.org/2000/svg" version="1.1" viewBox="0 0 44 44">
  <!-- Generator: Adobe Illustrator 30.1.0, SVG Export Plug-In . SVG Version: 2.1.1 Build 136)  -->
  <path d="M22,5.38c.54,0,1.08.28,1.36.84l3.48,6.9c.6,1.18,1.71,2.02,3.01,2.27l7.52,1.41c1.18.22,1.65,1.65.85,2.54l-5.48,6.02c-.85.93-1.24,2.18-1.07,3.43l1.07,8.11c.13.97-.64,1.73-1.51,1.73-.23,0-.47-.05-.7-.17l-6.58-3.39c-.61-.31-1.28-.47-1.94-.47s-1.33.16-1.94.47l-6.58,3.39c-.23.12-.47.17-.7.17-.87,0-1.64-.77-1.51-1.73l1.07-8.11c.16-1.24-.23-2.5-1.07-3.43l-5.48-6.02c-.81-.89-.33-2.32.85-2.54l7.52-1.41c1.3-.24,2.41-1.08,3.01-2.27l3.48-6.9c.28-.56.82-.84,1.36-.84M22,0c-2.62,0-4.98,1.46-6.16,3.8l-3.23,6.41-6.97,1.31c-2.46.46-4.48,2.22-5.27,4.59-.8,2.37-.24,5,1.44,6.85l5.13,5.63-1,7.6c-.26,1.97.34,3.96,1.65,5.45,1.31,1.5,3.21,2.36,5.19,2.36,1.09,0,2.18-.27,3.16-.77l6.06-3.12,6.06,3.12c.98.5,2.07.77,3.16.77,1.99,0,3.88-.86,5.19-2.36,1.31-1.49,1.91-3.48,1.65-5.45l-1-7.6,5.13-5.63c1.69-1.85,2.24-4.47,1.44-6.85-.79-2.37-2.82-4.13-5.27-4.59l-6.97-1.31-3.23-6.41c-1.18-2.34-3.54-3.8-6.16-3.8h0Z"/>
</svg>