<?xml version="1.0" encoding="UTF-8"?>
<svg id="Layer_1" xmlns="http://www.w3.org/2000/svg" version="1.1" viewBox="0 0 35 35">
  <!-- Generator: Adobe Illustrator 30.1.0, SVG Export Plug-In . SVG Version: 2.1.1 Build 136)  -->
  <circle id="Outer" cx="17.5" cy="17.5" r="13.81" fill="none" stroke="#000" stroke-width="7.37"/>
  <g>
    <g>
      <rect x="16.37" y="21.62" width="2.25" height="2.25"/>
      <path d="M18.01,22.23v1.04h-1.04v-1.04h1.04M19.22,21.02h-3.45v3.45h3.45v-3.45h0Z"/>
    </g>
    <g>
      <path d="M16.38,19.63v-.99c0-.65.23-1.27.66-1.74l1.03-1.14c.18-.2.28-.46.28-.74s-.24-.52-.52-.52h-.66c-.29,0-.52.23-.52.52v.6h-2.26v-.6c0-1.52,1.25-2.77,2.78-2.77h.66c1.53,0,2.78,1.24,2.78,2.77,0,.83-.31,1.62-.86,2.24l-1.03,1.15c-.06.07-.09.15-.09.23v1h-2.25Z"/>
      <path d="M17.83,12.85c1.2,0,2.18.97,2.18,2.16,0,.68-.25,1.33-.71,1.84l-1.03,1.15c-.16.18-.25.4-.25.64v.39h-1.05v-.39c0-.49.18-.97.51-1.33l1.03-1.14c.28-.31.44-.72.44-1.14,0-.62-.51-1.12-1.13-1.12h-.66c-.62,0-1.13.5-1.13,1.12h-1.05c0-1.19.98-2.16,2.18-2.16h.66M17.83,11.65h-.66c-1.86,0-3.38,1.51-3.38,3.37v1.2h3.05l-.25.27c-.53.59-.82,1.34-.83,2.14v.41s.01,1.19.01,1.19h3.43v-1.19s.02-.3.02-.3l.97-1.08c.66-.73,1.02-1.67,1.02-2.64,0-1.86-1.52-3.37-3.38-3.37h0ZM17.24,15.1h.5c-.02.09-.06.18-.12.25l-.38.42v-.67h0Z"/>
    </g>
  </g>
</svg>