<?xml version="1.0" encoding="UTF-8"?>
<svg id="Layer_1" xmlns="http://www.w3.org/2000/svg" version="1.1" viewBox="0 0 35 35">
  <!-- Generator: Adobe Illustrator 30.1.0, SVG Export Plug-In . SVG Version: 2.1.1 Build 136)  -->
  <circle id="Outer" cx="17.5" cy="17.5" r="15.36" fill="none" stroke="#000" stroke-width="4.28"/>
  <g>
    <g>
      <rect x="16.39" y="22.81" width="2.19" height="2.19"/>
      <path d="M18.26,23.14v1.54h-1.54v-1.54h1.54M18.92,22.48h-2.85v2.85h2.85v-2.85h0Z"/>
    </g>
    <g>
      <path d="M16.4,20.47v-.91c0-.81.3-1.59.84-2.19l1.52-1.69c.36-.4.56-.92.56-1.46,0-.73-.6-1.32-1.33-1.32h-.98c-.73,0-1.33.59-1.33,1.32v.33h-2.21v-.33c0-1.94,1.59-3.52,3.54-3.52h.98c1.95,0,3.54,1.58,3.54,3.52,0,1.08-.4,2.12-1.13,2.93l-1.52,1.69c-.18.21-.28.45-.28.72v.91h-2.2Z"/>
      <path d="M17.99,11.04c1.77,0,3.21,1.43,3.21,3.19,0,1-.37,1.96-1.04,2.71l-1.52,1.69c-.24.26-.37.59-.37.94v.58h-1.54v-.58c0-.73.27-1.42.76-1.97l1.52-1.69c.42-.46.65-1.06.65-1.68,0-.91-.74-1.65-1.66-1.65h-.98c-.92,0-1.66.74-1.66,1.65h-1.55c0-1.76,1.44-3.19,3.21-3.19h.98M17.99,10.39h-.98c-2.13,0-3.87,1.73-3.87,3.85v.66h2.86v-.66c0-.55.45-.99,1-.99h.98c.55,0,1,.45,1,.99,0,.46-.17.9-.48,1.24l-1.52,1.69c-.6.66-.93,1.51-.93,2.4v.59s.01.65.01.65h2.84v-.65s.01-.58.01-.58c0-.19.07-.36.2-.5l1.52-1.69c.78-.87,1.21-1.98,1.21-3.15,0-2.12-1.74-3.85-3.87-3.85h0Z"/>
    </g>
  </g>
</svg>