<?xml version="1.0" encoding="UTF-8"?>
<svg id="Layer_1" xmlns="http://www.w3.org/2000/svg" version="1.1" viewBox="0 0 35 35">
  <!-- Generator: Adobe Illustrator 30.1.0, SVG Export Plug-In . SVG Version: 2.1.1 Build 136)  -->
  <circle id="Outer" cx="17.5" cy="17.5" r="15.98" fill="none" stroke="#000" stroke-width="3.04"/>
  <g>
    <g>
      <rect x="16.39" y="23.28" width="2.19" height="2.19"/>
      <path d="M18.37,23.5v1.75h-1.75v-1.75h1.75M18.8,23.06h-2.63v2.63h2.63v-2.63h0Z"/>
    </g>
    <g>
      <path d="M16.4,20.86v-.88c0-.89.32-1.73.92-2.39l1.74-1.92c.44-.49.68-1.11.68-1.77,0-.92-.75-1.66-1.67-1.66h-1.12c-.92,0-1.67.74-1.67,1.66v.22h-2.21v-.22c0-2.12,1.74-3.85,3.88-3.85h1.12c2.14,0,3.88,1.73,3.88,3.85,0,1.19-.44,2.34-1.25,3.23l-1.74,1.92c-.24.26-.36.58-.36.92v.88h-2.2Z"/>
      <path d="M18.06,10.27c2.02,0,3.66,1.63,3.66,3.64,0,1.14-.42,2.24-1.19,3.08l-1.74,1.92c-.27.3-.42.67-.42,1.07v.66h-1.76v-.66c0-.83.3-1.62.86-2.24l1.74-1.92c.48-.53.74-1.21.74-1.91,0-1.04-.85-1.88-1.89-1.88h-1.12c-1.04,0-1.89.84-1.89,1.88h-1.77c0-2,1.64-3.64,3.66-3.64h1.12M18.06,9.83h-1.12c-2.26,0-4.1,1.83-4.1,4.07v.44h2.64v-.44c0-.79.65-1.44,1.45-1.44h1.12c.8,0,1.45.65,1.45,1.44,0,.6-.22,1.17-.62,1.62l-1.74,1.92c-.63.7-.98,1.6-.98,2.53v.67s0,.43,0,.43h2.62v-.43s.01-.66.01-.66c0-.29.11-.56.31-.78l1.74-1.92c.84-.93,1.3-2.13,1.3-3.38,0-2.25-1.84-4.07-4.1-4.07h0Z"/>
    </g>
  </g>
</svg>