<?xml version="1.0" encoding="UTF-8"?>
<svg id="Layer_1" xmlns="http://www.w3.org/2000/svg" version="1.1" viewBox="0 0 35 35">
  <!-- Generator: Adobe Illustrator 30.1.0, SVG Export Plug-In . SVG Version: 2.1.1 Build 136)  -->
  <circle id="Outer" cx="17.5" cy="17.5" r="14.12" fill="none" stroke="#000" stroke-width="6.76"/>
  <g>
    <g>
      <rect x="16.38" y="21.86" width="2.23" height="2.23"/>
      <path d="M18.06,22.41v1.14h-1.14v-1.14h1.14M19.15,21.32h-3.32v3.32h3.32v-3.32h0Z"/>
    </g>
    <g>
      <path d="M16.38,19.78v-.97c0-.68.24-1.32.7-1.82l1.12-1.25c.22-.24.34-.55.34-.87,0-.37-.3-.67-.68-.67h-.72c-.37,0-.68.3-.68.67v.55h-2.24v-.55c0-1.6,1.31-2.9,2.92-2.9h.72c1.61,0,2.92,1.3,2.92,2.9,0,.87-.32,1.71-.91,2.37l-1.12,1.25c-.09.1-.13.21-.13.33v.97h-2.23Z"/>
      <path d="M17.86,12.51c1.31,0,2.37,1.06,2.37,2.36,0,.74-.27,1.45-.77,2l-1.13,1.25c-.17.19-.27.43-.27.69v.43h-1.14v-.43c0-.54.2-1.05.56-1.45l1.13-1.25c.31-.34.48-.78.48-1.24,0-.67-.55-1.22-1.23-1.22h-.72c-.68,0-1.23.55-1.23,1.22h-1.15c0-1.3,1.06-2.36,2.37-2.36h.72M17.86,11.42h-.72c-1.91,0-3.47,1.55-3.47,3.45v1.09h3.33v-1.09c0-.07.06-.12.13-.12h.72c.07,0,.13.06.13.12,0,.19-.07.37-.2.51l-1.13,1.25c-.54.6-.84,1.37-.84,2.18v.44s.01,1.08.01,1.08h3.3v-1.08s.02-.43.02-.43l1.12-1.22c.68-.75,1.05-1.72,1.05-2.73,0-1.9-1.55-3.45-3.47-3.45h0Z"/>
    </g>
  </g>
</svg>