<?xml version="1.0" encoding="UTF-8"?>
<svg id="Layer_1" xmlns="http://www.w3.org/2000/svg" version="1.1" viewBox="0 0 35 35">
  <!-- Generator: Adobe Illustrator 30.1.0, SVG Export Plug-In . SVG Version: 2.1.1 Build 136)  -->
  <circle id="Outer" cx="17.5" cy="17.5" r="14.74" fill="none" stroke="#000" stroke-width="5.52"/>
  <g>
    <g>
      <rect x="16.39" y="22.34" width="2.21" height="2.21"/>
      <path d="M18.16,22.78v1.33h-1.33v-1.33h1.33M19.03,21.9h-3.08v3.08h3.08v-3.08h0Z"/>
    </g>
    <g>
      <path d="M16.39,20.11v-.94c0-.74.27-1.45.76-2l1.32-1.46c.29-.32.45-.73.45-1.16,0-.55-.45-.99-1-.99h-.85c-.55,0-1,.44-1,.99v.44h-2.22v-.44c0-1.76,1.44-3.2,3.22-3.2h.85c1.77,0,3.22,1.43,3.22,3.2,0,.97-.36,1.91-1.02,2.64l-1.32,1.46c-.13.15-.21.33-.21.52v.94h-2.21Z"/>
      <path d="M17.92,11.79c1.53,0,2.78,1.24,2.78,2.76,0,.87-.32,1.7-.9,2.34l-1.32,1.46c-.2.23-.32.51-.32.81v.5h-1.34v-.5c0-.63.23-1.23.65-1.7l1.32-1.46c.36-.4.56-.92.56-1.45,0-.79-.64-1.43-1.44-1.43h-.85c-.79,0-1.44.64-1.44,1.43h-1.34c0-1.52,1.25-2.76,2.78-2.76h.85M17.92,10.92h-.85c-2.01,0-3.65,1.63-3.65,3.63v.88h3.09v-.88c0-.3.25-.55.56-.55h.85c.31,0,.56.25.56.55,0,.32-.12.63-.33.87l-1.32,1.46c-.57.63-.88,1.44-.88,2.28v.51s.01.87.01.87h3.06v-.87s.01-.5.01-.5c0-.09.03-.16.09-.23l1.32-1.46c.73-.81,1.13-1.85,1.13-2.93,0-2-1.64-3.63-3.65-3.63h0Z"/>
    </g>
  </g>
</svg>