<?xml version="1.0" encoding="UTF-8"?>
<svg id="Layer_1" xmlns="http://www.w3.org/2000/svg" version="1.1" viewBox="0 0 35 35">
  <!-- Generator: Adobe Illustrator 30.1.0, SVG Export Plug-In . SVG Version: 2.1.1 Build 136)  -->
  <circle id="Outer" cx="17.5" cy="17.5" r="16.29" fill="none" stroke="#000" stroke-width="2.43"/>
  <g>
    <g>
      <rect x="16.39" y="23.51" width="2.19" height="2.19"/>
      <path d="M18.42,23.67v1.86h-1.86v-1.86h1.86M18.75,23.34h-2.52v2.52h2.52v-2.52h0Z"/>
    </g>
    <g>
      <path d="M16.4,21.06v-.87c0-.92.34-1.81.96-2.49l1.84-2.04c.48-.53.74-1.21.74-1.92,0-1.01-.83-1.83-1.85-1.83h-1.19c-1.02,0-1.85.82-1.85,1.83v.16h-2.21v-.16c0-2.22,1.82-4.03,4.05-4.03h1.19c2.24,0,4.05,1.81,4.05,4.03,0,1.25-.46,2.46-1.31,3.39l-1.85,2.05c-.26.29-.4.64-.4,1.02v.87h-2.2Z"/>
      <path d="M18.09,9.87c2.15,0,3.89,1.73,3.89,3.86,0,1.21-.45,2.38-1.26,3.28l-1.85,2.05c-.29.32-.44.71-.45,1.13v.7h-1.87v-.7c0-.88.32-1.72.92-2.38l1.85-2.04c.51-.56.78-1.28.78-2.03,0-1.1-.9-2-2.01-2h-1.19c-1.11,0-2.01.9-2.01,2h-1.88c0-2.13,1.75-3.86,3.89-3.86h1.19M18.09,9.55h-1.19c-2.33,0-4.22,1.88-4.22,4.19v.33h2.54v-.33c0-.92.75-1.67,1.68-1.67h1.19c.93,0,1.68.75,1.68,1.67,0,.67-.25,1.31-.7,1.81l-1.85,2.04c-.65.71-1,1.64-1.01,2.6v.71s0,.33,0,.33h2.51v-.32s.01-.7.01-.7c0-.34.13-.66.36-.92l1.85-2.05c.87-.96,1.35-2.21,1.35-3.5,0-2.31-1.89-4.19-4.22-4.19h0Z"/>
    </g>
  </g>
</svg>