<?xml version="1.0" encoding="UTF-8"?>
<svg id="Layer_1" xmlns="http://www.w3.org/2000/svg" version="1.1" viewBox="0 0 46 46">
  <!-- Generator: Adobe Illustrator 30.1.0, SVG Export Plug-In . SVG Version: 2.1.1 Build 136)  -->
  <circle id="Outer" cx="23" cy="23" r="20.19" fill="none" stroke="#000" stroke-width="5.62"/>
  <g>
    <g>
      <rect x="21.54" y="29.98" width="2.88" height="2.89"/>
      <path d="M24,30.41v2.02h-2.02v-2.02h2.02M24.86,29.55h-3.75v3.75h3.75v-3.75h0Z"/>
    </g>
    <g>
      <path d="M21.55,26.91v-1.19c0-1.07.39-2.09,1.1-2.88l2-2.22c.48-.53.74-1.21.74-1.92,0-.96-.79-1.74-1.75-1.74h-1.29c-.97,0-1.75.78-1.75,1.74v.43h-2.9v-.43c0-2.55,2.09-4.62,4.65-4.62h1.29c2.56,0,4.65,2.07,4.65,4.62,0,1.42-.53,2.79-1.48,3.85l-2,2.22c-.24.27-.37.59-.37.94v1.2h-2.89Z"/>
      <path d="M23.64,14.51c2.33,0,4.22,1.88,4.22,4.19,0,1.32-.49,2.58-1.37,3.56l-2,2.22c-.31.34-.48.77-.48,1.23v.76h-2.03v-.76c0-.96.35-1.87.99-2.58l2-2.22c.55-.61.85-1.39.85-2.21,0-1.19-.98-2.17-2.18-2.17h-1.29c-1.2,0-2.18.97-2.18,2.17h-2.04c0-2.31,1.89-4.19,4.22-4.19h1.29M23.64,13.65h-1.29c-2.8,0-5.08,2.27-5.08,5.05v.86h3.76v-.86c0-.72.59-1.3,1.32-1.3h1.29c.73,0,1.32.59,1.32,1.3,0,.6-.22,1.18-.63,1.63l-2,2.22c-.78.87-1.22,1.99-1.22,3.16v.78s.01.85.01.85h3.73v-.85s.02-.76.02-.76c0-.25.09-.47.26-.66l2-2.22c1.03-1.14,1.59-2.61,1.59-4.13,0-2.79-2.28-5.05-5.08-5.05h0Z"/>
    </g>
  </g>
</svg>