<?xml version="1.0" encoding="UTF-8"?>
<svg id="Layer_1" xmlns="http://www.w3.org/2000/svg" version="1.1" viewBox="0 0 46 46">
  <!-- Generator: Adobe Illustrator 30.1.0, SVG Export Plug-In . SVG Version: 2.1.1 Build 136)  -->
  <circle id="Outer" cx="23" cy="23" r="21.4" fill="none" stroke="#000" stroke-width="3.19"/>
  <g>
    <g>
      <rect x="21.55" y="30.9" width="2.88" height="2.88"/>
      <path d="M24.21,31.11v2.45h-2.45v-2.45h2.45M24.64,30.68h-3.31v3.31h3.31v-3.31h0Z"/>
    </g>
    <g>
      <path d="M21.55,27.68v-1.14c0-1.21.45-2.38,1.26-3.28l2.43-2.69c.63-.7.97-1.59.97-2.53,0-1.33-1.09-2.41-2.43-2.41h-1.56c-1.34,0-2.43,1.08-2.43,2.41v.22h-2.9v-.22c0-2.92,2.39-5.29,5.33-5.29h1.56c2.94,0,5.33,2.37,5.33,5.29,0,1.65-.61,3.23-1.72,4.45l-2.43,2.69c-.35.38-.53.85-.53,1.35v1.14h-2.89Z"/>
      <path d="M23.78,12.98c2.82,0,5.11,2.28,5.11,5.08,0,1.59-.59,3.12-1.66,4.31l-2.43,2.69c-.38.42-.58.93-.59,1.49v.93h-2.46v-.93c0-1.16.42-2.27,1.2-3.13l2.43-2.69c.66-.74,1.03-1.68,1.03-2.67,0-1.45-1.19-2.62-2.64-2.62h-1.56c-1.46,0-2.64,1.18-2.64,2.62h-2.47c0-2.8,2.29-5.08,5.11-5.08h1.56M23.78,12.55h-1.56c-3.06,0-5.54,2.47-5.54,5.51v.43h3.33v-.43c0-1.21.99-2.19,2.21-2.19h1.56c1.22,0,2.21.98,2.21,2.19,0,.88-.33,1.73-.92,2.38l-2.43,2.69c-.85.94-1.32,2.15-1.32,3.42v.93s.01.43.01.43h3.3v-.43s.01-.93.01-.93c0-.45.17-.87.47-1.21l2.43-2.69c1.14-1.27,1.77-2.9,1.77-4.6,0-3.04-2.49-5.51-5.54-5.51h0Z"/>
    </g>
  </g>
</svg>