<?xml version="1.0" encoding="UTF-8"?>
<svg id="Layer_1" xmlns="http://www.w3.org/2000/svg" version="1.1" viewBox="0 0 46 46">
  <!-- Generator: Adobe Illustrator 30.1.0, SVG Export Plug-In . SVG Version: 2.1.1 Build 136)  -->
  <circle id="Outer" cx="23" cy="23" r="18.16" fill="none" stroke="#000" stroke-width="9.69"/>
  <g>
    <g>
      <rect x="21.51" y="28.42" width="2.95" height="2.95"/>
      <path d="M23.68,29.21v1.37h-1.37v-1.37h1.37M25.26,27.63h-4.53v4.53h4.53v-4.53h0Z"/>
    </g>
    <g>
      <path d="M21.52,25.8v-1.3c0-.85.31-1.66.87-2.29l1.36-1.5c.24-.27.37-.61.37-.97,0-.37-.31-.68-.69-.68h-.87c-.38,0-.69.3-.69.68v.79h-2.96v-.79c0-2,1.64-3.63,3.65-3.63h.87c2.02,0,3.65,1.63,3.65,3.63,0,1.09-.4,2.13-1.13,2.94l-1.36,1.51c-.08.09-.12.19-.12.31v1.31h-2.95Z"/>
      <path d="M23.44,16.89c1.58,0,2.86,1.28,2.86,2.84,0,.89-.33,1.75-.93,2.41l-1.36,1.51c-.21.23-.33.52-.33.84v.52h-1.38v-.52c0-.65.24-1.27.67-1.75l1.36-1.5c.37-.41.58-.94.58-1.5,0-.81-.66-1.47-1.48-1.47h-.87c-.82,0-1.48.66-1.48,1.47h-1.38c0-1.57,1.28-2.84,2.86-2.84h.87M23.44,15.31h-.87c-2.45,0-4.45,1.99-4.45,4.42v1.58h4.01l-.32.36c-.7.77-1.08,1.77-1.09,2.81v.54s.02,1.57.02,1.57h4.5l.02-1.57v-.4s1.28-1.42,1.28-1.42c.86-.96,1.34-2.19,1.34-3.47,0-2.44-1.99-4.42-4.45-4.42h0ZM22.66,19.85h.66c-.02.12-.08.23-.16.32l-.5.56v-.88h0Z"/>
    </g>
  </g>
</svg>