<?xml version="1.0" encoding="UTF-8"?>
<svg id="Layer_1" xmlns="http://www.w3.org/2000/svg" version="1.1" viewBox="0 0 46 46">
  <!-- Generator: Adobe Illustrator 30.1.0, SVG Export Plug-In . SVG Version: 2.1.1 Build 136)  -->
  <circle id="Outer" cx="23" cy="23" r="19.37" fill="none" stroke="#000" stroke-width="7.26"/>
  <g>
    <g>
      <rect x="21.54" y="29.36" width="2.9" height="2.9"/>
      <path d="M23.86,29.93v1.75h-1.75v-1.75h1.75M25.01,28.78h-4.05v4.05h4.05v-4.05h0Z"/>
    </g>
    <g>
      <path d="M21.55,26.43v-1.23c0-.98.35-1.91,1-2.63l1.73-1.92c.38-.42.59-.96.59-1.52,0-.72-.59-1.3-1.31-1.3h-1.11c-.72,0-1.31.58-1.31,1.3v.58h-2.92v-.58c0-2.32,1.9-4.2,4.23-4.2h1.11c2.33,0,4.23,1.89,4.23,4.2,0,1.28-.47,2.51-1.33,3.46l-1.73,1.92c-.18.19-.27.43-.27.68v1.24h-2.9Z"/>
      <path d="M23.56,15.5c2.01,0,3.65,1.63,3.65,3.63,0,1.14-.42,2.23-1.19,3.08l-1.73,1.92c-.27.3-.42.67-.42,1.07v.66h-1.76v-.66c0-.83.3-1.62.86-2.24l1.73-1.92c.47-.53.74-1.2.74-1.91,0-1.03-.85-1.87-1.89-1.87h-1.11c-1.04,0-1.89.84-1.89,1.87h-1.76c0-2,1.64-3.63,3.65-3.63h1.11M23.56,14.35h-1.11c-2.65,0-4.8,2.14-4.8,4.78v1.15h4.06v-1.15c0-.4.33-.72.74-.72h1.11c.41,0,.74.33.74.72,0,.42-.16.82-.44,1.14l-1.73,1.92c-.75.82-1.16,1.89-1.16,3v.68s.02,1.14.02,1.14h4.03v-1.14s.02-.66.02-.66c0-.12.04-.22.12-.31l1.73-1.92c.96-1.06,1.48-2.43,1.48-3.85,0-2.63-2.15-4.78-4.8-4.78h0Z"/>
    </g>
  </g>
</svg>