<?xml version="1.0" encoding="UTF-8"?>
<svg id="Layer_1" xmlns="http://www.w3.org/2000/svg" version="1.1" viewBox="0 0 46 46">
  <!-- Generator: Adobe Illustrator 30.1.0, SVG Export Plug-In . SVG Version: 2.1.1 Build 136)  -->
  <circle id="Outer" cx="23" cy="23" r="21" fill="none" stroke="#000" stroke-width="4"/>
  <g>
    <g>
      <rect x="21.55" y="30.6" width="2.88" height="2.88"/>
      <path d="M24.14,30.88v2.3h-2.3v-2.3h2.3M24.71,30.31h-3.45v3.45h3.45v-3.45h0Z"/>
    </g>
    <g>
      <path d="M21.55,27.42v-1.16c0-1.17.43-2.28,1.21-3.14l2.28-2.53c.58-.64.9-1.46.9-2.32,0-1.2-.99-2.18-2.2-2.18h-1.47c-1.21,0-2.2.98-2.2,2.18v.29h-2.9v-.29c0-2.79,2.29-5.07,5.1-5.07h1.47c2.81,0,5.1,2.27,5.1,5.07,0,1.57-.58,3.08-1.64,4.25l-2.28,2.53c-.31.34-.48.76-.48,1.21v1.16h-2.89Z"/>
      <path d="M23.73,13.49c2.65,0,4.81,2.14,4.81,4.78,0,1.5-.56,2.94-1.56,4.05l-2.28,2.53c-.35.39-.55.88-.55,1.4v.87h-2.31v-.87c0-1.09.4-2.13,1.13-2.95l2.28-2.53c.62-.69.97-1.58.97-2.51,0-1.36-1.12-2.47-2.49-2.47h-1.47c-1.37,0-2.49,1.11-2.49,2.47h-2.32c0-2.63,2.16-4.78,4.81-4.78h1.47M23.73,12.92h-1.47c-2.97,0-5.39,2.4-5.39,5.35v.57h3.47v-.57c0-1.04.86-1.89,1.91-1.89h1.47c1.05,0,1.91.85,1.91,1.89,0,.79-.29,1.54-.82,2.13l-2.28,2.53c-.83.91-1.29,2.1-1.29,3.33v.88s.01.57.01.57h3.44v-.57s.01-.87.01-.87c0-.38.14-.73.4-1.02l2.28-2.53c1.1-1.22,1.71-2.8,1.71-4.44,0-2.95-2.42-5.35-5.39-5.35h0Z"/>
    </g>
  </g>
</svg>