<?xml version="1.0" encoding="UTF-8"?>
<svg id="Layer_1" xmlns="http://www.w3.org/2000/svg" version="1.1" viewBox="0 0 46 46">
  <!-- Generator: Adobe Illustrator 30.1.0, SVG Export Plug-In . SVG Version: 2.1.1 Build 136)  -->
  <circle id="Outer" cx="23" cy="23" r="18.56" fill="none" stroke="#000" stroke-width="8.88"/>
  <g>
    <g>
      <rect x="21.52" y="28.73" width="2.93" height="2.93"/>
      <path d="M23.74,29.45v1.49h-1.49v-1.49h1.49M25.17,28.01h-4.37v4.37h4.37v-4.37h0Z"/>
    </g>
    <g>
      <path d="M21.53,26v-1.28c0-.89.32-1.74.91-2.4l1.48-1.64c.28-.32.44-.72.44-1.15,0-.49-.4-.88-.89-.88h-.95c-.49,0-.89.4-.89.88v.72h-2.94v-.72c0-2.1,1.72-3.81,3.84-3.81h.95c2.12,0,3.84,1.71,3.84,3.81,0,1.15-.43,2.25-1.2,3.11l-1.48,1.64c-.12.13-.17.27-.17.43v1.28h-2.93Z"/>
      <path d="M23.47,16.44c1.72,0,3.12,1.39,3.12,3.1,0,.97-.36,1.9-1.01,2.63l-1.48,1.64c-.23.25-.36.57-.36.91v.56h-1.5v-.56c0-.71.26-1.38.73-1.91l1.48-1.64c.4-.45.63-1.03.63-1.63,0-.88-.72-1.6-1.61-1.6h-.95c-.89,0-1.61.72-1.61,1.6h-1.51c0-1.71,1.4-3.1,3.12-3.1h.95M23.47,15h-.95c-2.51,0-4.56,2.03-4.56,4.53v1.44h4.38v-1.44c0-.09.08-.16.17-.16h.95c.09,0,.17.07.17.16,0,.25-.09.48-.26.67l-1.48,1.64c-.71.79-1.11,1.81-1.11,2.87v.58s.02,1.42.02,1.42h4.34v-1.42s.02-.54.02-.54l1.47-1.62c.89-.99,1.38-2.26,1.38-3.59,0-2.5-2.04-4.53-4.56-4.53h0Z"/>
    </g>
  </g>
</svg>