<?xml version="1.0" encoding="UTF-8"?>
<svg id="Layer_1" xmlns="http://www.w3.org/2000/svg" version="1.1" viewBox="0 0 67 67">
  <!-- Generator: Adobe Illustrator 30.1.0, SVG Export Plug-In . SVG Version: 2.1.1 Build 136)  -->
  <path d="M33.5,4.65c.94,0,1.88.49,2.37,1.46l6.04,11.98c1.04,2.06,2.97,3.51,5.23,3.93l13.06,2.45c2.04.38,2.87,2.86,1.47,4.4l-9.51,10.44c-1.47,1.61-2.15,3.79-1.87,5.95l1.86,14.08c.22,1.68-1.12,3.01-2.63,3.01-.4,0-.81-.09-1.21-.3l-11.42-5.88c-1.06-.55-2.22-.82-3.37-.82-1.16,0-2.31.27-3.37.82l-11.42,5.88c-.4.21-.81.3-1.21.3-1.51,0-2.85-1.33-2.63-3.01l1.86-14.08c.28-2.16-.4-4.34-1.86-5.95l-9.51-10.44c-1.4-1.54-.57-4.02,1.47-4.4l13.06-2.45c2.26-.42,4.19-1.88,5.22-3.93l6.04-11.98c.49-.97,1.43-1.46,2.37-1.46M33.5,0C30.73,0,28.23,1.54,26.98,4.02l-6.04,11.98c-.38.76-1.1,1.3-1.93,1.45l-13.06,2.45c-2.6.49-4.74,2.35-5.58,4.86-.84,2.51-.26,5.29,1.53,7.25l9.51,10.44c.54.6.8,1.4.69,2.21l-1.86,14.08c-.28,2.09.36,4.19,1.74,5.77,1.39,1.59,3.4,2.5,5.49,2.5,1.15,0,2.3-.28,3.34-.81l11.42-5.88c.38-.2.81-.3,1.25-.3.43,0,.86.1,1.25.3l11.42,5.88c1.03.53,2.19.81,3.34.81,2.1,0,4.1-.91,5.49-2.5,1.38-1.58,2.02-3.68,1.74-5.77l-1.86-14.08c-.11-.81.15-1.61.69-2.21l9.51-10.44c1.78-1.96,2.37-4.73,1.53-7.24-.84-2.51-2.98-4.37-5.58-4.86l-13.06-2.45c-.83-.16-1.55-.7-1.93-1.46l-6.04-11.98C38.77,1.54,36.27,0,33.5,0h0Z"/>
</svg>