<?xml version="1.0" encoding="UTF-8"?>
<svg id="Layer_1" xmlns="http://www.w3.org/2000/svg" version="1.1" viewBox="0 0 67 67">
  <!-- Generator: Adobe Illustrator 30.1.0, SVG Export Plug-In . SVG Version: 2.1.1 Build 136)  -->
  <path d="M33.5,8.19c.82,0,1.65.43,2.08,1.28l5.3,10.51c.91,1.8,2.6,3.08,4.59,3.45l11.46,2.15c1.79.34,2.52,2.51,1.29,3.86l-8.35,9.16c-1.29,1.41-1.89,3.32-1.64,5.22l1.63,12.35c.19,1.47-.98,2.64-2.3,2.64-.35,0-.71-.08-1.06-.26l-10.02-5.16c-.93-.48-1.94-.72-2.96-.72-1.02,0-2.03.24-2.96.72l-10.02,5.16c-.35.18-.71.26-1.06.26-1.32,0-2.5-1.17-2.3-2.64l1.63-12.35c.25-1.9-.35-3.8-1.63-5.22l-8.35-9.16c-1.23-1.35-.5-3.53,1.29-3.86l11.46-2.15c1.98-.37,3.68-1.65,4.58-3.45l5.3-10.51c.43-.85,1.25-1.28,2.08-1.28M33.5,0C29.51,0,25.91,2.22,24.11,5.78l-4.92,9.76-10.62,1.99c-3.74.7-6.82,3.38-8.03,7-1.21,3.62-.37,7.61,2.2,10.43l7.81,8.57-1.53,11.57c-.4,3.01.52,6.03,2.51,8.3,2,2.28,4.89,3.59,7.91,3.59,1.66,0,3.32-.4,4.81-1.17l9.23-4.76,9.23,4.76c1.49.77,3.15,1.17,4.81,1.17,3.02,0,5.91-1.31,7.91-3.59,1.99-2.27,2.91-5.3,2.51-8.3l-1.53-11.57,7.82-8.58c2.57-2.82,3.41-6.81,2.2-10.43-1.21-3.61-4.29-6.29-8.03-6.99l-10.62-1.99-4.92-9.76C41.09,2.22,37.49,0,33.5,0h0Z"/>
</svg>