<?xml version="1.0" encoding="UTF-8"?>
<svg id="Layer_1" xmlns="http://www.w3.org/2000/svg" version="1.1" viewBox="0 0 67 67">
  <!-- Generator: Adobe Illustrator 30.1.0, SVG Export Plug-In . SVG Version: 2.1.1 Build 136)  -->
  <path d="M33.5,14.11c.63,0,1.26.33,1.59.98l4.06,8.05c.7,1.38,1.99,2.36,3.51,2.64l8.78,1.64c1.37.26,1.93,1.92.99,2.96l-6.39,7.02c-.99,1.08-1.45,2.55-1.25,4l1.25,9.46c.15,1.13-.75,2.02-1.77,2.02-.27,0-.55-.06-.81-.2l-7.68-3.95c-.71-.37-1.49-.55-2.27-.55s-1.56.18-2.27.55l-7.68,3.95c-.27.14-.55.2-.81.2-1.01,0-1.91-.89-1.77-2.02l1.25-9.46c.19-1.45-.27-2.91-1.25-4l-6.39-7.02c-.94-1.03-.38-2.7.99-2.96l8.77-1.64c1.52-.28,2.82-1.26,3.51-2.64l4.06-8.05c.33-.65.96-.98,1.59-.98M33.5,0C27.46,0,22.02,3.35,19.31,8.74l-2.02,4.01-4.32.81c-5.66,1.06-10.31,5.11-12.14,10.57-1.83,5.46-.56,11.5,3.32,15.76l3.53,3.87-.69,5.25c-.6,4.54.79,9.12,3.8,12.56,3.02,3.45,7.38,5.42,11.95,5.42,2.52,0,5.03-.61,7.28-1.77l3.48-1.79,3.48,1.79c2.24,1.16,4.76,1.77,7.28,1.77,4.57,0,8.93-1.98,11.95-5.42,3.01-3.44,4.4-8.01,3.8-12.56l-.69-5.25,3.53-3.88c3.88-4.26,5.15-10.3,3.32-15.76-1.83-5.46-6.48-9.51-12.14-10.57l-4.32-.81-2.02-4.01C44.98,3.35,39.54,0,33.5,0h0Z"/>
</svg>