<?xml version="1.0" encoding="UTF-8"?>
<svg id="Layer_1" xmlns="http://www.w3.org/2000/svg" version="1.1" viewBox="0 0 67 67">
  <!-- Generator: Adobe Illustrator 30.1.0, SVG Export Plug-In . SVG Version: 2.1.1 Build 136)  -->
  <path d="M33.5,5.82c.9,0,1.8.47,2.27,1.4l5.79,11.49c.99,1.97,2.85,3.37,5.01,3.77l12.53,2.35c1.96.37,2.75,2.75,1.41,4.22l-9.13,10.02c-1.41,1.55-2.06,3.64-1.79,5.71l1.78,13.51c.21,1.61-1.07,2.89-2.52,2.89-.38,0-.78-.09-1.16-.29l-10.96-5.64c-1.02-.52-2.13-.78-3.24-.78-1.11,0-2.22.26-3.24.78l-10.96,5.64c-.38.2-.78.29-1.16.29-1.45,0-2.73-1.28-2.52-2.89l1.78-13.51c.27-2.07-.38-4.16-1.79-5.7l-9.13-10.02c-1.34-1.48-.55-3.86,1.41-4.23l12.53-2.35c2.17-.41,4.02-1.8,5.01-3.77l5.79-11.5c.47-.93,1.37-1.4,2.27-1.4M33.5,0C30.32,0,27.46,1.76,26.03,4.6l-5.79,11.5c-.18.35-.51.6-.89.67l-12.53,2.35c-2.98.56-5.43,2.69-6.39,5.57-.96,2.88-.29,6.06,1.75,8.3l9.13,10.02c.25.28.37.65.32,1.02l-1.78,13.51c-.32,2.39.41,4.8,2,6.61,1.59,1.82,3.89,2.86,6.29,2.86,1.32,0,2.64-.32,3.83-.93l10.96-5.64c.18-.09.37-.14.57-.14.2,0,.4.05.57.14l10.96,5.64c1.18.61,2.51.93,3.83.93,2.41,0,4.7-1.04,6.29-2.86,1.58-1.81,2.31-4.21,2-6.61l-1.78-13.51c-.05-.38.07-.75.32-1.03l9.13-10.02c2.04-2.24,2.71-5.42,1.75-8.3-.96-2.87-3.41-5.01-6.39-5.57l-12.53-2.35c-.38-.07-.71-.32-.89-.67l-5.79-11.49C39.54,1.76,36.68,0,33.5,0h0Z"/>
</svg>