<?xml version="1.0" encoding="UTF-8"?>
<svg id="Layer_1" xmlns="http://www.w3.org/2000/svg" version="1.1" viewBox="0 0 113 113">
  <!-- Generator: Adobe Illustrator 30.1.0, SVG Export Plug-In . SVG Version: 2.1.1 Build 136)  -->
  <path d="M56.5,21.82c1.13,0,2.25.58,2.84,1.75l7.25,14.4c1.24,2.47,3.57,4.22,6.28,4.73l15.69,2.94c2.45.46,3.45,3.44,1.77,5.29l-11.44,12.55c-1.76,1.94-2.58,4.55-2.24,7.15l2.23,16.92c.27,2.02-1.34,3.62-3.16,3.62-.48,0-.98-.11-1.46-.36l-13.73-7.07c-1.27-.66-2.66-.98-4.05-.98-1.39,0-2.78.33-4.06.98l-13.73,7.07c-.48.25-.97.36-1.46.36-1.81,0-3.42-1.6-3.16-3.62l2.23-16.92c.34-2.6-.48-5.21-2.24-7.15l-11.44-12.55c-1.68-1.85-.69-4.83,1.77-5.29l15.69-2.94c2.71-.51,5.03-2.26,6.28-4.73l7.26-14.4c.59-1.17,1.72-1.75,2.84-1.75M56.5,0C47,0,38.44,5.27,34.17,13.76l-4.37,8.68-9.39,1.76c-8.91,1.67-16.23,8.05-19.11,16.64-2.88,8.6-.88,18.1,5.23,24.8l7.38,8.1-1.45,10.96c-.94,7.15,1.24,14.35,5.98,19.76,4.76,5.43,11.61,8.54,18.81,8.54,3.96,0,7.92-.96,11.45-2.78l7.79-4.01,7.79,4.01c3.53,1.82,7.49,2.78,11.45,2.78,7.2,0,14.06-3.11,18.81-8.54,4.74-5.41,6.92-12.61,5.98-19.76l-1.45-10.96,7.39-8.11c6.11-6.7,8.11-16.2,5.23-24.8-2.88-8.59-10.2-14.97-19.11-16.64l-9.39-1.76-4.37-8.68C74.56,5.27,66,0,56.5,0h0Z"/>
</svg>