<?xml version="1.0" encoding="UTF-8"?>
<svg id="Layer_1" xmlns="http://www.w3.org/2000/svg" version="1.1" viewBox="0 0 113 113">
  <!-- Generator: Adobe Illustrator 30.1.0, SVG Export Plug-In . SVG Version: 2.1.1 Build 136)  -->
  <path d="M56.5,17.83c1.26,0,2.51.65,3.17,1.96l8.09,16.06c1.39,2.76,3.98,4.7,7.01,5.27l17.5,3.28c2.74.51,3.85,3.84,1.97,5.9l-12.75,13.99c-1.97,2.16-2.88,5.08-2.5,7.98l2.49,18.87c.3,2.25-1.5,4.03-3.52,4.03-.54,0-1.09-.13-1.62-.4l-15.31-7.88c-1.42-.73-2.97-1.1-4.52-1.1s-3.1.37-4.52,1.1l-15.31,7.88c-.53.28-1.09.4-1.62.4-2.02,0-3.82-1.78-3.52-4.03l2.49-18.87c.38-2.9-.53-5.81-2.5-7.97l-12.75-13.99c-1.88-2.06-.77-5.39,1.97-5.9l17.5-3.28c3.03-.57,5.61-2.52,7-5.27l8.09-16.06c.66-1.3,1.91-1.96,3.17-1.96M56.5,0c-8.12,0-15.44,4.51-19.1,11.77l-6.32,12.55-13.63,2.55c-7.62,1.43-13.88,6.88-16.34,14.23-2.46,7.35-.75,15.48,4.47,21.21l10.27,11.27-2.01,15.22c-.81,6.11,1.06,12.27,5.11,16.89,4.07,4.64,9.93,7.3,16.09,7.3,3.38,0,6.77-.82,9.79-2.38l11.66-6.01,11.66,6.01c3.02,1.56,6.41,2.38,9.79,2.38,6.15,0,12.02-2.66,16.09-7.3,4.05-4.62,5.92-10.78,5.11-16.89l-2.01-15.22,10.27-11.27c5.22-5.73,6.94-13.86,4.47-21.21-2.46-7.35-8.72-12.8-16.34-14.23l-13.63-2.56-6.32-12.55c-3.66-7.26-10.97-11.77-19.1-11.77h0Z"/>
</svg>