<?xml version="1.0" encoding="UTF-8"?>
<svg id="Layer_1" xmlns="http://www.w3.org/2000/svg" version="1.1" viewBox="0 0 28 28">
  <!-- Generator: Adobe Illustrator 30.1.0, SVG Export Plug-In . SVG Version: 2.1.1 Build 136)  -->
  <path d="M14,3.42c.34,0,.69.18.87.54l2.21,4.39c.38.75,1.09,1.29,1.92,1.44l4.79.9c.75.14,1.05,1.05.54,1.61l-3.49,3.83c-.54.59-.79,1.39-.68,2.18l.68,5.16c.08.62-.41,1.1-.96,1.1-.15,0-.3-.03-.44-.11l-4.19-2.16c-.39-.2-.81-.3-1.24-.3-.42,0-.85.1-1.24.3l-4.19,2.16c-.15.08-.3.11-.44.11-.55,0-1.04-.49-.96-1.1l.68-5.16c.1-.79-.15-1.59-.68-2.18l-3.49-3.83c-.51-.56-.21-1.47.54-1.61l4.79-.9c.83-.16,1.54-.69,1.92-1.44l2.21-4.39c.18-.36.52-.54.87-.54M14,0c-1.67,0-3.17.93-3.92,2.42l-2.05,4.08-4.44.83c-1.56.29-2.85,1.41-3.36,2.92-.51,1.51-.15,3.18.92,4.36l3.27,3.58-.64,4.84c-.17,1.26.22,2.52,1.05,3.47.84.95,2.04,1.5,3.31,1.5.69,0,1.39-.17,2.01-.49l3.86-1.99,3.86,1.99c.62.32,1.32.49,2.01.49,1.26,0,2.47-.55,3.31-1.5.83-.95,1.22-2.21,1.05-3.47l-.64-4.84,3.27-3.58c1.07-1.18,1.43-2.85.92-4.36-.51-1.51-1.79-2.63-3.36-2.92l-4.44-.83-2.05-4.08c-.75-1.49-2.25-2.42-3.92-2.42h0Z"/>
</svg>