<?xml version="1.0" encoding="UTF-8"?>
<svg id="Layer_1" xmlns="http://www.w3.org/2000/svg" version="1.1" viewBox="0 0 28 28">
  <!-- Generator: Adobe Illustrator 30.1.0, SVG Export Plug-In . SVG Version: 2.1.1 Build 136)  -->
  <path d="M14,5.41c.28,0,.56.14.7.43l1.8,3.57c.31.61.88,1.05,1.56,1.17l3.89.73c.61.11.85.85.44,1.31l-2.83,3.11c-.44.48-.64,1.13-.56,1.77l.55,4.19c.07.5-.33.9-.78.9-.12,0-.24-.03-.36-.09l-3.4-1.75c-.32-.16-.66-.24-1-.24-.34,0-.69.08-1,.24l-3.4,1.75c-.12.06-.24.09-.36.09-.45,0-.85-.4-.78-.9l.55-4.19c.08-.64-.12-1.29-.55-1.77l-2.83-3.11c-.42-.46-.17-1.2.44-1.31l3.89-.73c.67-.13,1.25-.56,1.56-1.17l1.8-3.57c.15-.29.43-.43.7-.43M14,0C11.65,0,9.53,1.31,8.47,3.41l-1.08,2.15-2.33.44c-2.21.41-4.02,1.99-4.73,4.12-.71,2.13-.22,4.49,1.3,6.15l1.83,2.01-.36,2.72c-.23,1.77.31,3.56,1.48,4.9,1.18,1.34,2.88,2.12,4.66,2.12.98,0,1.96-.24,2.84-.69l1.93-.99,1.93.99c.88.45,1.86.69,2.84.69,1.78,0,3.48-.77,4.66-2.12,1.18-1.34,1.72-3.12,1.48-4.9l-.36-2.72,1.83-2.01c1.51-1.66,2.01-4.01,1.3-6.15-.71-2.13-2.53-3.71-4.73-4.12l-2.33-.44-1.08-2.15C18.47,1.31,16.35,0,14,0h0Z"/>
</svg>