<?xml version="1.0" encoding="UTF-8"?>
<svg id="Layer_1" xmlns="http://www.w3.org/2000/svg" version="1.1" viewBox="0 0 26 26">
  <!-- Generator: Adobe Illustrator 30.1.0, SVG Export Plug-In . SVG Version: 2.1.1 Build 136)  -->
  <g>
    <g>
      <rect x="12.08" y="6.75" width="1.83" height="1.83"/>
      <path d="M13.75,6.91v1.51h-1.51v-1.51h1.51M14.08,6.58h-2.16v2.16h2.16v-2.16h0Z"/>
    </g>
    <g>
      <polygon points="10.58 19.21 10.58 17.38 12.08 17.38 12.08 13.01 10.58 13.01 10.58 11.18 13.92 11.18 13.92 17.38 15.42 17.38 15.42 19.21 10.58 19.21"/>
      <path d="M13.75,11.34v6.21h1.51v1.51h-4.52v-1.51h1.51v-4.7h-1.51v-1.51h3.01M14.08,11.01h-3.66v2.16h1.51v4.05h-1.51v2.16h5.17v-2.16h-1.51v-6.21h0Z"/>
    </g>
  </g>
  <circle id="Outer" cx="13" cy="13" r="11.87" fill="none" stroke="#000" stroke-width="2.26"/>
</svg>