<?xml version="1.0" encoding="UTF-8"?>
<svg id="Layer_1" xmlns="http://www.w3.org/2000/svg" version="1.1" viewBox="0 0 26 26">
  <!-- Generator: Adobe Illustrator 30.1.0, SVG Export Plug-In . SVG Version: 2.1.1 Build 136)  -->
  <g>
    <g>
      <rect x="12.06" y="7.41" width="1.89" height="1.89"/>
      <path d="M13.62,7.74v1.24h-1.24v-1.24h1.24M14.27,7.09h-2.54v2.54h2.54v-2.54h0Z"/>
    </g>
    <g>
      <polygon points="10.82 18.4 10.82 16.51 12.06 16.51 12.06 13.3 10.82 13.3 10.82 11.42 13.94 11.42 13.94 16.51 15.18 16.51 15.18 18.4 10.82 18.4"/>
      <path d="M13.62,11.74v5.1h1.24v1.24h-3.71v-1.24h1.24v-3.86h-1.24v-1.24h2.47M14.27,11.09h-3.77v2.54h1.24v2.56h-1.24v2.54h5.01v-2.54h-1.24v-5.1h0Z"/>
    </g>
  </g>
  <circle id="Outer" cx="13" cy="13" r="10.95" fill="none" stroke="#000" stroke-width="4.1"/>
</svg>