<?xml version="1.0" encoding="UTF-8"?>
<svg id="Layer_1" xmlns="http://www.w3.org/2000/svg" version="1.1" viewBox="0 0 26 26">
  <!-- Generator: Adobe Illustrator 30.1.0, SVG Export Plug-In . SVG Version: 2.1.1 Build 136)  -->
  <g>
    <g>
      <rect x="12.04" y="7.74" width="1.92" height="1.92"/>
      <path d="M13.55,8.15v1.11h-1.11v-1.11h1.11M14.37,7.33h-2.73v2.73h2.73v-2.73h0Z"/>
    </g>
    <g>
      <polygon points="10.93 18.01 10.93 16.09 12.04 16.09 12.04 13.45 10.93 13.45 10.93 11.53 13.96 11.53 13.96 16.09 15.07 16.09 15.07 18.01 10.93 18.01"/>
      <path d="M13.55,11.94v4.56h1.11v1.11h-3.32v-1.11h1.11v-3.45h-1.11v-1.11h2.21M14.37,11.12h-3.84v2.73h1.11v1.83h-1.11v2.73h4.94v-2.73h-1.11v-4.56h0Z"/>
    </g>
  </g>
  <circle id="Outer" cx="13" cy="13" r="10.49" fill="none" stroke="#000" stroke-width="5.02"/>
</svg>