<?xml version="1.0" encoding="UTF-8"?>
<svg id="Layer_1" xmlns="http://www.w3.org/2000/svg" version="1.1" viewBox="0 0 53 53">
  <!-- Generator: Adobe Illustrator 30.1.0, SVG Export Plug-In . SVG Version: 2.1.1 Build 136)  -->
  <circle id="Outer" cx="26.5" cy="26.5" r="22.32" fill="none" stroke="#000" stroke-width="8.36"/>
  <g>
    <g>
      <rect x="24.82" y="33.83" width="3.34" height="3.34"/>
      <path d="M27.49,34.49v2.02h-2.02v-2.02h2.02M28.82,33.16h-4.67v4.67h4.67v-4.67h0Z"/>
    </g>
    <g>
      <path d="M24.82,30.45v-1.42c0-1.12.41-2.2,1.16-3.03l1.99-2.21c.44-.48.68-1.11.68-1.75,0-.83-.68-1.5-1.51-1.5h-1.28c-.83,0-1.51.67-1.51,1.5v.66h-3.36v-.66c0-2.67,2.19-4.84,4.87-4.84h1.28c2.69,0,4.87,2.17,4.87,4.84,0,1.47-.55,2.89-1.54,3.99l-2,2.21c-.2.22-.31.5-.31.78v1.42h-3.34Z"/>
      <path d="M27.14,17.86c2.32,0,4.21,1.88,4.21,4.18,0,1.31-.49,2.57-1.37,3.55l-2,2.21c-.31.34-.48.77-.48,1.23v.76h-2.02v-.76c0-.96.35-1.87.99-2.58l2-2.21c.55-.61.85-1.39.85-2.2,0-1.19-.98-2.16-2.18-2.16h-1.28c-1.2,0-2.18.97-2.18,2.16h-2.03c0-2.3,1.89-4.18,4.21-4.18h1.28M27.14,16.54h-1.28c-3.05,0-5.53,2.47-5.53,5.5v1.33h4.68v-1.33c0-.46.38-.83.85-.83h1.28c.47,0,.85.37.85.83,0,.48-.18.95-.51,1.31l-2,2.21c-.86.95-1.34,2.18-1.34,3.46v.78s.02,1.31.02,1.31h4.64v-1.31s.02-.76.02-.76c0-.14.05-.25.14-.35l2-2.21c1.1-1.22,1.71-2.79,1.71-4.43,0-3.03-2.48-5.5-5.53-5.5h0Z"/>
    </g>
  </g>
</svg>