<?xml version="1.0" encoding="UTF-8"?>
<svg id="Layer_1" xmlns="http://www.w3.org/2000/svg" version="1.1" viewBox="0 0 53 53">
  <!-- Generator: Adobe Illustrator 30.1.0, SVG Export Plug-In . SVG Version: 2.1.1 Build 136)  -->
  <circle id="Outer" cx="26.5" cy="26.5" r="24.2" fill="none" stroke="#000" stroke-width="4.6"/>
  <g>
    <g>
      <rect x="24.83" y="35.25" width="3.32" height="3.32"/>
      <path d="M27.81,35.58v2.66h-2.66v-2.66h2.66M28.47,34.92h-3.98v3.98h3.98v-3.98h0Z"/>
    </g>
    <g>
      <path d="M24.83,31.59v-1.33c0-1.34.49-2.62,1.39-3.62l2.63-2.91c.67-.74,1.03-1.69,1.03-2.67,0-1.39-1.14-2.51-2.53-2.51h-1.69c-1.4,0-2.53,1.13-2.53,2.51v.33h-3.34v-.33c0-3.22,2.64-5.84,5.88-5.84h1.69c3.24,0,5.88,2.62,5.88,5.84,0,1.81-.67,3.55-1.88,4.89l-2.63,2.91c-.36.4-.55.88-.55,1.4v1.33h-3.32Z"/>
      <path d="M27.34,15.55c3.06,0,5.54,2.47,5.54,5.51,0,1.73-.64,3.39-1.8,4.67l-2.63,2.91c-.41.45-.63,1.01-.63,1.62v1h-2.67v-1c0-1.26.46-2.46,1.31-3.39l2.63-2.91c.72-.8,1.12-1.83,1.12-2.9,0-1.57-1.29-2.85-2.87-2.85h-1.69c-1.58,0-2.87,1.28-2.87,2.85h-2.68c0-3.04,2.49-5.51,5.54-5.51h1.69M27.34,14.89h-1.69c-3.42,0-6.21,2.77-6.21,6.17v.66h4v-.66c0-1.2.99-2.18,2.2-2.18h1.69c1.21,0,2.2.98,2.2,2.18,0,.91-.34,1.78-.95,2.45l-2.63,2.91c-.95,1.05-1.48,2.42-1.49,3.84v1.01s.01.66.01.66h3.97v-.66s.02-1,.02-1c0-.44.16-.85.46-1.18l2.63-2.91c1.27-1.41,1.97-3.22,1.97-5.12,0-3.4-2.78-6.17-6.21-6.17h0Z"/>
    </g>
  </g>
</svg>