<?xml version="1.0" encoding="UTF-8"?>
<svg id="Layer_1" xmlns="http://www.w3.org/2000/svg" version="1.1" viewBox="0 0 53 53">
  <!-- Generator: Adobe Illustrator 30.1.0, SVG Export Plug-In . SVG Version: 2.1.1 Build 136)  -->
  <circle id="Outer" cx="26.5" cy="26.5" r="20.92" fill="none" stroke="#000" stroke-width="11.16"/>
  <g>
    <g>
      <rect x="24.79" y="32.74" width="3.4" height="3.4"/>
      <path d="M27.28,33.66v1.58h-1.58v-1.58h1.58M29.1,31.83h-5.22v5.22h5.22v-5.22h0Z"/>
    </g>
    <g>
      <path d="M24.8,29.72v-1.5c0-.98.35-1.92,1.01-2.64l1.56-1.73c.28-.31.43-.7.43-1.11s-.36-.78-.79-.78h-1.01c-.44,0-.79.35-.79.78v.91h-3.42v-.91c0-2.31,1.89-4.19,4.21-4.19h1.01c2.32,0,4.21,1.88,4.21,4.19,0,1.25-.46,2.46-1.31,3.39l-1.57,1.73c-.09.1-.14.22-.14.36v1.5h-3.4Z"/>
      <path d="M27,19.46c1.82,0,3.3,1.47,3.3,3.28,0,1.03-.38,2.02-1.07,2.78l-1.57,1.73c-.24.27-.38.6-.38.96v.6h-1.59v-.6c0-.75.27-1.46.78-2.02l1.56-1.73c.43-.47.66-1.09.66-1.72,0-.93-.77-1.69-1.71-1.69h-1.01c-.94,0-1.71.76-1.71,1.69h-1.59c0-1.81,1.48-3.28,3.3-3.28h1.01M27,17.64h-1.01c-2.82,0-5.12,2.29-5.12,5.1v1.82h4.62l-.37.41c-.8.89-1.25,2.04-1.25,3.23v.62s.02,1.81.02,1.81h5.19l.02-1.8v-.46s1.48-1.63,1.48-1.63c.99-1.1,1.54-2.52,1.54-4,0-2.81-2.3-5.1-5.12-5.1h0ZM26.11,22.87h.76c-.02.14-.09.27-.18.37l-.58.64v-1.01h0Z"/>
    </g>
  </g>
</svg>