<?xml version="1.0" encoding="UTF-8"?>
<svg id="Layer_1" xmlns="http://www.w3.org/2000/svg" version="1.1" viewBox="0 0 53 53">
  <!-- Generator: Adobe Illustrator 30.1.0, SVG Export Plug-In . SVG Version: 2.1.1 Build 136)  -->
  <circle id="Outer" cx="26.5" cy="26.5" r="23.26" fill="none" stroke="#000" stroke-width="6.48"/>
  <g>
    <g>
      <rect x="24.82" y="34.54" width="3.32" height="3.32"/>
      <path d="M27.65,35.04v2.33h-2.33v-2.33h2.33M28.64,34.05h-4.32v4.32h4.32v-4.32h0Z"/>
    </g>
    <g>
      <path d="M24.83,31v-1.37c0-1.23.45-2.41,1.27-3.32l2.31-2.56c.55-.61.85-1.39.85-2.21,0-1.1-.9-2-2.02-2h-1.48c-1.11,0-2.02.9-2.02,2v.5h-3.34v-.5c0-2.94,2.41-5.33,5.36-5.33h1.48c2.96,0,5.36,2.39,5.36,5.33,0,1.64-.61,3.21-1.71,4.43l-2.31,2.56c-.28.31-.43.68-.43,1.09v1.38h-3.33Z"/>
      <path d="M27.24,16.72c2.68,0,4.86,2.17,4.86,4.83,0,1.52-.56,2.97-1.58,4.1l-2.31,2.56c-.36.4-.56.89-.56,1.42v.88h-2.34v-.88c0-1.1.4-2.16,1.15-2.98l2.31-2.56c.63-.7.98-1.6.98-2.54,0-1.38-1.13-2.5-2.51-2.5h-1.48c-1.39,0-2.51,1.12-2.51,2.5h-2.35c0-2.66,2.18-4.83,4.86-4.83h1.48M27.24,15.73h-1.48c-3.23,0-5.86,2.61-5.86,5.82v.99h4.34v-.99c0-.83.68-1.5,1.52-1.5h1.48c.84,0,1.52.67,1.52,1.5,0,.69-.26,1.36-.72,1.87l-2.31,2.56c-.9,1-1.41,2.29-1.41,3.64v.89s.02.98.02.98h4.3v-.98s.02-.88.02-.88c0-.29.1-.54.3-.76l2.31-2.56c1.18-1.31,1.84-3,1.84-4.76,0-3.21-2.63-5.82-5.86-5.82h0Z"/>
    </g>
  </g>
</svg>