<?xml version="1.0" encoding="UTF-8"?>
<svg id="Layer_1" xmlns="http://www.w3.org/2000/svg" version="1.1" viewBox="0 0 53 53">
  <!-- Generator: Adobe Illustrator 30.1.0, SVG Export Plug-In . SVG Version: 2.1.1 Build 136)  -->
  <circle id="Outer" cx="26.5" cy="26.5" r="21.38" fill="none" stroke="#000" stroke-width="10.24"/>
  <g>
    <g>
      <rect x="24.8" y="33.11" width="3.38" height="3.38"/>
      <path d="M27.35,33.93v1.72h-1.72v-1.72h1.72M29,32.28h-5.03v5.03h5.03v-5.03h0Z"/>
    </g>
    <g>
      <path d="M24.81,29.95v-1.47c0-1.03.37-2.01,1.05-2.76l1.7-1.89c.33-.36.51-.83.51-1.32,0-.56-.46-1.02-1.03-1.02h-1.09c-.57,0-1.03.46-1.03,1.02v.83h-3.39v-.83c0-2.42,1.98-4.39,4.42-4.39h1.09c2.44,0,4.42,1.97,4.42,4.39,0,1.32-.49,2.6-1.38,3.58l-1.7,1.89c-.13.15-.2.31-.2.5l-.02,1.48h-3.36Z"/>
      <path d="M27.05,18.94c1.98,0,3.59,1.6,3.59,3.57,0,1.12-.41,2.19-1.17,3.03l-1.7,1.89c-.26.29-.41.65-.41,1.05v.65h-1.73v-.65c0-.82.3-1.59.85-2.2l1.7-1.89c.47-.52.72-1.18.72-1.88,0-1.02-.83-1.84-1.86-1.84h-1.09c-1.02,0-1.86.83-1.86,1.84h-1.74c0-1.97,1.61-3.57,3.59-3.57h1.09M27.05,17.29h-1.09c-2.89,0-5.25,2.34-5.25,5.22v1.66h5.05v-1.66c0-.1.09-.19.2-.19h1.09c.11,0,.2.09.2.19,0,.28-.11.55-.3.77l-1.7,1.89c-.82.91-1.27,2.08-1.28,3.3v.67s.02,1.64.02,1.64h5l.02-1.64v-.62s1.7-1.87,1.7-1.87c1.03-1.14,1.59-2.61,1.59-4.14,0-2.88-2.35-5.22-5.25-5.22h0Z"/>
    </g>
  </g>
</svg>