<?xml version="1.0" encoding="UTF-8"?>
<svg id="Layer_1" xmlns="http://www.w3.org/2000/svg" version="1.1" viewBox="0 0 53 53">
  <!-- Generator: Adobe Illustrator 30.1.0, SVG Export Plug-In . SVG Version: 2.1.1 Build 136)  -->
  <circle id="Outer" cx="26.5" cy="26.5" r="24.66" fill="none" stroke="#000" stroke-width="3.68"/>
  <g>
    <g>
      <rect x="24.82" y="35.6" width="3.32" height="3.32"/>
      <path d="M27.89,35.85v2.82h-2.82v-2.82h2.82M28.39,35.35h-3.82v3.82h3.82v-3.82h0Z"/>
    </g>
    <g>
      <path d="M24.83,31.9v-1.31c0-1.4.51-2.74,1.45-3.77l2.79-3.1c.72-.8,1.12-1.84,1.12-2.91,0-1.53-1.25-2.78-2.8-2.78h-1.79c-1.54,0-2.8,1.25-2.8,2.78v.25h-3.34v-.25c0-3.36,2.75-6.1,6.14-6.1h1.79c3.39,0,6.14,2.74,6.14,6.1,0,1.9-.7,3.72-1.98,5.13l-2.79,3.1c-.4.44-.61.98-.61,1.55v1.31h-3.33Z"/>
      <path d="M27.4,14.95c3.25,0,5.89,2.63,5.89,5.85,0,1.84-.68,3.6-1.91,4.96l-2.8,3.1c-.43.48-.67,1.07-.67,1.72v1.07h-2.83v-1.07c0-1.34.49-2.61,1.39-3.61l2.79-3.1c.77-.85,1.19-1.94,1.19-3.08,0-1.67-1.37-3.02-3.05-3.02h-1.8c-1.68,0-3.05,1.36-3.05,3.02h-2.85c0-3.23,2.64-5.85,5.89-5.85h1.8M27.4,14.45h-1.8c-3.52,0-6.39,2.85-6.39,6.35v.5h3.84v-.5c0-1.39,1.14-2.53,2.55-2.53h1.8c1.41,0,2.55,1.13,2.55,2.53,0,1.01-.38,1.99-1.06,2.74l-2.79,3.1c-.98,1.08-1.52,2.48-1.53,3.94v1.07s.01.49.01.49h3.81v-.49s.02-1.07.02-1.07c0-.52.19-1,.55-1.39l2.8-3.1c1.32-1.46,2.04-3.34,2.04-5.3,0-3.5-2.87-6.35-6.39-6.35h0Z"/>
    </g>
  </g>
</svg>