<?xml version="1.0" encoding="UTF-8"?>
<svg id="Layer_1" xmlns="http://www.w3.org/2000/svg" version="1.1" viewBox="0 0 108 108">
  <!-- Generator: Adobe Illustrator 30.1.0, SVG Export Plug-In . SVG Version: 2.1.1 Build 136)  -->
  <path d="M54,7.49c1.51,0,3.02.78,3.81,2.35l9.73,19.31c1.67,3.31,4.79,5.66,8.43,6.34l21.05,3.95c3.29.62,4.63,4.62,2.37,7.09l-15.34,16.83c-2.37,2.6-3.47,6.11-3.01,9.59l2.99,22.69c.36,2.71-1.8,4.85-4.23,4.85-.65,0-1.31-.15-1.95-.48l-18.41-9.48c-1.71-.88-3.57-1.32-5.44-1.32s-3.73.44-5.44,1.32l-18.41,9.48c-.64.33-1.31.48-1.95.48-2.43,0-4.59-2.14-4.23-4.85l2.99-22.7c.46-3.48-.64-6.99-3-9.58l-15.34-16.83c-2.26-2.48-.92-6.48,2.37-7.1l21.05-3.95c3.64-.68,6.75-3.03,8.42-6.34l9.73-19.32c.79-1.57,2.3-2.35,3.81-2.35M54,0C49.53,0,45.5,2.48,43.49,6.47l-9.73,19.32c-.61,1.22-1.78,2.09-3.11,2.34l-21.05,3.95c-4.19.79-7.63,3.79-8.99,7.83-1.36,4.05-.41,8.52,2.46,11.68l15.34,16.83c.88.96,1.28,2.26,1.11,3.56l-2.99,22.7c-.44,3.37.58,6.75,2.81,9.29,2.25,2.56,5.47,4.03,8.86,4.03,1.85,0,3.72-.45,5.38-1.31l18.41-9.48c.62-.32,1.31-.49,2.01-.49s1.39.17,2.01.49l18.41,9.48c1.67.86,3.53,1.31,5.38,1.31,3.38,0,6.61-1.47,8.86-4.03,2.23-2.54,3.25-5.93,2.81-9.29l-2.99-22.69c-.17-1.3.24-2.6,1.12-3.57l15.34-16.83c2.87-3.15,3.82-7.63,2.46-11.68-1.35-4.04-4.8-7.04-8.99-7.83l-21.05-3.95c-1.34-.25-2.5-1.13-3.11-2.35l-9.73-19.31C62.49,2.48,58.47,0,54,0h0Z"/>
</svg>