<?xml version="1.0" encoding="UTF-8"?>
<svg id="Layer_1" xmlns="http://www.w3.org/2000/svg" version="1.1" viewBox="0 0 108 108">
  <!-- Generator: Adobe Illustrator 30.1.0, SVG Export Plug-In . SVG Version: 2.1.1 Build 136)  -->
  <path d="M54,9.38c1.45,0,2.9.75,3.66,2.26l9.33,18.53c1.6,3.18,4.59,5.43,8.08,6.08l20.19,3.79c3.16.59,4.44,4.43,2.27,6.81l-14.71,16.15c-2.27,2.49-3.33,5.86-2.88,9.21l2.87,21.77c.34,2.6-1.73,4.65-4.06,4.65-.62,0-1.26-.14-1.87-.46l-17.66-9.1c-1.64-.84-3.43-1.26-5.22-1.26s-3.58.42-5.22,1.26l-17.66,9.1c-.62.32-1.25.46-1.87.46-2.34,0-4.4-2.06-4.06-4.65l2.87-21.78c.44-3.34-.61-6.71-2.88-9.19l-14.71-16.15c-2.17-2.38-.89-6.22,2.27-6.81l20.19-3.78c3.49-.65,6.48-2.9,8.08-6.08l9.34-18.53c.76-1.5,2.21-2.26,3.66-2.26M54,0C48.88,0,44.27,2.84,41.96,7.42l-9.34,18.53c-.28.56-.82.96-1.43,1.08l-20.19,3.78c-4.8.9-8.75,4.34-10.3,8.97-1.55,4.64-.47,9.77,2.82,13.38l14.71,16.15c.41.45.59,1.05.51,1.65l-2.87,21.78c-.51,3.86.66,7.74,3.22,10.65,2.57,2.93,6.27,4.61,10.15,4.61,2.13,0,4.26-.52,6.17-1.5l17.66-9.1c.29-.15.6-.22.92-.22s.63.08.92.22l17.66,9.1c1.91.98,4.04,1.5,6.17,1.5,3.88,0,7.58-1.68,10.15-4.61,2.55-2.91,3.73-6.79,3.22-10.65l-2.87-21.77c-.08-.61.11-1.21.52-1.66l14.71-16.15c3.29-3.61,4.37-8.74,2.82-13.38-1.55-4.63-5.5-8.07-10.3-8.97l-20.19-3.79c-.61-.11-1.15-.52-1.43-1.08l-9.33-18.53C63.73,2.84,59.12,0,54,0h0Z"/>
</svg>