<?xml version="1.0" encoding="UTF-8"?>
<svg id="Layer_1" xmlns="http://www.w3.org/2000/svg" version="1.1" viewBox="0 0 103 103">
  <!-- Generator: Adobe Illustrator 30.1.0, SVG Export Plug-In . SVG Version: 2.1.1 Build 136)  -->
  <path d="M51.5,19.89c1.03,0,2.06.53,2.59,1.6l6.61,13.13c1.13,2.25,3.25,3.85,5.73,4.31l14.31,2.68c2.24.42,3.14,3.14,1.61,4.82l-10.42,11.44c-1.61,1.76-2.36,4.15-2.04,6.52l2.03,15.42c.24,1.84-1.22,3.3-2.88,3.3-.44,0-.89-.1-1.33-.33l-12.51-6.44c-1.16-.6-2.43-.9-3.7-.9-1.27,0-2.54.3-3.7.9l-12.51,6.44c-.44.22-.89.33-1.33.33-1.65,0-3.12-1.46-2.88-3.3l2.03-15.43c.31-2.37-.43-4.75-2.04-6.51l-10.42-11.44c-1.54-1.69-.63-4.41,1.61-4.83l14.3-2.68c2.47-.46,4.59-2.06,5.72-4.31l6.61-13.13c.54-1.07,1.56-1.6,2.59-1.6M51.5,0C42.84,0,35.04,4.81,31.14,12.54l-3.99,7.91-8.56,1.6c-8.12,1.52-14.79,7.33-17.42,15.17-2.63,7.84-.8,16.5,4.77,22.61l6.73,7.39-1.32,9.99c-.86,6.51,1.13,13.08,5.45,18.01,4.34,4.95,10.59,7.78,17.15,7.78,3.61,0,7.21-.88,10.43-2.53l7.1-3.66,7.1,3.66c3.22,1.66,6.83,2.53,10.43,2.53,6.56,0,12.81-2.84,17.15-7.78,4.32-4.93,6.31-11.49,5.45-18.01l-1.32-9.99,6.73-7.39c5.57-6.11,7.39-14.77,4.77-22.61-2.62-7.83-9.3-13.64-17.41-15.17l-8.56-1.6-3.99-7.91C67.96,4.81,60.16,0,51.5,0h0Z"/>
</svg>