<?xml version="1.0" encoding="UTF-8"?>
<svg id="Layer_1" xmlns="http://www.w3.org/2000/svg" version="1.1" viewBox="0 0 103 103">
  <!-- Generator: Adobe Illustrator 30.1.0, SVG Export Plug-In . SVG Version: 2.1.1 Build 136)  -->
  <path d="M51.5,8.95c1.38,0,2.77.72,3.49,2.15l8.9,17.67c1.53,3.03,4.38,5.18,7.71,5.8l19.26,3.61c3.01.56,4.23,4.22,2.17,6.49l-14.03,15.4c-2.16,2.38-3.17,5.59-2.75,8.78l2.74,20.76c.33,2.48-1.65,4.44-3.87,4.44-.59,0-1.2-.14-1.79-.44l-16.85-8.68c-1.56-.8-3.27-1.21-4.98-1.21-1.71,0-3.41.4-4.98,1.21l-16.85,8.68c-.59.3-1.2.44-1.79.44-2.23,0-4.2-1.96-3.87-4.44l2.74-20.77c.42-3.19-.59-6.4-2.75-8.77l-14.03-15.4c-2.07-2.27-.84-5.93,2.17-6.5l19.26-3.61c3.33-.62,6.18-2.77,7.7-5.8l8.9-17.67c.72-1.43,2.11-2.15,3.49-2.15M51.5,0c-4.88,0-9.28,2.71-11.48,7.07l-8.9,17.67c-.27.54-.78.92-1.36,1.03l-19.26,3.61c-4.58.86-8.34,4.14-9.82,8.56-1.48,4.42-.45,9.31,2.69,12.76l14.03,15.4c.39.42.57,1,.49,1.57l-2.74,20.77c-.49,3.68.63,7.38,3.07,10.16,2.45,2.8,5.98,4.4,9.68,4.4,2.03,0,4.06-.5,5.88-1.43l16.85-8.68c.27-.14.57-.21.88-.21.3,0,.61.07.88.21l16.85,8.68c1.82.94,3.86,1.43,5.88,1.43,3.7,0,7.23-1.6,9.68-4.4,2.43-2.78,3.55-6.48,3.07-10.16l-2.74-20.76c-.08-.58.1-1.15.49-1.58l14.03-15.4c3.14-3.45,4.17-8.34,2.69-12.76-1.48-4.42-5.24-7.7-9.82-8.56l-19.26-3.61c-.59-.11-1.1-.5-1.37-1.03l-8.9-17.67c-2.2-4.36-6.6-7.07-11.48-7.07h0Z"/>
</svg>