<?xml version="1.0" encoding="UTF-8"?>
<svg id="Layer_1" xmlns="http://www.w3.org/2000/svg" version="1.1" viewBox="0 0 103 103">
  <!-- Generator: Adobe Illustrator 30.1.0, SVG Export Plug-In . SVG Version: 2.1.1 Build 136)  -->
  <path d="M51.5,12.59c1.27,0,2.53.66,3.19,1.97l8.14,16.16c1.4,2.77,4,4.73,7.05,5.31l17.61,3.3c2.75.52,3.87,3.86,1.98,5.94l-12.83,14.08c-1.98,2.17-2.9,5.11-2.52,8.03l2.5,18.99c.3,2.27-1.51,4.06-3.54,4.06-.54,0-1.1-.13-1.63-.4l-15.41-7.93c-1.43-.74-2.99-1.1-4.55-1.1s-3.12.37-4.55,1.1l-15.41,7.93c-.54.28-1.09.4-1.63.4-2.04,0-3.84-1.79-3.54-4.06l2.5-18.99c.38-2.91-.54-5.85-2.51-8.02l-12.83-14.08c-1.89-2.07-.77-5.42,1.98-5.94l17.61-3.3c3.04-.57,5.65-2.53,7.05-5.3l8.14-16.16c.66-1.31,1.93-1.97,3.19-1.97M51.5,0c-6.14,0-11.67,3.41-14.43,8.89l-7.56,15-16.32,3.06c-5.76,1.08-10.49,5.2-12.35,10.75-1.86,5.56-.57,11.7,3.38,16.03l12.01,13.18-2.35,17.79c-.61,4.62.8,9.27,3.86,12.77,3.08,3.51,7.51,5.52,12.16,5.52,2.55,0,5.11-.62,7.4-1.8l14.19-7.31,14.19,7.31c2.29,1.18,4.84,1.8,7.4,1.8,4.65,0,9.08-2.01,12.16-5.52,3.06-3.49,4.47-8.15,3.86-12.77l-2.35-17.79,12.02-13.19c3.95-4.33,5.24-10.47,3.38-16.03-1.86-5.55-6.59-9.67-12.35-10.75l-16.33-3.06-7.56-15C63.17,3.41,57.64,0,51.5,0h0Z"/>
</svg>