<?xml version="1.0" encoding="UTF-8"?>
<svg id="Layer_1" xmlns="http://www.w3.org/2000/svg" version="1.1" viewBox="0 0 103 103">
  <!-- Generator: Adobe Illustrator 30.1.0, SVG Export Plug-In . SVG Version: 2.1.1 Build 136)  -->
  <path d="M51.5,7.15c1.44,0,2.88.75,3.64,2.24l9.28,18.42c1.59,3.16,4.56,5.4,8.04,6.05l20.07,3.76c3.14.59,4.41,4.4,2.26,6.77l-14.63,16.05c-2.26,2.48-3.31,5.83-2.87,9.15l2.85,21.64c.34,2.58-1.72,4.63-4.04,4.63-.62,0-1.25-.14-1.86-.46l-17.56-9.04c-1.63-.84-3.41-1.26-5.19-1.26-1.78,0-3.56.42-5.19,1.26l-17.56,9.04c-.61.32-1.25.46-1.86.46-2.32,0-4.38-2.04-4.04-4.63l2.86-21.65c.44-3.32-.61-6.67-2.86-9.14l-14.63-16.05c-2.15-2.36-.88-6.18,2.26-6.77l20.07-3.76c3.47-.65,6.44-2.89,8.03-6.04l9.28-18.42c.75-1.5,2.2-2.24,3.64-2.24M51.5,0c-4.26,0-8.1,2.37-10.02,6.17l-9.28,18.42c-.59,1.16-1.69,2-2.97,2.24l-20.07,3.76c-4,.75-7.28,3.61-8.57,7.47-1.29,3.86-.39,8.13,2.35,11.14l14.63,16.05c.84.92,1.22,2.16,1.06,3.39l-2.86,21.65c-.42,3.21.55,6.44,2.68,8.86,2.14,2.44,5.22,3.84,8.45,3.84,1.77,0,3.54-.43,5.13-1.25l17.56-9.04c.59-.3,1.25-.46,1.91-.46.66,0,1.33.16,1.92.46l17.56,9.04c1.59.82,3.37,1.25,5.13,1.25,3.23,0,6.31-1.4,8.45-3.84,2.12-2.42,3.1-5.65,2.68-8.86l-2.85-21.64c-.16-1.24.22-2.48,1.07-3.4l14.63-16.05c2.74-3.01,3.64-7.28,2.35-11.14-1.29-3.86-4.58-6.72-8.57-7.47l-20.07-3.76c-1.27-.24-2.38-1.08-2.97-2.24l-9.28-18.42c-1.92-3.81-5.76-6.17-10.02-6.17h0Z"/>
</svg>