<?xml version="1.0" encoding="UTF-8"?>
<svg id="Layer_1" xmlns="http://www.w3.org/2000/svg" version="1.1" viewBox="0 0 127 127">
  <!-- Generator: Adobe Illustrator 30.1.0, SVG Export Plug-In . SVG Version: 2.1.1 Build 136)  -->
  <circle id="Outer" cx="63.5" cy="63.5" r="53.48" fill="none" stroke="#000" stroke-width="20.04"/>
  <g>
    <g>
      <rect x="59.46" y="81.06" width="8" height="8"/>
      <path d="M65.88,82.64v4.83h-4.83v-4.83h4.83M69.06,79.47h-11.18v11.18h11.18v-11.18h0Z"/>
    </g>
    <g>
      <path d="M59.49,72.97l-.03-3.4c0-2.7,1-5.26,2.8-7.25l4.78-5.3c1.05-1.16,1.62-2.65,1.62-4.2,0-1.98-1.63-3.59-3.62-3.59h-3.07c-2,0-3.62,1.61-3.62,3.59v1.59h-8.05v-1.59c0-6.4,5.24-11.6,11.67-11.6h3.07c6.44,0,11.67,5.2,11.67,11.6,0,3.53-1.31,6.93-3.68,9.56l-4.78,5.3c-.49.54-.74,1.19-.75,1.88l-.04,3.41h-7.97Z"/>
      <path d="M65.04,42.8c5.56,0,10.08,4.49,10.08,10.01,0,3.14-1.16,6.16-3.27,8.5l-4.78,5.3c-.74.82-1.15,1.84-1.15,2.94l-.02,1.83h-4.83l-.02-1.83c0-2.29.85-4.47,2.39-6.17l4.78-5.3c1.31-1.45,2.03-3.32,2.03-5.27,0-2.85-2.34-5.18-5.21-5.18h-3.07c-2.87,0-5.21,2.32-5.21,5.18h-4.87c0-5.52,4.52-10.01,10.08-10.01h3.07M65.04,39.62h-3.07c-7.31,0-13.26,5.92-13.26,13.19v3.17h11.22v-3.17c0-1.1.91-2,2.04-2h3.07c1.12,0,2.04.9,2.04,2,0,1.16-.43,2.27-1.21,3.14l-4.78,5.3c-2.06,2.28-3.2,5.22-3.21,8.29l.02,1.87.03,3.15h11.12l.03-3.14.02-1.83c0-.33.11-.6.34-.84l4.79-5.3c2.64-2.92,4.09-6.7,4.09-10.62,0-7.27-5.95-13.19-13.26-13.19h0Z"/>
    </g>
  </g>
</svg>