<?xml version="1.0" encoding="UTF-8"?>
<svg id="Layer_1" xmlns="http://www.w3.org/2000/svg" version="1.1" viewBox="0 0 127 127">
  <!-- Generator: Adobe Illustrator 30.1.0, SVG Export Plug-In . SVG Version: 2.1.1 Build 136)  -->
  <circle id="Outer" cx="63.5" cy="63.5" r="55.74" fill="none" stroke="#000" stroke-width="15.52"/>
  <g>
    <g>
      <rect x="59.48" y="82.78" width="7.96" height="7.96"/>
      <path d="M66.25,83.97v5.58h-5.58v-5.58h5.58M68.64,81.59h-10.34v10.34h10.34v-10.34h0Z"/>
    </g>
    <g>
      <path d="M59.5,74.29l-.03-3.29c.01-2.95,1.1-5.77,3.07-7.94l5.53-6.12c1.32-1.46,2.04-3.34,2.04-5.29,0-2.64-2.17-4.79-4.83-4.79h-3.55c-2.67,0-4.83,2.15-4.83,4.79v1.19h-8.01v-1.19c0-7.04,5.76-12.76,12.85-12.76h3.55c7.08,0,12.85,5.73,12.85,12.76,0,3.92-1.45,7.7-4.09,10.62l-5.53,6.13c-.67.74-1.03,1.64-1.03,2.61l-.03,3.3h-7.94Z"/>
      <path d="M65.28,40.07c6.43,0,11.66,5.19,11.66,11.57,0,3.63-1.34,7.12-3.78,9.82l-5.53,6.13c-.86.95-1.33,2.12-1.33,3.4l-.02,2.11h-5.58l-.02-2.11c0-2.65.98-5.17,2.76-7.13l5.53-6.12c1.51-1.68,2.35-3.84,2.35-6.09,0-3.3-2.7-5.98-6.02-5.98h-3.55c-3.32,0-6.02,2.68-6.02,5.98h-5.63c0-6.38,5.23-11.57,11.66-11.57h3.55M65.28,37.69h-3.55c-7.74,0-14.04,6.26-14.04,13.95v2.38h10.39v-2.38c0-1.99,1.63-3.6,3.64-3.6h3.55c2.01,0,3.64,1.62,3.64,3.6,0,1.66-.62,3.25-1.73,4.49l-5.53,6.12c-2.17,2.4-3.37,5.49-3.38,8.72l.02,2.14.02,2.36h10.3l.02-2.36.02-2.11c0-.69.24-1.3.72-1.83l5.53-6.13c2.84-3.14,4.4-7.2,4.4-11.42,0-7.69-6.3-13.95-14.04-13.95h0Z"/>
    </g>
  </g>
</svg>