<?xml version="1.0" encoding="UTF-8"?>
<svg id="Layer_1" xmlns="http://www.w3.org/2000/svg" version="1.1" viewBox="0 0 127 127">
  <!-- Generator: Adobe Illustrator 30.1.0, SVG Export Plug-In . SVG Version: 2.1.1 Build 136)  -->
  <circle id="Outer" cx="63.5" cy="63.5" r="57.98" fill="none" stroke="#000" stroke-width="11.03"/>
  <g>
    <g>
      <rect x="59.49" y="84.47" width="7.95" height="7.95"/>
      <path d="M66.64,85.26v6.36h-6.36v-6.36h6.36M68.23,83.67h-9.54v9.54h9.54v-9.54h0Z"/>
    </g>
    <g>
      <path d="M59.5,75.7l-.03-3.19c.01-3.21,1.2-6.29,3.36-8.67l6.3-6.98c1.59-1.77,2.47-4.04,2.47-6.41,0-3.32-2.72-6.02-6.07-6.02h-4.05c-3.35,0-6.07,2.7-6.07,6.02v.79h-8.01v-.79c0-7.71,6.32-13.99,14.08-13.99h4.05c7.76,0,14.08,6.27,14.08,13.99,0,4.33-1.6,8.5-4.52,11.73l-6.3,6.98c-.86.95-1.31,2.11-1.32,3.35l-.03,3.2h-7.94Z"/>
      <path d="M65.52,37.26c7.33,0,13.29,5.92,13.29,13.19,0,4.14-1.53,8.11-4.31,11.19l-6.3,6.98c-.98,1.08-1.52,2.42-1.52,3.88l-.02,2.41h-6.36l-.02-2.41c.01-3.02,1.12-5.89,3.15-8.13l6.3-6.98c1.73-1.91,2.67-4.38,2.67-6.94,0-3.76-3.08-6.82-6.87-6.82h-4.05c-3.79,0-6.87,3.06-6.87,6.82h-6.42c0-7.27,5.96-13.19,13.29-13.19h4.05M65.52,35.67h-4.05c-8.2,0-14.87,6.63-14.87,14.78v1.59h9.59v-1.59c0-2.88,2.37-5.23,5.28-5.23h4.05c2.91,0,5.28,2.35,5.28,5.23,0,2.17-.8,4.26-2.27,5.88l-6.3,6.98c-2.28,2.52-3.55,5.79-3.56,9.19l.02,2.43v1.57h9.52l.02-1.57.02-2.41c0-1.05.39-2.03,1.11-2.83l6.3-6.98c3.05-3.37,4.72-7.73,4.72-12.26,0-8.15-6.67-14.78-14.87-14.78h0Z"/>
    </g>
  </g>
</svg>