<?xml version="1.0" encoding="UTF-8"?>
<svg id="Layer_1" xmlns="http://www.w3.org/2000/svg" version="1.1" viewBox="0 0 127 127">
  <!-- Generator: Adobe Illustrator 30.1.0, SVG Export Plug-In . SVG Version: 2.1.1 Build 136)  -->
  <circle id="Outer" cx="63.5" cy="63.5" r="50.13" fill="none" stroke="#000" stroke-width="26.75"/>
  <g>
    <g>
      <rect x="59.39" y="78.46" width="8.15" height="8.15"/>
      <path d="M65.36,80.65v3.79h-3.79v-3.79h3.79M69.73,76.28h-12.52v12.52h12.52v-12.52h0Z"/>
    </g>
    <g>
      <path d="M59.42,71.22l-.03-3.59c0-2.36.87-4.59,2.44-6.32l3.75-4.15c.66-.74,1.03-1.68,1.03-2.67,0-1.03-.85-1.88-1.9-1.88h-2.41c-1.05,0-1.9.84-1.9,1.88v2.18h-8.19v-2.18c0-5.53,4.53-10.03,10.09-10.03h2.41c5.56,0,10.09,4.5,10.09,10.03,0,3-1.11,5.89-3.13,8.12l-3.75,4.16c-.23.25-.34.54-.34.85l-.03,3.61h-8.11Z"/>
      <path d="M64.7,46.63c4.36,0,7.91,3.52,7.91,7.85,0,2.46-.91,4.83-2.57,6.66l-3.75,4.16c-.58.64-.9,1.44-.91,2.31v1.43h-3.8v-1.43c0-1.79.66-3.5,1.86-4.84l3.75-4.15c1.03-1.14,1.59-2.6,1.59-4.13,0-2.24-1.83-4.06-4.09-4.06h-2.41c-2.25,0-4.09,1.82-4.09,4.06h-3.82c0-4.33,3.55-7.85,7.91-7.85h2.41M64.7,42.27h-2.41c-6.77,0-12.27,5.48-12.27,12.22v4.37h11.08l-.9.99c-1.92,2.13-2.99,4.88-3,7.75v.03s0,.03,0,.03v1.43s.05,4.33.05,4.33h12.44l.04-4.32v-1.1s3.55-3.92,3.55-3.92c2.38-2.64,3.69-6.04,3.69-9.59,0-6.74-5.51-12.22-12.27-12.22h0ZM62.57,54.79h1.82c-.06.33-.21.64-.44.9l-1.38,1.53v-2.43h0Z"/>
    </g>
  </g>
</svg>