<?xml version="1.0" encoding="UTF-8"?>
<svg id="Layer_1" xmlns="http://www.w3.org/2000/svg" version="1.1" viewBox="0 0 127 127">
  <!-- Generator: Adobe Illustrator 30.1.0, SVG Export Plug-In . SVG Version: 2.1.1 Build 136)  -->
  <circle id="Outer" cx="63.5" cy="63.5" r="51.24" fill="none" stroke="#000" stroke-width="24.53"/>
  <g>
    <g>
      <rect x="59.42" y="79.33" width="8.09" height="8.09"/>
      <path d="M65.53,81.31v4.12h-4.12v-4.12h4.12M69.5,77.34h-12.06v12.06h12.06v-12.06h0Z"/>
    </g>
    <g>
      <path d="M59.45,71.77l-.03-3.53c0-2.47.92-4.81,2.55-6.62l4.08-4.52c.79-.87,1.22-2,1.22-3.17,0-1.34-1.11-2.43-2.46-2.43h-2.62c-1.36,0-2.46,1.09-2.46,2.43v1.98h-8.13v-1.98c0-5.81,4.75-10.53,10.59-10.53h2.62c5.84,0,10.59,4.72,10.59,10.53,0,3.17-1.17,6.22-3.31,8.58l-4.08,4.52c-.31.35-.47.75-.47,1.19l-.04,3.54h-8.05Z"/>
      <path d="M64.81,45.39c4.75,0,8.61,3.83,8.61,8.55,0,2.68-.99,5.26-2.79,7.25l-4.08,4.52c-.63.7-.98,1.57-.99,2.51l-.02,1.56h-4.12v-1.56c0-1.95.71-3.82,2.03-5.27l4.08-4.52c1.12-1.24,1.73-2.83,1.73-4.5,0-2.44-2-4.42-4.45-4.42h-2.62c-2.45,0-4.45,1.98-4.45,4.42h-4.16c0-4.71,3.86-8.55,8.61-8.55h2.62M64.81,41.42h-2.62c-6.93,0-12.58,5.61-12.58,12.52v3.97h12.1v-3.97c0-.24.22-.45.48-.45h2.62c.26,0,.48.21.48.45,0,.68-.25,1.33-.71,1.84l-4.08,4.52c-1.96,2.17-3.05,4.98-3.06,7.91v1.61s.05,3.93.05,3.93h11.98l.04-3.93.02-1.49,4.05-4.48c2.46-2.73,3.82-6.25,3.82-9.91,0-6.9-5.64-12.52-12.58-12.52h0Z"/>
    </g>
  </g>
</svg>