<?xml version="1.0" encoding="UTF-8"?>
<svg id="Layer_1" xmlns="http://www.w3.org/2000/svg" version="1.1" viewBox="0 0 127 127">
  <!-- Generator: Adobe Illustrator 30.1.0, SVG Export Plug-In . SVG Version: 2.1.1 Build 136)  -->
  <circle id="Outer" cx="63.5" cy="63.5" r="59.09" fill="none" stroke="#000" stroke-width="8.81"/>
  <g>
    <g>
      <rect x="59.48" y="85.3" width="7.95" height="7.95"/>
      <path d="M66.84,85.9v6.76h-6.76v-6.76h6.76M68.03,84.71h-9.14v9.14h9.14v-9.14h0Z"/>
    </g>
    <g>
      <path d="M59.49,76.43l-.03-3.15c.01-3.35,1.26-6.56,3.5-9.05l6.7-7.42c1.73-1.92,2.69-4.4,2.69-6.98,0-3.67-3.01-6.65-6.7-6.65h-4.3c-3.7,0-6.7,2.98-6.7,6.65v.6h-8.01v-.6c0-8.06,6.6-14.61,14.71-14.61h4.3c8.11,0,14.71,6.56,14.71,14.61,0,4.54-1.68,8.91-4.74,12.29l-6.7,7.42c-.95,1.05-1.46,2.34-1.46,3.72l-.03,3.15h-7.94Z"/>
      <path d="M65.65,35.83c7.79,0,14.12,6.29,14.12,14.02,0,4.4-1.63,8.62-4.58,11.9l-6.7,7.42c-1.04,1.15-1.61,2.57-1.62,4.12l-.03,2.56h-6.76l-.02-2.56c.01-3.2,1.19-6.26,3.35-8.64l6.7-7.42c1.83-2.03,2.84-4.65,2.84-7.37,0-3.99-3.27-7.25-7.3-7.25h-4.3c-4.02,0-7.3,3.25-7.3,7.25h-6.82c0-7.73,6.33-14.02,14.12-14.02h4.3M65.65,34.64h-4.3c-8.44,0-15.31,6.82-15.31,15.21v1.19h9.2v-1.19c0-3.34,2.74-6.06,6.11-6.06h4.3c3.37,0,6.11,2.72,6.11,6.06,0,2.43-.9,4.77-2.54,6.58l-6.7,7.42c-2.34,2.59-3.64,5.94-3.66,9.44l.02,2.57v1.18h9.13v-1.18s.04-2.56.04-2.56c0-1.24.46-2.39,1.31-3.33l6.7-7.42c3.15-3.49,4.89-8,4.89-12.69,0-8.39-6.87-15.21-15.31-15.21h0Z"/>
    </g>
  </g>
</svg>