<?xml version="1.0" encoding="UTF-8"?>
<svg id="Layer_1" xmlns="http://www.w3.org/2000/svg" version="1.1" viewBox="0 0 98 98">
  <!-- Generator: Adobe Illustrator 30.1.0, SVG Export Plug-In . SVG Version: 2.1.1 Build 136)  -->
  <g>
    <g>
      <rect x="45.55" y="25.43" width="6.9" height="6.9"/>
      <path d="M51.84,26.04v5.68h-5.68v-5.68h5.68M53.06,24.82h-8.13v8.13h8.13v-8.13h0Z"/>
    </g>
    <g>
      <polygon points="39.87 72.42 39.87 65.52 45.55 65.52 45.55 49.02 39.87 49.02 39.87 42.12 52.45 42.12 52.45 65.52 58.13 65.52 58.13 72.42 39.87 72.42"/>
      <path d="M51.84,42.73v23.4h5.68v5.68h-17.03v-5.68h5.68v-17.72h-5.68v-5.68h11.35M53.06,41.51h-13.8v8.13h5.68v15.27h-5.68v8.13h19.48v-8.13h-5.68v-23.4h0Z"/>
    </g>
  </g>
  <circle id="Outer" cx="49" cy="49" r="44.74" fill="none" stroke="#000" stroke-width="8.51"/>
</svg>