<?xml version="1.0" encoding="UTF-8"?>
<svg id="Layer_1" xmlns="http://www.w3.org/2000/svg" version="1.1" viewBox="0 0 98 98">
  <!-- Generator: Adobe Illustrator 30.1.0, SVG Export Plug-In . SVG Version: 2.1.1 Build 136)  -->
  <g>
    <g>
      <rect x="45.5" y="26.68" width="7" height="7"/>
      <path d="M51.58,27.6v5.17h-5.17v-5.17h5.17M53.42,25.76h-8.84v8.84h8.84v-8.84h0Z"/>
    </g>
    <g>
      <polygon points="40.33 70.89 40.33 63.88 45.5 63.88 45.5 49.59 40.33 49.59 40.33 42.59 52.5 42.59 52.5 63.88 57.67 63.88 57.67 70.89 40.33 70.89"/>
      <path d="M51.58,43.51v21.29h5.17v5.17h-15.5v-5.17h5.17v-16.13h-5.17v-5.17h10.33M53.42,41.67h-14.01v8.84h5.17v12.45h-5.17v8.84h19.17v-8.84h-5.17v-21.29h0Z"/>
    </g>
  </g>
  <circle id="Outer" cx="49" cy="49" r="43.01" fill="none" stroke="#000" stroke-width="11.97"/>
</svg>