<?xml version="1.0" encoding="UTF-8"?>
<svg id="Layer_1" xmlns="http://www.w3.org/2000/svg" version="1.1" viewBox="0 0 118 118">
  <!-- Generator: Adobe Illustrator 30.1.0, SVG Export Plug-In . SVG Version: 2.1.1 Build 136)  -->
  <g>
    <g>
      <rect x="54.61" y="35.87" width="8.79" height="8.79"/>
      <path d="M61.37,37.9v4.73h-4.73v-4.73h4.73M65.42,33.84h-12.84v12.84h12.84v-12.84h0Z"/>
    </g>
    <g>
      <polygon points="49.88 80.85 49.88 72.06 54.61 72.06 54.61 61.35 49.88 61.35 49.88 52.56 63.39 52.56 63.39 72.06 68.12 72.06 68.12 80.85 49.88 80.85"/>
      <path d="M61.37,54.59v19.5h4.73v4.73h-14.19v-4.73h4.73v-14.77h-4.73v-4.73h9.46M65.42,50.53h-17.57v12.84h4.73v6.66h-4.73v12.84h22.31v-12.84h-4.73v-19.5h0Z"/>
    </g>
  </g>
  <circle id="Outer" cx="59" cy="59" r="46.57" fill="none" stroke="#000" stroke-width="24.85"/>
</svg>