<?xml version="1.0" encoding="UTF-8"?>
<svg id="Layer_1" xmlns="http://www.w3.org/2000/svg" version="1.1" viewBox="0 0 118 118">
  <!-- Generator: Adobe Illustrator 30.1.0, SVG Export Plug-In . SVG Version: 2.1.1 Build 136)  -->
  <g>
    <g>
      <rect x="54.85" y="30.62" width="8.31" height="8.31"/>
      <path d="M62.42,31.36v6.83h-6.83v-6.83h6.83M63.89,29.88h-9.78v9.78h9.78v-9.78h0Z"/>
    </g>
    <g>
      <polygon points="48.01 87.2 48.01 78.89 54.85 78.89 54.85 59.03 48.01 59.03 48.01 50.72 63.15 50.72 63.15 78.89 69.99 78.89 69.99 87.2 48.01 87.2"/>
      <path d="M62.42,51.46v28.17h6.83v6.83h-20.5v-6.83h6.83v-21.34h-6.83v-6.83h13.67M63.89,49.98h-16.62v9.78h6.83v18.39h-6.83v9.78h23.45v-9.78h-6.83v-28.17h0Z"/>
    </g>
  </g>
  <circle id="Outer" cx="59" cy="59" r="53.87" fill="none" stroke="#000" stroke-width="10.25"/>
</svg>