<?xml version="1.0" encoding="UTF-8"?>
<svg id="Layer_1" xmlns="http://www.w3.org/2000/svg" version="1.1" viewBox="0 0 118 118">
  <!-- Generator: Adobe Illustrator 30.1.0, SVG Export Plug-In . SVG Version: 2.1.1 Build 136)  -->
  <g>
    <g>
      <rect x="54.65" y="35.13" width="8.71" height="8.71"/>
      <path d="M61.51,36.98v5.02h-5.02v-5.02h5.02M65.2,33.29h-12.39v12.39h12.39v-12.39h0Z"/>
    </g>
    <g>
      <polygon points="49.63 81.72 49.63 73.01 54.65 73.01 54.65 61.03 49.63 61.03 49.63 52.32 63.35 52.32 63.35 73.01 68.37 73.01 68.37 81.72 49.63 81.72"/>
      <path d="M61.51,54.17v20.69h5.02v5.02h-15.06v-5.02h5.02v-15.67h-5.02v-5.02h10.04M65.2,50.48h-17.41v12.39h5.02v8.3h-5.02v12.39h22.43v-12.39h-5.02v-20.69h0Z"/>
    </g>
  </g>
  <circle id="Outer" cx="59" cy="59" r="47.61" fill="none" stroke="#000" stroke-width="22.79"/>
</svg>