<?xml version="1.0" encoding="UTF-8"?>
<svg id="Layer_1" xmlns="http://www.w3.org/2000/svg" version="1.1" viewBox="0 0 75 75">
  <!-- Generator: Adobe Illustrator 30.1.0, SVG Export Plug-In . SVG Version: 2.1.1 Build 136)  -->
  <g>
    <g>
      <rect x="34.88" y="18.99" width="5.24" height="5.24"/>
      <path d="M39.77,19.34v4.54h-4.54v-4.54h4.54M40.47,18.64h-5.95v5.95h5.95v-5.95h0Z"/>
    </g>
    <g>
      <polygon points="30.34 56.01 30.34 50.77 34.88 50.77 34.88 37.3 30.34 37.3 30.34 32.06 40.12 32.06 40.12 50.77 44.66 50.77 44.66 56.01 30.34 56.01"/>
      <path d="M39.77,32.41v18.71h4.54v4.54h-13.62v-4.54h4.54v-14.17h-4.54v-4.54h9.08M40.47,31.7h-10.49v5.95h4.54v12.77h-4.54v5.95h15.03v-5.95h-4.54v-18.71h0Z"/>
    </g>
  </g>
  <circle id="Outer" cx="37.5" cy="37.5" r="34.9" fill="none" stroke="#000" stroke-width="5.2"/>
</svg>