<?xml version="1.0" encoding="UTF-8"?>
<svg id="Layer_1" xmlns="http://www.w3.org/2000/svg" version="1.1" viewBox="0 0 75 75">
  <!-- Generator: Adobe Illustrator 30.1.0, SVG Export Plug-In . SVG Version: 2.1.1 Build 136)  -->
  <g>
    <g>
      <rect x="34.82" y="20.42" width="5.36" height="5.36"/>
      <path d="M39.48,21.12v3.95h-3.95v-3.95h3.95M40.88,19.72h-6.77v6.77h6.77v-6.77h0Z"/>
    </g>
    <g>
      <polygon points="30.87 54.25 30.87 48.89 34.82 48.89 34.82 37.95 30.87 37.95 30.87 32.59 40.18 32.59 40.18 48.89 44.13 48.89 44.13 54.25 30.87 54.25"/>
      <path d="M39.48,33.3v16.3h3.95v3.95h-11.86v-3.95h3.95v-12.34h-3.95v-3.95h7.91M40.88,31.89h-10.72v6.77h3.95v9.53h-3.95v6.77h14.67v-6.77h-3.95v-16.3h0Z"/>
    </g>
  </g>
  <circle id="Outer" cx="37.5" cy="37.5" r="32.92" fill="none" stroke="#000" stroke-width="9.16"/>
</svg>