<?xml version="1.0" encoding="UTF-8"?>
<svg id="Layer_1" xmlns="http://www.w3.org/2000/svg" version="1.1" viewBox="0 0 75 75">
  <!-- Generator: Adobe Illustrator 30.1.0, SVG Export Plug-In . SVG Version: 2.1.1 Build 136)  -->
  <g>
    <g>
      <rect x="34.73" y="22.33" width="5.53" height="5.53"/>
      <path d="M39.1,23.5v3.19h-3.19v-3.19h3.19M41.44,21.16h-7.88v7.88h7.88v-7.88h0Z"/>
    </g>
    <g>
      <polygon points="31.54 51.94 31.54 46.41 34.73 46.41 34.73 38.79 31.54 38.79 31.54 33.26 40.27 33.26 40.27 46.41 43.46 46.41 43.46 51.94 31.54 51.94"/>
      <path d="M39.1,34.43v13.15h3.19v3.19h-9.57v-3.19h3.19v-9.96h-3.19v-3.19h6.38M41.44,32.09h-11.07v7.88h3.19v5.27h-3.19v7.88h14.26v-7.88h-3.19v-13.15h0Z"/>
    </g>
  </g>
  <circle id="Outer" cx="37.5" cy="37.5" r="30.26" fill="none" stroke="#000" stroke-width="14.48"/>
</svg>