<?xml version="1.0" encoding="UTF-8"?>
<svg id="Layer_1" xmlns="http://www.w3.org/2000/svg" version="1.1" viewBox="0 0 50 50">
  <!-- Generator: Adobe Illustrator 30.1.0, SVG Export Plug-In . SVG Version: 2.1.1 Build 136)  -->
  <path d="M25,9.66c.5,0,1,.26,1.26.78l3.21,6.37c.55,1.09,1.58,1.87,2.78,2.09l6.94,1.3c1.09.2,1.53,1.52.78,2.34l-5.06,5.55c-.78.86-1.14,2.02-.99,3.17l.99,7.49c.12.89-.59,1.6-1.4,1.6-.21,0-.43-.05-.64-.16l-6.07-3.13c-.56-.29-1.18-.43-1.79-.43-.62,0-1.23.14-1.79.44l-6.07,3.13c-.21.11-.43.16-.64.16-.8,0-1.51-.71-1.4-1.6l.99-7.49c.15-1.15-.21-2.31-.99-3.16l-5.06-5.55c-.75-.82-.3-2.14.78-2.34l6.94-1.3c1.2-.23,2.23-1,2.78-2.09l3.21-6.37c.26-.52.76-.78,1.26-.78M25,0C20.8,0,17.01,2.33,15.12,6.09l-1.93,3.84-4.15.78c-3.94.74-7.18,3.56-8.45,7.36-1.27,3.8-.39,8.01,2.31,10.97l3.27,3.58-.64,4.85c-.42,3.16.55,6.35,2.65,8.74,2.1,2.4,5.14,3.78,8.32,3.78,1.75,0,3.5-.43,5.07-1.23l3.45-1.78,3.45,1.78c1.56.8,3.31,1.23,5.07,1.23,3.19,0,6.22-1.38,8.32-3.78,2.1-2.39,3.06-5.58,2.65-8.74l-.64-4.85,3.27-3.59c2.7-2.96,3.59-7.17,2.31-10.97-1.27-3.8-4.51-6.62-8.45-7.36l-4.16-.78-1.93-3.84C32.99,2.33,29.2,0,25,0h0Z"/>
</svg>