<?xml version="1.0" encoding="UTF-8"?>
<svg id="Layer_1" xmlns="http://www.w3.org/2000/svg" version="1.1" viewBox="0 0 50 50">
  <!-- Generator: Adobe Illustrator 30.1.0, SVG Export Plug-In . SVG Version: 2.1.1 Build 136)  -->
  <path d="M25,6.11c.61,0,1.23.32,1.55.96l3.95,7.84c.68,1.35,1.94,2.3,3.42,2.58l8.55,1.6c1.34.25,1.88,1.88.96,2.88l-6.23,6.84c-.96,1.05-1.41,2.48-1.22,3.9l1.22,9.22c.15,1.1-.73,1.97-1.72,1.97-.26,0-.53-.06-.79-.2l-7.48-3.85c-.69-.36-1.45-.54-2.21-.54-.76,0-1.52.18-2.21.54l-7.48,3.85c-.26.13-.53.2-.79.2-.99,0-1.86-.87-1.72-1.97l1.22-9.22c.19-1.41-.26-2.84-1.22-3.89l-6.23-6.84c-.92-1.01-.38-2.63.96-2.88l8.55-1.6c1.48-.28,2.74-1.23,3.42-2.57l3.95-7.85c.32-.64.94-.96,1.55-.96M25,0C22.02,0,19.34,1.65,17.99,4.32l-3.67,7.28-7.92,1.49c-2.79.52-5.09,2.52-5.99,5.22-.9,2.7-.27,5.68,1.64,7.78l5.83,6.4-1.14,8.64c-.3,2.24.39,4.5,1.87,6.2,1.49,1.7,3.65,2.68,5.9,2.68,1.24,0,2.48-.3,3.59-.87l6.89-3.55,6.89,3.55c1.11.57,2.35.87,3.59.87,2.26,0,4.41-.98,5.9-2.68,1.49-1.7,2.17-3.95,1.87-6.2l-1.14-8.64,5.83-6.4c1.92-2.1,2.54-5.08,1.64-7.78-.9-2.7-3.2-4.7-5.99-5.22l-7.93-1.49-3.67-7.28C30.66,1.65,27.98,0,25,0h0Z"/>
</svg>