<?xml version="1.0" encoding="UTF-8"?>
<svg id="Layer_1" xmlns="http://www.w3.org/2000/svg" version="1.1" viewBox="0 0 50 50">
  <!-- Generator: Adobe Illustrator 30.1.0, SVG Export Plug-In . SVG Version: 2.1.1 Build 136)  -->
  <path d="M25,4.34c.67,0,1.34.35,1.69,1.04l4.32,8.58c.74,1.47,2.13,2.51,3.74,2.82l9.35,1.75c1.46.27,2.05,2.05,1.05,3.15l-6.81,7.47c-1.05,1.15-1.54,2.71-1.34,4.26l1.33,10.08c.16,1.2-.8,2.15-1.88,2.15-.29,0-.58-.07-.87-.21l-8.18-4.21c-.76-.39-1.59-.59-2.42-.59-.83,0-1.66.2-2.42.59l-8.18,4.21c-.29.15-.58.21-.87.21-1.08,0-2.04-.95-1.88-2.15l1.33-10.08c.2-1.55-.28-3.1-1.33-4.26l-6.81-7.48c-1-1.1-.41-2.88,1.05-3.15l9.35-1.75c1.62-.3,3-1.34,3.74-2.81l4.32-8.58c.35-.7,1.02-1.04,1.69-1.04M25,0C22.63,0,20.49,1.32,19.43,3.43l-4.32,8.58c-.13.26-.38.45-.66.5l-9.35,1.75c-2.22.42-4.05,2.01-4.77,4.15-.72,2.15-.22,4.52,1.31,6.19l6.81,7.48c.19.21.27.48.24.76l-1.33,10.08c-.24,1.79.31,3.58,1.49,4.93,1.19,1.36,2.9,2.14,4.7,2.14.98,0,1.97-.24,2.86-.7l8.18-4.21c.13-.07.28-.1.43-.1.15,0,.3.04.43.1l8.18,4.21c.88.46,1.87.7,2.86.7,1.8,0,3.51-.78,4.7-2.14,1.18-1.35,1.72-3.15,1.49-4.93l-1.33-10.08c-.04-.28.05-.56.24-.77l6.81-7.47c1.52-1.67,2.03-4.05,1.31-6.19-.72-2.15-2.55-3.74-4.77-4.15l-9.35-1.75c-.28-.05-.53-.24-.66-.5l-4.32-8.58C29.51,1.32,27.37,0,25,0h0Z"/>
</svg>