<?xml version="1.0" encoding="UTF-8"?>
<svg id="Layer_1" xmlns="http://www.w3.org/2000/svg" version="1.1" viewBox="0 0 102 102">
  <!-- Generator: Adobe Illustrator 30.1.0, SVG Export Plug-In . SVG Version: 2.1.1 Build 136)  -->
  <path d="M51,8.86c1.37,0,2.74.71,3.46,2.13l8.82,17.5c1.51,3,4.34,5.13,7.63,5.75l19.07,3.57c2.98.56,4.19,4.18,2.15,6.43l-13.9,15.25c-2.14,2.35-3.14,5.53-2.72,8.69l2.71,20.56c.32,2.45-1.63,4.4-3.84,4.4-.58,0-1.19-.14-1.77-.44l-16.68-8.59c-1.55-.8-3.24-1.19-4.93-1.19s-3.38.4-4.93,1.19l-16.68,8.59c-.58.3-1.18.44-1.77.44-2.21,0-4.16-1.94-3.84-4.4l2.71-20.57c.42-3.16-.58-6.33-2.72-8.68l-13.9-15.25c-2.05-2.25-.84-5.87,2.15-6.43l19.07-3.57c3.3-.62,6.12-2.74,7.63-5.74l8.82-17.5c.72-1.42,2.09-2.13,3.46-2.13M51,0C46.16,0,41.81,2.68,39.63,7.01l-8.82,17.5c-.27.53-.77.91-1.35,1.02l-19.07,3.57c-4.53.85-8.26,4.1-9.73,8.47-1.47,4.38-.45,9.22,2.66,12.64l13.9,15.25c.38.42.56.99.49,1.56l-2.71,20.57c-.48,3.64.63,7.31,3.04,10.06,2.43,2.77,5.92,4.36,9.58,4.36,2.01,0,4.02-.49,5.83-1.42l16.68-8.59c.27-.14.57-.21.87-.21s.6.07.87.21l16.68,8.59c1.8.93,3.82,1.42,5.83,1.42,3.66,0,7.16-1.59,9.58-4.36,2.41-2.75,3.52-6.42,3.04-10.06l-2.71-20.56c-.08-.57.1-1.14.49-1.57l13.9-15.25c3.11-3.41,4.13-8.25,2.66-12.63-1.47-4.38-5.19-7.62-9.73-8.47l-19.07-3.57c-.58-.11-1.09-.49-1.35-1.02l-8.82-17.5C60.19,2.68,55.83,0,51,0h0Z"/>
</svg>