<?xml version="1.0" encoding="UTF-8"?>
<svg id="Layer_1" xmlns="http://www.w3.org/2000/svg" version="1.1" viewBox="0 0 82 82">
  <!-- Generator: Adobe Illustrator 30.1.0, SVG Export Plug-In . SVG Version: 2.1.1 Build 136)  -->
  <path d="M41,10.02c1.01,0,2.01.52,2.54,1.57l6.48,12.87c1.11,2.21,3.19,3.77,5.61,4.22l14.02,2.63c2.19.41,3.08,3.08,1.58,4.73l-10.22,11.21c-1.58,1.73-2.31,4.07-2,6.39l1.99,15.12c.24,1.8-1.2,3.23-2.82,3.23-.43,0-.87-.1-1.3-.32l-12.26-6.32c-1.14-.59-2.38-.88-3.62-.88-1.24,0-2.49.29-3.62.88l-12.26,6.32c-.43.22-.87.32-1.3.32-1.62,0-3.06-1.43-2.82-3.23l1.99-15.12c.31-2.32-.43-4.66-2-6.38l-10.22-11.21c-1.51-1.65-.62-4.32,1.58-4.73l14.02-2.63c2.42-.45,4.5-2.02,5.61-4.22l6.48-12.87c.53-1.04,1.53-1.57,2.54-1.57M41,0c-4.89,0-9.29,2.71-11.49,7.08l-6.02,11.94-12.99,2.44c-4.58.86-8.35,4.14-9.83,8.56-1.48,4.42-.45,9.32,2.69,12.76l9.56,10.49-1.87,14.16c-.49,3.68.64,7.38,3.07,10.16,2.45,2.79,5.98,4.4,9.68,4.4,2.03,0,4.07-.5,5.89-1.43l11.3-5.82,11.3,5.82c1.82.94,3.86,1.43,5.89,1.43,3.7,0,7.23-1.6,9.68-4.4,2.44-2.78,3.56-6.49,3.07-10.16l-1.87-14.16,9.57-10.5c3.14-3.45,4.17-8.34,2.69-12.76-1.48-4.42-5.25-7.7-9.83-8.56l-13-2.44-6.02-11.94c-2.2-4.37-6.6-7.08-11.49-7.08h0Z"/>
</svg>