<?xml version="1.0" encoding="UTF-8"?>
<svg id="Layer_1" xmlns="http://www.w3.org/2000/svg" version="1.1" viewBox="0 0 82 82">
  <!-- Generator: Adobe Illustrator 30.1.0, SVG Export Plug-In . SVG Version: 2.1.1 Build 136)  -->
  <path d="M41,17.27c.77,0,1.54.4,1.95,1.2l4.96,9.85c.85,1.69,2.44,2.89,4.3,3.24l10.74,2.01c1.68.31,2.36,2.36,1.21,3.62l-7.82,8.59c-1.21,1.32-1.77,3.12-1.53,4.9l1.53,11.58c.18,1.38-.92,2.48-2.16,2.48-.33,0-.67-.08-1-.25l-9.39-4.84c-.87-.45-1.82-.67-2.77-.67-.95,0-1.9.22-2.77.67l-9.39,4.84c-.33.17-.67.25-1,.25-1.24,0-2.34-1.09-2.16-2.48l1.53-11.58c.23-1.78-.33-3.57-1.53-4.89l-7.83-8.59c-1.15-1.27-.47-3.31,1.21-3.62l10.74-2.01c1.86-.35,3.45-1.54,4.3-3.23l4.97-9.86c.4-.8,1.17-1.2,1.95-1.2M41,0C33.61,0,26.95,4.1,23.63,10.7l-2.47,4.91-5.29.99c-6.93,1.3-12.62,6.26-14.86,12.94-2.24,6.69-.68,14.08,4.07,19.29l4.32,4.74-.85,6.43c-.73,5.56.96,11.16,4.65,15.37,3.7,4.22,9.03,6.64,14.63,6.64,3.08,0,6.16-.75,8.9-2.16l4.26-2.19,4.26,2.19c2.75,1.41,5.83,2.16,8.9,2.16,5.6,0,10.93-2.42,14.63-6.64,3.69-4.21,5.39-9.81,4.65-15.37l-.85-6.42,4.32-4.74c4.75-5.21,6.31-12.6,4.07-19.29-2.24-6.68-7.93-11.64-14.86-12.94l-5.29-.99-2.47-4.91C55.04,4.1,48.39,0,41,0h0Z"/>
</svg>