<?xml version="1.0" encoding="UTF-8"?>
<svg id="Layer_1" xmlns="http://www.w3.org/2000/svg" version="1.1" viewBox="0 0 82 82">
  <!-- Generator: Adobe Illustrator 30.1.0, SVG Export Plug-In . SVG Version: 2.1.1 Build 136)  -->
  <path d="M41,15.84c.82,0,1.64.42,2.06,1.27l5.26,10.45c.9,1.79,2.59,3.06,4.56,3.43l11.39,2.13c1.78.33,2.5,2.5,1.28,3.84l-8.3,9.11c-1.28,1.4-1.88,3.31-1.63,5.19l1.62,12.28c.19,1.46-.97,2.62-2.29,2.62-.35,0-.71-.08-1.06-.26l-9.96-5.13c-.92-.48-1.93-.71-2.94-.71s-2.02.24-2.94.71l-9.96,5.13c-.35.18-.71.26-1.06.26-1.32,0-2.48-1.16-2.29-2.62l1.62-12.28c.25-1.88-.35-3.78-1.63-5.19l-8.3-9.11c-1.22-1.34-.5-3.51,1.28-3.84l11.39-2.13c1.97-.37,3.65-1.64,4.56-3.43l5.27-10.45c.43-.85,1.25-1.27,2.06-1.27M41,0C34.11,0,27.89,3.83,24.79,9.98l-3.17,6.3-6.81,1.28c-6.46,1.21-11.78,5.84-13.87,12.08-2.09,6.24-.64,13.14,3.8,18l5.36,5.88-1.05,7.96c-.68,5.19.9,10.41,4.34,14.34,3.45,3.94,8.43,6.19,13.65,6.19,2.87,0,5.74-.7,8.31-2.02l5.65-2.91,5.65,2.91c2.56,1.32,5.44,2.02,8.31,2.02,5.22,0,10.2-2.26,13.65-6.19,3.44-3.93,5.02-9.15,4.34-14.34l-1.05-7.96,5.36-5.88c4.43-4.86,5.89-11.76,3.8-18-2.09-6.24-7.4-10.86-13.86-12.07l-6.81-1.28-3.17-6.3C54.1,3.83,47.89,0,41,0h0Z"/>
</svg>