<?xml version="1.0" encoding="UTF-8"?>
<svg id="Layer_1" xmlns="http://www.w3.org/2000/svg" version="1.1" viewBox="0 0 82 82">
  <!-- Generator: Adobe Illustrator 30.1.0, SVG Export Plug-In . SVG Version: 2.1.1 Build 136)  -->
  <path d="M41,7.12c1.1,0,2.2.57,2.78,1.71l7.09,14.07c1.22,2.41,3.49,4.12,6.14,4.62l15.33,2.87c2.4.45,3.37,3.36,1.72,5.17l-11.17,12.26c-1.72,1.89-2.53,4.45-2.19,6.99l2.18,16.53c.26,1.97-1.31,3.53-3.08,3.53-.47,0-.95-.11-1.42-.35l-13.41-6.91c-1.24-.64-2.6-.96-3.96-.96s-2.72.32-3.96.96l-13.41,6.91c-.47.24-.95.35-1.42.35-1.77,0-3.34-1.56-3.08-3.53l2.18-16.53c.33-2.54-.47-5.09-2.19-6.98l-11.17-12.26c-1.65-1.81-.67-4.72,1.73-5.17l15.33-2.87c2.65-.5,4.92-2.2,6.13-4.62l7.09-14.07c.58-1.14,1.68-1.71,2.78-1.71M41,0C37.11,0,33.61,2.16,31.86,5.63l-7.09,14.07c-.21.43-.62.73-1.08.82l-15.33,2.87c-3.65.68-6.64,3.29-7.82,6.81-1.18,3.52-.36,7.41,2.14,10.16l11.17,12.26c.31.34.45.79.39,1.25l-2.18,16.53c-.39,2.93.5,5.88,2.44,8.09,1.95,2.23,4.76,3.5,7.7,3.5,1.61,0,3.23-.39,4.68-1.14l13.41-6.91c.22-.11.45-.17.7-.17s.48.06.7.17l13.41,6.91c1.45.75,3.07,1.14,4.68,1.14,2.94,0,5.75-1.28,7.7-3.5,1.94-2.21,2.83-5.16,2.44-8.09l-2.18-16.53c-.06-.46.08-.92.39-1.26l11.17-12.26c2.5-2.74,3.32-6.64,2.14-10.16-1.18-3.52-4.17-6.13-7.82-6.81l-15.33-2.87c-.47-.09-.87-.39-1.09-.82l-7.09-14.07C48.39,2.16,44.89,0,41,0h0Z"/>
</svg>