<?xml version="1.0" encoding="UTF-8"?>
<svg id="Layer_1" xmlns="http://www.w3.org/2000/svg" version="1.1" viewBox="0 0 109 109">
  <!-- Generator: Adobe Illustrator 30.1.0, SVG Export Plug-In . SVG Version: 2.1.1 Build 136)  -->
  <path d="M54.5,13.32c1.34,0,2.68.69,3.38,2.08l8.62,17.1c1.48,2.93,4.24,5.01,7.46,5.62l18.64,3.49c2.91.55,4.1,4.09,2.1,6.28l-13.58,14.9c-2.1,2.3-3.07,5.41-2.66,8.5l2.65,20.09c.32,2.4-1.59,4.3-3.75,4.3-.57,0-1.16-.13-1.73-.43l-16.3-8.4c-1.51-.78-3.16-1.17-4.82-1.17-1.65,0-3.3.39-4.82,1.17l-16.3,8.4c-.57.29-1.16.43-1.73.43-2.16,0-4.07-1.9-3.75-4.3l2.65-20.1c.41-3.08-.57-6.19-2.66-8.49l-13.58-14.9c-2-2.2-.82-5.74,2.1-6.29l18.64-3.49c3.22-.6,5.98-2.68,7.46-5.61l8.62-17.1c.7-1.39,2.04-2.08,3.38-2.08M54.5,0C48,0,42.15,3.61,39.23,9.41l-8,15.87-17.27,3.24c-6.09,1.14-11.1,5.5-13.07,11.38-1.97,5.88-.6,12.38,3.58,16.97l12.71,13.95-2.48,18.83c-.64,4.89.84,9.81,4.09,13.51,3.26,3.71,7.95,5.85,12.87,5.85,2.7,0,5.41-.66,7.83-1.9l15.02-7.74,15.02,7.74c2.42,1.25,5.13,1.9,7.83,1.9,4.92,0,9.61-2.13,12.87-5.85,3.24-3.7,4.73-8.62,4.09-13.51l-2.48-18.83,12.72-13.95c4.18-4.58,5.55-11.08,3.58-16.96-1.97-5.88-6.98-10.24-13.06-11.38l-17.28-3.24-8-15.87C66.85,3.61,60.99,0,54.5,0h0Z"/>
</svg>