<?xml version="1.0" encoding="UTF-8"?>
<svg id="Layer_1" xmlns="http://www.w3.org/2000/svg" version="1.1" viewBox="0 0 109 109">
  <!-- Generator: Adobe Illustrator 30.1.0, SVG Export Plug-In . SVG Version: 2.1.1 Build 136)  -->
  <path d="M54.5,22.96c1.03,0,2.05.53,2.59,1.6l6.6,13.1c1.13,2.25,3.25,3.84,5.71,4.3l14.28,2.68c2.23.42,3.14,3.13,1.61,4.81l-10.4,11.41c-1.6,1.76-2.35,4.14-2.04,6.51l2.03,15.39c.24,1.84-1.22,3.29-2.87,3.29-.44,0-.89-.1-1.32-.33l-12.49-6.43c-1.16-.6-2.42-.89-3.69-.89-1.27,0-2.53.3-3.69.89l-12.49,6.43c-.44.22-.89.33-1.32.33-1.65,0-3.11-1.45-2.87-3.29l2.03-15.39c.31-2.36-.43-4.74-2.04-6.5l-10.4-11.41c-1.53-1.68-.63-4.4,1.61-4.81l14.27-2.68c2.47-.46,4.58-2.05,5.71-4.3l6.6-13.1c.54-1.06,1.56-1.6,2.59-1.6M54.5,0C44.68,0,35.83,5.45,31.41,14.22l-3.29,6.52-7.03,1.32c-9.21,1.73-16.78,8.32-19.75,17.2-2.98,8.89-.91,18.71,5.41,25.64l5.74,6.3-1.13,8.54c-.97,7.39,1.28,14.83,6.18,20.43,4.92,5.61,12.01,8.82,19.45,8.82,4.09,0,8.18-.99,11.84-2.87l5.66-2.92,5.66,2.92c3.65,1.88,7.74,2.87,11.84,2.87,7.44,0,14.53-3.22,19.45-8.82,4.9-5.59,7.16-13.04,6.18-20.43l-1.13-8.54,5.75-6.3c6.31-6.93,8.38-16.75,5.41-25.64-2.98-8.88-10.55-15.48-19.75-17.2l-7.03-1.32-3.29-6.52C73.17,5.45,64.32,0,54.5,0h0Z"/>
</svg>