<?xml version="1.0" encoding="UTF-8"?>
<svg id="Layer_1" xmlns="http://www.w3.org/2000/svg" version="1.1" viewBox="0 0 109 109">
  <!-- Generator: Adobe Illustrator 30.1.0, SVG Export Plug-In . SVG Version: 2.1.1 Build 136)  -->
  <path d="M54.5,21.05c1.09,0,2.18.56,2.74,1.69l7,13.89c1.2,2.38,3.44,4.07,6.06,4.56l15.14,2.84c2.37.44,3.33,3.32,1.7,5.1l-11.03,12.1c-1.7,1.87-2.49,4.39-2.16,6.9l2.15,16.32c.26,1.95-1.29,3.49-3.05,3.49-.46,0-.94-.11-1.4-.35l-13.24-6.82c-1.23-.63-2.57-.95-3.91-.95s-2.68.32-3.91.95l-13.24,6.82c-.46.24-.94.35-1.4.35-1.75,0-3.3-1.54-3.05-3.49l2.15-16.33c.33-2.5-.46-5.03-2.16-6.89l-11.03-12.1c-1.63-1.78-.66-4.66,1.7-5.11l15.14-2.84c2.62-.49,4.86-2.18,6.06-4.56l7-13.89c.57-1.13,1.66-1.69,2.74-1.69M54.5,0C45.33,0,37.08,5.09,32.96,13.27l-4.22,8.37-9.05,1.7c-8.59,1.61-15.65,7.76-18.43,16.05-2.78,8.29-.84,17.46,5.05,23.92l7.12,7.82-1.39,10.58c-.91,6.89,1.19,13.84,5.77,19.06,4.59,5.23,11.2,8.23,18.15,8.23,3.82,0,7.64-.93,11.04-2.68l7.52-3.87,7.52,3.87c3.41,1.75,7.23,2.68,11.04,2.68,6.94,0,13.56-3,18.15-8.23,4.58-5.22,6.68-12.16,5.77-19.06l-1.39-10.58,7.12-7.82c5.89-6.46,7.82-15.63,5.05-23.92-2.78-8.29-9.84-14.44-18.43-16.05l-9.06-1.7-4.22-8.37C71.92,5.09,63.66,0,54.5,0h0Z"/>
</svg>