<?xml version="1.0" encoding="UTF-8"?>
<svg id="Layer_1" xmlns="http://www.w3.org/2000/svg" version="1.1" viewBox="0 0 75 75">
  <!-- Generator: Adobe Illustrator 30.1.0, SVG Export Plug-In . SVG Version: 2.1.1 Build 136)  -->
  <circle id="Outer" cx="37.5" cy="37.5" r="32.92" fill="none" stroke="#000" stroke-width="9.16"/>
  <g>
    <g>
      <rect x="35.13" y="48.88" width="4.7" height="4.7"/>
      <path d="M39.13,49.59v3.3h-3.3v-3.3h3.3M40.53,48.18h-6.11v6.11h6.11v-6.11h0Z"/>
    </g>
    <g>
      <path d="M35.14,43.87l-.02-1.94c0-1.74.65-3.4,1.81-4.69l3.27-3.62c.78-.86,1.2-1.97,1.2-3.12,0-1.56-1.28-2.83-2.85-2.83h-2.1c-1.57,0-2.85,1.27-2.85,2.83v.7h-4.73v-.7c0-4.16,3.4-7.54,7.59-7.54h2.1c4.18,0,7.59,3.38,7.59,7.54,0,2.32-.86,4.55-2.42,6.27l-3.26,3.62c-.4.44-.61.97-.61,1.54l-.02,1.95h-4.69Z"/>
      <path d="M38.55,23.66c3.8,0,6.88,3.07,6.88,6.83,0,2.14-.79,4.2-2.24,5.8l-3.27,3.62c-.51.56-.79,1.25-.79,2.01v1.25h-3.31v-1.25c0-1.56.57-3.05,1.62-4.21l3.26-3.62c.89-.99,1.39-2.27,1.39-3.6,0-1.95-1.6-3.53-3.56-3.53h-2.1c-1.96,0-3.56,1.58-3.56,3.53h-3.33c0-3.77,3.09-6.83,6.88-6.83h2.1M38.55,22.26h-2.1c-4.57,0-8.29,3.7-8.29,8.24v1.41h6.14v-1.41c0-1.17.97-2.13,2.15-2.13h2.1c1.19,0,2.15.95,2.15,2.13,0,.98-.36,1.92-1.02,2.65l-3.26,3.62c-1.28,1.41-1.99,3.24-2,5.15v1.26s.02,1.39.02,1.39h6.08v-1.39s.03-1.25.03-1.25c0-.41.14-.77.43-1.08l3.27-3.62c1.67-1.86,2.6-4.25,2.6-6.74,0-4.54-3.72-8.24-8.29-8.24h0Z"/>
    </g>
  </g>
</svg>