<?xml version="1.0" encoding="UTF-8"?>
<svg id="Layer_1" xmlns="http://www.w3.org/2000/svg" version="1.1" viewBox="0 0 75 75">
  <!-- Generator: Adobe Illustrator 30.1.0, SVG Export Plug-In . SVG Version: 2.1.1 Build 136)  -->
  <circle id="Outer" cx="37.5" cy="37.5" r="30.26" fill="none" stroke="#000" stroke-width="14.48"/>
  <g>
    <g>
      <rect x="35.09" y="46.85" width="4.78" height="4.78"/>
      <path d="M38.7,48.02v2.43h-2.43v-2.43h2.43M41.04,45.68h-7.12v7.12h7.12v-7.12h0Z"/>
    </g>
    <g>
      <path d="M35.11,42.38l-.02-2.08c0-1.45.54-2.84,1.51-3.91l2.41-2.67c.47-.52.72-1.18.72-1.87,0-.79-.65-1.44-1.46-1.44h-1.55c-.8,0-1.46.64-1.46,1.44v1.17h-4.8v-1.17c0-3.43,2.81-6.22,6.25-6.22h1.55c3.45,0,6.25,2.79,6.25,6.22,0,1.87-.69,3.67-1.95,5.07l-2.41,2.67c-.19.21-.28.44-.28.7l-.02,2.09h-4.76Z"/>
      <path d="M38.27,26.81c2.8,0,5.08,2.26,5.08,5.05,0,1.58-.59,3.1-1.65,4.28l-2.41,2.67c-.37.41-.58.93-.58,1.48v.92h-2.44v-.92c0-1.15.42-2.25,1.2-3.11l2.41-2.67c.66-.73,1.02-1.67,1.02-2.66,0-1.44-1.18-2.61-2.63-2.61h-1.55c-1.45,0-2.63,1.17-2.63,2.61h-2.46c0-2.78,2.28-5.05,5.08-5.05h1.55M38.27,24.46h-1.55c-4.1,0-7.43,3.32-7.43,7.39v2.34h7.14v-2.34c0-.14.13-.27.28-.27h1.55c.15,0,.28.12.28.27,0,.4-.15.79-.42,1.08l-2.41,2.67c-1.16,1.28-1.8,2.94-1.81,4.67v.95s.03,2.32.03,2.32h7.08l.02-2.32v-.88s2.4-2.65,2.4-2.65c1.45-1.61,2.25-3.69,2.25-5.85,0-4.08-3.33-7.39-7.43-7.39h0Z"/>
    </g>
  </g>
</svg>