<?xml version="1.0" encoding="UTF-8"?>
<svg id="Layer_1" xmlns="http://www.w3.org/2000/svg" version="1.1" viewBox="0 0 75 75">
  <!-- Generator: Adobe Illustrator 30.1.0, SVG Export Plug-In . SVG Version: 2.1.1 Build 136)  -->
  <circle id="Outer" cx="37.5" cy="37.5" r="34.24" fill="none" stroke="#000" stroke-width="6.52"/>
  <g>
    <g>
      <rect x="35.13" y="49.88" width="4.69" height="4.69"/>
      <path d="M39.36,50.35v3.76h-3.76v-3.76h3.76M40.29,49.41h-5.63v5.63h5.63v-5.63h0Z"/>
    </g>
    <g>
      <path d="M35.14,44.71l-.02-1.89c0-1.9.71-3.71,1.98-5.12l3.72-4.12c.94-1.04,1.46-2.39,1.46-3.78,0-1.96-1.61-3.56-3.59-3.56h-2.39c-1.98,0-3.59,1.6-3.59,3.56v.47h-4.73v-.47c0-4.55,3.73-8.26,8.31-8.26h2.39c4.58,0,8.31,3.71,8.31,8.26,0,2.56-.95,5.02-2.67,6.92l-3.72,4.12c-.51.56-.78,1.24-.78,1.98l-.02,1.89h-4.69Z"/>
      <path d="M38.7,22c4.33,0,7.85,3.5,7.85,7.79,0,2.44-.91,4.79-2.55,6.61l-3.72,4.12c-.58.64-.9,1.43-.9,2.29v1.42h-3.77v-1.42c0-1.78.65-3.48,1.85-4.8l3.72-4.12c1.02-1.13,1.58-2.58,1.58-4.1,0-2.22-1.82-4.03-4.06-4.03h-2.39c-2.24,0-4.06,1.81-4.06,4.03h-3.79c0-4.29,3.52-7.79,7.85-7.79h2.39M38.7,21.06h-2.39c-4.84,0-8.78,3.92-8.78,8.73v.94h5.67v-.94c0-1.7,1.4-3.09,3.12-3.09h2.39c1.72,0,3.12,1.39,3.12,3.09,0,1.28-.48,2.51-1.34,3.47l-3.72,4.12c-1.35,1.49-2.1,3.42-2.1,5.43v1.43s.02.93.02.93h5.61v-.93s.02-1.42.02-1.42c0-.62.23-1.2.66-1.67l3.72-4.12c1.8-1.99,2.79-4.56,2.79-7.24,0-4.81-3.94-8.73-8.78-8.73h0Z"/>
    </g>
  </g>
</svg>