<?xml version="1.0" encoding="UTF-8"?>
<svg id="Layer_1" xmlns="http://www.w3.org/2000/svg" version="1.1" viewBox="0 0 75 75">
  <!-- Generator: Adobe Illustrator 30.1.0, SVG Export Plug-In . SVG Version: 2.1.1 Build 136)  -->
  <circle id="Outer" cx="37.5" cy="37.5" r="34.9" fill="none" stroke="#000" stroke-width="5.2"/>
  <g>
    <g>
      <rect x="35.13" y="50.38" width="4.7" height="4.7"/>
      <path d="M39.47,50.73v3.99h-3.99v-3.99h3.99M40.18,50.02h-5.4v5.4h5.4v-5.4h0Z"/>
    </g>
    <g>
      <path d="M35.13,45.14l-.02-1.86c0-1.98.74-3.88,2.07-5.34l3.95-4.38c1.02-1.13,1.59-2.6,1.59-4.12,0-2.17-1.78-3.93-3.96-3.93h-2.54c-2.18,0-3.96,1.76-3.96,3.93v.35h-4.73v-.35c0-4.76,3.9-8.63,8.69-8.63h2.54c4.79,0,8.69,3.87,8.69,8.63,0,2.68-.99,5.26-2.8,7.26l-3.96,4.38c-.56.62-.86,1.38-.86,2.2l-.02,1.86h-4.69Z"/>
      <path d="M38.77,21.16c4.6,0,8.34,3.71,8.34,8.28,0,2.6-.96,5.09-2.71,7.03l-3.96,4.38c-.61.68-.95,1.52-.95,2.43l-.02,1.51h-3.99v-1.51c0-1.89.69-3.7,1.96-5.1l3.95-4.38c1.08-1.2,1.68-2.75,1.68-4.36,0-2.36-1.93-4.28-4.31-4.28h-2.54c-2.38,0-4.31,1.92-4.31,4.28h-4.03c0-4.56,3.74-8.28,8.34-8.28h2.54M38.77,20.45h-2.54c-4.98,0-9.04,4.03-9.04,8.98v.7h5.43v-.7c0-1.97,1.62-3.58,3.61-3.58h2.54c1.99,0,3.61,1.6,3.61,3.58,0,1.44-.53,2.81-1.5,3.88l-3.95,4.38c-1.38,1.53-2.15,3.51-2.16,5.57v1.52s.02.7.02.7h5.39v-.7s.02-1.51.02-1.51c0-.73.27-1.41.77-1.97l3.96-4.38c1.86-2.06,2.89-4.73,2.89-7.5,0-4.95-4.06-8.98-9.04-8.98h0Z"/>
    </g>
  </g>
</svg>