<?xml version="1.0" encoding="UTF-8"?>
<svg id="Layer_1" xmlns="http://www.w3.org/2000/svg" version="1.1" viewBox="0 0 75 75">
  <!-- Generator: Adobe Illustrator 30.1.0, SVG Export Plug-In . SVG Version: 2.1.1 Build 136)  -->
  <circle id="Outer" cx="37.5" cy="37.5" r="29.6" fill="none" stroke="#000" stroke-width="15.8"/>
  <g>
    <g>
      <rect x="35.08" y="46.34" width="4.81" height="4.81"/>
      <path d="M38.6,47.63v2.24h-2.24v-2.24h2.24M41.18,45.05h-7.39v7.39h7.39v-7.39h0Z"/>
    </g>
    <g>
      <path d="M35.09,42.06l-.02-2.12c0-1.39.52-2.71,1.44-3.73l2.21-2.45c.39-.43.61-.99.61-1.58,0-.61-.5-1.11-1.12-1.11h-1.42c-.62,0-1.12.5-1.12,1.11v1.29h-4.83v-1.29c0-3.27,2.67-5.93,5.96-5.93h1.42c3.29,0,5.96,2.66,5.96,5.93,0,1.77-.66,3.48-1.85,4.8l-2.21,2.45c-.13.15-.2.32-.2.5l-.02,2.13h-4.79Z"/>
      <path d="M38.21,27.54c2.57,0,4.67,2.08,4.67,4.64,0,1.45-.54,2.85-1.52,3.93l-2.22,2.45c-.34.38-.53.85-.53,1.36v.85h-2.24v-.85c0-1.06.39-2.07,1.1-2.86l2.21-2.45c.61-.67.94-1.54.94-2.44,0-1.32-1.08-2.4-2.41-2.4h-1.42c-1.33,0-2.41,1.08-2.41,2.4h-2.26c0-2.56,2.09-4.64,4.67-4.64h1.42M38.21,24.96h-1.42c-4,0-7.25,3.24-7.25,7.21v2.58h6.54l-.53.59c-1.14,1.26-1.77,2.88-1.77,4.58v.88s.03,2.56.03,2.56h7.34l.03-2.55v-.65s2.09-2.31,2.09-2.31c1.41-1.56,2.18-3.57,2.18-5.66,0-3.98-3.25-7.21-7.25-7.21h0ZM36.95,32.36h1.08c-.03.2-.12.38-.26.53l-.82.91v-1.44h0Z"/>
    </g>
  </g>
</svg>