<?xml version="1.0" encoding="UTF-8"?>
<svg id="Layer_1" xmlns="http://www.w3.org/2000/svg" version="1.1" viewBox="0 0 75 75">
  <!-- Generator: Adobe Illustrator 30.1.0, SVG Export Plug-In . SVG Version: 2.1.1 Build 136)  -->
  <circle id="Outer" cx="37.5" cy="37.5" r="31.58" fill="none" stroke="#000" stroke-width="11.84"/>
  <g>
    <g>
      <rect x="35.12" y="47.87" width="4.73" height="4.73"/>
      <path d="M38.91,48.81v2.85h-2.85v-2.85h2.85M40.78,46.93h-6.6v6.6h6.6v-6.6h0Z"/>
    </g>
    <g>
      <path d="M35.13,43.09l-.02-2.01c0-1.59.59-3.11,1.66-4.28l2.82-3.13c.62-.68.96-1.57.96-2.48,0-1.17-.96-2.12-2.14-2.12h-1.81c-1.18,0-2.14.95-2.14,2.12v.94h-4.75v-.94c0-3.78,3.09-6.85,6.89-6.85h1.81c3.8,0,6.89,3.07,6.89,6.85,0,2.09-.77,4.09-2.17,5.65l-2.83,3.13c-.29.32-.44.7-.44,1.11l-.02,2.01h-4.71Z"/>
      <path d="M38.41,25.27c3.28,0,5.96,2.65,5.96,5.91,0,1.86-.69,3.64-1.93,5.02l-2.83,3.13c-.44.48-.68,1.09-.68,1.74v1.08h-2.86v-1.08c0-1.35.49-2.64,1.4-3.65l2.82-3.13c.77-.86,1.2-1.96,1.2-3.11,0-1.69-1.38-3.06-3.08-3.06h-1.81c-1.7,0-3.08,1.37-3.08,3.06h-2.88c0-3.26,2.67-5.91,5.96-5.91h1.81M38.41,23.4h-1.81c-4.32,0-7.83,3.49-7.83,7.79v1.88h6.63v-1.88c0-.65.54-1.18,1.2-1.18h1.81c.66,0,1.2.53,1.2,1.18,0,.68-.25,1.34-.72,1.85l-2.82,3.13c-1.22,1.34-1.89,3.08-1.9,4.9v1.1s.03,1.86.03,1.86h6.57l.02-1.86v-1.08c.01-.19.08-.35.21-.5l2.83-3.13c1.56-1.73,2.42-3.95,2.42-6.27,0-4.29-3.51-7.79-7.83-7.79h0Z"/>
    </g>
  </g>
</svg>