<?xml version="1.0" encoding="UTF-8"?>
<svg id="Layer_1" xmlns="http://www.w3.org/2000/svg" version="1.1" viewBox="0 0 36 36">
  <!-- Generator: Adobe Illustrator 30.1.0, SVG Export Plug-In . SVG Version: 2.1.1 Build 136)  -->
  <circle id="Outer" cx="18" cy="18" r="14.21" fill="none" stroke="#000" stroke-width="7.58"/>
  <g>
    <g>
      <rect x="16.84" y="22.24" width="2.31" height="2.31"/>
      <path d="M18.53,22.86v1.07h-1.07v-1.07h1.07M19.77,21.62h-3.55v3.55h3.55v-3.55h0Z"/>
    </g>
    <g>
      <path d="M16.84,20.19v-1.02c0-.67.24-1.3.68-1.79l1.06-1.18c.19-.21.29-.48.29-.76,0-.29-.24-.53-.54-.53h-.68c-.3,0-.54.24-.54.53v.62h-2.32v-.62c0-1.57,1.28-2.84,2.86-2.84h.68c1.58,0,2.86,1.28,2.86,2.84,0,.85-.32,1.67-.89,2.3l-1.06,1.18c-.06.07-.1.15-.1.24v1.02h-2.31Z"/>
      <path d="M18.34,13.22c1.24,0,2.24,1,2.24,2.23,0,.7-.26,1.37-.73,1.89l-1.06,1.18c-.16.18-.26.41-.26.65v.41h-1.08v-.41c0-.51.19-.99.53-1.37l1.06-1.18c.29-.32.45-.74.45-1.17,0-.63-.52-1.15-1.16-1.15h-.68c-.64,0-1.16.52-1.16,1.15h-1.08c0-1.23,1.01-2.23,2.24-2.23h.68M18.34,11.98h-.68c-1.92,0-3.48,1.55-3.48,3.46v1.24h3.14l-.25.28c-.55.6-.85,1.38-.85,2.2v.42s.01,1.23.01,1.23h3.53v-1.22s.02-.31.02-.31l1-1.11c.67-.75,1.05-1.71,1.05-2.72,0-1.91-1.56-3.46-3.48-3.46h0ZM17.74,15.53h.52c-.02.09-.06.18-.12.25l-.39.43v-.69h0Z"/>
    </g>
  </g>
</svg>