<?xml version="1.0" encoding="UTF-8"?>
<svg id="Layer_1" xmlns="http://www.w3.org/2000/svg" version="1.1" viewBox="0 0 36 36">
  <!-- Generator: Adobe Illustrator 30.1.0, SVG Export Plug-In . SVG Version: 2.1.1 Build 136)  -->
  <circle id="Outer" cx="18" cy="18" r="15.16" fill="none" stroke="#000" stroke-width="5.68"/>
  <g>
    <g>
      <rect x="16.86" y="22.98" width="2.27" height="2.27"/>
      <path d="M18.67,23.43v1.37h-1.37v-1.37h1.37M19.57,22.53h-3.17v3.17h3.17v-3.17h0Z"/>
    </g>
    <g>
      <path d="M16.86,20.68v-.96c0-.76.28-1.49.79-2.06l1.36-1.5c.3-.33.46-.75.46-1.19,0-.56-.46-1.02-1.03-1.02h-.87c-.57,0-1.03.46-1.03,1.02v.45h-2.28v-.45c0-1.81,1.48-3.29,3.31-3.29h.87c1.82,0,3.31,1.48,3.31,3.29,0,1-.37,1.96-1.04,2.71l-1.36,1.5c-.14.15-.21.34-.21.53v.97h-2.27Z"/>
      <path d="M18.44,12.13c1.58,0,2.86,1.27,2.86,2.84,0,.89-.33,1.75-.93,2.41l-1.36,1.5c-.21.23-.33.52-.33.83v.52h-1.37v-.52c0-.65.24-1.27.67-1.75l1.36-1.5c.37-.41.58-.94.58-1.49,0-.81-.66-1.47-1.48-1.47h-.87c-.81,0-1.48.66-1.48,1.47h-1.38c0-1.56,1.28-2.84,2.86-2.84h.87M18.44,11.23h-.87c-2.07,0-3.76,1.68-3.76,3.74v.9h3.18v-.9c0-.31.26-.57.58-.57h.87c.32,0,.58.25.58.57,0,.33-.12.64-.34.89l-1.36,1.5c-.58.65-.91,1.48-.91,2.35v.53s.01.89.01.89h3.15v-.89s.01-.52.01-.52c0-.09.03-.17.1-.24l1.36-1.5c.75-.83,1.16-1.9,1.16-3.01,0-2.06-1.69-3.74-3.76-3.74h0Z"/>
    </g>
  </g>
</svg>