<?xml version="1.0" encoding="UTF-8"?>
<svg id="Layer_1" xmlns="http://www.w3.org/2000/svg" version="1.1" viewBox="0 0 36 36">
  <!-- Generator: Adobe Illustrator 30.1.0, SVG Export Plug-In . SVG Version: 2.1.1 Build 136)  -->
  <circle id="Outer" cx="18" cy="18" r="14.52" fill="none" stroke="#000" stroke-width="6.95"/>
  <g>
    <g>
      <rect x="16.84" y="22.49" width="2.29" height="2.29"/>
      <path d="M18.58,23.05v1.17h-1.17v-1.17h1.17M19.7,21.92h-3.42v3.42h3.42v-3.42h0Z"/>
    </g>
    <g>
      <path d="M16.85,20.34v-1c0-.7.25-1.36.71-1.88l1.16-1.28c.22-.25.35-.57.35-.9,0-.38-.31-.69-.7-.69h-.74c-.39,0-.7.31-.7.69v.56h-2.3v-.56c0-1.65,1.35-2.99,3-2.99h.74c1.66,0,3,1.34,3,2.99,0,.9-.33,1.76-.94,2.43l-1.16,1.28c-.09.1-.13.21-.13.34v1h-2.29Z"/>
      <path d="M18.37,12.87c1.35,0,2.44,1.09,2.44,2.42,0,.76-.28,1.49-.79,2.06l-1.16,1.28c-.18.2-.28.44-.28.71v.44h-1.17v-.44c0-.55.2-1.08.57-1.49l1.16-1.28c.32-.35.49-.8.49-1.27,0-.69-.57-1.25-1.26-1.25h-.74c-.7,0-1.26.56-1.26,1.25h-1.18c0-1.34,1.09-2.42,2.44-2.42h.74M18.37,11.74h-.74c-1.97,0-3.56,1.59-3.56,3.55v1.12h3.43v-1.12c0-.07.06-.13.14-.13h.74c.07,0,.14.06.14.13,0,.19-.07.38-.2.52l-1.16,1.28c-.56.62-.87,1.41-.87,2.24v.46s.01,1.12.01,1.12h3.4v-1.11s.02-.44.02-.44l1.15-1.25c.7-.77,1.08-1.77,1.08-2.81,0-1.96-1.6-3.55-3.56-3.55h0Z"/>
    </g>
  </g>
</svg>