<?xml version="1.0" encoding="UTF-8"?>
<svg id="Layer_1" xmlns="http://www.w3.org/2000/svg" version="1.1" viewBox="0 0 36 36">
  <!-- Generator: Adobe Illustrator 30.1.0, SVG Export Plug-In . SVG Version: 2.1.1 Build 136)  -->
  <circle id="Outer" cx="18" cy="18" r="16.44" fill="none" stroke="#000" stroke-width="3.13"/>
  <g>
    <g>
      <rect x="16.86" y="23.94" width="2.25" height="2.25"/>
      <path d="M18.89,24.17v1.8h-1.8v-1.8h1.8M19.34,23.72h-2.7v2.7h2.7v-2.7h0Z"/>
    </g>
    <g>
      <path d="M16.87,21.46v-.9c0-.91.33-1.78.94-2.46l1.79-1.98c.45-.5.7-1.15.7-1.82,0-.94-.77-1.71-1.72-1.71h-1.15c-.95,0-1.72.77-1.72,1.71v.23h-2.27v-.23c0-2.19,1.79-3.96,3.99-3.96h1.15c2.2,0,3.99,1.78,3.99,3.96,0,1.23-.45,2.41-1.28,3.32l-1.79,1.98c-.24.27-.37.6-.37.95v.91h-2.26Z"/>
      <path d="M18.57,10.56c2.08,0,3.77,1.68,3.77,3.74,0,1.17-.43,2.3-1.22,3.17l-1.79,1.98c-.28.31-.43.69-.43,1.1v.68h-1.81v-.68c0-.85.31-1.67.89-2.31l1.79-1.98c.49-.54.76-1.24.76-1.97,0-1.07-.87-1.93-1.95-1.93h-1.15c-1.07,0-1.95.87-1.95,1.93h-1.82c0-2.06,1.69-3.74,3.77-3.74h1.15M18.57,10.11h-1.15c-2.32,0-4.22,1.88-4.22,4.19v.45h2.72v-.45c0-.82.67-1.48,1.5-1.48h1.15c.83,0,1.5.67,1.5,1.48,0,.62-.23,1.21-.64,1.67l-1.79,1.98c-.65.72-1.01,1.64-1.01,2.61v.69s0,.45,0,.45h2.69v-.45s.01-.68.01-.68c0-.3.11-.57.32-.8l1.79-1.98c.86-.96,1.34-2.19,1.34-3.47,0-2.31-1.89-4.19-4.22-4.19h0Z"/>
    </g>
  </g>
</svg>