<?xml version="1.0" encoding="UTF-8"?>
<svg id="Layer_1" xmlns="http://www.w3.org/2000/svg" version="1.1" viewBox="0 0 36 36">
  <!-- Generator: Adobe Illustrator 30.1.0, SVG Export Plug-In . SVG Version: 2.1.1 Build 136)  -->
  <circle id="Outer" cx="18" cy="18" r="15.8" fill="none" stroke="#000" stroke-width="4.4"/>
  <g>
    <g>
      <rect x="16.86" y="23.46" width="2.26" height="2.26"/>
      <path d="M18.78,23.8v1.58h-1.58v-1.58h1.58M19.46,23.13h-2.93v2.93h2.93v-2.93h0Z"/>
    </g>
    <g>
      <path d="M16.87,21.06v-.93c0-.84.3-1.63.86-2.25l1.57-1.74c.37-.41.58-.95.58-1.5,0-.75-.61-1.36-1.37-1.36h-1.01c-.76,0-1.37.61-1.37,1.36v.34h-2.27v-.34c0-2,1.63-3.62,3.64-3.62h1.01c2.01,0,3.64,1.62,3.64,3.62,0,1.11-.41,2.18-1.16,3.01l-1.57,1.74c-.19.21-.29.46-.29.74v.94h-2.26Z"/>
      <path d="M18.5,11.36c1.82,0,3.3,1.47,3.3,3.28,0,1.03-.38,2.02-1.07,2.78l-1.57,1.74c-.24.27-.38.6-.38.96v.6h-1.59v-.6c0-.75.27-1.46.78-2.02l1.57-1.74c.43-.48.67-1.09.67-1.73,0-.93-.77-1.7-1.71-1.7h-1.01c-.94,0-1.71.76-1.71,1.7h-1.6c0-1.81,1.48-3.28,3.3-3.28h1.01M18.5,10.68h-1.01c-2.19,0-3.98,1.77-3.98,3.96v.67h2.95v-.67c0-.56.46-1.02,1.03-1.02h1.01c.57,0,1.03.46,1.03,1.02,0,.47-.17.92-.49,1.27l-1.57,1.74c-.61.68-.95,1.56-.96,2.47v.61s.01.67.01.67h2.92v-.67s.01-.6.01-.6c0-.2.07-.37.2-.52l1.57-1.74c.8-.89,1.25-2.04,1.25-3.24,0-2.18-1.78-3.96-3.98-3.96h0Z"/>
    </g>
  </g>
</svg>