<?xml version="1.0" encoding="UTF-8"?>
<svg id="Layer_1" xmlns="http://www.w3.org/2000/svg" version="1.1" viewBox="0 0 36 36">
  <!-- Generator: Adobe Illustrator 30.1.0, SVG Export Plug-In . SVG Version: 2.1.1 Build 136)  -->
  <circle id="Outer" cx="18" cy="18" r="16.75" fill="none" stroke="#000" stroke-width="2.5"/>
  <g>
    <g>
      <rect x="16.86" y="24.18" width="2.25" height="2.25"/>
      <path d="M18.95,24.35v1.92h-1.92v-1.92h1.92M19.28,24.01h-2.59v2.59h2.59v-2.59h0Z"/>
    </g>
    <g>
      <path d="M16.86,21.67v-.89c0-.95.35-1.86.99-2.56l1.9-2.1c.49-.54.76-1.25.76-1.98,0-1.04-.85-1.89-1.9-1.89h-1.22c-1.05,0-1.9.85-1.9,1.89v.17h-2.27v-.17c0-2.28,1.87-4.14,4.17-4.14h1.22c2.3,0,4.17,1.86,4.17,4.14,0,1.29-.48,2.53-1.34,3.49l-1.9,2.1c-.27.3-.41.66-.41,1.05v.89h-2.26Z"/>
      <path d="M18.61,10.16c2.21,0,4,1.78,4,3.97,0,1.25-.46,2.44-1.3,3.37l-1.9,2.1c-.29.33-.46.73-.46,1.17v.72h-1.92v-.72c0-.91.33-1.77.94-2.45l1.9-2.1c.52-.58.81-1.32.81-2.09,0-1.13-.93-2.05-2.07-2.05h-1.22c-1.14,0-2.07.92-2.07,2.05h-1.93c0-2.19,1.8-3.97,4-3.97h1.22M18.61,9.82h-1.22c-2.39,0-4.34,1.93-4.34,4.31v.34h2.61v-.34c0-.95.78-1.72,1.73-1.72h1.22c.95,0,1.73.77,1.73,1.72,0,.69-.26,1.35-.72,1.86l-1.9,2.1c-.66.73-1.03,1.68-1.04,2.67v.73s0,.33,0,.33h2.59v-.33s.01-.72.01-.72c0-.35.13-.68.37-.94l1.9-2.1c.89-.99,1.39-2.27,1.39-3.6,0-2.38-1.95-4.31-4.34-4.31h0Z"/>
    </g>
  </g>
</svg>