<?xml version="1.0" encoding="UTF-8"?>
<svg id="Layer_1" xmlns="http://www.w3.org/2000/svg" version="1.1" viewBox="0 0 52 52">
  <!-- Generator: Adobe Illustrator 30.1.0, SVG Export Plug-In . SVG Version: 2.1.1 Build 136)  -->
  <path d="M26,4.52c.7,0,1.4.36,1.76,1.09l4.49,8.92c.77,1.53,2.21,2.61,3.89,2.93l9.72,1.82c1.52.28,2.14,2.13,1.09,3.28l-7.08,7.77c-1.09,1.2-1.6,2.82-1.39,4.43l1.38,10.48c.16,1.25-.83,2.24-1.96,2.24-.3,0-.61-.07-.9-.22l-8.5-4.38c-.79-.41-1.65-.61-2.51-.61-.86,0-1.72.2-2.51.61l-8.5,4.38c-.3.15-.6.22-.9.22-1.12,0-2.12-.99-1.96-2.24l1.38-10.48c.21-1.61-.3-3.23-1.39-4.43l-7.08-7.77c-1.04-1.15-.43-2.99,1.09-3.28l9.72-1.82c1.68-.32,3.12-1.4,3.89-2.93l4.5-8.92c.36-.72,1.06-1.09,1.76-1.09M26,0C23.53,0,21.31,1.37,20.2,3.57l-4.5,8.92c-.14.27-.39.46-.69.52l-9.72,1.82c-2.31.43-4.21,2.09-4.96,4.32-.75,2.23-.23,4.7,1.36,6.44l7.08,7.77c.2.21.29.5.25.79l-1.38,10.48c-.24,1.86.32,3.73,1.55,5.13,1.24,1.41,3.02,2.22,4.89,2.22,1.02,0,2.05-.25,2.97-.72l8.5-4.38c.14-.07.29-.11.44-.11.15,0,.31.04.44.11l8.5,4.38c.92.47,1.95.72,2.97.72,1.87,0,3.65-.81,4.89-2.22,1.23-1.4,1.79-3.27,1.55-5.13l-1.38-10.48c-.04-.29.05-.58.25-.8l7.08-7.77c1.59-1.74,2.11-4.21,1.36-6.44-.75-2.23-2.65-3.89-4.96-4.32l-9.72-1.82c-.3-.06-.55-.25-.69-.52l-4.49-8.92C30.69,1.37,28.46,0,26,0h0Z"/>
</svg>