<?xml version="1.0" encoding="UTF-8"?>
<svg id="Layer_1" xmlns="http://www.w3.org/2000/svg" version="1.1" viewBox="0 0 52 52">
  <!-- Generator: Adobe Illustrator 30.1.0, SVG Export Plug-In . SVG Version: 2.1.1 Build 136)  -->
  <path d="M26,10.95c.49,0,.98.25,1.23.76l3.15,6.25c.54,1.07,1.55,1.83,2.73,2.05l6.81,1.28c1.06.2,1.5,1.49.77,2.3l-4.96,5.45c-.77.84-1.12,1.98-.97,3.1l.97,7.34c.12.88-.58,1.57-1.37,1.57-.21,0-.42-.05-.63-.16l-5.96-3.07c-.55-.28-1.16-.43-1.76-.43s-1.21.14-1.76.43l-5.96,3.07c-.21.11-.42.16-.63.16-.79,0-1.49-.69-1.37-1.57l.97-7.34c.15-1.13-.21-2.26-.97-3.1l-4.96-5.45c-.73-.8-.3-2.1.77-2.3l6.81-1.28c1.18-.22,2.18-.98,2.72-2.05l3.15-6.25c.26-.51.74-.76,1.23-.76M26,0C21.31,0,17.09,2.6,14.98,6.79l-1.57,3.11-3.35.63c-4.39.82-8,3.97-9.42,8.21-1.42,4.24-.43,8.93,2.58,12.23l2.74,3.01-.54,4.07c-.46,3.52.61,7.08,2.95,9.74,2.35,2.68,5.73,4.21,9.28,4.21,1.95,0,3.9-.47,5.65-1.37l2.7-1.39,2.7,1.39c1.74.9,3.69,1.37,5.65,1.37,3.55,0,6.93-1.53,9.28-4.21,2.34-2.67,3.42-6.22,2.95-9.74l-.54-4.07,2.74-3.01c3.01-3.3,4-7.99,2.58-12.23-1.42-4.24-5.03-7.38-9.42-8.21l-3.35-.63-1.57-3.11C34.91,2.6,30.69,0,26,0h0Z"/>
</svg>