<?xml version="1.0" encoding="UTF-8"?>
<svg id="Layer_1" xmlns="http://www.w3.org/2000/svg" version="1.1" viewBox="0 0 83 83">
  <!-- Generator: Adobe Illustrator 30.1.0, SVG Export Plug-In . SVG Version: 2.1.1 Build 136)  -->
  <path d="M41.5,13.1c.92,0,1.85.48,2.33,1.44l5.94,11.79c1.02,2.02,2.92,3.46,5.15,3.87l12.85,2.41c2.01.38,2.83,2.82,1.45,4.33l-9.37,10.28c-1.45,1.59-2.12,3.73-1.84,5.86l1.83,13.86c.22,1.65-1.1,2.96-2.59,2.96-.39,0-.8-.09-1.19-.29l-11.24-5.79c-1.04-.54-2.18-.81-3.32-.81s-2.28.27-3.32.81l-11.24,5.79c-.39.2-.8.29-1.19.29-1.49,0-2.8-1.31-2.59-2.96l1.83-13.86c.28-2.13-.39-4.27-1.83-5.85l-9.37-10.28c-1.38-1.51-.56-3.96,1.45-4.34l12.85-2.41c2.22-.42,4.12-1.85,5.14-3.87l5.94-11.8c.48-.96,1.41-1.44,2.33-1.44M41.5,0C35.53,0,30.16,3.31,27.47,8.64l-4.64,9.22-10.01,1.88c-5.59,1.05-10.19,5.05-12,10.45-1.81,5.4-.55,11.37,3.29,15.58l7.54,8.28-1.47,11.18c-.59,4.49.78,9.01,3.75,12.41,2.99,3.41,7.3,5.36,11.82,5.36,2.48,0,4.97-.6,7.19-1.75l8.57-4.41,8.57,4.41c2.22,1.14,4.71,1.75,7.19,1.75,4.52,0,8.83-1.96,11.82-5.36,2.98-3.4,4.35-7.92,3.75-12.41l-1.47-11.18,7.54-8.28c3.84-4.21,5.09-10.18,3.29-15.58-1.81-5.4-6.41-9.4-12-10.45l-10.01-1.88-4.64-9.22C52.84,3.31,47.47,0,41.5,0h0Z"/>
</svg>