<?xml version="1.0" encoding="UTF-8"?>
<svg id="Layer_1" xmlns="http://www.w3.org/2000/svg" version="1.1" viewBox="0 0 83 83">
  <!-- Generator: Adobe Illustrator 30.1.0, SVG Export Plug-In . SVG Version: 2.1.1 Build 136)  -->
  <path d="M41.5,5.76c1.16,0,2.32.6,2.93,1.81l7.48,14.84c1.28,2.55,3.68,4.35,6.48,4.87l16.18,3.03c2.53.47,3.56,3.55,1.82,5.45l-11.79,12.93c-1.82,2-2.66,4.69-2.31,7.37l2.3,17.44c.27,2.08-1.38,3.73-3.25,3.73-.5,0-1.01-.12-1.5-.37l-14.15-7.29c-1.31-.68-2.75-1.01-4.18-1.01-1.43,0-2.87.34-4.18,1.01l-14.15,7.29c-.49.25-1,.37-1.5.37-1.87,0-3.53-1.65-3.25-3.73l2.3-17.44c.35-2.68-.49-5.37-2.31-7.36l-11.79-12.93c-1.74-1.91-.71-4.98,1.82-5.46l16.18-3.03c2.8-.52,5.19-2.33,6.47-4.87l7.48-14.85c.61-1.21,1.77-1.81,2.93-1.81M41.5,0C38.06,0,34.97,1.91,33.43,4.98l-7.48,14.85c-.47.94-1.37,1.61-2.39,1.8l-16.18,3.03c-3.22.6-5.87,2.91-6.91,6.02-1.04,3.11-.32,6.55,1.89,8.98l11.79,12.93c.68.74.99,1.74.86,2.73l-2.3,17.44c-.34,2.59.44,5.19,2.16,7.14,1.73,1.97,4.21,3.1,6.81,3.1,1.42,0,2.86-.35,4.14-1.01l14.15-7.29c.48-.24,1.01-.37,1.54-.37.53,0,1.07.13,1.54.37l14.15,7.29c1.28.66,2.71,1.01,4.14,1.01,2.6,0,5.08-1.13,6.81-3.1,1.71-1.95,2.5-4.56,2.16-7.14l-2.3-17.44c-.13-1,.18-2,.86-2.74l11.79-12.93c2.21-2.42,2.93-5.86,1.89-8.97-1.04-3.11-3.69-5.41-6.91-6.02l-16.18-3.03c-1.03-.19-1.92-.87-2.39-1.8l-7.48-14.84C48.03,1.91,44.93,0,41.5,0h0Z"/>
</svg>