<?xml version="1.0" encoding="UTF-8"?>
<svg id="Layer_1" data-name="Layer 1" xmlns="http://www.w3.org/2000/svg" width="16" height="16" viewBox="0 0 16 16">
  <path d="M8,0C3.589,0,0,3.577,0,8s3.589,8,8,8,8-3.589,8-8S12.423,0,8,0ZM11.554,10.731l.069.091c.149.217.126.526-.069.72-.194.194-.503.217-.72.069l-.091-.069-2.731-2.731-2.743,2.731-.091.069c-.217.149-.526.126-.72-.069-.194-.194-.217-.503-.069-.72l.069-.091,2.743-2.731-2.743-2.743c-.217-.229-.217-.583,0-.811.229-.217.583-.217.811,0l2.743,2.743,2.731-2.743c.229-.217.583-.217.811,0,.217.229.217.583,0,.811l-2.731,2.743,2.731,2.731Z"/>
</svg>