<?xml version="1.0" encoding="UTF-8"?>
<svg id="Layer_1" data-name="Layer 1" xmlns="http://www.w3.org/2000/svg" width="16" height="16" viewBox="0 0 16 16">
  <path d="M3.843.021L.381,1.07c-.224.068-.381.292-.381.548v13.814c0,.376.326.648.657.548l3.462-1.048c.224-.068.38-.293.38-.549V.57c0-.376-.326-.649-.657-.549Z"/>
  <path d="M9.869,1.07L6.408.021c-.331-.1-.658.173-.658.549v13.812c0,.256.156.481.381.549l3.461,1.048c.331.1.658-.172.658-.548V1.618c0-.256-.157-.48-.381-.548Z"/>
  <path d="M15.343.021l-3.462,1.049c-.224.068-.38.292-.38.548v13.814c0,.376.326.648.657.548l3.461-1.048c.225-.068.381-.293.381-.549V.57c0-.376-.327-.649-.657-.549Z"/>
</svg>