<?xml version="1.0" encoding="UTF-8"?>
<svg id="Layer_1" data-name="Layer 1" xmlns="http://www.w3.org/2000/svg" width="16" height="16" viewBox="0 0 16 16">
  <path d="M11.429,3.429c0,1.771-1.349,3.234-3.086,3.406v7.451c0,.023-.011.057-.011.08-.103.514-.206,1.029-.309,1.543-.011.034-.011.057-.023.091,0-.034-.011-.057-.011-.091-.103-.514-.206-1.029-.309-1.543-.011-.023-.011-.057-.023-.08v-7.451c-1.726-.171-3.086-1.634-3.086-3.406,0-1.897,1.543-3.429,3.429-3.429,1.897,0,3.429,1.531,3.429,3.429Z"/>
</svg>