<?xml version="1.0" encoding="UTF-8"?>
<svg id="Layer_1" data-name="Layer 1" xmlns="http://www.w3.org/2000/svg" width="16" height="16" viewBox="0 0 16 16">
  <path d="M8.761,8.52c0-.475.196-.919.527-1.25L14.214,1.262l.027-.033.031-.028c.007-.007.011-.012.012-.015v-.002c-.004-.007-.01-.017-.022-.025-.01-.007-.031-.017-.071-.017H1.805c-.037,0-.056.009-.066.016-.011.007-.019.017-.022.025l-.002.007s.004.007.013.016l.028.026.025.03,4.937,6.007c.333.332.529.778.529,1.252v5.682c0,.194,0,.349.003.488,0,.018.002.036.002.052.026-.018.055-.036.084-.059.197-.153.427-.38.647-.653.46-.571.772-1.21.778-1.664v-3.846ZM9.904,12.382c-.011.844-.522,1.734-1.031,2.366-.264.328-.556.621-.835.838-.139.108-.285.205-.432.278-.138.068-.321.136-.522.136-.223,0-.459-.067-.646-.25-.171-.167-.244-.375-.279-.533-.065-.293-.055-.688-.055-1.015v-5.682c0-.164-.07-.33-.209-.46l-.028-.027-.023-.029L.897,1.987h.001c-.35-.368-.405-.864-.227-1.267C.857.303,1.28,0,1.805,0h12.386c.527,0,.954.303,1.139.724.177.404.118.898-.233,1.261h.001s-4.934,6.02-4.934,6.02l-.023.029-.028.026c-.139.13-.209.296-.209.46v3.862Z"/>
</svg>