<?xml version="1.0" encoding="UTF-8"?>
<svg id="Layer_1" data-name="Layer 1" xmlns="http://www.w3.org/2000/svg" width="16" height="16" viewBox="0 0 16 16">
  <path d="M15.786,6.803c.426-.46.184-1.22-.438-1.335l-4.124-.771c-.242-.046-.449-.196-.564-.426l-1.935-3.822c-.3-.599-1.14-.599-1.44,0l-1.935,3.822c-.115.23-.323.38-.576.426l-4.112.771c-.622.115-.875.875-.449,1.335l2.949,3.235.058.069c.127.173.184.38.15.576l-.576,4.409c-.081.599.507,1.059,1.06.863l.104-.046,3.675-1.888c.23-.115.507-.115.737,0l3.686,1.888c.576.299,1.244-.173,1.163-.817l-.576-4.409c-.035-.23.035-.472.196-.645l2.949-3.235ZM11.984,9.266c-.38.426-.564,1.001-.495,1.577l.495,3.741-3.087-1.588-.219-.092c-.438-.161-.922-.161-1.359,0l-.207.092-3.099,1.588.495-3.741c.081-.576-.104-1.151-.495-1.577l-2.534-2.774,3.513-.656c.599-.115,1.117-.506,1.382-1.047l1.624-3.212,1.624,3.212c.276.541.795.932,1.394,1.047l3.502.656-2.534,2.774Z"/>
</svg>