<?xml version="1.0" encoding="UTF-8"?>
<svg id="Layer_1" data-name="Layer 1" xmlns="http://www.w3.org/2000/svg" width="16" height="16" viewBox="0 0 16 16">
  <path d="M8.761,1.019V.343c0-.195-.183-.343-.401-.343s-.401.149-.401.343v.675c-.229.057-.424.229-.447.481l-.046.034c-.046.046-.092.092-.137.137-.275.298-.55.779-.55,1.511v4.007c0,.092.08.172.172.172.103,0,.172-.08.172-.172v-3.526c.011-.103.034-.275.126-.401.057-.08.137-.16.252-.183v11.449l.011.103c.057.263.298.618.607.756h.023l.092.492c.034.16.229.16.252,0l.092-.492h.034c.309-.137.55-.492.595-.756l.011-.103V1.58c0-.286-.195-.504-.458-.561ZM7.147,2.874c.057-.389.206-.675.355-.87v.71c-.137.034-.252.08-.355.16ZM8.876,14.529c0,.034-.023.149-.114.275-.069.114-.149.195-.24.24h-.321c-.08-.046-.16-.126-.24-.24-.08-.126-.115-.24-.115-.275v-6.331h1.03v6.331ZM8.876,7.854h-1.03v-.298h1.03v.298ZM8.876,7.213h-1.03V1.58c0-.126.103-.229.229-.229h.572c.126,0,.229.103.229.229v5.633Z"/>
</svg>