<?xml version="1.0" encoding="UTF-8"?>
<svg id="Layer_1" data-name="Layer 1" xmlns="http://www.w3.org/2000/svg" width="16" height="16" viewBox="0 0 16 16">
  <path d="M15.952,15.718l-.412-.561.034-.034c.069-.195.08-.423.046-.652-.011-.08-.034-.16-.057-.24-.011-.069-.046-.137-.069-.195-.057-.137-.126-.24-.206-.32L3.915,2.35c.16-.092.321-.092.481-.057.218.057.424.195.538.309l3.482,3.479c.069.069.183.069.252,0s.069-.172,0-.24l-3.963-3.96c-.71-.71-1.409-.916-1.936-.961-.115-.011-.206-.023-.309-.023h-.011l-.126-.137c-.218-.229-.584-.229-.802,0l-.011.011L.868.129C.685-.054.364-.042.158.164c-.195.195-.218.515-.023.698l.641.641-.023.023c-.229.229-.229.584,0,.813l4.799,4.796,1.26,1.27,6.895,6.89c.046.046.115.092.183.126.069.046.149.08.241.114.057.023.115.034.183.057.046.011.103.023.149.023.229.034.458.034.664-.046l.023-.023.573.412c.183.126.367-.057.229-.24ZM7.362,8.462l-.298-.298,1.088-1.099.298.298-1.088,1.099Z"/>
</svg>