<?xml version="1.0" encoding="UTF-8"?>
<svg id="Layer_1" data-name="Layer 1" xmlns="http://www.w3.org/2000/svg" width="16" height="16" viewBox="0 0 16 16">
  <path d="M15.429,7.429H.571c-.315,0-.571.256-.571.571s.256.571.571.571h14.857c.315,0,.571-.256.571-.571s-.256-.571-.571-.571Z"/>
  <path d="M.571,4h14.857c.315,0,.571-.256.571-.571s-.256-.571-.571-.571H.571c-.315,0-.571.256-.571.571s.256.571.571.571Z"/>
  <path d="M15.429,12H.571c-.315,0-.571.256-.571.571s.256.571.571.571h14.857c.315,0,.571-.256.571-.571s-.256-.571-.571-.571Z"/>
</svg>