<?xml version="1.0" encoding="UTF-8"?>
<svg id="Layer_1" data-name="Layer 1" xmlns="http://www.w3.org/2000/svg" width="16" height="16" viewBox="0 0 16 16">
  <path d="M15.716,14.336l-3.339-3.339c-.223-.223-.545-.323-.835-.256l-1.658-1.658c.779-.957,1.247-2.182,1.247-3.517,0-3.083-2.493-5.565-5.565-5.565S0,2.482,0,5.565s2.493,5.565,5.565,5.565c1.336,0,2.56-.467,3.517-1.269l1.647,1.647c-.056.301.033.623.267.868l3.339,3.339c.39.378,1.002.378,1.38,0,.378-.39.378-1.002,0-1.38ZM5.565,10.017c-2.46,0-4.452-1.992-4.452-4.452S3.105,1.113,5.565,1.113s4.452,1.992,4.452,4.452-1.992,4.452-4.452,4.452Z"/>
</svg>