<?xml version="1.0" encoding="UTF-8"?>
<svg id="Layer_1" data-name="Layer 1" xmlns="http://www.w3.org/2000/svg" width="16" height="16" viewBox="0 0 16 16">
  <path d="M12.837,10.039c-.161.173-.23.414-.196.644l.576,4.408c.081.644-.588,1.116-1.163.817l-3.686-1.887c-.23-.115-.507-.115-.737,0l-3.675,1.887c-.576.299-1.256-.173-1.163-.817l.576-4.408c.035-.23-.046-.472-.196-.644L.211,6.805c-.426-.46-.173-1.22.449-1.335l4.112-.771c.253-.046.461-.196.576-.426L7.284.44c.3-.587,1.14-.587,1.44,0l1.935,3.832c.115.23.323.38.564.426l4.124.771c.622.115.864.875.438,1.335l-2.949,3.234Z"/>
</svg>