<?xml version="1.0" encoding="UTF-8"?>
<svg id="Layer_1" data-name="Layer 1" xmlns="http://www.w3.org/2000/svg" width="16" height="16" viewBox="0 0 16 16">
  <path d="M15.429,7.429H4.469c-.229-.663-.869-1.143-1.611-1.143s-1.383.48-1.611,1.143h-.674c-.309,0-.571.251-.571.571,0,.309.263.571.571.571h.674c.24.663.88,1.143,1.611,1.143.743,0,1.383-.48,1.611-1.143h10.96c.32,0,.571-.263.571-.571,0-.32-.251-.571-.571-.571Z"/>
  <path d="M15.429,12h-5.817c-.229-.663-.869-1.143-1.611-1.143s-1.383.48-1.611,1.143H.571c-.309,0-.571.251-.571.571,0,.309.263.571.571.571h5.817c.24.663.88,1.143,1.611,1.143.743,0,1.383-.48,1.611-1.143h5.817c.32,0,.571-.263.571-.571,0-.32-.251-.571-.571-.571Z"/>
  <path d="M.571,4h10.96c.24.663.88,1.143,1.611,1.143.743,0,1.383-.48,1.611-1.143h.674c.32,0,.571-.263.571-.571,0-.32-.251-.571-.571-.571h-.674c-.229-.663-.869-1.143-1.611-1.143s-1.383.48-1.611,1.143H.571c-.309,0-.571.251-.571.571,0,.309.263.571.571.571Z"/>
</svg>