<?xml version="1.0" encoding="UTF-8"?>
<svg id="Layer_1" data-name="Layer 1" xmlns="http://www.w3.org/2000/svg" width="16" height="16" viewBox="0 0 16 16">
  <path d="M10.909,15.03c0,.533-.424.97-.97.97h-3.879c-.533,0-.97-.436-.97-.97,0-.545.436-.97.97-.97h.679c.17,0,.291-.133.291-.291v-7.176c0-.17-.121-.291-.291-.291h-.679c-.533,0-.97-.436-.97-.97,0-.545.436-.97.97-.97h1.939c.545,0,.97.424.97.97v8.436c0,.158.133.291.291.291h.679c.545,0,.97.424.97.97Z"/>
  <path d="M9.455,1.455c0,.8-.642,1.455-1.455,1.455-.8,0-1.455-.655-1.455-1.455,0-.812.655-1.455,1.455-1.455.812,0,1.455.642,1.455,1.455Z"/>
</svg>