<?xml version="1.0" encoding="UTF-8"?>
<svg id="Layer_1" data-name="Layer 1" xmlns="http://www.w3.org/2000/svg" width="16" height="16" viewBox="0 0 16 16">
  <path d="M15.837.163c-.194-.206-.514-.217-.697-.034l-.685.674-.011-.011-.091-.069c-.217-.148-.525-.126-.72.069l-.137.148h-.011l-.069-.011c-.057,0-.126.011-.217.023-.525.046-1.233.251-1.93.959l-3.952,3.952c-.069.069-.069.171,0,.24s.171.069.24,0l3.483-3.472c.114-.126.297-.263.503-.308.148-.034.308-.034.48.08l-4.443,4.443-.286.297-.697.697L.704,13.72l-.091.114c-.194.286-.32.799-.217,1.199l.034.091.023.023-.411.571c-.126.183.057.365.24.24l.571-.411.023.023c.411.16.982.023,1.291-.183l.114-.091L15.209,2.368c.194-.194.217-.503.08-.72l-.08-.091-.011-.011.674-.685c.183-.183.171-.503-.034-.697ZM11.714,1.956c.514-.434,1.016-.605,1.405-.651l-.845.845c-.183-.137-.365-.194-.56-.194ZM7.933,9.163l-5.893,5.882c-.069.069-.228.16-.457.217-.194.046-.377.046-.525,0l-.32-.32c-.046-.148-.046-.331,0-.525.057-.228.148-.388.217-.457l5.882-5.882.457-.457,1.085,1.096-.445.445ZM8.619,8.478l-1.085-1.096.286-.297,1.096,1.096-.297.297ZM14.969,2.128l-5.025,5.025-.788.777-1.085-1.085.777-.788.24-.24,3.198-3.187.126-.126,1.176-1.188.286-.286c.091-.091.24-.091.331,0l.765.765c.091.091.091.24,0,.331Z"/>
</svg>