<?xml version="1.0" encoding="UTF-8"?>
<svg id="Layer_1" data-name="Layer 1" xmlns="http://www.w3.org/2000/svg" width="16" height="16" viewBox="0 0 16 16">
  <path d="M8,0C3.582,0,0,3.582,0,8s3.582,8,8,8,8-3.582,8-8S12.418,0,8,0ZM8,15.086c-3.913,0-7.086-3.173-7.086-7.086S4.087.914,8,.914s7.086,3.173,7.086,7.086-3.173,7.086-7.086,7.086Z"/>
  <path d="M11.702,3.807c-.277-.151-.623-.049-.775.228l-3.109,5.699c-.167.305-.566.392-.843.184l-2.061-1.54c-.253-.189-.611-.138-.8.115-.19.253-.138.611.114.8l2.062,1.54c.835.625,2.031.365,2.531-.551l3.107-5.7c.152-.277.05-.623-.227-.775Z"/>
</svg>