<?xml version="1.0" encoding="UTF-8"?>
<svg id="Layer_1" data-name="Layer 1" xmlns="http://www.w3.org/2000/svg" width="16" height="16" viewBox="0 0 16 16">
  <path d="M8,0c-.315,0-.571.256-.571.571v14.857c0,.315.256.571.571.571s.571-.256.571-.571V.571c0-.316-.256-.571-.571-.571Z"/>
  <path d="M12.571,0c-.315,0-.571.256-.571.571v14.857c0,.315.256.571.571.571s.571-.256.571-.571V.571c0-.316-.256-.571-.571-.571Z"/>
  <path d="M3.429,0c-.315,0-.571.256-.571.571v14.857c0,.315.256.571.571.571s.571-.256.571-.571V.571c0-.316-.256-.571-.571-.571Z"/>
</svg>