<?xml version="1.0" encoding="UTF-8"?>
<svg id="Layer_1" data-name="Layer 1" xmlns="http://www.w3.org/2000/svg" width="16" height="16" viewBox="0 0 16 16">
  <path d="M15.429,6.754l-1.931-.32c-.126-.434-.297-.834-.503-1.223l1.131-1.589c.206-.274.171-.651-.069-.891l-.789-.789c-.24-.24-.617-.274-.891-.08l-1.6,1.143c-.377-.217-.789-.377-1.211-.503l-.32-1.931c-.057-.331-.343-.571-.674-.571h-1.131c-.331,0-.617.24-.674.571l-.32,1.931c-.434.114-.846.286-1.223.503l-1.6-1.143c-.263-.194-.64-.16-.88.08l-.789.789c-.24.24-.274.617-.08.891l1.131,1.589c-.206.389-.377.789-.503,1.223l-1.931.32c-.32.057-.571.343-.571.674v1.131c0,.331.251.617.571.674l1.931.32c.114.434.286.846.503,1.223l-1.131,1.589c-.194.274-.16.651.08.891l.789.789c.24.24.617.274.88.08l1.6-1.131c.377.217.777.389,1.211.491h.011l.32,1.931c.057.331.343.583.674.583h1.131c.331,0,.617-.251.674-.583l.32-1.931c.434-.114.846-.286,1.223-.491l1.589,1.131c.274.194.651.16.891-.08l.789-.789c.24-.24.274-.617.069-.891l-1.131-1.589c.217-.377.389-.789.503-1.223l1.931-.32c.331-.057.571-.343.571-.674v-1.131c0-.331-.24-.617-.571-.674ZM10.286,10.286c-.629.629-1.451.949-2.286.949-.823,0-1.646-.32-2.286-.949-1.257-1.269-1.257-3.314,0-4.571.64-.629,1.463-.949,2.286-.949.834,0,1.657.32,2.286.949.64.629.949,1.451.949,2.286,0,.823-.309,1.657-.949,2.286Z"/>
</svg>