<?xml version="1.0" encoding="UTF-8"?>
<svg id="Layer_1" data-name="Layer 1" xmlns="http://www.w3.org/2000/svg" width="16" height="16" viewBox="0 0 16 16">
  <path d="M9.143,11.429h-.4c-.091,0-.171-.08-.171-.171v-4.971c0-.32-.251-.571-.571-.571h-1.143c-.309,0-.571.251-.571.571,0,.309.263.571.571.571h.4c.103,0,.171.069.171.171v4.229c0,.091-.069.171-.171.171h-.4c-.309,0-.571.251-.571.571,0,.309.263.571.571.571h2.286c.32,0,.571-.263.571-.571,0-.32-.251-.571-.571-.571Z"/>
  <circle cx="8" cy="4" r=".857"/>
  <path d="M8,0C3.589,0,0,3.577,0,8s3.589,8,8,8,8-3.589,8-8S12.423,0,8,0ZM8,15.086c-3.909,0-7.086-3.177-7.086-7.086S4.091.914,8,.914s7.086,3.166,7.086,7.086-3.166,7.086-7.086,7.086Z"/>
</svg>