<?xml version="1.0" encoding="UTF-8"?>
<svg id="Layer_1" data-name="Layer 1" xmlns="http://www.w3.org/2000/svg" width="16" height="16" viewBox="0 0 16 16">
  <path d="M15.028,9.524c-.11,1.316-.588,2.591-1.395,3.658l-.169.229c-.897,1.096-2.113,1.904-3.488,2.302l-.269.08c-1.286.319-2.641.269-3.907-.15l-.269-.1c-1.425-.528-2.631-1.515-3.458-2.791-.767-1.206-1.146-2.611-1.096-4.036l.01-.279c.11-1.425.638-2.781,1.535-3.887l.179-.219c.937-1.076,2.173-1.844,3.558-2.193l.269-.07c1.056-.229,2.143-.199,3.179.06l-1.276-1.276c-.199-.199-.199-.508,0-.708.189-.189.508-.199.698,0l1.415,1.405c.578.588.578,1.535,0,2.123l-1.415,1.405c-.189.189-.508.199-.698,0-.199-.199-.199-.508,0-.708l1.136-1.136c-.907-.249-1.874-.279-2.801-.08l-.239.05c-1.156.299-2.203.947-2.99,1.854l-.159.179c-.747.937-1.196,2.083-1.286,3.279-.1,1.276.229,2.551.917,3.638.688,1.076,1.714,1.904,2.91,2.352,1.126.429,2.352.498,3.518.209l.229-.06c1.236-.359,2.312-1.116,3.09-2.133.658-.877,1.056-1.924,1.156-3.01.03-.299.279-.548.588-.548.299,0,.548.249.528.558Z"/>
</svg>