<?xml version="1.0" encoding="UTF-8"?>
<svg id="Layer_1" xmlns="http://www.w3.org/2000/svg" version="1.1" viewBox="0 0 116 116">
  <!-- Generator: Adobe Illustrator 30.1.0, SVG Export Plug-In . SVG Version: 2.1.1 Build 136)  -->
  <path d="M58,10.08c1.56,0,3.12.81,3.93,2.42l10.03,19.9c1.72,3.42,4.93,5.83,8.68,6.53l21.69,4.07c3.39.64,4.77,4.76,2.44,7.31l-15.8,17.34c-2.44,2.68-3.57,6.29-3.1,9.89l3.08,23.38c.37,2.79-1.86,5-4.36,5-.67,0-1.35-.16-2.01-.5l-18.97-9.77c-1.76-.91-3.68-1.36-5.6-1.36-1.92,0-3.85.45-5.6,1.36l-18.97,9.77c-.66.34-1.35.5-2.01.5-2.51,0-4.73-2.21-4.36-5l3.08-23.39c.47-3.59-.66-7.2-3.09-9.87l-15.8-17.34c-2.33-2.55-.95-6.68,2.44-7.32l21.69-4.07c3.75-.7,6.96-3.12,8.68-6.53l10.03-19.9c.81-1.62,2.37-2.42,3.93-2.42M58,0C52.5,0,47.54,3.05,45.07,7.97l-10.03,19.9c-.3.6-.88,1.04-1.53,1.16l-21.69,4.07c-5.16.97-9.4,4.66-11.06,9.64-1.67,4.98-.51,10.49,3.03,14.37l15.8,17.34c.44.48.64,1.12.55,1.77l-3.08,23.39c-.55,4.14.71,8.31,3.46,11.44,2.76,3.15,6.73,4.96,10.9,4.96,2.28,0,4.58-.56,6.63-1.61l18.97-9.77c.31-.16.64-.24.99-.24.34,0,.69.08.99.24l18.97,9.77c2.05,1.06,4.34,1.61,6.63,1.61,4.17,0,8.14-1.81,10.9-4.96,2.74-3.13,4-7.3,3.46-11.44l-3.08-23.38c-.09-.65.12-1.3.56-1.78l15.8-17.34c3.54-3.88,4.7-9.39,3.03-14.37-1.67-4.98-5.91-8.67-11.06-9.64l-21.69-4.07c-.66-.12-1.23-.56-1.54-1.16l-10.03-19.9C68.45,3.05,63.5,0,58,0h0Z"/>
</svg>