<?xml version="1.0" encoding="UTF-8"?>
<svg id="Layer_1" xmlns="http://www.w3.org/2000/svg" version="1.1" viewBox="0 0 116 116">
  <!-- Generator: Adobe Illustrator 30.1.0, SVG Export Plug-In . SVG Version: 2.1.1 Build 136)  -->
  <path d="M58,14.17c1.42,0,2.85.74,3.59,2.22l9.17,18.2c1.57,3.12,4.51,5.33,7.94,5.98l19.84,3.72c3.1.58,4.36,4.35,2.23,6.69l-14.45,15.86c-2.23,2.45-3.27,5.76-2.83,9.04l2.82,21.38c.34,2.55-1.7,4.57-3.99,4.57-.61,0-1.23-.14-1.84-.45l-17.35-8.94c-1.61-.83-3.37-1.24-5.12-1.24-1.76,0-3.52.41-5.12,1.24l-17.35,8.94c-.61.31-1.23.45-1.84.45-2.29,0-4.33-2.02-3.99-4.57l2.82-21.39c.43-3.28-.6-6.59-2.83-9.03l-14.45-15.86c-2.13-2.34-.87-6.11,2.23-6.69l19.83-3.72c3.43-.64,6.36-2.85,7.94-5.97l9.17-18.2c.74-1.48,2.17-2.22,3.59-2.22M58,0C51.09,0,44.86,3.84,41.75,10.01l-8.51,16.89-18.38,3.45c-6.48,1.21-11.81,5.86-13.91,12.11-2.1,6.26-.64,13.18,3.81,18.06l13.53,14.85-2.64,20.03c-.69,5.2.9,10.44,4.35,14.38,3.47,3.95,8.46,6.22,13.69,6.22,2.87,0,5.75-.7,8.33-2.03l15.99-8.23,15.99,8.23c2.57,1.33,5.45,2.03,8.33,2.03,5.24,0,10.23-2.27,13.69-6.22,3.45-3.93,5.03-9.17,4.35-14.38l-2.64-20.03,13.53-14.85c4.44-4.88,5.9-11.8,3.81-18.05-2.1-6.25-7.42-10.9-13.9-12.11l-18.39-3.45-8.51-16.89C71.14,3.84,64.91,0,58,0h0Z"/>
</svg>