<?xml version="1.0" encoding="UTF-8"?>
<svg id="Layer_1" xmlns="http://www.w3.org/2000/svg" version="1.1" viewBox="0 0 116 116">
  <!-- Generator: Adobe Illustrator 30.1.0, SVG Export Plug-In . SVG Version: 2.1.1 Build 136)  -->
  <path d="M58,24.43c1.09,0,2.18.57,2.75,1.7l7.02,13.94c1.21,2.39,3.45,4.08,6.08,4.58l15.19,2.85c2.38.45,3.34,3.33,1.71,5.12l-11.07,12.15c-1.71,1.87-2.5,4.41-2.17,6.93l2.16,16.38c.26,1.95-1.3,3.5-3.06,3.5-.47,0-.95-.11-1.41-.35l-13.29-6.84c-1.23-.63-2.58-.95-3.93-.95-1.35,0-2.69.32-3.93.95l-13.29,6.84c-.46.24-.94.35-1.41.35-1.76,0-3.31-1.55-3.06-3.5l2.16-16.38c.33-2.51-.46-5.05-2.17-6.92l-11.07-12.15c-1.63-1.79-.67-4.68,1.71-5.12l15.19-2.85c2.63-.49,4.87-2.18,6.08-4.57l7.02-13.94c.57-1.13,1.66-1.7,2.75-1.7M58,0c-10.45,0-19.87,5.8-24.57,15.14l-3.5,6.94-7.48,1.4c-9.8,1.84-17.86,8.85-21.02,18.31-3.17,9.46-.96,19.91,5.76,27.29l6.11,6.71-1.2,9.09c-1.04,7.86,1.36,15.78,6.58,21.74,5.23,5.97,12.78,9.39,20.7,9.39,4.35,0,8.71-1.06,12.6-3.06l6.03-3.1,6.03,3.1c3.89,2,8.24,3.06,12.6,3.06,7.92,0,15.46-3.42,20.7-9.39,5.22-5.95,7.62-13.88,6.58-21.74l-1.2-9.09,6.11-6.71c6.72-7.37,8.92-17.83,5.75-27.28-3.17-9.46-11.22-16.47-21.02-18.31l-7.48-1.4-3.5-6.94C77.87,5.8,68.45,0,58,0h0Z"/>
</svg>