<?xml version="1.0" encoding="UTF-8"?>
<svg id="Layer_1" xmlns="http://www.w3.org/2000/svg" version="1.1" viewBox="0 0 116 116">
  <!-- Generator: Adobe Illustrator 30.1.0, SVG Export Plug-In . SVG Version: 2.1.1 Build 136)  -->
  <path d="M58,18.31c1.29,0,2.58.67,3.26,2.01l8.3,16.48c1.42,2.83,4.08,4.83,7.19,5.41l17.97,3.37c2.81.53,3.95,3.94,2.02,6.06l-13.09,14.36c-2.02,2.22-2.96,5.21-2.57,8.19l2.55,19.37c.3,2.31-1.54,4.14-3.61,4.14-.55,0-1.12-.13-1.67-.41l-15.71-8.09c-1.46-.75-3.05-1.13-4.64-1.13-1.59,0-3.18.38-4.64,1.13l-15.71,8.09c-.55.28-1.12.41-1.67.41-2.08,0-3.92-1.83-3.61-4.14l2.56-19.37c.39-2.97-.55-5.97-2.56-8.18l-13.09-14.36c-1.93-2.12-.79-5.53,2.02-6.06l17.96-3.37c3.11-.58,5.76-2.58,7.19-5.41l8.31-16.49c.67-1.34,1.96-2.01,3.26-2.01M58,0C49.66,0,42.15,4.63,38.39,12.08l-6.49,12.88-13.99,2.62c-7.82,1.47-14.25,7.06-16.77,14.61-2.53,7.55-.77,15.89,4.59,21.77l10.54,11.57-2.06,15.63c-.83,6.27,1.09,12.6,5.25,17.34,4.18,4.76,10.2,7.5,16.52,7.5,3.47,0,6.95-.84,10.05-2.44l11.97-6.17,11.97,6.17c3.1,1.6,6.58,2.44,10.05,2.44,6.32,0,12.34-2.73,16.52-7.5,4.16-4.75,6.07-11.07,5.25-17.34l-2.06-15.63,10.54-11.57c5.36-5.88,7.12-14.22,4.59-21.77-2.53-7.54-8.95-13.14-16.77-14.61l-13.99-2.62-6.49-12.88C73.85,4.63,66.34,0,58,0h0Z"/>
</svg>