<?xml version="1.0" encoding="UTF-8"?>
<svg id="Layer_1" xmlns="http://www.w3.org/2000/svg" version="1.1" viewBox="0 0 42 42">
  <!-- Generator: Adobe Illustrator 30.1.0, SVG Export Plug-In . SVG Version: 2.1.1 Build 136)  -->
  <path d="M21,5.13c.52,0,1.03.27,1.3.8l3.32,6.59c.57,1.13,1.63,1.93,2.87,2.16l7.18,1.35c1.12.21,1.58,1.58.81,2.42l-5.23,5.74c-.81.89-1.18,2.08-1.03,3.27l1.02,7.74c.12.92-.61,1.66-1.44,1.66-.22,0-.45-.05-.67-.16l-6.28-3.24c-.58-.3-1.22-.45-1.86-.45-.64,0-1.27.15-1.86.45l-6.28,3.24c-.22.11-.45.16-.67.16-.83,0-1.57-.73-1.44-1.66l1.02-7.74c.16-1.19-.22-2.38-1.02-3.27l-5.23-5.74c-.77-.85-.32-2.21.81-2.42l7.18-1.35c1.24-.23,2.3-1.03,2.87-2.16l3.32-6.59c.27-.54.79-.8,1.3-.8M21,0C18.5,0,16.24,1.39,15.11,3.63l-3.08,6.12-6.66,1.25c-2.35.44-4.28,2.12-5.03,4.39-.76,2.27-.23,4.77,1.38,6.54l4.9,5.38-.96,7.25c-.25,1.88.33,3.78,1.57,5.21,1.26,1.43,3.06,2.25,4.96,2.25,1.04,0,2.08-.25,3.02-.73l5.79-2.98,5.79,2.98c.93.48,1.97.73,3.02.73,1.9,0,3.7-.82,4.96-2.25,1.25-1.42,1.82-3.32,1.57-5.21l-.96-7.25,4.9-5.38c1.61-1.77,2.14-4.27,1.38-6.54-.76-2.26-2.69-3.94-5.03-4.38l-6.66-1.25-3.08-6.12C25.76,1.39,23.5,0,21,0h0Z"/>
</svg>