<?xml version="1.0" encoding="UTF-8"?>
<svg id="Layer_1" xmlns="http://www.w3.org/2000/svg" version="1.1" viewBox="0 0 42 42">
  <!-- Generator: Adobe Illustrator 30.1.0, SVG Export Plug-In . SVG Version: 2.1.1 Build 136)  -->
  <path d="M21,6.63c.47,0,.93.24,1.18.73l3.01,5.97c.52,1.02,1.48,1.75,2.6,1.96l6.5,1.22c1.02.19,1.43,1.43.73,2.19l-4.74,5.2c-.73.8-1.07,1.89-.93,2.97l.92,7.01c.11.84-.56,1.5-1.31,1.5-.2,0-.4-.05-.6-.15l-5.69-2.93c-.53-.27-1.1-.41-1.68-.41s-1.15.14-1.68.41l-5.69,2.93c-.2.1-.4.15-.6.15-.75,0-1.42-.66-1.31-1.5l.93-7.01c.14-1.08-.2-2.16-.93-2.96l-4.74-5.2c-.7-.77-.29-2,.73-2.19l6.5-1.22c1.12-.21,2.09-.93,2.6-1.96l3.01-5.97c.24-.48.71-.73,1.18-.73M21,0C17.98,0,15.26,1.68,13.9,4.37l-2.35,4.66-5.07.95c-2.83.53-5.16,2.56-6.07,5.29-.92,2.73-.28,5.75,1.66,7.88l3.82,4.19-.75,5.66c-.3,2.27.39,4.56,1.9,6.28,1.51,1.73,3.69,2.71,5.98,2.71,1.26,0,2.51-.31,3.64-.88l4.34-2.23,4.34,2.23c1.12.58,2.38.88,3.64.88,2.29,0,4.47-.99,5.98-2.71,1.51-1.72,2.2-4.01,1.9-6.28l-.75-5.66,3.82-4.19c1.94-2.13,2.58-5.15,1.66-7.88-.92-2.73-3.24-4.76-6.07-5.29l-5.07-.95-2.35-4.66C26.74,1.68,24.02,0,21,0h0Z"/>
</svg>