<?xml version="1.0" encoding="UTF-8"?>
<svg id="Layer_1" xmlns="http://www.w3.org/2000/svg" version="1.1" viewBox="0 0 42 42">
  <!-- Generator: Adobe Illustrator 30.1.0, SVG Export Plug-In . SVG Version: 2.1.1 Build 136)  -->
  <path d="M21,8.85c.4,0,.79.2,1,.61l2.54,5.05c.44.87,1.25,1.48,2.2,1.66l5.5,1.03c.86.16,1.21,1.21.62,1.85l-4.01,4.4c-.62.68-.91,1.6-.79,2.51l.78,5.93c.09.71-.47,1.27-1.11,1.27-.17,0-.34-.04-.51-.13l-4.81-2.48c-.45-.23-.93-.34-1.42-.34s-.98.11-1.42.34l-4.81,2.48c-.17.09-.34.13-.51.13-.64,0-1.2-.56-1.11-1.27l.78-5.93c.12-.91-.17-1.83-.78-2.5l-4.01-4.4c-.59-.65-.24-1.69.62-1.86l5.5-1.03c.95-.18,1.76-.79,2.2-1.66l2.54-5.05c.21-.41.6-.61,1-.61M21,0C17.21,0,13.81,2.1,12.1,5.48l-1.27,2.51-2.71.51c-3.55.67-6.46,3.21-7.61,6.63-1.15,3.42-.35,7.21,2.08,9.88l2.21,2.43-.43,3.29c-.38,2.85.49,5.72,2.38,7.87,1.89,2.16,4.63,3.4,7.49,3.4,1.58,0,3.15-.38,4.56-1.11l2.18-1.12,2.18,1.12c1.41.72,2.98,1.11,4.56,1.11,2.87,0,5.6-1.24,7.49-3.4,1.89-2.16,2.76-5.02,2.38-7.87l-.43-3.29,2.21-2.43c2.43-2.67,3.23-6.45,2.08-9.88-1.15-3.42-4.06-5.96-7.61-6.63l-2.71-.51-1.27-2.51C28.19,2.1,24.78,0,21,0h0Z"/>
</svg>