<?xml version="1.0" encoding="UTF-8"?>
<svg id="Layer_1" xmlns="http://www.w3.org/2000/svg" version="1.1" viewBox="0 0 75 75">
  <!-- Generator: Adobe Illustrator 30.1.0, SVG Export Plug-In . SVG Version: 2.1.1 Build 136)  -->
  <path d="M37.5,14.48c.75,0,1.5.39,1.89,1.16l4.82,9.56c.83,1.64,2.37,2.8,4.17,3.14l10.42,1.95c1.63.31,2.29,2.28,1.17,3.51l-7.59,8.33c-1.17,1.28-1.72,3.02-1.49,4.75l1.48,11.23c.18,1.34-.89,2.4-2.1,2.4-.32,0-.65-.07-.97-.24l-9.11-4.69c-.84-.43-1.77-.65-2.69-.65-.92,0-1.85.22-2.69.65l-9.11,4.69c-.32.16-.65.24-.97.24-1.2,0-2.27-1.06-2.1-2.4l1.48-11.23c.23-1.72-.32-3.46-1.49-4.74l-7.59-8.33c-1.12-1.23-.46-3.21,1.17-3.51l10.42-1.95c1.8-.34,3.34-1.5,4.17-3.14l4.82-9.56c.39-.78,1.14-1.16,1.89-1.16M37.5,0C31.19,0,25.51,3.5,22.68,9.13l-2.9,5.76-6.23,1.17c-5.91,1.11-10.77,5.34-12.68,11.04-1.91,5.71-.58,12.01,3.47,16.46l4.9,5.38-.96,7.28c-.63,4.74.82,9.52,3.97,13.11,3.16,3.6,7.71,5.67,12.49,5.67,2.63,0,5.25-.64,7.6-1.85l5.17-2.66,5.17,2.66c2.34,1.21,4.97,1.85,7.6,1.85,4.78,0,9.33-2.07,12.49-5.67,3.15-3.59,4.59-8.37,3.97-13.11l-.96-7.28,4.9-5.38c4.05-4.45,5.38-10.75,3.47-16.46-1.91-5.7-6.77-9.94-12.68-11.04l-6.23-1.17-2.9-5.76C49.48,3.5,43.8,0,37.5,0h0Z"/>
</svg>