<?xml version="1.0" encoding="UTF-8"?>
<svg id="Layer_1" xmlns="http://www.w3.org/2000/svg" version="1.1" viewBox="0 0 75 75">
  <!-- Generator: Adobe Illustrator 30.1.0, SVG Export Plug-In . SVG Version: 2.1.1 Build 136)  -->
  <path d="M37.5,15.8c.71,0,1.41.37,1.78,1.1l4.54,9.01c.78,1.55,2.23,2.64,3.93,2.96l9.82,1.84c1.54.29,2.16,2.15,1.11,3.31l-7.16,7.85c-1.1,1.21-1.62,2.85-1.4,4.48l1.4,10.59c.17,1.26-.84,2.26-1.98,2.26-.3,0-.61-.07-.91-.22l-8.59-4.42c-.8-.41-1.67-.62-2.54-.62s-1.74.21-2.54.62l-8.59,4.42c-.3.15-.61.22-.91.22-1.14,0-2.14-1-1.98-2.26l1.4-10.59c.21-1.62-.3-3.26-1.4-4.47l-7.16-7.85c-1.05-1.16-.43-3.02,1.11-3.31l9.82-1.84c1.7-.32,3.15-1.41,3.93-2.96l4.54-9.01c.37-.73,1.07-1.1,1.78-1.1M37.5,0c-6.76,0-12.85,3.75-15.89,9.79l-2.26,4.49-4.83.91c-6.34,1.19-11.54,5.72-13.59,11.84-2.05,6.12-.62,12.88,3.72,17.64l3.95,4.34-.78,5.88c-.67,5.08.88,10.21,4.26,14.05,3.38,3.86,8.26,6.07,13.38,6.07,2.82,0,5.63-.68,8.14-1.98l3.9-2.01,3.9,2.01c2.51,1.29,5.33,1.98,8.14,1.98,5.12,0,10-2.21,13.38-6.07,3.37-3.85,4.93-8.97,4.26-14.05l-.78-5.88,3.95-4.34c4.34-4.77,5.77-11.53,3.72-17.64-2.05-6.11-7.26-10.65-13.59-11.84l-4.84-.91-2.26-4.49C50.35,3.75,44.26,0,37.5,0h0Z"/>
</svg>