<?xml version="1.0" encoding="UTF-8"?>
<svg id="Layer_1" xmlns="http://www.w3.org/2000/svg" version="1.1" viewBox="0 0 75 75">
  <!-- Generator: Adobe Illustrator 30.1.0, SVG Export Plug-In . SVG Version: 2.1.1 Build 136)  -->
  <path d="M37.5,5.2c1.05,0,2.1.54,2.65,1.63l6.76,13.41c1.16,2.3,3.32,3.93,5.85,4.4l14.62,2.74c2.29.43,3.21,3.21,1.64,4.93l-10.65,11.69c-1.64,1.8-2.41,4.24-2.09,6.66l2.08,15.76c.25,1.88-1.25,3.37-2.94,3.37-.45,0-.91-.1-1.36-.33l-12.79-6.58c-1.19-.61-2.48-.92-3.78-.92-1.3,0-2.59.31-3.78.92l-12.79,6.58c-.45.23-.91.33-1.36.33-1.69,0-3.19-1.49-2.94-3.37l2.08-15.76c.32-2.42-.44-4.85-2.09-6.66l-10.65-11.69c-1.57-1.72-.64-4.5,1.65-4.93l14.62-2.74c2.53-.47,4.69-2.1,5.85-4.4l6.76-13.41c.55-1.09,1.6-1.63,2.65-1.63M37.5,0c-3.1,0-5.9,1.72-7.3,4.5l-6.76,13.41c-.43.85-1.23,1.45-2.16,1.63l-14.62,2.74c-2.91.55-5.3,2.63-6.24,5.44-.94,2.81-.29,5.92,1.71,8.11l10.65,11.69c.61.67.89,1.57.77,2.47l-2.08,15.76c-.31,2.34.4,4.69,1.95,6.45,1.56,1.78,3.8,2.8,6.15,2.8,1.29,0,2.58-.32,3.74-.91l12.79-6.58c.43-.22.91-.34,1.39-.34.48,0,.97.12,1.39.34l12.79,6.58c1.16.6,2.45.91,3.74.91,2.35,0,4.59-1.02,6.15-2.8,1.55-1.76,2.26-4.12,1.95-6.45l-2.08-15.76c-.12-.9.16-1.81.78-2.48l10.65-11.69c2-2.19,2.65-5.3,1.71-8.11-.94-2.81-3.33-4.89-6.24-5.44l-14.62-2.74c-.93-.17-1.74-.78-2.16-1.63l-6.76-13.41c-1.4-2.77-4.19-4.5-7.3-4.5h0Z"/>
</svg>