<?xml version="1.0" encoding="UTF-8"?>
<svg id="Layer_1" xmlns="http://www.w3.org/2000/svg" version="1.1" viewBox="0 0 75 75">
  <!-- Generator: Adobe Illustrator 30.1.0, SVG Export Plug-In . SVG Version: 2.1.1 Build 136)  -->
  <path d="M37.5,6.52c1.01,0,2.01.52,2.54,1.57l6.48,12.87c1.11,2.21,3.19,3.77,5.61,4.22l14.02,2.63c2.19.41,3.08,3.08,1.58,4.73l-10.22,11.21c-1.58,1.73-2.31,4.07-2,6.39l1.99,15.12c.24,1.8-1.2,3.23-2.82,3.23-.43,0-.87-.1-1.3-.32l-12.27-6.32c-1.14-.59-2.38-.88-3.62-.88-1.24,0-2.49.29-3.62.88l-12.27,6.32c-.43.22-.87.32-1.3.32-1.62,0-3.06-1.43-2.82-3.23l1.99-15.12c.31-2.32-.43-4.66-2-6.38l-10.22-11.21c-1.51-1.65-.62-4.32,1.58-4.73l14.02-2.63c2.42-.45,4.5-2.02,5.61-4.22l6.48-12.87c.53-1.04,1.53-1.57,2.54-1.57M37.5,0c-3.56,0-6.76,1.97-8.36,5.15l-6.48,12.87c-.2.39-.57.67-.99.75l-14.02,2.63c-3.33.62-6.08,3.01-7.15,6.23-1.08,3.22-.33,6.78,1.96,9.29l10.22,11.21c.28.31.41.73.36,1.14l-1.99,15.12c-.35,2.68.46,5.37,2.23,7.4,1.79,2.04,4.35,3.2,7.05,3.2,1.48,0,2.96-.36,4.28-1.04l12.27-6.32c.2-.1.42-.16.64-.16.22,0,.44.05.64.16l12.27,6.32c1.33.68,2.81,1.04,4.28,1.04,2.69,0,5.26-1.17,7.05-3.2,1.77-2.02,2.59-4.72,2.23-7.4l-1.99-15.12c-.06-.42.08-.84.36-1.15l10.22-11.21c2.29-2.51,3.04-6.07,1.96-9.29-1.08-3.22-3.82-5.61-7.15-6.23l-14.02-2.63c-.43-.08-.8-.36-.99-.75l-6.48-12.87c-1.6-3.18-4.8-5.15-8.36-5.15h0Z"/>
</svg>