<?xml version="1.0" encoding="UTF-8"?>
<svg id="Layer_1" xmlns="http://www.w3.org/2000/svg" version="1.1" viewBox="0 0 73 73">
  <!-- Generator: Adobe Illustrator 30.1.0, SVG Export Plug-In . SVG Version: 2.1.1 Build 136)  -->
  <path d="M36.5,6.34c.98,0,1.96.51,2.47,1.53l6.31,12.52c1.08,2.15,3.1,3.67,5.46,4.11l13.65,2.56c2.13.4,3,2.99,1.54,4.6l-9.95,10.91c-1.53,1.68-2.25,3.96-1.95,6.22l1.94,14.71c.23,1.76-1.17,3.15-2.75,3.15-.42,0-.85-.1-1.27-.31l-11.94-6.15c-1.11-.57-2.32-.85-3.53-.85s-2.42.28-3.53.85l-11.94,6.15c-.42.21-.85.31-1.27.31-1.58,0-2.98-1.39-2.75-3.15l1.94-14.72c.3-2.26-.42-4.53-1.95-6.21l-9.95-10.91c-1.47-1.61-.6-4.2,1.54-4.6l13.65-2.56c2.36-.44,4.38-1.96,5.46-4.11l6.31-12.53c.51-1.02,1.49-1.53,2.47-1.53M36.5,0C33.04,0,29.92,1.92,28.36,5.01l-6.31,12.53c-.19.38-.55.65-.97.73l-13.65,2.56c-3.25.61-5.91,2.93-6.96,6.07-1.05,3.14-.32,6.6,1.91,9.04l9.95,10.91c.27.3.4.71.35,1.11l-1.94,14.72c-.34,2.61.45,5.23,2.17,7.2,1.74,1.98,4.24,3.12,6.86,3.12,1.44,0,2.88-.35,4.17-1.02l11.94-6.15c.19-.1.4-.15.62-.15s.43.05.62.15l11.94,6.15c1.29.66,2.73,1.02,4.17,1.02,2.62,0,5.12-1.14,6.86-3.12,1.73-1.97,2.52-4.59,2.17-7.2l-1.94-14.71c-.05-.41.07-.82.35-1.12l9.95-10.91c2.23-2.44,2.96-5.91,1.91-9.04-1.05-3.13-3.72-5.46-6.96-6.06l-13.65-2.56c-.41-.08-.78-.35-.97-.73l-6.31-12.52C43.08,1.92,39.96,0,36.5,0h0Z"/>
</svg>