<?xml version="1.0" encoding="UTF-8"?>
<svg id="Layer_1" xmlns="http://www.w3.org/2000/svg" version="1.1" viewBox="0 0 73 73">
  <!-- Generator: Adobe Illustrator 30.1.0, SVG Export Plug-In . SVG Version: 2.1.1 Build 136)  -->
  <path d="M36.5,14.1c.73,0,1.46.38,1.84,1.13l4.69,9.3c.8,1.6,2.3,2.73,4.06,3.05l10.14,1.9c1.59.3,2.23,2.22,1.14,3.42l-7.39,8.11c-1.14,1.25-1.67,2.94-1.45,4.62l1.44,10.93c.17,1.3-.87,2.34-2.04,2.34-.31,0-.63-.07-.94-.23l-8.87-4.57c-.82-.42-1.72-.64-2.62-.64s-1.8.21-2.62.64l-8.87,4.57c-.31.16-.63.23-.94.23-1.17,0-2.21-1.03-2.04-2.34l1.44-10.93c.22-1.68-.31-3.37-1.45-4.62l-7.39-8.11c-1.09-1.19-.44-3.12,1.14-3.42l10.14-1.9c1.75-.33,3.25-1.46,4.06-3.05l4.69-9.3c.38-.76,1.11-1.13,1.84-1.13M36.5,0C30.36,0,24.83,3.41,22.07,8.89l-2.82,5.61-6.06,1.14c-5.75,1.08-10.48,5.2-12.34,10.75-1.86,5.55-.57,11.69,3.38,16.02l4.77,5.23-.93,7.08c-.61,4.62.8,9.27,3.86,12.76,3.07,3.5,7.5,5.51,12.15,5.51,2.56,0,5.11-.62,7.4-1.8l5.03-2.59,5.03,2.59c2.28,1.18,4.84,1.8,7.4,1.8,4.65,0,9.08-2.01,12.15-5.52,3.06-3.49,4.47-8.15,3.86-12.76l-.93-7.08,4.77-5.24c3.94-4.33,5.24-10.47,3.38-16.02-1.86-5.55-6.59-9.67-12.34-10.75l-6.07-1.14-2.82-5.61C48.17,3.41,42.64,0,36.5,0h0Z"/>
</svg>