<?xml version="1.0" encoding="UTF-8"?>
<svg id="Layer_1" xmlns="http://www.w3.org/2000/svg" version="1.1" viewBox="0 0 73 73">
  <!-- Generator: Adobe Illustrator 30.1.0, SVG Export Plug-In . SVG Version: 2.1.1 Build 136)  -->
  <path d="M36.5,8.92c.9,0,1.79.47,2.26,1.4l5.77,11.45c.99,1.97,2.84,3.36,5,3.76l12.48,2.34c1.95.37,2.74,2.74,1.4,4.21l-9.1,9.98c-1.4,1.54-2.06,3.62-1.78,5.69l1.77,13.46c.21,1.61-1.07,2.88-2.51,2.88-.38,0-.78-.09-1.16-.29l-10.92-5.62c-1.01-.52-2.12-.78-3.23-.78-1.11,0-2.21.26-3.23.78l-10.92,5.62c-.38.2-.78.29-1.16.29-1.44,0-2.72-1.27-2.51-2.88l1.78-13.46c.27-2.07-.38-4.15-1.78-5.68l-9.1-9.98c-1.34-1.47-.55-3.84,1.41-4.21l12.48-2.34c2.16-.4,4-1.79,4.99-3.76l5.77-11.46c.47-.93,1.37-1.4,2.26-1.4M36.5,0C32.15,0,28.23,2.41,26.27,6.3l-5.36,10.63-11.57,2.17c-4.08.76-7.43,3.69-8.75,7.62-1.32,3.94-.4,8.29,2.4,11.36l8.51,9.34-1.66,12.61c-.43,3.27.57,6.57,2.74,9.05,2.18,2.49,5.32,3.91,8.62,3.91,1.81,0,3.62-.44,5.24-1.28l10.06-5.18,10.06,5.18c1.62.83,3.43,1.28,5.24,1.28,3.3,0,6.44-1.43,8.62-3.91,2.17-2.48,3.17-5.77,2.74-9.05l-1.66-12.61,8.52-9.34c2.8-3.07,3.72-7.42,2.4-11.36-1.32-3.94-4.67-6.86-8.75-7.62l-11.57-2.17-5.36-10.63C44.77,2.41,40.85,0,36.5,0h0Z"/>
</svg>