<?xml version="1.0" encoding="UTF-8"?>
<svg id="Layer_1" xmlns="http://www.w3.org/2000/svg" version="1.1" viewBox="0 0 73 73">
  <!-- Generator: Adobe Illustrator 30.1.0, SVG Export Plug-In . SVG Version: 2.1.1 Build 136)  -->
  <path d="M36.5,15.38c.69,0,1.37.36,1.73,1.07l4.42,8.77c.76,1.51,2.17,2.57,3.83,2.88l9.56,1.79c1.49.28,2.1,2.1,1.08,3.22l-6.97,7.64c-1.07,1.18-1.57,2.77-1.37,4.36l1.36,10.31c.16,1.23-.82,2.2-1.92,2.2-.29,0-.6-.07-.89-.22l-8.36-4.31c-.78-.4-1.62-.6-2.47-.6s-1.69.2-2.47.6l-8.36,4.31c-.29.15-.59.22-.89.22-1.11,0-2.09-.97-1.92-2.2l1.36-10.31c.21-1.58-.29-3.17-1.36-4.35l-6.97-7.64c-1.03-1.13-.42-2.94,1.08-3.22l9.56-1.79c1.65-.31,3.07-1.37,3.83-2.88l4.42-8.77c.36-.71,1.05-1.07,1.73-1.07M36.5,0C29.92,0,24,3.65,21.04,9.53l-2.2,4.37-4.71.88c-6.17,1.16-11.24,5.57-13.23,11.52-1.99,5.95-.61,12.53,3.62,17.17l3.85,4.22-.75,5.72c-.65,4.95.86,9.93,4.14,13.68,3.29,3.76,8.04,5.91,13.03,5.91,2.74,0,5.48-.67,7.93-1.93l3.79-1.95,3.79,1.95c2.45,1.26,5.19,1.93,7.93,1.93,4.98,0,9.73-2.15,13.03-5.91,3.28-3.75,4.79-8.73,4.14-13.68l-.75-5.72,3.85-4.22c4.23-4.64,5.62-11.22,3.62-17.17-1.99-5.95-7.06-10.36-13.23-11.52l-4.71-.88-2.2-4.37C49,3.65,43.08,0,36.5,0h0Z"/>
</svg>