<?xml version="1.0" encoding="UTF-8"?>
<svg id="Layer_1" xmlns="http://www.w3.org/2000/svg" version="1.1" viewBox="0 0 78 78">
  <!-- Generator: Adobe Illustrator 30.1.0, SVG Export Plug-In . SVG Version: 2.1.1 Build 136)  -->
  <path d="M39,5.41c1.09,0,2.18.57,2.75,1.7l7.03,13.95c1.21,2.39,3.46,4.09,6.09,4.58l15.2,2.85c2.38.45,3.34,3.33,1.71,5.12l-11.08,12.15c-1.71,1.88-2.5,4.41-2.17,6.93l2.16,16.39c.26,1.96-1.3,3.5-3.06,3.5-.47,0-.95-.11-1.41-.35l-13.3-6.85c-1.23-.63-2.58-.95-3.93-.95-1.35,0-2.69.32-3.93.95l-13.3,6.85c-.46.24-.94.35-1.41.35-1.76,0-3.32-1.55-3.06-3.5l2.16-16.39c.33-2.51-.46-5.05-2.17-6.92l-11.08-12.16c-1.63-1.79-.67-4.68,1.71-5.13l15.2-2.85c2.63-.49,4.88-2.19,6.08-4.58l7.03-13.95c.57-1.13,1.66-1.7,2.75-1.7M39,0C35.77,0,32.86,1.79,31.41,4.68l-7.03,13.95c-.44.88-1.28,1.51-2.25,1.69l-15.2,2.85c-3.03.57-5.51,2.73-6.49,5.66-.98,2.92-.3,6.16,1.78,8.43l11.08,12.16c.63.7.93,1.63.8,2.57l-2.16,16.39c-.32,2.43.42,4.88,2.03,6.71,1.62,1.85,3.95,2.91,6.4,2.91,1.34,0,2.68-.33,3.89-.95l13.3-6.85c.45-.23.95-.35,1.45-.35.5,0,1,.12,1.45.35l13.3,6.85c1.2.62,2.55.95,3.89.95,2.44,0,4.77-1.06,6.4-2.91,1.61-1.83,2.35-4.28,2.03-6.71l-2.16-16.39c-.12-.94.17-1.88.81-2.58l11.08-12.15c2.08-2.28,2.76-5.51,1.78-8.43-.98-2.92-3.47-5.09-6.49-5.65l-15.2-2.85c-.96-.18-1.81-.81-2.25-1.7l-7.03-13.95C45.13,1.79,42.23,0,39,0h0Z"/>
</svg>