<?xml version="1.0" encoding="UTF-8"?>
<svg id="Layer_1" xmlns="http://www.w3.org/2000/svg" version="1.1" viewBox="0 0 78 78">
  <!-- Generator: Adobe Illustrator 30.1.0, SVG Export Plug-In . SVG Version: 2.1.1 Build 136)  -->
  <path d="M39,12.31c.87,0,1.74.45,2.19,1.35l5.58,11.08c.96,1.9,2.75,3.25,4.84,3.64l12.08,2.26c1.89.35,2.65,2.65,1.36,4.07l-8.8,9.66c-1.36,1.49-1.99,3.51-1.73,5.51l1.72,13.02c.2,1.55-1.03,2.78-2.43,2.78-.37,0-.75-.09-1.12-.28l-10.57-5.44c-.98-.5-2.05-.76-3.12-.76-1.07,0-2.14.25-3.12.76l-10.57,5.44c-.37.19-.75.28-1.12.28-1.4,0-2.63-1.23-2.43-2.78l1.72-13.03c.26-2-.37-4.01-1.72-5.5l-8.8-9.66c-1.3-1.42-.53-3.72,1.36-4.07l12.08-2.26c2.09-.39,3.88-1.74,4.83-3.64l5.58-11.09c.45-.9,1.32-1.35,2.19-1.35M39,0C33.39,0,28.34,3.11,25.82,8.12l-4.36,8.66-9.41,1.76c-5.26.99-9.58,4.75-11.28,9.82-1.7,5.08-.52,10.69,3.09,14.64l7.09,7.78-1.39,10.51c-.56,4.22.73,8.47,3.53,11.66,2.81,3.2,6.86,5.04,11.11,5.04,2.33,0,4.67-.57,6.76-1.64l8.05-4.15,8.05,4.15c2.09,1.07,4.42,1.64,6.76,1.64,4.25,0,8.3-1.84,11.11-5.04,2.8-3.19,4.08-7.44,3.53-11.66l-1.39-10.51,7.09-7.78c3.6-3.96,4.79-9.56,3.09-14.64-1.7-5.07-6.02-8.84-11.28-9.82l-9.41-1.76-4.36-8.66C49.66,3.11,44.61,0,39,0h0Z"/>
</svg>