<?xml version="1.0" encoding="UTF-8"?>
<svg id="Layer_1" xmlns="http://www.w3.org/2000/svg" version="1.1" viewBox="0 0 34 34">
  <!-- Generator: Adobe Illustrator 30.1.0, SVG Export Plug-In . SVG Version: 2.1.1 Build 136)  -->
  <g>
    <g>
      <rect x="15.79" y="9.26" width="2.43" height="2.43"/>
      <path d="M17.9,9.58v1.79h-1.79v-1.79h1.79M18.53,8.94h-3.07v3.07h3.07v-3.07h0Z"/>
    </g>
    <g>
      <polygon points="13.99 24.59 13.99 22.16 15.79 22.16 15.79 17.21 13.99 17.21 13.99 14.78 18.21 14.78 18.21 22.16 20.01 22.16 20.01 24.59 13.99 24.59"/>
      <path d="M17.9,15.09v7.39h1.79v1.79h-5.38v-1.79h1.79v-5.6h-1.79v-1.79h3.58M18.53,14.46h-4.86v3.07h1.79v4.32h-1.79v3.07h6.65v-3.07h-1.79v-7.39h0Z"/>
    </g>
  </g>
  <circle id="Outer" cx="17" cy="17" r="14.92" fill="none" stroke="#000" stroke-width="4.15"/>
</svg>