<?xml version="1.0" encoding="UTF-8"?>
<svg id="Layer_1" xmlns="http://www.w3.org/2000/svg" version="1.1" viewBox="0 0 34 34">
  <!-- Generator: Adobe Illustrator 30.1.0, SVG Export Plug-In . SVG Version: 2.1.1 Build 136)  -->
  <g>
    <g>
      <rect x="15.8" y="8.82" width="2.39" height="2.39"/>
      <path d="M17.98,9.04v1.97h-1.97v-1.97h1.97M18.41,8.61h-2.82v2.82h2.82v-2.82h0Z"/>
    </g>
    <g>
      <polygon points="13.83 25.13 13.83 22.73 15.8 22.73 15.8 17.01 13.83 17.01 13.83 14.61 18.2 14.61 18.2 22.73 20.17 22.73 20.17 25.13 13.83 25.13"/>
      <path d="M17.98,14.83v8.12h1.97v1.97h-5.91v-1.97h1.97v-6.15h-1.97v-1.97h3.94M18.41,14.4h-4.79v2.82h1.97v5.3h-1.97v2.82h6.76v-2.82h-1.97v-8.12h0Z"/>
    </g>
  </g>
  <circle id="Outer" cx="17" cy="17" r="15.52" fill="none" stroke="#000" stroke-width="2.95"/>
</svg>