<?xml version="1.0" encoding="UTF-8"?>
<svg id="Layer_1" xmlns="http://www.w3.org/2000/svg" version="1.1" viewBox="0 0 70 70">
  <!-- Generator: Adobe Illustrator 30.1.0, SVG Export Plug-In . SVG Version: 2.1.1 Build 136)  -->
  <g>
    <g>
      <rect x="32.42" y="20.84" width="5.17" height="5.17"/>
      <path d="M36.49,21.93v2.98h-2.98v-2.98h2.98M38.68,19.75h-7.35v7.35h7.35v-7.35h0Z"/>
    </g>
    <g>
      <polygon points="29.44 48.48 29.44 43.31 32.42 43.31 32.42 36.21 29.44 36.21 29.44 31.04 37.58 31.04 37.58 43.31 40.56 43.31 40.56 48.48 29.44 48.48"/>
      <path d="M36.49,32.13v12.27h2.98v2.98h-8.93v-2.98h2.98v-9.3h-2.98v-2.98h5.96M38.68,29.95h-10.33v7.35h2.98v4.92h-2.98v7.35h13.31v-7.35h-2.98v-12.27h0Z"/>
    </g>
  </g>
  <circle id="Outer" cx="35" cy="35" r="28.24" fill="none" stroke="#000" stroke-width="13.52"/>
</svg>