<?xml version="1.0" encoding="UTF-8"?>
<svg id="Layer_1" xmlns="http://www.w3.org/2000/svg" version="1.1" viewBox="0 0 128 128">
  <!-- Generator: Adobe Illustrator 30.1.0, SVG Export Plug-In . SVG Version: 2.1.1 Build 136)  -->
  <g>
    <g>
      <rect x="59.23" y="38.91" width="9.53" height="9.53"/>
      <path d="M66.57,41.11v5.13h-5.13v-5.13h5.13M70.97,36.71h-13.93v13.93h13.93v-13.93h0Z"/>
    </g>
    <g>
      <polygon points="54.1 87.7 54.1 78.17 59.23 78.17 59.23 66.55 54.1 66.55 54.1 57.01 68.77 57.01 68.77 78.17 73.9 78.17 73.9 87.7 54.1 87.7"/>
      <path d="M66.57,59.21v21.15h5.13v5.13h-15.4v-5.13h5.13v-16.02h-5.13v-5.13h10.26M70.97,54.81h-19.06v13.93h5.13v7.22h-5.13v13.93h24.2v-13.93h-5.13v-21.15h0Z"/>
    </g>
  </g>
  <circle id="Outer" cx="64" cy="64" r="50.52" fill="none" stroke="#000" stroke-width="26.96"/>
</svg>