<?xml version="1.0" encoding="UTF-8"?>
<svg id="Layer_1" xmlns="http://www.w3.org/2000/svg" version="1.1" viewBox="0 0 128 128">
  <!-- Generator: Adobe Illustrator 30.1.0, SVG Export Plug-In . SVG Version: 2.1.1 Build 136)  -->
  <g>
    <g>
      <rect x="59.43" y="34.85" width="9.15" height="9.15"/>
      <path d="M67.37,36.05v6.75h-6.75v-6.75h6.75M69.77,33.65h-11.55v11.55h11.55v-11.55h0Z"/>
    </g>
    <g>
      <polygon points="52.68 92.59 52.68 83.44 59.43 83.44 59.43 64.77 52.68 64.77 52.68 55.62 68.57 55.62 68.57 83.44 75.32 83.44 75.32 92.59 52.68 92.59"/>
      <path d="M67.37,56.82v27.81h6.75v6.75h-20.24v-6.75h6.75v-21.07h-6.75v-6.75h13.5M69.77,54.42h-18.3v11.55h6.75v16.27h-6.75v11.55h25.04v-11.55h-6.75v-27.81h0Z"/>
    </g>
  </g>
  <circle id="Outer" cx="64" cy="64" r="56.18" fill="none" stroke="#000" stroke-width="15.64"/>
</svg>