<?xml version="1.0" encoding="UTF-8"?>
<svg id="Layer_1" xmlns="http://www.w3.org/2000/svg" version="1.1" viewBox="0 0 128 128">
  <!-- Generator: Adobe Illustrator 30.1.0, SVG Export Plug-In . SVG Version: 2.1.1 Build 136)  -->
  <g>
    <g>
      <rect x="59.53" y="32.41" width="8.95" height="8.95"/>
      <path d="M67.87,33.01v7.75h-7.75v-7.75h7.75M69.07,31.81h-10.15v10.15h10.15v-10.15h0Z"/>
    </g>
    <g>
      <polygon points="51.78 95.59 51.78 86.64 59.53 86.64 59.53 63.66 51.78 63.66 51.78 54.71 68.47 54.71 68.47 86.64 76.22 86.64 76.22 95.59 51.78 95.59"/>
      <path d="M67.87,55.31v31.94h7.75v7.75h-23.24v-7.75h7.75v-24.19h-7.75v-7.75h15.5M69.07,54.11h-17.9v10.15h7.75v21.79h-7.75v10.15h25.64v-10.15h-7.75v-31.94h0Z"/>
    </g>
  </g>
  <circle id="Outer" cx="64" cy="64" r="59.56" fill="none" stroke="#000" stroke-width="8.88"/>
</svg>