<?xml version="1.0" encoding="UTF-8"?>
<svg id="Layer_1" xmlns="http://www.w3.org/2000/svg" version="1.1" viewBox="0 0 64 64">
  <!-- Generator: Adobe Illustrator 30.1.0, SVG Export Plug-In . SVG Version: 2.1.1 Build 136)  -->
  <g>
    <g>
      <rect x="29.71" y="17.42" width="4.57" height="4.57"/>
      <path d="M33.69,18.02v3.37h-3.37v-3.37h3.37M34.89,16.82h-5.77v5.77h5.77v-5.77h0Z"/>
    </g>
    <g>
      <polygon points="26.34 46.29 26.34 41.72 29.71 41.72 29.71 32.39 26.34 32.39 26.34 27.81 34.29 27.81 34.29 41.72 37.66 41.72 37.66 46.29 26.34 46.29"/>
      <path d="M33.69,28.41v13.91h3.37v3.37h-10.12v-3.37h3.37v-10.53h-3.37v-3.37h6.75M34.89,27.21h-9.15v5.77h3.37v8.13h-3.37v5.77h12.52v-5.77h-3.37v-13.91h0Z"/>
    </g>
  </g>
  <circle id="Outer" cx="32" cy="32" r="28.09" fill="none" stroke="#000" stroke-width="7.82"/>
</svg>