<?xml version="1.0" encoding="UTF-8"?>
<svg id="Layer_1" xmlns="http://www.w3.org/2000/svg" version="1.1" viewBox="0 0 13 13">
  <!-- Generator: Adobe Illustrator 30.1.0, SVG Export Plug-In . SVG Version: 2.1.1 Build 136)  -->
  <path d="M6.5.9c.18,0,.36.09.46.28l1.17,2.32c.2.4.58.68,1.01.76l2.53.47c.4.07.56.56.29.85l-1.85,2.03c-.28.31-.42.74-.36,1.15l.36,2.73c.04.33-.22.58-.51.58-.08,0-.16-.02-.24-.06l-2.22-1.14c-.21-.11-.43-.16-.65-.16-.22,0-.45.05-.65.16l-2.22,1.14c-.08.04-.16.06-.24.06-.29,0-.55-.26-.51-.58l.36-2.73c.06-.42-.08-.84-.36-1.15l-1.85-2.03c-.27-.3-.11-.78.29-.85l2.53-.47c.44-.08.81-.36,1.01-.76l1.17-2.33c.1-.19.28-.28.46-.28M6.5,0C5.96,0,5.48.3,5.24.78l-1.17,2.33c-.07.15-.21.25-.37.28l-2.53.47c-.5.09-.92.46-1.08.94-.16.49-.05,1.03.3,1.41l1.85,2.03c.11.12.15.27.13.43l-.36,2.73c-.05.41.07.81.34,1.12.27.31.66.49,1.07.49.22,0,.45-.05.65-.16l2.22-1.14c.07-.04.16-.06.24-.06.08,0,.17.02.24.06l2.22,1.14c.2.1.42.16.65.16.41,0,.8-.18,1.07-.49.27-.31.39-.71.34-1.12l-.36-2.73c-.02-.16.03-.31.13-.43l1.85-2.03c.35-.38.46-.92.3-1.41-.16-.49-.58-.85-1.08-.94l-2.53-.47c-.16-.03-.3-.14-.37-.28l-1.17-2.32C7.52.3,7.04,0,6.5,0h0Z"/>
</svg>