<?xml version="1.0" encoding="UTF-8"?>
<svg id="Layer_1" xmlns="http://www.w3.org/2000/svg" version="1.1" viewBox="0 0 86 86">
  <!-- Generator: Adobe Illustrator 30.1.0, SVG Export Plug-In . SVG Version: 2.1.1 Build 136)  -->
  <path d="M43,10.51c1.06,0,2.11.55,2.66,1.64l6.8,13.49c1.17,2.32,3.34,3.95,5.89,4.43l14.71,2.76c2.3.43,3.23,3.23,1.65,4.96l-10.71,11.76c-1.65,1.81-2.42,4.27-2.1,6.7l2.09,15.85c.25,1.89-1.26,3.39-2.96,3.39-.45,0-.92-.11-1.36-.34l-12.86-6.62c-1.19-.61-2.5-.92-3.8-.92-1.3,0-2.61.31-3.8.92l-12.86,6.62c-.45.23-.91.34-1.36.34-1.7,0-3.21-1.5-2.96-3.39l2.09-15.86c.32-2.43-.45-4.88-2.1-6.7l-10.72-11.76c-1.58-1.73-.65-4.53,1.66-4.96l14.7-2.76c2.54-.48,4.72-2.11,5.88-4.43l6.8-13.5c.55-1.1,1.61-1.64,2.66-1.64M43,0C37.87,0,33.26,2.84,30.95,7.42l-6.31,12.52-13.63,2.55c-4.81.9-8.76,4.34-10.31,8.98-1.55,4.64-.47,9.77,2.82,13.39l10.03,11.01-1.96,14.85c-.51,3.86.67,7.74,3.22,10.66,2.57,2.93,6.27,4.61,10.15,4.61,2.13,0,4.27-.52,6.18-1.5l11.85-6.1,11.85,6.1c1.91.98,4.04,1.5,6.18,1.5,3.88,0,7.58-1.68,10.15-4.61,2.56-2.92,3.73-6.8,3.22-10.66l-1.96-14.85,10.03-11.01c3.3-3.62,4.38-8.74,2.82-13.38-1.55-4.64-5.5-8.08-10.31-8.98l-13.63-2.56-6.31-12.52C52.74,2.84,48.12,0,43,0h0Z"/>
</svg>