<?xml version="1.0" encoding="UTF-8"?>
<svg id="Layer_1" xmlns="http://www.w3.org/2000/svg" version="1.1" viewBox="0 0 86 86">
  <!-- Generator: Adobe Illustrator 30.1.0, SVG Export Plug-In . SVG Version: 2.1.1 Build 136)  -->
  <path d="M43,16.61c.86,0,1.72.44,2.16,1.33l5.52,10.96c.95,1.88,2.72,3.21,4.78,3.6l11.94,2.24c1.87.35,2.63,2.62,1.34,4.03l-8.7,9.55c-1.34,1.47-1.97,3.47-1.71,5.44l1.7,12.88c.2,1.54-1.02,2.75-2.4,2.75-.37,0-.74-.09-1.11-.27l-10.45-5.38c-.97-.5-2.03-.75-3.09-.75-1.06,0-2.12.25-3.09.75l-10.45,5.38c-.36.19-.74.27-1.11.27-1.38,0-2.61-1.22-2.4-2.75l1.7-12.88c.26-1.98-.36-3.97-1.7-5.44l-8.7-9.55c-1.28-1.41-.52-3.68,1.34-4.03l11.94-2.24c2.06-.39,3.83-1.72,4.78-3.6l5.52-10.96c.45-.89,1.31-1.33,2.16-1.33M43,0c-7.23,0-13.74,4.01-17,10.47l-3.33,6.61-7.14,1.34c-6.78,1.27-12.35,6.12-14.54,12.66-2.19,6.54-.67,13.78,3.98,18.88l5.62,6.17-1.1,8.34c-.72,5.44.94,10.92,4.55,15.04,3.62,4.13,8.84,6.5,14.32,6.5,3.01,0,6.02-.73,8.71-2.12l5.93-3.05,5.93,3.05c2.69,1.38,5.7,2.12,8.71,2.12,5.48,0,10.7-2.37,14.32-6.5,3.61-4.12,5.27-9.6,4.55-15.04l-1.1-8.34,5.62-6.17c4.65-5.1,6.17-12.33,3.98-18.87-2.19-6.54-7.76-11.39-14.54-12.66l-7.15-1.34-3.33-6.61C56.74,4.01,50.23,0,43,0h0Z"/>
</svg>