<?xml version="1.0" encoding="UTF-8"?>
<svg id="Layer_1" xmlns="http://www.w3.org/2000/svg" version="1.1" viewBox="0 0 86 86">
  <!-- Generator: Adobe Illustrator 30.1.0, SVG Export Plug-In . SVG Version: 2.1.1 Build 136)  -->
  <path d="M43,7.47c1.16,0,2.31.6,2.91,1.8l7.43,14.75c1.28,2.53,3.66,4.32,6.44,4.84l16.08,3.01c2.51.47,3.53,3.53,1.81,5.42l-11.72,12.86c-1.81,1.98-2.65,4.67-2.3,7.33l2.29,17.33c.27,2.07-1.38,3.71-3.23,3.71-.49,0-1-.12-1.49-.37l-14.07-7.24c-1.3-.67-2.73-1.01-4.15-1.01-1.43,0-2.85.34-4.15,1.01l-14.07,7.24c-.49.25-1,.37-1.49.37-1.86,0-3.51-1.64-3.23-3.71l2.29-17.34c.35-2.66-.49-5.34-2.29-7.32l-11.72-12.86c-1.73-1.89-.71-4.95,1.81-5.42l16.08-3.01c2.78-.52,5.16-2.31,6.43-4.84l7.43-14.76c.6-1.2,1.76-1.8,2.91-1.8M43,0c-4.08,0-7.75,2.26-9.59,5.91l-7.43,14.76c-.23.45-.65.77-1.14.86l-16.08,3.01c-3.82.72-6.97,3.45-8.2,7.15-1.24,3.69-.38,7.78,2.25,10.65l11.72,12.86c.32.35.47.83.41,1.31l-2.29,17.34c-.4,3.07.53,6.16,2.56,8.48,2.05,2.33,4.99,3.67,8.08,3.67,1.69,0,3.39-.41,4.91-1.2l14.07-7.24c.23-.12.48-.18.73-.18.25,0,.51.06.73.18l14.07,7.24c1.52.78,3.22,1.2,4.91,1.2,3.09,0,6.03-1.34,8.08-3.67,2.03-2.32,2.97-5.41,2.56-8.48l-2.29-17.33c-.06-.48.09-.96.41-1.32l11.72-12.86c2.62-2.88,3.48-6.96,2.25-10.65-1.24-3.69-4.38-6.43-8.2-7.14l-16.08-3.01c-.49-.09-.92-.41-1.14-.86l-7.43-14.75c-1.84-3.64-5.51-5.91-9.59-5.91h0Z"/>
</svg>