<?xml version="1.0" encoding="UTF-8"?>
<svg id="Layer_1" xmlns="http://www.w3.org/2000/svg" version="1.1" viewBox="0 0 86 86">
  <!-- Generator: Adobe Illustrator 30.1.0, SVG Export Plug-In . SVG Version: 2.1.1 Build 136)  -->
  <path d="M43,13.57c.96,0,1.91.5,2.41,1.49l6.16,12.22c1.06,2.1,3.03,3.58,5.33,4.01l13.32,2.5c2.08.39,2.93,2.92,1.5,4.49l-9.7,10.65c-1.5,1.64-2.19,3.87-1.9,6.07l1.89,14.36c.23,1.71-1.14,3.07-2.68,3.07-.41,0-.83-.1-1.24-.3l-11.65-6c-1.08-.56-2.26-.83-3.44-.83-1.18,0-2.36.28-3.44.83l-11.65,6c-.41.21-.83.3-1.24.3-1.54,0-2.91-1.36-2.68-3.07l1.89-14.36c.29-2.2-.41-4.42-1.9-6.06l-9.7-10.65c-1.43-1.57-.58-4.1,1.5-4.49l13.32-2.5c2.3-.43,4.27-1.91,5.33-4.01l6.16-12.22c.5-.99,1.46-1.49,2.41-1.49M43,0c-6.18,0-11.75,3.43-14.53,8.95l-4.81,9.55-10.37,1.94c-5.8,1.09-10.56,5.24-12.43,10.83-1.87,5.6-.57,11.78,3.4,16.14l7.81,8.58-1.53,11.58c-.61,4.65.8,9.34,3.89,12.86,3.1,3.53,7.56,5.56,12.24,5.56,2.57,0,5.15-.63,7.45-1.81l8.88-4.57,8.88,4.57c2.3,1.18,4.88,1.81,7.45,1.81,4.68,0,9.15-2.03,12.24-5.56,3.09-3.52,4.5-8.21,3.89-12.86l-1.53-11.58,7.82-8.58c3.97-4.36,5.28-10.55,3.4-16.14-1.87-5.59-6.64-9.74-12.43-10.83l-10.38-1.94-4.81-9.55C54.75,3.43,49.18,0,43,0h0Z"/>
</svg>