<?xml version="1.0" encoding="UTF-8"?>
<svg id="Layer_1" xmlns="http://www.w3.org/2000/svg" version="1.1" viewBox="0 0 36 36">
  <!-- Generator: Adobe Illustrator 30.1.0, SVG Export Plug-In . SVG Version: 2.1.1 Build 136)  -->
  <g>
    <g>
      <rect x="16.69" y="10.26" width="2.61" height="2.61"/>
      <path d="M18.86,10.71v1.71h-1.71v-1.71h1.71M19.76,9.81h-3.51v3.51h3.51v-3.51h0Z"/>
    </g>
    <g>
      <polygon points="14.98 25.48 14.98 22.87 16.69 22.87 16.69 18.42 14.98 18.42 14.98 15.81 19.31 15.81 19.31 22.87 21.02 22.87 21.02 25.48 14.98 25.48"/>
      <path d="M18.86,16.26v7.06h1.71v1.71h-5.14v-1.71h1.71v-5.34h-1.71v-1.71h3.42M19.76,15.36h-5.22v3.51h1.71v3.54h-1.71v3.51h6.94v-3.51h-1.71v-7.06h0Z"/>
    </g>
  </g>
  <circle id="Outer" cx="18" cy="18" r="15.16" fill="none" stroke="#000" stroke-width="5.68"/>
</svg>