<?xml version="1.0" encoding="UTF-8"?>
<svg id="Layer_1" xmlns="http://www.w3.org/2000/svg" version="1.1" viewBox="0 0 36 36">
  <!-- Generator: Adobe Illustrator 30.1.0, SVG Export Plug-In . SVG Version: 2.1.1 Build 136)  -->
  <g>
    <g>
      <rect x="16.73" y="9.34" width="2.54" height="2.54"/>
      <path d="M19.04,9.57v2.09h-2.09v-2.09h2.09M19.49,9.12h-2.99v2.99h2.99v-2.99h0Z"/>
    </g>
    <g>
      <polygon points="14.65 26.6 14.65 24.07 16.73 24.07 16.73 18.01 14.65 18.01 14.65 15.47 19.27 15.47 19.27 24.07 21.35 24.07 21.35 26.6 14.65 26.6"/>
      <path d="M19.04,15.7v8.59h2.09v2.09h-6.26v-2.09h2.09v-6.51h-2.09v-2.09h4.17M19.49,15.25h-5.07v2.99h2.09v5.61h-2.09v2.99h7.16v-2.99h-2.09v-8.59h0Z"/>
    </g>
  </g>
  <circle id="Outer" cx="18" cy="18" r="16.44" fill="none" stroke="#000" stroke-width="3.13"/>
</svg>