<?xml version="1.0" encoding="UTF-8"?>
<svg id="Layer_1" xmlns="http://www.w3.org/2000/svg" version="1.1" viewBox="0 0 36 36">
  <!-- Generator: Adobe Illustrator 30.1.0, SVG Export Plug-In . SVG Version: 2.1.1 Build 136)  -->
  <g>
    <g>
      <rect x="16.74" y="9.11" width="2.52" height="2.52"/>
      <path d="M19.09,9.28v2.18h-2.18v-2.18h2.18M19.43,8.95h-2.85v2.85h2.85v-2.85h0Z"/>
    </g>
    <g>
      <polygon points="14.56 26.88 14.56 24.37 16.74 24.37 16.74 17.9 14.56 17.9 14.56 15.39 19.26 15.39 19.26 24.37 21.44 24.37 21.44 26.88 14.56 26.88"/>
      <path d="M19.09,15.56v8.98h2.18v2.18h-6.54v-2.18h2.18v-6.8h-2.18v-2.18h4.36M19.43,15.22h-5.03v2.85h2.18v6.13h-2.18v2.85h7.21v-2.85h-2.18v-8.98h0Z"/>
    </g>
  </g>
  <circle id="Outer" cx="18" cy="18" r="16.75" fill="none" stroke="#000" stroke-width="2.5"/>
</svg>