<?xml version="1.0" encoding="UTF-8"?>
<svg id="Layer_1" xmlns="http://www.w3.org/2000/svg" version="1.1" viewBox="0 0 36 36">
  <!-- Generator: Adobe Illustrator 30.1.0, SVG Export Plug-In . SVG Version: 2.1.1 Build 136)  -->
  <g>
    <g>
      <rect x="16.71" y="9.8" width="2.57" height="2.57"/>
      <path d="M18.95,10.14v1.9h-1.9v-1.9h1.9M19.62,9.46h-3.25v3.25h3.25v-3.25h0Z"/>
    </g>
    <g>
      <polygon points="14.82 26.04 14.82 23.47 16.71 23.47 16.71 18.22 14.82 18.22 14.82 15.64 19.29 15.64 19.29 23.47 21.18 23.47 21.18 26.04 14.82 26.04"/>
      <path d="M18.95,15.98v7.82h1.9v1.9h-5.69v-1.9h1.9v-5.92h-1.9v-1.9h3.8M19.62,15.31h-5.15v3.25h1.9v4.57h-1.9v3.25h7.04v-3.25h-1.9v-7.82h0Z"/>
    </g>
  </g>
  <circle id="Outer" cx="18" cy="18" r="15.8" fill="none" stroke="#000" stroke-width="4.4"/>
</svg>