<?xml version="1.0" encoding="UTF-8"?>
<svg id="Layer_1" xmlns="http://www.w3.org/2000/svg" version="1.1" viewBox="0 0 93 93">
  <!-- Generator: Adobe Illustrator 30.1.0, SVG Export Plug-In . SVG Version: 2.1.1 Build 136)  -->
  <path d="M46.5,17.96c.93,0,1.86.48,2.34,1.44l5.97,11.85c1.02,2.03,2.94,3.47,5.17,3.89l12.92,2.42c2.02.38,2.84,2.83,1.45,4.35l-9.41,10.33c-1.45,1.59-2.13,3.75-1.85,5.89l1.84,13.92c.22,1.66-1.1,2.98-2.6,2.98-.4,0-.8-.09-1.2-.3l-11.3-5.82c-1.05-.54-2.19-.81-3.34-.81s-2.29.27-3.34.81l-11.3,5.82c-.39.2-.8.3-1.2.3-1.49,0-2.82-1.32-2.6-2.98l1.84-13.93c.28-2.14-.39-4.29-1.84-5.88l-9.41-10.33c-1.39-1.52-.57-3.98,1.45-4.36l12.92-2.42c2.23-.42,4.14-1.86,5.17-3.89l5.97-11.85c.48-.96,1.41-1.44,2.34-1.44M46.5,0C38.68,0,31.64,4.34,28.12,11.32l-3.6,7.14-7.73,1.45c-7.33,1.37-13.36,6.62-15.73,13.7-2.37,7.08-.72,14.9,4.31,20.41l6.08,6.67-1.19,9.02c-.78,5.88,1.02,11.81,4.92,16.26,3.91,4.47,9.56,7.03,15.48,7.03,3.26,0,6.51-.79,9.42-2.29l6.41-3.3,6.41,3.3c2.91,1.5,6.17,2.29,9.42,2.29,5.92,0,11.57-2.56,15.48-7.03,3.9-4.45,5.7-10.38,4.92-16.26l-1.19-9.02,6.08-6.67c5.03-5.51,6.67-13.34,4.3-20.41-2.37-7.07-8.39-12.32-15.72-13.69l-7.73-1.45-3.6-7.14C61.36,4.34,54.32,0,46.5,0h0Z"/>
</svg>