<?xml version="1.0" encoding="UTF-8"?>
<svg id="Layer_1" xmlns="http://www.w3.org/2000/svg" version="1.1" viewBox="0 0 93 93">
  <!-- Generator: Adobe Illustrator 30.1.0, SVG Export Plug-In . SVG Version: 2.1.1 Build 136)  -->
  <path d="M46.5,19.59c.88,0,1.75.45,2.21,1.36l5.63,11.18c.97,1.92,2.77,3.27,4.88,3.67l12.18,2.28c1.9.36,2.68,2.67,1.37,4.11l-8.87,9.74c-1.37,1.5-2.01,3.53-1.74,5.55l1.73,13.13c.21,1.57-1.04,2.81-2.45,2.81-.37,0-.76-.09-1.13-.28l-10.65-5.49c-.99-.51-2.07-.76-3.15-.76-1.08,0-2.16.25-3.15.76l-10.65,5.49c-.37.19-.76.28-1.13.28-1.41,0-2.66-1.24-2.45-2.81l1.73-13.13c.27-2.01-.37-4.04-1.74-5.55l-8.88-9.74c-1.31-1.43-.53-3.75,1.37-4.11l12.18-2.28c2.11-.39,3.91-1.75,4.87-3.67l5.63-11.18c.46-.91,1.33-1.36,2.21-1.36M46.5,0C38.12,0,30.57,4.65,26.8,12.14l-2.8,5.56-6,1.12c-7.86,1.47-14.31,7.1-16.85,14.68-2.54,7.58-.77,15.97,4.61,21.88l4.9,5.38-.96,7.29c-.83,6.3,1.09,12.65,5.28,17.43,4.2,4.78,10.24,7.53,16.59,7.53,3.49,0,6.98-.85,10.1-2.45l4.83-2.49,4.83,2.49c3.11,1.6,6.61,2.45,10.1,2.45,6.35,0,12.4-2.74,16.59-7.53,4.18-4.77,6.11-11.12,5.28-17.43l-.96-7.29,4.9-5.38c5.39-5.91,7.15-14.29,4.61-21.88-2.54-7.58-9-13.2-16.85-14.68l-6-1.12-2.8-5.56C62.43,4.65,54.88,0,46.5,0h0Z"/>
</svg>