<?xml version="1.0" encoding="UTF-8"?>
<svg id="Layer_1" xmlns="http://www.w3.org/2000/svg" version="1.1" viewBox="0 0 93 93">
  <!-- Generator: Adobe Illustrator 30.1.0, SVG Export Plug-In . SVG Version: 2.1.1 Build 136)  -->
  <path d="M46.5,11.36c1.14,0,2.28.59,2.88,1.78l7.35,14.59c1.26,2.5,3.62,4.28,6.37,4.79l15.9,2.98c2.49.47,3.5,3.49,1.79,5.36l-11.59,12.71c-1.79,1.96-2.62,4.61-2.27,7.25l2.26,17.14c.27,2.05-1.36,3.67-3.2,3.67-.49,0-.99-.11-1.48-.36l-13.91-7.16c-1.29-.66-2.7-1-4.11-1-1.41,0-2.82.33-4.11,1l-13.91,7.16c-.49.25-.99.36-1.48.36-1.84,0-3.47-1.62-3.2-3.67l2.26-17.15c.35-2.63-.48-5.28-2.27-7.24l-11.59-12.72c-1.71-1.87-.7-4.9,1.79-5.36l15.9-2.98c2.75-.52,5.1-2.29,6.36-4.79l7.35-14.59c.6-1.18,1.74-1.78,2.88-1.78M46.5,0c-5.54,0-10.54,3.08-13.03,8.03l-6.82,13.54-14.74,2.76c-5.2.97-9.47,4.69-11.15,9.71-1.68,5.02-.51,10.57,3.05,14.48l10.85,11.9-2.12,16.06c-.55,4.17.72,8.37,3.49,11.53,2.78,3.17,6.78,4.99,10.98,4.99,2.3,0,4.61-.56,6.68-1.62l12.82-6.6,12.82,6.6c2.06,1.06,4.37,1.62,6.68,1.62,4.2,0,8.2-1.82,10.98-4.99,2.77-3.15,4.04-7.36,3.49-11.53l-2.12-16.06,10.85-11.91c3.56-3.91,4.73-9.46,3.05-14.47-1.68-5.01-5.95-8.73-11.15-9.71l-14.74-2.76-6.82-13.54c-2.49-4.95-7.49-8.03-13.03-8.03h0Z"/>
</svg>