<?xml version="1.0" encoding="UTF-8"?>
<svg id="Layer_1" xmlns="http://www.w3.org/2000/svg" version="1.1" viewBox="0 0 48 48">
  <!-- Generator: Adobe Illustrator 30.1.0, SVG Export Plug-In . SVG Version: 2.1.1 Build 136)  -->
  <path d="M24,9.27c.48,0,.96.25,1.21.75l3.08,6.12c.53,1.05,1.52,1.79,2.67,2.01l6.67,1.25c1.04.2,1.47,1.46.75,2.25l-4.86,5.33c-.75.82-1.1,1.93-.95,3.04l.95,7.19c.11.86-.57,1.54-1.34,1.54-.2,0-.41-.05-.62-.15l-5.83-3c-.54-.28-1.13-.42-1.72-.42s-1.18.14-1.72.42l-5.83,3c-.2.1-.41.15-.62.15-.77,0-1.45-.68-1.34-1.54l.95-7.19c.15-1.1-.2-2.21-.95-3.04l-4.86-5.33c-.72-.79-.29-2.05.75-2.25l6.67-1.25c1.15-.22,2.14-.96,2.67-2.01l3.08-6.12c.25-.5.73-.75,1.21-.75M24,0c-4.04,0-7.67,2.24-9.49,5.84l-1.86,3.69-3.99.75c-3.78.71-6.89,3.42-8.12,7.07-1.22,3.65-.37,7.69,2.22,10.54l3.14,3.44-.61,4.66c-.4,3.04.53,6.09,2.54,8.39,2.02,2.3,4.93,3.63,7.99,3.63,1.68,0,3.36-.41,4.86-1.18l3.31-1.7,3.31,1.7c1.5.77,3.18,1.18,4.86,1.18,3.06,0,5.97-1.32,7.99-3.63,2.01-2.3,2.94-5.36,2.54-8.39l-.61-4.66,3.14-3.44c2.59-2.85,3.45-6.88,2.22-10.53-1.22-3.65-4.33-6.36-8.12-7.07l-3.99-.75-1.86-3.69c-1.82-3.6-5.45-5.84-9.49-5.84h0Z"/>
</svg>