<?xml version="1.0" encoding="UTF-8"?>
<svg id="Layer_1" xmlns="http://www.w3.org/2000/svg" version="1.1" viewBox="0 0 48 48">
  <!-- Generator: Adobe Illustrator 30.1.0, SVG Export Plug-In . SVG Version: 2.1.1 Build 136)  -->
  <path d="M24,3.33c.67,0,1.34.35,1.7,1.05l4.32,8.58c.74,1.47,2.13,2.52,3.74,2.82l9.36,1.75c1.46.27,2.06,2.05,1.05,3.15l-6.82,7.48c-1.05,1.15-1.54,2.71-1.34,4.26l1.33,10.09c.16,1.2-.8,2.16-1.88,2.16-.29,0-.58-.07-.87-.21l-8.18-4.21c-.76-.39-1.59-.59-2.42-.59s-1.66.2-2.42.59l-8.18,4.21c-.29.15-.58.21-.87.21-1.08,0-2.04-.95-1.88-2.16l1.33-10.09c.2-1.55-.28-3.11-1.33-4.26l-6.82-7.48c-1-1.1-.41-2.88,1.05-3.16l9.35-1.75c1.62-.3,3-1.34,3.74-2.82l4.33-8.59c.35-.7,1.02-1.05,1.7-1.05M24,0c-1.99,0-3.78,1.1-4.67,2.88l-4.33,8.59c-.27.54-.79.93-1.38,1.04l-9.35,1.75c-1.86.35-3.39,1.68-4,3.48-.6,1.8-.18,3.79,1.09,5.19l6.82,7.48c.39.43.57,1,.49,1.58l-1.33,10.09c-.2,1.5.26,3,1.25,4.13,1,1.14,2.43,1.79,3.94,1.79.82,0,1.65-.2,2.39-.58l8.18-4.21c.27-.14.58-.22.89-.22s.62.07.89.22l8.18,4.21c.74.38,1.57.58,2.39.58,1.5,0,2.94-.65,3.94-1.79.99-1.13,1.44-2.63,1.25-4.13l-1.33-10.09c-.08-.58.1-1.16.5-1.59l6.82-7.48c1.28-1.4,1.7-3.39,1.09-5.19-.6-1.8-2.13-3.13-3.99-3.48l-9.36-1.75c-.59-.11-1.11-.5-1.38-1.04l-4.32-8.58c-.89-1.77-2.68-2.88-4.67-2.88h0Z"/>
</svg>