<?xml version="1.0" encoding="UTF-8"?>
<svg id="Layer_1" xmlns="http://www.w3.org/2000/svg" version="1.1" viewBox="0 0 48 48">
  <!-- Generator: Adobe Illustrator 30.1.0, SVG Export Plug-In . SVG Version: 2.1.1 Build 136)  -->
  <path d="M24,5.86c.59,0,1.18.31,1.49.92l3.79,7.53c.65,1.29,1.87,2.21,3.29,2.47l8.21,1.54c1.28.24,1.8,1.8.92,2.77l-5.98,6.56c-.92,1.01-1.35,2.38-1.17,3.74l1.17,8.85c.14,1.06-.7,1.89-1.65,1.89-.25,0-.51-.06-.76-.19l-7.18-3.7c-.67-.34-1.39-.51-2.12-.51-.73,0-1.46.17-2.12.51l-7.18,3.7c-.25.13-.51.19-.76.19-.95,0-1.79-.84-1.65-1.89l1.17-8.85c.18-1.36-.25-2.73-1.17-3.74l-5.98-6.56c-.88-.97-.36-2.53.92-2.77l8.21-1.54c1.42-.27,2.63-1.18,3.28-2.47l3.79-7.53c.31-.61.9-.92,1.49-.92M24,0C21.14,0,18.56,1.59,17.27,4.14l-3.52,6.99-7.61,1.43c-2.68.5-4.89,2.42-5.75,5.01-.87,2.59-.26,5.45,1.58,7.47l5.6,6.14-1.09,8.29c-.28,2.15.37,4.32,1.8,5.95,1.43,1.64,3.5,2.57,5.67,2.57,1.19,0,2.38-.29,3.45-.84l6.61-3.41,6.61,3.41c1.07.55,2.26.84,3.45.84,2.17,0,4.23-.94,5.67-2.57,1.43-1.63,2.08-3.8,1.8-5.95l-1.09-8.29,5.6-6.14c1.84-2.02,2.44-4.88,1.58-7.47-.87-2.59-3.07-4.51-5.75-5.01l-7.61-1.43-3.52-6.99C29.44,1.59,26.86,0,24,0h0Z"/>
</svg>