<?xml version="1.0" encoding="UTF-8"?>
<svg id="Layer_1" xmlns="http://www.w3.org/2000/svg" version="1.1" viewBox="0 0 19 19">
  <!-- Generator: Adobe Illustrator 30.1.0, SVG Export Plug-In . SVG Version: 2.1.1 Build 136)  -->
  <circle id="Outer" cx="9.5" cy="9.5" r="8.34" fill="none" stroke="#000" stroke-width="2.32"/>
  <g>
    <g>
      <rect x="8.9" y="12.38" width="1.19" height="1.19"/>
      <path d="M9.91,12.56v.84h-.84v-.84h.84M10.27,12.21h-1.55v1.55h1.55v-1.55h0Z"/>
    </g>
    <g>
      <path d="M8.9,11.11v-.49c0-.44.16-.86.45-1.19l.83-.92c.2-.22.31-.5.31-.79,0-.4-.33-.72-.72-.72h-.53c-.4,0-.72.32-.72.72v.18h-1.2v-.18c0-1.05.86-1.91,1.92-1.91h.53c1.06,0,1.92.86,1.92,1.91,0,.59-.22,1.15-.61,1.59l-.83.92c-.1.11-.15.25-.15.39v.49h-1.19Z"/>
      <path d="M9.77,5.99c.96,0,1.74.78,1.74,1.73,0,.54-.2,1.06-.57,1.47l-.83.92c-.13.14-.2.32-.2.51v.32h-.84v-.32c0-.4.14-.77.41-1.07l.83-.92c.23-.25.35-.57.35-.91,0-.49-.4-.89-.9-.89h-.53c-.5,0-.9.4-.9.89h-.84c0-.95.78-1.73,1.74-1.73h.53M9.77,5.64h-.53c-1.16,0-2.1.94-2.1,2.09v.36h1.55v-.36c0-.3.24-.54.55-.54h.53c.3,0,.55.24.55.54,0,.25-.09.49-.26.67l-.83.92c-.32.36-.5.82-.51,1.3v.32s0,.35,0,.35h1.54v-.35s0-.32,0-.32c0-.1.04-.19.11-.27l.83-.92c.42-.47.66-1.08.66-1.71,0-1.15-.94-2.09-2.1-2.09h0Z"/>
    </g>
  </g>
</svg>