<?xml version="1.0" encoding="UTF-8"?>
<svg id="Layer_1" xmlns="http://www.w3.org/2000/svg" version="1.1" viewBox="0 0 19 19">
  <!-- Generator: Adobe Illustrator 30.1.0, SVG Export Plug-In . SVG Version: 2.1.1 Build 136)  -->
  <circle id="Outer" cx="9.5" cy="9.5" r="7.5" fill="none" stroke="#000" stroke-width="4"/>
  <g>
    <g>
      <rect x="8.89" y="11.74" width="1.22" height="1.22"/>
      <path d="M9.78,12.07v.57h-.57v-.57h.57M10.43,11.41h-1.87v1.87h1.87v-1.87h0Z"/>
    </g>
    <g>
      <path d="M8.89,10.66v-.54c0-.35.13-.69.36-.95l.56-.62c.1-.11.15-.25.15-.4,0-.15-.13-.28-.29-.28h-.36c-.16,0-.28.13-.28.28v.33h-1.23v-.33c0-.83.68-1.5,1.51-1.5h.36c.83,0,1.51.67,1.51,1.5,0,.45-.17.88-.47,1.22l-.56.62s-.05.08-.05.13v.54h-1.22Z"/>
      <path d="M9.68,6.98c.65,0,1.18.53,1.18,1.17,0,.37-.14.72-.38,1l-.56.62c-.09.1-.14.22-.14.35v.21h-.57v-.21c0-.27.1-.52.28-.72l.56-.62c.15-.17.24-.39.24-.62,0-.33-.27-.61-.61-.61h-.36c-.34,0-.61.27-.61.61h-.57c0-.65.53-1.17,1.18-1.17h.36M9.68,6.32h-.36c-1.01,0-1.84.82-1.84,1.83v.65h1.66l-.13.15c-.29.32-.45.73-.45,1.16v.22s0,.65,0,.65h1.86v-.65s0-.16,0-.16l.53-.59c.36-.39.55-.9.55-1.43,0-1.01-.82-1.83-1.84-1.83h0ZM9.36,8.2h.27s-.03.1-.07.13l-.21.23v-.36h0Z"/>
    </g>
  </g>
</svg>