<?xml version="1.0" encoding="UTF-8"?>
<svg id="Layer_1" xmlns="http://www.w3.org/2000/svg" version="1.1" viewBox="0 0 19 19">
  <!-- Generator: Adobe Illustrator 30.1.0, SVG Export Plug-In . SVG Version: 2.1.1 Build 136)  -->
  <circle id="Outer" cx="9.5" cy="9.5" r="8.84" fill="none" stroke="#000" stroke-width="1.32"/>
  <g>
    <g>
      <rect x="8.9" y="12.76" width="1.19" height="1.19"/>
      <path d="M10,12.85v1.01h-1.01v-1.01h1.01M10.18,12.67h-1.37v1.37h1.37v-1.37h0Z"/>
    </g>
    <g>
      <path d="M8.9,11.43v-.47c0-.5.18-.98.52-1.35l1-1.11c.26-.29.4-.66.4-1.04,0-.55-.45-1-1-1h-.64c-.55,0-1,.45-1,1v.09h-1.2v-.09c0-1.21.99-2.19,2.2-2.19h.64c1.21,0,2.2.98,2.2,2.19,0,.68-.25,1.33-.71,1.84l-1,1.11c-.14.16-.22.35-.22.56v.47h-1.19Z"/>
      <path d="M9.82,5.36c1.16,0,2.11.94,2.11,2.1,0,.66-.24,1.29-.69,1.78l-1,1.11c-.16.17-.24.39-.24.62v.38h-1.02v-.38c0-.48.18-.94.5-1.29l1-1.11c.27-.3.43-.7.43-1.1,0-.6-.49-1.08-1.09-1.08h-.64c-.6,0-1.09.49-1.09,1.08h-1.02c0-1.16.95-2.1,2.11-2.1h.64M9.82,5.18h-.64c-1.26,0-2.29,1.02-2.29,2.28v.18h1.38v-.18c0-.5.41-.91.91-.91h.64c.5,0,.91.41.91.91,0,.36-.13.71-.38.98l-1,1.11c-.35.39-.55.89-.55,1.41v.38s0,.18,0,.18h1.36v-.18s0-.38,0-.38c0-.19.07-.36.2-.5l1-1.11c.47-.52.73-1.2.73-1.9,0-1.25-1.03-2.28-2.29-2.28h0Z"/>
    </g>
  </g>
</svg>