<?xml version="1.0" encoding="UTF-8"?>
<svg id="Layer_1" xmlns="http://www.w3.org/2000/svg" version="1.1" viewBox="0 0 19 19">
  <!-- Generator: Adobe Illustrator 30.1.0, SVG Export Plug-In . SVG Version: 2.1.1 Build 136)  -->
  <circle id="Outer" cx="9.5" cy="9.5" r="8.67" fill="none" stroke="#000" stroke-width="1.65"/>
  <g>
    <g>
      <rect x="8.9" y="12.64" width="1.19" height="1.19"/>
      <path d="M9.97,12.76v.95h-.95v-.95h.95M10.21,12.52h-1.43v1.43h1.43v-1.43h0Z"/>
    </g>
    <g>
      <path d="M8.9,11.33v-.48c0-.48.18-.94.5-1.3l.94-1.04c.24-.26.37-.6.37-.96,0-.5-.41-.9-.91-.9h-.61c-.5,0-.91.4-.91.9v.12h-1.2v-.12c0-1.15.94-2.09,2.11-2.09h.61c1.16,0,2.11.94,2.11,2.09,0,.65-.24,1.27-.68,1.75l-.94,1.04c-.13.14-.2.32-.2.5v.48h-1.19Z"/>
      <path d="M9.8,5.57c1.1,0,1.99.89,1.99,1.97,0,.62-.23,1.21-.65,1.67l-.94,1.04c-.15.16-.23.36-.23.58v.36h-.96v-.36c0-.45.16-.88.47-1.22l.94-1.04c.26-.29.4-.65.4-1.04,0-.56-.46-1.02-1.03-1.02h-.61c-.57,0-1.03.46-1.03,1.02h-.96c0-1.09.89-1.97,1.99-1.97h.61M9.8,5.34h-.61c-1.23,0-2.23.99-2.23,2.21v.24h1.44v-.24c0-.43.35-.78.79-.78h.61c.44,0,.79.35.79.78,0,.32-.12.64-.34.88l-.94,1.04c-.34.38-.53.87-.53,1.37v.36s0,.24,0,.24h1.42v-.24s0-.36,0-.36c0-.16.06-.3.17-.42l.94-1.04c.46-.5.71-1.16.71-1.83,0-1.22-1-2.21-2.23-2.21h0Z"/>
    </g>
  </g>
</svg>