<?xml version="1.0" encoding="UTF-8"?>
<svg id="Layer_1" xmlns="http://www.w3.org/2000/svg" version="1.1" viewBox="0 0 19 19">
  <!-- Generator: Adobe Illustrator 30.1.0, SVG Export Plug-In . SVG Version: 2.1.1 Build 136)  -->
  <circle id="Outer" cx="9.5" cy="9.5" r="8" fill="none" stroke="#000" stroke-width="3"/>
  <g>
    <g>
      <rect x="8.9" y="12.13" width="1.2" height="1.2"/>
      <path d="M9.86,12.36v.72h-.72v-.72h.72M10.33,11.89h-1.67v1.67h1.67v-1.67h0Z"/>
    </g>
    <g>
      <path d="M8.9,10.92v-.51c0-.4.15-.79.42-1.08l.71-.79c.16-.17.24-.4.24-.63,0-.3-.24-.54-.54-.54h-.46c-.3,0-.54.24-.54.54v.24h-1.2v-.24c0-.96.78-1.74,1.75-1.74h.46c.96,0,1.75.78,1.75,1.74,0,.53-.2,1.04-.55,1.43l-.72.79c-.07.08-.11.18-.11.28v.51h-1.2Z"/>
      <path d="M9.73,6.4c.83,0,1.51.67,1.51,1.5,0,.47-.17.92-.49,1.27l-.72.79c-.11.12-.17.28-.17.44v.27h-.73v-.27c0-.34.13-.67.36-.92l.72-.79c.2-.22.3-.5.3-.79,0-.43-.35-.77-.78-.77h-.46c-.43,0-.78.35-.78.77h-.73c0-.83.68-1.5,1.51-1.5h.46M9.73,5.93h-.46c-1.09,0-1.98.89-1.98,1.97v.48h1.68v-.48c0-.17.14-.3.3-.3h.46c.17,0,.3.13.3.3,0,.17-.06.34-.18.47l-.72.79c-.31.34-.48.78-.48,1.24v.28s0,.47,0,.47h1.66v-.47s0-.27,0-.27c0-.05.02-.09.05-.13l.72-.79c.39-.44.61-1,.61-1.59,0-1.09-.89-1.97-1.98-1.97h0Z"/>
    </g>
  </g>
</svg>