<?xml version="1.0" encoding="UTF-8"?>
<svg id="Layer_1" xmlns="http://www.w3.org/2000/svg" version="1.1" viewBox="0 0 19 19">
  <!-- Generator: Adobe Illustrator 30.1.0, SVG Export Plug-In . SVG Version: 2.1.1 Build 136)  -->
  <circle id="Outer" cx="9.5" cy="9.5" r="7.67" fill="none" stroke="#000" stroke-width="3.67"/>
  <g>
    <g>
      <rect x="8.89" y="11.87" width="1.21" height="1.21"/>
      <path d="M9.8,12.17v.62h-.62v-.62h.62M10.4,11.57h-1.8v1.8h1.8v-1.8h0Z"/>
    </g>
    <g>
      <path d="M8.89,10.74v-.53c0-.37.13-.72.38-.99l.61-.68c.12-.13.18-.3.18-.47,0-.2-.17-.36-.37-.36h-.39c-.2,0-.37.16-.37.36v.3h-1.22v-.3c0-.87.71-1.58,1.58-1.58h.39c.87,0,1.58.71,1.58,1.58,0,.47-.18.93-.49,1.28l-.61.68c-.05.05-.07.11-.07.18v.53h-1.21Z"/>
      <path d="M9.7,6.79c.71,0,1.29.57,1.29,1.28,0,.4-.15.79-.42,1.08l-.61.68c-.09.1-.15.23-.15.38v.23h-.62v-.23c0-.29.11-.57.3-.79l.61-.68c.17-.19.26-.42.26-.67,0-.36-.3-.66-.67-.66h-.39c-.37,0-.67.3-.67.66h-.62c0-.7.58-1.28,1.29-1.28h.39M9.7,6.2h-.39c-1.04,0-1.88.84-1.88,1.87v.59h1.81v-.59s.03-.07.07-.07h.39s.07.03.07.07c0,.1-.04.2-.11.27l-.61.68c-.29.32-.46.75-.46,1.18v.24s0,.59,0,.59h1.79v-.59s0-.23,0-.23l.61-.66c.37-.41.57-.93.57-1.48,0-1.03-.84-1.87-1.88-1.87h0Z"/>
    </g>
  </g>
</svg>