<?xml version="1.0" encoding="UTF-8"?>
<svg id="Layer_1" xmlns="http://www.w3.org/2000/svg" version="1.1" viewBox="0 0 28 28">
  <!-- Generator: Adobe Illustrator 30.1.0, SVG Export Plug-In . SVG Version: 2.1.1 Build 136)  -->
  <circle id="Outer" cx="14" cy="14" r="12.29" fill="none" stroke="#000" stroke-width="3.42"/>
  <g>
    <g>
      <rect x="13.11" y="18.25" width="1.76" height="1.76"/>
      <path d="M14.61,18.51v1.23h-1.23v-1.23h1.23M15.13,17.99h-2.28v2.28h2.28v-2.28h0Z"/>
    </g>
    <g>
      <path d="M13.12,16.38v-.73c0-.65.24-1.27.67-1.75l1.22-1.35c.29-.32.45-.74.45-1.17,0-.58-.48-1.06-1.07-1.06h-.78c-.59,0-1.07.47-1.07,1.06v.26h-1.77v-.26c0-1.55,1.27-2.81,2.83-2.81h.78c1.56,0,2.83,1.26,2.83,2.81,0,.87-.32,1.7-.9,2.34l-1.22,1.35c-.15.16-.23.36-.23.57v.73h-1.76Z"/>
      <path d="M14.39,8.83c1.42,0,2.57,1.14,2.57,2.55,0,.8-.3,1.57-.83,2.17l-1.22,1.35c-.19.21-.29.47-.29.75v.47h-1.24v-.47c0-.58.21-1.14.61-1.57l1.22-1.35c.33-.37.52-.85.52-1.34,0-.73-.6-1.32-1.33-1.32h-.78c-.73,0-1.33.59-1.33,1.32h-1.24c0-1.41,1.15-2.55,2.57-2.55h.78M14.39,8.31h-.78c-1.71,0-3.09,1.38-3.09,3.08v.52h2.29v-.52c0-.44.36-.79.8-.79h.78c.44,0,.8.36.8.79,0,.37-.14.72-.38.99l-1.22,1.35c-.48.53-.74,1.21-.74,1.92v.47s0,.52,0,.52h2.27v-.52s0-.47,0-.47c0-.15.05-.29.16-.4l1.22-1.35c.63-.69.97-1.59.97-2.52,0-1.7-1.39-3.08-3.09-3.08h0Z"/>
    </g>
  </g>
</svg>