<?xml version="1.0" encoding="UTF-8"?>
<svg id="Layer_1" xmlns="http://www.w3.org/2000/svg" version="1.1" viewBox="0 0 28 28">
  <!-- Generator: Adobe Illustrator 30.1.0, SVG Export Plug-In . SVG Version: 2.1.1 Build 136)  -->
  <circle id="Outer" cx="14" cy="14" r="11.79" fill="none" stroke="#000" stroke-width="4.42"/>
  <g>
    <g>
      <rect x="13.11" y="17.87" width="1.76" height="1.76"/>
      <path d="M14.52,18.22v1.06h-1.06v-1.06h1.06M15.22,17.52h-2.46v2.46h2.46v-2.46h0Z"/>
    </g>
    <g>
      <path d="M13.11,16.09v-.75c0-.59.21-1.16.61-1.6l1.05-1.17c.23-.26.36-.58.36-.93,0-.44-.36-.79-.8-.79h-.68c-.44,0-.8.35-.8.79v.35h-1.77v-.35c0-1.41,1.15-2.56,2.57-2.56h.68c1.42,0,2.57,1.15,2.57,2.56,0,.78-.29,1.53-.81,2.11l-1.05,1.17c-.11.12-.16.26-.16.42v.75h-1.77Z"/>
      <path d="M14.34,9.44c1.23,0,2.22.99,2.22,2.21,0,.69-.26,1.36-.72,1.87l-1.05,1.17c-.16.18-.25.41-.25.65v.4h-1.07v-.4c0-.5.18-.99.52-1.36l1.05-1.17c.29-.32.45-.73.45-1.16,0-.63-.52-1.14-1.15-1.14h-.68c-.63,0-1.15.51-1.15,1.14h-1.07c0-1.22,1-2.21,2.22-2.21h.68M14.34,8.74h-.68c-1.61,0-2.92,1.3-2.92,2.91v.7h2.47v-.7c0-.24.2-.44.45-.44h.68c.25,0,.45.2.45.44,0,.26-.09.5-.27.69l-1.05,1.17c-.45.5-.71,1.15-.71,1.83v.41s0,.69,0,.69h2.45v-.69s.01-.4.01-.4c0-.07.02-.13.07-.19l1.06-1.17c.58-.64.9-1.48.9-2.34,0-1.6-1.31-2.91-2.92-2.91h0Z"/>
    </g>
  </g>
</svg>