<?xml version="1.0" encoding="UTF-8"?>
<svg id="Layer_1" xmlns="http://www.w3.org/2000/svg" version="1.1" viewBox="0 0 28 28">
  <!-- Generator: Adobe Illustrator 30.1.0, SVG Export Plug-In . SVG Version: 2.1.1 Build 136)  -->
  <circle id="Outer" cx="14" cy="14" r="11.05" fill="none" stroke="#000" stroke-width="5.9"/>
  <g>
    <g>
      <rect x="13.09" y="17.3" width="1.8" height="1.8"/>
      <path d="M14.41,17.78v.83h-.83v-.83h.83M15.37,16.82h-2.76v2.76h2.76v-2.76h0Z"/>
    </g>
    <g>
      <path d="M13.1,15.7v-.79c0-.52.19-1.01.53-1.39l.83-.92c.15-.16.23-.37.23-.59,0-.23-.19-.41-.42-.41h-.53c-.23,0-.42.19-.42.41v.48h-1.81v-.48c0-1.22,1-2.21,2.22-2.21h.53c1.23,0,2.22.99,2.22,2.21,0,.66-.25,1.3-.69,1.79l-.83.92c-.05.06-.08.12-.08.19v.8h-1.8Z"/>
      <path d="M14.27,10.28c.96,0,1.74.78,1.74,1.73,0,.54-.2,1.06-.57,1.47l-.83.92c-.13.14-.2.32-.2.51v.32h-.84v-.32c0-.4.14-.77.41-1.07l.83-.92c.23-.25.35-.57.35-.91,0-.49-.4-.89-.9-.89h-.53c-.5,0-.9.4-.9.89h-.84c0-.95.78-1.73,1.74-1.73h.53M14.27,9.32h-.53c-1.49,0-2.71,1.21-2.71,2.69v.96h2.44l-.2.22c-.42.47-.66,1.08-.66,1.71v.33s.01.95.01.95h2.74v-.95s.01-.24.01-.24l.78-.86c.52-.58.81-1.33.81-2.11,0-1.49-1.21-2.69-2.71-2.69h0ZM13.8,12.08h.4c-.01.07-.05.14-.1.2l-.31.34v-.54h0Z"/>
    </g>
  </g>
</svg>