<?xml version="1.0" encoding="UTF-8"?>
<svg id="Layer_1" xmlns="http://www.w3.org/2000/svg" version="1.1" viewBox="0 0 28 28">
  <!-- Generator: Adobe Illustrator 30.1.0, SVG Export Plug-In . SVG Version: 2.1.1 Build 136)  -->
  <circle id="Outer" cx="14" cy="14" r="11.3" fill="none" stroke="#000" stroke-width="5.41"/>
  <g>
    <g>
      <rect x="13.1" y="17.49" width="1.78" height="1.78"/>
      <path d="M14.45,17.93v.91h-.91v-.91h.91M15.32,17.05h-2.66v2.66h2.66v-2.66h0Z"/>
    </g>
    <g>
      <path d="M13.11,15.82v-.78c0-.54.2-1.06.56-1.46l.9-1c.17-.19.27-.44.27-.7,0-.3-.24-.54-.54-.54h-.58c-.3,0-.54.24-.54.54v.44h-1.79v-.44c0-1.28,1.05-2.32,2.33-2.32h.58c1.29,0,2.33,1.04,2.33,2.32,0,.7-.26,1.37-.73,1.89l-.9,1c-.07.08-.1.16-.1.26v.78h-1.78Z"/>
      <path d="M14.29,10.01c1.05,0,1.9.85,1.9,1.88,0,.59-.22,1.16-.62,1.6l-.9,1c-.14.15-.22.35-.22.55v.34h-.91v-.34c0-.43.16-.84.45-1.16l.9-1c.25-.27.38-.62.38-.99,0-.54-.44-.97-.98-.97h-.58c-.54,0-.98.44-.98.97h-.92c0-1.04.85-1.88,1.9-1.88h.58M14.29,9.13h-.58c-1.53,0-2.77,1.24-2.77,2.76v.88h2.67v-.88c0-.05.05-.1.11-.1h.58c.06,0,.11.05.11.1,0,.15-.06.29-.16.4l-.9,1c-.43.48-.67,1.1-.68,1.74v.35s.01.87.01.87h2.64v-.87s.01-.34.01-.34l.89-.97c.54-.6.84-1.38.84-2.19,0-1.52-1.24-2.76-2.77-2.76h0Z"/>
    </g>
  </g>
</svg>