<?xml version="1.0" encoding="UTF-8"?>
<svg id="Layer_1" xmlns="http://www.w3.org/2000/svg" version="1.1" viewBox="0 0 28 28">
  <!-- Generator: Adobe Illustrator 30.1.0, SVG Export Plug-In . SVG Version: 2.1.1 Build 136)  -->
  <circle id="Outer" cx="14" cy="14" r="12.78" fill="none" stroke="#000" stroke-width="2.43"/>
  <g>
    <g>
      <rect x="13.12" y="18.62" width="1.75" height="1.75"/>
      <path d="M14.69,18.8v1.4h-1.4v-1.4h1.4M15.04,18.45h-2.1v2.1h2.1v-2.1h0Z"/>
    </g>
    <g>
      <path d="M13.12,16.69v-.7c0-.71.26-1.39.73-1.91l1.39-1.54c.35-.39.54-.89.54-1.41,0-.73-.6-1.33-1.34-1.33h-.89c-.74,0-1.34.6-1.34,1.33v.17h-1.76v-.17c0-1.7,1.39-3.08,3.1-3.08h.89c1.71,0,3.1,1.38,3.1,3.08,0,.96-.35,1.87-1,2.58l-1.39,1.54c-.19.21-.29.46-.29.74v.7h-1.76Z"/>
      <path d="M14.45,8.21c1.62,0,2.93,1.3,2.93,2.91,0,.91-.34,1.79-.95,2.47l-1.39,1.54c-.22.24-.33.53-.34.85v.53h-1.41v-.53c0-.66.24-1.3.69-1.79l1.39-1.54c.38-.42.59-.96.59-1.53,0-.83-.68-1.5-1.51-1.5h-.89c-.83,0-1.51.67-1.51,1.5h-1.42c0-1.6,1.31-2.91,2.93-2.91h.89M14.45,7.86h-.89c-1.81,0-3.28,1.46-3.28,3.26v.35h2.12v-.35c0-.64.52-1.15,1.16-1.15h.89c.64,0,1.16.52,1.16,1.15,0,.48-.18.94-.5,1.3l-1.39,1.54c-.5.56-.78,1.28-.78,2.03v.53s0,.35,0,.35h2.1v-.35s0-.53,0-.53c0-.23.09-.45.25-.62l1.39-1.54c.67-.74,1.04-1.7,1.04-2.7,0-1.8-1.47-3.26-3.28-3.26h0Z"/>
    </g>
  </g>
</svg>