<?xml version="1.0" encoding="UTF-8"?>
<svg id="Layer_1" xmlns="http://www.w3.org/2000/svg" version="1.1" viewBox="0 0 28 28">
  <!-- Generator: Adobe Illustrator 30.1.0, SVG Export Plug-In . SVG Version: 2.1.1 Build 136)  -->
  <circle id="Outer" cx="14" cy="14" r="13.03" fill="none" stroke="#000" stroke-width="1.94"/>
  <g>
    <g>
      <rect x="13.11" y="18.81" width="1.75" height="1.75"/>
      <path d="M14.74,18.94v1.49h-1.49v-1.49h1.49M15,18.68h-2.02v2.02h2.02v-2.02h0Z"/>
    </g>
    <g>
      <path d="M13.12,16.85v-.69c0-.74.27-1.45.77-1.99l1.48-1.64c.38-.42.59-.97.59-1.54,0-.81-.66-1.47-1.48-1.47h-.95c-.81,0-1.48.66-1.48,1.47v.13h-1.77v-.13c0-1.78,1.46-3.22,3.24-3.22h.95c1.79,0,3.24,1.45,3.24,3.22,0,1-.37,1.96-1.04,2.71l-1.48,1.64c-.21.23-.32.52-.32.82v.69h-1.76Z"/>
      <path d="M14.47,7.9c1.72,0,3.11,1.39,3.11,3.09,0,.97-.36,1.9-1.01,2.62l-1.48,1.64c-.23.25-.36.57-.36.91v.56h-1.5v-.56c0-.71.26-1.38.73-1.91l1.48-1.64c.4-.45.63-1.03.63-1.63,0-.88-.72-1.6-1.61-1.6h-.95c-.89,0-1.61.72-1.61,1.6h-1.5c0-1.7,1.4-3.09,3.11-3.09h.95M14.47,7.64h-.95c-1.86,0-3.38,1.5-3.38,3.35v.26h2.03v-.26c0-.74.6-1.34,1.35-1.34h.95c.74,0,1.35.6,1.35,1.34,0,.54-.2,1.05-.56,1.45l-1.48,1.64c-.52.57-.8,1.31-.81,2.08v.57s0,.26,0,.26h2.01v-.26s0-.56,0-.56c0-.27.1-.53.29-.73l1.48-1.64c.7-.77,1.08-1.76,1.08-2.8,0-1.85-1.51-3.35-3.38-3.35h0Z"/>
    </g>
  </g>
</svg>