<?xml version="1.0" encoding="UTF-8"?>
<svg id="Layer_1" xmlns="http://www.w3.org/2000/svg" version="1.1" viewBox="0 0 120 120">
  <!-- Generator: Adobe Illustrator 30.1.0, SVG Export Plug-In . SVG Version: 2.1.1 Build 136)  -->
  <path d="M60,10.43c1.61,0,3.22.84,4.07,2.51l10.37,20.59c1.78,3.53,5.1,6.03,8.98,6.76l22.44,4.21c3.51.66,4.93,4.92,2.52,7.56l-16.35,17.94c-2.52,2.77-3.7,6.51-3.21,10.23l3.19,24.19c.38,2.89-1.92,5.17-4.51,5.17-.69,0-1.4-.16-2.08-.51l-19.63-10.11c-1.82-.94-3.81-1.41-5.8-1.41-1.99,0-3.98.47-5.8,1.41l-19.63,10.11c-.68.35-1.39.51-2.08.51-2.59,0-4.89-2.29-4.51-5.17l3.19-24.2c.49-3.71-.68-7.45-3.2-10.22l-16.35-17.94c-2.41-2.64-.98-6.91,2.53-7.57l22.44-4.21c3.88-.73,7.2-3.22,8.98-6.76l10.37-20.59c.84-1.67,2.45-2.51,4.07-2.51M60,0C54.31,0,49.18,3.16,46.62,8.24l-10.37,20.59c-.31.62-.91,1.07-1.59,1.2l-22.44,4.21c-5.33,1-9.72,4.82-11.45,9.97-1.73,5.15-.53,10.85,3.13,14.87l16.35,17.94c.45.5.66,1.16.57,1.83l-3.19,24.2c-.57,4.28.74,8.6,3.57,11.83,2.86,3.26,6.97,5.13,11.27,5.13,2.36,0,4.73-.58,6.85-1.67l19.63-10.11c.32-.16.66-.25,1.02-.25.35,0,.71.09,1.02.25l19.63,10.11c2.12,1.09,4.49,1.67,6.85,1.67,4.31,0,8.42-1.87,11.27-5.13,2.84-3.24,4.14-7.55,3.57-11.83l-3.19-24.19c-.09-.67.12-1.34.58-1.84l16.35-17.94c3.66-4.02,4.86-9.71,3.13-14.86-1.72-5.15-6.11-8.97-11.44-9.97l-22.44-4.21c-.68-.13-1.28-.58-1.59-1.2l-10.37-20.59C70.81,3.16,65.69,0,60,0h0Z"/>
</svg>