<?xml version="1.0" encoding="UTF-8"?>
<svg id="Layer_1" xmlns="http://www.w3.org/2000/svg" version="1.1" viewBox="0 0 120 120">
  <!-- Generator: Adobe Illustrator 30.1.0, SVG Export Plug-In . SVG Version: 2.1.1 Build 136)  -->
  <path d="M60,14.66c1.47,0,2.95.76,3.72,2.29l9.49,18.83c1.63,3.23,4.66,5.52,8.21,6.18l20.52,3.85c3.21.6,4.51,4.5,2.31,6.92l-14.95,16.41c-2.31,2.53-3.38,5.95-2.93,9.35l2.92,22.12c.35,2.64-1.76,4.73-4.13,4.73-.63,0-1.28-.15-1.9-.47l-17.95-9.24c-1.66-.86-3.48-1.29-5.3-1.29s-3.64.43-5.3,1.29l-17.95,9.24c-.63.32-1.27.47-1.9.47-2.37,0-4.48-2.09-4.13-4.73l2.92-22.13c.45-3.39-.62-6.81-2.93-9.34l-14.95-16.41c-2.2-2.42-.9-6.32,2.31-6.92l20.52-3.85c3.55-.66,6.58-2.95,8.21-6.18l9.49-18.83c.77-1.53,2.24-2.29,3.72-2.29M60,0C52.85,0,46.4,3.97,43.19,10.36l-8.8,17.48-19.02,3.56c-6.71,1.26-12.22,6.06-14.39,12.53-2.17,6.48-.66,13.63,3.94,18.68l14,15.36-2.73,20.73c-.71,5.38.93,10.8,4.5,14.87,3.59,4.09,8.75,6.44,14.17,6.44,2.97,0,5.95-.72,8.62-2.1l16.54-8.52,16.54,8.52c2.66,1.37,5.64,2.1,8.62,2.1,5.42,0,10.58-2.35,14.17-6.44,3.57-4.07,5.21-9.49,4.5-14.87l-2.73-20.73,14-15.36c4.6-5.05,6.11-12.2,3.94-18.68-2.17-6.47-7.68-11.27-14.38-12.53l-19.02-3.57-8.8-17.48C73.59,3.97,67.15,0,60,0h0Z"/>
</svg>