<?xml version="1.0" encoding="UTF-8"?>
<svg id="Layer_1" xmlns="http://www.w3.org/2000/svg" version="1.1" viewBox="0 0 120 120">
  <!-- Generator: Adobe Illustrator 30.1.0, SVG Export Plug-In . SVG Version: 2.1.1 Build 136)  -->
  <path d="M60,23.18c1.2,0,2.39.62,3.02,1.86l7.7,15.29c1.32,2.62,3.79,4.48,6.67,5.02l16.67,3.12c2.61.49,3.66,3.66,1.88,5.62l-12.14,13.33c-1.87,2.06-2.75,4.84-2.38,7.6l2.37,17.97c.28,2.14-1.43,3.84-3.35,3.84-.51,0-1.04-.12-1.55-.38l-14.58-7.51c-1.35-.7-2.83-1.04-4.31-1.04s-2.95.35-4.31,1.04l-14.58,7.51c-.51.26-1.04.38-1.55.38-1.93,0-3.64-1.7-3.35-3.84l2.37-17.97c.36-2.76-.51-5.53-2.38-7.59l-12.14-13.33c-1.79-1.96-.73-5.13,1.88-5.62l16.67-3.12c2.88-.54,5.35-2.4,6.67-5.02l7.71-15.3c.63-1.24,1.82-1.86,3.02-1.86M60,0C49.91,0,40.82,5.6,36.28,14.61l-4.64,9.22-9.97,1.87c-9.46,1.77-17.23,8.54-20.29,17.67-3.06,9.13-.93,19.22,5.55,26.34l7.84,8.6-1.54,11.64c-1,7.59,1.31,15.24,6.35,20.98,5.05,5.76,12.33,9.07,19.98,9.07,4.2,0,8.41-1.02,12.16-2.95l8.27-4.26,8.27,4.26c3.75,1.93,7.95,2.95,12.16,2.95,7.64,0,14.93-3.3,19.98-9.07,5.04-5.75,7.35-13.39,6.35-20.98l-1.54-11.64,7.84-8.61c6.48-7.12,8.61-17.21,5.55-26.34-3.06-9.13-10.83-15.9-20.29-17.67l-9.97-1.87-4.64-9.22C79.18,5.6,70.09,0,60,0h0Z"/>
</svg>