<?xml version="1.0" encoding="UTF-8"?>
<svg id="Layer_1" xmlns="http://www.w3.org/2000/svg" version="1.1" viewBox="0 0 120 120">
  <!-- Generator: Adobe Illustrator 30.1.0, SVG Export Plug-In . SVG Version: 2.1.1 Build 136)  -->
  <path d="M60,8.32c1.68,0,3.36.87,4.24,2.61l10.81,21.46c1.86,3.68,5.32,6.29,9.36,7.05l23.39,4.38c3.66.69,5.14,5.13,2.63,7.88l-17.04,18.7c-2.63,2.89-3.85,6.79-3.34,10.66l3.33,25.21c.4,3.01-2,5.39-4.7,5.39-.72,0-1.46-.17-2.17-.54l-20.46-10.54c-1.9-.98-3.97-1.46-6.04-1.46-2.07,0-4.15.49-6.04,1.47l-20.46,10.54c-.71.37-1.45.54-2.17.54-2.7,0-5.1-2.38-4.7-5.39l3.33-25.22c.51-3.87-.71-7.77-3.34-10.65l-17.04-18.7c-2.51-2.75-1.03-7.2,2.63-7.89l23.39-4.38c4.04-.76,7.5-3.36,9.36-7.04l10.81-21.46c.88-1.74,2.56-2.61,4.24-2.61M60,0C55.03,0,50.56,2.76,48.33,7.19l-10.81,21.46c-.68,1.35-1.97,2.33-3.46,2.6l-23.39,4.38c-4.66.87-8.48,4.21-9.99,8.7-1.51,4.5-.46,9.47,2.74,12.98l17.04,18.7c.98,1.07,1.43,2.51,1.24,3.95l-3.33,25.22c-.49,3.74.64,7.5,3.12,10.33,2.49,2.85,6.08,4.48,9.84,4.48,2.06,0,4.13-.5,5.98-1.46l20.46-10.54c.69-.35,1.46-.54,2.23-.54.77,0,1.54.19,2.23.54l20.46,10.54c1.85.95,3.92,1.46,5.98,1.46,3.76,0,7.35-1.63,9.84-4.48,2.47-2.82,3.61-6.59,3.12-10.33l-3.33-25.21c-.19-1.45.26-2.89,1.24-3.97l17.04-18.7c3.19-3.5,4.24-8.48,2.74-12.97-1.51-4.49-5.33-7.83-9.99-8.7l-23.39-4.38c-1.48-.28-2.78-1.25-3.46-2.61l-10.81-21.46C69.44,2.76,64.96,0,60,0h0Z"/>
</svg>