<?xml version="1.0" encoding="UTF-8"?>
<svg id="Layer_1" xmlns="http://www.w3.org/2000/svg" version="1.1" viewBox="0 0 120 120">
  <!-- Generator: Adobe Illustrator 30.1.0, SVG Export Plug-In . SVG Version: 2.1.1 Build 136)  -->
  <path d="M60,18.94c1.34,0,2.67.69,3.37,2.08l8.59,17.05c1.47,2.93,4.22,5,7.44,5.6l18.58,3.48c2.91.54,4.08,4.08,2.09,6.26l-13.54,14.86c-2.09,2.29-3.06,5.39-2.65,8.47l2.64,20.03c.32,2.39-1.59,4.28-3.74,4.28-.57,0-1.16-.13-1.72-.43l-16.26-8.37c-1.51-.78-3.15-1.16-4.8-1.16s-3.29.39-4.8,1.16l-16.26,8.37c-.57.29-1.15.43-1.72.43-2.15,0-4.05-1.89-3.74-4.28l2.64-20.04c.41-3.07-.57-6.17-2.65-8.46l-13.54-14.86c-1.99-2.19-.82-5.72,2.09-6.27l18.58-3.48c3.21-.6,5.96-2.67,7.44-5.6l8.59-17.06c.7-1.38,2.03-2.08,3.37-2.08M60,0C51.37,0,43.6,4.79,39.72,12.49l-6.71,13.33-14.47,2.71c-8.09,1.52-14.74,7.31-17.35,15.11-2.62,7.81-.8,16.44,4.75,22.53l10.9,11.97-2.13,16.16c-.86,6.49,1.12,13.03,5.43,17.94,4.32,4.93,10.55,7.76,17.09,7.76,3.59,0,7.18-.87,10.39-2.53l12.39-6.38,12.39,6.38c3.21,1.65,6.8,2.53,10.39,2.53,6.54,0,12.76-2.83,17.09-7.76,4.31-4.91,6.28-11.45,5.43-17.94l-2.13-16.16,10.91-11.97c5.55-6.09,7.37-14.72,4.75-22.52-2.61-7.8-9.26-13.59-17.35-15.11l-14.48-2.71-6.71-13.33C76.4,4.79,68.63,0,60,0h0Z"/>
</svg>