<?xml version="1.0" encoding="UTF-8"?>
<svg id="Layer_1" xmlns="http://www.w3.org/2000/svg" version="1.1" viewBox="0 0 58 58">
  <!-- Generator: Adobe Illustrator 30.1.0, SVG Export Plug-In . SVG Version: 2.1.1 Build 136)  -->
  <path d="M29,5.04c.78,0,1.56.4,1.97,1.21l5.01,9.95c.86,1.71,2.47,2.92,4.34,3.27l10.84,2.03c1.7.32,2.38,2.38,1.22,3.66l-7.9,8.67c-1.22,1.34-1.79,3.15-1.55,4.94l1.54,11.69c.18,1.39-.93,2.5-2.18,2.5-.33,0-.67-.08-1.01-.25l-9.49-4.89c-.88-.45-1.84-.68-2.8-.68s-1.92.23-2.8.68l-9.49,4.89c-.33.17-.67.25-1.01.25-1.25,0-2.37-1.1-2.18-2.5l1.54-11.69c.24-1.79-.33-3.6-1.55-4.94l-7.9-8.67c-1.16-1.28-.48-3.34,1.22-3.66l10.84-2.03c1.87-.35,3.48-1.56,4.34-3.27l5.01-9.95c.41-.81,1.19-1.21,1.97-1.21M29,0C26.25,0,23.77,1.53,22.53,3.98l-5.01,9.95c-.15.3-.44.52-.77.58l-10.84,2.03c-2.58.48-4.7,2.33-5.53,4.82-.83,2.49-.25,5.24,1.52,7.19l7.9,8.67c.22.24.32.56.28.88l-1.54,11.69c-.27,2.07.36,4.16,1.73,5.72,1.38,1.57,3.37,2.48,5.45,2.48,1.14,0,2.29-.28,3.31-.81l9.49-4.89c.15-.08.32-.12.49-.12s.34.04.49.12l9.49,4.89c1.03.53,2.17.81,3.31.81,2.08,0,4.07-.9,5.45-2.48,1.37-1.56,2-3.65,1.73-5.72l-1.54-11.69c-.04-.33.06-.65.28-.89l7.9-8.67c1.77-1.94,2.35-4.69,1.51-7.18-.83-2.49-2.95-4.33-5.53-4.82l-10.84-2.03c-.33-.06-.62-.28-.77-.58l-5.01-9.95C34.23,1.53,31.75,0,29,0h0Z"/>
</svg>