<?xml version="1.0" encoding="UTF-8"?>
<svg id="Layer_1" xmlns="http://www.w3.org/2000/svg" version="1.1" viewBox="0 0 58 58">
  <!-- Generator: Adobe Illustrator 30.1.0, SVG Export Plug-In . SVG Version: 2.1.1 Build 136)  -->
  <path d="M29,9.15c.65,0,1.29.33,1.63,1l4.15,8.24c.71,1.41,2.04,2.41,3.6,2.71l8.98,1.68c1.4.26,1.97,1.97,1.01,3.03l-6.54,7.18c-1.01,1.11-1.48,2.61-1.28,4.09l1.28,9.68c.15,1.16-.77,2.07-1.81,2.07-.28,0-.56-.06-.83-.21l-7.86-4.05c-.73-.38-1.52-.56-2.32-.56s-1.59.19-2.32.56l-7.86,4.05c-.27.14-.56.21-.83.21-1.04,0-1.96-.91-1.81-2.07l1.28-9.69c.2-1.49-.27-2.98-1.28-4.09l-6.55-7.18c-.96-1.06-.39-2.77,1.01-3.03l8.98-1.68c1.55-.29,2.88-1.29,3.59-2.7l4.15-8.24c.34-.67.98-1,1.63-1M29,0C24.83,0,21.07,2.31,19.2,6.04l-3.25,6.44-6.99,1.31c-3.91.73-7.12,3.53-8.39,7.3-1.26,3.77-.38,7.95,2.3,10.89l5.27,5.78-1.03,7.81c-.41,3.14.54,6.3,2.62,8.67,2.09,2.38,5.1,3.75,8.26,3.75,1.74,0,3.47-.42,5.02-1.22l5.99-3.08,5.99,3.08c1.55.8,3.29,1.22,5.02,1.22,3.16,0,6.17-1.37,8.26-3.75,2.08-2.37,3.04-5.53,2.62-8.67l-1.03-7.81,5.27-5.79c2.68-2.94,3.56-7.11,2.3-10.89-1.26-3.77-4.48-6.57-8.39-7.3l-7-1.31-3.25-6.44C36.93,2.31,33.17,0,29,0h0Z"/>
</svg>