<?xml version="1.0" encoding="UTF-8"?>
<svg id="Layer_1" xmlns="http://www.w3.org/2000/svg" version="1.1" viewBox="0 0 40 40">
  <!-- Generator: Adobe Illustrator 30.1.0, SVG Export Plug-In . SVG Version: 2.1.1 Build 136)  -->
  <circle id="Outer" cx="20" cy="20" r="17.56" fill="none" stroke="#000" stroke-width="4.89"/>
  <g>
    <g>
      <rect x="18.73" y="26.07" width="2.51" height="2.51"/>
      <path d="M20.87,26.45v1.76h-1.76v-1.76h1.76M21.62,25.7h-3.26v3.26h3.26v-3.26h0Z"/>
    </g>
    <g>
      <path d="M18.74,23.4v-1.04c0-.93.34-1.82.96-2.5l1.74-1.93c.41-.46.64-1.05.64-1.67,0-.83-.68-1.51-1.52-1.51h-1.12c-.84,0-1.52.68-1.52,1.51v.38h-2.52v-.38c0-2.22,1.81-4.02,4.05-4.02h1.12c2.23,0,4.05,1.8,4.05,4.02,0,1.24-.46,2.42-1.29,3.34l-1.74,1.93c-.21.23-.32.52-.32.82v1.04h-2.51Z"/>
      <path d="M20.56,12.62c2.02,0,3.67,1.64,3.67,3.65,0,1.14-.42,2.24-1.19,3.09l-1.74,1.93c-.27.3-.42.67-.42,1.07v.66h-1.76v-.66c0-.83.3-1.63.86-2.25l1.74-1.93c.48-.53.74-1.21.74-1.92,0-1.04-.85-1.88-1.9-1.88h-1.12c-1.05,0-1.9.85-1.9,1.88h-1.77c0-2.01,1.65-3.65,3.67-3.65h1.12M20.56,11.87h-1.12c-2.44,0-4.42,1.97-4.42,4.4v.75h3.27v-.75c0-.63.51-1.13,1.15-1.13h1.12c.63,0,1.15.51,1.15,1.13,0,.52-.19,1.03-.55,1.41l-1.74,1.93c-.68.75-1.06,1.73-1.06,2.75v.67s.01.74.01.74h3.24v-.74s.01-.66.01-.66c0-.22.08-.41.23-.58l1.74-1.93c.89-.99,1.39-2.27,1.39-3.6,0-2.42-1.98-4.4-4.42-4.4h0Z"/>
    </g>
  </g>
</svg>