<?xml version="1.0" encoding="UTF-8"?>
<svg id="Layer_1" xmlns="http://www.w3.org/2000/svg" version="1.1" viewBox="0 0 40 40">
  <!-- Generator: Adobe Illustrator 30.1.0, SVG Export Plug-In . SVG Version: 2.1.1 Build 136)  -->
  <circle id="Outer" cx="20" cy="20" r="15.79" fill="none" stroke="#000" stroke-width="8.43"/>
  <g>
    <g>
      <rect x="18.71" y="24.71" width="2.57" height="2.57"/>
      <path d="M20.59,25.4v1.19h-1.19v-1.19h1.19M21.96,24.03h-3.94v3.94h3.94v-3.94h0Z"/>
    </g>
    <g>
      <path d="M18.72,22.43v-1.13c0-.74.26-1.45.76-1.99l1.18-1.31c.21-.23.32-.53.32-.84,0-.33-.27-.59-.6-.59h-.76c-.33,0-.6.27-.6.59v.69h-2.58v-.69c0-1.74,1.43-3.16,3.18-3.16h.76c1.75,0,3.18,1.42,3.18,3.16,0,.95-.35,1.85-.99,2.56l-1.18,1.31c-.07.08-.11.17-.11.27v1.14h-2.57Z"/>
      <path d="M20.38,14.69c1.37,0,2.49,1.11,2.49,2.47,0,.78-.29,1.52-.81,2.1l-1.18,1.31c-.18.2-.28.45-.29.73v.45h-1.2v-.45c0-.57.21-1.1.59-1.52l1.18-1.31c.32-.36.5-.82.5-1.3,0-.7-.58-1.28-1.29-1.28h-.76c-.71,0-1.29.57-1.29,1.28h-1.2c0-1.36,1.12-2.47,2.49-2.47h.76M20.38,13.31h-.76c-2.13,0-3.87,1.73-3.87,3.85v1.38h3.49l-.28.31c-.61.67-.94,1.54-.95,2.44v.47s.02,1.36.02,1.36h3.92v-1.36s.02-.35.02-.35l1.11-1.23c.75-.83,1.16-1.9,1.16-3.02,0-2.12-1.73-3.85-3.87-3.85h0ZM19.71,17.26h.57c-.02.1-.07.2-.14.28l-.44.48v-.77h0Z"/>
    </g>
  </g>
</svg>