<?xml version="1.0" encoding="UTF-8"?>
<svg id="Layer_1" xmlns="http://www.w3.org/2000/svg" version="1.1" viewBox="0 0 40 40">
  <!-- Generator: Adobe Illustrator 30.1.0, SVG Export Plug-In . SVG Version: 2.1.1 Build 136)  -->
  <circle id="Outer" cx="20" cy="20" r="18.26" fill="none" stroke="#000" stroke-width="3.47"/>
  <g>
    <g>
      <rect x="18.74" y="26.6" width="2.5" height="2.5"/>
      <path d="M20.99,26.85v2h-2v-2h2M21.49,26.35h-3v3h3v-3h0Z"/>
    </g>
    <g>
      <path d="M18.74,23.84v-1.01c0-1.01.37-1.98,1.05-2.73l1.98-2.2c.5-.56.78-1.27.78-2.02,0-1.05-.86-1.9-1.91-1.9h-1.27c-1.05,0-1.91.85-1.91,1.9v.25h-2.52v-.25c0-2.43,1.99-4.4,4.43-4.4h1.27c2.44,0,4.43,1.98,4.43,4.4,0,1.37-.5,2.68-1.42,3.69l-1.99,2.2c-.27.3-.41.66-.41,1.05v1.01h-2.51Z"/>
      <path d="M20.64,11.73c2.31,0,4.18,1.86,4.18,4.15,0,1.3-.48,2.56-1.36,3.53l-1.99,2.2c-.31.34-.48.76-.48,1.22v.76h-2.01v-.76c0-.95.35-1.85.99-2.56l1.98-2.2c.54-.6.84-1.38.84-2.19,0-1.18-.97-2.15-2.16-2.15h-1.27c-1.19,0-2.16.96-2.16,2.15h-2.02c0-2.29,1.88-4.15,4.18-4.15h1.27M20.64,11.23h-1.27c-2.58,0-4.68,2.09-4.68,4.65v.5h3.02v-.5c0-.91.75-1.65,1.66-1.65h1.27c.92,0,1.66.74,1.66,1.65,0,.68-.25,1.34-.71,1.85l-1.98,2.2c-.72.8-1.12,1.82-1.12,2.89v.76s.01.5.01.5h2.99v-.49s.01-.76.01-.76c0-.33.12-.64.35-.89l1.99-2.2c.96-1.06,1.49-2.43,1.49-3.86,0-2.57-2.1-4.65-4.68-4.65h0Z"/>
    </g>
  </g>
</svg>