<?xml version="1.0" encoding="UTF-8"?>
<svg id="Layer_1" xmlns="http://www.w3.org/2000/svg" version="1.1" viewBox="0 0 40 40">
  <!-- Generator: Adobe Illustrator 30.1.0, SVG Export Plug-In . SVG Version: 2.1.1 Build 136)  -->
  <circle id="Outer" cx="20" cy="20" r="16.84" fill="none" stroke="#000" stroke-width="6.31"/>
  <g>
    <g>
      <rect x="18.73" y="25.53" width="2.52" height="2.52"/>
      <path d="M20.75,26.03v1.52h-1.52v-1.52h1.52M21.75,25.03h-3.52v3.52h3.52v-3.52h0Z"/>
    </g>
    <g>
      <path d="M18.74,22.98v-1.07c0-.85.31-1.66.87-2.29l1.51-1.67c.33-.37.51-.84.51-1.32,0-.62-.51-1.13-1.14-1.13h-.97c-.63,0-1.14.51-1.14,1.13v.5h-2.53v-.5c0-2.02,1.65-3.65,3.68-3.65h.97c2.03,0,3.68,1.64,3.68,3.65,0,1.11-.41,2.18-1.16,3.01l-1.51,1.67c-.15.17-.23.37-.24.59v1.07h-2.52Z"/>
      <path d="M20.48,13.48c1.75,0,3.18,1.42,3.18,3.15,0,.99-.37,1.94-1.03,2.68l-1.51,1.67c-.23.26-.36.58-.36.93v.58h-1.53v-.58c0-.72.26-1.41.75-1.94l1.51-1.67c.41-.46.64-1.05.64-1.66,0-.9-.74-1.63-1.64-1.63h-.97c-.91,0-1.64.73-1.64,1.63h-1.53c0-1.74,1.42-3.15,3.18-3.15h.97M20.48,12.48h-.97c-2.3,0-4.18,1.86-4.18,4.15v1h3.53v-1c0-.35.29-.63.64-.63h.97c.35,0,.64.28.64.63,0,.37-.14.72-.38.99l-1.51,1.67c-.65.72-1.01,1.64-1.01,2.61v.59s.01.99.01.99h3.5v-.99s.02-.58.02-.58c0-.1.03-.19.11-.27l1.51-1.67c.83-.92,1.29-2.11,1.29-3.35,0-2.29-1.87-4.15-4.18-4.15h0Z"/>
    </g>
  </g>
</svg>