<?xml version="1.0" encoding="UTF-8"?>
<svg id="Layer_1" xmlns="http://www.w3.org/2000/svg" version="1.1" viewBox="0 0 40 40">
  <!-- Generator: Adobe Illustrator 30.1.0, SVG Export Plug-In . SVG Version: 2.1.1 Build 136)  -->
  <circle id="Outer" cx="20" cy="20" r="18.61" fill="none" stroke="#000" stroke-width="2.78"/>
  <g>
    <g>
      <rect x="18.74" y="26.87" width="2.5" height="2.5"/>
      <path d="M21.05,27.05v2.13h-2.13v-2.13h2.13M21.43,26.68h-2.88v2.88h2.88v-2.88h0Z"/>
    </g>
    <g>
      <path d="M18.74,24.07v-.99c0-1.06.39-2.07,1.09-2.85l2.11-2.34c.55-.6.85-1.38.85-2.2,0-1.16-.95-2.09-2.11-2.09h-1.35c-1.16,0-2.11.94-2.11,2.09v.19h-2.52v-.19c0-2.54,2.08-4.6,4.63-4.6h1.35c2.56,0,4.63,2.06,4.63,4.6,0,1.43-.53,2.81-1.49,3.87l-2.11,2.34c-.3.33-.46.74-.46,1.17v.99h-2.51Z"/>
      <path d="M20.68,11.28c2.45,0,4.45,1.98,4.45,4.42,0,1.39-.51,2.72-1.44,3.75l-2.11,2.34c-.33.36-.51.81-.51,1.3v.81h-2.14v-.81c0-1.01.37-1.97,1.05-2.72l2.11-2.34c.58-.64.9-1.46.9-2.32,0-1.26-1.03-2.28-2.3-2.28h-1.35c-1.27,0-2.3,1.02-2.3,2.28h-2.15c0-2.43,1.99-4.42,4.45-4.42h1.35M20.68,10.91h-1.35c-2.66,0-4.82,2.15-4.82,4.79v.38h2.9v-.38c0-1.05.86-1.91,1.92-1.91h1.35c1.06,0,1.92.86,1.92,1.91,0,.77-.28,1.5-.8,2.07l-2.11,2.34c-.74.82-1.15,1.87-1.15,2.97v.81s.01.37.01.37h2.87v-.37s.01-.81.01-.81c0-.39.14-.75.41-1.05l2.11-2.34c.99-1.1,1.54-2.52,1.54-4,0-2.64-2.16-4.79-4.82-4.79h0Z"/>
    </g>
  </g>
</svg>