<?xml version="1.0" encoding="UTF-8"?>
<svg id="Layer_1" xmlns="http://www.w3.org/2000/svg" version="1.1" viewBox="0 0 40 40">
  <!-- Generator: Adobe Illustrator 30.1.0, SVG Export Plug-In . SVG Version: 2.1.1 Build 136)  -->
  <circle id="Outer" cx="20" cy="20" r="16.14" fill="none" stroke="#000" stroke-width="7.72"/>
  <g>
    <g>
      <rect x="18.72" y="24.99" width="2.55" height="2.55"/>
      <path d="M20.64,25.61v1.3h-1.3v-1.3h1.3M21.89,24.36h-3.8v3.8h3.8v-3.8h0Z"/>
    </g>
    <g>
      <path d="M18.72,22.6v-1.11c0-.78.28-1.51.79-2.08l1.29-1.42c.25-.27.38-.63.38-1,0-.42-.35-.77-.78-.77h-.83c-.43,0-.78.34-.78.77v.62h-2.56v-.62c0-1.83,1.5-3.32,3.34-3.32h.83c1.84,0,3.34,1.49,3.34,3.32,0,1-.37,1.96-1.04,2.7l-1.29,1.42c-.1.11-.15.24-.15.37v1.11h-2.55Z"/>
      <path d="M20.41,14.3c1.49,0,2.71,1.21,2.71,2.69,0,.84-.31,1.66-.88,2.28l-1.29,1.43c-.2.22-.31.49-.31.79v.49h-1.3v-.49c0-.62.22-1.2.64-1.66l1.29-1.42c.35-.39.55-.89.55-1.42,0-.77-.63-1.39-1.4-1.39h-.83c-.77,0-1.4.62-1.4,1.39h-1.31c0-1.48,1.22-2.69,2.71-2.69h.83M20.41,13.05h-.83c-2.18,0-3.96,1.77-3.96,3.94v1.25h3.81v-1.25c0-.08.07-.14.15-.14h.83c.08,0,.15.06.15.14,0,.21-.08.42-.22.58l-1.29,1.42c-.62.68-.96,1.57-.97,2.49v.51s.02,1.24.02,1.24h3.77v-1.24s.02-.49.02-.49l1.27-1.39c.78-.86,1.2-1.97,1.2-3.12,0-2.17-1.78-3.94-3.96-3.94h0Z"/>
    </g>
  </g>
</svg>