<?xml version="1.0" encoding="UTF-8"?>
<svg id="Layer_1" xmlns="http://www.w3.org/2000/svg" version="1.1" viewBox="0 0 88 88">
  <!-- Generator: Adobe Illustrator 30.1.0, SVG Export Plug-In . SVG Version: 2.1.1 Build 136)  -->
  <path d="M44,17c.88,0,1.76.46,2.21,1.37l5.65,11.21c.97,1.92,2.78,3.29,4.89,3.68l12.22,2.29c1.91.36,2.69,2.68,1.38,4.12l-8.91,9.77c-1.37,1.51-2.01,3.55-1.75,5.57l1.74,13.18c.21,1.57-1.05,2.82-2.46,2.82-.37,0-.76-.09-1.13-.28l-10.69-5.51c-.99-.51-2.07-.77-3.16-.77-1.08,0-2.17.26-3.16.77l-10.69,5.51c-.37.19-.76.28-1.13.28-1.41,0-2.67-1.24-2.46-2.82l1.74-13.18c.27-2.02-.37-4.06-1.74-5.56l-8.91-9.77c-1.31-1.44-.54-3.76,1.38-4.12l12.22-2.29c2.11-.4,3.92-1.76,4.89-3.68l5.65-11.22c.46-.91,1.34-1.37,2.21-1.37M44,0c-7.4,0-14.06,4.11-17.39,10.71l-3.41,6.76-7.31,1.37c-6.94,1.3-12.64,6.27-14.88,12.96-2.24,6.7-.68,14.1,4.07,19.31l5.75,6.31-1.13,8.54c-.73,5.57.96,11.17,4.66,15.39,3.7,4.23,9.04,6.65,14.65,6.65,3.08,0,6.16-.75,8.91-2.17l6.07-3.12,6.07,3.12c2.75,1.42,5.83,2.17,8.92,2.17,5.61,0,10.95-2.42,14.65-6.65,3.69-4.21,5.39-9.82,4.66-15.39l-1.13-8.54,5.75-6.31c4.76-5.22,6.32-12.62,4.07-19.31-2.24-6.69-7.94-11.66-14.88-12.96l-7.31-1.37-3.41-6.76C58.06,4.11,51.4,0,44,0h0Z"/>
</svg>