<?xml version="1.0" encoding="UTF-8"?>
<svg id="Layer_1" xmlns="http://www.w3.org/2000/svg" version="1.1" viewBox="0 0 88 88">
  <!-- Generator: Adobe Illustrator 30.1.0, SVG Export Plug-In . SVG Version: 2.1.1 Build 136)  -->
  <path d="M44,7.64c1.18,0,2.36.61,2.98,1.84l7.61,15.1c1.31,2.59,3.74,4.42,6.59,4.96l16.45,3.08c2.57.48,3.62,3.61,1.85,5.55l-11.99,13.16c-1.85,2.03-2.71,4.78-2.35,7.5l2.34,17.74c.28,2.12-1.41,3.79-3.31,3.79-.5,0-1.02-.12-1.53-.38l-14.39-7.41c-1.33-.69-2.79-1.03-4.25-1.03-1.46,0-2.92.34-4.25,1.03l-14.39,7.41c-.5.26-1.02.38-1.53.38-1.9,0-3.59-1.68-3.31-3.79l2.34-17.74c.36-2.72-.5-5.46-2.35-7.49l-11.99-13.16c-1.77-1.94-.72-5.07,1.85-5.55l16.45-3.08c2.84-.53,5.28-2.36,6.58-4.95l7.61-15.1c.62-1.23,1.8-1.84,2.98-1.84M44,0C39.83,0,36.07,2.32,34.19,6.04l-7.61,15.1c-.23.46-.67.79-1.16.88l-16.45,3.08c-3.91.73-7.13,3.53-8.39,7.31-1.27,3.78-.39,7.96,2.3,10.9l11.99,13.16c.33.36.48.85.42,1.34l-2.34,17.74c-.41,3.14.54,6.3,2.62,8.68,2.09,2.39,5.11,3.76,8.27,3.76,1.73,0,3.47-.42,5.03-1.22l14.39-7.41c.23-.12.49-.18.75-.18.26,0,.52.06.75.18l14.39,7.41c1.56.8,3.29,1.22,5.03,1.22,3.16,0,6.17-1.37,8.27-3.76,2.08-2.37,3.04-5.54,2.62-8.68l-2.34-17.74c-.07-.49.09-.99.42-1.35l11.99-13.16c2.68-2.94,3.56-7.12,2.3-10.9-1.26-3.78-4.48-6.58-8.39-7.31l-16.45-3.08c-.5-.09-.94-.42-1.17-.88l-7.61-15.1C51.93,2.32,48.17,0,44,0h0Z"/>
</svg>