<?xml version="1.0" encoding="UTF-8"?>
<svg id="Layer_1" xmlns="http://www.w3.org/2000/svg" version="1.1" viewBox="0 0 88 88">
  <!-- Generator: Adobe Illustrator 30.1.0, SVG Export Plug-In . SVG Version: 2.1.1 Build 136)  -->
  <path d="M44,6.11c1.23,0,2.46.64,3.11,1.92l7.93,15.74c1.36,2.7,3.9,4.61,6.87,5.17l17.15,3.21c2.68.5,3.77,3.76,1.93,5.78l-12.5,13.71c-1.93,2.12-2.82,4.98-2.45,7.82l2.44,18.49c.29,2.21-1.47,3.95-3.45,3.95-.53,0-1.07-.12-1.59-.39l-15-7.73c-1.39-.72-2.91-1.07-4.43-1.07-1.52,0-3.04.36-4.43,1.07l-15,7.73c-.52.27-1.07.39-1.59.39-1.98,0-3.74-1.75-3.45-3.95l2.44-18.5c.37-2.84-.52-5.7-2.45-7.81l-12.5-13.71c-1.84-2.02-.75-5.28,1.93-5.78l17.15-3.21c2.97-.56,5.5-2.47,6.86-5.16l7.93-15.74c.64-1.28,1.88-1.92,3.11-1.92M44,0C40.36,0,37.08,2.02,35.44,5.28l-7.93,15.74c-.5.99-1.45,1.71-2.53,1.91l-17.15,3.21c-3.41.64-6.22,3.08-7.32,6.38-1.11,3.3-.34,6.95,2.01,9.52l12.5,13.71c.72.79,1.05,1.84.91,2.9l-2.44,18.5c-.36,2.74.47,5.5,2.29,7.57,1.83,2.09,4.46,3.28,7.22,3.28,1.51,0,3.03-.37,4.39-1.07l15-7.73c.5-.26,1.07-.4,1.64-.4.57,0,1.13.14,1.64.4l15,7.73c1.36.7,2.88,1.07,4.39,1.07,2.76,0,5.39-1.2,7.22-3.28,1.81-2.07,2.65-4.83,2.29-7.57l-2.44-18.49c-.14-1.06.19-2.12.91-2.91l12.5-13.71c2.34-2.57,3.11-6.22,2.01-9.51-1.1-3.3-3.91-5.74-7.32-6.38l-17.15-3.21c-1.09-.2-2.04-.92-2.54-1.91l-7.93-15.74C50.92,2.02,47.64,0,44,0h0Z"/>
</svg>