<?xml version="1.0" encoding="UTF-8"?>
<svg id="Layer_1" xmlns="http://www.w3.org/2000/svg" version="1.1" viewBox="0 0 63 63">
  <!-- Generator: Adobe Illustrator 30.1.0, SVG Export Plug-In . SVG Version: 2.1.1 Build 136)  -->
  <circle id="Outer" cx="31.5" cy="31.5" r="24.87" fill="none" stroke="#000" stroke-width="13.27"/>
  <g>
    <g>
      <rect x="29.46" y="38.92" width="4.04" height="4.04"/>
      <path d="M32.42,40.01v1.88h-1.88v-1.88h1.88M34.59,37.84h-6.21v6.21h6.21v-6.21h0Z"/>
    </g>
    <g>
      <path d="M29.48,35.33l-.02-1.78c0-1.17.43-2.28,1.21-3.14l1.86-2.06c.33-.36.51-.83.51-1.32,0-.51-.42-.93-.94-.93h-1.2c-.52,0-.94.42-.94.93v1.08h-4.06v-1.08c0-2.74,2.25-4.98,5-4.98h1.2c2.76,0,5,2.23,5,4.98,0,1.49-.55,2.92-1.55,4.03l-1.86,2.06c-.11.12-.17.27-.17.42l-.02,1.79h-4.02Z"/>
      <path d="M32.1,23.13c2.16,0,3.92,1.75,3.92,3.89,0,1.22-.45,2.4-1.27,3.3l-1.86,2.06c-.29.32-.45.72-.45,1.14v.71h-1.89v-.71c0-.89.33-1.74.92-2.4l1.86-2.06c.51-.56.79-1.29.79-2.05,0-1.11-.91-2.01-2.03-2.01h-1.19c-1.12,0-2.03.9-2.03,2.01h-1.89c0-2.15,1.76-3.89,3.92-3.89h1.19M32.1,20.97h-1.19c-3.36,0-6.09,2.72-6.09,6.06v2.17h5.5l-.44.49c-.95,1.06-1.48,2.42-1.49,3.84v.74s.03,2.15.03,2.15h6.17l.02-2.14v-.54s1.76-1.94,1.76-1.94c1.18-1.31,1.83-3,1.83-4.76,0-3.34-2.73-6.06-6.09-6.06h0ZM31.04,27.18h.91c-.03.16-.1.32-.22.44l-.69.76v-1.21h0Z"/>
    </g>
  </g>
</svg>