<?xml version="1.0" encoding="UTF-8"?>
<svg id="Layer_1" xmlns="http://www.w3.org/2000/svg" version="1.1" viewBox="0 0 63 63">
  <!-- Generator: Adobe Illustrator 30.1.0, SVG Export Plug-In . SVG Version: 2.1.1 Build 136)  -->
  <circle id="Outer" cx="31.5" cy="31.5" r="29.31" fill="none" stroke="#000" stroke-width="4.37"/>
  <g>
    <g>
      <rect x="29.51" y="42.32" width="3.94" height="3.94"/>
      <path d="M33.16,42.61v3.35h-3.35v-3.35h3.35M33.75,42.02h-4.54v4.54h4.54v-4.54h0Z"/>
    </g>
    <g>
      <path d="M29.51,37.92v-1.56c0-1.66.61-3.26,1.72-4.49l3.32-3.68c.86-.95,1.33-2.18,1.33-3.46,0-1.82-1.49-3.3-3.33-3.3h-2.13c-1.83,0-3.32,1.48-3.32,3.3v.3h-3.97v-.3c0-4,3.27-7.25,7.3-7.25h2.13c4.02,0,7.3,3.25,7.3,7.25,0,2.25-.83,4.42-2.35,6.1l-3.32,3.68c-.47.52-.72,1.16-.73,1.85l-.02,1.56h-3.94Z"/>
      <path d="M32.57,17.77c3.86,0,7,3.12,7,6.95,0,2.18-.81,4.28-2.27,5.9l-3.32,3.68c-.51.57-.8,1.28-.8,2.04v1.27h-3.37v-1.27c0-1.59.58-3.1,1.65-4.29l3.32-3.68c.91-1.01,1.41-2.31,1.41-3.66,0-1.98-1.62-3.59-3.62-3.59h-2.13c-2,0-3.62,1.61-3.62,3.59h-3.38c0-3.83,3.14-6.95,7-6.95h2.13M32.57,17.18h-2.13c-4.19,0-7.59,3.38-7.59,7.54v.59h4.56v-.59c0-1.66,1.36-3,3.03-3h2.13c1.67,0,3.03,1.35,3.03,3,0,1.21-.45,2.36-1.26,3.26l-3.32,3.68c-1.16,1.29-1.81,2.95-1.81,4.68v1.28s.02.59.02.59h4.52v-.58s.02-1.27.02-1.27c0-.61.23-1.18.65-1.65l3.32-3.68c1.56-1.73,2.43-3.97,2.43-6.3,0-4.16-3.41-7.54-7.59-7.54h0Z"/>
    </g>
  </g>
</svg>