<?xml version="1.0" encoding="UTF-8"?>
<svg id="Layer_1" xmlns="http://www.w3.org/2000/svg" version="1.1" viewBox="0 0 63 63">
  <!-- Generator: Adobe Illustrator 30.1.0, SVG Export Plug-In . SVG Version: 2.1.1 Build 136)  -->
  <circle id="Outer" cx="31.5" cy="31.5" r="28.76" fill="none" stroke="#000" stroke-width="5.47"/>
  <g>
    <g>
      <rect x="29.51" y="41.9" width="3.94" height="3.94"/>
      <path d="M33.06,42.3v3.16h-3.16v-3.16h3.16M33.85,41.51h-4.73v4.73h4.73v-4.73h0Z"/>
    </g>
    <g>
      <path d="M29.51,37.55v-1.58c0-1.59.58-3.12,1.65-4.3l3.13-3.46c.79-.88,1.23-2,1.23-3.18,0-1.65-1.35-2.99-3.01-2.99h-2.01c-1.66,0-3.01,1.34-3.01,2.99v.39h-3.97v-.39c0-3.83,3.13-6.94,6.98-6.94h2.01c3.85,0,6.98,3.11,6.98,6.94,0,2.15-.8,4.22-2.24,5.82l-3.13,3.46c-.43.47-.65,1.04-.65,1.66l-.02,1.59h-3.94Z"/>
      <path d="M32.5,18.48c3.63,0,6.59,2.94,6.59,6.54,0,2.05-.76,4.02-2.14,5.55l-3.13,3.46c-.48.54-.75,1.2-.75,1.92v1.19h-3.17v-1.19c0-1.5.55-2.92,1.55-4.03l3.13-3.46c.86-.95,1.33-2.17,1.33-3.44,0-1.86-1.53-3.38-3.41-3.38h-2.01c-1.88,0-3.41,1.52-3.41,3.38h-3.18c0-3.61,2.96-6.54,6.59-6.54h2.01M32.5,17.69h-2.01c-4.07,0-7.38,3.29-7.38,7.33v.79h4.76v-.79c0-1.43,1.17-2.59,2.62-2.59h2.01c1.44,0,2.62,1.16,2.62,2.59,0,1.08-.4,2.11-1.12,2.91l-3.13,3.46c-1.13,1.25-1.76,2.87-1.77,4.56v1.2s.02.78.02.78h4.72v-.78s.02-1.19.02-1.19c0-.52.19-1,.55-1.4l3.13-3.46c1.51-1.67,2.34-3.83,2.34-6.08,0-4.04-3.31-7.33-7.38-7.33h0Z"/>
    </g>
  </g>
</svg>