<?xml version="1.0" encoding="UTF-8"?>
<svg id="Layer_1" xmlns="http://www.w3.org/2000/svg" version="1.1" viewBox="0 0 63 63">
  <!-- Generator: Adobe Illustrator 30.1.0, SVG Export Plug-In . SVG Version: 2.1.1 Build 136)  -->
  <circle id="Outer" cx="31.5" cy="31.5" r="25.42" fill="none" stroke="#000" stroke-width="12.17"/>
  <g>
    <g>
      <rect x="29.48" y="39.35" width="4.01" height="4.01"/>
      <path d="M32.51,40.34v2.04h-2.04v-2.04h2.04M34.48,38.37h-5.98v5.98h5.98v-5.98h0Z"/>
    </g>
    <g>
      <path d="M29.49,35.6l-.02-1.75c0-1.22.46-2.38,1.27-3.28l2.02-2.24c.39-.43.61-.99.61-1.57,0-.67-.55-1.21-1.22-1.21h-1.3c-.67,0-1.22.54-1.22,1.21v.98h-4.03v-.98c0-2.88,2.36-5.22,5.25-5.22h1.3c2.9,0,5.25,2.34,5.25,5.22,0,1.57-.58,3.09-1.64,4.26l-2.03,2.24c-.16.17-.23.37-.23.59l-.02,1.76h-4Z"/>
      <path d="M32.15,22.52c2.35,0,4.27,1.9,4.27,4.24,0,1.33-.49,2.61-1.39,3.6l-2.03,2.24c-.31.35-.49.78-.49,1.25v.77h-2.05v-.77c0-.97.35-1.89,1.01-2.61l2.03-2.24c.55-.61.86-1.41.86-2.23,0-1.21-.99-2.19-2.21-2.19h-1.3c-1.22,0-2.21.98-2.21,2.19h-2.06c0-2.34,1.92-4.24,4.27-4.24h1.3M32.15,20.55h-1.3c-3.44,0-6.24,2.79-6.24,6.21v1.97h6v-1.97c0-.12.11-.22.24-.22h1.3c.13,0,.24.1.24.22,0,.34-.13.66-.35.91l-2.03,2.24c-.97,1.08-1.51,2.47-1.52,3.93v.8s.02,1.95.02,1.95h5.95l.02-1.95v-.74s2.02-2.22,2.02-2.22c1.22-1.35,1.89-3.1,1.89-4.92,0-3.42-2.8-6.21-6.24-6.21h0Z"/>
    </g>
  </g>
</svg>