<?xml version="1.0" encoding="UTF-8"?>
<svg id="Layer_1" xmlns="http://www.w3.org/2000/svg" version="1.1" viewBox="0 0 63 63">
  <!-- Generator: Adobe Illustrator 30.1.0, SVG Export Plug-In . SVG Version: 2.1.1 Build 136)  -->
  <circle id="Outer" cx="31.5" cy="31.5" r="27.65" fill="none" stroke="#000" stroke-width="7.7"/>
  <g>
    <g>
      <rect x="29.51" y="41.06" width="3.95" height="3.95"/>
      <path d="M32.87,41.65v2.77h-2.77v-2.77h2.77M34.05,40.47h-5.13v5.13h5.13v-5.13h0Z"/>
    </g>
    <g>
      <path d="M29.52,36.85v-1.63c0-1.46.53-2.86,1.51-3.94l2.74-3.04c.65-.72,1.01-1.65,1.01-2.62,0-1.31-1.08-2.38-2.4-2.38h-1.76c-1.32,0-2.4,1.07-2.4,2.38v.59h-3.98v-.59c0-3.49,2.86-6.33,6.37-6.33h1.76c3.51,0,6.37,2.84,6.37,6.33,0,1.95-.72,3.82-2.03,5.27l-2.74,3.04c-.33.37-.51.82-.51,1.29l-.02,1.64h-3.94Z"/>
      <path d="M32.38,19.88c3.19,0,5.78,2.58,5.78,5.74,0,1.8-.67,3.53-1.88,4.87l-2.74,3.04c-.42.47-.66,1.05-.66,1.69v1.05h-2.78v-1.05c0-1.31.48-2.56,1.36-3.54l2.74-3.04c.75-.83,1.16-1.9,1.16-3.02,0-1.64-1.34-2.97-2.99-2.97h-1.76c-1.65,0-2.99,1.33-2.99,2.97h-2.79c0-3.17,2.59-5.74,5.78-5.74h1.76M32.38,18.69h-1.76c-3.84,0-6.96,3.11-6.96,6.92v1.18h5.16v-1.18c0-.98.81-1.79,1.81-1.79h1.76c1,0,1.81.8,1.81,1.79,0,.82-.31,1.61-.86,2.23l-2.74,3.04c-1.07,1.19-1.67,2.73-1.68,4.33v1.06s.02,1.17.02,1.17h5.11v-1.17s.02-1.05.02-1.05c0-.34.12-.65.36-.91l2.74-3.04c1.41-1.56,2.18-3.57,2.18-5.66,0-3.82-3.12-6.92-6.96-6.92h0Z"/>
    </g>
  </g>
</svg>