<?xml version="1.0" encoding="UTF-8"?>
<svg id="Layer_1" xmlns="http://www.w3.org/2000/svg" version="1.1" viewBox="0 0 63 63">
  <!-- Generator: Adobe Illustrator 30.1.0, SVG Export Plug-In . SVG Version: 2.1.1 Build 136)  -->
  <circle id="Outer" cx="31.5" cy="31.5" r="26.53" fill="none" stroke="#000" stroke-width="9.94"/>
  <g>
    <g>
      <rect x="29.5" y="40.21" width="3.97" height="3.97"/>
      <path d="M32.68,41v2.4h-2.4v-2.4h2.4M34.26,39.42h-5.55v5.55h5.55v-5.55h0Z"/>
    </g>
    <g>
      <path d="M29.51,36.2v-1.69c0-1.34.48-2.61,1.38-3.6l2.37-2.63c.52-.57.8-1.31.8-2.09,0-.98-.81-1.78-1.8-1.78h-1.52c-.99,0-1.8.8-1.8,1.78v.79h-3.99v-.79c0-3.17,2.6-5.75,5.79-5.75h1.52c3.19,0,5.79,2.58,5.79,5.75,0,1.75-.65,3.44-1.83,4.74l-2.37,2.63c-.24.27-.37.59-.37.93l-.02,1.69h-3.96Z"/>
      <path d="M32.26,21.23c2.76,0,5,2.23,5,4.97,0,1.56-.58,3.05-1.62,4.22l-2.37,2.63c-.37.41-.57.91-.57,1.46v.91h-2.4v-.91c0-1.14.41-2.22,1.18-3.06l2.37-2.63c.65-.72,1.01-1.65,1.01-2.61,0-1.42-1.16-2.57-2.59-2.57h-1.52c-1.43,0-2.59,1.15-2.59,2.57h-2.42c0-2.74,2.24-4.97,5-4.97h1.52M32.26,19.66h-1.52c-3.63,0-6.58,2.93-6.58,6.54v1.58h5.57v-1.58c0-.55.45-.99,1.01-.99h1.52c.56,0,1.01.45,1.01.99,0,.58-.21,1.13-.6,1.56l-2.37,2.63c-1.02,1.13-1.59,2.59-1.59,4.11v.93s.02,1.56.02,1.56h5.52l.02-1.56v-.91c0-.16.06-.3.18-.42l2.37-2.63c1.31-1.45,2.03-3.32,2.03-5.27,0-3.61-2.95-6.54-6.58-6.54h0Z"/>
    </g>
  </g>
</svg>