<?xml version="1.0" encoding="UTF-8"?>
<svg id="Layer_1" xmlns="http://www.w3.org/2000/svg" version="1.1" viewBox="0 0 37 37">
  <!-- Generator: Adobe Illustrator 30.1.0, SVG Export Plug-In . SVG Version: 2.1.1 Build 136)  -->
  <path d="M18.5,4.52c.45,0,.91.24,1.15.71l2.92,5.81c.5,1,1.44,1.7,2.53,1.91l6.33,1.19c.99.19,1.39,1.39.71,2.13l-4.61,5.06c-.71.78-1.04,1.84-.9,2.88l.9,6.82c.11.81-.54,1.46-1.27,1.46-.19,0-.39-.05-.59-.14l-5.53-2.85c-.51-.26-1.07-.4-1.63-.4-.56,0-1.12.13-1.63.4l-5.53,2.85c-.19.1-.39.14-.59.14-.73,0-1.38-.64-1.27-1.46l.9-6.82c.14-1.05-.19-2.1-.9-2.88l-4.61-5.06c-.68-.75-.28-1.95.71-2.13l6.33-1.19c1.09-.21,2.03-.91,2.53-1.9l2.93-5.81c.24-.47.69-.71,1.15-.71M18.5,0c-2.21,0-4.19,1.22-5.18,3.19l-2.71,5.39-5.86,1.1c-2.07.39-3.77,1.87-4.44,3.86-.67,2-.2,4.2,1.21,5.76l4.32,4.74-.84,6.39c-.22,1.66.29,3.33,1.39,4.59,1.11,1.26,2.7,1.98,4.37,1.98.92,0,1.84-.22,2.66-.65l5.1-2.63,5.1,2.63c.82.42,1.74.65,2.66.65,1.67,0,3.26-.72,4.37-1.98,1.1-1.25,1.61-2.93,1.39-4.59l-.84-6.39,4.32-4.74c1.42-1.56,1.88-3.76,1.21-5.76-.67-2-2.37-3.48-4.43-3.86l-5.86-1.1-2.71-5.39c-.99-1.97-2.98-3.19-5.18-3.19h0Z"/>
</svg>