<?xml version="1.0" encoding="UTF-8"?>
<svg id="Layer_1" xmlns="http://www.w3.org/2000/svg" version="1.1" viewBox="0 0 37 37">
  <!-- Generator: Adobe Illustrator 30.1.0, SVG Export Plug-In . SVG Version: 2.1.1 Build 136)  -->
  <path d="M18.5,7.15c.37,0,.74.19.93.57l2.38,4.72c.41.81,1.17,1.38,2.06,1.55l5.14.96c.8.15,1.13,1.13.58,1.73l-3.74,4.11c-.58.63-.85,1.49-.73,2.34l.73,5.54c.09.66-.44,1.18-1.03,1.18-.16,0-.32-.04-.48-.12l-4.5-2.31c-.42-.21-.87-.32-1.33-.32s-.91.11-1.33.32l-4.5,2.31c-.16.08-.32.12-.48.12-.59,0-1.12-.52-1.03-1.18l.73-5.54c.11-.85-.16-1.71-.73-2.34l-3.74-4.11c-.55-.61-.23-1.58.58-1.73l5.14-.96c.89-.17,1.65-.74,2.06-1.55l2.38-4.72c.19-.38.56-.57.93-.57M18.5,0c-3.11,0-5.91,1.73-7.31,4.51l-1.43,2.84-3.07.58c-2.92.55-5.31,2.63-6.26,5.45-.94,2.82-.29,5.93,1.71,8.12l2.42,2.65-.47,3.59c-.31,2.34.41,4.7,1.96,6.47,1.56,1.78,3.8,2.8,6.16,2.8,0,0,0,0,0,0,1.3,0,2.59-.31,3.75-.91l2.55-1.31,2.55,1.31c1.16.6,2.45.91,3.75.91,0,0,0,0,0,0,2.36,0,4.6-1.02,6.16-2.8,1.55-1.77,2.27-4.13,1.96-6.47l-.47-3.59,2.42-2.65c2-2.19,2.66-5.31,1.71-8.12-.94-2.81-3.34-4.9-6.26-5.45l-3.07-.58-1.43-2.84c-1.4-2.78-4.2-4.51-7.31-4.51h0Z"/>
</svg>