<?xml version="1.0" encoding="UTF-8"?>
<svg id="Layer_1" xmlns="http://www.w3.org/2000/svg" version="1.1" viewBox="0 0 37 37">
  <!-- Generator: Adobe Illustrator 30.1.0, SVG Export Plug-In . SVG Version: 2.1.1 Build 136)  -->
  <path d="M18.5,5.84c.41,0,.82.21,1.04.64l2.65,5.26c.45.9,1.3,1.54,2.29,1.73l5.73,1.07c.9.17,1.26,1.26.64,1.93l-4.18,4.58c-.64.71-.94,1.66-.82,2.61l.81,6.18c.1.74-.49,1.32-1.15,1.32-.18,0-.36-.04-.53-.13l-5.01-2.58c-.46-.24-.97-.36-1.48-.36-.51,0-1.02.12-1.48.36l-5.01,2.58c-.17.09-.36.13-.53.13-.66,0-1.25-.58-1.15-1.32l.81-6.18c.13-.95-.17-1.9-.82-2.61l-4.18-4.58c-.62-.67-.25-1.76.65-1.93l5.73-1.07c.99-.19,1.84-.82,2.29-1.73l2.65-5.26c.22-.43.63-.64,1.04-.64M18.5,0C15.84,0,13.44,1.48,12.25,3.85l-2.07,4.11-4.46.84c-2.49.47-4.54,2.25-5.35,4.66-.81,2.41-.25,5.07,1.46,6.95l3.36,3.69-.66,4.98c-.26,2,.35,4.02,1.67,5.53,1.33,1.52,3.25,2.39,5.27,2.39,1.11,0,2.22-.27,3.2-.78l3.82-1.97,3.82,1.97c.99.51,2.1.78,3.21.78,2.02,0,3.94-.87,5.27-2.39,1.33-1.51,1.94-3.53,1.67-5.53l-.66-4.98,3.36-3.69c1.71-1.88,2.27-4.54,1.46-6.94-.81-2.41-2.86-4.19-5.35-4.66l-4.46-.84-2.07-4.11C23.56,1.48,21.16,0,18.5,0h0Z"/>
</svg>