<?xml version="1.0" encoding="UTF-8"?>
<svg id="Layer_1" xmlns="http://www.w3.org/2000/svg" version="1.1" viewBox="0 0 37 37">
  <!-- Generator: Adobe Illustrator 30.1.0, SVG Export Plug-In . SVG Version: 2.1.1 Build 136)  -->
  <path d="M18.5,7.79c.35,0,.7.18.88.54l2.24,4.45c.38.76,1.1,1.3,1.94,1.46l4.85.91c.76.14,1.07,1.06.55,1.63l-3.53,3.87c-.54.6-.8,1.41-.69,2.21l.69,5.22c.08.62-.41,1.12-.97,1.12-.15,0-.3-.03-.45-.11l-4.24-2.18c-.39-.2-.82-.3-1.25-.3s-.86.1-1.25.3l-4.24,2.18c-.15.08-.3.11-.45.11-.56,0-1.06-.49-.97-1.12l.69-5.23c.11-.8-.15-1.61-.69-2.21l-3.53-3.87c-.52-.57-.21-1.49.55-1.63l4.85-.91c.84-.16,1.55-.7,1.94-1.46l2.24-4.45c.18-.36.53-.54.88-.54M18.5,0C15.17,0,12.16,1.85,10.66,4.83l-1.12,2.21-2.39.45c-3.13.59-5.7,2.82-6.71,5.84-1.01,3.02-.31,6.35,1.84,8.7l1.95,2.14-.38,2.9c-.33,2.51.43,5.03,2.1,6.93,1.67,1.9,4.08,3,6.6,3,1.39,0,2.78-.34,4.02-.98l1.92-.99,1.92.99c1.24.64,2.63.98,4.02.98,2.53,0,4.93-1.09,6.6-3,1.66-1.9,2.43-4.43,2.1-6.93l-.38-2.9,1.95-2.14c2.14-2.35,2.85-5.69,1.84-8.7-1.01-3.02-3.58-5.25-6.7-5.84l-2.39-.45-1.12-2.21C24.84,1.85,21.83,0,18.5,0h0Z"/>
</svg>