<?xml version="1.0" encoding="UTF-8"?>
<svg id="Layer_1" xmlns="http://www.w3.org/2000/svg" version="1.1" viewBox="0 0 37 37">
  <!-- Generator: Adobe Illustrator 30.1.0, SVG Export Plug-In . SVG Version: 2.1.1 Build 136)  -->
  <path d="M18.5,3.21c.5,0,.99.26,1.25.77l3.2,6.35c.55,1.09,1.57,1.86,2.77,2.08l6.92,1.3c1.08.2,1.52,1.52.78,2.33l-5.04,5.53c-.78.85-1.14,2.01-.99,3.15l.98,7.46c.12.89-.59,1.59-1.39,1.59-.21,0-.43-.05-.64-.16l-6.05-3.12c-.56-.29-1.17-.43-1.79-.43s-1.23.14-1.79.43l-6.05,3.12c-.21.11-.43.16-.64.16-.8,0-1.51-.7-1.39-1.59l.98-7.46c.15-1.14-.21-2.3-.99-3.15l-5.04-5.53c-.74-.81-.3-2.13.78-2.33l6.92-1.3c1.2-.22,2.22-.99,2.77-2.08l3.2-6.35c.26-.52.76-.77,1.25-.77M18.5,0C16.75,0,15.16.97,14.38,2.54l-3.2,6.35c-.1.19-.28.33-.49.37l-6.92,1.3c-1.64.31-3,1.49-3.53,3.07-.53,1.59-.16,3.35.97,4.58l5.04,5.53c.14.15.2.36.18.56l-.98,7.46c-.17,1.32.23,2.65,1.1,3.65.88,1,2.15,1.58,3.48,1.58.73,0,1.46-.18,2.11-.51l6.05-3.12c.1-.05.2-.08.32-.08s.22.03.32.08l6.05,3.12c.65.34,1.39.51,2.11.51,1.33,0,2.6-.58,3.48-1.58.87-1,1.28-2.33,1.1-3.65l-.98-7.46c-.03-.21.04-.41.18-.57l5.04-5.53c1.13-1.24,1.5-2.99.97-4.58-.53-1.59-1.88-2.77-3.53-3.07l-6.92-1.3c-.21-.04-.39-.18-.49-.37l-3.2-6.35C21.83.97,20.25,0,18.5,0h0Z"/>
</svg>