<?xml version="1.0" encoding="UTF-8"?>
<svg id="Layer_1" xmlns="http://www.w3.org/2000/svg" version="1.1" viewBox="0 0 79 79">
  <!-- Generator: Adobe Illustrator 30.1.0, SVG Export Plug-In . SVG Version: 2.1.1 Build 136)  -->
  <path d="M39.5,16.64c.74,0,1.49.39,1.87,1.16l4.78,9.49c.82,1.63,2.35,2.78,4.14,3.12l10.35,1.94c1.62.3,2.27,2.27,1.16,3.49l-7.54,8.27c-1.16,1.28-1.7,3-1.48,4.72l1.47,11.15c.18,1.33-.88,2.38-2.08,2.38-.32,0-.64-.07-.96-.24l-9.05-4.66c-.84-.43-1.76-.65-2.67-.65s-1.83.22-2.67.65l-9.05,4.66c-.32.16-.64.24-.96.24-1.2,0-2.26-1.05-2.08-2.38l1.47-11.16c.23-1.71-.31-3.44-1.48-4.71l-7.54-8.27c-1.11-1.22-.45-3.19,1.16-3.49l10.35-1.94c1.79-.34,3.32-1.49,4.14-3.12l4.78-9.5c.39-.77,1.13-1.16,1.87-1.16M39.5,0c-7.12,0-13.53,3.95-16.74,10.31l-2.38,4.73-5.09.95c-6.67,1.25-12.16,6.03-14.32,12.47-2.16,6.44-.66,13.56,3.92,18.58l4.16,4.57-.82,6.19c-.71,5.35.93,10.75,4.48,14.8,3.56,4.06,8.7,6.4,14.1,6.4,2.97,0,5.93-.72,8.58-2.08l4.1-2.11,4.1,2.11c2.65,1.36,5.61,2.08,8.58,2.08,5.39,0,10.53-2.33,14.1-6.4,3.55-4.05,5.19-9.45,4.48-14.8l-.82-6.19,4.16-4.57c4.58-5.02,6.08-12.14,3.92-18.58-2.16-6.44-7.64-11.22-14.32-12.47l-5.1-.96-2.38-4.73C53.03,3.95,46.62,0,39.5,0h0Z"/>
</svg>