<?xml version="1.0" encoding="UTF-8"?>
<svg id="Layer_1" xmlns="http://www.w3.org/2000/svg" version="1.1" viewBox="0 0 79 79">
  <!-- Generator: Adobe Illustrator 30.1.0, SVG Export Plug-In . SVG Version: 2.1.1 Build 136)  -->
  <path d="M39.5,6.86c1.06,0,2.12.55,2.68,1.65l6.83,13.55c1.17,2.33,3.36,3.97,5.91,4.45l14.77,2.77c2.31.43,3.25,3.24,1.66,4.98l-10.76,11.81c-1.66,1.82-2.43,4.29-2.11,6.73l2.1,15.92c.25,1.9-1.26,3.4-2.97,3.4-.45,0-.92-.11-1.37-.34l-12.92-6.65c-1.2-.62-2.51-.93-3.82-.93-1.31,0-2.62.31-3.82.93l-12.92,6.65c-.45.23-.92.34-1.37.34-1.71,0-3.22-1.5-2.97-3.4l2.1-15.93c.32-2.44-.45-4.91-2.11-6.73l-10.76-11.81c-1.59-1.74-.65-4.55,1.66-4.98l14.77-2.77c2.55-.48,4.74-2.12,5.91-4.45l6.83-13.56c.55-1.1,1.62-1.65,2.68-1.65M39.5,0c-3.75,0-7.12,2.08-8.81,5.43l-6.83,13.56c-.21.41-.6.71-1.04.79l-14.77,2.77c-3.51.66-6.4,3.17-7.53,6.56-1.14,3.39-.35,7.14,2.06,9.79l10.76,11.81c.3.33.43.77.38,1.2l-2.1,15.93c-.37,2.82.49,5.66,2.35,7.79,1.88,2.14,4.59,3.37,7.42,3.37,1.56,0,3.12-.38,4.51-1.1l12.92-6.65c.21-.11.44-.16.67-.16.23,0,.47.06.67.16l12.92,6.65c1.4.72,2.96,1.1,4.51,1.1,2.84,0,5.54-1.23,7.42-3.37,1.87-2.13,2.73-4.97,2.35-7.79l-2.1-15.92c-.06-.44.08-.88.38-1.21l10.76-11.81c2.41-2.64,3.2-6.39,2.06-9.79-1.14-3.39-4.02-5.9-7.53-6.56l-14.77-2.77c-.45-.08-.84-.38-1.05-.79l-6.83-13.55c-1.69-3.35-5.06-5.43-8.81-5.43h0Z"/>
</svg>