<?xml version="1.0" encoding="UTF-8"?>
<svg id="Layer_1" xmlns="http://www.w3.org/2000/svg" version="1.1" viewBox="0 0 79 79">
  <!-- Generator: Adobe Illustrator 30.1.0, SVG Export Plug-In . SVG Version: 2.1.1 Build 136)  -->
  <path d="M39.5,9.65c.97,0,1.94.5,2.45,1.51l6.24,12.4c1.07,2.13,3.07,3.63,5.41,4.07l13.51,2.53c2.11.4,2.97,2.96,1.52,4.55l-9.84,10.8c-1.52,1.67-2.22,3.92-1.93,6.16l1.92,14.56c.23,1.74-1.16,3.11-2.72,3.11-.41,0-.84-.1-1.25-.31l-11.82-6.09c-1.1-.56-2.29-.85-3.49-.85-1.2,0-2.39.28-3.49.85l-11.82,6.09c-.41.21-.84.31-1.25.31-1.56,0-2.95-1.38-2.72-3.11l1.92-14.57c.29-2.23-.41-4.49-1.93-6.15l-9.84-10.8c-1.45-1.59-.59-4.16,1.52-4.56l13.51-2.53c2.34-.44,4.33-1.94,5.4-4.07l6.25-12.4c.51-1.01,1.48-1.51,2.45-1.51M39.5,0C34.79,0,30.55,2.61,28.43,6.82l-5.8,11.5-12.52,2.35c-4.41.83-8.04,3.99-9.47,8.25-1.43,4.26-.43,8.97,2.59,12.3l9.21,10.11-1.8,13.64c-.47,3.54.61,7.11,2.96,9.79,2.36,2.69,5.76,4.24,9.33,4.24,1.96,0,3.92-.48,5.67-1.38l10.89-5.61,10.89,5.61c1.75.9,3.71,1.38,5.67,1.38,3.57,0,6.97-1.54,9.33-4.24,2.35-2.68,3.43-6.25,2.96-9.79l-1.8-13.64,9.22-10.11c3.03-3.32,4.02-8.03,2.59-12.3-1.43-4.26-5.06-7.42-9.47-8.25l-12.52-2.35-5.8-11.5C48.45,2.61,44.21,0,39.5,0h0Z"/>
</svg>