<?xml version="1.0" encoding="UTF-8"?>
<svg id="Layer_1" xmlns="http://www.w3.org/2000/svg" version="1.1" viewBox="0 0 38 38">
  <!-- Generator: Adobe Illustrator 30.1.0, SVG Export Plug-In . SVG Version: 2.1.1 Build 136)  -->
  <circle id="Outer" cx="19" cy="19" r="17.68" fill="none" stroke="#000" stroke-width="2.64"/>
  <g>
    <g>
      <rect x="17.8" y="25.52" width="2.38" height="2.38"/>
      <path d="M20,25.7v2.02h-2.02v-2.02h2.02M20.36,25.35h-2.74v2.74h2.74v-2.74h0Z"/>
    </g>
    <g>
      <path d="M17.8,22.87v-.94c0-1,.37-1.96,1.04-2.71l2-2.22c.52-.58.8-1.32.8-2.09,0-1.1-.9-1.99-2.01-1.99h-1.29c-1.11,0-2,.89-2,1.99v.18h-2.4v-.18c0-2.41,1.98-4.37,4.4-4.37h1.29c2.43,0,4.4,1.96,4.4,4.37,0,1.36-.5,2.67-1.42,3.68l-2,2.22c-.29.32-.44.7-.44,1.11v.94h-2.38Z"/>
      <path d="M19.64,10.72c2.33,0,4.22,1.88,4.22,4.19,0,1.32-.49,2.58-1.37,3.56l-2,2.22c-.31.34-.48.77-.48,1.23v.77h-2.03v-.77c0-.96.35-1.87,1-2.59l2-2.22c.55-.61.85-1.39.85-2.21,0-1.2-.98-2.17-2.18-2.17h-1.29c-1.2,0-2.18.97-2.18,2.17h-2.04c0-2.31,1.89-4.19,4.22-4.19h1.29M19.64,10.36h-1.29c-2.53,0-4.58,2.04-4.58,4.55v.36h2.75v-.36c0-1,.82-1.81,1.83-1.81h1.29c1.01,0,1.83.81,1.83,1.81,0,.73-.27,1.43-.76,1.97l-2,2.22c-.7.78-1.09,1.78-1.09,2.82v.77s0,.35,0,.35h2.73v-.35s.01-.77.01-.77c0-.37.14-.71.39-1l2-2.22c.94-1.05,1.46-2.39,1.46-3.8,0-2.51-2.05-4.55-4.58-4.55h0Z"/>
    </g>
  </g>
</svg>