<?xml version="1.0" encoding="UTF-8"?>
<svg id="Layer_1" xmlns="http://www.w3.org/2000/svg" version="1.1" viewBox="0 0 38 38">
  <!-- Generator: Adobe Illustrator 30.1.0, SVG Export Plug-In . SVG Version: 2.1.1 Build 136)  -->
  <circle id="Outer" cx="19" cy="19" r="15.33" fill="none" stroke="#000" stroke-width="7.34"/>
  <g>
    <g>
      <rect x="17.78" y="23.74" width="2.42" height="2.42"/>
      <path d="M19.61,24.33v1.23h-1.23v-1.23h1.23M20.79,23.14h-3.61v3.61h3.61v-3.61h0Z"/>
    </g>
    <g>
      <path d="M17.79,21.47v-1.06c0-.74.27-1.44.76-1.98l1.22-1.35c.24-.26.37-.6.37-.95,0-.4-.33-.73-.74-.73h-.78c-.41,0-.74.33-.74.73v.59h-2.43v-.59c0-1.74,1.42-3.15,3.17-3.15h.78c1.75,0,3.17,1.41,3.17,3.15,0,.95-.35,1.86-.99,2.57l-1.22,1.35c-.09.1-.14.22-.14.36v1.06h-2.42Z"/>
      <path d="M19.39,13.58c1.42,0,2.58,1.15,2.58,2.56,0,.8-.3,1.57-.84,2.17l-1.22,1.35c-.19.21-.29.47-.29.75v.47h-1.24v-.47c0-.58.21-1.14.61-1.58l1.22-1.35c.33-.37.52-.85.52-1.35,0-.73-.6-1.32-1.33-1.32h-.78c-.73,0-1.33.59-1.33,1.32h-1.24c0-1.41,1.16-2.56,2.58-2.56h.78M19.39,12.39h-.78c-2.07,0-3.76,1.68-3.76,3.74v1.19h3.62v-1.19c0-.07.07-.13.14-.13h.78c.08,0,.14.06.14.13,0,.2-.08.4-.21.55l-1.22,1.35c-.59.65-.91,1.49-.92,2.37v.48s.01,1.18.01,1.18h3.59v-1.18s.02-.47.02-.47l1.21-1.32c.74-.82,1.14-1.87,1.14-2.97,0-2.06-1.69-3.74-3.76-3.74h0Z"/>
    </g>
  </g>
</svg>