<?xml version="1.0" encoding="UTF-8"?>
<svg id="Layer_1" xmlns="http://www.w3.org/2000/svg" version="1.1" viewBox="0 0 38 38">
  <!-- Generator: Adobe Illustrator 30.1.0, SVG Export Plug-In . SVG Version: 2.1.1 Build 136)  -->
  <circle id="Outer" cx="19" cy="19" r="16" fill="none" stroke="#000" stroke-width="6"/>
  <g>
    <g>
      <rect x="17.79" y="24.25" width="2.4" height="2.39"/>
      <path d="M19.71,24.73v1.44h-1.45v-1.44h1.45M20.66,23.78h-3.35v3.34h3.35v-3.34h0Z"/>
    </g>
    <g>
      <path d="M17.8,21.83v-1.02c0-.81.29-1.57.83-2.17l1.43-1.59c.31-.35.49-.79.49-1.26,0-.59-.49-1.07-1.09-1.07h-.92c-.6,0-1.08.48-1.08,1.07v.48h-2.41v-.48c0-1.91,1.57-3.47,3.49-3.47h.92c1.93,0,3.49,1.56,3.49,3.47,0,1.06-.39,2.07-1.1,2.86l-1.43,1.59c-.15.16-.22.36-.22.56v1.02h-2.4Z"/>
      <path d="M19.46,12.81c1.66,0,3.02,1.34,3.02,3,0,.94-.35,1.84-.98,2.54l-1.43,1.59c-.22.25-.34.55-.35.88v.55h-1.45v-.55c0-.68.25-1.34.71-1.85l1.43-1.59c.39-.43.61-.99.61-1.58,0-.85-.7-1.55-1.56-1.55h-.92c-.86,0-1.56.69-1.56,1.55h-1.46c0-1.65,1.35-3,3.02-3h.92M19.46,11.86h-.92c-2.19,0-3.97,1.77-3.97,3.95v.95h3.36v-.95c0-.33.27-.6.61-.6h.92c.34,0,.61.27.61.6,0,.35-.13.68-.36.94l-1.43,1.59c-.62.68-.96,1.56-.96,2.48v.56s.01.94.01.94h3.33v-.94s.02-.55.02-.55c0-.1.03-.18.1-.25l1.43-1.59c.79-.87,1.22-2,1.22-3.18,0-2.18-1.78-3.95-3.97-3.95h0Z"/>
    </g>
  </g>
</svg>