<?xml version="1.0" encoding="UTF-8"?>
<svg id="Layer_1" xmlns="http://www.w3.org/2000/svg" version="1.1" viewBox="0 0 38 38">
  <!-- Generator: Adobe Illustrator 30.1.0, SVG Export Plug-In . SVG Version: 2.1.1 Build 136)  -->
  <circle id="Outer" cx="19" cy="19" r="16.68" fill="none" stroke="#000" stroke-width="4.64"/>
  <g>
    <g>
      <rect x="17.8" y="24.77" width="2.38" height="2.38"/>
      <path d="M19.82,25.12v1.67h-1.67v-1.67h1.67M20.54,24.41h-3.1v3.1h3.1v-3.1h0Z"/>
    </g>
    <g>
      <path d="M17.8,22.23v-.99c0-.88.32-1.73.91-2.38l1.65-1.83c.39-.44.61-1,.61-1.58,0-.79-.65-1.43-1.45-1.43h-1.06c-.8,0-1.45.64-1.45,1.43v.36h-2.4v-.36c0-2.11,1.72-3.82,3.84-3.82h1.06c2.12,0,3.84,1.71,3.84,3.82,0,1.17-.43,2.3-1.22,3.18l-1.66,1.83c-.2.22-.31.49-.31.78v.99h-2.39Z"/>
      <path d="M19.53,11.99c1.92,0,3.49,1.55,3.49,3.46,0,1.09-.4,2.13-1.13,2.94l-1.65,1.83c-.26.28-.4.64-.4,1.02v.63h-1.68v-.63c0-.79.29-1.55.82-2.13l1.65-1.83c.45-.5.7-1.15.7-1.82,0-.99-.81-1.79-1.8-1.79h-1.06c-.99,0-1.8.8-1.8,1.79h-1.68c0-1.91,1.56-3.46,3.49-3.46h1.06M19.53,11.28h-1.06c-2.32,0-4.2,1.87-4.2,4.18v.71h3.11v-.71c0-.59.49-1.08,1.09-1.08h1.06c.6,0,1.09.48,1.09,1.08,0,.5-.18.97-.52,1.34l-1.65,1.83c-.65.72-1.01,1.64-1.01,2.61v.64s.01.71.01.71h3.08v-.71s.01-.63.01-.63c0-.21.07-.39.22-.55l1.65-1.83c.85-.94,1.32-2.15,1.32-3.42,0-2.3-1.88-4.18-4.2-4.18h0Z"/>
    </g>
  </g>
</svg>