<?xml version="1.0" encoding="UTF-8"?>
<svg id="Layer_1" xmlns="http://www.w3.org/2000/svg" version="1.1" viewBox="0 0 38 38">
  <!-- Generator: Adobe Illustrator 30.1.0, SVG Export Plug-In . SVG Version: 2.1.1 Build 136)  -->
  <circle id="Outer" cx="19" cy="19" r="17.35" fill="none" stroke="#000" stroke-width="3.3"/>
  <g>
    <g>
      <rect x="17.8" y="25.27" width="2.38" height="2.38"/>
      <path d="M19.94,25.51v1.9h-1.9v-1.9h1.9M20.42,25.04h-2.85v2.85h2.85v-2.85h0Z"/>
    </g>
    <g>
      <path d="M17.8,22.65v-.96c0-.96.35-1.88,1-2.59l1.88-2.09c.48-.53.74-1.21.74-1.92,0-.99-.82-1.8-1.82-1.8h-1.21c-1,0-1.82.81-1.82,1.8v.24h-2.4v-.24c0-2.31,1.89-4.18,4.21-4.18h1.21c2.32,0,4.21,1.88,4.21,4.18,0,1.3-.48,2.54-1.35,3.51l-1.89,2.09c-.26.28-.39.63-.39,1v.96h-2.38Z"/>
      <path d="M19.61,11.15c2.19,0,3.98,1.77,3.98,3.95,0,1.24-.46,2.43-1.29,3.35l-1.89,2.09c-.29.32-.45.72-.46,1.16v.72h-1.91v-.72c0-.9.33-1.76.94-2.43l1.89-2.09c.52-.57.8-1.31.8-2.08,0-1.12-.92-2.04-2.05-2.04h-1.21c-1.13,0-2.05.92-2.05,2.04h-1.92c0-2.18,1.78-3.95,3.98-3.95h1.21M19.61,10.67h-1.21c-2.45,0-4.45,1.98-4.45,4.42v.47h2.87v-.47c0-.86.71-1.57,1.58-1.57h1.21c.87,0,1.58.7,1.58,1.57,0,.65-.24,1.27-.68,1.76l-1.89,2.09c-.68.76-1.06,1.73-1.07,2.75v.73s.01.47.01.47h2.84v-.47s.01-.72.01-.72c0-.31.12-.61.33-.85l1.89-2.09c.91-1.01,1.41-2.31,1.41-3.67,0-2.44-2-4.42-4.45-4.42h0Z"/>
    </g>
  </g>
</svg>