<?xml version="1.0" encoding="UTF-8"?>
<svg id="Layer_1" xmlns="http://www.w3.org/2000/svg" version="1.1" viewBox="0 0 38 38">
  <!-- Generator: Adobe Illustrator 30.1.0, SVG Export Plug-In . SVG Version: 2.1.1 Build 136)  -->
  <circle id="Outer" cx="19" cy="19" r="15" fill="none" stroke="#000" stroke-width="8"/>
  <g>
    <g>
      <rect x="17.77" y="23.48" width="2.44" height="2.44"/>
      <path d="M19.56,24.13v1.13h-1.13v-1.13h1.13M20.86,22.82h-3.75v3.75h3.75v-3.75h0Z"/>
    </g>
    <g>
      <path d="M17.78,21.31v-1.08c0-.71.25-1.37.72-1.89l1.12-1.24c.2-.22.31-.5.31-.8s-.26-.56-.57-.56h-.72c-.31,0-.57.25-.57.56v.65h-2.45v-.65c0-1.66,1.35-3,3.02-3h.72c1.67,0,3.02,1.35,3.02,3,0,.9-.33,1.76-.94,2.43l-1.12,1.24c-.07.08-.1.16-.1.26v1.08h-2.44Z"/>
      <path d="M19.36,13.95c1.3,0,2.37,1.05,2.37,2.35,0,.74-.27,1.44-.77,1.99l-1.12,1.24c-.17.19-.27.43-.27.69v.43h-1.14v-.43c0-.54.2-1.05.56-1.45l1.12-1.24c.31-.34.48-.78.48-1.24,0-.67-.55-1.21-1.22-1.21h-.72c-.67,0-1.22.54-1.22,1.21h-1.14c0-1.3,1.06-2.35,2.37-2.35h.72M19.36,12.65h-.72c-2.02,0-3.67,1.64-3.67,3.66v1.31h3.32l-.27.3c-.58.64-.89,1.46-.9,2.32v.44s.02,1.29.02,1.29h3.72v-1.29s.02-.33.02-.33l1.06-1.17c.71-.79,1.1-1.81,1.1-2.87,0-2.02-1.65-3.66-3.67-3.66h0ZM18.72,16.39h.55c-.02.1-.06.19-.13.27l-.41.46v-.73h0Z"/>
    </g>
  </g>
</svg>