<?xml version="1.0" encoding="UTF-8"?>
<svg id="Layer_1" xmlns="http://www.w3.org/2000/svg" version="1.1" viewBox="0 0 8 8">
  <!-- Generator: Adobe Illustrator 30.1.0, SVG Export Plug-In . SVG Version: 2.1.1 Build 136)  -->
  <path d="M4,.7c.11,0,.21.06.27.17l.69,1.37c.12.24.34.4.6.45l1.5.28c.23.04.33.33.17.5l-1.09,1.2c-.17.18-.25.43-.21.68l.21,1.61c.03.19-.13.34-.3.34-.05,0-.09-.01-.14-.03l-1.31-.67c-.12-.06-.25-.09-.39-.09s-.27.03-.39.09l-1.31.67s-.09.03-.14.03c-.17,0-.33-.15-.3-.34l.21-1.61c.03-.25-.05-.5-.21-.68l-1.09-1.2c-.16-.18-.07-.46.17-.5l1.5-.28c.26-.05.48-.22.6-.45l.69-1.37c.06-.11.16-.17.27-.17M4,0C3.62,0,3.28.21,3.11.55l-.69,1.37s-.06.07-.11.08l-1.5.28c-.36.07-.65.32-.76.66-.12.34-.04.72.21.99l1.09,1.2s.04.08.04.12l-.21,1.61c-.04.29.05.57.24.79.19.22.46.34.75.34.16,0,.32-.04.46-.11l1.31-.67s.04-.02.07-.02.05,0,.07.02l1.31.67c.14.07.3.11.46.11.29,0,.56-.12.75-.34.19-.22.28-.5.24-.79l-.21-1.61s0-.09.04-.12l1.09-1.2c.24-.27.32-.65.21-.99-.11-.34-.41-.6-.76-.66l-1.5-.28s-.09-.04-.11-.08l-.69-1.37C4.72.21,4.38,0,4,0h0Z"/>
</svg>