<?xml version="1.0" encoding="UTF-8"?>
<svg id="Layer_1" xmlns="http://www.w3.org/2000/svg" version="1.1" viewBox="0 0 8 8">
  <!-- Generator: Adobe Illustrator 30.1.0, SVG Export Plug-In . SVG Version: 2.1.1 Build 136)  -->
  <path d="M4,.56c.11,0,.22.06.28.17l.72,1.43c.12.25.35.42.62.47l1.56.29c.24.05.34.34.18.53l-1.14,1.25c-.18.19-.26.45-.22.71l.22,1.68c.03.2-.13.36-.31.36-.05,0-.1-.01-.14-.04l-1.36-.7c-.13-.07-.26-.1-.4-.1-.14,0-.28.03-.4.1l-1.36.7s-.1.04-.14.04c-.18,0-.34-.16-.31-.36l.22-1.68c.03-.26-.05-.52-.22-.71l-1.14-1.25c-.17-.18-.07-.48.18-.53l1.56-.29c.27-.05.5-.22.62-.47l.72-1.43c.06-.12.17-.17.28-.17M4,0C3.67,0,3.37.18,3.22.48l-.72,1.43c-.05.09-.13.16-.23.17l-1.56.29c-.31.06-.57.28-.67.58-.1.3-.03.63.18.87l1.14,1.25c.07.07.1.17.08.26l-.22,1.68c-.03.25.04.5.21.69.17.19.41.3.66.3.14,0,.28-.03.4-.1l1.36-.7s.1-.04.15-.04.1.01.15.04l1.36.7c.12.06.26.1.4.1.25,0,.49-.11.66-.3.16-.19.24-.44.21-.69l-.22-1.68c-.01-.1.02-.19.08-.26l1.14-1.25c.21-.23.28-.57.18-.86-.1-.3-.36-.52-.67-.58l-1.56-.29c-.1-.02-.19-.08-.23-.17l-.72-1.43C4.63.18,4.33,0,4,0h0Z"/>
</svg>