<?xml version="1.0" encoding="UTF-8"?>
<svg id="Layer_1" xmlns="http://www.w3.org/2000/svg" version="1.1" viewBox="0 0 8 8">
  <!-- Generator: Adobe Illustrator 30.1.0, SVG Export Plug-In . SVG Version: 2.1.1 Build 136)  -->
  <path d="M4,1.54c.08,0,.16.04.2.12l.51,1.02c.09.17.25.3.44.33l1.11.21c.17.03.24.24.13.37l-.81.89c-.12.14-.18.32-.16.51l.16,1.2c.02.14-.1.26-.22.26-.03,0-.07,0-.1-.03l-.97-.5c-.09-.05-.19-.07-.29-.07s-.2.02-.29.07l-.97.5s-.07.03-.1.03c-.13,0-.24-.11-.22-.26l.16-1.2c.02-.18-.03-.37-.16-.51l-.81-.89c-.12-.13-.05-.34.13-.37l1.11-.21c.19-.04.36-.16.44-.33l.51-1.02c.04-.08.12-.12.2-.12M4,0C3.33,0,2.72.37,2.42.97l-.31.61-.66.12c-.63.12-1.15.57-1.35,1.18-.2.61-.06,1.28.37,1.76l.52.57-.1.78c-.07.51.09,1.02.42,1.4.34.38.82.6,1.33.6.28,0,.56-.07.81-.2l.55-.28.55.28c.25.13.53.2.81.2.51,0,1-.22,1.33-.6.34-.38.49-.89.42-1.4l-.1-.78.52-.57c.43-.47.57-1.15.37-1.76-.2-.61-.72-1.06-1.35-1.18l-.66-.12-.31-.61C5.28.37,4.67,0,4,0h0Z"/>
</svg>