<?xml version="1.0" encoding="UTF-8"?>
<svg id="Layer_1" xmlns="http://www.w3.org/2000/svg" version="1.1" viewBox="0 0 8 8">
  <!-- Generator: Adobe Illustrator 30.1.0, SVG Export Plug-In . SVG Version: 2.1.1 Build 136)  -->
  <path d="M4,.98c.1,0,.2.05.25.15l.63,1.26c.11.22.31.37.55.41l1.37.26c.21.04.3.3.15.46l-1,1.09c-.15.17-.23.4-.2.62l.19,1.47c.02.18-.12.32-.28.32-.04,0-.09,0-.13-.03l-1.2-.62c-.11-.06-.23-.09-.35-.09s-.24.03-.35.09l-1.2.62s-.08.03-.13.03c-.16,0-.3-.14-.28-.32l.19-1.48c.03-.23-.04-.45-.2-.62l-1-1.09c-.15-.16-.06-.42.15-.46l1.37-.26c.24-.04.44-.2.55-.41l.63-1.26c.05-.1.15-.15.25-.15M4,0C3.52,0,3.09.26,2.88.69l-.59,1.17-1.27.24c-.45.08-.81.4-.96.84-.14.43-.04.91.26,1.25l.93,1.02-.18,1.38c-.05.36.06.72.3.99.24.27.58.43.94.43.2,0,.4-.05.57-.14l1.1-.57,1.1.57c.18.09.38.14.57.14.36,0,.71-.16.94-.43.24-.27.35-.63.3-.99l-.18-1.38.93-1.02c.31-.34.41-.81.26-1.25-.14-.43-.51-.75-.96-.84l-1.27-.24-.59-1.17C4.91.26,4.48,0,4,0h0Z"/>
</svg>