<?xml version="1.0" encoding="UTF-8"?>
<svg id="Layer_1" xmlns="http://www.w3.org/2000/svg" version="1.1" viewBox="0 0 25 25">
  <!-- Generator: Adobe Illustrator 30.1.0, SVG Export Plug-In . SVG Version: 2.1.1 Build 136)  -->
  <g>
    <g>
      <rect x="11.59" y="7.13" width="1.81" height="1.81"/>
      <path d="M13.09,7.44v1.19h-1.19v-1.19h1.19M13.72,6.81h-2.44v2.44h2.44v-2.44h0Z"/>
    </g>
    <g>
      <polygon points="10.4 17.69 10.4 15.88 11.59 15.88 11.59 12.79 10.4 12.79 10.4 10.98 13.41 10.98 13.41 15.88 14.6 15.88 14.6 17.69 10.4 17.69"/>
      <path d="M13.09,11.29v4.9h1.19v1.19h-3.57v-1.19h1.19v-3.71h-1.19v-1.19h2.38M13.72,10.67h-3.63v2.44h1.19v2.46h-1.19v2.44h4.82v-2.44h-1.19v-4.9h0Z"/>
    </g>
  </g>
  <circle id="Outer" cx="12.5" cy="12.5" r="10.53" fill="none" stroke="#000" stroke-width="3.95"/>
</svg>