<?xml version="1.0" encoding="UTF-8"?>
<svg id="Layer_1" xmlns="http://www.w3.org/2000/svg" version="1.1" viewBox="0 0 25 25">
  <!-- Generator: Adobe Illustrator 30.1.0, SVG Export Plug-In . SVG Version: 2.1.1 Build 136)  -->
  <g>
    <g>
      <rect x="11.61" y="6.81" width="1.79" height="1.79"/>
      <path d="M13.16,7.04v1.32h-1.32v-1.32h1.32M13.63,6.57h-2.26v2.26h2.26v-2.26h0Z"/>
    </g>
    <g>
      <polygon points="10.29 18.08 10.29 16.3 11.61 16.3 11.61 12.65 10.29 12.65 10.29 10.86 13.39 10.86 13.39 16.3 14.71 16.3 14.71 18.08 10.29 18.08"/>
      <path d="M13.16,11.1v5.43h1.32v1.32h-3.95v-1.32h1.32v-4.11h-1.32v-1.32h2.64M13.63,10.63h-3.57v2.26h1.32v3.18h-1.32v2.26h4.89v-2.26h-1.32v-5.43h0Z"/>
    </g>
  </g>
  <circle id="Outer" cx="12.5" cy="12.5" r="10.97" fill="none" stroke="#000" stroke-width="3.05"/>
</svg>