<?xml version="1.0" encoding="UTF-8"?>
<svg id="Layer_1" xmlns="http://www.w3.org/2000/svg" version="1.1" viewBox="0 0 25 25">
  <!-- Generator: Adobe Illustrator 30.1.0, SVG Export Plug-In . SVG Version: 2.1.1 Build 136)  -->
  <g>
    <g>
      <rect x="11.62" y="6.49" width="1.76" height="1.76"/>
      <path d="M13.22,6.64v1.45h-1.45v-1.45h1.45M13.54,6.33h-2.07v2.07h2.07v-2.07h0Z"/>
    </g>
    <g>
      <polygon points="10.17 18.47 10.17 16.71 11.62 16.71 11.62 12.51 10.17 12.51 10.17 10.75 13.38 10.75 13.38 16.71 14.83 16.71 14.83 18.47 10.17 18.47"/>
      <path d="M13.22,10.9v5.97h1.45v1.45h-4.34v-1.45h1.45v-4.52h-1.45v-1.45h2.9M13.54,10.59h-3.52v2.07h1.45v3.9h-1.45v2.07h4.97v-2.07h-1.45v-5.97h0Z"/>
    </g>
  </g>
  <circle id="Outer" cx="12.5" cy="12.5" r="11.41" fill="none" stroke="#000" stroke-width="2.17"/>
</svg>