<?xml version="1.0" encoding="UTF-8"?>
<svg id="Layer_1" xmlns="http://www.w3.org/2000/svg" version="1.1" viewBox="0 0 25 25">
  <!-- Generator: Adobe Illustrator 30.1.0, SVG Export Plug-In . SVG Version: 2.1.1 Build 136)  -->
  <g>
    <g>
      <rect x="11.63" y="6.33" width="1.75" height="1.75"/>
      <path d="M13.26,6.45v1.51h-1.51v-1.51h1.51M13.49,6.21h-1.98v1.98h1.98v-1.98h0Z"/>
    </g>
    <g>
      <polygon points="10.11 18.67 10.11 16.92 11.63 16.92 11.63 12.43 10.11 12.43 10.11 10.69 13.37 10.69 13.37 16.92 14.89 16.92 14.89 18.67 10.11 18.67"/>
      <path d="M13.26,10.8v6.24h1.51v1.51h-4.54v-1.51h1.51v-4.72h-1.51v-1.51h3.03M13.49,10.57h-3.5v1.98h1.51v4.26h-1.51v1.98h5.01v-1.98h-1.51v-6.24h0Z"/>
    </g>
  </g>
  <circle id="Outer" cx="12.5" cy="12.5" r="11.63" fill="none" stroke="#000" stroke-width="1.73"/>
</svg>