<?xml version="1.0" encoding="UTF-8"?>
<svg id="Layer_1" xmlns="http://www.w3.org/2000/svg" version="1.1" viewBox="0 0 94 94">
  <!-- Generator: Adobe Illustrator 30.1.0, SVG Export Plug-In . SVG Version: 2.1.1 Build 136)  -->
  <g>
    <g>
      <rect x="43.69" y="24.39" width="6.62" height="6.62"/>
      <path d="M49.72,24.98v5.44h-5.44v-5.44h5.44M50.9,23.81h-7.79v7.79h7.79v-7.79h0Z"/>
    </g>
    <g>
      <polygon points="38.25 69.46 38.25 62.84 43.69 62.84 43.69 47.02 38.25 47.02 38.25 40.4 50.31 40.4 50.31 62.84 55.75 62.84 55.75 69.46 38.25 69.46"/>
      <path d="M49.72,40.99v22.44h5.44v5.44h-16.33v-5.44h5.44v-17h-5.44v-5.44h10.89M50.9,39.82h-13.24v7.79h5.44v14.65h-5.44v7.79h18.68v-7.79h-5.44v-22.44h0Z"/>
    </g>
  </g>
  <circle id="Outer" cx="47" cy="47" r="42.92" fill="none" stroke="#000" stroke-width="8.17"/>
</svg>