<?xml version="1.0" encoding="UTF-8"?>
<svg id="Layer_1" xmlns="http://www.w3.org/2000/svg" version="1.1" viewBox="0 0 94 94">
  <!-- Generator: Adobe Illustrator 30.1.0, SVG Export Plug-In . SVG Version: 2.1.1 Build 136)  -->
  <g>
    <g>
      <rect x="43.64" y="25.59" width="6.72" height="6.72"/>
      <path d="M49.48,26.47v4.96h-4.96v-4.96h4.96M51.24,24.71h-8.48v8.48h8.48v-8.48h0Z"/>
    </g>
    <g>
      <polygon points="38.69 67.99 38.69 61.28 43.64 61.28 43.64 47.57 38.69 47.57 38.69 40.85 50.36 40.85 50.36 61.28 55.31 61.28 55.31 67.99 38.69 67.99"/>
      <path d="M49.48,41.73v20.43h4.96v4.96h-14.87v-4.96h4.96v-15.47h-4.96v-4.96h9.91M51.24,39.97h-13.44v8.48h4.96v11.95h-4.96v8.48h18.39v-8.48h-4.96v-20.43h0Z"/>
    </g>
  </g>
  <circle id="Outer" cx="47" cy="47" r="41.26" fill="none" stroke="#000" stroke-width="11.49"/>
</svg>