<?xml version="1.0" encoding="UTF-8"?>
<svg id="Layer_1" xmlns="http://www.w3.org/2000/svg" version="1.1" viewBox="0 0 94 94">
  <!-- Generator: Adobe Illustrator 30.1.0, SVG Export Plug-In . SVG Version: 2.1.1 Build 136)  -->
  <g>
    <g>
      <rect x="43.71" y="23.8" width="6.57" height="6.57"/>
      <path d="M49.84,24.24v5.69h-5.69v-5.69h5.69M50.73,23.36h-7.45v7.45h7.45v-7.45h0Z"/>
    </g>
    <g>
      <polygon points="38.02 70.2 38.02 63.63 43.71 63.63 43.71 46.75 38.02 46.75 38.02 40.18 50.29 40.18 50.29 63.63 55.98 63.63 55.98 70.2 38.02 70.2"/>
      <path d="M49.84,40.62v23.45h5.69v5.69h-17.07v-5.69h5.69v-17.76h-5.69v-5.69h11.38M50.73,39.74h-13.14v7.45h5.69v16h-5.69v7.45h18.83v-7.45h-5.69v-23.45h0Z"/>
    </g>
  </g>
  <circle id="Outer" cx="47" cy="47" r="43.74" fill="none" stroke="#000" stroke-width="6.52"/>
</svg>