<?xml version="1.0" encoding="UTF-8"?>
<svg id="Layer_1" xmlns="http://www.w3.org/2000/svg" version="1.1" viewBox="0 0 44 44">
  <!-- Generator: Adobe Illustrator 30.1.0, SVG Export Plug-In . SVG Version: 2.1.1 Build 136)  -->
  <g>
    <g>
      <rect x="20.43" y="11.98" width="3.14" height="3.14"/>
      <path d="M23.16,12.39v2.32h-2.32v-2.32h2.32M23.98,11.57h-3.97v3.97h3.97v-3.97h0Z"/>
    </g>
    <g>
      <polygon points="18.11 31.83 18.11 28.68 20.43 28.68 20.43 22.27 18.11 22.27 18.11 19.12 23.57 19.12 23.57 28.68 25.89 28.68 25.89 31.83 18.11 31.83"/>
      <path d="M23.16,19.53v9.56h2.32v2.32h-6.96v-2.32h2.32v-7.24h-2.32v-2.32h4.64M23.98,18.71h-6.29v3.97h2.32v5.59h-2.32v3.97h8.61v-3.97h-2.32v-9.56h0Z"/>
    </g>
  </g>
  <circle id="Outer" cx="22" cy="22" r="19.31" fill="none" stroke="#000" stroke-width="5.38"/>
</svg>