<?xml version="1.0" encoding="UTF-8"?>
<svg id="Layer_1" xmlns="http://www.w3.org/2000/svg" version="1.1" viewBox="0 0 44 44">
  <!-- Generator: Adobe Illustrator 30.1.0, SVG Export Plug-In . SVG Version: 2.1.1 Build 136)  -->
  <g>
    <g>
      <rect x="20.4" y="12.54" width="3.19" height="3.19"/>
      <path d="M23.05,13.09v2.09h-2.09v-2.09h2.09M24.15,11.99h-4.29v4.29h4.29v-4.29h0Z"/>
    </g>
    <g>
      <polygon points="18.31 31.14 18.31 27.95 20.4 27.95 20.4 22.52 18.31 22.52 18.31 19.32 23.6 19.32 23.6 27.95 25.69 27.95 25.69 31.14 18.31 31.14"/>
      <path d="M23.05,19.87v8.62h2.09v2.09h-6.28v-2.09h2.09v-6.53h-2.09v-2.09h4.18M24.15,18.77h-6.38v4.29h2.09v4.33h-2.09v4.29h8.48v-4.29h-2.09v-8.62h0Z"/>
    </g>
  </g>
  <circle id="Outer" cx="22" cy="22" r="18.53" fill="none" stroke="#000" stroke-width="6.94"/>
</svg>