<?xml version="1.0" encoding="UTF-8"?>
<svg id="Layer_1" xmlns="http://www.w3.org/2000/svg" version="1.1" viewBox="0 0 44 44">
  <!-- Generator: Adobe Illustrator 30.1.0, SVG Export Plug-In . SVG Version: 2.1.1 Build 136)  -->
  <g>
    <g>
      <rect x="20.45" y="11.42" width="3.1" height="3.1"/>
      <path d="M23.27,11.69v2.55h-2.55v-2.55h2.55M23.82,11.14h-3.65v3.65h3.65v-3.65h0Z"/>
    </g>
    <g>
      <polygon points="17.9 32.52 17.9 29.42 20.45 29.42 20.45 22.01 17.9 22.01 17.9 18.91 23.55 18.91 23.55 29.42 26.1 29.42 26.1 32.52 17.9 32.52"/>
      <path d="M23.27,19.19v10.5h2.55v2.55h-7.65v-2.55h2.55v-7.96h-2.55v-2.55h5.1M23.82,18.64h-6.2v3.65h2.55v6.86h-2.55v3.65h8.75v-3.65h-2.55v-10.5h0Z"/>
    </g>
  </g>
  <circle id="Outer" cx="22" cy="22" r="20.09" fill="none" stroke="#000" stroke-width="3.82"/>
</svg>