<?xml version="1.0" encoding="UTF-8"?>
<svg id="Layer_1" xmlns="http://www.w3.org/2000/svg" version="1.1" viewBox="0 0 112 112">
  <!-- Generator: Adobe Illustrator 30.1.0, SVG Export Plug-In . SVG Version: 2.1.1 Build 136)  -->
  <path d="M56,23.59c1.05,0,2.11.55,2.66,1.64l6.78,13.46c1.16,2.31,3.33,3.94,5.87,4.42l14.67,2.75c2.29.43,3.22,3.22,1.65,4.94l-10.69,11.73c-1.65,1.81-2.42,4.26-2.1,6.69l2.09,15.81c.25,1.89-1.25,3.38-2.95,3.38-.45,0-.91-.11-1.36-.34l-12.83-6.61c-1.19-.61-2.49-.92-3.79-.92s-2.6.31-3.79.92l-12.83,6.61c-.45.23-.91.34-1.36.34-1.7,0-3.2-1.49-2.95-3.38l2.09-15.82c.32-2.43-.45-4.87-2.09-6.68l-10.69-11.73c-1.57-1.73-.64-4.52,1.65-4.95l14.67-2.75c2.54-.48,4.71-2.11,5.87-4.42l6.78-13.46c.55-1.09,1.6-1.64,2.66-1.64M56,0C45.91,0,36.82,5.6,32.27,14.62l-3.38,6.7-7.22,1.35c-9.46,1.77-17.24,8.55-20.3,17.68-3.06,9.13-.93,19.23,5.56,26.35l5.9,6.48-1.16,8.78c-1,7.59,1.32,15.24,6.35,20.99,5.05,5.76,12.34,9.07,19.98,9.07,4.2,0,8.41-1.02,12.16-2.95l5.82-3,5.82,3c3.75,1.93,7.96,2.95,12.16,2.95,7.65,0,14.93-3.3,19.98-9.07,5.04-5.75,7.36-13.4,6.35-20.99l-1.16-8.78,5.9-6.48c6.49-7.12,8.62-17.21,5.56-26.34-3.06-9.13-10.84-15.9-20.3-17.68l-7.22-1.35-3.38-6.7C75.18,5.6,66.09,0,56,0h0Z"/>
</svg>