<?xml version="1.0" encoding="UTF-8"?>
<svg id="Layer_1" xmlns="http://www.w3.org/2000/svg" version="1.1" viewBox="0 0 102 102">
  <!-- Generator: Adobe Illustrator 30.1.0, SVG Export Plug-In . SVG Version: 2.1.1 Build 136)  -->
  <circle id="Outer" cx="51" cy="51" r="46.57" fill="none" stroke="#000" stroke-width="8.86"/>
  <g>
    <g>
      <rect x="47.78" y="67.84" width="6.38" height="6.38"/>
      <path d="M53.52,68.48v5.11h-5.11v-5.11h5.11M54.8,67.2h-7.66v7.66h7.66v-7.66h0Z"/>
    </g>
    <g>
      <path d="M47.79,60.8l-.02-2.56c0-2.58.97-5.05,2.7-6.96l5.06-5.61c1.28-1.42,1.98-3.24,1.98-5.15,0-2.67-2.19-4.84-4.88-4.84h-3.25c-2.69,0-4.88,2.17-4.88,4.84v.64h-6.43v-.64c0-6.19,5.07-11.23,11.31-11.23h3.25c6.24,0,11.31,5.04,11.31,11.23,0,3.48-1.29,6.82-3.63,9.42l-5.06,5.61c-.69.76-1.05,1.69-1.06,2.69l-.03,2.57h-6.37Z"/>
      <path d="M52.63,29.92c5.88,0,10.67,4.75,10.67,10.6,0,3.32-1.23,6.52-3.46,8.99l-5.06,5.61c-.78.87-1.22,1.95-1.22,3.11l-.02,1.93h-5.11l-.02-1.93c0-2.42.9-4.73,2.53-6.53l5.06-5.61c1.39-1.53,2.15-3.51,2.15-5.57,0-3.02-2.47-5.48-5.51-5.48h-3.25c-3.04,0-5.51,2.46-5.51,5.48h-5.16c0-5.84,4.79-10.6,10.67-10.6h3.25M52.63,28.65h-3.25c-6.59,0-11.95,5.32-11.95,11.87v1.27h7.71v-1.27c0-2.32,1.9-4.2,4.24-4.2h3.25c2.34,0,4.24,1.88,4.24,4.2,0,1.74-.65,3.42-1.82,4.72l-5.06,5.61c-1.83,2.03-2.85,4.65-2.86,7.38l.02,1.95v1.26h7.65v-1.26s.03-1.93.03-1.93c0-.85.31-1.63.89-2.27l5.06-5.61c2.45-2.71,3.79-6.21,3.79-9.84,0-6.55-5.36-11.87-11.95-11.87h0Z"/>
    </g>
  </g>
</svg>