<?xml version="1.0" encoding="UTF-8"?>
<svg id="Layer_1" xmlns="http://www.w3.org/2000/svg" version="1.1" viewBox="0 0 102 102">
  <!-- Generator: Adobe Illustrator 30.1.0, SVG Export Plug-In . SVG Version: 2.1.1 Build 136)  -->
  <circle id="Outer" cx="51" cy="51" r="42.95" fill="none" stroke="#000" stroke-width="16.1"/>
  <g>
    <g>
      <rect x="47.76" y="65.1" width="6.43" height="6.43"/>
      <path d="M52.91,66.38v3.88h-3.88v-3.88h3.88M55.46,63.83h-8.98v8.98h8.98v-8.98h0Z"/>
    </g>
    <g>
      <path d="M47.78,58.6l-.02-2.73c0-2.17.81-4.23,2.25-5.82l3.84-4.25c.84-.93,1.3-2.13,1.3-3.38,0-1.59-1.31-2.88-2.91-2.88h-2.47c-1.6,0-2.91,1.29-2.91,2.88v1.27h-6.46v-1.27c0-5.14,4.21-9.32,9.37-9.32h2.47c5.17,0,9.38,4.18,9.38,9.32,0,2.84-1.05,5.56-2.96,7.68l-3.84,4.26c-.39.43-.6.96-.6,1.51l-.03,2.74h-6.4Z"/>
      <path d="M52.23,34.37c4.47,0,8.1,3.61,8.1,8.04,0,2.52-.93,4.95-2.63,6.82l-3.84,4.26c-.6.66-.92,1.48-.93,2.36v1.47h-3.89v-1.47c0-1.84.67-3.59,1.91-4.96l3.84-4.26c1.05-1.16,1.63-2.67,1.63-4.23,0-2.29-1.88-4.16-4.19-4.16h-2.47c-2.31,0-4.19,1.87-4.19,4.16h-3.91c0-4.43,3.63-8.04,8.1-8.04h2.47M52.23,31.82h-2.47c-5.87,0-10.65,4.75-10.65,10.59v2.55h9.01v-2.55c0-.89.73-1.61,1.64-1.61h2.47c.9,0,1.64.72,1.64,1.61,0,.93-.35,1.83-.97,2.52l-3.84,4.26c-1.65,1.83-2.57,4.19-2.58,6.66v1.5s.04,2.53.04,2.53h8.93l.03-2.52v-1.47c.02-.26.1-.48.28-.68l3.84-4.26c2.12-2.35,3.29-5.38,3.29-8.53,0-5.84-4.78-10.59-10.65-10.59h0Z"/>
    </g>
  </g>
</svg>