<?xml version="1.0" encoding="UTF-8"?>
<svg id="Layer_1" xmlns="http://www.w3.org/2000/svg" version="1.1" viewBox="0 0 102 102">
  <!-- Generator: Adobe Illustrator 30.1.0, SVG Export Plug-In . SVG Version: 2.1.1 Build 136)  -->
  <circle id="Outer" cx="51" cy="51" r="47.46" fill="none" stroke="#000" stroke-width="7.08"/>
  <g>
    <g>
      <rect x="47.77" y="68.51" width="6.39" height="6.39"/>
      <path d="M53.68,68.99v5.43h-5.43v-5.43h5.43M54.64,68.03h-7.34v7.34h7.34v-7.34h0Z"/>
    </g>
    <g>
      <path d="M47.78,61.39l-.02-2.53c0-2.69,1.01-5.27,2.81-7.27l5.38-5.96c1.39-1.54,2.16-3.53,2.16-5.6,0-2.95-2.41-5.34-5.38-5.34h-3.46c-2.97,0-5.38,2.4-5.38,5.34v.48h-6.43v-.48c0-6.47,5.3-11.74,11.82-11.74h3.46c6.52,0,11.82,5.27,11.82,11.74,0,3.65-1.35,7.16-3.81,9.87l-5.38,5.96c-.77.85-1.17,1.88-1.17,2.99l-.03,2.53h-6.38Z"/>
      <path d="M52.73,28.78c6.25,0,11.34,5.05,11.34,11.26,0,3.53-1.31,6.92-3.68,9.55l-5.38,5.96c-.83.92-1.29,2.07-1.3,3.31l-.02,2.05h-5.43l-.02-2.05c0-2.57.96-5.03,2.69-6.94l5.38-5.96c1.47-1.63,2.28-3.73,2.28-5.92,0-3.21-2.63-5.82-5.86-5.82h-3.45c-3.23,0-5.86,2.61-5.86,5.82h-5.48c0-6.21,5.09-11.26,11.34-11.26h3.45M52.73,27.82h-3.45c-6.78,0-12.3,5.48-12.3,12.22v.96h7.39v-.96c0-2.68,2.2-4.86,4.9-4.86h3.45c2.7,0,4.9,2.18,4.9,4.86,0,1.95-.72,3.83-2.04,5.28l-5.38,5.96c-1.88,2.08-2.93,4.77-2.94,7.58l.02,2.07v.95h7.33v-.95s.03-2.05.03-2.05c0-1,.37-1.92,1.05-2.68l5.38-5.96c2.53-2.81,3.93-6.43,3.93-10.19,0-6.74-5.52-12.22-12.3-12.22h0Z"/>
    </g>
  </g>
</svg>