<?xml version="1.0" encoding="UTF-8"?>
<svg id="Layer_1" xmlns="http://www.w3.org/2000/svg" version="1.1" viewBox="0 0 102 102">
  <!-- Generator: Adobe Illustrator 30.1.0, SVG Export Plug-In . SVG Version: 2.1.1 Build 136)  -->
  <circle id="Outer" cx="51" cy="51" r="44.77" fill="none" stroke="#000" stroke-width="12.46"/>
  <g>
    <g>
      <rect x="47.77" y="66.48" width="6.4" height="6.4"/>
      <path d="M53.21,67.44v4.48h-4.48v-4.48h4.48M55.12,65.53h-8.31v8.31h8.31v-8.31h0Z"/>
    </g>
    <g>
      <path d="M47.79,59.67l-.02-2.64c0-2.37.88-4.63,2.47-6.38l4.44-4.92c1.06-1.17,1.64-2.68,1.64-4.25,0-2.12-1.74-3.85-3.88-3.85h-2.85c-2.14,0-3.88,1.73-3.88,3.85v.96h-6.44v-.96c0-5.65,4.63-10.25,10.32-10.25h2.85c5.69,0,10.32,4.6,10.32,10.25,0,3.15-1.17,6.18-3.29,8.53l-4.44,4.92c-.54.59-.82,1.32-.83,2.09l-.03,2.65h-6.38Z"/>
      <path d="M52.43,32.18c5.16,0,9.36,4.17,9.36,9.3,0,2.92-1.08,5.72-3.04,7.89l-4.44,4.92c-.69.76-1.07,1.71-1.07,2.73l-.02,1.7h-4.48v-1.7c0-2.12.78-4.15,2.21-5.73l4.44-4.92c1.22-1.35,1.88-3.08,1.88-4.89,0-2.65-2.17-4.8-4.84-4.8h-2.85c-2.67,0-4.84,2.16-4.84,4.8h-4.52c0-5.12,4.2-9.3,9.36-9.3h2.85M52.43,30.27h-2.85c-6.22,0-11.27,5.03-11.27,11.21v1.91h8.35v-1.91c0-1.59,1.31-2.89,2.93-2.89h2.85c1.61,0,2.93,1.3,2.93,2.89,0,1.33-.49,2.61-1.39,3.61l-4.44,4.92c-1.74,1.92-2.7,4.41-2.71,7l.02,1.72.02,1.9h8.27l.02-1.89.02-1.7c0-.56.2-1.04.58-1.47l4.44-4.92c2.28-2.52,3.53-5.78,3.53-9.17,0-6.18-5.06-11.21-11.27-11.21h0Z"/>
    </g>
  </g>
</svg>