<?xml version="1.0" encoding="UTF-8"?>
<svg id="Layer_1" xmlns="http://www.w3.org/2000/svg" version="1.1" viewBox="0 0 102 102">
  <!-- Generator: Adobe Illustrator 30.1.0, SVG Export Plug-In . SVG Version: 2.1.1 Build 136)  -->
  <circle id="Outer" cx="51" cy="51" r="40.26" fill="none" stroke="#000" stroke-width="21.48"/>
  <g>
    <g>
      <rect x="47.7" y="63.02" width="6.55" height="6.55"/>
      <path d="M52.5,64.77v3.04h-3.04v-3.04h3.04M56,61.27h-10.05v10.05h10.05v-10.05h0Z"/>
    </g>
    <g>
      <path d="M47.73,57.2l-.03-2.89c0-1.89.7-3.69,1.96-5.08l3.01-3.34c.53-.59.83-1.35.83-2.14,0-.83-.69-1.51-1.53-1.51h-1.93c-.84,0-1.53.68-1.53,1.51v1.75h-6.57v-1.75c0-4.44,3.64-8.06,8.1-8.06h1.93c4.47,0,8.1,3.62,8.1,8.06,0,2.41-.89,4.73-2.51,6.53l-3.01,3.34c-.18.2-.28.43-.28.68l-.03,2.9h-6.51Z"/>
      <path d="M51.97,37.45c3.5,0,6.35,2.83,6.35,6.31,0,1.98-.73,3.88-2.06,5.35l-3.01,3.34c-.47.52-.73,1.16-.73,1.85v1.15h-3.05v-1.15c0-1.44.53-2.81,1.5-3.89l3.01-3.34c.82-.91,1.28-2.09,1.28-3.32,0-1.8-1.47-3.26-3.28-3.26h-1.93c-1.81,0-3.28,1.46-3.28,3.26h-3.07c0-3.48,2.85-6.31,6.35-6.31h1.93M51.97,33.95h-1.93c-5.43,0-9.86,4.4-9.86,9.81v3.51h8.9l-.72.8c-1.54,1.71-2.4,3.92-2.41,6.22v1.19s.04,3.48.04,3.48h9.99l.04-3.47v-.88s2.85-3.15,2.85-3.15c1.91-2.12,2.97-4.85,2.97-7.7,0-5.41-4.42-9.81-9.86-9.81h0ZM50.26,44.01h1.47c-.05.27-.17.52-.35.72l-1.11,1.23v-1.95h0Z"/>
    </g>
  </g>
</svg>