<?xml version="1.0" encoding="UTF-8"?>
<svg id="Layer_1" xmlns="http://www.w3.org/2000/svg" version="1.1" viewBox="0 0 102 102">
  <!-- Generator: Adobe Illustrator 30.1.0, SVG Export Plug-In . SVG Version: 2.1.1 Build 136)  -->
  <circle id="Outer" cx="51" cy="51" r="41.15" fill="none" stroke="#000" stroke-width="19.7"/>
  <g>
    <g>
      <rect x="47.73" y="63.71" width="6.5" height="6.5"/>
      <path d="M52.63,65.31v3.31h-3.31v-3.31h3.31M55.82,62.12h-9.69v9.69h9.69v-9.69h0Z"/>
    </g>
    <g>
      <path d="M47.75,57.64l-.02-2.83c0-1.98.74-3.86,2.05-5.31l3.28-3.63c.63-.7.98-1.6.98-2.54,0-1.08-.89-1.95-1.98-1.95h-2.11c-1.09,0-1.98.88-1.98,1.95v1.59h-6.53v-1.59c0-4.66,3.82-8.46,8.51-8.46h2.11c4.69,0,8.51,3.79,8.51,8.46,0,2.55-.94,5-2.66,6.89l-3.28,3.63c-.25.28-.38.6-.38.95l-.03,2.84h-6.47Z"/>
      <path d="M52.05,36.46c3.81,0,6.91,3.08,6.91,6.86,0,2.15-.8,4.22-2.24,5.82l-3.28,3.63c-.51.56-.79,1.26-.79,2.02v1.25h-3.32v-1.25c0-1.57.57-3.06,1.63-4.23l3.28-3.63c.9-.99,1.39-2.28,1.39-3.61,0-1.96-1.6-3.55-3.57-3.55h-2.11c-1.97,0-3.57,1.59-3.57,3.55h-3.34c0-3.78,3.1-6.86,6.91-6.86h2.11M52.05,33.27h-2.11c-5.57,0-10.1,4.51-10.1,10.05v3.19h9.71v-3.19c0-.2.18-.36.39-.36h2.11c.21,0,.39.17.39.36,0,.54-.2,1.07-.57,1.47l-3.28,3.63c-1.58,1.74-2.45,4-2.46,6.36v1.29s.04,3.16.04,3.16h9.63l.03-3.16v-1.2s3.26-3.6,3.26-3.6c1.98-2.19,3.07-5.02,3.07-7.96,0-5.54-4.53-10.05-10.1-10.05h0Z"/>
    </g>
  </g>
</svg>