<?xml version="1.0" encoding="UTF-8"?>
<svg id="Layer_1" xmlns="http://www.w3.org/2000/svg" version="1.1" viewBox="0 0 19 19">
  <!-- Generator: Adobe Illustrator 30.1.0, SVG Export Plug-In . SVG Version: 2.1.1 Build 136)  -->
  <path d="M9.5,4c.18,0,.36.09.45.28l1.15,2.28c.2.39.57.67,1,.75l2.49.47c.39.07.55.55.28.84l-1.81,1.99c-.28.31-.41.72-.36,1.13l.35,2.68c.04.32-.21.57-.5.57-.08,0-.15-.02-.23-.06l-2.18-1.12c-.2-.1-.42-.16-.64-.16s-.44.05-.64.16l-2.18,1.12c-.08.04-.15.06-.23.06-.29,0-.54-.25-.5-.57l.35-2.68c.05-.41-.08-.83-.36-1.13l-1.81-1.99c-.27-.29-.11-.77.28-.84l2.49-.47c.43-.08.8-.36,1-.75l1.15-2.28c.09-.19.27-.28.45-.28M9.5,0C7.79,0,6.25.95,5.47,2.48l-.57,1.14-1.22.23c-1.61.3-2.92,1.45-3.44,3-.52,1.55-.16,3.26.94,4.47l1,1.1-.2,1.49c-.17,1.29.22,2.59,1.08,3.56.86.98,2.09,1.54,3.39,1.54.71,0,1.43-.17,2.06-.5l.99-.51.99.51c.64.33,1.35.5,2.06.5,1.3,0,2.53-.56,3.39-1.54.85-.98,1.25-2.27,1.08-3.56l-.2-1.49,1-1.1c1.1-1.21,1.46-2.92.94-4.47-.52-1.55-1.84-2.7-3.44-3l-1.23-.23-.57-1.14C12.75.95,11.21,0,9.5,0h0Z"/>
</svg>