<?xml version="1.0" encoding="UTF-8"?>
<svg id="Layer_1" xmlns="http://www.w3.org/2000/svg" version="1.1" viewBox="0 0 19 19">
  <!-- Generator: Adobe Illustrator 30.1.0, SVG Export Plug-In . SVG Version: 2.1.1 Build 136)  -->
  <path d="M9.5,3.67c.19,0,.38.1.48.29l1.22,2.42c.21.42.6.71,1.06.8l2.64.49c.41.08.58.58.3.89l-1.92,2.11c-.3.33-.43.77-.38,1.2l.38,2.84c.04.34-.23.61-.53.61-.08,0-.16-.02-.24-.06l-2.31-1.19c-.21-.11-.45-.17-.68-.17s-.47.06-.68.17l-2.31,1.19c-.08.04-.16.06-.24.06-.31,0-.58-.27-.53-.61l.38-2.85c.06-.44-.08-.88-.38-1.2l-1.92-2.11c-.28-.31-.12-.81.3-.89l2.64-.49c.46-.09.85-.38,1.06-.79l1.22-2.42c.1-.2.29-.29.48-.29M9.5,0C7.9,0,6.46.89,5.74,2.31l-.74,1.46-1.58.3c-1.5.28-2.73,1.35-3.21,2.8-.48,1.45-.15,3.04.88,4.17l1.24,1.36-.24,1.84c-.16,1.2.21,2.41,1.01,3.32.8.91,1.95,1.44,3.16,1.44.67,0,1.33-.16,1.93-.47l1.31-.67,1.31.67c.59.31,1.26.47,1.92.47,1.21,0,2.36-.52,3.16-1.44.8-.91,1.16-2.12,1.01-3.32l-.24-1.84,1.24-1.36c1.03-1.13,1.36-2.72.88-4.17-.48-1.44-1.72-2.52-3.21-2.8l-1.58-.3-.74-1.46C12.54.89,11.1,0,9.5,0h0Z"/>
</svg>