<?xml version="1.0" encoding="UTF-8"?>
<svg id="Layer_1" xmlns="http://www.w3.org/2000/svg" version="1.1" viewBox="0 0 19 19">
  <!-- Generator: Adobe Illustrator 30.1.0, SVG Export Plug-In . SVG Version: 2.1.1 Build 136)  -->
  <path d="M9.5,1.65c.26,0,.51.13.64.4l1.64,3.26c.28.56.81.96,1.42,1.07l3.55.67c.56.1.78.78.4,1.2l-2.59,2.84c-.4.44-.59,1.03-.51,1.62l.51,3.83c.06.46-.3.82-.71.82-.11,0-.22-.03-.33-.08l-3.11-1.6c-.29-.15-.6-.22-.92-.22s-.63.07-.92.22l-3.11,1.6c-.11.06-.22.08-.33.08-.41,0-.77-.36-.71-.82l.51-3.83c.08-.59-.11-1.18-.51-1.62l-2.59-2.84c-.38-.42-.16-1.09.4-1.2l3.55-.67c.61-.12,1.14-.51,1.42-1.07l1.64-3.26c.13-.26.39-.4.64-.4M9.5,0C8.6,0,7.79.5,7.38,1.31l-1.64,3.26c-.05.1-.14.17-.25.19l-3.55.67c-.84.16-1.54.76-1.81,1.58-.27.82-.08,1.72.5,2.35l2.59,2.84c.07.08.1.18.09.29l-.51,3.83c-.09.68.12,1.36.57,1.87.45.52,1.1.81,1.79.81.37,0,.75-.09,1.09-.26l3.11-1.6c.05-.03.11-.04.16-.04s.11.01.16.04l3.11,1.6c.34.17.71.26,1.09.26h0c.68,0,1.33-.3,1.79-.81.45-.51.66-1.2.57-1.87l-.51-3.83c-.01-.11.02-.21.09-.29l2.59-2.84c.58-.64.77-1.54.5-2.35-.27-.82-.97-1.42-1.81-1.58l-3.55-.67c-.11-.02-.2-.09-.25-.19l-1.64-3.26C11.21.5,10.4,0,9.5,0h0Z"/>
</svg>