<?xml version="1.0" encoding="UTF-8"?>
<svg id="Layer_1" xmlns="http://www.w3.org/2000/svg" version="1.1" viewBox="0 0 19 19">
  <!-- Generator: Adobe Illustrator 30.1.0, SVG Export Plug-In . SVG Version: 2.1.1 Build 136)  -->
  <path d="M9.5,1.32c.27,0,.53.14.67.41l1.71,3.4c.29.58.84,1,1.48,1.12l3.7.69c.58.11.81.81.42,1.25l-2.7,2.96c-.42.46-.61,1.07-.53,1.69l.53,3.99c.06.48-.32.85-.74.85-.11,0-.23-.03-.34-.08l-3.24-1.67c-.3-.15-.63-.23-.96-.23-.33,0-.66.08-.96.23l-3.24,1.67c-.11.06-.23.08-.34.08-.43,0-.81-.38-.74-.85l.53-3.99c.08-.61-.11-1.23-.53-1.69l-2.7-2.96c-.4-.44-.16-1.14.42-1.25l3.7-.69c.64-.12,1.19-.53,1.48-1.11l1.71-3.4c.14-.28.41-.41.67-.41M9.5,0C8.71,0,8.01.44,7.65,1.14l-1.71,3.4c-.11.21-.31.37-.55.41l-3.7.69c-.74.14-1.34.67-1.58,1.38-.24.71-.07,1.5.43,2.05l2.7,2.96c.15.17.23.4.2.63l-.53,3.99c-.08.59.1,1.19.49,1.64.39.45.96.71,1.56.71.33,0,.65-.08.95-.23l3.24-1.67c.11-.06.23-.09.35-.09.12,0,.24.03.35.09l3.24,1.67c.29.15.62.23.95.23.6,0,1.16-.26,1.56-.71.39-.45.57-1.04.49-1.64l-.53-3.99c-.03-.23.04-.46.2-.63l2.7-2.96c.51-.55.67-1.34.43-2.05-.24-.71-.84-1.24-1.58-1.38l-3.7-.69c-.24-.04-.44-.2-.55-.41l-1.71-3.4C10.99.44,10.29,0,9.5,0h0Z"/>
</svg>