<?xml version="1.0" encoding="UTF-8"?>
<svg id="Layer_1" xmlns="http://www.w3.org/2000/svg" version="1.1" viewBox="0 0 55 55">
  <!-- Generator: Adobe Illustrator 30.1.0, SVG Export Plug-In . SVG Version: 2.1.1 Build 136)  -->
  <g>
    <g>
      <rect x="25.53" y="14.97" width="3.93" height="3.93"/>
      <path d="M28.95,15.49v2.9h-2.9v-2.9h2.9M29.98,14.46h-4.96v4.96h4.96v-4.96h0Z"/>
    </g>
    <g>
      <polygon points="22.64 39.78 22.64 35.85 25.53 35.85 25.53 27.83 22.64 27.83 22.64 23.9 29.47 23.9 29.47 35.85 32.37 35.85 32.37 39.78 22.64 39.78"/>
      <path d="M28.95,24.42v11.95h2.9v2.9h-8.7v-2.9h2.9v-9.05h-2.9v-2.9h5.8M29.98,23.39h-7.86v4.96h2.9v6.99h-2.9v4.96h10.76v-4.96h-2.9v-11.95h0Z"/>
    </g>
  </g>
  <circle id="Outer" cx="27.5" cy="27.5" r="24.14" fill="none" stroke="#000" stroke-width="6.72"/>
</svg>