<?xml version="1.0" encoding="UTF-8"?>
<svg id="Layer_1" xmlns="http://www.w3.org/2000/svg" version="1.1" viewBox="0 0 55 55">
  <!-- Generator: Adobe Illustrator 30.1.0, SVG Export Plug-In . SVG Version: 2.1.1 Build 136)  -->
  <g>
    <g>
      <rect x="25.45" y="16.72" width="4.1" height="4.1"/>
      <path d="M28.6,17.66v2.21h-2.21v-2.21h2.21M30.49,15.77h-5.99v5.99h5.99v-5.99h0Z"/>
    </g>
    <g>
      <polygon points="23.25 37.68 23.25 33.59 25.45 33.59 25.45 28.59 23.25 28.59 23.25 24.5 29.55 24.5 29.55 33.59 31.75 33.59 31.75 37.68 23.25 37.68"/>
      <path d="M28.6,25.44v9.09h2.21v2.21h-6.62v-2.21h2.21v-6.88h-2.21v-2.21h4.41M30.49,23.55h-8.19v5.99h2.21v3.1h-2.21v5.99h10.4v-5.99h-1.89s-.31,0-.31,0v-9.09h0Z"/>
    </g>
  </g>
  <circle id="Outer" cx="27.5" cy="27.5" r="21.71" fill="none" stroke="#000" stroke-width="11.58"/>
</svg>