<?xml version="1.0" encoding="UTF-8"?>
<svg id="Layer_1" xmlns="http://www.w3.org/2000/svg" version="1.1" viewBox="0 0 55 55">
  <!-- Generator: Adobe Illustrator 30.1.0, SVG Export Plug-In . SVG Version: 2.1.1 Build 136)  -->
  <g>
    <g>
      <rect x="25.5" y="15.68" width="3.99" height="3.99"/>
      <path d="M28.81,16.37v2.62h-2.62v-2.62h2.62M30.18,14.99h-5.37v5.37h5.37v-5.37h0Z"/>
    </g>
    <g>
      <polygon points="22.89 38.93 22.89 34.93 25.5 34.93 25.5 28.14 22.89 28.14 22.89 24.15 29.5 24.15 29.5 34.93 32.11 34.93 32.11 38.93 22.89 38.93"/>
      <path d="M28.81,24.84v10.78h2.62v2.62h-7.85v-2.62h2.62v-8.17h-2.62v-2.62h5.23M30.18,23.47h-7.98v5.37h2.62v5.42h-2.62v5.37h10.6v-5.37h-2.62v-10.78h0Z"/>
    </g>
  </g>
  <circle id="Outer" cx="27.5" cy="27.5" r="23.16" fill="none" stroke="#000" stroke-width="8.68"/>
</svg>