<?xml version="1.0" encoding="UTF-8"?>
<svg id="Layer_1" xmlns="http://www.w3.org/2000/svg" version="1.1" viewBox="0 0 104 104">
  <!-- Generator: Adobe Illustrator 30.1.0, SVG Export Plug-In . SVG Version: 2.1.1 Build 136)  -->
  <path d="M52,12.71c1.28,0,2.56.66,3.22,1.99l8.22,16.32c1.41,2.8,4.04,4.78,7.12,5.36l17.78,3.33c2.78.52,3.91,3.9,2,5.99l-12.96,14.22c-2,2.19-2.93,5.16-2.54,8.11l2.53,19.17c.3,2.29-1.52,4.1-3.58,4.1-.55,0-1.11-.13-1.65-.41l-15.56-8.01c-1.44-.74-3.02-1.11-4.59-1.11-1.58,0-3.15.37-4.59,1.11l-15.56,8.01c-.54.28-1.1.41-1.65.41-2.06,0-3.88-1.81-3.58-4.1l2.53-19.18c.39-2.94-.54-5.91-2.54-8.1l-12.96-14.22c-1.91-2.09-.78-5.48,2-6l17.78-3.33c3.07-.58,5.7-2.56,7.11-5.35l8.22-16.32c.67-1.33,1.95-1.99,3.22-1.99M52,0C45.8,0,40.22,3.44,37.43,8.98l-7.63,15.15-16.48,3.09c-5.81,1.09-10.59,5.25-12.47,10.86-1.88,5.61-.57,11.81,3.41,16.19l12.13,13.31-2.37,17.96c-.62,4.66.81,9.36,3.9,12.89,3.11,3.54,7.58,5.58,12.28,5.58,2.58,0,5.16-.63,7.47-1.82l14.33-7.38,14.33,7.38c2.31,1.19,4.89,1.82,7.47,1.82,4.7,0,9.17-2.03,12.28-5.58,3.09-3.53,4.51-8.23,3.9-12.89l-2.37-17.96,12.13-13.31c3.99-4.37,5.29-10.58,3.41-16.19-1.88-5.61-6.66-9.77-12.47-10.86l-16.49-3.09-7.63-15.15C63.78,3.44,58.2,0,52,0h0Z"/>
</svg>