<?xml version="1.0" encoding="UTF-8"?>
<svg id="Layer_1" xmlns="http://www.w3.org/2000/svg" version="1.1" viewBox="0 0 104 104">
  <!-- Generator: Adobe Illustrator 30.1.0, SVG Export Plug-In . SVG Version: 2.1.1 Build 136)  -->
  <path d="M52,7.22c1.46,0,2.91.76,3.67,2.27l9.37,18.6c1.61,3.19,4.61,5.45,8.11,6.11l20.27,3.8c3.17.59,4.45,4.45,2.28,6.83l-14.77,16.21c-2.28,2.5-3.34,5.88-2.9,9.24l2.88,21.85c.34,2.61-1.73,4.67-4.08,4.67-.62,0-1.26-.15-1.88-.46l-17.73-9.13c-1.64-.85-3.44-1.27-5.24-1.27-1.8,0-3.59.42-5.24,1.27l-17.73,9.13c-.62.32-1.26.46-1.88.46-2.34,0-4.42-2.06-4.08-4.67l2.88-21.86c.44-3.35-.62-6.73-2.89-9.23l-14.77-16.21c-2.18-2.39-.89-6.24,2.28-6.84l20.27-3.8c3.5-.66,6.5-2.91,8.11-6.1l9.37-18.6c.76-1.51,2.22-2.27,3.67-2.27M52,0C47.7,0,43.82,2.39,41.88,6.23l-9.37,18.6c-.59,1.17-1.71,2.02-3,2.26l-20.27,3.8c-4.03.76-7.35,3.65-8.66,7.54-1.31,3.9-.4,8.21,2.37,11.25l14.77,16.21c.85.93,1.24,2.18,1.07,3.43l-2.88,21.86c-.43,3.24.56,6.5,2.7,8.95,2.16,2.47,5.27,3.88,8.53,3.88,1.79,0,3.58-.44,5.18-1.26l17.73-9.13c.6-.31,1.26-.47,1.93-.47.67,0,1.34.16,1.93.47l17.73,9.13c1.61.83,3.4,1.26,5.18,1.26,3.26,0,6.37-1.41,8.53-3.88,2.14-2.45,3.13-5.71,2.7-8.95l-2.88-21.85c-.17-1.25.23-2.51,1.08-3.44l14.77-16.21c2.77-3.04,3.68-7.35,2.37-11.24-1.3-3.89-4.62-6.78-8.65-7.54l-20.27-3.8c-1.29-.24-2.41-1.09-3-2.26l-9.37-18.6C60.18,2.39,56.3,0,52,0h0Z"/>
</svg>