<?xml version="1.0" encoding="UTF-8"?>
<svg id="Layer_1" xmlns="http://www.w3.org/2000/svg" version="1.1" viewBox="0 0 104 104">
  <!-- Generator: Adobe Illustrator 30.1.0, SVG Export Plug-In . SVG Version: 2.1.1 Build 136)  -->
  <path d="M52,20.08c1.04,0,2.08.54,2.62,1.61l6.68,13.25c1.15,2.27,3.28,3.88,5.78,4.35l14.44,2.71c2.26.42,3.17,3.17,1.63,4.87l-10.52,11.55c-1.62,1.78-2.38,4.19-2.06,6.58l2.05,15.57c.25,1.86-1.24,3.33-2.91,3.33-.44,0-.9-.1-1.34-.33l-12.63-6.51c-1.17-.6-2.45-.9-3.73-.9s-2.56.3-3.73.9l-12.63,6.51c-.44.23-.9.33-1.34.33-1.67,0-3.15-1.47-2.91-3.33l2.05-15.58c.32-2.39-.44-4.8-2.06-6.58l-10.52-11.55c-1.55-1.7-.63-4.45,1.63-4.87l14.44-2.71c2.5-.47,4.63-2.08,5.78-4.35l6.68-13.26c.54-1.08,1.58-1.61,2.62-1.61M52,0C43.26,0,35.38,4.85,31.44,12.66l-4.02,7.99-8.64,1.62c-8.2,1.54-14.94,7.4-17.59,15.31-2.65,7.91-.81,16.66,4.81,22.83l6.8,7.46-1.33,10.09c-.87,6.58,1.14,13.2,5.5,18.18,4.38,4.99,10.69,7.86,17.31,7.86,3.64,0,7.29-.89,10.54-2.56l7.17-3.69,7.17,3.69c3.25,1.67,6.89,2.56,10.54,2.56,6.63,0,12.94-2.86,17.31-7.86,4.37-4.98,6.37-11.61,5.5-18.18l-1.33-10.09,6.8-7.46c5.62-6.17,7.46-14.91,4.81-22.82-2.65-7.91-9.39-13.78-17.58-15.31l-8.64-1.62-4.02-7.99C68.62,4.85,60.74,0,52,0h0Z"/>
</svg>