<?xml version="1.0" encoding="UTF-8"?>
<svg id="Layer_1" xmlns="http://www.w3.org/2000/svg" version="1.1" viewBox="0 0 25 25">
  <!-- Generator: Adobe Illustrator 30.1.0, SVG Export Plug-In . SVG Version: 2.1.1 Build 136)  -->
  <path d="M12.5,3.95c.28,0,.56.14.7.43l1.79,3.55c.31.61.88,1.04,1.55,1.17l3.87.73c.61.11.85.85.44,1.31l-2.82,3.1c-.44.48-.64,1.12-.55,1.76l.55,4.17c.07.5-.33.89-.78.89-.12,0-.24-.03-.36-.09l-3.39-1.74c-.31-.16-.66-.24-1-.24s-.69.08-1,.24l-3.39,1.74c-.12.06-.24.09-.36.09-.45,0-.84-.39-.78-.89l.55-4.18c.08-.64-.12-1.29-.55-1.76l-2.82-3.1c-.42-.46-.17-1.19.44-1.31l3.87-.73c.67-.13,1.24-.56,1.55-1.17l1.79-3.55c.15-.29.42-.43.7-.43M12.5,0C10.7,0,9.08,1,8.27,2.6l-1.4,2.78-3.02.57c-1.69.32-3.07,1.52-3.61,3.15-.54,1.63-.17,3.42.99,4.69l2.27,2.49-.44,3.37c-.18,1.35.23,2.71,1.13,3.74.9,1.03,2.2,1.62,3.56,1.62.75,0,1.5-.18,2.17-.53l2.58-1.33,2.58,1.33c.67.34,1.42.53,2.17.53,1.36,0,2.66-.59,3.56-1.62.9-1.02,1.31-2.39,1.13-3.74l-.44-3.37,2.27-2.49c1.16-1.27,1.53-3.07.99-4.69-.54-1.63-1.93-2.83-3.61-3.15l-3.02-.57-1.4-2.78C15.92,1,14.3,0,12.5,0h0Z"/>
</svg>