<?xml version="1.0" encoding="UTF-8"?>
<svg id="Layer_1" xmlns="http://www.w3.org/2000/svg" version="1.1" viewBox="0 0 25 25">
  <!-- Generator: Adobe Illustrator 30.1.0, SVG Export Plug-In . SVG Version: 2.1.1 Build 136)  -->
  <path d="M12.5,4.83c.25,0,.5.13.63.39l1.61,3.19c.28.55.79.93,1.39,1.05l3.47.65c.54.1.76.76.39,1.17l-2.53,2.78c-.39.43-.57,1.01-.5,1.58l.49,3.74c.06.45-.3.8-.7.8-.11,0-.22-.02-.32-.08l-3.04-1.56c-.28-.14-.59-.22-.9-.22-.31,0-.62.07-.9.22l-3.04,1.56c-.11.05-.22.08-.32.08-.4,0-.76-.35-.7-.8l.49-3.74c.08-.57-.11-1.15-.5-1.58l-2.53-2.78c-.37-.41-.15-1.07.39-1.17l3.47-.65c.6-.11,1.11-.5,1.39-1.05l1.61-3.19c.13-.26.38-.39.63-.39M12.5,0C10.4,0,8.5,1.17,7.56,3.04l-.97,1.92-2.08.39c-1.97.37-3.59,1.78-4.23,3.68-.64,1.9-.19,4,1.16,5.49l1.63,1.79-.32,2.43c-.21,1.58.27,3.17,1.32,4.37,1.05,1.2,2.57,1.89,4.16,1.89.88,0,1.75-.21,2.53-.62l1.72-.89,1.72.89c.78.4,1.66.62,2.53.62,1.59,0,3.11-.69,4.16-1.89,1.05-1.2,1.53-2.79,1.32-4.37l-.32-2.43,1.63-1.79c1.35-1.48,1.79-3.58,1.16-5.49-.64-1.9-2.26-3.31-4.23-3.68l-2.08-.39-.97-1.92C16.5,1.17,14.6,0,12.5,0h0Z"/>
</svg>