<?xml version="1.0" encoding="UTF-8"?>
<svg id="Layer_1" xmlns="http://www.w3.org/2000/svg" version="1.1" viewBox="0 0 47 47">
  <!-- Generator: Adobe Illustrator 30.1.0, SVG Export Plug-In . SVG Version: 2.1.1 Build 136)  -->
  <path d="M23.5,7.42c.52,0,1.05.27,1.32.81l3.36,6.68c.58,1.15,1.65,1.96,2.91,2.19l7.28,1.36c1.14.21,1.6,1.6.82,2.45l-5.3,5.82c-.82.9-1.2,2.11-1.04,3.32l1.03,7.85c.12.94-.62,1.68-1.46,1.68-.22,0-.45-.05-.68-.17l-6.37-3.28c-.59-.3-1.24-.46-1.88-.46s-1.29.15-1.88.46l-6.37,3.28c-.22.11-.45.17-.68.17-.84,0-1.59-.74-1.46-1.68l1.04-7.85c.16-1.2-.22-2.42-1.04-3.31l-5.3-5.82c-.78-.86-.32-2.24.82-2.46l7.28-1.36c1.26-.24,2.34-1.05,2.91-2.19l3.37-6.68c.27-.54.8-.81,1.32-.81M23.5,0C20.12,0,17.08,1.88,15.56,4.89l-2.63,5.22-5.67,1.06c-3.17.59-5.77,2.86-6.8,5.92-1.02,3.06-.31,6.44,1.86,8.82l4.27,4.69-.83,6.33c-.34,2.54.44,5.1,2.13,7.03,1.69,1.93,4.13,3.04,6.69,3.04,1.41,0,2.81-.34,4.07-.99l4.85-2.5,4.85,2.5c1.26.65,2.66.99,4.07.99,2.56,0,5-1.11,6.69-3.04,1.69-1.92,2.46-4.48,2.13-7.03l-.83-6.33,4.27-4.69c2.17-2.38,2.88-5.76,1.86-8.82-1.02-3.06-3.63-5.32-6.8-5.92l-5.67-1.06-2.63-5.22C29.92,1.88,26.88,0,23.5,0h0Z"/>
</svg>