<?xml version="1.0" encoding="UTF-8"?>
<svg id="Layer_1" xmlns="http://www.w3.org/2000/svg" version="1.1" viewBox="0 0 47 47">
  <!-- Generator: Adobe Illustrator 30.1.0, SVG Export Plug-In . SVG Version: 2.1.1 Build 136)  -->
  <path d="M23.5,3.26c.66,0,1.32.34,1.66,1.02l4.23,8.41c.73,1.44,2.08,2.46,3.67,2.76l9.16,1.72c1.43.27,2.01,2.01,1.03,3.09l-6.67,7.32c-1.03,1.13-1.51,2.66-1.31,4.18l1.3,9.87c.16,1.18-.78,2.11-1.84,2.11-.28,0-.57-.07-.85-.21l-8.01-4.13c-.74-.38-1.55-.57-2.37-.57-.81,0-1.62.19-2.37.57l-8.01,4.13c-.28.14-.57.21-.85.21-1.06,0-2-.93-1.84-2.11l1.3-9.88c.2-1.52-.28-3.04-1.31-4.17l-6.67-7.32c-.98-1.08-.4-2.82,1.03-3.09l9.16-1.72c1.58-.3,2.94-1.32,3.66-2.76l4.23-8.41c.34-.68,1-1.02,1.66-1.02M23.5,0C21.55,0,19.8,1.08,18.93,2.82l-4.23,8.41c-.27.53-.77.91-1.35,1.02l-9.16,1.72c-1.82.34-3.32,1.65-3.91,3.41-.59,1.76-.18,3.71,1.07,5.08l6.67,7.32c.38.42.56.98.48,1.55l-1.3,9.88c-.19,1.47.25,2.94,1.22,4.04.98,1.11,2.38,1.75,3.85,1.75.81,0,1.62-.2,2.34-.57l8.01-4.13c.27-.14.57-.21.87-.21.3,0,.6.07.87.21l8.01,4.13c.73.37,1.54.57,2.34.57h0c1.47,0,2.88-.64,3.85-1.75.97-1.11,1.41-2.58,1.22-4.04l-1.3-9.87c-.07-.57.1-1.13.49-1.55l6.67-7.32c1.25-1.37,1.66-3.32,1.07-5.08-.59-1.76-2.09-3.07-3.91-3.41l-9.16-1.72c-.58-.11-1.09-.49-1.36-1.02l-4.23-8.41C27.2,1.08,25.44,0,23.5,0h0Z"/>
</svg>