<?xml version="1.0" encoding="UTF-8"?>
<svg id="Layer_1" xmlns="http://www.w3.org/2000/svg" version="1.1" viewBox="0 0 47 47">
  <!-- Generator: Adobe Illustrator 30.1.0, SVG Export Plug-In . SVG Version: 2.1.1 Build 136)  -->
  <path d="M23.5,9.08c.47,0,.94.24,1.18.73l3.02,5.99c.52,1.03,1.48,1.75,2.61,1.97l6.53,1.22c1.02.19,1.43,1.43.73,2.2l-4.76,5.22c-.73.81-1.08,1.89-.93,2.98l.93,7.04c.11.84-.56,1.5-1.31,1.5-.2,0-.41-.05-.61-.15l-5.71-2.94c-.53-.27-1.11-.41-1.69-.41-.58,0-1.16.14-1.69.41l-5.71,2.94c-.2.1-.41.15-.61.15-.75,0-1.42-.66-1.31-1.5l.93-7.04c.14-1.08-.2-2.17-.93-2.97l-4.76-5.22c-.7-.77-.29-2.01.73-2.2l6.53-1.22c1.13-.21,2.09-.94,2.61-1.97l3.02-5.99c.25-.49.71-.73,1.18-.73M23.5,0c-3.95,0-7.51,2.19-9.29,5.72l-1.82,3.61-3.9.73c-3.7.69-6.75,3.35-7.95,6.92-1.2,3.58-.36,7.53,2.18,10.32l3.07,3.37-.6,4.56c-.39,2.97.51,5.97,2.49,8.22,1.98,2.26,4.83,3.55,7.82,3.55,1.65,0,3.29-.4,4.76-1.16l3.24-1.67,3.24,1.67c1.47.76,3.12,1.16,4.76,1.16,2.99,0,5.85-1.29,7.82-3.55,1.97-2.25,2.88-5.25,2.49-8.22l-.6-4.56,3.07-3.37c2.54-2.79,3.37-6.74,2.18-10.32-1.2-3.57-4.24-6.23-7.95-6.92l-3.91-.73-1.82-3.61c-1.78-3.53-5.34-5.72-9.29-5.72h0Z"/>
</svg>