<?xml version="1.0" encoding="UTF-8"?>
<svg id="Layer_1" xmlns="http://www.w3.org/2000/svg" version="1.1" viewBox="0 0 56 56">
  <!-- Generator: Adobe Illustrator 30.1.0, SVG Export Plug-In . SVG Version: 2.1.1 Build 136)  -->
  <path d="M28,8.84c.62,0,1.25.32,1.57.97l4.01,7.96c.69,1.37,1.97,2.33,3.47,2.61l8.67,1.63c1.36.25,1.91,1.9.98,2.92l-6.32,6.93c-.97,1.07-1.43,2.52-1.24,3.95l1.23,9.35c.15,1.12-.74,2-1.74,2-.27,0-.54-.06-.8-.2l-7.59-3.91c-.7-.36-1.47-.54-2.24-.54s-1.54.18-2.24.54l-7.59,3.91c-.26.14-.54.2-.8.2-1,0-1.89-.88-1.74-2l1.23-9.35c.19-1.43-.26-2.88-1.24-3.95l-6.32-6.93c-.93-1.02-.38-2.67.98-2.93l8.67-1.63c1.5-.28,2.78-1.25,3.47-2.61l4.01-7.96c.33-.65.95-.97,1.57-.97M28,0C23.97,0,20.35,2.23,18.54,5.83l-3.13,6.22-6.75,1.27c-3.77.71-6.88,3.41-8.1,7.05-1.22,3.64-.37,7.67,2.22,10.51l5.09,5.58-.99,7.54c-.4,3.03.52,6.08,2.53,8.37,2.02,2.3,4.92,3.62,7.97,3.62,1.68,0,3.35-.41,4.85-1.18l5.78-2.98,5.78,2.98c1.5.77,3.18,1.18,4.85,1.18,3.05,0,5.96-1.32,7.97-3.62,2.01-2.29,2.93-5.34,2.53-8.37l-.99-7.54,5.09-5.59c2.59-2.84,3.44-6.87,2.22-10.51-1.22-3.64-4.32-6.34-8.1-7.05l-6.76-1.27-3.13-6.22C35.65,2.23,32.03,0,28,0h0Z"/>
</svg>