<?xml version="1.0" encoding="UTF-8"?>
<svg id="Layer_1" xmlns="http://www.w3.org/2000/svg" version="1.1" viewBox="0 0 56 56">
  <!-- Generator: Adobe Illustrator 30.1.0, SVG Export Plug-In . SVG Version: 2.1.1 Build 136)  -->
  <path d="M28,10.81c.56,0,1.12.29,1.41.87l3.6,7.14c.62,1.22,1.77,2.09,3.11,2.34l7.78,1.46c1.22.23,1.71,1.71.88,2.62l-5.67,6.22c-.87.96-1.28,2.26-1.11,3.55l1.11,8.38c.13,1-.67,1.79-1.56,1.79-.24,0-.48-.06-.72-.18l-6.8-3.5c-.63-.32-1.32-.49-2.01-.49s-1.38.16-2.01.49l-6.8,3.5c-.24.12-.48.18-.72.18-.9,0-1.7-.79-1.56-1.79l1.11-8.39c.17-1.29-.24-2.58-1.11-3.54l-5.67-6.22c-.83-.92-.34-2.4.88-2.62l7.78-1.46c1.34-.25,2.5-1.12,3.11-2.34l3.6-7.14c.29-.58.85-.87,1.41-.87M28,0C23.29,0,19.05,2.61,16.93,6.82l-2.17,4.3-4.65.87c-4.41.83-8.04,3.99-9.47,8.25-1.43,4.26-.43,8.97,2.59,12.29l3.66,4.02-.72,5.43c-.47,3.54.61,7.11,2.96,9.79,2.36,2.69,5.76,4.23,9.32,4.23,1.96,0,3.92-.48,5.67-1.38l3.86-1.99,3.86,1.99c1.75.9,3.71,1.38,5.67,1.38,3.57,0,6.97-1.54,9.32-4.23,2.35-2.68,3.43-6.25,2.96-9.79l-.72-5.43,3.66-4.02c3.03-3.32,4.02-8.03,2.59-12.29-1.43-4.26-5.05-7.42-9.47-8.25l-4.65-.87-2.17-4.3C36.95,2.61,32.71,0,28,0h0Z"/>
</svg>