<?xml version="1.0" encoding="UTF-8"?>
<svg id="Layer_1" xmlns="http://www.w3.org/2000/svg" version="1.1" viewBox="0 0 56 56">
  <!-- Generator: Adobe Illustrator 30.1.0, SVG Export Plug-In . SVG Version: 2.1.1 Build 136)  -->
  <path d="M28,6.84c.69,0,1.38.36,1.74,1.07l4.43,8.79c.76,1.51,2.18,2.57,3.83,2.88l9.58,1.79c1.5.28,2.1,2.1,1.08,3.23l-6.98,7.66c-1.08,1.18-1.58,2.78-1.37,4.36l1.36,10.32c.16,1.23-.82,2.21-1.93,2.21-.29,0-.6-.07-.89-.22l-8.38-4.31c-.78-.4-1.63-.6-2.47-.6s-1.7.2-2.47.6l-8.38,4.31c-.29.15-.59.22-.89.22-1.11,0-2.09-.98-1.93-2.21l1.36-10.33c.21-1.58-.29-3.18-1.37-4.36l-6.98-7.66c-1.03-1.13-.42-2.95,1.08-3.23l9.58-1.79c1.66-.31,3.07-1.38,3.83-2.88l4.43-8.79c.36-.71,1.05-1.07,1.74-1.07M28,0C24.66,0,21.66,1.85,20.15,4.83l-4.11,8.16-8.87,1.66c-3.13.59-5.7,2.83-6.71,5.85-1.01,3.02-.31,6.36,1.84,8.72l6.53,7.17-1.28,9.67c-.33,2.51.43,5.04,2.1,6.94,1.67,1.91,4.08,3,6.61,3,1.39,0,2.78-.34,4.02-.98l7.72-3.97,7.72,3.97c1.24.64,2.63.98,4.02.98,2.53,0,4.94-1.09,6.61-3,1.67-1.9,2.43-4.43,2.1-6.94l-1.28-9.67,6.53-7.17c2.15-2.35,2.85-5.69,1.84-8.72-1.01-3.02-3.58-5.26-6.71-5.85l-8.88-1.66-4.11-8.16C34.34,1.85,31.34,0,28,0h0Z"/>
</svg>