<?xml version="1.0" encoding="UTF-8"?>
<svg id="Layer_1" xmlns="http://www.w3.org/2000/svg" version="1.1" viewBox="0 0 80 80">
  <!-- Generator: Adobe Illustrator 30.1.0, SVG Export Plug-In . SVG Version: 2.1.1 Build 136)  -->
  <path d="M40,5.55c1.12,0,2.24.58,2.83,1.74l7.21,14.31c1.24,2.45,3.54,4.19,6.24,4.7l15.59,2.92c2.44.46,3.43,3.42,1.75,5.26l-11.36,12.47c-1.75,1.92-2.57,4.52-2.23,7.11l2.22,16.81c.26,2.01-1.33,3.59-3.14,3.59-.48,0-.97-.11-1.45-.36l-13.64-7.02c-1.26-.65-2.65-.98-4.03-.98-1.38,0-2.76.33-4.03.98l-13.64,7.02c-.48.25-.97.36-1.45.36-1.8,0-3.4-1.59-3.14-3.59l2.22-16.81c.34-2.58-.47-5.18-2.22-7.1l-11.36-12.47c-1.67-1.84-.68-4.8,1.76-5.26l15.59-2.92c2.7-.51,5-2.24,6.24-4.69l7.21-14.31c.59-1.16,1.71-1.74,2.83-1.74M40,0C36.69,0,33.71,1.84,32.22,4.8l-7.21,14.31c-.45.9-1.32,1.55-2.3,1.74l-15.59,2.92c-3.1.58-5.66,2.8-6.66,5.8-1,3-.31,6.31,1.82,8.65l11.36,12.47c.65.71.95,1.67.82,2.63l-2.22,16.81c-.33,2.49.43,5,2.08,6.88,1.66,1.9,4.05,2.98,6.56,2.98,1.37,0,2.75-.34,3.99-.97l13.64-7.02c.46-.24.97-.36,1.49-.36.52,0,1.03.12,1.49.36l13.64,7.02c1.24.64,2.61.97,3.99.97,2.51,0,4.9-1.09,6.56-2.98,1.65-1.88,2.41-4.39,2.08-6.88l-2.22-16.81c-.13-.96.17-1.93.83-2.64l11.36-12.47c2.13-2.34,2.83-5.65,1.82-8.65-1-3-3.55-5.22-6.66-5.8l-15.59-2.92c-.99-.19-1.85-.84-2.31-1.74l-7.21-14.31C46.29,1.84,43.31,0,40,0h0Z"/>
</svg>