<?xml version="1.0" encoding="UTF-8"?>
<svg id="Layer_1" xmlns="http://www.w3.org/2000/svg" version="1.1" viewBox="0 0 80 80">
  <!-- Generator: Adobe Illustrator 30.1.0, SVG Export Plug-In . SVG Version: 2.1.1 Build 136)  -->
  <path d="M40,15.45c.8,0,1.6.41,2.01,1.24l5.14,10.2c.88,1.75,2.53,2.99,4.45,3.35l11.11,2.08c1.74.33,2.44,2.44,1.25,3.75l-8.1,8.88c-1.25,1.37-1.83,3.22-1.59,5.06l1.58,11.98c.19,1.43-.95,2.56-2.24,2.56-.34,0-.69-.08-1.03-.25l-9.72-5.01c-.9-.46-1.89-.7-2.87-.7s-1.97.23-2.87.7l-9.72,5.01c-.34.17-.69.25-1.03.25-1.28,0-2.42-1.13-2.24-2.56l1.58-11.98c.24-1.84-.34-3.69-1.59-5.06l-8.1-8.88c-1.19-1.31-.49-3.42,1.25-3.75l11.11-2.08c1.92-.36,3.56-1.6,4.45-3.35l5.14-10.2c.42-.83,1.22-1.24,2.01-1.24M40,0C33.27,0,27.21,3.73,24.19,9.74l-3.1,6.15-6.65,1.25c-6.31,1.18-11.49,5.7-13.53,11.78-2.04,6.09-.62,12.81,3.7,17.56l5.23,5.74-1.02,7.76c-.67,5.06.88,10.16,4.23,13.99,3.37,3.84,8.22,6.04,13.32,6.04,2.8,0,5.6-.68,8.1-1.97l5.52-2.84,5.52,2.84c2.5,1.29,5.3,1.97,8.1,1.97,5.1,0,9.95-2.2,13.32-6.04,3.36-3.83,4.9-8.93,4.23-13.99l-1.02-7.76,5.23-5.74c4.32-4.74,5.74-11.47,3.7-17.56-2.04-6.08-7.22-10.6-13.53-11.78l-6.65-1.25-3.1-6.14C52.78,3.73,46.73,0,40,0h0Z"/>
</svg>