<?xml version="1.0" encoding="UTF-8"?>
<svg id="Layer_1" xmlns="http://www.w3.org/2000/svg" version="1.1" viewBox="0 0 80 80">
  <!-- Generator: Adobe Illustrator 30.1.0, SVG Export Plug-In . SVG Version: 2.1.1 Build 136)  -->
  <path d="M40,9.78c.98,0,1.97.51,2.48,1.53l6.32,12.55c1.09,2.15,3.11,3.68,5.48,4.12l13.68,2.56c2.14.4,3.01,3,1.54,4.61l-9.97,10.94c-1.54,1.69-2.25,3.97-1.95,6.24l1.95,14.75c.23,1.76-1.17,3.15-2.75,3.15-.42,0-.85-.1-1.27-.31l-11.97-6.16c-1.11-.57-2.32-.86-3.53-.86s-2.43.29-3.53.86l-11.97,6.16c-.42.22-.85.31-1.27.31-1.58,0-2.98-1.39-2.75-3.15l1.95-14.75c.3-2.26-.42-4.54-1.95-6.23l-9.97-10.94c-1.47-1.61-.6-4.21,1.54-4.61l13.68-2.56c2.36-.44,4.39-1.97,5.47-4.12l6.32-12.55c.51-1.02,1.5-1.53,2.48-1.53M40,0c-4.77,0-9.06,2.65-11.21,6.91l-5.87,11.65-12.68,2.38c-4.47.84-8.14,4.04-9.59,8.35-1.45,4.32-.44,9.09,2.63,12.45l9.33,10.24-1.82,13.82c-.47,3.59.62,7.2,3,9.92,2.39,2.73,5.83,4.29,9.44,4.29,1.98,0,3.97-.48,5.74-1.4l11.02-5.68,11.02,5.68c1.78.91,3.76,1.4,5.74,1.4,3.61,0,7.05-1.56,9.44-4.29,2.38-2.71,3.47-6.33,3-9.92l-1.82-13.82,9.33-10.24c3.07-3.36,4.07-8.13,2.63-12.45-1.45-4.31-5.12-7.51-9.59-8.35l-12.68-2.38-5.87-11.65c-2.15-4.26-6.44-6.91-11.21-6.91h0Z"/>
</svg>