<?xml version="1.0" encoding="UTF-8"?>
<svg id="Layer_1" xmlns="http://www.w3.org/2000/svg" version="1.1" viewBox="0 0 80 80">
  <!-- Generator: Adobe Illustrator 30.1.0, SVG Export Plug-In . SVG Version: 2.1.1 Build 136)  -->
  <path d="M40,12.62c.89,0,1.78.46,2.25,1.38l5.73,11.37c.98,1.95,2.82,3.33,4.96,3.73l12.39,2.32c1.94.36,2.72,2.72,1.39,4.18l-9.03,9.91c-1.39,1.53-2.04,3.6-1.77,5.65l1.76,13.36c.21,1.59-1.06,2.86-2.49,2.86-.38,0-.77-.09-1.15-.28l-10.84-5.58c-1-.52-2.1-.78-3.2-.78s-2.2.26-3.2.78l-10.84,5.58c-.38.19-.77.28-1.15.28-1.43,0-2.7-1.26-2.49-2.86l1.76-13.36c.27-2.05-.38-4.11-1.77-5.64l-9.03-9.91c-1.33-1.46-.54-3.82,1.39-4.18l12.39-2.32c2.14-.4,3.97-1.78,4.96-3.73l5.73-11.37c.47-.92,1.36-1.38,2.25-1.38M40,0C34.25,0,29.07,3.19,26.48,8.33l-4.48,8.89-9.65,1.81c-5.39,1.01-9.82,4.87-11.57,10.07-1.74,5.21-.53,10.96,3.17,15.02l7.27,7.98-1.42,10.78c-.57,4.33.75,8.69,3.62,11.96,2.88,3.29,7.03,5.17,11.39,5.17,2.39,0,4.79-.58,6.93-1.68l8.26-4.25,8.26,4.25c2.14,1.1,4.54,1.68,6.93,1.68,4.36,0,8.51-1.88,11.39-5.17,2.87-3.27,4.19-7.63,3.62-11.96l-1.42-10.78,7.27-7.98c3.7-4.06,4.91-9.81,3.17-15.02-1.74-5.2-6.17-9.06-11.57-10.07l-9.65-1.81-4.48-8.89C50.93,3.19,45.75,0,40,0h0Z"/>
</svg>