<?xml version="1.0" encoding="UTF-8"?>
<svg id="Layer_1" xmlns="http://www.w3.org/2000/svg" version="1.1" viewBox="0 0 48 48">
  <!-- Generator: Adobe Illustrator 30.1.0, SVG Export Plug-In . SVG Version: 2.1.1 Build 136)  -->
  <path d="M24,7.58c.53,0,1.07.28,1.35.83l3.44,6.82c.59,1.17,1.69,2,2.98,2.24l7.43,1.39c1.16.22,1.63,1.63.84,2.51l-5.42,5.94c-.84.92-1.22,2.16-1.06,3.39l1.06,8.01c.13.96-.64,1.71-1.5,1.71-.23,0-.46-.05-.69-.17l-6.5-3.35c-.6-.31-1.26-.47-1.92-.47s-1.32.16-1.92.47l-6.5,3.35c-.23.12-.46.17-.69.17-.86,0-1.62-.76-1.5-1.71l1.06-8.02c.16-1.23-.23-2.47-1.06-3.38l-5.42-5.94c-.8-.88-.33-2.29.84-2.51l7.43-1.39c1.29-.24,2.38-1.07,2.97-2.24l3.44-6.82c.28-.55.81-.83,1.35-.83M24,0C20.55,0,17.44,1.92,15.89,5l-2.69,5.33-5.79,1.09c-3.24.61-5.89,2.92-6.94,6.04-1.05,3.12-.32,6.58,1.9,9.01l4.36,4.79-.85,6.47c-.34,2.6.45,5.21,2.17,7.18,1.73,1.97,4.22,3.1,6.83,3.1,1.44,0,2.87-.35,4.16-1.01l4.95-2.55,4.95,2.55c1.28.66,2.72,1.01,4.16,1.01,2.61,0,5.11-1.13,6.83-3.1,1.72-1.96,2.51-4.58,2.17-7.18l-.85-6.47,4.36-4.79c2.22-2.43,2.95-5.89,1.9-9.01-1.05-3.12-3.7-5.44-6.94-6.04l-5.79-1.09-2.69-5.33C30.56,1.92,27.45,0,24,0h0Z"/>
</svg>