<?xml version="1.0" encoding="UTF-8"?>
<svg id="Layer_1" xmlns="http://www.w3.org/2000/svg" version="1.1" viewBox="0 0 48 48">
  <!-- Generator: Adobe Illustrator 30.1.0, SVG Export Plug-In . SVG Version: 2.1.1 Build 136)  -->
  <path d="M24,10.11c.45,0,.9.23,1.14.7l2.91,5.77c.5.99,1.43,1.69,2.52,1.89l6.29,1.18c.98.18,1.38,1.38.71,2.12l-4.58,5.03c-.71.78-1.04,1.82-.9,2.87l.89,6.78c.11.81-.54,1.45-1.26,1.45-.19,0-.39-.05-.58-.14l-5.5-2.83c-.51-.26-1.07-.39-1.62-.39s-1.11.13-1.62.39l-5.5,2.83c-.19.1-.39.14-.58.14-.73,0-1.37-.64-1.26-1.45l.89-6.78c.14-1.04-.19-2.09-.9-2.86l-4.58-5.03c-.67-.74-.28-1.94.71-2.12l6.29-1.18c1.09-.2,2.02-.9,2.52-1.89l2.91-5.77c.24-.47.69-.7,1.14-.7M24,0C19.67,0,15.78,2.4,13.83,6.26l-1.45,2.87-3.09.58c-4.05.76-7.39,3.66-8.7,7.58-1.31,3.91-.4,8.24,2.38,11.29l2.53,2.78-.5,3.76c-.43,3.25.56,6.53,2.72,8.99,2.17,2.47,5.29,3.89,8.56,3.89,1.8,0,3.6-.44,5.21-1.27l2.49-1.28,2.49,1.28c1.61.83,3.41,1.27,5.21,1.27,3.28,0,6.4-1.42,8.56-3.89,2.16-2.46,3.15-5.74,2.72-8.99l-.5-3.76,2.53-2.78c2.78-3.05,3.69-7.38,2.38-11.29-1.31-3.91-4.64-6.82-8.7-7.58l-3.1-.58-1.45-2.87C32.22,2.4,28.33,0,24,0h0Z"/>
</svg>