<?xml version="1.0" encoding="UTF-8"?>
<svg id="Layer_1" xmlns="http://www.w3.org/2000/svg" version="1.1" viewBox="0 0 48 48">
  <!-- Generator: Adobe Illustrator 30.1.0, SVG Export Plug-In . SVG Version: 2.1.1 Build 136)  -->
  <path d="M24,4.17c.64,0,1.29.33,1.63,1l4.15,8.24c.71,1.41,2.04,2.41,3.59,2.7l8.98,1.68c1.4.26,1.97,1.97,1.01,3.03l-6.54,7.18c-1.01,1.11-1.48,2.6-1.28,4.09l1.28,9.68c.15,1.15-.77,2.07-1.81,2.07-.28,0-.56-.06-.83-.21l-7.85-4.04c-.73-.37-1.52-.56-2.32-.56s-1.59.19-2.32.56l-7.85,4.04c-.27.14-.56.21-.83.21-1.04,0-1.96-.91-1.81-2.07l1.28-9.68c.2-1.48-.27-2.98-1.28-4.09l-6.54-7.18c-.96-1.06-.39-2.76,1.01-3.03l8.97-1.68c1.55-.29,2.88-1.29,3.59-2.7l4.15-8.24c.34-.67.98-1,1.63-1M24,0C21.72,0,19.67,1.26,18.65,3.3l-4.15,8.24c-.13.25-.36.43-.63.48l-8.97,1.68c-2.13.4-3.89,1.93-4.58,3.99-.69,2.06-.21,4.34,1.25,5.95l6.54,7.18c.18.2.26.46.23.73l-1.28,9.68c-.23,1.71.3,3.44,1.43,4.73,1.14,1.3,2.79,2.05,4.51,2.05.95,0,1.89-.23,2.74-.67l7.85-4.04c.13-.07.27-.1.41-.1s.28.03.41.1l7.85,4.04c.85.44,1.8.67,2.74.67,1.72,0,3.37-.75,4.51-2.05,1.13-1.29,1.66-3.02,1.43-4.73l-1.28-9.68c-.04-.27.05-.54.23-.74l6.54-7.18c1.46-1.61,1.94-3.88,1.25-5.95-.69-2.06-2.44-3.59-4.58-3.99l-8.98-1.68c-.27-.05-.51-.23-.64-.48l-4.15-8.24C28.33,1.26,26.28,0,24,0h0Z"/>
</svg>