<?xml version="1.0" encoding="UTF-8"?>
<svg id="Layer_1" xmlns="http://www.w3.org/2000/svg" version="1.1" viewBox="0 0 55 55">
  <!-- Generator: Adobe Illustrator 30.1.0, SVG Export Plug-In . SVG Version: 2.1.1 Build 136)  -->
  <path d="M27.5,3.82c.77,0,1.54.4,1.94,1.2l4.96,9.84c.85,1.69,2.44,2.88,4.29,3.23l10.72,2.01c1.68.31,2.36,2.35,1.21,3.61l-7.81,8.57c-1.21,1.32-1.77,3.11-1.53,4.89l1.52,11.56c.18,1.38-.92,2.47-2.16,2.47-.33,0-.67-.08-.99-.25l-9.38-4.83c-.87-.45-1.82-.67-2.77-.67-.95,0-1.9.22-2.77.67l-9.38,4.83c-.33.17-.67.25-.99.25-1.24,0-2.34-1.09-2.16-2.47l1.52-11.56c.23-1.77-.33-3.56-1.53-4.88l-7.81-8.57c-1.15-1.26-.47-3.3,1.21-3.62l10.72-2.01c1.85-.35,3.44-1.54,4.29-3.23l4.96-9.84c.4-.8,1.17-1.2,1.94-1.2M27.5,0C25.22,0,23.17,1.26,22.15,3.3l-4.96,9.84c-.31.62-.9,1.07-1.58,1.19l-10.72,2.01c-2.13.4-3.89,1.93-4.58,3.99-.69,2.06-.21,4.34,1.25,5.95l7.81,8.57c.45.49.65,1.15.57,1.81l-1.52,11.56c-.23,1.71.29,3.44,1.43,4.73,1.14,1.3,2.79,2.05,4.51,2.05.94,0,1.89-.23,2.74-.67l9.38-4.83c.32-.16.67-.25,1.02-.25.35,0,.71.09,1.02.25l9.38,4.83c.85.44,1.8.67,2.74.67,1.72,0,3.37-.75,4.51-2.05,1.13-1.29,1.65-3.02,1.43-4.73l-1.52-11.56c-.09-.66.12-1.32.57-1.82l7.81-8.57c1.46-1.61,1.94-3.88,1.25-5.95-.69-2.06-2.44-3.59-4.58-3.99l-10.72-2.01c-.68-.13-1.27-.57-1.59-1.2l-4.96-9.84C31.82,1.26,29.77,0,27.5,0h0Z"/>
</svg>