<?xml version="1.0" encoding="UTF-8"?>
<svg id="Layer_1" xmlns="http://www.w3.org/2000/svg" version="1.1" viewBox="0 0 55 55">
  <!-- Generator: Adobe Illustrator 30.1.0, SVG Export Plug-In . SVG Version: 2.1.1 Build 136)  -->
  <path d="M27.5,11.58c.52,0,1.03.27,1.31.81l3.33,6.61c.57,1.13,1.64,1.94,2.88,2.17l7.2,1.35c1.13.21,1.58,1.58.81,2.43l-5.25,5.76c-.81.89-1.19,2.09-1.03,3.28l1.02,7.77c.12.93-.62,1.66-1.45,1.66-.22,0-.45-.05-.67-.16l-6.3-3.24c-.58-.3-1.22-.45-1.86-.45s-1.28.15-1.86.45l-6.3,3.24c-.22.11-.45.16-.67.16-.83,0-1.57-.73-1.45-1.66l1.02-7.77c.16-1.19-.22-2.39-1.03-3.28l-5.25-5.76c-.77-.85-.32-2.22.81-2.43l7.2-1.35c1.25-.23,2.31-1.04,2.88-2.17l3.33-6.61c.27-.54.79-.81,1.31-.81M27.5,0C22.54,0,18.08,2.75,15.85,7.18l-1.66,3.29-3.55.66c-4.65.87-8.47,4.2-9.97,8.68-1.5,4.48-.46,9.44,2.73,12.94l2.9,3.18-.57,4.31c-.49,3.73.65,7.48,3.12,10.31,2.48,2.83,6.06,4.45,9.81,4.45,2.06,0,4.13-.5,5.97-1.45l2.86-1.47,2.86,1.47c1.84.95,3.91,1.45,5.97,1.45,3.76,0,7.33-1.62,9.81-4.45,2.47-2.82,3.61-6.58,3.12-10.31l-.57-4.31,2.9-3.18c3.19-3.5,4.23-8.45,2.73-12.94-1.5-4.48-5.32-7.81-9.97-8.68l-3.55-.66-1.66-3.29C36.92,2.75,32.46,0,27.5,0h0Z"/>
</svg>