<?xml version="1.0" encoding="UTF-8"?>
<svg id="Layer_1" xmlns="http://www.w3.org/2000/svg" version="1.1" viewBox="0 0 8 8">
  <!-- Generator: Adobe Illustrator 30.1.0, SVG Export Plug-In . SVG Version: 2.1.1 Build 136)  -->
  <circle id="Outer" cx="4" cy="4" r="3.72" fill="none" stroke="#000" stroke-width=".56"/>
  <g>
    <g>
      <polygon points="3.78 5.87 3.75 5.41 4.21 5.37 4.25 5.87 3.78 5.87"/>
      <path d="M4.21,5.41v.43h-.43v-.43h.43M4.29,5.34h-.58v.58h.58v-.58h0Z"/>
    </g>
    <g>
      <path d="M3.78,4.81l-.04-.2c0-.21.08-.41.22-.57l.42-.47c.11-.12.17-.28.17-.44,0-.23-.19-.42-.42-.42h-.27c-.23,0-.42.19-.42.42l-.47.04c-.04-.55.38-.96.89-.96h.27c.51,0,.93.41.93.92,0,.29-.11.56-.3.77l-.42.47c-.06.07-.09.15-.09.23v.2h-.47Z"/>
      <path d="M4.14,2.26c.49,0,.89.4.89.88,0,.28-.1.54-.29.75l-.42.47c-.07.07-.1.16-.1.26v.16h-.43v-.16c0-.2.07-.39.21-.54l.42-.47c.12-.13.18-.29.18-.46,0-.25-.21-.46-.46-.46h-.27c-.25,0-.46.2-.46.46h-.43c0-.49.4-.88.89-.88h.27M4.14,2.18h-.27c-.53,0-.96.43-.96.96v.07h.58v-.07c0-.21.17-.38.38-.38h.27c.21,0,.38.17.38.38,0,.15-.06.3-.16.41l-.42.47c-.15.16-.23.37-.23.59v.16s0,.07,0,.07h.57v-.07s0-.16,0-.16c0-.08.03-.15.08-.21l.42-.47c.2-.22.31-.5.31-.8,0-.53-.43-.96-.96-.96h0Z"/>
    </g>
  </g>
</svg>