<?xml version="1.0" encoding="UTF-8"?>
<svg id="Layer_1" xmlns="http://www.w3.org/2000/svg" version="1.1" viewBox="0 0 8 8">
  <!-- Generator: Adobe Illustrator 30.1.0, SVG Export Plug-In . SVG Version: 2.1.1 Build 136)  -->
  <circle id="Outer" cx="4" cy="4" r="3.16" fill="none" stroke="#000" stroke-width="1.68"/>
  <g>
    <g>
      <rect x="3.74" y="4.94" width=".51" height=".51"/>
      <path d="M4.12,5.08v.24h-.24v-.24h.24M4.39,4.81h-.79v.79h.79v-.79h0Z"/>
    </g>
    <g>
      <path d="M3.74,4.49v-.14c0-.24.05-.38.15-.49l.24-.26s.06-.11.06-.17c0-.07-.05-.12-.12-.12h-.15c-.07,0-.12.05-.12.12v.14h-.52v-.14c0-.35.29-.63.64-.63h.15c.35,0,.64.28.64.63,0,.19-.07.37-.2.51l-.24.26-.16.05.14.09v.14h-.51Z"/>
      <path d="M4.08,2.94c.27,0,.5.22.5.49,0,.16-.06.3-.16.42l-.24.26s-.06.09-.06.15v.09h-.24v-.09c0-.11.04-.22.12-.3l.24-.26c.06-.07.1-.16.1-.26,0-.14-.12-.26-.26-.26h-.15c-.14,0-.26.11-.26.26h-.24c0-.27.22-.49.5-.49h.15M4.08,2.66h-.15c-.43,0-.77.35-.77.77v.28h.7l-.06.06c-.12.13-.19.31-.19.49v.09s0,.27,0,.27h.78v-.27s0-.09,0-.09l.22-.23c.15-.17.23-.38.23-.6,0-.42-.35-.77-.77-.77h0ZM3.94,3.6v-.17l.13.02s-.03.04-.05.06l-.09.1h0Z"/>
    </g>
  </g>
</svg>