<?xml version="1.0" encoding="UTF-8"?>
<svg id="Layer_1" xmlns="http://www.w3.org/2000/svg" version="1.1" viewBox="0 0 8 8">
  <!-- Generator: Adobe Illustrator 30.1.0, SVG Export Plug-In . SVG Version: 2.1.1 Build 136)  -->
  <circle id="Outer" cx="4" cy="4" r="3.65" fill="none" stroke="#000" stroke-width=".69"/>
  <g>
    <g>
      <polygon points="3.8 5.82 3.75 5.37 4.2 5.32 4.25 5.77 4.25 5.82 3.8 5.82"/>
      <path d="M4.2,5.37v.4h-.4v-.4h.4M4.3,5.27h-.6v.6h.6v-.6h0Z"/>
    </g>
    <g>
      <path d="M3.8,4.77l-.05-.2c0-.2.08-.4.21-.55l.4-.44c.1-.11.16-.25.16-.4,0-.21-.17-.38-.38-.38h-.25c-.21,0-.38.17-.38.38l-.45.05c-.05-.54.35-.93.84-.93h.25c.49,0,.89.4.89.88,0,.27-.1.54-.29.74l-.4.44c-.05.06-.08.13-.08.21v.2h-.45Z"/>
      <path d="M4.13,2.35c.46,0,.84.37.84.83,0,.26-.1.51-.27.71l-.4.44c-.06.07-.1.15-.1.24v.15h-.4v-.15c0-.19.07-.37.2-.51l.4-.44c.11-.12.17-.28.17-.44,0-.24-.19-.43-.43-.43h-.25c-.24,0-.43.19-.43.43h-.4c0-.46.38-.83.84-.83h.25M4.13,2.25h-.25c-.52,0-.94.42-.94.93v.1h.6v-.1c0-.18.15-.33.33-.33h.25c.18,0,.33.15.33.33,0,.14-.05.27-.14.37l-.4.44c-.14.16-.22.36-.22.58v.15s0,.1,0,.1h.6v-.1s0-.15,0-.15c0-.07.02-.13.07-.18l.4-.44c.19-.21.3-.49.3-.77,0-.51-.42-.93-.94-.93h0Z"/>
    </g>
  </g>
</svg>