<?xml version="1.0" encoding="UTF-8"?>
<svg id="Layer_1" xmlns="http://www.w3.org/2000/svg" version="1.1" viewBox="0 0 8 8">
  <!-- Generator: Adobe Illustrator 30.1.0, SVG Export Plug-In . SVG Version: 2.1.1 Build 136)  -->
  <circle id="Outer" cx="4" cy="4" r="3.23" fill="none" stroke="#000" stroke-width="1.54"/>
  <g>
    <g>
      <rect x="3.74" y="5" width=".51" height=".51"/>
      <path d="M4.13,5.12v.26h-.26v-.26h.26M4.38,4.87h-.76v.76h.76v-.76h0Z"/>
    </g>
    <g>
      <path d="M3.75,4.52v-.12c0-.25.06-.4.16-.52l.26-.28c.05-.05.08-.13.08-.2,0-.08-.07-.15-.16-.15h-.17c-.09,0-.16.07-.16.15v.12h-.51v-.12c0-.37.3-.66.67-.66h.17c.37,0,.67.3.67.66,0,.2-.07.39-.21.54l-.26.29-.03.17v.12h-.51Z"/>
      <path d="M4.08,2.86c.3,0,.54.24.54.54,0,.17-.06.33-.18.46l-.26.28s-.06.1-.06.16v.1h-.26v-.1c0-.12.04-.24.13-.33l.26-.28c.07-.08.11-.18.11-.28,0-.15-.13-.28-.28-.28h-.17c-.15,0-.28.12-.28.28h-.26c0-.3.24-.54.54-.54h.17M4.08,2.61h-.17c-.44,0-.79.35-.79.79v.25h.76v-.25l.2-.03c.03.07.01.11-.01.14l-.26.28c-.12.14-.19.31-.19.5v.1s0,.25,0,.25h.75v-.25s0-.1,0-.1l.25-.28c.16-.17.24-.39.24-.62,0-.43-.36-.79-.79-.79h0Z"/>
    </g>
  </g>
</svg>