<?xml version="1.0" encoding="UTF-8"?>
<svg id="Layer_1" xmlns="http://www.w3.org/2000/svg" version="1.1" viewBox="0 0 8 8">
  <!-- Generator: Adobe Illustrator 30.1.0, SVG Export Plug-In . SVG Version: 2.1.1 Build 136)  -->
  <circle id="Outer" cx="4" cy="4" r="3.51" fill="none" stroke="#000" stroke-width=".98"/>
  <g>
    <g>
      <rect x="3.75" y="5.21" width=".5" height=".5"/>
      <path d="M4.17,5.29v.35h-.35v-.35h.35M4.32,5.14h-.65v.65h.65v-.65h0Z"/>
    </g>
    <g>
      <path d="M3.75,4.68v-.21c0-.19.07-.36.19-.5l.35-.39c.08-.09.13-.21.13-.33,0-.17-.14-.3-.3-.3h-.22c-.17,0-.3.14-.3.3v.08h-.51v-.08c0-.44.36-.8.81-.8h.22c.45,0,.81.36.81.8,0,.25-.09.48-.26.67l-.35.39s-.06.1-.06.16v.21h-.5Z"/>
      <path d="M4.11,2.52c.4,0,.73.33.73.73,0,.23-.08.45-.24.62l-.35.39c-.05.06-.08.13-.08.21v.13h-.35v-.13c0-.17.06-.33.17-.45l.35-.39c.1-.11.15-.24.15-.38,0-.21-.17-.38-.38-.38h-.22c-.21,0-.38.17-.38.38h-.35c0-.4.33-.73.73-.73h.22M4.11,2.37h-.22c-.49,0-.88.39-.88.88v.15h.65v-.15c0-.13.1-.23.23-.23h.22c.13,0,.23.1.23.23,0,.1-.04.21-.11.28l-.35.39c-.14.15-.21.35-.21.55v.13s0,.15,0,.15h.65v-.15s0-.13,0-.13c0-.04.02-.08.05-.12l.35-.39c.18-.2.28-.45.28-.72,0-.48-.4-.88-.88-.88h0Z"/>
    </g>
  </g>
</svg>