<?xml version="1.0" encoding="UTF-8"?>
<svg id="Layer_1" xmlns="http://www.w3.org/2000/svg" version="1.1" viewBox="0 0 8 8">
  <!-- Generator: Adobe Illustrator 30.1.0, SVG Export Plug-In . SVG Version: 2.1.1 Build 136)  -->
  <circle id="Outer" cx="4" cy="4" r="3.37" fill="none" stroke="#000" stroke-width="1.26"/>
  <g>
    <g>
      <rect x="3.75" y="5.11" width=".5" height=".5"/>
      <path d="M4.15,5.21v.3h-.3v-.3h.3M4.35,5.01h-.7v.7h.7v-.7h0Z"/>
    </g>
    <g>
      <path d="M3.75,4.6v-.21c0-.17.06-.33.17-.46l.3-.33c.07-.07.1-.17.1-.27,0-.12-.1-.23-.23-.23h-.19c-.13,0-.23.1-.23.23v.1h-.51v-.1c0-.4.33-.73.74-.73h.19c.41,0,.74.33.74.73,0,.22-.08.44-.23.6l-.3.33s-.05.07-.05.12v.21h-.5Z"/>
      <path d="M4.1,2.7c.35,0,.64.28.64.63,0,.2-.07.39-.21.54l-.3.33c-.05.05-.07.12-.07.19v.12h-.31v-.12c0-.14.05-.28.15-.39l.3-.33c.08-.09.13-.21.13-.33,0-.18-.15-.33-.33-.33h-.19c-.18,0-.33.15-.33.33h-.31c0-.35.28-.63.64-.63h.19M4.1,2.5h-.19c-.46,0-.84.37-.84.83v.2h.71v-.2c0-.07.06-.13.13-.13h.19c.07,0,.13.06.13.13,0,.07-.03.14-.08.2l-.3.33c-.13.14-.2.33-.2.52v.12s0,.2,0,.2h.7v-.2s0-.12,0-.12c0-.02,0-.04.02-.05l.3-.33c.17-.18.26-.42.26-.67,0-.46-.37-.83-.84-.83h0Z"/>
    </g>
  </g>
</svg>