<?xml version="1.0" encoding="UTF-8"?>
<svg id="Layer_1" xmlns="http://www.w3.org/2000/svg" version="1.1" viewBox="0 0 96 96">
  <!-- Generator: Adobe Illustrator 30.1.0, SVG Export Plug-In . SVG Version: 2.1.1 Build 136)  -->
  <g>
    <g>
      <rect x="44.57" y="26.14" width="6.86" height="6.86"/>
      <path d="M50.53,27.04v5.06h-5.06v-5.06h5.06M52.33,25.24h-8.66v8.66h8.66v-8.66h0Z"/>
    </g>
    <g>
      <polygon points="39.51 69.44 39.51 62.58 44.57 62.58 44.57 48.58 39.51 48.58 39.51 41.72 51.43 41.72 51.43 62.58 56.49 62.58 56.49 69.44 39.51 69.44"/>
      <path d="M50.53,42.62v20.86h5.06v5.06h-15.18v-5.06h5.06v-15.8h-5.06v-5.06h10.12M52.33,40.82h-13.72v8.66h5.06v12.2h-5.06v8.66h18.78v-8.66h-5.06v-20.86h0Z"/>
    </g>
  </g>
  <circle id="Outer" cx="48" cy="48" r="42.14" fill="none" stroke="#000" stroke-width="11.73"/>
</svg>