<?xml version="1.0" encoding="UTF-8"?>
<svg id="Layer_1" xmlns="http://www.w3.org/2000/svg" version="1.1" viewBox="0 0 96 96">
  <!-- Generator: Adobe Illustrator 30.1.0, SVG Export Plug-In . SVG Version: 2.1.1 Build 136)  -->
  <g>
    <g>
      <rect x="44.46" y="28.58" width="7.08" height="7.08"/>
      <path d="M50.04,30.08v4.08h-4.08v-4.08h4.08M53.04,27.08h-10.08v10.08h10.08v-10.08h0Z"/>
    </g>
    <g>
      <polygon points="40.37 66.49 40.37 59.4 44.46 59.4 44.46 49.65 40.37 49.65 40.37 42.57 51.54 42.57 51.54 59.4 55.63 59.4 55.63 66.49 40.37 66.49"/>
      <path d="M50.04,44.07v16.83h4.08v4.08h-12.25v-4.08h4.08v-12.75h-4.08v-4.08h8.17M53.04,41.07h-14.17v10.08h4.08v6.75h-4.08v10.08h18.25v-10.08h-4.08v-16.83h0Z"/>
    </g>
  </g>
  <circle id="Outer" cx="48" cy="48" r="38.73" fill="none" stroke="#000" stroke-width="18.54"/>
</svg>