<?xml version="1.0" encoding="UTF-8"?>
<svg id="Layer_1" xmlns="http://www.w3.org/2000/svg" version="1.1" viewBox="0 0 96 96">
  <!-- Generator: Adobe Illustrator 30.1.0, SVG Export Plug-In . SVG Version: 2.1.1 Build 136)  -->
  <g>
    <g>
      <rect x="44.43" y="29.18" width="7.15" height="7.15"/>
      <path d="M49.92,30.83v3.85h-3.85v-3.85h3.85M53.22,27.53h-10.45v10.45h10.45v-10.45h0Z"/>
    </g>
    <g>
      <polygon points="40.58 65.78 40.58 58.63 44.43 58.63 44.43 49.91 40.58 49.91 40.58 42.76 51.58 42.76 51.58 58.63 55.42 58.63 55.42 65.78 40.58 65.78"/>
      <path d="M49.92,44.41v15.87h3.85v3.85h-11.55v-3.85h3.85v-12.02h-3.85v-3.85h7.7M53.22,41.11h-14.3v10.45h3.85v5.42h-3.85v10.45h18.15v-10.45h-3.85v-15.87h0Z"/>
    </g>
  </g>
  <circle id="Outer" cx="48" cy="48" r="37.89" fill="none" stroke="#000" stroke-width="20.22"/>
</svg>