<?xml version="1.0" encoding="UTF-8"?>
<svg id="Layer_1" xmlns="http://www.w3.org/2000/svg" version="1.1" viewBox="0 0 127 127">
  <!-- Generator: Adobe Illustrator 30.1.0, SVG Export Plug-In . SVG Version: 2.1.1 Build 136)  -->
  <g>
    <g>
      <rect x="58.81" y="37.81" width="9.37" height="9.37"/>
      <path d="M66.2,39.8v5.4h-5.4v-5.4h5.4M70.17,35.83h-13.34v13.34h13.34v-13.34h0Z"/>
    </g>
    <g>
      <polygon points="53.41 87.96 53.41 78.58 58.81 78.58 58.81 65.69 53.41 65.69 53.41 56.32 68.19 56.32 68.19 78.58 73.59 78.58 73.59 87.96 53.41 87.96"/>
      <path d="M66.2,58.3v22.27h5.4v5.4h-16.21v-5.4h5.4v-16.87h-5.4v-5.4h10.8M70.17,54.33h-18.74v13.34h5.4v8.93h-5.4v13.34h24.14v-13.34h-5.4v-22.27h0Z"/>
    </g>
  </g>
  <circle id="Outer" cx="63.5" cy="63.5" r="51.24" fill="none" stroke="#000" stroke-width="24.53"/>
</svg>