<?xml version="1.0" encoding="UTF-8"?>
<svg id="Layer_1" xmlns="http://www.w3.org/2000/svg" version="1.1" viewBox="0 0 127 127">
  <!-- Generator: Adobe Illustrator 30.1.0, SVG Export Plug-In . SVG Version: 2.1.1 Build 136)  -->
  <g>
    <g>
      <rect x="59.06" y="32.16" width="8.88" height="8.88"/>
      <path d="M67.34,32.75v7.69h-7.69v-7.69h7.69M68.53,31.56h-10.07v10.07h10.07v-10.07h0Z"/>
    </g>
    <g>
      <polygon points="51.37 94.84 51.37 85.97 59.06 85.97 59.06 63.16 51.37 63.16 51.37 54.28 67.94 54.28 67.94 85.97 75.63 85.97 75.63 94.84 51.37 94.84"/>
      <path d="M67.34,54.88v31.69h7.69v7.69h-23.06v-7.69h7.69v-24h-7.69v-7.69h15.37M68.53,53.68h-17.76v10.07h7.69v21.62h-7.69v10.07h25.44v-10.07h-7.69v-31.69h0Z"/>
    </g>
  </g>
  <circle id="Outer" cx="63.5" cy="63.5" r="59.09" fill="none" stroke="#000" stroke-width="8.81"/>
</svg>