<?xml version="1.0" encoding="UTF-8"?>
<svg id="Layer_1" xmlns="http://www.w3.org/2000/svg" version="1.1" viewBox="0 0 53 53">
  <!-- Generator: Adobe Illustrator 30.1.0, SVG Export Plug-In . SVG Version: 2.1.1 Build 136)  -->
  <g>
    <g>
      <rect x="24.54" y="15.78" width="3.91" height="3.91"/>
      <path d="M27.63,16.61v2.25h-2.25v-2.25h2.25M29.28,14.95h-5.57v5.57h5.57v-5.57h0Z"/>
    </g>
    <g>
      <polygon points="22.29 36.71 22.29 32.79 24.54 32.79 24.54 27.41 22.29 27.41 22.29 23.5 28.46 23.5 28.46 32.79 30.71 32.79 30.71 36.71 22.29 36.71"/>
      <path d="M27.63,24.33v9.29h2.25v2.25h-6.76v-2.25h2.25v-7.04h-2.25v-2.25h4.51M29.28,22.67h-7.82v5.57h2.25v3.73h-2.25v5.57h10.08v-5.57h-2.25v-9.29h0Z"/>
    </g>
  </g>
  <circle id="Outer" cx="26.5" cy="26.5" r="21.38" fill="none" stroke="#000" stroke-width="10.24"/>
</svg>