<?xml version="1.0" encoding="UTF-8"?>
<svg id="Layer_1" xmlns="http://www.w3.org/2000/svg" version="1.1" viewBox="0 0 53 53">
  <!-- Generator: Adobe Illustrator 30.1.0, SVG Export Plug-In . SVG Version: 2.1.1 Build 136)  -->
  <g>
    <g>
      <rect x="24.65" y="13.42" width="3.71" height="3.71"/>
      <path d="M28.1,13.67v3.21h-3.21v-3.21h3.21M28.6,13.17h-4.2v4.2h4.2v-4.2h0Z"/>
    </g>
    <g>
      <polygon points="21.44 39.58 21.44 35.88 24.65 35.88 24.65 26.36 21.44 26.36 21.44 22.65 28.35 22.65 28.35 35.88 31.56 35.88 31.56 39.58 21.44 39.58"/>
      <path d="M28.1,22.9v13.22h3.21v3.21h-9.62v-3.21h3.21v-10.02h-3.21v-3.21h6.42M28.6,22.4h-7.41v4.2h3.21v9.02h-3.21v4.2h10.62v-4.2h-3.21v-13.22h0Z"/>
    </g>
  </g>
  <circle id="Outer" cx="26.5" cy="26.5" r="24.66" fill="none" stroke="#000" stroke-width="3.68"/>
</svg>