<?xml version="1.0" encoding="UTF-8"?>
<svg id="Layer_1" xmlns="http://www.w3.org/2000/svg" version="1.1" viewBox="0 0 100 100">
  <!-- Generator: Adobe Illustrator 30.1.0, SVG Export Plug-In . SVG Version: 2.1.1 Build 136)  -->
  <path d="M50,21.06c.94,0,1.88.49,2.37,1.46l6.05,12.02c1.04,2.06,2.98,3.52,5.24,3.95l13.1,2.45c2.05.38,2.88,2.87,1.47,4.41l-9.54,10.47c-1.47,1.62-2.16,3.8-1.87,5.97l1.86,14.12c.22,1.68-1.12,3.02-2.63,3.02-.4,0-.82-.09-1.21-.3l-11.46-5.9c-1.06-.55-2.22-.82-3.38-.82s-2.32.27-3.38.82l-11.46,5.9c-.4.21-.81.3-1.21.3-1.51,0-2.86-1.33-2.63-3.02l1.86-14.12c.29-2.17-.4-4.35-1.87-5.96l-9.54-10.47c-1.41-1.54-.57-4.03,1.47-4.42l13.1-2.45c2.26-.42,4.2-1.88,5.24-3.94l6.05-12.02c.49-.98,1.43-1.46,2.37-1.46M50,0C40.99,0,32.87,5,28.82,13.05l-3.01,5.98-6.45,1.21c-8.45,1.58-15.39,7.63-18.12,15.78-2.73,8.15-.83,17.17,4.96,23.52l5.27,5.78-1.03,7.84c-.89,6.78,1.17,13.61,5.67,18.74,4.51,5.14,11.01,8.1,17.84,8.1,3.75,0,7.51-.91,10.86-2.64l5.2-2.68,5.2,2.68c3.35,1.73,7.1,2.64,10.86,2.64,6.83,0,13.33-2.95,17.84-8.1,4.5-5.13,6.57-11.96,5.67-18.74l-1.03-7.84,5.27-5.78c5.79-6.36,7.69-15.37,4.96-23.52-2.73-8.15-9.67-14.2-18.12-15.78l-6.45-1.21-3.01-5.98C67.13,5,59.01,0,50,0h0Z"/>
</svg>