<?xml version="1.0" encoding="UTF-8"?>
<svg id="Layer_1" xmlns="http://www.w3.org/2000/svg" version="1.1" viewBox="0 0 100 100">
  <!-- Generator: Adobe Illustrator 30.1.0, SVG Export Plug-In . SVG Version: 2.1.1 Build 136)  -->
  <path d="M50,8.69c1.34,0,2.69.7,3.39,2.09l8.64,17.16c1.48,2.94,4.25,5.03,7.48,5.63l18.7,3.5c2.92.55,4.11,4.1,2.1,6.3l-13.62,14.95c-2.1,2.31-3.08,5.43-2.67,8.52l2.66,20.16c.32,2.4-1.6,4.31-3.76,4.31-.57,0-1.16-.13-1.73-.43l-16.35-8.42c-1.52-.78-3.17-1.17-4.83-1.17-1.66,0-3.31.39-4.83,1.17l-16.35,8.42c-.57.29-1.16.43-1.73.43-2.16,0-4.08-1.9-3.76-4.31l2.66-20.16c.41-3.09-.57-6.21-2.67-8.51l-13.62-14.95c-2.01-2.2-.82-5.76,2.1-6.31l18.7-3.5c3.23-.61,6-2.69,7.48-5.63l8.64-17.16c.7-1.39,2.05-2.09,3.39-2.09M50,0C45.26,0,40.99,2.63,38.85,6.87l-8.64,17.16c-.26.52-.76.89-1.32,1l-18.7,3.5c-4.45.83-8.1,4.02-9.54,8.31-1.44,4.29-.44,9.04,2.61,12.39l13.62,14.95c.38.41.55.97.48,1.53l-2.66,20.16c-.47,3.57.61,7.16,2.98,9.86,2.38,2.71,5.8,4.27,9.4,4.27,1.97,0,3.94-.48,5.71-1.39l16.35-8.42c.27-.14.55-.21.85-.21.3,0,.59.07.85.21l16.35,8.42c1.77.91,3.74,1.39,5.71,1.39,3.59,0,7.01-1.56,9.4-4.27,2.36-2.7,3.45-6.29,2.98-9.86l-2.66-20.16c-.07-.56.1-1.12.48-1.54l13.62-14.95c3.05-3.35,4.05-8.09,2.61-12.39-1.44-4.29-5.09-7.47-9.54-8.31l-18.7-3.5c-.57-.11-1.06-.48-1.33-1l-8.64-17.16C59.01,2.63,54.74,0,50,0h0Z"/>
</svg>