<?xml version="1.0" encoding="UTF-8"?>
<svg id="Layer_1" xmlns="http://www.w3.org/2000/svg" version="1.1" viewBox="0 0 100 100">
  <!-- Generator: Adobe Illustrator 30.1.0, SVG Export Plug-In . SVG Version: 2.1.1 Build 136)  -->
  <path d="M50,12.22c1.23,0,2.46.64,3.1,1.91l7.9,15.69c1.36,2.69,3.89,4.6,6.84,5.15l17.1,3.21c2.67.5,3.76,3.75,1.92,5.76l-12.46,13.67c-1.92,2.11-2.82,4.96-2.44,7.79l2.43,18.43c.29,2.2-1.46,3.94-3.44,3.94-.52,0-1.06-.12-1.59-.39l-14.96-7.7c-1.39-.71-2.9-1.07-4.42-1.07-1.52,0-3.03.36-4.42,1.07l-14.96,7.7c-.52.27-1.06.39-1.59.39-1.98,0-3.73-1.74-3.44-3.94l2.43-18.44c.37-2.83-.52-5.68-2.44-7.79l-12.46-13.67c-1.84-2.01-.75-5.27,1.93-5.77l17.1-3.2c2.96-.55,5.49-2.46,6.84-5.15l7.91-15.69c.64-1.27,1.87-1.91,3.1-1.91M50,0C44.04,0,38.67,3.31,35.99,8.63l-7.34,14.56-15.85,2.97c-5.59,1.05-10.18,5.05-11.99,10.44-1.81,5.4-.55,11.36,3.28,15.57l11.66,12.8-2.28,17.27c-.59,4.49.77,9,3.75,12.39,2.99,3.41,7.29,5.36,11.81,5.36,2.48,0,4.96-.6,7.18-1.75l13.78-7.1,13.78,7.1c2.22,1.14,4.7,1.75,7.18,1.75,4.51,0,8.82-1.95,11.81-5.36,2.97-3.39,4.34-7.91,3.75-12.39l-2.28-17.27,11.67-12.8c3.83-4.2,5.09-10.17,3.28-15.56-1.81-5.39-6.4-9.39-11.99-10.44l-15.85-2.97-7.34-14.56C61.33,3.31,55.96,0,50,0h0Z"/>
</svg>