<?xml version="1.0" encoding="UTF-8"?>
<svg id="Layer_1" xmlns="http://www.w3.org/2000/svg" version="1.1" viewBox="0 0 100 100">
  <!-- Generator: Adobe Illustrator 30.1.0, SVG Export Plug-In . SVG Version: 2.1.1 Build 136)  -->
  <path d="M50,19.31c1,0,2,.52,2.52,1.55l6.42,12.74c1.1,2.19,3.16,3.73,5.56,4.18l13.89,2.6c2.17.41,3.05,3.05,1.56,4.68l-10.12,11.1c-1.56,1.71-2.29,4.03-1.98,6.33l1.97,14.97c.24,1.79-1.19,3.2-2.79,3.2-.43,0-.86-.1-1.29-.32l-12.15-6.26c-1.13-.58-2.36-.87-3.59-.87-1.23,0-2.46.29-3.59.87l-12.15,6.26c-.42.22-.86.32-1.29.32-1.61,0-3.03-1.41-2.79-3.2l1.98-14.98c.3-2.3-.42-4.61-1.98-6.32l-10.12-11.11c-1.49-1.64-.61-4.28,1.56-4.68l13.89-2.6c2.4-.45,4.46-2,5.56-4.18l6.42-12.75c.52-1.03,1.52-1.55,2.52-1.55M50,0C41.59,0,34.02,4.67,30.23,12.18l-3.87,7.68-8.31,1.56c-7.88,1.48-14.36,7.12-16.91,14.73-2.55,7.61-.77,16.02,4.63,21.95l6.53,7.17-1.28,9.7c-.83,6.32,1.1,12.7,5.29,17.48,4.21,4.8,10.28,7.55,16.65,7.55,3.5,0,7-.85,10.13-2.46l6.9-3.55,6.89,3.55c3.13,1.61,6.63,2.46,10.13,2.46,6.37,0,12.44-2.75,16.65-7.55,4.2-4.79,6.13-11.16,5.29-17.48l-1.28-9.7,6.54-7.17c5.4-5.93,7.18-14.34,4.63-21.95-2.55-7.61-9.03-13.25-16.91-14.72l-8.31-1.56-3.87-7.68C65.98,4.67,58.41,0,50,0h0Z"/>
</svg>