<?xml version="1.0" encoding="UTF-8"?>
<svg id="Layer_1" xmlns="http://www.w3.org/2000/svg" version="1.1" viewBox="0 0 100 100">
  <!-- Generator: Adobe Illustrator 30.1.0, SVG Export Plug-In . SVG Version: 2.1.1 Build 136)  -->
  <path d="M50,15.78c1.11,0,2.23.58,2.81,1.73l7.16,14.21c1.23,2.44,3.52,4.16,6.2,4.67l15.49,2.9c2.42.45,3.4,3.4,1.74,5.22l-11.28,12.38c-1.74,1.91-2.55,4.49-2.21,7.06l2.2,16.7c.26,1.99-1.32,3.57-3.12,3.57-.47,0-.96-.11-1.44-.35l-13.55-6.98c-1.26-.65-2.63-.97-4-.97s-2.75.32-4,.97l-13.55,6.98c-.47.24-.96.35-1.44.35-1.79,0-3.38-1.58-3.12-3.57l2.2-16.7c.34-2.56-.47-5.14-2.21-7.05l-11.28-12.38c-1.66-1.82-.68-4.77,1.74-5.22l15.49-2.9c2.68-.5,4.97-2.23,6.2-4.66l7.16-14.21c.58-1.15,1.69-1.73,2.81-1.73M50,0c-7.19,0-13.66,3.99-16.9,10.41l-5.6,11.11-12.06,2.26c-6.74,1.26-12.28,6.09-14.46,12.59-2.18,6.51-.66,13.7,3.96,18.77l9.09,9.97-1.78,13.47c-.71,5.41.94,10.86,4.52,14.95,3.6,4.11,8.79,6.46,14.24,6.46,2.99,0,5.99-.73,8.66-2.11l10.32-5.32,10.32,5.32c2.67,1.38,5.67,2.11,8.66,2.11,5.45,0,10.64-2.36,14.24-6.46,3.59-4.09,5.24-9.54,4.52-14.95l-1.78-13.47,9.09-9.97c4.62-5.07,6.14-12.26,3.96-18.77-2.18-6.5-7.72-11.33-14.46-12.59l-12.06-2.26-5.6-11.11C63.66,3.99,57.19,0,50,0h0Z"/>
</svg>