<?xml version="1.0" encoding="UTF-8"?>
<svg id="Layer_1" xmlns="http://www.w3.org/2000/svg" version="1.1" viewBox="0 0 13 13">
  <!-- Generator: Adobe Illustrator 30.1.0, SVG Export Plug-In . SVG Version: 2.1.1 Build 136)  -->
  <path d="M6.5,2.51c.13,0,.26.07.33.2l.83,1.66c.14.28.41.49.72.54l1.81.34c.28.05.4.4.2.61l-1.32,1.44c-.2.22-.3.52-.26.82l.26,1.95c.03.23-.15.42-.36.42-.06,0-.11-.01-.17-.04l-1.58-.81c-.15-.08-.31-.11-.47-.11s-.32.04-.47.11l-1.58.81c-.06.03-.11.04-.17.04-.21,0-.39-.18-.36-.42l.26-1.95c.04-.3-.05-.6-.26-.82l-1.32-1.44c-.19-.21-.08-.56.2-.61l1.81-.34c.31-.06.58-.26.72-.54l.83-1.66c.07-.13.2-.2.33-.2M6.5,0C5.41,0,4.42.61,3.93,1.58l-.5,1-1.08.2c-1.02.19-1.87.93-2.2,1.91-.33.99-.1,2.08.6,2.85l.85.93-.17,1.26c-.11.82.14,1.65.69,2.27.55.62,1.34.98,2.16.98.46,0,.91-.11,1.32-.32l.9-.46.9.46c.41.21.86.32,1.32.32.83,0,1.62-.36,2.16-.98.55-.62.8-1.45.69-2.27l-.17-1.26.85-.93c.7-.77.93-1.86.6-2.85-.33-.99-1.17-1.72-2.2-1.91l-1.08-.2-.5-1C8.58.61,7.59,0,6.5,0h0Z"/>
</svg>