<?xml version="1.0" encoding="UTF-8"?>
<svg id="Layer_1" xmlns="http://www.w3.org/2000/svg" version="1.1" viewBox="0 0 13 13">
  <!-- Generator: Adobe Illustrator 30.1.0, SVG Export Plug-In . SVG Version: 2.1.1 Build 136)  -->
  <path d="M6.5,2.05c.14,0,.29.08.36.23l.93,1.85c.16.32.46.54.81.61l2.01.38c.31.06.44.44.23.68l-1.47,1.61c-.23.25-.33.58-.29.92l.29,2.17c.03.26-.17.46-.4.46-.06,0-.13-.01-.19-.05l-1.76-.91c-.16-.08-.34-.13-.52-.13s-.36.04-.52.13l-1.76.91c-.06.03-.13.05-.19.05-.23,0-.44-.21-.41-.46l.29-2.17c.04-.33-.06-.67-.29-.92l-1.47-1.61c-.22-.24-.09-.62.23-.68l2.01-.38c.35-.07.65-.29.81-.61l.93-1.85c.08-.15.22-.23.36-.23M6.5,0C5.57,0,4.72.52,4.3,1.35l-.73,1.44-1.57.29c-.88.16-1.6.79-1.88,1.64-.28.85-.09,1.78.51,2.44l1.18,1.3-.23,1.75c-.09.7.12,1.41.59,1.94.47.53,1.14.84,1.85.84.39,0,.78-.09,1.13-.27l1.34-.69,1.34.69c.35.18.74.27,1.13.27.71,0,1.38-.31,1.85-.84.47-.53.68-1.24.59-1.94l-.23-1.75,1.18-1.3c.6-.66.8-1.59.51-2.44-.28-.85-1-1.47-1.88-1.64l-1.57-.29-.73-1.44C8.28.52,7.43,0,6.5,0h0Z"/>
</svg>