<?xml version="1.0" encoding="UTF-8"?>
<svg id="Layer_1" xmlns="http://www.w3.org/2000/svg" version="1.1" viewBox="0 0 13 13">
  <!-- Generator: Adobe Illustrator 30.1.0, SVG Export Plug-In . SVG Version: 2.1.1 Build 136)  -->
  <path d="M6.5,1.13c.17,0,.35.09.44.27l1.12,2.23c.19.38.55.65.97.73l2.43.46c.38.07.53.53.27.82l-1.77,1.94c-.27.3-.4.71-.35,1.11l.35,2.62c.04.31-.21.56-.49.56-.07,0-.15-.02-.23-.06l-2.13-1.09c-.2-.1-.41-.15-.63-.15s-.43.05-.63.15l-2.13,1.09c-.07.04-.15.06-.23.06-.28,0-.53-.25-.49-.56l.35-2.62c.05-.4-.07-.81-.35-1.11l-1.77-1.94c-.26-.29-.11-.75.27-.82l2.43-.46c.42-.08.78-.35.97-.73l1.12-2.23c.09-.18.27-.27.44-.27M6.5,0C5.88,0,5.33.34,5.05.89l-1.12,2.23c-.03.07-.1.12-.17.13l-2.43.46c-.58.11-1.05.52-1.24,1.08-.19.56-.06,1.18.34,1.61l1.77,1.94c.05.05.07.13.06.2l-.35,2.62c-.06.46.08.93.39,1.28.31.35.75.56,1.22.56.26,0,.51-.06.74-.18l2.13-1.1s.07-.03.11-.03.08,0,.11.03l2.13,1.09c.23.12.49.18.74.18.47,0,.91-.2,1.22-.56.31-.35.45-.82.39-1.28l-.35-2.62c0-.07.01-.15.06-.2l1.77-1.94c.4-.43.53-1.05.34-1.61-.19-.56-.66-.97-1.24-1.08l-2.43-.46c-.07-.01-.14-.06-.17-.13l-1.12-2.23C7.67.34,7.12,0,6.5,0h0Z"/>
</svg>