<?xml version="1.0" encoding="UTF-8"?>
<svg id="Layer_1" xmlns="http://www.w3.org/2000/svg" version="1.1" viewBox="0 0 13 13">
  <!-- Generator: Adobe Illustrator 30.1.0, SVG Export Plug-In . SVG Version: 2.1.1 Build 136)  -->
  <path d="M6.5,2.74c.12,0,.24.06.31.19l.79,1.56c.14.27.39.46.68.51l1.7.32c.27.05.37.37.19.57l-1.24,1.36c-.19.21-.28.49-.24.78l.24,1.84c.03.22-.15.39-.34.39-.05,0-.11-.01-.16-.04l-1.49-.77c-.14-.07-.29-.11-.44-.11-.15,0-.3.04-.44.11l-1.49.77c-.05.03-.11.04-.16.04-.2,0-.37-.17-.34-.39l.24-1.84c.04-.28-.05-.57-.24-.78l-1.24-1.36c-.18-.2-.07-.52.19-.57l1.7-.32c.29-.06.55-.24.68-.51l.79-1.56c.06-.13.19-.19.31-.19M6.5,0C5.33,0,4.27.65,3.75,1.7l-.39.78-.84.16c-1.1.21-2,.99-2.36,2.05-.36,1.06-.11,2.23.64,3.06l.68.75-.13,1.02c-.12.88.15,1.77.74,2.44.59.67,1.43,1.05,2.32,1.05.49,0,.98-.12,1.41-.34l.68-.35.68.35c.44.22.92.34,1.41.34.89,0,1.73-.38,2.32-1.05.58-.67.85-1.56.74-2.44l-.13-1.02.69-.75c.75-.83,1-2,.64-3.06-.35-1.06-1.26-1.85-2.36-2.05l-.84-.16-.39-.78C8.73.65,7.67,0,6.5,0h0Z"/>
</svg>