<?xml version="1.0" encoding="UTF-8"?>
<svg id="Layer_1" xmlns="http://www.w3.org/2000/svg" version="1.1" viewBox="0 0 13 13">
  <!-- Generator: Adobe Illustrator 30.1.0, SVG Export Plug-In . SVG Version: 2.1.1 Build 136)  -->
  <path d="M6.5,1.59c.16,0,.32.08.4.25l1.03,2.04c.18.35.51.6.89.67l2.22.42c.35.07.49.49.25.75l-1.62,1.78c-.25.27-.37.65-.32,1.01l.32,2.4c.04.29-.19.51-.45.51-.07,0-.14-.02-.21-.05l-1.94-1c-.18-.09-.38-.14-.57-.14s-.39.05-.57.14l-1.94,1c-.07.03-.14.05-.21.05-.26,0-.48-.23-.45-.51l.32-2.4c.05-.37-.07-.74-.32-1.01l-1.62-1.78c-.24-.26-.1-.68.25-.75l2.22-.42c.38-.07.71-.32.89-.67l1.03-2.04c.08-.17.24-.25.4-.25M6.5,0C5.73,0,5.03.43,4.68,1.12l-.95,1.89-2.06.39c-.73.14-1.32.66-1.56,1.36-.23.7-.07,1.48.43,2.02l1.52,1.66-.3,2.25c-.08.58.1,1.17.49,1.61.39.44.95.7,1.53.7.32,0,.64-.08.93-.23l1.79-.92,1.79.92c.29.15.61.23.93.23.59,0,1.15-.25,1.53-.7.39-.44.56-1.03.49-1.61l-.3-2.25,1.52-1.66c.5-.55.66-1.32.43-2.02-.23-.7-.83-1.22-1.56-1.36l-2.06-.39-.95-1.89C7.97.43,7.27,0,6.5,0h0Z"/>
</svg>