<?xml version="1.0" encoding="UTF-8"?>
<svg id="Layer_1" xmlns="http://www.w3.org/2000/svg" version="1.1" viewBox="0 0 50 50">
  <!-- Generator: Adobe Illustrator 30.1.0, SVG Export Plug-In . SVG Version: 2.1.1 Build 136)  -->
  <g>
    <g>
      <rect x="23.24" y="12.98" width="3.52" height="3.52"/>
      <path d="M26.45,13.29v2.9h-2.9v-2.9h2.9M27.07,12.66h-4.15v4.15h4.15v-4.15h0Z"/>
    </g>
    <g>
      <polygon points="20.34 36.95 20.34 33.43 23.24 33.43 23.24 25.01 20.34 25.01 20.34 21.49 26.76 21.49 26.76 33.43 29.66 33.43 29.66 36.95 20.34 36.95"/>
      <path d="M26.45,21.8v11.94h2.9v2.9h-8.69v-2.9h2.9v-9.04h-2.9v-2.9h5.79M27.07,21.18h-7.04v4.15h2.9v7.79h-2.9v4.15h9.94v-4.15h-2.9v-11.94h0Z"/>
    </g>
  </g>
  <circle id="Outer" cx="25" cy="25" r="22.83" fill="none" stroke="#000" stroke-width="4.34"/>
</svg>