<?xml version="1.0" encoding="UTF-8"?>
<svg id="Layer_1" xmlns="http://www.w3.org/2000/svg" version="1.1" viewBox="0 0 50 50">
  <!-- Generator: Adobe Illustrator 30.1.0, SVG Export Plug-In . SVG Version: 2.1.1 Build 136)  -->
  <g>
    <g>
      <rect x="23.16" y="14.89" width="3.69" height="3.69"/>
      <path d="M26.06,15.67v2.13h-2.13v-2.13h2.13M27.63,14.11h-5.25v5.25h5.25v-5.25h0Z"/>
    </g>
    <g>
      <polygon points="21.03 34.63 21.03 30.94 23.16 30.94 23.16 25.86 21.03 25.86 21.03 22.17 26.84 22.17 26.84 30.94 28.97 30.94 28.97 34.63 21.03 34.63"/>
      <path d="M26.06,22.95v8.77h2.13v2.13h-6.38v-2.13h2.13v-6.64h-2.13v-2.13h4.25M27.63,21.39h-7.38v5.25h2.13v3.52h-2.13v5.25h9.51v-5.25h-2.13v-8.77h0Z"/>
    </g>
  </g>
  <circle id="Outer" cx="25" cy="25" r="20.17" fill="none" stroke="#000" stroke-width="9.66"/>
</svg>