<?xml version="1.0" encoding="UTF-8"?>
<svg id="Layer_1" xmlns="http://www.w3.org/2000/svg" version="1.1" viewBox="0 0 30 30">
  <!-- Generator: Adobe Illustrator 30.1.0, SVG Export Plug-In . SVG Version: 2.1.1 Build 136)  -->
  <path d="M15,3.67c.37,0,.74.19.93.57l2.37,4.71c.41.81,1.17,1.38,2.05,1.55l5.13.96c.8.15,1.13,1.13.58,1.73l-3.74,4.1c-.58.63-.84,1.49-.73,2.34l.73,5.53c.09.66-.44,1.18-1.03,1.18-.16,0-.32-.04-.48-.12l-4.49-2.31c-.42-.21-.87-.32-1.33-.32s-.91.11-1.33.32l-4.49,2.31c-.16.08-.32.12-.48.12-.59,0-1.12-.52-1.03-1.18l.73-5.53c.11-.85-.16-1.7-.73-2.34l-3.74-4.1c-.55-.6-.23-1.58.58-1.73l5.13-.96c.89-.17,1.65-.74,2.05-1.54l2.37-4.71c.19-.38.56-.57.93-.57M15,0C13.21,0,11.6.99,10.8,2.59l-2.2,4.37-4.75.89c-1.68.31-3.05,1.51-3.6,3.13-.54,1.62-.16,3.41.98,4.67l3.5,3.84-.68,5.18c-.18,1.35.23,2.7,1.12,3.72.9,1.02,2.19,1.61,3.54,1.61.74,0,1.49-.18,2.15-.52l4.13-2.13,4.13,2.13c.67.34,1.41.52,2.15.52,1.35,0,2.65-.59,3.54-1.61.89-1.02,1.3-2.37,1.12-3.72l-.68-5.18,3.5-3.84c1.15-1.26,1.53-3.05.98-4.67-.54-1.62-1.92-2.82-3.6-3.13l-4.76-.89-2.2-4.37C18.4.99,16.79,0,15,0h0Z"/>
</svg>