<?xml version="1.0" encoding="UTF-8"?>
<svg id="Layer_1" xmlns="http://www.w3.org/2000/svg" version="1.1" viewBox="0 0 30 30">
  <!-- Generator: Adobe Illustrator 30.1.0, SVG Export Plug-In . SVG Version: 2.1.1 Build 136)  -->
  <path d="M15,2.08c.42,0,.84.22,1.06.65l2.7,5.36c.46.92,1.33,1.57,2.34,1.76l5.85,1.1c.91.17,1.29,1.28.66,1.97l-4.26,4.67c-.66.72-.96,1.7-.84,2.67l.83,6.3c.1.75-.5,1.35-1.18,1.35-.18,0-.36-.04-.54-.13l-5.11-2.63c-.47-.24-.99-.37-1.51-.37-.52,0-1.04.12-1.51.37l-5.11,2.63c-.18.09-.36.13-.54.13-.68,0-1.28-.6-1.18-1.35l.83-6.31c.13-.97-.18-1.94-.83-2.66l-4.26-4.68c-.63-.69-.26-1.8.66-1.97l5.85-1.1c1.01-.19,1.88-.84,2.34-1.76l2.7-5.37c.22-.44.64-.65,1.06-.65M15,0C13.76,0,12.64.69,12.08,1.8l-2.7,5.37c-.17.34-.49.58-.86.65l-5.85,1.1c-1.16.22-2.12,1.05-2.5,2.18-.38,1.12-.11,2.37.68,3.24l4.26,4.68c.24.27.36.63.31.99l-.83,6.31c-.12.94.16,1.88.78,2.58.62.71,1.52,1.12,2.46,1.12.51,0,1.03-.13,1.5-.36l5.11-2.63c.17-.09.36-.14.56-.14.19,0,.39.05.56.14l5.11,2.63c.46.24.98.36,1.5.36.94,0,1.84-.41,2.46-1.12.62-.71.9-1.65.78-2.58l-.83-6.3c-.05-.36.07-.72.31-.99l4.26-4.67c.8-.88,1.06-2.12.68-3.24-.38-1.12-1.33-1.96-2.5-2.17l-5.85-1.1c-.37-.07-.69-.31-.87-.65l-2.7-5.36C17.36.69,16.24,0,15,0h0Z"/>
</svg>