<?xml version="1.0" encoding="UTF-8"?>
<svg id="Layer_1" xmlns="http://www.w3.org/2000/svg" version="1.1" viewBox="0 0 30 30">
  <!-- Generator: Adobe Illustrator 30.1.0, SVG Export Plug-In . SVG Version: 2.1.1 Build 136)  -->
  <path d="M15,2.61c.4,0,.81.21,1.02.63l2.59,5.15c.44.88,1.28,1.51,2.25,1.69l5.61,1.05c.88.16,1.23,1.23.63,1.89l-4.09,4.48c-.63.69-.92,1.63-.8,2.56l.8,6.05c.1.72-.48,1.29-1.13,1.29-.17,0-.35-.04-.52-.13l-4.91-2.53c-.45-.23-.95-.35-1.45-.35s-.99.12-1.45.35l-4.91,2.53c-.17.09-.35.13-.52.13-.65,0-1.22-.57-1.13-1.29l.8-6.05c.12-.93-.17-1.86-.8-2.55l-4.09-4.49c-.6-.66-.25-1.73.63-1.89l5.61-1.05c.97-.18,1.8-.81,2.24-1.69l2.59-5.15c.21-.42.61-.63,1.02-.63M15,0c-1.42,0-2.7.79-3.34,2.06l-2.59,5.15c-.08.16-.23.27-.4.3l-5.61,1.05c-1.33.25-2.43,1.21-2.86,2.49-.43,1.29-.13,2.71.78,3.72l4.09,4.49c.11.12.16.29.14.46l-.8,6.05c-.14,1.07.18,2.15.89,2.96.71.81,1.74,1.28,2.82,1.28.59,0,1.18-.14,1.71-.42l4.91-2.53c.08-.04.17-.06.26-.06s.18.02.26.06l4.91,2.53c.53.27,1.12.42,1.71.42,1.08,0,2.1-.47,2.82-1.28.71-.81,1.03-1.89.89-2.96l-.8-6.05c-.02-.17.03-.34.14-.46l4.09-4.48c.91-1,1.22-2.43.78-3.72-.43-1.29-1.53-2.24-2.86-2.49l-5.61-1.05c-.17-.03-.32-.14-.4-.3l-2.59-5.15c-.64-1.27-1.92-2.06-3.34-2.06h0Z"/>
</svg>