<?xml version="1.0" encoding="UTF-8"?>
<svg id="Layer_1" xmlns="http://www.w3.org/2000/svg" version="1.1" viewBox="0 0 30 30">
  <!-- Generator: Adobe Illustrator 30.1.0, SVG Export Plug-In . SVG Version: 2.1.1 Build 136)  -->
  <path d="M15,5.79c.3,0,.6.16.76.47l1.93,3.82c.33.66.95,1.12,1.67,1.26l4.17.78c.65.12.92.91.47,1.4l-3.04,3.33c-.47.51-.69,1.21-.6,1.9l.59,4.49c.07.54-.36.96-.84.96-.13,0-.26-.03-.39-.1l-3.64-1.88c-.34-.17-.71-.26-1.08-.26s-.74.09-1.08.26l-3.64,1.88c-.13.07-.26.1-.39.1-.48,0-.91-.42-.84-.96l.59-4.49c.09-.69-.13-1.38-.59-1.9l-3.04-3.33c-.45-.49-.18-1.28.47-1.41l4.17-.78c.72-.14,1.34-.6,1.67-1.25l1.93-3.82c.16-.31.46-.47.76-.47M15,0c-2.52,0-4.79,1.4-5.93,3.65l-1.16,2.3-2.49.47c-2.36.44-4.31,2.14-5.07,4.42-.76,2.28-.23,4.81,1.39,6.58l1.96,2.15-.38,2.91c-.25,1.9.33,3.81,1.59,5.25,1.26,1.44,3.08,2.27,4.99,2.27,1.05,0,2.1-.26,3.04-.74l2.07-1.07,2.07,1.07c.94.48,1.99.74,3.04.74,1.91,0,3.73-.83,4.99-2.27,1.26-1.44,1.84-3.35,1.59-5.25l-.38-2.91,1.96-2.15c1.62-1.78,2.15-4.3,1.39-6.58-.76-2.28-2.71-3.97-5.07-4.42l-2.49-.47-1.16-2.3c-1.14-2.25-3.41-3.65-5.93-3.65h0Z"/>
</svg>