<?xml version="1.0" encoding="UTF-8"?>
<svg id="Layer_1" xmlns="http://www.w3.org/2000/svg" version="1.1" viewBox="0 0 9 9">
  <!-- Generator: Adobe Illustrator 30.1.0, SVG Export Plug-In . SVG Version: 2.1.1 Build 136)  -->
  <path d="M4.5.78c.12,0,.24.06.3.19l.78,1.54c.13.26.38.45.67.51l1.68.32c.26.05.37.37.19.57l-1.23,1.35c-.19.21-.28.49-.24.77l.24,1.81c.03.22-.14.39-.34.39-.05,0-.1-.01-.16-.04l-1.47-.76c-.14-.07-.29-.11-.43-.11s-.3.04-.43.11l-1.47.76c-.05.03-.1.04-.16.04-.19,0-.37-.17-.34-.39l.24-1.81c.04-.28-.05-.56-.24-.77l-1.23-1.35c-.18-.2-.07-.52.19-.57l1.68-.32c.29-.05.54-.24.67-.51l.78-1.54c.06-.13.18-.19.3-.19M4.5,0C4.07,0,3.69.24,3.5.62l-.78,1.54s-.07.08-.12.09l-1.68.32c-.4.07-.73.36-.86.75-.13.39-.04.81.24,1.11l1.23,1.35s.05.09.04.14l-.24,1.81c-.04.32.06.64.27.89.21.24.52.38.85.38.18,0,.35-.04.51-.13l1.47-.76s.05-.02.08-.02.05,0,.08.02l1.47.76c.16.08.34.13.51.13.32,0,.63-.14.85-.38.21-.24.31-.57.27-.89l-.24-1.81c0-.05,0-.1.04-.14l1.23-1.35c.27-.3.36-.73.24-1.11-.13-.39-.46-.67-.86-.75l-1.68-.32c-.05,0-.1-.04-.12-.09l-.78-1.54C5.31.24,4.93,0,4.5,0h0Z"/>
</svg>