<?xml version="1.0" encoding="UTF-8"?>
<svg id="Layer_1" xmlns="http://www.w3.org/2000/svg" version="1.1" viewBox="0 0 9 9">
  <!-- Generator: Adobe Illustrator 30.1.0, SVG Export Plug-In . SVG Version: 2.1.1 Build 136)  -->
  <path d="M4.5.62c.13,0,.25.07.32.2l.81,1.61c.14.28.4.47.7.53l1.75.33c.27.05.39.38.2.59l-1.28,1.4c-.2.22-.29.51-.25.8l.25,1.89c.03.23-.15.4-.35.4-.05,0-.11-.01-.16-.04l-1.53-.79c-.14-.07-.3-.11-.45-.11s-.31.04-.45.11l-1.53.79c-.05.03-.11.04-.16.04-.2,0-.38-.18-.35-.4l.25-1.89c.04-.29-.05-.58-.25-.8l-1.28-1.4c-.19-.21-.08-.54.2-.59l1.75-.33c.3-.06.56-.25.7-.53l.81-1.61c.07-.13.19-.2.32-.2M4.5,0C4.13,0,3.79.21,3.62.54l-.81,1.61c-.05.1-.15.17-.26.2l-1.75.33c-.35.07-.64.32-.75.65-.11.34-.03.71.21.97l1.28,1.4c.07.08.11.19.09.3l-.25,1.89c-.04.28.05.56.23.77.19.21.46.34.74.34.15,0,.31-.04.45-.11l1.53-.79c.05-.03.11-.04.17-.04s.12.01.17.04l1.53.79c.14.07.29.11.45.11.28,0,.55-.12.74-.34.19-.21.27-.49.23-.77l-.25-1.89c-.01-.11.02-.22.09-.3l1.28-1.4c.24-.26.32-.64.21-.97-.11-.34-.4-.59-.75-.65l-1.75-.33c-.11-.02-.21-.09-.26-.2l-.81-1.61C5.21.21,4.87,0,4.5,0h0Z"/>
</svg>