<?xml version="1.0" encoding="UTF-8"?>
<svg id="Layer_1" xmlns="http://www.w3.org/2000/svg" version="1.1" viewBox="0 0 60 60">
  <!-- Generator: Adobe Illustrator 30.1.0, SVG Export Plug-In . SVG Version: 2.1.1 Build 136)  -->
  <circle id="Outer" cx="30" cy="30" r="24.21" fill="none" stroke="#000" stroke-width="11.59"/>
  <g>
    <g>
      <rect x="28.07" y="37.48" width="3.82" height="3.82"/>
      <path d="M30.96,38.42v1.95h-1.95v-1.95h1.95M32.83,36.54h-5.7v5.7h5.7v-5.7h0Z"/>
    </g>
    <g>
      <path d="M28.09,33.91v-1.67c0-1.16.42-2.27,1.19-3.13l1.93-2.14c.37-.41.58-.94.58-1.5,0-.63-.52-1.15-1.16-1.15h-1.24c-.64,0-1.16.52-1.16,1.15v.94h-3.84v-.94c0-2.74,2.24-4.98,5-4.98h1.24c2.76,0,5,2.23,5,4.98,0,1.5-.55,2.94-1.56,4.05l-1.93,2.14c-.15.16-.22.35-.22.56l-.02,1.67h-3.8Z"/>
      <path d="M30.62,21.45c2.24,0,4.07,1.81,4.07,4.04,0,1.27-.47,2.48-1.32,3.43l-1.93,2.14c-.3.33-.46.74-.47,1.19v.74h-1.95v-.74c0-.92.34-1.8.96-2.49l1.93-2.14c.53-.58.82-1.34.82-2.12,0-1.15-.94-2.09-2.1-2.09h-1.24c-1.16,0-2.1.94-2.1,2.09h-1.96c0-2.23,1.82-4.04,4.07-4.04h1.24M30.62,19.57h-1.24c-3.28,0-5.94,2.65-5.94,5.91v1.88h5.71v-1.88c0-.11.1-.21.23-.21h1.24c.12,0,.23.1.23.21,0,.32-.12.63-.34.87l-1.93,2.14c-.93,1.03-1.44,2.35-1.45,3.74v.76s.02,1.86.02,1.86h5.66l.02-1.86v-.7s1.92-2.12,1.92-2.12c1.16-1.29,1.8-2.95,1.8-4.68,0-3.26-2.67-5.91-5.94-5.91h0Z"/>
    </g>
  </g>
</svg>