<?xml version="1.0" encoding="UTF-8"?>
<svg id="Layer_1" xmlns="http://www.w3.org/2000/svg" version="1.1" viewBox="0 0 60 60">
  <!-- Generator: Adobe Illustrator 30.1.0, SVG Export Plug-In . SVG Version: 2.1.1 Build 136)  -->
  <circle id="Outer" cx="30" cy="30" r="27.39" fill="none" stroke="#000" stroke-width="5.21"/>
  <g>
    <g>
      <rect x="28.1" y="39.91" width="3.76" height="3.76"/>
      <path d="M31.48,40.28v3.01h-3.01v-3.01h3.01M32.23,39.53h-4.51v4.51h4.51v-4.51h0Z"/>
    </g>
    <g>
      <path d="M28.11,35.76v-1.51c0-1.52.56-2.97,1.57-4.1l2.98-3.3c.75-.83,1.17-1.91,1.17-3.03,0-1.57-1.29-2.85-2.87-2.85h-1.91c-1.58,0-2.87,1.28-2.87,2.85v.38h-3.78v-.38c0-3.64,2.98-6.61,6.65-6.61h1.91c3.67,0,6.65,2.96,6.65,6.61,0,2.05-.76,4.02-2.13,5.54l-2.98,3.3c-.41.45-.62,1-.62,1.58l-.02,1.51h-3.75Z"/>
      <path d="M30.96,17.6c3.46,0,6.28,2.8,6.28,6.23,0,1.96-.72,3.83-2.04,5.29l-2.98,3.3c-.46.51-.72,1.14-.72,1.83v1.14h-3.02v-1.14c0-1.42.52-2.78,1.48-3.84l2.98-3.3c.82-.9,1.26-2.07,1.26-3.28,0-1.78-1.46-3.22-3.24-3.22h-1.91c-1.79,0-3.24,1.45-3.24,3.22h-3.03c0-3.44,2.82-6.23,6.28-6.23h1.91M30.96,16.85h-1.91c-3.87,0-7.03,3.13-7.03,6.98v.75h4.53v-.75c0-1.36,1.12-2.47,2.49-2.47h1.91c1.38,0,2.49,1.11,2.49,2.47,0,1.03-.38,2.01-1.07,2.78l-2.98,3.3c-1.08,1.19-1.68,2.73-1.68,4.34v1.15s.02.74.02.74h4.49v-.74s.02-1.14.02-1.14c0-.5.18-.96.53-1.34l2.98-3.3c1.44-1.59,2.23-3.65,2.23-5.79,0-3.85-3.15-6.98-7.03-6.98h0Z"/>
    </g>
  </g>
</svg>