<?xml version="1.0" encoding="UTF-8"?>
<svg id="Layer_1" xmlns="http://www.w3.org/2000/svg" version="1.1" viewBox="0 0 60 60">
  <!-- Generator: Adobe Illustrator 30.1.0, SVG Export Plug-In . SVG Version: 2.1.1 Build 136)  -->
  <circle id="Outer" cx="30" cy="30" r="27.92" fill="none" stroke="#000" stroke-width="4.16"/>
  <g>
    <g>
      <rect x="28.1" y="40.3" width="3.76" height="3.76"/>
      <path d="M31.58,40.58v3.19h-3.19v-3.19h3.19M32.14,40.02h-4.32v4.32h4.32v-4.32h0Z"/>
    </g>
    <g>
      <path d="M28.11,36.11v-1.49c0-1.58.58-3.1,1.64-4.27l3.16-3.5c.82-.91,1.27-2.08,1.27-3.3,0-1.73-1.42-3.14-3.17-3.14h-2.03c-1.75,0-3.17,1.41-3.17,3.14v.28h-3.79v-.28c0-3.81,3.12-6.9,6.95-6.9h2.03c3.83,0,6.95,3.1,6.95,6.9,0,2.15-.79,4.21-2.24,5.81l-3.17,3.51c-.45.5-.69,1.11-.69,1.76v1.49h-3.77Z"/>
      <path d="M31.02,16.93c3.68,0,6.67,2.97,6.67,6.62,0,2.08-.77,4.07-2.17,5.62l-3.16,3.51c-.49.54-.76,1.22-.76,1.95v1.21h-3.21v-1.21c0-1.51.55-2.96,1.57-4.08l3.16-3.5c.87-.96,1.34-2.2,1.34-3.48,0-1.89-1.55-3.42-3.45-3.42h-2.03c-1.9,0-3.45,1.54-3.45,3.42h-3.22c0-3.65,2.99-6.62,6.67-6.62h2.03M31.02,16.36h-2.03c-3.99,0-7.23,3.22-7.23,7.19v.56h4.35v-.56c0-1.58,1.29-2.86,2.88-2.86h2.03c1.59,0,2.88,1.28,2.88,2.86,0,1.15-.43,2.25-1.2,3.11l-3.16,3.5c-1.11,1.22-1.72,2.81-1.73,4.46v1.22s.02.56.02.56h4.31v-.56s.02-1.21.02-1.21c0-.59.22-1.13.62-1.57l3.16-3.51c1.49-1.65,2.31-3.78,2.31-6,0-3.96-3.24-7.19-7.23-7.19h0Z"/>
    </g>
  </g>
</svg>