<?xml version="1.0" encoding="UTF-8"?>
<svg id="Layer_1" xmlns="http://www.w3.org/2000/svg" version="1.1" viewBox="0 0 60 60">
  <!-- Generator: Adobe Illustrator 30.1.0, SVG Export Plug-In . SVG Version: 2.1.1 Build 136)  -->
  <circle id="Outer" cx="30" cy="30" r="25.27" fill="none" stroke="#000" stroke-width="9.47"/>
  <g>
    <g>
      <rect x="28.09" y="38.29" width="3.78" height="3.78"/>
      <path d="M31.12,39.04v2.28h-2.28v-2.28h2.28M32.62,37.54h-5.28v5.28h5.28v-5.28h0Z"/>
    </g>
    <g>
      <path d="M28.1,34.47v-1.61c0-1.27.46-2.49,1.31-3.43l2.26-2.5c.49-.55.77-1.25.77-1.99,0-.93-.77-1.7-1.71-1.7h-1.45c-.94,0-1.71.76-1.71,1.7v.75h-3.8v-.75c0-3.02,2.47-5.48,5.51-5.48h1.45c3.04,0,5.51,2.46,5.51,5.48,0,1.67-.62,3.27-1.74,4.52l-2.26,2.5c-.23.25-.35.56-.35.89l-.02,1.61h-3.77Z"/>
      <path d="M30.73,20.22c2.63,0,4.76,2.12,4.76,4.73,0,1.48-.55,2.91-1.55,4.01l-2.26,2.5c-.35.39-.54.87-.55,1.39v.86h-2.29v-.86c0-1.08.39-2.11,1.12-2.92l2.26-2.5c.62-.69.96-1.57.96-2.49,0-1.35-1.1-2.45-2.46-2.45h-1.45c-1.36,0-2.46,1.1-2.46,2.45h-2.3c0-2.61,2.14-4.73,4.76-4.73h1.45M30.73,18.72h-1.45c-3.45,0-6.26,2.8-6.26,6.23v1.5h5.3v-1.5c0-.52.43-.95.96-.95h1.45c.53,0,.96.42.96.95,0,.55-.2,1.07-.57,1.48l-2.26,2.5c-.97,1.08-1.51,2.47-1.52,3.92v.88s.02,1.49.02,1.49h5.25l.02-1.48v-.86c0-.15.06-.28.17-.4l2.26-2.51c1.25-1.38,1.93-3.16,1.93-5.02,0-3.44-2.81-6.23-6.26-6.23h0Z"/>
    </g>
  </g>
</svg>