<?xml version="1.0" encoding="UTF-8"?>
<svg id="Layer_1" xmlns="http://www.w3.org/2000/svg" version="1.1" viewBox="0 0 60 60">
  <!-- Generator: Adobe Illustrator 30.1.0, SVG Export Plug-In . SVG Version: 2.1.1 Build 136)  -->
  <circle id="Outer" cx="30" cy="30" r="26.33" fill="none" stroke="#000" stroke-width="7.33"/>
  <g>
    <g>
      <rect x="28.1" y="39.11" width="3.76" height="3.76"/>
      <path d="M31.3,39.67v2.64h-2.64v-2.64h2.64M32.43,38.54h-4.89v4.89h4.89v-4.89h0Z"/>
    </g>
    <g>
      <path d="M28.11,35.1v-1.55c0-1.39.51-2.72,1.44-3.75l2.61-2.89c.62-.69.96-1.58.96-2.5,0-1.25-1.02-2.26-2.28-2.26h-1.68c-1.26,0-2.28,1.02-2.28,2.26v.56h-3.79v-.56c0-3.33,2.72-6.03,6.07-6.03h1.68c3.35,0,6.07,2.71,6.07,6.03,0,1.85-.69,3.64-1.93,5.02l-2.61,2.89c-.32.35-.48.78-.49,1.23l-.02,1.56h-3.75Z"/>
      <path d="M30.84,18.93c3.04,0,5.51,2.45,5.51,5.47,0,1.72-.64,3.36-1.79,4.64l-2.61,2.89c-.4.45-.63,1-.63,1.61v1h-2.65v-1c0-1.25.46-2.44,1.3-3.37l2.61-2.89c.72-.79,1.11-1.81,1.11-2.88,0-1.56-1.28-2.83-2.85-2.83h-1.68c-1.57,0-2.85,1.27-2.85,2.83h-2.66c0-3.01,2.47-5.47,5.51-5.47h1.68M30.84,17.8h-1.68c-3.66,0-6.63,2.96-6.63,6.59v1.12h4.91v-1.12c0-.94.77-1.7,1.72-1.7h1.68c.95,0,1.72.76,1.72,1.7,0,.78-.29,1.54-.82,2.12l-2.61,2.89c-1.02,1.13-1.59,2.6-1.6,4.12v1.01s.02,1.12.02,1.12h4.87v-1.11s.02-1,.02-1c0-.33.12-.61.34-.86l2.61-2.9c1.34-1.48,2.08-3.4,2.08-5.39,0-3.64-2.97-6.59-6.63-6.59h0Z"/>
    </g>
  </g>
</svg>