<?xml version="1.0" encoding="UTF-8"?>
<svg id="Layer_1" xmlns="http://www.w3.org/2000/svg" version="1.1" viewBox="0 0 60 60">
  <!-- Generator: Adobe Illustrator 30.1.0, SVG Export Plug-In . SVG Version: 2.1.1 Build 136)  -->
  <circle id="Outer" cx="30" cy="30" r="23.68" fill="none" stroke="#000" stroke-width="12.64"/>
  <g>
    <g>
      <rect x="28.06" y="37.07" width="3.85" height="3.85"/>
      <path d="M30.88,38.1v1.79h-1.79v-1.79h1.79M32.94,36.04h-5.91v5.91h5.91v-5.91h0Z"/>
    </g>
    <g>
      <path d="M28.07,33.65v-1.7c-.01-1.11.4-2.17,1.14-2.99l1.77-1.96c.31-.35.49-.8.49-1.26,0-.49-.4-.89-.9-.89h-1.14c-.5,0-.9.4-.9.89v1.03h-3.87v-1.03c0-2.61,2.14-4.74,4.77-4.74h1.14c2.63,0,4.77,2.13,4.77,4.74,0,1.42-.53,2.78-1.48,3.84l-1.77,1.96c-.11.12-.16.25-.16.4l-.02,1.7h-3.83Z"/>
      <path d="M30.57,22.03c2.06,0,3.74,1.66,3.74,3.71,0,1.16-.43,2.28-1.21,3.15l-1.77,1.96c-.27.3-.43.68-.43,1.09v.68h-1.8v-.68c0-.85.31-1.66.88-2.29l1.77-1.96c.49-.54.75-1.23.75-1.95,0-1.06-.87-1.92-1.93-1.92h-1.14c-1.06,0-1.93.86-1.93,1.92h-1.8c0-2.04,1.68-3.71,3.74-3.71h1.14M30.57,19.97h-1.14c-3.2,0-5.8,2.59-5.8,5.77v2.06h5.24l-.42.47c-.91,1-1.41,2.31-1.42,3.66v.7s.02,2.04.02,2.04h5.88l.02-2.04v-.52s1.68-1.85,1.68-1.85c1.12-1.25,1.74-2.85,1.74-4.53,0-3.18-2.6-5.77-5.8-5.77h0ZM29.56,25.89h.86c-.03.16-.1.3-.21.42l-.65.72v-1.15h0Z"/>
    </g>
  </g>
</svg>