<?xml version="1.0" encoding="UTF-8"?>
<svg id="Layer_1" xmlns="http://www.w3.org/2000/svg" version="1.1" viewBox="0 0 94 94">
  <!-- Generator: Adobe Illustrator 30.1.0, SVG Export Plug-In . SVG Version: 2.1.1 Build 136)  -->
  <path d="M47,8.17c1.26,0,2.53.65,3.18,1.96l8.12,16.13c1.39,2.77,4,4.73,7.04,5.29l17.58,3.29c2.75.52,3.86,3.86,1.98,5.92l-12.81,14.05c-1.98,2.17-2.89,5.1-2.51,8.01l2.5,18.95c.3,2.26-1.5,4.05-3.54,4.05-.54,0-1.09-.13-1.63-.4l-15.37-7.92c-1.42-.73-2.98-1.1-4.54-1.1-1.56,0-3.12.37-4.54,1.1l-15.37,7.92c-.54.28-1.09.4-1.63.4-2.03,0-3.83-1.79-3.54-4.05l2.5-18.95c.38-2.91-.53-5.84-2.51-8l-12.81-14.05c-1.89-2.07-.77-5.41,1.98-5.93l17.57-3.29c3.04-.57,5.64-2.53,7.03-5.29l8.13-16.13c.66-1.31,1.92-1.96,3.18-1.96M47,0C42.54,0,38.53,2.47,36.52,6.46l-8.13,16.13c-.25.49-.71.84-1.24.94l-17.57,3.29c-4.18.78-7.61,3.78-8.97,7.81-1.35,4.04-.41,8.5,2.46,11.65l12.81,14.05c.35.39.52.91.45,1.43l-2.5,18.95c-.44,3.36.58,6.73,2.8,9.27,2.24,2.55,5.46,4.02,8.83,4.02,1.85,0,3.71-.45,5.37-1.31l15.37-7.92c.25-.13.52-.19.8-.19.28,0,.56.07.8.19l15.37,7.92c1.66.86,3.52,1.31,5.37,1.31,3.38,0,6.59-1.46,8.83-4.02,2.22-2.53,3.24-5.91,2.8-9.27l-2.5-18.95c-.07-.53.09-1.05.45-1.44l12.81-14.05c2.87-3.15,3.81-7.61,2.46-11.64-1.35-4.03-4.79-7.02-8.96-7.81l-17.58-3.29c-.53-.1-1-.45-1.25-.94l-8.12-16.13C55.47,2.47,51.46,0,47,0h0Z"/>
</svg>