<?xml version="1.0" encoding="UTF-8"?>
<svg id="Layer_1" xmlns="http://www.w3.org/2000/svg" version="1.1" viewBox="0 0 94 94">
  <!-- Generator: Adobe Illustrator 30.1.0, SVG Export Plug-In . SVG Version: 2.1.1 Build 136)  -->
  <path d="M47,11.49c1.15,0,2.31.6,2.91,1.8l7.43,14.75c1.27,2.53,3.65,4.32,6.43,4.84l16.07,3.01c2.51.47,3.53,3.53,1.81,5.42l-11.71,12.85c-1.81,1.98-2.65,4.66-2.3,7.33l2.29,17.33c.27,2.07-1.37,3.7-3.23,3.7-.49,0-1-.12-1.49-.37l-14.06-7.24c-1.3-.67-2.73-1.01-4.15-1.01-1.42,0-2.85.34-4.15,1.01l-14.06,7.24c-.49.25-1,.37-1.49.37-1.86,0-3.51-1.64-3.23-3.7l2.29-17.33c.35-2.66-.49-5.34-2.29-7.32l-11.71-12.85c-1.73-1.89-.71-4.95,1.81-5.42l16.07-3.01c2.78-.52,5.16-2.31,6.43-4.84l7.43-14.75c.6-1.2,1.76-1.8,2.91-1.8M47,0C41.4,0,36.35,3.11,33.83,8.11l-6.9,13.69-14.9,2.79c-5.25.98-9.57,4.75-11.27,9.81-1.7,5.07-.52,10.68,3.09,14.63l10.96,12.03-2.14,16.24c-.56,4.22.73,8.46,3.52,11.65,2.81,3.2,6.85,5.04,11.1,5.04,2.33,0,4.66-.57,6.75-1.64l12.95-6.67,12.95,6.67c2.09,1.07,4.42,1.64,6.75,1.64,4.24,0,8.29-1.84,11.1-5.04,2.8-3.19,4.08-7.43,3.52-11.65l-2.14-16.23,10.97-12.03c3.6-3.95,4.78-9.56,3.09-14.63-1.7-5.07-6.02-8.83-11.27-9.81l-14.9-2.79-6.9-13.69C57.65,3.11,52.6,0,47,0h0Z"/>
</svg>