<?xml version="1.0" encoding="UTF-8"?>
<svg id="Layer_1" xmlns="http://www.w3.org/2000/svg" version="1.1" viewBox="0 0 92 92">
  <!-- Generator: Adobe Illustrator 30.1.0, SVG Export Plug-In . SVG Version: 2.1.1 Build 136)  -->
  <path d="M46,11.24c1.13,0,2.26.59,2.85,1.76l7.27,14.43c1.25,2.48,3.58,4.23,6.3,4.74l15.73,2.95c2.46.46,3.46,3.45,1.77,5.3l-11.46,12.58c-1.77,1.94-2.59,4.57-2.25,7.17l2.24,16.96c.27,2.02-1.35,3.63-3.16,3.63-.48,0-.98-.11-1.46-.36l-13.76-7.09c-1.28-.66-2.67-.99-4.06-.99s-2.79.33-4.06.99l-13.76,7.09c-.48.25-.98.36-1.46.36-1.82,0-3.43-1.6-3.16-3.63l2.24-16.96c.34-2.6-.48-5.22-2.24-7.16l-11.46-12.58c-1.69-1.85-.69-4.84,1.77-5.31l15.73-2.95c2.72-.51,5.05-2.26,6.29-4.74l7.27-14.44c.59-1.17,1.72-1.76,2.85-1.76M46,0h0c-5.48,0-10.42,3.04-12.89,7.94l-6.75,13.4-14.58,2.73c-5.14.96-9.37,4.64-11.03,9.61-1.66,4.96-.51,10.45,3.02,14.32l10.73,11.77-2.1,15.89c-.54,4.13.71,8.28,3.45,11.4,2.75,3.14,6.71,4.93,10.86,4.93,2.28,0,4.56-.56,6.61-1.61l12.68-6.53,12.68,6.53c2.04,1.05,4.33,1.61,6.61,1.61,0,0,0,0,0,0,4.15,0,8.11-1.8,10.86-4.93,2.74-3.12,3.99-7.28,3.45-11.4l-2.1-15.89,10.73-11.78c3.53-3.87,4.68-9.35,3.02-14.32-1.66-4.96-5.89-8.64-11.03-9.6l-14.58-2.73-6.75-13.4C56.42,3.04,51.48,0,46,0h0Z"/>
</svg>