<?xml version="1.0" encoding="UTF-8"?>
<svg id="Layer_1" xmlns="http://www.w3.org/2000/svg" version="1.1" viewBox="0 0 92 92">
  <!-- Generator: Adobe Illustrator 30.1.0, SVG Export Plug-In . SVG Version: 2.1.1 Build 136)  -->
  <path d="M46,19.38c.87,0,1.73.45,2.18,1.35l5.57,11.06c.96,1.9,2.74,3.24,4.82,3.63l12.05,2.26c1.88.35,2.65,2.64,1.36,4.06l-8.78,9.63c-1.35,1.49-1.98,3.5-1.72,5.49l1.71,12.99c.2,1.55-1.03,2.78-2.42,2.78-.37,0-.75-.09-1.12-.28l-10.54-5.43c-.98-.5-2.05-.75-3.11-.75s-2.14.25-3.11.75l-10.54,5.43c-.37.19-.75.28-1.12.28-1.39,0-2.63-1.23-2.42-2.78l1.71-12.99c.26-1.99-.37-4-1.72-5.49l-8.78-9.63c-1.29-1.42-.53-3.71,1.36-4.06l12.05-2.26c2.08-.39,3.87-1.73,4.82-3.63l5.57-11.06c.45-.9,1.32-1.35,2.18-1.35M46,0C37.71,0,30.24,4.6,26.51,12.01l-2.77,5.5-5.93,1.11c-7.77,1.46-14.16,7.02-16.67,14.52-2.51,7.5-.76,15.79,4.56,21.64l4.85,5.32-.95,7.21c-.82,6.24,1.08,12.52,5.22,17.24,4.15,4.73,10.13,7.45,16.42,7.45,3.45,0,6.91-.84,9.99-2.43l4.78-2.46,4.78,2.46c3.08,1.59,6.54,2.43,9.99,2.43,6.28,0,12.27-2.71,16.42-7.45,4.14-4.72,6.04-11.01,5.22-17.24l-.95-7.21,4.85-5.32c5.33-5.85,7.08-14.14,4.56-21.64-2.51-7.5-8.9-13.06-16.67-14.52l-5.93-1.11-2.77-5.5C61.76,4.6,54.29,0,46,0h0Z"/>
</svg>