<?xml version="1.0" encoding="UTF-8"?>
<svg id="Layer_1" xmlns="http://www.w3.org/2000/svg" version="1.1" viewBox="0 0 92 92">
  <!-- Generator: Adobe Illustrator 30.1.0, SVG Export Plug-In . SVG Version: 2.1.1 Build 136)  -->
  <path d="M46,14.52c1.02,0,2.05.53,2.58,1.59l6.59,13.07c1.13,2.24,3.24,3.83,5.7,4.29l14.25,2.67c2.23.42,3.13,3.13,1.6,4.8l-10.38,11.39c-1.6,1.76-2.35,4.13-2.04,6.49l2.03,15.36c.24,1.83-1.22,3.28-2.87,3.28-.44,0-.89-.1-1.32-.33l-12.46-6.42c-1.16-.6-2.42-.89-3.68-.89s-2.53.3-3.68.89l-12.46,6.42c-.43.22-.88.33-1.32.33-1.65,0-3.11-1.45-2.87-3.28l2.03-15.36c.31-2.36-.43-4.73-2.03-6.49l-10.38-11.39c-1.53-1.68-.63-4.39,1.6-4.81l14.25-2.67c2.46-.46,4.57-2.05,5.7-4.29l6.59-13.08c.53-1.06,1.56-1.59,2.58-1.59M46,0C39.39,0,33.43,3.67,30.45,9.58l-5.15,10.22-11.1,2.08c-6.2,1.16-11.3,5.6-13.3,11.59-2.01,5.99-.61,12.6,3.64,17.27l8.36,9.17-1.63,12.39c-.66,4.98.86,9.99,4.16,13.75,3.31,3.78,8.09,5.95,13.1,5.95,2.75,0,5.51-.67,7.97-1.94l9.5-4.89,9.5,4.89c2.46,1.27,5.22,1.94,7.97,1.94,5.01,0,9.79-2.17,13.1-5.95,3.3-3.77,4.82-8.78,4.16-13.75l-1.63-12.39,8.36-9.18c4.25-4.67,5.65-11.28,3.64-17.27-2-5.98-7.1-10.42-13.3-11.58l-11.1-2.08-5.15-10.22C58.57,3.67,52.61,0,46,0h0Z"/>
</svg>