<?xml version="1.0" encoding="UTF-8"?>
<svg id="Layer_1" xmlns="http://www.w3.org/2000/svg" version="1.1" viewBox="0 0 92 92">
  <!-- Generator: Adobe Illustrator 30.1.0, SVG Export Plug-In . SVG Version: 2.1.1 Build 136)  -->
  <g>
    <g>
      <rect x="42.61" y="27.39" width="6.79" height="6.79"/>
      <path d="M47.96,28.83v3.91h-3.91v-3.91h3.91M50.83,25.95h-9.66v9.66h9.66v-9.66h0Z"/>
    </g>
    <g>
      <polygon points="38.69 63.72 38.69 56.93 42.61 56.93 42.61 47.58 38.69 47.58 38.69 40.8 49.39 40.8 49.39 56.93 53.31 56.93 53.31 63.72 38.69 63.72"/>
      <path d="M47.96,42.23v16.13h3.91v3.91h-11.74v-3.91h3.91v-12.22h-3.91v-3.91h7.83M50.83,39.36h-13.58v9.66h3.91v6.47h-3.91v9.66h17.49v-9.66h-3.91v-16.13h0Z"/>
    </g>
  </g>
  <circle id="Outer" cx="46" cy="46" r="37.12" fill="none" stroke="#000" stroke-width="17.77"/>
</svg>