<?xml version="1.0" encoding="UTF-8"?>
<svg id="Layer_1" xmlns="http://www.w3.org/2000/svg" version="1.1" viewBox="0 0 92 92">
  <!-- Generator: Adobe Illustrator 30.1.0, SVG Export Plug-In . SVG Version: 2.1.1 Build 136)  -->
  <g>
    <g>
      <rect x="42.78" y="23.29" width="6.43" height="6.43"/>
      <path d="M48.78,23.72v5.57h-5.57v-5.57h5.57M49.65,22.86h-7.29v7.29h7.29v-7.29h0Z"/>
    </g>
    <g>
      <polygon points="37.22 68.71 37.22 62.27 42.78 62.27 42.78 45.75 37.22 45.75 37.22 39.32 49.22 39.32 49.22 62.27 54.79 62.27 54.79 68.71 37.22 68.71"/>
      <path d="M48.78,39.75v22.95h5.57v5.57h-16.71v-5.57h5.57v-17.39h-5.57v-5.57h11.14M49.65,38.89h-12.86v7.29h5.57v15.66h-5.57v7.29h18.43v-7.29h-5.57v-22.95h0Z"/>
    </g>
  </g>
  <circle id="Outer" cx="46" cy="46" r="42.81" fill="none" stroke="#000" stroke-width="6.38"/>
</svg>