<?xml version="1.0" encoding="UTF-8"?>
<svg id="Layer_1" xmlns="http://www.w3.org/2000/svg" version="1.1" viewBox="0 0 92 92">
  <!-- Generator: Adobe Illustrator 30.1.0, SVG Export Plug-In . SVG Version: 2.1.1 Build 136)  -->
  <g>
    <g>
      <rect x="42.71" y="25.05" width="6.57" height="6.57"/>
      <path d="M48.43,25.91v4.85h-4.85v-4.85h4.85M50.15,24.18h-8.3v8.3h8.3v-8.3h0Z"/>
    </g>
    <g>
      <polygon points="37.86 66.55 37.86 59.97 42.71 59.97 42.71 46.55 37.86 46.55 37.86 39.98 49.29 39.98 49.29 59.97 54.14 59.97 54.14 66.55 37.86 66.55"/>
      <path d="M48.43,40.84v19.99h4.85v4.85h-14.55v-4.85h4.85v-15.14h-4.85v-4.85h9.7M50.15,39.12h-13.15v8.3h4.85v11.69h-4.85v8.3h18v-8.3h-4.85v-19.99h0Z"/>
    </g>
  </g>
  <circle id="Outer" cx="46" cy="46" r="40.38" fill="none" stroke="#000" stroke-width="11.24"/>
</svg>