<?xml version="1.0" encoding="UTF-8"?>
<svg id="Layer_1" xmlns="http://www.w3.org/2000/svg" version="1.1" viewBox="0 0 92 92">
  <!-- Generator: Adobe Illustrator 30.1.0, SVG Export Plug-In . SVG Version: 2.1.1 Build 136)  -->
  <g>
    <g>
      <rect x="42.57" y="27.96" width="6.85" height="6.85"/>
      <path d="M47.84,29.55v3.69h-3.69v-3.69h3.69M51.01,26.38h-10.01v10.01h10.01v-10.01h0Z"/>
    </g>
    <g>
      <polygon points="38.89 63.03 38.89 56.18 42.57 56.18 42.57 47.83 38.89 47.83 38.89 40.98 49.43 40.98 49.43 56.18 53.11 56.18 53.11 63.03 38.89 63.03"/>
      <path d="M47.84,42.56v15.2h3.69v3.69h-11.07v-3.69h3.69v-11.52h-3.69v-3.69h7.38M51.01,39.4h-13.7v10.01h3.69v5.19h-3.69v10.01h17.39v-10.01h-3.69v-15.2h0Z"/>
    </g>
  </g>
  <circle id="Outer" cx="46" cy="46" r="36.31" fill="none" stroke="#000" stroke-width="19.38"/>
</svg>