<?xml version="1.0" encoding="UTF-8"?>
<svg id="Layer_1" xmlns="http://www.w3.org/2000/svg" version="1.1" viewBox="0 0 107 107">
  <!-- Generator: Adobe Illustrator 30.1.0, SVG Export Plug-In . SVG Version: 2.1.1 Build 136)  -->
  <g>
    <g>
      <rect x="49.62" y="30.5" width="7.76" height="7.76"/>
      <path d="M56.04,31.84v5.09h-5.09v-5.09h5.09M58.72,29.17h-10.44v10.44h10.44v-10.44h0Z"/>
    </g>
    <g>
      <polygon points="44.53 75.73 44.53 67.96 49.62 67.96 49.62 54.75 44.53 54.75 44.53 46.99 57.38 46.99 57.38 67.96 62.47 67.96 62.47 75.73 44.53 75.73"/>
      <path d="M56.04,48.33v20.97h5.09v5.09h-15.27v-5.09h5.09v-15.89h-5.09v-5.09h10.18M58.72,45.65h-15.53v10.44h5.09v10.54h-5.09v10.44h20.62v-10.44h-5.09v-20.97h0Z"/>
    </g>
  </g>
  <circle id="Outer" cx="53.5" cy="53.5" r="45.06" fill="none" stroke="#000" stroke-width="16.89"/>
</svg>