<?xml version="1.0" encoding="UTF-8"?>
<svg id="Layer_1" xmlns="http://www.w3.org/2000/svg" version="1.1" viewBox="0 0 107 107">
  <!-- Generator: Adobe Illustrator 30.1.0, SVG Export Plug-In . SVG Version: 2.1.1 Build 136)  -->
  <g>
    <g>
      <rect x="49.73" y="27.77" width="7.54" height="7.54"/>
      <path d="M56.6,28.44v6.2h-6.2v-6.2h6.2M57.94,27.1h-8.87v8.87h8.87v-8.87h0Z"/>
    </g>
    <g>
      <polygon points="43.53 79.07 43.53 71.54 49.73 71.54 49.73 53.53 43.53 53.53 43.53 45.99 57.27 45.99 57.27 71.54 63.47 71.54 63.47 79.07 43.53 79.07"/>
      <path d="M56.6,46.66v25.55h6.2v6.2h-18.59v-6.2h6.2v-19.35h-6.2v-6.2h12.4M57.94,45.32h-15.07v8.87h6.2v16.67h-6.2v8.87h21.27v-8.87h-6.2v-25.55h0Z"/>
    </g>
  </g>
  <circle id="Outer" cx="53.5" cy="53.5" r="48.85" fill="none" stroke="#000" stroke-width="9.3"/>
</svg>