<?xml version="1.0" encoding="UTF-8"?>
<svg id="Layer_1" xmlns="http://www.w3.org/2000/svg" version="1.1" viewBox="0 0 101 101">
  <!-- Generator: Adobe Illustrator 30.1.0, SVG Export Plug-In . SVG Version: 2.1.1 Build 136)  -->
  <path d="M50.5,19.51c1.01,0,2.02.52,2.54,1.57l6.48,12.87c1.11,2.21,3.19,3.77,5.62,4.23l14.03,2.63c2.19.41,3.08,3.08,1.58,4.73l-10.22,11.22c-1.58,1.73-2.31,4.07-2,6.39l1.99,15.12c.24,1.8-1.2,3.23-2.82,3.23-.43,0-.87-.1-1.3-.32l-12.27-6.32c-1.14-.59-2.38-.88-3.62-.88-1.24,0-2.49.29-3.62.88l-12.27,6.32c-.43.22-.87.32-1.3.32-1.62,0-3.06-1.43-2.82-3.23l2-15.13c.31-2.32-.43-4.66-2-6.39l-10.22-11.22c-1.51-1.65-.62-4.32,1.58-4.73l14.03-2.63c2.43-.45,4.5-2.02,5.61-4.22l6.49-12.87c.53-1.05,1.53-1.57,2.54-1.57M50.5,0C42.01,0,34.36,4.71,30.54,12.3l-3.91,7.76-8.39,1.57c-7.96,1.49-14.5,7.19-17.08,14.87-2.57,7.68-.78,16.18,4.68,22.17l6.6,7.24-1.29,9.8c-.84,6.39,1.11,12.82,5.35,17.66,4.25,4.85,10.38,7.63,16.81,7.63,3.54,0,7.07-.86,10.23-2.49l6.96-3.59,6.96,3.59c3.16,1.63,6.7,2.49,10.23,2.49,6.43,0,12.56-2.78,16.81-7.63,4.24-4.84,6.19-11.27,5.35-17.66l-1.29-9.8,6.6-7.24c5.46-5.99,7.25-14.48,4.67-22.17-2.57-7.68-9.12-13.38-17.08-14.87l-8.39-1.57-3.91-7.76C66.64,4.71,58.99,0,50.5,0h0Z"/>
</svg>