<?xml version="1.0" encoding="UTF-8"?>
<svg id="Layer_1" xmlns="http://www.w3.org/2000/svg" version="1.1" viewBox="0 0 101 101">
  <!-- Generator: Adobe Illustrator 30.1.0, SVG Export Plug-In . SVG Version: 2.1.1 Build 136)  -->
  <path d="M50.5,7.01c1.41,0,2.83.73,3.57,2.2l9.1,18.06c1.56,3.1,4.47,5.29,7.88,5.93l19.68,3.69c3.08.58,4.33,4.32,2.21,6.63l-14.34,15.74c-2.21,2.43-3.24,5.71-2.81,8.97l2.8,21.22c.33,2.53-1.68,4.54-3.96,4.54-.6,0-1.23-.14-1.83-.45l-17.22-8.87c-1.6-.82-3.34-1.23-5.09-1.23-1.75,0-3.49.41-5.09,1.23l-17.22,8.87c-.6.31-1.22.45-1.83.45-2.28,0-4.29-2-3.96-4.54l2.8-21.23c.43-3.26-.6-6.54-2.81-8.96l-14.34-15.74c-2.11-2.32-.86-6.06,2.22-6.64l19.68-3.69c3.4-.64,6.31-2.83,7.88-5.93l9.1-18.06c.74-1.47,2.15-2.2,3.57-2.2M50.5,0h0c-4.18,0-7.94,2.32-9.82,6.05l-9.1,18.06c-.57,1.14-1.66,1.96-2.91,2.19l-19.68,3.69c-3.92.73-7.14,3.54-8.41,7.32-1.27,3.79-.39,7.97,2.3,10.92l14.34,15.74c.82.9,1.2,2.11,1.04,3.33l-2.8,21.23c-.42,3.15.54,6.32,2.62,8.69,2.1,2.39,5.12,3.77,8.28,3.77,1.73,0,3.47-.42,5.03-1.23l17.22-8.87c.58-.3,1.23-.46,1.88-.46.65,0,1.3.16,1.88.46l17.22,8.87c1.56.8,3.3,1.23,5.03,1.23,3.16,0,6.18-1.37,8.28-3.77,2.08-2.38,3.04-5.54,2.62-8.69l-2.8-21.22c-.16-1.22.22-2.43,1.04-3.34l14.34-15.74c2.69-2.95,3.57-7.13,2.3-10.92-1.27-3.78-4.49-6.59-8.4-7.32l-19.68-3.69c-1.25-.23-2.34-1.06-2.91-2.2l-9.1-18.06C58.44,2.32,54.68,0,50.5,0h0Z"/>
</svg>