<?xml version="1.0" encoding="UTF-8"?>
<svg id="Layer_1" xmlns="http://www.w3.org/2000/svg" version="1.1" viewBox="0 0 22 22">
  <!-- Generator: Adobe Illustrator 30.1.0, SVG Export Plug-In . SVG Version: 2.1.1 Build 136)  -->
  <path d="M11,3.47c.24,0,.49.13.62.38l1.57,3.13c.27.54.77.92,1.36,1.03l3.41.64c.53.1.75.75.38,1.15l-2.48,2.72c-.38.42-.56.99-.49,1.55l.48,3.67c.06.44-.29.79-.69.79-.1,0-.21-.02-.32-.08l-2.98-1.53c-.28-.14-.58-.21-.88-.21-.3,0-.6.07-.88.21l-2.98,1.53c-.1.05-.21.08-.32.08-.39,0-.74-.35-.69-.79l.48-3.67c.07-.56-.1-1.13-.49-1.55l-2.48-2.72c-.37-.4-.15-1.05.38-1.15l3.41-.64c.59-.11,1.09-.49,1.36-1.03l1.58-3.13c.13-.25.37-.38.62-.38M11,0C9.42,0,7.99.88,7.28,2.29l-1.23,2.44-2.65.5c-1.48.28-2.7,1.34-3.18,2.77-.48,1.43-.15,3.01.87,4.13l2,2.19-.39,2.96c-.16,1.19.21,2.39,1,3.29.79.9,1.93,1.42,3.13,1.42.66,0,1.32-.16,1.91-.46l2.27-1.17,2.27,1.17c.59.3,1.25.46,1.91.46,1.2,0,2.34-.52,3.13-1.42.79-.9,1.15-2.1,1-3.29l-.39-2.96,2-2.19c1.02-1.12,1.35-2.7.87-4.13-.48-1.43-1.7-2.49-3.18-2.77l-2.65-.5-1.23-2.44C14.01.88,12.58,0,11,0h0Z"/>
</svg>