<?xml version="1.0" encoding="UTF-8"?>
<svg id="Layer_1" xmlns="http://www.w3.org/2000/svg" version="1.1" viewBox="0 0 22 22">
  <!-- Generator: Adobe Illustrator 30.1.0, SVG Export Plug-In . SVG Version: 2.1.1 Build 136)  -->
  <path d="M11,4.63c.21,0,.41.11.52.32l1.33,2.64c.23.45.65.77,1.15.87l2.88.54c.45.08.63.63.32.97l-2.1,2.3c-.32.36-.47.84-.41,1.31l.41,3.11c.05.37-.25.66-.58.66-.09,0-.18-.02-.27-.07l-2.52-1.3c-.23-.12-.49-.18-.74-.18s-.51.06-.74.18l-2.52,1.3c-.09.05-.18.07-.27.07-.33,0-.63-.29-.58-.66l.41-3.11c.06-.48-.09-.96-.41-1.31l-2.1-2.3c-.31-.34-.13-.89.32-.97l2.88-.54c.5-.09.92-.41,1.15-.87l1.33-2.64c.11-.21.32-.32.52-.32M11,0c-1.98,0-3.77,1.1-4.66,2.87l-.66,1.32-1.42.27c-1.86.35-3.39,1.68-3.99,3.47-.6,1.79-.18,3.78,1.09,5.18l1.16,1.27-.23,1.72c-.2,1.49.26,2.99,1.25,4.12.99,1.13,2.42,1.78,3.93,1.78.83,0,1.65-.2,2.39-.58l1.14-.59,1.14.59c.74.38,1.56.58,2.39.58,1.5,0,2.93-.65,3.93-1.78.99-1.13,1.44-2.63,1.25-4.12l-.23-1.72,1.16-1.27c1.27-1.4,1.69-3.38,1.09-5.17-.6-1.79-2.13-3.12-3.99-3.47l-1.42-.27-.66-1.32c-.89-1.77-2.68-2.87-4.66-2.87h0Z"/>
</svg>