<?xml version="1.0" encoding="UTF-8"?>
<svg id="Layer_1" xmlns="http://www.w3.org/2000/svg" version="1.1" viewBox="0 0 22 22">
  <!-- Generator: Adobe Illustrator 30.1.0, SVG Export Plug-In . SVG Version: 2.1.1 Build 136)  -->
  <path d="M11,1.91c.3,0,.59.15.75.46l1.9,3.77c.33.65.94,1.11,1.65,1.24l4.11.77c.64.12.9.9.46,1.39l-3,3.29c-.46.51-.68,1.19-.59,1.88l.58,4.43c.07.53-.35.95-.83.95-.13,0-.26-.03-.38-.09l-3.6-1.85c-.33-.17-.7-.26-1.06-.26s-.73.09-1.06.26l-3.6,1.85c-.13.06-.26.09-.38.09-.48,0-.9-.42-.83-.95l.59-4.44c.09-.68-.13-1.37-.59-1.87l-3-3.29c-.44-.48-.18-1.27.46-1.39l4.11-.77c.71-.13,1.32-.59,1.65-1.24l1.9-3.77c.15-.31.45-.46.75-.46M11,0C9.96,0,9.02.58,8.55,1.51l-1.9,3.77c-.06.11-.17.2-.29.22l-4.11.77c-.98.18-1.78.88-2.1,1.83-.32.94-.1,1.99.57,2.73l3,3.29c.08.09.12.21.1.34l-.59,4.44c-.1.79.14,1.58.66,2.17.52.6,1.28.94,2.07.94.43,0,.87-.11,1.26-.31l3.6-1.85c.06-.03.12-.05.19-.05s.13.02.19.05l3.6,1.85c.39.2.82.31,1.26.31.79,0,1.54-.34,2.07-.94.52-.59.76-1.38.66-2.17l-.58-4.43c-.02-.12.02-.25.11-.34l3-3.29c.67-.74.89-1.78.57-2.72-.32-.94-1.12-1.64-2.1-1.83l-4.11-.77c-.12-.02-.23-.11-.29-.22l-1.9-3.77C12.98.58,12.04,0,11,0h0Z"/>
</svg>