<?xml version="1.0" encoding="UTF-8"?>
<svg id="Layer_1" xmlns="http://www.w3.org/2000/svg" version="1.1" viewBox="0 0 63 63">
  <!-- Generator: Adobe Illustrator 30.1.0, SVG Export Plug-In . SVG Version: 2.1.1 Build 136)  -->
  <path d="M31.5,7.7c.77,0,1.55.4,1.95,1.2l4.98,9.88c.85,1.7,2.45,2.9,4.31,3.25l10.77,2.02c1.68.32,2.37,2.36,1.21,3.63l-7.85,8.61c-1.21,1.33-1.77,3.13-1.54,4.91l1.53,11.61c.18,1.39-.92,2.48-2.17,2.48-.33,0-.67-.08-1-.25l-9.42-4.85c-.87-.45-1.83-.67-2.78-.67-.96,0-1.91.22-2.78.67l-9.42,4.85c-.33.17-.67.25-1,.25-1.25,0-2.35-1.1-2.17-2.48l1.53-11.62c.24-1.78-.33-3.58-1.54-4.9l-7.85-8.61c-1.16-1.27-.47-3.32,1.21-3.63l10.77-2.02c1.86-.35,3.46-1.55,4.31-3.24l4.98-9.89c.4-.8,1.18-1.2,1.95-1.2M31.5,0C27.74,0,24.36,2.08,22.67,5.44l-4.62,9.17-9.98,1.87c-3.52.66-6.41,3.18-7.55,6.58-1.14,3.4-.35,7.16,2.07,9.81l7.35,8.06-1.44,10.88c-.37,2.83.49,5.67,2.36,7.81,1.88,2.15,4.59,3.38,7.44,3.38,1.56,0,3.13-.38,4.52-1.1l8.68-4.47,8.68,4.47c1.4.72,2.96,1.1,4.52,1.1,2.84,0,5.55-1.23,7.44-3.38,1.87-2.14,2.73-4.98,2.36-7.81l-1.44-10.88,7.35-8.06c2.41-2.65,3.21-6.41,2.07-9.81-1.14-3.4-4.03-5.92-7.55-6.58l-9.99-1.87-4.62-9.17C38.64,2.08,35.25,0,31.5,0h0Z"/>
</svg>