<?xml version="1.0" encoding="UTF-8"?>
<svg id="Layer_1" xmlns="http://www.w3.org/2000/svg" version="1.1" viewBox="0 0 63 63">
  <!-- Generator: Adobe Illustrator 30.1.0, SVG Export Plug-In . SVG Version: 2.1.1 Build 136)  -->
  <path d="M31.5,9.94c.7,0,1.4.36,1.77,1.09l4.51,8.95c.77,1.54,2.22,2.62,3.91,2.94l9.76,1.83c1.53.29,2.14,2.14,1.1,3.29l-7.11,7.8c-1.1,1.2-1.61,2.83-1.39,4.45l1.39,10.52c.17,1.25-.83,2.25-1.96,2.25-.3,0-.61-.07-.91-.22l-8.53-4.4c-.79-.41-1.66-.61-2.52-.61s-1.73.2-2.52.61l-8.53,4.4c-.3.15-.61.22-.91.22-1.13,0-2.13-.99-1.96-2.25l1.39-10.52c.21-1.61-.3-3.24-1.39-4.44l-7.11-7.8c-1.05-1.15-.43-3,1.1-3.29l9.76-1.83c1.69-.32,3.13-1.4,3.9-2.94l4.51-8.95c.37-.73,1.07-1.09,1.77-1.09M31.5,0c-4.53,0-8.61,2.51-10.65,6.56l-3.53,7-7.6,1.42c-4.25.8-7.74,3.84-9.11,7.93-1.37,4.1-.42,8.63,2.49,11.83l5.72,6.28-1.12,8.49c-.45,3.41.59,6.84,2.85,9.42,2.27,2.59,5.54,4.07,8.97,4.07,1.89,0,3.77-.46,5.46-1.33l6.5-3.35,6.5,3.35c1.68.87,3.57,1.33,5.46,1.33,3.43,0,6.7-1.48,8.97-4.07,2.26-2.58,3.3-6.01,2.85-9.42l-1.12-8.49,5.73-6.28c2.91-3.19,3.87-7.73,2.49-11.82-1.37-4.1-4.86-7.14-9.11-7.93l-7.6-1.42-3.53-7c-2.04-4.05-6.12-6.56-10.65-6.56h0Z"/>
</svg>