<?xml version="1.0" encoding="UTF-8"?>
<svg id="Layer_1" xmlns="http://www.w3.org/2000/svg" version="1.1" viewBox="0 0 63 63">
  <!-- Generator: Adobe Illustrator 30.1.0, SVG Export Plug-In . SVG Version: 2.1.1 Build 136)  -->
  <path d="M31.5,13.27c.59,0,1.19.31,1.5.92l3.81,7.57c.65,1.3,1.88,2.22,3.3,2.49l8.25,1.55c1.29.24,1.81,1.81.93,2.78l-6.01,6.6c-.93,1.02-1.36,2.39-1.18,3.76l1.17,8.89c.14,1.06-.71,1.9-1.66,1.9-.25,0-.51-.06-.77-.19l-7.22-3.72c-.67-.34-1.4-.52-2.13-.52-.73,0-1.46.17-2.13.52l-7.22,3.72c-.25.13-.51.19-.77.19-.95,0-1.8-.84-1.66-1.9l1.17-8.9c.18-1.36-.25-2.74-1.18-3.76l-6.01-6.6c-.89-.97-.36-2.54.93-2.78l8.25-1.55c1.43-.27,2.65-1.19,3.3-2.48l3.81-7.57c.31-.61.9-.92,1.5-.92M31.5,0C25.82,0,20.71,3.15,18.15,8.22l-1.9,3.77-4.06.76c-5.32,1-9.7,4.81-11.42,9.94-1.72,5.14-.52,10.82,3.13,14.82l3.32,3.64-.65,4.94c-.56,4.27.74,8.57,3.57,11.81,2.84,3.24,6.94,5.1,11.24,5.1,2.37,0,4.73-.57,6.84-1.66l3.27-1.69,3.27,1.69c2.11,1.09,4.48,1.66,6.84,1.66,4.3,0,8.4-1.86,11.24-5.1,2.83-3.23,4.14-7.54,3.57-11.81l-.65-4.94,3.32-3.64c3.65-4,4.85-9.68,3.13-14.82-1.72-5.14-6.09-8.95-11.42-9.94l-4.06-.76-1.9-3.77C42.29,3.15,37.18,0,31.5,0h0Z"/>
</svg>