<?xml version="1.0" encoding="UTF-8"?>
<svg id="Layer_1" xmlns="http://www.w3.org/2000/svg" version="1.1" viewBox="0 0 63 63">
  <!-- Generator: Adobe Illustrator 30.1.0, SVG Export Plug-In . SVG Version: 2.1.1 Build 136)  -->
  <path d="M31.5,12.17c.63,0,1.26.33,1.59.98l4.04,8.03c.69,1.38,1.99,2.35,3.5,2.64l8.75,1.64c1.37.26,1.92,1.92.98,2.95l-6.38,7c-.98,1.08-1.44,2.54-1.25,3.99l1.24,9.43c.15,1.13-.75,2.02-1.76,2.02-.27,0-.54-.06-.81-.2l-7.65-3.94c-.71-.37-1.49-.55-2.26-.55-.78,0-1.55.18-2.26.55l-7.65,3.94c-.27.14-.54.2-.81.2-1.01,0-1.91-.89-1.76-2.02l1.24-9.44c.19-1.45-.27-2.91-1.25-3.98l-6.38-7c-.94-1.03-.38-2.69.99-2.95l8.75-1.64c1.51-.28,2.81-1.26,3.5-2.63l4.05-8.03c.33-.65.96-.98,1.59-.98M31.5,0C26.2,0,21.43,2.94,19.05,7.67l-2.44,4.84-5.23.98c-4.97.93-9.05,4.49-10.65,9.28-1.61,4.79-.49,10.09,2.92,13.83l4.12,4.52-.81,6.11c-.53,3.98.69,8,3.33,11.01,2.65,3.02,6.47,4.76,10.49,4.76,2.21,0,4.41-.54,6.38-1.55l4.34-2.24,4.34,2.24c1.97,1.01,4.18,1.55,6.38,1.55,4.01,0,7.84-1.73,10.49-4.76,2.64-3.02,3.86-7.03,3.33-11.01l-.81-6.11,4.12-4.52c3.4-3.74,4.52-9.03,2.92-13.83-1.61-4.79-5.69-8.35-10.65-9.28l-5.24-.98-2.44-4.84C41.57,2.94,36.8,0,31.5,0h0Z"/>
</svg>