<?xml version="1.0" encoding="UTF-8"?>
<svg id="Layer_1" xmlns="http://www.w3.org/2000/svg" version="1.1" viewBox="0 0 88 88">
  <!-- Generator: Adobe Illustrator 30.1.0, SVG Export Plug-In . SVG Version: 2.1.1 Build 136)  -->
  <path d="M44,18.53c.83,0,1.66.43,2.09,1.29l5.33,10.58c.91,1.81,2.62,3.1,4.61,3.47l11.53,2.16c1.8.34,2.53,2.53,1.3,3.88l-8.4,9.21c-1.3,1.42-1.9,3.34-1.65,5.25l1.64,12.42c.2,1.48-.99,2.66-2.32,2.66-.35,0-.72-.08-1.07-.26l-10.08-5.19c-.93-.48-1.96-.72-2.98-.72-1.02,0-2.04.24-2.98.72l-10.08,5.19c-.35.18-.72.26-1.07.26-1.33,0-2.51-1.17-2.32-2.66l1.64-12.43c.25-1.91-.35-3.83-1.64-5.25l-8.4-9.22c-1.24-1.36-.51-3.55,1.3-3.89l11.52-2.16c1.99-.37,3.7-1.66,4.61-3.47l5.33-10.58c.43-.86,1.26-1.29,2.09-1.29M44,0C36.07,0,28.93,4.4,25.36,11.48l-2.65,5.27-5.67,1.06c-7.43,1.39-13.55,6.72-15.95,13.89-2.4,7.18-.73,15.11,4.37,20.7l4.64,5.09-.91,6.9c-.79,5.96,1.03,11.97,4.99,16.49,3.97,4.53,9.69,7.12,15.7,7.12,3.3,0,6.61-.8,9.56-2.32l4.57-2.35,4.57,2.35c2.95,1.52,6.25,2.32,9.56,2.32,6.01,0,11.73-2.6,15.7-7.12,3.96-4.52,5.78-10.53,4.99-16.49l-.91-6.9,4.64-5.09c5.1-5.59,6.77-13.52,4.37-20.7-2.4-7.17-8.51-12.49-15.95-13.89l-5.68-1.06-2.65-5.27C59.07,4.4,51.93,0,44,0h0Z"/>
</svg>