<?xml version="1.0" encoding="UTF-8"?>
<svg id="Layer_1" xmlns="http://www.w3.org/2000/svg" version="1.1" viewBox="0 0 88 88">
  <!-- Generator: Adobe Illustrator 30.1.0, SVG Export Plug-In . SVG Version: 2.1.1 Build 136)  -->
  <path d="M44,13.89c.98,0,1.96.51,2.47,1.52l6.3,12.51c1.08,2.15,3.1,3.66,5.46,4.11l13.63,2.55c2.13.4,3,2.99,1.53,4.59l-9.93,10.9c-1.53,1.68-2.24,3.96-1.95,6.21l1.94,14.69c.23,1.75-1.17,3.14-2.74,3.14-.42,0-.85-.1-1.26-.31l-11.92-6.14c-1.1-.57-2.31-.85-3.52-.85-1.21,0-2.42.28-3.52.85l-11.92,6.14c-.42.21-.85.31-1.26.31-1.58,0-2.97-1.39-2.74-3.14l1.94-14.7c.3-2.25-.41-4.53-1.94-6.2l-9.93-10.9c-1.46-1.61-.6-4.2,1.53-4.6l13.63-2.55c2.36-.44,4.37-1.96,5.45-4.1l6.3-12.51c.51-1.02,1.49-1.52,2.47-1.52M44,0C37.67,0,31.97,3.51,29.13,9.16l-4.92,9.77-10.61,1.99c-5.93,1.11-10.81,5.36-12.72,11.08-1.92,5.73-.58,12.06,3.48,16.52l8,8.78-1.56,11.85c-.63,4.76.82,9.56,3.98,13.16,3.17,3.61,7.74,5.69,12.53,5.69,2.63,0,5.27-.64,7.62-1.85l9.08-4.68,9.08,4.68c2.35,1.21,4.99,1.85,7.62,1.85,4.79,0,9.36-2.07,12.53-5.69,3.16-3.6,4.61-8.4,3.98-13.16l-1.56-11.85,8-8.78c4.07-4.46,5.4-10.79,3.48-16.52-1.92-5.72-6.79-9.97-12.72-11.08l-10.62-1.99-4.92-9.77C56.02,3.51,50.33,0,44,0h0Z"/>
</svg>