<?xml version="1.0" encoding="UTF-8"?>
<svg id="Layer_1" xmlns="http://www.w3.org/2000/svg" version="1.1" viewBox="0 0 88 88">
  <!-- Generator: Adobe Illustrator 30.1.0, SVG Export Plug-In . SVG Version: 2.1.1 Build 136)  -->
  <path d="M44,10.75c1.08,0,2.16.56,2.73,1.68l6.96,13.81c1.19,2.37,3.42,4.05,6.02,4.53l15.05,2.82c2.35.44,3.31,3.3,1.69,5.07l-10.96,12.03c-1.69,1.86-2.48,4.37-2.15,6.86l2.14,16.22c.26,1.94-1.29,3.47-3.03,3.47-.46,0-.94-.11-1.4-.34l-13.16-6.78c-1.22-.63-2.55-.94-3.89-.94s-2.67.31-3.89.94l-13.16,6.78c-.46.24-.93.34-1.4.34-1.74,0-3.28-1.53-3.03-3.47l2.14-16.23c.33-2.49-.46-5-2.15-6.85l-10.96-12.03c-1.62-1.77-.66-4.63,1.69-5.08l15.05-2.82c2.6-.49,4.83-2.16,6.02-4.53l6.96-13.81c.56-1.12,1.65-1.68,2.73-1.68M44,0c-5.24,0-9.97,2.91-12.33,7.6l-6.46,12.82-13.95,2.61c-4.92.92-8.96,4.44-10.55,9.19-1.59,4.75-.48,10,2.89,13.7l10.26,11.26-2,15.2c-.52,3.95.68,7.92,3.3,10.91,2.63,3,6.42,4.72,10.39,4.72,2.18,0,4.37-.53,6.32-1.54l12.13-6.25,12.13,6.25c1.95,1.01,4.14,1.54,6.32,1.54,3.97,0,7.76-1.72,10.39-4.72,2.62-2.98,3.82-6.96,3.3-10.91l-2-15.2,10.27-11.27c3.37-3.7,4.48-8.95,2.89-13.7-1.59-4.75-5.63-8.27-10.55-9.19l-13.95-2.61-6.46-12.82c-2.36-4.69-7.09-7.6-12.33-7.6h0Z"/>
</svg>