<?xml version="1.0" encoding="UTF-8"?>
<svg id="Layer_1" xmlns="http://www.w3.org/2000/svg" version="1.1" viewBox="0 0 29 29">
  <!-- Generator: Adobe Illustrator 30.1.0, SVG Export Plug-In . SVG Version: 2.1.1 Build 136)  -->
  <path d="M14.5,3.54c.36,0,.71.18.9.55l2.29,4.55c.39.78,1.13,1.33,1.99,1.49l4.96.93c.78.15,1.09,1.09.56,1.67l-3.61,3.96c-.56.61-.82,1.44-.71,2.26l.71,5.35c.08.64-.42,1.14-1,1.14-.15,0-.31-.04-.46-.11l-4.34-2.23c-.4-.21-.84-.31-1.28-.31s-.88.1-1.28.31l-4.34,2.23c-.15.08-.31.11-.46.11-.57,0-1.08-.51-1-1.14l.71-5.35c.11-.82-.15-1.65-.71-2.26l-3.61-3.96c-.53-.58-.22-1.53.56-1.67l4.96-.93c.86-.16,1.59-.71,1.98-1.49l2.29-4.55c.19-.37.54-.55.9-.55M14.5,0C12.77,0,11.21.96,10.44,2.5l-2.13,4.22-4.6.86c-1.62.3-2.95,1.46-3.48,3.03-.52,1.56-.16,3.29.95,4.51l3.38,3.71-.66,5.01c-.17,1.3.22,2.61,1.09,3.59.87.99,2.11,1.56,3.42,1.56.72,0,1.44-.18,2.08-.51l4-2.06,4,2.06c.64.33,1.36.51,2.08.51,1.31,0,2.56-.57,3.42-1.56.86-.98,1.26-2.29,1.09-3.59l-.66-5.01,3.38-3.71c1.11-1.22,1.48-2.95.95-4.51-.52-1.56-1.86-2.72-3.48-3.03l-4.6-.86-2.13-4.22C17.78.96,16.23,0,14.5,0h0Z"/>
</svg>