<?xml version="1.0" encoding="UTF-8"?>
<svg id="Layer_1" xmlns="http://www.w3.org/2000/svg" version="1.1" viewBox="0 0 29 29">
  <!-- Generator: Adobe Illustrator 30.1.0, SVG Export Plug-In . SVG Version: 2.1.1 Build 136)  -->
  <path d="M14.5,2.52c.39,0,.78.2.98.61l2.51,4.98c.43.85,1.23,1.46,2.17,1.63l5.42,1.02c.85.16,1.19,1.19.61,1.83l-3.95,4.34c-.61.67-.89,1.57-.77,2.47l.77,5.85c.09.7-.46,1.25-1.09,1.25-.17,0-.34-.04-.5-.12l-4.74-2.44c-.44-.23-.92-.34-1.4-.34s-.96.11-1.4.34l-4.74,2.44c-.17.09-.34.12-.5.12-.63,0-1.18-.55-1.09-1.25l.77-5.85c.12-.9-.16-1.8-.77-2.47l-3.95-4.34c-.58-.64-.24-1.67.61-1.83l5.42-1.02c.94-.18,1.74-.78,2.17-1.63l2.51-4.98c.2-.4.59-.61.98-.61M14.5,0C13.12,0,11.89.76,11.27,1.99l-2.51,4.98c-.08.15-.22.26-.38.29l-5.42,1.02c-1.29.24-2.35,1.16-2.77,2.41-.42,1.25-.13,2.62.76,3.59l3.95,4.34c.11.12.16.28.14.44l-.77,5.85c-.14,1.04.18,2.08.86,2.86.69.79,1.68,1.24,2.72,1.24.57,0,1.14-.14,1.66-.4l4.74-2.44c.08-.04.16-.06.25-.06s.17.02.25.06l4.74,2.44c.51.26,1.09.4,1.66.4,1.04,0,2.03-.45,2.72-1.24.69-.78,1-1.82.86-2.86l-.77-5.85c-.02-.16.03-.32.14-.45l3.95-4.34c.88-.97,1.17-2.35.76-3.59-.42-1.24-1.48-2.17-2.77-2.41l-5.42-1.02c-.16-.03-.31-.14-.38-.29l-2.51-4.98C17.11.76,15.87,0,14.5,0h0Z"/>
</svg>