<?xml version="1.0" encoding="UTF-8"?>
<svg id="Layer_1" xmlns="http://www.w3.org/2000/svg" version="1.1" viewBox="0 0 48 48">
  <!-- Generator: Adobe Illustrator 30.1.0, SVG Export Plug-In . SVG Version: 2.1.1 Build 136)  -->
  <g>
    <g>
      <rect x="22.21" y="14.59" width="3.57" height="3.57"/>
      <path d="M24.96,15.42v1.92h-1.92v-1.92h1.92M26.61,13.77h-5.22v5.22h5.22v-5.22h0Z"/>
    </g>
    <g>
      <polygon points="20.29 32.89 20.29 29.31 22.21 29.31 22.21 24.96 20.29 24.96 20.29 21.38 25.79 21.38 25.79 29.31 27.71 29.31 27.71 32.89 20.29 32.89"/>
      <path d="M24.96,22.21v7.93h1.92v1.92h-5.77v-1.92h1.92v-6.01h-1.92v-1.92h3.85M26.61,20.56h-7.15v5.22h1.92v2.71h-1.92v5.22h9.07v-5.22h-1.92v-7.93h0Z"/>
    </g>
  </g>
  <circle id="Outer" cx="24" cy="24" r="18.95" fill="none" stroke="#000" stroke-width="10.11"/>
</svg>