<?xml version="1.0" encoding="UTF-8"?>
<svg id="Layer_1" xmlns="http://www.w3.org/2000/svg" version="1.1" viewBox="0 0 48 48">
  <!-- Generator: Adobe Illustrator 30.1.0, SVG Export Plug-In . SVG Version: 2.1.1 Build 136)  -->
  <g>
    <g>
      <rect x="22.31" y="12.46" width="3.38" height="3.38"/>
      <path d="M25.39,12.76v2.78h-2.78v-2.78h2.78M25.99,12.16h-3.98v3.98h3.98v-3.98h0Z"/>
    </g>
    <g>
      <polygon points="19.53 35.47 19.53 32.09 22.31 32.09 22.31 24.01 19.53 24.01 19.53 20.63 25.69 20.63 25.69 32.09 28.47 32.09 28.47 35.47 19.53 35.47"/>
      <path d="M25.39,20.93v11.46h2.78v2.78h-8.34v-2.78h2.78v-8.68h-2.78v-2.78h5.56M25.99,20.33h-6.76v3.98h2.78v7.48h-2.78v3.98h9.54v-3.98h-2.78v-11.46h0Z"/>
    </g>
  </g>
  <circle id="Outer" cx="24" cy="24" r="21.92" fill="none" stroke="#000" stroke-width="4.17"/>
</svg>