<?xml version="1.0" encoding="UTF-8"?>
<svg id="Layer_1" xmlns="http://www.w3.org/2000/svg" version="1.1" viewBox="0 0 48 48">
  <!-- Generator: Adobe Illustrator 30.1.0, SVG Export Plug-In . SVG Version: 2.1.1 Build 136)  -->
  <g>
    <g>
      <rect x="22.32" y="12.15" width="3.36" height="3.36"/>
      <path d="M25.45,12.38v2.91h-2.91v-2.91h2.91M25.9,11.93h-3.81v3.81h3.81v-3.81h0Z"/>
    </g>
    <g>
      <polygon points="19.42 35.85 19.42 32.49 22.32 32.49 22.32 23.87 19.42 23.87 19.42 20.52 25.68 20.52 25.68 32.49 28.58 32.49 28.58 35.85 19.42 35.85"/>
      <path d="M25.45,20.74v11.98h2.91v2.91h-8.72v-2.91h2.91v-9.07h-2.91v-2.91h5.81M25.9,20.29h-6.71v3.81h2.91v8.17h-2.91v3.81h9.62v-3.81h-2.91v-11.98h0Z"/>
    </g>
  </g>
  <circle id="Outer" cx="24" cy="24" r="22.34" fill="none" stroke="#000" stroke-width="3.33"/>
</svg>