<?xml version="1.0" encoding="UTF-8"?>
<svg id="Layer_1" xmlns="http://www.w3.org/2000/svg" version="1.1" viewBox="0 0 48 48">
  <!-- Generator: Adobe Illustrator 30.1.0, SVG Export Plug-In . SVG Version: 2.1.1 Build 136)  -->
  <g>
    <g>
      <rect x="22.23" y="14.29" width="3.54" height="3.54"/>
      <path d="M25.02,15.04v2.04h-2.04v-2.04h2.04M26.52,13.54h-5.04v5.04h5.04v-5.04h0Z"/>
    </g>
    <g>
      <polygon points="20.19 33.24 20.19 29.7 22.23 29.7 22.23 24.83 20.19 24.83 20.19 21.28 25.77 21.28 25.77 29.7 27.81 29.7 27.81 33.24 20.19 33.24"/>
      <path d="M25.02,22.03v8.42h2.04v2.04h-6.13v-2.04h2.04v-6.37h-2.04v-2.04h4.08M26.52,20.53h-7.08v5.04h2.04v3.37h-2.04v5.04h9.13v-5.04h-2.04v-8.42h0Z"/>
    </g>
  </g>
  <circle id="Outer" cx="24" cy="24" r="19.37" fill="none" stroke="#000" stroke-width="9.27"/>
</svg>