<?xml version="1.0" encoding="UTF-8"?>
<svg id="Layer_1" xmlns="http://www.w3.org/2000/svg" version="1.1" viewBox="0 0 108 108">
  <!-- Generator: Adobe Illustrator 30.1.0, SVG Export Plug-In . SVG Version: 2.1.1 Build 136)  -->
  <g>
    <g>
      <rect x="50.23" y="27.34" width="7.55" height="7.55"/>
      <path d="M57.27,27.85v6.54h-6.54v-6.54h6.54M58.28,26.84h-8.56v8.56h8.56v-8.56h0Z"/>
    </g>
    <g>
      <polygon points="43.69 80.65 43.69 73.11 50.23 73.11 50.23 53.71 43.69 53.71 43.69 46.16 57.77 46.16 57.77 73.11 64.31 73.11 64.31 80.65 43.69 80.65"/>
      <path d="M57.27,46.67v26.95h6.54v6.54h-19.61v-6.54h6.54v-20.41h-6.54v-6.54h13.07M58.28,45.65h-15.1v8.56h6.54v18.38h-6.54v8.56h21.64v-8.56h-6.54v-26.95h0Z"/>
    </g>
  </g>
  <circle id="Outer" cx="54" cy="54" r="50.25" fill="none" stroke="#000" stroke-width="7.49"/>
</svg>