<?xml version="1.0" encoding="UTF-8"?>
<svg id="Layer_1" xmlns="http://www.w3.org/2000/svg" version="1.1" viewBox="0 0 94 94">
  <!-- Generator: Adobe Illustrator 30.1.0, SVG Export Plug-In . SVG Version: 2.1.1 Build 136)  -->
  <circle id="Outer" cx="47" cy="47" r="42.92" fill="none" stroke="#000" stroke-width="8.17"/>
  <g>
    <g>
      <rect x="44.03" y="62.52" width="5.88" height="5.88"/>
      <path d="M49.33,63.11v4.71h-4.71v-4.71h4.71M50.5,61.93h-7.06v7.06h7.06v-7.06h0Z"/>
    </g>
    <g>
      <path d="M44.04,56.03l-.02-2.36c0-2.38.89-4.66,2.48-6.42l4.66-5.17c1.18-1.31,1.83-2.99,1.83-4.74,0-2.46-2.02-4.46-4.49-4.46h-3c-2.48,0-4.5,2-4.5,4.46v.59h-5.93v-.59c0-5.71,4.67-10.35,10.42-10.35h3c5.75,0,10.42,4.64,10.42,10.35,0,3.21-1.19,6.29-3.35,8.68l-4.66,5.17c-.64.7-.97,1.56-.98,2.48l-.02,2.37h-5.87Z"/>
      <path d="M48.5,27.58c5.42,0,9.83,4.38,9.83,9.76,0,3.06-1.13,6-3.19,8.29l-4.66,5.17c-.72.8-1.12,1.79-1.13,2.87l-.02,1.78h-4.71l-.02-1.78c0-2.23.83-4.36,2.33-6.02l4.66-5.17c1.28-1.41,1.98-3.24,1.98-5.14,0-2.78-2.28-5.05-5.08-5.05h-3c-2.8,0-5.08,2.26-5.08,5.05h-4.75c0-5.38,4.41-9.76,9.83-9.76h3M48.5,26.4h-3c-6.07,0-11.01,4.91-11.01,10.94v1.17h7.1v-1.17c0-2.13,1.75-3.87,3.91-3.87h3c2.15,0,3.91,1.74,3.91,3.87,0,1.61-.6,3.15-1.68,4.35l-4.66,5.17c-1.69,1.87-2.63,4.28-2.64,6.8l.02,1.8v1.16h7.05v-1.16s.03-1.78.03-1.78c0-.78.29-1.5.82-2.09l4.67-5.17c2.25-2.5,3.5-5.72,3.5-9.07,0-6.03-4.94-10.94-11.01-10.94h0Z"/>
    </g>
  </g>
</svg>