<?xml version="1.0" encoding="UTF-8"?>
<svg id="Layer_1" xmlns="http://www.w3.org/2000/svg" version="1.1" viewBox="0 0 94 94">
  <!-- Generator: Adobe Illustrator 30.1.0, SVG Export Plug-In . SVG Version: 2.1.1 Build 136)  -->
  <circle id="Outer" cx="47" cy="47" r="39.58" fill="none" stroke="#000" stroke-width="14.83"/>
  <g>
    <g>
      <rect x="44.01" y="60" width="5.92" height="5.92"/>
      <path d="M48.76,61.17v3.57h-3.57v-3.57h3.57M51.11,58.82h-8.27v8.27h8.27v-8.27h0Z"/>
    </g>
    <g>
      <path d="M44.03,54.01l-.02-2.52c0-2,.74-3.9,2.07-5.37l3.54-3.92c.77-.86,1.2-1.96,1.2-3.11,0-1.46-1.2-2.66-2.68-2.66h-2.27c-1.48,0-2.68,1.19-2.68,2.66v1.17h-5.96v-1.17c0-4.73,3.88-8.59,8.64-8.59h2.27c4.76,0,8.64,3.85,8.64,8.59,0,2.62-.97,5.13-2.73,7.08l-3.54,3.92c-.36.4-.55.88-.55,1.39l-.03,2.52h-5.9Z"/>
      <path d="M48.14,31.68c4.12,0,7.46,3.33,7.46,7.41,0,2.33-.86,4.56-2.42,6.29l-3.54,3.92c-.55.61-.85,1.36-.85,2.18v1.35h-3.59v-1.35c0-1.69.62-3.31,1.76-4.57l3.54-3.92c.97-1.07,1.5-2.46,1.5-3.9,0-2.11-1.73-3.83-3.86-3.83h-2.27c-2.13,0-3.86,1.72-3.86,3.83h-3.61c0-4.09,3.35-7.41,7.46-7.41h2.27M48.14,29.33h-2.27c-5.41,0-9.81,4.38-9.81,9.76v2.35h8.31v-2.35c0-.82.68-1.48,1.51-1.48h2.27c.83,0,1.51.66,1.51,1.48,0,.86-.32,1.68-.9,2.32l-3.54,3.92c-1.52,1.68-2.37,3.86-2.38,6.14v1.38s.03,2.33.03,2.33h8.23l.02-2.33v-1.35c.01-.24.1-.44.26-.63l3.54-3.93c1.95-2.16,3.03-4.96,3.03-7.86,0-5.38-4.4-9.76-9.81-9.76h0Z"/>
    </g>
  </g>
</svg>