<?xml version="1.0" encoding="UTF-8"?>
<svg id="Layer_1" xmlns="http://www.w3.org/2000/svg" version="1.1" viewBox="0 0 94 94">
  <!-- Generator: Adobe Illustrator 30.1.0, SVG Export Plug-In . SVG Version: 2.1.1 Build 136)  -->
  <circle id="Outer" cx="47" cy="47" r="41.26" fill="none" stroke="#000" stroke-width="11.49"/>
  <g>
    <g>
      <rect x="44.03" y="61.27" width="5.89" height="5.89"/>
      <path d="M49.04,62.15v4.13h-4.13v-4.13h4.13M50.8,60.39h-7.66v7.66h7.66v-7.66h0Z"/>
    </g>
    <g>
      <path d="M44.04,54.99l-.02-2.44c0-2.18.82-4.27,2.27-5.88l4.09-4.53c.97-1.08,1.51-2.47,1.51-3.92,0-1.96-1.61-3.55-3.58-3.55h-2.63c-1.97,0-3.58,1.59-3.58,3.55v.88h-5.93v-.88c0-5.21,4.27-9.45,9.51-9.45h2.63c5.24,0,9.51,4.24,9.51,9.45,0,2.9-1.08,5.7-3.03,7.86l-4.09,4.54c-.5.55-.76,1.21-.76,1.93l-.02,2.44h-5.88Z"/>
      <path d="M48.31,29.66c4.76,0,8.63,3.84,8.63,8.57,0,2.69-1,5.27-2.8,7.27l-4.09,4.53c-.63.7-.98,1.57-.99,2.52l-.02,1.56h-4.13v-1.56c0-1.96.71-3.82,2.03-5.28l4.09-4.53c1.12-1.24,1.74-2.84,1.74-4.51,0-2.44-2-4.43-4.46-4.43h-2.63c-2.46,0-4.46,1.99-4.46,4.43h-4.17c0-4.72,3.87-8.57,8.63-8.57h2.63M48.31,27.89h-2.63c-5.73,0-10.39,4.63-10.39,10.33v1.76h7.69v-1.76c0-1.47,1.21-2.67,2.7-2.67h2.63c1.49,0,2.7,1.2,2.7,2.67,0,1.23-.46,2.41-1.28,3.33l-4.09,4.53c-1.6,1.77-2.49,4.07-2.5,6.46v1.58s.03,1.75.03,1.75h7.62l.02-1.74.02-1.56c0-.51.18-.96.53-1.35l4.09-4.54c2.1-2.33,3.26-5.33,3.26-8.45,0-5.7-4.66-10.33-10.39-10.33h0Z"/>
    </g>
  </g>
</svg>