<?xml version="1.0" encoding="UTF-8"?>
<svg id="Layer_1" xmlns="http://www.w3.org/2000/svg" version="1.1" viewBox="0 0 94 94">
  <!-- Generator: Adobe Illustrator 30.1.0, SVG Export Plug-In . SVG Version: 2.1.1 Build 136)  -->
  <circle id="Outer" cx="47" cy="47" r="43.74" fill="none" stroke="#000" stroke-width="6.52"/>
  <g>
    <g>
      <rect x="44.03" y="63.14" width="5.89" height="5.88"/>
      <path d="M49.47,63.58v5h-5v-5h5M50.35,62.7h-6.77v6.77h6.77v-6.77h0Z"/>
    </g>
    <g>
      <path d="M44.03,56.57l-.02-2.33c0-2.48.93-4.86,2.59-6.7l4.96-5.49c1.28-1.42,1.99-3.26,1.99-5.16,0-2.71-2.23-4.92-4.96-4.92h-3.18c-2.73,0-4.96,2.21-4.96,4.92v.44h-5.93v-.44c0-5.96,4.89-10.82,10.89-10.82h3.18c6,0,10.89,4.85,10.89,10.82,0,3.36-1.25,6.6-3.51,9.1l-4.96,5.49c-.71.78-1.08,1.73-1.08,2.76l-.02,2.33h-5.88Z"/>
      <path d="M48.59,26.52c5.76,0,10.45,4.66,10.45,10.38,0,3.26-1.21,6.38-3.39,8.8l-4.96,5.49c-.77.85-1.19,1.9-1.2,3.05l-.02,1.89h-5l-.02-1.89c0-2.37.88-4.63,2.48-6.4l4.96-5.49c1.36-1.5,2.1-3.44,2.1-5.46,0-2.96-2.42-5.36-5.4-5.36h-3.18c-2.98,0-5.4,2.41-5.4,5.36h-5.05c0-5.72,4.69-10.38,10.45-10.38h3.18M48.59,25.64h-3.18c-6.25,0-11.33,5.05-11.33,11.26v.88h6.81v-.88c0-2.47,2.03-4.48,4.52-4.48h3.18c2.49,0,4.52,2.01,4.52,4.48,0,1.8-.67,3.53-1.88,4.87l-4.96,5.49c-1.74,1.92-2.7,4.4-2.71,6.98l.02,1.9v.87h6.76v-.87s.03-1.89.03-1.89c0-.92.34-1.77.97-2.47l4.96-5.49c2.33-2.59,3.62-5.92,3.62-9.4,0-6.21-5.08-11.26-11.33-11.26h0Z"/>
    </g>
  </g>
</svg>