<?xml version="1.0" encoding="UTF-8"?>
<svg id="Layer_1" xmlns="http://www.w3.org/2000/svg" version="1.1" viewBox="0 0 94 94">
  <!-- Generator: Adobe Illustrator 30.1.0, SVG Export Plug-In . SVG Version: 2.1.1 Build 136)  -->
  <circle id="Outer" cx="47" cy="47" r="37.1" fill="none" stroke="#000" stroke-width="19.8"/>
  <g>
    <g>
      <rect x="43.96" y="58.08" width="6.03" height="6.03"/>
      <path d="M48.38,59.69v2.8h-2.8v-2.8h2.8M51.61,56.46h-9.27v9.27h9.27v-9.27h0Z"/>
    </g>
    <g>
      <path d="M43.98,52.72l-.02-2.66c0-1.74.65-3.4,1.81-4.68l2.77-3.07c.49-.54.76-1.25.76-1.97,0-.77-.63-1.39-1.41-1.39h-1.78c-.78,0-1.41.62-1.41,1.39v1.62h-6.06v-1.62c0-4.1,3.35-7.43,7.47-7.43h1.78c4.12,0,7.47,3.33,7.47,7.43,0,2.22-.82,4.36-2.32,6.01l-2.78,3.08c-.17.19-.25.4-.25.63l-.03,2.67h-6Z"/>
      <path d="M47.89,34.52c3.23,0,5.85,2.61,5.85,5.81,0,1.82-.68,3.57-1.9,4.93l-2.78,3.08c-.43.48-.67,1.07-.67,1.71v1.06h-2.81v-1.06c0-1.33.48-2.59,1.38-3.58l2.78-3.07c.76-.84,1.18-1.93,1.18-3.06,0-1.66-1.36-3-3.02-3h-1.78c-1.67,0-3.02,1.35-3.02,3h-2.83c0-3.2,2.63-5.81,5.85-5.81h1.78M47.89,31.28h-1.78c-5.01,0-9.08,4.06-9.08,9.04v3.23h8.2l-.66.74c-1.42,1.57-2.21,3.61-2.22,5.74v1.1s.04,3.2.04,3.2h9.2l.03-3.2v-.81s2.63-2.9,2.63-2.9c1.76-1.95,2.73-4.47,2.73-7.1,0-4.99-4.07-9.04-9.08-9.04h0ZM46.31,40.55h1.35c-.04.24-.15.47-.33.66l-1.02,1.14v-1.8h0Z"/>
    </g>
  </g>
</svg>