<?xml version="1.0" encoding="UTF-8"?>
<svg id="Layer_1" xmlns="http://www.w3.org/2000/svg" version="1.1" viewBox="0 0 94 94">
  <!-- Generator: Adobe Illustrator 30.1.0, SVG Export Plug-In . SVG Version: 2.1.1 Build 136)  -->
  <circle id="Outer" cx="47" cy="47" r="37.92" fill="none" stroke="#000" stroke-width="18.15"/>
  <g>
    <g>
      <rect x="43.98" y="58.72" width="5.99" height="5.99"/>
      <path d="M48.5,60.18v3.05h-3.05v-3.05h3.05M51.44,57.25h-8.93v8.93h8.93v-8.93h0Z"/>
    </g>
    <g>
      <path d="M44,53.12l-.02-2.61c0-1.82.68-3.56,1.89-4.9l3.02-3.35c.58-.65.9-1.48.9-2.34,0-.99-.82-1.8-1.82-1.8h-1.94c-1.01,0-1.82.81-1.82,1.8v1.47h-6.02v-1.47c0-4.3,3.52-7.79,7.84-7.79h1.94c4.32,0,7.84,3.5,7.84,7.79,0,2.35-.87,4.6-2.45,6.35l-3.02,3.35c-.23.26-.35.55-.35.88l-.03,2.62h-5.96Z"/>
      <path d="M47.97,33.6c3.51,0,6.37,2.84,6.37,6.33,0,1.98-.73,3.89-2.07,5.37l-3.02,3.35c-.47.52-.73,1.16-.73,1.86v1.15h-3.06v-1.15c0-1.45.53-2.82,1.5-3.9l3.02-3.35c.83-.92,1.28-2.1,1.28-3.33,0-1.8-1.48-3.27-3.29-3.27h-1.94c-1.82,0-3.29,1.47-3.29,3.27h-3.08c0-3.49,2.86-6.33,6.37-6.33h1.94M47.97,30.66h-1.94c-5.13,0-9.31,4.16-9.31,9.26v2.94h8.95v-2.94c0-.18.16-.33.36-.33h1.94c.19,0,.36.15.36.33,0,.5-.19.98-.53,1.36l-3.02,3.35c-1.45,1.61-2.26,3.69-2.27,5.86v1.19s.04,2.91.04,2.91h8.87l.03-2.91v-1.1s3.01-3.32,3.01-3.32c1.82-2.02,2.83-4.62,2.83-7.34,0-5.11-4.18-9.26-9.31-9.26h0Z"/>
    </g>
  </g>
</svg>