<?xml version="1.0" encoding="UTF-8"?>
<svg id="Layer_1" xmlns="http://www.w3.org/2000/svg" version="1.1" viewBox="0 0 76 76">
  <!-- Generator: Adobe Illustrator 30.1.0, SVG Export Plug-In . SVG Version: 2.1.1 Build 136)  -->
  <path d="M38,16.01c.72,0,1.43.37,1.8,1.11l4.6,9.13c.79,1.57,2.26,2.68,3.98,3l9.95,1.87c1.56.29,2.19,2.18,1.12,3.36l-7.25,7.96c-1.12,1.23-1.64,2.89-1.42,4.54l1.42,10.73c.17,1.28-.85,2.29-2,2.29-.31,0-.62-.07-.92-.23l-8.71-4.48c-.81-.42-1.69-.62-2.57-.62s-1.76.21-2.57.62l-8.71,4.48c-.3.16-.62.23-.92.23-1.15,0-2.17-1.01-2-2.29l1.42-10.73c.22-1.65-.3-3.31-1.42-4.53l-7.25-7.96c-1.07-1.17-.44-3.07,1.12-3.36l9.95-1.87c1.72-.32,3.19-1.43,3.98-3l4.6-9.13c.37-.74,1.09-1.11,1.8-1.11M38,0C31.15,0,24.98,3.8,21.9,9.92l-2.29,4.55-4.9.92c-6.42,1.2-11.7,5.8-13.77,12-2.08,6.2-.63,13.05,3.77,17.88l4,4.39-.79,5.96c-.68,5.15.89,10.34,4.31,14.24,3.43,3.91,8.37,6.15,13.56,6.15,2.85,0,5.71-.69,8.25-2l3.95-2.03,3.95,2.03c2.55,1.31,5.4,2,8.25,2,5.19,0,10.13-2.24,13.56-6.15,3.42-3.9,4.99-9.09,4.31-14.24l-.79-5.95,4.01-4.4c4.4-4.83,5.85-11.68,3.77-17.88-2.08-6.19-7.35-10.79-13.77-11.99l-4.9-.92-2.29-4.55C51.02,3.8,44.85,0,38,0h0Z"/>
</svg>