<?xml version="1.0" encoding="UTF-8"?>
<svg id="Layer_1" xmlns="http://www.w3.org/2000/svg" version="1.1" viewBox="0 0 76 76">
  <!-- Generator: Adobe Illustrator 30.1.0, SVG Export Plug-In . SVG Version: 2.1.1 Build 136)  -->
  <path d="M38,14.68c.76,0,1.52.39,1.91,1.18l4.88,9.69c.84,1.66,2.4,2.84,4.23,3.18l10.56,1.98c1.65.31,2.32,2.32,1.19,3.56l-7.69,8.44c-1.19,1.3-1.74,3.06-1.51,4.81l1.5,11.38c.18,1.36-.9,2.43-2.12,2.43-.32,0-.66-.08-.98-.24l-9.23-4.76c-.86-.44-1.79-.66-2.73-.66-.94,0-1.87.22-2.73.66l-9.23,4.76c-.32.17-.66.24-.98.24-1.22,0-2.3-1.08-2.12-2.43l1.5-11.38c.23-1.75-.32-3.51-1.51-4.81l-7.69-8.44c-1.13-1.24-.46-3.25,1.19-3.56l10.55-1.98c1.82-.34,3.39-1.52,4.22-3.18l4.88-9.69c.4-.79,1.15-1.18,1.91-1.18M38,0C31.61,0,25.85,3.55,22.98,9.25l-2.94,5.84-6.31,1.18c-5.99,1.12-10.91,5.41-12.85,11.19-1.94,5.78-.59,12.17,3.52,16.68l4.97,5.45-.97,7.37c-.63,4.81.83,9.65,4.02,13.29,3.2,3.65,7.81,5.74,12.65,5.74,2.66,0,5.32-.65,7.7-1.87l5.24-2.7,5.24,2.7c2.38,1.22,5.04,1.87,7.7,1.87,4.84,0,9.45-2.09,12.65-5.74,3.19-3.64,4.66-8.48,4.02-13.29l-.97-7.37,4.97-5.45c4.11-4.51,5.45-10.9,3.52-16.68-1.94-5.78-6.86-10.07-12.85-11.19l-6.32-1.18-2.94-5.84C50.14,3.55,44.39,0,38,0h0Z"/>
</svg>