<?xml version="1.0" encoding="UTF-8"?>
<svg id="Layer_1" xmlns="http://www.w3.org/2000/svg" version="1.1" viewBox="0 0 76 76">
  <!-- Generator: Adobe Illustrator 30.1.0, SVG Export Plug-In . SVG Version: 2.1.1 Build 136)  -->
  <path d="M38,6.6c1.02,0,2.04.53,2.58,1.59l6.57,13.04c1.13,2.24,3.23,3.82,5.69,4.28l14.21,2.66c2.22.42,3.12,3.12,1.6,4.79l-10.35,11.36c-1.6,1.75-2.34,4.12-2.03,6.48l2.02,15.32c.24,1.83-1.22,3.28-2.86,3.28-.44,0-.88-.1-1.32-.33l-12.43-6.4c-1.15-.59-2.41-.89-3.67-.89-1.26,0-2.52.3-3.67.89l-12.43,6.4c-.43.22-.88.33-1.32.33-1.64,0-3.1-1.45-2.86-3.28l2.02-15.32c.31-2.35-.43-4.72-2.03-6.47l-10.35-11.36c-1.53-1.67-.62-4.38,1.6-4.79l14.21-2.66c2.46-.46,4.56-2.04,5.69-4.28l6.57-13.04c.53-1.06,1.55-1.59,2.58-1.59M38,0C34.4,0,31.15,2,29.53,5.22l-6.57,13.04c-.2.4-.57.68-1.01.76l-14.21,2.66c-3.38.63-6.16,3.05-7.25,6.31-1.09,3.26-.33,6.87,1.99,9.42l10.35,11.36c.29.31.42.74.36,1.16l-2.02,15.32c-.36,2.71.47,5.45,2.26,7.49,1.81,2.06,4.41,3.25,7.14,3.25,1.5,0,3-.37,4.34-1.06l12.43-6.4c.2-.1.42-.16.65-.16.22,0,.45.05.65.16l12.43,6.4c1.34.69,2.84,1.06,4.34,1.06,2.73,0,5.33-1.18,7.14-3.25,1.8-2.05,2.62-4.78,2.26-7.49l-2.02-15.32c-.06-.43.08-.85.36-1.17l10.35-11.36c2.32-2.54,3.08-6.15,1.98-9.41-1.09-3.26-3.87-5.68-7.25-6.31l-14.21-2.66c-.43-.08-.81-.37-1.01-.76l-6.57-13.04C44.85,2,41.6,0,38,0h0Z"/>
</svg>