<?xml version="1.0" encoding="UTF-8"?>
<svg id="Layer_1" xmlns="http://www.w3.org/2000/svg" version="1.1" viewBox="0 0 76 76">
  <!-- Generator: Adobe Illustrator 30.1.0, SVG Export Plug-In . SVG Version: 2.1.1 Build 136)  -->
  <path d="M38,9.29c.93,0,1.87.48,2.35,1.45l6.01,11.92c1.03,2.05,2.95,3.49,5.2,3.92l13,2.44c2.03.38,2.86,2.85,1.46,4.38l-9.47,10.39c-1.46,1.6-2.14,3.77-1.86,5.92l1.85,14.01c.22,1.67-1.11,3-2.61,3-.4,0-.81-.09-1.21-.3l-11.37-5.85c-1.05-.54-2.21-.81-3.36-.81-1.15,0-2.3.27-3.36.81l-11.37,5.85c-.4.2-.81.3-1.21.3-1.5,0-2.83-1.32-2.61-3l1.85-14.01c.28-2.15-.4-4.32-1.85-5.92l-9.47-10.39c-1.4-1.53-.57-4,1.46-4.38l12.99-2.44c2.25-.42,4.17-1.87,5.2-3.91l6.01-11.93c.49-.97,1.42-1.45,2.35-1.45M38,0C33.47,0,29.39,2.51,27.35,6.56l-5.58,11.07-12.04,2.26c-4.25.8-7.74,3.84-9.11,7.94-1.37,4.1-.42,8.63,2.49,11.83l8.86,9.73-1.73,13.13c-.45,3.41.59,6.84,2.85,9.42,2.27,2.59,5.54,4.08,8.97,4.08,1.88,0,3.77-.46,5.46-1.33l10.47-5.39,10.47,5.39c1.69.87,3.57,1.33,5.46,1.33,3.43,0,6.7-1.49,8.97-4.08,2.26-2.58,3.3-6.01,2.85-9.42l-1.73-13.13,8.87-9.73c2.91-3.2,3.87-7.73,2.49-11.83-1.37-4.1-4.86-7.14-9.11-7.93l-12.05-2.26-5.58-11.07C46.61,2.51,42.53,0,38,0h0Z"/>
</svg>