<?xml version="1.0" encoding="UTF-8"?>
<svg id="Layer_1" xmlns="http://www.w3.org/2000/svg" version="1.1" viewBox="0 0 76 76">
  <!-- Generator: Adobe Illustrator 30.1.0, SVG Export Plug-In . SVG Version: 2.1.1 Build 136)  -->
  <path d="M38,5.27c1.06,0,2.13.55,2.68,1.66l6.85,13.59c1.17,2.33,3.37,3.98,5.93,4.46l14.81,2.78c2.32.43,3.26,3.25,1.67,4.99l-10.79,11.84c-1.67,1.83-2.44,4.3-2.12,6.75l2.11,15.97c.25,1.91-1.27,3.41-2.98,3.41-.45,0-.92-.11-1.37-.34l-12.96-6.67c-1.2-.62-2.51-.93-3.83-.93-1.31,0-2.63.31-3.83.93l-12.96,6.67c-.45.23-.92.34-1.37.34-1.71,0-3.23-1.51-2.98-3.41l2.11-15.97c.32-2.45-.45-4.92-2.11-6.74l-10.79-11.84c-1.59-1.74-.65-4.56,1.67-5l14.81-2.78c2.56-.48,4.75-2.13,5.93-4.46l6.85-13.59c.56-1.1,1.62-1.66,2.68-1.66M38,0C34.85,0,32.02,1.75,30.61,4.56l-6.85,13.59c-.43.86-1.25,1.47-2.19,1.65l-14.81,2.78c-2.95.55-5.37,2.66-6.33,5.51-.95,2.85-.29,6,1.73,8.22l10.79,11.84c.62.68.9,1.59.78,2.5l-2.11,15.97c-.31,2.37.41,4.75,1.97,6.54,1.58,1.8,3.85,2.84,6.23,2.84,1.3,0,2.61-.32,3.79-.92l12.96-6.67c.44-.22.92-.34,1.41-.34.49,0,.98.12,1.41.34l12.96,6.67c1.17.6,2.48.92,3.79.92,2.38,0,4.65-1.03,6.23-2.84,1.57-1.79,2.29-4.17,1.97-6.54l-2.11-15.97c-.12-.92.17-1.83.79-2.51l10.79-11.84c2.02-2.22,2.69-5.37,1.73-8.22-.95-2.85-3.38-4.96-6.32-5.51l-14.81-2.78c-.94-.18-1.76-.79-2.19-1.65l-6.85-13.59C43.98,1.75,41.14,0,38,0h0Z"/>
</svg>