<?xml version="1.0" encoding="UTF-8"?>
<svg id="Layer_1" xmlns="http://www.w3.org/2000/svg" version="1.1" viewBox="0 0 16 16">
  <!-- Generator: Adobe Illustrator 30.1.0, SVG Export Plug-In . SVG Version: 2.1.1 Build 136)  -->
  <path d="M8,1.39c.21,0,.43.11.54.33l1.38,2.75c.24.47.68.8,1.2.9l2.99.56c.47.09.66.66.34,1.01l-2.18,2.39c-.34.37-.49.87-.43,1.36l.43,3.23c.05.38-.26.69-.6.69-.09,0-.19-.02-.28-.07l-2.62-1.35c-.24-.12-.51-.19-.77-.19s-.53.06-.77.19l-2.62,1.35c-.09.05-.19.07-.28.07-.35,0-.65-.3-.6-.69l.43-3.23c.07-.49-.09-.99-.43-1.36l-2.18-2.39c-.32-.35-.13-.92.34-1.01l2.99-.56c.52-.1.96-.43,1.2-.9l1.38-2.75c.11-.22.33-.33.54-.33M8,0C7.24,0,6.56.42,6.22,1.1l-1.38,2.75c-.04.08-.12.14-.21.16l-2.99.56c-.71.13-1.3.64-1.53,1.33-.23.69-.07,1.45.42,1.98l2.18,2.39c.06.07.09.15.08.24l-.43,3.23c-.08.57.1,1.15.48,1.58.38.43.93.68,1.5.68.32,0,.63-.08.91-.22l2.62-1.35s.09-.03.14-.03.09.01.14.03l2.62,1.35c.28.15.6.22.91.22.57,0,1.12-.25,1.5-.68.38-.43.55-1.01.48-1.58l-.43-3.23c-.01-.09.02-.18.08-.25l2.18-2.39c.49-.54.65-1.29.42-1.98-.23-.69-.81-1.2-1.53-1.33l-2.99-.56c-.09-.02-.17-.08-.21-.16l-1.38-2.75C9.44.42,8.76,0,8,0h0Z"/>
</svg>