<?xml version="1.0" encoding="UTF-8"?>
<svg id="Layer_1" xmlns="http://www.w3.org/2000/svg" version="1.1" viewBox="0 0 16 16">
  <!-- Generator: Adobe Illustrator 30.1.0, SVG Export Plug-In . SVG Version: 2.1.1 Build 136)  -->
  <path d="M8,3.37c.15,0,.3.08.38.23l.97,1.92c.17.33.48.56.84.63l2.1.39c.33.06.46.46.24.71l-1.53,1.68c-.24.26-.35.61-.3.96l.3,2.26c.04.27-.18.48-.42.48-.06,0-.13-.02-.19-.05l-1.83-.94c-.17-.09-.36-.13-.54-.13s-.37.04-.54.13l-1.83.94c-.06.03-.13.05-.19.05-.24,0-.46-.21-.42-.48l.3-2.26c.05-.35-.06-.7-.3-.95l-1.53-1.68c-.22-.25-.09-.65.24-.71l2.1-.39c.36-.07.67-.3.84-.63l.97-1.92c.08-.16.23-.23.38-.23M8,0C6.56,0,5.26.8,4.61,2.09l-.48.96-1.03.19c-1.35.25-2.46,1.22-2.9,2.53-.44,1.3-.13,2.75.79,3.76l.84.93-.17,1.25c-.14,1.08.19,2.18.91,3,.72.82,1.76,1.3,2.85,1.3.6,0,1.2-.15,1.74-.42l.83-.43.83.43c.54.28,1.14.42,1.74.42,1.09,0,2.13-.47,2.85-1.3.72-.82,1.05-1.91.91-3l-.17-1.25.84-.93c.93-1.02,1.23-2.46.79-3.76-.44-1.3-1.55-2.27-2.9-2.53l-1.03-.19-.48-.96C10.74.8,9.44,0,8,0h0Z"/>
</svg>