<?xml version="1.0" encoding="UTF-8"?>
<svg id="Layer_1" xmlns="http://www.w3.org/2000/svg" version="1.1" viewBox="0 0 16 16">
  <!-- Generator: Adobe Illustrator 30.1.0, SVG Export Plug-In . SVG Version: 2.1.1 Build 136)  -->
  <path d="M8,3.09c.16,0,.32.08.4.25l1.03,2.04c.18.35.51.6.89.67l2.22.42c.35.07.49.49.25.75l-1.62,1.78c-.25.27-.37.64-.32,1.01l.32,2.4c.04.29-.19.51-.45.51-.07,0-.14-.02-.21-.05l-1.94-1c-.18-.09-.38-.14-.57-.14s-.39.05-.57.14l-1.94,1c-.07.03-.14.05-.21.05-.26,0-.48-.23-.45-.51l.32-2.4c.05-.37-.07-.74-.32-1.01l-1.62-1.78c-.24-.26-.1-.68.25-.75l2.22-.42c.38-.07.71-.32.89-.67l1.03-2.04c.08-.17.24-.25.4-.25M8,0C6.65,0,5.44.75,4.84,1.95l-.62,1.23-1.33.25c-1.26.24-2.3,1.14-2.71,2.36-.41,1.22-.12,2.56.74,3.51l1.05,1.15-.2,1.55c-.13,1.01.18,2.03.85,2.8.67.77,1.64,1.21,2.66,1.21.56,0,1.12-.14,1.62-.39l1.1-.57,1.1.57c.5.26,1.06.39,1.62.39,1.02,0,1.99-.44,2.66-1.21.67-.77.98-1.79.85-2.8l-.2-1.55,1.05-1.15c.86-.95,1.15-2.29.74-3.51-.41-1.22-1.44-2.12-2.71-2.36l-1.33-.25-.62-1.23C10.56.75,9.35,0,8,0h0Z"/>
</svg>