<?xml version="1.0" encoding="UTF-8"?>
<svg id="Layer_1" xmlns="http://www.w3.org/2000/svg" version="1.1" viewBox="0 0 116 116">
  <!-- Generator: Adobe Illustrator 30.1.0, SVG Export Plug-In . SVG Version: 2.1.1 Build 136)  -->
  <path d="M58,22.4c1.16,0,2.31.6,2.92,1.8l7.45,14.78c1.28,2.54,3.66,4.33,6.45,4.85l16.11,3.02c2.52.47,3.54,3.53,1.81,5.43l-11.74,12.88c-1.81,1.99-2.65,4.68-2.3,7.34l2.29,17.37c.27,2.07-1.38,3.71-3.24,3.71-.49,0-1-.12-1.49-.37l-14.09-7.26c-1.31-.67-2.73-1.01-4.16-1.01s-2.86.34-4.16,1.01l-14.09,7.26c-.49.25-1,.37-1.49.37-1.86,0-3.51-1.64-3.24-3.71l2.29-17.37c.35-2.67-.49-5.35-2.3-7.34l-11.74-12.88c-1.73-1.9-.71-4.96,1.81-5.43l16.11-3.02c2.79-.52,5.17-2.32,6.45-4.85l7.45-14.79c.6-1.2,1.76-1.8,2.92-1.8M58,0C48.25,0,39.46,5.41,35.07,14.12l-4.49,8.91-9.64,1.81c-9.14,1.71-16.66,8.26-19.61,17.08-2.96,8.83-.9,18.58,5.37,25.46l7.58,8.32-1.48,11.26c-.97,7.34,1.27,14.73,6.14,20.28,4.88,5.57,11.92,8.76,19.31,8.76,4.06,0,8.13-.99,11.75-2.85l8-4.12,8,4.12c3.63,1.87,7.69,2.85,11.75,2.85,7.39,0,14.43-3.19,19.31-8.76,4.87-5.55,7.11-12.95,6.14-20.28l-1.48-11.25,7.58-8.32c6.27-6.88,8.33-16.63,5.37-25.46-2.96-8.82-10.47-15.37-19.61-17.08l-9.64-1.81-4.49-8.91C76.54,5.41,67.75,0,58,0h0Z"/>
</svg>