<?xml version="1.0" encoding="UTF-8"?>
<svg id="Layer_1" xmlns="http://www.w3.org/2000/svg" version="1.1" viewBox="0 0 116 116">
  <!-- Generator: Adobe Illustrator 30.1.0, SVG Export Plug-In . SVG Version: 2.1.1 Build 136)  -->
  <path d="M58,8.05c1.62,0,3.25.84,4.1,2.53l10.45,20.74c1.79,3.56,5.14,6.08,9.05,6.81l22.61,4.24c3.53.66,4.97,4.96,2.54,7.62l-16.47,18.08c-2.54,2.79-3.72,6.56-3.23,10.31l3.21,24.37c.38,2.91-1.93,5.21-4.55,5.21-.69,0-1.41-.16-2.1-.52l-19.78-10.18c-1.83-.94-3.84-1.42-5.84-1.42s-4.01.47-5.84,1.42l-19.78,10.18c-.69.36-1.4.52-2.1.52-2.61,0-4.93-2.3-4.55-5.21l3.22-24.38c.49-3.74-.69-7.51-3.23-10.29l-16.47-18.08c-2.43-2.66-.99-6.96,2.55-7.63l22.61-4.24c3.91-.73,7.25-3.25,9.05-6.81l10.45-20.75c.85-1.68,2.47-2.53,4.1-2.53M58,0C53.2,0,48.88,2.66,46.71,6.95l-10.45,20.75c-.66,1.31-1.91,2.25-3.34,2.52l-22.61,4.24c-4.5.84-8.2,4.07-9.66,8.41-1.46,4.35-.44,9.16,2.64,12.54l16.47,18.08c.94,1.04,1.38,2.43,1.2,3.82l-3.22,24.38c-.48,3.62.62,7.25,3.01,9.98,2.41,2.75,5.88,4.33,9.51,4.33,1.99,0,3.99-.49,5.78-1.41l19.78-10.18c.66-.34,1.41-.52,2.16-.52s1.49.18,2.16.52l19.78,10.18c1.79.92,3.79,1.41,5.78,1.41,3.63,0,7.1-1.58,9.51-4.33,2.39-2.73,3.49-6.37,3.01-9.98l-3.21-24.37c-.18-1.4.25-2.79,1.2-3.83l16.47-18.08c3.09-3.39,4.1-8.19,2.64-12.54-1.46-4.34-5.15-7.57-9.65-8.41l-22.61-4.24c-1.43-.27-2.69-1.21-3.35-2.52l-10.45-20.74C67.12,2.66,62.8,0,58,0h0Z"/>
</svg>