<?xml version="1.0" encoding="UTF-8"?>
<svg id="Layer_1" xmlns="http://www.w3.org/2000/svg" version="1.1" viewBox="0 0 106 106">
  <!-- Generator: Adobe Illustrator 30.1.0, SVG Export Plug-In . SVG Version: 2.1.1 Build 136)  -->
  <circle id="Outer" cx="53" cy="53" r="44.64" fill="none" stroke="#000" stroke-width="16.73"/>
  <g>
    <g>
      <rect x="49.63" y="67.65" width="6.68" height="6.68"/>
      <path d="M54.99,68.98v4.03h-4.03v-4.03h4.03M57.64,66.33h-9.33v9.33h9.33v-9.33h0Z"/>
    </g>
    <g>
      <path d="M49.65,60.9l-.03-2.84c0-2.25.84-4.4,2.34-6.05l3.99-4.42c.87-.97,1.35-2.21,1.35-3.51,0-1.65-1.36-2.99-3.03-2.99h-2.56c-1.67,0-3.03,1.34-3.03,2.99v1.33h-6.72v-1.33c0-5.34,4.37-9.68,9.74-9.68h2.56c5.37,0,9.74,4.34,9.74,9.68,0,2.95-1.09,5.78-3.08,7.98l-3.99,4.42c-.41.45-.62.99-.62,1.57l-.03,2.85h-6.65Z"/>
      <path d="M54.28,35.72c4.64,0,8.42,3.75,8.42,8.36,0,2.62-.97,5.14-2.73,7.09l-3.99,4.42c-.62.68-.96,1.53-.96,2.46l-.02,1.52h-4.03v-1.52c0-1.91.7-3.73,1.98-5.15l3.99-4.42c1.09-1.21,1.69-2.77,1.69-4.4,0-2.38-1.95-4.32-4.35-4.32h-2.56c-2.4,0-4.35,1.94-4.35,4.32h-4.07c0-4.61,3.78-8.36,8.42-8.36h2.56M54.28,33.07h-2.56c-6.1,0-11.07,4.94-11.07,11.01v2.65h9.37v-2.65c0-.92.76-1.67,1.7-1.67h2.56c.94,0,1.7.75,1.7,1.67,0,.97-.36,1.9-1.01,2.62l-3.99,4.42c-1.72,1.9-2.67,4.36-2.68,6.92v1.56s.04,2.63.04,2.63h9.28l.03-2.62.02-1.52c0-.27.09-.5.28-.7l3.99-4.43c2.2-2.44,3.42-5.59,3.42-8.87,0-6.07-4.96-11.01-11.07-11.01h0Z"/>
    </g>
  </g>
</svg>