<?xml version="1.0" encoding="UTF-8"?>
<svg id="Layer_1" xmlns="http://www.w3.org/2000/svg" version="1.1" viewBox="0 0 106 106">
  <!-- Generator: Adobe Illustrator 30.1.0, SVG Export Plug-In . SVG Version: 2.1.1 Build 136)  -->
  <circle id="Outer" cx="53" cy="53" r="41.84" fill="none" stroke="#000" stroke-width="22.33"/>
  <g>
    <g>
      <rect x="49.57" y="65.49" width="6.8" height="6.8"/>
      <path d="M54.56,67.31v3.16h-3.16v-3.16h3.16M58.2,63.67h-10.45v10.45h10.45v-10.45h0Z"/>
    </g>
    <g>
      <path d="M49.6,59.45l-.03-3c0-1.97.73-3.83,2.04-5.28l3.13-3.47c.55-.61.86-1.4.86-2.23,0-.86-.71-1.57-1.59-1.57h-2.01c-.88,0-1.59.7-1.59,1.57v1.82h-6.83v-1.82c0-4.62,3.78-8.37,8.42-8.37h2.01c4.64,0,8.42,3.76,8.42,8.37,0,2.51-.93,4.92-2.61,6.78l-3.13,3.47c-.19.21-.29.45-.29.71l-.03,3.01h-6.77Z"/>
      <path d="M54.01,38.92c3.64,0,6.6,2.94,6.6,6.55,0,2.06-.76,4.03-2.14,5.56l-3.13,3.47c-.48.54-.75,1.2-.76,1.92v1.2h-3.17v-1.2c0-1.5.55-2.93,1.55-4.04l3.13-3.47c.86-.95,1.33-2.17,1.33-3.45,0-1.87-1.53-3.39-3.41-3.39h-2.01c-1.88,0-3.41,1.52-3.41,3.39h-3.19c0-3.61,2.96-6.55,6.6-6.55h2.01M54.01,35.28h-2.01c-5.65,0-10.24,4.57-10.24,10.2v3.64h9.25l-.75.83c-1.61,1.78-2.5,4.07-2.5,6.47v1.24s.04,3.61.04,3.61h10.38l.04-3.61v-.92s2.96-3.27,2.96-3.27c1.99-2.2,3.08-5.04,3.08-8,0-5.62-4.6-10.2-10.24-10.2h0ZM52.23,45.73h1.52c-.05.28-.17.54-.37.75l-1.16,1.28v-2.03h0Z"/>
    </g>
  </g>
</svg>