<?xml version="1.0" encoding="UTF-8"?>
<svg id="Layer_1" xmlns="http://www.w3.org/2000/svg" version="1.1" viewBox="0 0 106 106">
  <!-- Generator: Adobe Illustrator 30.1.0, SVG Export Plug-In . SVG Version: 2.1.1 Build 136)  -->
  <circle id="Outer" cx="53" cy="53" r="42.76" fill="none" stroke="#000" stroke-width="20.47"/>
  <g>
    <g>
      <rect x="49.6" y="66.21" width="6.75" height="6.75"/>
      <path d="M54.69,67.87v3.44h-3.44v-3.44h3.44M58.01,64.56h-10.07v10.07h10.07v-10.07h0Z"/>
    </g>
    <g>
      <path d="M49.62,59.9l-.03-2.94c0-2.06.76-4.01,2.13-5.52l3.41-3.77c.66-.73,1.02-1.67,1.02-2.64,0-1.12-.92-2.03-2.06-2.03h-2.19c-1.13,0-2.06.91-2.06,2.03v1.66h-6.78v-1.66c0-4.85,3.97-8.79,8.84-8.79h2.19c4.87,0,8.84,3.94,8.84,8.79,0,2.65-.98,5.19-2.76,7.16l-3.41,3.78c-.26.29-.39.62-.4.99l-.03,2.95h-6.72Z"/>
      <path d="M54.09,37.89c3.96,0,7.18,3.2,7.18,7.13,0,2.24-.83,4.39-2.33,6.05l-3.41,3.78c-.53.58-.82,1.31-.82,2.1v1.3h-3.45v-1.3c0-1.63.6-3.18,1.69-4.4l3.41-3.77c.93-1.03,1.45-2.37,1.45-3.75,0-2.03-1.67-3.69-3.71-3.69h-2.19c-2.05,0-3.71,1.65-3.71,3.69h-3.47c0-3.93,3.22-7.13,7.18-7.13h2.19M54.09,34.57h-2.19c-5.79,0-10.5,4.69-10.5,10.45v3.31h10.1v-3.31c0-.2.18-.37.4-.37h2.19c.22,0,.4.17.4.37,0,.57-.21,1.11-.59,1.53l-3.41,3.77c-1.64,1.81-2.55,4.16-2.56,6.61v1.34s.04,3.28.04,3.28h10l.03-3.28v-1.24s3.39-3.74,3.39-3.74c2.05-2.28,3.19-5.21,3.19-8.27,0-5.76-4.71-10.45-10.5-10.45h0Z"/>
    </g>
  </g>
</svg>