<?xml version="1.0" encoding="UTF-8"?>
<svg id="Layer_1" xmlns="http://www.w3.org/2000/svg" version="1.1" viewBox="0 0 106 106">
  <!-- Generator: Adobe Illustrator 30.1.0, SVG Export Plug-In . SVG Version: 2.1.1 Build 136)  -->
  <circle id="Outer" cx="53" cy="53" r="48.4" fill="none" stroke="#000" stroke-width="9.21"/>
  <g>
    <g>
      <rect x="49.65" y="70.5" width="6.64" height="6.63"/>
      <path d="M55.62,71.16v5.31h-5.31v-5.31h5.31M56.95,69.84h-7.96v7.96h7.96v-7.96h0Z"/>
    </g>
    <g>
      <path d="M49.66,63.18l-.02-2.66c0-2.68,1-5.25,2.8-7.24l5.26-5.83c1.33-1.47,2.06-3.37,2.06-5.35,0-2.77-2.27-5.03-5.07-5.03h-3.38c-2.79,0-5.07,2.26-5.07,5.03v.66h-6.68v-.66c0-6.44,5.27-11.67,11.75-11.67h3.38c6.48,0,11.75,5.24,11.75,11.67,0,3.62-1.34,7.09-3.77,9.79l-5.26,5.83c-.72.79-1.1,1.76-1.1,2.79l-.03,2.67h-6.62Z"/>
      <path d="M54.69,31.1c6.11,0,11.09,4.94,11.09,11.01,0,3.45-1.28,6.77-3.6,9.34l-5.26,5.83c-.81.9-1.27,2.02-1.27,3.23l-.02,2.01h-5.31l-.02-2.01c0-2.52.94-4.91,2.63-6.79l5.26-5.83c1.44-1.59,2.23-3.65,2.23-5.79,0-3.14-2.57-5.69-5.73-5.69h-3.38c-3.16,0-5.73,2.55-5.73,5.69h-5.36c0-6.07,4.97-11.01,11.09-11.01h3.38M54.69,29.77h-3.38c-6.84,0-12.41,5.53-12.41,12.34v1.33h8.01v-1.33c0-2.41,1.98-4.37,4.41-4.37h3.38c2.43,0,4.41,1.96,4.41,4.37,0,1.81-.67,3.55-1.89,4.9l-5.26,5.83c-1.91,2.11-2.96,4.83-2.97,7.67l.02,2.02v1.31h7.95v-1.31s.03-2.01.03-2.01c0-.88.32-1.69.93-2.36l5.26-5.83c2.54-2.82,3.94-6.45,3.94-10.23,0-6.8-5.57-12.34-12.41-12.34h0Z"/>
    </g>
  </g>
</svg>