<?xml version="1.0" encoding="UTF-8"?>
<svg id="Layer_1" xmlns="http://www.w3.org/2000/svg" version="1.1" viewBox="0 0 106 106">
  <!-- Generator: Adobe Illustrator 30.1.0, SVG Export Plug-In . SVG Version: 2.1.1 Build 136)  -->
  <circle id="Outer" cx="53" cy="53" r="49.32" fill="none" stroke="#000" stroke-width="7.35"/>
  <g>
    <g>
      <rect x="49.65" y="71.2" width="6.64" height="6.64"/>
      <path d="M55.79,71.69v5.64h-5.64v-5.64h5.64M56.78,70.7h-7.63v7.63h7.63v-7.63h0Z"/>
    </g>
    <g>
      <path d="M49.66,63.79l-.02-2.63c.01-2.8,1.05-5.48,2.92-7.55l5.59-6.19c1.45-1.6,2.25-3.67,2.25-5.82,0-3.06-2.51-5.55-5.59-5.55h-3.59c-3.08,0-5.59,2.49-5.59,5.55v.5h-6.69v-.5c0-6.73,5.51-12.2,12.28-12.2h3.59c6.77,0,12.28,5.47,12.28,12.2,0,3.79-1.4,7.44-3.95,10.26l-5.59,6.19c-.8.88-1.22,1.95-1.22,3.11l-.03,2.63h-6.63Z"/>
      <path d="M54.8,29.9c6.5,0,11.78,5.25,11.78,11.7,0,3.67-1.36,7.2-3.83,9.93l-5.59,6.19c-.87.96-1.35,2.15-1.35,3.44l-.02,2.13h-5.64l-.02-2.13c0-2.67,1-5.22,2.8-7.21l5.59-6.19c1.53-1.69,2.37-3.88,2.37-6.16,0-3.33-2.73-6.05-6.09-6.05h-3.59c-3.36,0-6.09,2.71-6.09,6.05h-5.69c0-6.45,5.29-11.7,11.78-11.7h3.59M54.8,28.91h-3.59c-7.05,0-12.78,5.69-12.78,12.69v.99h7.68v-.99c0-2.79,2.29-5.05,5.1-5.05h3.59c2.81,0,5.1,2.27,5.1,5.05,0,2.03-.75,3.98-2.12,5.49l-5.59,6.19c-1.96,2.16-3.04,4.96-3.05,7.88l.02,2.15v.98h7.62v-.98s.03-2.13.03-2.13c0-1.03.38-1.99,1.09-2.78l5.59-6.19c2.63-2.92,4.08-6.68,4.08-10.59,0-7-5.73-12.69-12.78-12.69h0Z"/>
    </g>
  </g>
</svg>