<?xml version="1.0" encoding="UTF-8"?>
<svg id="Layer_1" xmlns="http://www.w3.org/2000/svg" version="1.1" viewBox="0 0 106 106">
  <!-- Generator: Adobe Illustrator 30.1.0, SVG Export Plug-In . SVG Version: 2.1.1 Build 136)  -->
  <circle id="Outer" cx="53" cy="53" r="46.52" fill="none" stroke="#000" stroke-width="12.95"/>
  <g>
    <g>
      <rect x="49.65" y="69.09" width="6.65" height="6.65"/>
      <path d="M55.3,70.08v4.66h-4.66v-4.66h4.66M57.29,68.1h-8.63v8.63h8.63v-8.63h0Z"/>
    </g>
    <g>
      <path d="M49.66,62l-.02-2.75c0-2.46.92-4.81,2.56-6.63l4.61-5.11c1.1-1.22,1.7-2.78,1.7-4.42,0-2.21-1.81-4-4.03-4h-2.96c-2.22,0-4.03,1.79-4.03,4v.99h-6.69v-.99c0-5.87,4.81-10.65,10.72-10.65h2.96c5.91,0,10.72,4.78,10.72,10.65,0,3.28-1.21,6.42-3.42,8.86l-4.61,5.11c-.56.62-.86,1.37-.86,2.17l-.03,2.75h-6.63Z"/>
      <path d="M54.48,33.44c5.36,0,9.73,4.33,9.73,9.66,0,3.03-1.12,5.94-3.16,8.2l-4.62,5.11c-.71.79-1.11,1.77-1.11,2.84l-.02,1.76h-4.66l-.02-1.76c0-2.21.82-4.31,2.31-5.95l4.61-5.11c1.26-1.4,1.96-3.2,1.96-5.08,0-2.75-2.26-4.99-5.03-4.99h-2.96c-2.77,0-5.03,2.24-5.03,4.99h-4.7c0-5.33,4.36-9.66,9.73-9.66h2.96M54.48,31.45h-2.96c-6.46,0-11.72,5.22-11.72,11.65v1.99h8.67v-1.99c0-1.66,1.36-3.01,3.04-3.01h2.96c1.68,0,3.04,1.35,3.04,3.01,0,1.39-.51,2.72-1.45,3.75l-4.61,5.11c-1.81,2-2.81,4.58-2.82,7.28l.02,1.79.02,1.97h8.6l.02-1.97.02-1.76c0-.58.2-1.09.6-1.52l4.62-5.11c2.37-2.62,3.67-6.01,3.67-9.53,0-6.42-5.26-11.65-11.72-11.65h0Z"/>
    </g>
  </g>
</svg>