<?xml version="1.0" encoding="UTF-8"?>
<svg id="Layer_1" xmlns="http://www.w3.org/2000/svg" version="1.1" viewBox="0 0 96 96">
  <!-- Generator: Adobe Illustrator 30.1.0, SVG Export Plug-In . SVG Version: 2.1.1 Build 136)  -->
  <path d="M48,15.15c1.07,0,2.14.55,2.69,1.66l6.87,13.64c1.18,2.34,3.38,4,5.95,4.48l14.87,2.79c2.32.44,3.27,3.26,1.67,5.01l-10.83,11.89c-1.67,1.83-2.45,4.31-2.12,6.78l2.11,16.03c.25,1.91-1.27,3.43-2.99,3.43-.46,0-.93-.11-1.38-.34l-13-6.7c-1.21-.62-2.52-.93-3.84-.93s-2.64.31-3.84.93l-13,6.7c-.45.23-.92.34-1.38.34-1.72,0-3.24-1.51-2.99-3.43l2.11-16.03c.32-2.46-.45-4.94-2.12-6.77l-10.83-11.89c-1.6-1.75-.65-4.58,1.67-5.01l14.87-2.79c2.57-.48,4.77-2.14,5.95-4.48l6.87-13.64c.56-1.11,1.63-1.66,2.69-1.66M48,0C41.1,0,34.88,3.83,31.77,10l-5.37,10.66-11.58,2.17c-6.47,1.21-11.79,5.85-13.88,12.09-2.09,6.25-.64,13.15,3.8,18.02l8.72,9.57-1.71,12.93c-.68,5.19.9,10.42,4.34,14.35,3.46,3.94,8.44,6.21,13.67,6.21,2.87,0,5.75-.7,8.32-2.02l9.91-5.1,9.91,5.1c2.57,1.32,5.44,2.02,8.32,2.02,5.23,0,10.21-2.26,13.67-6.21,3.44-3.93,5.03-9.16,4.34-14.35l-1.71-12.93,8.73-9.58c4.44-4.87,5.89-11.77,3.8-18.02-2.09-6.24-7.41-10.88-13.88-12.09l-11.58-2.17-5.37-10.66C61.12,3.83,54.9,0,48,0h0Z"/>
</svg>