<?xml version="1.0" encoding="UTF-8"?>
<svg id="Layer_1" xmlns="http://www.w3.org/2000/svg" version="1.1" viewBox="0 0 96 96">
  <!-- Generator: Adobe Illustrator 30.1.0, SVG Export Plug-In . SVG Version: 2.1.1 Build 136)  -->
  <path d="M48,20.22c.9,0,1.81.47,2.28,1.41l5.81,11.54c1,1.98,2.86,3.38,5.03,3.79l12.57,2.36c1.97.37,2.76,2.76,1.41,4.24l-9.16,10.05c-1.41,1.55-2.07,3.65-1.8,5.73l1.79,13.55c.21,1.62-1.08,2.9-2.53,2.9-.39,0-.78-.09-1.17-.29l-11-5.66c-1.02-.53-2.13-.79-3.25-.79s-2.23.26-3.25.79l-11,5.66c-.38.2-.78.29-1.17.29-1.45,0-2.74-1.28-2.53-2.9l1.79-13.56c.27-2.08-.38-4.18-1.79-5.72l-9.16-10.05c-1.35-1.48-.55-3.87,1.42-4.24l12.57-2.36c2.17-.41,4.03-1.81,5.03-3.79l5.81-11.54c.47-.94,1.38-1.41,2.28-1.41M48,0C39.35,0,31.56,4.8,27.66,12.53l-2.89,5.74-6.19,1.16c-8.11,1.52-14.78,7.33-17.4,15.15-2.62,7.83-.8,16.48,4.76,22.58l5.06,5.55-.99,7.52c-.86,6.51,1.13,13.06,5.45,17.99,4.33,4.94,10.57,7.77,17.13,7.77,3.6,0,7.21-.88,10.42-2.53l4.99-2.57,4.99,2.57c3.22,1.66,6.82,2.53,10.42,2.53,6.56,0,12.8-2.83,17.13-7.77,4.32-4.93,6.3-11.48,5.45-17.99l-.99-7.52,5.06-5.55c5.56-6.1,7.38-14.75,4.76-22.58-2.62-7.83-9.29-13.63-17.4-15.15l-6.19-1.16-2.89-5.74C64.44,4.8,56.65,0,48,0h0Z"/>
</svg>