<?xml version="1.0" encoding="UTF-8"?>
<svg id="Layer_1" xmlns="http://www.w3.org/2000/svg" version="1.1" viewBox="0 0 96 96">
  <!-- Generator: Adobe Illustrator 30.1.0, SVG Export Plug-In . SVG Version: 2.1.1 Build 136)  -->
  <path d="M48,18.54c.96,0,1.92.5,2.42,1.49l6.16,12.23c1.06,2.1,3.03,3.58,5.34,4.02l13.33,2.5c2.08.39,2.93,2.92,1.5,4.49l-9.71,10.66c-1.5,1.64-2.2,3.87-1.9,6.08l1.9,14.37c.23,1.71-1.14,3.07-2.68,3.07-.41,0-.83-.1-1.24-.31l-11.66-6.01c-1.08-.56-2.26-.84-3.44-.84-1.18,0-2.36.28-3.44.84l-11.66,6.01c-.41.21-.83.31-1.24.31-1.54,0-2.91-1.36-2.68-3.07l1.9-14.38c.29-2.21-.41-4.43-1.9-6.07l-9.72-10.66c-1.43-1.57-.58-4.11,1.5-4.5l13.33-2.5c2.31-.43,4.28-1.92,5.33-4.01l6.16-12.24c.5-.99,1.46-1.49,2.42-1.49M48,0C39.93,0,32.66,4.48,29.03,11.69l-3.71,7.37-7.97,1.49c-7.57,1.42-13.79,6.84-16.23,14.14-2.45,7.3-.74,15.38,4.44,21.07l6.27,6.88-1.23,9.31c-.8,6.07,1.05,12.19,5.08,16.78,4.04,4.61,9.87,7.25,15.98,7.25,3.36,0,6.72-.82,9.73-2.36l6.62-3.41,6.62,3.41c3,1.55,6.36,2.36,9.73,2.36,6.12,0,11.94-2.64,15.98-7.25,4.03-4.6,5.88-10.71,5.08-16.78l-1.23-9.31,6.27-6.89c5.19-5.69,6.89-13.77,4.44-21.07-2.45-7.3-8.67-12.72-16.23-14.14l-7.98-1.5-3.71-7.37C63.34,4.48,56.07,0,48,0h0Z"/>
</svg>