<?xml version="1.0" encoding="UTF-8"?>
<svg id="Layer_1" xmlns="http://www.w3.org/2000/svg" version="1.1" viewBox="0 0 14 14">
  <!-- Generator: Adobe Illustrator 30.1.0, SVG Export Plug-In . SVG Version: 2.1.1 Build 136)  -->
  <circle id="Outer" cx="7" cy="7" r="5.53" fill="none" stroke="#000" stroke-width="2.95"/>
  <g>
    <g>
      <rect x="6.55" y="8.65" width=".9" height=".9"/>
      <path d="M7.21,8.89v.42h-.42v-.42h.42M7.69,8.41h-1.38v1.38h1.38v-1.38h0Z"/>
    </g>
    <g>
      <path d="M6.55,7.85v-.4c0-.26.09-.51.27-.7l.41-.46c.07-.08.11-.19.11-.29,0-.11-.09-.21-.21-.21h-.27c-.12,0-.21.09-.21.21v.24h-.9v-.24c0-.61.5-1.11,1.11-1.11h.27c.61,0,1.11.5,1.11,1.11,0,.33-.12.65-.34.9l-.41.46s-.04.06-.04.09v.4h-.9Z"/>
      <path d="M7.13,5.14c.48,0,.87.39.87.87,0,.27-.1.53-.28.73l-.41.46c-.06.07-.1.16-.1.25v.16h-.42v-.16c0-.2.07-.39.21-.53l.41-.46c.11-.13.18-.29.18-.46,0-.25-.2-.45-.45-.45h-.27c-.25,0-.45.2-.45.45h-.42c0-.48.39-.87.87-.87h.27M7.13,4.66h-.27c-.75,0-1.35.6-1.35,1.35v.48h1.22l-.1.11c-.21.23-.33.54-.33.85v.16s0,.48,0,.48h1.37v-.48s0-.12,0-.12l.39-.43c.26-.29.41-.67.41-1.06,0-.74-.61-1.35-1.35-1.35h0ZM6.9,6.31v-.3l.23.03s-.05.06-.08.1l-.15.17h0Z"/>
    </g>
  </g>
</svg>