<?xml version="1.0" encoding="UTF-8"?>
<svg id="Layer_1" xmlns="http://www.w3.org/2000/svg" version="1.1" viewBox="0 0 14 14">
  <!-- Generator: Adobe Illustrator 30.1.0, SVG Export Plug-In . SVG Version: 2.1.1 Build 136)  -->
  <circle id="Outer" cx="7" cy="7" r="5.9" fill="none" stroke="#000" stroke-width="2.21"/>
  <g>
    <g>
      <rect x="6.56" y="8.94" width=".88" height=".88"/>
      <path d="M7.26,9.11v.53h-.53v-.53h.53M7.61,8.76h-1.23v1.23h1.23v-1.23h0Z"/>
    </g>
    <g>
      <path d="M6.56,8.04v-.37c0-.3.11-.58.31-.8l.53-.58c.12-.13.18-.29.18-.46,0-.22-.18-.4-.4-.4h-.34c-.22,0-.4.18-.4.4v.17h-.89v-.17c0-.71.58-1.28,1.29-1.28h.34c.71,0,1.29.57,1.29,1.28,0,.39-.14.76-.41,1.05l-.53.58c-.05.06-.08.13-.08.21v.38h-.88Z"/>
      <path d="M7.17,4.72c.61,0,1.11.5,1.11,1.1,0,.35-.13.68-.36.94l-.53.58c-.08.09-.13.2-.13.32v.2h-.53v-.2c0-.25.09-.49.26-.68l.53-.58c.14-.16.22-.37.22-.58,0-.31-.26-.57-.57-.57h-.34c-.32,0-.57.26-.57.57h-.54c0-.61.5-1.1,1.11-1.1h.34M7.17,4.37h-.34c-.81,0-1.46.65-1.46,1.45v.35h1.24v-.35c0-.12.1-.22.22-.22h.34c.12,0,.22.1.22.22,0,.13-.05.25-.13.35l-.53.58c-.23.25-.35.58-.35.91v.21s0,.35,0,.35h1.23v-.35s0-.2,0-.2c0-.04.01-.07.04-.09l.53-.58c.29-.32.45-.74.45-1.17,0-.8-.66-1.45-1.46-1.45h0Z"/>
    </g>
  </g>
</svg>