<?xml version="1.0" encoding="UTF-8"?>
<svg id="Layer_1" xmlns="http://www.w3.org/2000/svg" version="1.1" viewBox="0 0 14 14">
  <!-- Generator: Adobe Illustrator 30.1.0, SVG Export Plug-In . SVG Version: 2.1.1 Build 136)  -->
  <circle id="Outer" cx="7" cy="7" r="6.51" fill="none" stroke="#000" stroke-width=".97"/>
  <g>
    <g>
      <polygon points="6.62 10.28 6.56 9.47 7.37 9.4 7.43 10.21 7.43 10.28 6.62 10.28"/>
      <path d="M7.37,9.47v.75h-.75v-.75h.75M7.5,9.34h-1.01v1.01h1.01v-1.01h0Z"/>
    </g>
    <g>
      <path d="M6.62,8.43l-.07-.35c0-.37.14-.72.39-1l.74-.82c.19-.21.3-.48.3-.77,0-.4-.33-.73-.74-.73h-.47c-.41,0-.74.33-.74.73l-.82.07c-.07-.95.66-1.68,1.56-1.68h.47c.89,0,1.62.72,1.62,1.61,0,.5-.19.98-.52,1.35l-.74.82c-.1.12-.16.26-.16.41v.35h-.81Z"/>
      <path d="M7.24,3.95c.86,0,1.56.69,1.56,1.55,0,.48-.18.95-.51,1.31l-.74.82c-.11.13-.18.28-.18.45v.28h-.75v-.28c0-.35.13-.69.37-.95l.74-.82c.2-.22.31-.51.31-.81,0-.44-.36-.8-.8-.8h-.47c-.44,0-.8.36-.8.8h-.75c0-.85.7-1.55,1.56-1.55h.47M7.24,3.82h-.47c-.93,0-1.69.75-1.69,1.68v.13h1.01v-.13c0-.37.3-.67.67-.67h.47c.37,0,.67.3.67.67,0,.27-.1.53-.28.73l-.74.82c-.26.29-.4.66-.4,1.04v.28s0,.13,0,.13h1.01v-.13s0-.28,0-.28c0-.14.05-.26.14-.37l.74-.82c.35-.39.54-.88.54-1.4,0-.92-.76-1.68-1.69-1.68h0Z"/>
    </g>
  </g>
</svg>