<?xml version="1.0" encoding="UTF-8"?>
<svg id="Layer_1" xmlns="http://www.w3.org/2000/svg" version="1.1" viewBox="0 0 14 14">
  <!-- Generator: Adobe Illustrator 30.1.0, SVG Export Plug-In . SVG Version: 2.1.1 Build 136)  -->
  <circle id="Outer" cx="7" cy="7" r="6.39" fill="none" stroke="#000" stroke-width="1.22"/>
  <g>
    <g>
      <rect x="6.56" y="9.31" width=".88" height=".88"/>
      <path d="M7.35,9.4v.7h-.7v-.7h.7M7.52,9.22h-1.05v1.05h1.05v-1.05h0Z"/>
    </g>
    <g>
      <path d="M6.56,8.35v-.35c0-.35.13-.69.37-.96l.69-.77c.18-.19.27-.44.27-.71,0-.37-.3-.66-.67-.66h-.45c-.37,0-.67.3-.67.66v.09h-.88v-.09c0-.85.7-1.54,1.55-1.54h.45c.86,0,1.55.69,1.55,1.54,0,.48-.18.94-.5,1.29l-.7.77c-.09.1-.14.23-.15.37v.35h-.88Z"/>
      <path d="M7.22,4.11c.81,0,1.46.65,1.46,1.45,0,.46-.17.89-.48,1.23l-.69.77c-.11.12-.17.27-.17.43v.27h-.7v-.27c0-.33.12-.65.35-.9l.69-.77c.19-.21.29-.48.29-.77,0-.41-.34-.75-.76-.75h-.45c-.42,0-.76.34-.76.75h-.71c0-.8.66-1.45,1.46-1.45h.45M7.22,3.93h-.45c-.9,0-1.64.73-1.64,1.63v.18h1.06v-.18c0-.32.26-.58.58-.58h.45c.32,0,.58.26.58.58,0,.24-.09.47-.25.65l-.69.77c-.25.28-.39.64-.39,1.01v.27s0,.17,0,.17h1.05v-.17s0-.27,0-.27c0-.12.04-.22.12-.31l.69-.77c.34-.37.52-.85.52-1.35,0-.9-.74-1.63-1.64-1.63h0Z"/>
    </g>
  </g>
</svg>