<?xml version="1.0" encoding="UTF-8"?>
<svg id="Layer_1" xmlns="http://www.w3.org/2000/svg" version="1.1" viewBox="0 0 14 14">
  <!-- Generator: Adobe Illustrator 30.1.0, SVG Export Plug-In . SVG Version: 2.1.1 Build 136)  -->
  <circle id="Outer" cx="7" cy="7" r="5.65" fill="none" stroke="#000" stroke-width="2.7"/>
  <g>
    <g>
      <rect x="6.55" y="8.75" width=".89" height=".89"/>
      <path d="M7.22,8.96v.45h-.45v-.45h.45M7.66,8.53h-1.33v1.33h1.33v-1.33h0Z"/>
    </g>
    <g>
      <path d="M6.55,7.91v-.39c0-.27.1-.53.28-.73l.45-.5c.09-.1.13-.22.13-.35,0-.15-.12-.27-.27-.27h-.29c-.15,0-.27.12-.27.27v.22h-.9v-.22c0-.64.52-1.16,1.17-1.16h.29c.64,0,1.17.52,1.17,1.16,0,.35-.13.69-.36.95l-.45.5s-.05.08-.05.13v.39h-.89Z"/>
      <path d="M7.14,5c.52,0,.95.42.95.94,0,.3-.11.58-.31.8l-.45.5c-.07.08-.11.17-.11.28v.17h-.46v-.17c0-.22.08-.42.22-.58l.45-.5c.12-.14.19-.31.19-.5,0-.27-.22-.49-.49-.49h-.29c-.27,0-.49.22-.49.49h-.46c0-.52.43-.94.95-.94h.29M7.14,4.57h-.29c-.76,0-1.39.62-1.39,1.38v.44h1.33v-.44s.02-.05.05-.05h.29s.05.02.05.05c0,.07-.03.15-.08.2l-.45.5c-.22.24-.34.55-.34.87v.18s0,.43,0,.43h1.32v-.43s0-.17,0-.17l.45-.49c.27-.3.42-.69.42-1.09,0-.76-.62-1.38-1.39-1.38h0Z"/>
    </g>
  </g>
</svg>