<?xml version="1.0" encoding="UTF-8"?>
<svg id="Layer_1" xmlns="http://www.w3.org/2000/svg" version="1.1" viewBox="0 0 14 14">
  <!-- Generator: Adobe Illustrator 30.1.0, SVG Export Plug-In . SVG Version: 2.1.1 Build 136)  -->
  <circle id="Outer" cx="7" cy="7" r="6.14" fill="none" stroke="#000" stroke-width="1.71"/>
  <g>
    <g>
      <rect x="6.56" y="9.12" width=".88" height=".88"/>
      <path d="M7.3,9.26v.62h-.62v-.62h.62M7.57,8.99h-1.14v1.14h1.14v-1.14h0Z"/>
    </g>
    <g>
      <path d="M6.56,8.19v-.36c0-.32.12-.64.34-.88l.61-.68c.15-.16.23-.37.23-.58,0-.29-.24-.53-.53-.53h-.39c-.29,0-.53.24-.53.53v.13h-.88v-.13c0-.78.64-1.41,1.42-1.41h.39c.78,0,1.42.63,1.42,1.41,0,.43-.16.85-.45,1.17l-.61.68c-.07.08-.11.18-.11.29v.36h-.88Z"/>
      <path d="M7.2,4.42c.71,0,1.28.57,1.28,1.28,0,.4-.15.78-.42,1.08l-.61.68c-.09.1-.15.23-.15.37v.23h-.62v-.23c0-.29.11-.57.3-.79l.61-.68c.17-.18.26-.42.26-.67,0-.36-.3-.66-.66-.66h-.39c-.37,0-.66.3-.66.66h-.62c0-.7.58-1.28,1.28-1.28h.39M7.2,4.15h-.39c-.85,0-1.55.69-1.55,1.54v.26h1.15v-.26c0-.22.18-.4.4-.4h.39c.22,0,.4.18.4.4,0,.18-.07.36-.19.5l-.61.68c-.24.26-.37.61-.37.96v.24s0,.26,0,.26h1.14v-.26s0-.23,0-.23c0-.08.03-.14.08-.2l.61-.68c.31-.35.48-.79.48-1.26,0-.85-.69-1.54-1.55-1.54h0Z"/>
    </g>
  </g>
</svg>