<?xml version="1.0" encoding="UTF-8"?>
<svg id="Layer_1" xmlns="http://www.w3.org/2000/svg" version="1.1" viewBox="0 0 15 15">
  <!-- Generator: Adobe Illustrator 30.1.0, SVG Export Plug-In . SVG Version: 2.1.1 Build 136)  -->
  <circle id="Outer" cx="7.5" cy="7.5" r="6.85" fill="none" stroke="#000" stroke-width="1.3"/>
  <g>
    <g>
      <rect x="7.03" y="9.98" width=".94" height=".94"/>
      <path d="M7.87,10.07v.75h-.75v-.75h.75M8.06,9.88h-1.13v1.13h1.13v-1.13h0Z"/>
    </g>
    <g>
      <path d="M7.03,8.94v-.38c0-.38.14-.74.39-1.02l.74-.82c.19-.21.29-.48.29-.76,0-.39-.32-.71-.72-.71h-.48c-.4,0-.72.32-.72.71v.09h-.95v-.09c0-.91.75-1.65,1.66-1.65h.48c.92,0,1.66.74,1.66,1.65,0,.51-.19,1-.53,1.39l-.74.82c-.1.11-.16.25-.16.4v.38h-.94Z"/>
      <path d="M7.74,4.4c.87,0,1.57.7,1.57,1.56,0,.49-.18.96-.51,1.32l-.74.82c-.12.13-.18.29-.18.46v.28h-.75v-.28c0-.36.13-.7.37-.96l.74-.82c.2-.23.32-.52.32-.82,0-.44-.36-.81-.81-.81h-.48c-.45,0-.81.36-.81.81h-.76c0-.86.7-1.56,1.57-1.56h.48M7.74,4.21h-.48c-.97,0-1.76.78-1.76,1.75v.19h1.13v-.19c0-.34.28-.62.62-.62h.48c.34,0,.62.28.62.62,0,.26-.1.5-.27.69l-.74.82c-.27.3-.42.68-.42,1.09v.29s0,.19,0,.19h1.12v-.19s0-.28,0-.28c0-.12.05-.24.13-.33l.74-.82c.36-.4.56-.91.56-1.45,0-.96-.79-1.75-1.76-1.75h0Z"/>
    </g>
  </g>
</svg>