<?xml version="1.0" encoding="UTF-8"?>
<svg id="Layer_1" xmlns="http://www.w3.org/2000/svg" version="1.1" viewBox="0 0 15 15">
  <!-- Generator: Adobe Illustrator 30.1.0, SVG Export Plug-In . SVG Version: 2.1.1 Build 136)  -->
  <circle id="Outer" cx="7.5" cy="7.5" r="6.05" fill="none" stroke="#000" stroke-width="2.9"/>
  <g>
    <g>
      <rect x="7.02" y="9.37" width=".96" height=".96"/>
      <path d="M7.74,9.6v.49h-.49v-.49h.49M8.21,9.14h-1.42v1.42h1.42v-1.42h0Z"/>
    </g>
    <g>
      <path d="M7.02,8.48v-.42c0-.29.1-.57.3-.78l.48-.53c.09-.1.14-.24.14-.37,0-.16-.13-.29-.29-.29h-.31c-.16,0-.29.13-.29.29v.23h-.96v-.23c0-.69.56-1.24,1.25-1.24h.31c.69,0,1.25.56,1.25,1.24,0,.37-.14.73-.39,1.01l-.48.53s-.06.09-.06.14v.42h-.96Z"/>
      <path d="M7.65,5.36c.56,0,1.02.45,1.02,1.01,0,.32-.12.62-.33.86l-.48.53c-.07.08-.12.19-.12.3v.18h-.49v-.18c0-.23.08-.45.24-.62l.48-.53c.13-.15.2-.33.2-.53,0-.29-.24-.52-.53-.52h-.31c-.29,0-.53.23-.53.52h-.49c0-.56.46-1.01,1.02-1.01h.31M7.65,4.89h-.31c-.82,0-1.49.66-1.49,1.48v.47h1.43v-.47s.03-.05.06-.05h.31s.06.02.06.05c0,.08-.03.16-.08.22l-.48.53c-.23.26-.36.59-.36.93v.19s0,.46,0,.46h1.42v-.46s0-.18,0-.18l.48-.52c.29-.32.45-.74.45-1.17,0-.82-.67-1.48-1.49-1.48h0Z"/>
    </g>
  </g>
</svg>