<?xml version="1.0" encoding="UTF-8"?>
<svg id="Layer_1" xmlns="http://www.w3.org/2000/svg" version="1.1" viewBox="0 0 15 15">
  <!-- Generator: Adobe Illustrator 30.1.0, SVG Export Plug-In . SVG Version: 2.1.1 Build 136)  -->
  <circle id="Outer" cx="7.5" cy="7.5" r="6.58" fill="none" stroke="#000" stroke-width="1.83"/>
  <g>
    <g>
      <rect x="7.03" y="9.78" width=".94" height=".94"/>
      <path d="M7.83,9.92v.66h-.66v-.66h.66M8.11,9.64h-1.22v1.22h1.22v-1.22h0Z"/>
    </g>
    <g>
      <path d="M7.03,8.77v-.39c0-.35.13-.68.36-.94l.65-.72c.16-.17.24-.39.24-.62,0-.31-.26-.57-.57-.57h-.42c-.31,0-.57.25-.57.57v.14h-.95v-.14c0-.83.68-1.51,1.52-1.51h.42c.84,0,1.52.68,1.52,1.51,0,.46-.17.91-.48,1.25l-.65.72c-.08.09-.12.19-.12.31v.39h-.94Z"/>
      <path d="M7.71,4.73c.76,0,1.38.61,1.38,1.37,0,.43-.16.84-.45,1.16l-.65.72c-.1.11-.16.25-.16.4v.25h-.66v-.25c0-.31.11-.61.32-.84l.65-.72c.18-.2.28-.45.28-.72,0-.39-.32-.71-.71-.71h-.42c-.39,0-.71.32-.71.71h-.67c0-.75.62-1.37,1.38-1.37h.42M7.71,4.45h-.42c-.91,0-1.66.74-1.66,1.65v.28h1.23v-.28c0-.23.19-.43.43-.43h.42c.24,0,.43.19.43.43,0,.2-.07.38-.2.53l-.65.72c-.26.28-.4.65-.4,1.03v.25s0,.28,0,.28h1.22v-.28s0-.25,0-.25c0-.08.03-.15.09-.22l.65-.72c.33-.37.52-.85.52-1.35,0-.91-.74-1.65-1.66-1.65h0Z"/>
    </g>
  </g>
</svg>