<?xml version="1.0" encoding="UTF-8"?>
<svg id="Layer_1" xmlns="http://www.w3.org/2000/svg" version="1.1" viewBox="0 0 15 15">
  <!-- Generator: Adobe Illustrator 30.1.0, SVG Export Plug-In . SVG Version: 2.1.1 Build 136)  -->
  <circle id="Outer" cx="7.5" cy="7.5" r="6.32" fill="none" stroke="#000" stroke-width="2.37"/>
  <g>
    <g>
      <rect x="7.02" y="9.57" width=".95" height=".95"/>
      <path d="M7.78,9.76v.57h-.57v-.57h.57M8.16,9.39h-1.32v1.32h1.32v-1.32h0Z"/>
    </g>
    <g>
      <path d="M7.03,8.62v-.4c0-.32.12-.62.33-.86l.57-.63c.12-.14.19-.31.19-.5,0-.23-.19-.42-.43-.42h-.36c-.24,0-.43.19-.43.42v.19h-.95v-.19c0-.76.62-1.37,1.38-1.37h.36c.76,0,1.38.61,1.38,1.37,0,.42-.15.82-.44,1.13l-.56.63c-.06.06-.09.14-.09.22v.4h-.95Z"/>
      <path d="M7.68,5.05c.66,0,1.19.53,1.19,1.18,0,.37-.14.73-.39,1l-.57.63c-.09.1-.14.22-.14.35v.22h-.57v-.22c0-.27.1-.53.28-.73l.56-.63c.15-.17.24-.39.24-.62,0-.34-.28-.61-.62-.61h-.36c-.34,0-.62.27-.62.61h-.58c0-.65.53-1.18,1.19-1.18h.36M7.68,4.68h-.36c-.86,0-1.57.7-1.57,1.56v.38h1.33v-.38c0-.13.11-.24.24-.24h.36c.13,0,.24.11.24.24,0,.14-.05.27-.14.37l-.56.63c-.24.27-.38.62-.38.98v.22s0,.37,0,.37h1.31v-.37s0-.22,0-.22c0-.04.01-.07.04-.1l.57-.63c.31-.35.48-.79.48-1.25,0-.86-.7-1.56-1.57-1.56h0Z"/>
    </g>
  </g>
</svg>