<?xml version="1.0" encoding="UTF-8"?>
<svg id="Layer_1" xmlns="http://www.w3.org/2000/svg" version="1.1" viewBox="0 0 15 15">
  <!-- Generator: Adobe Illustrator 30.1.0, SVG Export Plug-In . SVG Version: 2.1.1 Build 136)  -->
  <circle id="Outer" cx="7.5" cy="7.5" r="6.98" fill="none" stroke="#000" stroke-width="1.04"/>
  <g>
    <g>
      <polygon points="7.1 11.01 7.03 10.15 7.89 10.08 7.96 10.94 7.96 11.01 7.1 11.01"/>
      <path d="M7.89,10.15v.8h-.8v-.8h.8M8.04,10h-1.08v1.08h1.08v-1.08h0Z"/>
    </g>
    <g>
      <path d="M7.1,9.03l-.07-.37c0-.4.15-.78.41-1.07l.79-.88c.2-.23.32-.52.32-.82,0-.43-.36-.79-.79-.79h-.51c-.44,0-.79.35-.79.79l-.88.07c-.07-1.02.71-1.8,1.67-1.8h.51c.96,0,1.74.77,1.74,1.73,0,.54-.2,1.05-.56,1.45l-.79.88c-.11.12-.17.28-.17.44v.37h-.87Z"/>
      <path d="M7.75,4.23c.92,0,1.67.74,1.67,1.66,0,.52-.19,1.02-.54,1.4l-.79.88c-.12.14-.19.3-.19.49v.3h-.8v-.3c0-.38.14-.74.39-1.02l.79-.88c.22-.24.34-.55.34-.87,0-.47-.39-.86-.86-.86h-.51c-.48,0-.86.38-.86.86h-.81c0-.91.75-1.66,1.67-1.66h.51M7.75,4.09h-.51c-1,0-1.81.81-1.81,1.8v.14h1.09v-.14c0-.39.32-.72.72-.72h.51c.4,0,.72.32.72.72,0,.29-.11.56-.3.78l-.79.88c-.28.31-.43.7-.43,1.11v.3s0,.14,0,.14h1.08v-.14s0-.3,0-.3c0-.15.05-.28.15-.39l.79-.88c.37-.41.58-.95.58-1.5,0-.99-.81-1.8-1.81-1.8h0Z"/>
    </g>
  </g>
</svg>