<?xml version="1.0" encoding="UTF-8"?>
<svg id="Layer_1" xmlns="http://www.w3.org/2000/svg" version="1.1" viewBox="0 0 15 15">
  <!-- Generator: Adobe Illustrator 30.1.0, SVG Export Plug-In . SVG Version: 2.1.1 Build 136)  -->
  <circle id="Outer" cx="7.5" cy="7.5" r="5.92" fill="none" stroke="#000" stroke-width="3.16"/>
  <g>
    <g>
      <rect x="7.02" y="9.27" width=".96" height=".96"/>
      <path d="M7.72,9.53v.45h-.45v-.45h.45M8.24,9.01h-1.48v1.48h1.48v-1.48h0Z"/>
    </g>
    <g>
      <path d="M7.02,8.41v-.42c0-.28.1-.54.28-.75l.44-.49c.08-.09.12-.2.12-.31s-.1-.22-.23-.22h-.28c-.12,0-.23.1-.23.22v.26h-.97v-.26c0-.65.53-1.19,1.19-1.19h.28c.66,0,1.19.53,1.19,1.19,0,.36-.13.7-.37.96l-.44.49s-.04.06-.04.1v.43h-.96Z"/>
      <path d="M7.64,5.51c.51,0,.93.42.93.93,0,.29-.11.57-.3.79l-.44.49c-.07.08-.11.17-.11.27v.17h-.45v-.17c0-.21.08-.41.22-.57l.44-.49c.12-.13.19-.31.19-.49,0-.26-.22-.48-.48-.48h-.28c-.27,0-.48.22-.48.48h-.45c0-.51.42-.93.93-.93h.28M7.64,4.99h-.28c-.8,0-1.45.65-1.45,1.44v.52h1.31l-.11.12c-.23.25-.35.58-.35.92v.18s0,.51,0,.51h1.47v-.51s0-.13,0-.13l.42-.46c.28-.31.44-.71.44-1.13,0-.8-.65-1.44-1.45-1.44h0ZM7.39,6.76v-.32l.25.04s-.05.07-.09.11l-.16.18h0Z"/>
    </g>
  </g>
</svg>