<?xml version="1.0" encoding="UTF-8"?>
<svg id="Layer_1" xmlns="http://www.w3.org/2000/svg" version="1.1" viewBox="0 0 23 23">
  <!-- Generator: Adobe Illustrator 30.1.0, SVG Export Plug-In . SVG Version: 2.1.1 Build 136)  -->
  <path d="M11.5,4.44c.23,0,.46.12.58.36l1.48,2.93c.25.5.73.86,1.28.96l3.19.6c.5.09.7.7.36,1.08l-2.33,2.55c-.36.39-.53.93-.46,1.46l.45,3.44c.05.41-.27.74-.64.74-.1,0-.2-.02-.3-.07l-2.79-1.44c-.26-.13-.54-.2-.83-.2s-.57.07-.83.2l-2.79,1.44c-.1.05-.2.07-.3.07-.37,0-.7-.33-.64-.74l.45-3.44c.07-.53-.1-1.06-.46-1.45l-2.33-2.55c-.34-.38-.14-.98.36-1.08l3.19-.6c.55-.1,1.02-.46,1.28-.96l1.48-2.93c.12-.24.35-.36.58-.36M11.5,0C9.57,0,7.82,1.07,6.95,2.8l-.89,1.77-1.91.36c-1.81.34-3.3,1.64-3.89,3.39-.59,1.75-.18,3.68,1.06,5.05l1.5,1.65-.29,2.23c-.19,1.45.25,2.92,1.22,4.02.97,1.1,2.36,1.74,3.83,1.74.81,0,1.61-.2,2.33-.57l1.59-.82,1.59.82c.72.37,1.52.57,2.33.57,1.47,0,2.86-.63,3.83-1.74.97-1.1,1.41-2.57,1.22-4.02l-.29-2.23,1.5-1.65c1.24-1.36,1.65-3.3,1.06-5.05-.59-1.75-2.08-3.05-3.89-3.39l-1.91-.36-.89-1.77C15.18,1.07,13.43,0,11.5,0h0Z"/>
</svg>