<?xml version="1.0" encoding="UTF-8"?>
<svg id="Layer_1" xmlns="http://www.w3.org/2000/svg" version="1.1" viewBox="0 0 23 23">
  <!-- Generator: Adobe Illustrator 30.1.0, SVG Export Plug-In . SVG Version: 2.1.1 Build 136)  -->
  <path d="M11.5,2c.31,0,.62.16.78.48l1.99,3.95c.34.68.98,1.16,1.72,1.3l4.3.81c.67.13.95.94.48,1.45l-3.13,3.44c-.48.53-.71,1.25-.61,1.96l.61,4.64c.07.55-.37.99-.87.99-.13,0-.27-.03-.4-.1l-3.76-1.94c-.35-.18-.73-.27-1.11-.27s-.76.09-1.11.27l-3.76,1.94c-.13.07-.27.1-.4.1-.5,0-.94-.44-.87-.99l.61-4.64c.09-.71-.13-1.43-.61-1.96l-3.13-3.44c-.46-.51-.19-1.32.48-1.45l4.3-.81c.74-.14,1.38-.62,1.72-1.29l1.99-3.95c.16-.32.47-.48.78-.48M11.5,0C10.41,0,9.43.61,8.94,1.58l-1.99,3.95c-.06.12-.17.21-.3.23l-4.3.81c-1.02.19-1.86.92-2.19,1.91-.33.99-.1,2.08.6,2.85l3.13,3.44c.09.09.13.22.11.35l-.61,4.64c-.11.82.14,1.65.69,2.27.55.62,1.34.98,2.16.98.45,0,.91-.11,1.31-.32l3.76-1.94c.06-.03.13-.05.2-.05s.13.02.2.05l3.76,1.94c.41.21.86.32,1.31.32.83,0,1.61-.36,2.16-.98.54-.62.79-1.45.69-2.27l-.61-4.64c-.02-.13.02-.26.11-.35l3.13-3.44c.7-.77.93-1.86.6-2.85-.33-.99-1.17-1.72-2.19-1.91l-4.3-.81c-.13-.02-.24-.11-.31-.23l-1.99-3.95C13.57.61,12.59,0,11.5,0h0Z"/>
</svg>