<?xml version="1.0" encoding="UTF-8"?>
<svg id="Layer_1" xmlns="http://www.w3.org/2000/svg" version="1.1" viewBox="0 0 23 23">
  <!-- Generator: Adobe Illustrator 30.1.0, SVG Export Plug-In . SVG Version: 2.1.1 Build 136)  -->
  <path d="M11.5,4.84c.22,0,.43.11.55.34l1.39,2.76c.24.47.68.81,1.21.91l3.01.56c.47.09.66.66.34,1.02l-2.19,2.41c-.34.37-.5.87-.43,1.37l.43,3.25c.05.39-.26.69-.61.69-.09,0-.19-.02-.28-.07l-2.63-1.36c-.24-.13-.51-.19-.78-.19s-.53.06-.78.19l-2.63,1.36c-.09.05-.19.07-.28.07-.35,0-.66-.31-.61-.69l.43-3.25c.07-.5-.09-1-.43-1.37l-2.19-2.41c-.32-.35-.13-.93.34-1.02l3.01-.56c.52-.1.97-.43,1.21-.91l1.39-2.76c.11-.22.33-.34.55-.34M11.5,0C9.43,0,7.56,1.15,6.63,3l-.69,1.38-1.48.28c-1.94.36-3.54,1.76-4.17,3.63-.63,1.88-.19,3.95,1.14,5.41l1.21,1.33-.24,1.8c-.21,1.56.27,3.13,1.3,4.31,1.04,1.18,2.53,1.86,4.1,1.86.86,0,1.73-.21,2.5-.61l1.2-.62,1.2.62c.77.4,1.63.61,2.5.61,1.57,0,3.07-.68,4.1-1.86,1.03-1.18,1.51-2.75,1.3-4.31l-.24-1.8,1.21-1.33c1.33-1.46,1.77-3.53,1.14-5.41-.63-1.87-2.23-3.27-4.17-3.63l-1.48-.28-.69-1.38C15.44,1.15,13.57,0,11.5,0h0Z"/>
</svg>