<?xml version="1.0" encoding="UTF-8"?>
<svg id="Layer_1" xmlns="http://www.w3.org/2000/svg" version="1.1" viewBox="0 0 23 23">
  <!-- Generator: Adobe Illustrator 30.1.0, SVG Export Plug-In . SVG Version: 2.1.1 Build 136)  -->
  <path d="M11.5,1.6c.32,0,.64.17.81.5l2.07,4.11c.36.71,1.02,1.21,1.79,1.35l4.48.84c.7.13.99.98.5,1.51l-3.27,3.58c-.5.55-.74,1.3-.64,2.04l.64,4.83c.08.58-.38,1.03-.9,1.03-.14,0-.28-.03-.42-.1l-3.92-2.02c-.36-.19-.76-.28-1.16-.28s-.79.09-1.16.28l-3.92,2.02c-.14.07-.28.1-.42.1-.52,0-.98-.46-.9-1.03l.64-4.83c.1-.74-.14-1.49-.64-2.04l-3.27-3.58c-.48-.53-.2-1.38.5-1.51l4.48-.84c.77-.15,1.44-.64,1.79-1.35l2.07-4.11c.17-.33.49-.5.81-.5M11.5,0C10.55,0,9.69.53,9.26,1.38l-2.07,4.11c-.13.26-.38.45-.66.5l-4.48.84c-.89.17-1.63.81-1.91,1.67-.29.86-.09,1.82.52,2.49l3.27,3.58c.19.21.27.48.24.76l-.64,4.83c-.09.72.12,1.44.6,1.98.48.55,1.17.86,1.89.86.39,0,.79-.1,1.15-.28l3.92-2.02c.13-.07.28-.1.43-.1s.3.04.43.1l3.92,2.02c.36.18.75.28,1.15.28.72,0,1.41-.31,1.89-.86.47-.54.69-1.26.6-1.98l-.64-4.83c-.04-.28.05-.55.24-.76l3.27-3.58c.61-.67.81-1.62.52-2.49-.29-.86-1.02-1.5-1.91-1.67l-4.48-.84c-.28-.05-.53-.24-.66-.5l-2.07-4.11C13.31.53,12.45,0,11.5,0h0Z"/>
</svg>