<?xml version="1.0" encoding="UTF-8"?>
<svg id="Layer_1" xmlns="http://www.w3.org/2000/svg" version="1.1" viewBox="0 0 37 37">
  <!-- Generator: Adobe Illustrator 30.1.0, SVG Export Plug-In . SVG Version: 2.1.1 Build 136)  -->
  <circle id="Outer" cx="18.5" cy="18.5" r="14.93" fill="none" stroke="#000" stroke-width="7.15"/>
  <g>
    <g>
      <rect x="17.31" y="23.11" width="2.36" height="2.36"/>
      <path d="M19.09,23.69v1.2h-1.2v-1.2h1.2M20.25,22.53h-3.51v3.51h3.51v-3.51h0Z"/>
    </g>
    <g>
      <path d="M17.32,20.91v-1.03c0-.72.26-1.4.73-1.93l1.19-1.32c.23-.25.36-.58.36-.92,0-.39-.32-.71-.72-.71h-.76c-.4,0-.72.32-.72.71v.58h-2.37v-.58c0-1.69,1.38-3.07,3.09-3.07h.76c1.7,0,3.09,1.38,3.09,3.07,0,.92-.34,1.81-.96,2.5l-1.19,1.32c-.09.1-.14.22-.14.35v1.03h-2.36Z"/>
      <path d="M18.88,13.22c1.38,0,2.51,1.12,2.51,2.49,0,.78-.29,1.53-.81,2.11l-1.19,1.32c-.18.2-.29.46-.29.73v.45h-1.21v-.45c0-.57.21-1.11.59-1.54l1.19-1.32c.33-.36.5-.83.5-1.31,0-.71-.58-1.29-1.3-1.29h-.76c-.71,0-1.3.58-1.3,1.29h-1.21c0-1.37,1.12-2.49,2.51-2.49h.76M18.88,12.07h-.76c-2.02,0-3.66,1.64-3.66,3.65v1.16h3.52v-1.16c0-.07.06-.13.14-.13h.76c.08,0,.14.06.14.13,0,.2-.07.39-.21.54l-1.19,1.32c-.57.63-.89,1.45-.89,2.31v.47s.01,1.15.01,1.15h3.49v-1.14s.02-.45.02-.45l1.18-1.29c.72-.79,1.11-1.82,1.11-2.89,0-2.01-1.64-3.65-3.66-3.65h0Z"/>
    </g>
  </g>
</svg>