<?xml version="1.0" encoding="UTF-8"?>
<svg id="Layer_1" xmlns="http://www.w3.org/2000/svg" version="1.1" viewBox="0 0 37 37">
  <!-- Generator: Adobe Illustrator 30.1.0, SVG Export Plug-In . SVG Version: 2.1.1 Build 136)  -->
  <circle id="Outer" cx="18.5" cy="18.5" r="16.24" fill="none" stroke="#000" stroke-width="4.52"/>
  <g>
    <g>
      <rect x="17.33" y="24.12" width="2.32" height="2.32"/>
      <path d="M19.3,24.46v1.63h-1.63v-1.63h1.63M20,23.77h-3.01v3.01h3.01v-3.01h0Z"/>
    </g>
    <g>
      <path d="M17.33,21.64v-.96c0-.86.31-1.68.89-2.31l1.61-1.78c.38-.42.59-.97.59-1.54,0-.77-.63-1.4-1.41-1.4h-1.03c-.78,0-1.41.63-1.41,1.4v.35h-2.33v-.35c0-2.05,1.68-3.72,3.74-3.72h1.03c2.06,0,3.74,1.67,3.74,3.72,0,1.14-.42,2.24-1.19,3.09l-1.61,1.78c-.2.22-.3.48-.3.76v.96h-2.32Z"/>
      <path d="M19.02,11.67c1.87,0,3.4,1.51,3.4,3.37,0,1.06-.39,2.07-1.1,2.86l-1.61,1.78c-.25.28-.39.62-.39.99v.61h-1.63v-.61c0-.77.28-1.51.8-2.08l1.61-1.78c.44-.49.68-1.12.68-1.77,0-.96-.79-1.74-1.76-1.74h-1.03c-.97,0-1.76.78-1.76,1.74h-1.64c0-1.86,1.52-3.37,3.4-3.37h1.03M19.02,10.98h-1.03c-2.25,0-4.09,1.82-4.09,4.07v.69h3.03v-.69c0-.58.48-1.05,1.06-1.05h1.03c.59,0,1.06.47,1.06,1.05,0,.48-.18.95-.5,1.31l-1.61,1.78c-.63.7-.98,1.6-.98,2.54v.62s.01.69.01.69h3v-.69s.01-.61.01-.61c0-.2.07-.38.21-.53l1.61-1.79c.83-.92,1.28-2.1,1.28-3.33,0-2.24-1.83-4.07-4.09-4.07h0Z"/>
    </g>
  </g>
</svg>