<?xml version="1.0" encoding="UTF-8"?>
<svg id="Layer_1" xmlns="http://www.w3.org/2000/svg" version="1.1" viewBox="0 0 37 37">
  <!-- Generator: Adobe Illustrator 30.1.0, SVG Export Plug-In . SVG Version: 2.1.1 Build 136)  -->
  <circle id="Outer" cx="18.5" cy="18.5" r="16.89" fill="none" stroke="#000" stroke-width="3.21"/>
  <g>
    <g>
      <rect x="17.33" y="24.61" width="2.32" height="2.32"/>
      <path d="M19.42,24.84v1.85h-1.85v-1.85h1.85M19.88,24.38h-2.78v2.78h2.78v-2.78h0Z"/>
    </g>
    <g>
      <path d="M17.33,22.05v-.93c0-.94.34-1.83.97-2.53l1.83-2.03c.46-.51.72-1.18.72-1.87,0-.97-.79-1.75-1.77-1.75h-1.18c-.98,0-1.77.79-1.77,1.75v.23h-2.33v-.23c0-2.25,1.84-4.07,4.1-4.07h1.18c2.26,0,4.1,1.83,4.1,4.07,0,1.26-.47,2.48-1.32,3.42l-1.84,2.04c-.25.28-.38.61-.38.97v.93h-2.32Z"/>
      <path d="M19.09,10.85c2.13,0,3.87,1.72,3.87,3.84,0,1.21-.45,2.36-1.26,3.26l-1.84,2.03c-.28.31-.44.71-.44,1.13v.7h-1.86v-.7c0-.88.32-1.72.91-2.37l1.84-2.03c.5-.56.78-1.27.78-2.02,0-1.1-.9-1.99-2-1.99h-1.18c-1.1,0-2,.89-2,1.99h-1.87c0-2.12,1.74-3.84,3.87-3.84h1.18M19.09,10.39h-1.18c-2.39,0-4.33,1.93-4.33,4.31v.46h2.79v-.46c0-.84.69-1.52,1.54-1.52h1.18c.85,0,1.54.68,1.54,1.52,0,.63-.23,1.24-.66,1.71l-1.84,2.03c-.67.74-1.03,1.69-1.04,2.68v.71s.01.46.01.46h2.77v-.46s.01-.7.01-.7c0-.31.11-.59.32-.82l1.84-2.03c.89-.98,1.38-2.25,1.38-3.57,0-2.37-1.94-4.31-4.33-4.31h0Z"/>
    </g>
  </g>
</svg>