<?xml version="1.0" encoding="UTF-8"?>
<svg id="Layer_1" xmlns="http://www.w3.org/2000/svg" version="1.1" viewBox="0 0 37 37">
  <!-- Generator: Adobe Illustrator 30.1.0, SVG Export Plug-In . SVG Version: 2.1.1 Build 136)  -->
  <circle id="Outer" cx="18.5" cy="18.5" r="17.22" fill="none" stroke="#000" stroke-width="2.57"/>
  <g>
    <g>
      <rect x="17.33" y="24.85" width="2.32" height="2.32"/>
      <path d="M19.47,25.03v1.97h-1.97v-1.97h1.97M19.82,24.68h-2.66v2.66h2.66v-2.66h0Z"/>
    </g>
    <g>
      <path d="M17.33,22.27v-.92c0-.98.36-1.91,1.01-2.64l1.95-2.16c.5-.56.78-1.28.78-2.03,0-1.07-.88-1.94-1.95-1.94h-1.25c-1.08,0-1.95.87-1.95,1.94v.17h-2.33v-.17c0-2.35,1.92-4.26,4.29-4.26h1.25c2.36,0,4.29,1.91,4.29,4.26,0,1.32-.49,2.6-1.38,3.58l-1.95,2.16c-.28.31-.43.68-.43,1.08v.92h-2.32Z"/>
      <path d="M19.13,10.44c2.27,0,4.11,1.83,4.11,4.08,0,1.28-.47,2.51-1.34,3.47l-1.95,2.16c-.3.33-.47.75-.47,1.2v.74h-1.98v-.74c0-.93.34-1.82.97-2.52l1.95-2.16c.53-.59.83-1.35.83-2.15,0-1.16-.95-2.11-2.13-2.11h-1.25c-1.17,0-2.13.95-2.13,2.11h-1.99c0-2.25,1.85-4.08,4.11-4.08h1.25M19.13,10.09h-1.25c-2.46,0-4.46,1.99-4.46,4.43v.35h2.68v-.35c0-.97.8-1.76,1.78-1.76h1.25c.98,0,1.78.79,1.78,1.76,0,.71-.26,1.39-.74,1.92l-1.95,2.16c-.68.76-1.06,1.73-1.07,2.75v.75s0,.34,0,.34h2.66v-.34s.01-.74.01-.74c0-.36.13-.7.38-.97l1.95-2.16c.92-1.02,1.42-2.33,1.42-3.7,0-2.44-2-4.43-4.46-4.43h0Z"/>
    </g>
  </g>
</svg>