<?xml version="1.0" encoding="UTF-8"?>
<svg id="Layer_1" xmlns="http://www.w3.org/2000/svg" version="1.1" viewBox="0 0 37 37">
  <!-- Generator: Adobe Illustrator 30.1.0, SVG Export Plug-In . SVG Version: 2.1.1 Build 136)  -->
  <circle id="Outer" cx="18.5" cy="18.5" r="15.58" fill="none" stroke="#000" stroke-width="5.84"/>
  <g>
    <g>
      <rect x="17.32" y="23.61" width="2.33" height="2.33"/>
      <path d="M19.19,24.08v1.41h-1.41v-1.41h1.41M20.12,23.15h-3.26v3.26h3.26v-3.26h0Z"/>
    </g>
    <g>
      <path d="M17.33,21.26v-.99c0-.79.28-1.53.81-2.11l1.39-1.54c.3-.34.47-.77.47-1.22,0-.58-.47-1.05-1.06-1.05h-.9c-.58,0-1.06.47-1.06,1.05v.46h-2.34v-.46c0-1.86,1.53-3.38,3.4-3.38h.9c1.88,0,3.4,1.52,3.4,3.38,0,1.03-.38,2.02-1.07,2.79l-1.39,1.54c-.14.16-.22.35-.22.55v.99h-2.33Z"/>
      <path d="M18.95,12.47c1.62,0,2.94,1.31,2.94,2.92,0,.92-.34,1.79-.95,2.48l-1.39,1.54c-.22.24-.34.54-.34.86v.53h-1.41v-.53c0-.67.24-1.3.69-1.8l1.39-1.54c.38-.42.59-.97.59-1.53,0-.83-.68-1.51-1.52-1.51h-.9c-.84,0-1.52.68-1.52,1.51h-1.42c0-1.61,1.32-2.92,2.94-2.92h.9M18.95,11.54h-.9c-2.13,0-3.86,1.72-3.86,3.84v.92h3.27v-.92c0-.32.27-.58.59-.58h.9c.33,0,.59.26.59.58,0,.34-.13.66-.35.91l-1.39,1.54c-.6.66-.93,1.52-.94,2.41v.54s.01.92.01.92h3.24v-.92s.01-.53.01-.53c0-.1.03-.17.1-.25l1.39-1.54c.77-.85,1.19-1.95,1.19-3.1,0-2.12-1.73-3.84-3.86-3.84h0Z"/>
    </g>
  </g>
</svg>