<?xml version="1.0" encoding="UTF-8"?>
<svg id="Layer_1" xmlns="http://www.w3.org/2000/svg" version="1.1" viewBox="0 0 37 37">
  <!-- Generator: Adobe Illustrator 30.1.0, SVG Export Plug-In . SVG Version: 2.1.1 Build 136)  -->
  <circle id="Outer" cx="18.5" cy="18.5" r="14.6" fill="none" stroke="#000" stroke-width="7.79"/>
  <g>
    <g>
      <rect x="17.3" y="22.86" width="2.37" height="2.38"/>
      <path d="M19.04,23.5v1.1h-1.1v-1.1h1.1M20.31,22.22h-3.65v3.65h3.65v-3.65h0Z"/>
    </g>
    <g>
      <path d="M17.31,20.75v-1.05c0-.69.25-1.34.7-1.84l1.09-1.21c.19-.21.3-.49.3-.78,0-.3-.25-.55-.56-.55h-.7c-.31,0-.55.25-.55.55v.64h-2.38v-.64c0-1.61,1.32-2.92,2.94-2.92h.7c1.62,0,2.94,1.31,2.94,2.92,0,.88-.32,1.72-.91,2.37l-1.09,1.21c-.07.07-.1.16-.1.25v1.05h-2.37Z"/>
      <path d="M18.85,13.59c1.27,0,2.3,1.03,2.3,2.29,0,.72-.27,1.41-.75,1.94l-1.09,1.21c-.17.19-.26.42-.26.67v.42h-1.11v-.42c0-.52.19-1.02.54-1.41l1.09-1.21c.3-.33.46-.76.46-1.2,0-.65-.53-1.18-1.19-1.18h-.7c-.66,0-1.19.53-1.19,1.18h-1.11c0-1.26,1.03-2.29,2.3-2.29h.7M18.85,12.31h-.7c-1.97,0-3.58,1.6-3.58,3.56v1.27h1.27s1.11,0,1.11,0h.84l-.26.29c-.56.62-.87,1.42-.87,2.26v.43s.01,1.26.01,1.26h3.62v-1.26s.02-.32.02-.32l1.03-1.14c.69-.77,1.08-1.76,1.08-2.79,0-1.96-1.6-3.56-3.58-3.56h0ZM18.23,15.96h.53c-.02.1-.06.19-.13.26l-.4.45v-.71h0Z"/>
    </g>
  </g>
</svg>