<?xml version="1.0" encoding="UTF-8"?>
<svg id="Layer_1" xmlns="http://www.w3.org/2000/svg" version="1.1" viewBox="0 0 65 65">
  <!-- Generator: Adobe Illustrator 30.1.0, SVG Export Plug-In . SVG Version: 2.1.1 Build 136)  -->
  <circle id="Outer" cx="32.5" cy="32.5" r="26.22" fill="none" stroke="#000" stroke-width="12.55"/>
  <g>
    <g>
      <rect x="30.41" y="40.6" width="4.14" height="4.14"/>
      <path d="M33.54,41.62v2.11h-2.11v-2.11h2.11M35.57,39.59h-6.17v6.17h6.17v-6.17h0Z"/>
    </g>
    <g>
      <path d="M30.43,36.73l-.02-1.8c0-1.26.47-2.46,1.31-3.39l2.09-2.31c.4-.45.62-1.02.62-1.62,0-.69-.57-1.25-1.26-1.25h-1.34c-.7,0-1.26.56-1.26,1.25v1.02h-4.16v-1.02c0-2.97,2.43-5.39,5.42-5.39h1.34c2.99,0,5.42,2.42,5.42,5.39,0,1.62-.6,3.18-1.69,4.39l-2.09,2.32c-.16.18-.24.38-.24.61l-.02,1.81h-4.12Z"/>
      <path d="M33.17,23.23c2.43,0,4.41,1.96,4.41,4.37,0,1.37-.51,2.69-1.43,3.71l-2.09,2.32c-.32.36-.5.8-.5,1.28v.8h-2.12v-.8c0-1,.37-1.95,1.04-2.7l2.09-2.31c.57-.63.89-1.45.89-2.3,0-1.25-1.02-2.26-2.28-2.26h-1.34c-1.26,0-2.28,1.01-2.28,2.26h-2.13c0-2.41,1.98-4.37,4.41-4.37h1.34M33.17,21.2h-1.34c-3.55,0-6.44,2.87-6.44,6.41v2.03h6.19v-2.03c0-.12.11-.23.25-.23h1.34c.13,0,.25.11.25.23,0,.35-.13.68-.36.94l-2.09,2.31c-1.01,1.11-1.56,2.55-1.57,4.05v.82s.02,2.01.02,2.01h6.13l.02-2.01v-.76s2.08-2.3,2.08-2.3c1.26-1.4,1.95-3.2,1.95-5.07,0-3.53-2.89-6.41-6.44-6.41h0Z"/>
    </g>
  </g>
</svg>