<?xml version="1.0" encoding="UTF-8"?>
<svg id="Layer_1" xmlns="http://www.w3.org/2000/svg" version="1.1" viewBox="0 0 65 65">
  <!-- Generator: Adobe Illustrator 30.1.0, SVG Export Plug-In . SVG Version: 2.1.1 Build 136)  -->
  <circle id="Outer" cx="32.5" cy="32.5" r="28.53" fill="none" stroke="#000" stroke-width="7.94"/>
  <g>
    <g>
      <rect x="30.44" y="42.37" width="4.08" height="4.08"/>
      <path d="M33.91,42.98v2.86h-2.86v-2.86h2.86M35.13,41.76h-5.29v5.29h5.29v-5.29h0Z"/>
    </g>
    <g>
      <path d="M30.45,38.02l-.02-1.68c0-1.51.56-2.95,1.57-4.07l2.83-3.13c.67-.75,1.04-1.71,1.04-2.71,0-1.35-1.11-2.45-2.47-2.45h-1.82c-1.36,0-2.47,1.1-2.47,2.45v.61h-4.1v-.61c0-3.6,2.95-6.53,6.57-6.53h1.82c3.62,0,6.57,2.93,6.57,6.53,0,2.01-.74,3.94-2.09,5.43l-2.83,3.14c-.34.38-.52.84-.53,1.33l-.02,1.69h-4.06Z"/>
      <path d="M33.41,20.51c3.29,0,5.97,2.66,5.97,5.92,0,1.86-.69,3.64-1.94,5.03l-2.83,3.14c-.44.48-.68,1.09-.68,1.74v1.08h-2.87v-1.08c0-1.35.49-2.64,1.41-3.65l2.83-3.13c.77-.86,1.2-1.96,1.2-3.12,0-1.69-1.38-3.06-3.08-3.06h-1.82c-1.7,0-3.08,1.37-3.08,3.06h-2.88c0-3.27,2.68-5.92,5.97-5.92h1.82M33.41,19.29h-1.82c-3.96,0-7.18,3.2-7.18,7.14v1.22h5.32v-1.22c0-1.02.84-1.84,1.86-1.84h1.82c1.03,0,1.86.83,1.86,1.84,0,.85-.31,1.67-.89,2.3l-2.83,3.13c-1.11,1.23-1.72,2.81-1.73,4.46v1.1s.02,1.21.02,1.21h5.27v-1.21s.02-1.08.02-1.08c0-.35.13-.67.37-.94l2.83-3.14c1.45-1.61,2.25-3.68,2.25-5.84,0-3.94-3.22-7.14-7.18-7.14h0Z"/>
    </g>
  </g>
</svg>