<?xml version="1.0" encoding="UTF-8"?>
<svg id="Layer_1" xmlns="http://www.w3.org/2000/svg" version="1.1" viewBox="0 0 65 65">
  <!-- Generator: Adobe Illustrator 30.1.0, SVG Export Plug-In . SVG Version: 2.1.1 Build 136)  -->
  <circle id="Outer" cx="32.5" cy="32.5" r="27.37" fill="none" stroke="#000" stroke-width="10.26"/>
  <g>
    <g>
      <rect x="30.43" y="41.49" width="4.1" height="4.1"/>
      <path d="M33.72,42.3v2.47h-2.47v-2.47h2.47M35.34,40.67h-5.72v5.72h5.72v-5.72h0Z"/>
    </g>
    <g>
      <path d="M30.44,37.34v-1.74c-.01-1.38.5-2.69,1.42-3.71l2.45-2.71c.54-.59.83-1.36.83-2.15,0-1.01-.83-1.84-1.86-1.84h-1.57c-1.02,0-1.86.82-1.86,1.84v.81h-4.12v-.81c0-3.27,2.68-5.94,5.97-5.94h1.57c3.29,0,5.97,2.66,5.97,5.94,0,1.81-.67,3.55-1.89,4.89l-2.45,2.71c-.25.28-.38.61-.38.96l-.02,1.75h-4.08Z"/>
      <path d="M33.29,21.9c2.85,0,5.16,2.3,5.16,5.13,0,1.61-.6,3.15-1.68,4.35l-2.45,2.71c-.38.42-.59.94-.59,1.51v.93h-2.48v-.93c0-1.17.43-2.29,1.22-3.16l2.45-2.71c.67-.74,1.04-1.7,1.04-2.7,0-1.46-1.2-2.65-2.67-2.65h-1.57c-1.47,0-2.67,1.19-2.67,2.65h-2.49c0-2.83,2.32-5.13,5.16-5.13h1.57M33.29,20.28h-1.57c-3.74,0-6.79,3.03-6.79,6.75v1.62h5.74v-1.62c0-.56.47-1.02,1.04-1.02h1.57c.57,0,1.04.46,1.04,1.02,0,.59-.22,1.16-.62,1.61l-2.45,2.71c-1.05,1.16-1.64,2.67-1.64,4.24v.96s.02,1.61.02,1.61h5.69l.02-1.61v-.93c.01-.17.07-.31.18-.43l2.45-2.71c1.35-1.5,2.09-3.43,2.09-5.44,0-3.72-3.04-6.75-6.79-6.75h0Z"/>
    </g>
  </g>
</svg>