<?xml version="1.0" encoding="UTF-8"?>
<svg id="Layer_1" xmlns="http://www.w3.org/2000/svg" version="1.1" viewBox="0 0 65 65">
  <!-- Generator: Adobe Illustrator 30.1.0, SVG Export Plug-In . SVG Version: 2.1.1 Build 136)  -->
  <circle id="Outer" cx="32.5" cy="32.5" r="29.68" fill="none" stroke="#000" stroke-width="5.65"/>
  <g>
    <g>
      <rect x="30.45" y="43.23" width="4.07" height="4.07"/>
      <path d="M34.11,43.64v3.26h-3.26v-3.26h3.26M34.92,42.83h-4.88v4.88h4.88v-4.88h0Z"/>
    </g>
    <g>
      <path d="M30.45,38.74v-1.63c0-1.65.6-3.22,1.7-4.44l3.23-3.57c.82-.9,1.26-2.07,1.26-3.28,0-1.7-1.39-3.08-3.11-3.08h-2.07c-1.71,0-3.11,1.38-3.11,3.08v.41h-4.1v-.41c0-3.95,3.23-7.16,7.21-7.16h2.07c3.97,0,7.21,3.21,7.21,7.16,0,2.22-.82,4.35-2.31,6l-3.23,3.57c-.44.49-.67,1.08-.67,1.71l-.02,1.64h-4.06Z"/>
      <path d="M33.54,19.07c3.75,0,6.8,3.03,6.8,6.75,0,2.12-.78,4.15-2.21,5.73l-3.23,3.57c-.5.55-.78,1.24-.78,1.98v1.23h-3.27v-1.23c0-1.54.56-3.01,1.6-4.16l3.22-3.57c.88-.98,1.37-2.24,1.37-3.55,0-1.92-1.58-3.49-3.51-3.49h-2.07c-1.94,0-3.51,1.57-3.51,3.49h-3.29c0-3.72,3.05-6.75,6.8-6.75h2.07M33.54,18.26h-2.07c-4.2,0-7.61,3.39-7.61,7.56v.81h4.91v-.81c0-1.48,1.21-2.68,2.7-2.68h2.07c1.49,0,2.7,1.2,2.7,2.68,0,1.11-.41,2.18-1.16,3.01l-3.23,3.57c-1.17,1.29-1.82,2.96-1.82,4.7v1.24s.02.81.02.81h4.87v-.8s.02-1.23.02-1.23c0-.54.2-1.04.57-1.45l3.23-3.57c1.56-1.73,2.42-3.95,2.42-6.27,0-4.17-3.41-7.56-7.61-7.56h0Z"/>
    </g>
  </g>
</svg>