<?xml version="1.0" encoding="UTF-8"?>
<svg id="Layer_1" xmlns="http://www.w3.org/2000/svg" version="1.1" viewBox="0 0 65 65">
  <!-- Generator: Adobe Illustrator 30.1.0, SVG Export Plug-In . SVG Version: 2.1.1 Build 136)  -->
  <circle id="Outer" cx="32.5" cy="32.5" r="25.65" fill="none" stroke="#000" stroke-width="13.69"/>
  <g>
    <g>
      <rect x="30.4" y="40.16" width="4.17" height="4.17"/>
      <path d="M33.45,41.28v1.94h-1.94v-1.94h1.94M35.69,39.04h-6.41v6.41h6.41v-6.41h0Z"/>
    </g>
    <g>
      <path d="M30.41,36.45l-.02-1.84c0-1.21.45-2.35,1.25-3.24l1.92-2.13c.34-.38.53-.86.53-1.37,0-.53-.44-.96-.97-.96h-1.23c-.54,0-.97.43-.97.96v1.12h-4.19v-1.12c0-2.83,2.32-5.14,5.16-5.14h1.23c2.85,0,5.16,2.3,5.16,5.14,0,1.54-.57,3.01-1.6,4.16l-1.92,2.13c-.12.13-.17.27-.18.44l-.02,1.84h-4.15Z"/>
      <path d="M33.12,23.87c2.23,0,4.05,1.8,4.05,4.02,0,1.26-.47,2.47-1.31,3.41l-1.92,2.13c-.3.33-.46.74-.46,1.18v.73h-1.95v-.73c0-.92.34-1.79.95-2.48l1.92-2.13c.53-.58.81-1.33.81-2.11,0-1.15-.94-2.08-2.09-2.08h-1.23c-1.15,0-2.09.93-2.09,2.08h-1.96c0-2.22,1.82-4.02,4.05-4.02h1.23M33.12,21.63h-1.23c-3.46,0-6.28,2.8-6.28,6.25v2.23h5.67l-.46.51c-.98,1.09-1.53,2.5-1.54,3.97v.76s.03,2.21.03,2.21h6.36l.02-2.21v-.56s1.82-2,1.82-2c1.22-1.35,1.89-3.09,1.89-4.91,0-3.45-2.82-6.25-6.28-6.25h0ZM32.03,28.04h.93c-.03.17-.11.33-.23.46l-.71.79v-1.24h0Z"/>
    </g>
  </g>
</svg>