<?xml version="1.0" encoding="UTF-8"?>
<svg id="Layer_1" xmlns="http://www.w3.org/2000/svg" version="1.1" viewBox="0 0 65 65">
  <!-- Generator: Adobe Illustrator 30.1.0, SVG Export Plug-In . SVG Version: 2.1.1 Build 136)  -->
  <circle id="Outer" cx="32.5" cy="32.5" r="30.25" fill="none" stroke="#000" stroke-width="4.51"/>
  <g>
    <g>
      <rect x="30.44" y="43.66" width="4.07" height="4.07"/>
      <path d="M34.21,43.96v3.46h-3.46v-3.46h3.46M34.82,43.35h-4.68v4.68h4.68v-4.68h0Z"/>
    </g>
    <g>
      <path d="M30.45,39.12v-1.61c0-1.72.63-3.36,1.78-4.63l3.43-3.8c.89-.98,1.38-2.25,1.38-3.57,0-1.88-1.54-3.4-3.43-3.4h-2.2c-1.89,0-3.43,1.53-3.43,3.4v.3h-4.1v-.3c0-4.12,3.38-7.48,7.53-7.48h2.2c4.15,0,7.53,3.36,7.53,7.48,0,2.33-.86,4.56-2.42,6.29l-3.43,3.8c-.49.54-.75,1.2-.75,1.9l-.02,1.61h-4.06Z"/>
      <path d="M33.6,18.34c3.98,0,7.23,3.22,7.23,7.17,0,2.25-.83,4.41-2.35,6.09l-3.43,3.8c-.53.59-.83,1.32-.83,2.11v1.31h-3.47v-1.31c0-1.64.6-3.2,1.7-4.42l3.43-3.8c.94-1.04,1.45-2.38,1.45-3.77,0-2.04-1.68-3.71-3.73-3.71h-2.2c-2.06,0-3.73,1.66-3.73,3.71h-3.49c0-3.96,3.24-7.17,7.23-7.17h2.2M33.6,17.73h-2.2c-4.32,0-7.84,3.49-7.84,7.78v.61h4.71v-.61c0-1.71,1.4-3.1,3.13-3.1h2.2c1.72,0,3.13,1.39,3.13,3.1,0,1.24-.46,2.44-1.3,3.37l-3.43,3.8c-1.2,1.33-1.86,3.04-1.87,4.83v1.32s.02.6.02.6h4.67v-.6s.02-1.31.02-1.31c0-.63.23-1.22.67-1.71l3.43-3.8c1.61-1.79,2.5-4.1,2.5-6.5,0-4.29-3.51-7.78-7.84-7.78h0Z"/>
    </g>
  </g>
</svg>