<?xml version="1.0" encoding="UTF-8"?>
<svg id="Layer_1" xmlns="http://www.w3.org/2000/svg" version="1.1" viewBox="0 0 60 60">
  <!-- Generator: Adobe Illustrator 30.1.0, SVG Export Plug-In . SVG Version: 2.1.1 Build 136)  -->
  <g>
    <g>
      <rect x="27.9" y="15.19" width="4.19" height="4.19"/>
      <path d="M31.82,15.47v3.63h-3.63v-3.63h3.63M32.38,14.91h-4.76v4.76h4.76v-4.76h0Z"/>
    </g>
    <g>
      <polygon points="24.27 44.81 24.27 40.61 27.9 40.61 27.9 29.84 24.27 29.84 24.27 25.64 32.1 25.64 32.1 40.61 35.73 40.61 35.73 44.81 24.27 44.81"/>
      <path d="M31.82,25.93v14.97h3.63v3.63h-10.9v-3.63h3.63v-11.34h-3.63v-3.63h7.26M32.38,25.36h-8.39v4.76h3.63v10.21h-3.63v4.76h12.02v-4.76h-3.63v-14.97h0Z"/>
    </g>
  </g>
  <circle id="Outer" cx="30" cy="30" r="27.92" fill="none" stroke="#000" stroke-width="4.16"/>
</svg>