<?xml version="1.0" encoding="UTF-8"?>
<svg id="Layer_1" xmlns="http://www.w3.org/2000/svg" version="1.1" viewBox="0 0 60 60">
  <!-- Generator: Adobe Illustrator 30.1.0, SVG Export Plug-In . SVG Version: 2.1.1 Build 136)  -->
  <g>
    <g>
      <rect x="27.79" y="17.86" width="4.43" height="4.43"/>
      <path d="M31.28,18.8v2.55h-2.55v-2.55h2.55M33.15,16.93h-6.3v6.3h6.3v-6.3h0Z"/>
    </g>
    <g>
      <polygon points="25.23 41.55 25.23 37.13 27.79 37.13 27.79 31.03 25.23 31.03 25.23 26.61 32.21 26.61 32.21 37.13 34.77 37.13 34.77 41.55 25.23 41.55"/>
      <path d="M31.28,27.54v10.52h2.55v2.55h-7.66v-2.55h2.55v-7.97h-2.55v-2.55h5.1M33.15,25.67h-8.85v6.3h2.55v4.22h-2.55v6.3h11.41v-6.3h-2.55v-10.52h0Z"/>
    </g>
  </g>
  <circle id="Outer" cx="30" cy="30" r="24.21" fill="none" stroke="#000" stroke-width="11.59"/>
</svg>