<?xml version="1.0" encoding="UTF-8"?>
<svg id="Layer_1" xmlns="http://www.w3.org/2000/svg" version="1.1" viewBox="0 0 22 22">
  <!-- Generator: Adobe Illustrator 30.1.0, SVG Export Plug-In . SVG Version: 2.1.1 Build 136)  -->
  <path d="M11,2.69c.27,0,.54.14.68.42l1.74,3.45c.3.59.86,1.01,1.51,1.13l3.76.71c.59.11.83.83.42,1.27l-2.74,3.01c-.42.46-.62,1.09-.54,1.71l.53,4.06c.06.48-.32.87-.76.87-.12,0-.23-.03-.35-.09l-3.29-1.69c-.3-.16-.64-.24-.97-.24-.33,0-.67.08-.97.24l-3.29,1.69c-.11.06-.23.09-.35.09-.44,0-.82-.38-.76-.87l.54-4.06c.08-.62-.11-1.25-.54-1.71l-2.74-3.01c-.4-.44-.17-1.16.42-1.27l3.76-.71c.65-.12,1.21-.54,1.51-1.13l1.74-3.45c.14-.28.41-.42.68-.42M11,0c-1.31,0-2.49.73-3.08,1.9l-1.61,3.2-3.49.65c-1.23.23-2.24,1.11-2.64,2.3-.4,1.19-.12,2.5.72,3.42l2.57,2.82-.5,3.8c-.13.99.17,1.98.82,2.73.66.75,1.6,1.18,2.6,1.18.55,0,1.09-.13,1.58-.38l3.03-1.56,3.03,1.56c.49.25,1.03.38,1.58.38.99,0,1.94-.43,2.6-1.18.65-.75.95-1.74.82-2.73l-.5-3.8,2.57-2.82c.84-.93,1.12-2.24.72-3.42-.4-1.19-1.41-2.07-2.64-2.3l-3.49-.65-1.61-3.2c-.59-1.17-1.77-1.9-3.08-1.9h0Z"/>
</svg>