<?xml version="1.0" encoding="UTF-8"?>
<svg id="Layer_1" xmlns="http://www.w3.org/2000/svg" version="1.1" viewBox="0 0 22 22">
  <!-- Generator: Adobe Illustrator 30.1.0, SVG Export Plug-In . SVG Version: 2.1.1 Build 136)  -->
  <path d="M11,4.25c.22,0,.44.11.55.34l1.41,2.8c.24.48.69.82,1.22.92l3.06.57c.48.09.67.67.34,1.03l-2.23,2.44c-.34.38-.5.89-.44,1.39l.43,3.29c.05.39-.26.7-.61.7-.09,0-.19-.02-.28-.07l-2.67-1.38c-.25-.13-.52-.19-.79-.19s-.54.06-.79.19l-2.67,1.38c-.09.05-.19.07-.28.07-.35,0-.67-.31-.61-.7l.43-3.3c.07-.51-.09-1.01-.44-1.39l-2.23-2.44c-.33-.36-.13-.94.34-1.03l3.06-.57c.53-.1.98-.44,1.22-.92l1.41-2.8c.11-.23.33-.34.55-.34M11,0C9.15,0,7.48,1.03,6.65,2.68l-.85,1.69-1.83.34c-1.73.33-3.16,1.57-3.72,3.24-.56,1.67-.17,3.52,1.02,4.83l1.44,1.58-.28,2.13c-.18,1.39.24,2.79,1.16,3.85.93,1.06,2.26,1.66,3.66,1.66.77,0,1.54-.19,2.23-.54l1.52-.78,1.52.78c.69.35,1.46.54,2.23.54,1.4,0,2.74-.61,3.66-1.66.92-1.05,1.35-2.46,1.16-3.85l-.28-2.13,1.44-1.58c1.19-1.3,1.58-3.15,1.02-4.83-.56-1.67-1.99-2.91-3.72-3.24l-1.83-.34-.85-1.69C14.52,1.03,12.85,0,11,0h0Z"/>
</svg>