<?xml version="1.0" encoding="UTF-8"?>
<svg id="Layer_1" xmlns="http://www.w3.org/2000/svg" version="1.1" viewBox="0 0 22 22">
  <!-- Generator: Adobe Illustrator 30.1.0, SVG Export Plug-In . SVG Version: 2.1.1 Build 136)  -->
  <path d="M11,1.53c.31,0,.62.16.78.48l1.98,3.93c.34.68.97,1.15,1.72,1.29l4.29.8c.67.13.94.94.48,1.45l-3.12,3.43c-.48.53-.71,1.24-.61,1.95l.61,4.62c.07.55-.37.99-.86.99-.13,0-.27-.03-.4-.1l-3.75-1.93c-.35-.18-.73-.27-1.11-.27s-.76.09-1.11.27l-3.75,1.93c-.13.07-.27.1-.4.1-.5,0-.94-.44-.86-.99l.61-4.62c.09-.71-.13-1.42-.61-1.95l-3.12-3.43c-.46-.51-.19-1.32.48-1.45l4.29-.8c.74-.14,1.38-.62,1.72-1.29l1.98-3.93c.16-.32.47-.48.78-.48M11,0c-.91,0-1.73.51-2.14,1.32l-1.98,3.93c-.12.25-.36.43-.63.48l-4.29.8c-.85.16-1.56.77-1.83,1.6-.28.82-.08,1.74.5,2.38l3.12,3.43c.18.2.26.46.23.72l-.61,4.62c-.09.69.12,1.38.57,1.89.46.52,1.11.82,1.8.82.38,0,.76-.09,1.1-.27l3.75-1.93c.13-.06.27-.1.41-.1s.28.03.41.1l3.75,1.93c.34.17.72.27,1.1.27.69,0,1.35-.3,1.8-.82.45-.52.66-1.21.57-1.89l-.61-4.62c-.03-.26.05-.53.23-.73l3.12-3.43c.59-.64.78-1.55.5-2.38-.28-.82-.98-1.43-1.83-1.59l-4.29-.8c-.27-.05-.51-.23-.63-.48l-1.98-3.93c-.41-.81-1.23-1.32-2.14-1.32h0Z"/>
</svg>