<?xml version="1.0" encoding="UTF-8"?>
<svg id="Layer_1" xmlns="http://www.w3.org/2000/svg" version="1.1" viewBox="0 0 114 114">
  <!-- Generator: Adobe Illustrator 30.1.0, SVG Export Plug-In . SVG Version: 2.1.1 Build 136)  -->
  <path d="M57,17.99c1.27,0,2.54.66,3.2,1.97l8.16,16.2c1.4,2.78,4.01,4.75,7.07,5.32l17.66,3.31c2.76.52,3.88,3.87,1.99,5.95l-12.86,14.12c-1.98,2.18-2.91,5.12-2.52,8.05l2.51,19.03c.3,2.27-1.51,4.07-3.55,4.07-.54,0-1.1-.13-1.64-.4l-15.44-7.95c-1.43-.74-3-1.11-4.56-1.11s-3.13.37-4.56,1.11l-15.44,7.95c-.54.28-1.1.4-1.64.4-2.04,0-3.85-1.8-3.55-4.07l2.51-19.04c.39-2.92-.54-5.86-2.52-8.04l-12.86-14.12c-1.9-2.08-.77-5.44,1.99-5.95l17.65-3.31c3.05-.57,5.66-2.54,7.06-5.32l8.16-16.2c.66-1.32,1.93-1.97,3.2-1.97M57,0C48.8,0,41.42,4.55,37.73,11.87l-6.38,12.66-13.75,2.58c-7.68,1.44-14,6.94-16.48,14.36-2.48,7.42-.76,15.62,4.51,21.4l10.36,11.37-2.03,15.36c-.81,6.17,1.07,12.38,5.16,17.04,4.11,4.68,10.02,7.37,16.23,7.37,3.41,0,6.83-.83,9.88-2.4l11.77-6.06,11.77,6.06c3.05,1.57,6.46,2.4,9.87,2.4,6.21,0,12.12-2.69,16.23-7.37,4.09-4.67,5.97-10.88,5.16-17.04l-2.03-15.36,10.36-11.37c5.27-5.78,7-13.98,4.51-21.4-2.48-7.41-8.8-12.91-16.48-14.35l-13.75-2.58-6.38-12.66C72.58,4.55,65.19,0,57,0h0Z"/>
</svg>