<?xml version="1.0" encoding="UTF-8"?>
<svg id="Layer_1" xmlns="http://www.w3.org/2000/svg" version="1.1" viewBox="0 0 23 23">
  <!-- Generator: Adobe Illustrator 30.1.0, SVG Export Plug-In . SVG Version: 2.1.1 Build 136)  -->
  <circle id="Outer" cx="11.5" cy="11.5" r="10.7" fill="none" stroke="#000" stroke-width="1.6"/>
  <g>
    <g>
      <rect x="10.77" y="15.45" width="1.44" height="1.44"/>
      <path d="M12.1,15.56v1.22h-1.22v-1.22h1.22M12.32,15.34h-1.66v1.66h1.66v-1.66h0Z"/>
    </g>
    <g>
      <path d="M10.77,13.84v-.57c0-.61.22-1.19.63-1.64l1.21-1.34c.31-.35.49-.8.49-1.26,0-.66-.54-1.2-1.21-1.2h-.78c-.67,0-1.21.54-1.21,1.2v.11h-1.45v-.11c0-1.46,1.2-2.65,2.66-2.65h.78c1.47,0,2.66,1.19,2.66,2.65,0,.82-.3,1.61-.86,2.23l-1.21,1.34c-.17.19-.26.42-.27.67v.57h-1.44Z"/>
      <path d="M11.89,6.49c1.41,0,2.56,1.14,2.56,2.54,0,.8-.29,1.56-.83,2.15l-1.21,1.34c-.19.21-.29.47-.29.75v.46h-1.23v-.46c0-.58.21-1.13.6-1.57l1.21-1.34c.33-.37.51-.84.51-1.34,0-.72-.59-1.31-1.32-1.31h-.78c-.73,0-1.32.59-1.32,1.31h-1.24c0-1.4,1.15-2.54,2.56-2.54h.78M11.89,6.27h-.78c-1.53,0-2.77,1.24-2.77,2.75v.22h1.67v-.22c0-.6.5-1.1,1.11-1.1h.78c.61,0,1.11.49,1.11,1.1,0,.44-.16.86-.46,1.19l-1.21,1.34c-.42.47-.66,1.08-.66,1.71v.47s0,.21,0,.21h1.65v-.21s0-.46,0-.46c0-.22.08-.43.24-.6l1.21-1.34c.57-.63.89-1.45.89-2.3,0-1.52-1.24-2.75-2.77-2.75h0Z"/>
    </g>
  </g>
</svg>