<?xml version="1.0" encoding="UTF-8"?>
<svg id="Layer_1" xmlns="http://www.w3.org/2000/svg" version="1.1" viewBox="0 0 23 23">
  <!-- Generator: Adobe Illustrator 30.1.0, SVG Export Plug-In . SVG Version: 2.1.1 Build 136)  -->
  <circle id="Outer" cx="11.5" cy="11.5" r="9.69" fill="none" stroke="#000" stroke-width="3.63"/>
  <g>
    <g>
      <rect x="10.77" y="14.68" width="1.45" height="1.45"/>
      <path d="M11.93,14.97v.87h-.87v-.87h.87M12.51,14.39h-2.02v2.02h2.02v-2.02h0Z"/>
    </g>
    <g>
      <path d="M10.77,13.21v-.62c0-.49.18-.95.5-1.31l.87-.96c.19-.21.29-.48.29-.76,0-.36-.29-.65-.66-.65h-.56c-.36,0-.66.29-.66.65v.29h-1.46v-.29c0-1.16.95-2.1,2.11-2.1h.56c1.17,0,2.11.94,2.11,2.1,0,.64-.24,1.25-.67,1.73l-.87.96c-.09.1-.14.21-.14.34v.62h-1.45Z"/>
      <path d="M11.78,7.75c1.01,0,1.83.81,1.83,1.81,0,.57-.21,1.12-.59,1.54l-.87.96c-.13.15-.21.33-.21.53v.33h-.88v-.33c0-.41.15-.81.43-1.12l.87-.96c.24-.26.37-.6.37-.95,0-.52-.42-.94-.94-.94h-.56c-.52,0-.94.42-.94.94h-.88c0-1,.82-1.81,1.83-1.81h.56M11.78,7.18h-.56c-1.32,0-2.4,1.07-2.4,2.39v.57h2.03v-.57c0-.2.17-.36.37-.36h.56c.2,0,.37.16.37.36,0,.21-.08.41-.22.57l-.87.96c-.37.41-.58.95-.58,1.5v.34s0,.57,0,.57h2.01v-.57s0-.33,0-.33c0-.06.02-.11.06-.15l.87-.96c.48-.53.74-1.21.74-1.92,0-1.32-1.08-2.39-2.4-2.39h0Z"/>
    </g>
  </g>
</svg>