<?xml version="1.0" encoding="UTF-8"?>
<svg id="Layer_1" xmlns="http://www.w3.org/2000/svg" version="1.1" viewBox="0 0 23 23">
  <!-- Generator: Adobe Illustrator 30.1.0, SVG Export Plug-In . SVG Version: 2.1.1 Build 136)  -->
  <circle id="Outer" cx="11.5" cy="11.5" r="10.09" fill="none" stroke="#000" stroke-width="2.81"/>
  <g>
    <g>
      <rect x="10.77" y="14.99" width="1.44" height="1.44"/>
      <path d="M12,15.21v1.01h-1.01v-1.01h1.01M12.43,14.78h-1.87v1.87h1.87v-1.87h0Z"/>
    </g>
    <g>
      <path d="M10.78,13.45v-.6c0-.53.19-1.04.55-1.44l1-1.11c.24-.26.37-.6.37-.96,0-.48-.39-.87-.87-.87h-.64c-.48,0-.88.39-.88.87v.22h-1.45v-.22c0-1.27,1.04-2.31,2.33-2.31h.64c1.28,0,2.33,1.04,2.33,2.31,0,.71-.26,1.39-.74,1.92l-1,1.11c-.12.13-.18.3-.19.47v.6h-1.44Z"/>
      <path d="M11.82,7.26c1.16,0,2.11.94,2.11,2.1,0,.66-.24,1.29-.69,1.78l-1,1.11c-.16.17-.24.38-.24.62v.38h-1.01v-.38c0-.48.17-.94.5-1.29l1-1.11c.27-.3.43-.7.43-1.1,0-.6-.49-1.08-1.09-1.08h-.64c-.6,0-1.09.49-1.09,1.08h-1.02c0-1.16.95-2.1,2.11-2.1h.64M11.82,6.82h-.64c-1.4,0-2.54,1.13-2.54,2.53v.43h1.88v-.43c0-.36.3-.65.66-.65h.64c.36,0,.66.29.66.65,0,.3-.11.59-.31.81l-1,1.11c-.39.43-.61.99-.61,1.58v.39s0,.43,0,.43h1.87v-.43s0-.38,0-.38c0-.13.04-.24.13-.33l1-1.11c.51-.57.8-1.3.8-2.07,0-1.39-1.14-2.53-2.54-2.53h0Z"/>
    </g>
  </g>
</svg>