<?xml version="1.0" encoding="UTF-8"?>
<svg id="Layer_1" xmlns="http://www.w3.org/2000/svg" version="1.1" viewBox="0 0 23 23">
  <!-- Generator: Adobe Illustrator 30.1.0, SVG Export Plug-In . SVG Version: 2.1.1 Build 136)  -->
  <circle id="Outer" cx="11.5" cy="11.5" r="10.5" fill="none" stroke="#000" stroke-width="2"/>
  <g>
    <g>
      <rect x="10.77" y="15.3" width="1.44" height="1.44"/>
      <path d="M12.07,15.44v1.15h-1.15v-1.15h1.15M12.36,15.15h-1.73v1.73h1.73v-1.73h0Z"/>
    </g>
    <g>
      <path d="M10.77,13.71v-.58c0-.58.21-1.14.6-1.57l1.14-1.26c.29-.32.45-.73.45-1.16,0-.6-.49-1.09-1.1-1.09h-.73c-.61,0-1.1.49-1.1,1.09v.14h-1.45v-.14c0-1.4,1.14-2.53,2.55-2.53h.73c1.41,0,2.55,1.14,2.55,2.53,0,.79-.29,1.54-.82,2.12l-1.14,1.26c-.15.17-.24.38-.24.61v.58h-1.44Z"/>
      <path d="M11.87,6.75c1.33,0,2.41,1.07,2.41,2.39,0,.75-.28,1.47-.78,2.03l-1.14,1.26c-.18.2-.27.44-.28.7v.44h-1.16v-.44c0-.55.2-1.07.57-1.47l1.14-1.26c.31-.35.48-.79.48-1.26,0-.68-.56-1.23-1.24-1.23h-.73c-.69,0-1.24.55-1.24,1.23h-1.16c0-1.32,1.08-2.39,2.41-2.39h.73M11.87,6.46h-.73c-1.49,0-2.69,1.2-2.69,2.68v.29h1.74v-.29c0-.52.43-.95.96-.95h.73c.53,0,.96.42.96.95,0,.39-.15.77-.41,1.06l-1.14,1.26c-.41.46-.64,1.05-.64,1.66v.44s0,.28,0,.28h1.72v-.28s0-.44,0-.44c0-.19.07-.37.2-.51l1.14-1.26c.55-.61.86-1.4.86-2.22,0-1.48-1.21-2.68-2.69-2.68h0Z"/>
    </g>
  </g>
</svg>