<?xml version="1.0" encoding="UTF-8"?>
<svg id="Layer_1" xmlns="http://www.w3.org/2000/svg" version="1.1" viewBox="0 0 23 23">
  <!-- Generator: Adobe Illustrator 30.1.0, SVG Export Plug-In . SVG Version: 2.1.1 Build 136)  -->
  <circle id="Outer" cx="11.5" cy="11.5" r="9.28" fill="none" stroke="#000" stroke-width="4.44"/>
  <g>
    <g>
      <rect x="10.76" y="14.37" width="1.47" height="1.46"/>
      <path d="M11.87,14.73v.75h-.75v-.75h.75M12.59,14.01h-2.18v2.18h2.18v-2.18h0Z"/>
    </g>
    <g>
      <path d="M10.77,13v-.64c0-.45.16-.87.46-1.2l.74-.82c.14-.16.22-.36.22-.57,0-.24-.2-.44-.45-.44h-.47c-.25,0-.45.2-.45.44v.36h-1.47v-.36c0-1.05.86-1.91,1.92-1.91h.47c1.06,0,1.92.86,1.92,1.91,0,.57-.21,1.13-.6,1.55l-.74.82c-.06.06-.09.13-.09.21v.64h-1.47Z"/>
      <path d="M11.74,8.22c.86,0,1.56.69,1.56,1.55,0,.49-.18.95-.51,1.31l-.74.82c-.11.13-.18.28-.18.45v.28h-.75v-.28c0-.35.13-.69.37-.95l.74-.82c.2-.22.31-.51.31-.81,0-.44-.36-.8-.81-.8h-.47c-.44,0-.81.36-.81.8h-.75c0-.85.7-1.55,1.56-1.55h.47M11.74,7.5h-.47c-1.26,0-2.28,1.02-2.28,2.27v.72h2.19v-.72s.04-.08.09-.08h.47s.09.04.09.08c0,.12-.05.24-.13.33l-.74.82c-.36.39-.55.9-.55,1.43v.29s0,.71,0,.71h2.17v-.71s.01-.28.01-.28l.73-.8c.45-.49.69-1.13.69-1.79,0-1.25-1.02-2.27-2.28-2.27h0Z"/>
    </g>
  </g>
</svg>