<?xml version="1.0" encoding="UTF-8"?>
<svg id="Layer_1" xmlns="http://www.w3.org/2000/svg" version="1.1" viewBox="0 0 23 23">
  <!-- Generator: Adobe Illustrator 30.1.0, SVG Export Plug-In . SVG Version: 2.1.1 Build 136)  -->
  <circle id="Outer" cx="11.5" cy="11.5" r="9.08" fill="none" stroke="#000" stroke-width="4.84"/>
  <g>
    <g>
      <rect x="10.76" y="14.21" width="1.48" height="1.48"/>
      <path d="M11.84,14.61v.69h-.69v-.69h.69M12.63,13.81h-2.27v2.27h2.27v-2.27h0Z"/>
    </g>
    <g>
      <path d="M10.76,12.9v-.65c0-.43.15-.83.44-1.15l.68-.75c.12-.13.19-.31.19-.48,0-.19-.15-.34-.34-.34h-.44c-.19,0-.34.15-.34.34v.4h-1.48v-.4c0-1,.82-1.82,1.83-1.82h.44c1.01,0,1.83.82,1.83,1.82,0,.54-.2,1.07-.57,1.47l-.68.75s-.06.1-.06.15v.65h-1.48Z"/>
      <path d="M11.72,8.45c.79,0,1.43.64,1.43,1.42,0,.45-.17.87-.46,1.21l-.68.75c-.11.12-.16.26-.16.42v.26h-.69v-.26c0-.33.12-.63.34-.88l.68-.75c.19-.21.29-.47.29-.75,0-.41-.33-.73-.74-.73h-.44c-.41,0-.74.33-.74.73h-.69c0-.78.64-1.42,1.43-1.42h.44M11.72,7.65h-.44c-1.23,0-2.22.99-2.22,2.21v.79h2.01l-.16.18c-.35.39-.54.88-.54,1.4v.27s0,.78,0,.78h2.25v-.78s0-.2,0-.2l.64-.71c.43-.48.67-1.09.67-1.74,0-1.22-1-2.21-2.22-2.21h0ZM11.33,9.92h.33c-.01.06-.04.12-.08.16l-.25.28v-.44h0Z"/>
    </g>
  </g>
</svg>