<?xml version="1.0" encoding="UTF-8"?>
<svg id="Layer_1" xmlns="http://www.w3.org/2000/svg" version="1.1" viewBox="0 0 10 10">
  <!-- Generator: Adobe Illustrator 30.1.0, SVG Export Plug-In . SVG Version: 2.1.1 Build 136)  -->
  <g>
    <g>
      <rect x="4.63" y="2.98" width=".74" height=".74"/>
      <path d="M5.21,3.13v.43h-.43v-.43h.43M5.53,2.82h-1.05v1.05h1.05v-1.05h0Z"/>
    </g>
    <g>
      <polygon points="4.21 6.93 4.21 6.19 4.63 6.19 4.63 5.17 4.21 5.17 4.21 4.43 5.37 4.43 5.37 6.19 5.79 6.19 5.79 6.93 4.21 6.93"/>
      <path d="M5.21,4.59v1.75h.43v.43h-1.28v-.43h.43v-1.33h-.43v-.43h.85M5.53,4.28h-1.48v1.05h.43v.7h-.43v1.05h1.9v-1.05h-.43v-1.75h0Z"/>
    </g>
  </g>
  <circle id="Outer" cx="5" cy="5" r="4.03" fill="none" stroke="#000" stroke-width="1.93"/>
</svg>