<?xml version="1.0" encoding="UTF-8"?>
<svg id="Layer_1" xmlns="http://www.w3.org/2000/svg" version="1.1" viewBox="0 0 92 92">
  <!-- Generator: Adobe Illustrator 30.1.0, SVG Export Plug-In . SVG Version: 2.1.1 Build 136)  -->
  <circle id="Outer" cx="46" cy="46" r="37.12" fill="none" stroke="#000" stroke-width="17.77"/>
  <g>
    <g>
      <rect x="43.05" y="57.47" width="5.86" height="5.86"/>
      <path d="M47.47,58.9v2.99h-2.99v-2.99h2.99M50.35,56.03h-8.74v8.74h8.74v-8.74h0Z"/>
    </g>
    <g>
      <path d="M43.07,51.99l-.02-2.55c0-1.79.66-3.48,1.85-4.79l2.96-3.27c.57-.63.89-1.45.89-2.29,0-.97-.8-1.76-1.79-1.76h-1.9c-.98,0-1.79.79-1.79,1.76v1.44h-5.89v-1.44c0-4.21,3.44-7.63,7.67-7.63h1.9c4.23,0,7.67,3.42,7.67,7.63,0,2.3-.85,4.51-2.4,6.22l-2.96,3.28c-.23.25-.34.54-.34.86l-.03,2.56h-5.83Z"/>
      <path d="M46.95,32.88c3.44,0,6.24,2.78,6.24,6.19,0,1.94-.72,3.81-2.02,5.25l-2.96,3.28c-.46.51-.71,1.14-.71,1.82v1.13h-3v-1.13c0-1.42.52-2.76,1.47-3.82l2.96-3.28c.81-.9,1.26-2.05,1.26-3.26,0-1.76-1.45-3.2-3.22-3.2h-1.9c-1.78,0-3.22,1.44-3.22,3.2h-3.01c0-3.41,2.8-6.19,6.24-6.19h1.9M46.95,30.01h-1.9c-5.02,0-9.11,4.07-9.11,9.07v2.88h8.76v-2.88c0-.18.16-.33.35-.33h1.9c.19,0,.35.15.35.33,0,.49-.18.96-.51,1.33l-2.96,3.28c-1.42,1.57-2.21,3.61-2.22,5.73v1.17s.04,2.85.04,2.85h8.68l.03-2.85v-1.08s2.94-3.25,2.94-3.25c1.78-1.98,2.77-4.53,2.77-7.18,0-5-4.09-9.07-9.11-9.07h0Z"/>
    </g>
  </g>
</svg>