<?xml version="1.0" encoding="UTF-8"?>
<svg id="Layer_1" xmlns="http://www.w3.org/2000/svg" version="1.1" viewBox="0 0 92 92">
  <!-- Generator: Adobe Illustrator 30.1.0, SVG Export Plug-In . SVG Version: 2.1.1 Build 136)  -->
  <circle id="Outer" cx="46" cy="46" r="42.81" fill="none" stroke="#000" stroke-width="6.38"/>
  <g>
    <g>
      <rect x="43.09" y="61.79" width="5.76" height="5.76"/>
      <path d="M48.42,62.22v4.9h-4.9v-4.9h4.9M49.28,61.36h-6.62v6.62h6.62v-6.62h0Z"/>
    </g>
    <g>
      <path d="M43.1,55.37l-.02-2.28c0-2.43.91-4.75,2.54-6.55l4.85-5.37c1.26-1.39,1.95-3.19,1.95-5.05,0-2.66-2.18-4.82-4.85-4.82h-3.12c-2.68,0-4.85,2.16-4.85,4.82v.43h-5.8v-.43c0-5.84,4.78-10.59,10.66-10.59h3.12c5.88,0,10.66,4.75,10.66,10.59,0,3.29-1.22,6.46-3.43,8.91l-4.85,5.38c-.69.76-1.06,1.7-1.06,2.7l-.02,2.28h-5.75Z"/>
      <path d="M47.56,25.95c5.64,0,10.23,4.56,10.23,10.16,0,3.19-1.18,6.25-3.32,8.62l-4.85,5.38c-.75.83-1.17,1.86-1.17,2.98l-.02,1.85h-4.9l-.02-1.85c0-2.32.86-4.53,2.43-6.26l4.85-5.37c1.33-1.47,2.06-3.37,2.06-5.34,0-2.89-2.37-5.25-5.29-5.25h-3.12c-2.91,0-5.29,2.35-5.29,5.25h-4.94c0-5.6,4.59-10.16,10.23-10.16h3.12M47.56,25.09h-3.12c-6.11,0-11.09,4.94-11.09,11.02v.86h6.67v-.86c0-2.42,1.98-4.39,4.42-4.39h3.12c2.44,0,4.42,1.97,4.42,4.39,0,1.76-.65,3.45-1.84,4.76l-4.85,5.37c-1.7,1.88-2.64,4.31-2.65,6.84l.02,1.86v.85h6.61v-.85s.03-1.85.03-1.85c0-.9.33-1.73.95-2.41l4.85-5.38c2.28-2.53,3.54-5.8,3.54-9.2,0-6.08-4.97-11.02-11.09-11.02h0Z"/>
    </g>
  </g>
</svg>