<?xml version="1.0" encoding="UTF-8"?>
<svg id="Layer_1" xmlns="http://www.w3.org/2000/svg" version="1.1" viewBox="0 0 92 92">
  <!-- Generator: Adobe Illustrator 30.1.0, SVG Export Plug-In . SVG Version: 2.1.1 Build 136)  -->
  <circle id="Outer" cx="46" cy="46" r="40.38" fill="none" stroke="#000" stroke-width="11.24"/>
  <g>
    <g>
      <rect x="43.09" y="59.96" width="5.77" height="5.77"/>
      <path d="M48,60.83v4.04h-4.04v-4.04h4.04M49.72,59.1h-7.49v7.49h7.49v-7.49h0Z"/>
    </g>
    <g>
      <path d="M43.1,53.82l-.02-2.38c0-2.14.8-4.18,2.23-5.75l4-4.44c.95-1.06,1.48-2.42,1.48-3.83,0-1.91-1.57-3.47-3.5-3.47h-2.57c-1.93,0-3.5,1.56-3.5,3.47v.86h-5.8v-.86c0-5.1,4.17-9.25,9.31-9.25h2.57c5.13,0,9.31,4.15,9.31,9.25,0,2.84-1.05,5.58-2.96,7.69l-4,4.44c-.49.54-.74,1.19-.75,1.89l-.02,2.39h-5.75Z"/>
      <path d="M47.29,29.02c4.66,0,8.44,3.76,8.44,8.38,0,2.63-.97,5.16-2.74,7.11l-4.01,4.44c-.62.69-.96,1.54-.97,2.46l-.02,1.53h-4.04v-1.53c0-1.92.7-3.74,1.99-5.17l4-4.44c1.1-1.21,1.7-2.78,1.7-4.41,0-2.39-1.96-4.33-4.36-4.33h-2.57c-2.41,0-4.36,1.94-4.36,4.33h-4.08c0-4.62,3.79-8.38,8.44-8.38h2.57M47.29,27.3h-2.57c-5.61,0-10.17,4.53-10.17,10.11v1.72h7.53v-1.72c0-1.44,1.18-2.61,2.64-2.61h2.57c1.46,0,2.64,1.17,2.64,2.61,0,1.2-.45,2.36-1.26,3.25l-4,4.44c-1.57,1.74-2.44,3.98-2.45,6.32v1.55s.03,1.71.03,1.71h7.46l.02-1.71.02-1.53c0-.5.18-.94.52-1.32l4.01-4.44c2.05-2.28,3.19-5.21,3.19-8.27,0-5.57-4.56-10.11-10.17-10.11h0Z"/>
    </g>
  </g>
</svg>