<?xml version="1.0" encoding="UTF-8"?>
<svg id="Layer_1" xmlns="http://www.w3.org/2000/svg" version="1.1" viewBox="0 0 92 92">
  <!-- Generator: Adobe Illustrator 30.1.0, SVG Export Plug-In . SVG Version: 2.1.1 Build 136)  -->
  <circle id="Outer" cx="46" cy="46" r="38.74" fill="none" stroke="#000" stroke-width="14.52"/>
  <g>
    <g>
      <rect x="43.08" y="58.72" width="5.8" height="5.8"/>
      <path d="M47.72,59.87v3.5h-3.5v-3.5h3.5M50.02,57.57h-8.1v8.1h8.1v-8.1h0Z"/>
    </g>
    <g>
      <path d="M43.09,52.86l-.02-2.46c0-1.95.73-3.81,2.03-5.25l3.46-3.84c.76-.84,1.17-1.92,1.17-3.05,0-1.43-1.18-2.6-2.62-2.6h-2.23c-1.45,0-2.63,1.17-2.63,2.6v1.15h-5.83v-1.15c0-4.63,3.79-8.4,8.46-8.4h2.23c4.66,0,8.46,3.77,8.46,8.4,0,2.56-.95,5.02-2.67,6.93l-3.47,3.84c-.35.39-.54.86-.54,1.36l-.02,2.47h-5.78Z"/>
      <path d="M47.11,31c4.03,0,7.31,3.25,7.31,7.25,0,2.28-.84,4.46-2.37,6.16l-3.47,3.84c-.54.59-.83,1.33-.84,2.13v1.32h-3.51v-1.32c0-1.66.61-3.24,1.72-4.47l3.46-3.84c.95-1.05,1.47-2.41,1.47-3.82,0-2.07-1.69-3.75-3.78-3.75h-2.23c-2.08,0-3.78,1.68-3.78,3.75h-3.53c0-4,3.28-7.25,7.31-7.25h2.23M47.11,28.7h-2.23c-5.3,0-9.61,4.29-9.61,9.55v2.3h8.13v-2.3c0-.8.66-1.45,1.48-1.45h2.23c.81,0,1.48.65,1.48,1.45,0,.84-.31,1.65-.88,2.27l-3.47,3.84c-1.49,1.65-2.32,3.78-2.33,6v1.35s.03,2.28.03,2.28h8.06l.02-2.28v-1.32c.01-.24.09-.43.26-.61l3.47-3.84c1.91-2.12,2.96-4.85,2.96-7.7,0-5.27-4.31-9.55-9.61-9.55h0Z"/>
    </g>
  </g>
</svg>