<?xml version="1.0" encoding="UTF-8"?>
<svg id="Layer_1" xmlns="http://www.w3.org/2000/svg" version="1.1" viewBox="0 0 92 92">
  <!-- Generator: Adobe Illustrator 30.1.0, SVG Export Plug-In . SVG Version: 2.1.1 Build 136)  -->
  <circle id="Outer" cx="46" cy="46" r="36.31" fill="none" stroke="#000" stroke-width="19.38"/>
  <g>
    <g>
      <rect x="43.03" y="56.84" width="5.9" height="5.91"/>
      <path d="M47.35,58.42v2.74h-2.74v-2.74h2.74M50.51,55.26h-9.07v9.07h9.07v-9.07h0Z"/>
    </g>
    <g>
      <path d="M43.05,51.59l-.02-2.6c0-1.71.63-3.33,1.77-4.58l2.72-3.01c.48-.53.75-1.22.75-1.93,0-.75-.62-1.36-1.38-1.36h-1.75c-.76,0-1.38.61-1.38,1.36v1.58h-5.93v-1.58c0-4.01,3.28-7.27,7.31-7.27h1.75c4.03,0,7.31,3.26,7.31,7.27,0,2.18-.81,4.27-2.27,5.89l-2.72,3.01c-.17.18-.25.39-.25.62l-.03,2.61h-5.88Z"/>
      <path d="M46.87,33.78c3.16,0,5.73,2.55,5.73,5.69,0,1.78-.66,3.5-1.86,4.83l-2.72,3.01c-.42.47-.65,1.04-.66,1.67v1.04h-2.75v-1.04c0-1.3.47-2.54,1.35-3.51l2.72-3.01c.74-.82,1.15-1.89,1.15-2.99,0-1.62-1.33-2.94-2.96-2.94h-1.75c-1.63,0-2.96,1.32-2.96,2.94h-2.77c0-3.14,2.57-5.69,5.73-5.69h1.75M46.87,30.62h-1.75c-4.9,0-8.89,3.97-8.89,8.85v3.16h8.03l-.65.72c-1.39,1.54-2.17,3.54-2.17,5.61v1.08s.04,3.13.04,3.13h9.01l.03-3.13v-.79s2.57-2.84,2.57-2.84c1.72-1.91,2.67-4.38,2.67-6.94,0-4.88-3.99-8.85-8.89-8.85h0ZM45.33,39.69h1.32c-.04.24-.15.46-.32.65l-1,1.11v-1.76h0Z"/>
    </g>
  </g>
</svg>