<?xml version="1.0" encoding="UTF-8"?>
<svg id="Layer_1" xmlns="http://www.w3.org/2000/svg" version="1.1" viewBox="0 0 92 92">
  <!-- Generator: Adobe Illustrator 30.1.0, SVG Export Plug-In . SVG Version: 2.1.1 Build 136)  -->
  <circle id="Outer" cx="46" cy="46" r="42" fill="none" stroke="#000" stroke-width="7.99"/>
  <g>
    <g>
      <rect x="43.09" y="61.19" width="5.76" height="5.76"/>
      <path d="M48.28,61.76v4.61h-4.61v-4.61h4.61M49.43,60.61h-6.91v6.91h6.91v-6.91h0Z"/>
    </g>
    <g>
      <path d="M43.1,54.84l-.02-2.31c0-2.33.87-4.56,2.43-6.28l4.56-5.06c1.15-1.28,1.79-2.93,1.79-4.64,0-2.41-1.97-4.36-4.4-4.36h-2.93c-2.43,0-4.4,1.96-4.4,4.36v.58h-5.8v-.58c0-5.59,4.58-10.13,10.2-10.13h2.93c5.62,0,10.2,4.54,10.2,10.13,0,3.14-1.16,6.16-3.27,8.49l-4.57,5.06c-.62.69-.95,1.53-.95,2.42l-.02,2.32h-5.75Z"/>
      <path d="M47.47,26.99c5.31,0,9.62,4.29,9.62,9.56,0,3-1.11,5.88-3.13,8.11l-4.57,5.06c-.71.78-1.1,1.75-1.1,2.81l-.02,1.74h-4.61l-.02-1.74c0-2.18.81-4.27,2.28-5.89l4.56-5.06c1.25-1.38,1.94-3.17,1.94-5.03,0-2.72-2.23-4.94-4.97-4.94h-2.93c-2.74,0-4.97,2.22-4.97,4.94h-4.65c0-5.27,4.32-9.56,9.62-9.56h2.93M47.47,25.84h-2.93c-5.94,0-10.77,4.8-10.77,10.71v1.15h6.95v-1.15c0-2.09,1.72-3.79,3.82-3.79h2.93c2.11,0,3.82,1.7,3.82,3.79,0,1.57-.58,3.08-1.64,4.26l-4.56,5.06c-1.65,1.83-2.57,4.19-2.58,6.66l.02,1.76v1.14h6.9v-1.14s.03-1.74.03-1.74c0-.76.28-1.47.81-2.05l4.57-5.06c2.21-2.44,3.42-5.6,3.42-8.88,0-5.9-4.83-10.71-10.77-10.71h0Z"/>
    </g>
  </g>
</svg>