<?xml version="1.0" encoding="UTF-8"?>
<svg id="Layer_1" xmlns="http://www.w3.org/2000/svg" version="1.1" viewBox="0 0 85 85">
  <!-- Generator: Adobe Illustrator 30.1.0, SVG Export Plug-In . SVG Version: 2.1.1 Build 136)  -->
  <path d="M42.5,5.9c1.19,0,2.38.62,3,1.85l7.66,15.2c1.31,2.61,3.77,4.45,6.63,4.99l16.57,3.11c2.59.49,3.64,3.63,1.86,5.58l-12.07,13.25c-1.86,2.04-2.73,4.81-2.37,7.55l2.36,17.86c.28,2.13-1.42,3.82-3.33,3.82-.51,0-1.03-.12-1.54-.38l-14.49-7.46c-1.34-.69-2.81-1.04-4.28-1.04-1.47,0-2.94.35-4.28,1.04l-14.49,7.46c-.51.26-1.03.38-1.54.38-1.92,0-3.61-1.69-3.33-3.82l2.36-17.86c.36-2.74-.5-5.5-2.36-7.54l-12.07-13.25c-1.78-1.95-.73-5.1,1.87-5.59l16.57-3.11c2.86-.54,5.31-2.38,6.63-4.99l7.66-15.2c.62-1.23,1.81-1.85,3-1.85M42.5,0c-3.52,0-6.69,1.95-8.27,5.1l-7.66,15.2c-.48.96-1.4,1.65-2.45,1.85l-16.57,3.11c-3.3.62-6.01,2.98-7.08,6.16-1.07,3.19-.32,6.71,1.94,9.19l12.07,13.25c.69.76,1.01,1.78.88,2.8l-2.36,17.86c-.35,2.65.46,5.32,2.21,7.31,1.77,2.02,4.31,3.17,6.97,3.17,1.46,0,2.92-.36,4.24-1.03l14.49-7.46c.49-.25,1.03-.38,1.58-.38.55,0,1.09.13,1.58.38l14.49,7.46c1.31.68,2.78,1.03,4.24,1.03,2.66,0,5.2-1.16,6.97-3.17,1.75-2,2.56-4.67,2.21-7.31l-2.36-17.86c-.14-1.02.19-2.05.88-2.81l12.07-13.25c2.26-2.48,3-6,1.94-9.19-1.07-3.18-3.78-5.54-7.07-6.16l-16.57-3.11c-1.05-.2-1.97-.89-2.45-1.85l-7.66-15.2c-1.58-3.14-4.75-5.1-8.27-5.1h0Z"/>
</svg>