<?xml version="1.0" encoding="UTF-8"?>
<svg id="Layer_1" xmlns="http://www.w3.org/2000/svg" version="1.1" viewBox="0 0 85 85">
  <!-- Generator: Adobe Illustrator 30.1.0, SVG Export Plug-In . SVG Version: 2.1.1 Build 136)  -->
  <path d="M42.5,16.42c.85,0,1.7.44,2.14,1.32l5.46,10.83c.94,1.86,2.68,3.17,4.73,3.56l11.81,2.21c1.85.35,2.59,2.59,1.33,3.98l-8.6,9.44c-1.33,1.46-1.94,3.43-1.69,5.38l1.68,12.73c.2,1.52-1.01,2.72-2.37,2.72-.36,0-.73-.08-1.1-.27l-10.33-5.32c-.96-.49-2-.74-3.05-.74-1.05,0-2.09.25-3.05.74l-10.33,5.32c-.36.19-.73.27-1.1.27-1.37,0-2.58-1.2-2.37-2.72l1.68-12.73c.26-1.95-.36-3.92-1.68-5.37l-8.6-9.44c-1.27-1.39-.52-3.64,1.33-3.98l11.8-2.21c2.04-.38,3.79-1.7,4.72-3.55l5.46-10.83c.44-.88,1.29-1.32,2.14-1.32M42.5,0C35.35,0,28.92,3.97,25.7,10.35l-3.29,6.53-7.06,1.32c-6.7,1.26-12.21,6.05-14.37,12.52-2.17,6.47-.66,13.62,3.93,18.66l5.55,6.09-1.09,8.25c-.71,5.38.93,10.79,4.5,14.86,3.58,4.08,8.74,6.42,14.15,6.42,2.98,0,5.95-.72,8.61-2.09l5.86-3.02,5.86,3.02c2.66,1.37,5.64,2.09,8.61,2.09,5.41,0,10.57-2.34,14.15-6.42,3.57-4.07,5.21-9.49,4.5-14.86l-1.09-8.25,5.56-6.1c4.59-5.04,6.1-12.19,3.93-18.65-2.17-6.46-7.67-11.26-14.37-12.52l-7.06-1.32-3.29-6.53C56.08,3.97,49.65,0,42.5,0h0Z"/>
</svg>