<?xml version="1.0" encoding="UTF-8"?>
<svg id="Layer_1" xmlns="http://www.w3.org/2000/svg" version="1.1" viewBox="0 0 85 85">
  <!-- Generator: Adobe Illustrator 30.1.0, SVG Export Plug-In . SVG Version: 2.1.1 Build 136)  -->
  <path d="M42.5,10.39c1.04,0,2.09.54,2.63,1.62l6.72,13.34c1.15,2.29,3.3,3.91,5.82,4.38l14.53,2.72c2.27.43,3.19,3.19,1.64,4.9l-10.59,11.62c-1.63,1.79-2.39,4.22-2.08,6.63l2.07,15.67c.25,1.87-1.24,3.35-2.92,3.35-.45,0-.9-.1-1.35-.33l-12.71-6.55c-1.18-.61-2.47-.91-3.76-.91-1.29,0-2.58.3-3.76.91l-12.71,6.55c-.44.23-.9.33-1.35.33-1.68,0-3.17-1.48-2.92-3.35l2.07-15.67c.32-2.4-.44-4.83-2.07-6.62l-10.59-11.62c-1.56-1.71-.64-4.48,1.64-4.9l14.53-2.72c2.51-.47,4.66-2.09,5.81-4.38l6.72-13.34c.55-1.08,1.59-1.62,2.63-1.62M42.5,0C37.43,0,32.87,2.81,30.59,7.34l-6.24,12.38-13.47,2.52c-4.75.89-8.65,4.29-10.19,8.88-1.54,4.59-.47,9.66,2.79,13.23l9.91,10.88-1.94,14.68c-.5,3.81.66,7.65,3.19,10.54,2.54,2.9,6.2,4.56,10.03,4.56,2.11,0,4.22-.51,6.1-1.49l11.71-6.03,11.71,6.03c1.89.97,4,1.49,6.1,1.49,3.84,0,7.49-1.66,10.03-4.56,2.53-2.88,3.69-6.72,3.19-10.54l-1.94-14.68,9.92-10.88c3.26-3.57,4.33-8.64,2.79-13.23-1.54-4.58-5.44-7.98-10.19-8.87l-13.47-2.53-6.24-12.38C52.13,2.81,47.56,0,42.5,0h0Z"/>
</svg>