<?xml version="1.0" encoding="UTF-8"?>
<svg id="Layer_1" xmlns="http://www.w3.org/2000/svg" version="1.1" viewBox="0 0 85 85">
  <!-- Generator: Adobe Illustrator 30.1.0, SVG Export Plug-In . SVG Version: 2.1.1 Build 136)  -->
  <path d="M42.5,7.38c1.14,0,2.28.59,2.88,1.78l7.35,14.58c1.26,2.5,3.61,4.27,6.36,4.79l15.89,2.98c2.48.47,3.49,3.49,1.79,5.36l-11.58,12.71c-1.79,1.96-2.62,4.61-2.27,7.24l2.26,17.13c.27,2.04-1.36,3.66-3.2,3.66-.49,0-.99-.11-1.47-.36l-13.9-7.16c-1.29-.66-2.7-1-4.11-1s-2.82.33-4.11,1l-13.9,7.16c-.49.25-.99.36-1.47.36-1.84,0-3.47-1.62-3.2-3.66l2.26-17.14c.35-2.63-.48-5.28-2.27-7.24l-11.58-12.71c-1.71-1.87-.7-4.89,1.79-5.36l15.89-2.98c2.75-.52,5.1-2.28,6.36-4.79l7.35-14.59c.6-1.18,1.74-1.78,2.88-1.78M42.5,0C38.47,0,34.84,2.24,33.02,5.84l-7.35,14.59c-.22.44-.64.76-1.12.85l-15.89,2.98c-3.78.71-6.89,3.41-8.11,7.06-1.22,3.65-.37,7.69,2.22,10.53l11.58,12.71c.32.35.47.82.4,1.3l-2.26,17.14c-.4,3.03.52,6.09,2.53,8.38,2.02,2.31,4.93,3.63,7.99,3.63,1.67,0,3.35-.41,4.86-1.18l13.9-7.16c.23-.12.47-.18.73-.18s.5.06.73.18l13.9,7.16c1.5.77,3.18,1.18,4.86,1.18,3.05,0,5.96-1.32,7.99-3.63,2.01-2.29,2.93-5.35,2.53-8.38l-2.26-17.13c-.06-.48.09-.95.41-1.31l11.58-12.71c2.59-2.84,3.44-6.88,2.22-10.53-1.22-3.65-4.33-6.35-8.11-7.06l-15.89-2.98c-.48-.09-.9-.41-1.13-.85l-7.35-14.58C50.16,2.24,46.53,0,42.5,0h0Z"/>
</svg>