<?xml version="1.0" encoding="UTF-8"?>
<svg id="Layer_1" xmlns="http://www.w3.org/2000/svg" version="1.1" viewBox="0 0 113 113">
  <!-- Generator: Adobe Illustrator 30.1.0, SVG Export Plug-In . SVG Version: 2.1.1 Build 136)  -->
  <g>
    <g>
      <rect x="52.4" y="32.21" width="8.2" height="8.2"/>
      <path d="M59.19,33.63v5.37h-5.37v-5.37h5.37M62.01,30.8h-11.02v11.02h11.02v-11.02h0Z"/>
    </g>
    <g>
      <polygon points="47.03 79.97 47.03 71.78 52.4 71.78 52.4 57.82 47.03 57.82 47.03 49.62 60.6 49.62 60.6 71.78 65.97 71.78 65.97 79.97 47.03 79.97"/>
      <path d="M59.19,51.04v22.15h5.37v5.37h-16.12v-5.37h5.37v-16.78h-5.37v-5.37h10.75M62.01,48.21h-16.4v11.02h5.37v11.13h-5.37v11.02h21.77v-11.02h-5.37v-22.15h0Z"/>
    </g>
  </g>
  <circle id="Outer" cx="56.5" cy="56.5" r="47.58" fill="none" stroke="#000" stroke-width="17.83"/>
</svg>