<?xml version="1.0" encoding="UTF-8"?>
<svg id="Layer_1" xmlns="http://www.w3.org/2000/svg" version="1.1" viewBox="0 0 113 113">
  <!-- Generator: Adobe Illustrator 30.1.0, SVG Export Plug-In . SVG Version: 2.1.1 Build 136)  -->
  <g>
    <g>
      <rect x="52.46" y="30.76" width="8.08" height="8.08"/>
      <path d="M59.48,31.82v5.96h-5.96v-5.96h5.96M61.6,29.7h-10.19v10.19h10.19v-10.19h0Z"/>
    </g>
    <g>
      <polygon points="46.5 81.74 46.5 73.66 52.46 73.66 52.46 57.18 46.5 57.18 46.5 49.11 60.54 49.11 60.54 73.66 66.5 73.66 66.5 81.74 46.5 81.74"/>
      <path d="M59.48,50.17v24.55h5.96v5.96h-17.87v-5.96h5.96v-18.6h-5.96v-5.96h11.91M61.6,48.05h-16.15v10.19h5.96v14.36h-5.96v10.19h22.11v-10.19h-5.96v-24.55h0Z"/>
    </g>
  </g>
  <circle id="Outer" cx="56.5" cy="56.5" r="49.6" fill="none" stroke="#000" stroke-width="13.81"/>
</svg>