<?xml version="1.0" encoding="UTF-8"?>
<svg id="Layer_1" xmlns="http://www.w3.org/2000/svg" version="1.1" viewBox="0 0 24 24">
  <!-- Generator: Adobe Illustrator 30.1.0, SVG Export Plug-In . SVG Version: 2.1.1 Build 136)  -->
  <circle id="Outer" cx="12" cy="12" r="9.68" fill="none" stroke="#000" stroke-width="4.64"/>
  <g>
    <g>
      <rect x="11.23" y="14.99" width="1.53" height="1.53"/>
      <path d="M12.38,15.37v.78h-.78v-.78h.78M13.13,14.62h-2.28v2.28h2.28v-2.28h0Z"/>
    </g>
    <g>
      <path d="M11.24,13.56v-.67c0-.47.17-.91.48-1.25l.77-.85c.15-.17.23-.38.23-.6,0-.25-.21-.46-.47-.46h-.5c-.26,0-.47.21-.47.46v.38h-1.54v-.38c0-1.1.9-1.99,2-1.99h.5c1.1,0,2,.89,2,1.99,0,.6-.22,1.18-.62,1.62l-.77.85c-.06.07-.09.14-.09.22v.67h-1.53Z"/>
      <path d="M12.25,8.58c.9,0,1.63.72,1.63,1.62,0,.51-.19.99-.53,1.37l-.77.86c-.12.13-.19.3-.19.47v.29h-.78v-.29c0-.37.13-.72.38-1l.77-.85c.21-.23.33-.54.33-.85,0-.46-.38-.83-.84-.83h-.5c-.46,0-.84.37-.84.83h-.79c0-.89.73-1.62,1.63-1.62h.5M12.25,7.83h-.5c-1.31,0-2.38,1.06-2.38,2.37v.75h2.29v-.75s.04-.08.09-.08h.5s.09.04.09.08c0,.13-.05.25-.13.35l-.77.85c-.37.41-.58.94-.58,1.5v.3s0,.74,0,.74h2.26v-.74s.01-.29.01-.29l.76-.83c.47-.52.72-1.18.72-1.87,0-1.3-1.07-2.37-2.38-2.37h0Z"/>
    </g>
  </g>
</svg>