<?xml version="1.0" encoding="UTF-8"?>
<svg id="Layer_1" xmlns="http://www.w3.org/2000/svg" version="1.1" viewBox="0 0 24 24">
  <!-- Generator: Adobe Illustrator 30.1.0, SVG Export Plug-In . SVG Version: 2.1.1 Build 136)  -->
  <circle id="Outer" cx="12" cy="12" r="11.17" fill="none" stroke="#000" stroke-width="1.66"/>
  <g>
    <g>
      <rect x="11.24" y="16.12" width="1.5" height="1.5"/>
      <path d="M12.63,16.23v1.28h-1.28v-1.28h1.28M12.86,16.01h-1.73v1.73h1.73v-1.73h0Z"/>
    </g>
    <g>
      <path d="M11.24,14.44v-.59c0-.63.23-1.24.66-1.71l1.26-1.4c.33-.36.51-.83.51-1.32,0-.69-.57-1.26-1.27-1.26h-.81c-.7,0-1.27.56-1.27,1.26v.11h-1.51v-.11c0-1.52,1.25-2.76,2.78-2.76h.81c1.53,0,2.78,1.24,2.78,2.76,0,.86-.32,1.68-.89,2.32l-1.27,1.4c-.18.2-.28.44-.28.7v.6h-1.51Z"/>
      <path d="M12.41,6.77c1.47,0,2.67,1.19,2.67,2.65,0,.83-.31,1.63-.87,2.25l-1.27,1.4c-.2.22-.3.49-.31.78v.48h-1.28v-.48c0-.61.22-1.18.63-1.63l1.27-1.4c.35-.38.54-.88.54-1.39,0-.75-.62-1.37-1.38-1.37h-.81c-.76,0-1.38.61-1.38,1.37h-1.29c0-1.46,1.2-2.65,2.67-2.65h.81M12.41,6.55h-.81c-1.6,0-2.89,1.29-2.89,2.87v.23h1.74v-.23c0-.63.52-1.14,1.15-1.14h.81c.64,0,1.15.51,1.15,1.14,0,.46-.17.9-.48,1.24l-1.27,1.4c-.44.49-.69,1.12-.69,1.78v.49s0,.22,0,.22h1.72v-.22s0-.48,0-.48c0-.23.09-.45.25-.63l1.27-1.4c.6-.66.92-1.51.92-2.4,0-1.58-1.3-2.87-2.89-2.87h0Z"/>
    </g>
  </g>
</svg>