<?xml version="1.0" encoding="UTF-8"?>
<svg id="Layer_1" xmlns="http://www.w3.org/2000/svg" version="1.1" viewBox="0 0 24 24">
  <!-- Generator: Adobe Illustrator 30.1.0, SVG Export Plug-In . SVG Version: 2.1.1 Build 136)  -->
  <circle id="Outer" cx="12" cy="12" r="10.53" fill="none" stroke="#000" stroke-width="2.93"/>
  <g>
    <g>
      <rect x="11.24" y="15.64" width="1.5" height="1.5"/>
      <path d="M12.52,15.87v1.05h-1.05v-1.05h1.05M12.97,15.42h-1.95v1.95h1.95v-1.95h0Z"/>
    </g>
    <g>
      <path d="M11.24,14.04v-.62c0-.56.2-1.09.58-1.5l1.04-1.16c.25-.27.39-.63.39-1,0-.5-.41-.91-.91-.91h-.67c-.5,0-.91.41-.91.91v.23h-1.51v-.23c0-1.33,1.09-2.41,2.43-2.41h.67c1.34,0,2.43,1.08,2.43,2.41,0,.74-.27,1.45-.77,2.01l-1.05,1.16c-.13.14-.19.31-.19.49v.62h-1.51Z"/>
      <path d="M12.34,7.57c1.21,0,2.2.98,2.2,2.19,0,.69-.25,1.35-.72,1.86l-1.04,1.16c-.16.18-.25.4-.25.64v.4h-1.06v-.4c0-.5.18-.98.52-1.35l1.04-1.16c.29-.32.44-.73.44-1.15,0-.62-.51-1.13-1.14-1.13h-.67c-.63,0-1.14.51-1.14,1.13h-1.06c0-1.21.99-2.19,2.2-2.19h.67M12.34,7.12h-.67c-1.46,0-2.65,1.18-2.65,2.64v.45h1.96v-.45c0-.38.31-.68.69-.68h.67c.38,0,.69.31.69.68,0,.31-.12.62-.33.85l-1.04,1.16c-.41.45-.64,1.04-.64,1.65v.4s0,.45,0,.45h1.95v-.45s0-.4,0-.4c0-.13.05-.25.14-.35l1.05-1.16c.54-.59.83-1.36.83-2.16,0-1.45-1.19-2.64-2.65-2.64h0Z"/>
    </g>
  </g>
</svg>