<?xml version="1.0" encoding="UTF-8"?>
<svg id="Layer_1" xmlns="http://www.w3.org/2000/svg" version="1.1" viewBox="0 0 24 24">
  <!-- Generator: Adobe Illustrator 30.1.0, SVG Export Plug-In . SVG Version: 2.1.1 Build 136)  -->
  <circle id="Outer" cx="12" cy="12" r="10.11" fill="none" stroke="#000" stroke-width="3.79"/>
  <g>
    <g>
      <rect x="11.24" y="15.32" width="1.51" height="1.51"/>
      <path d="M12.45,15.62v.91h-.91v-.91h.91M13.05,15.02h-2.11v2.11h2.11v-2.11h0Z"/>
    </g>
    <g>
      <path d="M11.24,13.79v-.64c0-.51.18-1,.52-1.37l.9-1c.2-.22.31-.5.31-.79,0-.37-.31-.68-.69-.68h-.58c-.38,0-.69.3-.69.68v.3h-1.52v-.3c0-1.21.99-2.19,2.21-2.19h.58c1.22,0,2.21.98,2.21,2.19,0,.67-.25,1.31-.7,1.81l-.9,1c-.09.1-.14.22-.14.36v.64h-1.51Z"/>
      <path d="M12.29,8.09c1.05,0,1.91.85,1.91,1.89,0,.59-.22,1.16-.62,1.61l-.9,1c-.14.15-.22.35-.22.56v.35h-.92v-.35c0-.43.16-.84.45-1.17l.9-1c.25-.27.38-.63.38-1,0-.54-.44-.98-.99-.98h-.58c-.54,0-.99.44-.99.98h-.92c0-1.04.85-1.89,1.91-1.89h.58M12.29,7.49h-.58c-1.38,0-2.51,1.12-2.51,2.49v.6h2.12v-.6c0-.21.17-.38.39-.38h.58c.21,0,.39.17.39.38,0,.22-.08.43-.23.59l-.9,1c-.39.43-.6.99-.61,1.57v.35s0,.59,0,.59h2.1v-.59s0-.35,0-.35c0-.06.02-.11.06-.16l.9-1c.5-.55.77-1.27.77-2.01,0-1.37-1.12-2.49-2.51-2.49h0Z"/>
    </g>
  </g>
</svg>