<?xml version="1.0" encoding="UTF-8"?>
<svg id="Layer_1" xmlns="http://www.w3.org/2000/svg" version="1.1" viewBox="0 0 24 24">
  <!-- Generator: Adobe Illustrator 30.1.0, SVG Export Plug-In . SVG Version: 2.1.1 Build 136)  -->
  <circle id="Outer" cx="12" cy="12" r="9.47" fill="none" stroke="#000" stroke-width="5.05"/>
  <g>
    <g>
      <rect x="11.22" y="14.83" width="1.54" height="1.54"/>
      <path d="M12.35,15.24v.72h-.72v-.72h.72M13.18,14.42h-2.37v2.37h2.37v-2.37h0Z"/>
    </g>
    <g>
      <path d="M11.23,13.46v-.68c0-.45.16-.87.45-1.19l.71-.79c.13-.14.19-.32.19-.5,0-.2-.16-.35-.36-.35h-.46c-.2,0-.36.16-.36.35v.41h-1.55v-.41c0-1.05.86-1.9,1.91-1.9h.46c1.05,0,1.91.85,1.91,1.9,0,.57-.21,1.11-.59,1.54l-.71.79s-.06.1-.06.16v.68h-1.54Z"/>
      <path d="M12.23,8.81c.82,0,1.49.67,1.49,1.48,0,.47-.17.91-.49,1.26l-.71.79c-.11.12-.17.27-.17.44v.27h-.72v-.27c0-.34.12-.66.35-.91l.71-.79c.19-.21.3-.49.3-.78,0-.42-.35-.77-.77-.77h-.46c-.43,0-.77.34-.77.77h-.72c0-.82.67-1.48,1.49-1.48h.46M12.23,7.99h-.46c-1.28,0-2.32,1.04-2.32,2.31v.82h2.09l-.17.19c-.36.4-.57.92-.57,1.46v.28s0,.82,0,.82h2.35v-.82s.01-.21.01-.21l.67-.74c.45-.5.7-1.14.7-1.81,0-1.27-1.04-2.31-2.32-2.31h0ZM11.83,10.35h.34c-.01.06-.04.12-.08.17l-.26.29v-.46h0Z"/>
    </g>
  </g>
</svg>