<?xml version="1.0" encoding="UTF-8"?>
<svg id="Layer_1" xmlns="http://www.w3.org/2000/svg" version="1.1" viewBox="0 0 24 24">
  <!-- Generator: Adobe Illustrator 30.1.0, SVG Export Plug-In . SVG Version: 2.1.1 Build 136)  -->
  <circle id="Outer" cx="12" cy="12" r="10.96" fill="none" stroke="#000" stroke-width="2.09"/>
  <g>
    <g>
      <rect x="11.24" y="15.96" width="1.5" height="1.5"/>
      <path d="M12.59,16.11v1.2h-1.2v-1.2h1.2M12.89,15.81h-1.8v1.8h1.8v-1.8h0Z"/>
    </g>
    <g>
      <path d="M11.24,14.31v-.6c0-.61.22-1.19.63-1.64l1.19-1.32c.3-.33.47-.76.47-1.21,0-.63-.51-1.14-1.15-1.14h-.76c-.63,0-1.15.51-1.15,1.14v.15h-1.51v-.15c0-1.46,1.19-2.64,2.66-2.64h.76c1.47,0,2.66,1.19,2.66,2.64,0,.82-.3,1.61-.85,2.22l-1.19,1.32c-.16.18-.25.4-.25.63v.6h-1.51Z"/>
      <path d="M12.38,7.04c1.38,0,2.51,1.12,2.51,2.49,0,.78-.29,1.53-.82,2.12l-1.19,1.32c-.18.2-.29.46-.29.73v.45h-1.21v-.45c0-.57.21-1.11.59-1.54l1.19-1.32c.33-.36.51-.83.51-1.31,0-.71-.58-1.29-1.3-1.29h-.76c-.72,0-1.3.58-1.3,1.29h-1.21c0-1.37,1.13-2.49,2.51-2.49h.76M12.38,6.74h-.76c-1.55,0-2.81,1.25-2.81,2.79v.3h1.81v-.3c0-.55.45-.99,1-.99h.76c.55,0,1,.44,1,.99,0,.41-.15.8-.43,1.11l-1.19,1.32c-.43.48-.67,1.09-.67,1.74v.46s0,.3,0,.3h1.8v-.3s0-.45,0-.45c0-.2.07-.38.21-.53l1.19-1.32c.58-.64.89-1.46.89-2.32,0-1.54-1.26-2.79-2.81-2.79h0Z"/>
    </g>
  </g>
</svg>