<?xml version="1.0" encoding="UTF-8"?>
<svg id="Layer_1" xmlns="http://www.w3.org/2000/svg" version="1.1" viewBox="0 0 116 116">
  <!-- Generator: Adobe Illustrator 30.1.0, SVG Export Plug-In . SVG Version: 2.1.1 Build 136)  -->
  <g>
    <g>
      <rect x="53.72" y="34.54" width="8.56" height="8.56"/>
      <path d="M60.47,36.35v4.93h-4.93v-4.93h4.93M64.09,32.72h-12.18v12.18h12.18v-12.18h0Z"/>
    </g>
    <g>
      <polygon points="48.79 80.34 48.79 71.78 53.72 71.78 53.72 60 48.79 60 48.79 51.44 62.28 51.44 62.28 71.78 67.21 71.78 67.21 80.34 48.79 80.34"/>
      <path d="M60.47,53.25v20.34h4.93v4.93h-14.8v-4.93h4.93v-15.41h-4.93v-4.93h9.87M64.09,49.63h-17.12v12.18h4.93v8.16h-4.93v12.18h22.05v-12.18h-4.93v-20.34h0Z"/>
    </g>
  </g>
  <circle id="Outer" cx="58" cy="58" r="46.8" fill="none" stroke="#000" stroke-width="22.4"/>
</svg>