<?xml version="1.0" encoding="UTF-8"?>
<svg id="Layer_1" xmlns="http://www.w3.org/2000/svg" version="1.1" viewBox="0 0 17 17">
  <!-- Generator: Adobe Illustrator 30.1.0, SVG Export Plug-In . SVG Version: 2.1.1 Build 136)  -->
  <g>
    <g>
      <rect x="7.91" y="4.3" width="1.19" height="1.19"/>
      <path d="M9.01,4.38v1.03h-1.03v-1.03h1.03M9.17,4.22h-1.35v1.35h1.35v-1.35h0Z"/>
    </g>
    <g>
      <polygon points="6.88 12.7 6.88 11.51 7.91 11.51 7.91 8.45 6.88 8.45 6.88 7.27 9.09 7.27 9.09 11.51 10.12 11.51 10.12 12.7 6.88 12.7"/>
      <path d="M9.01,7.35v4.24h1.03v1.03h-3.09v-1.03h1.03v-3.21h-1.03v-1.03h2.06M9.17,7.19h-2.38v1.35h1.03v2.89h-1.03v1.35h3.41v-1.35h-1.03v-4.24h0Z"/>
    </g>
  </g>
  <circle id="Outer" cx="8.5" cy="8.5" r="7.91" fill="none" stroke="#000" stroke-width="1.18"/>
</svg>