<?xml version="1.0" encoding="UTF-8"?>
<svg id="Layer_1" xmlns="http://www.w3.org/2000/svg" version="1.1" viewBox="0 0 17 17">
  <!-- Generator: Adobe Illustrator 30.1.0, SVG Export Plug-In . SVG Version: 2.1.1 Build 136)  -->
  <g>
    <g>
      <rect x="7.9" y="4.41" width="1.2" height="1.2"/>
      <path d="M8.99,4.52v.98h-.98v-.98h.98M9.2,4.31h-1.41v1.41h1.41v-1.41h0Z"/>
    </g>
    <g>
      <polygon points="6.92 12.56 6.92 11.37 7.9 11.37 7.9 8.5 6.92 8.5 6.92 7.31 9.1 7.31 9.1 11.37 10.08 11.37 10.08 12.56 6.92 12.56"/>
      <path d="M8.99,7.41v4.06h.98v.98h-2.95v-.98h.98v-3.07h-.98v-.98h1.97M9.2,7.2h-2.39v1.41h.98v2.65h-.98v1.41h3.38v-1.41h-.98v-4.06h0Z"/>
    </g>
  </g>
  <circle id="Outer" cx="8.5" cy="8.5" r="7.76" fill="none" stroke="#000" stroke-width="1.48"/>
</svg>