<?xml version="1.0" encoding="UTF-8"?>
<svg id="Layer_1" xmlns="http://www.w3.org/2000/svg" version="1.1" viewBox="0 0 9 9">
  <!-- Generator: Adobe Illustrator 30.1.0, SVG Export Plug-In . SVG Version: 2.1.1 Build 136)  -->
  <path d="M4.5,1.9c.08,0,.17.04.21.13l.54,1.08c.09.19.27.32.47.36l1.18.22c.18.03.26.26.13.4l-.86.94c-.13.15-.19.34-.17.54l.17,1.27c.02.15-.1.27-.24.27-.04,0-.07,0-.11-.03l-1.03-.53c-.1-.05-.2-.07-.3-.07s-.21.02-.3.07l-1.03.53s-.07.03-.11.03c-.14,0-.26-.12-.24-.27l.17-1.27c.03-.19-.04-.39-.17-.54l-.86-.94c-.13-.14-.05-.36.13-.4l1.18-.22c.2-.04.38-.17.47-.35l.54-1.08c.04-.09.13-.13.21-.13M4.5,0C3.69,0,2.96.45,2.59,1.17l-.27.54-.58.11c-.76.14-1.39.69-1.63,1.42-.25.73-.07,1.55.45,2.12l.47.52-.09.71c-.08.61.11,1.22.51,1.69.41.46.99.73,1.61.73.34,0,.68-.08.98-.24l.47-.24.47.24c.3.16.64.24.98.24.61,0,1.2-.27,1.61-.73.4-.46.59-1.08.51-1.69l-.09-.71.47-.52c.52-.57.69-1.38.45-2.12-.25-.73-.87-1.28-1.63-1.42l-.58-.11-.27-.54C6.04.45,5.31,0,4.5,0h0Z"/>
</svg>