<?xml version="1.0" encoding="UTF-8"?>
<svg id="Layer_1" xmlns="http://www.w3.org/2000/svg" version="1.1" viewBox="0 0 9 9">
  <!-- Generator: Adobe Illustrator 30.1.0, SVG Export Plug-In . SVG Version: 2.1.1 Build 136)  -->
  <path d="M4.5,1.1c.11,0,.22.06.28.17l.71,1.41c.12.24.35.41.62.46l1.54.29c.24.05.34.34.17.52l-1.12,1.23c-.17.19-.25.45-.22.7l.22,1.66c.03.2-.13.35-.31.35-.05,0-.1-.01-.14-.04l-1.35-.69c-.12-.06-.26-.1-.4-.1s-.27.03-.4.1l-1.35.69s-.1.04-.14.04c-.18,0-.34-.16-.31-.35l.22-1.66c.03-.25-.05-.51-.22-.7l-1.12-1.23c-.17-.18-.07-.47.17-.52l1.54-.29c.27-.05.49-.22.62-.46l.71-1.41c.06-.11.17-.17.28-.17M4.5,0C3.96,0,3.48.3,3.24.78l-.66,1.31-1.43.27c-.5.09-.92.45-1.08.94-.16.49-.05,1.02.3,1.4l1.05,1.15-.21,1.55c-.05.4.07.81.34,1.12.27.31.66.48,1.06.48.22,0,.45-.05.65-.16l1.24-.64,1.24.64c.2.1.42.16.65.16.41,0,.79-.18,1.06-.48.27-.31.39-.71.34-1.12l-.2-1.55,1.05-1.15c.34-.38.46-.92.3-1.4-.16-.49-.58-.85-1.08-.94l-1.43-.27-.66-1.31C5.52.3,5.04,0,4.5,0h0Z"/>
</svg>