<?xml version="1.0" encoding="UTF-8"?>
<svg id="Layer_1" xmlns="http://www.w3.org/2000/svg" version="1.1" viewBox="0 0 9 9">
  <!-- Generator: Adobe Illustrator 30.1.0, SVG Export Plug-In . SVG Version: 2.1.1 Build 136)  -->
  <path d="M4.5,1.74c.09,0,.18.05.23.14l.58,1.15c.1.2.28.34.5.38l1.25.23c.2.04.27.27.14.42l-.91,1c-.14.15-.21.36-.18.57l.18,1.35c.02.16-.11.29-.25.29-.04,0-.08,0-.12-.03l-1.09-.56c-.1-.05-.21-.08-.32-.08s-.22.03-.32.08l-1.09.56s-.08.03-.12.03c-.14,0-.27-.13-.25-.29l.18-1.35c.03-.21-.04-.42-.18-.57l-.91-1c-.13-.15-.05-.38.14-.42l1.25-.23c.22-.04.4-.18.5-.38l.58-1.15c.05-.09.14-.14.23-.14M4.5,0C3.74,0,3.06.42,2.72,1.1l-.35.69-.75.14c-.71.13-1.29.64-1.52,1.33-.23.68-.07,1.44.42,1.98l.59.65-.12.87c-.08.57.1,1.14.48,1.57.38.43.92.68,1.5.68.32,0,.63-.08.91-.22l.62-.32.62.32c.28.14.6.22.91.22.57,0,1.12-.25,1.5-.68.38-.43.55-1,.48-1.57l-.12-.87.59-.65c.49-.53.65-1.29.42-1.98-.23-.68-.81-1.19-1.52-1.33l-.75-.14-.35-.69C5.94.42,5.26,0,4.5,0h0Z"/>
</svg>