<?xml version="1.0" encoding="UTF-8"?>
<svg id="Layer_1" xmlns="http://www.w3.org/2000/svg" version="1.1" viewBox="0 0 9 9">
  <!-- Generator: Adobe Illustrator 30.1.0, SVG Export Plug-In . SVG Version: 2.1.1 Build 136)  -->
  <path d="M4.5,1.42c.1,0,.2.05.25.16l.64,1.28c.11.22.32.37.56.42l1.39.26c.22.04.31.31.16.47l-1.02,1.11c-.16.17-.23.4-.2.64l.2,1.5c.02.18-.12.32-.28.32-.04,0-.09,0-.13-.03l-1.22-.63c-.11-.06-.24-.09-.36-.09s-.25.03-.36.09l-1.22.63s-.09.03-.13.03c-.16,0-.3-.14-.28-.32l.2-1.5c.03-.23-.04-.46-.2-.63l-1.02-1.11c-.15-.16-.06-.43.16-.47l1.39-.26c.24-.05.45-.2.56-.42l.64-1.28c.05-.1.15-.16.25-.16M4.5,0C3.85,0,3.27.36,2.98.94l-.5,1-1.09.2c-.61.11-1.11.55-1.3,1.13-.2.59-.06,1.23.36,1.69l.82.9-.16,1.21c-.06.49.08.98.41,1.35.32.37.79.58,1.28.58.27,0,.54-.07.78-.19l.93-.48.93.48c.24.12.51.19.78.19.49,0,.96-.21,1.28-.58.32-.37.47-.86.41-1.35l-.16-1.21.82-.9c.42-.46.55-1.1.36-1.69-.2-.59-.69-1.02-1.3-1.13l-1.09-.2-.5-1C5.73.36,5.15,0,4.5,0h0Z"/>
</svg>