<?xml version="1.0" encoding="UTF-8"?>
<svg id="Layer_1" xmlns="http://www.w3.org/2000/svg" version="1.1" viewBox="0 0 124 124">
  <!-- Generator: Adobe Illustrator 30.1.0, SVG Export Plug-In . SVG Version: 2.1.1 Build 136)  -->
  <circle id="Outer" cx="62" cy="62" r="52.22" fill="none" stroke="#000" stroke-width="19.57"/>
  <g>
    <g>
      <rect x="58.06" y="79.14" width="7.81" height="7.81"/>
      <path d="M64.32,80.69v4.72h-4.72v-4.72h4.72M67.42,77.59h-10.92v10.92h10.92v-10.92h0Z"/>
    </g>
    <g>
      <path d="M58.08,71.24l-.03-3.32c0-2.63.98-5.14,2.74-7.08l4.67-5.17c1.02-1.13,1.58-2.59,1.58-4.1,0-1.93-1.59-3.5-3.54-3.5h-3c-1.95,0-3.54,1.57-3.54,3.5v1.55h-7.86v-1.55c0-6.25,5.11-11.33,11.4-11.33h3c6.28,0,11.4,5.08,11.4,11.33,0,3.45-1.28,6.77-3.6,9.33l-4.67,5.18c-.47.52-.73,1.16-.73,1.84l-.03,3.33h-7.79Z"/>
      <path d="M63.5,41.79c5.43,0,9.85,4.39,9.85,9.78,0,3.07-1.14,6.01-3.2,8.3l-4.67,5.18c-.72.8-1.12,1.79-1.13,2.87l-.02,1.78h-4.72l-.02-1.78c0-2.23.83-4.36,2.34-6.03l4.67-5.17c1.28-1.42,1.98-3.24,1.98-5.14,0-2.79-2.28-5.05-5.09-5.05h-3c-2.81,0-5.09,2.27-5.09,5.05h-4.76c0-5.39,4.42-9.78,9.85-9.78h3M63.5,38.69h-3c-7.14,0-12.95,5.78-12.95,12.88v3.1h10.96v-3.1c0-1.08.89-1.95,1.99-1.95h3c1.1,0,1.99.88,1.99,1.95,0,1.13-.42,2.22-1.18,3.07l-4.67,5.17c-2.01,2.22-3.12,5.1-3.13,8.09l.02,1.82.03,3.07h10.86l.03-3.07.02-1.78c0-.32.11-.58.33-.82l4.67-5.18c2.58-2.85,4-6.54,4-10.37,0-7.1-5.81-12.88-12.95-12.88h0Z"/>
    </g>
  </g>
</svg>