<?xml version="1.0" encoding="UTF-8"?>
<svg id="Layer_1" xmlns="http://www.w3.org/2000/svg" version="1.1" viewBox="0 0 124 124">
  <!-- Generator: Adobe Illustrator 30.1.0, SVG Export Plug-In . SVG Version: 2.1.1 Build 136)  -->
  <circle id="Outer" cx="62" cy="62" r="56.61" fill="none" stroke="#000" stroke-width="10.77"/>
  <g>
    <g>
      <rect x="58.08" y="82.47" width="7.76" height="7.76"/>
      <path d="M65.07,83.25v6.21h-6.21v-6.21h6.21M66.62,81.7h-9.31v9.31h9.31v-9.31h0Z"/>
    </g>
    <g>
      <path d="M58.09,73.91l-.03-3.12c.01-3.14,1.18-6.14,3.28-8.47l6.15-6.81c1.56-1.72,2.41-3.94,2.41-6.26,0-3.24-2.66-5.88-5.93-5.88h-3.95c-3.27,0-5.93,2.64-5.93,5.88v.77h-7.82v-.77c0-7.53,6.17-13.66,13.75-13.66h3.95c7.58,0,13.75,6.13,13.75,13.66,0,4.23-1.57,8.3-4.41,11.45l-6.15,6.82c-.84.93-1.28,2.06-1.29,3.27l-.03,3.12h-7.75Z"/>
      <path d="M63.98,36.38c7.15,0,12.97,5.78,12.97,12.88,0,4.04-1.5,7.92-4.21,10.93l-6.15,6.82c-.95,1.05-1.48,2.36-1.49,3.78l-.02,2.35h-6.21l-.02-2.35c.01-2.94,1.1-5.75,3.08-7.94l6.15-6.82c1.68-1.87,2.61-4.27,2.61-6.78,0-3.67-3.01-6.66-6.7-6.66h-3.95c-3.7,0-6.7,2.99-6.7,6.66h-6.27c0-7.1,5.82-12.88,12.97-12.88h3.95M63.98,34.83h-3.95c-8.01,0-14.52,6.47-14.52,14.43v1.55h9.37v-1.55c0-2.82,2.31-5.11,5.15-5.11h3.95c2.84,0,5.15,2.29,5.15,5.11,0,2.12-.79,4.16-2.21,5.74l-6.15,6.82c-2.23,2.47-3.46,5.65-3.48,8.97l.02,2.37v1.54h9.3l.02-1.53.02-2.35c0-1.03.38-1.98,1.09-2.76l6.15-6.82c2.97-3.29,4.61-7.54,4.61-11.97,0-7.96-6.51-14.43-14.52-14.43h0Z"/>
    </g>
  </g>
</svg>