<?xml version="1.0" encoding="UTF-8"?>
<svg id="Layer_1" xmlns="http://www.w3.org/2000/svg" version="1.1" viewBox="0 0 124 124">
  <!-- Generator: Adobe Illustrator 30.1.0, SVG Export Plug-In . SVG Version: 2.1.1 Build 136)  -->
  <circle id="Outer" cx="62" cy="62" r="48.94" fill="none" stroke="#000" stroke-width="26.12"/>
  <g>
    <g>
      <rect x="57.99" y="76.61" width="7.96" height="7.96"/>
      <path d="M63.82,78.74v3.7h-3.7v-3.7h3.7M68.08,74.48h-12.22v12.22h12.22v-12.22h0Z"/>
    </g>
    <g>
      <path d="M58.02,69.54l-.03-3.51c0-2.3.85-4.48,2.38-6.17l3.66-4.06c.65-.72,1-1.64,1-2.6,0-1.01-.83-1.83-1.86-1.83h-2.35c-1.02,0-1.86.82-1.86,1.83v2.13h-7.99v-2.13c0-5.4,4.42-9.8,9.85-9.8h2.35c5.43,0,9.85,4.4,9.85,9.8,0,2.93-1.08,5.75-3.06,7.93l-3.66,4.06c-.22.25-.33.52-.33.83l-.04,3.52h-7.92Z"/>
      <path d="M63.18,45.53c4.26,0,7.72,3.44,7.72,7.67,0,2.41-.89,4.71-2.51,6.5l-3.66,4.06c-.57.63-.88,1.41-.88,2.25v1.4h-3.71v-1.4c0-1.75.64-3.42,1.82-4.73l3.66-4.06c1-1.11,1.55-2.54,1.55-4.03,0-2.18-1.79-3.96-3.99-3.96h-2.35c-2.2,0-3.99,1.78-3.99,3.96h-3.73c0-4.23,3.46-7.67,7.72-7.67h2.35M63.18,41.27h-2.35c-6.61,0-11.98,5.35-11.98,11.93v4.26h10.82l-.88.97c-1.88,2.08-2.92,4.76-2.93,7.57v.03s0,.03,0,.03v1.4s.05,4.22.05,4.22h12.14l.04-4.22v-1.07s3.46-3.82,3.46-3.82c2.32-2.57,3.61-5.9,3.61-9.36,0-6.58-5.38-11.93-11.98-11.93h0ZM61.1,53.5h1.78c-.06.32-.2.63-.43.88l-1.35,1.5v-2.37h0Z"/>
    </g>
  </g>
</svg>