<?xml version="1.0" encoding="UTF-8"?>
<svg id="Layer_1" xmlns="http://www.w3.org/2000/svg" version="1.1" viewBox="0 0 124 124">
  <!-- Generator: Adobe Illustrator 30.1.0, SVG Export Plug-In . SVG Version: 2.1.1 Build 136)  -->
  <circle id="Outer" cx="62" cy="62" r="57.7" fill="none" stroke="#000" stroke-width="8.6"/>
  <g>
    <g>
      <rect x="58.08" y="83.29" width="7.76" height="7.76"/>
      <path d="M65.26,83.87v6.6h-6.6v-6.6h6.6M66.42,82.71h-8.93v8.93h8.93v-8.93h0Z"/>
    </g>
    <g>
      <path d="M58.09,74.63l-.03-3.07c.01-3.27,1.23-6.41,3.42-8.83l6.54-7.24c1.69-1.88,2.63-4.29,2.63-6.81,0-3.58-2.94-6.49-6.54-6.49h-4.2c-3.61,0-6.54,2.91-6.54,6.49v.58h-7.82v-.58c0-7.87,6.44-14.27,14.37-14.27h4.2c7.92,0,14.37,6.4,14.37,14.27,0,4.44-1.64,8.7-4.63,12l-6.54,7.25c-.93,1.03-1.42,2.29-1.43,3.63l-.03,3.08h-7.75Z"/>
      <path d="M64.1,34.98c7.6,0,13.78,6.14,13.78,13.69,0,4.29-1.59,8.42-4.48,11.61l-6.54,7.25c-1.01,1.12-1.57,2.51-1.58,4.02l-.03,2.5h-6.6l-.02-2.5c.01-3.13,1.16-6.11,3.27-8.44l6.54-7.24c1.79-1.98,2.78-4.54,2.78-7.2,0-3.9-3.2-7.07-7.12-7.07h-4.2c-3.93,0-7.12,3.17-7.12,7.07h-6.66c0-7.55,6.18-13.69,13.78-13.69h4.2M64.1,33.82h-4.2c-8.24,0-14.95,6.66-14.95,14.85v1.16h8.98v-1.16c0-3.26,2.67-5.91,5.96-5.91h4.2c3.29,0,5.96,2.65,5.96,5.91,0,2.37-.88,4.65-2.48,6.42l-6.54,7.24c-2.29,2.53-3.56,5.8-3.57,9.21l.02,2.51v1.15h8.91v-1.15s.04-2.5.04-2.5c0-1.21.45-2.33,1.28-3.25l6.54-7.25c3.08-3.41,4.78-7.81,4.78-12.39,0-8.19-6.71-14.85-14.95-14.85h0Z"/>
    </g>
  </g>
</svg>