<?xml version="1.0" encoding="UTF-8"?>
<svg id="Layer_1" xmlns="http://www.w3.org/2000/svg" version="1.1" viewBox="0 0 124 124">
  <!-- Generator: Adobe Illustrator 30.1.0, SVG Export Plug-In . SVG Version: 2.1.1 Build 136)  -->
  <circle id="Outer" cx="62" cy="62" r="50.03" fill="none" stroke="#000" stroke-width="23.95"/>
  <g>
    <g>
      <rect x="58.02" y="77.46" width="7.9" height="7.9"/>
      <path d="M63.98,79.39v4.02h-4.02v-4.02h4.02M67.86,75.52h-11.77v11.77h11.77v-11.77h0Z"/>
    </g>
    <g>
      <path d="M58.04,70.07l-.03-3.44c0-2.41.89-4.69,2.49-6.46l3.98-4.41c.77-.85,1.19-1.95,1.19-3.09,0-1.31-1.08-2.38-2.41-2.38h-2.56c-1.33,0-2.41,1.07-2.41,2.38v1.94h-7.94v-1.94c0-5.67,4.64-10.28,10.34-10.28h2.56c5.7,0,10.34,4.61,10.34,10.28,0,3.1-1.15,6.07-3.23,8.38l-3.99,4.42c-.31.34-.46.73-.46,1.16l-.04,3.45h-7.86Z"/>
      <path d="M63.28,44.32c4.63,0,8.4,3.74,8.4,8.34,0,2.62-.97,5.13-2.73,7.08l-3.99,4.42c-.62.68-.96,1.53-.96,2.45l-.02,1.52h-4.02v-1.52c0-1.91.7-3.73,1.98-5.14l3.99-4.42c1.09-1.21,1.69-2.77,1.69-4.39,0-2.38-1.95-4.31-4.34-4.31h-2.56c-2.39,0-4.34,1.94-4.34,4.31h-4.06c0-4.6,3.77-8.34,8.4-8.34h2.56M63.28,40.45h-2.56c-6.77,0-12.28,5.48-12.28,12.22v3.88h11.81v-3.88c0-.24.21-.44.47-.44h2.56c.25,0,.47.2.47.44,0,.66-.25,1.3-.69,1.79l-3.99,4.42c-1.92,2.12-2.98,4.87-2.99,7.73v1.57s.05,3.84.05,3.84h11.7l.04-3.84v-1.45s3.97-4.38,3.97-4.38c2.4-2.66,3.73-6.1,3.73-9.68,0-6.74-5.51-12.22-12.28-12.22h0Z"/>
    </g>
  </g>
</svg>