<?xml version="1.0" encoding="UTF-8"?>
<svg id="Layer_1" xmlns="http://www.w3.org/2000/svg" version="1.1" viewBox="0 0 124 124">
  <!-- Generator: Adobe Illustrator 30.1.0, SVG Export Plug-In . SVG Version: 2.1.1 Build 136)  -->
  <circle id="Outer" cx="62" cy="62" r="54.42" fill="none" stroke="#000" stroke-width="15.15"/>
  <g>
    <g>
      <rect x="58.08" y="80.82" width="7.77" height="7.77"/>
      <path d="M64.69,81.98v5.45h-5.45v-5.45h5.45M67.01,79.66h-10.1v10.1h10.1v-10.1h0Z"/>
    </g>
    <g>
      <path d="M58.09,72.53l-.03-3.21c.01-2.88,1.08-5.63,3-7.76l5.4-5.98c1.28-1.42,1.99-3.26,1.99-5.17,0-2.58-2.12-4.68-4.72-4.68h-3.47c-2.6,0-4.72,2.1-4.72,4.68v1.16h-7.82v-1.16c0-6.87,5.63-12.46,12.54-12.46h3.47c6.92,0,12.54,5.59,12.54,12.46,0,3.83-1.42,7.51-3.99,10.37l-5.4,5.98c-.65.72-1,1.6-1,2.54l-.03,3.22h-7.75Z"/>
      <path d="M63.73,39.12c6.28,0,11.38,5.07,11.38,11.3,0,3.55-1.31,6.95-3.7,9.59l-5.4,5.98c-.84.93-1.3,2.07-1.3,3.32l-.02,2.06h-5.45l-.02-2.06c0-2.58.96-5.04,2.7-6.97l5.4-5.98c1.48-1.64,2.29-3.75,2.29-5.94,0-3.22-2.64-5.84-5.88-5.84h-3.47c-3.24,0-5.88,2.62-5.88,5.84h-5.5c0-6.23,5.1-11.3,11.38-11.3h3.47M63.73,36.8h-3.47c-7.56,0-13.71,6.11-13.71,13.63v2.33h10.15v-2.33c0-1.94,1.6-3.52,3.56-3.52h3.47c1.96,0,3.56,1.58,3.56,3.52,0,1.62-.6,3.18-1.69,4.39l-5.4,5.98c-2.12,2.34-3.29,5.36-3.3,8.52l.02,2.09.02,2.3h10.06l.02-2.3.02-2.06c0-.68.24-1.27.7-1.78l5.4-5.98c2.77-3.07,4.29-7.03,4.29-11.15,0-7.51-6.15-13.63-13.71-13.63h0Z"/>
    </g>
  </g>
</svg>