<?xml version="1.0" encoding="UTF-8"?>
<svg id="Layer_1" xmlns="http://www.w3.org/2000/svg" version="1.1" viewBox="0 0 68 68">
  <!-- Generator: Adobe Illustrator 30.1.0, SVG Export Plug-In . SVG Version: 2.1.1 Build 136)  -->
  <circle id="Outer" cx="34" cy="34" r="31.64" fill="none" stroke="#000" stroke-width="4.72"/>
  <g>
    <g>
      <rect x="31.85" y="45.67" width="4.26" height="4.26"/>
      <path d="M35.79,45.99v3.62h-3.62v-3.62h3.62M36.43,45.35h-4.9v4.9h4.9v-4.9h0Z"/>
    </g>
    <g>
      <path d="M31.85,40.92l-.02-1.68c0-1.79.67-3.51,1.88-4.84l3.59-3.97c.93-1.03,1.44-2.35,1.44-3.74,0-1.96-1.61-3.56-3.59-3.56h-2.3c-1.98,0-3.59,1.6-3.59,3.56v.32h-4.29v-.32c0-4.31,3.53-7.83,7.88-7.83h2.3c4.34,0,7.88,3.51,7.88,7.83,0,2.43-.9,4.77-2.54,6.58l-3.59,3.97c-.51.56-.78,1.25-.78,1.99l-.02,1.69h-4.25Z"/>
      <path d="M35.15,19.18c4.17,0,7.56,3.37,7.56,7.51,0,2.36-.87,4.62-2.45,6.37l-3.59,3.97c-.56.61-.86,1.38-.87,2.2v1.37h-3.63v-1.37c0-1.72.63-3.35,1.78-4.63l3.59-3.97c.98-1.09,1.52-2.49,1.52-3.95,0-2.14-1.75-3.88-3.91-3.88h-2.3c-2.15,0-3.91,1.74-3.91,3.88h-3.65c0-4.14,3.39-7.51,7.56-7.51h2.3M35.15,18.55h-2.3c-4.52,0-8.2,3.65-8.2,8.14v.64h4.93v-.64c0-1.79,1.47-3.24,3.27-3.24h2.3c1.8,0,3.27,1.45,3.27,3.24,0,1.3-.48,2.55-1.36,3.52l-3.59,3.97c-1.26,1.39-1.95,3.18-1.96,5.05v1.38s.02.63.02.63h4.88v-.63s.02-1.37.02-1.37c0-.66.24-1.28.7-1.78l3.59-3.97c1.69-1.87,2.62-4.28,2.62-6.8,0-4.49-3.68-8.14-8.2-8.14h0Z"/>
    </g>
  </g>
</svg>