<?xml version="1.0" encoding="UTF-8"?>
<svg id="Layer_1" xmlns="http://www.w3.org/2000/svg" version="1.1" viewBox="0 0 68 68">
  <!-- Generator: Adobe Illustrator 30.1.0, SVG Export Plug-In . SVG Version: 2.1.1 Build 136)  -->
  <circle id="Outer" cx="34" cy="34" r="27.43" fill="none" stroke="#000" stroke-width="13.13"/>
  <g>
    <g>
      <rect x="31.82" y="42.48" width="4.33" height="4.33"/>
      <path d="M35.09,43.54v2.21h-2.21v-2.21h2.21M37.21,41.41h-6.46v6.46h6.46v-6.46h0Z"/>
    </g>
    <g>
      <path d="M31.83,38.43l-.02-1.89c0-1.32.49-2.57,1.37-3.54l2.19-2.42c.42-.47.65-1.07.65-1.7,0-.72-.59-1.3-1.32-1.3h-1.4c-.73,0-1.32.58-1.32,1.3v1.06h-4.35v-1.06c0-3.11,2.54-5.64,5.67-5.64h1.4c3.13,0,5.67,2.53,5.67,5.64,0,1.7-.63,3.33-1.77,4.59l-2.19,2.42c-.17.19-.25.4-.25.64l-.02,1.89h-4.31Z"/>
      <path d="M34.7,24.3c2.54,0,4.61,2.05,4.61,4.58,0,1.44-.53,2.81-1.5,3.88l-2.19,2.42c-.34.37-.53.84-.53,1.34v.83h-2.22v-.83c0-1.05.38-2.04,1.09-2.82l2.19-2.42c.6-.66.93-1.52.93-2.41,0-1.3-1.07-2.37-2.38-2.37h-1.4c-1.31,0-2.38,1.06-2.38,2.37h-2.23c0-2.52,2.07-4.58,4.61-4.58h1.4M34.7,22.18h-1.4c-3.71,0-6.73,3.01-6.73,6.7v2.12h6.48v-2.12c0-.13.12-.24.26-.24h1.4c.14,0,.26.11.26.24,0,.36-.13.71-.38.98l-2.19,2.42c-1.05,1.16-1.64,2.67-1.64,4.24v.86s.03,2.11.03,2.11h6.42l.02-2.1v-.8s2.18-2.4,2.18-2.4c1.32-1.46,2.04-3.34,2.04-5.31,0-3.7-3.02-6.7-6.73-6.7h0Z"/>
    </g>
  </g>
</svg>