<?xml version="1.0" encoding="UTF-8"?>
<svg id="Layer_1" xmlns="http://www.w3.org/2000/svg" version="1.1" viewBox="0 0 68 68">
  <!-- Generator: Adobe Illustrator 30.1.0, SVG Export Plug-In . SVG Version: 2.1.1 Build 136)  -->
  <circle id="Outer" cx="34" cy="34" r="28.63" fill="none" stroke="#000" stroke-width="10.73"/>
  <g>
    <g>
      <rect x="31.84" y="43.4" width="4.29" height="4.28"/>
      <path d="M35.27,44.25v2.59h-2.59v-2.59h2.59M36.97,42.55h-5.99v5.99h5.99v-5.99h0Z"/>
    </g>
    <g>
      <path d="M31.85,39.07l-.02-1.82c0-1.44.54-2.82,1.5-3.88l2.56-2.84c.56-.62.87-1.42.87-2.25,0-1.06-.87-1.92-1.94-1.92h-1.65c-1.07,0-1.94.86-1.94,1.92v.85h-4.31v-.85c0-3.42,2.8-6.21,6.25-6.21h1.65c3.45,0,6.25,2.79,6.25,6.21,0,1.89-.7,3.71-1.97,5.12l-2.56,2.84c-.26.29-.4.64-.4,1.01l-.02,1.82h-4.27Z"/>
      <path d="M34.82,22.92c2.98,0,5.4,2.41,5.4,5.36,0,1.68-.62,3.3-1.75,4.55l-2.56,2.84c-.4.44-.62.98-.62,1.58v.98h-2.6v-.98c0-1.23.45-2.39,1.27-3.31l2.56-2.84c.7-.78,1.09-1.78,1.09-2.82,0-1.53-1.25-2.77-2.79-2.77h-1.65c-1.54,0-2.79,1.24-2.79,2.77h-2.61c0-2.96,2.42-5.36,5.4-5.36h1.65M34.82,21.22h-1.65c-3.91,0-7.1,3.17-7.1,7.06v1.7h6.01v-1.7c0-.59.49-1.07,1.09-1.07h1.65c.6,0,1.09.48,1.09,1.07,0,.62-.23,1.22-.65,1.68l-2.56,2.84c-1.1,1.22-1.71,2.8-1.72,4.44v1s.02,1.68.02,1.68h5.95l.02-1.68v-.98c.01-.18.07-.32.19-.45l2.56-2.84c1.41-1.57,2.19-3.59,2.19-5.69,0-3.89-3.18-7.06-7.1-7.06h0Z"/>
    </g>
  </g>
</svg>