<?xml version="1.0" encoding="UTF-8"?>
<svg id="Layer_1" xmlns="http://www.w3.org/2000/svg" version="1.1" viewBox="0 0 68 68">
  <!-- Generator: Adobe Illustrator 30.1.0, SVG Export Plug-In . SVG Version: 2.1.1 Build 136)  -->
  <circle id="Outer" cx="34" cy="34" r="31.05" fill="none" stroke="#000" stroke-width="5.91"/>
  <g>
    <g>
      <rect x="31.85" y="45.23" width="4.26" height="4.26"/>
      <path d="M35.68,45.65v3.41h-3.41v-3.41h3.41M36.53,44.8h-5.11v5.11h5.11v-5.11h0Z"/>
    </g>
    <g>
      <path d="M31.86,40.53v-1.71c0-1.72.63-3.37,1.78-4.64l3.37-3.74c.85-.95,1.32-2.16,1.32-3.43,0-1.78-1.46-3.23-3.25-3.23h-2.17c-1.79,0-3.25,1.45-3.25,3.23v.42h-4.29v-.42c0-4.13,3.38-7.49,7.54-7.49h2.17c4.16,0,7.54,3.36,7.54,7.49,0,2.32-.86,4.55-2.42,6.28l-3.37,3.74c-.46.51-.7,1.13-.71,1.79l-.02,1.71h-4.25Z"/>
      <path d="M35.08,19.95c3.92,0,7.11,3.17,7.11,7.06,0,2.22-.82,4.34-2.31,5.99l-3.37,3.74c-.52.58-.81,1.3-.81,2.07v1.29h-3.42v-1.29c0-1.61.59-3.15,1.68-4.35l3.37-3.74c.92-1.02,1.43-2.34,1.43-3.72,0-2.01-1.65-3.65-3.68-3.65h-2.17c-2.03,0-3.68,1.64-3.68,3.65h-3.44c0-3.89,3.19-7.06,7.11-7.06h2.17M35.08,19.1h-2.17c-4.39,0-7.96,3.55-7.96,7.91v.85h5.14v-.85c0-1.54,1.27-2.8,2.83-2.8h2.17c1.56,0,2.83,1.26,2.83,2.8,0,1.16-.43,2.28-1.21,3.15l-3.37,3.74c-1.22,1.35-1.9,3.1-1.91,4.92v1.3s.02.84.02.84h5.09v-.84s.02-1.29.02-1.29c0-.56.21-1.08.6-1.51l3.38-3.74c1.63-1.81,2.53-4.14,2.53-6.56,0-4.36-3.57-7.91-7.96-7.91h0Z"/>
    </g>
  </g>
</svg>