<?xml version="1.0" encoding="UTF-8"?>
<svg id="Layer_1" xmlns="http://www.w3.org/2000/svg" version="1.1" viewBox="0 0 68 68">
  <!-- Generator: Adobe Illustrator 30.1.0, SVG Export Plug-In . SVG Version: 2.1.1 Build 136)  -->
  <circle id="Outer" cx="34" cy="34" r="26.84" fill="none" stroke="#000" stroke-width="14.32"/>
  <g>
    <g>
      <rect x="31.8" y="42.01" width="4.37" height="4.37"/>
      <path d="M35,43.18v2.03h-2.03v-2.03h2.03M37.34,40.84h-6.7v6.7h6.7v-6.7h0Z"/>
    </g>
    <g>
      <path d="M31.82,38.14l-.02-1.93c0-1.26.47-2.46,1.31-3.39l2.01-2.22c.36-.39.55-.9.55-1.43,0-.55-.46-1-1.02-1h-1.29c-.56,0-1.02.45-1.02,1v1.17h-4.38v-1.17c0-2.96,2.42-5.37,5.4-5.37h1.29c2.98,0,5.4,2.41,5.4,5.37,0,1.61-.6,3.15-1.68,4.35l-2.01,2.23c-.12.13-.18.29-.18.46l-.02,1.93h-4.34Z"/>
      <path d="M34.64,24.97c2.33,0,4.23,1.89,4.23,4.2,0,1.32-.49,2.59-1.37,3.57l-2.01,2.23c-.31.34-.48.77-.48,1.23v.77h-2.04v-.77c0-.96.35-1.88,1-2.59l2.01-2.22c.55-.61.85-1.39.85-2.21,0-1.2-.98-2.17-2.19-2.17h-1.29c-1.21,0-2.19.97-2.19,2.17h-2.05c0-2.32,1.9-4.2,4.23-4.2h1.29M34.64,22.63h-1.29c-3.62,0-6.57,2.93-6.57,6.54v2.34h5.93l-.48.53c-1.03,1.14-1.6,2.61-1.61,4.15v.8s.03,2.32.03,2.32h6.66l.02-2.31v-.59s1.9-2.1,1.9-2.1c1.27-1.41,1.98-3.24,1.98-5.13,0-3.61-2.95-6.54-6.57-6.54h0ZM33.5,29.34h.98c-.03.18-.11.34-.24.48l-.74.82v-1.3h0Z"/>
    </g>
  </g>
</svg>