<?xml version="1.0" encoding="UTF-8"?>
<svg id="Layer_1" xmlns="http://www.w3.org/2000/svg" version="1.1" viewBox="0 0 68 68">
  <!-- Generator: Adobe Illustrator 30.1.0, SVG Export Plug-In . SVG Version: 2.1.1 Build 136)  -->
  <circle id="Outer" cx="34" cy="34" r="29.85" fill="none" stroke="#000" stroke-width="8.31"/>
  <g>
    <g>
      <rect x="31.85" y="44.32" width="4.26" height="4.26"/>
      <path d="M35.47,44.96v2.99h-2.99v-2.99h2.99M36.75,43.68h-5.54v5.54h5.54v-5.54h0Z"/>
    </g>
    <g>
      <path d="M31.86,39.78l-.02-1.76c0-1.58.59-3.09,1.65-4.25l2.96-3.28c.7-.78,1.09-1.79,1.09-2.83,0-1.41-1.16-2.57-2.59-2.57h-1.9c-1.43,0-2.59,1.15-2.59,2.57v.64h-4.29v-.64c0-3.77,3.09-6.83,6.88-6.83h1.9c3.79,0,6.88,3.07,6.88,6.83,0,2.1-.78,4.12-2.19,5.69l-2.96,3.28c-.36.4-.55.88-.55,1.4l-.02,1.76h-4.25Z"/>
      <path d="M34.95,21.45c3.44,0,6.24,2.78,6.24,6.2,0,1.94-.72,3.81-2.03,5.26l-2.96,3.28c-.46.51-.71,1.14-.71,1.82v1.13h-3v-1.13c0-1.42.52-2.77,1.47-3.82l2.96-3.28c.81-.9,1.26-2.06,1.26-3.26,0-1.77-1.45-3.2-3.23-3.2h-1.9c-1.78,0-3.23,1.44-3.23,3.2h-3.02c0-3.42,2.8-6.2,6.24-6.2h1.9M34.95,20.18h-1.9c-4.14,0-7.52,3.35-7.52,7.47v1.28h5.57v-1.28c0-1.06.88-1.93,1.95-1.93h1.9c1.08,0,1.95.86,1.95,1.93,0,.89-.33,1.74-.93,2.41l-2.96,3.28c-1.16,1.28-1.8,2.94-1.81,4.67v1.15s.02,1.26.02,1.26h5.51v-1.26s.02-1.13.02-1.13c0-.37.13-.7.39-.98l2.96-3.28c1.52-1.68,2.35-3.85,2.35-6.11,0-4.12-3.37-7.47-7.52-7.47h0Z"/>
    </g>
  </g>
</svg>