<?xml version="1.0" encoding="UTF-8"?>
<svg id="Layer_1" xmlns="http://www.w3.org/2000/svg" version="1.1" viewBox="0 0 58 58">
  <!-- Generator: Adobe Illustrator 30.1.0, SVG Export Plug-In . SVG Version: 2.1.1 Build 136)  -->
  <path d="M29,4.02c.81,0,1.62.42,2.05,1.26l5.23,10.37c.9,1.78,2.57,3.04,4.53,3.41l11.3,2.12c1.77.33,2.48,2.48,1.27,3.81l-8.24,9.04c-1.27,1.39-1.86,3.28-1.61,5.15l1.61,12.19c.19,1.45-.97,2.61-2.27,2.61-.35,0-.7-.08-1.05-.26l-9.89-5.09c-.92-.47-1.92-.71-2.92-.71-1,0-2,.24-2.92.71l-9.89,5.09c-.34.18-.7.26-1.05.26-1.31,0-2.47-1.15-2.27-2.61l1.61-12.19c.25-1.87-.34-3.75-1.61-5.15l-8.24-9.04c-1.21-1.33-.5-3.48,1.27-3.81l11.3-2.12c1.95-.37,3.63-1.62,4.52-3.4l5.23-10.37c.42-.84,1.24-1.26,2.05-1.26M29,0C26.6,0,24.44,1.33,23.36,3.48l-5.23,10.37c-.33.65-.95,1.12-1.67,1.26l-11.3,2.12c-2.25.42-4.1,2.03-4.83,4.21-.73,2.17-.22,4.58,1.32,6.27l8.24,9.04c.47.52.69,1.21.6,1.91l-1.61,12.19c-.24,1.81.31,3.63,1.51,4.99,1.21,1.38,2.94,2.16,4.76,2.16,1,0,2-.24,2.89-.71l9.89-5.09c.33-.17.71-.26,1.08-.26.37,0,.75.09,1.08.26l9.89,5.09c.9.46,1.9.71,2.89.71,1.82,0,3.55-.79,4.76-2.16,1.2-1.36,1.75-3.18,1.51-4.99l-1.61-12.19c-.09-.7.13-1.4.6-1.92l8.24-9.04c1.54-1.69,2.05-4.1,1.32-6.27-.73-2.17-2.58-3.78-4.83-4.2l-11.3-2.12c-.72-.13-1.34-.61-1.67-1.26l-5.23-10.37C33.56,1.33,31.4,0,29,0h0Z"/>
</svg>