<?xml version="1.0" encoding="UTF-8"?>
<svg id="Layer_1" xmlns="http://www.w3.org/2000/svg" version="1.1" viewBox="0 0 58 58">
  <!-- Generator: Adobe Illustrator 30.1.0, SVG Export Plug-In . SVG Version: 2.1.1 Build 136)  -->
  <path d="M29,7.09c.71,0,1.42.37,1.8,1.11l4.58,9.1c.79,1.56,2.25,2.67,3.97,2.99l9.92,1.86c1.55.29,2.18,2.18,1.12,3.34l-7.23,7.93c-1.11,1.22-1.63,2.88-1.42,4.52l1.41,10.69c.17,1.28-.85,2.29-2,2.29-.3,0-.62-.07-.92-.23l-8.68-4.47c-.8-.41-1.68-.62-2.56-.62-.88,0-1.76.21-2.56.62l-8.68,4.47c-.3.16-.62.23-.92.23-1.15,0-2.16-1.01-2-2.29l1.41-10.7c.22-1.64-.3-3.29-1.42-4.52l-7.23-7.93c-1.06-1.17-.44-3.05,1.12-3.35l9.92-1.86c1.71-.32,3.18-1.43,3.97-2.99l4.59-9.1c.37-.74,1.08-1.11,1.8-1.11M29,0C25.54,0,22.43,1.92,20.87,5.01l-4.26,8.45-9.19,1.72c-3.24.61-5.91,2.93-6.95,6.06-1.05,3.13-.32,6.59,1.9,9.03l6.76,7.42-1.32,10.02c-.34,2.6.45,5.22,2.17,7.19,1.73,1.98,4.23,3.11,6.85,3.11,1.44,0,2.88-.35,4.16-1.01l7.99-4.12,7.99,4.12c1.29.66,2.73,1.01,4.16,1.01,2.62,0,5.11-1.13,6.85-3.11,1.72-1.97,2.52-4.59,2.17-7.19l-1.32-10.02,6.77-7.42c2.22-2.44,2.95-5.9,1.9-9.03-1.05-3.13-3.71-5.45-6.95-6.06l-9.19-1.72-4.26-8.45C35.57,1.92,32.46,0,29,0h0Z"/>
</svg>