<?xml version="1.0" encoding="UTF-8"?>
<svg id="Layer_1" xmlns="http://www.w3.org/2000/svg" version="1.1" viewBox="0 0 58 58">
  <!-- Generator: Adobe Illustrator 30.1.0, SVG Export Plug-In . SVG Version: 2.1.1 Build 136)  -->
  <path d="M29,12.22c.55,0,1.09.28,1.38.85l3.51,6.97c.6,1.2,1.73,2.04,3.04,2.29l7.6,1.42c1.19.22,1.67,1.67.85,2.56l-5.53,6.07c-.85.94-1.25,2.2-1.09,3.46l1.08,8.19c.13.98-.65,1.75-1.53,1.75-.23,0-.47-.05-.7-.17l-6.64-3.42c-.62-.32-1.29-.48-1.96-.48-.67,0-1.35.16-1.96.48l-6.64,3.42c-.23.12-.47.17-.7.17-.88,0-1.66-.77-1.53-1.75l1.08-8.19c.17-1.26-.23-2.52-1.08-3.46l-5.53-6.07c-.82-.89-.33-2.34.86-2.56l7.6-1.42c1.31-.25,2.44-1.09,3.04-2.29l3.51-6.97c.29-.57.83-.85,1.38-.85M29,0c-5.23,0-9.93,2.9-12.29,7.57l-1.75,3.47-3.74.7c-4.9.92-8.93,4.43-10.51,9.15-1.58,4.73-.48,9.96,2.88,13.64l3.06,3.35-.6,4.54c-.52,3.93.68,7.89,3.29,10.87,2.62,2.98,6.39,4.7,10.35,4.7,2.18,0,4.35-.53,6.3-1.53l3.01-1.55,3.01,1.55c1.94,1,4.12,1.53,6.3,1.53,3.96,0,7.73-1.71,10.35-4.7,2.61-2.98,3.81-6.94,3.29-10.87l-.6-4.54,3.06-3.35c3.36-3.69,4.46-8.91,2.88-13.64-1.58-4.73-5.61-8.24-10.51-9.15l-3.74-.7-1.75-3.47c-2.35-4.67-7.06-7.57-12.29-7.57h0Z"/>
</svg>