<?xml version="1.0" encoding="UTF-8"?>
<svg id="Layer_1" xmlns="http://www.w3.org/2000/svg" version="1.1" viewBox="0 0 58 58">
  <!-- Generator: Adobe Illustrator 30.1.0, SVG Export Plug-In . SVG Version: 2.1.1 Build 136)  -->
  <path d="M29,11.2c.58,0,1.16.3,1.46.9l3.72,7.39c.64,1.27,1.83,2.17,3.22,2.43l8.06,1.51c1.26.24,1.77,1.77.91,2.72l-5.87,6.44c-.91.99-1.33,2.34-1.15,3.67l1.15,8.68c.14,1.04-.69,1.86-1.62,1.86-.25,0-.5-.06-.75-.18l-7.05-3.63c-.65-.34-1.37-.5-2.08-.5-.71,0-1.43.17-2.08.5l-7.05,3.63c-.25.13-.5.18-.75.18-.93,0-1.76-.82-1.62-1.86l1.15-8.69c.18-1.33-.24-2.68-1.15-3.67l-5.87-6.44c-.86-.95-.35-2.48.91-2.72l8.05-1.51c1.39-.26,2.58-1.16,3.22-2.43l3.72-7.39c.3-.6.88-.9,1.46-.9M29,0C24.12,0,19.73,2.71,17.54,7.06l-2.24,4.45-4.82.9c-4.57.86-8.33,4.13-9.81,8.54-1.48,4.41-.45,9.29,2.68,12.73l3.79,4.16-.74,5.63c-.48,3.67.64,7.36,3.07,10.14,2.44,2.78,5.96,4.38,9.66,4.38,2.03,0,4.06-.49,5.88-1.43l4-2.06,4,2.06c1.81.93,3.84,1.43,5.88,1.43,3.69,0,7.21-1.6,9.66-4.38,2.43-2.78,3.55-6.47,3.07-10.14l-.74-5.63,3.79-4.16c3.13-3.44,4.16-8.32,2.68-12.73-1.48-4.41-5.24-7.68-9.81-8.54l-4.82-.9-2.24-4.45C38.27,2.71,33.88,0,29,0h0Z"/>
</svg>