<?xml version="1.0" encoding="UTF-8"?>
<svg id="Layer_1" xmlns="http://www.w3.org/2000/svg" version="1.1" viewBox="0 0 100 100">
  <!-- Generator: Adobe Illustrator 30.1.0, SVG Export Plug-In . SVG Version: 2.1.1 Build 136)  -->
  <circle id="Outer" cx="50" cy="50" r="46.53" fill="none" stroke="#000" stroke-width="6.94"/>
  <g>
    <g>
      <rect x="46.84" y="67.17" width="6.26" height="6.26"/>
      <path d="M52.63,67.64v5.32h-5.32v-5.32h5.32M53.57,66.7h-7.2v7.2h7.2v-7.2h0Z"/>
    </g>
    <g>
      <path d="M46.84,60.18l-.02-2.48c0-2.64.99-5.17,2.76-7.12l5.27-5.84c1.37-1.51,2.12-3.46,2.12-5.49,0-2.89-2.37-5.24-5.28-5.24h-3.39c-2.91,0-5.28,2.35-5.28,5.24v.47h-6.31v-.47c0-6.34,5.2-11.51,11.59-11.51h3.39c6.39,0,11.58,5.16,11.58,11.51,0,3.58-1.33,7.02-3.73,9.68l-5.27,5.84c-.75.83-1.15,1.84-1.15,2.93l-.03,2.48h-6.25Z"/>
      <path d="M51.69,28.21c6.13,0,11.12,4.95,11.12,11.04,0,3.46-1.28,6.79-3.61,9.37l-5.27,5.84c-.82.9-1.27,2.03-1.27,3.24l-.02,2.01h-5.32l-.02-2.01c0-2.52.94-4.93,2.64-6.8l5.27-5.84c1.44-1.6,2.24-3.66,2.24-5.81,0-3.15-2.58-5.71-5.75-5.71h-3.39c-3.17,0-5.75,2.56-5.75,5.71h-5.37c0-6.09,4.99-11.04,11.12-11.04h3.39M51.69,27.27h-3.39c-6.65,0-12.05,5.37-12.05,11.98v.94h7.25v-.94c0-2.63,2.16-4.77,4.81-4.77h3.39c2.65,0,4.81,2.14,4.81,4.77,0,1.91-.71,3.75-2,5.18l-5.27,5.84c-1.85,2.04-2.87,4.68-2.88,7.43l.02,2.03v.93h7.19v-.93s.03-2.01.03-2.01c0-.98.36-1.88,1.03-2.62l5.27-5.84c2.48-2.75,3.85-6.3,3.85-9.99,0-6.6-5.41-11.98-12.05-11.98h0Z"/>
    </g>
  </g>
</svg>