<?xml version="1.0" encoding="UTF-8"?>
<svg id="Layer_1" xmlns="http://www.w3.org/2000/svg" version="1.1" viewBox="0 0 100 100">
  <!-- Generator: Adobe Illustrator 30.1.0, SVG Export Plug-In . SVG Version: 2.1.1 Build 136)  -->
  <circle id="Outer" cx="50" cy="50" r="39.47" fill="none" stroke="#000" stroke-width="21.06"/>
  <g>
    <g>
      <rect x="46.77" y="61.78" width="6.42" height="6.42"/>
      <path d="M51.47,63.5v2.98h-2.98v-2.98h2.98M54.9,60.06h-9.86v9.86h9.86v-9.86h0Z"/>
    </g>
    <g>
      <path d="M46.79,56.08l-.03-2.83c0-1.86.69-3.62,1.92-4.98l2.95-3.27c.52-.58.81-1.32.81-2.1s-.67-1.48-1.5-1.48h-1.9c-.83,0-1.5.66-1.5,1.48v1.72h-6.45v-1.72c0-4.36,3.56-7.9,7.94-7.9h1.9c4.38,0,7.94,3.54,7.94,7.9,0,2.37-.88,4.64-2.46,6.4l-2.95,3.27c-.18.2-.27.42-.27.67l-.03,2.84h-6.39Z"/>
      <path d="M50.95,36.72c3.43,0,6.23,2.77,6.23,6.18,0,1.94-.72,3.8-2.02,5.25l-2.95,3.27c-.46.51-.71,1.13-.71,1.82v1.13h-2.99v-1.13c0-1.41.52-2.76,1.47-3.81l2.95-3.27c.81-.9,1.25-2.05,1.25-3.25,0-1.76-1.44-3.2-3.22-3.2h-1.9c-1.77,0-3.22,1.43-3.22,3.2h-3.01c0-3.41,2.79-6.18,6.23-6.18h1.9M50.95,33.28h-1.9c-5.33,0-9.66,4.32-9.66,9.62v3.44h8.73l-.71.78c-1.51,1.67-2.35,3.84-2.36,6.1v1.17s.04,3.41.04,3.41h9.79l.03-3.4v-.86s2.79-3.08,2.79-3.08c1.87-2.08,2.91-4.76,2.91-7.55,0-5.3-4.33-9.62-9.66-9.62h0ZM49.27,43.14h1.44c-.05.26-.16.51-.35.71l-1.09,1.21v-1.91h0Z"/>
    </g>
  </g>
</svg>