<?xml version="1.0" encoding="UTF-8"?>
<svg id="Layer_1" xmlns="http://www.w3.org/2000/svg" version="1.1" viewBox="0 0 100 100">
  <!-- Generator: Adobe Illustrator 30.1.0, SVG Export Plug-In . SVG Version: 2.1.1 Build 136)  -->
  <circle id="Outer" cx="50" cy="50" r="45.66" fill="none" stroke="#000" stroke-width="8.69"/>
  <g>
    <g>
      <rect x="46.84" y="66.51" width="6.26" height="6.26"/>
      <path d="M52.47,67.14v5.01h-5.01v-5.01h5.01M53.72,65.89h-7.51v7.51h7.51v-7.51h0Z"/>
    </g>
    <g>
      <path d="M46.85,59.61l-.02-2.51c0-2.53.95-4.95,2.64-6.83l4.96-5.5c1.25-1.39,1.94-3.18,1.94-5.05,0-2.62-2.14-4.74-4.78-4.74h-3.19c-2.64,0-4.78,2.13-4.78,4.74v.62h-6.3v-.62c0-6.07,4.97-11.01,11.09-11.01h3.19c6.11,0,11.09,4.94,11.09,11.01,0,3.41-1.26,6.69-3.56,9.23l-4.96,5.5c-.68.75-1.03,1.66-1.04,2.63l-.03,2.52h-6.25Z"/>
      <path d="M51.59,29.34c5.77,0,10.46,4.66,10.46,10.39,0,3.26-1.21,6.39-3.4,8.81l-4.96,5.5c-.77.85-1.19,1.91-1.2,3.05l-.02,1.89h-5.01l-.02-1.89c0-2.37.88-4.64,2.48-6.4l4.96-5.5c1.36-1.5,2.11-3.45,2.11-5.46,0-2.96-2.43-5.37-5.41-5.37h-3.19c-2.98,0-5.41,2.41-5.41,5.37h-5.05c0-5.73,4.69-10.39,10.46-10.39h3.19M51.59,28.09h-3.19c-6.46,0-11.71,5.22-11.71,11.64v1.25h7.55v-1.25c0-2.27,1.86-4.12,4.16-4.12h3.19c2.29,0,4.16,1.85,4.16,4.12,0,1.71-.63,3.35-1.78,4.63l-4.96,5.5c-1.8,1.99-2.79,4.56-2.8,7.24l.02,1.91v1.24h7.5v-1.24s.03-1.89.03-1.89c0-.83.31-1.6.88-2.23l4.96-5.5c2.4-2.66,3.72-6.08,3.72-9.65,0-6.42-5.25-11.64-11.71-11.64h0Z"/>
    </g>
  </g>
</svg>