<?xml version="1.0" encoding="UTF-8"?>
<svg id="Layer_1" xmlns="http://www.w3.org/2000/svg" version="1.1" viewBox="0 0 100 100">
  <!-- Generator: Adobe Illustrator 30.1.0, SVG Export Plug-In . SVG Version: 2.1.1 Build 136)  -->
  <circle id="Outer" cx="50" cy="50" r="43.89" fill="none" stroke="#000" stroke-width="12.22"/>
  <g>
    <g>
      <rect x="46.84" y="65.18" width="6.27" height="6.27"/>
      <path d="M52.17,66.12v4.39h-4.39v-4.39h4.39M54.04,64.24h-8.14v8.14h8.14v-8.14h0Z"/>
    </g>
    <g>
      <path d="M46.85,58.5l-.02-2.59c0-2.32.87-4.54,2.42-6.25l4.35-4.82c1.04-1.15,1.61-2.63,1.61-4.17,0-2.08-1.71-3.77-3.81-3.77h-2.8c-2.1,0-3.81,1.69-3.81,3.77v.94h-6.31v-.94c0-5.54,4.54-10.05,10.12-10.05h2.8c5.58,0,10.11,4.51,10.11,10.05,0,3.09-1.14,6.06-3.22,8.36l-4.35,4.82c-.53.58-.81,1.29-.81,2.05l-.03,2.6h-6.25Z"/>
      <path d="M51.4,31.55c5.06,0,9.18,4.09,9.18,9.11,0,2.86-1.06,5.6-2.98,7.73l-4.35,4.82c-.67.75-1.05,1.67-1.05,2.68l-.02,1.66h-4.39v-1.66c0-2.08.76-4.07,2.16-5.62l4.35-4.82c1.19-1.32,1.85-3.02,1.85-4.79,0-2.6-2.13-4.71-4.74-4.71h-2.8c-2.62,0-4.74,2.11-4.74,4.71h-4.43c0-5.02,4.12-9.11,9.18-9.11h2.8M51.4,29.67h-2.8c-6.09,0-11.05,4.93-11.05,10.99v1.88h8.18v-1.88c0-1.56,1.29-2.84,2.87-2.84h2.8c1.58,0,2.87,1.27,2.87,2.84,0,1.31-.48,2.56-1.36,3.54l-4.35,4.82c-1.71,1.89-2.65,4.33-2.66,6.87v1.69s.03,1.86.03,1.86h8.11l.02-1.86.02-1.66c0-.54.19-1.02.57-1.44l4.35-4.83c2.23-2.47,3.46-5.67,3.46-8.99,0-6.06-4.96-10.99-11.05-10.99h0Z"/>
    </g>
  </g>
</svg>