<?xml version="1.0" encoding="UTF-8"?>
<svg id="Layer_1" xmlns="http://www.w3.org/2000/svg" version="1.1" viewBox="0 0 100 100">
  <!-- Generator: Adobe Illustrator 30.1.0, SVG Export Plug-In . SVG Version: 2.1.1 Build 136)  -->
  <circle id="Outer" cx="50" cy="50" r="42.11" fill="none" stroke="#000" stroke-width="15.78"/>
  <g>
    <g>
      <rect x="46.82" y="63.82" width="6.3" height="6.3"/>
      <path d="M51.87,65.07v3.8h-3.8v-3.8h3.8M54.37,62.57h-8.8v8.8h8.8v-8.8h0Z"/>
    </g>
    <g>
      <path d="M46.84,57.45l-.02-2.68c0-2.12.79-4.15,2.21-5.71l3.77-4.17c.82-.91,1.28-2.09,1.28-3.31,0-1.56-1.28-2.83-2.85-2.83h-2.42c-1.57,0-2.85,1.27-2.85,2.83v1.25h-6.34v-1.25c0-5.04,4.12-9.13,9.19-9.13h2.42c5.07,0,9.19,4.1,9.19,9.13,0,2.78-1.03,5.46-2.9,7.53l-3.77,4.17c-.38.42-.58.93-.59,1.48l-.03,2.68h-6.28Z"/>
      <path d="M51.21,33.7c4.38,0,7.94,3.54,7.94,7.88,0,2.47-.92,4.85-2.58,6.69l-3.77,4.17c-.58.65-.91,1.45-.91,2.32v1.44h-3.82v-1.44c0-1.8.66-3.52,1.87-4.86l3.77-4.17c1.03-1.14,1.6-2.62,1.6-4.15,0-2.25-1.84-4.08-4.1-4.08h-2.42c-2.26,0-4.1,1.83-4.1,4.08h-3.84c0-4.35,3.56-7.88,7.94-7.88h2.42M51.21,31.2h-2.42c-5.76,0-10.44,4.66-10.44,10.38v2.5h8.84v-2.5c0-.87.72-1.58,1.6-1.58h2.42c.88,0,1.6.71,1.6,1.58,0,.91-.34,1.79-.95,2.47l-3.77,4.17c-1.62,1.79-2.52,4.11-2.53,6.53v1.47s.03,2.48.03,2.48h8.76l.03-2.47v-1.44c.02-.26.1-.47.28-.66l3.77-4.18c2.08-2.3,3.22-5.27,3.22-8.37,0-5.73-4.68-10.38-10.44-10.38h0Z"/>
    </g>
  </g>
</svg>