<?xml version="1.0" encoding="UTF-8"?>
<svg id="Layer_1" xmlns="http://www.w3.org/2000/svg" version="1.1" viewBox="0 0 100 100">
  <!-- Generator: Adobe Illustrator 30.1.0, SVG Export Plug-In . SVG Version: 2.1.1 Build 136)  -->
  <circle id="Outer" cx="50" cy="50" r="40.34" fill="none" stroke="#000" stroke-width="19.31"/>
  <g>
    <g>
      <rect x="46.79" y="62.46" width="6.37" height="6.37"/>
      <path d="M51.6,64.03v3.25h-3.25v-3.25h3.25M54.72,60.9h-9.5v9.5h9.5v-9.5h0Z"/>
    </g>
    <g>
      <path d="M46.81,56.51l-.02-2.78c0-1.94.72-3.78,2.01-5.21l3.21-3.56c.62-.69.96-1.57.96-2.49,0-1.06-.87-1.92-1.94-1.92h-2.06c-1.07,0-1.94.86-1.94,1.92v1.56h-6.4v-1.56c0-4.57,3.74-8.29,8.34-8.29h2.06c4.6,0,8.34,3.72,8.34,8.29,0,2.5-.92,4.9-2.6,6.76l-3.22,3.56c-.25.27-.37.59-.37.94l-.03,2.78h-6.34Z"/>
      <path d="M51.03,35.74c3.74,0,6.78,3.02,6.78,6.73,0,2.11-.78,4.14-2.2,5.71l-3.22,3.56c-.5.55-.77,1.24-.78,1.98v1.23h-3.26v-1.23c0-1.54.56-3,1.6-4.15l3.21-3.56c.88-.97,1.36-2.23,1.36-3.54,0-1.92-1.57-3.48-3.5-3.48h-2.06c-1.93,0-3.5,1.56-3.5,3.48h-3.27c0-3.71,3.04-6.73,6.78-6.73h2.06M51.03,32.62h-2.06c-5.46,0-9.9,4.42-9.9,9.85v3.12h9.52v-3.12c0-.19.17-.35.38-.35h2.06c.2,0,.38.16.38.35,0,.53-.2,1.05-.56,1.45l-3.21,3.56c-1.55,1.71-2.4,3.92-2.41,6.23v1.27s.04,3.1.04,3.1h9.44l.03-3.09v-1.17s3.2-3.53,3.2-3.53c1.94-2.15,3.01-4.92,3.01-7.8,0-5.43-4.44-9.85-9.9-9.85h0Z"/>
    </g>
  </g>
</svg>