<?xml version="1.0" encoding="UTF-8"?>
<svg id="Layer_1" xmlns="http://www.w3.org/2000/svg" version="1.1" viewBox="0 0 77 77">
  <!-- Generator: Adobe Illustrator 30.1.0, SVG Export Plug-In . SVG Version: 2.1.1 Build 136)  -->
  <g>
    <g>
      <rect x="35.71" y="21.95" width="5.59" height="5.59"/>
      <path d="M40.33,22.91v3.66h-3.66v-3.66h3.66M42.26,20.99h-7.51v7.51h7.51v-7.51h0Z"/>
    </g>
    <g>
      <polygon points="32.04 54.5 32.04 48.91 35.71 48.91 35.71 39.4 32.04 39.4 32.04 33.82 41.29 33.82 41.29 48.91 44.96 48.91 44.96 54.5 32.04 54.5"/>
      <path d="M40.33,34.78v15.09h3.66v3.66h-10.99v-3.66h3.66v-11.43h-3.66v-3.66h7.32M42.26,32.85h-11.17v7.51h3.66v7.58h-3.66v7.51h14.84v-7.51h-3.66v-15.09h0Z"/>
    </g>
  </g>
  <circle id="Outer" cx="38.5" cy="38.5" r="32.42" fill="none" stroke="#000" stroke-width="12.15"/>
</svg>