<?xml version="1.0" encoding="UTF-8"?>
<svg id="Layer_1" xmlns="http://www.w3.org/2000/svg" version="1.1" viewBox="0 0 77 77">
  <!-- Generator: Adobe Illustrator 30.1.0, SVG Export Plug-In . SVG Version: 2.1.1 Build 136)  -->
  <g>
    <g>
      <rect x="35.66" y="22.93" width="5.68" height="5.68"/>
      <path d="M40.14,24.13v3.28h-3.28v-3.28h3.28M42.54,21.72h-8.09v8.09h8.09v-8.09h0Z"/>
    </g>
    <g>
      <polygon points="32.38 53.33 32.38 47.65 35.66 47.65 35.66 39.83 32.38 39.83 32.38 34.14 41.34 34.14 41.34 47.65 44.62 47.65 44.62 53.33 32.38 53.33"/>
      <path d="M40.14,35.35v13.5h3.28v3.28h-9.83v-3.28h3.28v-10.23h-3.28v-3.28h6.55M42.54,32.94h-11.36v8.09h3.28v5.41h-3.28v8.09h14.64v-8.09h-3.28v-13.5h0Z"/>
    </g>
  </g>
  <circle id="Outer" cx="38.5" cy="38.5" r="31.06" fill="none" stroke="#000" stroke-width="14.87"/>
</svg>