<?xml version="1.0" encoding="UTF-8"?>
<svg id="Layer_1" xmlns="http://www.w3.org/2000/svg" version="1.1" viewBox="0 0 104 104">
  <!-- Generator: Adobe Illustrator 30.1.0, SVG Export Plug-In . SVG Version: 2.1.1 Build 136)  -->
  <g>
    <g>
      <rect x="48.16" y="30.96" width="7.67" height="7.67"/>
      <path d="M54.21,32.59v4.42h-4.42v-4.42h4.42M57.46,29.34h-10.92v10.92h10.92v-10.92h0Z"/>
    </g>
    <g>
      <polygon points="43.74 72.03 43.74 64.35 48.16 64.35 48.16 53.79 43.74 53.79 43.74 46.12 55.84 46.12 55.84 64.35 60.26 64.35 60.26 72.03 43.74 72.03"/>
      <path d="M54.21,47.74v18.24h4.42v4.42h-13.27v-4.42h4.42v-13.81h-4.42v-4.42h8.85M57.46,44.49h-15.35v10.92h4.42v7.31h-4.42v10.92h19.77v-10.92h-4.42v-18.24h0Z"/>
    </g>
  </g>
  <circle id="Outer" cx="52" cy="52" r="41.96" fill="none" stroke="#000" stroke-width="20.08"/>
</svg>