<?xml version="1.0" encoding="UTF-8"?>
<svg id="Layer_1" xmlns="http://www.w3.org/2000/svg" version="1.1" viewBox="0 0 104 104">
  <!-- Generator: Adobe Illustrator 30.1.0, SVG Export Plug-In . SVG Version: 2.1.1 Build 136)  -->
  <g>
    <g>
      <rect x="48.13" y="31.61" width="7.74" height="7.75"/>
      <path d="M54.08,33.4v4.17h-4.17v-4.17h4.17M57.66,29.82h-11.32v11.32h11.32v-11.32h0Z"/>
    </g>
    <g>
      <polygon points="43.96 71.26 43.96 63.51 48.13 63.51 48.13 54.07 43.96 54.07 43.96 46.32 55.87 46.32 55.87 63.51 60.04 63.51 60.04 71.26 43.96 71.26"/>
      <path d="M54.08,48.11v17.19h4.17v4.17h-12.51v-4.17h4.17v-13.02h-4.17v-4.17h8.34M57.66,44.54h-15.49v11.32h4.17v5.87h-4.17v11.32h19.66v-11.32h-4.17v-17.19h0Z"/>
    </g>
  </g>
  <circle id="Outer" cx="52" cy="52" r="41.05" fill="none" stroke="#000" stroke-width="21.91"/>
</svg>