<?xml version="1.0" encoding="UTF-8"?>
<svg id="Layer_1" xmlns="http://www.w3.org/2000/svg" version="1.1" viewBox="0 0 104 104">
  <!-- Generator: Adobe Illustrator 30.1.0, SVG Export Plug-In . SVG Version: 2.1.1 Build 136)  -->
  <g>
    <g>
      <rect x="48.28" y="28.31" width="7.43" height="7.43"/>
      <path d="M54.74,29.29v5.48h-5.48v-5.48h5.48M56.69,27.34h-9.38v9.38h9.38v-9.38h0Z"/>
    </g>
    <g>
      <polygon points="42.8 75.23 42.8 67.79 48.28 67.79 48.28 52.63 42.8 52.63 42.8 45.19 55.72 45.19 55.72 67.79 61.2 67.79 61.2 75.23 42.8 75.23"/>
      <path d="M54.74,46.17v22.6h5.48v5.48h-16.45v-5.48h5.48v-17.12h-5.48v-5.48h10.97M56.69,44.22h-14.87v9.38h5.48v13.22h-5.48v9.38h20.35v-9.38h-5.48v-22.6h0Z"/>
    </g>
  </g>
  <circle id="Outer" cx="52" cy="52" r="45.65" fill="none" stroke="#000" stroke-width="12.71"/>
</svg>