<?xml version="1.0" encoding="UTF-8"?>
<svg id="Layer_1" xmlns="http://www.w3.org/2000/svg" version="1.1" viewBox="0 0 104 104">
  <!-- Generator: Adobe Illustrator 30.1.0, SVG Export Plug-In . SVG Version: 2.1.1 Build 136)  -->
  <g>
    <g>
      <rect x="48.37" y="26.33" width="7.27" height="7.27"/>
      <path d="M55.15,26.82v6.3h-6.3v-6.3h6.3M56.12,25.84h-8.25v8.25h8.25v-8.25h0Z"/>
    </g>
    <g>
      <polygon points="42.07 77.67 42.07 70.4 48.37 70.4 48.37 51.72 42.07 51.72 42.07 44.45 55.63 44.45 55.63 70.4 61.93 70.4 61.93 77.67 42.07 77.67"/>
      <path d="M55.15,44.94v25.95h6.3v6.3h-18.89v-6.3h6.3v-19.65h-6.3v-6.3h12.59M56.12,43.96h-14.54v8.25h6.3v17.7h-6.3v8.25h20.84v-8.25h-6.3v-25.95h0Z"/>
    </g>
  </g>
  <circle id="Outer" cx="52" cy="52" r="48.39" fill="none" stroke="#000" stroke-width="7.22"/>
</svg>