<?xml version="1.0" encoding="UTF-8"?>
<svg id="Layer_1" xmlns="http://www.w3.org/2000/svg" version="1.1" viewBox="0 0 46 46">
  <!-- Generator: Adobe Illustrator 30.1.0, SVG Export Plug-In . SVG Version: 2.1.1 Build 136)  -->
  <path d="M23,5.62c.57,0,1.13.29,1.43.88l3.64,7.22c.62,1.24,1.79,2.11,3.15,2.37l7.87,1.47c1.23.23,1.73,1.73.88,2.65l-5.73,6.29c-.88.97-1.3,2.28-1.12,3.59l1.12,8.48c.13,1.01-.67,1.81-1.58,1.81-.24,0-.49-.06-.73-.18l-6.88-3.54c-.64-.33-1.34-.49-2.03-.49s-1.39.16-2.03.49l-6.88,3.54c-.24.12-.49.18-.73.18-.91,0-1.72-.8-1.58-1.81l1.12-8.48c.17-1.3-.24-2.61-1.12-3.58l-5.73-6.29c-.84-.93-.35-2.42.89-2.65l7.87-1.47c1.36-.25,2.52-1.13,3.15-2.37l3.64-7.22c.3-.59.86-.88,1.43-.88M23,0h0c-2.74,0-5.21,1.52-6.44,3.97l-3.37,6.7-7.29,1.37c-2.57.48-4.68,2.32-5.51,4.8-.83,2.48-.25,5.23,1.51,7.16l5.36,5.89-1.05,7.94c-.27,2.06.36,4.14,1.72,5.7,1.37,1.57,3.35,2.47,5.43,2.47,1.14,0,2.28-.28,3.3-.8l6.34-3.26,6.34,3.26c1.02.53,2.16.8,3.3.8,0,0,0,0,0,0,2.08,0,4.06-.9,5.43-2.47,1.37-1.56,2-3.64,1.72-5.7l-1.05-7.94,5.37-5.89c1.76-1.93,2.34-4.68,1.51-7.16-.83-2.48-2.94-4.32-5.51-4.8l-7.29-1.37-3.37-6.7C28.21,1.52,25.74,0,23,0h0Z"/>
</svg>