<?xml version="1.0" encoding="UTF-8"?>
<svg id="Layer_1" xmlns="http://www.w3.org/2000/svg" version="1.1" viewBox="0 0 46 46">
  <!-- Generator: Adobe Illustrator 30.1.0, SVG Export Plug-In . SVG Version: 2.1.1 Build 136)  -->
  <path d="M23,7.26c.51,0,1.02.27,1.29.8l3.29,6.54c.57,1.12,1.62,1.92,2.85,2.15l7.12,1.34c1.11.21,1.57,1.56.8,2.4l-5.19,5.7c-.8.88-1.17,2.07-1.02,3.25l1.01,7.68c.12.92-.61,1.64-1.43,1.64-.22,0-.44-.05-.66-.16l-6.23-3.21c-.58-.3-1.21-.45-1.84-.45-.63,0-1.26.15-1.84.45l-6.23,3.21c-.22.11-.44.16-.66.16-.82,0-1.55-.73-1.43-1.64l1.01-7.68c.16-1.18-.22-2.37-1.02-3.24l-5.19-5.7c-.76-.84-.31-2.19.8-2.4l7.12-1.34c1.23-.23,2.29-1.02,2.85-2.15l3.29-6.54c.27-.53.78-.8,1.29-.8M23,0C19.69,0,16.71,1.84,15.23,4.79l-2.57,5.11-5.55,1.04c-3.1.58-5.65,2.8-6.65,5.79-1,2.99-.3,6.3,1.82,8.63l4.18,4.59-.82,6.2c-.33,2.49.43,4.99,2.08,6.88,1.66,1.89,4.04,2.97,6.55,2.97,1.38,0,2.75-.33,3.98-.97l4.75-2.45,4.75,2.45c1.23.63,2.61.97,3.98.97,2.51,0,4.89-1.08,6.55-2.97,1.65-1.88,2.41-4.39,2.08-6.88l-.82-6.2,4.18-4.59c2.13-2.33,2.82-5.64,1.82-8.63-1-2.99-3.55-5.21-6.65-5.79l-5.55-1.04-2.57-5.11C29.29,1.84,26.31,0,23,0h0Z"/>
</svg>