<?xml version="1.0" encoding="UTF-8"?>
<svg id="Layer_1" xmlns="http://www.w3.org/2000/svg" version="1.1" viewBox="0 0 97 97">
  <!-- Generator: Adobe Illustrator 30.1.0, SVG Export Plug-In . SVG Version: 2.1.1 Build 136)  -->
  <path d="M48.5,6.73c1.36,0,2.72.7,3.43,2.11l8.74,17.35c1.5,2.98,4.3,5.08,7.57,5.7l18.91,3.54c2.96.55,4.15,4.15,2.13,6.37l-13.77,15.12c-2.13,2.33-3.11,5.49-2.7,8.62l2.69,20.38c.32,2.43-1.62,4.36-3.8,4.36-.58,0-1.18-.14-1.75-.43l-16.54-8.52c-1.53-.79-3.21-1.18-4.88-1.18-1.68,0-3.35.39-4.88,1.18l-16.54,8.52c-.58.3-1.17.43-1.75.43-2.19,0-4.12-1.93-3.8-4.36l2.69-20.39c.41-3.13-.57-6.28-2.7-8.61l-13.78-15.12c-2.03-2.23-.83-5.82,2.13-6.38l18.9-3.54c3.27-.61,6.06-2.72,7.56-5.69l8.74-17.35c.71-1.41,2.07-2.11,3.43-2.11M48.5,0C44.49,0,40.87,2.23,39.06,5.81l-8.74,17.35c-.55,1.09-1.6,1.88-2.79,2.11l-18.9,3.54c-3.76.71-6.86,3.4-8.07,7.03-1.22,3.64-.37,7.66,2.21,10.49l13.78,15.12c.79.87,1.15,2.03,1,3.19l-2.69,20.39c-.4,3.02.52,6.07,2.52,8.35,2.02,2.3,4.92,3.62,7.95,3.62,1.66,0,3.34-.41,4.83-1.18l16.54-8.52c.56-.29,1.18-.44,1.8-.44.62,0,1.25.15,1.8.44l16.54,8.52c1.5.77,3.17,1.18,4.83,1.18,3.04,0,5.94-1.32,7.95-3.62,2-2.28,2.92-5.32,2.52-8.35l-2.69-20.38c-.15-1.17.21-2.34,1-3.21l13.77-15.12c2.58-2.83,3.43-6.85,2.21-10.49-1.22-3.63-4.31-6.33-8.07-7.03l-18.91-3.54c-1.2-.22-2.25-1.01-2.8-2.11l-8.74-17.35C56.13,2.23,52.51,0,48.5,0h0Z"/>
</svg>