<?xml version="1.0" encoding="UTF-8"?>
<svg id="Layer_1" xmlns="http://www.w3.org/2000/svg" version="1.1" viewBox="0 0 97 97">
  <!-- Generator: Adobe Illustrator 30.1.0, SVG Export Plug-In . SVG Version: 2.1.1 Build 136)  -->
  <path d="M48.5,20.43c.91,0,1.83.47,2.3,1.42l5.87,11.66c1.01,2,2.89,3.42,5.09,3.83l12.7,2.38c1.99.37,2.79,2.79,1.43,4.28l-9.26,10.16c-1.43,1.57-2.09,3.69-1.81,5.79l1.81,13.7c.22,1.63-1.09,2.93-2.56,2.93-.39,0-.79-.09-1.18-.29l-11.11-5.72c-1.03-.53-2.16-.8-3.28-.8-1.13,0-2.25.27-3.28.8l-11.11,5.72c-.39.2-.79.29-1.18.29-1.47,0-2.77-1.29-2.56-2.93l1.81-13.7c.28-2.1-.39-4.22-1.81-5.78l-9.26-10.16c-1.36-1.5-.56-3.91,1.43-4.28l12.7-2.38c2.2-.41,4.08-1.83,5.08-3.83l5.87-11.66c.48-.95,1.39-1.42,2.3-1.42M48.5,0C39.76,0,31.88,4.85,27.95,12.66l-2.92,5.8-6.25,1.17c-8.19,1.54-14.93,7.4-17.58,15.31-2.65,7.91-.81,16.65,4.81,22.82l5.11,5.61-1,7.6c-.87,6.57,1.14,13.2,5.5,18.18,4.38,4.99,10.68,7.85,17.31,7.85,3.64,0,7.28-.88,10.53-2.56l5.04-2.6,5.04,2.6c3.25,1.67,6.89,2.56,10.53,2.56,6.62,0,12.93-2.86,17.31-7.85,4.36-4.98,6.37-11.6,5.5-18.18l-1-7.6,5.11-5.61c5.62-6.16,7.46-14.91,4.81-22.82-2.65-7.91-9.38-13.77-17.58-15.31l-6.26-1.17-2.92-5.8C65.11,4.85,57.24,0,48.5,0h0Z"/>
</svg>