<?xml version="1.0" encoding="UTF-8"?>
<svg id="Layer_1" xmlns="http://www.w3.org/2000/svg" version="1.1" viewBox="0 0 97 97">
  <!-- Generator: Adobe Illustrator 30.1.0, SVG Export Plug-In . SVG Version: 2.1.1 Build 136)  -->
  <path d="M48.5,11.85c1.19,0,2.38.62,3.01,1.85l7.67,15.22c1.32,2.61,3.77,4.46,6.64,5l16.59,3.11c2.59.49,3.65,3.64,1.87,5.59l-12.09,13.26c-1.86,2.05-2.73,4.81-2.37,7.56l2.36,17.88c.28,2.13-1.42,3.82-3.34,3.82-.51,0-1.03-.12-1.54-.38l-14.51-7.47c-1.34-.69-2.82-1.04-4.29-1.04-1.47,0-2.94.35-4.29,1.04l-14.51,7.47c-.51.26-1.03.38-1.54.38-1.92,0-3.62-1.69-3.34-3.82l2.36-17.89c.36-2.74-.5-5.51-2.37-7.55l-12.09-13.26c-1.78-1.95-.73-5.11,1.87-5.59l16.59-3.11c2.87-.54,5.32-2.38,6.64-4.99l7.67-15.22c.62-1.24,1.81-1.85,3.01-1.85M48.5,0C42.72,0,37.51,3.21,34.91,8.37l-7.12,14.13-15.37,2.88c-5.42,1.02-9.88,4.9-11.63,10.13-1.75,5.23-.53,11.02,3.18,15.1l11.31,12.41-2.21,16.75c-.57,4.35.75,8.73,3.64,12.02,2.9,3.31,7.07,5.2,11.45,5.2,2.4,0,4.81-.59,6.97-1.69l13.37-6.88,13.37,6.88c2.15,1.11,4.56,1.69,6.97,1.69,4.38,0,8.55-1.9,11.45-5.2,2.88-3.29,4.21-7.67,3.64-12.02l-2.21-16.75,11.32-12.42c3.72-4.08,4.94-9.86,3.18-15.1-1.75-5.23-6.21-9.11-11.63-10.13l-15.38-2.88-7.12-14.13C59.49,3.21,54.28,0,48.5,0h0Z"/>
</svg>