<?xml version="1.0" encoding="UTF-8"?>
<svg id="Layer_1" xmlns="http://www.w3.org/2000/svg" version="1.1" viewBox="0 0 97 97">
  <!-- Generator: Adobe Illustrator 30.1.0, SVG Export Plug-In . SVG Version: 2.1.1 Build 136)  -->
  <path d="M48.5,18.73c.97,0,1.94.5,2.44,1.51l6.23,12.36c1.07,2.12,3.06,3.62,5.39,4.06l13.47,2.53c2.11.39,2.96,2.96,1.52,4.54l-9.82,10.77c-1.51,1.66-2.22,3.91-1.92,6.14l1.92,14.52c.23,1.73-1.15,3.1-2.71,3.1-.41,0-.84-.1-1.25-.31l-11.78-6.07c-1.09-.56-2.29-.84-3.48-.84s-2.39.28-3.48.84l-11.78,6.07c-.41.21-.84.31-1.25.31-1.56,0-2.94-1.37-2.71-3.1l1.92-14.53c.29-2.23-.41-4.47-1.92-6.13l-9.82-10.77c-1.45-1.59-.59-4.15,1.52-4.54l13.47-2.53c2.33-.44,4.32-1.94,5.39-4.06l6.23-12.36c.51-1,1.47-1.51,2.44-1.51M48.5,0C40.34,0,33,4.53,29.33,11.81l-3.75,7.45-8.06,1.51c-7.65,1.43-13.93,6.91-16.4,14.28-2.47,7.38-.75,15.54,4.49,21.29l6.34,6.95-1.24,9.41c-.81,6.13,1.06,12.32,5.13,16.96,4.08,4.66,9.97,7.33,16.15,7.33,3.4,0,6.79-.83,9.83-2.39l6.69-3.44,6.69,3.44c3.03,1.56,6.43,2.39,9.83,2.39,6.18,0,12.07-2.67,16.15-7.33,4.07-4.64,5.94-10.83,5.13-16.96l-1.24-9.41,6.34-6.96c5.24-5.75,6.96-13.91,4.49-21.29-2.47-7.38-8.76-12.85-16.4-14.28l-8.06-1.51-3.75-7.45C64,4.53,56.65,0,48.5,0h0Z"/>
</svg>