<?xml version="1.0" encoding="UTF-8"?>
<svg id="Layer_1" xmlns="http://www.w3.org/2000/svg" version="1.1" viewBox="0 0 97 97">
  <!-- Generator: Adobe Illustrator 30.1.0, SVG Export Plug-In . SVG Version: 2.1.1 Build 136)  -->
  <path d="M48.5,15.31c1.08,0,2.16.56,2.72,1.68l6.94,13.78c1.19,2.37,3.42,4.04,6.01,4.53l15.02,2.82c2.35.44,3.3,3.3,1.69,5.06l-10.95,12.01c-1.69,1.85-2.47,4.36-2.15,6.85l2.14,16.19c.25,1.93-1.28,3.46-3.02,3.46-.46,0-.93-.11-1.39-.34l-13.14-6.77c-1.22-.63-2.55-.94-3.88-.94-1.33,0-2.66.31-3.88.94l-13.14,6.77c-.46.24-.93.34-1.39.34-1.74,0-3.28-1.53-3.02-3.46l2.14-16.2c.33-2.49-.46-4.99-2.14-6.84l-10.95-12.01c-1.61-1.77-.66-4.63,1.69-5.07l15.02-2.82c2.6-.49,4.82-2.16,6.01-4.52l6.95-13.79c.56-1.12,1.64-1.68,2.72-1.68M48.5,0C41.53,0,35.24,3.87,32.11,10.1l-5.43,10.77-11.7,2.19c-6.54,1.23-11.91,5.91-14.03,12.22-2.11,6.31-.64,13.29,3.84,18.21l8.81,9.67-1.72,13.07c-.69,5.25.91,10.53,4.39,14.5,3.49,3.98,8.53,6.27,13.81,6.27,2.9,0,5.81-.71,8.4-2.04l10.01-5.16,10.01,5.16c2.59,1.34,5.5,2.04,8.4,2.04,5.28,0,10.32-2.29,13.81-6.27,3.48-3.97,5.08-9.26,4.39-14.5l-1.72-13.07,8.82-9.68c4.48-4.92,5.95-11.9,3.84-18.21-2.11-6.31-7.49-10.99-14.02-12.21l-11.7-2.19-5.43-10.77C61.75,3.87,55.47,0,48.5,0h0Z"/>
</svg>