<?xml version="1.0" encoding="UTF-8"?>
<svg id="Layer_1" xmlns="http://www.w3.org/2000/svg" version="1.1" viewBox="0 0 34 34">
  <!-- Generator: Adobe Illustrator 30.1.0, SVG Export Plug-In . SVG Version: 2.1.1 Build 136)  -->
  <circle id="Outer" cx="17" cy="17" r="15.52" fill="none" stroke="#000" stroke-width="2.95"/>
  <g>
    <g>
      <rect x="15.93" y="22.61" width="2.13" height="2.13"/>
      <path d="M17.84,22.83v1.7h-1.7v-1.7h1.7M18.27,22.4h-2.55v2.55h2.55v-2.55h0Z"/>
    </g>
    <g>
      <path d="M15.93,20.27v-.86c0-.86.31-1.68.89-2.32l1.69-1.87c.43-.47.66-1.08.66-1.72,0-.89-.73-1.61-1.62-1.61h-1.08c-.9,0-1.63.72-1.63,1.61v.21h-2.14v-.21c0-2.06,1.69-3.74,3.77-3.74h1.08c2.08,0,3.77,1.68,3.77,3.74,0,1.16-.43,2.28-1.21,3.14l-1.69,1.87c-.23.25-.35.56-.35.9v.86h-2.13Z"/>
      <path d="M17.54,9.97c1.96,0,3.56,1.58,3.56,3.53,0,1.11-.41,2.17-1.15,3l-1.69,1.87c-.26.29-.41.65-.41,1.04v.64h-1.71v-.64c0-.81.29-1.58.84-2.18l1.69-1.87c.46-.51.72-1.17.72-1.86,0-1.01-.82-1.83-1.84-1.83h-1.08c-1.01,0-1.84.82-1.84,1.83h-1.72c0-1.95,1.6-3.53,3.56-3.53h1.08M17.54,9.55h-1.08c-2.2,0-3.98,1.77-3.98,3.96v.42h2.57v-.42c0-.77.63-1.4,1.41-1.4h1.08c.78,0,1.41.63,1.41,1.4,0,.58-.22,1.14-.61,1.57l-1.69,1.87c-.61.68-.95,1.55-.95,2.46v.65s0,.42,0,.42h2.55v-.42s.01-.64.01-.64c0-.28.1-.54.3-.76l1.69-1.87c.82-.9,1.26-2.07,1.26-3.28,0-2.18-1.79-3.96-3.98-3.96h0Z"/>
    </g>
  </g>
</svg>