<?xml version="1.0" encoding="UTF-8"?>
<svg id="Layer_1" xmlns="http://www.w3.org/2000/svg" version="1.1" viewBox="0 0 34 34">
  <!-- Generator: Adobe Illustrator 30.1.0, SVG Export Plug-In . SVG Version: 2.1.1 Build 136)  -->
  <circle id="Outer" cx="17" cy="17" r="15.82" fill="none" stroke="#000" stroke-width="2.36"/>
  <g>
    <g>
      <rect x="15.93" y="22.84" width="2.13" height="2.13"/>
      <path d="M17.89,23v1.81h-1.81v-1.81h1.81M18.21,22.68h-2.45v2.45h2.45v-2.45h0Z"/>
    </g>
    <g>
      <path d="M15.93,20.46v-.84c0-.9.33-1.76.93-2.42l1.79-1.99c.46-.51.72-1.18.72-1.87,0-.98-.8-1.78-1.79-1.78h-1.15c-.99,0-1.79.8-1.79,1.78v.16h-2.14v-.16c0-2.16,1.77-3.91,3.94-3.91h1.15c2.17,0,3.94,1.75,3.94,3.91,0,1.22-.45,2.38-1.27,3.29l-1.79,1.99c-.25.28-.39.63-.39,1v.84h-2.13Z"/>
      <path d="M17.58,9.59c2.08,0,3.78,1.68,3.78,3.75,0,1.18-.44,2.31-1.23,3.18l-1.79,1.99c-.28.31-.43.69-.43,1.1v.68h-1.82v-.68c0-.86.31-1.68.89-2.31l1.79-1.99c.49-.54.76-1.24.76-1.97,0-1.07-.88-1.94-1.95-1.94h-1.15c-1.08,0-1.95.87-1.95,1.94h-1.83c0-2.07,1.7-3.75,3.78-3.75h1.15M17.58,9.27h-1.15c-2.26,0-4.1,1.83-4.1,4.07v.32h2.46v-.32c0-.89.73-1.62,1.63-1.62h1.15c.9,0,1.63.73,1.63,1.62,0,.65-.24,1.28-.68,1.76l-1.79,1.99c-.63.69-.98,1.59-.98,2.53v.69s0,.32,0,.32h2.44v-.32s.01-.68.01-.68c0-.33.12-.64.35-.89l1.79-1.99c.84-.94,1.31-2.14,1.31-3.4,0-2.25-1.84-4.07-4.1-4.07h0Z"/>
    </g>
  </g>
</svg>