<?xml version="1.0" encoding="UTF-8"?>
<svg id="Layer_1" xmlns="http://www.w3.org/2000/svg" version="1.1" viewBox="0 0 34 34">
  <!-- Generator: Adobe Illustrator 30.1.0, SVG Export Plug-In . SVG Version: 2.1.1 Build 136)  -->
  <circle id="Outer" cx="17" cy="17" r="13.42" fill="none" stroke="#000" stroke-width="7.16"/>
  <g>
    <g>
      <rect x="15.9" y="21.01" width="2.18" height="2.18"/>
      <path d="M17.5,21.59v1.01h-1.01v-1.01h1.01M18.67,20.42h-3.35v3.35h3.35v-3.35h0Z"/>
    </g>
    <g>
      <path d="M15.91,19.07v-.96c0-.63.23-1.23.64-1.69l1-1.11c.18-.2.28-.45.28-.71,0-.28-.23-.5-.51-.5h-.64c-.28,0-.51.23-.51.5v.58h-2.19v-.58c0-1.48,1.21-2.69,2.7-2.69h.64c1.49,0,2.7,1.21,2.7,2.69,0,.8-.3,1.58-.84,2.18l-1,1.11c-.06.07-.09.14-.09.23v.97h-2.18Z"/>
      <path d="M17.32,12.48c1.17,0,2.12.94,2.12,2.1,0,.66-.24,1.29-.69,1.78l-1,1.11c-.16.17-.24.39-.24.62v.38h-1.02v-.38c0-.48.18-.94.5-1.3l1-1.11c.27-.3.43-.7.43-1.11,0-.6-.49-1.09-1.09-1.09h-.64c-.6,0-1.09.49-1.09,1.09h-1.02c0-1.16.95-2.1,2.12-2.1h.64M17.32,11.32h-.64c-1.81,0-3.29,1.47-3.29,3.27v1.17h2.97l-.24.27c-.51.57-.8,1.31-.8,2.07v.4s.01,1.16.01,1.16h3.33v-1.16s.01-.29.01-.29l.95-1.05c.64-.71.99-1.62.99-2.57,0-1.8-1.47-3.27-3.29-3.27h0ZM16.75,14.67h.49c-.02.09-.06.17-.12.24l-.37.41v-.65h0Z"/>
    </g>
  </g>
</svg>