<?xml version="1.0" encoding="UTF-8"?>
<svg id="Layer_1" xmlns="http://www.w3.org/2000/svg" version="1.1" viewBox="0 0 34 34">
  <!-- Generator: Adobe Illustrator 30.1.0, SVG Export Plug-In . SVG Version: 2.1.1 Build 136)  -->
  <circle id="Outer" cx="17" cy="17" r="14.32" fill="none" stroke="#000" stroke-width="5.37"/>
  <g>
    <g>
      <rect x="15.92" y="21.7" width="2.14" height="2.14"/>
      <path d="M17.64,22.13v1.29h-1.29v-1.29h1.29M18.49,21.28h-2.99v2.99h2.99v-2.99h0Z"/>
    </g>
    <g>
      <path d="M15.93,19.53v-.91c0-.72.26-1.41.74-1.94l1.28-1.42c.28-.31.43-.71.43-1.13,0-.53-.44-.96-.97-.96h-.82c-.54,0-.97.43-.97.96v.42h-2.15v-.42c0-1.71,1.4-3.11,3.12-3.11h.82c1.72,0,3.12,1.39,3.12,3.11,0,.95-.35,1.85-.99,2.56l-1.28,1.42c-.13.14-.2.32-.2.5v.91h-2.14Z"/>
      <path d="M17.41,11.46c1.49,0,2.7,1.2,2.7,2.68,0,.84-.31,1.65-.88,2.27l-1.28,1.42c-.2.22-.31.49-.31.79v.49h-1.3v-.49c0-.61.22-1.2.64-1.65l1.28-1.42c.35-.39.54-.89.54-1.41,0-.76-.63-1.39-1.4-1.39h-.82c-.77,0-1.4.62-1.4,1.39h-1.3c0-1.48,1.21-2.68,2.7-2.68h.82M17.41,10.61h-.82c-1.96,0-3.55,1.58-3.55,3.53v.85h3v-.85c0-.3.24-.54.55-.54h.82c.3,0,.55.24.55.54,0,.31-.12.61-.32.84l-1.28,1.42c-.55.61-.86,1.4-.86,2.22v.5s.01.84.01.84h2.98v-.84s.01-.49.01-.49c0-.09.03-.16.09-.23l1.28-1.42c.71-.78,1.1-1.79,1.1-2.84,0-1.95-1.59-3.53-3.55-3.53h0Z"/>
    </g>
  </g>
</svg>