<?xml version="1.0" encoding="UTF-8"?>
<svg id="Layer_1" xmlns="http://www.w3.org/2000/svg" version="1.1" viewBox="0 0 34 34">
  <!-- Generator: Adobe Illustrator 30.1.0, SVG Export Plug-In . SVG Version: 2.1.1 Build 136)  -->
  <circle id="Outer" cx="17" cy="17" r="13.72" fill="none" stroke="#000" stroke-width="6.57"/>
  <g>
    <g>
      <rect x="15.91" y="21.24" width="2.17" height="2.17"/>
      <path d="M17.54,21.77v1.1h-1.1v-1.1h1.1M18.61,20.71h-3.23v3.23h3.23v-3.23h0Z"/>
    </g>
    <g>
      <path d="M15.92,19.21v-.94c0-.66.24-1.29.68-1.77l1.09-1.21c.21-.23.33-.54.33-.85,0-.36-.3-.65-.66-.65h-.7c-.36,0-.66.29-.66.65v.53h-2.18v-.53c0-1.55,1.27-2.82,2.84-2.82h.7c1.56,0,2.84,1.26,2.84,2.82,0,.85-.31,1.67-.88,2.3l-1.09,1.21c-.08.09-.13.2-.13.32v.95h-2.17Z"/>
      <path d="M17.35,12.15c1.27,0,2.3,1.03,2.3,2.29,0,.72-.27,1.41-.75,1.94l-1.09,1.21c-.17.19-.26.42-.26.67v.42h-1.11v-.42c0-.52.19-1.02.54-1.41l1.09-1.21c.3-.33.46-.76.46-1.2,0-.65-.53-1.18-1.19-1.18h-.7c-.66,0-1.19.53-1.19,1.18h-1.11c0-1.26,1.03-2.29,2.3-2.29h.7M17.35,11.09h-.7c-1.86,0-3.37,1.5-3.37,3.35v1.06h3.24v-1.06c0-.07.06-.12.13-.12h.7c.07,0,.13.06.13.12,0,.18-.07.36-.19.49l-1.09,1.21c-.53.58-.82,1.33-.82,2.12v.43s.01,1.05.01,1.05h3.21v-1.05s.01-.42.01-.42l1.08-1.18c.66-.73,1.02-1.67,1.02-2.65,0-1.85-1.51-3.35-3.37-3.35h0Z"/>
    </g>
  </g>
</svg>