<?xml version="1.0" encoding="UTF-8"?>
<svg id="Layer_1" xmlns="http://www.w3.org/2000/svg" version="1.1" viewBox="0 0 34 34">
  <!-- Generator: Adobe Illustrator 30.1.0, SVG Export Plug-In . SVG Version: 2.1.1 Build 136)  -->
  <circle id="Outer" cx="17" cy="17" r="14.92" fill="none" stroke="#000" stroke-width="4.15"/>
  <g>
    <g>
      <rect x="15.92" y="22.16" width="2.13" height="2.13"/>
      <path d="M17.74,22.48v1.49h-1.49v-1.49h1.49M18.37,21.84h-2.77v2.77h2.77v-2.77h0Z"/>
    </g>
    <g>
      <path d="M15.93,19.89v-.88c0-.79.29-1.54.81-2.13l1.48-1.64c.35-.39.55-.89.55-1.42,0-.71-.58-1.28-1.29-1.28h-.95c-.71,0-1.29.58-1.29,1.28v.32h-2.15v-.32c0-1.88,1.54-3.42,3.44-3.42h.95c1.9,0,3.44,1.53,3.44,3.42,0,1.05-.39,2.06-1.1,2.84l-1.48,1.64c-.18.2-.27.44-.28.7v.88h-2.13Z"/>
      <path d="M17.48,10.73c1.72,0,3.12,1.39,3.12,3.1,0,.97-.36,1.91-1.01,2.63l-1.48,1.64c-.23.25-.36.57-.36.91v.57h-1.5v-.57c0-.71.26-1.38.74-1.91l1.48-1.64c.41-.45.63-1.03.63-1.63,0-.88-.72-1.6-1.61-1.6h-.95c-.89,0-1.61.72-1.61,1.6h-1.51c0-1.71,1.4-3.1,3.12-3.1h.95M17.48,10.09h-.95c-2.07,0-3.76,1.68-3.76,3.74v.64h2.78v-.64c0-.53.44-.96.98-.96h.95c.54,0,.98.43.98.96,0,.44-.16.87-.46,1.2l-1.48,1.64c-.58.64-.9,1.47-.9,2.33v.57s.01.63.01.63h2.76v-.63s.01-.57.01-.57c0-.19.07-.35.19-.49l1.48-1.64c.76-.84,1.18-1.93,1.18-3.06,0-2.06-1.69-3.74-3.76-3.74h0Z"/>
    </g>
  </g>
</svg>