<?xml version="1.0" encoding="UTF-8"?>
<svg id="Layer_1" xmlns="http://www.w3.org/2000/svg" version="1.1" viewBox="0 0 29 29">
  <!-- Generator: Adobe Illustrator 30.1.0, SVG Export Plug-In . SVG Version: 2.1.1 Build 136)  -->
  <path d="M14.5,2.01c.41,0,.81.21,1.02.63l2.61,5.19c.45.89,1.28,1.52,2.26,1.7l5.65,1.06c.88.17,1.24,1.24.64,1.91l-4.12,4.52c-.64.7-.93,1.64-.81,2.58l.8,6.09c.1.73-.48,1.3-1.14,1.3-.17,0-.35-.04-.52-.13l-4.94-2.55c-.46-.24-.96-.35-1.46-.35-.5,0-1,.12-1.46.35l-4.94,2.55c-.17.09-.35.13-.52.13-.65,0-1.23-.58-1.14-1.3l.8-6.1c.12-.94-.17-1.88-.81-2.57l-4.12-4.52c-.61-.67-.25-1.74.64-1.91l5.65-1.06c.98-.18,1.81-.81,2.26-1.7l2.61-5.19c.21-.42.62-.63,1.02-.63M14.5,0C13.3,0,12.22.67,11.68,1.74l-2.61,5.19c-.16.33-.48.56-.84.63l-5.65,1.06c-1.13.21-2.05,1.02-2.41,2.1-.36,1.09-.11,2.29.66,3.14l4.12,4.52c.24.26.34.61.3.96l-.8,6.1c-.12.9.16,1.81.75,2.5.6.69,1.47,1.08,2.38,1.08.5,0,1-.12,1.45-.35l4.94-2.55c.17-.09.35-.13.54-.13.19,0,.37.05.54.13l4.94,2.55c.45.23.95.35,1.45.35.91,0,1.78-.39,2.38-1.08.6-.68.87-1.59.75-2.5l-.8-6.09c-.05-.35.06-.7.3-.96l4.12-4.52c.77-.85,1.03-2.05.66-3.14-.36-1.09-1.29-1.89-2.41-2.1l-5.65-1.06c-.36-.07-.67-.3-.84-.63l-2.61-5.19C16.78.67,15.7,0,14.5,0h0Z"/>
</svg>