<?xml version="1.0" encoding="UTF-8"?>
<svg id="Layer_1" xmlns="http://www.w3.org/2000/svg" version="1.1" viewBox="0 0 29 29">
  <!-- Generator: Adobe Illustrator 30.1.0, SVG Export Plug-In . SVG Version: 2.1.1 Build 136)  -->
  <path d="M14.5,4.58c.32,0,.65.17.81.5l2.08,4.12c.36.71,1.02,1.21,1.8,1.35l4.49.84c.7.13.99.99.51,1.51l-3.27,3.59c-.5.55-.74,1.3-.64,2.05l.64,4.84c.08.58-.38,1.04-.9,1.04-.14,0-.28-.03-.42-.1l-3.93-2.02c-.36-.19-.76-.28-1.16-.28s-.8.09-1.16.28l-3.93,2.02c-.14.07-.28.1-.42.1-.52,0-.98-.46-.9-1.04l.64-4.84c.1-.74-.14-1.49-.64-2.04l-3.27-3.59c-.48-.53-.2-1.38.51-1.51l4.49-.84c.78-.15,1.44-.65,1.8-1.35l2.08-4.12c.17-.33.49-.5.81-.5M14.5,0C12.41,0,10.54,1.16,9.6,3.02l-1.62,3.22-3.5.66c-1.95.37-3.56,1.77-4.19,3.65-.63,1.89-.19,3.97,1.15,5.44l2.64,2.89-.52,3.91c-.21,1.57.27,3.15,1.31,4.34,1.04,1.19,2.55,1.87,4.13,1.87.87,0,1.74-.21,2.51-.61l2.99-1.54,2.99,1.54c.78.4,1.64.61,2.51.61,1.58,0,3.08-.68,4.13-1.87,1.04-1.19,1.52-2.77,1.31-4.34l-.52-3.91,2.64-2.89c1.34-1.47,1.78-3.56,1.15-5.44-.63-1.89-2.24-3.29-4.19-3.65l-3.5-.66-1.62-3.22C18.46,1.16,16.58,0,14.5,0h0Z"/>
</svg>