<?xml version="1.0" encoding="UTF-8"?>
<svg id="Layer_1" xmlns="http://www.w3.org/2000/svg" version="1.1" viewBox="0 0 29 29">
  <!-- Generator: Adobe Illustrator 30.1.0, SVG Export Plug-In . SVG Version: 2.1.1 Build 136)  -->
  <path d="M14.5,6.11c.27,0,.55.14.69.42l1.76,3.49c.3.6.86,1.02,1.52,1.14l3.8.71c.59.11.83.83.43,1.28l-2.77,3.04c-.43.47-.63,1.1-.54,1.73l.54,4.09c.06.49-.32.88-.76.88-.12,0-.24-.03-.35-.09l-3.32-1.71c-.31-.16-.64-.24-.98-.24-.34,0-.67.08-.98.24l-3.32,1.71c-.12.06-.24.09-.35.09-.44,0-.83-.39-.76-.88l.54-4.1c.08-.63-.12-1.26-.54-1.73l-2.77-3.04c-.41-.45-.17-1.17.43-1.28l3.8-.71c.66-.12,1.22-.55,1.52-1.14l1.76-3.49c.14-.28.42-.42.69-.42M14.5,0C11.89,0,9.53,1.45,8.36,3.78l-.87,1.74-1.87.35c-2.45.46-4.46,2.21-5.26,4.58-.79,2.36-.24,4.98,1.44,6.82l1.53,1.68-.3,2.27c-.26,1.97.34,3.95,1.65,5.43,1.31,1.49,3.19,2.35,5.17,2.35,1.09,0,2.18-.26,3.15-.76l1.51-.78,1.51.78c.97.5,2.06.76,3.15.76,1.98,0,3.87-.86,5.17-2.35,1.3-1.49,1.9-3.47,1.65-5.43l-.3-2.27,1.53-1.68c1.68-1.84,2.23-4.46,1.44-6.82-.79-2.36-2.81-4.12-5.26-4.58l-1.87-.35-.87-1.74C19.47,1.45,17.11,0,14.5,0h0Z"/>
</svg>