<?xml version="1.0" encoding="UTF-8"?>
<svg id="Layer_1" xmlns="http://www.w3.org/2000/svg" version="1.1" viewBox="0 0 29 29">
  <!-- Generator: Adobe Illustrator 30.1.0, SVG Export Plug-In . SVG Version: 2.1.1 Build 136)  -->
  <path d="M14.5,5.6c.29,0,.58.15.73.45l1.86,3.7c.32.63.92,1.08,1.61,1.21l4.03.75c.63.12.89.88.45,1.36l-2.93,3.22c-.45.5-.66,1.17-.58,1.84l.57,4.34c.07.52-.34.93-.81.93-.12,0-.25-.03-.37-.09l-3.52-1.81c-.33-.17-.68-.25-1.04-.25s-.71.08-1.04.25l-3.52,1.81c-.12.06-.25.09-.37.09-.47,0-.88-.41-.81-.93l.57-4.34c.09-.67-.12-1.34-.57-1.83l-2.93-3.22c-.43-.47-.18-1.24.45-1.36l4.03-.75c.7-.13,1.29-.58,1.61-1.21l1.86-3.7c.15-.3.44-.45.73-.45M14.5,0C12.06,0,9.87,1.35,8.77,3.53l-1.12,2.23-2.41.45c-2.29.43-4.16,2.06-4.9,4.27-.74,2.21-.22,4.65,1.34,6.37l1.89,2.08-.37,2.81c-.24,1.83.32,3.68,1.53,5.07,1.22,1.39,2.98,2.19,4.83,2.19,1.02,0,2.03-.25,2.94-.71l2-1.03,2,1.03c.91.47,1.92.71,2.94.71,1.85,0,3.61-.8,4.83-2.19,1.22-1.39,1.78-3.24,1.53-5.07l-.37-2.81,1.9-2.08c1.57-1.72,2.08-4.16,1.34-6.36-.74-2.21-2.62-3.84-4.9-4.27l-2.41-.45-1.12-2.23C19.13,1.35,16.94,0,14.5,0h0Z"/>
</svg>