<?xml version="1.0" encoding="UTF-8"?>
<svg id="Layer_1" xmlns="http://www.w3.org/2000/svg" version="1.1" viewBox="0 0 91 91">
  <!-- Generator: Adobe Illustrator 30.1.0, SVG Export Plug-In . SVG Version: 2.1.1 Build 136)  -->
  <circle id="Outer" cx="45.5" cy="45.5" r="36.71" fill="none" stroke="#000" stroke-width="17.57"/>
  <g>
    <g>
      <rect x="42.58" y="56.84" width="5.8" height="5.8"/>
      <path d="M46.95,58.26v2.95h-2.95v-2.95h2.95M49.8,55.42h-8.64v8.64h8.64v-8.64h0Z"/>
    </g>
    <g>
      <path d="M42.6,51.43l-.02-2.53c0-1.77.66-3.44,1.83-4.74l2.92-3.24c.56-.62.88-1.43.88-2.27,0-.96-.79-1.74-1.77-1.74h-1.88c-.97,0-1.77.78-1.77,1.74v1.42h-5.82v-1.42c0-4.16,3.4-7.55,7.59-7.55h1.88c4.18,0,7.59,3.39,7.59,7.55,0,2.27-.84,4.46-2.37,6.15l-2.93,3.24c-.23.25-.34.54-.34.85l-.02,2.53h-5.77Z"/>
      <path d="M46.44,32.53c3.4,0,6.17,2.75,6.17,6.12,0,1.92-.71,3.77-2,5.2l-2.93,3.24c-.45.5-.7,1.12-.71,1.8v1.12h-2.96v-1.12c0-1.4.51-2.73,1.45-3.78l2.93-3.24c.8-.89,1.24-2.03,1.24-3.22,0-1.75-1.43-3.17-3.19-3.17h-1.88c-1.76,0-3.19,1.42-3.19,3.17h-2.98c0-3.38,2.77-6.12,6.17-6.12h1.88M46.44,29.68h-1.88c-4.97,0-9.01,4.02-9.01,8.97v2.84h8.67v-2.84c0-.17.16-.32.34-.32h1.88c.19,0,.34.15.34.32,0,.49-.18.95-.51,1.32l-2.93,3.24c-1.41,1.56-2.19,3.57-2.2,5.67v1.15s.03,2.82.03,2.82h8.59l.03-2.81v-1.07s2.91-3.21,2.91-3.21c1.76-1.95,2.74-4.48,2.74-7.1,0-4.94-4.04-8.97-9.01-8.97h0Z"/>
    </g>
  </g>
</svg>