<?xml version="1.0" encoding="UTF-8"?>
<svg id="Layer_1" xmlns="http://www.w3.org/2000/svg" version="1.1" viewBox="0 0 91 91">
  <!-- Generator: Adobe Illustrator 30.1.0, SVG Export Plug-In . SVG Version: 2.1.1 Build 136)  -->
  <circle id="Outer" cx="45.5" cy="45.5" r="41.55" fill="none" stroke="#000" stroke-width="7.91"/>
  <g>
    <g>
      <rect x="42.62" y="60.53" width="5.7" height="5.7"/>
      <path d="M47.75,61.09v4.56h-4.56v-4.56h4.56M48.89,59.96h-6.83v6.83h6.83v-6.83h0Z"/>
    </g>
    <g>
      <path d="M42.63,54.24l-.02-2.29c0-2.3.86-4.51,2.41-6.21l4.52-5c1.14-1.26,1.77-2.89,1.77-4.59,0-2.38-1.95-4.32-4.35-4.32h-2.9c-2.4,0-4.35,1.94-4.35,4.32v.57h-5.74v-.57c0-5.53,4.53-10.02,10.09-10.02h2.9c5.56,0,10.09,4.5,10.09,10.02,0,3.1-1.15,6.09-3.24,8.4l-4.52,5c-.61.68-.94,1.51-.94,2.4l-.02,2.29h-5.69Z"/>
      <path d="M46.95,26.7c5.25,0,9.52,4.24,9.52,9.45,0,2.97-1.1,5.81-3.09,8.02l-4.52,5c-.7.77-1.09,1.74-1.09,2.78l-.02,1.72h-4.56l-.02-1.72c0-2.16.8-4.22,2.26-5.83l4.51-5c1.24-1.37,1.92-3.14,1.92-4.97,0-2.69-2.21-4.89-4.92-4.89h-2.9c-2.71,0-4.92,2.19-4.92,4.89h-4.6c0-5.21,4.27-9.45,9.52-9.45h2.9M46.95,25.56h-2.9c-5.88,0-10.66,4.75-10.66,10.59v1.14h6.87v-1.14c0-2.07,1.7-3.75,3.78-3.75h2.9c2.09,0,3.78,1.68,3.78,3.75,0,1.56-.58,3.05-1.62,4.21l-4.52,5c-1.64,1.81-2.54,4.15-2.55,6.59l.02,1.74v1.13h6.82v-1.13s.03-1.72.03-1.72c0-.75.28-1.45.8-2.03l4.52-5c2.18-2.42,3.38-5.54,3.38-8.78,0-5.84-4.78-10.59-10.66-10.59h0Z"/>
    </g>
  </g>
</svg>