<?xml version="1.0" encoding="UTF-8"?>
<svg id="Layer_1" xmlns="http://www.w3.org/2000/svg" version="1.1" viewBox="0 0 91 91">
  <!-- Generator: Adobe Illustrator 30.1.0, SVG Export Plug-In . SVG Version: 2.1.1 Build 136)  -->
  <circle id="Outer" cx="45.5" cy="45.5" r="42.34" fill="none" stroke="#000" stroke-width="6.31"/>
  <g>
    <g>
      <rect x="42.62" y="61.12" width="5.7" height="5.7"/>
      <path d="M47.89,61.55v4.84h-4.84v-4.84h4.84M48.75,60.7h-6.55v6.55h6.55v-6.55h0Z"/>
    </g>
    <g>
      <path d="M42.63,54.77l-.02-2.25c0-2.4.9-4.7,2.51-6.48l4.8-5.31c1.24-1.38,1.93-3.15,1.93-5,0-2.63-2.15-4.77-4.8-4.77h-3.08c-2.65,0-4.8,2.14-4.8,4.77v.43h-5.74v-.43c0-5.77,4.73-10.47,10.54-10.47h3.08c5.81,0,10.54,4.7,10.54,10.47,0,3.26-1.21,6.38-3.4,8.81l-4.8,5.32c-.68.76-1.05,1.68-1.05,2.67l-.02,2.26h-5.69Z"/>
      <path d="M47.04,25.67c5.58,0,10.12,4.51,10.12,10.04,0,3.15-1.17,6.18-3.28,8.52l-4.8,5.32c-.74.82-1.16,1.84-1.16,2.95l-.02,1.83h-4.84l-.02-1.83c0-2.3.85-4.48,2.4-6.19l4.8-5.32c1.31-1.45,2.04-3.33,2.04-5.28,0-2.86-2.35-5.19-5.23-5.19h-3.08c-2.88,0-5.23,2.33-5.23,5.19h-4.89c0-5.54,4.54-10.04,10.12-10.04h3.08M47.04,24.82h-3.08c-6.05,0-10.97,4.89-10.97,10.9v.85h6.59v-.85c0-2.39,1.96-4.34,4.38-4.34h3.08c2.41,0,4.38,1.95,4.38,4.34,0,1.74-.65,3.42-1.82,4.71l-4.8,5.32c-1.68,1.86-2.61,4.26-2.62,6.76l.02,1.84v.85h6.54v-.84s.03-1.83.03-1.83c0-.89.33-1.71.94-2.39l4.8-5.32c2.26-2.5,3.5-5.73,3.5-9.1,0-6.01-4.92-10.9-10.97-10.9h0Z"/>
    </g>
  </g>
</svg>