<?xml version="1.0" encoding="UTF-8"?>
<svg id="Layer_1" xmlns="http://www.w3.org/2000/svg" version="1.1" viewBox="0 0 91 91">
  <!-- Generator: Adobe Illustrator 30.1.0, SVG Export Plug-In . SVG Version: 2.1.1 Build 136)  -->
  <circle id="Outer" cx="45.5" cy="45.5" r="39.94" fill="none" stroke="#000" stroke-width="11.12"/>
  <g>
    <g>
      <rect x="42.62" y="59.31" width="5.71" height="5.71"/>
      <path d="M47.47,60.17v4h-4v-4h4M49.18,58.46h-7.41v7.41h7.41v-7.41h0Z"/>
    </g>
    <g>
      <path d="M42.63,53.23l-.02-2.36c0-2.11.79-4.13,2.2-5.69l3.96-4.39c.94-1.04,1.46-2.39,1.46-3.79,0-1.89-1.55-3.43-3.46-3.43h-2.54c-1.91,0-3.46,1.54-3.46,3.43v.85h-5.74v-.85c0-5.04,4.13-9.15,9.2-9.15h2.54c5.08,0,9.21,4.1,9.21,9.15,0,2.81-1.04,5.51-2.93,7.61l-3.96,4.39c-.48.53-.74,1.18-.74,1.87l-.02,2.36h-5.69Z"/>
      <path d="M46.77,28.71c4.61,0,8.35,3.72,8.35,8.29,0,2.6-.96,5.1-2.71,7.04l-3.96,4.39c-.61.68-.95,1.52-.96,2.44l-.02,1.51h-4v-1.51c0-1.9.69-3.7,1.97-5.11l3.96-4.39c1.08-1.2,1.68-2.75,1.68-4.36,0-2.36-1.94-4.29-4.32-4.29h-2.54c-2.38,0-4.32,1.92-4.32,4.29h-4.03c0-4.57,3.75-8.29,8.35-8.29h2.54M46.77,27h-2.54c-5.55,0-10.06,4.49-10.06,10v1.71h7.45v-1.71c0-1.42,1.17-2.58,2.61-2.58h2.54c1.44,0,2.61,1.16,2.61,2.58,0,1.19-.44,2.33-1.24,3.22l-3.96,4.39c-1.55,1.72-2.41,3.94-2.42,6.25v1.53s.03,1.69.03,1.69h7.38l.02-1.69.02-1.51c0-.5.18-.93.52-1.31l3.96-4.39c2.03-2.25,3.15-5.16,3.15-8.18,0-5.51-4.51-10-10.06-10h0Z"/>
    </g>
  </g>
</svg>