<?xml version="1.0" encoding="UTF-8"?>
<svg id="Layer_1" xmlns="http://www.w3.org/2000/svg" version="1.1" viewBox="0 0 91 91">
  <!-- Generator: Adobe Illustrator 30.1.0, SVG Export Plug-In . SVG Version: 2.1.1 Build 136)  -->
  <circle id="Outer" cx="45.5" cy="45.5" r="35.92" fill="none" stroke="#000" stroke-width="19.17"/>
  <g>
    <g>
      <rect x="42.56" y="56.22" width="5.84" height="5.84"/>
      <path d="M46.84,57.79v2.71h-2.71v-2.71h2.71M49.96,54.66h-8.97v8.97h8.97v-8.97h0Z"/>
    </g>
    <g>
      <path d="M42.58,51.04l-.02-2.58c0-1.69.63-3.29,1.75-4.53l2.69-2.98c.48-.53.74-1.21.74-1.91,0-.74-.61-1.34-1.36-1.34h-1.73c-.75,0-1.36.6-1.36,1.34v1.56h-5.86v-1.56c0-3.96,3.24-7.19,7.23-7.19h1.73c3.99,0,7.23,3.23,7.23,7.19,0,2.15-.8,4.22-2.24,5.82l-2.69,2.98c-.16.18-.25.38-.25.61l-.03,2.59h-5.81Z"/>
      <path d="M46.36,33.41c3.12,0,5.67,2.52,5.67,5.63,0,1.77-.65,3.46-1.84,4.77l-2.69,2.98c-.42.46-.65,1.03-.65,1.65v1.03h-2.72v-1.03c0-1.29.47-2.51,1.33-3.47l2.69-2.98c.74-.81,1.14-1.87,1.14-2.96,0-1.6-1.31-2.91-2.93-2.91h-1.73c-1.61,0-2.93,1.3-2.93,2.91h-2.74c0-3.1,2.54-5.63,5.67-5.63h1.73M46.36,30.29h-1.73c-4.85,0-8.79,3.93-8.79,8.75v3.13h7.94l-.64.71c-1.38,1.52-2.14,3.5-2.15,5.55v1.07s.04,3.1.04,3.1h8.91l.03-3.1v-.79s2.54-2.81,2.54-2.81c1.71-1.89,2.65-4.33,2.65-6.87,0-4.83-3.94-8.75-8.79-8.75h0ZM44.84,39.26h1.31c-.04.24-.15.46-.32.64l-.99,1.1v-1.74h0Z"/>
    </g>
  </g>
</svg>