<?xml version="1.0" encoding="UTF-8"?>
<svg id="Layer_1" xmlns="http://www.w3.org/2000/svg" version="1.1" viewBox="0 0 91 91">
  <!-- Generator: Adobe Illustrator 30.1.0, SVG Export Plug-In . SVG Version: 2.1.1 Build 136)  -->
  <circle id="Outer" cx="45.5" cy="45.5" r="38.32" fill="none" stroke="#000" stroke-width="14.36"/>
  <g>
    <g>
      <rect x="42.61" y="58.08" width="5.74" height="5.74"/>
      <path d="M47.21,59.22v3.46h-3.46v-3.46h3.46M49.48,56.94h-8.01v8.01h8.01v-8.01h0Z"/>
    </g>
    <g>
      <path d="M42.62,52.28l-.02-2.44c0-1.93.72-3.77,2.01-5.2l3.43-3.8c.75-.83,1.16-1.9,1.16-3.01,0-1.42-1.17-2.57-2.6-2.57h-2.2c-1.43,0-2.6,1.15-2.6,2.57v1.14h-5.77v-1.14c0-4.58,3.75-8.31,8.36-8.31h2.2c4.61,0,8.36,3.73,8.36,8.31,0,2.53-.94,4.96-2.64,6.85l-3.43,3.8c-.35.39-.53.85-.54,1.35l-.03,2.44h-5.71Z"/>
      <path d="M46.6,30.67c3.98,0,7.23,3.22,7.23,7.18,0,2.25-.83,4.41-2.35,6.09l-3.43,3.8c-.53.59-.83,1.32-.83,2.11v1.31h-3.47v-1.31c0-1.64.6-3.2,1.7-4.42l3.43-3.8c.94-1.04,1.45-2.38,1.45-3.77,0-2.04-1.68-3.71-3.73-3.71h-2.2c-2.06,0-3.73,1.66-3.73,3.71h-3.49c0-3.96,3.24-7.18,7.23-7.18h2.2M46.6,28.39h-2.2c-5.24,0-9.5,4.24-9.5,9.45v2.28h8.04v-2.28c0-.79.65-1.43,1.46-1.43h2.2c.8,0,1.46.64,1.46,1.43,0,.83-.31,1.63-.87,2.25l-3.43,3.8c-1.47,1.63-2.29,3.74-2.3,5.94v1.34s.03,2.25.03,2.25h7.97l.02-2.25v-1.31c.01-.23.09-.43.25-.61l3.43-3.8c1.89-2.09,2.93-4.8,2.93-7.61,0-5.21-4.26-9.45-9.5-9.45h0Z"/>
    </g>
  </g>
</svg>