<?xml version="1.0" encoding="UTF-8"?>
<svg id="Layer_1" xmlns="http://www.w3.org/2000/svg" version="1.1" viewBox="0 0 27 27">
  <!-- Generator: Adobe Illustrator 30.1.0, SVG Export Plug-In . SVG Version: 2.1.1 Build 136)  -->
  <g>
    <g>
      <rect x="12.55" y="7.01" width="1.9" height="1.9"/>
      <path d="M14.28,7.18v1.56h-1.56v-1.56h1.56M14.62,6.84h-2.24v2.24h2.24v-2.24h0Z"/>
    </g>
    <g>
      <polygon points="10.99 19.95 10.99 18.05 12.55 18.05 12.55 13.51 10.99 13.51 10.99 11.6 14.45 11.6 14.45 18.05 16.01 18.05 16.01 19.95 10.99 19.95"/>
      <path d="M14.28,11.77v6.45h1.56v1.56h-4.69v-1.56h1.56v-4.88h-1.56v-1.56h3.13M14.62,11.44h-3.8v2.24h1.56v4.21h-1.56v2.24h5.37v-2.24h-1.56v-6.45h0Z"/>
    </g>
  </g>
  <circle id="Outer" cx="13.5" cy="13.5" r="12.33" fill="none" stroke="#000" stroke-width="2.35"/>
</svg>