<?xml version="1.0" encoding="UTF-8"?>
<svg id="Layer_1" xmlns="http://www.w3.org/2000/svg" version="1.1" viewBox="0 0 27 27">
  <!-- Generator: Adobe Illustrator 30.1.0, SVG Export Plug-In . SVG Version: 2.1.1 Build 136)  -->
  <g>
    <g>
      <rect x="12.56" y="6.84" width="1.89" height="1.89"/>
      <path d="M14.32,6.96v1.63h-1.63v-1.63h1.63M14.57,6.71h-2.14v2.14h2.14v-2.14h0Z"/>
    </g>
    <g>
      <polygon points="10.92 20.16 10.92 18.28 12.56 18.28 12.56 13.43 10.92 13.43 10.92 11.54 14.44 11.54 14.44 18.28 16.08 18.28 16.08 20.16 10.92 20.16"/>
      <path d="M14.32,11.67v6.74h1.63v1.63h-4.9v-1.63h1.63v-5.1h-1.63v-1.63h3.27M14.57,11.41h-3.77v2.14h1.63v4.6h-1.63v2.14h5.41v-2.14h-1.63v-6.74h0Z"/>
    </g>
  </g>
  <circle id="Outer" cx="13.5" cy="13.5" r="12.56" fill="none" stroke="#000" stroke-width="1.87"/>
</svg>