<?xml version="1.0" encoding="UTF-8"?>
<svg id="Layer_1" xmlns="http://www.w3.org/2000/svg" version="1.1" viewBox="0 0 27 27">
  <!-- Generator: Adobe Illustrator 30.1.0, SVG Export Plug-In . SVG Version: 2.1.1 Build 136)  -->
  <g>
    <g>
      <rect x="12.54" y="7.35" width="1.93" height="1.93"/>
      <path d="M14.21,7.6v1.42h-1.42v-1.42h1.42M14.72,7.1h-2.44v2.44h2.44v-2.44h0Z"/>
    </g>
    <g>
      <polygon points="11.11 19.53 11.11 17.6 12.54 17.6 12.54 13.66 11.11 13.66 11.11 11.73 14.46 11.73 14.46 17.6 15.89 17.6 15.89 19.53 11.11 19.53"/>
      <path d="M14.21,11.99v5.87h1.42v1.42h-4.27v-1.42h1.42v-4.44h-1.42v-1.42h2.85M14.72,11.48h-3.86v2.44h1.42v3.43h-1.42v2.44h5.28v-2.44h-1.42v-5.87h0Z"/>
    </g>
  </g>
  <circle id="Outer" cx="13.5" cy="13.5" r="11.85" fill="none" stroke="#000" stroke-width="3.3"/>
</svg>