<?xml version="1.0" encoding="UTF-8"?>
<svg id="Layer_1" xmlns="http://www.w3.org/2000/svg" version="1.1" viewBox="0 0 27 27">
  <!-- Generator: Adobe Illustrator 30.1.0, SVG Export Plug-In . SVG Version: 2.1.1 Build 136)  -->
  <g>
    <g>
      <rect x="12.52" y="7.7" width="1.96" height="1.96"/>
      <path d="M14.14,8.03v1.28h-1.28v-1.28h1.28M14.82,7.36h-2.63v2.63h2.63v-2.63h0Z"/>
    </g>
    <g>
      <polygon points="11.24 19.11 11.24 17.15 12.52 17.15 12.52 13.82 11.24 13.82 11.24 11.86 14.48 11.86 14.48 17.15 15.76 17.15 15.76 19.11 11.24 19.11"/>
      <path d="M14.14,12.19v5.29h1.28v1.28h-3.85v-1.28h1.28v-4.01h-1.28v-1.28h2.57M14.82,11.52h-3.92v2.63h1.28v2.66h-1.28v2.63h5.2v-2.63h-1.28v-5.29h0Z"/>
    </g>
  </g>
  <circle id="Outer" cx="13.5" cy="13.5" r="11.37" fill="none" stroke="#000" stroke-width="4.26"/>
</svg>