<?xml version="1.0" encoding="UTF-8"?>
<svg id="Layer_1" xmlns="http://www.w3.org/2000/svg" version="1.1" viewBox="0 0 126 126">
  <!-- Generator: Adobe Illustrator 30.1.0, SVG Export Plug-In . SVG Version: 2.1.1 Build 136)  -->
  <path d="M63,10.95c1.69,0,3.38.88,4.27,2.63l10.89,21.62c1.87,3.71,5.36,6.33,9.43,7.1l23.56,4.42c3.68.69,5.18,5.17,2.65,7.94l-17.17,18.84c-2.65,2.91-3.88,6.84-3.37,10.74l3.35,25.4c.4,3.03-2.02,5.43-4.74,5.43-.72,0-1.47-.17-2.19-.54l-20.61-10.61c-1.91-.98-4-1.48-6.09-1.48-2.09,0-4.18.49-6.09,1.48l-20.61,10.61c-.72.37-1.46.54-2.19.54-2.72,0-5.14-2.4-4.74-5.43l3.35-25.41c.51-3.9-.72-7.82-3.36-10.73l-17.17-18.84c-2.53-2.78-1.03-7.26,2.65-7.95l23.56-4.42c4.07-.76,7.56-3.39,9.43-7.09l10.89-21.62c.88-1.76,2.58-2.63,4.27-2.63M63,0C57.02,0,51.64,3.32,48.95,8.65l-10.89,21.62c-.33.65-.95,1.13-1.67,1.26l-23.56,4.42c-5.6,1.05-10.21,5.06-12.02,10.47-1.81,5.41-.55,11.39,3.29,15.61l17.17,18.84c.47.52.69,1.22.6,1.92l-3.35,25.41c-.59,4.5.77,9.03,3.75,12.42,3,3.42,7.31,5.38,11.84,5.38,2.48,0,4.97-.61,7.2-1.75l20.61-10.61c.34-.17.7-.26,1.07-.26.37,0,.74.09,1.08.26l20.61,10.61c2.23,1.15,4.72,1.75,7.2,1.75,0,0,0,0,0,0,4.52,0,8.84-1.96,11.84-5.38,2.98-3.4,4.35-7.93,3.75-12.42l-3.35-25.4c-.09-.71.13-1.41.6-1.93l17.17-18.84c3.84-4.22,5.1-10.2,3.29-15.61-1.81-5.41-6.41-9.42-12.02-10.47l-23.56-4.42c-.72-.13-1.34-.61-1.67-1.26l-10.89-21.62C74.35,3.32,68.97,0,63,0h0Z"/>
</svg>