<?xml version="1.0" encoding="UTF-8"?>
<svg id="Layer_1" xmlns="http://www.w3.org/2000/svg" version="1.1" viewBox="0 0 126 126">
  <!-- Generator: Adobe Illustrator 30.1.0, SVG Export Plug-In . SVG Version: 2.1.1 Build 136)  -->
  <path d="M63,24.33c1.26,0,2.51.65,3.17,1.96l8.09,16.06c1.39,2.76,3.98,4.7,7.01,5.27l17.5,3.28c2.74.51,3.85,3.84,1.97,5.9l-12.75,13.99c-1.97,2.16-2.88,5.08-2.5,7.98l2.49,18.87c.3,2.25-1.5,4.03-3.52,4.03-.54,0-1.09-.13-1.62-.4l-15.31-7.88c-1.42-.73-2.97-1.1-4.52-1.1-1.55,0-3.1.37-4.52,1.1l-15.31,7.88c-.53.28-1.09.4-1.62.4-2.02,0-3.82-1.78-3.52-4.03l2.49-18.87c.38-2.9-.53-5.81-2.5-7.97l-12.75-13.99c-1.88-2.06-.77-5.39,1.97-5.9l17.5-3.28c3.03-.57,5.61-2.52,7-5.27l8.09-16.06c.66-1.3,1.91-1.96,3.17-1.96M63,0C52.41,0,42.86,5.88,38.1,15.34l-4.88,9.68-10.47,1.96c-9.93,1.86-18.1,8.97-21.31,18.55-3.21,9.59-.98,20.18,5.83,27.66l8.23,9.03-1.61,12.23c-1.05,7.97,1.38,16,6.67,22.03,5.3,6.05,12.95,9.52,20.98,9.52,4.41,0,8.83-1.07,12.77-3.1l8.69-4.47,8.69,4.47c3.94,2.03,8.35,3.1,12.76,3.1,8.03,0,15.67-3.47,20.98-9.52,5.29-6.03,7.72-14.06,6.67-22.03l-1.61-12.23,8.24-9.04c6.81-7.47,9.04-18.07,5.83-27.65-3.21-9.58-11.37-16.69-21.3-18.55l-10.47-1.96-4.88-9.68C83.13,5.88,73.59,0,63,0h0Z"/>
</svg>