<?xml version="1.0" encoding="UTF-8"?>
<svg id="Layer_1" xmlns="http://www.w3.org/2000/svg" version="1.1" viewBox="0 0 126 126">
  <!-- Generator: Adobe Illustrator 30.1.0, SVG Export Plug-In . SVG Version: 2.1.1 Build 136)  -->
  <path d="M63,8.74c1.76,0,3.53.91,4.45,2.74l11.35,22.53c1.95,3.87,5.58,6.6,9.83,7.4l24.56,4.6c3.84.72,5.4,5.39,2.76,8.28l-17.89,19.63c-2.76,3.03-4.04,7.13-3.51,11.19l3.49,26.47c.42,3.16-2.1,5.66-4.94,5.66-.75,0-1.53-.18-2.28-.56l-21.48-11.06c-1.99-1.03-4.17-1.54-6.34-1.54s-4.35.51-6.34,1.54l-21.48,11.06c-.75.39-1.53.56-2.28.56-2.84,0-5.36-2.5-4.94-5.66l3.49-26.48c.54-4.06-.75-8.15-3.5-11.18l-17.89-19.64c-2.64-2.89-1.08-7.56,2.76-8.28l24.56-4.6c4.25-.8,7.88-3.53,9.82-7.39l11.35-22.54c.92-1.83,2.69-2.74,4.45-2.74M63,0C57.79,0,53.09,2.89,50.74,7.55l-11.35,22.54c-.72,1.42-2.07,2.44-3.63,2.74l-24.56,4.6c-4.89.92-8.91,4.42-10.49,9.14-1.58,4.72-.48,9.94,2.87,13.63l17.89,19.64c1.02,1.12,1.5,2.64,1.3,4.15l-3.49,26.48c-.52,3.93.68,7.88,3.27,10.84,2.62,2.99,6.39,4.7,10.33,4.7,2.16,0,4.33-.53,6.28-1.53l21.48-11.06c.72-.37,1.53-.57,2.34-.57s1.62.2,2.34.57l21.48,11.06c1.95,1,4.12,1.53,6.28,1.53,3.95,0,7.71-1.71,10.33-4.7,2.6-2.96,3.79-6.92,3.27-10.84l-3.49-26.47c-.2-1.52.27-3.04,1.3-4.16l17.89-19.63c3.35-3.68,4.45-8.9,2.87-13.62-1.58-4.72-5.6-8.22-10.49-9.13l-24.56-4.6c-1.56-.29-2.92-1.32-3.63-2.74l-11.35-22.53C72.91,2.89,68.21,0,63,0h0Z"/>
</svg>