<?xml version="1.0" encoding="UTF-8"?>
<svg id="Layer_1" xmlns="http://www.w3.org/2000/svg" version="1.1" viewBox="0 0 126 126">
  <!-- Generator: Adobe Illustrator 30.1.0, SVG Export Plug-In . SVG Version: 2.1.1 Build 136)  -->
  <path d="M63,15.4c1.55,0,3.1.8,3.9,2.41l9.96,19.77c1.71,3.39,4.9,5.79,8.62,6.49l21.55,4.04c3.37.63,4.74,4.73,2.42,7.26l-15.7,17.23c-2.42,2.66-3.55,6.25-3.08,9.82l3.06,23.23c.37,2.77-1.84,4.97-4.33,4.97-.66,0-1.34-.15-2-.49l-18.85-9.71c-1.75-.9-3.66-1.35-5.57-1.35-1.91,0-3.82.45-5.57,1.35l-18.85,9.71c-.66.34-1.34.49-2,.49-2.49,0-4.7-2.19-4.33-4.97l3.06-23.23c.47-3.56-.66-7.15-3.07-9.81l-15.7-17.23c-2.31-2.54-.95-6.64,2.43-7.27l21.54-4.04c3.72-.7,6.91-3.1,8.62-6.49l9.96-19.77c.81-1.61,2.36-2.41,3.9-2.41M63,0c-7.51,0-14.27,4.17-17.65,10.88l-9.24,18.35-19.97,3.74c-7.04,1.32-12.83,6.36-15.1,13.16-2.28,6.8-.69,14.31,4.14,19.61l14.7,16.13-2.87,21.76c-.75,5.65.98,11.34,4.72,15.62,3.77,4.29,9.19,6.76,14.88,6.76,3.12,0,6.25-.76,9.05-2.2l17.36-8.94,17.36,8.94c2.8,1.44,5.93,2.2,9.05,2.2,5.69,0,11.11-2.46,14.88-6.76,3.75-4.27,5.47-9.97,4.72-15.62l-2.87-21.76,14.7-16.13c4.83-5.3,6.41-12.81,4.14-19.61-2.28-6.79-8.06-11.83-15.1-13.15l-19.97-3.74-9.24-18.35c-3.38-6.71-10.14-10.88-17.65-10.88h0Z"/>
</svg>