<?xml version="1.0" encoding="UTF-8"?>
<svg id="Layer_1" xmlns="http://www.w3.org/2000/svg" version="1.1" viewBox="0 0 59 59">
  <!-- Generator: Adobe Illustrator 30.1.0, SVG Export Plug-In . SVG Version: 2.1.1 Build 136)  -->
  <path d="M29.5,11.39c.59,0,1.18.31,1.48.92l3.79,7.52c.65,1.29,1.86,2.2,3.28,2.47l8.19,1.54c1.28.24,1.8,1.8.92,2.76l-5.97,6.55c-.92,1.01-1.35,2.38-1.17,3.74l1.17,8.83c.14,1.05-.7,1.89-1.65,1.89-.25,0-.51-.06-.76-.19l-7.17-3.69c-.66-.34-1.39-.51-2.12-.51s-1.45.17-2.12.51l-7.17,3.69c-.25.13-.51.19-.76.19-.95,0-1.79-.83-1.65-1.89l1.17-8.84c.18-1.36-.25-2.72-1.17-3.73l-5.97-6.55c-.88-.97-.36-2.52.92-2.76l8.19-1.54c1.42-.27,2.63-1.18,3.28-2.47l3.79-7.52c.31-.61.9-.92,1.48-.92M29.5,0c-4.96,0-9.43,2.75-11.66,7.18l-2.28,4.53-4.9.92c-4.65.87-8.47,4.2-9.98,8.69-1.5,4.49-.46,9.45,2.73,12.95l3.86,4.23-.75,5.72c-.49,3.73.65,7.49,3.12,10.32,2.48,2.83,6.06,4.46,9.82,4.46,2.07,0,4.13-.5,5.98-1.45l4.07-2.09,4.07,2.1c1.84.95,3.91,1.45,5.98,1.45,3.76,0,7.34-1.62,9.82-4.46,2.48-2.82,3.61-6.58,3.12-10.32l-.75-5.72,3.86-4.23c3.19-3.5,4.23-8.46,2.73-12.95-1.5-4.49-5.33-7.82-9.98-8.69l-4.9-.92-2.28-4.53C38.93,2.75,34.46,0,29.5,0h0Z"/>
</svg>