<?xml version="1.0" encoding="UTF-8"?>
<svg id="Layer_1" xmlns="http://www.w3.org/2000/svg" version="1.1" viewBox="0 0 59 59">
  <!-- Generator: Adobe Illustrator 30.1.0, SVG Export Plug-In . SVG Version: 2.1.1 Build 136)  -->
  <path d="M29.5,4.09c.83,0,1.65.43,2.08,1.29l5.32,10.55c.91,1.81,2.61,3.09,4.6,3.46l11.5,2.16c1.8.34,2.53,2.52,1.29,3.88l-8.38,9.19c-1.29,1.42-1.89,3.34-1.64,5.24l1.63,12.4c.2,1.48-.98,2.65-2.31,2.65-.35,0-.72-.08-1.07-.26l-10.06-5.18c-.93-.48-1.95-.72-2.97-.72s-2.04.24-2.97.72l-10.06,5.18c-.35.18-.71.26-1.07.26-1.33,0-2.51-1.17-2.31-2.65l1.64-12.4c.25-1.9-.35-3.82-1.64-5.24l-8.38-9.19c-1.23-1.35-.5-3.54,1.29-3.88l11.5-2.16c1.99-.37,3.69-1.65,4.6-3.46l5.32-10.55c.43-.86,1.26-1.29,2.08-1.29M29.5,0C27.06,0,24.86,1.36,23.76,3.54l-5.32,10.55c-.34.67-.97,1.14-1.7,1.28l-11.5,2.16c-2.29.43-4.17,2.07-4.91,4.28-.74,2.21-.23,4.66,1.35,6.38l8.38,9.19c.48.53.7,1.23.61,1.94l-1.64,12.4c-.24,1.84.32,3.69,1.53,5.08,1.23,1.4,2.99,2.2,4.84,2.2,1.01,0,2.03-.25,2.94-.72l10.06-5.18c.34-.17.72-.27,1.1-.27s.76.09,1.1.27l10.06,5.18c.91.47,1.93.72,2.94.72,1.85,0,3.61-.8,4.84-2.2,1.22-1.39,1.78-3.24,1.53-5.08l-1.63-12.4c-.09-.71.13-1.42.61-1.95l8.38-9.19c1.57-1.72,2.09-4.17,1.34-6.38-.74-2.21-2.62-3.85-4.91-4.28l-11.5-2.16c-.73-.14-1.37-.62-1.7-1.28l-5.32-10.55C34.14,1.36,31.94,0,29.5,0h0Z"/>
</svg>