<?xml version="1.0" encoding="UTF-8"?>
<svg id="Layer_1" xmlns="http://www.w3.org/2000/svg" version="1.1" viewBox="0 0 59 59">
  <!-- Generator: Adobe Illustrator 30.1.0, SVG Export Plug-In . SVG Version: 2.1.1 Build 136)  -->
  <path d="M29.5,5.13c.79,0,1.58.41,2,1.23l5.1,10.12c.88,1.74,2.51,2.97,4.42,3.32l11.03,2.07c1.72.32,2.42,2.42,1.24,3.72l-8.04,8.82c-1.24,1.36-1.82,3.2-1.58,5.03l1.57,11.89c.19,1.42-.94,2.54-2.22,2.54-.34,0-.69-.08-1.02-.25l-9.65-4.97c-.89-.46-1.87-.69-2.85-.69-.98,0-1.96.23-2.85.69l-9.65,4.97c-.34.17-.69.25-1.02.25-1.28,0-2.41-1.12-2.22-2.54l1.57-11.9c.24-1.82-.34-3.66-1.57-5.02l-8.04-8.82c-1.18-1.3-.48-3.4,1.24-3.72l11.03-2.07c1.91-.36,3.54-1.59,4.41-3.32l5.1-10.12c.41-.82,1.21-1.23,2-1.23M29.5,0C26.7,0,24.18,1.55,22.92,4.05l-5.1,10.12c-.15.31-.45.53-.78.59l-11.03,2.07c-2.62.49-4.78,2.37-5.63,4.9-.85,2.53-.26,5.33,1.54,7.31l8.04,8.82c.22.24.32.57.28.9l-1.57,11.9c-.28,2.11.36,4.23,1.76,5.82,1.4,1.6,3.42,2.52,5.54,2.52,1.16,0,2.33-.28,3.37-.82l9.65-4.97c.16-.08.33-.12.5-.12.17,0,.35.04.5.12l9.65,4.97c1.04.54,2.21.82,3.37.82,2.12,0,4.14-.92,5.54-2.52,1.39-1.59,2.04-3.71,1.76-5.82l-1.57-11.89c-.04-.33.06-.66.28-.91l8.04-8.82c1.8-1.97,2.39-4.77,1.54-7.31-.85-2.53-3-4.41-5.63-4.9l-11.03-2.07c-.34-.06-.63-.28-.78-.59l-5.1-10.12C34.82,1.55,32.3,0,29.5,0h0Z"/>
</svg>