<?xml version="1.0" encoding="UTF-8"?>
<svg id="Layer_1" xmlns="http://www.w3.org/2000/svg" version="1.1" viewBox="0 0 59 59">
  <!-- Generator: Adobe Illustrator 30.1.0, SVG Export Plug-In . SVG Version: 2.1.1 Build 136)  -->
  <path d="M29.5,9.31c.66,0,1.31.34,1.66,1.02l4.22,8.38c.72,1.44,2.08,2.46,3.66,2.75l9.14,1.71c1.43.27,2.01,2,1.03,3.08l-6.66,7.31c-1.03,1.13-1.5,2.65-1.31,4.17l1.3,9.85c.15,1.18-.78,2.11-1.84,2.11-.28,0-.57-.07-.85-.21l-7.99-4.12c-.74-.38-1.55-.57-2.36-.57s-1.62.19-2.36.57l-7.99,4.12c-.28.14-.57.21-.85.21-1.06,0-1.99-.93-1.84-2.11l1.3-9.85c.2-1.51-.28-3.03-1.3-4.16l-6.66-7.31c-.98-1.08-.4-2.81,1.03-3.08l9.14-1.71c1.58-.3,2.93-1.31,3.66-2.75l4.22-8.39c.34-.68,1-1.02,1.66-1.02M29.5,0C25.26,0,21.44,2.35,19.53,6.14l-3.3,6.55-7.12,1.33c-3.98.75-7.25,3.59-8.53,7.43-1.29,3.84-.39,8.08,2.34,11.08l5.36,5.88-1.05,7.95c-.42,3.19.55,6.41,2.67,8.82,2.12,2.42,5.19,3.81,8.4,3.81,1.77,0,3.53-.43,5.11-1.24l6.09-3.14,6.09,3.14c1.58.81,3.35,1.24,5.11,1.24,3.21,0,6.28-1.39,8.4-3.81,2.12-2.41,3.09-5.63,2.67-8.82l-1.05-7.95,5.36-5.89c2.73-2.99,3.62-7.24,2.34-11.07-1.29-3.84-4.55-6.68-8.53-7.43l-7.12-1.33-3.3-6.55C37.56,2.35,33.74,0,29.5,0h0Z"/>
</svg>