<?xml version="1.0" encoding="UTF-8"?>
<svg id="Layer_1" xmlns="http://www.w3.org/2000/svg" version="1.1" viewBox="0 0 10 10">
  <!-- Generator: Adobe Illustrator 30.1.0, SVG Export Plug-In . SVG Version: 2.1.1 Build 136)  -->
  <path d="M5,.69c.14,0,.28.07.35.22l.9,1.79c.15.31.44.52.78.59l1.95.37c.3.06.43.43.22.66l-1.42,1.56c-.22.24-.32.57-.28.89l.28,2.1c.03.25-.17.45-.39.45-.06,0-.12-.01-.18-.04l-1.7-.88c-.16-.08-.33-.12-.5-.12s-.35.04-.5.12l-1.7.88c-.06.03-.12.04-.18.04-.23,0-.43-.2-.39-.45l.28-2.1c.04-.32-.06-.65-.28-.89l-1.42-1.56c-.21-.23-.09-.6.22-.66l1.95-.37c.34-.06.63-.28.78-.59l.9-1.79c.07-.15.21-.22.35-.22M5,0C4.59,0,4.21.23,4.03.6l-.9,1.79c-.06.11-.16.19-.29.22l-1.95.37c-.39.07-.71.35-.83.73-.13.37-.04.79.23,1.08l1.42,1.56c.08.09.12.21.1.33l-.28,2.1c-.04.31.05.63.26.86.21.24.51.37.82.37.17,0,.34-.04.5-.12l1.7-.88c.06-.03.12-.05.19-.05s.13.02.19.05l1.7.88c.15.08.33.12.5.12.31,0,.61-.14.82-.37.21-.24.3-.55.26-.86l-.28-2.1c-.02-.12.02-.24.1-.33l1.42-1.56c.27-.29.35-.71.23-1.08-.13-.37-.44-.65-.83-.72l-1.95-.37c-.12-.02-.23-.1-.29-.22l-.9-1.79C5.79.23,5.41,0,5,0h0Z"/>
</svg>