<?xml version="1.0" encoding="UTF-8"?>
<svg id="Layer_1" xmlns="http://www.w3.org/2000/svg" version="1.1" viewBox="0 0 10 10">
  <!-- Generator: Adobe Illustrator 30.1.0, SVG Export Plug-In . SVG Version: 2.1.1 Build 136)  -->
  <path d="M5,1.93c.1,0,.2.05.25.16l.64,1.27c.11.22.32.37.56.42l1.39.26c.22.04.31.3.16.47l-1.01,1.11c-.16.17-.23.4-.2.63l.2,1.5c.02.18-.12.32-.28.32-.04,0-.09,0-.13-.03l-1.21-.63c-.11-.06-.24-.09-.36-.09s-.25.03-.36.09l-1.21.63s-.09.03-.13.03c-.16,0-.3-.14-.28-.32l.2-1.5c.03-.23-.04-.46-.2-.63l-1.01-1.11c-.15-.16-.06-.43.16-.47l1.39-.26c.24-.05.45-.2.56-.42l.64-1.27c.05-.1.15-.16.25-.16M5,0c-.84,0-1.6.47-1.98,1.22l-.39.77-.83.16c-.79.15-1.44.71-1.69,1.47-.25.76-.08,1.6.46,2.19l.65.72-.13.97c-.08.63.11,1.27.53,1.75.42.48,1.03.76,1.66.76.35,0,.7-.09,1.01-.25l.69-.36.69.36c.31.16.66.25,1.01.25.64,0,1.24-.28,1.66-.76.42-.48.61-1.12.53-1.75l-.13-.97.65-.72c.54-.59.72-1.43.46-2.19-.25-.76-.9-1.32-1.69-1.47l-.83-.16-.39-.77c-.38-.75-1.14-1.22-1.98-1.22h0Z"/>
</svg>