<?xml version="1.0" encoding="UTF-8"?>
<svg id="Layer_1" xmlns="http://www.w3.org/2000/svg" version="1.1" viewBox="0 0 72 72">
  <!-- Generator: Adobe Illustrator 30.1.0, SVG Export Plug-In . SVG Version: 2.1.1 Build 136)  -->
  <path d="M36,13.9c.72,0,1.44.37,1.81,1.12l4.62,9.18c.79,1.57,2.27,2.69,4,3.01l10,1.87c1.56.29,2.2,2.19,1.13,3.37l-7.29,8c-1.12,1.23-1.65,2.9-1.43,4.56l1.42,10.78c.17,1.29-.86,2.3-2.01,2.3-.31,0-.62-.07-.93-.23l-8.75-4.5c-.81-.42-1.7-.63-2.58-.63s-1.77.21-2.58.63l-8.75,4.5c-.31.16-.62.23-.93.23-1.16,0-2.18-1.02-2.01-2.3l1.42-10.78c.22-1.65-.3-3.32-1.43-4.55l-7.29-8c-1.07-1.18-.44-3.08,1.13-3.37l10-1.87c1.73-.32,3.21-1.44,4-3.01l4.62-9.18c.38-.75,1.09-1.12,1.81-1.12M36,0C29.95,0,24.49,3.36,21.77,8.77l-2.79,5.53-5.98,1.12c-5.68,1.06-10.34,5.13-12.17,10.6-1.84,5.48-.56,11.53,3.33,15.8l4.7,5.16-.92,6.99c-.6,4.55.79,9.14,3.81,12.59,3.03,3.46,7.4,5.44,11.99,5.44,2.52,0,5.04-.61,7.29-1.77l4.96-2.56,4.96,2.56c2.25,1.16,4.77,1.77,7.29,1.77,4.59,0,8.96-1.98,11.99-5.44,3.02-3.45,4.41-8.04,3.81-12.59l-.92-6.99,4.71-5.16c3.89-4.27,5.17-10.32,3.33-15.8-1.83-5.48-6.5-9.54-12.17-10.6l-5.98-1.12-2.79-5.53C47.51,3.36,42.05,0,36,0h0Z"/>
</svg>