<?xml version="1.0" encoding="UTF-8"?>
<svg id="Layer_1" xmlns="http://www.w3.org/2000/svg" version="1.1" viewBox="0 0 72 72">
  <!-- Generator: Adobe Illustrator 30.1.0, SVG Export Plug-In . SVG Version: 2.1.1 Build 136)  -->
  <path d="M36,15.16c.68,0,1.35.35,1.71,1.05l4.36,8.65c.75,1.48,2.14,2.54,3.77,2.84l9.43,1.77c1.47.28,2.07,2.07,1.06,3.18l-6.87,7.54c-1.06,1.16-1.55,2.74-1.35,4.3l1.34,10.17c.16,1.21-.81,2.17-1.9,2.17-.29,0-.59-.07-.87-.22l-8.25-4.25c-.76-.39-1.6-.59-2.44-.59s-1.67.2-2.44.59l-8.25,4.25c-.29.15-.59.22-.87.22-1.09,0-2.06-.96-1.9-2.17l1.34-10.17c.21-1.56-.29-3.13-1.35-4.29l-6.87-7.54c-1.01-1.11-.41-2.9,1.06-3.18l9.43-1.77c1.63-.31,3.03-1.36,3.77-2.84l4.36-8.65c.35-.7,1.03-1.05,1.71-1.05M36,0c-6.49,0-12.33,3.6-15.25,9.4l-2.17,4.31-4.64.87c-6.08,1.14-11.08,5.49-13.05,11.36-1.97,5.87-.6,12.36,3.57,16.94l3.79,4.16-.74,5.64c-.64,4.88.85,9.8,4.08,13.49,3.25,3.7,7.93,5.83,12.85,5.83,2.7,0,5.41-.66,7.82-1.9l3.74-1.93,3.74,1.93c2.41,1.24,5.12,1.9,7.82,1.9,4.92,0,9.6-2.12,12.85-5.83,3.24-3.69,4.73-8.61,4.09-13.49l-.74-5.64,3.8-4.16c4.17-4.58,5.54-11.07,3.57-16.94-1.97-5.87-6.97-10.22-13.05-11.36l-4.64-.87-2.17-4.31C48.33,3.6,42.49,0,36,0h0Z"/>
</svg>