<?xml version="1.0" encoding="UTF-8"?>
<svg id="Layer_1" xmlns="http://www.w3.org/2000/svg" version="1.1" viewBox="0 0 72 72">
  <!-- Generator: Adobe Illustrator 30.1.0, SVG Export Plug-In . SVG Version: 2.1.1 Build 136)  -->
  <path d="M36,5c1.01,0,2.02.52,2.54,1.57l6.49,12.88c1.11,2.21,3.19,3.77,5.62,4.23l14.03,2.63c2.19.41,3.08,3.08,1.58,4.73l-10.22,11.22c-1.58,1.73-2.31,4.07-2,6.4l2,15.13c.24,1.8-1.2,3.23-2.82,3.23-.43,0-.87-.1-1.3-.32l-12.27-6.32c-1.14-.59-2.38-.88-3.63-.88-1.24,0-2.49.29-3.63.88l-12.27,6.32c-.43.22-.87.32-1.3.32-1.62,0-3.06-1.43-2.82-3.23l2-15.13c.31-2.32-.43-4.66-2-6.39l-10.22-11.22c-1.51-1.65-.62-4.32,1.58-4.73l14.03-2.63c2.43-.45,4.5-2.02,5.61-4.23l6.49-12.88c.53-1.05,1.53-1.57,2.54-1.57M36,0C33.02,0,30.34,1.65,29,4.32l-6.49,12.88c-.41.81-1.18,1.4-2.07,1.56l-14.03,2.63c-2.79.52-5.09,2.52-5.99,5.22-.9,2.7-.28,5.68,1.64,7.79l10.22,11.22c.59.64.86,1.51.74,2.37l-2,15.13c-.3,2.24.39,4.5,1.87,6.2,1.5,1.71,3.65,2.69,5.9,2.69,1.24,0,2.48-.3,3.59-.88l12.27-6.32c.41-.21.88-.32,1.34-.32.46,0,.93.11,1.34.32l12.27,6.32c1.11.57,2.35.88,3.59.88,2.26,0,4.41-.98,5.9-2.69,1.48-1.69,2.17-3.95,1.87-6.2l-2-15.13c-.11-.87.16-1.73.74-2.38l10.22-11.22c1.92-2.1,2.55-5.09,1.64-7.78-.9-2.7-3.2-4.7-5.99-5.22l-14.03-2.63c-.89-.17-1.67-.75-2.08-1.57l-6.49-12.88C41.66,1.65,38.98,0,36,0h0Z"/>
</svg>