<?xml version="1.0" encoding="UTF-8"?>
<svg id="Layer_1" xmlns="http://www.w3.org/2000/svg" version="1.1" viewBox="0 0 32 32">
  <!-- Generator: Adobe Illustrator 30.1.0, SVG Export Plug-In . SVG Version: 2.1.1 Build 136)  -->
  <path d="M16,2.22c.45,0,.9.23,1.13.7l2.88,5.72c.49.98,1.42,1.68,2.5,1.88l6.24,1.17c.98.18,1.37,1.37.7,2.1l-4.54,4.99c-.7.77-1.03,1.81-.89,2.84l.89,6.72c.11.8-.53,1.44-1.25,1.44-.19,0-.39-.04-.58-.14l-5.46-2.81c-.51-.26-1.06-.39-1.61-.39s-1.11.13-1.61.39l-5.46,2.81c-.19.1-.39.14-.58.14-.72,0-1.36-.64-1.25-1.44l.89-6.73c.14-1.03-.19-2.07-.89-2.84l-4.54-4.99c-.67-.73-.27-1.92.7-2.1l6.24-1.17c1.08-.2,2-.9,2.5-1.88l2.88-5.72c.23-.46.68-.7,1.13-.7M16,0C14.68,0,13.48.74,12.89,1.92l-2.88,5.72c-.18.36-.53.62-.92.69l-6.24,1.17c-1.24.23-2.26,1.12-2.66,2.32-.4,1.2-.12,2.53.73,3.46l4.54,4.99c.26.29.38.67.33,1.05l-.89,6.73c-.13,1,.17,2,.83,2.75.67.76,1.62,1.19,2.62,1.19.55,0,1.1-.13,1.59-.39l5.46-2.81c.18-.09.39-.14.59-.14s.41.05.59.14l5.46,2.81c.49.25,1.05.39,1.59.39,1,0,1.96-.44,2.62-1.19.66-.75.96-1.76.83-2.75l-.89-6.72c-.05-.39.07-.77.33-1.06l4.54-4.99c.85-.93,1.13-2.26.73-3.46-.4-1.2-1.42-2.09-2.66-2.32l-6.24-1.17c-.4-.07-.74-.33-.92-.7l-2.88-5.72C18.52.74,17.32,0,16,0h0Z"/>
</svg>