<?xml version="1.0" encoding="UTF-8"?>
<svg id="Layer_1" xmlns="http://www.w3.org/2000/svg" version="1.1" viewBox="0 0 32 32">
  <!-- Generator: Adobe Illustrator 30.1.0, SVG Export Plug-In . SVG Version: 2.1.1 Build 136)  -->
  <path d="M16,5.05c.36,0,.71.18.9.55l2.29,4.55c.39.78,1.13,1.33,1.98,1.49l4.96.93c.77.15,1.09,1.09.56,1.67l-3.61,3.96c-.56.61-.82,1.44-.71,2.26l.7,5.34c.08.64-.42,1.14-1,1.14-.15,0-.31-.04-.46-.11l-4.33-2.23c-.4-.21-.84-.31-1.28-.31-.44,0-.88.1-1.28.31l-4.33,2.23c-.15.08-.31.11-.46.11-.57,0-1.08-.5-1-1.14l.7-5.34c.11-.82-.15-1.65-.71-2.26l-3.61-3.96c-.53-.58-.22-1.53.56-1.67l4.96-.93c.86-.16,1.59-.71,1.98-1.49l2.29-4.55c.19-.37.54-.55.9-.55M16,0c-2.3,0-4.37,1.28-5.41,3.33l-1.79,3.55-3.86.72c-2.16.4-3.93,1.95-4.63,4.03-.7,2.08-.21,4.38,1.27,6.01l2.91,3.19-.57,4.31c-.23,1.73.3,3.47,1.45,4.78,1.15,1.31,2.81,2.07,4.56,2.07.96,0,1.92-.23,2.77-.67l3.3-1.7,3.3,1.7c.86.44,1.81.67,2.77.67,1.74,0,3.4-.75,4.56-2.07,1.15-1.31,1.68-3.05,1.45-4.78l-.57-4.31,2.91-3.19c1.48-1.62,1.96-3.92,1.27-6.01-.7-2.08-2.47-3.63-4.63-4.03l-3.86-.72-1.79-3.55c-1.04-2.06-3.11-3.33-5.41-3.33h0Z"/>
</svg>