<?xml version="1.0" encoding="UTF-8"?>
<svg id="Layer_1" xmlns="http://www.w3.org/2000/svg" version="1.1" viewBox="0 0 32 32">
  <!-- Generator: Adobe Illustrator 30.1.0, SVG Export Plug-In . SVG Version: 2.1.1 Build 136)  -->
  <path d="M16,2.78c.43,0,.86.22,1.08.67l2.77,5.49c.47.94,1.36,1.61,2.4,1.8l5.98,1.12c.94.18,1.32,1.31.67,2.02l-4.36,4.78c-.67.74-.99,1.74-.85,2.73l.85,6.45c.1.77-.51,1.38-1.2,1.38-.18,0-.37-.04-.56-.14l-5.23-2.7c-.49-.25-1.02-.37-1.55-.37s-1.06.12-1.55.37l-5.23,2.7c-.18.09-.37.14-.56.14-.69,0-1.31-.61-1.2-1.38l.85-6.45c.13-.99-.18-1.99-.85-2.72l-4.36-4.78c-.64-.7-.26-1.84.67-2.02l5.98-1.12c1.03-.19,1.92-.86,2.39-1.8l2.77-5.49c.22-.45.65-.67,1.08-.67M16,0C14.48,0,13.12.84,12.43,2.2l-2.77,5.49c-.08.17-.24.29-.42.32l-5.98,1.12c-1.42.27-2.59,1.29-3.05,2.66-.46,1.37-.14,2.89.84,3.96l4.36,4.78c.12.13.18.31.15.49l-.85,6.45c-.15,1.14.2,2.29.95,3.16.76.87,1.86,1.37,3.01,1.37.63,0,1.26-.15,1.83-.45l5.23-2.7c.09-.04.18-.07.27-.07s.19.02.27.07l5.23,2.7c.57.29,1.2.45,1.83.45,1.15,0,2.24-.5,3.01-1.37.76-.86,1.1-2.01.95-3.16l-.85-6.45c-.02-.18.03-.36.15-.49l4.36-4.78c.98-1.07,1.3-2.59.84-3.96-.46-1.37-1.63-2.39-3.05-2.66l-5.98-1.12c-.18-.03-.34-.15-.42-.32l-2.77-5.49C18.88.84,17.52,0,16,0h0Z"/>
</svg>