<?xml version="1.0" encoding="UTF-8"?>
<svg id="Layer_1" xmlns="http://www.w3.org/2000/svg" version="1.1" viewBox="0 0 65 65">
  <!-- Generator: Adobe Illustrator 30.1.0, SVG Export Plug-In . SVG Version: 2.1.1 Build 136)  -->
  <path d="M32.5,12.55c.65,0,1.3.34,1.64,1.01l4.17,8.28c.72,1.42,2.05,2.43,3.61,2.72l9.03,1.69c1.41.26,1.98,1.98,1.02,3.04l-6.58,7.22c-1.01,1.11-1.49,2.62-1.29,4.12l1.28,9.73c.15,1.16-.77,2.08-1.82,2.08-.28,0-.56-.06-.84-.21l-7.9-4.07c-.73-.38-1.53-.57-2.33-.57-.8,0-1.6.19-2.33.57l-7.9,4.07c-.28.14-.56.21-.84.21-1.04,0-1.97-.92-1.82-2.08l1.28-9.74c.2-1.49-.27-3-1.29-4.11l-6.58-7.22c-.97-1.06-.4-2.78,1.02-3.04l9.03-1.69c1.56-.29,2.9-1.3,3.61-2.72l4.17-8.28c.34-.67.99-1.01,1.64-1.01M32.5,0c-5.46,0-10.39,3.03-12.85,7.91l-2.52,4.99-5.4,1.01c-5.12.96-9.33,4.63-10.99,9.57-1.66,4.95-.5,10.41,3.01,14.27l4.25,4.66-.83,6.31c-.54,4.11.71,8.25,3.44,11.36,2.74,3.12,6.68,4.91,10.82,4.91,2.28,0,4.55-.55,6.59-1.6l4.48-2.31,4.48,2.31c2.03,1.05,4.31,1.6,6.59,1.6,4.14,0,8.09-1.79,10.82-4.91,2.73-3.11,3.98-7.25,3.44-11.36l-.83-6.31,4.25-4.66c3.51-3.85,4.67-9.32,3.01-14.27-1.66-4.94-5.87-8.61-10.99-9.57l-5.4-1.01-2.52-4.99c-2.46-4.88-7.38-7.91-12.85-7.91h0Z"/>
</svg>