<?xml version="1.0" encoding="UTF-8"?>
<svg id="Layer_1" xmlns="http://www.w3.org/2000/svg" version="1.1" viewBox="0 0 65 65">
  <!-- Generator: Adobe Illustrator 30.1.0, SVG Export Plug-In . SVG Version: 2.1.1 Build 136)  -->
  <path d="M32.5,4.51c.91,0,1.82.47,2.3,1.42l5.86,11.62c1,1.99,2.88,3.41,5.07,3.82l12.67,2.37c1.98.37,2.78,2.78,1.43,4.27l-9.23,10.13c-1.42,1.56-2.09,3.68-1.81,5.77l1.8,13.66c.21,1.63-1.08,2.92-2.55,2.92-.39,0-.79-.09-1.18-.29l-11.08-5.71c-1.03-.53-2.15-.79-3.27-.79-1.12,0-2.25.26-3.27.79l-11.08,5.71c-.39.2-.79.29-1.18.29-1.46,0-2.76-1.29-2.55-2.92l1.8-13.66c.28-2.1-.39-4.21-1.81-5.77l-9.23-10.13c-1.36-1.49-.56-3.9,1.43-4.27l12.67-2.37c2.19-.41,4.06-1.82,5.07-3.81l5.86-11.63c.48-.94,1.39-1.42,2.3-1.42M32.5,0c-2.69,0-5.11,1.49-6.32,3.9l-5.86,11.63c-.37.73-1.07,1.26-1.87,1.41l-12.67,2.37c-2.52.47-4.59,2.28-5.41,4.71-.82,2.44-.25,5.13,1.48,7.03l9.23,10.13c.53.58.77,1.36.67,2.14l-1.8,13.66c-.27,2.03.35,4.06,1.69,5.59,1.35,1.54,3.29,2.43,5.33,2.43,1.12,0,2.24-.27,3.24-.79l11.08-5.71c.37-.19.79-.29,1.21-.29.42,0,.84.1,1.21.29l11.08,5.71c1,.52,2.12.79,3.24.79,2.04,0,3.98-.88,5.33-2.43,1.34-1.53,1.96-3.57,1.69-5.59l-1.8-13.66c-.1-.78.14-1.57.67-2.15l9.23-10.13c1.73-1.9,2.3-4.59,1.48-7.03-.82-2.43-2.89-4.24-5.41-4.71l-12.67-2.37c-.8-.15-1.5-.68-1.87-1.41l-5.86-11.62c-1.21-2.4-3.63-3.9-6.32-3.9h0Z"/>
</svg>