<?xml version="1.0" encoding="UTF-8"?>
<svg id="Layer_1" xmlns="http://www.w3.org/2000/svg" version="1.1" viewBox="0 0 65 65">
  <!-- Generator: Adobe Illustrator 30.1.0, SVG Export Plug-In . SVG Version: 2.1.1 Build 136)  -->
  <path d="M32.5,10.26c.72,0,1.45.38,1.82,1.13l4.65,9.24c.8,1.58,2.29,2.71,4.03,3.03l10.07,1.89c1.57.3,2.21,2.21,1.13,3.39l-7.33,8.05c-1.13,1.24-1.66,2.92-1.44,4.59l1.43,10.85c.17,1.29-.86,2.32-2.02,2.32-.31,0-.63-.07-.93-.23l-8.81-4.53c-.82-.42-1.71-.63-2.6-.63-.89,0-1.78.21-2.6.63l-8.81,4.53c-.31.16-.63.23-.93.23-1.16,0-2.2-1.03-2.03-2.32l1.43-10.86c.22-1.67-.31-3.34-1.44-4.58l-7.34-8.05c-1.08-1.19-.44-3.1,1.13-3.4l10.07-1.89c1.74-.33,3.23-1.45,4.03-3.03l4.65-9.24c.38-.75,1.1-1.13,1.82-1.13M32.5,0C27.83,0,23.62,2.59,21.51,6.77l-3.64,7.22-7.84,1.47c-4.38.82-7.98,3.96-9.4,8.19-1.42,4.23-.43,8.9,2.57,12.2l5.91,6.48-1.15,8.76c-.46,3.52.61,7.06,2.94,9.72,2.34,2.67,5.71,4.2,9.25,4.2,1.94,0,3.89-.47,5.63-1.37l6.71-3.46,6.71,3.46c1.74.9,3.69,1.37,5.63,1.37,3.54,0,6.91-1.53,9.25-4.2,2.33-2.66,3.4-6.2,2.94-9.72l-1.15-8.76,5.91-6.48c3-3.3,3.99-7.97,2.57-12.2-1.42-4.23-5.02-7.36-9.4-8.18l-7.84-1.47-3.64-7.22C41.38,2.59,37.17,0,32.5,0h0Z"/>
</svg>