<?xml version="1.0" encoding="UTF-8"?>
<svg id="Layer_1" xmlns="http://www.w3.org/2000/svg" version="1.1" viewBox="0 0 91 91">
  <!-- Generator: Adobe Illustrator 30.1.0, SVG Export Plug-In . SVG Version: 2.1.1 Build 136)  -->
  <path d="M45.5,17.57c.91,0,1.82.47,2.29,1.41l5.84,11.6c1,1.99,2.87,3.4,5.06,3.81l12.64,2.37c1.98.37,2.78,2.77,1.42,4.26l-9.21,10.11c-1.42,1.56-2.08,3.67-1.81,5.76l1.8,13.63c.21,1.63-1.08,2.91-2.54,2.91-.39,0-.79-.09-1.17-.29l-11.06-5.69c-1.02-.53-2.15-.79-3.27-.79s-2.24.26-3.27.79l-11.06,5.69c-.39.2-.79.29-1.17.29-1.46,0-2.76-1.29-2.54-2.91l1.8-13.63c.28-2.09-.38-4.2-1.8-5.75l-9.21-10.11c-1.36-1.49-.55-3.89,1.42-4.26l12.64-2.37c2.18-.41,4.05-1.82,5.06-3.81l5.84-11.6c.47-.94,1.38-1.41,2.29-1.41M45.5,0c-7.65,0-14.54,4.25-17.99,11.08l-3.52,6.99-7.56,1.42c-7.17,1.34-13.07,6.48-15.39,13.4-2.32,6.92-.71,14.58,4.21,19.97l5.95,6.52-1.16,8.83c-.76,5.75,1,11.55,4.82,15.91,3.83,4.37,9.35,6.87,15.15,6.87,3.19,0,6.37-.77,9.22-2.24l6.27-3.23,6.27,3.23c2.84,1.47,6.03,2.24,9.22,2.24,5.8,0,11.32-2.51,15.15-6.87,3.82-4.36,5.58-10.16,4.82-15.91l-1.16-8.83,5.95-6.53c4.92-5.4,6.53-13.05,4.21-19.97-2.32-6.92-8.21-12.06-15.39-13.4l-7.56-1.42-3.52-6.99C60.04,4.25,53.15,0,45.5,0h0Z"/>
</svg>