<?xml version="1.0" encoding="UTF-8"?>
<svg id="Layer_1" xmlns="http://www.w3.org/2000/svg" version="1.1" viewBox="0 0 91 91">
  <!-- Generator: Adobe Illustrator 30.1.0, SVG Export Plug-In . SVG Version: 2.1.1 Build 136)  -->
  <path d="M45.5,6.31c1.27,0,2.55.66,3.21,1.98l8.2,16.27c1.41,2.79,4.03,4.77,7.1,5.34l17.74,3.32c2.77.52,3.9,3.89,2,5.98l-12.92,14.18c-1.99,2.19-2.92,5.15-2.53,8.08l2.52,19.12c.3,2.28-1.52,4.09-3.57,4.09-.54,0-1.1-.13-1.65-.41l-15.51-7.99c-1.44-.74-3.01-1.11-4.58-1.11-1.57,0-3.14.37-4.58,1.11l-15.51,7.99c-.54.28-1.1.41-1.65.41-2.05,0-3.87-1.81-3.57-4.09l2.52-19.13c.39-2.93-.54-5.89-2.53-8.07l-12.92-14.18c-1.9-2.09-.78-5.46,2-5.98l17.73-3.32c3.07-.57,5.69-2.55,7.1-5.34l8.2-16.28c.67-1.32,1.94-1.98,3.21-1.98M45.5,0C41.73,0,38.34,2.09,36.65,5.45l-8.2,16.28c-.52,1.03-1.5,1.76-2.62,1.98l-17.73,3.32c-3.53.66-6.43,3.19-7.57,6.6-1.14,3.41-.35,7.18,2.07,9.84l12.92,14.18c.74.81,1.08,1.9.94,3l-2.52,19.13c-.37,2.84.49,5.69,2.36,7.83,1.89,2.16,4.61,3.4,7.46,3.4,1.56,0,3.13-.38,4.54-1.11l15.51-7.99c.52-.27,1.11-.41,1.69-.41.59,0,1.17.14,1.69.41l15.51,7.99c1.41.72,2.97,1.11,4.54,1.11,2.85,0,5.57-1.24,7.46-3.4,1.88-2.14,2.74-4.99,2.36-7.83l-2.52-19.12c-.14-1.1.2-2.19.94-3.01l12.92-14.18c2.42-2.66,3.22-6.43,2.07-9.84-1.14-3.41-4.04-5.94-7.57-6.6l-17.74-3.32c-1.13-.21-2.11-.95-2.62-1.98l-8.2-16.27C52.66,2.09,49.26,0,45.5,0h0Z"/>
</svg>