<?xml version="1.0" encoding="UTF-8"?>
<svg id="Layer_1" xmlns="http://www.w3.org/2000/svg" version="1.1" viewBox="0 0 91 91">
  <!-- Generator: Adobe Illustrator 30.1.0, SVG Export Plug-In . SVG Version: 2.1.1 Build 136)  -->
  <path d="M45.5,11.12c1.12,0,2.24.58,2.82,1.74l7.19,14.28c1.23,2.45,3.54,4.18,6.23,4.69l15.56,2.92c2.43.46,3.42,3.41,1.75,5.24l-11.34,12.44c-1.75,1.92-2.56,4.52-2.22,7.09l2.21,16.77c.26,2-1.33,3.59-3.13,3.59-.48,0-.97-.11-1.44-.36l-13.61-7.01c-1.26-.65-2.64-.97-4.02-.97s-2.76.32-4.02.97l-13.61,7.01c-.47.24-.97.36-1.44.36-1.8,0-3.39-1.58-3.13-3.59l2.21-16.78c.34-2.57-.47-5.17-2.22-7.08l-11.34-12.44c-1.67-1.83-.68-4.79,1.75-5.25l15.56-2.92c2.69-.5,4.99-2.24,6.23-4.69l7.19-14.28c.58-1.16,1.7-1.74,2.82-1.74M45.5,0C40.08,0,35.19,3.01,32.75,7.86l-6.68,13.25-14.42,2.7c-5.08.95-9.26,4.59-10.91,9.5-1.64,4.91-.5,10.34,2.99,14.17l10.61,11.65-2.07,15.72c-.54,4.08.7,8.19,3.41,11.28,2.72,3.1,6.63,4.88,10.74,4.88,2.26,0,4.51-.55,6.53-1.59l12.54-6.46,12.54,6.46c2.02,1.04,4.28,1.59,6.53,1.59,4.11,0,8.02-1.78,10.74-4.88,2.71-3.09,3.95-7.2,3.41-11.28l-2.07-15.72,10.62-11.65c3.49-3.83,4.63-9.25,2.99-14.16-1.64-4.91-5.82-8.55-10.91-9.5l-14.42-2.7-6.68-13.25C55.81,3.01,50.92,0,45.5,0h0Z"/>
</svg>