<?xml version="1.0" encoding="UTF-8"?>
<svg id="Layer_1" xmlns="http://www.w3.org/2000/svg" version="1.1" viewBox="0 0 91 91">
  <!-- Generator: Adobe Illustrator 30.1.0, SVG Export Plug-In . SVG Version: 2.1.1 Build 136)  -->
  <path d="M45.5,19.17c.86,0,1.71.44,2.16,1.33l5.51,10.94c.95,1.88,2.71,3.2,4.77,3.59l11.92,2.23c1.86.35,2.62,2.61,1.34,4.02l-8.68,9.53c-1.34,1.47-1.96,3.46-1.7,5.43l1.69,12.85c.2,1.53-1.02,2.75-2.4,2.75-.37,0-.74-.09-1.11-.27l-10.42-5.37c-.97-.5-2.02-.75-3.08-.75-1.06,0-2.11.25-3.08.75l-10.42,5.37c-.36.19-.74.27-1.11.27-1.38,0-2.6-1.21-2.4-2.75l1.7-12.85c.26-1.97-.36-3.96-1.7-5.43l-8.68-9.53c-1.28-1.4-.52-3.67,1.34-4.02l11.92-2.23c2.06-.39,3.82-1.71,4.77-3.59l5.51-10.94c.45-.89,1.3-1.33,2.16-1.33M45.5,0C37.3,0,29.91,4.55,26.22,11.88l-2.74,5.44-5.87,1.1c-7.69,1.44-14.01,6.94-16.49,14.36-2.49,7.42-.76,15.62,4.51,21.41l4.79,5.26-.94,7.13c-.81,6.17,1.07,12.38,5.16,17.05,4.1,4.68,10.02,7.37,16.24,7.37,3.42,0,6.83-.83,9.88-2.4l4.73-2.44,4.73,2.44c3.05,1.57,6.47,2.4,9.88,2.4,6.21,0,12.13-2.69,16.24-7.37,4.09-4.67,5.98-10.89,5.16-17.05l-.94-7.13,4.8-5.26c5.27-5.78,7-13.99,4.51-21.4-2.48-7.42-8.8-12.92-16.49-14.36l-5.87-1.1-2.74-5.44C61.09,4.55,53.7,0,45.5,0h0Z"/>
</svg>