<?xml version="1.0" encoding="UTF-8"?>
<svg id="Layer_1" xmlns="http://www.w3.org/2000/svg" version="1.1" viewBox="0 0 91 91">
  <!-- Generator: Adobe Illustrator 30.1.0, SVG Export Plug-In . SVG Version: 2.1.1 Build 136)  -->
  <path d="M45.5,7.91c1.22,0,2.44.63,3.08,1.9l7.87,15.61c1.35,2.68,3.87,4.57,6.81,5.13l17.02,3.19c2.66.5,3.74,3.73,1.91,5.74l-12.4,13.6c-1.91,2.1-2.8,4.94-2.43,7.76l2.42,18.34c.29,2.19-1.46,3.92-3.42,3.92-.52,0-1.06-.12-1.58-.39l-14.88-7.66c-1.38-.71-2.89-1.07-4.4-1.07-1.51,0-3.02.36-4.4,1.07l-14.88,7.66c-.52.27-1.06.39-1.58.39-1.97,0-3.71-1.73-3.42-3.92l2.42-18.35c.37-2.81-.52-5.65-2.43-7.75l-12.4-13.6c-1.83-2-.75-5.24,1.92-5.74l17.01-3.19c2.94-.55,5.46-2.45,6.81-5.12l7.87-15.61c.64-1.27,1.86-1.9,3.08-1.9M45.5,0C41.18,0,37.3,2.4,35.36,6.25l-7.87,15.61c-.24.47-.69.81-1.2.91l-17.01,3.19c-4.05.76-7.37,3.66-8.68,7.56-1.31,3.91-.4,8.23,2.38,11.27l12.4,13.6c.34.38.5.88.43,1.39l-2.42,18.35c-.43,3.25.56,6.52,2.71,8.97,2.17,2.47,5.28,3.89,8.55,3.89,1.79,0,3.59-.44,5.2-1.27l14.88-7.66c.24-.13.5-.19.78-.19.27,0,.54.07.78.19l14.88,7.66c1.61.83,3.41,1.27,5.2,1.27,3.27,0,6.38-1.42,8.55-3.89,2.15-2.45,3.14-5.72,2.71-8.97l-2.42-18.34c-.07-.51.09-1.02.44-1.4l12.4-13.6c2.77-3.05,3.69-7.36,2.38-11.27-1.31-3.9-4.63-6.8-8.68-7.56l-17.02-3.19c-.52-.1-.97-.44-1.21-.91l-7.87-15.61C53.7,2.4,49.81,0,45.5,0h0Z"/>
</svg>