<?xml version="1.0" encoding="UTF-8"?>
<svg id="Layer_1" xmlns="http://www.w3.org/2000/svg" version="1.1" viewBox="0 0 49 49">
  <!-- Generator: Adobe Illustrator 30.1.0, SVG Export Plug-In . SVG Version: 2.1.1 Build 136)  -->
  <circle id="Outer" cx="24.5" cy="24.5" r="19.77" fill="none" stroke="#000" stroke-width="9.46"/>
  <g>
    <g>
      <rect x="22.93" y="30.61" width="3.12" height="3.12"/>
      <path d="M25.28,31.37v1.59h-1.59v-1.59h1.59M26.81,29.84h-4.65v4.65h4.65v-4.65h0Z"/>
    </g>
    <g>
      <path d="M22.94,27.69v-1.36c0-.95.34-1.85.97-2.55l1.57-1.74c.3-.34.47-.77.47-1.22,0-.52-.43-.94-.95-.94h-1.01c-.52,0-.95.42-.95.94v.77h-3.14v-.77c0-2.24,1.83-4.06,4.09-4.06h1.01c2.25,0,4.09,1.82,4.09,4.06,0,1.22-.45,2.4-1.28,3.31l-1.58,1.74c-.12.13-.18.29-.18.46l-.02,1.37h-3.11Z"/>
      <path d="M25.01,17.51c1.83,0,3.32,1.48,3.32,3.3,0,1.03-.38,2.03-1.08,2.8l-1.58,1.75c-.24.27-.38.61-.38.97v.6h-1.6v-.6c0-.75.28-1.47.78-2.03l1.58-1.74c.43-.48.67-1.09.67-1.73,0-.94-.77-1.7-1.72-1.7h-1.01c-.95,0-1.72.76-1.72,1.7h-1.6c0-1.82,1.49-3.3,3.32-3.3h1.01M25.01,15.98h-1.01c-2.68,0-4.85,2.17-4.85,4.83v1.53h4.67v-1.53c0-.09.08-.17.19-.17h1.01c.1,0,.19.08.19.17,0,.26-.1.51-.27.71l-1.58,1.75c-.76.84-1.18,1.92-1.18,3.05v.62s.02,1.52.02,1.52h4.62l.02-1.52v-.57s1.57-1.73,1.57-1.73c.95-1.05,1.47-2.41,1.47-3.82,0-2.66-2.18-4.83-4.85-4.83h0Z"/>
    </g>
  </g>
</svg>