<?xml version="1.0" encoding="UTF-8"?>
<svg id="Layer_1" xmlns="http://www.w3.org/2000/svg" version="1.1" viewBox="0 0 49 49">
  <!-- Generator: Adobe Illustrator 30.1.0, SVG Export Plug-In . SVG Version: 2.1.1 Build 136)  -->
  <circle id="Outer" cx="24.5" cy="24.5" r="19.34" fill="none" stroke="#000" stroke-width="10.32"/>
  <g>
    <g>
      <rect x="22.92" y="30.27" width="3.14" height="3.14"/>
      <path d="M25.22,31.12v1.46h-1.46v-1.46h1.46M26.9,29.43h-4.83v4.83h4.83v-4.83h0Z"/>
    </g>
    <g>
      <path d="M22.93,27.48v-1.39c0-.91.33-1.77.93-2.44l1.45-1.6c.25-.28.4-.65.4-1.03s-.33-.72-.73-.72h-.93c-.4,0-.73.32-.73.72v.84h-3.16v-.84c0-2.13,1.75-3.87,3.89-3.87h.93c2.15,0,3.89,1.74,3.89,3.87,0,1.16-.43,2.27-1.21,3.13l-1.45,1.6c-.09.1-.13.21-.13.33v1.39h-3.14Z"/>
      <path d="M24.96,17.99c1.68,0,3.05,1.36,3.05,3.03,0,.95-.35,1.86-.99,2.57l-1.45,1.6c-.22.25-.35.56-.35.89v.55h-1.47v-.55c0-.69.25-1.35.72-1.87l1.45-1.6c.4-.44.61-1,.61-1.59,0-.86-.71-1.57-1.58-1.57h-.93c-.87,0-1.58.7-1.58,1.57h-1.47c0-1.67,1.37-3.03,3.05-3.03h.93M24.96,16.31h-.93c-2.61,0-4.74,2.11-4.74,4.71v1.68h4.28l-.35.38c-.74.82-1.15,1.88-1.16,2.99v.57s.02,1.67.02,1.67h4.8l.02-1.67v-.42s1.37-1.51,1.37-1.51c.92-1.02,1.42-2.33,1.42-3.7,0-2.6-2.12-4.71-4.74-4.71h0ZM24.14,21.14h.7c-.02.13-.08.25-.17.35l-.53.59v-.94h0Z"/>
    </g>
  </g>
</svg>