<?xml version="1.0" encoding="UTF-8"?>
<svg id="Layer_1" xmlns="http://www.w3.org/2000/svg" version="1.1" viewBox="0 0 49 49">
  <!-- Generator: Adobe Illustrator 30.1.0, SVG Export Plug-In . SVG Version: 2.1.1 Build 136)  -->
  <circle id="Outer" cx="24.5" cy="24.5" r="21.51" fill="none" stroke="#000" stroke-width="5.99"/>
  <g>
    <g>
      <rect x="22.95" y="31.94" width="3.07" height="3.07"/>
      <path d="M25.56,32.4v2.15h-2.15v-2.15h2.15M26.48,31.48h-3.99v3.99h3.99v-3.99h0Z"/>
    </g>
    <g>
      <path d="M22.96,28.66v-1.27c0-1.14.41-2.22,1.17-3.06l2.13-2.36c.51-.56.79-1.29.79-2.04,0-1.02-.84-1.85-1.87-1.85h-1.37c-1.03,0-1.86.83-1.86,1.85v.46h-3.09v-.46c0-2.72,2.22-4.92,4.96-4.92h1.37c2.73,0,4.96,2.21,4.96,4.92,0,1.51-.56,2.97-1.58,4.1l-2.13,2.36c-.26.29-.39.63-.4,1.01v1.27h-3.08Z"/>
      <path d="M25.19,15.46c2.48,0,4.5,2,4.5,4.47,0,1.4-.52,2.75-1.46,3.79l-2.13,2.36c-.33.37-.51.82-.52,1.31v.81h-2.16v-.81c0-1.02.37-1.99,1.06-2.75l2.13-2.36c.58-.65.91-1.48.91-2.35,0-1.27-1.04-2.31-2.32-2.31h-1.37c-1.28,0-2.32,1.04-2.32,2.31h-2.17c0-2.46,2.02-4.47,4.5-4.47h1.37M25.19,14.54h-1.37c-2.99,0-5.42,2.42-5.42,5.38v.92h4.01v-.92c0-.77.63-1.39,1.41-1.39h1.37c.78,0,1.41.62,1.41,1.39,0,.64-.24,1.26-.67,1.73l-2.13,2.36c-.84.92-1.3,2.12-1.3,3.37v.83s.02.91.02.91h3.97v-.91s.02-.81.02-.81c0-.27.09-.5.28-.7l2.13-2.36c1.09-1.21,1.7-2.78,1.7-4.4,0-2.97-2.43-5.38-5.42-5.38h0Z"/>
    </g>
  </g>
</svg>