<?xml version="1.0" encoding="UTF-8"?>
<svg id="Layer_1" xmlns="http://www.w3.org/2000/svg" version="1.1" viewBox="0 0 49 49">
  <!-- Generator: Adobe Illustrator 30.1.0, SVG Export Plug-In . SVG Version: 2.1.1 Build 136)  -->
  <circle id="Outer" cx="24.5" cy="24.5" r="20.63" fill="none" stroke="#000" stroke-width="7.73"/>
  <g>
    <g>
      <rect x="22.94" y="31.27" width="3.09" height="3.09"/>
      <path d="M25.42,31.89v1.86h-1.86v-1.86h1.86M26.64,30.66h-4.31v4.31h4.31v-4.31h0Z"/>
    </g>
    <g>
      <path d="M22.95,28.15v-1.31c0-1.04.38-2.03,1.07-2.8l1.84-2.04c.4-.45.63-1.02.63-1.62,0-.76-.63-1.38-1.4-1.38h-1.19c-.77,0-1.4.62-1.4,1.38v.61h-3.1v-.61c0-2.47,2.02-4.48,4.5-4.48h1.19c2.48,0,4.5,2.01,4.5,4.48,0,1.36-.5,2.67-1.42,3.69l-1.84,2.04c-.19.21-.29.46-.29.73v1.32h-3.09Z"/>
      <path d="M25.09,16.51c2.15,0,3.89,1.73,3.89,3.86,0,1.21-.45,2.38-1.26,3.28l-1.85,2.05c-.29.32-.44.71-.45,1.13v.7h-1.87v-.7c0-.88.32-1.72.92-2.38l1.85-2.04c.51-.56.78-1.28.78-2.03,0-1.1-.9-2-2.01-2h-1.19c-1.11,0-2.01.9-2.01,2h-1.88c0-2.13,1.75-3.86,3.89-3.86h1.19M25.09,15.29h-1.19c-2.82,0-5.12,2.28-5.12,5.09v1.23h4.33v-1.23c0-.43.35-.77.79-.77h1.19c.43,0,.79.35.79.77,0,.45-.17.88-.47,1.21l-1.85,2.04c-.79.88-1.23,2.01-1.24,3.2v.72s.02,1.21.02,1.21h4.29v-1.21s.02-.7.02-.7c0-.13.04-.23.13-.33l1.85-2.05c1.02-1.13,1.58-2.58,1.58-4.1,0-2.81-2.29-5.09-5.12-5.09h0Z"/>
    </g>
  </g>
</svg>