<?xml version="1.0" encoding="UTF-8"?>
<svg id="Layer_1" xmlns="http://www.w3.org/2000/svg" version="1.1" viewBox="0 0 49 49">
  <!-- Generator: Adobe Illustrator 30.1.0, SVG Export Plug-In . SVG Version: 2.1.1 Build 136)  -->
  <circle id="Outer" cx="24.5" cy="24.5" r="22.8" fill="none" stroke="#000" stroke-width="3.4"/>
  <g>
    <g>
      <rect x="22.95" y="32.91" width="3.07" height="3.07"/>
      <path d="M25.79,33.14v2.61h-2.61v-2.61h2.61M26.25,32.68h-3.53v3.53h3.53v-3.53h0Z"/>
    </g>
    <g>
      <path d="M22.95,29.49v-1.21c0-1.29.47-2.53,1.34-3.49l2.58-2.86c.67-.74,1.04-1.7,1.04-2.69,0-1.41-1.16-2.57-2.59-2.57h-1.66c-1.43,0-2.59,1.15-2.59,2.57v.23h-3.09v-.23c0-3.11,2.55-5.64,5.68-5.64h1.66c3.13,0,5.68,2.53,5.68,5.64,0,1.75-.65,3.44-1.83,4.74l-2.58,2.86c-.37.41-.56.9-.57,1.43v1.22h-3.08Z"/>
      <path d="M25.33,13.82c3,0,5.45,2.43,5.45,5.41,0,1.7-.63,3.33-1.77,4.59l-2.58,2.86c-.4.44-.62.99-.62,1.59v.99h-2.62v-.99c0-1.24.45-2.41,1.28-3.33l2.58-2.86c.71-.78,1.1-1.79,1.1-2.85,0-1.54-1.26-2.8-2.82-2.8h-1.66c-1.55,0-2.82,1.25-2.82,2.8h-2.63c0-2.98,2.44-5.41,5.45-5.41h1.66M25.33,13.36h-1.66c-3.26,0-5.91,2.63-5.91,5.87v.46h3.55v-.46c0-1.29,1.06-2.34,2.36-2.34h1.66c1.3,0,2.36,1.05,2.36,2.34,0,.94-.35,1.84-.98,2.54l-2.58,2.86c-.9,1-1.41,2.29-1.41,3.64v.99s.01.46.01.46h3.52v-.45s.01-.99.01-.99c0-.48.18-.92.51-1.29l2.58-2.86c1.22-1.35,1.89-3.09,1.89-4.9,0-3.24-2.65-5.87-5.91-5.87h0Z"/>
    </g>
  </g>
</svg>