<?xml version="1.0" encoding="UTF-8"?>
<svg id="Layer_1" xmlns="http://www.w3.org/2000/svg" version="1.1" viewBox="0 0 49 49">
  <!-- Generator: Adobe Illustrator 30.1.0, SVG Export Plug-In . SVG Version: 2.1.1 Build 136)  -->
  <circle id="Outer" cx="24.5" cy="24.5" r="22.37" fill="none" stroke="#000" stroke-width="4.26"/>
  <g>
    <g>
      <rect x="22.95" y="32.59" width="3.07" height="3.07"/>
      <path d="M25.71,32.9v2.45h-2.45v-2.45h2.45M26.32,32.28h-3.68v3.68h3.68v-3.68h0Z"/>
    </g>
    <g>
      <path d="M22.96,29.21v-1.23c0-1.24.45-2.43,1.28-3.35l2.43-2.69c.62-.68.95-1.56.95-2.47,0-1.28-1.05-2.32-2.34-2.32h-1.56c-1.29,0-2.34,1.04-2.34,2.32v.31h-3.09v-.31c0-2.98,2.44-5.4,5.43-5.4h1.56c3,0,5.43,2.42,5.43,5.4,0,1.67-.62,3.28-1.74,4.52l-2.43,2.69c-.33.37-.51.81-.51,1.29v1.23h-3.07Z"/>
      <path d="M25.28,14.37c2.83,0,5.13,2.28,5.13,5.09,0,1.6-.59,3.13-1.66,4.32l-2.43,2.69c-.38.42-.59.93-.59,1.5v.93h-2.46v-.93c0-1.16.42-2.27,1.21-3.14l2.43-2.69c.67-.74,1.03-1.69,1.03-2.68,0-1.45-1.19-2.63-2.65-2.63h-1.56c-1.46,0-2.65,1.18-2.65,2.63h-2.48c0-2.81,2.3-5.09,5.13-5.09h1.56M25.28,13.76h-1.56c-3.16,0-5.74,2.56-5.74,5.7v.61h3.7v-.61c0-1.11.91-2.02,2.04-2.02h1.56c1.12,0,2.04.91,2.04,2.02,0,.84-.31,1.64-.87,2.27l-2.43,2.69c-.88.97-1.37,2.23-1.37,3.55v.94s.01.61.01.61h3.67v-.61s.02-.93.02-.93c0-.41.15-.78.43-1.09l2.43-2.69c1.18-1.3,1.82-2.98,1.82-4.73,0-3.14-2.57-5.7-5.74-5.7h0Z"/>
    </g>
  </g>
</svg>