<?xml version="1.0" encoding="UTF-8"?>
<svg id="Layer_1" xmlns="http://www.w3.org/2000/svg" version="1.1" viewBox="0 0 70 70">
  <!-- Generator: Adobe Illustrator 30.1.0, SVG Export Plug-In . SVG Version: 2.1.1 Build 136)  -->
  <circle id="Outer" cx="35" cy="35" r="28.24" fill="none" stroke="#000" stroke-width="13.52"/>
  <g>
    <g>
      <rect x="32.75" y="43.72" width="4.46" height="4.46"/>
      <path d="M36.12,44.82v2.27h-2.27v-2.27h2.27M38.31,42.63h-6.65v6.65h6.65v-6.65h0Z"/>
    </g>
    <g>
      <path d="M32.77,39.56l-.02-1.94c0-1.36.5-2.65,1.41-3.65l2.25-2.49c.43-.48.67-1.1.67-1.75,0-.74-.61-1.34-1.36-1.34h-1.45c-.75,0-1.36.6-1.36,1.34v1.09h-4.48v-1.09c0-3.2,2.62-5.8,5.84-5.8h1.45c3.22,0,5.84,2.6,5.84,5.8,0,1.75-.65,3.43-1.82,4.73l-2.25,2.49c-.17.19-.26.41-.26.66l-.02,1.95h-4.44Z"/>
      <path d="M35.72,25.02c2.62,0,4.74,2.11,4.74,4.71,0,1.48-.55,2.9-1.54,4l-2.25,2.49c-.35.39-.54.86-.54,1.38v.86h-2.28v-.86c0-1.08.39-2.1,1.12-2.9l2.25-2.49c.62-.68.96-1.56.96-2.48,0-1.34-1.1-2.43-2.45-2.43h-1.45c-1.35,0-2.45,1.09-2.45,2.43h-2.29c0-2.6,2.13-4.71,4.74-4.71h1.45M35.72,22.83h-1.45c-3.82,0-6.93,3.09-6.93,6.9v2.19h6.67v-2.19c0-.13.12-.25.26-.25h1.45c.14,0,.26.11.26.25,0,.37-.14.73-.39,1.01l-2.25,2.49c-1.08,1.2-1.68,2.75-1.69,4.36v.89s.03,2.17.03,2.17h6.61l.02-2.17v-.82s2.24-2.47,2.24-2.47c1.36-1.5,2.1-3.44,2.1-5.46,0-3.8-3.11-6.9-6.93-6.9h0Z"/>
    </g>
  </g>
</svg>