<?xml version="1.0" encoding="UTF-8"?>
<svg id="Layer_1" xmlns="http://www.w3.org/2000/svg" version="1.1" viewBox="0 0 70 70">
  <!-- Generator: Adobe Illustrator 30.1.0, SVG Export Plug-In . SVG Version: 2.1.1 Build 136)  -->
  <circle id="Outer" cx="35" cy="35" r="27.63" fill="none" stroke="#000" stroke-width="14.74"/>
  <g>
    <g>
      <rect x="32.74" y="43.25" width="4.49" height="4.49"/>
      <path d="M36.03,44.45v2.09h-2.09v-2.09h2.09M38.43,42.04h-6.9v6.9h6.9v-6.9h0Z"/>
    </g>
    <g>
      <path d="M32.75,39.26l-.02-1.98c0-1.3.48-2.53,1.35-3.49l2.07-2.29c.37-.41.57-.93.57-1.47,0-.57-.47-1.03-1.05-1.03h-1.33c-.58,0-1.05.46-1.05,1.03v1.2h-4.51v-1.2c0-3.05,2.49-5.53,5.56-5.53h1.33c3.07,0,5.56,2.48,5.56,5.53,0,1.66-.61,3.25-1.73,4.48l-2.07,2.29c-.12.14-.19.3-.19.47l-.02,1.99h-4.47Z"/>
      <path d="M35.66,25.7c2.4,0,4.36,1.94,4.36,4.33,0,1.36-.5,2.66-1.42,3.67l-2.07,2.29c-.32.35-.5.79-.5,1.27v.79h-2.1v-.79c0-.99.36-1.93,1.03-2.67l2.07-2.29c.57-.63.88-1.44.88-2.28,0-1.23-1.01-2.24-2.25-2.24h-1.33c-1.24,0-2.25,1-2.25,2.24h-2.11c0-2.39,1.95-4.33,4.36-4.33h1.33M35.66,23.3h-1.33c-3.73,0-6.76,3.02-6.76,6.73v2.41h6.11l-.49.55c-1.06,1.17-1.65,2.69-1.65,4.27v.82s.03,2.39.03,2.39h6.85l.02-2.38v-.6s1.95-2.16,1.95-2.16c1.31-1.45,2.04-3.33,2.04-5.28,0-3.71-3.03-6.73-6.76-6.73h0ZM34.49,30.2h1.01c-.03.18-.12.35-.24.49l-.76.85v-1.34h0Z"/>
    </g>
  </g>
</svg>