<?xml version="1.0" encoding="UTF-8"?>
<svg id="Layer_1" xmlns="http://www.w3.org/2000/svg" version="1.1" viewBox="0 0 70 70">
  <!-- Generator: Adobe Illustrator 30.1.0, SVG Export Plug-In . SVG Version: 2.1.1 Build 136)  -->
  <circle id="Outer" cx="35" cy="35" r="32.57" fill="none" stroke="#000" stroke-width="4.86"/>
  <g>
    <g>
      <rect x="32.79" y="47.02" width="4.38" height="4.38"/>
      <path d="M36.84,47.35v3.73h-3.73v-3.73h3.73M37.5,46.69h-5.04v5.04h5.04v-5.04h0Z"/>
    </g>
    <g>
      <path d="M32.79,42.13l-.02-1.73c0-1.85.69-3.62,1.93-4.99l3.69-4.09c.96-1.06,1.48-2.42,1.48-3.85,0-2.02-1.66-3.67-3.69-3.67h-2.37c-2.04,0-3.69,1.64-3.69,3.67v.33h-4.42v-.33c0-4.44,3.64-8.06,8.11-8.06h2.37c4.47,0,8.11,3.61,8.11,8.06,0,2.5-.93,4.91-2.61,6.78l-3.69,4.09c-.52.58-.8,1.29-.81,2.05l-.02,1.74h-4.38Z"/>
      <path d="M36.19,19.75c4.29,0,7.78,3.47,7.78,7.73,0,2.42-.9,4.75-2.53,6.56l-3.69,4.09c-.57.63-.89,1.42-.89,2.27v1.41h-3.74v-1.41c0-1.77.64-3.45,1.83-4.76l3.69-4.09c1.01-1.12,1.57-2.56,1.57-4.06,0-2.2-1.8-3.99-4.02-3.99h-2.37c-2.22,0-4.02,1.79-4.02,3.99h-3.76c0-4.26,3.49-7.73,7.78-7.73h2.37M36.19,19.09h-2.37c-4.65,0-8.44,3.76-8.44,8.38v.66h5.07v-.66c0-1.84,1.51-3.34,3.37-3.34h2.37c1.86,0,3.37,1.5,3.37,3.34,0,1.34-.5,2.63-1.4,3.63l-3.69,4.09c-1.29,1.43-2.01,3.28-2.02,5.2v1.42s.02.65.02.65h5.03v-.65s.02-1.41.02-1.41c0-.68.25-1.32.72-1.84l3.69-4.09c1.74-1.93,2.7-4.41,2.7-7,0-4.62-3.79-8.38-8.44-8.38h0Z"/>
    </g>
  </g>
</svg>