<?xml version="1.0" encoding="UTF-8"?>
<svg id="Layer_1" xmlns="http://www.w3.org/2000/svg" version="1.1" viewBox="0 0 70 70">
  <!-- Generator: Adobe Illustrator 30.1.0, SVG Export Plug-In . SVG Version: 2.1.1 Build 136)  -->
  <circle id="Outer" cx="35" cy="35" r="31.96" fill="none" stroke="#000" stroke-width="6.08"/>
  <g>
    <g>
      <rect x="32.79" y="46.56" width="4.38" height="4.38"/>
      <path d="M36.73,46.99v3.51h-3.51v-3.51h3.51M37.61,46.12h-5.26v5.26h5.26v-5.26h0Z"/>
    </g>
    <g>
      <path d="M32.79,41.72l-.02-1.76c0-1.77.66-3.47,1.85-4.78l3.47-3.85c.88-.97,1.36-2.23,1.36-3.53,0-1.83-1.5-3.32-3.35-3.32h-2.23c-1.85,0-3.35,1.49-3.35,3.32v.44h-4.41v-.44c0-4.25,3.48-7.71,7.76-7.71h2.23c4.28,0,7.76,3.46,7.76,7.71,0,2.39-.88,4.68-2.49,6.46l-3.47,3.85c-.47.52-.72,1.16-.73,1.84l-.02,1.76h-4.37Z"/>
      <path d="M36.12,20.53c4.04,0,7.32,3.26,7.32,7.27,0,2.28-.84,4.47-2.38,6.17l-3.47,3.85c-.54.6-.84,1.33-.84,2.14v1.33h-3.52v-1.33c0-1.66.61-3.25,1.73-4.48l3.47-3.85c.95-1.05,1.47-2.41,1.47-3.83,0-2.07-1.7-3.76-3.78-3.76h-2.23c-2.09,0-3.78,1.69-3.78,3.76h-3.54c0-4.01,3.28-7.27,7.32-7.27h2.23M36.12,19.66h-2.23c-4.52,0-8.2,3.65-8.2,8.15v.88h5.29v-.88c0-1.59,1.31-2.88,2.91-2.88h2.23c1.6,0,2.91,1.29,2.91,2.88,0,1.2-.44,2.35-1.25,3.24l-3.47,3.85c-1.26,1.39-1.96,3.19-1.96,5.07v1.34s.02.87.02.87h5.24v-.87s.02-1.33.02-1.33c0-.58.21-1.12.61-1.56l3.47-3.85c1.68-1.86,2.6-4.26,2.6-6.76,0-4.49-3.68-8.15-8.2-8.15h0Z"/>
    </g>
  </g>
</svg>