<?xml version="1.0" encoding="UTF-8"?>
<svg id="Layer_1" xmlns="http://www.w3.org/2000/svg" version="1.1" viewBox="0 0 70 70">
  <!-- Generator: Adobe Illustrator 30.1.0, SVG Export Plug-In . SVG Version: 2.1.1 Build 136)  -->
  <circle id="Outer" cx="35" cy="35" r="30.72" fill="none" stroke="#000" stroke-width="8.55"/>
  <g>
    <g>
      <rect x="32.79" y="45.62" width="4.39" height="4.39"/>
      <path d="M36.52,46.28v3.08h-3.08v-3.08h3.08M37.83,44.97h-5.7v5.7h5.7v-5.7h0Z"/>
    </g>
    <g>
      <path d="M32.79,40.95l-.02-1.81c0-1.62.61-3.18,1.69-4.38l3.05-3.38c.72-.8,1.12-1.84,1.12-2.92,0-1.46-1.2-2.64-2.66-2.64h-1.96c-1.47,0-2.66,1.18-2.66,2.64v.66h-4.42v-.66c0-3.88,3.18-7.04,7.08-7.04h1.96c3.9,0,7.08,3.16,7.08,7.04,0,2.16-.8,4.24-2.26,5.85l-3.05,3.38c-.37.41-.57.91-.57,1.44l-.02,1.82h-4.38Z"/>
      <path d="M35.98,22.08c3.54,0,6.42,2.86,6.42,6.38,0,2-.74,3.92-2.09,5.41l-3.05,3.38c-.47.52-.73,1.17-.74,1.87v1.16h-3.09v-1.16c0-1.46.53-2.85,1.51-3.93l3.05-3.38c.83-.92,1.29-2.12,1.29-3.36,0-1.82-1.49-3.3-3.32-3.3h-1.96c-1.83,0-3.32,1.48-3.32,3.3h-3.1c0-3.52,2.88-6.38,6.42-6.38h1.96M35.98,20.77h-1.96c-4.27,0-7.74,3.45-7.74,7.69v1.31h5.73v-1.31c0-1.09.9-1.98,2.01-1.98h1.96c1.11,0,2.01.89,2.01,1.98,0,.91-.34,1.79-.96,2.48l-3.05,3.38c-1.19,1.32-1.86,3.03-1.86,4.81v1.18s.02,1.3.02,1.3h5.68v-1.3s.02-1.16.02-1.16c0-.38.13-.72.4-1.01l3.05-3.38c1.56-1.73,2.42-3.97,2.42-6.29,0-4.24-3.47-7.69-7.74-7.69h0Z"/>
    </g>
  </g>
</svg>