<?xml version="1.0" encoding="UTF-8"?>
<svg id="Layer_1" xmlns="http://www.w3.org/2000/svg" version="1.1" viewBox="0 0 70 70">
  <!-- Generator: Adobe Illustrator 30.1.0, SVG Export Plug-In . SVG Version: 2.1.1 Build 136)  -->
  <circle id="Outer" cx="35" cy="35" r="29.48" fill="none" stroke="#000" stroke-width="11.05"/>
  <g>
    <g>
      <rect x="32.78" y="44.68" width="4.41" height="4.41"/>
      <path d="M36.31,45.55v2.66h-2.66v-2.66h2.66M38.06,43.8h-6.16v6.16h6.16v-6.16h0Z"/>
    </g>
    <g>
      <path d="M32.79,40.22l-.02-1.87c0-1.49.55-2.9,1.54-4l2.64-2.92c.58-.64.89-1.46.89-2.32,0-1.09-.9-1.98-2-1.98h-1.69c-1.1,0-2,.89-2,1.98v.88h-4.44v-.88c0-3.53,2.89-6.39,6.43-6.39h1.69c3.55,0,6.43,2.87,6.43,6.39,0,1.95-.72,3.82-2.03,5.27l-2.64,2.92c-.27.3-.41.66-.41,1.04l-.02,1.88h-4.4Z"/>
      <path d="M35.85,23.59c3.07,0,5.56,2.48,5.56,5.52,0,1.73-.64,3.39-1.8,4.68l-2.64,2.92c-.41.45-.63,1.01-.64,1.62v1.01h-2.67v-1.01c0-1.26.46-2.46,1.31-3.4l2.64-2.92c.72-.8,1.12-1.83,1.12-2.9,0-1.57-1.29-2.85-2.87-2.85h-1.69c-1.58,0-2.87,1.28-2.87,2.85h-2.69c0-3.04,2.49-5.52,5.56-5.52h1.69M35.85,21.84h-1.69c-4.03,0-7.31,3.26-7.31,7.27v1.75h6.19v-1.75c0-.61.5-1.1,1.12-1.1h1.69c.62,0,1.12.49,1.12,1.1,0,.64-.24,1.25-.67,1.73l-2.64,2.92c-1.13,1.25-1.76,2.88-1.77,4.57v1.03s.02,1.73.02,1.73h6.13l.02-1.73v-1.01c.01-.18.07-.33.2-.47l2.64-2.92c1.45-1.61,2.26-3.69,2.26-5.86,0-4.01-3.28-7.27-7.31-7.27h0Z"/>
    </g>
  </g>
</svg>