<?xml version="1.0" encoding="UTF-8"?>
<svg id="Layer_1" xmlns="http://www.w3.org/2000/svg" version="1.1" viewBox="0 0 122 122">
  <!-- Generator: Adobe Illustrator 30.1.0, SVG Export Plug-In . SVG Version: 2.1.1 Build 136)  -->
  <g>
    <g>
      <rect x="56.7" y="31.66" width="8.59" height="8.59"/>
      <path d="M64.53,32.42v7.07h-7.07v-7.07h7.07M66.06,30.9h-10.12v10.12h10.12v-10.12h0Z"/>
    </g>
    <g>
      <polygon points="49.64 90.16 49.64 81.56 56.7 81.56 56.7 61.03 49.64 61.03 49.64 52.44 65.3 52.44 65.3 81.56 72.36 81.56 72.36 90.16 49.64 90.16"/>
      <path d="M64.53,53.2v29.13h7.07v7.07h-21.2v-7.07h7.07v-22.06h-7.07v-7.07h14.13M66.06,51.68h-17.18v10.12h7.07v19.01h-7.07v10.12h24.25v-10.12h-7.07v-29.13h0Z"/>
    </g>
  </g>
  <circle id="Outer" cx="61" cy="61" r="55.7" fill="none" stroke="#000" stroke-width="10.6"/>
</svg>