<?xml version="1.0" encoding="UTF-8"?>
<svg id="Layer_1" xmlns="http://www.w3.org/2000/svg" version="1.1" viewBox="0 0 122 122">
  <!-- Generator: Adobe Illustrator 30.1.0, SVG Export Plug-In . SVG Version: 2.1.1 Build 136)  -->
  <g>
    <g>
      <rect x="56.74" y="30.89" width="8.53" height="8.53"/>
      <path d="M64.69,31.46v7.38h-7.38v-7.38h7.38M65.84,30.32h-9.67v9.67h9.67v-9.67h0Z"/>
    </g>
    <g>
      <polygon points="49.35 91.11 49.35 82.58 56.74 82.58 56.74 60.67 49.35 60.67 49.35 52.14 65.26 52.14 65.26 82.58 72.65 82.58 72.65 91.11 49.35 91.11"/>
      <path d="M64.69,52.71v30.44h7.38v7.38h-22.15v-7.38h7.38v-23.05h-7.38v-7.38h14.77M65.84,51.57h-17.06v9.67h7.38v20.77h-7.38v9.67h24.44v-9.67h-7.38v-30.44h0Z"/>
    </g>
  </g>
  <circle id="Outer" cx="61" cy="61" r="56.77" fill="none" stroke="#000" stroke-width="8.46"/>
</svg>