<?xml version="1.0" encoding="UTF-8"?>
<svg id="Layer_1" xmlns="http://www.w3.org/2000/svg" version="1.1" viewBox="0 0 82 82">
  <!-- Generator: Adobe Illustrator 30.1.0, SVG Export Plug-In . SVG Version: 2.1.1 Build 136)  -->
  <g>
    <g>
      <rect x="38.11" y="21.28" width="5.78" height="5.77"/>
      <path d="M43.37,21.79v4.75h-4.75v-4.75h4.75M44.4,20.77h-6.8v6.8h6.8v-6.8h0Z"/>
    </g>
    <g>
      <polygon points="33.36 60.6 33.36 54.82 38.11 54.82 38.11 41.02 33.36 41.02 33.36 35.24 43.89 35.24 43.89 54.82 48.64 54.82 48.64 60.6 33.36 60.6"/>
      <path d="M43.37,35.76v19.58h4.75v4.75h-14.25v-4.75h4.75v-14.83h-4.75v-4.75h9.5M44.4,34.73h-11.55v6.8h4.75v12.78h-4.75v6.8h16.3v-6.8h-4.75v-19.58h0Z"/>
    </g>
  </g>
  <circle id="Outer" cx="41" cy="41" r="37.44" fill="none" stroke="#000" stroke-width="7.12"/>
</svg>