<?xml version="1.0" encoding="UTF-8"?>
<svg id="Layer_1" xmlns="http://www.w3.org/2000/svg" version="1.1" viewBox="0 0 82 82">
  <!-- Generator: Adobe Illustrator 30.1.0, SVG Export Plug-In . SVG Version: 2.1.1 Build 136)  -->
  <g>
    <g>
      <rect x="37.97" y="24.41" width="6.05" height="6.05"/>
      <path d="M42.74,25.7v3.49h-3.49v-3.49h3.49M45.31,23.13h-8.61v8.61h8.61v-8.61h0Z"/>
    </g>
    <g>
      <polygon points="34.49 56.79 34.49 50.74 37.97 50.74 37.97 42.41 34.49 42.41 34.49 36.36 44.03 36.36 44.03 50.74 47.51 50.74 47.51 56.79 34.49 56.79"/>
      <path d="M42.74,37.64v14.38h3.49v3.49h-10.46v-3.49h3.49v-10.89h-3.49v-3.49h6.98M45.31,35.08h-12.1v8.61h3.49v5.76h-3.49v8.61h15.59v-8.61h-3.49v-14.38h0Z"/>
    </g>
  </g>
  <circle id="Outer" cx="41" cy="41" r="33.08" fill="none" stroke="#000" stroke-width="15.84"/>
</svg>