<?xml version="1.0" encoding="UTF-8"?>
<svg id="Layer_1" xmlns="http://www.w3.org/2000/svg" version="1.1" viewBox="0 0 82 82">
  <!-- Generator: Adobe Illustrator 30.1.0, SVG Export Plug-In . SVG Version: 2.1.1 Build 136)  -->
  <g>
    <g>
      <rect x="38.03" y="23.38" width="5.95" height="5.95"/>
      <path d="M42.95,24.4v3.9h-3.9v-3.9h3.9M45,22.35h-8v8h8v-8h0Z"/>
    </g>
    <g>
      <polygon points="34.13 58.03 34.13 52.08 38.03 52.08 38.03 41.96 34.13 41.96 34.13 36.01 43.98 36.01 43.98 52.08 47.88 52.08 47.88 58.03 34.13 58.03"/>
      <path d="M42.95,37.04v16.07h3.9v3.9h-11.7v-3.9h3.9v-12.17h-3.9v-3.9h7.8M45,34.99h-11.9v8h3.9v8.07h-3.9v8h15.8v-8h-3.9v-16.07h0Z"/>
    </g>
  </g>
  <circle id="Outer" cx="41" cy="41" r="34.53" fill="none" stroke="#000" stroke-width="12.94"/>
</svg>