<?xml version="1.0" encoding="UTF-8"?>
<svg id="Layer_1" xmlns="http://www.w3.org/2000/svg" version="1.1" viewBox="0 0 82 82">
  <!-- Generator: Adobe Illustrator 30.1.0, SVG Export Plug-In . SVG Version: 2.1.1 Build 136)  -->
  <g>
    <g>
      <rect x="38.13" y="20.76" width="5.73" height="5.73"/>
      <path d="M43.48,21.15v4.96h-4.96v-4.96h4.96M44.25,20.38h-6.5v6.5h6.5v-6.5h0Z"/>
    </g>
    <g>
      <polygon points="33.17 61.24 33.17 55.51 38.13 55.51 38.13 40.78 33.17 40.78 33.17 35.05 43.87 35.05 43.87 55.51 48.83 55.51 48.83 61.24 33.17 61.24"/>
      <path d="M43.48,35.43v20.46h4.96v4.96h-14.89v-4.96h4.96v-15.5h-4.96v-4.96h9.93M44.25,34.66h-11.46v6.5h4.96v13.96h-4.96v6.5h16.43v-6.5h-4.96v-20.46h0Z"/>
    </g>
  </g>
  <circle id="Outer" cx="41" cy="41" r="38.16" fill="none" stroke="#000" stroke-width="5.69"/>
</svg>