<?xml version="1.0" encoding="UTF-8"?>
<svg id="Layer_1" xmlns="http://www.w3.org/2000/svg" version="1.1" viewBox="0 0 8 8">
  <!-- Generator: Adobe Illustrator 30.1.0, SVG Export Plug-In . SVG Version: 2.1.1 Build 136)  -->
  <path d="M4,1.26c.09,0,.18.05.22.14l.57,1.14c.1.2.28.33.5.37l1.24.23c.19.04.27.27.14.42l-.9.99c-.14.15-.2.36-.18.56l.18,1.34c.02.16-.11.29-.25.29-.04,0-.08,0-.11-.03l-1.08-.56c-.1-.05-.21-.08-.32-.08s-.22.03-.32.08l-1.08.56s-.08.03-.11.03c-.14,0-.27-.13-.25-.29l.18-1.34c.03-.2-.04-.41-.18-.56l-.9-.99c-.13-.15-.05-.38.14-.42l1.24-.23c.21-.04.4-.18.5-.37l.57-1.14c.05-.09.14-.14.22-.14M4,0C3.42,0,2.91.32,2.65.83l-.45.89-.96.18c-.54.1-.98.49-1.16,1.01-.17.52-.05,1.1.32,1.5l.73.8-.14,1.08c-.06.43.07.87.36,1.2.29.33.7.52,1.14.52.24,0,.48-.06.69-.17l.83-.43.83.43c.21.11.45.17.69.17.44,0,.85-.19,1.14-.52.29-.33.42-.76.36-1.2l-.14-1.08.73-.8c.37-.41.49-.98.32-1.5-.17-.52-.62-.91-1.16-1.01l-.97-.18-.45-.89C5.09.32,4.58,0,4,0h0Z"/>
</svg>