<?xml version="1.0" encoding="UTF-8"?>
<svg id="Layer_1" xmlns="http://www.w3.org/2000/svg" version="1.1" viewBox="0 0 8 8">
  <!-- Generator: Adobe Illustrator 30.1.0, SVG Export Plug-In . SVG Version: 2.1.1 Build 136)  -->
  <path d="M4,1.68c.08,0,.15.04.19.12l.48.96c.08.16.24.28.42.32l1.05.2c.16.03.23.23.12.35l-.76.84c-.12.13-.17.3-.15.48l.15,1.13c.02.13-.09.24-.21.24-.03,0-.07,0-.1-.02l-.92-.47c-.08-.04-.18-.07-.27-.07s-.19.02-.27.07l-.92.47s-.07.02-.1.02c-.12,0-.23-.11-.21-.24l.15-1.13c.02-.17-.03-.35-.15-.48l-.76-.84c-.11-.12-.05-.32.12-.35l1.05-.2c.18-.03.34-.15.42-.32l.48-.96c.04-.08.11-.12.19-.12M4,0C3.28,0,2.63.4,2.31,1.04l-.24.48-.52.1c-.68.13-1.23.61-1.45,1.26-.22.65-.07,1.37.4,1.88l.42.46-.08.63c-.07.54.09,1.09.45,1.5.36.41.88.65,1.43.65.3,0,.6-.07.87-.21l.42-.21.42.21c.27.14.57.21.87.21.55,0,1.07-.24,1.43-.65.36-.41.53-.96.45-1.5l-.08-.63.42-.46c.46-.51.62-1.23.4-1.88-.22-.65-.77-1.14-1.45-1.26l-.52-.1-.24-.48C5.37.4,4.72,0,4,0h0Z"/>
</svg>