<?xml version="1.0" encoding="UTF-8"?>
<svg id="Layer_1" xmlns="http://www.w3.org/2000/svg" version="1.1" viewBox="0 0 112 112">
  <!-- Generator: Adobe Illustrator 30.1.0, SVG Export Plug-In . SVG Version: 2.1.1 Build 136)  -->
  <circle id="Outer" cx="56" cy="56" r="47.16" fill="none" stroke="#000" stroke-width="17.67"/>
  <g>
    <g>
      <rect x="52.44" y="71.48" width="7.06" height="7.06"/>
      <path d="M58.1,72.88v4.26h-4.26v-4.26h4.26M60.9,70.08h-9.86v9.86h9.86v-9.86h0Z"/>
    </g>
    <g>
      <path d="M52.46,64.35l-.03-3c0-2.38.89-4.64,2.47-6.4l4.22-4.67c.92-1.02,1.43-2.34,1.43-3.71,0-1.75-1.43-3.16-3.2-3.16h-2.71c-1.76,0-3.2,1.42-3.2,3.16v1.4h-7.1v-1.4c0-5.64,4.62-10.23,10.29-10.23h2.71c5.68,0,10.29,4.59,10.29,10.23,0,3.12-1.15,6.11-3.25,8.43l-4.22,4.67c-.43.47-.66,1.05-.66,1.66l-.03,3.01h-7.03Z"/>
      <path d="M57.35,37.74c4.9,0,8.89,3.96,8.89,8.83,0,2.77-1.03,5.43-2.89,7.49l-4.22,4.67c-.65.72-1.02,1.62-1.02,2.59l-.02,1.61h-4.26v-1.61c0-2.02.74-3.94,2.1-5.44l4.22-4.67c1.15-1.28,1.79-2.93,1.79-4.65,0-2.52-2.06-4.56-4.6-4.56h-2.71c-2.53,0-4.6,2.05-4.6,4.56h-4.3c0-4.87,3.99-8.83,8.89-8.83h2.71M57.35,34.94h-2.71c-6.45,0-11.69,5.22-11.69,11.63v2.8h9.9v-2.8c0-.97.81-1.76,1.8-1.76h2.71c.99,0,1.8.79,1.8,1.76,0,1.02-.38,2.01-1.07,2.77l-4.22,4.67c-1.82,2.01-2.82,4.6-2.83,7.31v1.65s.04,2.78.04,2.78h9.81l.03-2.77.02-1.61c0-.29.1-.53.3-.74l4.22-4.68c2.33-2.58,3.61-5.91,3.61-9.37,0-6.41-5.25-11.63-11.69-11.63h0Z"/>
    </g>
  </g>
</svg>