<?xml version="1.0" encoding="UTF-8"?>
<svg id="Layer_1" xmlns="http://www.w3.org/2000/svg" version="1.1" viewBox="0 0 112 112">
  <!-- Generator: Adobe Illustrator 30.1.0, SVG Export Plug-In . SVG Version: 2.1.1 Build 136)  -->
  <circle id="Outer" cx="56" cy="56" r="52.12" fill="none" stroke="#000" stroke-width="7.77"/>
  <g>
    <g>
      <rect x="52.46" y="75.23" width="7.01" height="7.01"/>
      <path d="M58.95,75.75v5.96h-5.96v-5.96h5.96M60,74.7h-8.06v8.06h8.06v-8.06h0Z"/>
    </g>
    <g>
      <path d="M52.47,67.41l-.02-2.78c.01-2.96,1.11-5.79,3.09-7.98l5.9-6.54c1.53-1.69,2.37-3.88,2.37-6.15,0-3.23-2.65-5.87-5.91-5.87h-3.79c-3.26,0-5.91,2.63-5.91,5.87v.52h-7.06v-.52c0-7.11,5.82-12.89,12.98-12.89h3.79c7.15,0,12.98,5.78,12.98,12.89,0,4.01-1.48,7.86-4.18,10.84l-5.91,6.54c-.84.93-1.29,2.07-1.29,3.28l-.03,2.78h-7Z"/>
      <path d="M57.9,31.6c6.87,0,12.45,5.55,12.45,12.36,0,3.88-1.44,7.6-4.04,10.49l-5.91,6.54c-.91,1.01-1.42,2.27-1.43,3.63l-.02,2.25h-5.96l-.02-2.25c.01-2.83,1.05-5.52,2.95-7.62l5.91-6.54c1.62-1.79,2.51-4.1,2.51-6.5,0-3.52-2.89-6.39-6.44-6.39h-3.79c-3.55,0-6.44,2.87-6.44,6.39h-6.02c0-6.82,5.58-12.36,12.45-12.36h3.79M57.9,30.55h-3.79c-7.44,0-13.5,6.02-13.5,13.41v1.05h8.12v-1.05c0-2.94,2.42-5.34,5.39-5.34h3.79c2.97,0,5.39,2.4,5.39,5.34,0,2.14-.79,4.2-2.24,5.8l-5.91,6.54c-2.07,2.29-3.21,5.24-3.22,8.32l.02,2.27v1.04h8.05v-1.04s.03-2.25.03-2.25c0-1.09.4-2.11,1.15-2.94l5.91-6.55c2.78-3.08,4.31-7.06,4.31-11.19,0-7.4-6.06-13.41-13.5-13.41h0Z"/>
    </g>
  </g>
</svg>