<?xml version="1.0" encoding="UTF-8"?>
<svg id="Layer_1" xmlns="http://www.w3.org/2000/svg" version="1.1" viewBox="0 0 112 112">
  <!-- Generator: Adobe Illustrator 30.1.0, SVG Export Plug-In . SVG Version: 2.1.1 Build 136)  -->
  <circle id="Outer" cx="56" cy="56" r="51.14" fill="none" stroke="#000" stroke-width="9.73"/>
  <g>
    <g>
      <rect x="52.46" y="74.49" width="7.01" height="7.01"/>
      <path d="M58.77,75.19v5.61h-5.61v-5.61h5.61M60.17,73.79h-8.41v8.41h8.41v-8.41h0Z"/>
    </g>
    <g>
      <path d="M52.47,66.76l-.02-2.82c.01-2.84,1.06-5.55,2.96-7.65l5.56-6.16c1.41-1.56,2.18-3.56,2.18-5.65,0-2.93-2.4-5.31-5.36-5.31h-3.57c-2.95,0-5.36,2.38-5.36,5.31v.7h-7.06v-.7c0-6.8,5.57-12.33,12.42-12.33h3.57c6.85,0,12.42,5.53,12.42,12.33,0,3.82-1.42,7.5-3.99,10.34l-5.56,6.16c-.76.84-1.16,1.86-1.16,2.95l-.03,2.82h-7Z"/>
      <path d="M57.78,32.86c6.46,0,11.72,5.22,11.72,11.63,0,3.65-1.35,7.15-3.8,9.87l-5.56,6.16c-.86.95-1.34,2.14-1.34,3.42l-.02,2.12h-5.61l-.02-2.12c0-2.66.99-5.19,2.78-7.17l5.56-6.16c1.52-1.69,2.36-3.86,2.36-6.12,0-3.32-2.72-6.01-6.06-6.01h-3.57c-3.34,0-6.06,2.7-6.06,6.01h-5.66c0-6.41,5.26-11.63,11.72-11.63h3.57M57.78,31.46h-3.57c-7.23,0-13.12,5.85-13.12,13.03v1.4h8.46v-1.4c0-2.54,2.09-4.61,4.66-4.61h3.57c2.57,0,4.66,2.07,4.66,4.61,0,1.91-.71,3.75-2,5.18l-5.56,6.16c-2.01,2.23-3.13,5.11-3.14,8.1l.02,2.14v1.39h8.4v-1.39s.04-2.12.04-2.12c0-.93.34-1.79.98-2.49l5.56-6.16c2.69-2.98,4.17-6.81,4.17-10.81,0-7.19-5.88-13.03-13.12-13.03h0Z"/>
    </g>
  </g>
</svg>