<?xml version="1.0" encoding="UTF-8"?>
<svg id="Layer_1" xmlns="http://www.w3.org/2000/svg" version="1.1" viewBox="0 0 112 112">
  <!-- Generator: Adobe Illustrator 30.1.0, SVG Export Plug-In . SVG Version: 2.1.1 Build 136)  -->
  <circle id="Outer" cx="56" cy="56" r="45.19" fill="none" stroke="#000" stroke-width="21.63"/>
  <g>
    <g>
      <rect x="52.41" y="69.96" width="7.13" height="7.13"/>
      <path d="M57.79,71.71v3.64h-3.64v-3.64h3.64M61.29,68.21h-10.64v10.64h10.64v-10.64h0Z"/>
    </g>
    <g>
      <path d="M52.43,63.29l-.03-3.11c0-2.17.81-4.24,2.25-5.84l3.6-3.99c.69-.77,1.08-1.76,1.08-2.79,0-1.18-.98-2.15-2.17-2.15h-2.31c-1.2,0-2.17.96-2.17,2.15v1.75h-7.17v-1.75c0-5.12,4.19-9.29,9.34-9.29h2.31c5.15,0,9.34,4.17,9.34,9.29,0,2.8-1.04,5.48-2.92,7.57l-3.6,3.99c-.28.31-.42.66-.42,1.05l-.03,3.12h-7.1Z"/>
      <path d="M57.16,40.03c4.19,0,7.59,3.38,7.59,7.54,0,2.36-.88,4.64-2.46,6.4l-3.6,3.99c-.56.62-.87,1.38-.87,2.21v1.37h-3.65v-1.37c0-1.72.63-3.36,1.79-4.65l3.6-3.99c.99-1.09,1.53-2.5,1.53-3.97,0-2.15-1.76-3.9-3.92-3.9h-2.31c-2.16,0-3.92,1.75-3.92,3.9h-3.67c0-4.16,3.4-7.54,7.59-7.54h2.31M57.16,36.53h-2.31c-6.12,0-11.09,4.95-11.09,11.04v3.5h10.67v-3.5c0-.21.19-.4.42-.4h2.31c.23,0,.42.18.42.4,0,.6-.22,1.17-.63,1.62l-3.6,3.99c-1.73,1.92-2.69,4.4-2.7,6.98v1.42s.04,3.47.04,3.47h10.57l.04-3.46v-1.31s3.58-3.96,3.58-3.96c2.17-2.4,3.37-5.51,3.37-8.74,0-6.09-4.98-11.04-11.09-11.04h0Z"/>
    </g>
  </g>
</svg>