<?xml version="1.0" encoding="UTF-8"?>
<svg id="Layer_1" xmlns="http://www.w3.org/2000/svg" version="1.1" viewBox="0 0 112 112">
  <!-- Generator: Adobe Illustrator 30.1.0, SVG Export Plug-In . SVG Version: 2.1.1 Build 136)  -->
  <circle id="Outer" cx="56" cy="56" r="44.21" fill="none" stroke="#000" stroke-width="23.59"/>
  <g>
    <g>
      <rect x="52.38" y="69.2" width="7.19" height="7.19"/>
      <path d="M57.64,71.12v3.34h-3.34v-3.34h3.34M61.49,67.27h-11.04v11.04h11.04v-11.04h0Z"/>
    </g>
    <g>
      <path d="M52.4,62.81l-.03-3.17c0-2.08.77-4.05,2.15-5.58l3.31-3.66c.58-.65.91-1.48.91-2.35,0-.91-.75-1.65-1.68-1.65h-2.12c-.93,0-1.68.74-1.68,1.65v1.92h-7.22v-1.92c0-4.88,3.99-8.85,8.9-8.85h2.12c4.91,0,8.9,3.97,8.9,8.85,0,2.65-.98,5.19-2.76,7.17l-3.31,3.67c-.2.22-.3.47-.3.75l-.03,3.18h-7.15Z"/>
      <path d="M57.06,41.13c3.85,0,6.97,3.11,6.97,6.92,0,2.17-.8,4.26-2.26,5.88l-3.31,3.67c-.51.57-.8,1.27-.8,2.03v1.26h-3.35v-1.26c0-1.58.58-3.09,1.64-4.27l3.31-3.66c.91-1,1.4-2.3,1.4-3.64,0-1.97-1.62-3.58-3.6-3.58h-2.12c-1.99,0-3.6,1.61-3.6,3.58h-3.37c0-3.82,3.13-6.92,6.97-6.92h2.12M57.06,37.28h-2.12c-5.97,0-10.82,4.83-10.82,10.77v3.85h9.77l-.79.88c-1.7,1.88-2.64,4.3-2.65,6.83v1.31s.04,3.82.04,3.82h10.97l.04-3.81v-.97s3.13-3.45,3.13-3.45c2.1-2.33,3.26-5.33,3.26-8.45,0-5.94-4.86-10.77-10.82-10.77h0ZM55.18,48.32h1.61c-.05.29-.18.57-.39.79l-1.22,1.35v-2.14h0Z"/>
    </g>
  </g>
</svg>