<?xml version="1.0" encoding="UTF-8"?>
<svg id="Layer_1" xmlns="http://www.w3.org/2000/svg" version="1.1" viewBox="0 0 112 112">
  <!-- Generator: Adobe Illustrator 30.1.0, SVG Export Plug-In . SVG Version: 2.1.1 Build 136)  -->
  <circle id="Outer" cx="56" cy="56" r="49.16" fill="none" stroke="#000" stroke-width="13.69"/>
  <g>
    <g>
      <rect x="52.46" y="73" width="7.02" height="7.02"/>
      <path d="M58.43,74.05v4.92h-4.92v-4.92h4.92M60.53,71.95h-9.12v9.12h9.12v-9.12h0Z"/>
    </g>
    <g>
      <path d="M52.47,65.51l-.03-2.9c0-2.6.97-5.08,2.71-7.01l4.87-5.4c1.16-1.29,1.8-2.94,1.8-4.67,0-2.33-1.91-4.23-4.26-4.23h-3.13c-2.35,0-4.26,1.9-4.26,4.23v1.05h-7.07v-1.05c0-6.21,5.08-11.26,11.33-11.26h3.13c6.25,0,11.33,5.05,11.33,11.26,0,3.46-1.28,6.79-3.61,9.36l-4.88,5.4c-.59.65-.9,1.45-.91,2.3l-.03,2.91h-7Z"/>
      <path d="M57.57,35.33c5.67,0,10.28,4.58,10.28,10.21,0,3.2-1.19,6.28-3.34,8.66l-4.88,5.4c-.76.84-1.17,1.87-1.18,3l-.02,1.86h-4.92l-.02-1.86c0-2.33.87-4.56,2.44-6.29l4.88-5.4c1.33-1.48,2.07-3.39,2.07-5.37,0-2.91-2.38-5.28-5.31-5.28h-3.13c-2.93,0-5.31,2.37-5.31,5.28h-4.97c0-5.63,4.61-10.21,10.28-10.21h3.13M57.57,33.23h-3.13c-6.83,0-12.38,5.52-12.38,12.31v2.1h9.17v-2.1c0-1.75,1.44-3.18,3.21-3.18h3.13c1.77,0,3.21,1.42,3.21,3.18,0,1.46-.54,2.87-1.53,3.96l-4.88,5.4c-1.91,2.11-2.97,4.84-2.98,7.69l.02,1.89.02,2.08h9.08l.02-2.08.02-1.86c0-.61.22-1.15.64-1.61l4.88-5.4c2.5-2.77,3.88-6.35,3.88-10.07,0-6.79-5.55-12.31-12.38-12.31h0Z"/>
    </g>
  </g>
</svg>