<?xml version="1.0" encoding="UTF-8"?>
<svg id="Layer_1" xmlns="http://www.w3.org/2000/svg" version="1.1" viewBox="0 0 107 107">
  <!-- Generator: Adobe Illustrator 30.1.0, SVG Export Plug-In . SVG Version: 2.1.1 Build 136)  -->
  <circle id="Outer" cx="53.5" cy="53.5" r="46.96" fill="none" stroke="#000" stroke-width="13.07"/>
  <g>
    <g>
      <rect x="50.12" y="69.74" width="6.71" height="6.71"/>
      <path d="M55.82,70.74v4.7h-4.7v-4.7h4.7M57.83,68.74h-8.72v8.72h8.72v-8.72h0Z"/>
    </g>
    <g>
      <path d="M50.13,62.59l-.02-2.77c0-2.48.93-4.86,2.59-6.69l4.66-5.16c1.11-1.23,1.72-2.81,1.72-4.46,0-2.23-1.83-4.04-4.07-4.04h-2.99c-2.25,0-4.07,1.81-4.07,4.04v1h-6.75v-1c0-5.93,4.85-10.75,10.82-10.75h2.99c5.97,0,10.82,4.82,10.82,10.75,0,3.31-1.22,6.48-3.45,8.95l-4.66,5.16c-.56.62-.86,1.38-.87,2.2l-.03,2.78h-6.69Z"/>
      <path d="M55,33.76c5.41,0,9.82,4.38,9.82,9.75,0,3.06-1.13,6-3.19,8.27l-4.66,5.16c-.72.8-1.12,1.79-1.12,2.86l-.02,1.78h-4.7l-.02-1.78c0-2.23.83-4.35,2.33-6.01l4.66-5.16c1.28-1.41,1.98-3.23,1.98-5.13,0-2.78-2.28-5.04-5.08-5.04h-2.99c-2.8,0-5.08,2.26-5.08,5.04h-4.74c0-5.38,4.4-9.75,9.82-9.75h2.99M55,31.75h-2.99c-6.52,0-11.83,5.27-11.83,11.76v2.01h8.76v-2.01c0-1.67,1.38-3.03,3.07-3.03h2.99c1.69,0,3.07,1.36,3.07,3.03,0,1.4-.52,2.74-1.46,3.79l-4.66,5.16c-1.83,2.02-2.84,4.63-2.85,7.35l.02,1.8.02,1.99h8.68l.02-1.99.02-1.78c0-.58.21-1.1.61-1.54l4.66-5.16c2.39-2.65,3.71-6.06,3.71-9.62,0-6.48-5.31-11.76-11.83-11.76h0Z"/>
    </g>
  </g>
</svg>