<?xml version="1.0" encoding="UTF-8"?>
<svg id="Layer_1" xmlns="http://www.w3.org/2000/svg" version="1.1" viewBox="0 0 107 107">
  <!-- Generator: Adobe Illustrator 30.1.0, SVG Export Plug-In . SVG Version: 2.1.1 Build 136)  -->
  <circle id="Outer" cx="53.5" cy="53.5" r="45.06" fill="none" stroke="#000" stroke-width="16.89"/>
  <g>
    <g>
      <rect x="50.1" y="68.29" width="6.74" height="6.74"/>
      <path d="M55.51,69.63v4.07h-4.07v-4.07h4.07M58.18,66.95h-9.42v9.42h9.42v-9.42h0Z"/>
    </g>
    <g>
      <path d="M50.12,61.47l-.03-2.86c0-2.27.85-4.44,2.36-6.11l4.03-4.46c.88-.98,1.37-2.23,1.37-3.54,0-1.67-1.37-3.02-3.05-3.02h-2.59c-1.68,0-3.05,1.36-3.05,3.02v1.34h-6.78v-1.34c0-5.39,4.41-9.77,9.83-9.77h2.59c5.42,0,9.83,4.38,9.83,9.77,0,2.98-1.1,5.84-3.1,8.06l-4.03,4.47c-.41.45-.63,1-.63,1.59l-.03,2.87h-6.72Z"/>
      <path d="M54.79,36.06c4.69,0,8.5,3.79,8.5,8.44,0,2.65-.98,5.19-2.76,7.16l-4.03,4.47c-.62.69-.97,1.55-.97,2.48l-.02,1.54h-4.07v-1.54c0-1.93.7-3.77,2-5.2l4.03-4.46c1.1-1.22,1.71-2.8,1.71-4.44,0-2.4-1.97-4.36-4.39-4.36h-2.59c-2.42,0-4.39,1.96-4.39,4.36h-4.1c0-4.65,3.81-8.44,8.5-8.44h2.59M54.79,33.38h-2.59c-6.16,0-11.17,4.98-11.17,11.11v2.67h9.45v-2.67c0-.93.77-1.69,1.72-1.69h2.59c.95,0,1.72.76,1.72,1.69,0,.98-.36,1.92-1.02,2.65l-4.03,4.46c-1.73,1.92-2.7,4.4-2.7,6.98v1.57s.04,2.65.04,2.65h9.37l.03-2.65.02-1.54c0-.28.09-.5.28-.71l4.03-4.47c2.22-2.46,3.45-5.64,3.45-8.95,0-6.13-5.01-11.11-11.17-11.11h0Z"/>
    </g>
  </g>
</svg>