<?xml version="1.0" encoding="UTF-8"?>
<svg id="Layer_1" xmlns="http://www.w3.org/2000/svg" version="1.1" viewBox="0 0 107 107">
  <!-- Generator: Adobe Illustrator 30.1.0, SVG Export Plug-In . SVG Version: 2.1.1 Build 136)  -->
  <circle id="Outer" cx="53.5" cy="53.5" r="48.85" fill="none" stroke="#000" stroke-width="9.3"/>
  <g>
    <g>
      <rect x="50.12" y="71.17" width="6.7" height="6.7"/>
      <path d="M56.15,71.83v5.36h-5.36v-5.36h5.36M57.49,70.5h-8.04v8.04h8.04v-8.04h0Z"/>
    </g>
    <g>
      <path d="M50.13,63.78l-.02-2.69c.01-2.71,1.01-5.3,2.83-7.31l5.31-5.88c1.34-1.49,2.08-3.4,2.08-5.4,0-2.8-2.29-5.08-5.12-5.08h-3.41c-2.82,0-5.12,2.28-5.12,5.08v.67h-6.75v-.67c0-6.5,5.32-11.78,11.86-11.78h3.41c6.54,0,11.86,5.29,11.86,11.78,0,3.65-1.35,7.16-3.81,9.88l-5.31,5.88c-.72.8-1.11,1.77-1.11,2.82l-.03,2.69h-6.69Z"/>
      <path d="M55.21,31.39c6.17,0,11.19,4.99,11.19,11.11,0,3.49-1.29,6.84-3.63,9.43l-5.31,5.88c-.82.91-1.28,2.04-1.28,3.26l-.02,2.03h-5.36l-.02-2.03c0-2.54.95-4.96,2.66-6.85l5.31-5.88c1.45-1.61,2.25-3.69,2.25-5.85,0-3.17-2.6-5.74-5.79-5.74h-3.41c-3.19,0-5.79,2.58-5.79,5.74h-5.41c0-6.13,5.02-11.11,11.19-11.11h3.41M55.21,30.05h-3.41c-6.91,0-12.53,5.59-12.53,12.45v1.34h8.08v-1.34c0-2.43,2-4.41,4.45-4.41h3.41c2.45,0,4.45,1.98,4.45,4.41,0,1.83-.68,3.59-1.91,4.95l-5.31,5.88c-1.92,2.13-2.99,4.88-3,7.74l.02,2.04v1.33h8.02v-1.32s.03-2.03.03-2.03c0-.89.33-1.71.94-2.38l5.31-5.88c2.57-2.84,3.98-6.51,3.98-10.33,0-6.87-5.62-12.45-12.53-12.45h0Z"/>
    </g>
  </g>
</svg>