<?xml version="1.0" encoding="UTF-8"?>
<svg id="Layer_1" xmlns="http://www.w3.org/2000/svg" version="1.1" viewBox="0 0 107 107">
  <!-- Generator: Adobe Illustrator 30.1.0, SVG Export Plug-In . SVG Version: 2.1.1 Build 136)  -->
  <circle id="Outer" cx="53.5" cy="53.5" r="49.79" fill="none" stroke="#000" stroke-width="7.42"/>
  <g>
    <g>
      <rect x="50.12" y="71.87" width="6.7" height="6.7"/>
      <path d="M56.31,72.37v5.7h-5.7v-5.7h5.7M57.32,71.37h-7.7v7.7h7.7v-7.7h0Z"/>
    </g>
    <g>
      <path d="M50.12,64.4l-.02-2.65c.01-2.83,1.06-5.53,2.95-7.62l5.64-6.25c1.46-1.62,2.26-3.71,2.26-5.88,0-3.09-2.53-5.6-5.65-5.6h-3.62c-3.11,0-5.65,2.51-5.65,5.6v.5h-6.75v-.5c0-6.79,5.56-12.31,12.4-12.31h3.62c6.84,0,12.4,5.52,12.4,12.31,0,3.83-1.42,7.51-3.99,10.36l-5.64,6.25c-.8.89-1.23,1.97-1.23,3.14l-.03,2.65h-6.69Z"/>
      <path d="M55.31,30.19c6.56,0,11.89,5.3,11.89,11.81,0,3.71-1.37,7.26-3.86,10.02l-5.64,6.25c-.87.97-1.36,2.17-1.36,3.47l-.02,2.15h-5.7l-.02-2.15c0-2.7,1-5.27,2.82-7.28l5.64-6.25c1.54-1.71,2.39-3.92,2.39-6.21,0-3.37-2.76-6.1-6.15-6.1h-3.62c-3.39,0-6.15,2.74-6.15,6.1h-5.75c0-6.51,5.34-11.81,11.89-11.81h3.62M55.31,29.18h-3.62c-7.11,0-12.9,5.75-12.9,12.81v1h7.75v-1c0-2.81,2.31-5.1,5.14-5.1h3.62c2.84,0,5.14,2.29,5.14,5.1,0,2.05-.76,4.02-2.14,5.54l-5.64,6.25c-1.98,2.18-3.07,5.01-3.08,7.95l.02,2.17v.99h7.69v-.99s.03-2.15.03-2.15c0-1.04.38-2.01,1.1-2.81l5.64-6.25c2.66-2.94,4.12-6.74,4.12-10.69,0-7.07-5.79-12.81-12.9-12.81h0Z"/>
    </g>
  </g>
</svg>