<?xml version="1.0" encoding="UTF-8"?>
<svg id="Layer_1" xmlns="http://www.w3.org/2000/svg" version="1.1" viewBox="0 0 107 107">
  <!-- Generator: Adobe Illustrator 30.1.0, SVG Export Plug-In . SVG Version: 2.1.1 Build 136)  -->
  <circle id="Outer" cx="53.5" cy="53.5" r="43.17" fill="none" stroke="#000" stroke-width="20.66"/>
  <g>
    <g>
      <rect x="50.07" y="66.84" width="6.82" height="6.82"/>
      <path d="M55.21,68.51v3.47h-3.47v-3.47h3.47M58.55,65.16h-10.16v10.16h10.16v-10.16h0Z"/>
    </g>
    <g>
      <path d="M50.09,60.47l-.03-2.97c0-2.08.77-4.05,2.15-5.58l3.44-3.81c.66-.73,1.03-1.68,1.03-2.67,0-1.13-.93-2.05-2.08-2.05h-2.21c-1.15,0-2.08.92-2.08,2.05v1.67h-6.85v-1.67c0-4.89,4-8.87,8.92-8.87h2.21c4.92,0,8.92,3.98,8.92,8.87,0,2.67-.99,5.24-2.79,7.23l-3.44,3.81c-.26.29-.4.63-.4,1l-.03,2.98h-6.79Z"/>
      <path d="M54.6,38.24c4,0,7.25,3.23,7.25,7.2,0,2.26-.84,4.43-2.35,6.11l-3.44,3.81c-.53.59-.83,1.32-.83,2.12v1.31h-3.49v-1.31c0-1.65.6-3.21,1.71-4.44l3.44-3.81c.94-1.04,1.46-2.39,1.46-3.79,0-2.05-1.68-3.72-3.75-3.72h-2.21c-2.07,0-3.75,1.67-3.75,3.72h-3.5c0-3.97,3.25-7.2,7.25-7.2h2.21M54.6,34.9h-2.21c-5.84,0-10.6,4.73-10.6,10.54v3.34h10.19v-3.34c0-.2.19-.38.4-.38h2.21c.22,0,.4.17.4.38,0,.57-.21,1.12-.6,1.55l-3.44,3.81c-1.66,1.83-2.57,4.2-2.58,6.67v1.36s.04,3.31.04,3.31h10.1l.03-3.31v-1.26s3.42-3.78,3.42-3.78c2.07-2.3,3.22-5.26,3.22-8.35,0-5.81-4.75-10.54-10.6-10.54h0Z"/>
    </g>
  </g>
</svg>