<?xml version="1.0" encoding="UTF-8"?>
<svg id="Layer_1" xmlns="http://www.w3.org/2000/svg" version="1.1" viewBox="0 0 107 107">
  <!-- Generator: Adobe Illustrator 30.1.0, SVG Export Plug-In . SVG Version: 2.1.1 Build 136)  -->
  <circle id="Outer" cx="53.5" cy="53.5" r="42.23" fill="none" stroke="#000" stroke-width="22.54"/>
  <g>
    <g>
      <rect x="50.04" y="66.11" width="6.87" height="6.87"/>
      <path d="M55.07,67.95v3.19h-3.19v-3.19h3.19M58.75,64.27h-10.55v10.55h10.55v-10.55h0Z"/>
    </g>
    <g>
      <path d="M50.06,60.01l-.03-3.03c0-1.99.74-3.87,2.06-5.33l3.16-3.5c.56-.62.87-1.42.87-2.25,0-.87-.72-1.58-1.6-1.58h-2.03c-.88,0-1.6.71-1.6,1.58v1.84h-6.9v-1.84c0-4.66,3.81-8.45,8.5-8.45h2.03c4.69,0,8.5,3.79,8.5,8.45,0,2.53-.94,4.96-2.64,6.85l-3.16,3.5c-.19.21-.29.45-.29.72l-.03,3.04h-6.83Z"/>
      <path d="M54.51,39.29c3.67,0,6.66,2.97,6.66,6.61,0,2.08-.77,4.07-2.16,5.61l-3.16,3.5c-.49.54-.76,1.21-.76,1.94v1.21h-3.2v-1.21c0-1.51.55-2.95,1.57-4.08l3.16-3.5c.87-.96,1.34-2.19,1.34-3.48,0-1.89-1.54-3.42-3.44-3.42h-2.03c-1.9,0-3.44,1.53-3.44,3.42h-3.22c0-3.65,2.99-6.61,6.66-6.61h2.03M54.51,35.61h-2.03c-5.7,0-10.34,4.62-10.34,10.29v3.68h9.34l-.76.84c-1.62,1.79-2.52,4.11-2.53,6.53v1.25s.04,3.65.04,3.65h10.48l.04-3.64v-.92s2.99-3.3,2.99-3.3c2.01-2.22,3.11-5.09,3.11-8.08,0-5.68-4.64-10.29-10.34-10.29h0ZM52.72,46.16h1.54c-.05.28-.18.54-.37.76l-1.17,1.29v-2.05h0Z"/>
    </g>
  </g>
</svg>