<?xml version="1.0" encoding="UTF-8"?>
<svg id="Layer_1" xmlns="http://www.w3.org/2000/svg" version="1.1" viewBox="0 0 97 97">
  <!-- Generator: Adobe Illustrator 30.1.0, SVG Export Plug-In . SVG Version: 2.1.1 Build 136)  -->
  <path d="M48.5,8.43c1.3,0,2.61.68,3.29,2.03l8.38,16.64c1.44,2.86,4.12,4.88,7.26,5.46l18.14,3.4c2.84.53,3.99,3.98,2.04,6.11l-13.21,14.5c-2.04,2.24-2.99,5.26-2.59,8.27l2.58,19.55c.31,2.33-1.55,4.18-3.65,4.18-.56,0-1.13-.13-1.68-.41l-15.86-8.17c-1.47-.76-3.08-1.14-4.69-1.14-1.61,0-3.22.38-4.69,1.14l-15.86,8.17c-.55.29-1.13.41-1.68.41-2.1,0-3.96-1.85-3.65-4.18l2.58-19.56c.4-3-.55-6.02-2.59-8.26l-13.22-14.5c-1.95-2.14-.8-5.59,2.04-6.12l18.14-3.4c3.14-.59,5.82-2.61,7.26-5.46l8.38-16.64c.68-1.35,1.98-2.03,3.29-2.03M48.5,0C43.9,0,39.76,2.55,37.69,6.66l-8.38,16.64c-.25.5-.73.87-1.28.97l-18.14,3.4c-4.31.81-7.86,3.9-9.25,8.06-1.4,4.17-.42,8.77,2.53,12.02l13.22,14.5c.36.4.53.94.46,1.48l-2.58,19.56c-.46,3.46.6,6.95,2.89,9.57,2.31,2.63,5.63,4.14,9.11,4.14,1.91,0,3.83-.47,5.54-1.35l15.86-8.17c.26-.13.54-.2.83-.2.29,0,.57.07.83.2l15.86,8.17c1.71.88,3.63,1.35,5.54,1.35,3.48,0,6.8-1.51,9.11-4.14,2.29-2.62,3.35-6.1,2.89-9.57l-2.58-19.55c-.07-.54.1-1.09.47-1.49l13.21-14.5c2.96-3.25,3.93-7.85,2.53-12.01-1.39-4.16-4.94-7.25-9.25-8.06l-18.14-3.4c-.55-.1-1.03-.47-1.29-.97l-8.38-16.64C57.24,2.55,53.1,0,48.5,0h0Z"/>
</svg>