<?xml version="1.0" encoding="UTF-8"?>
<svg id="Layer_1" xmlns="http://www.w3.org/2000/svg" version="1.1" viewBox="0 0 91 91">
  <!-- Generator: Adobe Illustrator 30.1.0, SVG Export Plug-In . SVG Version: 2.1.1 Build 136)  -->
  <g>
    <g>
      <rect x="42.2" y="25.94" width="6.6" height="6.6"/>
      <path d="M47.66,27.08v4.33h-4.33v-4.33h4.33M49.94,24.81h-8.88v8.88h8.88v-8.88h0Z"/>
    </g>
    <g>
      <polygon points="37.87 64.4 37.87 57.8 42.2 57.8 42.2 46.57 37.87 46.57 37.87 39.96 48.8 39.96 48.8 57.8 53.13 57.8 53.13 64.4 37.87 64.4"/>
      <path d="M47.66,41.1v17.84h4.33v4.33h-12.98v-4.33h4.33v-13.51h-4.33v-4.33h8.66M49.94,38.83h-13.21v8.88h4.33v8.96h-4.33v8.88h17.53v-8.88h-4.33v-17.84h0Z"/>
    </g>
  </g>
  <circle id="Outer" cx="45.5" cy="45.5" r="38.32" fill="none" stroke="#000" stroke-width="14.36"/>
</svg>