<?xml version="1.0" encoding="UTF-8"?>
<svg id="Layer_1" xmlns="http://www.w3.org/2000/svg" version="1.1" viewBox="0 0 91 91">
  <!-- Generator: Adobe Illustrator 30.1.0, SVG Export Plug-In . SVG Version: 2.1.1 Build 136)  -->
  <g>
    <g>
      <rect x="42.11" y="27.66" width="6.78" height="6.78"/>
      <path d="M47.32,29.22v3.65h-3.65v-3.65h3.65M50.45,26.1h-9.9v9.9h9.9v-9.9h0Z"/>
    </g>
    <g>
      <polygon points="38.46 62.35 38.46 55.57 42.11 55.57 42.11 47.31 38.46 47.31 38.46 40.53 48.89 40.53 48.89 55.57 52.54 55.57 52.54 62.35 38.46 62.35"/>
      <path d="M47.32,42.1v15.04h3.65v3.65h-10.95v-3.65h3.65v-11.39h-3.65v-3.65h7.3M50.45,38.97h-13.55v9.9h3.65v5.13h-3.65v9.9h17.2v-9.9h-3.65v-15.04h0Z"/>
    </g>
  </g>
  <circle id="Outer" cx="45.5" cy="45.5" r="35.92" fill="none" stroke="#000" stroke-width="19.17"/>
</svg>