<?xml version="1.0" encoding="UTF-8"?>
<svg id="Layer_1" xmlns="http://www.w3.org/2000/svg" version="1.1" viewBox="0 0 118 118">
  <!-- Generator: Adobe Illustrator 30.1.0, SVG Export Plug-In . SVG Version: 2.1.1 Build 136)  -->
  <path d="M59,18.62c1.31,0,2.63.68,3.31,2.04l8.45,16.77c1.45,2.88,4.15,4.91,7.32,5.51l18.28,3.43c2.86.54,4.02,4.01,2.06,6.16l-13.32,14.61c-2.05,2.25-3.01,5.3-2.61,8.33l2.6,19.7c.31,2.35-1.56,4.21-3.68,4.21-.56,0-1.14-.13-1.7-.42l-15.99-8.23c-1.48-.76-3.1-1.14-4.72-1.14-1.62,0-3.24.38-4.72,1.14l-15.99,8.23c-.56.29-1.14.42-1.7.42-2.11,0-3.99-1.86-3.68-4.21l2.6-19.71c.4-3.02-.56-6.07-2.61-8.32l-13.32-14.61c-1.96-2.15-.8-5.63,2.06-6.16l18.27-3.43c3.16-.59,5.86-2.63,7.31-5.5l8.45-16.77c.69-1.36,2-2.04,3.31-2.04M59,0C50.52,0,42.87,4.71,39.06,12.29l-6.6,13.11-14.23,2.67c-7.95,1.49-14.49,7.18-17.06,14.86-2.57,7.68-.78,16.17,4.67,22.15l10.72,11.77-2.1,15.9c-.84,6.38,1.1,12.81,5.34,17.64,4.25,4.85,10.37,7.63,16.8,7.63,3.53,0,7.07-.86,10.22-2.48l12.18-6.27,12.18,6.27c3.16,1.63,6.69,2.48,10.22,2.48,6.43,0,12.55-2.78,16.8-7.63,4.23-4.83,6.18-11.26,5.34-17.64l-2.1-15.89,10.73-11.77c5.45-5.98,7.24-14.47,4.67-22.15-2.57-7.67-9.11-13.37-17.06-14.86l-14.24-2.67-6.6-13.11C75.12,4.71,67.48,0,59,0h0Z"/>
</svg>