<?xml version="1.0" encoding="UTF-8"?>
<svg id="Layer_1" xmlns="http://www.w3.org/2000/svg" version="1.1" viewBox="0 0 118 118">
  <!-- Generator: Adobe Illustrator 30.1.0, SVG Export Plug-In . SVG Version: 2.1.1 Build 136)  -->
  <path d="M59,14.42c1.45,0,2.9.75,3.66,2.26l9.33,18.51c1.6,3.18,4.59,5.42,8.08,6.08l20.18,3.78c3.15.59,4.43,4.43,2.27,6.8l-14.7,16.13c-2.27,2.49-3.32,5.86-2.88,9.2l2.87,21.75c.34,2.6-1.73,4.65-4.06,4.65-.62,0-1.26-.14-1.87-.46l-17.65-9.09c-1.64-.84-3.42-1.26-5.21-1.26-1.79,0-3.58.42-5.21,1.26l-17.65,9.09c-.62.32-1.25.46-1.87.46-2.33,0-4.4-2.06-4.06-4.65l2.87-21.76c.44-3.34-.61-6.7-2.88-9.19l-14.7-16.13c-2.17-2.38-.89-6.21,2.27-6.81l20.18-3.78c3.49-.65,6.47-2.9,8.07-6.08l9.33-18.52c.76-1.5,2.21-2.26,3.66-2.26M59,0c-7.03,0-13.37,3.9-16.53,10.19l-8.66,17.18-18.7,3.51c-6.59,1.24-12.01,5.96-14.15,12.32-2.13,6.37-.65,13.41,3.87,18.37l13.76,15.1-2.69,20.38c-.7,5.29.91,10.62,4.42,14.63,3.53,4.02,8.6,6.33,13.93,6.33,2.92,0,5.85-.71,8.47-2.06l16.26-8.37,16.26,8.37c2.62,1.35,5.55,2.06,8.47,2.06,5.33,0,10.4-2.31,13.93-6.33,3.51-4,5.12-9.33,4.42-14.63l-2.69-20.38,13.77-15.11c4.52-4.96,6.01-12,3.87-18.37-2.13-6.36-7.55-11.08-14.14-12.32l-18.7-3.51-8.66-17.18c-3.17-6.28-9.5-10.19-16.53-10.19h0Z"/>
</svg>