<?xml version="1.0" encoding="UTF-8"?>
<svg id="Layer_1" xmlns="http://www.w3.org/2000/svg" version="1.1" viewBox="0 0 118 118">
  <!-- Generator: Adobe Illustrator 30.1.0, SVG Export Plug-In . SVG Version: 2.1.1 Build 136)  -->
  <path d="M59,8.19c1.65,0,3.3.86,4.17,2.57l10.63,21.1c1.82,3.62,5.23,6.18,9.21,6.93l23,4.31c3.6.67,5.05,5.04,2.59,7.75l-16.76,18.39c-2.59,2.84-3.79,6.67-3.29,10.48l3.27,24.79c.39,2.96-1.97,5.3-4.63,5.3-.71,0-1.43-.16-2.13-.53l-20.12-10.36c-1.86-.96-3.9-1.44-5.94-1.44s-4.08.48-5.94,1.44l-20.12,10.36c-.7.36-1.43.53-2.13.53-2.66,0-5.02-2.34-4.63-5.3l3.27-24.8c.5-3.8-.7-7.64-3.28-10.47l-16.76-18.39c-2.47-2.71-1.01-7.08,2.59-7.76l23-4.31c3.98-.75,7.38-3.31,9.2-6.92l10.63-21.11c.86-1.71,2.52-2.57,4.17-2.57M59,0C54.12,0,49.72,2.71,47.52,7.07l-10.63,21.11c-.67,1.33-1.94,2.29-3.4,2.56l-23,4.31c-4.58.86-8.34,4.14-9.82,8.56-1.48,4.42-.45,9.31,2.69,12.76l16.76,18.39c.96,1.05,1.4,2.47,1.22,3.89l-3.27,24.8c-.49,3.68.63,7.38,3.07,10.15,2.45,2.8,5.98,4.4,9.68,4.4,2.03,0,4.06-.5,5.88-1.43l20.12-10.36c.68-.35,1.43-.53,2.19-.53s1.52.18,2.19.53l20.12,10.36c1.82.94,3.86,1.43,5.88,1.43,3.7,0,7.22-1.6,9.68-4.4,2.43-2.78,3.55-6.48,3.07-10.15l-3.27-24.79c-.19-1.42.26-2.84,1.22-3.9l16.76-18.39c3.14-3.45,4.17-8.33,2.69-12.76-1.48-4.42-5.24-7.7-9.82-8.55l-23-4.31c-1.46-.27-2.73-1.23-3.4-2.57l-10.63-21.1C68.28,2.71,63.88,0,59,0h0Z"/>
</svg>