<?xml version="1.0" encoding="UTF-8"?>
<svg id="Layer_1" xmlns="http://www.w3.org/2000/svg" version="1.1" viewBox="0 0 118 118">
  <!-- Generator: Adobe Illustrator 30.1.0, SVG Export Plug-In . SVG Version: 2.1.1 Build 136)  -->
  <path d="M59,22.79c1.18,0,2.35.61,2.97,1.83l7.58,15.04c1.3,2.58,3.73,4.41,6.56,4.94l16.39,3.07c2.56.48,3.6,3.59,1.84,5.52l-11.94,13.1c-1.84,2.02-2.7,4.76-2.34,7.47l2.33,17.67c.28,2.11-1.4,3.78-3.3,3.78-.5,0-1.02-.12-1.52-.37l-14.34-7.38c-1.33-.68-2.78-1.03-4.23-1.03s-2.91.34-4.23,1.03l-14.34,7.38c-.5.26-1.02.37-1.52.37-1.9,0-3.57-1.67-3.3-3.78l2.33-17.67c.36-2.71-.5-5.44-2.34-7.46l-11.94-13.1c-1.76-1.93-.72-5.05,1.85-5.53l16.39-3.07c2.83-.53,5.26-2.36,6.56-4.93l7.58-15.04c.62-1.22,1.79-1.83,2.97-1.83M59,0C49.08,0,40.14,5.51,35.68,14.37l-4.57,9.06-9.8,1.84c-9.3,1.74-16.95,8.4-19.95,17.38-3.01,8.98-.91,18.9,5.46,25.9l7.71,8.46-1.51,11.45c-.98,7.46,1.29,14.98,6.25,20.63,4.97,5.67,12.13,8.91,19.64,8.91,4.13,0,8.27-1,11.95-2.9l8.14-4.19,8.14,4.19c3.69,1.9,7.82,2.9,11.95,2.9,7.52,0,14.68-3.25,19.64-8.91,4.95-5.65,7.23-13.17,6.25-20.63l-1.51-11.45,7.71-8.46c6.38-7,8.47-16.92,5.46-25.9-3.01-8.97-10.65-15.63-19.95-17.38l-9.81-1.84-4.57-9.06C77.86,5.51,68.92,0,59,0h0Z"/>
</svg>