<?xml version="1.0" encoding="UTF-8"?>
<svg id="Layer_1" xmlns="http://www.w3.org/2000/svg" version="1.1" viewBox="0 0 61 61">
  <!-- Generator: Adobe Illustrator 30.1.0, SVG Export Plug-In . SVG Version: 2.1.1 Build 136)  -->
  <path d="M30.5,4.23c.85,0,1.71.44,2.15,1.33l5.5,10.91c.94,1.87,2.7,3.2,4.76,3.58l11.89,2.23c1.86.35,2.61,2.61,1.34,4.01l-8.66,9.51c-1.34,1.47-1.96,3.45-1.7,5.42l1.69,12.82c.2,1.53-1.02,2.74-2.39,2.74-.36,0-.74-.09-1.1-.27l-10.4-5.36c-.96-.5-2.02-.74-3.07-.74-1.05,0-2.11.25-3.07.74l-10.4,5.36c-.36.19-.74.27-1.1.27-1.37,0-2.59-1.21-2.39-2.74l1.69-12.82c.26-1.97-.36-3.95-1.7-5.41l-8.66-9.51c-1.28-1.4-.52-3.66,1.34-4.01l11.89-2.23c2.06-.39,3.81-1.71,4.76-3.58l5.5-10.91c.45-.89,1.3-1.33,2.15-1.33M30.5,0C27.98,0,25.7,1.4,24.57,3.66l-5.5,10.91c-.35.69-1,1.18-1.76,1.32l-11.89,2.23c-2.37.44-4.31,2.14-5.08,4.42-.77,2.29-.23,4.81,1.39,6.6l8.66,9.51c.5.54.73,1.28.63,2.01l-1.69,12.82c-.25,1.9.33,3.81,1.58,5.25,1.27,1.45,3.09,2.28,5,2.28,1.05,0,2.1-.26,3.04-.74l10.4-5.36c.35-.18.74-.28,1.13-.28.39,0,.78.1,1.13.28l10.4,5.36c.94.49,1.99.74,3.04.74,1.91,0,3.73-.83,5-2.28,1.26-1.43,1.84-3.35,1.58-5.25l-1.69-12.82c-.1-.73.13-1.47.63-2.02l8.66-9.51c1.62-1.78,2.16-4.31,1.39-6.59-.77-2.28-2.71-3.98-5.08-4.42l-11.89-2.23c-.75-.14-1.41-.64-1.76-1.33l-5.5-10.91C35.3,1.4,33.02,0,30.5,0h0Z"/>
</svg>