<?xml version="1.0" encoding="UTF-8"?>
<svg id="Layer_1" xmlns="http://www.w3.org/2000/svg" version="1.1" viewBox="0 0 60 60">
  <!-- Generator: Adobe Illustrator 30.1.0, SVG Export Plug-In . SVG Version: 2.1.1 Build 136)  -->
  <path d="M30,9.47c.67,0,1.34.35,1.68,1.04l4.3,8.53c.74,1.46,2.11,2.5,3.72,2.8l9.29,1.74c1.45.27,2.04,2.04,1.05,3.13l-6.77,7.43c-1.04,1.15-1.53,2.7-1.33,4.24l1.32,10.02c.16,1.2-.79,2.14-1.87,2.14-.28,0-.58-.07-.86-.21l-8.13-4.19c-.75-.39-1.58-.58-2.4-.58s-1.65.19-2.4.58l-8.13,4.19c-.28.15-.58.21-.86.21-1.07,0-2.03-.95-1.87-2.14l1.32-10.02c.2-1.54-.28-3.09-1.33-4.23l-6.77-7.43c-1-1.09-.41-2.86,1.05-3.13l9.29-1.74c1.61-.3,2.98-1.34,3.72-2.8l4.3-8.53c.35-.69,1.02-1.04,1.68-1.04M30,0C25.69,0,21.8,2.39,19.86,6.25l-3.36,6.66-7.24,1.36c-4.04.76-7.37,3.65-8.68,7.56-1.31,3.9-.4,8.22,2.38,11.26l5.45,5.98-1.07,8.08c-.43,3.25.56,6.51,2.71,8.97,2.16,2.46,5.27,3.88,8.54,3.88,1.8,0,3.59-.44,5.2-1.26l6.19-3.19,6.19,3.19c1.6.83,3.4,1.26,5.2,1.26,3.27,0,6.38-1.41,8.54-3.88,2.15-2.46,3.14-5.73,2.71-8.97l-1.07-8.08,5.45-5.98c2.77-3.04,3.68-7.36,2.38-11.26-1.31-3.9-4.63-6.8-8.67-7.55l-7.24-1.36-3.36-6.66C38.2,2.39,34.31,0,30,0h0Z"/>
</svg>