<?xml version="1.0" encoding="UTF-8"?>
<svg id="Layer_1" xmlns="http://www.w3.org/2000/svg" version="1.1" viewBox="0 0 60 60">
  <!-- Generator: Adobe Illustrator 30.1.0, SVG Export Plug-In . SVG Version: 2.1.1 Build 136)  -->
  <path d="M30,12.64c.56,0,1.13.29,1.42.88l3.63,7.21c.62,1.24,1.79,2.11,3.15,2.37l7.86,1.47c1.23.23,1.73,1.72.88,2.65l-5.73,6.28c-.88.97-1.29,2.28-1.12,3.58l1.12,8.47c.13,1.01-.67,1.81-1.58,1.81-.24,0-.49-.06-.73-.18l-6.87-3.54c-.64-.33-1.33-.49-2.03-.49s-1.39.16-2.03.49l-6.87,3.54c-.24.12-.49.18-.73.18-.91,0-1.71-.8-1.58-1.81l1.12-8.47c.17-1.3-.24-2.61-1.12-3.58l-5.73-6.28c-.84-.93-.34-2.42.88-2.65l7.86-1.47c1.36-.25,2.52-1.13,3.14-2.37l3.63-7.21c.29-.59.86-.88,1.42-.88M30,0C24.59,0,19.72,3,17.29,7.83l-1.81,3.59-3.87.73c-5.07.95-9.24,4.58-10.87,9.47-1.64,4.89-.5,10.3,2.98,14.11l3.16,3.47-.62,4.7c-.54,4.07.7,8.16,3.4,11.24,2.71,3.09,6.61,4.86,10.71,4.86,2.25,0,4.51-.55,6.52-1.58l3.12-1.61,3.12,1.61c2.01,1.04,4.26,1.58,6.52,1.58,4.1,0,8-1.77,10.71-4.86,2.7-3.08,3.94-7.18,3.4-11.24l-.62-4.7,3.16-3.47c3.47-3.81,4.62-9.22,2.98-14.11-1.64-4.89-5.8-8.52-10.87-9.47l-3.87-.73-1.81-3.59C40.28,3,35.41,0,30,0h0Z"/>
</svg>