<?xml version="1.0" encoding="UTF-8"?>
<svg id="Layer_1" xmlns="http://www.w3.org/2000/svg" version="1.1" viewBox="0 0 60 60">
  <!-- Generator: Adobe Illustrator 30.1.0, SVG Export Plug-In . SVG Version: 2.1.1 Build 136)  -->
  <path d="M30,7.33c.74,0,1.47.38,1.86,1.15l4.74,9.41c.81,1.62,2.33,2.76,4.11,3.09l10.26,1.92c1.6.3,2.25,2.25,1.15,3.46l-7.48,8.2c-1.15,1.27-1.69,2.98-1.47,4.68l1.46,11.06c.17,1.32-.88,2.36-2.06,2.36-.31,0-.64-.07-.95-.23l-8.97-4.62c-.83-.43-1.74-.64-2.65-.64s-1.82.21-2.65.64l-8.97,4.62c-.31.16-.64.23-.95.23-1.19,0-2.24-1.04-2.06-2.36l1.46-11.06c.22-1.7-.31-3.41-1.46-4.67l-7.48-8.2c-1.1-1.21-.45-3.16,1.16-3.46l10.26-1.92c1.77-.33,3.29-1.47,4.1-3.09l4.74-9.42c.39-.76,1.12-1.15,1.86-1.15M30,0C26.42,0,23.2,1.98,21.59,5.18l-4.4,8.74-9.51,1.78c-3.35.63-6.11,3.03-7.19,6.26-1.08,3.24-.33,6.82,1.97,9.34l7,7.68-1.37,10.36c-.35,2.69.46,5.4,2.25,7.44,1.79,2.04,4.37,3.22,7.08,3.22,1.49,0,2.98-.36,4.31-1.05l8.27-4.26,8.27,4.26c1.33.69,2.82,1.05,4.31,1.05,2.71,0,5.29-1.17,7.08-3.22,1.78-2.03,2.6-4.75,2.25-7.44l-1.37-10.36,7-7.68c2.3-2.52,3.05-6.1,1.97-9.34-1.08-3.24-3.84-5.64-7.19-6.26l-9.51-1.78-4.4-8.74C36.8,1.98,33.58,0,30,0h0Z"/>
</svg>