<?xml version="1.0" encoding="UTF-8"?>
<svg id="Layer_1" xmlns="http://www.w3.org/2000/svg" version="1.1" viewBox="0 0 44 44">
  <!-- Generator: Adobe Illustrator 30.1.0, SVG Export Plug-In . SVG Version: 2.1.1 Build 136)  -->
  <path d="M22,9.27c.41,0,.83.21,1.04.64l2.66,5.29c.46.91,1.31,1.55,2.31,1.74l5.76,1.08c.9.17,1.27,1.26.65,1.94l-4.2,4.61c-.65.71-.95,1.67-.82,2.63l.82,6.21c.1.74-.49,1.33-1.16,1.33-.18,0-.36-.04-.53-.13l-5.04-2.6c-.47-.24-.98-.36-1.49-.36-.51,0-1.02.12-1.49.36l-5.04,2.6c-.18.09-.36.13-.53.13-.67,0-1.26-.59-1.16-1.33l.82-6.21c.13-.95-.18-1.91-.82-2.62l-4.2-4.61c-.62-.68-.25-1.77.65-1.94l5.76-1.08c1-.19,1.85-.83,2.31-1.74l2.66-5.29c.22-.43.63-.64,1.04-.64M22,0C18.03,0,14.46,2.2,12.68,5.74l-1.33,2.63-2.84.53c-3.72.7-6.77,3.36-7.97,6.94-1.2,3.59-.37,7.55,2.18,10.35l2.32,2.54-.45,3.45c-.39,2.98.52,5.99,2.5,8.25,1.98,2.26,4.85,3.56,7.85,3.56,1.65,0,3.3-.4,4.78-1.16l2.29-1.18,2.29,1.18c1.47.76,3.13,1.16,4.78,1.16,3,0,5.87-1.3,7.85-3.56,1.98-2.26,2.89-5.26,2.5-8.25l-.45-3.45,2.32-2.55c2.55-2.8,3.38-6.76,2.18-10.35-1.2-3.59-4.26-6.25-7.97-6.94l-2.84-.53-1.33-2.63C29.54,2.2,25.96,0,22,0h0Z"/>
</svg>