<?xml version="1.0" encoding="UTF-8"?>
<svg id="Layer_1" xmlns="http://www.w3.org/2000/svg" version="1.1" viewBox="0 0 44 44">
  <!-- Generator: Adobe Illustrator 30.1.0, SVG Export Plug-In . SVG Version: 2.1.1 Build 136)  -->
  <path d="M22,8.5c.44,0,.88.23,1.11.68l2.82,5.61c.48.96,1.39,1.64,2.45,1.84l6.11,1.15c.96.18,1.34,1.34.69,2.06l-4.45,4.89c-.69.75-1.01,1.77-.87,2.79l.87,6.59c.1.79-.52,1.41-1.23,1.41-.19,0-.38-.04-.57-.14l-5.35-2.75c-.5-.26-1.04-.38-1.58-.38-.54,0-1.08.13-1.58.38l-5.35,2.75c-.19.1-.38.14-.57.14-.71,0-1.33-.62-1.23-1.41l.87-6.59c.13-1.01-.19-2.03-.87-2.78l-4.45-4.89c-.66-.72-.27-1.88.69-2.06l6.11-1.15c1.06-.2,1.96-.88,2.44-1.84l2.83-5.61c.23-.46.67-.68,1.11-.68M22,0C18.3,0,14.97,2.05,13.3,5.36l-1.7,3.38-3.65.69c-3.47.65-6.32,3.13-7.44,6.48-1.12,3.35-.34,7.05,2.04,9.66l2.87,3.15-.56,4.27c-.37,2.78.48,5.59,2.33,7.69,1.85,2.11,4.52,3.32,7.33,3.32,1.54,0,3.08-.37,4.46-1.08l3.03-1.56,3.03,1.56c1.38.71,2.92,1.08,4.46,1.08,2.8,0,5.47-1.21,7.33-3.32,1.85-2.11,2.7-4.91,2.33-7.69l-.56-4.27,2.88-3.16c2.38-2.61,3.16-6.31,2.04-9.66-1.12-3.35-3.97-5.83-7.44-6.48l-3.66-.69-1.7-3.38C29.03,2.05,25.7,0,22,0h0Z"/>
</svg>