<?xml version="1.0" encoding="UTF-8"?>
<svg id="Layer_1" xmlns="http://www.w3.org/2000/svg" version="1.1" viewBox="0 0 44 44">
  <!-- Generator: Adobe Illustrator 30.1.0, SVG Export Plug-In . SVG Version: 2.1.1 Build 136)  -->
  <path d="M22,6.94c.49,0,.98.25,1.23.76l3.15,6.25c.54,1.07,1.55,1.83,2.73,2.05l6.81,1.28c1.07.2,1.5,1.49.77,2.3l-4.97,5.45c-.77.84-1.12,1.98-.97,3.11l.97,7.35c.12.88-.58,1.57-1.37,1.57-.21,0-.42-.05-.63-.16l-5.96-3.07c-.55-.28-1.16-.43-1.76-.43s-1.21.14-1.76.43l-5.96,3.07c-.21.11-.42.16-.63.16-.79,0-1.49-.69-1.37-1.57l.97-7.35c.15-1.13-.21-2.26-.97-3.1l-4.97-5.45c-.73-.8-.3-2.1.77-2.3l6.81-1.28c1.18-.22,2.19-.98,2.73-2.05l3.15-6.25c.26-.51.75-.76,1.23-.76M22,0C18.84,0,15.99,1.76,14.56,4.58l-2.46,4.89-5.31.99c-2.97.56-5.4,2.68-6.36,5.54-.96,2.86-.29,6.03,1.74,8.26l4,4.39-.78,5.93c-.31,2.38.41,4.78,1.99,6.58,1.58,1.81,3.87,2.84,6.26,2.84,1.32,0,2.63-.32,3.81-.93l4.54-2.34,4.54,2.34c1.18.61,2.49.93,3.81.93,2.4,0,4.68-1.04,6.26-2.84,1.58-1.8,2.3-4.2,1.99-6.58l-.78-5.93,4-4.39c2.03-2.23,2.7-5.4,1.74-8.26-.96-2.86-3.4-4.98-6.36-5.54l-5.31-.99-2.46-4.89C28.01,1.76,25.16,0,22,0h0Z"/>
</svg>