<?xml version="1.0" encoding="UTF-8"?>
<svg id="Layer_1" xmlns="http://www.w3.org/2000/svg" version="1.1" viewBox="0 0 44 44">
  <!-- Generator: Adobe Illustrator 30.1.0, SVG Export Plug-In . SVG Version: 2.1.1 Build 136)  -->
  <path d="M22,3.82c.59,0,1.18.31,1.49.92l3.8,7.55c.65,1.3,1.87,2.21,3.29,2.48l8.23,1.54c1.29.24,1.81,1.8.93,2.77l-5.99,6.58c-.92,1.01-1.36,2.39-1.18,3.75l1.17,8.87c.14,1.06-.7,1.9-1.65,1.9-.25,0-.51-.06-.76-.19l-7.2-3.71c-.67-.34-1.4-.52-2.13-.52-.73,0-1.46.17-2.13.52l-7.2,3.71c-.25.13-.51.19-.76.19-.95,0-1.79-.84-1.65-1.9l1.17-8.87c.18-1.36-.25-2.73-1.17-3.75l-5.99-6.58c-.88-.97-.36-2.53.93-2.77l8.23-1.54c1.42-.27,2.64-1.18,3.29-2.48l3.8-7.55c.31-.61.9-.92,1.49-.92M22,0c-2.09,0-3.97,1.16-4.9,3.02l-3.8,7.55c-.12.23-.33.39-.58.44l-8.23,1.54c-1.96.37-3.56,1.77-4.2,3.66-.63,1.89-.19,3.98,1.15,5.45l5.99,6.58c.17.18.24.43.21.67l-1.17,8.87c-.21,1.57.27,3.15,1.31,4.34,1.05,1.19,2.55,1.88,4.13,1.88.87,0,1.74-.21,2.51-.61l7.2-3.71c.12-.06.24-.09.38-.09.13,0,.26.03.38.09l7.2,3.71c.78.4,1.65.61,2.51.61,1.58,0,3.09-.69,4.13-1.88,1.04-1.19,1.52-2.77,1.31-4.34l-1.17-8.87c-.03-.25.04-.49.21-.68l5.99-6.58c1.34-1.47,1.78-3.56,1.15-5.45-.63-1.89-2.24-3.29-4.2-3.65l-8.23-1.54c-.25-.05-.47-.21-.58-.44l-3.8-7.55c-.94-1.86-2.82-3.02-4.9-3.02h0Z"/>
</svg>