<?xml version="1.0" encoding="UTF-8"?>
<svg id="Layer_1" xmlns="http://www.w3.org/2000/svg" version="1.1" viewBox="0 0 44 44">
  <!-- Generator: Adobe Illustrator 30.1.0, SVG Export Plug-In . SVG Version: 2.1.1 Build 136)  -->
  <path d="M22,3.05c.62,0,1.23.32,1.55.96l3.96,7.87c.68,1.35,1.95,2.31,3.43,2.58l8.58,1.61c1.34.25,1.88,1.88.96,2.89l-6.25,6.86c-.96,1.06-1.41,2.49-1.23,3.91l1.22,9.24c.15,1.1-.73,1.98-1.73,1.98-.26,0-.53-.06-.8-.2l-7.5-3.86c-.7-.36-1.46-.54-2.22-.54-.76,0-1.52.18-2.22.54l-7.5,3.86c-.26.13-.53.2-.8.2-.99,0-1.87-.87-1.73-1.98l1.22-9.25c.19-1.42-.26-2.85-1.22-3.9l-6.25-6.86c-.92-1.01-.38-2.64.97-2.89l8.57-1.61c1.48-.28,2.75-1.23,3.43-2.58l3.96-7.87c.32-.64.94-.96,1.55-.96M22,0c-1.82,0-3.46,1.01-4.28,2.64l-3.96,7.87c-.25.5-.72.85-1.27.96l-8.57,1.61c-1.71.32-3.11,1.54-3.66,3.19-.55,1.65-.17,3.47,1,4.76l6.25,6.86c.36.39.52.92.45,1.45l-1.22,9.25c-.18,1.37.24,2.75,1.14,3.79.91,1.04,2.23,1.64,3.61,1.64.76,0,1.51-.18,2.19-.53l7.5-3.86c.25-.13.53-.2.82-.2.28,0,.57.07.82.2l7.5,3.86c.68.35,1.44.53,2.19.53,1.38,0,2.69-.6,3.61-1.64.91-1.03,1.32-2.41,1.14-3.79l-1.22-9.24c-.07-.53.1-1.06.45-1.45l6.25-6.86c1.17-1.29,1.56-3.11,1-4.76-.55-1.65-1.95-2.87-3.66-3.19l-8.58-1.61c-.54-.1-1.02-.46-1.27-.96l-3.96-7.87c-.82-1.63-2.46-2.64-4.28-2.64h0Z"/>
</svg>