<?xml version="1.0" encoding="UTF-8"?>
<svg id="Layer_1" xmlns="http://www.w3.org/2000/svg" version="1.1" viewBox="0 0 18 18">
  <!-- Generator: Adobe Illustrator 30.1.0, SVG Export Plug-In . SVG Version: 2.1.1 Build 136)  -->
  <circle id="Outer" cx="9" cy="9" r="8.38" fill="none" stroke="#000" stroke-width="1.25"/>
  <g>
    <g>
      <rect x="8.43" y="12.09" width="1.13" height="1.13"/>
      <path d="M9.47,12.17v.96h-.96v-.96h.96M9.64,12.01h-1.3v1.3h1.3v-1.3h0Z"/>
    </g>
    <g>
      <path d="M8.43,10.83v-.45c0-.48.17-.93.49-1.28l.95-1.05c.25-.27.38-.62.38-.99,0-.52-.43-.94-.95-.94h-.61c-.52,0-.95.42-.95.94v.08h-1.14v-.08c0-1.14.94-2.07,2.09-2.07h.61c1.15,0,2.08.93,2.08,2.07,0,.64-.24,1.26-.67,1.74l-.95,1.05c-.13.15-.21.33-.21.53v.45h-1.13Z"/>
      <path d="M9.3,5.08c1.1,0,2,.89,2,1.99,0,.62-.23,1.22-.65,1.69l-.95,1.05c-.15.16-.23.36-.23.58v.36h-.96v-.36c0-.45.17-.89.47-1.22l.95-1.05c.26-.29.4-.66.4-1.05,0-.57-.46-1.03-1.03-1.03h-.61c-.57,0-1.03.46-1.03,1.03h-.97c0-1.1.9-1.99,2-1.99h.61M9.3,4.91h-.61c-1.2,0-2.17.97-2.17,2.16v.17h1.3v-.17c0-.47.39-.86.87-.86h.61c.48,0,.87.39.87.86,0,.34-.13.68-.36.93l-.95,1.05c-.33.37-.52.84-.52,1.34v.36s0,.17,0,.17h1.29v-.17s0-.36,0-.36c0-.18.06-.34.19-.47l.95-1.05c.45-.5.69-1.13.69-1.8,0-1.19-.97-2.16-2.17-2.16h0Z"/>
    </g>
  </g>
</svg>