<?xml version="1.0" encoding="UTF-8"?>
<svg id="Layer_1" xmlns="http://www.w3.org/2000/svg" version="1.1" viewBox="0 0 18 18">
  <!-- Generator: Adobe Illustrator 30.1.0, SVG Export Plug-In . SVG Version: 2.1.1 Build 136)  -->
  <circle id="Outer" cx="9" cy="9" r="7.1" fill="none" stroke="#000" stroke-width="3.79"/>
  <g>
    <g>
      <rect x="8.42" y="11.12" width="1.16" height="1.16"/>
      <path d="M9.26,11.43v.54h-.54v-.54h.54M9.88,10.81h-1.77v1.77h1.77v-1.77h0Z"/>
    </g>
    <g>
      <path d="M8.42,10.09v-.51c0-.33.12-.65.34-.9l.53-.59c.09-.1.15-.24.15-.38,0-.15-.12-.27-.27-.27h-.34c-.15,0-.27.12-.27.27v.31h-1.16v-.31c0-.78.64-1.42,1.43-1.42h.34c.79,0,1.43.64,1.43,1.42,0,.43-.16.84-.44,1.15l-.53.59s-.05.08-.05.12v.51h-1.16Z"/>
      <path d="M9.17,6.61c.62,0,1.12.5,1.12,1.11,0,.35-.13.68-.36.94l-.53.59c-.08.09-.13.2-.13.33v.2h-.54v-.2c0-.25.09-.5.26-.69l.53-.59c.15-.16.23-.37.23-.59,0-.32-.26-.58-.58-.58h-.34c-.32,0-.58.26-.58.58h-.54c0-.61.5-1.11,1.12-1.11h.34M9.17,5.99h-.34c-.96,0-1.74.78-1.74,1.73v.62h1.57l-.13.14c-.27.3-.42.69-.43,1.1v.21s0,.61,0,.61h1.76v-.61s0-.16,0-.16l.5-.56c.34-.37.52-.86.52-1.36,0-.95-.78-1.73-1.74-1.73h0ZM8.87,7.77h.26s-.03.09-.06.13l-.2.22v-.34h0Z"/>
    </g>
  </g>
</svg>