<?xml version="1.0" encoding="UTF-8"?>
<svg id="Layer_1" xmlns="http://www.w3.org/2000/svg" version="1.1" viewBox="0 0 18 18">
  <!-- Generator: Adobe Illustrator 30.1.0, SVG Export Plug-In . SVG Version: 2.1.1 Build 136)  -->
  <circle id="Outer" cx="9" cy="9" r="7.9" fill="none" stroke="#000" stroke-width="2.2"/>
  <g>
    <g>
      <rect x="8.43" y="11.73" width="1.13" height="1.13"/>
      <path d="M9.39,11.9v.79h-.79v-.79h.79M9.73,11.56h-1.47v1.47h1.47v-1.47h0Z"/>
    </g>
    <g>
      <path d="M8.43,10.53v-.47c0-.42.15-.82.43-1.13l.78-.87c.19-.21.29-.47.29-.75,0-.37-.31-.68-.69-.68h-.5c-.38,0-.69.3-.69.68v.17h-1.14v-.17c0-1,.82-1.81,1.82-1.81h.5c1,0,1.82.81,1.82,1.81,0,.56-.21,1.09-.58,1.5l-.78.87c-.1.1-.15.23-.15.37v.47h-1.13Z"/>
      <path d="M9.25,5.68c.91,0,1.65.74,1.65,1.64,0,.51-.19,1.01-.54,1.39l-.78.87c-.12.13-.19.3-.19.48v.3h-.79v-.3c0-.37.14-.73.39-1.01l.78-.87c.21-.24.33-.54.33-.86,0-.47-.38-.85-.85-.85h-.5c-.47,0-.85.38-.85.85h-.8c0-.9.74-1.64,1.65-1.64h.5M9.25,5.34h-.5c-1.1,0-1.99.89-1.99,1.98v.34h1.47v-.34c0-.28.23-.51.52-.51h.5c.28,0,.52.23.52.51,0,.24-.09.46-.25.64l-.78.87c-.31.34-.48.78-.48,1.24v.3s0,.33,0,.33h1.46v-.33s0-.3,0-.3c0-.1.03-.18.1-.26l.78-.87c.4-.45.62-1.02.62-1.62,0-1.09-.89-1.98-1.99-1.98h0Z"/>
    </g>
  </g>
</svg>