<?xml version="1.0" encoding="UTF-8"?>
<svg id="Layer_1" xmlns="http://www.w3.org/2000/svg" version="1.1" viewBox="0 0 18 18">
  <!-- Generator: Adobe Illustrator 30.1.0, SVG Export Plug-In . SVG Version: 2.1.1 Build 136)  -->
  <circle id="Outer" cx="9" cy="9" r="8.22" fill="none" stroke="#000" stroke-width="1.56"/>
  <g>
    <g>
      <rect x="8.43" y="11.97" width="1.13" height="1.13"/>
      <path d="M9.45,12.08v.9h-.9v-.9h.9M9.67,11.86h-1.35v1.35h1.35v-1.35h0Z"/>
    </g>
    <g>
      <path d="M8.43,10.73v-.45c0-.46.17-.89.47-1.23l.89-.99c.23-.25.35-.57.35-.91,0-.47-.39-.85-.86-.85h-.57c-.47,0-.86.38-.86.85v.11h-1.13v-.11c0-1.09.9-1.98,2-1.98h.57c1.1,0,2,.89,2,1.98,0,.61-.23,1.2-.64,1.66l-.89.99c-.12.13-.19.3-.19.47v.45h-1.13Z"/>
      <path d="M9.29,5.28c1.04,0,1.88.84,1.88,1.87,0,.59-.22,1.15-.61,1.59l-.89.99c-.14.15-.21.34-.22.55v.34h-.91v-.34c0-.43.16-.83.44-1.15l.89-.99c.24-.27.38-.62.38-.98,0-.53-.44-.97-.97-.97h-.57c-.54,0-.97.43-.97.97h-.91c0-1.03.84-1.87,1.88-1.87h.57M9.29,5.06h-.57c-1.16,0-2.11.94-2.11,2.09v.23h1.36v-.23c0-.41.34-.74.75-.74h.57c.41,0,.75.33.75.74,0,.31-.11.6-.32.83l-.89.99c-.32.36-.5.82-.5,1.3v.34s0,.22,0,.22h1.35v-.22s0-.34,0-.34c0-.15.05-.29.16-.4l.89-.99c.43-.48.67-1.1.67-1.74,0-1.16-.95-2.09-2.11-2.09h0Z"/>
    </g>
  </g>
</svg>