<?xml version="1.0" encoding="UTF-8"?>
<svg id="Layer_1" xmlns="http://www.w3.org/2000/svg" version="1.1" viewBox="0 0 18 18">
  <!-- Generator: Adobe Illustrator 30.1.0, SVG Export Plug-In . SVG Version: 2.1.1 Build 136)  -->
  <circle id="Outer" cx="9" cy="9" r="7.26" fill="none" stroke="#000" stroke-width="3.48"/>
  <g>
    <g>
      <rect x="8.42" y="11.24" width="1.15" height="1.15"/>
      <path d="M9.29,11.52v.58h-.58v-.58h.58M9.85,10.96h-1.71v1.71h1.71v-1.71h0Z"/>
    </g>
    <g>
      <path d="M8.43,10.17v-.5c0-.35.13-.68.36-.94l.58-.64c.11-.12.17-.28.17-.45,0-.19-.16-.34-.35-.34h-.37c-.19,0-.35.15-.35.34v.28h-1.15v-.28c0-.82.67-1.49,1.5-1.49h.37c.83,0,1.5.67,1.5,1.49,0,.45-.17.88-.47,1.22l-.58.64s-.07.11-.07.17v.5h-1.15Z"/>
      <path d="M9.19,6.43c.67,0,1.22.54,1.22,1.21,0,.38-.14.74-.4,1.03l-.58.64c-.09.1-.14.22-.14.36v.22h-.59v-.22c0-.28.1-.54.29-.75l.58-.64c.16-.18.25-.4.25-.64,0-.35-.28-.63-.63-.63h-.37c-.35,0-.63.28-.63.63h-.59c0-.67.55-1.21,1.22-1.21h.37M9.19,5.87h-.37c-.98,0-1.78.8-1.78,1.77v.56h1.71v-.56s.03-.06.07-.06h.37s.07.03.07.06c0,.1-.04.19-.1.26l-.58.64c-.28.31-.43.71-.43,1.12v.23s0,.56,0,.56h1.7v-.56s0-.22,0-.22l.57-.63c.35-.39.54-.89.54-1.4,0-.98-.8-1.77-1.78-1.77h0Z"/>
    </g>
  </g>
</svg>