<?xml version="1.0" encoding="UTF-8"?>
<svg id="Layer_1" xmlns="http://www.w3.org/2000/svg" version="1.1" viewBox="0 0 18 18">
  <!-- Generator: Adobe Illustrator 30.1.0, SVG Export Plug-In . SVG Version: 2.1.1 Build 136)  -->
  <circle id="Outer" cx="9" cy="9" r="7.58" fill="none" stroke="#000" stroke-width="2.84"/>
  <g>
    <g>
      <rect x="8.43" y="11.49" width="1.13" height="1.13"/>
      <path d="M9.34,11.71v.68h-.68v-.68h.68M9.79,11.26h-1.58v1.58h1.58v-1.58h0Z"/>
    </g>
    <g>
      <path d="M8.43,10.34v-.48c0-.38.14-.75.39-1.03l.68-.75c.15-.16.23-.38.23-.6,0-.28-.23-.51-.51-.51h-.44c-.28,0-.51.23-.51.51v.23h-1.14v-.23c0-.91.74-1.64,1.65-1.64h.44c.91,0,1.65.74,1.65,1.64,0,.5-.19.98-.52,1.35l-.68.75c-.07.08-.11.17-.11.27v.48h-1.14Z"/>
      <path d="M9.22,6.07c.79,0,1.43.64,1.43,1.42,0,.45-.16.87-.46,1.2l-.68.75c-.11.12-.16.26-.16.42v.26h-.69v-.26c0-.32.12-.63.34-.87l.68-.75c.19-.21.29-.47.29-.75,0-.4-.33-.73-.74-.73h-.44c-.41,0-.74.33-.74.73h-.69c0-.78.64-1.42,1.43-1.42h.44M9.22,5.62h-.44c-1.04,0-1.88.84-1.88,1.87v.45h1.59v-.45c0-.16.13-.28.29-.28h.44c.16,0,.29.13.29.28,0,.16-.06.32-.17.45l-.68.75c-.29.32-.45.74-.46,1.17v.26s0,.45,0,.45h1.58v-.45s0-.26,0-.26c0-.05.02-.08.05-.12l.68-.75c.37-.41.58-.95.58-1.51,0-1.03-.84-1.87-1.88-1.87h0Z"/>
    </g>
  </g>
</svg>