<?xml version="1.0" encoding="UTF-8"?>
<svg id="Layer_1" xmlns="http://www.w3.org/2000/svg" version="1.1" viewBox="0 0 61 61">
  <!-- Generator: Adobe Illustrator 30.1.0, SVG Export Plug-In . SVG Version: 2.1.1 Build 136)  -->
  <circle id="Outer" cx="30.5" cy="30.5" r="26.77" fill="none" stroke="#000" stroke-width="7.45"/>
  <g>
    <g>
      <rect x="28.57" y="39.76" width="3.83" height="3.83"/>
      <path d="M31.82,40.33v2.68h-2.68v-2.68h2.68M32.97,39.19h-4.97v4.97h4.97v-4.97h0Z"/>
    </g>
    <g>
      <path d="M28.58,35.68v-1.58c0-1.42.52-2.77,1.46-3.81l2.65-2.94c.63-.7.98-1.6.98-2.54,0-1.27-1.04-2.3-2.32-2.3h-1.71c-1.28,0-2.32,1.03-2.32,2.3v.57h-3.85v-.57c0-3.38,2.77-6.13,6.17-6.13h1.71c3.4,0,6.17,2.75,6.17,6.13,0,1.89-.7,3.7-1.97,5.1l-2.66,2.94c-.32.36-.49.79-.49,1.25l-.02,1.58h-3.81Z"/>
      <path d="M31.35,19.24c3.09,0,5.6,2.49,5.6,5.56,0,1.74-.65,3.42-1.82,4.72l-2.66,2.94c-.41.46-.64,1.02-.64,1.63v1.01h-2.69v-1.01c0-1.27.46-2.48,1.32-3.43l2.66-2.94c.73-.81,1.13-1.84,1.13-2.92,0-1.58-1.3-2.87-2.89-2.87h-1.71c-1.6,0-2.89,1.29-2.89,2.87h-2.7c0-3.06,2.51-5.56,5.6-5.56h1.71M31.35,18.1h-1.71c-3.72,0-6.74,3.01-6.74,6.7v1.14h4.99v-1.14c0-.95.78-1.73,1.75-1.73h1.71c.96,0,1.75.78,1.75,1.73,0,.8-.3,1.56-.83,2.16l-2.66,2.94c-1.04,1.15-1.62,2.64-1.62,4.19v1.03s.02,1.13.02,1.13h4.95v-1.13s.02-1.01.02-1.01c0-.33.12-.62.35-.88l2.66-2.94c1.36-1.51,2.11-3.46,2.11-5.48,0-3.7-3.02-6.7-6.74-6.7h0Z"/>
    </g>
  </g>
</svg>