<?xml version="1.0" encoding="UTF-8"?>
<svg id="Layer_1" xmlns="http://www.w3.org/2000/svg" version="1.1" viewBox="0 0 61 61">
  <!-- Generator: Adobe Illustrator 30.1.0, SVG Export Plug-In . SVG Version: 2.1.1 Build 136)  -->
  <circle id="Outer" cx="30.5" cy="30.5" r="24.08" fill="none" stroke="#000" stroke-width="12.85"/>
  <g>
    <g>
      <rect x="28.53" y="37.69" width="3.92" height="3.92"/>
      <path d="M31.4,38.74v1.82h-1.82v-1.82h1.82M33.49,36.64h-6.01v6.01h6.01v-6.01h0Z"/>
    </g>
    <g>
      <path d="M28.54,34.21v-1.73c-.01-1.13.41-2.21,1.16-3.04l1.8-1.99c.32-.35.49-.81.49-1.28,0-.5-.41-.9-.91-.9h-1.16c-.5,0-.91.4-.91.9v1.05h-3.93v-1.05c0-2.66,2.17-4.82,4.85-4.82h1.16c2.67,0,4.85,2.16,4.85,4.82,0,1.44-.53,2.83-1.5,3.9l-1.8,2c-.11.12-.17.26-.17.41l-.02,1.73h-3.9Z"/>
      <path d="M31.08,22.4c2.09,0,3.8,1.69,3.8,3.77,0,1.18-.44,2.32-1.23,3.2l-1.8,2c-.28.31-.43.69-.43,1.11v.69h-1.83v-.69c0-.86.31-1.68.89-2.32l1.8-2c.49-.55.76-1.25.76-1.98,0-1.07-.88-1.95-1.96-1.95h-1.16c-1.08,0-1.96.87-1.96,1.95h-1.83c0-2.08,1.7-3.77,3.8-3.77h1.16M31.08,20.3h-1.16c-3.25,0-5.89,2.63-5.89,5.87v2.1h5.32l-.43.48c-.92,1.02-1.44,2.34-1.44,3.72v.71s.02,2.08.02,2.08h5.97l.02-2.08v-.53s1.7-1.88,1.7-1.88c1.14-1.27,1.77-2.9,1.77-4.6,0-3.24-2.64-5.87-5.89-5.87h0ZM30.06,26.32h.88c-.03.16-.1.31-.21.43l-.67.74v-1.17h0Z"/>
    </g>
  </g>
</svg>