<?xml version="1.0" encoding="UTF-8"?>
<svg id="Layer_1" xmlns="http://www.w3.org/2000/svg" version="1.1" viewBox="0 0 61 61">
  <!-- Generator: Adobe Illustrator 30.1.0, SVG Export Plug-In . SVG Version: 2.1.1 Build 136)  -->
  <circle id="Outer" cx="30.5" cy="30.5" r="28.38" fill="none" stroke="#000" stroke-width="4.23"/>
  <g>
    <g>
      <rect x="28.57" y="40.97" width="3.82" height="3.82"/>
      <path d="M32.1,41.26v3.25h-3.25v-3.25h3.25M32.68,40.69h-4.39v4.39h4.39v-4.39h0Z"/>
    </g>
    <g>
      <path d="M28.58,36.71v-1.51c0-1.61.59-3.15,1.67-4.35l3.22-3.56c.83-.92,1.29-2.11,1.29-3.35,0-1.76-1.44-3.19-3.22-3.19h-2.07c-1.77,0-3.22,1.43-3.22,3.19v.29h-3.85v-.29c0-3.87,3.17-7.02,7.07-7.02h2.07c3.9,0,7.07,3.15,7.07,7.02,0,2.18-.81,4.28-2.28,5.91l-3.22,3.56c-.46.51-.7,1.12-.7,1.79v1.51h-3.83Z"/>
      <path d="M31.53,17.21c3.74,0,6.78,3.02,6.78,6.73,0,2.11-.78,4.14-2.2,5.71l-3.22,3.56c-.5.55-.77,1.24-.78,1.98v1.23h-3.26v-1.23c0-1.54.56-3.01,1.6-4.15l3.22-3.56c.88-.98,1.37-2.23,1.37-3.54,0-1.92-1.57-3.48-3.5-3.48h-2.07c-1.93,0-3.5,1.56-3.5,3.48h-3.28c0-3.71,3.04-6.73,6.78-6.73h2.07M31.53,16.64h-2.07c-4.05,0-7.35,3.28-7.35,7.31v.57h4.42v-.57c0-1.6,1.32-2.91,2.93-2.91h2.07c1.62,0,2.93,1.3,2.93,2.91,0,1.17-.43,2.29-1.22,3.16l-3.22,3.56c-1.13,1.25-1.75,2.85-1.76,4.53v1.24s.02.57.02.57h4.38v-.57s.02-1.23.02-1.23c0-.6.22-1.15.63-1.6l3.22-3.56c1.51-1.68,2.35-3.84,2.35-6.1,0-4.03-3.3-7.31-7.35-7.31h0Z"/>
    </g>
  </g>
</svg>