<?xml version="1.0" encoding="UTF-8"?>
<svg id="Layer_1" xmlns="http://www.w3.org/2000/svg" version="1.1" viewBox="0 0 61 61">
  <!-- Generator: Adobe Illustrator 30.1.0, SVG Export Plug-In . SVG Version: 2.1.1 Build 136)  -->
  <circle id="Outer" cx="30.5" cy="30.5" r="25.69" fill="none" stroke="#000" stroke-width="9.63"/>
  <g>
    <g>
      <rect x="28.56" y="38.93" width="3.84" height="3.84"/>
      <path d="M31.64,39.7v2.32h-2.32v-2.32h2.32M33.17,38.17h-5.37v5.37h5.37v-5.37h0Z"/>
    </g>
    <g>
      <path d="M28.57,35.05v-1.63c0-1.29.47-2.53,1.33-3.48l2.3-2.54c.5-.56.78-1.27.78-2.02,0-.95-.78-1.72-1.74-1.72h-1.48c-.96,0-1.74.77-1.74,1.72v.76h-3.87v-.76c0-3.07,2.52-5.57,5.61-5.57h1.48c3.09,0,5.61,2.5,5.61,5.57,0,1.7-.63,3.33-1.77,4.59l-2.3,2.55c-.23.26-.36.57-.36.91l-.02,1.64h-3.83Z"/>
      <path d="M31.24,20.56c2.67,0,4.84,2.16,4.84,4.81,0,1.51-.56,2.96-1.57,4.08l-2.3,2.55c-.36.39-.55.88-.55,1.41v.88h-2.33v-.88c0-1.1.4-2.15,1.14-2.97l2.3-2.54c.63-.7.98-1.6.98-2.53,0-1.37-1.12-2.49-2.5-2.49h-1.48c-1.38,0-2.5,1.12-2.5,2.49h-2.34c0-2.65,2.17-4.81,4.84-4.81h1.48M31.24,19.03h-1.48c-3.51,0-6.37,2.84-6.37,6.33v1.52h5.39v-1.52c0-.53.44-.96.98-.96h1.48c.54,0,.98.43.98.96,0,.56-.21,1.09-.58,1.51l-2.3,2.55c-.99,1.09-1.54,2.51-1.54,3.98v.9s.02,1.51.02,1.51h5.34l.02-1.51v-.88c0-.16.06-.29.17-.41l2.3-2.55c1.27-1.4,1.97-3.22,1.97-5.1,0-3.49-2.86-6.33-6.37-6.33h0Z"/>
    </g>
  </g>
</svg>