<?xml version="1.0" encoding="UTF-8"?>
<svg id="Layer_1" xmlns="http://www.w3.org/2000/svg" version="1.1" viewBox="0 0 61 61">
  <!-- Generator: Adobe Illustrator 30.1.0, SVG Export Plug-In . SVG Version: 2.1.1 Build 136)  -->
  <circle id="Outer" cx="30.5" cy="30.5" r="24.61" fill="none" stroke="#000" stroke-width="11.78"/>
  <g>
    <g>
      <rect x="28.54" y="38.1" width="3.89" height="3.89"/>
      <path d="M31.48,39.06v1.98h-1.98v-1.98h1.98M33.38,37.15h-5.79v5.79h5.79v-5.79h0Z"/>
    </g>
    <g>
      <path d="M28.56,34.47l-.02-1.69c0-1.18.44-2.31,1.23-3.18l1.96-2.17c.38-.42.59-.96.59-1.52,0-.64-.53-1.17-1.18-1.17h-1.26c-.65,0-1.18.52-1.18,1.17v.95h-3.9v-.95c0-2.79,2.28-5.06,5.09-5.06h1.26c2.8,0,5.09,2.27,5.09,5.06,0,1.52-.56,2.99-1.59,4.12l-1.96,2.17c-.15.17-.23.36-.23.57l-.02,1.7h-3.87Z"/>
      <path d="M31.13,21.8c2.28,0,4.13,1.84,4.13,4.11,0,1.29-.48,2.52-1.34,3.48l-1.96,2.17c-.3.34-.47.75-.47,1.21v.75h-1.99v-.75c0-.94.34-1.83.97-2.53l1.96-2.17c.54-.59.83-1.36.83-2.16,0-1.17-.96-2.12-2.14-2.12h-1.26c-1.18,0-2.14.95-2.14,2.12h-2c0-2.26,1.85-4.11,4.13-4.11h1.26M31.13,19.9h-1.26c-3.33,0-6.04,2.7-6.04,6.01v1.91h5.81v-1.91c0-.12.11-.22.23-.22h1.26c.12,0,.23.1.23.22,0,.33-.12.64-.34.88l-1.96,2.17c-.94,1.04-1.47,2.39-1.47,3.8v.77s.02,1.89.02,1.89h5.76l.02-1.89v-.72s1.95-2.15,1.95-2.15c1.18-1.31,1.83-3,1.83-4.76,0-3.31-2.71-6.01-6.04-6.01h0Z"/>
    </g>
  </g>
</svg>