<?xml version="1.0" encoding="UTF-8"?>
<svg id="Layer_1" xmlns="http://www.w3.org/2000/svg" version="1.1" viewBox="0 0 61 61">
  <!-- Generator: Adobe Illustrator 30.1.0, SVG Export Plug-In . SVG Version: 2.1.1 Build 136)  -->
  <circle id="Outer" cx="30.5" cy="30.5" r="27.85" fill="none" stroke="#000" stroke-width="5.3"/>
  <g>
    <g>
      <rect x="28.57" y="40.57" width="3.82" height="3.82"/>
      <path d="M32.01,40.95v3.06h-3.06v-3.06h3.06M32.77,40.19h-4.58v4.58h4.58v-4.58h0Z"/>
    </g>
    <g>
      <path d="M28.58,36.36v-1.53c0-1.54.56-3.02,1.6-4.17l3.03-3.35c.77-.85,1.19-1.94,1.19-3.08,0-1.6-1.31-2.89-2.92-2.89h-1.94c-1.61,0-2.92,1.3-2.92,2.89v.38h-3.85v-.38c0-3.7,3.03-6.72,6.76-6.72h1.94c3.73,0,6.76,3.01,6.76,6.72,0,2.08-.77,4.08-2.17,5.63l-3.03,3.35c-.41.46-.63,1.01-.63,1.61l-.02,1.54h-3.81Z"/>
      <path d="M31.47,17.89c3.52,0,6.38,2.84,6.38,6.34,0,1.99-.74,3.9-2.07,5.38l-3.03,3.35c-.47.52-.73,1.16-.73,1.86v1.16h-3.07v-1.16c0-1.45.53-2.83,1.5-3.91l3.03-3.35c.83-.92,1.28-2.1,1.28-3.33,0-1.81-1.48-3.28-3.3-3.28h-1.94c-1.82,0-3.3,1.47-3.3,3.28h-3.08c0-3.49,2.86-6.34,6.38-6.34h1.94M31.47,17.13h-1.94c-3.94,0-7.14,3.18-7.14,7.1v.76h4.61v-.76c0-1.39,1.14-2.51,2.54-2.51h1.94c1.4,0,2.54,1.13,2.54,2.51,0,1.04-.39,2.05-1.09,2.82l-3.03,3.35c-1.1,1.21-1.7,2.78-1.71,4.41v1.17s.02.76.02.76h4.57v-.75s.02-1.16.02-1.16c0-.51.19-.97.53-1.36l3.03-3.35c1.46-1.62,2.27-3.71,2.27-5.89,0-3.91-3.2-7.1-7.14-7.1h0Z"/>
    </g>
  </g>
</svg>