<?xml version="1.0" encoding="UTF-8"?>
<svg id="Layer_1" xmlns="http://www.w3.org/2000/svg" version="1.1" viewBox="0 0 49 49">
  <!-- Generator: Adobe Illustrator 30.1.0, SVG Export Plug-In . SVG Version: 2.1.1 Build 136)  -->
  <g>
    <g>
      <rect x="22.77" y="12.72" width="3.45" height="3.45"/>
      <path d="M25.92,13.02v2.84h-2.84v-2.84h2.84M26.53,12.41h-4.06v4.06h4.06v-4.06h0Z"/>
    </g>
    <g>
      <polygon points="19.94 36.21 19.94 32.76 22.77 32.76 22.77 24.51 19.94 24.51 19.94 21.06 26.23 21.06 26.23 32.76 29.06 32.76 29.06 36.21 19.94 36.21"/>
      <path d="M25.92,21.37v11.7h2.84v2.84h-8.51v-2.84h2.84v-8.86h-2.84v-2.84h5.68M26.53,20.75h-6.9v4.06h2.84v7.64h-2.84v4.06h9.74v-4.06h-2.84v-11.7h0Z"/>
    </g>
  </g>
  <circle id="Outer" cx="24.5" cy="24.5" r="22.37" fill="none" stroke="#000" stroke-width="4.26"/>
</svg>