<?xml version="1.0" encoding="UTF-8"?>
<svg id="Layer_1" xmlns="http://www.w3.org/2000/svg" version="1.1" viewBox="0 0 49 49">
  <!-- Generator: Adobe Illustrator 30.1.0, SVG Export Plug-In . SVG Version: 2.1.1 Build 136)  -->
  <g>
    <g>
      <rect x="22.69" y="14.59" width="3.62" height="3.62"/>
      <path d="M25.54,15.35v2.08h-2.08v-2.08h2.08M27.07,13.82h-5.15v5.15h5.15v-5.15h0Z"/>
    </g>
    <g>
      <polygon points="20.61 33.94 20.61 30.32 22.69 30.32 22.69 25.34 20.61 25.34 20.61 21.73 26.31 21.73 26.31 30.32 28.39 30.32 28.39 33.94 20.61 33.94"/>
      <path d="M25.54,22.49v8.59h2.08v2.08h-6.25v-2.08h2.08v-6.51h-2.08v-2.08h4.17M27.07,20.96h-7.23v5.15h2.08v3.44h-2.08v5.15h9.32v-5.15h-2.08v-8.59h0Z"/>
    </g>
  </g>
  <circle id="Outer" cx="24.5" cy="24.5" r="19.77" fill="none" stroke="#000" stroke-width="9.46"/>
</svg>