<?xml version="1.0" encoding="UTF-8"?>
<svg id="Layer_1" xmlns="http://www.w3.org/2000/svg" version="1.1" viewBox="0 0 98 98">
  <!-- Generator: Adobe Illustrator 30.1.0, SVG Export Plug-In . SVG Version: 2.1.1 Build 136)  -->
  <path d="M49,6.8c1.37,0,2.74.71,3.46,2.13l8.83,17.53c1.52,3.01,4.34,5.13,7.65,5.75l19.1,3.58c2.99.56,4.2,4.19,2.15,6.44l-13.92,15.27c-2.15,2.36-3.15,5.54-2.73,8.71l2.72,20.59c.32,2.46-1.63,4.4-3.84,4.4-.59,0-1.19-.14-1.77-.44l-16.71-8.6c-1.55-.8-3.24-1.2-4.93-1.2-1.69,0-3.39.4-4.93,1.2l-16.71,8.6c-.58.3-1.19.44-1.77.44-2.21,0-4.17-1.95-3.84-4.4l2.72-20.6c.42-3.16-.58-6.34-2.73-8.7l-13.92-15.27c-2.05-2.25-.84-5.88,2.15-6.44l19.1-3.58c3.3-.62,6.13-2.75,7.64-5.75l8.83-17.53c.72-1.42,2.09-2.13,3.46-2.13M49,0C44.94,0,41.29,2.25,39.47,5.87l-8.83,17.53c-.56,1.11-1.61,1.9-2.82,2.13l-19.1,3.58c-3.8.71-6.93,3.44-8.16,7.11-1.23,3.67-.37,7.73,2.23,10.6l13.92,15.27c.8.87,1.17,2.05,1.01,3.23l-2.72,20.6c-.4,3.05.53,6.13,2.55,8.43,2.04,2.32,4.97,3.66,8.04,3.66,1.68,0,3.37-.41,4.88-1.19l16.71-8.6c.56-.29,1.19-.44,1.82-.44.63,0,1.26.15,1.82.44l16.71,8.6c1.51.78,3.2,1.19,4.88,1.19,3.07,0,6-1.33,8.04-3.66,2.02-2.3,2.95-5.38,2.55-8.43l-2.72-20.59c-.16-1.18.21-2.36,1.01-3.24l13.92-15.27c2.61-2.86,3.46-6.92,2.23-10.6-1.23-3.67-4.35-6.39-8.16-7.1l-19.1-3.58c-1.21-.23-2.27-1.02-2.83-2.13l-8.83-17.53C56.71,2.25,53.05,0,49,0h0Z"/>
</svg>