<?xml version="1.0" encoding="UTF-8"?>
<svg id="Layer_1" xmlns="http://www.w3.org/2000/svg" version="1.1" viewBox="0 0 98 98">
  <!-- Generator: Adobe Illustrator 30.1.0, SVG Export Plug-In . SVG Version: 2.1.1 Build 136)  -->
  <path d="M49,11.97c1.2,0,2.41.62,3.04,1.87l7.75,15.38c1.33,2.64,3.81,4.51,6.71,5.05l16.76,3.14c2.62.49,3.68,3.68,1.89,5.65l-12.21,13.4c-1.88,2.07-2.76,4.86-2.39,7.64l2.38,18.07c.28,2.16-1.43,3.86-3.37,3.86-.51,0-1.04-.12-1.55-.38l-14.66-7.55c-1.36-.7-2.84-1.05-4.33-1.05s-2.97.35-4.33,1.05l-14.66,7.55c-.51.26-1.04.38-1.55.38-1.94,0-3.66-1.71-3.37-3.86l2.38-18.07c.37-2.77-.51-5.56-2.39-7.63l-12.21-13.4c-1.8-1.97-.74-5.16,1.89-5.65l16.76-3.14c2.9-.54,5.38-2.41,6.7-5.05l7.75-15.38c.63-1.25,1.83-1.87,3.04-1.87M49,0C43.16,0,37.9,3.24,35.27,8.46l-7.19,14.27-15.53,2.91c-5.48,1.03-9.98,4.95-11.75,10.23-1.77,5.29-.54,11.13,3.22,15.25l11.43,12.54-2.23,16.93c-.58,4.4.76,8.82,3.67,12.15,2.93,3.34,7.15,5.26,11.57,5.26,2.43,0,4.86-.59,7.04-1.71l13.51-6.96,13.5,6.96c2.17,1.12,4.61,1.71,7.04,1.71,4.42,0,8.64-1.92,11.57-5.26,2.91-3.32,4.25-7.75,3.67-12.15l-2.23-16.93,11.43-12.55c3.76-4.12,4.99-9.97,3.22-15.25-1.77-5.28-6.27-9.2-11.75-10.23l-15.53-2.91-7.19-14.27C60.1,3.24,54.84,0,49,0h0Z"/>
</svg>