<?xml version="1.0" encoding="UTF-8"?>
<svg id="Layer_1" xmlns="http://www.w3.org/2000/svg" version="1.1" viewBox="0 0 98 98">
  <!-- Generator: Adobe Illustrator 30.1.0, SVG Export Plug-In . SVG Version: 2.1.1 Build 136)  -->
  <path d="M49,8.51c1.32,0,2.63.68,3.32,2.05l8.47,16.81c1.45,2.89,4.17,4.93,7.33,5.52l18.32,3.43c2.86.54,4.03,4.02,2.06,6.18l-13.35,14.65c-2.06,2.26-3.02,5.32-2.62,8.35l2.61,19.75c.31,2.36-1.57,4.22-3.69,4.22-.56,0-1.14-.13-1.7-.42l-16.03-8.25c-1.49-.77-3.11-1.15-4.73-1.15-1.62,0-3.25.38-4.73,1.15l-16.03,8.25c-.56.29-1.14.42-1.7.42-2.12,0-4-1.87-3.69-4.22l2.61-19.76c.4-3.03-.56-6.08-2.61-8.34l-13.35-14.65c-1.97-2.16-.8-5.64,2.06-6.18l18.32-3.43c3.17-.59,5.88-2.63,7.33-5.52l8.47-16.82c.69-1.37,2-2.05,3.32-2.05M49,0C44.35,0,40.17,2.58,38.07,6.73l-8.47,16.82c-.26.51-.74.88-1.3.98l-18.32,3.43c-4.36.82-7.94,3.94-9.35,8.14-1.41,4.21-.43,8.86,2.56,12.14l13.35,14.65c.37.4.54.95.47,1.49l-2.61,19.76c-.46,3.5.6,7.02,2.92,9.66,2.33,2.66,5.69,4.19,9.21,4.19,1.93,0,3.87-.47,5.6-1.36l16.03-8.25c.26-.13.54-.2.84-.2.29,0,.58.07.84.2l16.03,8.25c1.73.89,3.67,1.36,5.6,1.36,0,0,0,0,0,0,3.52,0,6.87-1.53,9.21-4.19,2.32-2.64,3.38-6.16,2.92-9.66l-2.61-19.75c-.07-.55.1-1.1.47-1.5l13.35-14.65c2.99-3.28,3.97-7.93,2.56-12.14-1.41-4.2-4.99-7.32-9.35-8.14l-18.32-3.43c-.56-.1-1.04-.47-1.3-.98l-8.47-16.81C57.83,2.58,53.65,0,49,0h0Z"/>
</svg>