<?xml version="1.0" encoding="UTF-8"?>
<svg id="Layer_1" xmlns="http://www.w3.org/2000/svg" version="1.1" viewBox="0 0 98 98">
  <!-- Generator: Adobe Illustrator 30.1.0, SVG Export Plug-In . SVG Version: 2.1.1 Build 136)  -->
  <path d="M49,18.93c.98,0,1.96.51,2.47,1.52l6.29,12.49c1.08,2.14,3.09,3.66,5.45,4.1l13.61,2.55c2.13.4,2.99,2.99,1.53,4.59l-9.92,10.88c-1.53,1.68-2.24,3.95-1.94,6.2l1.94,14.67c.23,1.75-1.16,3.14-2.74,3.14-.42,0-.85-.1-1.26-.31l-11.91-6.13c-1.1-.57-2.31-.85-3.52-.85s-2.41.28-3.52.85l-11.91,6.13c-.42.21-.85.31-1.26.31-1.57,0-2.97-1.39-2.74-3.14l1.94-14.68c.3-2.25-.41-4.52-1.94-6.2l-9.92-10.88c-1.46-1.6-.6-4.19,1.53-4.59l13.61-2.55c2.35-.44,4.37-1.96,5.45-4.1l6.29-12.49c.51-1.01,1.49-1.52,2.47-1.52M49,0c-8.24,0-15.66,4.57-19.37,11.93l-3.79,7.53-8.14,1.53c-7.72,1.45-14.07,6.98-16.57,14.43-2.5,7.46-.76,15.7,4.54,21.51l6.4,7.03-1.25,9.51c-.82,6.2,1.07,12.44,5.19,17.13,4.13,4.71,10.07,7.4,16.32,7.4,3.43,0,6.86-.83,9.93-2.41l6.76-3.48,6.76,3.48c3.06,1.58,6.5,2.41,9.93,2.41,6.24,0,12.19-2.7,16.32-7.4,4.11-4.69,6-10.94,5.19-17.13l-1.25-9.51,6.41-7.03c5.3-5.81,7.03-14.05,4.54-21.51-2.5-7.45-8.85-12.98-16.57-14.43l-8.14-1.53-3.79-7.53c-3.71-7.36-11.13-11.93-19.37-11.93h0Z"/>
</svg>