<?xml version="1.0" encoding="UTF-8"?>
<svg id="Layer_1" xmlns="http://www.w3.org/2000/svg" version="1.1" viewBox="0 0 113 113">
  <!-- Generator: Adobe Illustrator 30.1.0, SVG Export Plug-In . SVG Version: 2.1.1 Build 136)  -->
  <path d="M56.5,23.8c1.06,0,2.13.55,2.68,1.65l6.84,13.58c1.17,2.33,3.36,3.98,5.92,4.46l14.8,2.77c2.31.43,3.25,3.25,1.67,4.99l-10.78,11.83c-1.66,1.83-2.44,4.29-2.11,6.75l2.1,15.95c.25,1.9-1.27,3.41-2.98,3.41-.45,0-.92-.11-1.37-.34l-12.95-6.67c-1.2-.62-2.51-.93-3.82-.93s-2.62.31-3.82.93l-12.95,6.67c-.45.23-.92.34-1.37.34-1.71,0-3.23-1.51-2.98-3.41l2.1-15.96c.32-2.45-.45-4.91-2.11-6.74l-10.78-11.83c-1.59-1.74-.65-4.56,1.67-4.99l14.8-2.77c2.56-.48,4.75-2.13,5.92-4.46l6.84-13.58c.56-1.1,1.62-1.65,2.68-1.65M56.5,0C46.32,0,37.14,5.65,32.56,14.75l-3.41,6.76-7.28,1.37c-9.55,1.79-17.39,8.62-20.48,17.83-3.09,9.21-.94,19.4,5.61,26.58l5.95,6.53-1.17,8.85c-1.01,7.66,1.33,15.38,6.41,21.18,5.1,5.81,12.45,9.15,20.16,9.15,4.24,0,8.48-1.03,12.27-2.98l5.87-3.02,5.87,3.02c3.79,1.95,8.03,2.98,12.27,2.98,7.72,0,15.06-3.33,20.16-9.15,5.08-5.8,7.42-13.52,6.41-21.18l-1.17-8.85,5.96-6.54c6.54-7.18,8.69-17.37,5.61-26.58-3.09-9.21-10.93-16.04-20.48-17.83l-7.29-1.37-3.41-6.76C75.85,5.65,66.68,0,56.5,0h0Z"/>
</svg>