<?xml version="1.0" encoding="UTF-8"?>
<svg id="Layer_1" xmlns="http://www.w3.org/2000/svg" version="1.1" viewBox="0 0 113 113">
  <!-- Generator: Adobe Illustrator 30.1.0, SVG Export Plug-In . SVG Version: 2.1.1 Build 136)  -->
  <path d="M56.5,9.82c1.52,0,3.04.79,3.83,2.36l9.77,19.39c1.68,3.33,4.8,5.68,8.46,6.37l21.13,3.96c3.3.62,4.64,4.63,2.38,7.12l-15.39,16.89c-2.38,2.61-3.48,6.13-3.02,9.63l3,22.78c.36,2.72-1.81,4.87-4.25,4.87-.65,0-1.31-.15-1.96-.48l-18.48-9.52c-1.71-.88-3.59-1.32-5.46-1.32s-3.75.44-5.46,1.32l-18.48,9.52c-.64.33-1.31.48-1.96.48-2.44,0-4.61-2.15-4.25-4.87l3-22.78c.46-3.5-.64-7.02-3.01-9.62l-15.4-16.89c-2.27-2.49-.93-6.51,2.38-7.13l21.13-3.96c3.65-.68,6.78-3.04,8.45-6.36l9.77-19.39c.79-1.57,2.31-2.36,3.83-2.36M56.5,0c-5.36,0-10.18,2.97-12.6,7.76l-9.77,19.39c-.3.59-.85,1.01-1.49,1.13l-21.13,3.96c-5.02.94-9.15,4.54-10.78,9.39-1.63,4.85-.49,10.22,2.95,14l15.4,16.89c.42.47.62,1.09.54,1.72l-3,22.78c-.53,4.03.69,8.1,3.37,11.14,2.69,3.07,6.56,4.83,10.62,4.83,2.22,0,4.46-.54,6.45-1.57l18.48-9.52c.3-.16.63-.23.96-.23s.66.08.96.23l18.48,9.52c2,1.03,4.23,1.57,6.45,1.57,4.06,0,7.93-1.76,10.62-4.83,2.67-3.05,3.9-7.11,3.37-11.14l-3-22.78c-.08-.63.11-1.27.54-1.74l15.39-16.89c3.45-3.78,4.58-9.14,2.95-14-1.62-4.85-5.75-8.44-10.78-9.39l-21.13-3.96c-.64-.12-1.2-.54-1.5-1.13l-9.77-19.39c-2.41-4.79-7.24-7.76-12.6-7.76h0Z"/>
</svg>