<?xml version="1.0" encoding="UTF-8"?>
<svg id="Layer_1" xmlns="http://www.w3.org/2000/svg" version="1.1" viewBox="0 0 113 113">
  <!-- Generator: Adobe Illustrator 30.1.0, SVG Export Plug-In . SVG Version: 2.1.1 Build 136)  -->
  <path d="M56.5,7.84c1.58,0,3.16.82,3.99,2.46l10.18,20.21c1.75,3.47,5.01,5.92,8.82,6.63l22.02,4.13c3.44.65,4.84,4.83,2.48,7.42l-16.05,17.61c-2.48,2.72-3.63,6.39-3.15,10.04l3.13,23.74c.37,2.83-1.88,5.08-4.43,5.08-.68,0-1.37-.16-2.04-.5l-19.26-9.92c-1.79-.92-3.74-1.38-5.69-1.38-1.95,0-3.9.46-5.69,1.38l-19.26,9.92c-.67.35-1.37.5-2.04.5-2.55,0-4.8-2.24-4.43-5.08l3.13-23.75c.48-3.64-.67-7.31-3.14-10.03l-16.05-17.61c-2.36-2.59-.97-6.78,2.48-7.43l22.02-4.13c3.81-.71,7.07-3.17,8.81-6.63l10.18-20.21c.83-1.64,2.41-2.46,3.99-2.46M56.5,0c-4.68,0-8.89,2.6-10.99,6.77l-10.18,20.21c-.64,1.27-1.86,2.19-3.25,2.45l-22.02,4.13c-4.38.82-7.99,3.96-9.41,8.19-1.42,4.24-.43,8.92,2.58,12.22l16.05,17.61c.92,1.01,1.34,2.36,1.16,3.72l-3.13,23.75c-.46,3.52.61,7.07,2.94,9.72,2.35,2.68,5.73,4.22,9.27,4.22,1.94,0,3.89-.48,5.63-1.37l19.26-9.92c.65-.33,1.37-.51,2.1-.51.73,0,1.45.18,2.1.51l19.26,9.92c1.75.9,3.69,1.37,5.63,1.37,3.54,0,6.92-1.54,9.27-4.22,2.33-2.66,3.4-6.2,2.94-9.72l-3.13-23.74c-.18-1.36.25-2.72,1.17-3.73l16.05-17.61c3.01-3.3,3.99-7.98,2.58-12.22-1.42-4.23-5.02-7.37-9.4-8.19l-22.02-4.13c-1.4-.26-2.62-1.18-3.26-2.46l-10.18-20.21c-2.1-4.18-6.32-6.77-10.99-6.77h0Z"/>
</svg>