<?xml version="1.0" encoding="UTF-8"?>
<svg id="Layer_1" xmlns="http://www.w3.org/2000/svg" version="1.1" viewBox="0 0 113 113">
  <!-- Generator: Adobe Illustrator 30.1.0, SVG Export Plug-In . SVG Version: 2.1.1 Build 136)  -->
  <path d="M56.5,13.81c1.39,0,2.78.72,3.5,2.16l8.93,17.73c1.53,3.04,4.39,5.19,7.73,5.82l19.32,3.62c3.02.57,4.25,4.24,2.17,6.51l-14.08,15.45c-2.17,2.38-3.18,5.61-2.76,8.81l2.75,20.83c.33,2.49-1.65,4.45-3.89,4.45-.59,0-1.2-.14-1.79-.44l-16.9-8.7c-1.57-.81-3.28-1.21-4.99-1.21s-3.43.4-4.99,1.21l-16.9,8.7c-.59.3-1.2.44-1.79.44-2.23,0-4.21-1.97-3.89-4.45l2.75-20.84c.42-3.2-.59-6.42-2.76-8.8l-14.08-15.45c-2.07-2.28-.85-5.95,2.18-6.52l19.32-3.62c3.34-.63,6.2-2.78,7.73-5.82l8.93-17.73c.73-1.44,2.11-2.16,3.5-2.16M56.5,0C49.76,0,43.7,3.74,40.67,9.75l-8.29,16.46-17.91,3.36c-6.31,1.18-11.5,5.7-13.55,11.8-2.04,6.1-.62,12.84,3.71,17.59l13.18,14.46-2.57,19.52c-.67,5.07.88,10.17,4.24,14.01,3.38,3.85,8.24,6.06,13.34,6.06,2.8,0,5.61-.68,8.11-1.97l15.57-8.02,15.57,8.02c2.51,1.29,5.31,1.97,8.11,1.97,5.1,0,9.96-2.21,13.34-6.06,3.36-3.83,4.9-8.94,4.24-14.01l-2.57-19.52,13.18-14.47c4.33-4.75,5.75-11.49,3.71-17.59-2.04-6.09-7.23-10.61-13.54-11.8l-17.91-3.36-8.29-16.46C69.3,3.74,63.23,0,56.5,0h0Z"/>
</svg>