<?xml version="1.0" encoding="UTF-8"?>
<svg id="Layer_1" xmlns="http://www.w3.org/2000/svg" version="1.1" viewBox="0 0 126 126">
  <!-- Generator: Adobe Illustrator 30.1.0, SVG Export Plug-In . SVG Version: 2.1.1 Build 136)  -->
  <g>
    <g>
      <rect x="58.31" y="38.3" width="9.38" height="9.38"/>
      <path d="M65.53,40.47v5.05h-5.05v-5.05h5.05M69.86,36.13h-13.71v13.71h13.71v-13.71h0Z"/>
    </g>
    <g>
      <polygon points="53.26 86.33 53.26 76.95 58.31 76.95 58.31 65.51 53.26 65.51 53.26 56.12 67.69 56.12 67.69 76.95 72.74 76.95 72.74 86.33 53.26 86.33"/>
      <path d="M65.53,58.29v20.82h5.05v5.05h-15.16v-5.05h5.05v-15.77h-5.05v-5.05h10.1M69.86,53.96h-18.77v13.71h5.05v7.11h-5.05v13.71h23.82v-13.71h-5.05v-20.82h0Z"/>
    </g>
  </g>
  <circle id="Outer" cx="63" cy="63" r="49.73" fill="none" stroke="#000" stroke-width="26.54"/>
</svg>