<?xml version="1.0" encoding="UTF-8"?>
<svg id="Layer_1" xmlns="http://www.w3.org/2000/svg" version="1.1" viewBox="0 0 126 126">
  <!-- Generator: Adobe Illustrator 30.1.0, SVG Export Plug-In . SVG Version: 2.1.1 Build 136)  -->
  <g>
    <g>
      <rect x="58.43" y="35.92" width="9.14" height="9.14"/>
      <path d="M66,37.5v5.99h-5.99v-5.99h5.99M69.15,34.35h-12.29v12.29h12.29v-12.29h0Z"/>
    </g>
    <g>
      <polygon points="52.44 89.17 52.44 80.03 58.43 80.03 58.43 64.48 52.44 64.48 52.44 55.33 67.57 55.33 67.57 80.03 73.56 80.03 73.56 89.17 52.44 89.17"/>
      <path d="M66,56.91v24.7h5.99v5.99h-17.98v-5.99h5.99v-18.71h-5.99v-5.99h11.98M69.15,53.76h-18.28v12.29h5.99v12.41h-5.99v12.29h24.28v-12.29h-5.99v-24.7h0Z"/>
    </g>
  </g>
  <circle id="Outer" cx="63" cy="63" r="53.06" fill="none" stroke="#000" stroke-width="19.88"/>
</svg>