<?xml version="1.0" encoding="UTF-8"?>
<svg id="Layer_1" xmlns="http://www.w3.org/2000/svg" version="1.1" viewBox="0 0 126 126">
  <!-- Generator: Adobe Illustrator 30.1.0, SVG Export Plug-In . SVG Version: 2.1.1 Build 136)  -->
  <g>
    <g>
      <rect x="58.56" y="32.7" width="8.87" height="8.87"/>
      <path d="M66.65,33.49v7.3h-7.3v-7.3h7.3M68.22,31.91h-10.45v10.45h10.45v-10.45h0Z"/>
    </g>
    <g>
      <polygon points="51.27 93.11 51.27 84.24 58.56 84.24 58.56 63.03 51.27 63.03 51.27 54.16 67.44 54.16 67.44 84.24 74.73 84.24 74.73 93.11 51.27 93.11"/>
      <path d="M66.65,54.94v30.08h7.3v7.3h-21.89v-7.3h7.3v-22.78h-7.3v-7.3h14.6M68.22,53.37h-17.75v10.45h7.3v19.63h-7.3v10.45h25.04v-10.45h-7.3v-30.08h0Z"/>
    </g>
  </g>
  <circle id="Outer" cx="63" cy="63" r="57.53" fill="none" stroke="#000" stroke-width="10.95"/>
</svg>