<?xml version="1.0" encoding="UTF-8"?>
<svg id="Layer_1" xmlns="http://www.w3.org/2000/svg" version="1.1" viewBox="0 0 126 126">
  <!-- Generator: Adobe Illustrator 30.1.0, SVG Export Plug-In . SVG Version: 2.1.1 Build 136)  -->
  <g>
    <g>
      <rect x="58.5" y="34.3" width="9.01" height="9"/>
      <path d="M66.32,35.48v6.64h-6.64v-6.64h6.64M68.68,33.12h-11.37v11.37h11.37v-11.37h0Z"/>
    </g>
    <g>
      <polygon points="51.86 91.14 51.86 82.13 58.5 82.13 58.5 63.76 51.86 63.76 51.86 54.76 67.5 54.76 67.5 82.13 74.15 82.13 74.15 91.14 51.86 91.14"/>
      <path d="M66.32,55.94v27.38h6.64v6.64h-19.93v-6.64h6.64v-20.74h-6.64v-6.64h13.28M68.68,53.57h-18.01v11.37h6.64v16.01h-6.64v11.37h24.65v-11.37h-6.64v-27.38h0Z"/>
    </g>
  </g>
  <circle id="Outer" cx="63" cy="63" r="55.3" fill="none" stroke="#000" stroke-width="15.4"/>
</svg>