<?xml version="1.0" encoding="UTF-8"?>
<svg id="Layer_1" xmlns="http://www.w3.org/2000/svg" version="1.1" viewBox="0 0 30 30">
  <!-- Generator: Adobe Illustrator 30.1.0, SVG Export Plug-In . SVG Version: 2.1.1 Build 136)  -->
  <circle id="Outer" cx="15" cy="15" r="12.63" fill="none" stroke="#000" stroke-width="4.73"/>
  <g>
    <g>
      <rect x="14.05" y="19.15" width="1.89" height="1.89"/>
      <path d="M15.56,19.52v1.14h-1.14v-1.14h1.14M16.31,18.77h-2.64v2.64h2.64v-2.64h0Z"/>
    </g>
    <g>
      <path d="M14.05,17.24v-.8c0-.64.23-1.24.66-1.71l1.13-1.25c.25-.27.38-.63.38-.99,0-.47-.38-.85-.86-.85h-.73c-.47,0-.86.38-.86.85v.38h-1.9v-.38c0-1.51,1.24-2.74,2.76-2.74h.73c1.52,0,2.76,1.23,2.76,2.74,0,.84-.31,1.64-.87,2.26l-1.13,1.25c-.12.13-.18.28-.18.44v.81h-1.89Z"/>
      <path d="M15.36,10.11c1.31,0,2.38,1.06,2.38,2.37,0,.74-.27,1.45-.77,2.01l-1.13,1.25c-.18.19-.27.43-.27.69v.43h-1.15v-.43c0-.54.2-1.06.56-1.46l1.13-1.25c.31-.34.48-.78.48-1.24,0-.67-.55-1.22-1.23-1.22h-.73c-.68,0-1.23.55-1.23,1.22h-1.15c0-1.3,1.07-2.37,2.38-2.37h.73M15.36,9.36h-.73c-1.73,0-3.13,1.4-3.13,3.12v.75h2.65v-.75c0-.26.22-.47.48-.47h.73c.27,0,.48.21.48.47,0,.27-.1.54-.29.74l-1.13,1.25c-.49.54-.76,1.23-.76,1.96v.44s.01.74.01.74h2.63v-.74s.01-.43.01-.43c0-.08.03-.14.08-.2l1.13-1.25c.62-.69.97-1.58.97-2.51,0-1.72-1.41-3.12-3.13-3.12h0Z"/>
    </g>
  </g>
</svg>