<?xml version="1.0" encoding="UTF-8"?>
<svg id="Layer_1" xmlns="http://www.w3.org/2000/svg" version="1.1" viewBox="0 0 30 30">
  <!-- Generator: Adobe Illustrator 30.1.0, SVG Export Plug-In . SVG Version: 2.1.1 Build 136)  -->
  <circle id="Outer" cx="15" cy="15" r="12.1" fill="none" stroke="#000" stroke-width="5.79"/>
  <g>
    <g>
      <rect x="14.04" y="18.74" width="1.91" height="1.91"/>
      <path d="M15.48,19.21v.97h-.97v-.97h.97M16.42,18.27h-2.85v2.85h2.85v-2.85h0Z"/>
    </g>
    <g>
      <path d="M14.04,16.95v-.83c0-.58.21-1.14.6-1.56l.96-1.07c.19-.21.29-.47.29-.75,0-.32-.26-.58-.58-.58h-.62c-.32,0-.58.26-.58.58v.47h-1.92v-.47c0-1.37,1.12-2.49,2.5-2.49h.62c1.38,0,2.5,1.12,2.5,2.49,0,.75-.28,1.47-.78,2.03l-.96,1.07c-.07.08-.11.18-.11.28v.84h-1.91Z"/>
      <path d="M15.31,10.72c1.12,0,2.03.91,2.03,2.02,0,.63-.23,1.24-.66,1.71l-.96,1.07c-.15.17-.23.37-.23.59v.37h-.98v-.37c0-.46.17-.9.48-1.24l.96-1.07c.26-.29.41-.67.41-1.06,0-.58-.47-1.04-1.05-1.04h-.62c-.58,0-1.05.47-1.05,1.04h-.98c0-1.11.91-2.02,2.03-2.02h.62M15.31,9.79h-.62c-1.64,0-2.97,1.33-2.97,2.96v.94h2.86v-.94c0-.06.05-.11.11-.11h.62c.06,0,.11.05.11.11,0,.16-.06.31-.17.43l-.96,1.07c-.46.51-.72,1.18-.72,1.87v.38s.01.93.01.93h2.83v-.93s.01-.37.01-.37l.96-1.04c.58-.64.9-1.48.9-2.34,0-1.63-1.33-2.96-2.97-2.96h0Z"/>
    </g>
  </g>
</svg>