<?xml version="1.0" encoding="UTF-8"?>
<svg id="Layer_1" xmlns="http://www.w3.org/2000/svg" version="1.1" viewBox="0 0 30 30">
  <!-- Generator: Adobe Illustrator 30.1.0, SVG Export Plug-In . SVG Version: 2.1.1 Build 136)  -->
  <circle id="Outer" cx="15" cy="15" r="13.7" fill="none" stroke="#000" stroke-width="2.61"/>
  <g>
    <g>
      <rect x="14.05" y="19.95" width="1.88" height="1.88"/>
      <path d="M15.74,20.14v1.5h-1.5v-1.5h1.5M16.12,19.77h-2.25v2.25h2.25v-2.25h0Z"/>
    </g>
    <g>
      <path d="M14.05,17.88v-.75c0-.76.28-1.49.79-2.05l1.49-1.65c.38-.42.58-.95.58-1.51,0-.78-.64-1.42-1.44-1.42h-.96c-.79,0-1.43.64-1.43,1.42v.19h-1.89v-.19c0-1.82,1.49-3.3,3.33-3.3h.96c1.83,0,3.33,1.48,3.33,3.3,0,1.02-.38,2.01-1.07,2.77l-1.49,1.65c-.2.22-.31.5-.31.79v.75h-1.88Z"/>
      <path d="M15.48,8.8c1.73,0,3.14,1.4,3.14,3.12,0,.98-.36,1.92-1.02,2.64l-1.49,1.65c-.23.26-.36.57-.36.92v.57h-1.51v-.57c0-.71.26-1.39.74-1.92l1.49-1.65c.41-.45.63-1.03.63-1.64,0-.89-.73-1.61-1.62-1.61h-.96c-.89,0-1.62.72-1.62,1.61h-1.52c0-1.72,1.41-3.12,3.14-3.12h.96M15.48,8.43h-.96c-1.94,0-3.51,1.57-3.51,3.49v.38h2.27v-.38c0-.68.56-1.24,1.25-1.24h.96c.69,0,1.25.55,1.25,1.24,0,.51-.19,1.01-.54,1.39l-1.49,1.65c-.54.6-.84,1.37-.84,2.17v.57s0,.37,0,.37h2.25v-.37s0-.57,0-.57c0-.25.09-.48.26-.67l1.49-1.65c.72-.8,1.12-1.83,1.12-2.9,0-1.93-1.58-3.49-3.51-3.49h0Z"/>
    </g>
  </g>
</svg>