<?xml version="1.0" encoding="UTF-8"?>
<svg id="Layer_1" xmlns="http://www.w3.org/2000/svg" version="1.1" viewBox="0 0 30 30">
  <!-- Generator: Adobe Illustrator 30.1.0, SVG Export Plug-In . SVG Version: 2.1.1 Build 136)  -->
  <circle id="Outer" cx="15" cy="15" r="13.96" fill="none" stroke="#000" stroke-width="2.08"/>
  <g>
    <g>
      <rect x="14.05" y="20.15" width="1.88" height="1.88"/>
      <path d="M15.79,20.29v1.6h-1.6v-1.6h1.6M16.07,20.01h-2.16v2.16h2.16v-2.16h0Z"/>
    </g>
    <g>
      <path d="M14.05,18.06v-.74c0-.79.29-1.55.82-2.14l1.58-1.75c.41-.45.63-1.04.63-1.65,0-.87-.71-1.57-1.58-1.57h-1.02c-.87,0-1.58.71-1.58,1.57v.14h-1.89v-.14c0-1.9,1.56-3.45,3.48-3.45h1.02c1.92,0,3.48,1.55,3.48,3.45,0,1.07-.4,2.1-1.12,2.9l-1.58,1.75c-.22.25-.34.55-.35.88v.74h-1.88Z"/>
      <path d="M15.51,8.46c1.84,0,3.33,1.49,3.33,3.31,0,1.04-.38,2.04-1.08,2.81l-1.58,1.75c-.25.27-.38.61-.38.97v.6h-1.6v-.6c0-.76.28-1.48.79-2.04l1.58-1.75c.43-.48.67-1.1.67-1.74,0-.94-.77-1.71-1.72-1.71h-1.02c-.95,0-1.72.77-1.72,1.71h-1.61c0-1.83,1.5-3.31,3.33-3.31h1.02M15.51,8.18h-1.02c-1.99,0-3.62,1.61-3.62,3.59v.28h2.17v-.28c0-.79.65-1.43,1.44-1.43h1.02c.8,0,1.44.64,1.44,1.43,0,.57-.21,1.13-.6,1.55l-1.58,1.75c-.55.61-.86,1.4-.86,2.23v.61s0,.28,0,.28h2.15v-.28s0-.6,0-.6c0-.29.11-.56.31-.79l1.58-1.75c.75-.83,1.16-1.89,1.16-3,0-1.98-1.62-3.59-3.62-3.59h0Z"/>
    </g>
  </g>
</svg>