<?xml version="1.0" encoding="UTF-8"?>
<svg id="Layer_1" xmlns="http://www.w3.org/2000/svg" version="1.1" viewBox="0 0 30 30">
  <!-- Generator: Adobe Illustrator 30.1.0, SVG Export Plug-In . SVG Version: 2.1.1 Build 136)  -->
  <circle id="Outer" cx="15" cy="15" r="11.84" fill="none" stroke="#000" stroke-width="6.32"/>
  <g>
    <g>
      <rect x="14.03" y="18.54" width="1.93" height="1.93"/>
      <path d="M15.44,19.05v.89h-.89v-.89h.89M16.47,18.02h-2.96v2.96h2.96v-2.96h0Z"/>
    </g>
    <g>
      <path d="M14.04,16.82v-.85c0-.56.2-1.08.57-1.49l.89-.98c.16-.17.24-.4.24-.63,0-.24-.2-.44-.45-.44h-.57c-.25,0-.45.2-.45.44v.52h-1.93v-.52c0-1.31,1.07-2.37,2.38-2.37h.57c1.31,0,2.38,1.06,2.38,2.37,0,.71-.26,1.39-.74,1.92l-.89.98c-.05.06-.08.13-.08.2v.85h-1.92Z"/>
      <path d="M15.28,11.02c1.03,0,1.87.83,1.87,1.85,0,.58-.22,1.14-.61,1.57l-.89.98c-.14.15-.21.34-.21.54v.34h-.9v-.34c0-.42.15-.83.44-1.14l.89-.98c.24-.27.38-.62.38-.98,0-.53-.43-.96-.97-.96h-.57c-.53,0-.97.43-.97.96h-.9c0-1.02.84-1.85,1.87-1.85h.57M15.28,9.98h-.57c-1.6,0-2.9,1.29-2.9,2.89v1.03h2.62l-.21.23c-.45.5-.71,1.15-.71,1.83v.35s.01,1.02.01,1.02h2.94v-1.02s.01-.26.01-.26l.84-.93c.56-.62.87-1.43.87-2.26,0-1.59-1.3-2.89-2.9-2.89h0ZM14.78,12.94h.43c-.01.08-.05.15-.1.21l-.33.36v-.57h0Z"/>
    </g>
  </g>
</svg>