<?xml version="1.0" encoding="UTF-8"?>
<svg id="Layer_1" xmlns="http://www.w3.org/2000/svg" version="1.1" viewBox="0 0 30 30">
  <!-- Generator: Adobe Illustrator 30.1.0, SVG Export Plug-In . SVG Version: 2.1.1 Build 136)  -->
  <circle id="Outer" cx="15" cy="15" r="13.17" fill="none" stroke="#000" stroke-width="3.67"/>
  <g>
    <g>
      <rect x="14.05" y="19.55" width="1.88" height="1.88"/>
      <path d="M15.65,19.83v1.32h-1.32v-1.32h1.32M16.21,19.27h-2.44v2.44h2.44v-2.44h0Z"/>
    </g>
    <g>
      <path d="M14.05,17.55v-.78c0-.7.25-1.36.72-1.88l1.31-1.45c.31-.34.48-.79.48-1.25,0-.62-.51-1.13-1.14-1.13h-.84c-.63,0-1.14.51-1.14,1.13v.28h-1.89v-.28c0-1.66,1.36-3.02,3.03-3.02h.84c1.67,0,3.03,1.35,3.03,3.02,0,.93-.34,1.82-.97,2.51l-1.31,1.45c-.16.18-.24.39-.24.62v.78h-1.88Z"/>
      <path d="M15.42,9.46c1.52,0,2.75,1.23,2.75,2.73,0,.86-.32,1.68-.89,2.32l-1.31,1.45c-.2.22-.31.5-.32.8v.5h-1.32v-.5c0-.62.23-1.22.65-1.69l1.31-1.45c.36-.4.55-.91.55-1.44,0-.78-.64-1.41-1.42-1.41h-.84c-.78,0-1.42.63-1.42,1.41h-1.33c0-1.51,1.24-2.73,2.75-2.73h.84M15.42,8.9h-.84c-1.83,0-3.32,1.48-3.32,3.3v.56h2.46v-.56c0-.47.39-.85.86-.85h.84c.47,0,.86.38.86.85,0,.39-.15.77-.41,1.06l-1.31,1.45c-.51.57-.8,1.3-.8,2.06v.51s0,.56,0,.56h2.43v-.56s.01-.5.01-.5c0-.16.06-.31.17-.43l1.31-1.45c.67-.74,1.04-1.7,1.04-2.7,0-1.82-1.49-3.3-3.32-3.3h0Z"/>
    </g>
  </g>
</svg>