<?xml version="1.0" encoding="UTF-8"?>
<svg id="Layer_1" xmlns="http://www.w3.org/2000/svg" version="1.1" viewBox="0 0 67 67">
  <!-- Generator: Adobe Illustrator 30.1.0, SVG Export Plug-In . SVG Version: 2.1.1 Build 136)  -->
  <g>
    <g>
      <rect x="31.01" y="20.37" width="4.99" height="4.99"/>
      <path d="M34.84,21.52v2.69h-2.69v-2.69h2.69M37.15,19.21h-7.29v7.29h7.29v-7.29h0Z"/>
    </g>
    <g>
      <polygon points="28.32 45.91 28.32 40.92 31.01 40.92 31.01 34.83 28.32 34.83 28.32 29.84 35.99 29.84 35.99 40.92 38.68 40.92 38.68 45.91 28.32 45.91"/>
      <path d="M34.84,30.99v11.07h2.69v2.69h-8.06v-2.69h2.69v-8.39h-2.69v-2.69h5.37M37.15,28.69h-9.98v7.29h2.69v3.78h-2.69v7.29h12.67v-7.29h-2.69v-11.07h0Z"/>
    </g>
  </g>
  <circle id="Outer" cx="33.5" cy="33.5" r="26.44" fill="none" stroke="#000" stroke-width="14.11"/>
</svg>