<?xml version="1.0" encoding="UTF-8"?>
<svg id="Layer_1" xmlns="http://www.w3.org/2000/svg" version="1.1" viewBox="0 0 67 67">
  <!-- Generator: Adobe Illustrator 30.1.0, SVG Export Plug-In . SVG Version: 2.1.1 Build 136)  -->
  <g>
    <g>
      <rect x="31.07" y="19.1" width="4.86" height="4.86"/>
      <path d="M35.09,19.94v3.19h-3.19v-3.19h3.19M36.77,18.26h-6.54v6.54h6.54v-6.54h0Z"/>
    </g>
    <g>
      <polygon points="27.88 47.42 27.88 42.56 31.07 42.56 31.07 34.29 27.88 34.29 27.88 29.42 35.93 29.42 35.93 42.56 39.12 42.56 39.12 47.42 27.88 47.42"/>
      <path d="M35.09,30.26v13.13h3.19v3.19h-9.56v-3.19h3.19v-9.95h-3.19v-3.19h6.37M36.77,28.59h-9.72v6.54h3.19v6.6h-3.19v6.54h12.91v-6.54h-3.19v-13.13h0Z"/>
    </g>
  </g>
  <circle id="Outer" cx="33.5" cy="33.5" r="28.21" fill="none" stroke="#000" stroke-width="10.57"/>
</svg>