<?xml version="1.0" encoding="UTF-8"?>
<svg id="Layer_1" xmlns="http://www.w3.org/2000/svg" version="1.1" viewBox="0 0 67 67">
  <!-- Generator: Adobe Illustrator 30.1.0, SVG Export Plug-In . SVG Version: 2.1.1 Build 136)  -->
  <g>
    <g>
      <rect x="31.11" y="18.24" width="4.79" height="4.79"/>
      <path d="M35.27,18.87v3.53h-3.53v-3.53h3.53M36.52,17.61h-6.04v6.04h6.04v-6.04h0Z"/>
    </g>
    <g>
      <polygon points="27.57 48.46 27.57 43.67 31.11 43.67 31.11 33.9 27.57 33.9 27.57 29.12 35.89 29.12 35.89 43.67 39.43 43.67 39.43 48.46 27.57 48.46"/>
      <path d="M35.27,29.74v14.56h3.53v3.53h-10.6v-3.53h3.53v-11.03h-3.53v-3.53h7.06M36.52,28.49h-9.58v6.04h3.53v8.51h-3.53v6.04h13.11v-6.04h-3.53v-14.56h0Z"/>
    </g>
  </g>
  <circle id="Outer" cx="33.5" cy="33.5" r="29.41" fill="none" stroke="#000" stroke-width="8.19"/>
</svg>