<?xml version="1.0" encoding="UTF-8"?>
<svg id="Layer_1" xmlns="http://www.w3.org/2000/svg" version="1.1" viewBox="0 0 25 25">
  <!-- Generator: Adobe Illustrator 30.1.0, SVG Export Plug-In . SVG Version: 2.1.1 Build 136)  -->
  <circle id="Outer" cx="12.5" cy="12.5" r="9.87" fill="none" stroke="#000" stroke-width="5.27"/>
  <g>
    <g>
      <rect x="11.69" y="15.45" width="1.6" height="1.61"/>
      <path d="M12.87,15.88v.75h-.75v-.75h.75M13.73,15.02h-2.46v2.46h2.46v-2.46h0Z"/>
    </g>
    <g>
      <path d="M11.7,14.02v-.71c0-.46.17-.9.47-1.24l.74-.82c.13-.14.2-.33.2-.52,0-.2-.17-.37-.38-.37h-.47c-.21,0-.37.17-.37.37v.43h-1.61v-.43c0-1.09.89-1.98,1.99-1.98h.47c1.1,0,1.99.89,1.99,1.98,0,.59-.22,1.16-.62,1.6l-.74.82s-.07.11-.07.17v.71h-1.6Z"/>
      <path d="M12.74,9.18c.86,0,1.56.69,1.56,1.55,0,.48-.18.95-.51,1.31l-.74.82c-.11.13-.18.28-.18.45v.28h-.75v-.28c0-.35.13-.69.37-.95l.74-.82c.2-.22.31-.51.31-.81,0-.44-.36-.8-.8-.8h-.47c-.44,0-.8.36-.8.8h-.75c0-.85.7-1.55,1.56-1.55h.47M12.74,8.32h-.47c-1.33,0-2.42,1.08-2.42,2.4v.86h2.18l-.18.2c-.38.42-.59.96-.59,1.53v.29s.01.85.01.85h2.45v-.85s.01-.22.01-.22l.7-.77c.47-.52.73-1.19.73-1.89,0-1.33-1.08-2.4-2.42-2.4h0ZM12.32,10.79h.36c-.01.07-.04.13-.09.18l-.27.3v-.48h0Z"/>
    </g>
  </g>
</svg>