<?xml version="1.0" encoding="UTF-8"?>
<svg id="Layer_1" xmlns="http://www.w3.org/2000/svg" version="1.1" viewBox="0 0 25 25">
  <!-- Generator: Adobe Illustrator 30.1.0, SVG Export Plug-In . SVG Version: 2.1.1 Build 136)  -->
  <circle id="Outer" cx="12.5" cy="12.5" r="11.41" fill="none" stroke="#000" stroke-width="2.17"/>
  <g>
    <g>
      <rect x="11.71" y="16.63" width="1.56" height="1.56"/>
      <path d="M13.12,16.78v1.25h-1.25v-1.25h1.25M13.43,16.47h-1.88v1.88h1.88v-1.88h0Z"/>
    </g>
    <g>
      <path d="M11.71,14.9v-.63c0-.63.23-1.24.66-1.71l1.24-1.37c.31-.35.49-.79.49-1.26,0-.65-.54-1.19-1.2-1.19h-.8c-.66,0-1.2.53-1.2,1.19v.16h-1.58v-.16c0-1.52,1.24-2.75,2.77-2.75h.8c1.53,0,2.77,1.23,2.77,2.75,0,.85-.32,1.67-.89,2.31l-1.24,1.37c-.17.19-.26.42-.26.66v.63h-1.57Z"/>
      <path d="M12.9,7.33c1.44,0,2.62,1.17,2.62,2.6,0,.81-.3,1.6-.85,2.2l-1.24,1.37c-.19.21-.3.48-.3.76v.47h-1.26v-.47c0-.59.22-1.16.62-1.6l1.24-1.37c.34-.38.53-.86.53-1.37,0-.74-.61-1.34-1.35-1.34h-.8c-.75,0-1.35.6-1.35,1.34h-1.26c0-1.43,1.17-2.6,2.62-2.6h.8M12.9,7.02h-.8c-1.61,0-2.93,1.31-2.93,2.91v.31h1.89v-.31c0-.57.47-1.03,1.04-1.03h.8c.57,0,1.04.46,1.04,1.03,0,.43-.16.84-.45,1.16l-1.24,1.37c-.45.5-.7,1.14-.7,1.81v.48s0,.31,0,.31h1.87v-.31s0-.47,0-.47c0-.21.08-.4.22-.56l1.24-1.37c.6-.66.93-1.52.93-2.41,0-1.6-1.31-2.91-2.93-2.91h0Z"/>
    </g>
  </g>
</svg>