<?xml version="1.0" encoding="UTF-8"?>
<svg id="Layer_1" xmlns="http://www.w3.org/2000/svg" version="1.1" viewBox="0 0 25 25">
  <!-- Generator: Adobe Illustrator 30.1.0, SVG Export Plug-In . SVG Version: 2.1.1 Build 136)  -->
  <circle id="Outer" cx="12.5" cy="12.5" r="10.97" fill="none" stroke="#000" stroke-width="3.05"/>
  <g>
    <g>
      <rect x="11.71" y="16.29" width="1.57" height="1.57"/>
      <path d="M13.04,16.53v1.1h-1.1v-1.1h1.1M13.51,16.06h-2.04v2.04h2.04v-2.04h0Z"/>
    </g>
    <g>
      <path d="M11.71,14.62v-.65c0-.58.21-1.13.6-1.56l1.09-1.21c.26-.29.4-.66.4-1.04,0-.52-.43-.94-.95-.94h-.7c-.52,0-.95.42-.95.94v.23h-1.58v-.23c0-1.39,1.13-2.51,2.53-2.51h.7c1.39,0,2.53,1.13,2.53,2.51,0,.77-.29,1.51-.81,2.09l-1.09,1.21c-.13.15-.2.32-.2.51v.65h-1.57Z"/>
      <path d="M12.85,7.89c1.27,0,2.29,1.02,2.29,2.28,0,.71-.26,1.4-.75,1.93l-1.09,1.21c-.17.19-.26.42-.26.67v.42h-1.1v-.42c0-.52.19-1.02.54-1.4l1.09-1.21c.3-.33.46-.76.46-1.2,0-.65-.53-1.18-1.19-1.18h-.7c-.65,0-1.19.53-1.19,1.18h-1.11c0-1.26,1.03-2.28,2.29-2.28h.7M12.85,7.42h-.7c-1.52,0-2.76,1.23-2.76,2.75v.47h2.05v-.47c0-.39.32-.71.72-.71h.7c.4,0,.72.32.72.71,0,.33-.12.64-.34.88l-1.09,1.21c-.43.47-.66,1.08-.67,1.72v.42s0,.46,0,.46h2.03v-.46s0-.42,0-.42c0-.14.05-.26.14-.36l1.09-1.21c.56-.62.87-1.42.87-2.25,0-1.51-1.24-2.75-2.76-2.75h0Z"/>
    </g>
  </g>
</svg>