<?xml version="1.0" encoding="UTF-8"?>
<svg id="Layer_1" xmlns="http://www.w3.org/2000/svg" version="1.1" viewBox="0 0 25 25">
  <!-- Generator: Adobe Illustrator 30.1.0, SVG Export Plug-In . SVG Version: 2.1.1 Build 136)  -->
  <circle id="Outer" cx="12.5" cy="12.5" r="10.53" fill="none" stroke="#000" stroke-width="3.95"/>
  <g>
    <g>
      <rect x="11.71" y="15.96" width="1.58" height="1.58"/>
      <path d="M12.97,16.27v.95h-.95v-.95h.95M13.59,15.64h-2.2v2.2h2.2v-2.2h0Z"/>
    </g>
    <g>
      <path d="M11.71,14.36v-.67c0-.53.19-1.04.55-1.43l.94-1.04c.21-.23.32-.52.32-.83,0-.39-.32-.71-.71-.71h-.6c-.39,0-.71.32-.71.71v.31h-1.58v-.31c0-1.26,1.03-2.28,2.3-2.28h.6c1.27,0,2.3,1.02,2.3,2.28,0,.7-.26,1.36-.73,1.88l-.94,1.04c-.1.11-.15.23-.15.37v.67h-1.58Z"/>
      <path d="M12.8,8.42c1.09,0,1.99.88,1.99,1.97,0,.62-.23,1.21-.64,1.67l-.94,1.04c-.15.16-.23.36-.23.58v.36h-.95v-.36c0-.45.16-.88.47-1.22l.94-1.04c.26-.29.4-.65.4-1.04,0-.56-.46-1.02-1.03-1.02h-.6c-.57,0-1.03.46-1.03,1.02h-.96c0-1.09.89-1.97,1.99-1.97h.6M12.8,7.8h-.6c-1.44,0-2.61,1.16-2.61,2.6v.62h2.21v-.62c0-.22.18-.39.4-.39h.6c.22,0,.4.18.4.39,0,.23-.08.45-.24.62l-.94,1.04c-.41.45-.63,1.03-.63,1.63v.37s0,.62,0,.62h2.19v-.62s0-.36,0-.36c0-.06.02-.12.07-.17l.94-1.04c.52-.58.81-1.32.81-2.09,0-1.43-1.17-2.6-2.61-2.6h0Z"/>
    </g>
  </g>
</svg>