<?xml version="1.0" encoding="UTF-8"?>
<svg id="Layer_1" xmlns="http://www.w3.org/2000/svg" version="1.1" viewBox="0 0 25 25">
  <!-- Generator: Adobe Illustrator 30.1.0, SVG Export Plug-In . SVG Version: 2.1.1 Build 136)  -->
  <circle id="Outer" cx="12.5" cy="12.5" r="11.63" fill="none" stroke="#000" stroke-width="1.73"/>
  <g>
    <g>
      <rect x="11.71" y="16.79" width="1.56" height="1.57"/>
      <path d="M13.16,16.91v1.33h-1.33v-1.33h1.33M13.39,16.67h-1.8v1.8h1.8v-1.8h0Z"/>
    </g>
    <g>
      <path d="M11.71,15.05v-.62c0-.66.24-1.29.68-1.78l1.32-1.46c.34-.38.53-.87.53-1.37,0-.72-.59-1.31-1.32-1.31h-.85c-.73,0-1.32.59-1.32,1.31v.12h-1.58v-.12c0-1.59,1.3-2.88,2.9-2.88h.85c1.6,0,2.9,1.29,2.9,2.88,0,.89-.33,1.75-.93,2.42l-1.32,1.46c-.19.21-.29.46-.29.73v.62h-1.57Z"/>
      <path d="M12.92,7.05c1.53,0,2.78,1.24,2.78,2.76,0,.87-.32,1.7-.9,2.34l-1.32,1.46c-.2.23-.32.51-.32.81v.5h-1.34v-.5c0-.63.23-1.23.65-1.7l1.32-1.46c.36-.4.56-.92.56-1.45,0-.79-.64-1.43-1.44-1.43h-.85c-.79,0-1.44.64-1.44,1.43h-1.34c0-1.52,1.25-2.76,2.78-2.76h.85M12.92,6.82h-.85c-1.66,0-3.01,1.34-3.01,2.99v.23h1.81v-.23c0-.66.54-1.19,1.2-1.19h.85c.66,0,1.2.53,1.2,1.19,0,.48-.18.94-.5,1.29l-1.32,1.46c-.46.51-.72,1.17-.72,1.86v.51s0,.23,0,.23h1.8v-.23s0-.5,0-.5c0-.24.09-.47.26-.66l1.32-1.46c.62-.69.96-1.58.96-2.5,0-1.65-1.35-2.99-3.01-2.99h0Z"/>
    </g>
  </g>
</svg>