<?xml version="1.0" encoding="UTF-8"?>
<svg id="Layer_1" xmlns="http://www.w3.org/2000/svg" version="1.1" viewBox="0 0 25 25">
  <!-- Generator: Adobe Illustrator 30.1.0, SVG Export Plug-In . SVG Version: 2.1.1 Build 136)  -->
  <circle id="Outer" cx="12.5" cy="12.5" r="10.09" fill="none" stroke="#000" stroke-width="4.83"/>
  <g>
    <g>
      <rect x="11.7" y="15.62" width="1.59" height="1.59"/>
      <path d="M12.9,16.01v.81h-.81v-.81h.81M13.68,15.23h-2.37v2.37h2.37v-2.37h0Z"/>
    </g>
    <g>
      <path d="M11.7,14.13v-.69c0-.48.17-.95.5-1.3l.8-.89c.16-.17.24-.39.24-.62,0-.26-.22-.48-.48-.48h-.52c-.27,0-.48.21-.48.48v.39h-1.6v-.39c0-1.14.94-2.07,2.08-2.07h.52c1.15,0,2.08.93,2.08,2.07,0,.62-.23,1.22-.65,1.69l-.8.89c-.06.07-.09.15-.09.23v.7h-1.59Z"/>
      <path d="M12.76,8.94c.93,0,1.69.75,1.69,1.68,0,.53-.2,1.03-.55,1.43l-.8.89c-.12.14-.19.31-.19.49v.31h-.81v-.31c0-.38.14-.75.4-1.04l.8-.89c.22-.24.34-.56.34-.89,0-.48-.39-.87-.88-.87h-.52c-.48,0-.88.39-.88.87h-.82c0-.93.76-1.68,1.69-1.68h.52M12.76,8.15h-.52c-1.37,0-2.48,1.11-2.48,2.46v.78h2.38v-.78s.04-.09.09-.09h.52c.05,0,.09.04.09.09,0,.13-.05.26-.14.36l-.8.89c-.39.43-.6.98-.6,1.56v.32s0,.77,0,.77h2.36v-.77s.01-.31.01-.31l.8-.87c.48-.54.75-1.23.75-1.95,0-1.36-1.11-2.46-2.48-2.46h0Z"/>
    </g>
  </g>
</svg>