<?xml version="1.0" encoding="UTF-8"?>
<svg id="Layer_1" xmlns="http://www.w3.org/2000/svg" version="1.1" viewBox="0 0 96 96">
  <!-- Generator: Adobe Illustrator 30.1.0, SVG Export Plug-In . SVG Version: 2.1.1 Build 136)  -->
  <circle id="Outer" cx="48" cy="48" r="37.89" fill="none" stroke="#000" stroke-width="20.22"/>
  <g>
    <g>
      <rect x="44.9" y="59.31" width="6.16" height="6.16"/>
      <path d="M49.41,60.96v2.86h-2.86v-2.86h2.86M52.71,57.66h-9.46v9.46h9.46v-9.46h0Z"/>
    </g>
    <g>
      <path d="M44.92,53.84l-.02-2.72c0-1.78.66-3.47,1.84-4.78l2.83-3.14c.5-.56.78-1.27.78-2.02,0-.78-.65-1.42-1.44-1.42h-1.82c-.79,0-1.44.64-1.44,1.42v1.65h-6.19v-1.65c0-4.18,3.42-7.58,7.63-7.58h1.82c4.21,0,7.63,3.4,7.63,7.58,0,2.27-.84,4.45-2.37,6.14l-2.83,3.14c-.17.19-.26.41-.26.64l-.03,2.73h-6.13Z"/>
      <path d="M48.91,35.25c3.3,0,5.98,2.66,5.98,5.93,0,1.86-.69,3.65-1.94,5.04l-2.84,3.14c-.44.49-.68,1.09-.68,1.74v1.08h-2.87v-1.08c0-1.36.5-2.65,1.41-3.66l2.83-3.14c.78-.86,1.2-1.97,1.2-3.12,0-1.69-1.39-3.07-3.09-3.07h-1.82c-1.7,0-3.09,1.38-3.09,3.07h-2.89c0-3.27,2.68-5.93,5.98-5.93h1.82M48.91,31.95h-1.82c-5.12,0-9.28,4.14-9.28,9.23v3.3h8.38l-.68.75c-1.45,1.61-2.26,3.69-2.27,5.86v1.12s.04,3.27.04,3.27h9.4l.03-3.27v-.83s2.68-2.96,2.68-2.96c1.8-1.99,2.79-4.57,2.79-7.25,0-5.09-4.16-9.23-9.28-9.23h0ZM47.3,41.42h1.38c-.04.25-.16.49-.33.68l-1.05,1.16v-1.84h0Z"/>
    </g>
  </g>
</svg>