<?xml version="1.0" encoding="UTF-8"?>
<svg id="Layer_1" xmlns="http://www.w3.org/2000/svg" version="1.1" viewBox="0 0 96 96">
  <!-- Generator: Adobe Illustrator 30.1.0, SVG Export Plug-In . SVG Version: 2.1.1 Build 136)  -->
  <circle id="Outer" cx="48" cy="48" r="42.14" fill="none" stroke="#000" stroke-width="11.73"/>
  <g>
    <g>
      <rect x="44.96" y="62.57" width="6.02" height="6.02"/>
      <path d="M50.08,63.47v4.22h-4.22v-4.22h4.22M51.88,61.67h-7.82v7.82h7.82v-7.82h0Z"/>
    </g>
    <g>
      <path d="M44.98,56.16l-.02-2.49c0-2.23.83-4.36,2.32-6l4.18-4.63c.99-1.1,1.54-2.52,1.54-4,0-2-1.64-3.62-3.65-3.62h-2.68c-2.01,0-3.65,1.62-3.65,3.62v.9h-6.06v-.9c0-5.32,4.36-9.65,9.71-9.65h2.68c5.35,0,9.71,4.33,9.71,9.65,0,2.97-1.1,5.82-3.09,8.03l-4.18,4.63c-.51.56-.78,1.24-.78,1.97l-.02,2.49h-6Z"/>
      <path d="M49.34,30.29c4.86,0,8.81,3.93,8.81,8.75,0,2.74-1.02,5.38-2.86,7.42l-4.18,4.63c-.65.72-1.01,1.61-1.01,2.57l-.02,1.6h-4.22v-1.6c0-2,.73-3.91,2.08-5.39l4.18-4.63c1.14-1.27,1.77-2.9,1.77-4.6,0-2.49-2.04-4.52-4.55-4.52h-2.68c-2.51,0-4.55,2.03-4.55,4.52h-4.26c0-4.82,3.95-8.75,8.81-8.75h2.68M49.34,28.49h-2.68c-5.85,0-10.61,4.73-10.61,10.55v1.8h7.86v-1.8c0-1.5,1.24-2.72,2.75-2.72h2.68c1.52,0,2.75,1.22,2.75,2.72,0,1.25-.47,2.46-1.31,3.4l-4.18,4.63c-1.64,1.81-2.54,4.15-2.55,6.59v1.62s.03,1.78.03,1.78h7.79l.02-1.78.02-1.6c0-.52.18-.98.54-1.38l4.18-4.63c2.14-2.37,3.32-5.44,3.32-8.63,0-5.82-4.76-10.55-10.61-10.55h0Z"/>
    </g>
  </g>
</svg>