<?xml version="1.0" encoding="UTF-8"?>
<svg id="Layer_1" xmlns="http://www.w3.org/2000/svg" version="1.1" viewBox="0 0 96 96">
  <!-- Generator: Adobe Illustrator 30.1.0, SVG Export Plug-In . SVG Version: 2.1.1 Build 136)  -->
  <circle id="Outer" cx="48" cy="48" r="44.67" fill="none" stroke="#000" stroke-width="6.66"/>
  <g>
    <g>
      <rect x="44.96" y="64.48" width="6.01" height="6.01"/>
      <path d="M50.53,64.93v5.11h-5.11v-5.11h5.11M51.43,64.03h-6.91v6.91h6.91v-6.91h0Z"/>
    </g>
    <g>
      <path d="M44.97,57.78l-.02-2.38c0-2.53.95-4.96,2.65-6.84l5.06-5.61c1.31-1.45,2.03-3.32,2.03-5.27,0-2.77-2.27-5.03-5.07-5.03h-3.25c-2.79,0-5.07,2.25-5.07,5.03v.45h-6.06v-.45c0-6.09,4.99-11.05,11.12-11.05h3.25c6.13,0,11.12,4.96,11.12,11.05,0,3.43-1.27,6.74-3.58,9.29l-5.06,5.61c-.72.8-1.1,1.77-1.11,2.81l-.02,2.38h-6Z"/>
      <path d="M49.63,27.08c5.88,0,10.67,4.75,10.67,10.6,0,3.32-1.23,6.52-3.47,8.99l-5.06,5.61c-.78.87-1.22,1.95-1.22,3.11l-.02,1.93h-5.11l-.02-1.93c0-2.42.9-4.73,2.53-6.53l5.06-5.61c1.39-1.53,2.15-3.51,2.15-5.57,0-3.02-2.47-5.48-5.52-5.48h-3.25c-3.04,0-5.52,2.46-5.52,5.48h-5.16c0-5.84,4.79-10.6,10.67-10.6h3.25M49.63,26.18h-3.25c-6.38,0-11.57,5.16-11.57,11.5v.9h6.96v-.9c0-2.52,2.07-4.58,4.62-4.58h3.25c2.55,0,4.62,2.05,4.62,4.58,0,1.84-.68,3.6-1.92,4.97l-5.06,5.61c-1.77,1.96-2.75,4.49-2.76,7.13l.02,1.94v.89h6.9v-.89s.03-1.93.03-1.93c0-.94.35-1.81.99-2.52l5.06-5.61c2.38-2.64,3.7-6.05,3.7-9.59,0-6.34-5.19-11.5-11.57-11.5h0Z"/>
    </g>
  </g>
</svg>