<?xml version="1.0" encoding="UTF-8"?>
<svg id="Layer_1" xmlns="http://www.w3.org/2000/svg" version="1.1" viewBox="0 0 96 96">
  <!-- Generator: Adobe Illustrator 30.1.0, SVG Export Plug-In . SVG Version: 2.1.1 Build 136)  -->
  <circle id="Outer" cx="48" cy="48" r="40.43" fill="none" stroke="#000" stroke-width="15.15"/>
  <g>
    <g>
      <rect x="44.95" y="61.27" width="6.05" height="6.05"/>
      <path d="M49.8,62.47v3.65h-3.65v-3.65h3.65M52.2,60.07h-8.45v8.45h8.45v-8.45h0Z"/>
    </g>
    <g>
      <path d="M44.97,55.16l-.02-2.57c0-2.04.76-3.98,2.12-5.48l3.61-4c.79-.88,1.23-2,1.23-3.18,0-1.5-1.23-2.71-2.74-2.71h-2.32c-1.51,0-2.74,1.22-2.74,2.71v1.2h-6.08v-1.2c0-4.84,3.96-8.77,8.82-8.77h2.32c4.87,0,8.82,3.93,8.82,8.77,0,2.67-.99,5.24-2.79,7.23l-3.62,4.01c-.37.41-.56.9-.56,1.42l-.03,2.58h-6.03Z"/>
      <path d="M49.16,32.35c4.2,0,7.62,3.4,7.62,7.57,0,2.37-.88,4.66-2.48,6.42l-3.62,4.01c-.56.62-.87,1.39-.87,2.22v1.38h-3.66v-1.38c0-1.73.63-3.38,1.8-4.67l3.62-4.01c.99-1.1,1.53-2.51,1.53-3.98,0-2.16-1.77-3.91-3.94-3.91h-2.32c-2.17,0-3.94,1.76-3.94,3.91h-3.68c0-4.17,3.42-7.57,7.62-7.57h2.32M49.16,29.95h-2.32c-5.53,0-10.02,4.47-10.02,9.97v2.4h8.48v-2.4c0-.83.69-1.51,1.54-1.51h2.32c.85,0,1.54.68,1.54,1.51,0,.88-.33,1.72-.92,2.37l-3.62,4.01c-1.56,1.72-2.42,3.95-2.43,6.27v1.41s.03,2.38.03,2.38h8.41l.02-2.38v-1.38c.01-.25.1-.45.27-.64l3.62-4.01c1.99-2.21,3.09-5.06,3.09-8.03,0-5.5-4.5-9.97-10.02-9.97h0Z"/>
    </g>
  </g>
</svg>