<?xml version="1.0" encoding="UTF-8"?>
<svg id="Layer_1" xmlns="http://www.w3.org/2000/svg" version="1.1" viewBox="0 0 96 96">
  <!-- Generator: Adobe Illustrator 30.1.0, SVG Export Plug-In . SVG Version: 2.1.1 Build 136)  -->
  <circle id="Outer" cx="48" cy="48" r="38.73" fill="none" stroke="#000" stroke-width="18.54"/>
  <g>
    <g>
      <rect x="44.92" y="59.97" width="6.12" height="6.12"/>
      <path d="M49.53,61.47v3.12h-3.12v-3.12h3.12M52.53,58.47h-9.12v9.12h9.12v-9.12h0Z"/>
    </g>
    <g>
      <path d="M44.94,54.25l-.02-2.67c0-1.86.69-3.63,1.93-5l3.09-3.42c.59-.66.92-1.51.92-2.39,0-1.01-.83-1.84-1.86-1.84h-1.98c-1.03,0-1.86.83-1.86,1.84v1.5h-6.14v-1.5c0-4.39,3.59-7.96,8.01-7.96h1.98c4.41,0,8.01,3.57,8.01,7.96,0,2.4-.89,4.7-2.5,6.49l-3.09,3.42c-.24.26-.36.56-.36.9l-.03,2.67h-6.09Z"/>
      <path d="M48.99,34.31c3.59,0,6.51,2.9,6.51,6.46,0,2.03-.75,3.97-2.11,5.48l-3.09,3.42c-.48.53-.74,1.19-.75,1.9v1.18h-3.13v-1.18c0-1.48.54-2.88,1.53-3.98l3.09-3.42c.84-.94,1.31-2.14,1.31-3.4,0-1.84-1.51-3.34-3.36-3.34h-1.98c-1.85,0-3.36,1.5-3.36,3.34h-3.14c0-3.56,2.92-6.46,6.51-6.46h1.98M48.99,31.31h-1.98c-5.24,0-9.51,4.24-9.51,9.46v3h9.14v-3c0-.18.17-.34.36-.34h1.98c.2,0,.36.16.36.34,0,.51-.19,1-.54,1.39l-3.09,3.42c-1.49,1.64-2.31,3.77-2.32,5.98v1.22s.04,2.97.04,2.97h9.06l.03-2.97v-1.13s3.07-3.39,3.07-3.39c1.86-2.06,2.89-4.72,2.89-7.49,0-5.22-4.26-9.46-9.51-9.46h0Z"/>
    </g>
  </g>
</svg>