<?xml version="1.0" encoding="UTF-8"?>
<svg id="Layer_1" xmlns="http://www.w3.org/2000/svg" version="1.1" viewBox="0 0 96 96">
  <!-- Generator: Adobe Illustrator 30.1.0, SVG Export Plug-In . SVG Version: 2.1.1 Build 136)  -->
  <circle id="Outer" cx="48" cy="48" r="43.83" fill="none" stroke="#000" stroke-width="8.34"/>
  <g>
    <g>
      <rect x="44.97" y="63.85" width="6.01" height="6.01"/>
      <path d="M50.38,64.45v4.81h-4.81v-4.81h4.81M51.58,63.25h-7.21v7.21h7.21v-7.21h0Z"/>
    </g>
    <g>
      <path d="M44.97,57.22l-.02-2.41c0-2.43.91-4.76,2.54-6.55l4.76-5.28c1.2-1.33,1.87-3.05,1.87-4.84,0-2.51-2.06-4.55-4.59-4.55h-3.06c-2.53,0-4.59,2.04-4.59,4.55v.6h-6.05v-.6c0-5.83,4.77-10.57,10.64-10.57h3.06c5.87,0,10.64,4.74,10.64,10.57,0,3.28-1.21,6.42-3.42,8.86l-4.76,5.28c-.65.72-.99,1.59-1,2.53l-.02,2.42h-6Z"/>
      <path d="M49.53,28.16c5.54,0,10.04,4.47,10.04,9.97,0,3.13-1.16,6.13-3.26,8.46l-4.76,5.28c-.74.82-1.15,1.83-1.15,2.93l-.02,1.82h-4.81l-.02-1.82c0-2.28.85-4.45,2.38-6.15l4.76-5.28c1.3-1.44,2.02-3.31,2.02-5.25,0-2.84-2.33-5.15-5.19-5.15h-3.06c-2.86,0-5.19,2.31-5.19,5.15h-4.85c0-5.5,4.5-9.97,10.04-9.97h3.06M49.53,26.96h-3.06c-6.2,0-11.24,5.01-11.24,11.17v1.2h7.25v-1.2c0-2.18,1.79-3.95,3.99-3.95h3.06c2.2,0,3.99,1.77,3.99,3.95,0,1.64-.61,3.22-1.71,4.44l-4.76,5.28c-1.73,1.91-2.68,4.38-2.69,6.95l.02,1.83v1.19h7.2v-1.19s.03-1.82.03-1.82c0-.8.29-1.53.84-2.14l4.76-5.28c2.3-2.55,3.57-5.84,3.57-9.27,0-6.16-5.04-11.17-11.24-11.17h0Z"/>
    </g>
  </g>
</svg>