<?xml version="1.0" encoding="UTF-8"?>
<svg id="Layer_1" xmlns="http://www.w3.org/2000/svg" version="1.1" viewBox="0 0 90 90">
  <!-- Generator: Adobe Illustrator 30.1.0, SVG Export Plug-In . SVG Version: 2.1.1 Build 136)  -->
  <circle id="Outer" cx="45" cy="45" r="35.52" fill="none" stroke="#000" stroke-width="18.96"/>
  <g>
    <g>
      <rect x="42.09" y="55.6" width="5.78" height="5.78"/>
      <path d="M46.32,57.15v2.68h-2.68v-2.68h2.68M49.41,54.06h-8.87v8.87h8.87v-8.87h0Z"/>
    </g>
    <g>
      <path d="M42.11,50.47l-.02-2.55c0-1.67.62-3.26,1.73-4.48l2.66-2.94c.47-.52.73-1.19.73-1.89,0-.73-.61-1.33-1.35-1.33h-1.71c-.74,0-1.35.6-1.35,1.33v1.55h-5.8v-1.55c0-3.92,3.21-7.11,7.15-7.11h1.71c3.94,0,7.15,3.19,7.15,7.11,0,2.13-.79,4.17-2.22,5.76l-2.66,2.94c-.16.18-.24.38-.24.6l-.02,2.56h-5.75Z"/>
      <path d="M45.85,33.05c3.09,0,5.6,2.5,5.6,5.56,0,1.75-.65,3.42-1.82,4.72l-2.66,2.95c-.41.46-.64,1.02-.64,1.63v1.01h-2.69v-1.01c0-1.27.46-2.48,1.32-3.43l2.66-2.94c.73-.81,1.13-1.85,1.13-2.93,0-1.59-1.3-2.88-2.9-2.88h-1.71c-1.6,0-2.9,1.29-2.9,2.88h-2.71c0-3.07,2.51-5.56,5.6-5.56h1.71M45.85,29.95h-1.71c-4.8,0-8.7,3.88-8.7,8.66v3.09h7.85l-.64.7c-1.36,1.51-2.12,3.46-2.13,5.49v1.05s.04,3.07.04,3.07h8.81l.03-3.06v-.78s2.51-2.78,2.51-2.78c1.69-1.87,2.62-4.28,2.62-6.79,0-4.77-3.9-8.66-8.7-8.66h0ZM44.34,38.83h1.29c-.04.23-.15.45-.31.64l-.98,1.09v-1.72h0Z"/>
    </g>
  </g>
</svg>