<?xml version="1.0" encoding="UTF-8"?>
<svg id="Layer_1" xmlns="http://www.w3.org/2000/svg" version="1.1" viewBox="0 0 90 90">
  <!-- Generator: Adobe Illustrator 30.1.0, SVG Export Plug-In . SVG Version: 2.1.1 Build 136)  -->
  <circle id="Outer" cx="45" cy="45" r="37.9" fill="none" stroke="#000" stroke-width="14.2"/>
  <g>
    <g>
      <rect x="42.14" y="57.44" width="5.67" height="5.67"/>
      <path d="M46.69,58.57v3.42h-3.42v-3.42h3.42M48.94,56.32h-7.92v7.92h7.92v-7.92h0Z"/>
    </g>
    <g>
      <path d="M42.15,51.71l-.02-2.41c0-1.91.71-3.73,1.99-5.14l3.39-3.75c.74-.82,1.15-1.88,1.15-2.98,0-1.4-1.15-2.54-2.57-2.54h-2.18c-1.42,0-2.57,1.14-2.57,2.54v1.12h-5.7v-1.12c0-4.53,3.71-8.22,8.27-8.22h2.18c4.56,0,8.27,3.69,8.27,8.22,0,2.5-.93,4.91-2.61,6.78l-3.39,3.76c-.34.38-.53.84-.53,1.33l-.03,2.42h-5.65Z"/>
      <path d="M46.09,30.33c3.94,0,7.15,3.18,7.15,7.1,0,2.23-.82,4.36-2.32,6.02l-3.39,3.76c-.53.58-.82,1.3-.82,2.08v1.29h-3.44v-1.29c0-1.62.59-3.17,1.68-4.37l3.39-3.75c.93-1.03,1.44-2.35,1.44-3.73,0-2.02-1.66-3.67-3.69-3.67h-2.18c-2.04,0-3.69,1.65-3.69,3.67h-3.45c0-3.91,3.21-7.1,7.15-7.1h2.18M46.09,28.08h-2.18c-5.18,0-9.4,4.19-9.4,9.35v2.25h7.95v-2.25c0-.78.65-1.42,1.44-1.42h2.18c.8,0,1.44.64,1.44,1.42,0,.82-.31,1.61-.86,2.23l-3.39,3.76c-1.46,1.61-2.27,3.7-2.28,5.87v1.32s.03,2.23.03,2.23h7.88l.02-2.23v-1.29c.01-.23.09-.42.25-.6l3.39-3.76c1.87-2.07,2.9-4.75,2.9-7.53,0-5.15-4.22-9.35-9.4-9.35h0Z"/>
    </g>
  </g>
</svg>