<?xml version="1.0" encoding="UTF-8"?>
<svg id="Layer_1" xmlns="http://www.w3.org/2000/svg" version="1.1" viewBox="0 0 90 90">
  <!-- Generator: Adobe Illustrator 30.1.0, SVG Export Plug-In . SVG Version: 2.1.1 Build 136)  -->
  <circle id="Outer" cx="45" cy="45" r="41.09" fill="none" stroke="#000" stroke-width="7.82"/>
  <g>
    <g>
      <rect x="42.16" y="59.86" width="5.63" height="5.63"/>
      <path d="M47.23,60.42v4.51h-4.51v-4.51h4.51M48.35,59.3h-6.76v6.76h6.76v-6.76h0Z"/>
    </g>
    <g>
      <path d="M42.16,53.65l-.02-2.26c0-2.28.85-4.46,2.38-6.15l4.46-4.95c1.13-1.25,1.75-2.86,1.75-4.54,0-2.35-1.93-4.27-4.3-4.27h-2.87c-2.37,0-4.3,1.92-4.3,4.27v.56h-5.67v-.56c0-5.46,4.48-9.91,9.98-9.91h2.87c5.5,0,9.98,4.45,9.98,9.91,0,3.07-1.14,6.02-3.2,8.31l-4.47,4.95c-.61.67-.93,1.49-.93,2.37l-.02,2.27h-5.62Z"/>
      <path d="M46.43,26.4c5.19,0,9.41,4.19,9.41,9.35,0,2.93-1.09,5.75-3.06,7.93l-4.47,4.95c-.69.77-1.07,1.72-1.08,2.75l-.02,1.71h-4.51l-.02-1.71c0-2.14.8-4.17,2.23-5.76l4.47-4.95c1.22-1.35,1.9-3.1,1.9-4.92,0-2.66-2.18-4.83-4.87-4.83h-2.87c-2.68,0-4.87,2.17-4.87,4.83h-4.55c0-5.15,4.22-9.35,9.41-9.35h2.87M46.43,25.28h-2.87c-5.81,0-10.54,4.7-10.54,10.47v1.12h6.8v-1.12c0-2.04,1.68-3.71,3.74-3.71h2.87c2.06,0,3.74,1.66,3.74,3.71,0,1.54-.57,3.02-1.61,4.16l-4.47,4.95c-1.62,1.79-2.51,4.1-2.52,6.51l.02,1.72v1.12h6.75v-1.11s.03-1.71.03-1.71c0-.75.27-1.44.79-2l4.47-4.95c2.16-2.39,3.35-5.48,3.35-8.69,0-5.78-4.73-10.47-10.54-10.47h0Z"/>
    </g>
  </g>
</svg>