<?xml version="1.0" encoding="UTF-8"?>
<svg id="Layer_1" xmlns="http://www.w3.org/2000/svg" version="1.1" viewBox="0 0 90 90">
  <!-- Generator: Adobe Illustrator 30.1.0, SVG Export Plug-In . SVG Version: 2.1.1 Build 136)  -->
  <circle id="Outer" cx="45" cy="45" r="39.5" fill="none" stroke="#000" stroke-width="11"/>
  <g>
    <g>
      <rect x="42.15" y="58.66" width="5.64" height="5.64"/>
      <path d="M46.95,59.5v3.96h-3.96v-3.96h3.96M48.64,57.82h-7.33v7.33h7.33v-7.33h0Z"/>
    </g>
    <g>
      <path d="M42.16,52.65l-.02-2.33c0-2.09.78-4.09,2.18-5.63l3.92-4.34c.93-1.03,1.45-2.36,1.45-3.75,0-1.87-1.54-3.4-3.43-3.4h-2.52c-1.89,0-3.43,1.52-3.43,3.4v.84h-5.68v-.84c0-4.99,4.08-9.05,9.1-9.05h2.52c5.02,0,9.1,4.06,9.1,9.05,0,2.78-1.03,5.45-2.9,7.52l-3.92,4.34c-.47.53-.73,1.16-.73,1.85l-.02,2.34h-5.63Z"/>
      <path d="M46.26,28.39c4.55,0,8.26,3.68,8.26,8.2,0,2.57-.95,5.04-2.68,6.96l-3.92,4.34c-.61.67-.94,1.51-.95,2.41l-.02,1.5h-3.96v-1.5c0-1.87.68-3.66,1.95-5.06l3.92-4.34c1.07-1.19,1.66-2.72,1.66-4.31,0-2.34-1.92-4.24-4.27-4.24h-2.52c-2.35,0-4.27,1.9-4.27,4.24h-3.99c0-4.52,3.71-8.2,8.26-8.2h2.52M46.26,26.71h-2.52c-5.48,0-9.95,4.44-9.95,9.89v1.69h7.37v-1.69c0-1.41,1.16-2.55,2.58-2.55h2.52c1.42,0,2.58,1.14,2.58,2.55,0,1.18-.44,2.31-1.23,3.18l-3.92,4.34c-1.54,1.7-2.39,3.89-2.39,6.18v1.52s.03,1.67.03,1.67h7.3l.02-1.67.02-1.5c0-.49.17-.92.51-1.29l3.92-4.34c2.01-2.23,3.12-5.1,3.12-8.09,0-5.45-4.46-9.89-9.95-9.89h0Z"/>
    </g>
  </g>
</svg>