<?xml version="1.0" encoding="UTF-8"?>
<svg id="Layer_1" xmlns="http://www.w3.org/2000/svg" version="1.1" viewBox="0 0 90 90">
  <!-- Generator: Adobe Illustrator 30.1.0, SVG Export Plug-In . SVG Version: 2.1.1 Build 136)  -->
  <circle id="Outer" cx="45" cy="45" r="41.88" fill="none" stroke="#000" stroke-width="6.24"/>
  <g>
    <g>
      <rect x="42.15" y="60.45" width="5.63" height="5.63"/>
      <path d="M47.37,60.87v4.79h-4.79v-4.79h4.79M48.21,60.03h-6.48v6.48h6.48v-6.48h0Z"/>
    </g>
    <g>
      <path d="M42.16,54.17l-.02-2.23c0-2.38.89-4.65,2.48-6.41l4.74-5.26c1.23-1.36,1.91-3.12,1.91-4.94,0-2.6-2.13-4.71-4.75-4.71h-3.05c-2.62,0-4.75,2.11-4.75,4.71v.42h-5.68v-.42c0-5.71,4.68-10.36,10.43-10.36h3.05c5.75,0,10.43,4.65,10.43,10.36,0,3.22-1.19,6.31-3.36,8.71l-4.75,5.26c-.68.75-1.03,1.66-1.04,2.64l-.02,2.23h-5.63Z"/>
      <path d="M46.52,25.39c5.52,0,10,4.46,10,9.93,0,3.12-1.15,6.11-3.25,8.43l-4.75,5.26c-.74.81-1.14,1.82-1.15,2.92l-.02,1.81h-4.79l-.02-1.81c0-2.27.85-4.43,2.37-6.12l4.75-5.26c1.3-1.44,2.01-3.3,2.01-5.23,0-2.83-2.32-5.13-5.17-5.13h-3.05c-2.85,0-5.17,2.3-5.17,5.13h-4.83c0-5.48,4.49-9.93,10-9.93h3.05M46.52,24.55h-3.05c-5.98,0-10.85,4.84-10.85,10.78v.84h6.52v-.84c0-2.37,1.94-4.29,4.33-4.29h3.05c2.39,0,4.33,1.92,4.33,4.29,0,1.72-.64,3.38-1.8,4.66l-4.75,5.26c-1.66,1.84-2.58,4.21-2.59,6.69l.02,1.82v.84h6.47v-.84s.03-1.81.03-1.81c0-.88.32-1.69.93-2.36l4.75-5.26c2.24-2.48,3.47-5.67,3.47-9,0-5.94-4.87-10.78-10.85-10.78h0Z"/>
    </g>
  </g>
</svg>