<?xml version="1.0" encoding="UTF-8"?>
<svg id="Layer_1" xmlns="http://www.w3.org/2000/svg" version="1.1" viewBox="0 0 90 90">
  <!-- Generator: Adobe Illustrator 30.1.0, SVG Export Plug-In . SVG Version: 2.1.1 Build 136)  -->
  <circle id="Outer" cx="45" cy="45" r="36.31" fill="none" stroke="#000" stroke-width="17.38"/>
  <g>
    <g>
      <rect x="42.11" y="56.22" width="5.73" height="5.73"/>
      <path d="M46.44,57.62v2.92h-2.92v-2.92h2.92M49.25,54.81h-8.55v8.55h8.55v-8.55h0Z"/>
    </g>
    <g>
      <path d="M42.13,50.86l-.02-2.5c0-1.75.65-3.41,1.81-4.69l2.89-3.2c.56-.62.87-1.42.87-2.24,0-.95-.78-1.72-1.75-1.72h-1.86c-.96,0-1.75.77-1.75,1.72v1.41h-5.76v-1.41c0-4.12,3.37-7.46,7.51-7.46h1.86c4.14,0,7.51,3.35,7.51,7.46,0,2.25-.83,4.41-2.34,6.08l-2.89,3.21c-.22.25-.33.53-.34.84l-.03,2.51h-5.71Z"/>
      <path d="M45.93,32.17c3.36,0,6.1,2.72,6.1,6.06,0,1.9-.7,3.72-1.98,5.14l-2.89,3.21c-.45.5-.7,1.11-.7,1.78v1.1h-2.93v-1.1c0-1.38.51-2.7,1.44-3.73l2.89-3.2c.79-.88,1.23-2.01,1.23-3.19,0-1.73-1.41-3.13-3.15-3.13h-1.86c-1.74,0-3.15,1.4-3.15,3.13h-2.95c0-3.34,2.74-6.06,6.1-6.06h1.86M45.93,29.36h-1.86c-4.91,0-8.91,3.98-8.91,8.87v2.81h8.57v-2.81c0-.17.16-.32.34-.32h1.86c.18,0,.34.15.34.32,0,.48-.18.94-.5,1.3l-2.89,3.21c-1.39,1.54-2.16,3.53-2.17,5.61v1.14s.03,2.79.03,2.79h8.49l.03-2.78v-1.06s2.88-3.18,2.88-3.18c1.74-1.93,2.71-4.43,2.71-7.02,0-4.89-4-8.87-8.91-8.87h0Z"/>
    </g>
  </g>
</svg>