<?xml version="1.0" encoding="UTF-8"?>
<svg id="Layer_1" xmlns="http://www.w3.org/2000/svg" version="1.1" viewBox="0 0 62 62">
  <!-- Generator: Adobe Illustrator 30.1.0, SVG Export Plug-In . SVG Version: 2.1.1 Build 136)  -->
  <path d="M31,9.78c.69,0,1.38.36,1.74,1.07l4.44,8.81c.76,1.51,2.18,2.58,3.84,2.89l9.6,1.8c1.5.28,2.11,2.11,1.08,3.24l-7,7.68c-1.08,1.18-1.58,2.79-1.37,4.38l1.37,10.35c.16,1.23-.82,2.21-1.93,2.21-.29,0-.6-.07-.89-.22l-8.4-4.33c-.78-.4-1.63-.6-2.48-.6-.85,0-1.7.2-2.48.6l-8.4,4.33c-.29.15-.6.22-.89.22-1.11,0-2.09-.98-1.93-2.21l1.37-10.35c.21-1.59-.29-3.19-1.37-4.37l-7-7.68c-1.03-1.13-.42-2.96,1.08-3.24l9.6-1.8c1.66-.31,3.08-1.38,3.84-2.89l4.44-8.81c.36-.72,1.05-1.07,1.74-1.07M31,0c-4.46,0-8.47,2.47-10.48,6.46l-3.47,6.89-7.48,1.4c-4.18.78-7.61,3.77-8.96,7.81-1.35,4.03-.41,8.49,2.45,11.64l5.63,6.18-1.1,8.35c-.44,3.35.58,6.73,2.8,9.27,2.23,2.55,5.45,4.01,8.83,4.01,1.86,0,3.71-.45,5.37-1.31l6.4-3.3,6.4,3.3c1.66.85,3.52,1.31,5.37,1.31,3.38,0,6.59-1.46,8.83-4.01,2.22-2.54,3.25-5.92,2.8-9.27l-1.1-8.35,5.64-6.18c2.87-3.14,3.81-7.6,2.45-11.64-1.35-4.03-4.79-7.02-8.96-7.81l-7.48-1.4-3.47-6.89c-2.01-3.98-6.02-6.46-10.48-6.46h0Z"/>
</svg>