<?xml version="1.0" encoding="UTF-8"?>
<svg id="Layer_1" xmlns="http://www.w3.org/2000/svg" version="1.1" viewBox="0 0 62 62">
  <!-- Generator: Adobe Illustrator 30.1.0, SVG Export Plug-In . SVG Version: 2.1.1 Build 136)  -->
  <path d="M31,11.97c.62,0,1.24.32,1.56.96l3.98,7.9c.68,1.36,1.96,2.32,3.45,2.59l8.61,1.61c1.35.25,1.89,1.89.97,2.9l-6.27,6.88c-.97,1.06-1.42,2.5-1.23,3.93l1.22,9.28c.15,1.11-.74,1.98-1.73,1.98-.26,0-.54-.06-.8-.2l-7.53-3.88c-.7-.36-1.46-.54-2.22-.54s-1.53.18-2.22.54l-7.53,3.88c-.26.14-.53.2-.8.2-1,0-1.88-.88-1.73-1.98l1.22-9.29c.19-1.42-.26-2.86-1.23-3.92l-6.27-6.89c-.92-1.01-.38-2.65.97-2.9l8.61-1.61c1.49-.28,2.76-1.24,3.45-2.59l3.98-7.9c.32-.64.94-.96,1.56-.96M31,0C25.79,0,21.09,2.89,18.75,7.55l-2.4,4.76-5.15.97c-4.89.92-8.9,4.41-10.48,9.13-1.58,4.72-.48,9.93,2.87,13.61l4.05,4.45-.79,6.02c-.52,3.92.68,7.87,3.28,10.84,2.61,2.98,6.37,4.68,10.32,4.68,2.17,0,4.34-.53,6.28-1.53l4.27-2.2,4.27,2.2c1.94,1,4.11,1.53,6.28,1.53,3.95,0,7.71-1.71,10.32-4.68,2.6-2.97,3.8-6.92,3.28-10.84l-.79-6.02,4.05-4.45c3.35-3.68,4.45-8.89,2.87-13.61-1.58-4.72-5.6-8.21-10.48-9.13l-5.15-.97-2.4-4.76C40.91,2.89,36.21,0,31,0h0Z"/>
</svg>