<?xml version="1.0" encoding="UTF-8"?>
<svg id="Layer_1" xmlns="http://www.w3.org/2000/svg" version="1.1" viewBox="0 0 62 62">
  <!-- Generator: Adobe Illustrator 30.1.0, SVG Export Plug-In . SVG Version: 2.1.1 Build 136)  -->
  <path d="M31,4.3c.87,0,1.74.45,2.19,1.35l5.59,11.09c.96,1.9,2.75,3.25,4.84,3.64l12.08,2.27c1.89.35,2.66,2.65,1.36,4.07l-8.8,9.66c-1.36,1.49-1.99,3.51-1.73,5.51l1.72,13.03c.2,1.55-1.03,2.78-2.43,2.78-.37,0-.75-.09-1.12-.28l-10.57-5.44c-.98-.5-2.05-.76-3.12-.76s-2.14.25-3.12.76l-10.57,5.44c-.37.19-.75.28-1.12.28-1.4,0-2.64-1.23-2.43-2.78l1.72-13.03c.26-2-.37-4.01-1.72-5.5l-8.8-9.66c-1.3-1.42-.53-3.72,1.36-4.08l12.08-2.26c2.09-.39,3.88-1.74,4.83-3.64l5.59-11.09c.45-.9,1.32-1.35,2.19-1.35M31,0C28.43,0,26.12,1.42,24.97,3.72l-5.59,11.09c-.35.7-1.02,1.2-1.79,1.35l-12.08,2.26c-2.41.45-4.38,2.17-5.16,4.5-.78,2.32-.24,4.89,1.41,6.7l8.8,9.66c.5.55.74,1.3.64,2.04l-1.72,13.03c-.25,1.93.33,3.88,1.61,5.34,1.29,1.47,3.14,2.31,5.08,2.31,1.06,0,2.13-.26,3.09-.75l10.57-5.44c.36-.18.75-.28,1.15-.28s.8.1,1.15.28l10.57,5.44c.96.49,2.03.75,3.09.75,1.94,0,3.8-.84,5.08-2.31,1.28-1.46,1.87-3.4,1.61-5.34l-1.72-13.03c-.1-.75.14-1.49.64-2.05l8.8-9.66c1.65-1.81,2.19-4.38,1.41-6.7-.78-2.32-2.75-4.04-5.16-4.49l-12.08-2.27c-.77-.14-1.44-.65-1.79-1.35l-5.59-11.09C35.88,1.42,33.56,0,31,0h0Z"/>
</svg>