<?xml version="1.0" encoding="UTF-8"?>
<svg id="Layer_1" xmlns="http://www.w3.org/2000/svg" version="1.1" viewBox="0 0 62 62">
  <!-- Generator: Adobe Illustrator 30.1.0, SVG Export Plug-In . SVG Version: 2.1.1 Build 136)  -->
  <g>
    <g>
      <rect x="28.82" y="16.09" width="4.37" height="4.37"/>
      <path d="M32.8,16.48v3.59h-3.59v-3.59h3.59M33.57,15.7h-5.14v5.14h5.14v-5.14h0Z"/>
    </g>
    <g>
      <polygon points="25.23 45.82 25.23 41.45 28.82 41.45 28.82 31.02 25.23 31.02 25.23 26.65 33.18 26.65 33.18 41.45 36.77 41.45 36.77 45.82 25.23 45.82"/>
      <path d="M32.8,27.04v14.8h3.59v3.59h-10.77v-3.59h3.59v-11.21h-3.59v-3.59h7.18M33.57,26.26h-8.73v5.14h3.59v9.66h-3.59v5.14h12.32v-5.14h-3.59v-14.8h0Z"/>
    </g>
  </g>
  <circle id="Outer" cx="31" cy="31" r="28.31" fill="none" stroke="#000" stroke-width="5.39"/>
</svg>