<?xml version="1.0" encoding="UTF-8"?>
<svg id="Layer_1" xmlns="http://www.w3.org/2000/svg" version="1.1" viewBox="0 0 62 62">
  <!-- Generator: Adobe Illustrator 30.1.0, SVG Export Plug-In . SVG Version: 2.1.1 Build 136)  -->
  <g>
    <g>
      <rect x="28.75" y="17.68" width="4.5" height="4.5"/>
      <path d="M32.47,18.45v2.95h-2.95v-2.95h2.95M34.02,16.9h-6.05v6.05h6.05v-6.05h0Z"/>
    </g>
    <g>
      <polygon points="25.8 43.88 25.8 39.38 28.75 39.38 28.75 31.73 25.8 31.73 25.8 27.23 33.25 27.23 33.25 39.38 36.2 39.38 36.2 43.88 25.8 43.88"/>
      <path d="M32.47,28v12.15h2.95v2.95h-8.85v-2.95h2.95v-9.2h-2.95v-2.95h5.9M34.02,26.45h-9v6.05h2.95v6.1h-2.95v6.05h11.95v-6.05h-2.95v-12.15h0Z"/>
    </g>
  </g>
  <circle id="Outer" cx="31" cy="31" r="26.11" fill="none" stroke="#000" stroke-width="9.78"/>
</svg>