<?xml version="1.0" encoding="UTF-8"?>
<svg id="Layer_1" xmlns="http://www.w3.org/2000/svg" version="1.1" viewBox="0 0 71 71">
  <!-- Generator: Adobe Illustrator 30.1.0, SVG Export Plug-In . SVG Version: 2.1.1 Build 136)  -->
  <circle id="Outer" cx="35.5" cy="35.5" r="28.02" fill="none" stroke="#000" stroke-width="14.95"/>
  <g>
    <g>
      <rect x="33.21" y="43.87" width="4.56" height="4.56"/>
      <path d="M36.54,45.09v2.12h-2.12v-2.12h2.12M38.98,42.65h-7v7h7v-7h0Z"/>
    </g>
    <g>
      <path d="M33.22,39.82l-.02-2.01c0-1.32.49-2.57,1.36-3.53l2.1-2.32c.37-.41.57-.94.57-1.49,0-.58-.48-1.05-1.06-1.05h-1.35c-.59,0-1.06.47-1.06,1.05v1.22h-4.58v-1.22c0-3.09,2.53-5.61,5.64-5.61h1.35c3.11,0,5.64,2.52,5.64,5.61,0,1.68-.62,3.29-1.75,4.54l-2.1,2.32c-.13.14-.19.3-.19.48l-.02,2.02h-4.53Z"/>
      <path d="M36.17,26.07c2.44,0,4.42,1.97,4.42,4.39,0,1.38-.51,2.7-1.44,3.72l-2.1,2.32c-.32.36-.5.81-.51,1.29v.8h-2.12v-.8c0-1,.37-1.96,1.04-2.71l2.1-2.32c.57-.64.89-1.46.89-2.31,0-1.25-1.03-2.27-2.28-2.27h-1.35c-1.26,0-2.28,1.02-2.28,2.27h-2.14c0-2.42,1.98-4.39,4.42-4.39h1.35M36.17,23.63h-1.35c-3.78,0-6.86,3.06-6.86,6.83v2.44h6.2l-.5.56c-1.08,1.19-1.67,2.73-1.68,4.33v.83s.03,2.42.03,2.42h2.42s2.12,0,2.12,0h2.42l.02-2.42v-.61s1.98-2.19,1.98-2.19c1.33-1.47,2.06-3.38,2.06-5.36,0-3.77-3.08-6.83-6.86-6.83h0ZM34.98,30.63h1.02c-.03.18-.12.36-.25.5l-.77.86v-1.36h0Z"/>
    </g>
  </g>
</svg>