<?xml version="1.0" encoding="UTF-8"?>
<svg id="Layer_1" xmlns="http://www.w3.org/2000/svg" version="1.1" viewBox="0 0 71 71">
  <!-- Generator: Adobe Illustrator 30.1.0, SVG Export Plug-In . SVG Version: 2.1.1 Build 136)  -->
  <circle id="Outer" cx="35.5" cy="35.5" r="31.16" fill="none" stroke="#000" stroke-width="8.68"/>
  <g>
    <g>
      <rect x="33.25" y="46.28" width="4.45" height="4.45"/>
      <path d="M37.04,46.94v3.12h-3.12v-3.12h3.12M38.37,45.61h-5.78v5.78h5.78v-5.78h0Z"/>
    </g>
    <g>
      <path d="M33.26,41.53l-.02-1.84c0-1.65.62-3.22,1.72-4.44l3.09-3.42c.74-.81,1.14-1.87,1.14-2.96,0-1.48-1.21-2.68-2.7-2.68h-1.98c-1.49,0-2.7,1.2-2.7,2.68v.67h-4.48v-.67c0-3.93,3.22-7.14,7.18-7.14h1.98c3.96,0,7.18,3.2,7.18,7.14,0,2.19-.81,4.3-2.29,5.94l-3.09,3.43c-.38.41-.57.92-.57,1.46l-.02,1.84h-4.44Z"/>
      <path d="M36.49,22.4c3.59,0,6.52,2.9,6.52,6.47,0,2.03-.75,3.98-2.12,5.49l-3.09,3.43c-.48.53-.74,1.19-.75,1.9v1.18h-3.13v-1.18c0-1.48.54-2.89,1.54-3.99l3.09-3.42c.85-.94,1.31-2.15,1.31-3.4,0-1.84-1.51-3.34-3.37-3.34h-1.99c-1.86,0-3.37,1.5-3.37,3.34h-3.15c0-3.57,2.92-6.47,6.52-6.47h1.99M36.49,21.07h-1.99c-4.33,0-7.85,3.5-7.85,7.8v1.33h5.81v-1.33c0-1.11.91-2.01,2.04-2.01h1.99c1.12,0,2.04.9,2.04,2.01,0,.93-.34,1.82-.97,2.51l-3.09,3.42c-1.21,1.34-1.88,3.07-1.89,4.88v1.2s.02,1.32.02,1.32h5.76v-1.32s.03-1.18.03-1.18c0-.39.14-.73.4-1.02l3.09-3.43c1.59-1.76,2.46-4.02,2.46-6.38,0-4.3-3.52-7.8-7.85-7.8h0Z"/>
    </g>
  </g>
</svg>