<?xml version="1.0" encoding="UTF-8"?>
<svg id="Layer_1" xmlns="http://www.w3.org/2000/svg" version="1.1" viewBox="0 0 71 71">
  <!-- Generator: Adobe Illustrator 30.1.0, SVG Export Plug-In . SVG Version: 2.1.1 Build 136)  -->
  <circle id="Outer" cx="35.5" cy="35.5" r="28.64" fill="none" stroke="#000" stroke-width="13.71"/>
  <g>
    <g>
      <rect x="33.22" y="44.35" width="4.52" height="4.52"/>
      <path d="M36.63,45.46v2.3h-2.3v-2.3h2.3M38.85,43.24h-6.74v6.74h6.74v-6.74h0Z"/>
    </g>
    <g>
      <path d="M33.24,40.12l-.02-1.97c0-1.38.51-2.69,1.43-3.7l2.28-2.53c.44-.49.68-1.12.68-1.77,0-.75-.62-1.36-1.38-1.36h-1.47c-.76,0-1.38.61-1.38,1.36v1.11h-4.54v-1.11c0-3.25,2.66-5.89,5.92-5.89h1.47c3.26,0,5.92,2.64,5.92,5.89,0,1.77-.66,3.48-1.85,4.8l-2.28,2.53c-.17.19-.26.42-.26.67l-.02,1.98h-4.5Z"/>
      <path d="M36.23,25.38c2.65,0,4.81,2.14,4.81,4.78,0,1.5-.56,2.94-1.56,4.05l-2.28,2.53c-.35.39-.55.88-.55,1.4v.87h-2.31v-.87c0-1.09.4-2.13,1.13-2.95l2.28-2.53c.62-.69.97-1.58.97-2.51,0-1.36-1.12-2.47-2.49-2.47h-1.47c-1.37,0-2.49,1.11-2.49,2.47h-2.32c0-2.63,2.16-4.78,4.81-4.78h1.47M36.23,23.16h-1.47c-3.88,0-7.03,3.14-7.03,7v2.22h6.76v-2.22c0-.14.12-.25.27-.25h1.47c.15,0,.27.11.27.25,0,.38-.14.74-.4,1.03l-2.28,2.53c-1.1,1.21-1.71,2.79-1.71,4.42v.9s.03,2.2.03,2.2h6.7l.02-2.2v-.83s2.27-2.51,2.27-2.51c1.38-1.52,2.13-3.49,2.13-5.54,0-3.86-3.15-7-7.03-7h0Z"/>
    </g>
  </g>
</svg>