<?xml version="1.0" encoding="UTF-8"?>
<svg id="Layer_1" xmlns="http://www.w3.org/2000/svg" version="1.1" viewBox="0 0 71 71">
  <!-- Generator: Adobe Illustrator 30.1.0, SVG Export Plug-In . SVG Version: 2.1.1 Build 136)  -->
  <circle id="Outer" cx="35.5" cy="35.5" r="32.42" fill="none" stroke="#000" stroke-width="6.17"/>
  <g>
    <g>
      <rect x="33.26" y="47.22" width="4.44" height="4.44"/>
      <path d="M37.26,47.67v3.56h-3.56v-3.56h3.56M38.14,46.78h-5.33v5.33h5.33v-5.33h0Z"/>
    </g>
    <g>
      <path d="M33.26,42.32l-.02-1.78c0-1.8.67-3.52,1.88-4.85l3.52-3.9c.89-.99,1.38-2.26,1.38-3.58,0-1.86-1.52-3.37-3.4-3.37h-2.26c-1.87,0-3.4,1.51-3.4,3.37v.44h-4.48v-.44c0-4.31,3.53-7.82,7.87-7.82h2.26c4.34,0,7.87,3.51,7.87,7.82,0,2.42-.9,4.75-2.53,6.56l-3.52,3.9c-.48.53-.73,1.18-.74,1.87l-.02,1.79h-4.44Z"/>
      <path d="M36.63,20.83c4.1,0,7.43,3.31,7.43,7.38,0,2.31-.86,4.54-2.41,6.26l-3.52,3.9c-.55.6-.85,1.35-.85,2.17v1.35h-3.57v-1.35c0-1.69.62-3.29,1.75-4.55l3.52-3.9c.96-1.07,1.5-2.45,1.5-3.88,0-2.1-1.72-3.81-3.84-3.81h-2.26c-2.12,0-3.84,1.71-3.84,3.81h-3.59c0-4.07,3.33-7.38,7.43-7.38h2.26M36.63,19.94h-2.26c-4.58,0-8.31,3.71-8.31,8.26v.89h5.36v-.89c0-1.61,1.32-2.92,2.95-2.92h2.26c1.63,0,2.95,1.31,2.95,2.92,0,1.21-.45,2.38-1.27,3.28l-3.52,3.9c-1.28,1.41-1.98,3.24-1.99,5.14v1.36s.02.88.02.88h5.32v-.88s.02-1.35.02-1.35c0-.59.22-1.13.62-1.58l3.52-3.9c1.7-1.89,2.64-4.32,2.64-6.85,0-4.56-3.73-8.26-8.31-8.26h0Z"/>
    </g>
  </g>
</svg>