<?xml version="1.0" encoding="UTF-8"?>
<svg id="Layer_1" xmlns="http://www.w3.org/2000/svg" version="1.1" viewBox="0 0 71 71">
  <!-- Generator: Adobe Illustrator 30.1.0, SVG Export Plug-In . SVG Version: 2.1.1 Build 136)  -->
  <circle id="Outer" cx="35.5" cy="35.5" r="29.9" fill="none" stroke="#000" stroke-width="11.2"/>
  <g>
    <g>
      <rect x="33.24" y="45.32" width="4.48" height="4.47"/>
      <path d="M36.83,46.2v2.7h-2.7v-2.7h2.7M38.61,44.43h-6.25v6.25h6.25v-6.25h0Z"/>
    </g>
    <g>
      <path d="M33.26,40.79l-.02-1.9c0-1.51.56-2.94,1.57-4.05l2.67-2.96c.58-.65.91-1.48.91-2.35,0-1.11-.91-2.01-2.03-2.01h-1.72c-1.12,0-2.03.9-2.03,2.01v.89h-4.5v-.89c0-3.58,2.93-6.49,6.53-6.49h1.72c3.6,0,6.53,2.91,6.53,6.49,0,1.98-.73,3.87-2.06,5.35l-2.67,2.96c-.27.3-.42.66-.42,1.05l-.02,1.91h-4.46Z"/>
      <path d="M36.36,23.93c3.11,0,5.64,2.51,5.64,5.6,0,1.76-.65,3.44-1.83,4.75l-2.67,2.96c-.41.46-.64,1.03-.65,1.64v1.02h-2.71v-1.02c0-1.28.47-2.5,1.33-3.45l2.67-2.96c.73-.81,1.14-1.86,1.14-2.95,0-1.6-1.31-2.89-2.91-2.89h-1.72c-1.61,0-2.91,1.3-2.91,2.89h-2.72c0-3.09,2.53-5.6,5.64-5.6h1.72M36.36,22.15h-1.72c-4.09,0-7.41,3.31-7.41,7.37v1.78h6.27v-1.78c0-.62.51-1.12,1.14-1.12h1.72c.63,0,1.14.5,1.14,1.12,0,.65-.24,1.27-.68,1.76l-2.67,2.96c-1.15,1.27-1.79,2.92-1.79,4.63v1.04s.02,1.76.02,1.76h6.22l.02-1.76v-1.02c.01-.18.07-.33.2-.47l2.68-2.96c1.48-1.63,2.29-3.74,2.29-5.94,0-4.07-3.33-7.37-7.41-7.37h0Z"/>
    </g>
  </g>
</svg>