<?xml version="1.0" encoding="UTF-8"?>
<svg id="Layer_1" xmlns="http://www.w3.org/2000/svg" version="1.1" viewBox="0 0 71 71">
  <!-- Generator: Adobe Illustrator 30.1.0, SVG Export Plug-In . SVG Version: 2.1.1 Build 136)  -->
  <circle id="Outer" cx="35.5" cy="35.5" r="33.04" fill="none" stroke="#000" stroke-width="4.93"/>
  <g>
    <g>
      <rect x="33.25" y="47.69" width="4.45" height="4.45"/>
      <path d="M37.37,48.02v3.78h-3.78v-3.78h3.78M38.03,47.36h-5.11v5.11h5.11v-5.11h0Z"/>
    </g>
    <g>
      <path d="M33.26,42.73l-.02-1.76c0-1.87.7-3.67,1.96-5.06l3.74-4.15c.97-1.07,1.5-2.46,1.5-3.9,0-2.05-1.68-3.72-3.75-3.72h-2.4c-2.07,0-3.75,1.67-3.75,3.72v.33h-4.48v-.33c0-4.5,3.69-8.17,8.23-8.17h2.4c4.54,0,8.23,3.67,8.23,8.17,0,2.54-.94,4.98-2.65,6.87l-3.74,4.15c-.53.59-.82,1.31-.82,2.08l-.02,1.76h-4.44Z"/>
      <path d="M36.7,20.03c4.35,0,7.89,3.52,7.89,7.84,0,2.46-.91,4.82-2.56,6.65l-3.74,4.15c-.58.64-.9,1.44-.9,2.3v1.43h-3.79v-1.43c0-1.79.65-3.5,1.86-4.83l3.74-4.15c1.02-1.14,1.59-2.6,1.59-4.12,0-2.23-1.83-4.05-4.08-4.05h-2.4c-2.25,0-4.08,1.82-4.08,4.05h-3.81c0-4.32,3.54-7.84,7.89-7.84h2.4M36.7,19.36h-2.4c-4.72,0-8.56,3.81-8.56,8.5v.67h5.14v-.67c0-1.87,1.53-3.39,3.41-3.39h2.4c1.88,0,3.41,1.52,3.41,3.39,0,1.36-.5,2.66-1.42,3.68l-3.74,4.15c-1.31,1.45-2.04,3.32-2.04,5.28v1.44s.02.66.02.66h5.1v-.66s.02-1.43.02-1.43c0-.69.26-1.34.73-1.86l3.74-4.15c1.76-1.95,2.73-4.47,2.73-7.1,0-4.69-3.84-8.5-8.56-8.5h0Z"/>
    </g>
  </g>
</svg>