<?xml version="1.0" encoding="UTF-8"?>
<svg id="Layer_1" xmlns="http://www.w3.org/2000/svg" version="1.1" viewBox="0 0 23 23">
  <!-- Generator: Adobe Illustrator 30.1.0, SVG Export Plug-In . SVG Version: 2.1.1 Build 136)  -->
  <path d="M11.5,3.63c.26,0,.51.13.65.4l1.65,3.27c.28.56.81.96,1.43,1.07l3.56.67c.56.1.78.78.4,1.2l-2.6,2.85c-.4.44-.59,1.03-.51,1.62l.51,3.84c.06.46-.3.82-.72.82-.11,0-.22-.03-.33-.08l-3.12-1.6c-.29-.15-.6-.22-.92-.22s-.63.07-.92.22l-3.12,1.6c-.11.06-.22.08-.33.08-.41,0-.78-.36-.72-.82l.51-3.84c.08-.59-.11-1.18-.51-1.62l-2.6-2.85c-.38-.42-.16-1.1.4-1.2l3.56-.67c.62-.12,1.14-.51,1.43-1.07l1.65-3.27c.13-.27.39-.4.65-.4M11.5,0C9.85,0,8.36.92,7.61,2.39l-1.29,2.55-2.77.52c-1.55.29-2.82,1.4-3.33,2.9-.5,1.5-.15,3.15.91,4.32l2.09,2.29-.41,3.1c-.16,1.24.22,2.5,1.04,3.44.83.94,2.02,1.49,3.27,1.49.69,0,1.38-.17,1.99-.48l2.37-1.22,2.37,1.22c.62.32,1.3.48,1.99.48,1.25,0,2.45-.54,3.27-1.49.83-.94,1.2-2.19,1.04-3.44l-.41-3.1,2.09-2.29c1.06-1.17,1.41-2.82.91-4.32-.5-1.5-1.78-2.61-3.33-2.9l-2.77-.52-1.29-2.55C14.64.92,13.15,0,11.5,0h0Z"/>
</svg>