<?xml version="1.0" encoding="UTF-8"?>
<svg id="Layer_1" xmlns="http://www.w3.org/2000/svg" version="1.1" viewBox="0 0 23 23">
  <!-- Generator: Adobe Illustrator 30.1.0, SVG Export Plug-In . SVG Version: 2.1.1 Build 136)  -->
  <path d="M11.5,2.81c.28,0,.57.15.71.44l1.82,3.61c.31.62.89,1.06,1.57,1.18l3.93.74c.61.12.86.86.44,1.33l-2.87,3.14c-.44.49-.65,1.14-.56,1.79l.56,4.24c.07.51-.34.91-.79.91-.12,0-.24-.03-.36-.09l-3.44-1.77c-.32-.16-.67-.25-1.02-.25-.35,0-.7.08-1.02.25l-3.44,1.77c-.12.06-.24.09-.36.09-.45,0-.86-.4-.79-.91l.56-4.24c.09-.65-.12-1.31-.56-1.79l-2.87-3.14c-.42-.46-.17-1.21.44-1.33l3.93-.74c.68-.13,1.26-.57,1.57-1.18l1.82-3.61c.15-.29.43-.44.71-.44M11.5,0C10.13,0,8.89.76,8.28,1.99l-1.69,3.35-3.64.68c-1.29.24-2.34,1.16-2.76,2.4-.42,1.24-.13,2.61.75,3.58l2.68,2.94-.52,3.97c-.14,1.03.18,2.07.86,2.85.69.78,1.68,1.23,2.72,1.23.57,0,1.14-.14,1.65-.4l3.17-1.63,3.17,1.63c.51.26,1.08.4,1.65.4,1.04,0,2.03-.45,2.72-1.23.68-.78,1-1.82.86-2.85l-.52-3.97,2.68-2.94c.88-.97,1.17-2.34.75-3.58-.42-1.24-1.47-2.16-2.76-2.4l-3.65-.68-1.69-3.35C14.11.76,12.87,0,11.5,0h0Z"/>
</svg>