<?xml version="1.0" encoding="UTF-8"?>
<svg id="Layer_1" xmlns="http://www.w3.org/2000/svg" version="1.1" viewBox="0 0 22 22">
  <!-- Generator: Adobe Illustrator 30.1.0, SVG Export Plug-In . SVG Version: 2.1.1 Build 136)  -->
  <g>
    <g>
      <rect x="10.18" y="6.69" width="1.64" height="1.64"/>
      <path d="M11.44,7.07v.88h-.88v-.88h.88M12.2,6.31h-2.39v2.39h2.39v-2.39h0Z"/>
    </g>
    <g>
      <polygon points="9.3 15.07 9.3 13.44 10.18 13.44 10.18 11.44 9.3 11.44 9.3 9.8 11.82 9.8 11.82 13.44 12.7 13.44 12.7 15.07 9.3 15.07"/>
      <path d="M11.44,10.18v3.64h.88v.88h-2.65v-.88h.88v-2.75h-.88v-.88h1.76M12.2,9.42h-3.28v2.39h.88v1.24h-.88v2.39h4.16v-2.39h-.88v-3.64h0Z"/>
    </g>
  </g>
  <circle id="Outer" cx="11" cy="11" r="8.68" fill="none" stroke="#000" stroke-width="4.63"/>
</svg>