<?xml version="1.0" encoding="UTF-8"?>
<svg id="Layer_1" xmlns="http://www.w3.org/2000/svg" version="1.1" viewBox="0 0 119 119">
  <!-- Generator: Adobe Illustrator 30.1.0, SVG Export Plug-In . SVG Version: 2.1.1 Build 136)  -->
  <g>
    <g>
      <rect x="55.18" y="33.93" width="8.63" height="8.63"/>
      <path d="M62.33,35.41v5.66h-5.66v-5.66h5.66M65.3,32.44h-11.61v11.61h11.61v-11.61h0Z"/>
    </g>
    <g>
      <polygon points="49.52 84.22 49.52 75.59 55.18 75.59 55.18 60.89 49.52 60.89 49.52 52.26 63.82 52.26 63.82 75.59 69.48 75.59 69.48 84.22 49.52 84.22"/>
      <path d="M62.33,53.75v23.33h5.66v5.66h-16.98v-5.66h5.66v-17.67h-5.66v-5.66h11.32M65.3,50.77h-17.27v11.61h5.66v11.72h-5.66v11.61h22.93v-11.61h-5.66v-23.33h0Z"/>
    </g>
  </g>
  <circle id="Outer" cx="59.5" cy="59.5" r="50.11" fill="none" stroke="#000" stroke-width="18.78"/>
</svg>