<?xml version="1.0" encoding="UTF-8"?>
<svg id="Layer_1" xmlns="http://www.w3.org/2000/svg" version="1.1" viewBox="0 0 71 71">
  <!-- Generator: Adobe Illustrator 30.1.0, SVG Export Plug-In . SVG Version: 2.1.1 Build 136)  -->
  <path d="M35.5,14.95c.67,0,1.34.35,1.69,1.04l4.3,8.53c.74,1.46,2.11,2.5,3.72,2.8l9.3,1.74c1.45.27,2.04,2.04,1.05,3.13l-6.78,7.43c-1.05,1.15-1.53,2.7-1.33,4.24l1.32,10.02c.16,1.2-.8,2.14-1.87,2.14-.29,0-.58-.07-.86-.21l-8.13-4.19c-.75-.39-1.58-.58-2.4-.58s-1.65.19-2.4.58l-8.13,4.19c-.28.15-.58.21-.86.21-1.08,0-2.03-.95-1.87-2.14l1.32-10.03c.2-1.54-.28-3.09-1.33-4.23l-6.78-7.44c-1-1.1-.41-2.86,1.05-3.14l9.3-1.74c1.61-.3,2.98-1.34,3.72-2.8l4.3-8.53c.35-.69,1.02-1.04,1.69-1.04M35.5,0c-6.4,0-12.16,3.55-15.04,9.27l-2.14,4.25-4.58.86c-6,1.12-10.93,5.42-12.87,11.21-1.94,5.79-.59,12.19,3.52,16.7l3.74,4.1-.73,5.56c-.63,4.81.83,9.66,4.03,13.31,3.2,3.65,7.82,5.75,12.67,5.75,2.67,0,5.33-.65,7.71-1.87l3.69-1.9,3.69,1.9c2.38,1.22,5.04,1.87,7.71,1.87,4.85,0,9.47-2.1,12.67-5.75,3.19-3.64,4.66-8.49,4.03-13.31l-.73-5.56,3.74-4.11c4.11-4.51,5.46-10.91,3.52-16.7-1.94-5.79-6.87-10.08-12.87-11.21l-4.58-.86-2.14-4.25C47.66,3.55,41.9,0,35.5,0h0Z"/>
</svg>