<?xml version="1.0" encoding="UTF-8"?>
<svg id="Layer_1" xmlns="http://www.w3.org/2000/svg" version="1.1" viewBox="0 0 71 71">
  <!-- Generator: Adobe Illustrator 30.1.0, SVG Export Plug-In . SVG Version: 2.1.1 Build 136)  -->
  <path d="M35.5,4.93c.99,0,1.99.52,2.51,1.55l6.4,12.7c1.1,2.18,3.15,3.72,5.54,4.17l13.84,2.59c2.16.41,3.04,3.04,1.56,4.66l-10.08,11.06c-1.56,1.71-2.28,4.02-1.98,6.31l1.97,14.92c.23,1.78-1.18,3.19-2.78,3.19-.42,0-.86-.1-1.28-.32l-12.1-6.23c-1.12-.58-2.35-.87-3.58-.87s-2.45.29-3.58.87l-12.1,6.23c-.42.22-.86.32-1.28.32-1.6,0-3.02-1.41-2.78-3.19l1.97-14.92c.3-2.29-.42-4.6-1.97-6.3l-10.08-11.06c-1.49-1.63-.61-4.26,1.56-4.67l13.84-2.59c2.39-.45,4.44-1.99,5.54-4.17l6.4-12.7c.52-1.03,1.51-1.55,2.51-1.55M35.5,0C32.56,0,29.92,1.63,28.59,4.26l-6.4,12.7c-.4.8-1.17,1.38-2.04,1.54l-13.84,2.59c-2.75.52-5.02,2.49-5.91,5.15-.89,2.66-.27,5.6,1.62,7.68l10.08,11.06c.58.63.84,1.49.73,2.34l-1.97,14.92c-.29,2.21.38,4.44,1.84,6.11,1.48,1.68,3.6,2.65,5.82,2.65,1.22,0,2.44-.3,3.54-.86l12.1-6.23c.41-.21.86-.32,1.32-.32s.91.11,1.32.32l12.1,6.23c1.1.56,2.32.86,3.54.86,2.22,0,4.35-.97,5.82-2.65,1.46-1.67,2.14-3.9,1.84-6.11l-1.97-14.92c-.11-.86.15-1.71.73-2.35l10.08-11.06c1.89-2.07,2.51-5.02,1.62-7.68-.89-2.66-3.15-4.63-5.91-5.15l-13.84-2.59c-.88-.16-1.64-.74-2.05-1.54l-6.4-12.7C41.08,1.63,38.44,0,35.5,0h0Z"/>
</svg>