<?xml version="1.0" encoding="UTF-8"?>
<svg id="Layer_1" xmlns="http://www.w3.org/2000/svg" version="1.1" viewBox="0 0 71 71">
  <!-- Generator: Adobe Illustrator 30.1.0, SVG Export Plug-In . SVG Version: 2.1.1 Build 136)  -->
  <path d="M35.5,13.71c.71,0,1.42.37,1.79,1.1l4.56,9.05c.78,1.55,2.24,2.65,3.95,2.97l9.86,1.85c1.54.29,2.17,2.16,1.11,3.32l-7.18,7.88c-1.11,1.22-1.62,2.86-1.41,4.5l1.4,10.63c.17,1.27-.84,2.27-1.98,2.27-.3,0-.61-.07-.91-.23l-8.63-4.44c-.8-.41-1.67-.62-2.55-.62s-1.75.21-2.55.62l-8.63,4.44c-.3.15-.61.23-.91.23-1.14,0-2.15-1-1.98-2.27l1.4-10.63c.22-1.63-.3-3.27-1.41-4.49l-7.19-7.88c-1.06-1.16-.43-3.04,1.11-3.33l9.86-1.85c1.7-.32,3.16-1.42,3.95-2.97l4.56-9.05c.37-.73,1.08-1.1,1.79-1.1M35.5,0C29.53,0,24.15,3.31,21.47,8.64l-2.75,5.45-5.9,1.11c-5.6,1.05-10.2,5.06-12.01,10.46-1.81,5.4-.55,11.37,3.29,15.58l4.64,5.09-.91,6.89c-.59,4.49.78,9.01,3.76,12.41,2.99,3.41,7.3,5.36,11.82,5.36,2.49,0,4.97-.6,7.19-1.75l4.89-2.52,4.9,2.52c2.22,1.14,4.71,1.75,7.19,1.75,4.52,0,8.83-1.96,11.82-5.36,2.98-3.4,4.35-7.92,3.76-12.41l-.91-6.89,4.64-5.09c3.84-4.21,5.1-10.18,3.29-15.58-1.81-5.4-6.41-9.41-12-10.45l-5.9-1.11-2.75-5.45C46.85,3.31,41.47,0,35.5,0h0Z"/>
</svg>