<?xml version="1.0" encoding="UTF-8"?>
<svg id="Layer_1" xmlns="http://www.w3.org/2000/svg" version="1.1" viewBox="0 0 71 71">
  <!-- Generator: Adobe Illustrator 30.1.0, SVG Export Plug-In . SVG Version: 2.1.1 Build 136)  -->
  <path d="M35.5,6.17c.95,0,1.91.49,2.41,1.48l6.14,12.18c1.05,2.09,3.02,3.57,5.31,4l13.28,2.49c2.08.39,2.92,2.91,1.49,4.47l-9.67,10.61c-1.49,1.64-2.19,3.85-1.9,6.05l1.89,14.31c.23,1.71-1.14,3.06-2.67,3.06-.41,0-.83-.1-1.23-.3l-11.61-5.98c-1.08-.55-2.25-.83-3.43-.83-1.18,0-2.35.28-3.43.83l-11.61,5.98c-.41.21-.82.3-1.23.3-1.54,0-2.9-1.35-2.67-3.06l1.89-14.32c.29-2.2-.4-4.41-1.89-6.04l-9.67-10.61c-1.43-1.56-.58-4.09,1.49-4.48l13.27-2.49c2.29-.43,4.26-1.91,5.31-4l6.14-12.18c.5-.99,1.45-1.48,2.41-1.48M35.5,0c-3.37,0-6.4,1.87-7.91,4.88l-6.14,12.18c-.19.37-.54.63-.94.71l-13.27,2.49c-3.16.59-5.75,2.85-6.77,5.9-1.02,3.05-.31,6.42,1.85,8.8l9.67,10.61c.27.29.39.69.34,1.08l-1.89,14.32c-.33,2.54.44,5.09,2.12,7,1.69,1.93,4.12,3.03,6.67,3.03,1.4,0,2.8-.34,4.06-.99l11.61-5.98c.19-.1.39-.15.61-.15.21,0,.42.05.61.15l11.61,5.98c1.26.65,2.66.99,4.06.99,2.55,0,4.98-1.11,6.67-3.03,1.68-1.91,2.45-4.47,2.12-7l-1.89-14.31c-.05-.4.07-.8.34-1.09l9.67-10.61c2.17-2.38,2.88-5.75,1.85-8.79-1.02-3.05-3.61-5.31-6.77-5.9l-13.28-2.49c-.4-.08-.76-.34-.94-.71l-6.14-12.18c-1.52-3.01-4.55-4.88-7.91-4.88h0Z"/>
</svg>