<?xml version="1.0" encoding="UTF-8"?>
<svg id="Layer_1" xmlns="http://www.w3.org/2000/svg" version="1.1" viewBox="0 0 71 71">
  <!-- Generator: Adobe Illustrator 30.1.0, SVG Export Plug-In . SVG Version: 2.1.1 Build 136)  -->
  <path d="M35.5,11.2c.79,0,1.58.41,1.99,1.23l5.08,10.09c.87,1.73,2.5,2.96,4.4,3.31l11,2.06c1.72.32,2.42,2.41,1.24,3.71l-8.01,8.79c-1.24,1.36-1.81,3.19-1.57,5.01l1.56,11.85c.19,1.41-.94,2.53-2.21,2.53-.34,0-.68-.08-1.02-.25l-9.62-4.95c-.89-.46-1.87-.69-2.84-.69s-1.95.23-2.84.69l-9.62,4.95c-.34.17-.68.25-1.02.25-1.27,0-2.4-1.12-2.21-2.53l1.56-11.86c.24-1.82-.33-3.65-1.57-5.01l-8.01-8.79c-1.18-1.3-.48-3.39,1.24-3.71l11-2.06c1.9-.36,3.53-1.58,4.4-3.31l5.08-10.09c.41-.82,1.2-1.23,1.99-1.23M35.5,0C30.4,0,25.8,2.83,23.5,7.39l-3.97,7.89-8.56,1.61c-4.79.9-8.72,4.32-10.27,8.94-1.55,4.62-.47,9.73,2.81,13.33l6.45,7.08-1.26,9.56c-.51,3.84.66,7.71,3.21,10.61,2.56,2.92,6.24,4.59,10.11,4.59,2.12,0,4.25-.52,6.15-1.49l7.33-3.77,7.33,3.77c1.9.98,4.03,1.49,6.15,1.49,3.87,0,7.55-1.67,10.11-4.59,2.55-2.91,3.72-6.77,3.21-10.61l-1.26-9.56,6.45-7.08c3.28-3.6,4.36-8.71,2.81-13.33-1.55-4.62-5.48-8.04-10.26-8.94l-8.57-1.61-3.97-7.89C45.2,2.83,40.6,0,35.5,0h0Z"/>
</svg>