<?xml version="1.0" encoding="UTF-8"?>
<svg id="Layer_1" xmlns="http://www.w3.org/2000/svg" version="1.1" viewBox="0 0 15 15">
  <!-- Generator: Adobe Illustrator 30.1.0, SVG Export Plug-In . SVG Version: 2.1.1 Build 136)  -->
  <g>
    <g>
      <rect x="6.96" y="4.28" width="1.09" height="1.09"/>
      <path d="M7.86,4.46v.71h-.71v-.71h.71M8.23,4.09h-1.46v1.46h1.46v-1.46h0Z"/>
    </g>
    <g>
      <polygon points="6.24 10.62 6.24 9.53 6.96 9.53 6.96 7.68 6.24 7.68 6.24 6.59 8.04 6.59 8.04 9.53 8.76 9.53 8.76 10.62 6.24 10.62"/>
      <path d="M7.86,6.77v2.94h.71v.71h-2.14v-.71h.71v-2.23h-.71v-.71h1.43M8.23,6.4h-2.18v1.46h.71v1.48h-.71v1.46h2.89v-1.46h-.71v-2.94h0Z"/>
    </g>
  </g>
  <circle id="Outer" cx="7.5" cy="7.5" r="6.32" fill="none" stroke="#000" stroke-width="2.37"/>
</svg>