<?xml version="1.0" encoding="UTF-8"?>
<svg id="Layer_1" xmlns="http://www.w3.org/2000/svg" version="1.1" viewBox="0 0 15 15">
  <!-- Generator: Adobe Illustrator 30.1.0, SVG Export Plug-In . SVG Version: 2.1.1 Build 136)  -->
  <g>
    <g>
      <rect x="6.94" y="4.56" width="1.12" height="1.12"/>
      <path d="M7.8,4.82v.6h-.6v-.6h.6M8.32,4.3h-1.63v1.63h1.63v-1.63h0Z"/>
    </g>
    <g>
      <polygon points="6.34 10.28 6.34 9.16 6.94 9.16 6.94 7.8 6.34 7.8 6.34 6.68 8.06 6.68 8.06 9.16 8.66 9.16 8.66 10.28 6.34 10.28"/>
      <path d="M7.8,6.94v2.48h.6v.6h-1.8v-.6h.6v-1.88h-.6v-.6h1.2M8.32,6.42h-2.23v1.63h.6v.85h-.6v1.63h2.84v-1.63h-.6v-2.48h0Z"/>
    </g>
  </g>
  <circle id="Outer" cx="7.5" cy="7.5" r="5.92" fill="none" stroke="#000" stroke-width="3.16"/>
</svg>