<?xml version="1.0" encoding="UTF-8"?>
<svg id="Layer_1" xmlns="http://www.w3.org/2000/svg" version="1.1" viewBox="0 0 15 15">
  <!-- Generator: Adobe Illustrator 30.1.0, SVG Export Plug-In . SVG Version: 2.1.1 Build 136)  -->
  <g>
    <g>
      <polygon points="7.05 4.85 6.98 3.87 7.95 3.8 8.02 4.78 8.02 4.85 7.05 4.85"/>
      <path d="M7.95,3.87v.91h-.91v-.91h.91M8.09,3.73h-1.19v1.19h1.19v-1.19h0Z"/>
    </g>
    <g>
      <polygon points="6.14 11.2 6.07 10.22 7.05 10.15 6.98 7.39 6.14 7.46 6.07 6.48 7.95 6.41 8.02 10.22 8.86 10.15 8.93 11.13 8.93 11.2 6.14 11.2"/>
      <path d="M7.95,6.48v3.74h.91v.91h-2.72v-.91h.91v-2.83h-.91v-.91h1.82M8.09,6.34h-2.1v1.19h.91v2.55h-.91v1.19h3.01v-1.19h-.91v-3.74h0Z"/>
    </g>
  </g>
  <circle id="Outer" cx="7.5" cy="7.5" r="6.98" fill="none" stroke="#000" stroke-width="1.04"/>
</svg>