<?xml version="1.0" encoding="UTF-8"?>
<svg id="Layer_1" xmlns="http://www.w3.org/2000/svg" version="1.1" viewBox="0 0 97 97">
  <!-- Generator: Adobe Illustrator 30.1.0, SVG Export Plug-In . SVG Version: 2.1.1 Build 136)  -->
  <g>
    <g>
      <rect x="44.98" y="27.65" width="7.04" height="7.04"/>
      <path d="M50.81,28.87v4.61h-4.61v-4.61h4.61M53.23,26.44h-9.46v9.46h9.46v-9.46h0Z"/>
    </g>
    <g>
      <polygon points="40.37 68.65 40.37 61.61 44.98 61.61 44.98 49.64 40.37 49.64 40.37 42.6 52.02 42.6 52.02 61.61 56.63 61.61 56.63 68.65 40.37 68.65"/>
      <path d="M50.81,43.81v19.01h4.61v4.61h-13.84v-4.61h4.61v-14.4h-4.61v-4.61h9.23M53.23,41.39h-14.08v9.46h4.61v9.55h-4.61v9.46h18.69v-9.46h-4.61v-19.01h0Z"/>
    </g>
  </g>
  <circle id="Outer" cx="48.5" cy="48.5" r="40.85" fill="none" stroke="#000" stroke-width="15.31"/>
</svg>