<?xml version="1.0" encoding="UTF-8"?>
<svg id="Layer_1" xmlns="http://www.w3.org/2000/svg" version="1.1" viewBox="0 0 97 97">
  <!-- Generator: Adobe Illustrator 30.1.0, SVG Export Plug-In . SVG Version: 2.1.1 Build 136)  -->
  <g>
    <g>
      <rect x="45.08" y="25.17" width="6.83" height="6.83"/>
      <path d="M51.31,25.78v5.62h-5.62v-5.62h5.62M52.52,24.57h-8.04v8.04h8.04v-8.04h0Z"/>
    </g>
    <g>
      <polygon points="39.47 71.68 39.47 64.85 45.08 64.85 45.08 48.52 39.47 48.52 39.47 41.69 51.92 41.69 51.92 64.85 57.53 64.85 57.53 71.68 39.47 71.68"/>
      <path d="M51.31,42.3v23.16h5.62v5.62h-16.86v-5.62h5.62v-17.54h-5.62v-5.62h11.24M52.52,41.09h-13.66v8.04h5.62v15.12h-5.62v8.04h19.28v-8.04h-5.62v-23.16h0Z"/>
    </g>
  </g>
  <circle id="Outer" cx="48.5" cy="48.5" r="44.29" fill="none" stroke="#000" stroke-width="8.43"/>
</svg>