<?xml version="1.0" encoding="UTF-8"?>
<svg id="Layer_1" xmlns="http://www.w3.org/2000/svg" version="1.1" viewBox="0 0 33 33">
  <!-- Generator: Adobe Illustrator 30.1.0, SVG Export Plug-In . SVG Version: 2.1.1 Build 136)  -->
  <path d="M16.5,2.29c.46,0,.92.24,1.17.72l2.97,5.9c.51,1.01,1.46,1.73,2.57,1.94l6.43,1.21c1.01.19,1.41,1.41.72,2.17l-4.69,5.14c-.72.79-1.06,1.87-.92,2.93l.91,6.93c.11.83-.55,1.48-1.29,1.48-.2,0-.4-.05-.6-.15l-5.63-2.9c-.52-.27-1.09-.4-1.66-.4s-1.14.13-1.66.4l-5.63,2.9c-.2.1-.4.15-.6.15-.74,0-1.4-.66-1.29-1.48l.91-6.94c.14-1.06-.2-2.14-.92-2.93l-4.69-5.14c-.69-.76-.28-1.98.72-2.17l6.43-1.21c1.11-.21,2.06-.92,2.57-1.94l2.97-5.9c.24-.48.7-.72,1.17-.72M16.5,0c-1.37,0-2.6.76-3.21,1.98l-2.97,5.9c-.19.37-.54.64-.95.72l-6.43,1.21c-1.28.24-2.33,1.16-2.75,2.39-.41,1.24-.13,2.6.75,3.57l4.69,5.14c.27.29.39.69.34,1.09l-.91,6.94c-.14,1.03.18,2.06.86,2.84.69.78,1.67,1.23,2.71,1.23.57,0,1.14-.14,1.64-.4l5.63-2.9c.19-.1.4-.15.61-.15s.42.05.61.15l5.63,2.9c.51.26,1.08.4,1.64.4,1.03,0,2.02-.45,2.71-1.23.68-.78.99-1.81.86-2.84l-.91-6.93c-.05-.4.07-.79.34-1.09l4.69-5.14c.88-.96,1.17-2.33.75-3.57-.41-1.24-1.47-2.15-2.75-2.39l-6.43-1.21c-.41-.08-.76-.34-.95-.72l-2.97-5.9C19.09.76,17.86,0,16.5,0h0Z"/>
</svg>