<?xml version="1.0" encoding="UTF-8"?>
<svg id="Layer_1" xmlns="http://www.w3.org/2000/svg" version="1.1" viewBox="0 0 73 73">
  <!-- Generator: Adobe Illustrator 30.1.0, SVG Export Plug-In . SVG Version: 2.1.1 Build 136)  -->
  <path d="M36.5,11.52c.81,0,1.62.42,2.05,1.26l5.23,10.37c.9,1.78,2.57,3.04,4.53,3.41l11.31,2.12c1.77.33,2.48,2.48,1.27,3.81l-8.24,9.04c-1.27,1.39-1.86,3.28-1.62,5.15l1.61,12.19c.19,1.45-.97,2.61-2.27,2.61-.35,0-.7-.08-1.05-.26l-9.89-5.09c-.92-.47-1.92-.71-2.92-.71s-2,.24-2.92.71l-9.89,5.09c-.35.18-.7.26-1.05.26-1.31,0-2.47-1.15-2.27-2.61l1.61-12.19c.25-1.87-.34-3.75-1.61-5.15l-8.24-9.04c-1.21-1.33-.5-3.48,1.27-3.81l11.3-2.12c1.95-.37,3.63-1.62,4.52-3.4l5.23-10.38c.42-.84,1.24-1.26,2.05-1.26M36.5,0c-5.25,0-9.98,2.91-12.34,7.6l-4.08,8.11-8.8,1.65c-4.92.92-8.96,4.44-10.56,9.19-1.59,4.75-.48,10,2.89,13.7l6.63,7.28-1.3,9.83c-.52,3.95.68,7.93,3.3,10.91,2.63,3,6.42,4.72,10.39,4.72,2.18,0,4.37-.53,6.32-1.54l7.54-3.88,7.54,3.88c1.95,1.01,4.14,1.54,6.32,1.54,3.98,0,7.76-1.72,10.39-4.72,2.62-2.99,3.82-6.97,3.3-10.91l-1.3-9.83,6.64-7.28c3.37-3.7,4.48-8.95,2.89-13.7-1.59-4.75-5.63-8.27-10.55-9.19l-8.81-1.65-4.08-8.11c-2.36-4.69-7.09-7.6-12.34-7.6h0Z"/>
</svg>