<?xml version="1.0" encoding="UTF-8"?>
<svg id="Layer_1" xmlns="http://www.w3.org/2000/svg" version="1.1" viewBox="0 0 73 73">
  <!-- Generator: Adobe Illustrator 30.1.0, SVG Export Plug-In . SVG Version: 2.1.1 Build 136)  -->
  <path d="M36.5,5.06c1.02,0,2.04.53,2.58,1.59l6.58,13.05c1.13,2.24,3.23,3.82,5.7,4.29l14.23,2.67c2.22.42,3.13,3.12,1.6,4.8l-10.37,11.38c-1.6,1.76-2.34,4.13-2.03,6.49l2.02,15.34c.24,1.83-1.22,3.28-2.86,3.28-.44,0-.89-.1-1.32-.33l-12.44-6.41c-1.15-.59-2.41-.89-3.68-.89-1.26,0-2.52.3-3.68.89l-12.44,6.41c-.43.22-.88.33-1.32.33-1.65,0-3.1-1.45-2.86-3.28l2.02-15.34c.31-2.35-.43-4.72-2.03-6.48l-10.37-11.38c-1.53-1.68-.62-4.38,1.6-4.8l14.23-2.67c2.46-.46,4.56-2.04,5.69-4.28l6.58-13.06c.53-1.06,1.56-1.59,2.58-1.59M36.5,0C33.48,0,30.76,1.68,29.4,4.38l-6.58,13.06c-.41.82-1.2,1.42-2.1,1.58l-14.23,2.67c-2.83.53-5.16,2.56-6.08,5.29-.92,2.74-.28,5.76,1.66,7.89l10.37,11.38c.59.65.87,1.53.75,2.4l-2.02,15.34c-.3,2.28.39,4.57,1.9,6.28,1.52,1.73,3.7,2.72,5.99,2.72,1.25,0,2.51-.31,3.64-.89l12.44-6.41c.42-.22.89-.33,1.36-.33.47,0,.94.11,1.36.33l12.44,6.41c1.13.58,2.39.89,3.64.89,2.29,0,4.47-.99,5.99-2.72,1.51-1.72,2.2-4.01,1.9-6.28l-2.02-15.34c-.12-.88.16-1.76.75-2.41l10.37-11.38c1.94-2.13,2.58-5.16,1.66-7.89-.92-2.73-3.24-4.76-6.07-5.29l-14.23-2.67c-.9-.17-1.69-.76-2.11-1.59l-6.58-13.05C42.24,1.68,39.52,0,36.5,0h0Z"/>
</svg>