<?xml version="1.0" encoding="UTF-8"?>
<svg id="Layer_1" xmlns="http://www.w3.org/2000/svg" version="1.1" viewBox="0 0 60 60">
  <!-- Generator: Adobe Illustrator 30.1.0, SVG Export Plug-In . SVG Version: 2.1.1 Build 136)  -->
  <path d="M30,5.21c.81,0,1.61.42,2.03,1.25l5.19,10.29c.89,1.77,2.55,3.02,4.49,3.38l11.22,2.1c1.75.33,2.47,2.46,1.26,3.78l-8.17,8.97c-1.26,1.38-1.85,3.26-1.6,5.11l1.6,12.09c.19,1.44-.96,2.59-2.26,2.59-.34,0-.7-.08-1.04-.26l-9.81-5.05c-.91-.47-1.9-.7-2.9-.7s-1.99.23-2.9.7l-9.81,5.05c-.34.18-.7.26-1.04.26-1.3,0-2.45-1.14-2.26-2.59l1.6-12.1c.24-1.86-.34-3.73-1.6-5.11l-8.17-8.97c-1.2-1.32-.49-3.45,1.26-3.78l11.22-2.1c1.94-.36,3.6-1.61,4.49-3.38l5.19-10.3c.42-.84,1.23-1.25,2.03-1.25M30,0C27.15,0,24.59,1.58,23.31,4.12l-5.19,10.3c-.16.31-.45.54-.79.6l-11.22,2.1c-2.67.5-4.86,2.41-5.72,4.98-.86,2.58-.26,5.43,1.57,7.43l8.17,8.97c.23.25.33.58.29.92l-1.6,12.1c-.28,2.14.37,4.3,1.79,5.92,1.43,1.63,3.48,2.56,5.64,2.56,1.18,0,2.37-.29,3.43-.84l9.81-5.05c.16-.08.33-.12.51-.12s.35.04.51.12l9.81,5.05c1.06.55,2.25.84,3.43.84,2.15,0,4.21-.93,5.64-2.56,1.42-1.62,2.07-3.77,1.79-5.92l-1.6-12.09c-.04-.34.06-.67.29-.92l8.17-8.97c1.83-2.01,2.43-4.86,1.57-7.43-.86-2.57-3.05-4.48-5.72-4.98l-11.22-2.1c-.34-.06-.64-.29-.8-.6l-5.19-10.29C35.41,1.58,32.84,0,30,0h0Z"/>
</svg>