<?xml version="1.0" encoding="UTF-8"?>
<svg id="Layer_1" xmlns="http://www.w3.org/2000/svg" version="1.1" viewBox="0 0 60 60">
  <!-- Generator: Adobe Illustrator 30.1.0, SVG Export Plug-In . SVG Version: 2.1.1 Build 136)  -->
  <path d="M30,4.16c.84,0,1.68.44,2.12,1.31l5.41,10.73c.93,1.84,2.66,3.14,4.68,3.52l11.69,2.19c1.83.34,2.57,2.57,1.32,3.94l-8.52,9.35c-1.31,1.44-1.93,3.39-1.67,5.33l1.66,12.61c.2,1.5-1,2.7-2.35,2.7-.36,0-.73-.08-1.08-.27l-10.23-5.27c-.95-.49-1.98-.73-3.02-.73s-2.07.24-3.02.73l-10.23,5.27c-.36.18-.73.27-1.08.27-1.35,0-2.55-1.19-2.35-2.7l1.66-12.61c.26-1.93-.36-3.88-1.67-5.32l-8.52-9.35c-1.26-1.38-.51-3.6,1.32-3.94l11.69-2.19c2.02-.38,3.75-1.68,4.68-3.52l5.41-10.73c.44-.87,1.28-1.31,2.12-1.31M30,0C27.52,0,25.28,1.38,24.16,3.6l-5.41,10.73c-.34.68-.99,1.16-1.73,1.3l-11.69,2.19c-2.33.44-4.24,2.1-4.99,4.35-.75,2.25-.23,4.74,1.37,6.49l8.52,9.35c.49.54.71,1.26.62,1.98l-1.66,12.61c-.25,1.87.32,3.75,1.56,5.16,1.25,1.42,3.04,2.24,4.92,2.24,1.03,0,2.06-.25,2.99-.73l10.23-5.27c.34-.18.73-.27,1.12-.27s.77.09,1.12.27l10.23,5.27c.93.48,1.96.73,2.99.73,1.88,0,3.67-.82,4.92-2.24,1.24-1.41,1.81-3.29,1.56-5.16l-1.66-12.61c-.1-.72.13-1.45.62-1.98l8.52-9.35c1.6-1.75,2.12-4.24,1.37-6.49-.75-2.25-2.67-3.91-4.99-4.35l-11.69-2.19c-.74-.14-1.39-.63-1.73-1.3l-5.41-10.73C34.72,1.38,32.48,0,30,0h0Z"/>
</svg>