<?xml version="1.0" encoding="UTF-8"?>
<svg id="Layer_1" xmlns="http://www.w3.org/2000/svg" version="1.1" viewBox="0 0 60 60">
  <!-- Generator: Adobe Illustrator 30.1.0, SVG Export Plug-In . SVG Version: 2.1.1 Build 136)  -->
  <path d="M30,11.59c.6,0,1.2.31,1.51.93l3.85,7.65c.66,1.31,1.89,2.24,3.34,2.51l8.33,1.56c1.3.24,1.83,1.83.94,2.81l-6.07,6.66c-.94,1.03-1.37,2.42-1.19,3.8l1.18,8.98c.14,1.07-.71,1.92-1.68,1.92-.26,0-.52-.06-.77-.19l-7.29-3.75c-.68-.35-1.41-.52-2.15-.52s-1.48.17-2.15.52l-7.29,3.75c-.25.13-.52.19-.77.19-.96,0-1.82-.85-1.68-1.92l1.19-8.99c.18-1.38-.25-2.77-1.19-3.79l-6.07-6.66c-.89-.98-.37-2.57.94-2.81l8.33-1.56c1.44-.27,2.67-1.2,3.33-2.51l3.85-7.65c.31-.62.91-.93,1.51-.93M30,0C24.95,0,20.41,2.8,18.14,7.31l-2.32,4.61-4.98.93c-4.73.89-8.62,4.27-10.15,8.84-1.53,4.56-.47,9.61,2.78,13.17l3.92,4.3-.77,5.82c-.5,3.79.66,7.62,3.18,10.49,2.53,2.88,6.17,4.53,9.99,4.53,2.1,0,4.2-.51,6.08-1.48l4.14-2.13,4.14,2.13c1.88.97,3.98,1.48,6.08,1.48,3.82,0,7.46-1.65,9.99-4.53,2.52-2.87,3.68-6.7,3.18-10.49l-.77-5.82,3.92-4.3c3.24-3.56,4.31-8.6,2.78-13.17-1.53-4.56-5.42-7.95-10.14-8.83l-4.99-.93-2.32-4.61C39.59,2.8,35.04,0,30,0h0Z"/>
</svg>