<?xml version="1.0" encoding="UTF-8"?>
<svg id="Layer_1" xmlns="http://www.w3.org/2000/svg" version="1.1" viewBox="0 0 99 99">
  <!-- Generator: Adobe Illustrator 30.1.0, SVG Export Plug-In . SVG Version: 2.1.1 Build 136)  -->
  <circle id="Outer" cx="49.5" cy="49.5" r="39.07" fill="none" stroke="#000" stroke-width="20.85"/>
  <g>
    <g>
      <rect x="46.3" y="61.17" width="6.35" height="6.35"/>
      <path d="M50.95,62.87v2.95h-2.95v-2.95h2.95M54.36,59.46h-9.76v9.76h9.76v-9.76h0Z"/>
    </g>
    <g>
      <path d="M46.32,55.52l-.03-2.8c0-1.84.68-3.58,1.9-4.93l2.92-3.24c.52-.57.8-1.31.8-2.08,0-.81-.67-1.46-1.49-1.46h-1.88c-.82,0-1.48.66-1.48,1.46v1.7h-6.38v-1.7c0-4.31,3.53-7.82,7.87-7.82h1.88c4.34,0,7.87,3.51,7.87,7.82,0,2.34-.87,4.59-2.44,6.33l-2.92,3.24c-.18.2-.27.42-.27.67l-.03,2.81h-6.32Z"/>
      <path d="M50.44,36.35c3.4,0,6.16,2.75,6.16,6.12,0,1.92-.71,3.76-2,5.19l-2.92,3.24c-.45.5-.7,1.12-.71,1.8v1.12h-2.96v-1.12c0-1.4.51-2.73,1.45-3.77l2.92-3.24c.8-.89,1.24-2.03,1.24-3.22,0-1.74-1.43-3.16-3.19-3.16h-1.88c-1.76,0-3.19,1.42-3.19,3.16h-2.98c0-3.37,2.76-6.12,6.16-6.12h1.88M50.44,32.95h-1.88c-5.28,0-9.57,4.27-9.57,9.52v3.4h8.64l-.7.77c-1.5,1.66-2.33,3.8-2.34,6.04v1.16s.04,3.37.04,3.37h9.69l.03-3.37v-.85s2.76-3.05,2.76-3.05c1.86-2.06,2.88-4.71,2.88-7.47,0-5.25-4.29-9.52-9.57-9.52h0ZM48.78,42.71h1.42c-.05.26-.16.5-.34.7l-1.08,1.2v-1.89h0Z"/>
    </g>
  </g>
</svg>