<?xml version="1.0" encoding="UTF-8"?>
<svg id="Layer_1" xmlns="http://www.w3.org/2000/svg" version="1.1" viewBox="0 0 99 99">
  <!-- Generator: Adobe Illustrator 30.1.0, SVG Export Plug-In . SVG Version: 2.1.1 Build 136)  -->
  <circle id="Outer" cx="49.5" cy="49.5" r="45.2" fill="none" stroke="#000" stroke-width="8.6"/>
  <g>
    <g>
      <rect x="46.37" y="65.84" width="6.2" height="6.2"/>
      <path d="M51.95,66.46v4.96h-4.96v-4.96h4.96M53.19,65.23h-7.43v7.43h7.43v-7.43h0Z"/>
    </g>
    <g>
      <path d="M46.38,59.01l-.02-2.49c0-2.51.94-4.91,2.62-6.76l4.91-5.44c1.24-1.38,1.92-3.15,1.92-5,0-2.59-2.12-4.7-4.73-4.7h-3.15c-2.61,0-4.73,2.11-4.73,4.7v.62h-6.24v-.62c0-6.01,4.92-10.9,10.98-10.9h3.15c6.05,0,10.98,4.89,10.98,10.9,0,3.38-1.25,6.62-3.52,9.14l-4.91,5.44c-.67.74-1.02,1.64-1.03,2.61l-.03,2.49h-6.19Z"/>
      <path d="M51.08,29.04c5.71,0,10.36,4.61,10.36,10.28,0,3.23-1.19,6.32-3.36,8.73l-4.91,5.44c-.76.84-1.18,1.89-1.19,3.02l-.02,1.88h-4.96l-.02-1.88c0-2.35.87-4.59,2.46-6.34l4.91-5.44c1.34-1.49,2.09-3.41,2.09-5.41,0-2.93-2.4-5.32-5.35-5.32h-3.16c-2.95,0-5.35,2.38-5.35,5.32h-5c0-5.67,4.65-10.28,10.36-10.28h3.16M51.08,27.8h-3.16c-6.39,0-11.59,5.17-11.59,11.52v1.24h7.48v-1.24c0-2.25,1.85-4.08,4.12-4.08h3.16c2.27,0,4.12,1.83,4.12,4.08,0,1.69-.63,3.32-1.77,4.58l-4.91,5.44c-1.78,1.97-2.77,4.51-2.78,7.16l.02,1.89v1.23h7.42v-1.22s.03-1.88.03-1.88c0-.82.3-1.58.87-2.2l4.91-5.44c2.37-2.63,3.68-6.02,3.68-9.56,0-6.35-5.2-11.52-11.59-11.52h0Z"/>
    </g>
  </g>
</svg>