<?xml version="1.0" encoding="UTF-8"?>
<svg id="Layer_1" xmlns="http://www.w3.org/2000/svg" version="1.1" viewBox="0 0 99 99">
  <!-- Generator: Adobe Illustrator 30.1.0, SVG Export Plug-In . SVG Version: 2.1.1 Build 136)  -->
  <circle id="Outer" cx="49.5" cy="49.5" r="39.94" fill="none" stroke="#000" stroke-width="19.12"/>
  <g>
    <g>
      <rect x="46.32" y="61.84" width="6.31" height="6.31"/>
      <path d="M51.08,63.39v3.21h-3.21v-3.21h3.21M54.18,60.29h-9.4v9.4h9.4v-9.4h0Z"/>
    </g>
    <g>
      <path d="M46.34,55.95l-.02-2.75c0-1.92.71-3.75,1.99-5.16l3.18-3.52c.62-.68.95-1.56.95-2.47,0-1.05-.86-1.9-1.92-1.9h-2.04c-1.06,0-1.92.85-1.92,1.9v1.55h-6.33v-1.55c0-4.53,3.7-8.21,8.26-8.21h2.04c4.55,0,8.26,3.68,8.26,8.21,0,2.47-.92,4.85-2.58,6.69l-3.18,3.53c-.25.27-.37.58-.37.92l-.03,2.76h-6.28Z"/>
      <path d="M50.52,35.38c3.7,0,6.71,2.99,6.71,6.66,0,2.09-.77,4.1-2.18,5.65l-3.18,3.53c-.49.55-.77,1.22-.77,1.96v1.22h-3.23v-1.22c0-1.52.56-2.97,1.58-4.11l3.18-3.53c.87-.97,1.35-2.21,1.35-3.5,0-1.9-1.56-3.44-3.47-3.44h-2.04c-1.91,0-3.47,1.54-3.47,3.44h-3.24c0-3.67,3.01-6.66,6.71-6.66h2.04M50.52,32.29h-2.04c-5.41,0-9.8,4.38-9.8,9.76v3.09h9.43v-3.09c0-.19.17-.35.37-.35h2.04c.2,0,.37.16.37.35,0,.53-.2,1.04-.55,1.43l-3.18,3.53c-1.53,1.69-2.38,3.88-2.39,6.17v1.25s.04,3.07.04,3.07h9.34l.03-3.06v-1.16s3.17-3.5,3.17-3.5c1.92-2.13,2.98-4.87,2.98-7.73,0-5.38-4.4-9.76-9.8-9.76h0Z"/>
    </g>
  </g>
</svg>