<?xml version="1.0" encoding="UTF-8"?>
<svg id="Layer_1" xmlns="http://www.w3.org/2000/svg" version="1.1" viewBox="0 0 99 99">
  <!-- Generator: Adobe Illustrator 30.1.0, SVG Export Plug-In . SVG Version: 2.1.1 Build 136)  -->
  <circle id="Outer" cx="49.5" cy="49.5" r="43.45" fill="none" stroke="#000" stroke-width="12.1"/>
  <g>
    <g>
      <rect x="46.37" y="64.53" width="6.21" height="6.21"/>
      <path d="M51.65,65.46v4.35h-4.35v-4.35h4.35M53.5,63.6h-8.06v8.06h8.06v-8.06h0Z"/>
    </g>
    <g>
      <path d="M46.38,57.91l-.02-2.57c0-2.3.86-4.49,2.4-6.19l4.31-4.77c1.02-1.14,1.59-2.6,1.59-4.12,0-2.06-1.69-3.73-3.77-3.73h-2.77c-2.08,0-3.77,1.68-3.77,3.73v.93h-6.25v-.93c0-5.49,4.49-9.95,10.01-9.95h2.77c5.52,0,10.01,4.46,10.01,9.95,0,3.06-1.13,6-3.19,8.28l-4.31,4.78c-.52.58-.8,1.28-.8,2.03l-.03,2.57h-6.19Z"/>
      <path d="M50.88,31.23c5.01,0,9.09,4.05,9.09,9.02,0,2.83-1.05,5.55-2.95,7.66l-4.31,4.78c-.67.74-1.04,1.66-1.04,2.65l-.02,1.65h-4.35v-1.65c0-2.06.75-4.03,2.14-5.56l4.31-4.77c1.18-1.31,1.83-2.99,1.83-4.75,0-2.57-2.11-4.66-4.7-4.66h-2.77c-2.59,0-4.7,2.09-4.7,4.66h-4.39c0-4.97,4.08-9.02,9.09-9.02h2.77M50.88,29.38h-2.77c-6.03,0-10.94,4.88-10.94,10.88v1.86h8.1v-1.86c0-1.55,1.27-2.81,2.84-2.81h2.77c1.57,0,2.84,1.26,2.84,2.81,0,1.29-.48,2.54-1.35,3.5l-4.31,4.77c-1.69,1.87-2.62,4.28-2.63,6.8v1.67s.03,1.84.03,1.84h8.03l.02-1.84.02-1.65c0-.54.19-1.01.56-1.42l4.31-4.78c2.21-2.45,3.43-5.61,3.43-8.9,0-6-4.91-10.88-10.94-10.88h0Z"/>
    </g>
  </g>
</svg>