<?xml version="1.0" encoding="UTF-8"?>
<svg id="Layer_1" xmlns="http://www.w3.org/2000/svg" version="1.1" viewBox="0 0 99 99">
  <!-- Generator: Adobe Illustrator 30.1.0, SVG Export Plug-In . SVG Version: 2.1.1 Build 136)  -->
  <circle id="Outer" cx="49.5" cy="49.5" r="46.07" fill="none" stroke="#000" stroke-width="6.87"/>
  <g>
    <g>
      <rect x="46.37" y="66.5" width="6.2" height="6.2"/>
      <path d="M52.1,66.96v5.27h-5.27v-5.27h5.27M53.03,66.03h-7.13v7.13h7.13v-7.13h0Z"/>
    </g>
    <g>
      <path d="M46.38,59.58l-.02-2.45c0-2.61.98-5.12,2.73-7.05l5.22-5.78c1.35-1.5,2.1-3.43,2.1-5.44,0-2.86-2.34-5.18-5.22-5.18h-3.35c-2.88,0-5.22,2.33-5.22,5.18v.46h-6.24v-.46c0-6.28,5.15-11.39,11.47-11.39h3.35c6.32,0,11.47,5.11,11.47,11.39,0,3.54-1.31,6.95-3.69,9.58l-5.22,5.78c-.74.82-1.14,1.83-1.14,2.9l-.03,2.46h-6.19Z"/>
      <path d="M51.18,27.93c6.07,0,11.01,4.9,11.01,10.93,0,3.43-1.27,6.72-3.57,9.27l-5.22,5.78c-.81.89-1.26,2.01-1.26,3.21l-.02,1.99h-5.27l-.02-1.99c0-2.5.93-4.88,2.61-6.74l5.22-5.78c1.43-1.58,2.22-3.62,2.22-5.75,0-3.11-2.55-5.65-5.69-5.65h-3.35c-3.14,0-5.69,2.53-5.69,5.65h-5.32c0-6.02,4.94-10.93,11.01-10.93h3.35M51.18,27h-3.35c-6.58,0-11.93,5.32-11.93,11.86v.93h7.17v-.93c0-2.6,2.14-4.72,4.76-4.72h3.35c2.62,0,4.76,2.12,4.76,4.72,0,1.89-.7,3.72-1.98,5.13l-5.22,5.78c-1.83,2.02-2.84,4.63-2.85,7.36l.02,2v.92h7.12v-.92s.03-1.99.03-1.99c0-.97.36-1.86,1.02-2.6l5.22-5.79c2.46-2.72,3.81-6.24,3.81-9.89,0-6.54-5.35-11.86-11.93-11.86h0Z"/>
    </g>
  </g>
</svg>