<?xml version="1.0" encoding="UTF-8"?>
<svg id="Layer_1" xmlns="http://www.w3.org/2000/svg" version="1.1" viewBox="0 0 99 99">
  <!-- Generator: Adobe Illustrator 30.1.0, SVG Export Plug-In . SVG Version: 2.1.1 Build 136)  -->
  <circle id="Outer" cx="49.5" cy="49.5" r="41.69" fill="none" stroke="#000" stroke-width="15.62"/>
  <g>
    <g>
      <rect x="46.35" y="63.19" width="6.24" height="6.24"/>
      <path d="M51.36,64.42v3.76h-3.76v-3.76h3.76M53.83,61.95h-8.71v8.71h8.71v-8.71h0Z"/>
    </g>
    <g>
      <path d="M46.37,56.88l-.02-2.65c0-2.1.78-4.1,2.19-5.65l3.73-4.13c.82-.9,1.26-2.07,1.26-3.28,0-1.54-1.27-2.8-2.83-2.8h-2.4c-1.56,0-2.83,1.25-2.83,2.8v1.24h-6.27v-1.24c0-4.99,4.08-9.04,9.1-9.04h2.4c5.02,0,9.1,4.06,9.1,9.04,0,2.76-1.02,5.4-2.87,7.45l-3.73,4.13c-.38.42-.58.93-.58,1.47l-.03,2.66h-6.22Z"/>
      <path d="M50.7,33.36c4.33,0,7.86,3.5,7.86,7.81,0,2.45-.91,4.8-2.55,6.62l-3.73,4.13c-.58.64-.9,1.43-.9,2.29v1.42h-3.78v-1.42c0-1.78.65-3.48,1.85-4.81l3.73-4.13c1.02-1.13,1.58-2.59,1.58-4.11,0-2.22-1.82-4.03-4.06-4.03h-2.4c-2.24,0-4.06,1.81-4.06,4.03h-3.8c0-4.3,3.53-7.81,7.86-7.81h2.4M50.7,30.89h-2.4c-5.7,0-10.34,4.61-10.34,10.28v2.47h8.75v-2.47c0-.86.71-1.56,1.59-1.56h2.4c.88,0,1.59.7,1.59,1.56,0,.9-.34,1.77-.94,2.45l-3.73,4.13c-1.6,1.77-2.49,4.07-2.5,6.46v1.45s.03,2.45.03,2.45h8.67l.02-2.45v-1.42c.02-.25.1-.46.28-.66l3.73-4.13c2.06-2.28,3.19-5.22,3.19-8.28,0-5.67-4.64-10.28-10.34-10.28h0Z"/>
    </g>
  </g>
</svg>