<?xml version="1.0" encoding="UTF-8"?>
<svg id="Layer_1" xmlns="http://www.w3.org/2000/svg" version="1.1" viewBox="0 0 71 71">
  <!-- Generator: Adobe Illustrator 30.1.0, SVG Export Plug-In . SVG Version: 2.1.1 Build 136)  -->
  <g>
    <g>
      <rect x="33" y="18.42" width="5" height="5"/>
      <path d="M37.56,18.87v4.11h-4.11v-4.11h4.11M38.44,17.98h-5.89v5.89h5.89v-5.89h0Z"/>
    </g>
    <g>
      <polygon points="28.89 52.47 28.89 47.47 33 47.47 33 35.52 28.89 35.52 28.89 30.52 38 30.52 38 47.47 42.11 47.47 42.11 52.47 28.89 52.47"/>
      <path d="M37.56,30.96v16.95h4.11v4.11h-12.34v-4.11h4.11v-12.84h-4.11v-4.11h8.22M38.44,30.07h-10v5.89h4.11v11.06h-4.11v5.89h14.11v-5.89h-4.11v-16.95h0Z"/>
    </g>
  </g>
  <circle id="Outer" cx="35.5" cy="35.5" r="32.42" fill="none" stroke="#000" stroke-width="6.17"/>
</svg>