<?xml version="1.0" encoding="UTF-8"?>
<svg id="Layer_1" xmlns="http://www.w3.org/2000/svg" version="1.1" viewBox="0 0 71 71">
  <!-- Generator: Adobe Illustrator 30.1.0, SVG Export Plug-In . SVG Version: 2.1.1 Build 136)  -->
  <g>
    <g>
      <rect x="32.96" y="19.33" width="5.07" height="5.07"/>
      <path d="M37.37,20v3.74h-3.74v-3.74h3.74M38.7,18.66h-6.41v6.41h6.41v-6.41h0Z"/>
    </g>
    <g>
      <polygon points="29.22 51.36 29.22 46.28 32.96 46.28 32.96 35.93 29.22 35.93 29.22 30.85 38.04 30.85 38.04 46.28 41.78 46.28 41.78 51.36 29.22 51.36"/>
      <path d="M37.37,31.52v15.43h3.74v3.74h-11.23v-3.74h3.74v-11.69h-3.74v-3.74h7.49M38.7,30.19h-10.15v6.41h3.74v9.02h-3.74v6.41h13.89v-6.41h-3.74v-15.43h0Z"/>
    </g>
  </g>
  <circle id="Outer" cx="35.5" cy="35.5" r="31.16" fill="none" stroke="#000" stroke-width="8.68"/>
</svg>