<?xml version="1.0" encoding="UTF-8"?>
<svg id="Layer_1" xmlns="http://www.w3.org/2000/svg" version="1.1" viewBox="0 0 71 71">
  <!-- Generator: Adobe Illustrator 30.1.0, SVG Export Plug-In . SVG Version: 2.1.1 Build 136)  -->
  <g>
    <g>
      <rect x="32.86" y="21.58" width="5.29" height="5.29"/>
      <path d="M36.92,22.8v2.85h-2.85v-2.85h2.85M39.36,20.36h-7.73v7.73h7.73v-7.73h0Z"/>
    </g>
    <g>
      <polygon points="30.01 48.65 30.01 43.36 32.86 43.36 32.86 36.91 30.01 36.91 30.01 31.62 38.14 31.62 38.14 43.36 40.99 43.36 40.99 48.65 30.01 48.65"/>
      <path d="M36.92,32.85v11.73h2.85v2.85h-8.54v-2.85h2.85v-8.89h-2.85v-2.85h5.69M39.36,30.4h-10.57v7.73h2.85v4.01h-2.85v7.73h13.42v-7.73h-2.44s-.41,0-.41,0v-11.73h0Z"/>
    </g>
  </g>
  <circle id="Outer" cx="35.5" cy="35.5" r="28.02" fill="none" stroke="#000" stroke-width="14.95"/>
</svg>