<?xml version="1.0" encoding="UTF-8"?>
<svg id="Layer_1" xmlns="http://www.w3.org/2000/svg" version="1.1" viewBox="0 0 71 71">
  <!-- Generator: Adobe Illustrator 30.1.0, SVG Export Plug-In . SVG Version: 2.1.1 Build 136)  -->
  <g>
    <g>
      <rect x="32.88" y="21.14" width="5.24" height="5.24"/>
      <path d="M37.01,22.25v3.02h-3.02v-3.02h3.02M39.23,20.03h-7.46v7.46h7.46v-7.46h0Z"/>
    </g>
    <g>
      <polygon points="29.86 49.17 29.86 43.93 32.88 43.93 32.88 36.72 29.86 36.72 29.86 31.48 38.12 31.48 38.12 43.93 41.14 43.93 41.14 49.17 29.86 49.17"/>
      <path d="M37.01,32.59v12.45h3.02v3.02h-9.06v-3.02h3.02v-9.43h-3.02v-3.02h6.04M39.23,30.37h-10.48v7.46h3.02v4.99h-3.02v7.46h13.5v-7.46h-3.02v-12.45h0Z"/>
    </g>
  </g>
  <circle id="Outer" cx="35.5" cy="35.5" r="28.64" fill="none" stroke="#000" stroke-width="13.71"/>
</svg>