<?xml version="1.0" encoding="UTF-8"?>
<svg id="Layer_1" xmlns="http://www.w3.org/2000/svg" version="1.1" viewBox="0 0 88 88">
  <!-- Generator: Adobe Illustrator 30.1.0, SVG Export Plug-In . SVG Version: 2.1.1 Build 136)  -->
  <circle id="Outer" cx="44" cy="44" r="34.73" fill="none" stroke="#000" stroke-width="18.53"/>
  <g>
    <g>
      <rect x="41.15" y="54.37" width="5.65" height="5.65"/>
      <path d="M45.29,55.88v2.62h-2.62v-2.62h2.62M48.32,52.86h-8.67v8.67h8.67v-8.67h0Z"/>
    </g>
    <g>
      <path d="M41.17,49.35l-.02-2.49c0-1.63.61-3.18,1.69-4.38l2.6-2.88c.46-.51.71-1.17.71-1.85,0-.72-.59-1.3-1.32-1.3h-1.67c-.73,0-1.32.58-1.32,1.3v1.51h-5.67v-1.51c0-3.83,3.14-6.95,6.99-6.95h1.67c3.85,0,6.99,3.12,6.99,6.95,0,2.08-.77,4.08-2.17,5.63l-2.6,2.88c-.16.17-.24.37-.24.59l-.02,2.5h-5.62Z"/>
      <path d="M44.83,32.31c3.02,0,5.48,2.44,5.48,5.44,0,1.71-.63,3.35-1.78,4.62l-2.6,2.88c-.4.45-.63,1-.63,1.6v.99h-2.63v-.99c0-1.24.45-2.43,1.29-3.35l2.6-2.88c.71-.79,1.1-1.8,1.1-2.86,0-1.55-1.27-2.81-2.83-2.81h-1.67c-1.56,0-2.83,1.26-2.83,2.81h-2.65c0-3,2.46-5.44,5.48-5.44h1.67M44.83,29.29h-1.67c-4.69,0-8.5,3.8-8.5,8.47v3.03h7.68l-.62.69c-1.33,1.47-2.07,3.38-2.08,5.37v1.03s.04,3,.04,3h8.62l.03-2.99v-.76s2.46-2.71,2.46-2.71c1.65-1.83,2.56-4.19,2.56-6.64,0-4.67-3.81-8.47-8.5-8.47h0ZM43.36,37.97h1.26c-.04.23-.15.44-.3.62l-.96,1.06v-1.68h0Z"/>
    </g>
  </g>
</svg>