<?xml version="1.0" encoding="UTF-8"?>
<svg id="Layer_1" xmlns="http://www.w3.org/2000/svg" version="1.1" viewBox="0 0 88 88">
  <!-- Generator: Adobe Illustrator 30.1.0, SVG Export Plug-In . SVG Version: 2.1.1 Build 136)  -->
  <circle id="Outer" cx="44" cy="44" r="40.18" fill="none" stroke="#000" stroke-width="7.64"/>
  <g>
    <g>
      <rect x="41.22" y="58.53" width="5.51" height="5.51"/>
      <path d="M46.18,59.08v4.41h-4.41v-4.41h4.41M47.28,57.98h-6.61v6.61h6.61v-6.61h0Z"/>
    </g>
    <g>
      <path d="M41.23,52.45l-.02-2.21c0-2.23.83-4.36,2.33-6.01l4.37-4.84c1.1-1.22,1.71-2.8,1.71-4.44,0-2.3-1.89-4.17-4.21-4.17h-2.8c-2.32,0-4.21,1.87-4.21,4.17v.55h-5.55v-.55c0-5.34,4.38-9.69,9.76-9.69h2.8c5.38,0,9.75,4.35,9.75,9.69,0,3-1.11,5.89-3.13,8.12l-4.37,4.84c-.59.66-.91,1.46-.91,2.32l-.02,2.21h-5.5Z"/>
      <path d="M45.4,25.82c5.08,0,9.21,4.1,9.21,9.14,0,2.87-1.06,5.62-2.99,7.76l-4.37,4.84c-.68.75-1.05,1.68-1.05,2.69l-.02,1.67h-4.41v-1.67c0-2.09.76-4.08,2.17-5.64l4.37-4.84c1.2-1.32,1.85-3.03,1.85-4.81,0-2.6-2.13-4.72-4.76-4.72h-2.8c-2.62,0-4.76,2.12-4.76,4.72h-4.45c0-5.04,4.13-9.14,9.21-9.14h2.8M45.4,24.72h-2.8c-5.68,0-10.31,4.59-10.31,10.24v1.1h6.65v-1.1c0-2,1.64-3.62,3.66-3.62h2.8c2.02,0,3.66,1.63,3.66,3.62,0,1.5-.56,2.95-1.57,4.07l-4.37,4.84c-1.58,1.75-2.46,4.01-2.47,6.37v1.68s.02,1.09.02,1.09h6.59v-1.09s.03-1.67.03-1.67c0-.73.27-1.4.77-1.96l4.37-4.84c2.11-2.34,3.27-5.35,3.27-8.49,0-5.65-4.62-10.24-10.31-10.24h0Z"/>
    </g>
  </g>
</svg>