<?xml version="1.0" encoding="UTF-8"?>
<svg id="Layer_1" xmlns="http://www.w3.org/2000/svg" version="1.1" viewBox="0 0 88 88">
  <!-- Generator: Adobe Illustrator 30.1.0, SVG Export Plug-In . SVG Version: 2.1.1 Build 136)  -->
  <circle id="Outer" cx="44" cy="44" r="37.06" fill="none" stroke="#000" stroke-width="13.89"/>
  <g>
    <g>
      <rect x="41.2" y="56.17" width="5.55" height="5.55"/>
      <path d="M45.65,57.27v3.35h-3.35v-3.35h3.35M47.85,55.07h-7.75v7.75h7.75v-7.75h0Z"/>
    </g>
    <g>
      <path d="M41.22,50.56l-.02-2.36c0-1.87.7-3.65,1.94-5.03l3.31-3.67c.72-.8,1.12-1.84,1.12-2.91,0-1.37-1.13-2.49-2.51-2.49h-2.13c-1.39,0-2.51,1.12-2.51,2.49v1.1h-5.58v-1.1c0-4.43,3.63-8.04,8.09-8.04h2.13c4.46,0,8.09,3.61,8.09,8.04,0,2.45-.91,4.8-2.55,6.62l-3.32,3.67c-.34.37-.51.82-.52,1.3l-.02,2.36h-5.53Z"/>
      <path d="M45.06,29.66c3.85,0,6.99,3.11,6.99,6.94,0,2.18-.81,4.27-2.27,5.89l-3.31,3.67c-.51.57-.8,1.27-.8,2.04v1.27h-3.36v-1.27c0-1.59.58-3.1,1.65-4.28l3.31-3.67c.91-1.01,1.41-2.3,1.41-3.65,0-1.98-1.62-3.59-3.61-3.59h-2.13c-1.99,0-3.61,1.61-3.61,3.59h-3.38c0-3.83,3.13-6.94,6.99-6.94h2.13M45.06,27.46h-2.13c-5.07,0-9.19,4.1-9.19,9.14v2.2h7.78v-2.2c0-.76.63-1.39,1.41-1.39h2.13c.78,0,1.41.62,1.41,1.39,0,.8-.3,1.58-.84,2.18l-3.31,3.67c-1.43,1.58-2.22,3.62-2.22,5.74v1.29s.03,2.18.03,2.18h7.7l.02-2.18v-1.27c.01-.23.09-.41.25-.59l3.32-3.67c1.83-2.03,2.84-4.64,2.84-7.36,0-5.04-4.12-9.14-9.19-9.14h0Z"/>
    </g>
  </g>
</svg>