<?xml version="1.0" encoding="UTF-8"?>
<svg id="Layer_1" xmlns="http://www.w3.org/2000/svg" version="1.1" viewBox="0 0 88 88">
  <!-- Generator: Adobe Illustrator 30.1.0, SVG Export Plug-In . SVG Version: 2.1.1 Build 136)  -->
  <circle id="Outer" cx="44" cy="44" r="38.62" fill="none" stroke="#000" stroke-width="10.75"/>
  <g>
    <g>
      <rect x="41.22" y="57.36" width="5.52" height="5.52"/>
      <path d="M45.91,58.18v3.87h-3.87v-3.87h3.87M47.56,56.53h-7.17v7.17h7.17v-7.17h0Z"/>
    </g>
    <g>
      <path d="M41.23,51.48l-.02-2.28c0-2.04.76-4,2.13-5.5l3.83-4.24c.91-1.01,1.41-2.31,1.41-3.67,0-1.83-1.5-3.32-3.35-3.32h-2.46c-1.85,0-3.35,1.49-3.35,3.32v.83h-5.55v-.83c0-4.88,3.99-8.84,8.9-8.84h2.46c4.91,0,8.9,3.97,8.9,8.84,0,2.72-1.01,5.33-2.84,7.36l-3.83,4.25c-.46.51-.71,1.14-.71,1.81l-.02,2.29h-5.5Z"/>
      <path d="M45.23,27.76c4.45,0,8.08,3.6,8.08,8.02,0,2.52-.93,4.93-2.62,6.8l-3.83,4.25c-.59.66-.92,1.47-.92,2.36v1.46h-3.88v-1.46c0-1.83.67-3.58,1.9-4.94l3.83-4.24c1.05-1.16,1.63-2.66,1.63-4.22,0-2.29-1.87-4.14-4.17-4.14h-2.46c-2.3,0-4.17,1.86-4.17,4.14h-3.9c0-4.42,3.62-8.02,8.08-8.02h2.46M45.23,26.11h-2.46c-5.36,0-9.73,4.34-9.73,9.67v1.65h7.2v-1.65c0-1.38,1.13-2.49,2.52-2.49h2.46c1.39,0,2.52,1.12,2.52,2.49,0,1.15-.43,2.26-1.2,3.11l-3.83,4.24c-1.5,1.66-2.33,3.81-2.34,6.04v1.48s.03,1.64.03,1.64h7.14l.02-1.63v-1.46c.02-.48.18-.9.51-1.27l3.83-4.25c1.97-2.18,3.05-4.99,3.05-7.91,0-5.33-4.36-9.67-9.73-9.67h0Z"/>
    </g>
  </g>
</svg>