<?xml version="1.0" encoding="UTF-8"?>
<svg id="Layer_1" xmlns="http://www.w3.org/2000/svg" version="1.1" viewBox="0 0 88 88">
  <!-- Generator: Adobe Illustrator 30.1.0, SVG Export Plug-In . SVG Version: 2.1.1 Build 136)  -->
  <circle id="Outer" cx="44" cy="44" r="35.5" fill="none" stroke="#000" stroke-width="17"/>
  <g>
    <g>
      <rect x="41.18" y="54.97" width="5.61" height="5.61"/>
      <path d="M45.41,56.34v2.86h-2.86v-2.86h2.86M48.16,53.59h-8.36v8.36h8.36v-8.36h0Z"/>
    </g>
    <g>
      <path d="M41.19,49.73l-.02-2.44c0-1.71.63-3.33,1.77-4.59l2.83-3.13c.55-.6.85-1.38.85-2.19,0-.93-.77-1.69-1.71-1.69h-1.82c-.94,0-1.71.76-1.71,1.69v1.38h-5.63v-1.38c0-4.02,3.29-7.3,7.34-7.3h1.82c4.05,0,7.34,3.27,7.34,7.3,0,2.2-.81,4.31-2.29,5.95l-2.83,3.13c-.22.24-.33.52-.33.82l-.03,2.45h-5.58Z"/>
      <path d="M44.91,31.45c3.29,0,5.96,2.66,5.96,5.92,0,1.86-.69,3.64-1.94,5.03l-2.83,3.14c-.44.48-.68,1.09-.68,1.74v1.08h-2.87v-1.08c0-1.35.49-2.64,1.41-3.65l2.83-3.13c.77-.86,1.2-1.96,1.2-3.12,0-1.69-1.38-3.06-3.08-3.06h-1.82c-1.7,0-3.08,1.37-3.08,3.06h-2.88c0-3.26,2.68-5.92,5.96-5.92h1.82M44.91,28.7h-1.82c-4.8,0-8.71,3.89-8.71,8.67v2.75h8.38v-2.75c0-.17.15-.31.33-.31h1.82c.18,0,.33.14.33.31,0,.47-.17.92-.49,1.27l-2.83,3.13c-1.36,1.51-2.12,3.45-2.12,5.48v1.11s.03,2.73.03,2.73h8.3l.03-2.72v-1.03s2.82-3.11,2.82-3.11c1.71-1.89,2.65-4.33,2.65-6.87,0-4.78-3.91-8.67-8.71-8.67h0Z"/>
    </g>
  </g>
</svg>