<?xml version="1.0" encoding="UTF-8"?>
<svg id="Layer_1" xmlns="http://www.w3.org/2000/svg" version="1.1" viewBox="0 0 88 88">
  <!-- Generator: Adobe Illustrator 30.1.0, SVG Export Plug-In . SVG Version: 2.1.1 Build 136)  -->
  <circle id="Outer" cx="44" cy="44" r="40.95" fill="none" stroke="#000" stroke-width="6.11"/>
  <g>
    <g>
      <rect x="41.22" y="59.11" width="5.51" height="5.51"/>
      <path d="M46.31,59.52v4.68h-4.68v-4.68h4.68M47.14,58.69h-6.33v6.33h6.33v-6.33h0Z"/>
    </g>
    <g>
      <path d="M41.22,52.96l-.02-2.18c0-2.32.87-4.55,2.43-6.27l4.64-5.14c1.2-1.33,1.86-3.05,1.86-4.83,0-2.54-2.08-4.61-4.64-4.61h-2.98c-2.56,0-4.64,2.07-4.64,4.61v.41h-5.55v-.41c0-5.58,4.57-10.13,10.2-10.13h2.98c5.62,0,10.19,4.54,10.19,10.13,0,3.15-1.17,6.17-3.28,8.52l-4.64,5.14c-.66.73-1.01,1.62-1.01,2.58l-.02,2.18h-5.5Z"/>
      <path d="M45.49,24.83c5.39,0,9.78,4.36,9.78,9.71,0,3.05-1.13,5.97-3.18,8.24l-4.64,5.14c-.72.8-1.12,1.78-1.12,2.85l-.02,1.77h-4.68l-.02-1.77c0-2.22.83-4.34,2.32-5.99l4.64-5.14c1.27-1.41,1.97-3.22,1.97-5.11,0-2.77-2.27-5.02-5.06-5.02h-2.98c-2.79,0-5.06,2.25-5.06,5.02h-4.73c0-5.36,4.39-9.71,9.78-9.71h2.98M45.49,24h-2.98c-5.85,0-10.61,4.73-10.61,10.54v.83h6.38v-.83c0-2.31,1.9-4.2,4.23-4.2h2.98c2.33,0,4.23,1.88,4.23,4.2,0,1.68-.62,3.3-1.76,4.56l-4.64,5.14c-1.62,1.8-2.52,4.12-2.53,6.54l.02,1.78v.82h6.33v-.82s.03-1.77.03-1.77c0-.86.32-1.65.91-2.31l4.64-5.14c2.19-2.42,3.39-5.54,3.39-8.8,0-5.81-4.76-10.54-10.61-10.54h0Z"/>
    </g>
  </g>
</svg>