<?xml version="1.0" encoding="UTF-8"?>
<svg id="Layer_1" xmlns="http://www.w3.org/2000/svg" version="1.1" viewBox="0 0 45 45">
  <!-- Generator: Adobe Illustrator 30.1.0, SVG Export Plug-In . SVG Version: 2.1.1 Build 136)  -->
  <g>
    <g>
      <rect x="20.84" y="13.4" width="3.32" height="3.32"/>
      <path d="M23.46,14.1v1.91h-1.91v-1.91h1.91M24.86,12.69h-4.73v4.73h4.73v-4.73h0Z"/>
    </g>
    <g>
      <polygon points="18.93 31.17 18.93 27.84 20.84 27.84 20.84 23.28 18.93 23.28 18.93 19.95 24.16 19.95 24.16 27.84 26.07 27.84 26.07 31.17 18.93 31.17"/>
      <path d="M23.46,20.66v7.89h1.91v1.91h-5.74v-1.91h1.91v-5.98h-1.91v-1.91h3.83M24.86,19.25h-6.64v4.73h1.91v3.16h-1.91v4.73h8.56v-4.73h-1.91v-7.89h0Z"/>
    </g>
  </g>
  <circle id="Outer" cx="22.5" cy="22.5" r="18.15" fill="none" stroke="#000" stroke-width="8.69"/>
</svg>