<?xml version="1.0" encoding="UTF-8"?>
<svg id="Layer_1" xmlns="http://www.w3.org/2000/svg" version="1.1" viewBox="0 0 57 57">
  <!-- Generator: Adobe Illustrator 30.1.0, SVG Export Plug-In . SVG Version: 2.1.1 Build 136)  -->
  <path d="M28.5,12.01c.54,0,1.07.28,1.35.83l3.45,6.85c.59,1.18,1.7,2.01,2.99,2.25l7.47,1.4c1.17.22,1.64,1.64.84,2.52l-5.44,5.97c-.84.92-1.23,2.17-1.07,3.4l1.06,8.05c.13.96-.64,1.72-1.5,1.72-.23,0-.46-.05-.69-.17l-6.53-3.36c-.61-.31-1.27-.47-1.93-.47s-1.32.16-1.93.47l-6.53,3.36c-.23.12-.46.17-.69.17-.86,0-1.63-.76-1.5-1.72l1.06-8.05c.16-1.24-.23-2.48-1.07-3.4l-5.44-5.97c-.8-.88-.33-2.3.84-2.52l7.46-1.4c1.29-.24,2.39-1.07,2.99-2.25l3.45-6.85c.28-.56.82-.83,1.35-.83M28.5,0C23.36,0,18.74,2.85,16.42,7.44l-1.72,3.41-3.67.69c-4.82.9-8.77,4.35-10.33,9-1.56,4.65-.47,9.79,2.83,13.41l3,3.3-.59,4.47c-.51,3.86.67,7.76,3.23,10.68,2.57,2.93,6.28,4.61,10.17,4.61,2.14,0,4.28-.52,6.19-1.5l2.96-1.53,2.96,1.53c1.91.98,4.05,1.5,6.19,1.5,3.89,0,7.6-1.68,10.17-4.61,2.56-2.93,3.74-6.82,3.23-10.68l-.59-4.47,3-3.3c3.3-3.62,4.38-8.76,2.83-13.41-1.56-4.65-5.51-8.09-10.33-9l-3.68-.69-1.72-3.41C38.26,2.85,33.64,0,28.5,0h0Z"/>
</svg>