<?xml version="1.0" encoding="UTF-8"?>
<svg id="Layer_1" xmlns="http://www.w3.org/2000/svg" version="1.1" viewBox="0 0 57 57">
  <!-- Generator: Adobe Illustrator 30.1.0, SVG Export Plug-In . SVG Version: 2.1.1 Build 136)  -->
  <path d="M28.5,11.01c.57,0,1.14.29,1.43.88l3.66,7.26c.63,1.25,1.8,2.13,3.17,2.38l7.92,1.48c1.24.23,1.74,1.74.89,2.67l-5.77,6.33c-.89.98-1.3,2.3-1.13,3.61l1.13,8.53c.13,1.02-.68,1.82-1.59,1.82-.24,0-.49-.06-.73-.18l-6.92-3.57c-.64-.33-1.34-.5-2.05-.5s-1.4.17-2.05.5l-6.92,3.57c-.24.12-.49.18-.73.18-.92,0-1.73-.81-1.59-1.82l1.13-8.54c.17-1.31-.24-2.63-1.13-3.6l-5.77-6.33c-.85-.93-.35-2.44.89-2.67l7.92-1.48c1.37-.26,2.54-1.14,3.17-2.38l3.66-7.27c.3-.59.87-.88,1.43-.88M28.5,0C23.71,0,19.39,2.66,17.23,6.94l-2.21,4.38-4.73.89c-4.49.84-8.19,4.06-9.64,8.39-1.45,4.34-.44,9.13,2.64,12.51l3.72,4.09-.73,5.53c-.48,3.6.62,7.24,3.02,9.97,2.4,2.74,5.86,4.31,9.49,4.31,2,0,3.99-.49,5.77-1.4l3.93-2.02,3.93,2.02c1.78.92,3.78,1.4,5.77,1.4,3.63,0,7.09-1.57,9.49-4.31,2.39-2.73,3.49-6.36,3.02-9.97l-.73-5.53,3.73-4.09c3.08-3.38,4.09-8.17,2.64-12.51-1.45-4.33-5.14-7.55-9.64-8.39l-4.74-.89-2.21-4.38C37.61,2.66,33.29,0,28.5,0h0Z"/>
</svg>