<?xml version="1.0" encoding="UTF-8"?>
<svg id="Layer_1" xmlns="http://www.w3.org/2000/svg" version="1.1" viewBox="0 0 57 57">
  <!-- Generator: Adobe Illustrator 30.1.0, SVG Export Plug-In . SVG Version: 2.1.1 Build 136)  -->
  <path d="M28.5,3.95c.8,0,1.6.41,2.01,1.24l5.14,10.19c.88,1.75,2.53,2.99,4.45,3.35l11.11,2.08c1.74.33,2.44,2.44,1.25,3.74l-8.09,8.88c-1.25,1.37-1.83,3.22-1.59,5.06l1.58,11.98c.19,1.43-.95,2.56-2.23,2.56-.34,0-.69-.08-1.03-.25l-9.72-5c-.9-.46-1.89-.7-2.87-.7-.98,0-1.97.23-2.87.7l-9.72,5c-.34.17-.69.25-1.03.25-1.28,0-2.42-1.13-2.23-2.56l1.58-11.98c.24-1.84-.34-3.69-1.59-5.06l-8.09-8.88c-1.19-1.31-.49-3.42,1.25-3.75l11.11-2.08c1.92-.36,3.56-1.6,4.44-3.34l5.14-10.19c.42-.83,1.22-1.24,2.01-1.24M28.5,0C26.14,0,24.02,1.31,22.95,3.42l-5.14,10.19c-.32.64-.94,1.11-1.64,1.24l-11.11,2.08c-2.21.41-4.03,2-4.74,4.13-.72,2.14-.22,4.5,1.3,6.16l8.09,8.88c.46.51.68,1.19.59,1.88l-1.58,11.98c-.23,1.78.31,3.56,1.48,4.91,1.18,1.35,2.89,2.13,4.67,2.13.98,0,1.96-.24,2.84-.69l9.72-5c.33-.17.69-.26,1.06-.26.37,0,.73.09,1.06.26l9.72,5c.88.45,1.86.69,2.84.69,1.79,0,3.49-.78,4.67-2.13,1.18-1.34,1.72-3.13,1.48-4.91l-1.58-11.98c-.09-.69.12-1.37.59-1.88l8.09-8.88c1.52-1.66,2.01-4.03,1.3-6.16-.72-2.13-2.53-3.72-4.74-4.13l-11.11-2.08c-.71-.13-1.32-.6-1.64-1.24l-5.14-10.19C32.98,1.31,30.86,0,28.5,0h0Z"/>
</svg>