<?xml version="1.0" encoding="UTF-8"?>
<svg id="Layer_1" xmlns="http://www.w3.org/2000/svg" version="1.1" viewBox="0 0 57 57">
  <!-- Generator: Adobe Illustrator 30.1.0, SVG Export Plug-In . SVG Version: 2.1.1 Build 136)  -->
  <path d="M28.5,4.95c.77,0,1.53.4,1.93,1.19l4.93,9.78c.85,1.68,2.42,2.87,4.27,3.21l10.66,2c1.67.31,2.34,2.34,1.2,3.59l-7.77,8.52c-1.2,1.31-1.76,3.09-1.52,4.86l1.52,11.49c.18,1.37-.91,2.46-2.14,2.46-.33,0-.66-.08-.99-.24l-9.32-4.8c-.86-.45-1.81-.67-2.75-.67-.94,0-1.89.22-2.75.67l-9.32,4.8c-.33.17-.66.24-.99.24-1.23,0-2.32-1.09-2.14-2.46l1.52-11.49c.23-1.76-.32-3.54-1.52-4.85l-7.77-8.52c-1.14-1.26-.47-3.28,1.2-3.59l10.66-2c1.84-.35,3.42-1.53,4.26-3.21l4.93-9.78c.4-.79,1.17-1.19,1.93-1.19M28.5,0C25.8,0,23.36,1.5,22.15,3.92l-4.93,9.78c-.15.3-.43.51-.75.57l-10.66,2c-2.53.47-4.62,2.29-5.44,4.74-.82,2.45-.25,5.15,1.49,7.06l7.77,8.52c.21.24.31.55.27.87l-1.52,11.49c-.27,2.04.35,4.08,1.7,5.62,1.36,1.55,3.31,2.43,5.36,2.43,1.12,0,2.25-.27,3.26-.79l9.32-4.8c.15-.08.32-.12.49-.12.17,0,.34.04.49.12l9.32,4.8c1.01.52,2.13.79,3.26.79,2.05,0,4-.89,5.36-2.43,1.35-1.54,1.97-3.59,1.7-5.62l-1.52-11.49c-.04-.32.06-.64.27-.88l7.77-8.52c1.74-1.91,2.31-4.61,1.49-7.06-.82-2.45-2.9-4.26-5.44-4.73l-10.66-2c-.32-.06-.61-.27-.76-.57l-4.93-9.78C33.64,1.5,31.2,0,28.5,0h0Z"/>
</svg>