<?xml version="1.0" encoding="UTF-8"?>
<svg id="Layer_1" xmlns="http://www.w3.org/2000/svg" version="1.1" viewBox="0 0 57 57">
  <!-- Generator: Adobe Illustrator 30.1.0, SVG Export Plug-In . SVG Version: 2.1.1 Build 136)  -->
  <path d="M28.5,9c.63,0,1.27.33,1.6.99l4.08,8.1c.7,1.39,2.01,2.37,3.53,2.66l8.83,1.65c1.38.26,1.94,1.94.99,2.98l-6.43,7.06c-.99,1.09-1.45,2.56-1.26,4.02l1.26,9.52c.15,1.14-.76,2.03-1.78,2.03-.27,0-.55-.06-.82-.2l-7.72-3.98c-.72-.37-1.5-.55-2.28-.55-.78,0-1.56.18-2.28.55l-7.72,3.98c-.27.14-.55.2-.82.2-1.02,0-1.93-.9-1.78-2.03l1.26-9.52c.19-1.46-.27-2.93-1.26-4.02l-6.43-7.06c-.95-1.04-.39-2.72.99-2.98l8.83-1.65c1.53-.29,2.83-1.27,3.53-2.66l4.08-8.1c.33-.66.97-.99,1.6-.99M28.5,0c-4.1,0-7.79,2.27-9.63,5.93l-3.19,6.33-6.87,1.29c-3.84.72-7,3.47-8.24,7.18-1.24,3.71-.38,7.81,2.26,10.7l5.18,5.68-1.01,7.68c-.41,3.08.53,6.19,2.58,8.52,2.05,2.34,5.01,3.68,8.12,3.68,1.71,0,3.41-.42,4.94-1.2l5.88-3.03,5.88,3.03c1.52.79,3.23,1.2,4.94,1.2,3.1,0,6.06-1.34,8.12-3.68,2.05-2.33,2.99-5.44,2.58-8.52l-1.01-7.68,5.18-5.69c2.63-2.89,3.5-6.99,2.26-10.7-1.24-3.71-4.4-6.46-8.24-7.18l-6.88-1.29-3.19-6.33c-1.84-3.66-5.54-5.93-9.63-5.93h0Z"/>
</svg>