<?xml version="1.0" encoding="UTF-8"?>
<svg id="Layer_1" xmlns="http://www.w3.org/2000/svg" version="1.1" viewBox="0 0 67 67">
  <!-- Generator: Adobe Illustrator 30.1.0, SVG Export Plug-In . SVG Version: 2.1.1 Build 136)  -->
  <path d="M33.5,10.57c.75,0,1.49.39,1.88,1.16l4.8,9.52c.82,1.63,2.36,2.79,4.15,3.13l10.38,1.95c1.62.3,2.28,2.28,1.17,3.5l-7.56,8.3c-1.17,1.28-1.71,3.01-1.48,4.73l1.48,11.19c.18,1.33-.89,2.39-2.09,2.39-.32,0-.65-.07-.96-.24l-9.08-4.67c-.84-.43-1.76-.65-2.68-.65s-1.84.22-2.68.65l-9.08,4.67c-.32.16-.64.24-.96.24-1.2,0-2.26-1.06-2.09-2.39l1.48-11.19c.23-1.72-.32-3.45-1.48-4.72l-7.56-8.3c-1.11-1.22-.46-3.2,1.17-3.5l10.38-1.94c1.79-.34,3.33-1.49,4.15-3.12l4.8-9.52c.39-.77,1.13-1.16,1.88-1.16M33.5,0C28.68,0,24.34,2.67,22.18,6.98l-3.75,7.44-8.08,1.51c-4.52.85-8.23,4.08-9.69,8.44-1.46,4.36-.44,9.18,2.65,12.58l6.09,6.68-1.19,9.03c-.48,3.62.63,7.27,3.03,10.02,2.41,2.75,5.89,4.33,9.54,4.33,2,0,4.01-.49,5.8-1.41l6.92-3.56,6.92,3.56c1.79.92,3.8,1.41,5.8,1.41,3.65,0,7.13-1.58,9.54-4.33,2.4-2.74,3.51-6.39,3.03-10.02l-1.19-9.02,6.09-6.68c3.1-3.4,4.11-8.22,2.65-12.58-1.46-4.36-5.17-7.59-9.69-8.44l-8.08-1.52-3.75-7.44C42.65,2.67,38.32,0,33.5,0h0Z"/>
</svg>