<?xml version="1.0" encoding="UTF-8"?>
<svg id="Layer_1" xmlns="http://www.w3.org/2000/svg" version="1.1" viewBox="0 0 67 67">
  <!-- Generator: Adobe Illustrator 30.1.0, SVG Export Plug-In . SVG Version: 2.1.1 Build 136)  -->
  <path d="M33.5,12.94c.67,0,1.34.35,1.69,1.04l4.3,8.54c.74,1.47,2.12,2.5,3.73,2.8l9.31,1.74c1.45.27,2.05,2.04,1.05,3.14l-6.78,7.44c-1.05,1.15-1.53,2.7-1.33,4.24l1.32,10.03c.16,1.2-.8,2.14-1.87,2.14-.29,0-.58-.07-.86-.21l-8.14-4.19c-.75-.39-1.58-.58-2.4-.58s-1.65.19-2.4.58l-8.14,4.19c-.28.15-.58.21-.86.21-1.08,0-2.03-.95-1.87-2.14l1.32-10.03c.2-1.54-.28-3.09-1.33-4.24l-6.78-7.44c-1-1.1-.41-2.87,1.05-3.14l9.3-1.74c1.61-.3,2.99-1.34,3.72-2.8l4.3-8.54c.35-.69,1.02-1.04,1.69-1.04M33.5,0C27.87,0,22.79,3.13,20.26,8.16l-2.59,5.15-5.57,1.04c-5.28.99-9.62,4.77-11.33,9.87-1.71,5.1-.52,10.73,3.1,14.71l4.38,4.8-.86,6.5c-.56,4.24.73,8.51,3.55,11.71,2.82,3.22,6.89,5.06,11.15,5.06,2.35,0,4.69-.57,6.79-1.65l4.62-2.38,4.62,2.38c2.09,1.08,4.44,1.65,6.79,1.65,4.27,0,8.33-1.84,11.15-5.06,2.81-3.21,4.1-7.48,3.55-11.71l-.86-6.5,4.38-4.81c3.62-3.97,4.81-9.61,3.1-14.7-1.71-5.1-6.05-8.88-11.33-9.87l-5.57-1.04-2.59-5.15C44.21,3.13,39.13,0,33.5,0h0Z"/>
</svg>