<?xml version="1.0" encoding="UTF-8"?>
<svg id="Layer_1" xmlns="http://www.w3.org/2000/svg" version="1.1" viewBox="0 0 43 43">
  <!-- Generator: Adobe Illustrator 30.1.0, SVG Export Plug-In . SVG Version: 2.1.1 Build 136)  -->
  <path d="M21.5,5.25c.53,0,1.06.27,1.33.82l3.4,6.75c.58,1.16,1.67,1.98,2.94,2.22l7.35,1.38c1.15.22,1.62,1.61.83,2.48l-5.36,5.88c-.83.91-1.21,2.13-1.05,3.35l1.05,7.93c.12.95-.63,1.69-1.48,1.69-.23,0-.46-.05-.68-.17l-6.43-3.31c-.6-.31-1.25-.46-1.9-.46-.65,0-1.3.15-1.9.46l-6.43,3.31c-.22.12-.46.17-.68.17-.85,0-1.6-.75-1.48-1.69l1.05-7.93c.16-1.22-.22-2.44-1.05-3.35l-5.36-5.88c-.79-.87-.32-2.26.83-2.48l7.35-1.38c1.27-.24,2.36-1.06,2.94-2.21l3.4-6.75c.28-.55.8-.82,1.33-.82M21.5,0C18.94,0,16.63,1.42,15.47,3.71l-3.15,6.26-6.81,1.28c-2.4.45-4.38,2.17-5.15,4.49-.78,2.32-.24,4.89,1.41,6.69l5.01,5.5-.98,7.43c-.25,1.93.33,3.87,1.61,5.33,1.28,1.47,3.14,2.31,5.08,2.31,1.07,0,2.13-.26,3.09-.75l5.93-3.05,5.93,3.05c.95.49,2.02.75,3.09.75,1.94,0,3.79-.84,5.08-2.31,1.28-1.46,1.87-3.4,1.61-5.33l-.98-7.43,5.02-5.5c1.65-1.81,2.19-4.37,1.41-6.69-.78-2.32-2.75-4.04-5.15-4.49l-6.82-1.28-3.15-6.26C26.37,1.42,24.06,0,21.5,0h0Z"/>
</svg>