<?xml version="1.0" encoding="UTF-8"?>
<svg id="Layer_1" xmlns="http://www.w3.org/2000/svg" version="1.1" viewBox="0 0 43 43">
  <!-- Generator: Adobe Illustrator 30.1.0, SVG Export Plug-In . SVG Version: 2.1.1 Build 136)  -->
  <path d="M21.5,8.3c.43,0,.86.22,1.08.67l2.76,5.48c.47.94,1.36,1.61,2.39,1.8l5.97,1.12c.93.18,1.31,1.31.67,2.01l-4.35,4.78c-.67.74-.98,1.73-.85,2.72l.85,6.44c.1.77-.51,1.38-1.2,1.38-.18,0-.37-.04-.55-.14l-5.22-2.69c-.48-.25-1.01-.37-1.54-.37-.53,0-1.06.12-1.54.37l-5.22,2.69c-.18.09-.37.14-.55.14-.69,0-1.3-.61-1.2-1.38l.85-6.44c.13-.99-.18-1.98-.85-2.72l-4.35-4.78c-.64-.7-.26-1.84.67-2.01l5.97-1.12c1.03-.19,1.92-.86,2.39-1.8l2.76-5.48c.22-.44.65-.67,1.08-.67M21.5,0C17.88,0,14.63,2.01,13,5.24l-1.66,3.3-3.57.67c-3.39.64-6.18,3.06-7.27,6.33-1.1,3.27-.33,6.89,1.99,9.44l2.81,3.08-.55,4.17c-.36,2.72.47,5.46,2.28,7.52,1.81,2.06,4.42,3.25,7.16,3.25,1.51,0,3.01-.37,4.36-1.06l2.96-1.53,2.96,1.53c1.34.69,2.85,1.06,4.36,1.06,2.74,0,5.35-1.18,7.16-3.25,1.8-2.06,2.63-4.8,2.28-7.52l-.55-4.17,2.81-3.08c2.32-2.55,3.09-6.17,1.99-9.44-1.1-3.27-3.88-5.7-7.27-6.33l-3.57-.67-1.66-3.3C28.37,2.01,25.11,0,21.5,0h0Z"/>
</svg>