<?xml version="1.0" encoding="UTF-8"?>
<svg id="Layer_1" xmlns="http://www.w3.org/2000/svg" version="1.1" viewBox="0 0 106 106">
  <!-- Generator: Adobe Illustrator 30.1.0, SVG Export Plug-In . SVG Version: 2.1.1 Build 136)  -->
  <path d="M53,22.33c1,0,1.99.52,2.52,1.55l6.42,12.74c1.1,2.19,3.16,3.73,5.56,4.18l13.88,2.6c2.17.41,3.05,3.05,1.56,4.68l-10.12,11.1c-1.56,1.71-2.29,4.03-1.98,6.33l1.97,14.97c.24,1.79-1.19,3.2-2.79,3.2-.43,0-.86-.1-1.29-.32l-12.14-6.25c-1.13-.58-2.36-.87-3.59-.87s-2.46.29-3.59.87l-12.14,6.25c-.42.22-.86.32-1.29.32-1.61,0-3.03-1.41-2.79-3.2l1.97-14.97c.3-2.3-.42-4.61-1.98-6.32l-10.12-11.1c-1.49-1.64-.61-4.28,1.56-4.68l13.88-2.6c2.4-.45,4.45-2,5.55-4.18l6.42-12.74c.52-1.03,1.52-1.55,2.52-1.55M53,0C43.45,0,34.84,5.3,30.54,13.83l-3.2,6.34-6.83,1.28c-8.96,1.68-16.32,8.09-19.21,16.73-2.9,8.64-.88,18.2,5.26,24.93l5.58,6.13-1.1,8.31c-.95,7.18,1.24,14.42,6.01,19.86,4.78,5.45,11.68,8.58,18.91,8.58,0,0,0,0,0,0,3.98,0,7.96-.97,11.51-2.8l5.51-2.84,5.51,2.84c3.55,1.83,7.53,2.8,11.51,2.8,7.24,0,14.13-3.13,18.91-8.58,4.77-5.44,6.96-12.68,6.01-19.86l-1.1-8.31,5.59-6.13c6.14-6.74,8.15-16.29,5.26-24.93-2.89-8.64-10.25-15.05-19.21-16.73l-6.84-1.28-3.2-6.34C71.16,5.3,62.55,0,53,0h0Z"/>
</svg>