<?xml version="1.0" encoding="UTF-8"?>
<svg id="Layer_1" xmlns="http://www.w3.org/2000/svg" version="1.1" viewBox="0 0 106 106">
  <!-- Generator: Adobe Illustrator 30.1.0, SVG Export Plug-In . SVG Version: 2.1.1 Build 136)  -->
  <path d="M53,9.21c1.42,0,2.85.74,3.59,2.22l9.16,18.19c1.57,3.12,4.51,5.33,7.93,5.97l19.82,3.72c3.1.58,4.36,4.35,2.23,6.68l-14.44,15.85c-2.23,2.44-3.26,5.75-2.83,9.03l2.82,21.37c.34,2.55-1.7,4.57-3.99,4.57-.61,0-1.23-.14-1.84-.45l-17.34-8.93c-1.61-.83-3.36-1.24-5.12-1.24s-3.51.41-5.12,1.24l-17.34,8.93c-.6.31-1.23.45-1.84.45-2.29,0-4.32-2.02-3.99-4.57l2.82-21.37c.43-3.28-.6-6.58-2.83-9.02l-14.44-15.85c-2.13-2.33-.87-6.1,2.23-6.68l19.82-3.71c3.43-.64,6.36-2.85,7.93-5.97l9.16-18.19c.74-1.48,2.17-2.22,3.59-2.22M53,0C47.97,0,43.45,2.79,41.18,7.28l-9.16,18.19c-.28.55-.8.95-1.4,1.06l-19.82,3.71c-4.71.88-8.59,4.26-10.11,8.81-1.53,4.55-.46,9.58,2.77,13.13l14.44,15.85c.4.44.58,1.03.5,1.62l-2.82,21.37c-.5,3.78.65,7.59,3.16,10.45,2.52,2.88,6.15,4.53,9.96,4.53,2.09,0,4.18-.51,6.05-1.48l17.34-8.93c.28-.15.59-.22.9-.22s.62.07.9.22l17.34,8.93c1.87.97,3.97,1.48,6.05,1.48,3.81,0,7.44-1.65,9.96-4.53,2.51-2.86,3.66-6.67,3.16-10.45l-2.82-21.37c-.08-.59.11-1.19.51-1.63l14.44-15.85c3.23-3.55,4.29-8.58,2.77-13.13-1.52-4.55-5.4-7.92-10.11-8.8l-19.82-3.72c-.6-.11-1.13-.51-1.41-1.06l-9.16-18.19C62.55,2.79,58.02,0,53,0h0Z"/>
</svg>