<?xml version="1.0" encoding="UTF-8"?>
<svg id="Layer_1" xmlns="http://www.w3.org/2000/svg" version="1.1" viewBox="0 0 106 106">
  <!-- Generator: Adobe Illustrator 30.1.0, SVG Export Plug-In . SVG Version: 2.1.1 Build 136)  -->
  <path d="M53,20.47c1.06,0,2.12.55,2.67,1.65l6.81,13.51c1.17,2.32,3.35,3.96,5.89,4.44l14.72,2.76c2.3.43,3.24,3.23,1.66,4.96l-10.73,11.77c-1.66,1.82-2.42,4.27-2.1,6.71l2.09,15.87c.25,1.89-1.26,3.39-2.96,3.39-.45,0-.92-.11-1.37-.34l-12.88-6.63c-1.19-.61-2.5-.92-3.8-.92s-2.61.31-3.8.92l-12.88,6.63c-.45.23-.91.34-1.37.34-1.7,0-3.21-1.5-2.96-3.39l2.09-15.88c.32-2.44-.45-4.89-2.1-6.7l-10.73-11.77c-1.58-1.73-.65-4.53,1.66-4.97l14.72-2.76c2.55-.48,4.72-2.12,5.89-4.43l6.81-13.51c.55-1.1,1.61-1.65,2.67-1.65M53,0c-8.91,0-16.94,4.95-20.95,12.91l-4.1,8.14-8.81,1.65c-8.35,1.57-15.22,7.55-17.92,15.61-2.7,8.06-.82,16.98,4.91,23.27l6.93,7.6-1.36,10.28c-.88,6.7,1.16,13.46,5.61,18.53,4.46,5.09,10.89,8.01,17.65,8.01,3.71,0,7.42-.9,10.74-2.61l7.31-3.76,7.31,3.76c3.31,1.71,7.03,2.61,10.74,2.61,6.75,0,13.18-2.92,17.65-8.01,4.45-5.07,6.49-11.83,5.61-18.53l-1.36-10.28,6.93-7.6c5.73-6.29,7.61-15.2,4.91-23.26-2.7-8.06-9.57-14.04-17.92-15.61l-8.81-1.65-4.1-8.14C69.94,4.95,61.91,0,53,0h0Z"/>
</svg>