<?xml version="1.0" encoding="UTF-8"?>
<svg id="Layer_1" xmlns="http://www.w3.org/2000/svg" version="1.1" viewBox="0 0 39 39">
  <!-- Generator: Adobe Illustrator 30.1.0, SVG Export Plug-In . SVG Version: 2.1.1 Build 136)  -->
  <circle id="Outer" cx="19.5" cy="19.5" r="17.81" fill="none" stroke="#000" stroke-width="3.39"/>
  <g>
    <g>
      <rect x="18.27" y="25.94" width="2.44" height="2.44"/>
      <path d="M20.46,26.18v1.95h-1.95v-1.95h1.95M20.95,25.7h-2.93v2.93h2.93v-2.93h0Z"/>
    </g>
    <g>
      <path d="M18.27,23.25v-.98c0-.99.36-1.93,1.02-2.66l1.94-2.14c.49-.54.76-1.24.76-1.97,0-1.02-.84-1.85-1.87-1.85h-1.24c-1.03,0-1.86.83-1.86,1.85v.24h-2.46v-.24c0-2.37,1.94-4.29,4.32-4.29h1.24c2.38,0,4.32,1.93,4.32,4.29,0,1.33-.49,2.61-1.39,3.6l-1.93,2.14c-.26.29-.4.65-.4,1.03v.98h-2.45Z"/>
      <path d="M20.12,11.44c2.25,0,4.08,1.82,4.08,4.05,0,1.27-.47,2.49-1.32,3.44l-1.94,2.14c-.3.33-.47.74-.47,1.19v.74h-1.96v-.74c0-.93.34-1.81.96-2.5l1.93-2.14c.53-.59.82-1.34.82-2.13,0-1.15-.95-2.09-2.11-2.09h-1.24c-1.16,0-2.11.94-2.11,2.09h-1.97c0-2.23,1.83-4.05,4.08-4.05h1.24M20.12,10.95h-1.24c-2.52,0-4.57,2.04-4.57,4.54v.49h2.95v-.49c0-.89.73-1.61,1.62-1.61h1.24c.89,0,1.62.72,1.62,1.61,0,.67-.25,1.31-.7,1.8l-1.93,2.14c-.7.78-1.09,1.78-1.09,2.82v.74s.01.48.01.48h2.92v-.48s.01-.74.01-.74c0-.32.12-.62.34-.87l1.94-2.14c.94-1.04,1.45-2.37,1.45-3.76,0-2.5-2.05-4.54-4.57-4.54h0Z"/>
    </g>
  </g>
</svg>