<?xml version="1.0" encoding="UTF-8"?>
<svg id="Layer_1" xmlns="http://www.w3.org/2000/svg" version="1.1" viewBox="0 0 39 39">
  <!-- Generator: Adobe Illustrator 30.1.0, SVG Export Plug-In . SVG Version: 2.1.1 Build 136)  -->
  <circle id="Outer" cx="19.5" cy="19.5" r="15.39" fill="none" stroke="#000" stroke-width="8.21"/>
  <g>
    <g>
      <rect x="18.24" y="24.1" width="2.5" height="2.5"/>
      <path d="M20.07,24.77v1.16h-1.16v-1.16h1.16M21.41,23.42h-3.84v3.84h3.84v-3.84h0Z"/>
    </g>
    <g>
      <path d="M18.25,21.87v-1.1c0-.72.26-1.41.74-1.94l1.15-1.27c.2-.23.32-.52.32-.82,0-.32-.26-.58-.58-.58h-.74c-.32,0-.58.26-.58.58v.67h-2.51v-.67c0-1.7,1.39-3.08,3.1-3.08h.74c1.71,0,3.1,1.38,3.1,3.08,0,.92-.34,1.81-.96,2.49l-1.15,1.28c-.07.08-.1.17-.11.26v1.11h-2.5Z"/>
      <path d="M19.87,14.32c1.34,0,2.43,1.08,2.43,2.41,0,.76-.28,1.48-.79,2.05l-1.15,1.28c-.18.2-.28.44-.28.71v.44h-1.17v-.44c0-.55.2-1.08.57-1.49l1.15-1.28c.32-.35.49-.8.49-1.27,0-.69-.56-1.25-1.25-1.25h-.74c-.69,0-1.25.56-1.25,1.25h-1.17c0-1.33,1.09-2.41,2.43-2.41h.74M19.87,12.98h-.74c-2.08,0-3.77,1.68-3.77,3.75v1.34h3.4l-.28.31c-.59.65-.92,1.5-.92,2.38v.46s.02,1.33.02,1.33h3.82v-1.33s.02-.34.02-.34l1.09-1.2c.73-.81,1.13-1.86,1.13-2.94,0-2.07-1.69-3.75-3.77-3.75h0ZM19.22,16.83h.56c-.02.1-.06.2-.14.28l-.43.47v-.75h0Z"/>
    </g>
  </g>
</svg>