<?xml version="1.0" encoding="UTF-8"?>
<svg id="Layer_1" xmlns="http://www.w3.org/2000/svg" version="1.1" viewBox="0 0 39 39">
  <!-- Generator: Adobe Illustrator 30.1.0, SVG Export Plug-In . SVG Version: 2.1.1 Build 136)  -->
  <circle id="Outer" cx="19.5" cy="19.5" r="16.42" fill="none" stroke="#000" stroke-width="6.15"/>
  <g>
    <g>
      <rect x="18.26" y="24.89" width="2.46" height="2.46"/>
      <path d="M20.23,25.38v1.48h-1.48v-1.48h1.48M21.21,24.4h-3.43v3.43h3.43v-3.43h0Z"/>
    </g>
    <g>
      <path d="M18.27,22.41v-1.04c0-.83.3-1.62.85-2.23l1.47-1.63c.32-.36.5-.81.5-1.29,0-.61-.5-1.1-1.11-1.1h-.94c-.61,0-1.11.49-1.11,1.1v.49h-2.47v-.49c0-1.96,1.61-3.56,3.58-3.56h.94c1.98,0,3.58,1.6,3.58,3.56,0,1.08-.4,2.13-1.13,2.94l-1.47,1.63c-.15.17-.23.37-.23.58v1.05h-2.46Z"/>
      <path d="M19.97,13.14c1.71,0,3.1,1.38,3.1,3.08,0,.96-.36,1.89-1.01,2.61l-1.47,1.63c-.23.25-.35.56-.35.9v.56h-1.49v-.56c0-.7.26-1.37.73-1.9l1.47-1.63c.4-.45.62-1.02.62-1.62,0-.88-.72-1.59-1.6-1.59h-.94c-.88,0-1.6.71-1.6,1.59h-1.5c0-1.7,1.39-3.08,3.1-3.08h.94M19.97,12.17h-.94c-2.25,0-4.07,1.82-4.07,4.05v.98h3.45v-.98c0-.34.28-.61.63-.61h.94c.34,0,.63.28.63.61,0,.36-.13.7-.37.96l-1.47,1.63c-.63.7-.98,1.6-.99,2.55v.57s.01.97.01.97h3.41v-.97s.02-.56.02-.56c0-.1.03-.18.1-.26l1.47-1.63c.81-.9,1.26-2.06,1.26-3.26,0-2.23-1.83-4.05-4.07-4.05h0Z"/>
    </g>
  </g>
</svg>