<?xml version="1.0" encoding="UTF-8"?>
<svg id="Layer_1" xmlns="http://www.w3.org/2000/svg" version="1.1" viewBox="0 0 39 39">
  <!-- Generator: Adobe Illustrator 30.1.0, SVG Export Plug-In . SVG Version: 2.1.1 Build 136)  -->
  <circle id="Outer" cx="19.5" cy="19.5" r="15.73" fill="none" stroke="#000" stroke-width="7.53"/>
  <g>
    <g>
      <rect x="18.25" y="24.36" width="2.48" height="2.48"/>
      <path d="M20.12,24.97v1.27h-1.27v-1.27h1.27M21.34,23.75h-3.7v3.7h3.7v-3.7h0Z"/>
    </g>
    <g>
      <path d="M18.26,22.04v-1.08c0-.76.27-1.48.77-2.03l1.25-1.39c.24-.27.38-.61.38-.97,0-.41-.34-.75-.76-.75h-.81c-.42,0-.76.33-.76.75v.61h-2.5v-.61c0-1.78,1.46-3.23,3.25-3.23h.81c1.79,0,3.25,1.45,3.25,3.23,0,.97-.36,1.91-1.02,2.64l-1.25,1.39c-.1.11-.15.23-.15.36v1.09h-2.48Z"/>
      <path d="M19.9,13.94c1.46,0,2.64,1.18,2.64,2.62,0,.82-.3,1.61-.86,2.23l-1.25,1.39c-.19.21-.3.48-.3.77v.48h-1.27v-.48c0-.6.22-1.17.62-1.62l1.25-1.39c.34-.38.53-.87.53-1.38,0-.75-.61-1.36-1.37-1.36h-.81c-.75,0-1.37.61-1.37,1.36h-1.28c0-1.45,1.19-2.62,2.64-2.62h.81M19.9,12.72h-.81c-2.13,0-3.86,1.72-3.86,3.84v1.22h3.71v-1.22c0-.07.07-.14.15-.14h.81c.08,0,.15.06.15.14,0,.21-.08.41-.22.56l-1.25,1.39c-.6.67-.94,1.53-.94,2.43v.49s.01,1.21.01,1.21h3.68v-1.21s.02-.48.02-.48l1.24-1.36c.76-.84,1.17-1.92,1.17-3.04,0-2.12-1.73-3.84-3.86-3.84h0Z"/>
    </g>
  </g>
</svg>