<?xml version="1.0" encoding="UTF-8"?>
<svg id="Layer_1" xmlns="http://www.w3.org/2000/svg" version="1.1" viewBox="0 0 39 39">
  <!-- Generator: Adobe Illustrator 30.1.0, SVG Export Plug-In . SVG Version: 2.1.1 Build 136)  -->
  <circle id="Outer" cx="19.5" cy="19.5" r="17.12" fill="none" stroke="#000" stroke-width="4.77"/>
  <g>
    <g>
      <rect x="18.27" y="25.42" width="2.44" height="2.44"/>
      <path d="M20.35,25.79v1.71h-1.71v-1.71h1.71M21.08,25.05h-3.18v3.18h3.18v-3.18h0Z"/>
    </g>
    <g>
      <path d="M18.27,22.81v-1.01c0-.91.33-1.77.93-2.44l1.7-1.88c.4-.45.63-1.02.63-1.62,0-.81-.67-1.47-1.49-1.47h-1.09c-.82,0-1.48.66-1.48,1.47v.37h-2.46v-.37c0-2.16,1.77-3.92,3.94-3.92h1.09c2.17,0,3.94,1.76,3.94,3.92,0,1.21-.45,2.36-1.26,3.26l-1.7,1.88c-.21.23-.32.5-.32.8v1.01h-2.45Z"/>
      <path d="M20.05,12.3c1.97,0,3.58,1.59,3.58,3.55,0,1.12-.41,2.19-1.16,3.02l-1.7,1.88c-.26.29-.41.65-.41,1.04v.65h-1.72v-.65c0-.81.3-1.59.84-2.19l1.7-1.88c.46-.51.72-1.18.72-1.87,0-1.01-.83-1.84-1.85-1.84h-1.09c-1.02,0-1.85.82-1.85,1.84h-1.73c0-1.96,1.61-3.55,3.58-3.55h1.09M20.05,11.57h-1.09c-2.38,0-4.31,1.92-4.31,4.29v.73h3.19v-.73c0-.61.5-1.11,1.12-1.11h1.09c.62,0,1.12.5,1.12,1.11,0,.51-.19,1-.53,1.38l-1.7,1.88c-.67.74-1.03,1.69-1.04,2.68v.66s.01.72.01.72h3.16v-.72s.01-.65.01-.65c0-.21.08-.4.22-.56l1.7-1.88c.87-.96,1.35-2.21,1.35-3.51,0-2.36-1.93-4.29-4.31-4.29h0Z"/>
    </g>
  </g>
</svg>