<?xml version="1.0" encoding="UTF-8"?>
<svg id="Layer_1" xmlns="http://www.w3.org/2000/svg" version="1.1" viewBox="0 0 39 39">
  <!-- Generator: Adobe Illustrator 30.1.0, SVG Export Plug-In . SVG Version: 2.1.1 Build 136)  -->
  <circle id="Outer" cx="19.5" cy="19.5" r="18.15" fill="none" stroke="#000" stroke-width="2.71"/>
  <g>
    <g>
      <rect x="18.27" y="26.2" width="2.44" height="2.44"/>
      <path d="M20.53,26.38v2.08h-2.08v-2.08h2.08M20.89,26.01h-2.81v2.81h2.81v-2.81h0Z"/>
    </g>
    <g>
      <path d="M18.27,23.47v-.97c0-1.03.38-2.02,1.07-2.78l2.06-2.28c.53-.59.83-1.35.83-2.14,0-1.13-.92-2.04-2.06-2.04h-1.32c-1.13,0-2.06.92-2.06,2.04v.18h-2.46v-.18c0-2.47,2.03-4.49,4.52-4.49h1.32c2.49,0,4.52,2.01,4.52,4.49,0,1.4-.52,2.74-1.46,3.78l-2.06,2.28c-.29.33-.45.72-.45,1.14v.97h-2.45Z"/>
      <path d="M20.16,11c2.39,0,4.34,1.93,4.34,4.3,0,1.35-.5,2.65-1.41,3.65l-2.06,2.28c-.32.35-.5.79-.5,1.26v.79h-2.08v-.79c0-.98.36-1.92,1.02-2.65l2.06-2.28c.56-.62.87-1.43.87-2.26,0-1.23-1.01-2.23-2.24-2.23h-1.32c-1.24,0-2.24,1-2.24,2.23h-2.09c0-2.37,1.94-4.3,4.34-4.3h1.32M20.16,10.64h-1.32c-2.59,0-4.7,2.1-4.7,4.67v.37h2.83v-.37c0-1.03.84-1.86,1.88-1.86h1.32c1.03,0,1.88.83,1.88,1.86,0,.75-.28,1.46-.78,2.02l-2.06,2.28c-.72.8-1.12,1.83-1.12,2.9v.79s.01.36.01.36h2.8v-.36s.01-.79.01-.79c0-.38.14-.73.4-1.02l2.06-2.28c.97-1.07,1.5-2.46,1.5-3.9,0-2.58-2.11-4.67-4.7-4.67h0Z"/>
    </g>
  </g>
</svg>