<?xml version="1.0" encoding="UTF-8"?>
<svg id="Layer_1" xmlns="http://www.w3.org/2000/svg" version="1.1" viewBox="0 0 84 84">
  <!-- Generator: Adobe Illustrator 30.1.0, SVG Export Plug-In . SVG Version: 2.1.1 Build 136)  -->
  <path d="M42,17.69c.79,0,1.58.41,1.99,1.23l5.09,10.09c.87,1.73,2.5,2.96,4.4,3.31l11,2.06c1.72.32,2.42,2.41,1.24,3.71l-8.02,8.8c-1.24,1.36-1.81,3.19-1.57,5.01l1.56,11.86c.19,1.41-.94,2.54-2.21,2.54-.34,0-.68-.08-1.02-.25l-9.62-4.96c-.89-.46-1.87-.69-2.84-.69s-1.95.23-2.84.69l-9.62,4.96c-.34.17-.68.25-1.02.25-1.27,0-2.4-1.12-2.21-2.54l1.56-11.86c.24-1.82-.33-3.65-1.57-5.01l-8.02-8.8c-1.18-1.3-.48-3.39,1.24-3.71l11-2.06c1.9-.36,3.53-1.58,4.4-3.31l5.09-10.1c.41-.82,1.2-1.23,1.99-1.23M42,0C34.43,0,27.61,4.2,24.2,10.96l-2.53,5.03-5.42,1.02c-7.1,1.33-12.93,6.41-15.22,13.26-2.29,6.85-.7,14.42,4.17,19.76l4.43,4.86-.87,6.58c-.75,5.69.99,11.43,4.77,15.74,3.79,4.32,9.25,6.8,14.99,6.8,3.15,0,6.31-.77,9.12-2.22l4.36-2.25,4.36,2.25c2.81,1.45,5.97,2.22,9.12,2.22,5.74,0,11.2-2.48,14.99-6.8,3.78-4.31,5.52-10.05,4.77-15.74l-.87-6.58,4.43-4.86c4.86-5.34,6.46-12.91,4.17-19.76-2.29-6.85-8.13-11.93-15.22-13.26l-5.42-1.02-2.53-5.03C56.39,4.2,49.57,0,42,0h0Z"/>
</svg>