<?xml version="1.0" encoding="UTF-8"?>
<svg id="Layer_1" xmlns="http://www.w3.org/2000/svg" version="1.1" viewBox="0 0 84 84">
  <!-- Generator: Adobe Illustrator 30.1.0, SVG Export Plug-In . SVG Version: 2.1.1 Build 136)  -->
  <path d="M42,5.83c1.18,0,2.35.61,2.97,1.83l7.57,15.02c1.3,2.58,3.72,4.4,6.55,4.93l16.37,3.07c2.56.48,3.6,3.59,1.84,5.52l-11.93,13.09c-1.84,2.02-2.7,4.75-2.34,7.46l2.33,17.65c.28,2.11-1.4,3.77-3.29,3.77-.5,0-1.02-.12-1.52-.37l-14.32-7.37c-1.33-.68-2.78-1.03-4.23-1.03-1.45,0-2.9.34-4.23,1.03l-14.32,7.38c-.5.26-1.02.37-1.52.37-1.89,0-3.57-1.67-3.29-3.77l2.33-17.65c.36-2.71-.5-5.44-2.34-7.45l-11.93-13.09c-1.76-1.93-.72-5.04,1.84-5.52l16.37-3.07c2.83-.53,5.25-2.35,6.55-4.93l7.57-15.02c.61-1.22,1.79-1.83,2.97-1.83M42,0C38.52,0,35.39,1.93,33.83,5.04l-7.57,15.02c-.48.95-1.38,1.63-2.42,1.82l-16.37,3.07c-3.26.61-5.94,2.94-6.99,6.09-1.05,3.15-.32,6.63,1.92,9.08l11.93,13.09c.68.75,1,1.76.87,2.77l-2.33,17.65c-.35,2.62.45,5.25,2.18,7.23,1.75,1.99,4.26,3.13,6.89,3.13,1.44,0,2.89-.35,4.19-1.02l14.32-7.38c.48-.25,1.02-.38,1.56-.38.54,0,1.08.13,1.56.38l14.32,7.37c1.3.67,2.75,1.02,4.19,1.02,2.63,0,5.14-1.14,6.89-3.13,1.73-1.98,2.53-4.61,2.18-7.23l-2.33-17.65c-.13-1.01.18-2.02.87-2.78l11.93-13.09c2.24-2.45,2.97-5.93,1.91-9.08-1.05-3.15-3.73-5.48-6.99-6.09l-16.37-3.07c-1.04-.19-1.94-.88-2.42-1.83l-7.57-15.02C48.61,1.93,45.47,0,42,0h0Z"/>
</svg>