<?xml version="1.0" encoding="UTF-8"?>
<svg id="Layer_1" xmlns="http://www.w3.org/2000/svg" version="1.1" viewBox="0 0 84 84">
  <!-- Generator: Adobe Illustrator 30.1.0, SVG Export Plug-In . SVG Version: 2.1.1 Build 136)  -->
  <path d="M42,10.26c1.03,0,2.06.54,2.6,1.61l6.64,13.18c1.14,2.26,3.27,3.86,5.75,4.33l14.36,2.69c2.25.42,3.16,3.15,1.62,4.84l-10.47,11.48c-1.61,1.77-2.37,4.17-2.05,6.55l2.04,15.48c.24,1.85-1.23,3.31-2.89,3.31-.44,0-.89-.1-1.33-.33l-12.56-6.47c-1.16-.6-2.44-.9-3.71-.9-1.27,0-2.55.3-3.71.9l-12.56,6.47c-.44.23-.89.33-1.33.33-1.66,0-3.13-1.46-2.89-3.31l2.04-15.49c.31-2.38-.44-4.77-2.05-6.54l-10.47-11.48c-1.54-1.69-.63-4.42,1.62-4.84l14.36-2.69c2.48-.47,4.61-2.06,5.75-4.32l6.64-13.18c.54-1.07,1.57-1.61,2.6-1.61M42,0C36.99,0,32.48,2.78,30.23,7.25l-6.16,12.23-13.31,2.5c-4.69.88-8.55,4.24-10.07,8.77-1.52,4.53-.46,9.54,2.76,13.08l9.8,10.75-1.91,14.51c-.5,3.77.65,7.56,3.15,10.41,2.51,2.86,6.12,4.5,9.92,4.5,2.08,0,4.17-.51,6.03-1.47l11.58-5.96,11.58,5.96c1.86.96,3.95,1.47,6.03,1.47,3.79,0,7.41-1.64,9.92-4.5,2.5-2.85,3.65-6.64,3.15-10.41l-1.91-14.51,9.8-10.75c3.22-3.53,4.28-8.54,2.76-13.07-1.52-4.53-5.38-7.89-10.07-8.77l-13.32-2.5-6.16-12.23C51.51,2.78,47.01,0,42,0h0Z"/>
</svg>