<?xml version="1.0" encoding="UTF-8"?>
<svg id="Layer_1" xmlns="http://www.w3.org/2000/svg" version="1.1" viewBox="0 0 84 84">
  <!-- Generator: Adobe Illustrator 30.1.0, SVG Export Plug-In . SVG Version: 2.1.1 Build 136)  -->
  <path d="M42,13.26c.93,0,1.87.48,2.36,1.45l6.01,11.94c1.03,2.05,2.96,3.5,5.21,3.92l13.01,2.44c2.03.38,2.86,2.85,1.46,4.38l-9.48,10.4c-1.46,1.6-2.14,3.78-1.86,5.93l1.85,14.02c.22,1.67-1.11,3-2.62,3-.4,0-.81-.09-1.21-.3l-11.38-5.86c-1.05-.54-2.21-.81-3.36-.81s-2.31.27-3.36.81l-11.38,5.86c-.4.2-.81.3-1.21.3-1.5,0-2.84-1.32-2.62-3l1.85-14.03c.28-2.15-.4-4.32-1.86-5.92l-9.48-10.4c-1.4-1.53-.57-4.01,1.46-4.39l13.01-2.44c2.25-.42,4.17-1.87,5.2-3.92l6.01-11.94c.49-.97,1.42-1.45,2.36-1.45M42,0C35.96,0,30.52,3.35,27.8,8.75l-4.7,9.33-10.13,1.9c-5.66,1.06-10.32,5.11-12.15,10.58-1.83,5.47-.56,11.51,3.33,15.77l7.63,8.38-1.49,11.32c-.6,4.54.79,9.12,3.8,12.56,3.03,3.45,7.38,5.43,11.96,5.43,2.51,0,5.03-.61,7.28-1.77l8.67-4.47,8.67,4.47c2.25,1.16,4.76,1.77,7.28,1.77,4.58,0,8.93-1.98,11.96-5.43,3.01-3.44,4.4-8.02,3.8-12.56l-1.49-11.31,7.64-8.38c3.88-4.26,5.16-10.3,3.33-15.77-1.83-5.46-6.48-9.52-12.14-10.58l-10.13-1.9-4.7-9.33C53.48,3.35,48.04,0,42,0h0Z"/>
</svg>