<?xml version="1.0" encoding="UTF-8"?>
<svg id="Layer_1" xmlns="http://www.w3.org/2000/svg" version="1.1" viewBox="0 0 84 84">
  <!-- Generator: Adobe Illustrator 30.1.0, SVG Export Plug-In . SVG Version: 2.1.1 Build 136)  -->
  <path d="M42,7.3c1.13,0,2.26.59,2.85,1.76l7.26,14.41c1.25,2.47,3.57,4.22,6.29,4.73l15.71,2.94c2.46.46,3.45,3.45,1.77,5.29l-11.44,12.56c-1.77,1.94-2.59,4.56-2.24,7.16l2.23,16.93c.27,2.02-1.34,3.62-3.16,3.62-.48,0-.98-.11-1.46-.36l-13.74-7.08c-1.27-.66-2.67-.98-4.06-.98-1.39,0-2.78.33-4.06.98l-13.74,7.08c-.48.25-.98.36-1.46.36-1.82,0-3.43-1.6-3.16-3.62l2.23-16.94c.34-2.6-.48-5.22-2.24-7.15l-11.44-12.56c-1.69-1.85-.69-4.84,1.77-5.3l15.7-2.94c2.72-.51,5.04-2.26,6.28-4.73l7.26-14.41c.59-1.17,1.72-1.76,2.85-1.76M42,0c-3.98,0-7.57,2.21-9.36,5.77l-7.26,14.41c-.22.44-.64.75-1.11.84l-15.7,2.94c-3.73.7-6.8,3.37-8.01,6.98-1.21,3.61-.37,7.6,2.19,10.41l11.44,12.56c.32.35.46.81.4,1.28l-2.23,16.94c-.4,3,.52,6.02,2.5,8.28,2,2.28,4.88,3.59,7.89,3.59,1.65,0,3.31-.4,4.8-1.17l13.74-7.08c.22-.12.47-.17.72-.17.25,0,.5.06.72.17l13.74,7.08c1.49.76,3.14,1.17,4.8,1.17,3.02,0,5.89-1.31,7.89-3.59,1.99-2.26,2.9-5.28,2.5-8.28l-2.23-16.93c-.06-.47.08-.94.4-1.29l11.44-12.56c2.56-2.81,3.4-6.8,2.19-10.4-1.21-3.6-4.28-6.28-8.01-6.98l-15.71-2.94c-.48-.09-.89-.4-1.11-.84l-7.26-14.41c-1.79-3.56-5.38-5.77-9.36-5.77h0Z"/>
</svg>