<?xml version="1.0" encoding="UTF-8"?>
<svg id="Layer_1" xmlns="http://www.w3.org/2000/svg" version="1.1" viewBox="0 0 10 10">
  <!-- Generator: Adobe Illustrator 30.1.0, SVG Export Plug-In . SVG Version: 2.1.1 Build 136)  -->
  <path d="M5,1.58c.11,0,.22.06.28.17l.72,1.42c.12.24.35.42.62.47l1.55.29c.24.05.34.34.17.52l-1.13,1.24c-.17.19-.26.45-.22.71l.22,1.67c.03.2-.13.36-.31.36-.05,0-.1-.01-.14-.04l-1.35-.7c-.13-.06-.26-.1-.4-.1s-.27.03-.4.1l-1.35.7s-.1.04-.14.04c-.18,0-.34-.16-.31-.36l.22-1.67c.03-.26-.05-.51-.22-.71l-1.13-1.24c-.17-.18-.07-.48.17-.52l1.55-.29c.27-.05.5-.22.62-.47l.72-1.42c.06-.12.17-.17.28-.17M5,0C4.28,0,3.63.4,3.31,1.04l-.56,1.11-1.21.23c-.67.13-1.23.61-1.45,1.26-.22.65-.07,1.37.4,1.88l.91,1-.18,1.35c-.07.54.09,1.09.45,1.5.36.41.88.65,1.42.65.3,0,.6-.07.87-.21l1.03-.53,1.03.53c.27.14.57.21.87.21.54,0,1.06-.24,1.42-.65.36-.41.52-.95.45-1.5l-.18-1.35.91-1c.46-.51.61-1.23.4-1.88-.22-.65-.77-1.13-1.45-1.26l-1.21-.23-.56-1.11C6.37.4,5.72,0,5,0h0Z"/>
</svg>