<?xml version="1.0" encoding="UTF-8"?>
<svg id="Layer_1" xmlns="http://www.w3.org/2000/svg" version="1.1" viewBox="0 0 10 10">
  <!-- Generator: Adobe Illustrator 30.1.0, SVG Export Plug-In . SVG Version: 2.1.1 Build 136)  -->
  <path d="M5,2.11c.09,0,.19.05.24.15l.61,1.2c.1.21.3.35.52.39l1.31.25c.2.04.29.29.15.44l-.95,1.05c-.15.16-.22.38-.19.6l.19,1.41c.02.17-.11.3-.26.3-.04,0-.08,0-.12-.03l-1.15-.59c-.11-.05-.22-.08-.34-.08s-.23.03-.34.08l-1.15.59s-.08.03-.12.03c-.15,0-.29-.13-.26-.3l.19-1.41c.03-.22-.04-.43-.19-.6l-.95-1.05c-.14-.15-.06-.4.15-.44l1.31-.25c.23-.04.42-.19.52-.39l.61-1.2c.05-.1.14-.15.24-.15M5,0C4.1,0,3.29.5,2.88,1.31l-.3.6-.64.12c-.84.16-1.54.76-1.81,1.58-.27.82-.08,1.72.5,2.35l.53.58-.1.78c-.09.68.12,1.36.57,1.87.45.51,1.1.81,1.78.81.38,0,.75-.09,1.09-.26l.52-.27.52.27c.33.17.71.26,1.09.26.68,0,1.33-.3,1.78-.81.45-.51.66-1.2.57-1.87l-.1-.78.53-.58c.58-.64.77-1.54.5-2.35-.27-.82-.97-1.42-1.81-1.58l-.65-.12-.3-.6C6.71.5,5.9,0,5,0h0Z"/>
</svg>