<?xml version="1.0" encoding="UTF-8"?>
<svg id="Layer_1" xmlns="http://www.w3.org/2000/svg" version="1.1" viewBox="0 0 10 10">
  <!-- Generator: Adobe Illustrator 30.1.0, SVG Export Plug-In . SVG Version: 2.1.1 Build 136)  -->
  <path d="M5,.87c.13,0,.27.07.34.21l.86,1.72c.15.29.43.5.75.56l1.87.35c.29.05.41.41.21.63l-1.36,1.49c-.21.23-.31.54-.27.85l.27,2.02c.03.24-.16.43-.38.43-.06,0-.12-.01-.17-.04l-1.64-.84c-.15-.08-.32-.12-.48-.12s-.33.04-.48.12l-1.64.84c-.06.03-.12.04-.17.04-.22,0-.41-.19-.38-.43l.27-2.02c.04-.31-.06-.62-.27-.85l-1.36-1.5c-.2-.22-.08-.58.21-.63l1.87-.35c.32-.06.6-.27.75-.56l.86-1.72c.07-.14.2-.21.34-.21M5,0C4.53,0,4.1.26,3.89.69l-.86,1.72c-.03.05-.08.09-.13.1l-1.87.35c-.44.08-.81.4-.95.83-.14.43-.04.9.26,1.24l1.36,1.5s.05.1.05.15l-.27,2.02c-.05.36.06.72.3.99.24.27.58.43.94.43.2,0,.39-.05.57-.14l1.64-.84s.06-.02.09-.02.06,0,.09.02l1.64.84c.18.09.37.14.57.14.36,0,.7-.16.94-.43.24-.27.34-.63.3-.99l-.27-2.02c0-.06.01-.11.05-.15l1.36-1.49c.3-.33.4-.81.26-1.24-.14-.43-.51-.75-.95-.83l-1.87-.35c-.06-.01-.11-.05-.13-.1l-.86-1.72C5.9.26,5.47,0,5,0h0Z"/>
</svg>