<?xml version="1.0" encoding="UTF-8"?>
<svg id="Layer_1" xmlns="http://www.w3.org/2000/svg" version="1.1" viewBox="0 0 10 10">
  <!-- Generator: Adobe Illustrator 30.1.0, SVG Export Plug-In . SVG Version: 2.1.1 Build 136)  -->
  <path d="M5,1.22c.12,0,.25.06.31.19l.79,1.57c.14.27.39.46.68.52l1.71.32c.27.05.38.38.19.58l-1.25,1.37c-.19.21-.28.5-.24.78l.24,1.84c.03.22-.15.39-.34.39-.05,0-.11-.01-.16-.04l-1.5-.77c-.14-.07-.29-.11-.44-.11s-.3.04-.44.11l-1.5.77c-.05.03-.11.04-.16.04-.2,0-.37-.17-.34-.39l.24-1.84c.04-.28-.05-.57-.24-.78l-1.25-1.37c-.18-.2-.08-.53.19-.58l1.71-.32c.3-.06.55-.25.68-.51l.79-1.57c.06-.13.19-.19.31-.19M5,0C4.4,0,3.87.33,3.6.86l-.73,1.46-1.58.3c-.56.1-1.02.5-1.2,1.04-.18.54-.05,1.14.33,1.56l1.17,1.28-.23,1.73c-.06.45.08.9.37,1.24.3.34.73.54,1.18.54.25,0,.5-.06.72-.17l1.38-.71,1.38.71c.22.11.47.17.72.17.45,0,.88-.2,1.18-.54.3-.34.43-.79.37-1.24l-.23-1.73,1.17-1.28c.38-.42.51-1.02.33-1.56-.18-.54-.64-.94-1.2-1.04l-1.59-.3-.73-1.46C6.13.33,5.6,0,5,0h0Z"/>
</svg>