<?xml version="1.0" encoding="UTF-8"?>
<svg id="Layer_1" xmlns="http://www.w3.org/2000/svg" version="1.1" viewBox="0 0 46 46">
  <!-- Generator: Adobe Illustrator 30.1.0, SVG Export Plug-In . SVG Version: 2.1.1 Build 136)  -->
  <path d="M23,4c.62,0,1.24.32,1.56.96l3.98,7.89c.68,1.35,1.96,2.31,3.44,2.59l8.6,1.61c1.34.25,1.89,1.89.97,2.9l-6.27,6.88c-.97,1.06-1.42,2.5-1.23,3.92l1.22,9.27c.15,1.11-.74,1.98-1.73,1.98-.26,0-.54-.06-.8-.2l-7.52-3.87c-.7-.36-1.46-.54-2.22-.54-.76,0-1.52.18-2.22.54l-7.52,3.87c-.26.14-.53.2-.8.2-.99,0-1.88-.88-1.73-1.98l1.22-9.28c.19-1.42-.26-2.86-1.23-3.92l-6.27-6.88c-.92-1.01-.38-2.65.97-2.9l8.6-1.61c1.49-.28,2.76-1.24,3.44-2.59l3.98-7.89c.32-.64.94-.96,1.56-.96M23,0C20.82,0,18.85,1.21,17.87,3.16l-3.98,7.89c-.12.24-.35.41-.61.46l-8.6,1.61c-2.04.38-3.73,1.85-4.39,3.82-.66,1.98-.2,4.16,1.2,5.7l6.27,6.88c.17.19.25.45.22.7l-1.22,9.28c-.22,1.64.28,3.3,1.37,4.54,1.09,1.25,2.67,1.96,4.32,1.96.91,0,1.81-.22,2.63-.64l7.52-3.87c.12-.06.25-.1.39-.1.14,0,.27.03.39.1l7.52,3.87c.81.42,1.72.64,2.63.64,1.65,0,3.23-.72,4.32-1.97,1.09-1.24,1.59-2.89,1.37-4.54l-1.22-9.27c-.03-.26.05-.52.22-.71l6.27-6.88c1.4-1.54,1.86-3.72,1.2-5.7-.66-1.97-2.34-3.44-4.39-3.82l-8.6-1.61c-.26-.05-.49-.22-.61-.46l-3.98-7.89C27.15,1.21,25.18,0,23,0h0Z"/>
</svg>