<?xml version="1.0" encoding="UTF-8"?>
<svg id="Layer_1" xmlns="http://www.w3.org/2000/svg" version="1.1" viewBox="0 0 46 46">
  <!-- Generator: Adobe Illustrator 30.1.0, SVG Export Plug-In . SVG Version: 2.1.1 Build 136)  -->
  <path d="M23,3.19c.64,0,1.29.33,1.62,1l4.14,8.23c.71,1.41,2.04,2.41,3.59,2.7l8.97,1.68c1.4.26,1.97,1.97,1.01,3.02l-6.53,7.17c-1.01,1.11-1.48,2.6-1.28,4.09l1.27,9.66c.15,1.15-.77,2.07-1.8,2.07-.27,0-.56-.06-.83-.21l-7.84-4.04c-.73-.37-1.52-.56-2.32-.56-.79,0-1.59.19-2.32.56l-7.84,4.04c-.27.14-.56.21-.83.21-1.04,0-1.96-.91-1.8-2.07l1.28-9.67c.2-1.48-.27-2.98-1.28-4.08l-6.53-7.17c-.96-1.06-.39-2.76,1.01-3.02l8.96-1.68c1.55-.29,2.88-1.29,3.59-2.7l4.14-8.23c.34-.67.98-1,1.62-1M23,0c-1.9,0-3.62,1.06-4.47,2.76l-4.14,8.23c-.26.52-.76.89-1.32,1l-8.96,1.68c-1.78.33-3.25,1.61-3.83,3.34-.58,1.72-.18,3.63,1.05,4.97l6.53,7.17c.37.41.55.96.47,1.51l-1.28,9.67c-.19,1.43.25,2.88,1.2,3.96.96,1.09,2.33,1.72,3.77,1.72.79,0,1.58-.19,2.29-.56l7.84-4.04c.26-.14.56-.21.86-.21.3,0,.59.07.86.21l7.84,4.04c.71.37,1.5.56,2.29.56,1.44,0,2.82-.63,3.77-1.72.95-1.08,1.38-2.52,1.2-3.96l-1.27-9.66c-.07-.55.1-1.11.48-1.52l6.53-7.17c1.22-1.34,1.63-3.25,1.05-4.97-.58-1.72-2.04-3-3.83-3.33l-8.97-1.68c-.57-.11-1.06-.48-1.33-1l-4.14-8.23c-.86-1.7-2.57-2.76-4.47-2.76h0Z"/>
</svg>