<?xml version="1.0" encoding="UTF-8"?>
<svg id="Layer_1" xmlns="http://www.w3.org/2000/svg" version="1.1" viewBox="0 0 46 46">
  <!-- Generator: Adobe Illustrator 30.1.0, SVG Export Plug-In . SVG Version: 2.1.1 Build 136)  -->
  <path d="M23,9.69c.43,0,.87.22,1.09.67l2.78,5.53c.48.95,1.37,1.62,2.41,1.81l6.02,1.13c.94.18,1.32,1.32.68,2.03l-4.39,4.82c-.68.74-.99,1.75-.86,2.75l.86,6.49c.1.77-.52,1.39-1.21,1.39-.18,0-.37-.04-.56-.14l-5.27-2.71c-.49-.25-1.02-.38-1.56-.38-.53,0-1.07.13-1.56.38l-5.27,2.71c-.18.09-.37.14-.56.14-.7,0-1.31-.61-1.21-1.39l.86-6.5c.13-1-.18-2-.86-2.74l-4.39-4.82c-.65-.71-.26-1.86.68-2.03l6.02-1.13c1.04-.2,1.93-.87,2.41-1.81l2.79-5.53c.23-.45.66-.67,1.09-.67M23,0C18.85,0,15.12,2.3,13.26,6l-1.39,2.75-2.97.56c-3.89.73-7.08,3.51-8.34,7.26-1.26,3.75-.38,7.9,2.28,10.82l2.42,2.66-.48,3.6c-.41,3.12.54,6.26,2.61,8.62,2.07,2.37,5.07,3.72,8.21,3.72,1.73,0,3.45-.42,5-1.21l2.39-1.23,2.39,1.23c1.54.79,3.27,1.21,4.99,1.21,3.14,0,6.13-1.36,8.21-3.72,2.07-2.36,3.02-5.5,2.61-8.62l-.48-3.6,2.42-2.66c2.66-2.92,3.54-7.07,2.28-10.82-1.26-3.75-4.45-6.53-8.34-7.26l-2.97-.56-1.39-2.75C30.88,2.3,27.14,0,23,0h0Z"/>
</svg>