<?xml version="1.0" encoding="UTF-8"?>
<svg id="Layer_1" xmlns="http://www.w3.org/2000/svg" version="1.1" viewBox="0 0 46 46">
  <!-- Generator: Adobe Illustrator 30.1.0, SVG Export Plug-In . SVG Version: 2.1.1 Build 136)  -->
  <path d="M23,8.88c.46,0,.92.24,1.16.71l2.95,5.86c.51,1.01,1.45,1.72,2.56,1.92l6.39,1.2c1,.19,1.4,1.4.72,2.15l-4.66,5.11c-.72.79-1.05,1.85-.91,2.91l.91,6.89c.11.82-.55,1.47-1.29,1.47-.2,0-.4-.05-.59-.15l-5.59-2.88c-.52-.27-1.08-.4-1.65-.4s-1.13.13-1.65.4l-5.59,2.88c-.19.1-.4.15-.59.15-.74,0-1.39-.65-1.29-1.47l.91-6.89c.14-1.06-.19-2.12-.91-2.91l-4.66-5.11c-.69-.75-.28-1.97.72-2.15l6.39-1.2c1.1-.21,2.05-.92,2.56-1.92l2.95-5.86c.24-.48.7-.71,1.16-.71M23,0C19.13,0,15.65,2.15,13.91,5.6l-1.78,3.53-3.82.72c-3.63.68-6.61,3.28-7.78,6.77-1.17,3.5-.36,7.37,2.13,10.1l3.01,3.3-.59,4.46c-.38,2.91.5,5.84,2.43,8.04,1.94,2.21,4.73,3.48,7.66,3.48,1.61,0,3.22-.39,4.66-1.13l3.17-1.63,3.17,1.63c1.44.74,3.05,1.13,4.66,1.13,2.93,0,5.72-1.27,7.66-3.48,1.93-2.2,2.82-5.13,2.43-8.04l-.59-4.46,3.01-3.3c2.49-2.73,3.3-6.6,2.13-10.1-1.17-3.5-4.15-6.09-7.78-6.77l-3.82-.72-1.78-3.53C30.35,2.15,26.87,0,23,0h0Z"/>
</svg>