<?xml version="1.0" encoding="UTF-8"?>
<svg id="Layer_1" xmlns="http://www.w3.org/2000/svg" version="1.1" viewBox="0 0 50 50">
  <!-- Generator: Adobe Illustrator 30.1.0, SVG Export Plug-In . SVG Version: 2.1.1 Build 136)  -->
  <path d="M25,7.89c.56,0,1.11.29,1.4.87l3.58,7.11c.61,1.22,1.76,2.08,3.1,2.33l7.74,1.45c1.21.23,1.7,1.7.87,2.61l-5.64,6.19c-.87.96-1.28,2.25-1.11,3.53l1.1,8.35c.13,1-.66,1.78-1.56,1.78-.24,0-.48-.06-.72-.18l-6.77-3.49c-.63-.32-1.31-.49-2-.49s-1.37.16-2,.49l-6.77,3.49c-.24.12-.48.18-.72.18-.9,0-1.69-.79-1.56-1.78l1.1-8.35c.17-1.28-.24-2.57-1.1-3.53l-5.64-6.19c-.83-.91-.34-2.38.87-2.61l7.74-1.45c1.34-.25,2.48-1.11,3.1-2.33l3.58-7.11c.29-.58.85-.87,1.4-.87M25,0C21.4,0,18.17,1.99,16.55,5.21l-2.8,5.55-6.03,1.13c-3.37.63-6.14,3.04-7.23,6.3-1.09,3.25-.33,6.85,1.98,9.39l4.54,4.99-.89,6.74c-.36,2.7.47,5.43,2.26,7.48,1.8,2.05,4.4,3.23,7.12,3.23,1.5,0,2.99-.36,4.33-1.05l5.16-2.66,5.16,2.66c1.34.69,2.84,1.05,4.33,1.05,2.72,0,5.32-1.18,7.12-3.23,1.79-2.05,2.62-4.77,2.26-7.48l-.89-6.74,4.54-4.99c2.31-2.54,3.07-6.13,1.98-9.38-1.09-3.25-3.86-5.66-7.23-6.3l-6.03-1.13-2.8-5.55C31.83,1.99,28.59,0,25,0h0Z"/>
</svg>