<?xml version="1.0" encoding="UTF-8"?>
<svg id="Layer_1" xmlns="http://www.w3.org/2000/svg" version="1.1" viewBox="0 0 50 50">
  <!-- Generator: Adobe Illustrator 30.1.0, SVG Export Plug-In . SVG Version: 2.1.1 Build 136)  -->
  <path d="M25,10.53c.47,0,.94.24,1.19.73l3.03,6.01c.52,1.03,1.49,1.76,2.62,1.97l6.55,1.23c1.02.19,1.44,1.44.74,2.21l-4.77,5.24c-.74.81-1.08,1.9-.94,2.99l.93,7.06c.11.84-.56,1.51-1.32,1.51-.2,0-.41-.05-.61-.15l-5.73-2.95c-.53-.27-1.11-.41-1.69-.41s-1.16.14-1.69.41l-5.73,2.95c-.2.1-.41.15-.61.15-.76,0-1.43-.67-1.32-1.51l.93-7.06c.14-1.08-.2-2.17-.93-2.98l-4.77-5.24c-.7-.77-.29-2.02.74-2.21l6.55-1.23c1.13-.21,2.1-.94,2.62-1.97l3.03-6.01c.25-.49.72-.73,1.19-.73M25,0C20.49,0,16.44,2.5,14.41,6.53l-1.51,2.99-3.22.6c-4.22.79-7.7,3.82-9.06,7.89-1.37,4.08-.42,8.58,2.48,11.76l2.63,2.89-.52,3.92c-.45,3.39.59,6.8,2.84,9.37,2.26,2.57,5.51,4.05,8.92,4.05,0,0,0,0,0,0,1.88,0,3.75-.46,5.43-1.32l2.6-1.34,2.6,1.34c1.68.86,3.55,1.32,5.43,1.32,3.41,0,6.67-1.48,8.92-4.05,2.25-2.57,3.28-5.98,2.84-9.37l-.52-3.92,2.64-2.89c2.9-3.18,3.85-7.68,2.48-11.76-1.37-4.08-4.84-7.1-9.06-7.89l-3.22-.6-1.51-2.99C33.56,2.5,29.51,0,25,0h0Z"/>
</svg>