<?xml version="1.0" encoding="UTF-8"?>
<svg id="Layer_1" xmlns="http://www.w3.org/2000/svg" version="1.1" viewBox="0 0 50 50">
  <!-- Generator: Adobe Illustrator 30.1.0, SVG Export Plug-In . SVG Version: 2.1.1 Build 136)  -->
  <path d="M25,3.47c.7,0,1.4.36,1.77,1.09l4.5,8.94c.77,1.53,2.22,2.62,3.9,2.94l9.75,1.83c1.52.29,2.14,2.14,1.1,3.28l-7.1,7.79c-1.1,1.2-1.61,2.83-1.39,4.44l1.39,10.51c.17,1.25-.83,2.25-1.96,2.25-.3,0-.61-.07-.9-.22l-8.52-4.39c-.79-.41-1.65-.61-2.52-.61-.86,0-1.73.2-2.52.61l-8.52,4.39c-.3.15-.61.22-.9.22-1.13,0-2.13-.99-1.96-2.25l1.39-10.51c.21-1.61-.3-3.24-1.39-4.44l-7.1-7.79c-1.05-1.15-.43-3,1.1-3.29l9.74-1.83c1.68-.32,3.13-1.4,3.9-2.93l4.51-8.94c.37-.73,1.07-1.09,1.77-1.09M25,0c-2.07,0-3.93,1.15-4.86,3l-4.51,8.94c-.28.56-.82.97-1.44,1.09l-9.74,1.83c-1.94.36-3.53,1.75-4.16,3.63-.63,1.87-.19,3.95,1.14,5.41l7.1,7.79c.41.45.59,1.05.52,1.65l-1.39,10.51c-.21,1.56.27,3.13,1.3,4.3,1.04,1.19,2.53,1.87,4.1,1.87.86,0,1.72-.21,2.49-.61l8.52-4.39c.29-.15.61-.23.93-.23.32,0,.64.08.93.23l8.52,4.39c.77.4,1.63.61,2.49.61,1.57,0,3.06-.68,4.1-1.87,1.03-1.18,1.5-2.74,1.3-4.3l-1.39-10.51c-.08-.6.11-1.2.52-1.65l7.1-7.79c1.33-1.46,1.77-3.53,1.14-5.41-.63-1.87-2.22-3.26-4.16-3.62l-9.75-1.83c-.62-.12-1.16-.52-1.44-1.09l-4.5-8.94c-.93-1.85-2.8-3-4.86-3h0Z"/>
</svg>