<?xml version="1.0" encoding="UTF-8"?>
<svg id="Layer_1" xmlns="http://www.w3.org/2000/svg" version="1.1" viewBox="0 0 122 122">
  <!-- Generator: Adobe Illustrator 30.1.0, SVG Export Plug-In . SVG Version: 2.1.1 Build 136)  -->
  <circle id="Outer" cx="61" cy="61" r="56.77" fill="none" stroke="#000" stroke-width="8.46"/>
  <g>
    <g>
      <rect x="57.14" y="81.94" width="7.64" height="7.64"/>
      <path d="M64.21,82.52v6.49h-6.49v-6.49h6.49M65.35,81.37h-8.78v8.78h8.78v-8.78h0Z"/>
    </g>
    <g>
      <path d="M57.15,73.42l-.03-3.02c.01-3.22,1.21-6.3,3.36-8.69l6.43-7.13c1.67-1.85,2.58-4.23,2.58-6.7,0-3.52-2.89-6.39-6.44-6.39h-4.13c-3.55,0-6.44,2.87-6.44,6.39v.57h-7.7v-.57c0-7.74,6.34-14.04,14.13-14.04h4.13c7.79,0,14.13,6.3,14.13,14.04,0,4.36-1.62,8.56-4.55,11.81l-6.43,7.13c-.92,1.01-1.4,2.25-1.41,3.58l-.03,3.03h-7.63Z"/>
      <path d="M63.07,34.42c7.48,0,13.56,6.04,13.56,13.47,0,4.23-1.56,8.28-4.4,11.43l-6.43,7.13c-1,1.1-1.55,2.47-1.55,3.96l-.02,2.46h-6.49l-.02-2.46c.01-3.08,1.15-6.01,3.22-8.3l6.43-7.13c1.76-1.95,2.73-4.47,2.73-7.08,0-3.84-3.14-6.96-7.01-6.96h-4.13c-3.86,0-7.01,3.12-7.01,6.96h-6.55c0-7.42,6.08-13.47,13.56-13.47h4.13M63.07,33.27h-4.13c-8.11,0-14.71,6.55-14.71,14.61v1.14h8.84v-1.14c0-3.21,2.63-5.82,5.87-5.82h4.13c3.23,0,5.87,2.61,5.87,5.82,0,2.33-.87,4.58-2.44,6.32l-6.43,7.13c-2.25,2.49-3.5,5.71-3.51,9.06l.02,2.47v1.13h8.77v-1.13s.04-2.46.04-2.46c0-1.19.44-2.29,1.26-3.2l6.43-7.13c3.03-3.36,4.7-7.69,4.7-12.19,0-8.06-6.6-14.61-14.71-14.61h0Z"/>
    </g>
  </g>
</svg>