<?xml version="1.0" encoding="UTF-8"?>
<svg id="Layer_1" xmlns="http://www.w3.org/2000/svg" version="1.1" viewBox="0 0 122 122">
  <!-- Generator: Adobe Illustrator 30.1.0, SVG Export Plug-In . SVG Version: 2.1.1 Build 136)  -->
  <circle id="Outer" cx="61" cy="61" r="49.22" fill="none" stroke="#000" stroke-width="23.56"/>
  <g>
    <g>
      <rect x="57.08" y="76.21" width="7.77" height="7.77"/>
      <path d="M62.95,78.11v3.96h-3.96v-3.96h3.96M66.76,74.3h-11.58v11.58h11.58v-11.58h0Z"/>
    </g>
    <g>
      <path d="M57.11,68.94l-.03-3.39c0-2.37.88-4.62,2.45-6.36l3.92-4.34c.76-.84,1.17-1.92,1.17-3.04,0-1.29-1.06-2.34-2.37-2.34h-2.52c-1.31,0-2.37,1.05-2.37,2.34v1.91h-7.81v-1.91c0-5.58,4.56-10.12,10.17-10.12h2.52c5.61,0,10.17,4.54,10.17,10.12,0,3.05-1.13,5.98-3.18,8.24l-3.92,4.35c-.3.33-.46.72-.46,1.14l-.04,3.4h-7.74Z"/>
      <path d="M62.26,43.61c4.56,0,8.27,3.68,8.27,8.21,0,2.58-.95,5.05-2.68,6.97l-3.92,4.35c-.61.67-.94,1.51-.95,2.41l-.02,1.5h-3.96v-1.5c0-1.88.69-3.66,1.95-5.06l3.92-4.34c1.07-1.19,1.66-2.72,1.66-4.32,0-2.34-1.92-4.24-4.27-4.24h-2.52c-2.36,0-4.27,1.9-4.27,4.24h-3.99c0-4.53,3.71-8.21,8.27-8.21h2.52M62.26,39.79h-2.52c-6.66,0-12.08,5.39-12.08,12.02v3.81h11.62v-3.81c0-.23.21-.43.46-.43h2.52c.25,0,.46.2.46.43,0,.65-.24,1.28-.68,1.76l-3.92,4.34c-1.89,2.09-2.93,4.79-2.94,7.6v1.55s.05,3.78.05,3.78h11.51l.04-3.77v-1.43s3.9-4.31,3.9-4.31c2.36-2.62,3.67-6,3.67-9.52,0-6.63-5.42-12.02-12.08-12.02h0Z"/>
    </g>
  </g>
</svg>