<?xml version="1.0" encoding="UTF-8"?>
<svg id="Layer_1" xmlns="http://www.w3.org/2000/svg" version="1.1" viewBox="0 0 122 122">
  <!-- Generator: Adobe Illustrator 30.1.0, SVG Export Plug-In . SVG Version: 2.1.1 Build 136)  -->
  <circle id="Outer" cx="61" cy="61" r="51.37" fill="none" stroke="#000" stroke-width="19.25"/>
  <g>
    <g>
      <rect x="57.12" y="77.87" width="7.69" height="7.69"/>
      <path d="M63.29,79.39v4.64h-4.64v-4.64h4.64M66.34,76.34h-10.74v10.74h10.74v-10.74h0Z"/>
    </g>
    <g>
      <path d="M57.14,70.09l-.03-3.27c0-2.59.96-5.06,2.69-6.97l4.59-5.09c1-1.11,1.56-2.55,1.56-4.04,0-1.9-1.56-3.45-3.48-3.45h-2.95c-1.92,0-3.48,1.55-3.48,3.45v1.52h-7.73v-1.52c0-6.15,5.03-11.14,11.21-11.14h2.95c6.18,0,11.21,5,11.21,11.14,0,3.4-1.26,6.66-3.54,9.18l-4.6,5.09c-.47.52-.71,1.14-.72,1.81l-.04,3.28h-7.66Z"/>
      <path d="M62.48,41.11c5.34,0,9.69,4.32,9.69,9.62,0,3.02-1.12,5.92-3.15,8.16l-4.6,5.09c-.71.79-1.11,1.77-1.11,2.83l-.02,1.75h-4.64l-.02-1.75c0-2.2.82-4.29,2.3-5.93l4.59-5.09c1.26-1.39,1.95-3.19,1.95-5.06,0-2.74-2.25-4.97-5.01-4.97h-2.95c-2.76,0-5.01,2.23-5.01,4.97h-4.68c0-5.3,4.35-9.62,9.69-9.62h2.95M62.48,38.06h-2.95c-7.02,0-12.74,5.68-12.74,12.67v3.05h10.78v-3.05c0-1.06.88-1.92,1.96-1.92h2.95c1.08,0,1.96.86,1.96,1.92,0,1.11-.41,2.18-1.16,3.02l-4.59,5.09c-1.98,2.19-3.07,5.01-3.08,7.96l.02,1.79.03,3.02h10.68l.03-3.02.02-1.75c0-.31.11-.57.32-.81l4.6-5.09c2.54-2.81,3.93-6.43,3.93-10.21,0-6.99-5.71-12.67-12.74-12.67h0Z"/>
    </g>
  </g>
</svg>