<?xml version="1.0" encoding="UTF-8"?>
<svg id="Layer_1" xmlns="http://www.w3.org/2000/svg" version="1.1" viewBox="0 0 122 122">
  <!-- Generator: Adobe Illustrator 30.1.0, SVG Export Plug-In . SVG Version: 2.1.1 Build 136)  -->
  <circle id="Outer" cx="61" cy="61" r="55.7" fill="none" stroke="#000" stroke-width="10.6"/>
  <g>
    <g>
      <rect x="57.14" y="81.14" width="7.64" height="7.64"/>
      <path d="M64.02,81.91v6.11h-6.11v-6.11h6.11M65.54,80.38h-9.16v9.16h9.16v-9.16h0Z"/>
    </g>
    <g>
      <path d="M57.16,72.72l-.03-3.07c.01-3.09,1.16-6.04,3.22-8.33l6.05-6.71c1.53-1.69,2.37-3.88,2.37-6.16,0-3.19-2.62-5.79-5.83-5.79h-3.89c-3.22,0-5.83,2.6-5.83,5.79v.76h-7.69v-.76c0-7.41,6.07-13.44,13.52-13.44h3.89c7.46,0,13.52,6.03,13.52,13.44,0,4.16-1.54,8.16-4.34,11.26l-6.05,6.71c-.82.91-1.26,2.02-1.27,3.21l-.03,3.07h-7.62Z"/>
      <path d="M62.94,35.79c7.04,0,12.76,5.69,12.76,12.67,0,3.98-1.47,7.79-4.14,10.75l-6.05,6.71c-.94,1.04-1.46,2.33-1.46,3.72l-.02,2.31h-6.11l-.02-2.31c.01-2.9,1.08-5.66,3.03-7.81l6.05-6.71c1.66-1.84,2.57-4.2,2.57-6.67,0-3.61-2.96-6.55-6.6-6.55h-3.89c-3.64,0-6.6,2.94-6.6,6.55h-6.17c0-6.99,5.72-12.67,12.76-12.67h3.89M62.94,34.26h-3.89c-7.88,0-14.29,6.37-14.29,14.2v1.53h9.22v-1.53c0-2.77,2.28-5.03,5.07-5.03h3.89c2.8,0,5.07,2.25,5.07,5.03,0,2.09-.77,4.09-2.18,5.64l-6.05,6.71c-2.19,2.43-3.41,5.56-3.42,8.83l.02,2.33v1.51h9.15l.02-1.51.02-2.31c0-1.01.37-1.95,1.07-2.72l6.06-6.71c2.93-3.24,4.54-7.42,4.54-11.78,0-7.83-6.41-14.2-14.29-14.2h0Z"/>
    </g>
  </g>
</svg>