<?xml version="1.0" encoding="UTF-8"?>
<svg id="Layer_1" xmlns="http://www.w3.org/2000/svg" version="1.1" viewBox="0 0 122 122">
  <!-- Generator: Adobe Illustrator 30.1.0, SVG Export Plug-In . SVG Version: 2.1.1 Build 136)  -->
  <circle id="Outer" cx="61" cy="61" r="48.15" fill="none" stroke="#000" stroke-width="25.7"/>
  <g>
    <g>
      <rect x="57.06" y="75.38" width="7.83" height="7.83"/>
      <path d="M62.79,77.47v3.64h-3.64v-3.64h3.64M66.98,73.28h-12.02v12.02h12.02v-12.02h0Z"/>
    </g>
    <g>
      <path d="M57.08,68.42l-.03-3.45c0-2.26.84-4.41,2.34-6.07l3.6-3.99c.64-.71.99-1.62.99-2.56,0-.99-.82-1.8-1.83-1.8h-2.31c-1.01,0-1.83.81-1.83,1.8v2.1h-7.86v-2.1c0-5.31,4.35-9.64,9.69-9.64h2.31c5.34,0,9.69,4.32,9.69,9.64,0,2.88-1.07,5.66-3.01,7.8l-3.6,3.99c-.22.24-.33.52-.33.82l-.03,3.46h-7.79Z"/>
      <path d="M62.16,44.8c4.19,0,7.6,3.38,7.6,7.54,0,2.37-.88,4.64-2.47,6.4l-3.6,3.99c-.56.62-.87,1.38-.87,2.22v1.38h-3.65v-1.38c0-1.72.63-3.37,1.79-4.65l3.6-3.99c.99-1.09,1.53-2.5,1.53-3.97,0-2.15-1.76-3.9-3.93-3.9h-2.31c-2.16,0-3.93,1.75-3.93,3.9h-3.67c0-4.16,3.41-7.54,7.6-7.54h2.31M62.16,40.6h-2.31c-6.5,0-11.79,5.26-11.79,11.74v4.19h10.65l-.86.95c-1.85,2.04-2.87,4.69-2.88,7.44v.03s0,.03,0,.03v1.38s.05,4.16.05,4.16h11.95l.04-4.15v-1.05s3.41-3.76,3.41-3.76c2.29-2.53,3.55-5.8,3.55-9.21,0-6.47-5.29-11.74-11.79-11.74h0ZM60.11,52.63h1.75c-.06.32-.2.62-.42.86l-1.33,1.47v-2.34h0Z"/>
    </g>
  </g>
</svg>