<?xml version="1.0" encoding="UTF-8"?>
<svg id="Layer_1" xmlns="http://www.w3.org/2000/svg" version="1.1" viewBox="0 0 122 122">
  <!-- Generator: Adobe Illustrator 30.1.0, SVG Export Plug-In . SVG Version: 2.1.1 Build 136)  -->
  <circle id="Outer" cx="61" cy="61" r="53.55" fill="none" stroke="#000" stroke-width="14.91"/>
  <g>
    <g>
      <rect x="57.14" y="79.52" width="7.65" height="7.65"/>
      <path d="M63.65,80.66v5.36h-5.36v-5.36h5.36M65.93,78.37h-9.94v9.94h9.94v-9.94h0Z"/>
    </g>
    <g>
      <path d="M57.16,71.36l-.03-3.16c.01-2.83,1.06-5.54,2.95-7.63l5.31-5.88c1.26-1.4,1.96-3.2,1.96-5.08,0-2.54-2.08-4.6-4.64-4.6h-3.41c-2.56,0-4.64,2.06-4.64,4.6v1.14h-7.7v-1.14c0-6.76,5.54-12.26,12.34-12.26h3.41c6.8,0,12.34,5.5,12.34,12.26,0,3.77-1.4,7.39-3.93,10.2l-5.31,5.89c-.64.71-.98,1.58-.99,2.5l-.03,3.17h-7.63Z"/>
      <path d="M62.71,38.49c6.17,0,11.2,4.99,11.2,11.12,0,3.49-1.29,6.84-3.64,9.43l-5.31,5.89c-.82.91-1.28,2.04-1.28,3.27l-.02,2.03h-5.36l-.02-2.03c0-2.54.95-4.96,2.66-6.85l5.31-5.88c1.45-1.61,2.25-3.69,2.25-5.85,0-3.17-2.6-5.75-5.79-5.75h-3.41c-3.19,0-5.79,2.58-5.79,5.75h-5.41c0-6.13,5.02-11.12,11.2-11.12h3.41M62.71,36.2h-3.41c-7.44,0-13.48,6.01-13.48,13.41v2.29h9.98v-2.29c0-1.91,1.57-3.46,3.5-3.46h3.41c1.93,0,3.5,1.55,3.5,3.46,0,1.59-.59,3.13-1.66,4.32l-5.31,5.88c-2.08,2.3-3.23,5.28-3.25,8.38l.02,2.06.02,2.27h9.89l.02-2.26.02-2.03c0-.66.23-1.25.69-1.75l5.31-5.89c2.72-3.02,4.23-6.91,4.23-10.97,0-7.39-6.05-13.41-13.48-13.41h0Z"/>
    </g>
  </g>
</svg>