<?xml version="1.0" encoding="UTF-8"?>
<svg id="Layer_1" xmlns="http://www.w3.org/2000/svg" version="1.1" viewBox="0 0 57 57">
  <!-- Generator: Adobe Illustrator 30.1.0, SVG Export Plug-In . SVG Version: 2.1.1 Build 136)  -->
  <path d="M28.5,6.96c.7,0,1.4.36,1.77,1.09l4.51,8.94c.77,1.53,2.22,2.62,3.9,2.94l9.75,1.83c1.52.29,2.14,2.14,1.1,3.29l-7.1,7.79c-1.1,1.2-1.61,2.83-1.39,4.44l1.39,10.51c.17,1.25-.83,2.25-1.96,2.25-.3,0-.61-.07-.9-.22l-8.53-4.39c-.79-.41-1.65-.61-2.52-.61-.86,0-1.73.2-2.52.61l-8.53,4.39c-.3.15-.61.22-.9.22-1.13,0-2.13-.99-1.96-2.25l1.39-10.51c.21-1.61-.3-3.24-1.39-4.44l-7.1-7.79c-1.05-1.15-.43-3,1.1-3.29l9.75-1.83c1.68-.32,3.13-1.4,3.9-2.93l4.51-8.94c.37-.73,1.07-1.09,1.77-1.09M28.5,0C25.1,0,22.04,1.89,20.51,4.92l-4.18,8.3-9.03,1.69c-3.18.6-5.8,2.88-6.83,5.95-1.03,3.08-.31,6.48,1.87,8.87l6.65,7.29-1.3,9.84c-.34,2.56.44,5.13,2.14,7.06,1.7,1.94,4.16,3.06,6.73,3.06,1.41,0,2.83-.34,4.09-1l7.85-4.05,7.85,4.05c1.27.65,2.68,1,4.09,1,2.57,0,5.03-1.11,6.73-3.06,1.69-1.93,2.47-4.51,2.14-7.06l-1.3-9.84,6.65-7.3c2.18-2.4,2.9-5.8,1.87-8.87-1.03-3.07-3.65-5.35-6.83-5.95l-9.04-1.69-4.18-8.3C34.96,1.89,31.9,0,28.5,0h0Z"/>
</svg>