<?xml version="1.0" encoding="UTF-8"?>
<svg id="Layer_1" xmlns="http://www.w3.org/2000/svg" version="1.1" viewBox="0 0 106 106">
  <!-- Generator: Adobe Illustrator 30.1.0, SVG Export Plug-In . SVG Version: 2.1.1 Build 136)  -->
  <path d="M53,16.73c1.18,0,2.36.61,2.97,1.83l7.59,15.06c1.3,2.58,3.73,4.41,6.57,4.95l16.42,3.08c2.57.48,3.61,3.6,1.85,5.53l-11.96,13.13c-1.85,2.03-2.7,4.76-2.35,7.48l2.33,17.7c.28,2.11-1.4,3.78-3.3,3.78-.5,0-1.02-.12-1.52-.38l-14.36-7.4c-1.33-.69-2.79-1.03-4.24-1.03s-2.91.34-4.24,1.03l-14.36,7.4c-.5.26-1.02.38-1.52.38-1.9,0-3.58-1.67-3.3-3.78l2.33-17.7c.36-2.72-.5-5.45-2.34-7.47l-11.96-13.13c-1.76-1.93-.72-5.06,1.85-5.54l16.42-3.08c2.84-.53,5.27-2.36,6.57-4.94l7.59-15.07c.62-1.22,1.8-1.83,2.97-1.83M53,0C45.38,0,38.51,4.23,35.08,11.04l-5.93,11.77-12.78,2.4c-7.14,1.34-13.02,6.45-15.33,13.35-2.31,6.9-.7,14.52,4.2,19.9l9.63,10.57-1.88,14.28c-.76,5.73.99,11.51,4.8,15.85,3.82,4.35,9.32,6.85,15.09,6.85,3.17,0,6.35-.77,9.18-2.23l10.94-5.64,10.94,5.64c2.83,1.46,6.01,2.23,9.18,2.23,5.77,0,11.27-2.5,15.09-6.85,3.8-4.34,5.55-10.11,4.8-15.85l-1.88-14.28,9.64-10.57c4.9-5.38,6.51-13,4.2-19.9-2.31-6.89-8.18-12.01-15.33-13.35l-12.79-2.4-5.93-11.77C67.48,4.23,60.62,0,53,0h0Z"/>
</svg>