<?xml version="1.0" encoding="UTF-8"?>
<svg id="Layer_1" xmlns="http://www.w3.org/2000/svg" version="1.1" viewBox="0 0 106 106">
  <!-- Generator: Adobe Illustrator 30.1.0, SVG Export Plug-In . SVG Version: 2.1.1 Build 136)  -->
  <path d="M53,12.95c1.3,0,2.6.68,3.28,2.03l8.38,16.63c1.44,2.85,4.12,4.87,7.26,5.46l18.13,3.4c2.83.53,3.98,3.98,2.04,6.11l-13.21,14.49c-2.04,2.24-2.99,5.26-2.59,8.26l2.58,19.54c.31,2.33-1.55,4.18-3.65,4.18-.56,0-1.13-.13-1.68-.41l-15.85-8.17c-1.47-.76-3.08-1.14-4.68-1.14-1.61,0-3.21.38-4.68,1.14l-15.85,8.17c-.55.28-1.13.41-1.68.41-2.1,0-3.95-1.85-3.65-4.18l2.58-19.55c.4-3-.55-6.02-2.59-8.25l-13.21-14.49c-1.95-2.14-.8-5.58,2.04-6.11l18.12-3.4c3.13-.59,5.81-2.61,7.25-5.46l8.38-16.63c.68-1.35,1.98-2.03,3.28-2.03M53,0C46.68,0,40.99,3.51,38.15,9.15l-7.78,15.44-16.8,3.15c-5.92,1.11-10.79,5.35-12.71,11.07-1.92,5.72-.58,12.04,3.48,16.5l12.36,13.57-2.41,18.31c-.63,4.75.82,9.54,3.97,13.14,3.17,3.61,7.73,5.68,12.51,5.68,2.63,0,5.26-.64,7.61-1.85l14.61-7.52,14.61,7.52c2.35,1.21,4.98,1.85,7.61,1.85,4.79,0,9.35-2.07,12.51-5.68,3.15-3.59,4.6-8.38,3.97-13.14l-2.41-18.31,12.37-13.57c4.06-4.46,5.39-10.78,3.48-16.5-1.91-5.72-6.78-9.96-12.71-11.07l-16.8-3.15-7.78-15.44C65.01,3.51,59.32,0,53,0h0Z"/>
</svg>