<?xml version="1.0" encoding="UTF-8"?>
<svg id="Layer_1" xmlns="http://www.w3.org/2000/svg" version="1.1" viewBox="0 0 106 106">
  <!-- Generator: Adobe Illustrator 30.1.0, SVG Export Plug-In . SVG Version: 2.1.1 Build 136)  -->
  <path d="M53,7.35c1.48,0,2.97.77,3.74,2.31l9.55,18.96c1.64,3.25,4.7,5.55,8.27,6.22l20.66,3.87c3.23.61,4.54,4.53,2.32,6.96l-15.05,16.52c-2.32,2.55-3.4,6-2.95,9.42l2.94,22.27c.35,2.66-1.77,4.76-4.16,4.76-.63,0-1.29-.15-1.92-.47l-18.07-9.31c-1.68-.86-3.51-1.29-5.34-1.29s-3.66.43-5.34,1.29l-18.07,9.31c-.63.32-1.28.47-1.92.47-2.39,0-4.51-2.1-4.16-4.76l2.94-22.28c.45-3.42-.63-6.86-2.95-9.41l-15.05-16.52c-2.22-2.43-.91-6.36,2.33-6.97l20.66-3.87c3.57-.67,6.63-2.97,8.27-6.22l9.55-18.96c.78-1.54,2.26-2.31,3.74-2.31M53,0C48.61,0,44.66,2.43,42.69,6.35l-9.55,18.96c-.6,1.2-1.74,2.06-3.05,2.3l-20.66,3.87c-4.11.77-7.49,3.72-8.82,7.69-1.33,3.97-.41,8.37,2.42,11.46l15.05,16.52c.86.95,1.26,2.22,1.09,3.49l-2.94,22.28c-.44,3.3.57,6.63,2.75,9.12,2.2,2.51,5.37,3.95,8.69,3.95,1.82,0,3.65-.45,5.28-1.29l18.07-9.31c.61-.31,1.29-.48,1.97-.48s1.36.17,1.97.48l18.07,9.31c1.64.84,3.46,1.29,5.28,1.29,3.32,0,6.49-1.44,8.69-3.95,2.19-2.49,3.19-5.82,2.75-9.12l-2.94-22.27c-.17-1.28.23-2.55,1.1-3.5l15.05-16.52c2.82-3.1,3.75-7.49,2.42-11.46-1.33-3.97-4.71-6.91-8.82-7.68l-20.66-3.87c-1.31-.25-2.45-1.11-3.06-2.3l-9.55-18.96C61.34,2.43,57.38,0,53,0h0Z"/>
</svg>