<?xml version="1.0" encoding="UTF-8"?>
<svg id="Layer_1" xmlns="http://www.w3.org/2000/svg" version="1.1" viewBox="0 0 81 81">
  <!-- Generator: Adobe Illustrator 30.1.0, SVG Export Plug-In . SVG Version: 2.1.1 Build 136)  -->
  <g>
    <g>
      <rect x="37.56" y="23.09" width="5.88" height="5.88"/>
      <path d="M42.43,24.1v3.85h-3.85v-3.85h3.85M44.45,22.08h-7.9v7.9h7.9v-7.9h0Z"/>
    </g>
    <g>
      <polygon points="33.71 57.33 33.71 51.45 37.56 51.45 37.56 41.45 33.71 41.45 33.71 35.57 43.44 35.57 43.44 51.45 47.29 51.45 47.29 57.33 33.71 57.33"/>
      <path d="M42.43,36.58v15.88h3.85v3.85h-11.56v-3.85h3.85v-12.03h-3.85v-3.85h7.7M44.45,34.56h-11.75v7.9h3.85v7.98h-3.85v7.9h15.61v-7.9h-3.85v-15.88h0Z"/>
    </g>
  </g>
  <circle id="Outer" cx="40.5" cy="40.5" r="34.11" fill="none" stroke="#000" stroke-width="12.78"/>
</svg>