<?xml version="1.0" encoding="UTF-8"?>
<svg id="Layer_1" xmlns="http://www.w3.org/2000/svg" version="1.1" viewBox="0 0 81 81">
  <!-- Generator: Adobe Illustrator 30.1.0, SVG Export Plug-In . SVG Version: 2.1.1 Build 136)  -->
  <g>
    <g>
      <rect x="37.48" y="24.62" width="6.03" height="6.03"/>
      <path d="M42.12,26.01v3.25h-3.25v-3.25h3.25M44.91,23.23h-8.82v8.82h8.82v-8.82h0Z"/>
    </g>
    <g>
      <polygon points="34.24 55.5 34.24 49.47 37.48 49.47 37.48 42.11 34.24 42.11 34.24 36.08 43.52 36.08 43.52 49.47 46.76 49.47 46.76 55.5 34.24 55.5"/>
      <path d="M42.12,37.47v13.39h3.25v3.25h-9.74v-3.25h3.25v-10.14h-3.25v-3.25h6.5M44.91,34.69h-12.06v8.82h3.25v4.57h-3.25v8.82h15.31v-8.82h-3.25v-13.39h0Z"/>
    </g>
  </g>
  <circle id="Outer" cx="40.5" cy="40.5" r="31.97" fill="none" stroke="#000" stroke-width="17.06"/>
</svg>