<?xml version="1.0" encoding="UTF-8"?>
<svg id="Layer_1" xmlns="http://www.w3.org/2000/svg" version="1.1" viewBox="0 0 81 81">
  <!-- Generator: Adobe Illustrator 30.1.0, SVG Export Plug-In . SVG Version: 2.1.1 Build 136)  -->
  <g>
    <g>
      <rect x="37.51" y="24.12" width="5.98" height="5.98"/>
      <path d="M42.22,25.38v3.45h-3.45v-3.45h3.45M44.75,22.85h-8.51v8.51h8.51v-8.51h0Z"/>
    </g>
    <g>
      <polygon points="34.07 56.1 34.07 50.12 37.51 50.12 37.51 41.89 34.07 41.89 34.07 35.92 43.49 35.92 43.49 50.12 46.93 50.12 46.93 56.1 34.07 56.1"/>
      <path d="M42.22,37.18v14.2h3.45v3.45h-10.34v-3.45h3.45v-10.76h-3.45v-3.45h6.89M44.75,34.65h-11.95v8.51h3.45v5.69h-3.45v8.51h15.4v-8.51h-3.45v-14.2h0Z"/>
    </g>
  </g>
  <circle id="Outer" cx="40.5" cy="40.5" r="32.68" fill="none" stroke="#000" stroke-width="15.64"/>
</svg>