<?xml version="1.0" encoding="UTF-8"?>
<svg id="Layer_1" xmlns="http://www.w3.org/2000/svg" version="1.1" viewBox="0 0 20 20">
  <!-- Generator: Adobe Illustrator 30.1.0, SVG Export Plug-In . SVG Version: 2.1.1 Build 136)  -->
  <path d="M10,3.16c.22,0,.45.12.56.35l1.43,2.84c.25.49.7.83,1.24.93l3.1.58c.48.09.68.68.35,1.04l-2.26,2.48c-.35.38-.51.9-.44,1.41l.44,3.34c.05.4-.26.71-.62.71-.09,0-.19-.02-.29-.07l-2.71-1.4c-.25-.13-.53-.19-.8-.19-.27,0-.55.06-.8.19l-2.71,1.4c-.09.05-.19.07-.29.07-.36,0-.68-.32-.62-.71l.44-3.34c.07-.51-.09-1.03-.44-1.41l-2.26-2.48c-.33-.36-.14-.95.35-1.04l3.1-.58c.54-.1.99-.45,1.24-.93l1.43-2.84c.12-.23.34-.35.56-.35M10,0C8.56,0,7.27.8,6.62,2.08l-1.12,2.22-2.41.45c-1.35.25-2.46,1.22-2.89,2.52-.44,1.3-.13,2.74.79,3.75l1.82,1.99-.36,2.69c-.14,1.08.19,2.17.9,2.99.72.82,1.76,1.29,2.85,1.29.6,0,1.2-.15,1.73-.42l2.06-1.06,2.06,1.06c.53.28,1.13.42,1.73.42,1.09,0,2.13-.47,2.85-1.29.72-.82,1.05-1.91.9-2.99l-.36-2.69,1.82-1.99c.92-1.01,1.23-2.45.79-3.75-.44-1.3-1.54-2.27-2.89-2.52l-2.41-.45-1.12-2.22C12.73.8,11.44,0,10,0h0Z"/>
</svg>