<?xml version="1.0" encoding="UTF-8"?>
<svg id="Layer_1" xmlns="http://www.w3.org/2000/svg" version="1.1" viewBox="0 0 20 20">
  <!-- Generator: Adobe Illustrator 30.1.0, SVG Export Plug-In . SVG Version: 2.1.1 Build 136)  -->
  <path d="M10,4.21c.19,0,.38.1.47.29l1.21,2.4c.21.41.6.7,1.05.79l2.62.49c.41.08.58.57.29.88l-1.91,2.09c-.29.32-.43.76-.37,1.19l.37,2.82c.04.34-.22.6-.53.6-.08,0-.16-.02-.24-.06l-2.29-1.18c-.21-.11-.44-.16-.68-.16s-.46.05-.68.16l-2.29,1.18c-.08.04-.16.06-.24.06-.3,0-.57-.27-.53-.6l.37-2.82c.06-.43-.08-.87-.37-1.19l-1.91-2.09c-.28-.31-.11-.81.29-.88l2.62-.49c.45-.08.84-.38,1.05-.79l1.21-2.4c.1-.2.29-.29.47-.29M10,0C8.2,0,6.57,1,5.76,2.61l-.6,1.2-1.29.24c-1.69.32-3.08,1.53-3.62,3.16-.55,1.63-.17,3.43.99,4.7l1.05,1.16-.21,1.57c-.18,1.36.23,2.72,1.13,3.75.9,1.03,2.2,1.62,3.57,1.62.75,0,1.5-.18,2.17-.53l1.04-.54,1.04.54c.67.35,1.42.53,2.17.53,1.37,0,2.67-.59,3.57-1.62.9-1.03,1.31-2.39,1.13-3.75l-.21-1.57,1.05-1.16c1.16-1.27,1.54-3.07.99-4.7-.55-1.63-1.93-2.84-3.62-3.16l-1.29-.24-.6-1.2C13.43,1,11.8,0,10,0h0Z"/>
</svg>