<?xml version="1.0" encoding="UTF-8"?>
<svg id="Layer_1" xmlns="http://www.w3.org/2000/svg" version="1.1" viewBox="0 0 20 20">
  <!-- Generator: Adobe Illustrator 30.1.0, SVG Export Plug-In . SVG Version: 2.1.1 Build 136)  -->
  <path d="M10,1.39c.28,0,.56.15.71.44l1.8,3.58c.31.61.89,1.05,1.56,1.17l3.9.73c.61.11.86.85.44,1.31l-2.84,3.12c-.44.48-.64,1.13-.56,1.78l.55,4.2c.07.5-.33.9-.78.9-.12,0-.24-.03-.36-.09l-3.41-1.76c-.32-.16-.66-.24-1.01-.24s-.69.08-1.01.24l-3.41,1.76c-.12.06-.24.09-.36.09-.45,0-.85-.4-.78-.9l.55-4.2c.09-.64-.12-1.29-.56-1.77l-2.84-3.12c-.42-.46-.17-1.2.44-1.31l3.9-.73c.67-.13,1.25-.56,1.56-1.17l1.8-3.58c.15-.29.43-.44.71-.44M10,0C9.17,0,8.43.46,8.05,1.2l-1.8,3.58c-.11.23-.33.39-.58.43l-3.9.73c-.78.15-1.41.7-1.66,1.45-.25.75-.08,1.58.46,2.16l2.84,3.12c.16.18.24.42.21.66l-.55,4.2c-.08.62.11,1.25.52,1.72.42.47,1.01.75,1.64.75.34,0,.69-.08,1-.24l3.41-1.76c.11-.06.24-.09.37-.09s.26.03.37.09l3.41,1.76c.31.16.65.24,1,.24.63,0,1.22-.27,1.64-.75.41-.47.6-1.1.52-1.72l-.55-4.2c-.03-.24.04-.48.21-.66l2.84-3.12c.53-.58.71-1.41.46-2.16-.25-.75-.89-1.3-1.66-1.45l-3.9-.73c-.25-.05-.46-.21-.58-.43l-1.8-3.58C11.57.46,10.83,0,10,0h0Z"/>
</svg>