<?xml version="1.0" encoding="UTF-8"?>
<svg id="Layer_1" xmlns="http://www.w3.org/2000/svg" version="1.1" viewBox="0 0 20 20">
  <!-- Generator: Adobe Illustrator 30.1.0, SVG Export Plug-In . SVG Version: 2.1.1 Build 136)  -->
  <path d="M10,2.44c.25,0,.49.13.62.38l1.58,3.14c.27.54.78.92,1.37,1.03l3.42.64c.53.1.75.75.38,1.15l-2.49,2.73c-.38.42-.56.99-.49,1.56l.49,3.69c.06.44-.29.79-.69.79-.1,0-.21-.02-.32-.08l-2.99-1.54c-.28-.14-.58-.21-.88-.21s-.61.07-.88.21l-2.99,1.54c-.1.05-.21.08-.32.08-.4,0-.75-.35-.69-.79l.49-3.69c.07-.57-.1-1.14-.49-1.56l-2.49-2.73c-.37-.4-.15-1.05.39-1.15l3.42-.64c.59-.11,1.1-.49,1.37-1.03l1.58-3.14c.13-.25.37-.38.62-.38M10,0C8.81,0,7.73.66,7.2,1.73l-1.47,2.91-3.17.59c-1.12.21-2.04,1.01-2.4,2.09-.36,1.08-.11,2.27.66,3.11l2.33,2.56-.46,3.45c-.12.9.15,1.8.75,2.48.6.68,1.46,1.07,2.36,1.07.5,0,.99-.12,1.44-.35l2.76-1.42,2.76,1.42c.44.23.94.35,1.44.35.9,0,1.76-.39,2.36-1.07.59-.68.87-1.58.75-2.48l-.46-3.45,2.33-2.56c.77-.84,1.02-2.03.66-3.11-.36-1.08-1.28-1.88-2.4-2.09l-3.17-.59-1.47-2.91C12.27.66,11.19,0,10,0h0Z"/>
</svg>