<?xml version="1.0" encoding="UTF-8"?>
<svg id="Layer_1" xmlns="http://www.w3.org/2000/svg" version="1.1" viewBox="0 0 70 70">
  <!-- Generator: Adobe Illustrator 30.1.0, SVG Export Plug-In . SVG Version: 2.1.1 Build 136)  -->
  <path d="M35,4.86c.98,0,1.96.51,2.47,1.52l6.31,12.52c1.08,2.15,3.1,3.67,5.46,4.11l13.64,2.56c2.13.4,3,2.99,1.53,4.6l-9.94,10.91c-1.53,1.68-2.25,3.96-1.95,6.22l1.94,14.71c.23,1.75-1.17,3.14-2.74,3.14-.42,0-.85-.1-1.27-.31l-11.93-6.15c-1.11-.57-2.32-.85-3.52-.85-1.21,0-2.42.28-3.52.85l-11.93,6.15c-.42.21-.85.31-1.27.31-1.58,0-2.98-1.39-2.74-3.14l1.94-14.71c.3-2.26-.41-4.53-1.95-6.21l-9.94-10.91c-1.46-1.61-.6-4.2,1.54-4.6l13.64-2.56c2.36-.44,4.38-1.96,5.46-4.11l6.31-12.52c.51-1.02,1.49-1.52,2.47-1.52M35,0C32.1,0,29.49,1.61,28.19,4.2l-6.31,12.52c-.4.79-1.15,1.36-2.02,1.52l-13.64,2.56c-2.72.51-4.95,2.45-5.83,5.08-.88,2.62-.27,5.52,1.6,7.57l9.94,10.91c.57.62.83,1.47.72,2.31l-1.94,14.71c-.29,2.18.38,4.38,1.82,6.02,1.46,1.66,3.55,2.61,5.74,2.61,1.2,0,2.41-.29,3.49-.85l11.93-6.15c.4-.21.85-.32,1.3-.32.45,0,.9.11,1.3.32l11.93,6.15c1.08.56,2.29.85,3.49.85,2.19,0,4.29-.95,5.74-2.61,1.44-1.65,2.11-3.84,1.82-6.02l-1.94-14.71c-.11-.84.15-1.69.72-2.31l9.94-10.91c1.86-2.04,2.47-4.94,1.6-7.57-.88-2.62-3.11-4.57-5.83-5.07l-13.64-2.56c-.87-.16-1.62-.73-2.02-1.52l-6.31-12.52C40.5,1.61,37.9,0,35,0h0Z"/>
</svg>