<?xml version="1.0" encoding="UTF-8"?>
<svg id="Layer_1" xmlns="http://www.w3.org/2000/svg" version="1.1" viewBox="0 0 115 115">
  <!-- Generator: Adobe Illustrator 30.1.0, SVG Export Plug-In . SVG Version: 2.1.1 Build 136)  -->
  <g>
    <g>
      <rect x="53.22" y="34.96" width="8.56" height="8.56"/>
      <path d="M59.81,36.93v4.61h-4.61v-4.61h4.61M63.76,32.98h-12.52v12.52h12.52v-12.52h0Z"/>
    </g>
    <g>
      <polygon points="48.61 78.79 48.61 70.23 53.22 70.23 53.22 59.79 48.61 59.79 48.61 51.22 61.78 51.22 61.78 70.23 66.39 70.23 66.39 78.79 48.61 78.79"/>
      <path d="M59.81,53.2v19.01h4.61v4.61h-13.83v-4.61h4.61v-14.39h-4.61v-4.61h9.22M63.76,49.25h-17.13v12.52h4.61v6.49h-4.61v12.52h21.74v-12.52h-4.61v-19.01h0Z"/>
    </g>
  </g>
  <circle id="Outer" cx="57.5" cy="57.5" r="45.39" fill="none" stroke="#000" stroke-width="24.22"/>
</svg>