<?xml version="1.0" encoding="UTF-8"?>
<svg id="Layer_1" xmlns="http://www.w3.org/2000/svg" version="1.1" viewBox="0 0 102 102">
  <!-- Generator: Adobe Illustrator 30.1.0, SVG Export Plug-In . SVG Version: 2.1.1 Build 136)  -->
  <path d="M51,16.1c1.13,0,2.27.59,2.86,1.77l7.3,14.49c1.25,2.49,3.59,4.25,6.32,4.76l15.8,2.96c2.47.46,3.47,3.47,1.78,5.32l-11.51,12.63c-1.78,1.95-2.6,4.58-2.26,7.2l2.25,17.03c.27,2.03-1.35,3.64-3.18,3.64-.48,0-.98-.11-1.47-.36l-13.82-7.12c-1.28-.66-2.68-.99-4.08-.99s-2.8.33-4.08.99l-13.82,7.12c-.48.25-.98.36-1.47.36-1.83,0-3.45-1.61-3.18-3.64l2.25-17.04c.34-2.61-.48-5.25-2.25-7.19l-11.51-12.63c-1.7-1.86-.69-4.86,1.78-5.33l15.8-2.96c2.73-.51,5.07-2.27,6.32-4.76l7.3-14.5c.59-1.18,1.73-1.77,2.86-1.77M51,0C43.67,0,37.06,4.07,33.76,10.62l-5.71,11.33-12.3,2.31c-6.87,1.29-12.53,6.21-14.75,12.85-2.22,6.64-.68,13.97,4.04,19.15l9.27,10.17-1.81,13.74c-.73,5.52.95,11.08,4.61,15.25,3.67,4.19,8.97,6.59,14.52,6.59,3.05,0,6.11-.74,8.84-2.15l10.53-5.42,10.53,5.42c2.73,1.41,5.78,2.15,8.84,2.15,5.56,0,10.85-2.4,14.52-6.59,3.66-4.17,5.34-9.73,4.61-15.25l-1.81-13.74,9.27-10.17c4.71-5.17,6.26-12.51,4.04-19.14-2.22-6.63-7.87-11.56-14.75-12.84l-12.31-2.31-5.71-11.33C64.94,4.07,58.33,0,51,0h0Z"/>
</svg>