<?xml version="1.0" encoding="UTF-8"?>
<svg id="Layer_1" xmlns="http://www.w3.org/2000/svg" version="1.1" viewBox="0 0 102 102">
  <!-- Generator: Adobe Illustrator 30.1.0, SVG Export Plug-In . SVG Version: 2.1.1 Build 136)  -->
  <path d="M51,7.08c1.43,0,2.86.74,3.6,2.22l9.19,18.24c1.58,3.13,4.52,5.34,7.96,5.99l19.88,3.73c3.11.58,4.37,4.36,2.24,6.7l-14.48,15.89c-2.23,2.45-3.27,5.77-2.84,9.06l2.83,21.43c.34,2.56-1.7,4.58-4,4.58-.61,0-1.24-.14-1.84-.45l-17.39-8.96c-1.61-.83-3.37-1.25-5.14-1.25-1.76,0-3.52.41-5.14,1.25l-17.39,8.96c-.61.31-1.23.45-1.84.45-2.3,0-4.34-2.02-4-4.58l2.83-21.44c.43-3.29-.6-6.6-2.84-9.05l-14.49-15.9c-2.13-2.34-.87-6.12,2.24-6.71l19.88-3.73c3.44-.64,6.38-2.86,7.95-5.99l9.19-18.24c.75-1.48,2.17-2.22,3.6-2.22M51,0C46.78,0,42.98,2.34,41.08,6.11l-9.19,18.24c-.58,1.15-1.68,1.98-2.94,2.21l-19.88,3.73c-3.96.74-7.21,3.58-8.49,7.4-1.28,3.82-.39,8.05,2.33,11.03l14.49,15.9c.83.91,1.21,2.13,1.05,3.36l-2.83,21.44c-.42,3.18.55,6.38,2.65,8.78,2.12,2.42,5.17,3.81,8.36,3.81,1.75,0,3.51-.43,5.08-1.24l17.39-8.96c.58-.3,1.24-.46,1.9-.46.66,0,1.31.16,1.9.46l17.39,8.96c1.58.81,3.33,1.24,5.08,1.24,3.2,0,6.24-1.39,8.36-3.81,2.1-2.4,3.07-5.6,2.65-8.78l-2.83-21.43c-.16-1.23.22-2.46,1.05-3.37l14.48-15.89c2.71-2.98,3.61-7.2,2.33-11.03-1.28-3.82-4.53-6.65-8.49-7.39l-19.88-3.73c-1.26-.24-2.36-1.07-2.94-2.22l-9.19-18.24C59.02,2.34,55.22,0,51,0h0Z"/>
</svg>