<?xml version="1.0" encoding="UTF-8"?>
<svg id="Layer_1" xmlns="http://www.w3.org/2000/svg" version="1.1" viewBox="0 0 102 102">
  <!-- Generator: Adobe Illustrator 30.1.0, SVG Export Plug-In . SVG Version: 2.1.1 Build 136)  -->
  <path d="M51,12.46c1.25,0,2.51.65,3.16,1.95l8.06,16c1.38,2.75,3.96,4.69,6.98,5.25l17.44,3.27c2.73.51,3.83,3.83,1.96,5.88l-12.71,13.95c-1.96,2.15-2.87,5.06-2.49,7.95l2.48,18.8c.3,2.24-1.49,4.02-3.51,4.02-.53,0-1.09-.12-1.62-.4l-15.26-7.86c-1.41-.73-2.96-1.09-4.51-1.09s-3.09.36-4.51,1.09l-15.26,7.86c-.53.27-1.08.4-1.62.4-2.02,0-3.8-1.78-3.51-4.02l2.48-18.81c.38-2.89-.53-5.79-2.49-7.94l-12.71-13.95c-1.87-2.05-.77-5.37,1.96-5.88l17.44-3.27c3.02-.57,5.6-2.51,6.98-5.25l8.06-16.01c.65-1.3,1.91-1.95,3.16-1.95M51,0C44.92,0,39.44,3.37,36.71,8.81l-7.48,14.85-16.16,3.03c-5.7,1.07-10.38,5.15-12.23,10.65-1.84,5.5-.56,11.59,3.35,15.88l11.9,13.05-2.32,17.62c-.6,4.58.79,9.18,3.82,12.64,3.05,3.48,7.44,5.47,12.04,5.47,2.53,0,5.06-.62,7.32-1.78l14.06-7.24,14.06,7.24c2.26,1.17,4.8,1.78,7.32,1.78,4.6,0,8.99-1.99,12.04-5.47,3.03-3.46,4.43-8.07,3.82-12.64l-2.32-17.62,11.9-13.06c3.91-4.29,5.19-10.37,3.35-15.87-1.84-5.5-6.53-9.58-12.23-10.65l-16.17-3.03-7.48-14.85C62.55,3.37,57.08,0,51,0h0Z"/>
</svg>