<?xml version="1.0" encoding="UTF-8"?>
<svg id="Layer_1" xmlns="http://www.w3.org/2000/svg" version="1.1" viewBox="0 0 102 102">
  <!-- Generator: Adobe Illustrator 30.1.0, SVG Export Plug-In . SVG Version: 2.1.1 Build 136)  -->
  <path d="M51,19.7c1.02,0,2.04.53,2.57,1.58l6.55,13c1.12,2.23,3.22,3.81,5.67,4.27l14.17,2.66c2.21.42,3.11,3.11,1.59,4.78l-10.32,11.33c-1.59,1.75-2.33,4.11-2.02,6.46l2.01,15.27c.24,1.82-1.21,3.26-2.85,3.26-.43,0-.88-.1-1.31-.32l-12.39-6.38c-1.15-.59-2.4-.89-3.66-.89s-2.51.3-3.66.89l-12.39,6.38c-.43.22-.88.32-1.31.32-1.64,0-3.09-1.44-2.85-3.27l2.01-15.28c.31-2.34-.43-4.7-2.02-6.45l-10.32-11.33c-1.52-1.67-.62-4.36,1.59-4.78l14.17-2.66c2.45-.46,4.54-2.04,5.67-4.27l6.55-13c.53-1.06,1.55-1.58,2.57-1.58M51,0C42.42,0,34.7,4.76,30.84,12.42l-3.95,7.83-8.47,1.59c-8.04,1.51-14.65,7.26-17.25,15.02-2.6,7.76-.79,16.34,4.72,22.39l6.66,7.31-1.31,9.9c-.85,6.45,1.12,12.95,5.4,17.83,4.29,4.9,10.48,7.71,16.98,7.71,3.57,0,7.15-.87,10.33-2.51l7.03-3.62,7.03,3.62c3.19,1.64,6.76,2.51,10.33,2.51,6.5,0,12.69-2.81,16.98-7.71,4.28-4.88,6.25-11.38,5.4-17.83l-1.31-9.9,6.67-7.32c5.51-6.05,7.32-14.63,4.72-22.39-2.6-7.76-9.21-13.51-17.25-15.02l-8.48-1.59-3.95-7.83C67.3,4.76,59.57,0,51,0h0Z"/>
</svg>