<?xml version="1.0" encoding="UTF-8"?>
<svg id="Layer_1" xmlns="http://www.w3.org/2000/svg" version="1.1" viewBox="0 0 102 102">
  <!-- Generator: Adobe Illustrator 30.1.0, SVG Export Plug-In . SVG Version: 2.1.1 Build 136)  -->
  <path d="M51,21.48c.96,0,1.92.5,2.42,1.49l6.18,12.26c1.06,2.1,3.04,3.59,5.35,4.02l13.36,2.5c2.09.39,2.94,2.93,1.5,4.5l-9.73,10.68c-1.5,1.65-2.2,3.88-1.91,6.09l1.9,14.4c.23,1.72-1.14,3.08-2.69,3.08-.41,0-.83-.1-1.24-.31l-11.69-6.02c-1.08-.56-2.27-.84-3.45-.84s-2.37.28-3.45.84l-11.69,6.02c-.41.21-.83.31-1.24.31-1.54,0-2.91-1.36-2.69-3.08l1.9-14.41c.29-2.21-.41-4.44-1.91-6.08l-9.73-10.68c-1.43-1.57-.59-4.11,1.5-4.51l13.36-2.5c2.31-.43,4.29-1.92,5.34-4.02l6.18-12.26c.5-1,1.46-1.49,2.42-1.49M51,0C41.81,0,33.53,5.1,29.39,13.31l-3.07,6.1-6.58,1.23c-8.62,1.62-15.7,7.78-18.49,16.1-2.79,8.32-.85,17.51,5.06,23.99l5.37,5.9-1.05,7.99c-.91,6.91,1.2,13.88,5.79,19.11,4.6,5.25,11.23,8.26,18.2,8.26,3.83,0,7.66-.93,11.08-2.69l5.3-2.73,5.3,2.73c3.42,1.76,7.25,2.69,11.08,2.69,6.96,0,13.6-3.01,18.2-8.26,4.59-5.23,6.7-12.2,5.79-19.11l-1.05-7.99,5.38-5.9c5.91-6.48,7.85-15.68,5.06-23.99-2.79-8.31-9.87-14.48-18.48-16.1l-6.58-1.23-3.07-6.1C68.47,5.1,60.19,0,51,0h0Z"/>
</svg>