<?xml version="1.0" encoding="UTF-8"?>
<svg id="Layer_1" xmlns="http://www.w3.org/2000/svg" version="1.1" viewBox="0 0 46 46">
  <!-- Generator: Adobe Illustrator 30.1.0, SVG Export Plug-In . SVG Version: 2.1.1 Build 136)  -->
  <g>
    <g>
      <rect x="21.3" y="13.7" width="3.39" height="3.39"/>
      <path d="M23.98,14.41v1.96h-1.96v-1.96h1.96M25.42,12.98h-4.83v4.83h4.83v-4.83h0Z"/>
    </g>
    <g>
      <polygon points="19.35 31.86 19.35 28.46 21.3 28.46 21.3 23.79 19.35 23.79 19.35 20.4 24.7 20.4 24.7 28.46 26.65 28.46 26.65 31.86 19.35 31.86"/>
      <path d="M23.98,21.12v8.07h1.96v1.96h-5.87v-1.96h1.96v-6.11h-1.96v-1.96h3.91M25.42,19.68h-6.79v4.83h1.96v3.23h-1.96v4.83h8.75v-4.83h-1.96v-8.07h0Z"/>
    </g>
  </g>
  <circle id="Outer" cx="23" cy="23" r="18.56" fill="none" stroke="#000" stroke-width="8.88"/>
</svg>