<?xml version="1.0" encoding="UTF-8"?>
<svg id="Layer_1" xmlns="http://www.w3.org/2000/svg" version="1.1" viewBox="0 0 46 46">
  <!-- Generator: Adobe Illustrator 30.1.0, SVG Export Plug-In . SVG Version: 2.1.1 Build 136)  -->
  <g>
    <g>
      <rect x="21.33" y="13.11" width="3.34" height="3.34"/>
      <path d="M24.09,13.69v2.19h-2.19v-2.19h2.19M25.24,12.54h-4.49v4.49h4.49v-4.49h0Z"/>
    </g>
    <g>
      <polygon points="19.14 32.56 19.14 29.22 21.33 29.22 21.33 23.54 19.14 23.54 19.14 20.2 24.67 20.2 24.67 29.22 26.86 29.22 26.86 32.56 19.14 32.56"/>
      <path d="M24.09,20.78v9.02h2.19v2.19h-6.56v-2.19h2.19v-6.83h-2.19v-2.19h4.38M25.24,19.63h-6.68v4.49h2.19v4.53h-2.19v4.49h8.86v-4.49h-2.19v-9.02h0Z"/>
    </g>
  </g>
  <circle id="Outer" cx="23" cy="23" r="19.37" fill="none" stroke="#000" stroke-width="7.26"/>
</svg>