<?xml version="1.0" encoding="UTF-8"?>
<svg id="Layer_1" xmlns="http://www.w3.org/2000/svg" version="1.1" viewBox="0 0 46 46">
  <!-- Generator: Adobe Illustrator 30.1.0, SVG Export Plug-In . SVG Version: 2.1.1 Build 136)  -->
  <g>
    <g>
      <rect x="21.36" y="12.52" width="3.29" height="3.29"/>
      <path d="M24.21,12.95v2.43h-2.43v-2.43h2.43M25.08,12.09h-4.15v4.15h4.15v-4.15h0Z"/>
    </g>
    <g>
      <polygon points="18.93 33.27 18.93 29.99 21.36 29.99 21.36 23.28 18.93 23.28 18.93 19.99 24.64 19.99 24.64 29.99 27.07 29.99 27.07 33.27 18.93 33.27"/>
      <path d="M24.21,20.42v10h2.42v2.42h-7.27v-2.42h2.42v-7.57h-2.42v-2.42h4.85M25.08,19.56h-6.57v4.15h2.42v5.85h-2.42v4.15h9v-4.15h-2.42v-10h0Z"/>
    </g>
  </g>
  <circle id="Outer" cx="23" cy="23" r="20.19" fill="none" stroke="#000" stroke-width="5.62"/>
</svg>