<?xml version="1.0" encoding="UTF-8"?>
<svg id="Layer_1" xmlns="http://www.w3.org/2000/svg" version="1.1" viewBox="0 0 73 73">
  <!-- Generator: Adobe Illustrator 30.1.0, SVG Export Plug-In . SVG Version: 2.1.1 Build 136)  -->
  <g>
    <g>
      <rect x="33.89" y="19.87" width="5.22" height="5.22"/>
      <path d="M38.42,20.56v3.85h-3.85v-3.85h3.85M39.79,19.19h-6.59v6.59h6.59v-6.59h0Z"/>
    </g>
    <g>
      <polygon points="30.04 52.8 30.04 47.59 33.89 47.59 33.89 36.94 30.04 36.94 30.04 31.72 39.11 31.72 39.11 47.59 42.96 47.59 42.96 52.8 30.04 52.8"/>
      <path d="M38.42,32.41v15.86h3.85v3.85h-11.55v-3.85h3.85v-12.01h-3.85v-3.85h7.7M39.79,31.04h-10.43v6.59h3.85v9.28h-3.85v6.59h14.28v-6.59h-3.85v-15.86h0Z"/>
    </g>
  </g>
  <circle id="Outer" cx="36.5" cy="36.5" r="32.04" fill="none" stroke="#000" stroke-width="8.92"/>
</svg>