<?xml version="1.0" encoding="UTF-8"?>
<svg id="Layer_1" xmlns="http://www.w3.org/2000/svg" version="1.1" viewBox="0 0 73 73">
  <!-- Generator: Adobe Illustrator 30.1.0, SVG Export Plug-In . SVG Version: 2.1.1 Build 136)  -->
  <g>
    <g>
      <rect x="33.78" y="22.19" width="5.44" height="5.44"/>
      <path d="M37.96,23.44v2.93h-2.93v-2.93h2.93M40.47,20.93h-7.95v7.95h7.95v-7.95h0Z"/>
    </g>
    <g>
      <polygon points="30.85 50.02 30.85 44.58 33.78 44.58 33.78 37.95 30.85 37.95 30.85 32.52 39.22 32.52 39.22 44.58 42.15 44.58 42.15 50.02 30.85 50.02"/>
      <path d="M37.96,33.77v12.06h2.93v2.93h-8.78v-2.93h2.93v-9.14h-2.93v-2.93h5.85M40.47,31.26h-10.87v7.95h2.93v4.12h-2.93v7.95h13.8v-7.95h-2.93v-12.06h0Z"/>
    </g>
  </g>
  <circle id="Outer" cx="36.5" cy="36.5" r="28.81" fill="none" stroke="#000" stroke-width="15.38"/>
</svg>