<?xml version="1.0" encoding="UTF-8"?>
<svg id="Layer_1" xmlns="http://www.w3.org/2000/svg" version="1.1" viewBox="0 0 73 73">
  <!-- Generator: Adobe Illustrator 30.1.0, SVG Export Plug-In . SVG Version: 2.1.1 Build 136)  -->
  <g>
    <g>
      <rect x="33.81" y="21.73" width="5.39" height="5.39"/>
      <path d="M38.05,22.88v3.11h-3.11v-3.11h3.11M40.33,20.59h-7.67v7.67h7.67v-7.67h0Z"/>
    </g>
    <g>
      <polygon points="30.7 50.56 30.7 45.17 33.81 45.17 33.81 37.76 30.7 37.76 30.7 32.37 39.19 32.37 39.19 45.17 42.3 45.17 42.3 50.56 30.7 50.56"/>
      <path d="M38.05,33.51v12.8h3.11v3.11h-9.32v-3.11h3.11v-9.69h-3.11v-3.11h6.21M40.33,31.23h-10.77v7.67h3.11v5.13h-3.11v7.67h13.88v-7.67h-3.11v-12.8h0Z"/>
    </g>
  </g>
  <circle id="Outer" cx="36.5" cy="36.5" r="29.45" fill="none" stroke="#000" stroke-width="14.1"/>
</svg>