<?xml version="1.0" encoding="UTF-8"?>
<svg id="Layer_1" xmlns="http://www.w3.org/2000/svg" version="1.1" viewBox="0 0 83 83">
  <!-- Generator: Adobe Illustrator 30.1.0, SVG Export Plug-In . SVG Version: 2.1.1 Build 136)  -->
  <path d="M41.5,17.48c.78,0,1.56.4,1.97,1.21l5.02,9.97c.86,1.71,2.47,2.92,4.35,3.27l10.87,2.04c1.7.32,2.39,2.38,1.22,3.66l-7.92,8.69c-1.22,1.34-1.79,3.15-1.55,4.96l1.55,11.72c.18,1.4-.93,2.51-2.19,2.51-.33,0-.68-.08-1.01-.25l-9.51-4.9c-.88-.45-1.85-.68-2.81-.68-.96,0-1.93.23-2.81.68l-9.51,4.9c-.33.17-.68.25-1.01.25-1.26,0-2.37-1.11-2.19-2.51l1.55-11.72c.24-1.8-.33-3.61-1.55-4.95l-7.92-8.69c-1.17-1.28-.48-3.35,1.22-3.67l10.87-2.04c1.88-.35,3.49-1.56,4.35-3.27l5.03-9.98c.41-.81,1.19-1.21,1.97-1.21M41.5,0C34.02,0,27.28,4.15,23.92,10.83l-2.5,4.97-5.35,1c-7.01,1.31-12.78,6.33-15.04,13.1-2.27,6.77-.69,14.25,4.12,19.52l4.37,4.8-.86,6.5c-.74,5.63.97,11.29,4.71,15.55,3.74,4.27,9.14,6.72,14.81,6.72,3.12,0,6.23-.76,9.01-2.19l4.31-2.22,4.31,2.22c2.78,1.43,5.9,2.19,9.01,2.19,5.67,0,11.07-2.45,14.81-6.72,3.73-4.26,5.45-9.93,4.71-15.55l-.86-6.5,4.37-4.8c4.81-5.27,6.38-12.76,4.12-19.52-2.27-6.77-8.03-11.78-15.04-13.1l-5.35-1-2.5-4.97C55.72,4.15,48.98,0,41.5,0h0Z"/>
</svg>