<?xml version="1.0" encoding="UTF-8"?>
<svg id="Layer_1" xmlns="http://www.w3.org/2000/svg" version="1.1" viewBox="0 0 83 83">
  <!-- Generator: Adobe Illustrator 30.1.0, SVG Export Plug-In . SVG Version: 2.1.1 Build 136)  -->
  <path d="M41.5,16.03c.83,0,1.66.43,2.09,1.29l5.33,10.58c.91,1.82,2.62,3.1,4.61,3.47l11.53,2.16c1.8.34,2.53,2.53,1.3,3.89l-8.4,9.22c-1.3,1.42-1.9,3.35-1.65,5.25l1.64,12.43c.2,1.48-.99,2.66-2.32,2.66-.35,0-.72-.08-1.07-.26l-10.08-5.19c-.93-.48-1.96-.72-2.98-.72s-2.04.24-2.98.72l-10.08,5.19c-.35.18-.72.26-1.07.26-1.33,0-2.51-1.17-2.32-2.66l1.64-12.43c.25-1.91-.35-3.83-1.64-5.25l-8.4-9.22c-1.24-1.36-.51-3.55,1.3-3.89l11.53-2.16c1.99-.37,3.7-1.66,4.61-3.47l5.33-10.58c.43-.86,1.26-1.29,2.09-1.29M41.5,0C34.52,0,28.24,3.87,25.09,10.11l-3.21,6.38-6.89,1.29c-6.54,1.23-11.92,5.91-14.03,12.22-2.12,6.31-.64,13.3,3.84,18.22l5.42,5.95-1.06,8.05c-.69,5.25.91,10.54,4.39,14.51,3.49,3.98,8.53,6.27,13.82,6.27,2.91,0,5.81-.71,8.41-2.04l5.72-2.95,5.72,2.95c2.59,1.34,5.5,2.04,8.41,2.04,5.29,0,10.32-2.29,13.82-6.27,3.48-3.97,5.09-9.26,4.39-14.51l-1.06-8.05,5.43-5.95c4.48-4.92,5.96-11.9,3.84-18.22-2.11-6.31-7.49-11-14.03-12.22l-6.9-1.29-3.21-6.38C54.76,3.87,48.48,0,41.5,0h0Z"/>
</svg>