<?xml version="1.0" encoding="UTF-8"?>
<svg id="Layer_1" xmlns="http://www.w3.org/2000/svg" version="1.1" viewBox="0 0 83 83">
  <!-- Generator: Adobe Illustrator 30.1.0, SVG Export Plug-In . SVG Version: 2.1.1 Build 136)  -->
  <path d="M41.5,10.14c1.02,0,2.04.53,2.57,1.59l6.56,13.02c1.13,2.23,3.23,3.82,5.68,4.28l14.19,2.66c2.22.42,3.12,3.11,1.6,4.78l-10.34,11.35c-1.6,1.75-2.34,4.12-2.03,6.47l2.02,15.3c.24,1.83-1.21,3.27-2.85,3.27-.44,0-.88-.1-1.32-.32l-12.41-6.39c-1.15-.59-2.41-.89-3.67-.89s-2.52.3-3.67.89l-12.41,6.39c-.43.22-.88.32-1.32.32-1.64,0-3.1-1.45-2.86-3.27l2.02-15.3c.31-2.35-.43-4.71-2.03-6.46l-10.34-11.35c-1.52-1.67-.62-4.37,1.6-4.79l14.19-2.66c2.45-.46,4.55-2.04,5.68-4.27l6.56-13.02c.53-1.06,1.55-1.59,2.57-1.59M41.5,0c-4.95,0-9.4,2.75-11.63,7.17l-6.09,12.09-13.15,2.47c-4.64.87-8.45,4.19-9.95,8.67-1.5,4.48-.46,9.43,2.72,12.92l9.68,10.62-1.89,14.34c-.49,3.72.64,7.47,3.11,10.29,2.48,2.83,6.05,4.45,9.8,4.45,2.06,0,4.12-.5,5.96-1.45l11.44-5.89,11.44,5.89c1.84.95,3.9,1.45,5.96,1.45,3.75,0,7.32-1.62,9.8-4.45,2.47-2.81,3.6-6.56,3.11-10.29l-1.89-14.33,9.68-10.63c3.18-3.49,4.22-8.44,2.72-12.92-1.5-4.48-5.31-7.8-9.95-8.66l-13.16-2.47-6.09-12.09c-2.23-4.42-6.68-7.16-11.63-7.16h0Z"/>
</svg>