<?xml version="1.0" encoding="UTF-8"?>
<svg id="Layer_1" xmlns="http://www.w3.org/2000/svg" version="1.1" viewBox="0 0 83 83">
  <!-- Generator: Adobe Illustrator 30.1.0, SVG Export Plug-In . SVG Version: 2.1.1 Build 136)  -->
  <path d="M41.5,7.21c1.11,0,2.23.58,2.81,1.73l7.17,14.24c1.23,2.44,3.53,4.17,6.21,4.68l15.52,2.91c2.43.45,3.41,3.4,1.75,5.23l-11.31,12.41c-1.74,1.91-2.56,4.5-2.22,7.07l2.21,16.73c.26,2-1.33,3.58-3.12,3.58-.48,0-.97-.11-1.44-.36l-13.57-6.99c-1.26-.65-2.63-.97-4.01-.97-1.38,0-2.75.32-4.01.97l-13.57,6.99c-.47.24-.96.36-1.44.36-1.79,0-3.39-1.58-3.12-3.58l2.21-16.74c.34-2.57-.47-5.15-2.21-7.07l-11.31-12.41c-1.67-1.83-.68-4.78,1.75-5.23l15.52-2.91c2.68-.5,4.98-2.23,6.21-4.67l7.17-14.24c.58-1.16,1.7-1.73,2.81-1.73M41.5,0C37.56,0,34.02,2.18,32.25,5.7l-7.17,14.24c-.22.43-.63.74-1.1.83l-15.52,2.91c-3.69.69-6.72,3.33-7.92,6.9-1.19,3.56-.36,7.5,2.17,10.28l11.31,12.41c.31.34.46.8.4,1.27l-2.21,16.74c-.39,2.96.51,5.95,2.47,8.18,1.98,2.25,4.82,3.55,7.8,3.55,1.63,0,3.27-.4,4.74-1.16l13.57-6.99c.22-.11.46-.17.71-.17.25,0,.49.06.71.17l13.57,6.99c1.47.76,3.11,1.16,4.74,1.16,2.98,0,5.82-1.29,7.8-3.55,1.96-2.24,2.86-5.22,2.47-8.18l-2.21-16.73c-.06-.47.08-.93.4-1.27l11.31-12.41c2.53-2.78,3.36-6.72,2.17-10.28-1.19-3.56-4.23-6.2-7.91-6.89l-15.52-2.91c-.47-.09-.88-.4-1.1-.83l-7.17-14.24C48.98,2.18,45.43,0,41.5,0h0Z"/>
</svg>