<?xml version="1.0" encoding="UTF-8"?>
<svg id="Layer_1" xmlns="http://www.w3.org/2000/svg" version="1.1" viewBox="0 0 117 117">
  <!-- Generator: Adobe Illustrator 30.1.0, SVG Export Plug-In . SVG Version: 2.1.1 Build 136)  -->
  <path d="M58.5,18.46c1.3,0,2.6.68,3.28,2.03l8.38,16.63c1.44,2.85,4.12,4.87,7.25,5.46l18.12,3.4c2.83.53,3.98,3.97,2.04,6.11l-13.2,14.49c-2.04,2.24-2.98,5.26-2.59,8.26l2.58,19.53c.31,2.33-1.55,4.18-3.64,4.18-.56,0-1.13-.13-1.68-.41l-15.85-8.16c-1.47-.76-3.08-1.13-4.68-1.14-1.61,0-3.21.38-4.68,1.14l-15.85,8.16c-.55.28-1.13.41-1.68.41-2.1,0-3.95-1.85-3.65-4.18l2.58-19.54c.4-3-.55-6.02-2.59-8.25l-13.2-14.49c-1.95-2.13-.79-5.58,2.04-6.11l18.12-3.4c3.13-.59,5.81-2.6,7.25-5.46l8.38-16.63c.68-1.35,1.98-2.03,3.28-2.03M58.5,0C50.09,0,42.51,4.67,38.73,12.18l-6.55,13-14.11,2.64c-7.89,1.48-14.37,7.12-16.92,14.73-2.55,7.61-.78,16.03,4.63,21.96l10.63,11.67-2.08,15.76c-.83,6.33,1.09,12.7,5.29,17.49,4.21,4.81,10.29,7.56,16.66,7.56,3.5,0,7-.85,10.13-2.46l12.08-6.22,12.08,6.22c3.13,1.61,6.63,2.46,10.13,2.46,6.37,0,12.44-2.76,16.66-7.56,4.2-4.79,6.13-11.16,5.29-17.49l-2.08-15.76,10.64-11.67c5.41-5.93,7.18-14.35,4.63-21.96-2.55-7.61-9.03-13.25-16.92-14.73l-14.12-2.65-6.55-13C74.49,4.67,66.91,0,58.5,0h0Z"/>
</svg>