<?xml version="1.0" encoding="UTF-8"?>
<svg id="Layer_1" xmlns="http://www.w3.org/2000/svg" version="1.1" viewBox="0 0 117 117">
  <!-- Generator: Adobe Illustrator 30.1.0, SVG Export Plug-In . SVG Version: 2.1.1 Build 136)  -->
  <path d="M58.5,10.16c1.57,0,3.14.81,3.96,2.44l10.11,20.07c1.74,3.44,4.97,5.88,8.76,6.59l21.88,4.1c3.42.64,4.81,4.8,2.46,7.37l-15.94,17.49c-2.46,2.7-3.6,6.35-3.13,9.97l3.11,23.58c.37,2.81-1.87,5.04-4.4,5.04-.67,0-1.36-.16-2.03-.5l-19.14-9.85c-1.77-.91-3.71-1.37-5.65-1.37-1.94,0-3.88.46-5.65,1.37l-19.14,9.85c-.67.34-1.36.5-2.03.5-2.53,0-4.77-2.23-4.4-5.04l3.11-23.59c.48-3.62-.67-7.26-3.12-9.96l-15.94-17.49c-2.35-2.58-.96-6.74,2.46-7.38l21.87-4.1c3.78-.71,7.02-3.14,8.75-6.59l10.11-20.08c.82-1.63,2.39-2.44,3.96-2.44M58.5,0C52.95,0,47.95,3.08,45.46,8.04l-10.11,20.08c-.31.61-.88,1.05-1.55,1.17l-21.87,4.1c-5.2.97-9.48,4.7-11.16,9.72-1.68,5.02-.51,10.58,3.06,14.49l15.94,17.49c.44.48.64,1.13.56,1.78l-3.11,23.59c-.55,4.18.72,8.38,3.49,11.54,2.78,3.18,6.79,5,10.99,5,2.3,0,4.61-.56,6.68-1.63l19.14-9.85c.31-.16.65-.24,1-.24.35,0,.69.08,1,.24l19.14,9.85c2.07,1.07,4.38,1.63,6.68,1.63,4.2,0,8.21-1.82,10.99-5,2.77-3.15,4.04-7.36,3.49-11.54l-3.11-23.58c-.09-.66.12-1.31.56-1.8l15.94-17.49c3.57-3.92,4.74-9.47,3.06-14.49-1.68-5.02-5.96-8.74-11.16-9.72l-21.88-4.1c-.66-.12-1.24-.56-1.55-1.17l-10.11-20.07C69.04,3.08,64.05,0,58.5,0h0Z"/>
</svg>