<?xml version="1.0" encoding="UTF-8"?>
<svg id="Layer_1" xmlns="http://www.w3.org/2000/svg" version="1.1" viewBox="0 0 117 117">
  <!-- Generator: Adobe Illustrator 30.1.0, SVG Export Plug-In . SVG Version: 2.1.1 Build 136)  -->
  <path d="M58.5,14.3c1.44,0,2.87.75,3.63,2.24l9.25,18.36c1.59,3.15,4.55,5.38,8.01,6.03l20.01,3.75c3.13.59,4.4,4.39,2.25,6.74l-14.58,16c-2.25,2.47-3.3,5.81-2.86,9.12l2.84,21.57c.34,2.57-1.71,4.61-4.02,4.61-.61,0-1.25-.14-1.86-.46l-17.5-9.01c-1.62-.84-3.4-1.25-5.17-1.25-1.77,0-3.55.42-5.17,1.25l-17.5,9.01c-.61.31-1.24.46-1.86.46-2.31,0-4.36-2.04-4.02-4.61l2.85-21.57c.44-3.31-.61-6.64-2.85-9.11l-14.58-16c-2.15-2.36-.88-6.16,2.25-6.75l20-3.75c3.46-.65,6.42-2.88,8-6.02l9.25-18.36c.75-1.49,2.19-2.24,3.63-2.24M58.5,0C51.53,0,45.24,3.87,42.11,10.1l-8.58,17.04-18.54,3.48c-6.54,1.23-11.91,5.91-14.03,12.22-2.11,6.31-.64,13.29,3.84,18.21l13.65,14.97-2.67,20.21c-.69,5.25.91,10.53,4.39,14.5,3.5,3.99,8.53,6.27,13.81,6.27,2.9,0,5.8-.71,8.4-2.04l16.12-8.3,16.12,8.3c2.6,1.34,5.5,2.04,8.4,2.04,5.28,0,10.32-2.29,13.81-6.27,3.48-3.97,5.08-9.25,4.39-14.5l-2.67-20.21,13.65-14.98c4.48-4.92,5.95-11.9,3.84-18.21-2.11-6.31-7.49-10.99-14.02-12.21l-18.55-3.48-8.58-17.04C71.75,3.87,65.47,0,58.5,0h0Z"/>
</svg>