<?xml version="1.0" encoding="UTF-8"?>
<svg id="Layer_1" xmlns="http://www.w3.org/2000/svg" version="1.1" viewBox="0 0 87 87">
  <!-- Generator: Adobe Illustrator 30.1.0, SVG Export Plug-In . SVG Version: 2.1.1 Build 136)  -->
  <path d="M43.5,6.04c1.22,0,2.44.63,3.07,1.9l7.84,15.56c1.34,2.67,3.85,4.56,6.79,5.11l16.96,3.18c2.65.5,3.73,3.72,1.91,5.72l-12.35,13.56c-1.91,2.09-2.79,4.92-2.42,7.73l2.41,18.28c.29,2.18-1.45,3.91-3.41,3.91-.52,0-1.06-.12-1.57-.39l-14.83-7.64c-1.37-.71-2.88-1.06-4.38-1.06-1.5,0-3.01.35-4.38,1.06l-14.83,7.64c-.52.27-1.05.39-1.57.39-1.96,0-3.7-1.73-3.41-3.91l2.41-18.29c.37-2.81-.52-5.63-2.42-7.72l-12.36-13.56c-1.82-2-.74-5.22,1.91-5.72l16.95-3.18c2.93-.55,5.44-2.44,6.78-5.11l7.84-15.56c.64-1.26,1.85-1.9,3.07-1.9M43.5,0C39.9,0,36.66,2,35.04,5.22l-7.84,15.56c-.49.98-1.43,1.69-2.51,1.89l-16.95,3.18c-3.38.63-6.15,3.05-7.24,6.31-1.09,3.26-.33,6.87,1.98,9.41l12.36,13.56c.71.78,1.03,1.82.9,2.87l-2.41,18.29c-.36,2.71.47,5.44,2.26,7.49,1.81,2.06,4.41,3.25,7.13,3.25,1.49,0,2.99-.37,4.34-1.06l14.83-7.64c.5-.26,1.06-.39,1.62-.39.56,0,1.12.14,1.62.39l14.83,7.64c1.34.69,2.84,1.06,4.34,1.06,2.73,0,5.33-1.18,7.13-3.25,1.79-2.05,2.62-4.77,2.26-7.49l-2.41-18.28c-.14-1.05.19-2.1.9-2.87l12.35-13.56c2.32-2.54,3.08-6.15,1.98-9.41-1.09-3.26-3.87-5.67-7.24-6.31l-16.96-3.18c-1.08-.2-2.01-.91-2.51-1.89l-7.84-15.56C50.34,2,47.1,0,43.5,0h0Z"/>
</svg>