<?xml version="1.0" encoding="UTF-8"?>
<svg id="Layer_1" xmlns="http://www.w3.org/2000/svg" version="1.1" viewBox="0 0 87 87">
  <!-- Generator: Adobe Illustrator 30.1.0, SVG Export Plug-In . SVG Version: 2.1.1 Build 136)  -->
  <path d="M43.5,18.32c.82,0,1.64.42,2.06,1.27l5.27,10.46c.9,1.79,2.59,3.06,4.56,3.43l11.39,2.14c1.78.33,2.5,2.5,1.28,3.84l-8.3,9.11c-1.28,1.41-1.88,3.31-1.63,5.19l1.62,12.28c.19,1.47-.97,2.63-2.29,2.63-.35,0-.71-.08-1.06-.26l-9.97-5.13c-.92-.48-1.93-.71-2.94-.71-1.01,0-2.02.24-2.94.71l-9.97,5.13c-.35.18-.71.26-1.06.26-1.32,0-2.49-1.16-2.29-2.63l1.62-12.29c.25-1.88-.35-3.78-1.63-5.19l-8.3-9.11c-1.22-1.34-.5-3.51,1.28-3.84l11.39-2.14c1.97-.37,3.66-1.64,4.56-3.43l5.27-10.46c.43-.85,1.25-1.27,2.06-1.27M43.5,0c-7.84,0-14.9,4.35-18.43,11.35l-2.62,5.21-5.61,1.05c-7.35,1.38-13.39,6.64-15.77,13.73-2.38,7.09-.72,14.94,4.32,20.47l4.58,5.03-.9,6.82c-.78,5.9,1.02,11.84,4.94,16.3,3.92,4.48,9.58,7.04,15.52,7.04,3.27,0,6.53-.79,9.45-2.29l4.52-2.33,4.52,2.33c2.91,1.5,6.18,2.29,9.45,2.29,5.94,0,11.6-2.57,15.52-7.04,3.91-4.46,5.71-10.41,4.94-16.3l-.9-6.82,4.59-5.03c5.04-5.53,6.69-13.37,4.32-20.46-2.38-7.09-8.42-12.35-15.77-13.73l-5.61-1.05-2.62-5.21C58.4,4.35,51.34,0,43.5,0h0Z"/>
</svg>