<?xml version="1.0" encoding="UTF-8"?>
<svg id="Layer_1" xmlns="http://www.w3.org/2000/svg" version="1.1" viewBox="0 0 38 38">
  <!-- Generator: Adobe Illustrator 30.1.0, SVG Export Plug-In . SVG Version: 2.1.1 Build 136)  -->
  <path d="M19,7.34c.38,0,.76.2.96.59l2.44,4.84c.42.83,1.2,1.42,2.11,1.59l5.28.99c.83.15,1.16,1.16.59,1.78l-3.85,4.22c-.59.65-.87,1.53-.75,2.41l.75,5.69c.09.68-.45,1.22-1.06,1.22-.16,0-.33-.04-.49-.12l-4.62-2.38c-.43-.22-.9-.33-1.36-.33-.47,0-.94.11-1.36.33l-4.62,2.38c-.16.08-.33.12-.49.12-.61,0-1.15-.54-1.06-1.22l.75-5.69c.12-.87-.16-1.75-.75-2.4l-3.85-4.22c-.57-.62-.23-1.63.59-1.78l5.28-.99c.91-.17,1.69-.76,2.11-1.59l2.44-4.84c.2-.39.58-.59.96-.59M19,0C15.8,0,12.93,1.77,11.49,4.63l-1.47,2.92-3.16.59c-3,.56-5.46,2.71-6.43,5.6-.97,2.89-.29,6.09,1.76,8.34l2.48,2.72-.49,3.69c-.32,2.4.42,4.82,2.01,6.64,1.6,1.82,3.91,2.87,6.33,2.87,1.33,0,2.66-.32,3.85-.94l2.62-1.35,2.62,1.35c1.19.61,2.52.94,3.85.94,2.42,0,4.73-1.05,6.33-2.87,1.6-1.82,2.33-4.24,2.01-6.64l-.49-3.69,2.48-2.73c2.05-2.25,2.73-5.45,1.76-8.34-.97-2.89-3.43-5.03-6.42-5.6l-3.16-.59-1.47-2.92C25.07,1.77,22.19,0,19,0h0Z"/>
</svg>