<?xml version="1.0" encoding="UTF-8"?>
<svg id="Layer_1" xmlns="http://www.w3.org/2000/svg" version="1.1" viewBox="0 0 38 38">
  <!-- Generator: Adobe Illustrator 30.1.0, SVG Export Plug-In . SVG Version: 2.1.1 Build 136)  -->
  <path d="M19,6c.42,0,.85.22,1.07.66l2.72,5.4c.47.93,1.34,1.58,2.36,1.77l5.89,1.1c.92.17,1.29,1.29.66,1.98l-4.29,4.71c-.66.73-.97,1.71-.84,2.68l.84,6.34c.1.76-.5,1.36-1.18,1.36-.18,0-.37-.04-.55-.13l-5.15-2.65c-.48-.25-1-.37-1.52-.37s-1.04.12-1.52.37l-5.15,2.65c-.18.09-.37.13-.55.13-.68,0-1.28-.6-1.18-1.36l.84-6.35c.13-.97-.18-1.95-.84-2.68l-4.29-4.71c-.63-.69-.26-1.81.66-1.98l5.88-1.1c1.02-.19,1.89-.85,2.35-1.77l2.72-5.4c.22-.44.64-.66,1.07-.66M19,0C16.27,0,13.81,1.52,12.58,3.96l-2.13,4.22-4.58.86c-2.56.48-4.67,2.31-5.49,4.79-.83,2.47-.25,5.21,1.5,7.13l3.45,3.79-.68,5.12c-.27,2.06.36,4.13,1.72,5.68,1.37,1.56,3.34,2.46,5.41,2.46,1.14,0,2.28-.28,3.29-.8l3.92-2.02,3.92,2.02c1.02.52,2.15.8,3.29.8,2.07,0,4.04-.9,5.41-2.46,1.36-1.56,1.99-3.63,1.72-5.68l-.68-5.12,3.45-3.79c1.76-1.93,2.33-4.66,1.5-7.13-.83-2.47-2.93-4.3-5.49-4.78l-4.58-.86-2.13-4.22C24.19,1.52,21.73,0,19,0h0Z"/>
</svg>