<?xml version="1.0" encoding="UTF-8"?>
<svg id="Layer_1" xmlns="http://www.w3.org/2000/svg" version="1.1" viewBox="0 0 111 111">
  <!-- Generator: Adobe Illustrator 30.1.0, SVG Export Plug-In . SVG Version: 2.1.1 Build 136)  -->
  <path d="M55.5,21.44c1.11,0,2.22.57,2.79,1.72l7.13,14.15c1.22,2.43,3.5,4.14,6.17,4.64l15.42,2.89c2.41.45,3.39,3.38,1.73,5.2l-11.23,12.33c-1.73,1.9-2.54,4.47-2.2,7.03l2.19,16.62c.26,1.98-1.32,3.55-3.1,3.55-.47,0-.96-.11-1.43-.35l-13.49-6.94c-1.25-.64-2.62-.97-3.98-.97s-2.73.32-3.98.97l-13.49,6.94c-.47.24-.96.35-1.43.35-1.78,0-3.36-1.57-3.1-3.55l2.19-16.63c.34-2.55-.47-5.12-2.2-7.02l-11.23-12.33c-1.65-1.82-.68-4.75,1.74-5.2l15.42-2.89c2.67-.5,4.95-2.22,6.17-4.64l7.13-14.15c.58-1.15,1.69-1.72,2.79-1.72M55.5,0C46.17,0,37.76,5.18,33.56,13.52l-4.3,8.53-9.22,1.73c-8.75,1.64-15.94,7.9-18.77,16.35-2.83,8.45-.86,17.78,5.14,24.36l7.25,7.96-1.42,10.77c-.93,7.02,1.22,14.09,5.87,19.41,4.67,5.33,11.41,8.39,18.48,8.39,3.89,0,7.78-.94,11.25-2.73l7.65-3.94,7.65,3.94c3.47,1.79,7.36,2.73,11.25,2.73,7.07,0,13.81-3.06,18.48-8.39,4.66-5.31,6.8-12.39,5.87-19.41l-1.42-10.77,7.26-7.96c6-6.58,7.97-15.92,5.14-24.36-2.83-8.44-10.02-14.7-18.77-16.34l-9.22-1.73-4.3-8.53C73.24,5.18,64.83,0,55.5,0h0Z"/>
</svg>