<?xml version="1.0" encoding="UTF-8"?>
<svg id="Layer_1" xmlns="http://www.w3.org/2000/svg" version="1.1" viewBox="0 0 111 111">
  <!-- Generator: Adobe Illustrator 30.1.0, SVG Export Plug-In . SVG Version: 2.1.1 Build 136)  -->
  <path d="M55.5,17.52c1.23,0,2.47.64,3.12,1.92l7.95,15.77c1.36,2.71,3.91,4.62,6.88,5.18l17.19,3.22c2.69.5,3.78,3.77,1.93,5.79l-12.53,13.74c-1.93,2.12-2.83,4.99-2.46,7.84l2.44,18.53c.29,2.21-1.47,3.96-3.46,3.96-.53,0-1.07-.12-1.59-.39l-15.04-7.74c-1.39-.72-2.92-1.08-4.44-1.08s-3.05.36-4.44,1.08l-15.04,7.74c-.52.27-1.07.39-1.59.39-1.99,0-3.75-1.75-3.46-3.96l2.44-18.54c.38-2.84-.52-5.71-2.45-7.83l-12.53-13.75c-1.85-2.02-.75-5.29,1.94-5.8l17.19-3.22c2.97-.56,5.51-2.47,6.88-5.18l7.95-15.78c.65-1.28,1.88-1.92,3.12-1.92M55.5,0C47.52,0,40.33,4.43,36.74,11.56l-6.21,12.33-13.39,2.51c-7.48,1.4-13.63,6.76-16.05,13.98-2.42,7.22-.74,15.21,4.39,20.84l10.09,11.07-1.97,14.95c-.79,6,1.04,12.05,5.02,16.59,4,4.56,9.76,7.17,15.8,7.17,3.32,0,6.65-.81,9.61-2.34l11.46-5.9,11.46,5.9c2.97,1.53,6.29,2.34,9.61,2.34,6.05,0,11.81-2.62,15.8-7.17,3.98-4.54,5.81-10.59,5.02-16.59l-1.97-14.95,10.09-11.07c5.13-5.63,6.81-13.61,4.39-20.83-2.42-7.22-8.57-12.57-16.05-13.98l-13.39-2.51-6.21-12.33C70.67,4.43,63.48,0,55.5,0h0Z"/>
</svg>