<?xml version="1.0" encoding="UTF-8"?>
<svg id="Layer_1" xmlns="http://www.w3.org/2000/svg" version="1.1" viewBox="0 0 111 111">
  <!-- Generator: Adobe Illustrator 30.1.0, SVG Export Plug-In . SVG Version: 2.1.1 Build 136)  -->
  <path d="M55.5,7.7c1.55,0,3.11.81,3.92,2.42l10,19.85c1.72,3.41,4.92,5.82,8.66,6.52l21.63,4.06c3.38.63,4.75,4.75,2.43,7.29l-15.76,17.3c-2.43,2.67-3.56,6.28-3.09,9.86l3.08,23.32c.37,2.78-1.85,4.99-4.35,4.99-.66,0-1.35-.15-2.01-.49l-18.92-9.75c-1.75-.9-3.67-1.36-5.59-1.36-1.92,0-3.84.45-5.59,1.36l-18.92,9.75c-.66.34-1.34.49-2.01.49-2.5,0-4.72-2.2-4.35-4.99l3.08-23.33c.47-3.58-.66-7.18-3.09-9.85l-15.76-17.3c-2.32-2.55-.95-6.66,2.44-7.3l21.63-4.05c3.74-.7,6.94-3.11,8.66-6.51l10-19.85c.81-1.61,2.37-2.42,3.92-2.42M55.5,0C50.91,0,46.77,2.55,44.7,6.65l-10,19.85c-.63,1.25-1.83,2.15-3.2,2.41l-21.63,4.05c-4.31.81-7.85,3.89-9.24,8.05-1.39,4.16-.42,8.76,2.53,12l15.76,17.3c.9.99,1.32,2.32,1.14,3.66l-3.08,23.33c-.46,3.46.59,6.94,2.88,9.55,2.31,2.63,5.63,4.14,9.1,4.14,1.91,0,3.82-.47,5.53-1.35l18.92-9.75c.64-.33,1.35-.5,2.06-.5.71,0,1.43.17,2.06.5l18.92,9.75c1.71.88,3.63,1.35,5.53,1.35,3.48,0,6.79-1.51,9.1-4.14,2.29-2.61,3.34-6.09,2.88-9.55l-3.08-23.32c-.18-1.34.24-2.67,1.15-3.67l15.76-17.3c2.95-3.24,3.92-7.84,2.53-12-1.39-4.16-4.93-7.24-9.24-8.05l-21.63-4.06c-1.37-.26-2.57-1.16-3.2-2.41l-10-19.85C64.23,2.55,60.09,0,55.5,0h0Z"/>
</svg>