<?xml version="1.0" encoding="UTF-8"?>
<svg id="Layer_1" xmlns="http://www.w3.org/2000/svg" version="1.1" viewBox="0 0 111 111">
  <!-- Generator: Adobe Illustrator 30.1.0, SVG Export Plug-In . SVG Version: 2.1.1 Build 136)  -->
  <path d="M55.5,23.38c1.04,0,2.09.54,2.63,1.62l6.72,13.34c1.15,2.29,3.3,3.91,5.82,4.38l14.54,2.73c2.27.43,3.2,3.19,1.64,4.9l-10.59,11.62c-1.63,1.79-2.39,4.22-2.08,6.63l2.07,15.67c.25,1.87-1.24,3.35-2.92,3.35-.45,0-.9-.1-1.35-.33l-12.72-6.55c-1.18-.61-2.47-.91-3.76-.91-1.29,0-2.58.3-3.76.91l-12.72,6.55c-.44.23-.9.33-1.35.33-1.68,0-3.17-1.48-2.92-3.35l2.07-15.68c.32-2.4-.44-4.83-2.07-6.62l-10.59-11.62c-1.56-1.71-.64-4.48,1.64-4.9l14.54-2.72c2.51-.47,4.66-2.09,5.82-4.38l6.72-13.34c.55-1.08,1.59-1.62,2.63-1.62M55.5,0c-10,0-19.01,5.55-23.51,14.49l-3.35,6.64-7.16,1.34c-9.38,1.76-17.09,8.47-20.12,17.52-3.03,9.05-.92,19.06,5.51,26.11l5.85,6.42-1.15,8.7c-.99,7.52,1.3,15.1,6.3,20.8,5.01,5.71,12.23,8.99,19.81,8.99,4.17,0,8.34-1.01,12.05-2.93l5.77-2.97,5.77,2.97c3.72,1.91,7.89,2.93,12.05,2.93,7.58,0,14.8-3.28,19.81-8.99,4.99-5.7,7.29-13.28,6.3-20.8l-1.15-8.7,5.85-6.42c6.43-7.05,8.54-17.06,5.51-26.11-3.03-9.05-10.74-15.76-20.12-17.52l-7.16-1.34-3.35-6.64C74.51,5.55,65.5,0,55.5,0h0Z"/>
</svg>