<?xml version="1.0" encoding="UTF-8"?>
<svg id="Layer_1" xmlns="http://www.w3.org/2000/svg" version="1.1" viewBox="0 0 111 111">
  <!-- Generator: Adobe Illustrator 30.1.0, SVG Export Plug-In . SVG Version: 2.1.1 Build 136)  -->
  <path d="M55.5,13.56c1.36,0,2.73.71,3.44,2.12l8.77,17.42c1.51,2.99,4.31,5.1,7.6,5.72l18.98,3.56c2.97.56,4.17,4.16,2.14,6.4l-13.83,15.18c-2.13,2.34-3.13,5.51-2.71,8.65l2.7,20.46c.32,2.44-1.62,4.37-3.82,4.37-.58,0-1.18-.14-1.76-.43l-16.6-8.55c-1.54-.79-3.22-1.19-4.9-1.19-1.68,0-3.36.4-4.9,1.19l-16.6,8.55c-.58.3-1.18.43-1.76.43-2.19,0-4.14-1.93-3.82-4.37l2.7-20.47c.41-3.14-.58-6.3-2.71-8.64l-13.83-15.18c-2.04-2.24-.83-5.85,2.14-6.4l18.98-3.56c3.28-.62,6.09-2.73,7.59-5.71l8.78-17.42c.71-1.41,2.08-2.12,3.44-2.12M55.5,0C48.88,0,42.92,3.67,39.95,9.58l-8.14,16.17-17.59,3.3c-6.2,1.16-11.3,5.6-13.31,11.59-2.01,5.99-.61,12.61,3.64,17.28l12.95,14.21-2.53,19.17c-.66,4.98.86,9.99,4.16,13.76,3.32,3.78,8.09,5.95,13.1,5.95,2.75,0,5.51-.67,7.97-1.94l15.3-7.88,15.3,7.88c2.46,1.27,5.22,1.94,7.97,1.94,5.01,0,9.79-2.17,13.1-5.95,3.3-3.76,4.82-8.78,4.16-13.76l-2.53-19.17,12.95-14.21c4.25-4.67,5.65-11.29,3.64-17.28-2.01-5.99-7.1-10.43-13.3-11.59l-17.59-3.3-8.14-16.17C68.07,3.67,62.11,0,55.5,0h0Z"/>
</svg>