<?xml version="1.0" encoding="UTF-8"?>
<svg id="Layer_1" xmlns="http://www.w3.org/2000/svg" version="1.1" viewBox="0 0 57 57">
  <!-- Generator: Adobe Illustrator 30.1.0, SVG Export Plug-In . SVG Version: 2.1.1 Build 136)  -->
  <circle id="Outer" cx="28.5" cy="28.5" r="26.52" fill="none" stroke="#000" stroke-width="3.95"/>
  <g>
    <g>
      <rect x="26.7" y="38.29" width="3.57" height="3.57"/>
      <path d="M30,38.55v3.03h-3.03v-3.03h3.03M30.53,38.02h-4.1v4.1h4.1v-4.1h0Z"/>
    </g>
    <g>
      <path d="M26.7,34.31v-1.41c0-1.5.55-2.95,1.56-4.06l3.01-3.33c.78-.86,1.21-1.97,1.21-3.13,0-1.65-1.35-2.98-3.01-2.98h-1.93c-1.66,0-3.01,1.34-3.01,2.98v.27h-3.6v-.27c0-3.62,2.96-6.56,6.6-6.56h1.93c3.64,0,6.6,2.94,6.6,6.56,0,2.04-.76,4-2.13,5.52l-3.01,3.33c-.43.47-.66,1.05-.66,1.67v1.42h-3.58Z"/>
      <path d="M29.47,16.08c3.49,0,6.34,2.82,6.34,6.29,0,1.97-.73,3.87-2.06,5.34l-3.01,3.33c-.47.52-.72,1.16-.73,1.85v1.15h-3.05v-1.15c0-1.44.53-2.81,1.49-3.88l3.01-3.33c.82-.91,1.28-2.09,1.28-3.31,0-1.79-1.47-3.25-3.28-3.25h-1.93c-1.81,0-3.28,1.46-3.28,3.25h-3.06c0-3.47,2.84-6.29,6.34-6.29h1.93M29.47,15.55h-1.93c-3.79,0-6.87,3.06-6.87,6.83v.53h4.13v-.53c0-1.5,1.23-2.72,2.74-2.72h1.93c1.51,0,2.74,1.22,2.74,2.72,0,1.09-.4,2.14-1.14,2.95l-3.01,3.33c-1.05,1.16-1.64,2.67-1.64,4.23v1.15s.01.53.01.53h4.09v-.53s.02-1.15.02-1.15c0-.56.21-1.07.59-1.5l3.01-3.33c1.42-1.57,2.2-3.59,2.2-5.7,0-3.76-3.08-6.83-6.87-6.83h0Z"/>
    </g>
  </g>
</svg>