<?xml version="1.0" encoding="UTF-8"?>
<svg id="Layer_1" xmlns="http://www.w3.org/2000/svg" version="1.1" viewBox="0 0 57 57">
  <!-- Generator: Adobe Illustrator 30.1.0, SVG Export Plug-In . SVG Version: 2.1.1 Build 136)  -->
  <circle id="Outer" cx="28.5" cy="28.5" r="25.02" fill="none" stroke="#000" stroke-width="6.96"/>
  <g>
    <g>
      <rect x="26.7" y="37.15" width="3.57" height="3.57"/>
      <path d="M29.74,37.69v2.51h-2.51v-2.51h2.51M30.81,36.62h-4.64v4.64h4.64v-4.64h0Z"/>
    </g>
    <g>
      <path d="M26.7,33.34v-1.48c0-1.32.48-2.59,1.37-3.57l2.48-2.75c.59-.65.92-1.5.92-2.37,0-1.19-.97-2.15-2.17-2.15h-1.59c-1.2,0-2.17.96-2.17,2.15v.53h-3.6v-.53c0-3.16,2.59-5.73,5.77-5.73h1.59c3.18,0,5.77,2.57,5.77,5.73,0,1.76-.65,3.45-1.84,4.77l-2.48,2.75c-.3.33-.46.74-.46,1.17v1.48h-3.58Z"/>
      <path d="M29.3,17.98c2.88,0,5.23,2.33,5.23,5.19,0,1.63-.6,3.19-1.7,4.41l-2.48,2.75c-.38.43-.6.95-.6,1.53v.95h-2.51v-.95c0-1.19.43-2.32,1.23-3.2l2.48-2.75c.68-.75,1.05-1.72,1.05-2.73,0-1.48-1.21-2.68-2.7-2.68h-1.59c-1.49,0-2.7,1.2-2.7,2.68h-2.53c0-2.86,2.35-5.19,5.23-5.19h1.59M29.3,16.91h-1.59c-3.47,0-6.3,2.81-6.3,6.26v1.07h4.66v-1.07c0-.89.73-1.62,1.64-1.62h1.59c.9,0,1.64.72,1.64,1.62,0,.74-.28,1.46-.78,2.02l-2.48,2.75c-.97,1.08-1.51,2.47-1.52,3.91v.96s.02,1.06.02,1.06h4.62v-1.06s.02-.95.02-.95c0-.31.11-.58.32-.82l2.48-2.75c1.27-1.41,1.97-3.23,1.97-5.12,0-3.45-2.83-6.26-6.3-6.26h0Z"/>
    </g>
  </g>
</svg>