<?xml version="1.0" encoding="UTF-8"?>
<svg id="Layer_1" xmlns="http://www.w3.org/2000/svg" version="1.1" viewBox="0 0 57 57">
  <!-- Generator: Adobe Illustrator 30.1.0, SVG Export Plug-In . SVG Version: 2.1.1 Build 136)  -->
  <circle id="Outer" cx="28.5" cy="28.5" r="23" fill="none" stroke="#000" stroke-width="11.01"/>
  <g>
    <g>
      <rect x="26.67" y="35.6" width="3.63" height="3.63"/>
      <path d="M29.41,36.5v1.85h-1.85v-1.85h1.85M31.19,34.71h-5.41v5.41h5.41v-5.41h0Z"/>
    </g>
    <g>
      <path d="M26.68,32.21v-1.58c0-1.11.4-2.16,1.13-2.97l1.83-2.03c.35-.39.55-.9.55-1.42,0-.6-.5-1.09-1.11-1.09h-1.18c-.61,0-1.11.49-1.11,1.09v.89h-3.65v-.89c0-2.61,2.13-4.73,4.75-4.73h1.18c2.62,0,4.75,2.12,4.75,4.73,0,1.42-.53,2.79-1.48,3.85l-1.83,2.03c-.14.16-.21.34-.21.53l-.02,1.59h-3.61Z"/>
      <path d="M29.09,20.37c2.13,0,3.86,1.72,3.86,3.84,0,1.2-.45,2.36-1.25,3.25l-1.83,2.03c-.28.31-.44.7-.44,1.13v.7h-1.86v-.7c0-.88.32-1.71.91-2.36l1.83-2.03c.5-.56.78-1.27.78-2.02,0-1.09-.9-1.98-2-1.98h-1.18c-1.1,0-2,.89-2,1.98h-1.87c0-2.11,1.73-3.84,3.86-3.84h1.18M29.09,18.59h-1.18c-3.11,0-5.64,2.52-5.64,5.62v1.78h5.43v-1.78c0-.11.1-.2.22-.2h1.18c.12,0,.22.09.22.2,0,.3-.11.6-.32.82l-1.83,2.03c-.88.97-1.37,2.24-1.38,3.55v.72s.02,1.77.02,1.77h5.38l.02-1.76v-.67s1.82-2.01,1.82-2.01c1.1-1.22,1.71-2.8,1.71-4.45,0-3.1-2.53-5.62-5.64-5.62h0Z"/>
    </g>
  </g>
</svg>