<?xml version="1.0" encoding="UTF-8"?>
<svg id="Layer_1" xmlns="http://www.w3.org/2000/svg" version="1.1" viewBox="0 0 57 57">
  <!-- Generator: Adobe Illustrator 30.1.0, SVG Export Plug-In . SVG Version: 2.1.1 Build 136)  -->
  <circle id="Outer" cx="28.5" cy="28.5" r="24" fill="none" stroke="#000" stroke-width="9"/>
  <g>
    <g>
      <rect x="26.69" y="36.38" width="3.59" height="3.59"/>
      <path d="M29.57,37.09v2.17h-2.17v-2.17h2.17M30.99,35.67h-5.02v5.02h5.02v-5.02h0Z"/>
    </g>
    <g>
      <path d="M26.7,32.75v-1.53c0-1.21.44-2.36,1.24-3.25l2.15-2.38c.47-.52.73-1.19.73-1.89,0-.89-.73-1.61-1.63-1.61h-1.38c-.9,0-1.63.72-1.63,1.61v.71h-3.61v-.71c0-2.87,2.35-5.21,5.24-5.21h1.38c2.89,0,5.24,2.34,5.24,5.21,0,1.59-.59,3.11-1.65,4.29l-2.15,2.38c-.22.24-.33.53-.33.85v1.53h-3.6Z"/>
      <path d="M29.19,19.21c2.5,0,4.53,2.02,4.53,4.49,0,1.41-.52,2.76-1.47,3.81l-2.15,2.38c-.33.37-.52.83-.52,1.32v.82h-2.18v-.82c0-1.03.38-2.01,1.07-2.77l2.15-2.38c.59-.65.91-1.49.91-2.36,0-1.28-1.05-2.32-2.34-2.32h-1.38c-1.29,0-2.34,1.04-2.34,2.32h-2.19c0-2.48,2.03-4.49,4.53-4.49h1.38M29.19,17.78h-1.38c-3.28,0-5.95,2.66-5.95,5.92v1.43h5.04v-1.43c0-.5.41-.9.91-.9h1.38c.5,0,.91.4.91.9,0,.52-.19,1.02-.54,1.41l-2.15,2.38c-.92,1.02-1.44,2.34-1.44,3.72v.84s.02,1.41.02,1.41h4.99v-1.41s.02-.82.02-.82c0-.15.05-.27.15-.38l2.15-2.38c1.18-1.31,1.84-3.01,1.84-4.77,0-3.26-2.67-5.92-5.95-5.92h0Z"/>
    </g>
  </g>
</svg>