<?xml version="1.0" encoding="UTF-8"?>
<svg id="Layer_1" xmlns="http://www.w3.org/2000/svg" version="1.1" viewBox="0 0 57 57">
  <!-- Generator: Adobe Illustrator 30.1.0, SVG Export Plug-In . SVG Version: 2.1.1 Build 136)  -->
  <circle id="Outer" cx="28.5" cy="28.5" r="26.02" fill="none" stroke="#000" stroke-width="4.95"/>
  <g>
    <g>
      <rect x="26.7" y="37.91" width="3.57" height="3.57"/>
      <path d="M29.91,38.27v2.86h-2.86v-2.86h2.86M30.62,37.55h-4.28v4.28h4.28v-4.28h0Z"/>
    </g>
    <g>
      <path d="M26.7,33.98v-1.43c0-1.44.53-2.82,1.49-3.89l2.83-3.13c.71-.79,1.11-1.81,1.11-2.88,0-1.49-1.22-2.7-2.73-2.7h-1.82c-1.5,0-2.73,1.21-2.73,2.7v.36h-3.59v-.36c0-3.46,2.83-6.28,6.32-6.28h1.82c3.48,0,6.32,2.82,6.32,6.28,0,1.95-.72,3.81-2.03,5.26l-2.83,3.13c-.39.43-.59.95-.59,1.5v1.43h-3.58Z"/>
      <path d="M29.41,16.72c3.29,0,5.96,2.66,5.96,5.92,0,1.86-.69,3.64-1.94,5.02l-2.83,3.13c-.44.48-.68,1.09-.68,1.74v1.08h-2.87v-1.08c0-1.35.49-2.64,1.4-3.65l2.83-3.13c.77-.86,1.2-1.96,1.2-3.11,0-1.69-1.38-3.06-3.08-3.06h-1.82c-1.7,0-3.08,1.37-3.08,3.06h-2.88c0-3.26,2.67-5.92,5.96-5.92h1.82M29.41,16.01h-1.82c-3.68,0-6.68,2.98-6.68,6.63v.71h4.31v-.71c0-1.29,1.06-2.35,2.37-2.35h1.82c1.31,0,2.37,1.05,2.37,2.35,0,.97-.36,1.91-1.02,2.64l-2.83,3.13c-1.02,1.13-1.59,2.6-1.6,4.12v1.09s.02.71.02.71h4.27v-.71s.02-1.08.02-1.08c0-.47.17-.91.5-1.27l2.83-3.13c1.37-1.51,2.12-3.47,2.12-5.5,0-3.66-2.99-6.63-6.68-6.63h0Z"/>
    </g>
  </g>
</svg>