<?xml version="1.0" encoding="UTF-8"?>
<svg id="Layer_1" xmlns="http://www.w3.org/2000/svg" version="1.1" viewBox="0 0 57 57">
  <!-- Generator: Adobe Illustrator 30.1.0, SVG Export Plug-In . SVG Version: 2.1.1 Build 136)  -->
  <circle id="Outer" cx="28.5" cy="28.5" r="22.5" fill="none" stroke="#000" stroke-width="12.01"/>
  <g>
    <g>
      <rect x="26.66" y="35.22" width="3.66" height="3.66"/>
      <path d="M29.34,36.2v1.7h-1.7v-1.7h1.7M31.3,34.24h-5.62v5.62h5.62v-5.62h0Z"/>
    </g>
    <g>
      <path d="M26.67,31.97v-1.61c-.01-1.06.38-2.06,1.08-2.84l1.68-1.86c.3-.33.46-.76.46-1.2,0-.46-.38-.84-.85-.84h-1.08c-.47,0-.85.38-.85.84v.98h-3.67v-.98c0-2.48,2.03-4.5,4.53-4.5h1.08c2.5,0,4.53,2.02,4.53,4.5,0,1.35-.5,2.64-1.4,3.65l-1.68,1.87c-.1.11-.15.24-.16.38v1.62h-3.66Z"/>
      <path d="M29.04,20.93c1.96,0,3.55,1.58,3.55,3.52,0,1.11-.41,2.17-1.15,2.99l-1.68,1.87c-.26.29-.41.65-.41,1.04v.64h-1.71v-.64c0-.81.29-1.57.84-2.17l1.68-1.86c.46-.51.71-1.17.71-1.85,0-1-.82-1.82-1.83-1.82h-1.08c-1.01,0-1.83.82-1.83,1.82h-1.71c0-1.94,1.59-3.52,3.55-3.52h1.08M29.04,18.97h-1.08c-3.04,0-5.51,2.46-5.51,5.48v1.96h4.97l-.4.45c-.86.95-1.34,2.19-1.35,3.48v.67s.02,1.94.02,1.94h5.58l.02-1.94v-.49s1.59-1.76,1.59-1.76c1.07-1.18,1.66-2.71,1.66-4.3,0-3.02-2.47-5.48-5.51-5.48h0ZM28.08,24.59h.82c-.03.15-.09.29-.2.4l-.62.69v-1.09h0Z"/>
    </g>
  </g>
</svg>