<?xml version="1.0" encoding="UTF-8"?>
<svg id="Layer_1" xmlns="http://www.w3.org/2000/svg" version="1.1" viewBox="0 0 74 74">
  <!-- Generator: Adobe Illustrator 30.1.0, SVG Export Plug-In . SVG Version: 2.1.1 Build 136)  -->
  <path d="M37,11.68c.82,0,1.65.43,2.08,1.28l5.3,10.52c.91,1.8,2.61,3.08,4.59,3.45l11.46,2.15c1.79.34,2.52,2.51,1.29,3.86l-8.35,9.16c-1.29,1.41-1.89,3.33-1.64,5.22l1.63,12.35c.19,1.47-.98,2.64-2.31,2.64-.35,0-.71-.08-1.06-.26l-10.02-5.16c-.93-.48-1.95-.72-2.96-.72-1.02,0-2.03.24-2.96.72l-10.02,5.16c-.35.18-.71.26-1.06.26-1.33,0-2.5-1.17-2.31-2.64l1.63-12.36c.25-1.9-.35-3.81-1.64-5.22l-8.35-9.16c-1.23-1.35-.5-3.53,1.29-3.87l11.46-2.15c1.98-.37,3.68-1.65,4.59-3.45l5.3-10.52c.43-.85,1.25-1.28,2.08-1.28M37,0C31.68,0,26.89,2.95,24.49,7.7l-4.14,8.22-8.92,1.67c-4.99.93-9.09,4.51-10.7,9.32-1.61,4.82-.49,10.14,2.93,13.89l6.72,7.38-1.31,9.97c-.53,4,.69,8.03,3.35,11.06,2.67,3.04,6.51,4.78,10.54,4.78,2.21,0,4.43-.54,6.41-1.56l7.64-3.93,7.64,3.93c1.98,1.02,4.2,1.56,6.41,1.56,4.03,0,7.87-1.74,10.54-4.78,2.66-3.03,3.88-7.06,3.35-11.06l-1.31-9.97,6.73-7.38c3.42-3.75,4.54-9.07,2.93-13.89-1.61-4.81-5.71-8.38-10.7-9.32l-8.93-1.67-4.14-8.22C47.11,2.95,42.32,0,37,0h0Z"/>
</svg>