<?xml version="1.0" encoding="UTF-8"?>
<svg id="Layer_1" xmlns="http://www.w3.org/2000/svg" version="1.1" viewBox="0 0 74 74">
  <!-- Generator: Adobe Illustrator 30.1.0, SVG Export Plug-In . SVG Version: 2.1.1 Build 136)  -->
  <path d="M37,6.43c.99,0,1.99.52,2.51,1.55l6.4,12.7c1.1,2.18,3.15,3.72,5.54,4.17l13.84,2.59c2.16.41,3.04,3.03,1.56,4.66l-10.08,11.06c-1.56,1.71-2.28,4.02-1.98,6.31l1.97,14.92c.23,1.78-1.18,3.19-2.78,3.19-.42,0-.86-.1-1.28-.32l-12.1-6.23c-1.12-.58-2.35-.87-3.57-.87s-2.45.29-3.57.87l-12.1,6.23c-.42.22-.86.32-1.28.32-1.6,0-3.02-1.41-2.78-3.19l1.97-14.92c.3-2.29-.42-4.59-1.97-6.3l-10.08-11.06c-1.49-1.63-.61-4.26,1.56-4.67l13.84-2.59c2.39-.45,4.44-1.99,5.54-4.17l6.4-12.7c.52-1.03,1.51-1.55,2.51-1.55M37,0C33.49,0,30.33,1.95,28.75,5.08l-6.4,12.7c-.19.38-.56.66-.98.74l-13.84,2.59c-3.29.62-5.99,2.97-7.06,6.15-1.06,3.18-.32,6.69,1.93,9.17l10.08,11.06c.28.31.41.72.35,1.13l-1.97,14.92c-.35,2.64.45,5.3,2.2,7.3,1.76,2.01,4.3,3.16,6.95,3.16,1.46,0,2.92-.36,4.23-1.03l12.1-6.23c.2-.1.41-.15.63-.15s.43.05.63.15l12.1,6.23c1.31.67,2.77,1.03,4.23,1.03,2.66,0,5.19-1.15,6.95-3.16,1.75-2,2.55-4.65,2.2-7.3l-1.97-14.92c-.05-.41.07-.83.35-1.14l10.08-11.06c2.26-2.48,3-5.99,1.93-9.17-1.06-3.17-3.77-5.53-7.06-6.15l-13.84-2.59c-.42-.08-.79-.36-.98-.74l-6.4-12.7C43.67,1.95,40.51,0,37,0h0Z"/>
</svg>