<?xml version="1.0" encoding="UTF-8"?>
<svg id="Layer_1" xmlns="http://www.w3.org/2000/svg" version="1.1" viewBox="0 0 12 12">
  <!-- Generator: Adobe Illustrator 30.1.0, SVG Export Plug-In . SVG Version: 2.1.1 Build 136)  -->
  <g>
    <g>
      <polygon points="5.64 3.88 5.58 3.09 6.36 3.04 6.42 3.82 6.42 3.88 5.64 3.88"/>
      <path d="M6.36,3.09v.73h-.73v-.73h.73M6.48,2.98h-.95v.95h.95v-.95h0Z"/>
    </g>
    <g>
      <polygon points="4.91 8.96 4.85 8.18 5.64 8.12 5.58 5.91 4.91 5.97 4.85 5.19 6.36 5.13 6.42 8.18 7.09 8.12 7.15 8.91 7.15 8.96 4.91 8.96"/>
      <path d="M6.36,5.19v2.99h.73v.73h-2.18v-.73h.73v-2.27h-.73v-.73h1.45M6.48,5.07h-1.68v.95h.73v2.04h-.73v.95h2.4v-.95h-.73v-2.99h0Z"/>
    </g>
  </g>
  <circle id="Outer" cx="6" cy="6" r="5.58" fill="none" stroke="#000" stroke-width=".83"/>
</svg>