<?xml version="1.0" encoding="UTF-8"?>
<svg id="Layer_1" xmlns="http://www.w3.org/2000/svg" version="1.1" viewBox="0 0 12 12">
  <!-- Generator: Adobe Illustrator 30.1.0, SVG Export Plug-In . SVG Version: 2.1.1 Build 136)  -->
  <g>
    <g>
      <rect x="5.55" y="3.65" width=".89" height=".89"/>
      <path d="M6.24,3.85v.48h-.48v-.48h.48M6.65,3.44h-1.31v1.31h1.31v-1.31h0Z"/>
    </g>
    <g>
      <polygon points="5.07 8.22 5.07 7.33 5.55 7.33 5.55 6.24 5.07 6.24 5.07 5.35 6.45 5.35 6.45 7.33 6.93 7.33 6.93 8.22 5.07 8.22"/>
      <path d="M6.24,5.55v1.98h.48v.48h-1.44v-.48h.48v-1.5h-.48v-.48h.96M6.65,5.14h-1.79v1.31h.48v.68h-.48v1.31h2.27v-1.31h-.48v-1.98h0Z"/>
    </g>
  </g>
  <circle id="Outer" cx="6" cy="6" r="4.74" fill="none" stroke="#000" stroke-width="2.53"/>
</svg>