<?xml version="1.0" encoding="UTF-8"?>
<svg id="Layer_1" xmlns="http://www.w3.org/2000/svg" version="1.1" viewBox="0 0 114 114">
  <!-- Generator: Adobe Illustrator 30.1.0, SVG Export Plug-In . SVG Version: 2.1.1 Build 136)  -->
  <g>
    <g>
      <rect x="53.02" y="28.86" width="7.97" height="7.97"/>
      <path d="M60.45,29.4v6.9h-6.9v-6.9h6.9M61.52,28.33h-9.04v9.04h9.04v-9.04h0Z"/>
    </g>
    <g>
      <polygon points="46.12 85.14 46.12 77.17 53.02 77.17 53.02 56.69 46.12 56.69 46.12 48.72 60.98 48.72 60.98 77.17 67.88 77.17 67.88 85.14 46.12 85.14"/>
      <path d="M60.45,49.26v28.44h6.9v6.9h-20.7v-6.9h6.9v-21.54h-6.9v-6.9h13.8M61.52,48.19h-15.94v9.04h6.9v19.41h-6.9v9.04h22.84v-9.04h-6.9v-28.44h0Z"/>
    </g>
  </g>
  <circle id="Outer" cx="57" cy="57" r="53.05" fill="none" stroke="#000" stroke-width="7.91"/>
</svg>