<?xml version="1.0" encoding="UTF-8"?>
<svg id="Layer_1" xmlns="http://www.w3.org/2000/svg" version="1.1" viewBox="0 0 114 114">
  <!-- Generator: Adobe Illustrator 30.1.0, SVG Export Plug-In . SVG Version: 2.1.1 Build 136)  -->
  <g>
    <g>
      <rect x="52.75" y="34.65" width="8.49" height="8.49"/>
      <path d="M59.29,36.61v4.57h-4.57v-4.57h4.57M63.2,32.69h-12.41v12.41h12.41v-12.41h0Z"/>
    </g>
    <g>
      <polygon points="48.18 78.11 48.18 69.62 52.75 69.62 52.75 59.27 48.18 59.27 48.18 50.78 61.24 50.78 61.24 69.62 65.82 69.62 65.82 78.11 48.18 78.11"/>
      <path d="M59.29,52.74v18.84h4.57v4.57h-13.71v-4.57h4.57v-14.27h-4.57v-4.57h9.14M63.2,48.82h-16.98v12.41h4.57v6.43h-4.57v12.41h21.55v-12.41h-4.57v-18.84h0Z"/>
    </g>
  </g>
  <circle id="Outer" cx="57" cy="57" r="44.99" fill="none" stroke="#000" stroke-width="24.01"/>
</svg>