<?xml version="1.0" encoding="UTF-8"?>
<svg id="Layer_1" xmlns="http://www.w3.org/2000/svg" version="1.1" viewBox="0 0 114 114">
  <!-- Generator: Adobe Illustrator 30.1.0, SVG Export Plug-In . SVG Version: 2.1.1 Build 136)  -->
  <g>
    <g>
      <rect x="52.79" y="33.94" width="8.41" height="8.41"/>
      <path d="M59.42,35.72v4.85h-4.85v-4.85h4.85M62.99,32.16h-11.97v11.97h11.97v-11.97h0Z"/>
    </g>
    <g>
      <polygon points="47.94 78.95 47.94 70.54 52.79 70.54 52.79 58.96 47.94 58.96 47.94 50.55 61.21 50.55 61.21 70.54 66.06 70.54 66.06 78.95 47.94 78.95"/>
      <path d="M59.42,52.33v19.99h4.85v4.85h-14.55v-4.85h4.85v-15.14h-4.85v-4.85h9.7M62.99,48.77h-16.82v11.97h4.85v8.01h-4.85v11.97h21.67v-11.97h-4.85v-19.99h0Z"/>
    </g>
  </g>
  <circle id="Outer" cx="57" cy="57" r="45.99" fill="none" stroke="#000" stroke-width="22.02"/>
</svg>