<?xml version="1.0" encoding="UTF-8"?>
<svg id="Layer_1" xmlns="http://www.w3.org/2000/svg" version="1.1" viewBox="0 0 49 49">
  <!-- Generator: Adobe Illustrator 30.1.0, SVG Export Plug-In . SVG Version: 2.1.1 Build 136)  -->
  <path d="M24.5,9.46c.49,0,.98.25,1.23.76l3.15,6.24c.54,1.07,1.55,1.83,2.72,2.05l6.81,1.28c1.06.2,1.5,1.49.77,2.29l-4.96,5.44c-.77.84-1.12,1.98-.97,3.1l.97,7.34c.12.88-.58,1.57-1.37,1.57-.21,0-.42-.05-.63-.16l-5.95-3.07c-.55-.28-1.16-.43-1.76-.43-.6,0-1.21.14-1.76.43l-5.95,3.07c-.21.11-.42.16-.63.16-.79,0-1.48-.69-1.37-1.57l.97-7.34c.15-1.13-.21-2.26-.97-3.1l-4.96-5.44c-.73-.8-.3-2.1.77-2.3l6.81-1.28c1.18-.22,2.18-.98,2.72-2.05l3.15-6.25c.26-.51.74-.76,1.23-.76M24.5,0C20.38,0,16.67,2.29,14.82,5.97l-1.9,3.76-4.07.76c-3.86.72-7.04,3.49-8.29,7.22-1.25,3.73-.38,7.85,2.27,10.75l3.2,3.51-.63,4.75c-.41,3.1.54,6.22,2.59,8.57,2.06,2.35,5.04,3.7,8.16,3.7,1.72,0,3.43-.42,4.96-1.21l3.38-1.74,3.38,1.74c1.53.79,3.25,1.21,4.96,1.21,3.12,0,6.09-1.35,8.16-3.7,2.06-2.35,3-5.47,2.59-8.57l-.63-4.75,3.2-3.51c2.65-2.91,3.52-7.03,2.27-10.75-1.25-3.73-4.42-6.49-8.28-7.22l-4.07-.76-1.9-3.76C32.33,2.29,28.62,0,24.5,0h0Z"/>
</svg>