<?xml version="1.0" encoding="UTF-8"?>
<svg id="Layer_1" xmlns="http://www.w3.org/2000/svg" version="1.1" viewBox="0 0 49 49">
  <!-- Generator: Adobe Illustrator 30.1.0, SVG Export Plug-In . SVG Version: 2.1.1 Build 136)  -->
  <path d="M24.5,7.73c.55,0,1.09.28,1.38.85l3.51,6.96c.6,1.19,1.73,2.04,3.04,2.29l7.59,1.42c1.19.22,1.67,1.66.85,2.56l-5.53,6.07c-.85.94-1.25,2.2-1.08,3.46l1.08,8.18c.13.98-.65,1.75-1.53,1.75-.23,0-.47-.05-.7-.17l-6.64-3.42c-.62-.32-1.29-.48-1.96-.48-.67,0-1.35.16-1.96.48l-6.64,3.42c-.23.12-.47.17-.7.17-.88,0-1.66-.77-1.53-1.75l1.08-8.18c.17-1.26-.23-2.52-1.08-3.45l-5.53-6.07c-.81-.89-.33-2.34.85-2.56l7.59-1.42c1.31-.25,2.43-1.09,3.04-2.28l3.51-6.96c.28-.57.83-.85,1.38-.85M24.5,0C20.98,0,17.8,1.95,16.22,5.1l-2.74,5.44-5.91,1.11c-3.3.62-6.02,2.98-7.09,6.17-1.07,3.19-.32,6.71,1.94,9.2l4.45,4.89-.87,6.6c-.35,2.65.46,5.32,2.22,7.33,1.76,2.01,4.31,3.17,6.98,3.17,1.47,0,2.93-.36,4.24-1.03l5.06-2.6,5.06,2.6c1.31.68,2.78,1.03,4.24,1.03,2.67,0,5.21-1.15,6.98-3.17,1.76-2.01,2.57-4.68,2.22-7.33l-.87-6.6,4.45-4.89c2.26-2.48,3.01-6.01,1.94-9.2-1.07-3.19-3.78-5.55-7.08-6.17l-5.91-1.11-2.74-5.44C31.2,1.95,28.02,0,24.5,0h0Z"/>
</svg>