<?xml version="1.0" encoding="UTF-8"?>
<svg id="Layer_1" xmlns="http://www.w3.org/2000/svg" version="1.1" viewBox="0 0 49 49">
  <!-- Generator: Adobe Illustrator 30.1.0, SVG Export Plug-In . SVG Version: 2.1.1 Build 136)  -->
  <path d="M24.5,4.26c.66,0,1.32.34,1.66,1.02l4.24,8.41c.73,1.44,2.08,2.46,3.67,2.76l9.16,1.72c1.43.27,2.01,2.01,1.03,3.09l-6.68,7.33c-1.03,1.13-1.51,2.66-1.31,4.18l1.3,9.88c.16,1.18-.78,2.11-1.84,2.11-.28,0-.57-.07-.85-.21l-8.01-4.13c-.74-.38-1.56-.57-2.37-.57-.81,0-1.62.19-2.37.57l-8.01,4.13c-.28.14-.57.21-.85.21-1.06,0-2-.93-1.84-2.11l1.3-9.88c.2-1.52-.28-3.04-1.31-4.17l-6.68-7.33c-.98-1.08-.4-2.82,1.03-3.09l9.16-1.72c1.58-.3,2.94-1.32,3.67-2.76l4.24-8.41c.34-.68,1-1.02,1.66-1.02M24.5,0C22.18,0,20.08,1.29,19.04,3.37l-4.24,8.41c-.13.25-.37.44-.65.49l-9.16,1.72c-2.18.41-3.97,1.97-4.67,4.07-.7,2.1-.21,4.43,1.28,6.07l6.68,7.33c.18.2.27.47.23.75l-1.3,9.88c-.23,1.75.3,3.51,1.46,4.83,1.17,1.33,2.84,2.09,4.6,2.09.96,0,1.93-.24,2.8-.68l8.01-4.13c.13-.07.27-.1.42-.1.14,0,.29.04.42.1l8.01,4.13c.87.45,1.83.68,2.8.68,0,0,0,0,0,0,1.76,0,3.44-.76,4.6-2.09,1.16-1.32,1.69-3.08,1.46-4.83l-1.3-9.88c-.04-.27.05-.55.23-.75l6.68-7.33c1.49-1.64,1.98-3.97,1.28-6.07-.7-2.1-2.49-3.66-4.67-4.07l-9.16-1.72c-.28-.05-.52-.24-.65-.49l-4.24-8.41C28.92,1.29,26.82,0,24.5,0h0Z"/>
</svg>