<?xml version="1.0" encoding="UTF-8"?>
<svg id="Layer_1" xmlns="http://www.w3.org/2000/svg" version="1.1" viewBox="0 0 49 49">
  <!-- Generator: Adobe Illustrator 30.1.0, SVG Export Plug-In . SVG Version: 2.1.1 Build 136)  -->
  <path d="M24.5,10.32c.46,0,.92.24,1.16.72l2.97,5.89c.51,1.01,1.46,1.73,2.57,1.93l6.42,1.2c1,.19,1.41,1.41.72,2.16l-4.68,5.13c-.72.79-1.06,1.86-.92,2.93l.91,6.92c.11.83-.55,1.48-1.29,1.48-.2,0-.4-.05-.6-.15l-5.61-2.89c-.52-.27-1.09-.4-1.66-.4-.57,0-1.14.13-1.66.4l-5.61,2.89c-.2.1-.4.15-.6.15-.74,0-1.4-.65-1.29-1.48l.91-6.92c.14-1.06-.2-2.13-.92-2.92l-4.68-5.13c-.69-.76-.28-1.98.72-2.16l6.42-1.2c1.11-.21,2.06-.92,2.57-1.93l2.97-5.89c.24-.48.7-.72,1.16-.72M24.5,0C20.08,0,16.11,2.45,14.12,6.39l-1.48,2.93-3.16.59c-4.14.78-7.54,3.74-8.88,7.73-1.34,4-.41,8.41,2.43,11.53l2.58,2.83-.51,3.84c-.44,3.32.58,6.67,2.78,9.18,2.21,2.52,5.4,3.97,8.74,3.97,1.84,0,3.68-.45,5.32-1.29l2.55-1.31,2.55,1.31c1.64.85,3.48,1.29,5.32,1.29,3.35,0,6.53-1.45,8.74-3.97,2.2-2.51,3.22-5.86,2.78-9.18l-.51-3.84,2.58-2.83c2.84-3.11,3.77-7.53,2.43-11.53-1.34-3.99-4.74-6.96-8.88-7.73l-3.16-.59-1.48-2.93C32.89,2.45,28.92,0,24.5,0h0Z"/>
</svg>