<?xml version="1.0" encoding="UTF-8"?>
<svg id="Layer_1" xmlns="http://www.w3.org/2000/svg" version="1.1" viewBox="0 0 49 49">
  <!-- Generator: Adobe Illustrator 30.1.0, SVG Export Plug-In . SVG Version: 2.1.1 Build 136)  -->
  <path d="M24.5,5.99c.6,0,1.2.31,1.52.94l3.87,7.69c.66,1.32,1.9,2.25,3.35,2.52l8.38,1.57c1.31.25,1.84,1.84.94,2.82l-6.1,6.7c-.94,1.03-1.38,2.43-1.2,3.82l1.19,9.03c.14,1.08-.72,1.93-1.69,1.93-.26,0-.52-.06-.78-.19l-7.33-3.77c-.68-.35-1.42-.52-2.16-.52s-1.49.17-2.16.52l-7.33,3.77c-.26.13-.52.19-.78.19-.97,0-1.83-.85-1.69-1.93l1.19-9.04c.18-1.39-.25-2.78-1.2-3.81l-6.11-6.7c-.9-.99-.37-2.58.94-2.83l8.38-1.57c1.45-.27,2.69-1.2,3.35-2.52l3.87-7.69c.31-.62.92-.94,1.52-.94M24.5,0C21.58,0,18.95,1.62,17.63,4.23l-3.59,7.14-7.77,1.46c-2.74.51-4.99,2.47-5.87,5.12-.89,2.64-.27,5.57,1.61,7.63l5.71,6.27-1.12,8.46c-.29,2.2.38,4.41,1.84,6.07,1.46,1.67,3.57,2.63,5.78,2.63,1.21,0,2.43-.3,3.52-.86l6.75-3.48,6.75,3.48c1.09.56,2.3.86,3.52.86,2.21,0,4.32-.96,5.78-2.63,1.46-1.66,2.13-3.88,1.84-6.07l-1.12-8.46,5.72-6.27c1.88-2.06,2.49-4.98,1.61-7.63-.89-2.64-3.14-4.6-5.87-5.12l-7.77-1.46-3.59-7.14C30.05,1.62,27.42,0,24.5,0h0Z"/>
</svg>