<?xml version="1.0" encoding="UTF-8"?>
<svg id="Layer_1" xmlns="http://www.w3.org/2000/svg" version="1.1" viewBox="0 0 47 47">
  <!-- Generator: Adobe Illustrator 30.1.0, SVG Export Plug-In . SVG Version: 2.1.1 Build 136)  -->
  <path d="M23.5,4.08c.63,0,1.26.33,1.59.98l4.06,8.06c.7,1.38,2,2.36,3.52,2.65l8.79,1.65c1.37.26,1.93,1.93.99,2.96l-6.4,7.03c-.99,1.08-1.45,2.55-1.26,4.01l1.25,9.47c.15,1.13-.75,2.03-1.77,2.03-.27,0-.55-.06-.82-.2l-7.69-3.96c-.71-.37-1.49-.55-2.27-.55-.78,0-1.56.18-2.27.55l-7.69,3.96c-.27.14-.55.2-.82.2-1.02,0-1.92-.9-1.77-2.03l1.25-9.48c.19-1.45-.27-2.92-1.25-4l-6.4-7.03c-.94-1.04-.39-2.71.99-2.96l8.79-1.65c1.52-.28,2.82-1.26,3.52-2.65l4.06-8.06c.33-.65.96-.98,1.59-.98M23.5,0C21.27,0,19.26,1.24,18.26,3.23l-4.06,8.06c-.12.24-.36.42-.62.47l-8.79,1.65c-2.09.39-3.81,1.89-4.48,3.9-.68,2.02-.21,4.25,1.23,5.82l6.4,7.03c.18.19.26.46.22.72l-1.25,9.48c-.22,1.68.29,3.37,1.4,4.63,1.12,1.28,2.73,2.01,4.42,2.01.93,0,1.85-.23,2.68-.65l7.69-3.96c.13-.06.26-.1.4-.1.14,0,.28.03.4.1l7.69,3.96c.83.43,1.76.65,2.68.65,1.69,0,3.3-.73,4.42-2.01,1.11-1.27,1.62-2.96,1.4-4.63l-1.25-9.47c-.03-.26.05-.53.23-.72l6.4-7.03c1.43-1.57,1.9-3.8,1.23-5.82-.68-2.02-2.39-3.51-4.48-3.9l-8.79-1.65c-.27-.05-.5-.23-.62-.47l-4.06-8.06C27.74,1.24,25.73,0,23.5,0h0Z"/>
</svg>