<?xml version="1.0" encoding="UTF-8"?>
<svg id="Layer_1" xmlns="http://www.w3.org/2000/svg" version="1.1" viewBox="0 0 47 47">
  <!-- Generator: Adobe Illustrator 30.1.0, SVG Export Plug-In . SVG Version: 2.1.1 Build 136)  -->
  <path d="M23.5,5.74c.58,0,1.15.3,1.46.9l3.72,7.37c.64,1.27,1.83,2.16,3.22,2.42l8.04,1.51c1.26.24,1.77,1.76.9,2.71l-5.86,6.43c-.9.99-1.32,2.33-1.15,3.66l1.14,8.66c.14,1.03-.69,1.85-1.62,1.85-.25,0-.5-.06-.75-.18l-7.03-3.62c-.65-.34-1.36-.5-2.08-.5-.71,0-1.42.17-2.08.5l-7.03,3.62c-.25.13-.5.18-.75.18-.93,0-1.75-.82-1.62-1.85l1.14-8.67c.18-1.33-.24-2.67-1.15-3.66l-5.86-6.43c-.86-.95-.35-2.47.9-2.71l8.04-1.51c1.39-.26,2.58-1.16,3.22-2.42l3.72-7.38c.3-.6.88-.9,1.46-.9M23.5,0C20.7,0,18.18,1.55,16.91,4.06l-3.45,6.84-7.45,1.4c-2.63.49-4.79,2.37-5.63,4.91-.85,2.54-.26,5.34,1.54,7.32l5.48,6.02-1.07,8.12c-.28,2.11.36,4.23,1.76,5.83,1.4,1.6,3.43,2.52,5.55,2.52,1.16,0,2.33-.28,3.37-.82l6.48-3.34,6.48,3.34c1.04.54,2.21.82,3.37.82,2.12,0,4.14-.92,5.55-2.52,1.4-1.59,2.04-3.72,1.76-5.83l-1.07-8.12,5.48-6.02c1.8-1.98,2.39-4.78,1.54-7.31-.85-2.53-3.01-4.41-5.63-4.91l-7.45-1.4-3.45-6.84C28.82,1.55,26.3,0,23.5,0h0Z"/>
</svg>