<?xml version="1.0" encoding="UTF-8"?>
<svg id="Layer_1" xmlns="http://www.w3.org/2000/svg" version="1.1" viewBox="0 0 47 47">
  <!-- Generator: Adobe Illustrator 30.1.0, SVG Export Plug-In . SVG Version: 2.1.1 Build 136)  -->
  <path d="M23.5,9.9c.44,0,.88.23,1.12.69l2.85,5.65c.49.97,1.4,1.65,2.46,1.85l6.16,1.15c.96.18,1.35,1.35.69,2.07l-4.49,4.92c-.69.76-1.01,1.79-.88,2.81l.88,6.64c.1.79-.53,1.42-1.24,1.42-.19,0-.38-.04-.57-.14l-5.38-2.77c-.5-.26-1.04-.39-1.59-.39s-1.09.13-1.59.39l-5.38,2.77c-.19.1-.38.14-.57.14-.71,0-1.34-.63-1.24-1.42l.88-6.64c.13-1.02-.19-2.04-.88-2.8l-4.49-4.92c-.66-.73-.27-1.9.69-2.08l6.16-1.15c1.06-.2,1.97-.88,2.46-1.85l2.85-5.65c.23-.46.67-.69,1.12-.69M23.5,0C19.26,0,15.45,2.35,13.54,6.13l-1.42,2.81-3.03.57c-3.97.74-7.23,3.59-8.52,7.42-1.28,3.83-.39,8.07,2.33,11.06l2.48,2.72-.49,3.68c-.42,3.19.55,6.4,2.67,8.81,2.12,2.42,5.18,3.8,8.39,3.8,1.76,0,3.53-.43,5.1-1.24l2.44-1.26,2.44,1.26c1.57.81,3.34,1.24,5.1,1.24,3.21,0,6.27-1.39,8.39-3.8,2.11-2.41,3.09-5.62,2.67-8.81l-.49-3.68,2.48-2.72c2.72-2.99,3.62-7.22,2.33-11.06-1.28-3.83-4.55-6.67-8.52-7.42l-3.03-.57-1.42-2.81C31.55,2.35,27.73,0,23.5,0h0Z"/>
</svg>