<?xml version="1.0" encoding="UTF-8"?>
<svg id="Layer_1" xmlns="http://www.w3.org/2000/svg" version="1.1" viewBox="0 0 66 66">
  <!-- Generator: Adobe Illustrator 30.1.0, SVG Export Plug-In . SVG Version: 2.1.1 Build 136)  -->
  <path d="M33,8.06c.81,0,1.62.42,2.05,1.26l5.22,10.36c.9,1.78,2.57,3.03,4.52,3.4l11.29,2.12c1.76.33,2.48,2.48,1.27,3.8l-8.22,9.02c-1.27,1.39-1.86,3.28-1.61,5.14l1.6,12.17c.19,1.45-.97,2.6-2.27,2.6-.35,0-.7-.08-1.05-.26l-9.87-5.08c-.91-.47-1.92-.71-2.92-.71-1,0-2,.24-2.92.71l-9.87,5.08c-.34.18-.7.26-1.05.26-1.31,0-2.46-1.15-2.27-2.6l1.61-12.17c.25-1.87-.34-3.75-1.61-5.14l-8.22-9.02c-1.21-1.33-.5-3.48,1.27-3.81l11.28-2.12c1.95-.37,3.62-1.62,4.52-3.4l5.22-10.36c.42-.84,1.23-1.26,2.05-1.26M33,0C29.07,0,25.52,2.18,23.75,5.7l-4.84,9.61-10.46,1.96c-3.69.69-6.72,3.33-7.91,6.89-1.19,3.56-.36,7.5,2.17,10.27l7.7,8.45-1.5,11.4c-.39,2.96.51,5.94,2.47,8.18,1.97,2.25,4.81,3.54,7.79,3.54,1.64,0,3.27-.4,4.74-1.15l9.1-4.68,9.1,4.68c1.46.75,3.1,1.15,4.74,1.15,2.98,0,5.82-1.29,7.79-3.54,1.96-2.24,2.86-5.22,2.47-8.18l-1.5-11.4,7.7-8.45c2.53-2.78,3.36-6.71,2.17-10.27-1.19-3.56-4.22-6.2-7.91-6.89l-10.46-1.96-4.84-9.61C40.48,2.18,36.93,0,33,0h0Z"/>
</svg>