<?xml version="1.0" encoding="UTF-8"?>
<svg id="Layer_1" xmlns="http://www.w3.org/2000/svg" version="1.1" viewBox="0 0 66 66">
  <!-- Generator: Adobe Illustrator 30.1.0, SVG Export Plug-In . SVG Version: 2.1.1 Build 136)  -->
  <path d="M33,13.9c.62,0,1.24.32,1.57.97l4,7.93c.69,1.36,1.97,2.32,3.46,2.6l8.64,1.62c1.35.25,1.9,1.9.97,2.91l-6.3,6.91c-.97,1.07-1.42,2.51-1.23,3.94l1.23,9.32c.15,1.11-.74,1.99-1.74,1.99-.27,0-.54-.06-.8-.2l-7.56-3.89c-.7-.36-1.47-.54-2.23-.54s-1.53.18-2.23.54l-7.56,3.89c-.26.14-.54.2-.8.2-1,0-1.89-.88-1.74-1.99l1.23-9.32c.19-1.43-.26-2.87-1.23-3.94l-6.3-6.91c-.93-1.02-.38-2.66.97-2.92l8.64-1.62c1.49-.28,2.77-1.24,3.46-2.6l4-7.93c.32-.64.95-.97,1.57-.97M33,0C27.05,0,21.69,3.3,19.02,8.61l-1.99,3.95-4.25.8c-5.58,1.05-10.16,5.04-11.96,10.42-1.8,5.38-.55,11.33,3.27,15.53l3.48,3.82-.68,5.17c-.59,4.47.77,8.98,3.74,12.37,2.98,3.4,7.27,5.34,11.78,5.34,2.48,0,4.96-.6,7.17-1.74l3.43-1.77,3.43,1.77c2.21,1.14,4.69,1.74,7.17,1.74,4.51,0,8.8-1.95,11.78-5.34,2.97-3.39,4.33-7.9,3.74-12.37l-.68-5.17,3.48-3.82c3.82-4.19,5.08-10.14,3.27-15.52-1.8-5.38-6.39-9.37-11.96-10.42l-4.26-.8-1.99-3.95C44.3,3.3,38.95,0,33,0h0Z"/>
</svg>