<?xml version="1.0" encoding="UTF-8"?>
<svg id="Layer_1" xmlns="http://www.w3.org/2000/svg" version="1.1" viewBox="0 0 66 66">
  <!-- Generator: Adobe Illustrator 30.1.0, SVG Export Plug-In . SVG Version: 2.1.1 Build 136)  -->
  <path d="M33,5.73c.89,0,1.77.46,2.24,1.38l5.7,11.32c.98,1.94,2.81,3.32,4.94,3.72l12.34,2.31c1.93.36,2.71,2.71,1.39,4.16l-8.99,9.87c-1.39,1.52-2.03,3.58-1.76,5.63l1.75,13.3c.21,1.59-1.06,2.84-2.48,2.84-.38,0-.77-.09-1.14-.28l-10.79-5.56c-1-.52-2.09-.77-3.19-.77-1.09,0-2.19.26-3.19.77l-10.79,5.56c-.38.19-.77.28-1.14.28-1.43,0-2.69-1.26-2.48-2.84l1.76-13.31c.27-2.04-.38-4.1-1.76-5.62l-8.99-9.87c-1.32-1.45-.54-3.8,1.39-4.16l12.34-2.31c2.13-.4,3.96-1.77,4.94-3.72l5.71-11.32c.46-.92,1.35-1.38,2.24-1.38M33,0c-3.13,0-5.95,1.74-7.36,4.53l-5.71,11.32c-.17.34-.5.59-.87.66l-12.34,2.31c-2.93.55-5.35,2.65-6.29,5.48-.95,2.83-.29,5.97,1.72,8.18l8.99,9.87c.25.27.36.64.31,1.01l-1.76,13.31c-.31,2.36.41,4.73,1.97,6.51,1.57,1.79,3.83,2.82,6.2,2.82,1.3,0,2.6-.32,3.77-.92l10.79-5.56c.18-.09.37-.14.56-.14.2,0,.39.05.56.14l10.79,5.56c1.17.6,2.47.92,3.77.92,2.37,0,4.63-1.03,6.2-2.82,1.56-1.78,2.28-4.15,1.97-6.51l-1.75-13.3c-.05-.37.07-.74.32-1.01l8.99-9.87c2.01-2.21,2.67-5.34,1.72-8.17-.95-2.83-3.36-4.93-6.29-5.48l-12.34-2.31c-.37-.07-.7-.32-.88-.66l-5.7-11.32c-1.41-2.8-4.23-4.53-7.36-4.53h0Z"/>
</svg>