<?xml version="1.0" encoding="UTF-8"?>
<svg id="Layer_1" xmlns="http://www.w3.org/2000/svg" version="1.1" viewBox="0 0 51 51">
  <!-- Generator: Adobe Illustrator 30.1.0, SVG Export Plug-In . SVG Version: 2.1.1 Build 136)  -->
  <path d="M25.5,3.54c.71,0,1.43.37,1.8,1.11l4.59,9.12c.79,1.57,2.26,2.67,3.98,2.99l9.94,1.86c1.55.29,2.18,2.18,1.12,3.35l-7.24,7.95c-1.12,1.23-1.64,2.88-1.42,4.53l1.41,10.72c.17,1.28-.85,2.29-2,2.29-.3,0-.62-.07-.92-.23l-8.69-4.48c-.81-.42-1.69-.62-2.57-.62-.88,0-1.76.21-2.57.62l-8.69,4.48c-.3.16-.62.23-.92.23-1.15,0-2.17-1.01-2-2.29l1.41-10.72c.22-1.64-.3-3.3-1.42-4.53l-7.24-7.95c-1.07-1.17-.44-3.06,1.12-3.35l9.94-1.86c1.72-.32,3.19-1.43,3.98-2.99l4.6-9.12c.37-.74,1.09-1.11,1.8-1.11M25.5,0C23.39,0,21.49,1.17,20.54,3.06l-4.6,9.12c-.29.58-.84.99-1.47,1.11l-9.94,1.86c-1.98.37-3.61,1.79-4.25,3.7-.64,1.91-.19,4.03,1.16,5.52l7.24,7.95c.41.46.61,1.07.53,1.68l-1.41,10.72c-.21,1.59.27,3.19,1.32,4.39,1.06,1.21,2.58,1.9,4.18,1.9.88,0,1.75-.21,2.54-.62l8.69-4.48c.29-.15.62-.23.95-.23.33,0,.66.08.95.23l8.69,4.48c.79.41,1.67.62,2.54.62,1.6,0,3.12-.69,4.18-1.9,1.05-1.2,1.53-2.8,1.32-4.39l-1.41-10.72c-.08-.61.11-1.23.53-1.69l7.24-7.95c1.36-1.49,1.8-3.6,1.16-5.51-.64-1.91-2.27-3.33-4.24-3.7l-9.94-1.86c-.63-.12-1.18-.53-1.47-1.11l-4.59-9.12C29.51,1.17,27.61,0,25.5,0h0Z"/>
</svg>