<?xml version="1.0" encoding="UTF-8"?>
<svg id="Layer_1" xmlns="http://www.w3.org/2000/svg" version="1.1" viewBox="0 0 51 51">
  <!-- Generator: Adobe Illustrator 30.1.0, SVG Export Plug-In . SVG Version: 2.1.1 Build 136)  -->
  <path d="M25.5,6.23c.63,0,1.25.32,1.58.97l4.03,8c.69,1.37,1.98,2.34,3.49,2.63l8.72,1.63c1.36.26,1.92,1.91.98,2.94l-6.35,6.97c-.98,1.08-1.44,2.53-1.25,3.98l1.24,9.4c.15,1.12-.75,2.01-1.75,2.01-.27,0-.54-.06-.81-.2l-7.63-3.93c-.71-.36-1.48-.55-2.25-.55s-1.55.18-2.25.55l-7.63,3.93c-.27.14-.54.2-.81.2-1.01,0-1.9-.89-1.75-2.01l1.24-9.4c.19-1.44-.27-2.9-1.24-3.97l-6.35-6.97c-.94-1.03-.38-2.69.98-2.94l8.72-1.63c1.51-.28,2.8-1.25,3.49-2.63l4.03-8c.33-.65.95-.97,1.58-.97M25.5,0C22.46,0,19.72,1.69,18.35,4.4l-3.74,7.43-8.08,1.51c-2.85.53-5.19,2.57-6.11,5.33-.92,2.75-.28,5.79,1.67,7.94l5.95,6.53-1.16,8.81c-.3,2.29.39,4.59,1.91,6.32,1.52,1.74,3.72,2.74,6.02,2.74,1.26,0,2.53-.31,3.66-.89l7.03-3.62,7.03,3.62c1.13.58,2.4.89,3.66.89,2.3,0,4.5-1,6.02-2.74,1.52-1.73,2.21-4.03,1.91-6.32l-1.16-8.81,5.95-6.53c1.95-2.14,2.6-5.19,1.67-7.94-.92-2.75-3.26-4.79-6.11-5.32l-8.08-1.52-3.74-7.43C31.28,1.69,28.54,0,25.5,0h0Z"/>
</svg>