<?xml version="1.0" encoding="UTF-8"?>
<svg id="Layer_1" xmlns="http://www.w3.org/2000/svg" version="1.1" viewBox="0 0 47 47">
  <!-- Generator: Adobe Illustrator 30.1.0, SVG Export Plug-In . SVG Version: 2.1.1 Build 136)  -->
  <g>
    <g>
      <rect x="21.77" y="13.99" width="3.47" height="3.47"/>
      <path d="M24.5,14.73v2h-2v-2h2M25.97,13.26h-4.94v4.94h4.94v-4.94h0Z"/>
    </g>
    <g>
      <polygon points="19.77 32.55 19.77 29.08 21.77 29.08 21.77 24.31 19.77 24.31 19.77 20.84 25.23 20.84 25.23 29.08 27.23 29.08 27.23 32.55 19.77 32.55"/>
      <path d="M24.5,21.58v8.24h2v2h-6v-2h2v-6.24h-2v-2h4M25.97,20.11h-6.94v4.94h2v3.3h-2v4.94h8.94v-4.94h-2v-8.24h0Z"/>
    </g>
  </g>
  <circle id="Outer" cx="23.5" cy="23.5" r="18.96" fill="none" stroke="#000" stroke-width="9.08"/>
</svg>