<?xml version="1.0" encoding="UTF-8"?>
<svg id="Layer_1" xmlns="http://www.w3.org/2000/svg" version="1.1" viewBox="0 0 119 119">
  <!-- Generator: Adobe Illustrator 30.1.0, SVG Export Plug-In . SVG Version: 2.1.1 Build 136)  -->
  <path d="M59.5,22.98c1.19,0,2.37.62,3,1.85l7.64,15.17c1.31,2.6,3.76,4.44,6.62,4.98l16.53,3.1c2.58.48,3.63,3.63,1.86,5.57l-12.04,13.21c-1.86,2.04-2.72,4.8-2.36,7.53l2.35,17.82c.28,2.13-1.41,3.81-3.32,3.81-.51,0-1.03-.12-1.53-.38l-14.46-7.45c-1.34-.69-2.81-1.04-4.27-1.04-1.47,0-2.93.35-4.27,1.04l-14.46,7.45c-.5.26-1.03.38-1.53.38-1.91,0-3.61-1.68-3.32-3.81l2.35-17.82c.36-2.73-.5-5.49-2.36-7.52l-12.04-13.22c-1.77-1.95-.73-5.09,1.86-5.57l16.53-3.1c2.86-.54,5.3-2.38,6.61-4.98l7.64-15.17c.62-1.23,1.81-1.85,3-1.85M59.5,0C49.49,0,40.48,5.55,35.98,14.49l-4.6,9.14-9.88,1.85c-9.38,1.76-17.09,8.47-20.12,17.52-3.03,9.05-.92,19.06,5.51,26.12l7.78,8.53-1.52,11.55c-.99,7.53,1.3,15.11,6.3,20.81,5.01,5.71,12.23,8.99,19.81,8.99,4.17,0,8.34-1.01,12.06-2.93l8.2-4.23,8.2,4.23c3.72,1.92,7.89,2.93,12.06,2.93,7.58,0,14.8-3.28,19.81-8.99,5-5.7,7.29-13.28,6.3-20.81l-1.52-11.55,7.78-8.54c6.43-7.06,8.54-17.06,5.51-26.12-3.03-9.05-10.74-15.76-20.12-17.52l-9.89-1.85-4.6-9.14C78.52,5.55,69.5,0,59.5,0h0Z"/>
</svg>