<?xml version="1.0" encoding="UTF-8"?>
<svg id="Layer_1" xmlns="http://www.w3.org/2000/svg" version="1.1" viewBox="0 0 119 119">
  <!-- Generator: Adobe Illustrator 30.1.0, SVG Export Plug-In . SVG Version: 2.1.1 Build 136)  -->
  <path d="M59.5,18.78c1.32,0,2.65.69,3.34,2.06l8.52,16.91c1.46,2.9,4.19,4.95,7.38,5.55l18.43,3.45c2.88.54,4.05,4.04,2.07,6.21l-13.43,14.74c-2.07,2.27-3.04,5.35-2.63,8.4l2.62,19.87c.31,2.37-1.58,4.25-3.71,4.25-.57,0-1.15-.13-1.71-.42l-16.12-8.3c-1.49-.77-3.13-1.15-4.76-1.15s-3.27.38-4.76,1.15l-16.12,8.3c-.56.29-1.14.42-1.71.42-2.13,0-4.02-1.88-3.71-4.25l2.62-19.87c.4-3.05-.56-6.12-2.63-8.39l-13.43-14.74c-1.98-2.17-.81-5.68,2.07-6.22l18.43-3.45c3.19-.6,5.91-2.65,7.37-5.55l8.52-16.91c.69-1.37,2.02-2.06,3.34-2.06M59.5,0C50.94,0,43.24,4.75,39.39,12.39l-6.66,13.22-14.35,2.69c-8.02,1.5-14.61,7.25-17.21,14.99-2.59,7.74-.79,16.3,4.71,22.34l10.81,11.87-2.11,16.03c-.85,6.44,1.11,12.92,5.38,17.79,4.29,4.89,10.46,7.69,16.94,7.69,3.56,0,7.13-.87,10.31-2.51l12.28-6.33,12.28,6.33c3.18,1.64,6.75,2.51,10.31,2.51,6.48,0,12.66-2.8,16.94-7.69,4.27-4.87,6.23-11.35,5.38-17.79l-2.11-16.03,10.82-11.87c5.5-6.03,7.3-14.59,4.71-22.34-2.59-7.74-9.18-13.48-17.2-14.98l-14.36-2.69-6.66-13.22C75.76,4.75,68.05,0,59.5,0h0Z"/>
</svg>