<?xml version="1.0" encoding="UTF-8"?>
<svg id="Layer_1" xmlns="http://www.w3.org/2000/svg" version="1.1" viewBox="0 0 119 119">
  <!-- Generator: Adobe Illustrator 30.1.0, SVG Export Plug-In . SVG Version: 2.1.1 Build 136)  -->
  <path d="M59.5,25.06c1.12,0,2.24.58,2.82,1.74l7.2,14.3c1.24,2.45,3.54,4.19,6.24,4.7l15.59,2.92c2.44.46,3.43,3.42,1.75,5.25l-11.36,12.46c-1.75,1.92-2.57,4.52-2.23,7.1l2.22,16.8c.26,2-1.33,3.59-3.14,3.59-.48,0-.97-.11-1.45-.36l-13.63-7.02c-1.26-.65-2.65-.98-4.03-.98s-2.76.33-4.03.98l-13.63,7.02c-.48.24-.97.36-1.45.36-1.8,0-3.4-1.59-3.14-3.59l2.22-16.81c.34-2.58-.47-5.18-2.22-7.1l-11.36-12.46c-1.67-1.84-.68-4.8,1.75-5.26l15.58-2.92c2.69-.5,5-2.24,6.24-4.69l7.21-14.3c.59-1.16,1.7-1.74,2.82-1.74M59.5,0C48.78,0,39.12,5.95,34.29,15.53l-3.59,7.12-7.67,1.44c-10.05,1.88-18.32,9.08-21.57,18.78-3.25,9.7-.99,20.43,5.9,27.99l6.27,6.88-1.23,9.32c-1.06,8.06,1.4,16.19,6.75,22.3,5.37,6.12,13.11,9.63,21.23,9.63,4.47,0,8.94-1.09,12.92-3.14l6.18-3.18,6.18,3.18c3.99,2.05,8.45,3.14,12.92,3.14,8.13,0,15.86-3.51,21.23-9.63,5.35-6.11,7.82-14.24,6.75-22.3l-1.23-9.32,6.27-6.88c6.89-7.56,9.15-18.29,5.9-27.99-3.25-9.7-11.51-16.9-21.56-18.78l-7.68-1.44-3.59-7.12C79.88,5.95,70.22,0,59.5,0h0Z"/>
</svg>