<?xml version="1.0" encoding="UTF-8"?>
<svg id="Layer_1" xmlns="http://www.w3.org/2000/svg" version="1.1" viewBox="0 0 86 86">
  <!-- Generator: Adobe Illustrator 30.1.0, SVG Export Plug-In . SVG Version: 2.1.1 Build 136)  -->
  <g>
    <g>
      <rect x="39.83" y="25.6" width="6.35" height="6.35"/>
      <path d="M44.83,26.95v3.66h-3.66v-3.66h3.66M47.52,24.26h-9.03v9.03h9.03v-9.03h0Z"/>
    </g>
    <g>
      <polygon points="36.17 59.56 36.17 53.21 39.83 53.21 39.83 44.48 36.17 44.48 36.17 38.13 46.17 38.13 46.17 53.21 49.83 53.21 49.83 59.56 36.17 59.56"/>
      <path d="M44.83,39.48v15.08h3.66v3.66h-10.98v-3.66h3.66v-11.42h-3.66v-3.66h7.32M47.52,36.79h-12.69v9.03h3.66v6.05h-3.66v9.03h16.35v-9.03h-3.66v-15.08h0Z"/>
    </g>
  </g>
  <circle id="Outer" cx="43" cy="43" r="34.7" fill="none" stroke="#000" stroke-width="16.61"/>
</svg>