<?xml version="1.0" encoding="UTF-8"?>
<svg id="Layer_1" xmlns="http://www.w3.org/2000/svg" version="1.1" viewBox="0 0 93 93">
  <!-- Generator: Adobe Illustrator 30.1.0, SVG Export Plug-In . SVG Version: 2.1.1 Build 136)  -->
  <g>
    <g>
      <rect x="43.07" y="27.69" width="6.86" height="6.86"/>
      <path d="M48.48,29.14v3.96h-3.96v-3.96h3.96M51.38,26.24h-9.77v9.77h9.77v-9.77h0Z"/>
    </g>
    <g>
      <polygon points="39.11 64.41 39.11 57.55 43.07 57.55 43.07 48.1 39.11 48.1 39.11 41.24 49.93 41.24 49.93 57.55 53.89 57.55 53.89 64.41 39.11 64.41"/>
      <path d="M48.48,42.69v16.31h3.96v3.96h-11.87v-3.96h3.96v-12.35h-3.96v-3.96h7.91M51.38,39.79h-13.72v9.77h3.96v6.54h-3.96v9.77h17.68v-9.77h-3.96v-16.31h0Z"/>
    </g>
  </g>
  <circle id="Outer" cx="46.5" cy="46.5" r="37.52" fill="none" stroke="#000" stroke-width="17.96"/>
</svg>