<?xml version="1.0" encoding="UTF-8"?>
<svg id="Layer_1" xmlns="http://www.w3.org/2000/svg" version="1.1" viewBox="0 0 45 45">
  <!-- Generator: Adobe Illustrator 30.1.0, SVG Export Plug-In . SVG Version: 2.1.1 Build 136)  -->
  <path d="M22.5,7.1c.5,0,1,.26,1.26.78l3.22,6.39c.55,1.1,1.58,1.87,2.79,2.1l6.97,1.31c1.09.2,1.53,1.53.78,2.35l-5.08,5.57c-.78.86-1.15,2.02-1,3.18l.99,7.51c.12.9-.6,1.61-1.4,1.61-.21,0-.43-.05-.65-.16l-6.1-3.14c-.57-.29-1.18-.44-1.8-.44s-1.24.15-1.8.44l-6.1,3.14c-.21.11-.43.16-.65.16-.81,0-1.52-.71-1.4-1.61l.99-7.52c.15-1.15-.21-2.31-.99-3.17l-5.08-5.57c-.75-.82-.31-2.15.78-2.35l6.97-1.31c1.2-.23,2.24-1,2.79-2.1l3.22-6.4c.26-.52.76-.78,1.26-.78M22.5,0C19.26,0,16.35,1.8,14.89,4.69l-2.52,5-5.43,1.02c-3.03.57-5.53,2.74-6.51,5.67-.98,2.93-.3,6.16,1.78,8.45l4.09,4.49-.8,6.06c-.32,2.43.42,4.89,2.04,6.73,1.62,1.85,3.96,2.91,6.41,2.91,1.35,0,2.69-.33,3.9-.95l4.65-2.39,4.65,2.39c1.2.62,2.55.95,3.9.95,2.45,0,4.79-1.06,6.41-2.91,1.61-1.84,2.36-4.29,2.04-6.73l-.8-6.06,4.09-4.49c2.08-2.28,2.76-5.52,1.78-8.45-.98-2.93-3.47-5.1-6.51-5.67l-5.43-1.02-2.52-5C28.65,1.8,25.73,0,22.5,0h0Z"/>
</svg>