<?xml version="1.0" encoding="UTF-8"?>
<svg id="Layer_1" xmlns="http://www.w3.org/2000/svg" version="1.1" viewBox="0 0 105 105">
  <!-- Generator: Adobe Illustrator 30.1.0, SVG Export Plug-In . SVG Version: 2.1.1 Build 136)  -->
  <path d="M52.5,16.57c1.17,0,2.34.61,2.95,1.82l7.52,14.92c1.29,2.56,3.7,4.37,6.51,4.9l16.26,3.05c2.54.48,3.57,3.57,1.83,5.48l-11.85,13c-1.83,2.01-2.68,4.72-2.32,7.41l2.31,17.53c.28,2.09-1.39,3.75-3.27,3.75-.5,0-1.01-.12-1.51-.37l-14.22-7.33c-1.32-.68-2.76-1.02-4.2-1.02s-2.88.34-4.2,1.02l-14.22,7.33c-.5.26-1.01.37-1.51.37-1.88,0-3.55-1.66-3.27-3.75l2.31-17.54c.35-2.69-.49-5.4-2.32-7.4l-11.85-13c-1.75-1.92-.71-5.01,1.83-5.48l16.26-3.05c2.81-.53,5.22-2.34,6.51-4.9l7.52-14.92c.61-1.21,1.78-1.82,2.95-1.82M52.5,0C44.95,0,38.15,4.19,34.75,10.93l-5.88,11.66-12.66,2.37c-7.08,1.33-12.89,6.39-15.18,13.22-2.29,6.83-.7,14.38,4.16,19.71l9.54,10.47-1.87,14.14c-.75,5.68.98,11.4,4.75,15.7,3.78,4.31,9.23,6.79,14.95,6.79,3.14,0,6.29-.76,9.1-2.21l10.84-5.58,10.84,5.58c2.81,1.45,5.95,2.21,9.1,2.21,5.72,0,11.17-2.47,14.95-6.79,3.77-4.3,5.5-10.02,4.75-15.7l-1.87-14.14,9.54-10.47c4.85-5.32,6.44-12.88,4.16-19.71-2.29-6.83-8.1-11.89-15.18-13.22l-12.67-2.37-5.88-11.66C66.85,4.19,60.05,0,52.5,0h0Z"/>
</svg>