<?xml version="1.0" encoding="UTF-8"?>
<svg id="Layer_1" xmlns="http://www.w3.org/2000/svg" version="1.1" viewBox="0 0 105 105">
  <!-- Generator: Adobe Illustrator 30.1.0, SVG Export Plug-In . SVG Version: 2.1.1 Build 136)  -->
  <path d="M52.5,22.12c.99,0,1.98.51,2.49,1.54l6.36,12.62c1.09,2.17,3.13,3.7,5.5,4.14l13.75,2.58c2.15.4,3.02,3.02,1.55,4.64l-10.02,10.99c-1.55,1.7-2.26,3.99-1.96,6.27l1.96,14.82c.23,1.77-1.18,3.17-2.77,3.17-.42,0-.86-.1-1.28-.31l-12.03-6.19c-1.12-.57-2.33-.86-3.55-.86s-2.44.29-3.55.86l-12.03,6.19c-.42.22-.85.31-1.28.31-1.59,0-3-1.4-2.77-3.17l1.96-14.83c.3-2.27-.42-4.57-1.96-6.26l-10.02-11c-1.48-1.62-.6-4.23,1.55-4.64l13.75-2.58c2.38-.45,4.41-1.98,5.5-4.14l6.36-12.62c.52-1.02,1.5-1.54,2.49-1.54M52.5,0C43.04,0,34.51,5.25,30.26,13.7l-3.17,6.28-6.77,1.27c-8.87,1.66-16.16,8.01-19.03,16.57-2.87,8.56-.87,18.03,5.21,24.7l5.53,6.07-1.09,8.23c-.94,7.12,1.23,14.29,5.96,19.68,4.74,5.4,11.56,8.5,18.73,8.5,3.94,0,7.88-.96,11.4-2.77l5.46-2.81,5.46,2.81c3.52,1.81,7.46,2.77,11.4,2.77,7.17,0,14-3.1,18.73-8.5,4.72-5.39,6.9-12.56,5.96-19.68l-1.09-8.23,5.53-6.07c6.08-6.67,8.08-16.14,5.21-24.7-2.87-8.56-10.16-14.91-19.03-16.57l-6.77-1.27-3.16-6.28C70.48,5.25,61.96,0,52.5,0h0Z"/>
</svg>