<?xml version="1.0" encoding="UTF-8"?>
<svg id="Layer_1" xmlns="http://www.w3.org/2000/svg" version="1.1" viewBox="0 0 105 105">
  <!-- Generator: Adobe Illustrator 30.1.0, SVG Export Plug-In . SVG Version: 2.1.1 Build 136)  -->
  <path d="M52.5,20.28c1.05,0,2.1.54,2.64,1.63l6.74,13.38c1.16,2.3,3.32,3.92,5.84,4.39l14.58,2.73c2.28.43,3.21,3.2,1.64,4.92l-10.63,11.66c-1.64,1.8-2.4,4.23-2.08,6.65l2.07,15.72c.25,1.88-1.25,3.36-2.93,3.36-.45,0-.91-.1-1.35-.33l-12.76-6.57c-1.18-.61-2.48-.91-3.77-.91-1.29,0-2.59.3-3.77.91l-12.76,6.57c-.45.23-.91.33-1.35.33-1.69,0-3.18-1.49-2.93-3.36l2.07-15.73c.32-2.41-.44-4.84-2.08-6.64l-10.63-11.66c-1.57-1.72-.64-4.49,1.64-4.92l14.58-2.73c2.52-.47,4.68-2.1,5.83-4.39l6.74-13.38c.55-1.09,1.6-1.63,2.64-1.63M52.5,0C43.67,0,35.72,4.9,31.75,12.78l-4.06,8.07-8.72,1.63c-8.28,1.55-15.08,7.48-17.75,15.46-2.68,7.99-.81,16.82,4.86,23.05l6.86,7.53-1.34,10.19c-.88,6.64,1.15,13.33,5.56,18.36,4.42,5.04,10.79,7.93,17.48,7.93,3.68,0,7.36-.89,10.64-2.58l7.24-3.73,7.24,3.73c3.28,1.69,6.96,2.58,10.64,2.58,6.69,0,13.06-2.89,17.48-7.93,4.41-5.03,6.43-11.72,5.56-18.36l-1.34-10.19,6.86-7.53c5.67-6.23,7.54-15.06,4.86-23.04-2.68-7.99-9.48-13.91-17.75-15.46l-8.73-1.64-4.06-8.07C69.28,4.9,61.33,0,52.5,0h0Z"/>
</svg>