<?xml version="1.0" encoding="UTF-8"?>
<svg id="Layer_1" xmlns="http://www.w3.org/2000/svg" version="1.1" viewBox="0 0 105 105">
  <!-- Generator: Adobe Illustrator 30.1.0, SVG Export Plug-In . SVG Version: 2.1.1 Build 136)  -->
  <path d="M52.5,7.28c1.47,0,2.94.76,3.71,2.29l9.46,18.78c1.62,3.22,4.65,5.5,8.19,6.17l20.46,3.84c3.2.6,4.5,4.49,2.3,6.9l-14.91,16.36c-2.3,2.52-3.37,5.94-2.92,9.33l2.91,22.06c.35,2.63-1.75,4.72-4.12,4.72-.63,0-1.27-.15-1.9-.47l-17.9-9.22c-1.66-.85-3.47-1.28-5.29-1.28s-3.63.43-5.29,1.28l-17.9,9.22c-.62.32-1.27.47-1.9.47-2.37,0-4.46-2.08-4.12-4.72l2.91-22.07c.45-3.39-.62-6.8-2.92-9.32l-14.91-16.36c-2.2-2.41-.9-6.3,2.3-6.9l20.46-3.84c3.54-.66,6.56-2.94,8.19-6.16l9.46-18.78c.77-1.52,2.24-2.29,3.71-2.29M52.5,0C48.15,0,44.24,2.41,42.28,6.29l-9.46,18.78c-.6,1.18-1.73,2.04-3.02,2.28l-20.46,3.84c-4.07.76-7.42,3.68-8.74,7.61-1.32,3.94-.4,8.29,2.39,11.35l14.91,16.36c.85.94,1.25,2.2,1.08,3.46l-2.91,22.07c-.43,3.27.56,6.57,2.73,9.04,2.18,2.49,5.32,3.92,8.61,3.92,1.8,0,3.61-.44,5.23-1.28l17.9-9.22c.6-.31,1.28-.47,1.95-.47s1.35.16,1.95.47l17.9,9.22c1.62.84,3.43,1.28,5.23,1.28,3.29,0,6.43-1.43,8.61-3.92,2.17-2.47,3.16-5.76,2.73-9.04l-2.91-22.06c-.17-1.26.23-2.53,1.09-3.47l14.91-16.36c2.79-3.07,3.71-7.42,2.39-11.35-1.32-3.93-4.67-6.85-8.74-7.61l-20.46-3.84c-1.3-.24-2.43-1.1-3.03-2.28l-9.46-18.78C60.76,2.41,56.84,0,52.5,0h0Z"/>
</svg>