<?xml version="1.0" encoding="UTF-8"?>
<svg id="Layer_1" xmlns="http://www.w3.org/2000/svg" version="1.1" viewBox="0 0 105 105">
  <!-- Generator: Adobe Illustrator 30.1.0, SVG Export Plug-In . SVG Version: 2.1.1 Build 136)  -->
  <path d="M52.5,12.83c1.29,0,2.58.67,3.25,2.01l8.3,16.47c1.42,2.83,4.08,4.83,7.19,5.41l17.95,3.37c2.81.53,3.95,3.94,2.02,6.05l-13.08,14.36c-2.02,2.21-2.96,5.21-2.56,8.18l2.55,19.36c.3,2.31-1.54,4.14-3.61,4.14-.55,0-1.12-.13-1.67-.41l-15.7-8.09c-1.46-.75-3.05-1.12-4.64-1.12-1.59,0-3.18.37-4.64,1.12l-15.7,8.09c-.55.28-1.12.41-1.67.41-2.08,0-3.92-1.83-3.61-4.14l2.55-19.36c.39-2.97-.55-5.96-2.56-8.17l-13.08-14.36c-1.93-2.11-.79-5.53,2.02-6.06l17.95-3.37c3.1-.58,5.76-2.58,7.18-5.41l8.3-16.48c.67-1.34,1.96-2.01,3.25-2.01M52.5,0h0c-6.26,0-11.89,3.47-14.71,9.06l-7.7,15.29-16.64,3.12c-5.87,1.1-10.69,5.3-12.59,10.96-1.9,5.67-.58,11.93,3.45,16.34l12.25,13.44-2.39,18.14c-.62,4.71.81,9.45,3.94,13.01,3.14,3.58,7.66,5.63,12.4,5.63,2.6,0,5.21-.63,7.54-1.83l14.47-7.45,14.47,7.45c2.33,1.2,4.94,1.83,7.54,1.83,4.74,0,9.26-2.05,12.4-5.63,3.12-3.56,4.56-8.3,3.94-13.01l-2.39-18.13,12.25-13.44c4.02-4.41,5.34-10.68,3.45-16.34-1.9-5.66-6.72-9.86-12.59-10.96l-16.64-3.12-7.7-15.29C64.39,3.47,58.76,0,52.5,0h0Z"/>
</svg>