<?xml version="1.0" encoding="UTF-8"?>
<svg id="Layer_1" xmlns="http://www.w3.org/2000/svg" version="1.1" viewBox="0 0 105 105">
  <!-- Generator: Adobe Illustrator 30.1.0, SVG Export Plug-In . SVG Version: 2.1.1 Build 136)  -->
  <path d="M52.5,9.12c1.41,0,2.82.73,3.56,2.19l9.08,18.01c1.56,3.09,4.46,5.28,7.86,5.91l19.63,3.68c3.07.58,4.31,4.31,2.21,6.62l-14.3,15.7c-2.21,2.42-3.23,5.7-2.8,8.95l2.79,21.16c.33,2.52-1.68,4.52-3.95,4.52-.6,0-1.22-.14-1.82-.45l-17.17-8.84c-1.59-.82-3.33-1.23-5.07-1.23-1.74,0-3.48.41-5.07,1.23l-17.17,8.84c-.6.31-1.22.45-1.82.45-2.27,0-4.28-2-3.95-4.52l2.79-21.17c.43-3.25-.6-6.52-2.8-8.94l-14.31-15.7c-2.11-2.31-.86-6.05,2.21-6.62l19.63-3.68c3.39-.64,6.3-2.82,7.85-5.91l9.08-18.02c.74-1.46,2.15-2.19,3.56-2.19M52.5,0C47.52,0,43.04,2.76,40.79,7.21l-9.08,18.02c-.27.55-.79.94-1.39,1.05l-19.63,3.68c-4.67.88-8.51,4.22-10.01,8.72-1.51,4.51-.46,9.49,2.74,13.01l14.31,15.7c.39.43.58,1.02.5,1.6l-2.79,21.17c-.49,3.75.65,7.52,3.13,10.35,2.5,2.85,6.09,4.49,9.87,4.49,2.07,0,4.14-.51,6-1.46l17.17-8.84c.28-.14.58-.22.9-.22.31,0,.62.08.9.22l17.17,8.84c1.86.96,3.93,1.46,6,1.46,3.77,0,7.37-1.63,9.86-4.49,2.48-2.83,3.62-6.61,3.13-10.35l-2.79-21.16c-.08-.59.11-1.18.5-1.61l14.3-15.7c3.2-3.51,4.25-8.5,2.74-13.01-1.51-4.51-5.35-7.85-10.01-8.72l-19.63-3.68c-.6-.11-1.12-.51-1.39-1.05l-9.08-18.01C61.96,2.76,57.48,0,52.5,0h0Z"/>
</svg>