<?xml version="1.0" encoding="UTF-8"?>
<svg id="Layer_1" xmlns="http://www.w3.org/2000/svg" version="1.1" viewBox="0 0 57 57">
  <!-- Generator: Adobe Illustrator 30.1.0, SVG Export Plug-In . SVG Version: 2.1.1 Build 136)  -->
  <g>
    <g>
      <rect x="26.4" y="16.97" width="4.21" height="4.21"/>
      <path d="M29.71,17.86v2.42h-2.42v-2.42h2.42M31.49,16.08h-5.99v5.99h5.99v-5.99h0Z"/>
    </g>
    <g>
      <polygon points="23.97 39.48 23.97 35.27 26.4 35.27 26.4 29.48 23.97 29.48 23.97 25.28 30.6 25.28 30.6 35.27 33.03 35.27 33.03 39.48 23.97 39.48"/>
      <path d="M29.71,26.17v9.99h2.42v2.42h-7.27v-2.42h2.42v-7.57h-2.42v-2.42h4.85M31.49,24.38h-8.41v5.99h2.42v4.01h-2.42v5.99h10.84v-5.99h-2.42v-9.99h0Z"/>
    </g>
  </g>
  <circle id="Outer" cx="28.5" cy="28.5" r="23" fill="none" stroke="#000" stroke-width="11.01"/>
</svg>