<?xml version="1.0" encoding="UTF-8"?>
<svg id="Layer_1" xmlns="http://www.w3.org/2000/svg" version="1.1" viewBox="0 0 57 57">
  <!-- Generator: Adobe Illustrator 30.1.0, SVG Export Plug-In . SVG Version: 2.1.1 Build 136)  -->
  <g>
    <g>
      <rect x="26.49" y="14.79" width="4.01" height="4.01"/>
      <path d="M30.15,15.15v3.3h-3.3v-3.3h3.3M30.86,14.44h-4.73v4.73h4.73v-4.73h0Z"/>
    </g>
    <g>
      <polygon points="23.19 42.12 23.19 38.11 26.49 38.11 26.49 28.51 23.19 28.51 23.19 24.5 30.51 24.5 30.51 38.11 33.81 38.11 33.81 42.12 23.19 42.12"/>
      <path d="M30.15,24.86v13.61h3.3v3.3h-9.9v-3.3h3.3v-10.31h-3.3v-3.3h6.6M30.86,24.14h-8.03v4.73h3.3v8.88h-3.3v4.73h11.33v-4.73h-3.3v-13.61h0Z"/>
    </g>
  </g>
  <circle id="Outer" cx="28.5" cy="28.5" r="26.02" fill="none" stroke="#000" stroke-width="4.95"/>
</svg>