<?xml version="1.0" encoding="UTF-8"?>
<svg id="Layer_1" xmlns="http://www.w3.org/2000/svg" version="1.1" viewBox="0 0 57 57">
  <!-- Generator: Adobe Illustrator 30.1.0, SVG Export Plug-In . SVG Version: 2.1.1 Build 136)  -->
  <g>
    <g>
      <rect x="26.46" y="15.52" width="4.07" height="4.07"/>
      <path d="M30,16.05v3h-3v-3h3M31.07,14.98h-5.14v5.14h5.14v-5.14h0Z"/>
    </g>
    <g>
      <polygon points="23.46 41.23 23.46 37.16 26.46 37.16 26.46 28.84 23.46 28.84 23.46 24.77 30.54 24.77 30.54 37.16 33.54 37.16 33.54 41.23 23.46 41.23"/>
      <path d="M30,25.3v12.39h3v3h-9.01v-3h3v-9.38h-3v-3h6.01M31.07,24.24h-8.15v5.14h3v7.24h-3v5.14h11.15v-5.14h-3v-12.39h0Z"/>
    </g>
  </g>
  <circle id="Outer" cx="28.5" cy="28.5" r="25.02" fill="none" stroke="#000" stroke-width="6.96"/>
</svg>