<?xml version="1.0" encoding="UTF-8"?>
<svg id="Layer_1" xmlns="http://www.w3.org/2000/svg" version="1.1" viewBox="0 0 57 57">
  <!-- Generator: Adobe Illustrator 30.1.0, SVG Export Plug-In . SVG Version: 2.1.1 Build 136)  -->
  <g>
    <g>
      <rect x="26.51" y="14.43" width="3.99" height="3.98"/>
      <path d="M30.23,14.7v3.45h-3.45v-3.45h3.45M30.76,14.16h-4.52v4.52h4.52v-4.52h0Z"/>
    </g>
    <g>
      <polygon points="23.06 42.57 23.06 38.58 26.51 38.58 26.51 28.35 23.06 28.35 23.06 24.36 30.49 24.36 30.49 38.58 33.94 38.58 33.94 42.57 23.06 42.57"/>
      <path d="M30.23,24.63v14.22h3.45v3.45h-10.35v-3.45h3.45v-10.77h-3.45v-3.45h6.9M30.76,24.09h-7.97v4.52h3.45v9.7h-3.45v4.52h11.42v-4.52h-3.45v-14.22h0Z"/>
    </g>
  </g>
  <circle id="Outer" cx="28.5" cy="28.5" r="26.52" fill="none" stroke="#000" stroke-width="3.95"/>
</svg>