<?xml version="1.0" encoding="UTF-8"?>
<svg id="Layer_1" xmlns="http://www.w3.org/2000/svg" version="1.1" viewBox="0 0 57 57">
  <!-- Generator: Adobe Illustrator 30.1.0, SVG Export Plug-In . SVG Version: 2.1.1 Build 136)  -->
  <g>
    <g>
      <rect x="26.38" y="17.33" width="4.24" height="4.24"/>
      <path d="M29.64,18.31v2.29h-2.29v-2.29h2.29M31.6,16.35h-6.2v6.2h6.2v-6.2h0Z"/>
    </g>
    <g>
      <polygon points="24.09 39.05 24.09 34.81 26.38 34.81 26.38 29.63 24.09 29.63 24.09 25.39 30.62 25.39 30.62 34.81 32.91 34.81 32.91 39.05 24.09 39.05"/>
      <path d="M29.64,26.37v9.42h2.29v2.29h-6.86v-2.29h2.29v-7.13h-2.29v-2.29h4.57M31.6,24.41h-8.49v6.2h2.29v3.22h-2.29v6.2h10.77v-6.2h-2.29v-9.42h0Z"/>
    </g>
  </g>
  <circle id="Outer" cx="28.5" cy="28.5" r="22.5" fill="none" stroke="#000" stroke-width="12.01"/>
</svg>