<?xml version="1.0" encoding="UTF-8"?>
<svg id="Layer_1" xmlns="http://www.w3.org/2000/svg" version="1.1" viewBox="0 0 50 50">
  <!-- Generator: Adobe Illustrator 30.1.0, SVG Export Plug-In . SVG Version: 2.1.1 Build 136)  -->
  <circle id="Outer" cx="25" cy="25" r="19.73" fill="none" stroke="#000" stroke-width="10.53"/>
  <g>
    <g>
      <rect x="23.38" y="30.89" width="3.21" height="3.21"/>
      <path d="M25.73,31.75v1.49h-1.49v-1.49h1.49M27.45,30.03h-4.93v4.93h4.93v-4.93h0Z"/>
    </g>
    <g>
      <path d="M23.39,28.04v-1.42c0-.93.33-1.81.95-2.49l1.48-1.63c.26-.29.41-.66.41-1.05,0-.41-.34-.74-.75-.74h-.95c-.41,0-.75.33-.75.74v.86h-3.22v-.86c0-2.18,1.78-3.95,3.97-3.95h.95c2.19,0,3.97,1.77,3.97,3.95,0,1.18-.44,2.32-1.23,3.2l-1.48,1.64c-.09.1-.13.21-.13.34v1.42h-3.21Z"/>
      <path d="M25.47,18.36c1.72,0,3.11,1.39,3.11,3.09,0,.97-.36,1.9-1.01,2.62l-1.48,1.64c-.23.25-.36.57-.36.91v.56h-1.5v-.56c0-.71.26-1.38.73-1.91l1.48-1.64c.4-.45.63-1.03.63-1.63,0-.88-.72-1.6-1.61-1.6h-.95c-.89,0-1.61.72-1.61,1.6h-1.5c0-1.7,1.4-3.09,3.11-3.09h.95M25.47,16.64h-.95c-2.66,0-4.83,2.16-4.83,4.81v1.72h4.36l-.35.39c-.76.84-1.18,1.92-1.18,3.05v.59s.02,1.7.02,1.7h4.9l.02-1.7v-.43s1.4-1.54,1.4-1.54c.94-1.04,1.45-2.38,1.45-3.77,0-2.65-2.17-4.81-4.83-4.81h0ZM24.64,21.57h.72c-.02.13-.08.25-.17.35l-.55.6v-.96h0Z"/>
    </g>
  </g>
</svg>