<?xml version="1.0" encoding="UTF-8"?>
<svg id="Layer_1" xmlns="http://www.w3.org/2000/svg" version="1.1" viewBox="0 0 50 50">
  <!-- Generator: Adobe Illustrator 30.1.0, SVG Export Plug-In . SVG Version: 2.1.1 Build 136)  -->
  <circle id="Outer" cx="25" cy="25" r="22.83" fill="none" stroke="#000" stroke-width="4.34"/>
  <g>
    <g>
      <rect x="23.42" y="33.25" width="3.13" height="3.13"/>
      <path d="M26.24,33.57v2.5h-2.5v-2.5h2.5M26.86,32.94h-3.75v3.75h3.75v-3.75h0Z"/>
    </g>
    <g>
      <path d="M23.42,29.8v-1.26c0-1.27.46-2.48,1.31-3.41l2.48-2.75c.63-.69.97-1.59.97-2.52,0-1.31-1.07-2.37-2.39-2.37h-1.59c-1.32,0-2.39,1.06-2.39,2.37v.31h-3.15v-.31c0-3.04,2.49-5.51,5.54-5.51h1.59c3.06,0,5.54,2.47,5.54,5.51,0,1.71-.63,3.35-1.78,4.62l-2.48,2.75c-.34.37-.52.83-.52,1.32v1.26h-3.14Z"/>
      <path d="M25.8,14.67c2.88,0,5.23,2.33,5.23,5.19,0,1.63-.6,3.19-1.7,4.41l-2.48,2.75c-.38.43-.6.95-.6,1.53v.95h-2.51v-.95c0-1.19.43-2.32,1.23-3.2l2.48-2.75c.68-.75,1.05-1.72,1.05-2.73,0-1.48-1.21-2.68-2.7-2.68h-1.59c-1.49,0-2.7,1.2-2.7,2.68h-2.53c0-2.86,2.35-5.19,5.23-5.19h1.59M25.8,14.04h-1.59c-3.23,0-5.86,2.61-5.86,5.82v.62h3.78v-.62c0-1.14.93-2.06,2.08-2.06h1.59c1.15,0,2.08.92,2.08,2.06,0,.85-.32,1.68-.89,2.31l-2.48,2.75c-.9.99-1.4,2.28-1.4,3.62v.96s.01.62.01.62h3.74v-.62s.02-.95.02-.95c0-.41.15-.8.44-1.11l2.48-2.75c1.2-1.33,1.86-3.04,1.86-4.83,0-3.21-2.63-5.82-5.86-5.82h0Z"/>
    </g>
  </g>
</svg>