<?xml version="1.0" encoding="UTF-8"?>
<svg id="Layer_1" xmlns="http://www.w3.org/2000/svg" version="1.1" viewBox="0 0 50 50">
  <!-- Generator: Adobe Illustrator 30.1.0, SVG Export Plug-In . SVG Version: 2.1.1 Build 136)  -->
  <circle id="Outer" cx="25" cy="25" r="21.05" fill="none" stroke="#000" stroke-width="7.89"/>
  <g>
    <g>
      <rect x="23.41" y="31.91" width="3.15" height="3.15"/>
      <path d="M25.94,32.54v1.9h-1.9v-1.9h1.9M27.19,31.29h-4.4v4.4h4.4v-4.4h0Z"/>
    </g>
    <g>
      <path d="M23.42,28.73v-1.34c0-1.06.38-2.07,1.09-2.86l1.88-2.09c.41-.46.64-1.04.64-1.65,0-.78-.64-1.41-1.43-1.41h-1.21c-.79,0-1.43.63-1.43,1.41v.62h-3.17v-.62c0-2.52,2.06-4.57,4.6-4.57h1.21c2.53,0,4.6,2.05,4.6,4.57,0,1.39-.51,2.73-1.45,3.76l-1.88,2.09c-.19.21-.29.47-.29.74v1.34h-3.15Z"/>
      <path d="M25.6,16.85c2.19,0,3.97,1.77,3.97,3.94,0,1.24-.46,2.42-1.29,3.35l-1.88,2.09c-.29.32-.45.72-.45,1.16v.72h-1.91v-.72c0-.9.33-1.76.94-2.43l1.88-2.09c.52-.57.8-1.31.8-2.07,0-1.12-.92-2.04-2.05-2.04h-1.21c-1.13,0-2.05.91-2.05,2.04h-1.92c0-2.17,1.78-3.94,3.97-3.94h1.21M25.6,15.6h-1.21c-2.88,0-5.22,2.33-5.22,5.19v1.25h4.42v-1.25c0-.43.36-.79.8-.79h1.21c.44,0,.8.35.8.79,0,.46-.17.9-.48,1.24l-1.88,2.09c-.81.9-1.26,2.06-1.26,3.26v.73s.02,1.24.02,1.24h4.38v-1.24s.02-.72.02-.72c0-.13.04-.23.13-.33l1.88-2.09c1.04-1.15,1.61-2.64,1.61-4.18,0-2.86-2.34-5.19-5.22-5.19h0Z"/>
    </g>
  </g>
</svg>