<?xml version="1.0" encoding="UTF-8"?>
<svg id="Layer_1" xmlns="http://www.w3.org/2000/svg" version="1.1" viewBox="0 0 50 50">
  <!-- Generator: Adobe Illustrator 30.1.0, SVG Export Plug-In . SVG Version: 2.1.1 Build 136)  -->
  <circle id="Outer" cx="25" cy="25" r="21.95" fill="none" stroke="#000" stroke-width="6.11"/>
  <g>
    <g>
      <rect x="23.42" y="32.59" width="3.14" height="3.13"/>
      <path d="M26.08,33.06v2.2h-2.2v-2.2h2.2M27.02,32.12h-4.07v4.07h4.07v-4.07h0Z"/>
    </g>
    <g>
      <path d="M23.42,29.25v-1.3c0-1.16.42-2.27,1.2-3.13l2.18-2.41c.52-.57.8-1.31.8-2.08,0-1.04-.85-1.89-1.9-1.89h-1.4c-1.05,0-1.9.85-1.9,1.89v.47h-3.15v-.47c0-2.77,2.27-5.02,5.06-5.02h1.4c2.79,0,5.06,2.25,5.06,5.02,0,1.55-.57,3.03-1.61,4.18l-2.18,2.41c-.26.29-.4.65-.4,1.02v1.3h-3.14Z"/>
      <path d="M25.7,15.77c2.53,0,4.59,2.04,4.59,4.56,0,1.43-.53,2.8-1.49,3.87l-2.18,2.41c-.34.37-.52.84-.53,1.34v.83h-2.21v-.83c0-1.04.38-2.03,1.08-2.81l2.18-2.41c.6-.66.92-1.51.92-2.4,0-1.3-1.06-2.36-2.37-2.36h-1.4c-1.31,0-2.37,1.06-2.37,2.36h-2.22c0-2.51,2.06-4.56,4.59-4.56h1.4M25.7,14.84h-1.4c-3.05,0-5.53,2.46-5.53,5.49v.94h4.09v-.94c0-.78.64-1.42,1.43-1.42h1.4c.79,0,1.43.64,1.43,1.42,0,.65-.24,1.28-.68,1.77l-2.18,2.41c-.85.94-1.33,2.16-1.33,3.43v.84s.02.93.02.93h4.05v-.93s.02-.83.02-.83c0-.27.1-.51.28-.72l2.18-2.41c1.12-1.24,1.73-2.83,1.73-4.49,0-3.03-2.48-5.49-5.53-5.49h0Z"/>
    </g>
  </g>
</svg>