<?xml version="1.0" encoding="UTF-8"?>
<svg id="Layer_1" xmlns="http://www.w3.org/2000/svg" version="1.1" viewBox="0 0 50 50">
  <!-- Generator: Adobe Illustrator 30.1.0, SVG Export Plug-In . SVG Version: 2.1.1 Build 136)  -->
  <circle id="Outer" cx="25" cy="25" r="23.27" fill="none" stroke="#000" stroke-width="3.47"/>
  <g>
    <g>
      <rect x="23.42" y="33.58" width="3.13" height="3.13"/>
      <path d="M26.32,33.82v2.66h-2.66v-2.66h2.66M26.78,33.35h-3.6v3.6h3.6v-3.6h0Z"/>
    </g>
    <g>
      <path d="M23.42,30.09v-1.24c0-1.32.48-2.58,1.37-3.56l2.64-2.92c.68-.76,1.06-1.73,1.06-2.75,0-1.44-1.18-2.62-2.64-2.62h-1.69c-1.46,0-2.64,1.17-2.64,2.62v.23h-3.15v-.23c0-3.17,2.6-5.75,5.79-5.75h1.69c3.19,0,5.79,2.58,5.79,5.75,0,1.79-.66,3.51-1.87,4.84l-2.64,2.92c-.38.42-.57.92-.58,1.46v1.24h-3.14Z"/>
      <path d="M25.85,14.11c3.06,0,5.56,2.48,5.56,5.52,0,1.73-.64,3.39-1.8,4.68l-2.64,2.92c-.41.45-.63,1.01-.64,1.62v1.01h-2.67v-1.01c0-1.26.46-2.46,1.31-3.4l2.64-2.92c.72-.8,1.12-1.83,1.12-2.9,0-1.57-1.29-2.85-2.87-2.85h-1.69c-1.58,0-2.87,1.28-2.87,2.85h-2.69c0-3.04,2.49-5.52,5.56-5.52h1.69M25.85,13.64h-1.69c-3.32,0-6.03,2.69-6.03,5.99v.47h3.62v-.47c0-1.31,1.08-2.38,2.4-2.38h1.69c1.33,0,2.4,1.07,2.4,2.38,0,.96-.35,1.88-1,2.59l-2.64,2.92c-.92,1.02-1.43,2.34-1.44,3.71v1.01s.01.46.01.46h3.59v-.46s.01-1.01.01-1.01c0-.49.18-.94.52-1.31l2.64-2.92c1.24-1.38,1.93-3.15,1.93-5,0-3.3-2.7-5.99-6.03-5.99h0Z"/>
    </g>
  </g>
</svg>