<?xml version="1.0" encoding="UTF-8"?>
<svg id="Layer_1" xmlns="http://www.w3.org/2000/svg" version="1.1" viewBox="0 0 50 50">
  <!-- Generator: Adobe Illustrator 30.1.0, SVG Export Plug-In . SVG Version: 2.1.1 Build 136)  -->
  <circle id="Outer" cx="25" cy="25" r="20.17" fill="none" stroke="#000" stroke-width="9.66"/>
  <g>
    <g>
      <rect x="23.4" y="31.23" width="3.19" height="3.18"/>
      <path d="M25.8,32.01v1.62h-1.62v-1.62h1.62M27.36,30.45h-4.75v4.75h4.75v-4.75h0Z"/>
    </g>
    <g>
      <path d="M23.41,28.26v-1.39c0-.97.35-1.89.99-2.6l1.61-1.78c.31-.34.48-.79.48-1.25,0-.53-.44-.96-.97-.96h-1.03c-.54,0-.97.43-.97.96v.78h-3.2v-.78c0-2.29,1.87-4.15,4.17-4.15h1.03c2.3,0,4.17,1.86,4.17,4.15,0,1.25-.46,2.45-1.3,3.38l-1.61,1.78c-.12.14-.19.29-.19.47v1.39h-3.18Z"/>
      <path d="M25.52,17.87c1.87,0,3.39,1.51,3.39,3.36,0,1.06-.39,2.07-1.1,2.86l-1.61,1.78c-.25.28-.39.62-.39.99v.61h-1.63v-.61c0-.77.28-1.5.8-2.07l1.61-1.78c.44-.49.68-1.12.68-1.77,0-.96-.79-1.74-1.75-1.74h-1.03c-.97,0-1.75.78-1.75,1.74h-1.64c0-1.86,1.52-3.36,3.39-3.36h1.03M25.52,16.31h-1.03c-2.73,0-4.95,2.21-4.95,4.93v1.56h4.76v-1.56c0-.1.09-.18.19-.18h1.03c.1,0,.19.08.19.18,0,.27-.1.52-.28.72l-1.61,1.78c-.77.86-1.2,1.96-1.21,3.12v.63s.02,1.55.02,1.55h4.72l.02-1.55v-.59s1.6-1.77,1.6-1.77c.97-1.07,1.5-2.46,1.5-3.9,0-2.72-2.22-4.93-4.95-4.93h0Z"/>
    </g>
  </g>
</svg>