<?xml version="1.0" encoding="UTF-8"?>
<svg id="Layer_1" xmlns="http://www.w3.org/2000/svg" version="1.1" viewBox="0 0 37 37">
  <!-- Generator: Adobe Illustrator 30.1.0, SVG Export Plug-In . SVG Version: 2.1.1 Build 136)  -->
  <path d="M18.5,2.57c.52,0,1.04.27,1.31.81l3.33,6.62c.57,1.14,1.64,1.94,2.89,2.17l7.21,1.35c1.13.21,1.58,1.58.81,2.43l-5.25,5.77c-.81.89-1.19,2.09-1.03,3.29l1.03,7.77c.12.93-.62,1.66-1.45,1.66-.22,0-.45-.05-.67-.16l-6.31-3.25c-.58-.3-1.22-.45-1.86-.45-.64,0-1.28.15-1.86.45l-6.31,3.25c-.22.11-.45.16-.67.16-.83,0-1.57-.73-1.45-1.66l1.03-7.78c.16-1.19-.22-2.39-1.03-3.28l-5.25-5.77c-.77-.85-.32-2.22.81-2.43l7.21-1.35c1.25-.23,2.31-1.04,2.89-2.17l3.33-6.62c.27-.54.79-.81,1.31-.81M18.5,0C16.97,0,15.59.85,14.9,2.22l-3.33,6.62c-.21.42-.61.72-1.07.8l-7.21,1.35c-1.44.27-2.62,1.3-3.08,2.68-.46,1.39-.14,2.92.84,4l5.25,5.77c.3.33.44.77.38,1.22l-1.03,7.78c-.15,1.15.2,2.31.96,3.18.77.88,1.88,1.38,3.03,1.38.64,0,1.27-.16,1.84-.45l6.31-3.25c.21-.11.45-.17.69-.17.24,0,.48.06.69.17l6.31,3.25c.57.29,1.21.45,1.84.45,1.16,0,2.26-.5,3.03-1.38.76-.87,1.11-2.03.96-3.18l-1.03-7.77c-.06-.45.08-.89.38-1.22l5.25-5.77c.98-1.08,1.31-2.61.84-4-.46-1.39-1.64-2.41-3.08-2.68l-7.21-1.35c-.46-.09-.86-.39-1.07-.8l-3.33-6.62C21.41.85,20.03,0,18.5,0h0Z"/>
</svg>