<?xml version="1.0" encoding="UTF-8"?>
<svg id="Layer_1" xmlns="http://www.w3.org/2000/svg" version="1.1" viewBox="0 0 119 119">
  <!-- Generator: Adobe Illustrator 30.1.0, SVG Export Plug-In . SVG Version: 2.1.1 Build 136)  -->
  <path d="M59.5,8.26c1.67,0,3.33.86,4.2,2.59l10.72,21.28c1.84,3.65,5.27,6.24,9.28,6.99l23.19,4.35c3.63.68,5.1,5.09,2.61,7.82l-16.9,18.54c-2.61,2.86-3.82,6.73-3.31,10.57l3.3,25c.39,2.98-1.98,5.35-4.67,5.35-.71,0-1.44-.17-2.15-.53l-20.29-10.45c-1.88-.97-3.94-1.45-5.99-1.45-2.06,0-4.11.48-5.99,1.45l-20.29,10.45c-.71.36-1.44.53-2.15.53-2.68,0-5.06-2.36-4.67-5.35l3.3-25.01c.51-3.84-.71-7.7-3.31-10.56l-16.9-18.54c-2.49-2.73-1.02-7.14,2.61-7.82l23.19-4.35c4.01-.75,7.44-3.33,9.28-6.98l10.72-21.28c.87-1.73,2.54-2.59,4.2-2.59M59.5,0c-4.92,0-9.36,2.73-11.58,7.13l-10.72,21.28c-.68,1.34-1.96,2.31-3.43,2.58l-23.19,4.35c-4.62.87-8.41,4.17-9.91,8.63-1.49,4.46-.45,9.39,2.71,12.87l16.9,18.54c.97,1.06,1.41,2.49,1.23,3.92l-3.3,25.01c-.49,3.71.64,7.44,3.09,10.24,2.47,2.82,6.03,4.44,9.76,4.44,2.04,0,4.09-.5,5.93-1.45l20.29-10.45c.68-.35,1.45-.54,2.21-.54.77,0,1.53.19,2.21.54l20.29,10.45c1.84.95,3.89,1.45,5.93,1.45,3.73,0,7.28-1.62,9.76-4.44,2.45-2.8,3.58-6.53,3.09-10.24l-3.3-25c-.19-1.43.26-2.87,1.23-3.93l16.9-18.54c3.17-3.48,4.21-8.41,2.71-12.87-1.49-4.46-5.29-7.76-9.9-8.63l-23.19-4.35c-1.47-.28-2.76-1.24-3.43-2.59l-10.72-21.28c-2.22-4.4-6.65-7.13-11.58-7.13h0Z"/>
</svg>