<?xml version="1.0" encoding="UTF-8"?>
<svg id="Layer_1" xmlns="http://www.w3.org/2000/svg" version="1.1" viewBox="0 0 119 119">
  <!-- Generator: Adobe Illustrator 30.1.0, SVG Export Plug-In . SVG Version: 2.1.1 Build 136)  -->
  <path d="M59.5,14.54c1.46,0,2.92.76,3.69,2.27l9.41,18.67c1.61,3.2,4.63,5.47,8.15,6.13l20.35,3.81c3.18.6,4.47,4.46,2.29,6.86l-14.83,16.27c-2.29,2.51-3.35,5.91-2.91,9.28l2.89,21.94c.35,2.62-1.74,4.69-4.09,4.69-.62,0-1.27-.15-1.89-.47l-17.8-9.17c-1.65-.85-3.45-1.27-5.26-1.27-1.8,0-3.61.42-5.26,1.27l-17.8,9.17c-.62.32-1.26.47-1.89.47-2.35,0-4.44-2.07-4.09-4.69l2.89-21.94c.44-3.37-.62-6.76-2.9-9.26l-14.83-16.27c-2.18-2.4-.89-6.27,2.29-6.86l20.35-3.81c3.52-.66,6.53-2.92,8.14-6.13l9.41-18.67c.76-1.52,2.23-2.27,3.69-2.27M59.5,0c-7.09,0-13.48,3.94-16.67,10.27l-8.73,17.33-18.86,3.53c-6.65,1.25-12.12,6.01-14.27,12.42-2.15,6.42-.65,13.52,3.91,18.52l13.88,15.23-2.71,20.55c-.7,5.34.92,10.71,4.46,14.75,3.56,4.06,8.68,6.38,14.05,6.38,2.95,0,5.9-.72,8.54-2.08l16.4-8.45,16.4,8.45c2.64,1.36,5.6,2.08,8.54,2.08,5.37,0,10.49-2.33,14.05-6.38,3.54-4.04,5.16-9.41,4.46-14.75l-2.71-20.55,13.88-15.23c4.56-5,6.06-12.1,3.91-18.52-2.15-6.42-7.61-11.18-14.26-12.42l-18.86-3.54-8.73-17.33c-3.19-6.34-9.58-10.27-16.67-10.27h0Z"/>
</svg>