<?xml version="1.0" encoding="UTF-8"?>
<svg id="Layer_1" xmlns="http://www.w3.org/2000/svg" version="1.1" viewBox="0 0 119 119">
  <!-- Generator: Adobe Illustrator 30.1.0, SVG Export Plug-In . SVG Version: 2.1.1 Build 136)  -->
  <path d="M59.5,10.34c1.6,0,3.2.83,4.03,2.49l10.29,20.42c1.76,3.5,5.06,5.98,8.91,6.7l22.25,4.17c3.48.65,4.89,4.88,2.5,7.5l-16.21,17.79c-2.5,2.74-3.66,6.46-3.18,10.14l3.16,23.99c.38,2.86-1.9,5.13-4.48,5.13-.68,0-1.38-.16-2.06-.51l-19.46-10.02c-1.8-.93-3.78-1.39-5.75-1.39-1.97,0-3.94.46-5.75,1.39l-19.46,10.02c-.68.35-1.38.51-2.06.51-2.57,0-4.85-2.27-4.48-5.13l3.16-23.99c.49-3.68-.68-7.39-3.17-10.13l-16.21-17.79c-2.39-2.62-.98-6.85,2.5-7.5l22.25-4.17c3.85-.72,7.14-3.2,8.9-6.7l10.29-20.42c.84-1.66,2.43-2.49,4.03-2.49M59.5,0C53.86,0,48.77,3.13,46.23,8.17l-10.29,20.42c-.31.62-.9,1.06-1.57,1.19l-22.25,4.17c-5.29.99-9.64,4.78-11.35,9.89-1.71,5.11-.52,10.76,3.11,14.74l16.21,17.79c.45.49.65,1.15.57,1.82l-3.16,23.99c-.56,4.25.73,8.53,3.54,11.73,2.83,3.23,6.91,5.08,11.18,5.08,2.34,0,4.69-.57,6.8-1.66l19.46-10.02c.32-.16.66-.25,1.01-.25.35,0,.7.09,1.02.25l19.46,10.02c2.1,1.08,4.45,1.66,6.8,1.66,4.27,0,8.35-1.85,11.18-5.08,2.81-3.21,4.11-7.49,3.54-11.73l-3.16-23.99c-.09-.67.12-1.33.57-1.83l16.21-17.79c3.63-3.98,4.82-9.63,3.11-14.74-1.71-5.11-6.06-8.89-11.35-9.88l-22.25-4.17c-.68-.13-1.27-.57-1.58-1.19l-10.29-20.42C70.22,3.13,65.14,0,59.5,0h0Z"/>
</svg>