<?xml version="1.0" encoding="UTF-8"?>
<svg id="Layer_1" xmlns="http://www.w3.org/2000/svg" version="1.1" viewBox="0 0 72 72">
  <!-- Generator: Adobe Illustrator 30.1.0, SVG Export Plug-In . SVG Version: 2.1.1 Build 136)  -->
  <path d="M36,11.36c.8,0,1.6.42,2.02,1.25l5.15,10.23c.88,1.76,2.53,3,4.46,3.36l11.15,2.09c1.74.33,2.45,2.45,1.25,3.76l-8.12,8.92c-1.25,1.38-1.84,3.24-1.59,5.08l1.59,12.02c.19,1.43-.95,2.57-2.24,2.57-.34,0-.69-.08-1.03-.26l-9.75-5.02c-.9-.47-1.89-.7-2.88-.7s-1.98.23-2.88.7l-9.75,5.02c-.34.18-.69.26-1.03.26-1.29,0-2.43-1.14-2.24-2.57l1.59-12.02c.24-1.84-.34-3.7-1.59-5.08l-8.12-8.92c-1.2-1.31-.49-3.43,1.26-3.76l11.15-2.09c1.93-.36,3.58-1.6,4.46-3.36l5.16-10.23c.42-.83,1.22-1.25,2.02-1.25M36,0C30.82,0,26.16,2.87,23.83,7.5l-4.03,8-8.68,1.63c-4.85.91-8.84,4.38-10.41,9.07-1.57,4.69-.48,9.86,2.85,13.52l6.54,7.18-1.28,9.7c-.51,3.89.67,7.82,3.26,10.76,2.59,2.96,6.33,4.65,10.25,4.65,2.15,0,4.31-.52,6.24-1.52l7.43-3.83,7.43,3.83c1.93.99,4.08,1.52,6.24,1.52,3.92,0,7.66-1.7,10.25-4.65,2.58-2.95,3.77-6.87,3.26-10.76l-1.28-9.7,6.54-7.18c3.33-3.65,4.42-8.83,2.85-13.51-1.57-4.68-5.56-8.16-10.41-9.07l-8.69-1.63-4.03-8C45.84,2.87,41.18,0,36,0h0Z"/>
</svg>