<?xml version="1.0" encoding="UTF-8"?>
<svg id="Layer_1" xmlns="http://www.w3.org/2000/svg" version="1.1" viewBox="0 0 72 72">
  <!-- Generator: Adobe Illustrator 30.1.0, SVG Export Plug-In . SVG Version: 2.1.1 Build 136)  -->
  <path d="M36,8.8c.88,0,1.77.46,2.23,1.38l5.69,11.3c.98,1.94,2.8,3.31,4.93,3.71l12.31,2.31c1.92.36,2.71,2.7,1.39,4.15l-8.97,9.84c-1.38,1.52-2.03,3.57-1.76,5.61l1.75,13.27c.21,1.58-1.05,2.84-2.48,2.84-.38,0-.77-.09-1.14-.28l-10.77-5.55c-1-.51-2.09-.77-3.18-.77-1.09,0-2.18.26-3.18.77l-10.77,5.55c-.38.19-.76.28-1.14.28-1.42,0-2.69-1.25-2.48-2.84l1.75-13.28c.27-2.04-.37-4.09-1.76-5.61l-8.97-9.84c-1.32-1.45-.54-3.79,1.39-4.15l12.31-2.31c2.13-.4,3.95-1.77,4.93-3.71l5.69-11.3c.46-.92,1.35-1.38,2.23-1.38M36,0C31.71,0,27.84,2.38,25.91,6.22l-5.28,10.49-11.41,2.14c-4.02.75-7.33,3.63-8.63,7.52-1.3,3.89-.4,8.18,2.36,11.21l8.4,9.21-1.64,12.44c-.43,3.23.56,6.48,2.7,8.92,2.15,2.45,5.25,3.86,8.5,3.86,1.78,0,3.57-.44,5.17-1.26l9.92-5.11,9.92,5.11c1.6.82,3.39,1.26,5.17,1.26,3.25,0,6.35-1.41,8.5-3.86,2.14-2.44,3.12-5.69,2.7-8.92l-1.64-12.44,8.4-9.22c2.76-3.03,3.66-7.32,2.36-11.21-1.3-3.88-4.61-6.76-8.63-7.52l-11.41-2.14-5.28-10.49C44.16,2.38,40.29,0,36,0h0Z"/>
</svg>