<?xml version="1.0" encoding="UTF-8"?>
<svg id="Layer_1" xmlns="http://www.w3.org/2000/svg" version="1.1" viewBox="0 0 72 72">
  <!-- Generator: Adobe Illustrator 30.1.0, SVG Export Plug-In . SVG Version: 2.1.1 Build 136)  -->
  <path d="M36,6.25c.97,0,1.93.5,2.44,1.5l6.22,12.35c1.07,2.12,3.06,3.62,5.39,4.06l13.46,2.52c2.1.39,2.96,2.95,1.51,4.54l-9.81,10.76c-1.51,1.66-2.22,3.91-1.92,6.14l1.91,14.51c.23,1.73-1.15,3.1-2.71,3.1-.41,0-.84-.1-1.25-.31l-11.78-6.06c-1.09-.56-2.29-.84-3.48-.84-1.19,0-2.39.28-3.48.84l-11.78,6.06c-.41.21-.84.31-1.25.31-1.56,0-2.94-1.37-2.71-3.1l1.91-14.52c.29-2.23-.41-4.47-1.92-6.13l-9.81-10.76c-1.45-1.59-.59-4.15,1.52-4.54l13.46-2.52c2.33-.44,4.32-1.93,5.39-4.05l6.22-12.35c.51-1,1.47-1.5,2.44-1.5M36,0C32.59,0,29.51,1.89,27.97,4.95l-6.22,12.35c-.19.37-.54.64-.95.72l-13.46,2.52c-3.2.6-5.83,2.89-6.87,5.98-1.04,3.09-.32,6.51,1.88,8.92l9.81,10.76c.27.3.4.7.34,1.1l-1.91,14.52c-.34,2.57.44,5.16,2.14,7.1,1.71,1.95,4.18,3.08,6.76,3.08,1.42,0,2.84-.35,4.11-1l11.78-6.06c.19-.1.4-.15.61-.15.21,0,.43.05.61.15l11.78,6.06c1.27.66,2.7,1,4.11,1,2.59,0,5.05-1.12,6.76-3.08,1.7-1.94,2.48-4.53,2.14-7.1l-1.91-14.51c-.05-.4.07-.81.35-1.11l9.81-10.76c2.2-2.41,2.92-5.83,1.88-8.92-1.03-3.09-3.67-5.38-6.87-5.98l-13.46-2.52c-.41-.08-.77-.35-.96-.72l-6.22-12.35C42.49,1.89,39.41,0,36,0h0Z"/>
</svg>