<?xml version="1.0" encoding="UTF-8"?>
<svg id="Layer_1" xmlns="http://www.w3.org/2000/svg" version="1.1" viewBox="0 0 111 111">
  <!-- Generator: Adobe Illustrator 30.1.0, SVG Export Plug-In . SVG Version: 2.1.1 Build 136)  -->
  <g>
    <g>
      <rect x="51.47" y="31.64" width="8.05" height="8.05"/>
      <path d="M58.14,33.03v5.28h-5.28v-5.28h5.28M60.91,30.26h-10.83v10.83h10.83v-10.83h0Z"/>
    </g>
    <g>
      <polygon points="46.19 78.56 46.19 70.5 51.47 70.5 51.47 56.8 46.19 56.8 46.19 48.75 59.53 48.75 59.53 70.5 64.81 70.5 64.81 78.56 46.19 78.56"/>
      <path d="M58.14,50.13v21.76h5.28v5.28h-15.84v-5.28h5.28v-16.48h-5.28v-5.28h10.56M60.91,47.36h-16.11v10.83h5.28v10.93h-5.28v10.83h21.39v-10.83h-5.28v-21.76h0Z"/>
    </g>
  </g>
  <circle id="Outer" cx="55.5" cy="55.5" r="46.74" fill="none" stroke="#000" stroke-width="17.52"/>
</svg>