<?xml version="1.0" encoding="UTF-8"?>
<svg id="Layer_1" xmlns="http://www.w3.org/2000/svg" version="1.1" viewBox="0 0 111 111">
  <!-- Generator: Adobe Illustrator 30.1.0, SVG Export Plug-In . SVG Version: 2.1.1 Build 136)  -->
  <g>
    <g>
      <rect x="51.4" y="33.05" width="8.19" height="8.19"/>
      <path d="M57.86,34.78v4.72h-4.72v-4.72h4.72M61.33,31.31h-11.66v11.66h11.66v-11.66h0Z"/>
    </g>
    <g>
      <polygon points="46.68 76.87 46.68 68.68 51.4 68.68 51.4 57.41 46.68 57.41 46.68 49.22 59.6 49.22 59.6 68.68 64.32 68.68 64.32 76.87 46.68 76.87"/>
      <path d="M57.86,50.95v19.46h4.72v4.72h-14.17v-4.72h4.72v-14.74h-4.72v-4.72h9.44M61.33,47.49h-16.38v11.66h4.72v7.8h-4.72v11.66h21.1v-11.66h-4.72v-19.46h0Z"/>
    </g>
  </g>
  <circle id="Outer" cx="55.5" cy="55.5" r="44.78" fill="none" stroke="#000" stroke-width="21.44"/>
</svg>