<?xml version="1.0" encoding="UTF-8"?>
<svg id="Layer_1" xmlns="http://www.w3.org/2000/svg" version="1.1" viewBox="0 0 103 103">
  <!-- Generator: Adobe Illustrator 30.1.0, SVG Export Plug-In . SVG Version: 2.1.1 Build 136)  -->
  <circle id="Outer" cx="51.5" cy="51.5" r="43.37" fill="none" stroke="#000" stroke-width="16.25"/>
  <g>
    <g>
      <rect x="48.23" y="65.74" width="6.49" height="6.49"/>
      <path d="M53.43,67.03v3.92h-3.92v-3.92h3.92M56.01,64.45h-9.07v9.07h9.07v-9.07h0Z"/>
    </g>
    <g>
      <path d="M48.24,59.18l-.02-2.76c0-2.19.81-4.27,2.27-5.88l3.88-4.3c.85-.94,1.32-2.15,1.32-3.41,0-1.6-1.32-2.91-2.94-2.91h-2.49c-1.62,0-2.94,1.31-2.94,2.91v1.29h-6.53v-1.29c0-5.19,4.25-9.41,9.47-9.41h2.49c5.22,0,9.47,4.22,9.47,9.41,0,2.87-1.06,5.62-2.99,7.75l-3.88,4.3c-.39.44-.6.96-.61,1.53l-.03,2.76h-6.47Z"/>
      <path d="M52.75,34.71c4.51,0,8.18,3.64,8.18,8.12,0,2.55-.94,4.99-2.66,6.89l-3.88,4.3c-.6.66-.93,1.49-.94,2.39v1.48h-3.93v-1.48c0-1.86.68-3.63,1.93-5.01l3.88-4.3c1.06-1.18,1.65-2.69,1.65-4.27,0-2.31-1.9-4.2-4.23-4.2h-2.49c-2.33,0-4.23,1.88-4.23,4.2h-3.95c0-4.48,3.67-8.12,8.18-8.12h2.49M52.75,32.14h-2.49c-5.93,0-10.75,4.8-10.75,10.7v2.58h9.1v-2.58c0-.89.74-1.62,1.65-1.62h2.49c.91,0,1.65.73,1.65,1.62,0,.94-.35,1.84-.98,2.55l-3.88,4.3c-1.67,1.85-2.59,4.23-2.6,6.72v1.51s.04,2.55.04,2.55h9.02l.03-2.55v-1.48c.02-.27.1-.48.29-.68l3.88-4.3c2.14-2.37,3.32-5.43,3.32-8.62,0-5.9-4.82-10.7-10.75-10.7h0Z"/>
    </g>
  </g>
</svg>