<?xml version="1.0" encoding="UTF-8"?>
<svg id="Layer_1" xmlns="http://www.w3.org/2000/svg" version="1.1" viewBox="0 0 103 103">
  <!-- Generator: Adobe Illustrator 30.1.0, SVG Export Plug-In . SVG Version: 2.1.1 Build 136)  -->
  <circle id="Outer" cx="51.5" cy="51.5" r="40.65" fill="none" stroke="#000" stroke-width="21.69"/>
  <g>
    <g>
      <rect x="48.17" y="63.64" width="6.61" height="6.61"/>
      <path d="M53.01,65.41v3.07h-3.07v-3.07h3.07M56.55,61.87h-10.15v10.15h10.15v-10.15h0Z"/>
    </g>
    <g>
      <path d="M48.19,57.76l-.03-2.92c0-1.91.71-3.73,1.98-5.13l3.04-3.37c.54-.6.83-1.36.83-2.16,0-.84-.69-1.52-1.54-1.52h-1.95c-.85,0-1.54.68-1.54,1.52v1.77h-6.64v-1.77c0-4.49,3.67-8.14,8.18-8.14h1.95c4.51,0,8.18,3.65,8.18,8.14,0,2.44-.9,4.77-2.54,6.59l-3.04,3.37c-.18.2-.28.44-.28.69l-.03,2.92h-6.58Z"/>
      <path d="M52.48,37.82c3.54,0,6.41,2.86,6.41,6.37,0,2-.74,3.92-2.08,5.4l-3.04,3.37c-.47.52-.73,1.17-.73,1.87v1.16h-3.08v-1.16c0-1.46.53-2.84,1.51-3.93l3.04-3.37c.83-.92,1.29-2.11,1.29-3.35,0-1.81-1.49-3.29-3.31-3.29h-1.95c-1.83,0-3.31,1.48-3.31,3.29h-3.1c0-3.51,2.88-6.37,6.41-6.37h1.95M52.48,34.28h-1.95c-5.49,0-9.95,4.44-9.95,9.91v3.54h8.99l-.73.81c-1.56,1.72-2.43,3.96-2.43,6.28v1.21s.04,3.51.04,3.51h10.09l.04-3.5v-.89s2.88-3.18,2.88-3.18c1.93-2.14,2.99-4.9,2.99-7.78,0-5.46-4.46-9.91-9.95-9.91h0ZM50.75,44.44h1.48c-.05.27-.17.52-.36.73l-1.12,1.24v-1.97h0Z"/>
    </g>
  </g>
</svg>