<?xml version="1.0" encoding="UTF-8"?>
<svg id="Layer_1" xmlns="http://www.w3.org/2000/svg" version="1.1" viewBox="0 0 103 103">
  <!-- Generator: Adobe Illustrator 30.1.0, SVG Export Plug-In . SVG Version: 2.1.1 Build 136)  -->
  <circle id="Outer" cx="51.5" cy="51.5" r="41.55" fill="none" stroke="#000" stroke-width="19.89"/>
  <g>
    <g>
      <rect x="48.19" y="64.34" width="6.56" height="6.56"/>
      <path d="M53.15,65.95v3.34h-3.34v-3.34h3.34M56.37,62.73h-9.78v9.78h9.78v-9.78h0Z"/>
    </g>
    <g>
      <path d="M48.22,58.21l-.03-2.86c0-2,.74-3.9,2.07-5.37l3.31-3.67c.64-.71.99-1.62.99-2.57,0-1.09-.9-1.97-2-1.97h-2.13c-1.1,0-2,.89-2,1.97v1.61h-6.59v-1.61c0-4.71,3.85-8.54,8.59-8.54h2.13c4.74,0,8.59,3.83,8.59,8.54,0,2.57-.95,5.05-2.68,6.96l-3.31,3.67c-.25.28-.38.61-.38.96l-.03,2.87h-6.53Z"/>
      <path d="M52.56,36.81c3.85,0,6.98,3.11,6.98,6.93,0,2.17-.81,4.26-2.27,5.88l-3.31,3.67c-.51.57-.8,1.27-.8,2.04v1.26h-3.36v-1.26c0-1.58.58-3.09,1.64-4.27l3.31-3.67c.91-1,1.41-2.3,1.41-3.65,0-1.98-1.62-3.58-3.61-3.58h-2.13c-1.99,0-3.61,1.61-3.61,3.58h-3.37c0-3.82,3.13-6.93,6.98-6.93h2.13M52.56,33.6h-2.13c-5.62,0-10.2,4.55-10.2,10.15v3.22h9.81v-3.22c0-.2.18-.36.39-.36h2.13c.21,0,.39.17.39.36,0,.55-.2,1.08-.58,1.49l-3.31,3.67c-1.59,1.76-2.48,4.04-2.49,6.42v1.3s.04,3.19.04,3.19h9.72l.03-3.19v-1.21s3.29-3.64,3.29-3.64c2-2.21,3.1-5.07,3.1-8.04,0-5.6-4.58-10.15-10.2-10.15h0Z"/>
    </g>
  </g>
</svg>