<?xml version="1.0" encoding="UTF-8"?>
<svg id="Layer_1" xmlns="http://www.w3.org/2000/svg" version="1.1" viewBox="0 0 103 103">
  <!-- Generator: Adobe Illustrator 30.1.0, SVG Export Plug-In . SVG Version: 2.1.1 Build 136)  -->
  <circle id="Outer" cx="51.5" cy="51.5" r="47.93" fill="none" stroke="#000" stroke-width="7.15"/>
  <g>
    <g>
      <rect x="48.24" y="69.18" width="6.45" height="6.45"/>
      <path d="M54.21,69.66v5.48h-5.48v-5.48h5.48M55.17,68.7h-7.41v7.41h7.41v-7.41h0Z"/>
    </g>
    <g>
      <path d="M48.25,61.99l-.02-2.55c0-2.72,1.02-5.32,2.84-7.34l5.43-6.02c1.41-1.56,2.18-3.57,2.18-5.66,0-2.97-2.44-5.39-5.44-5.39h-3.49c-3,0-5.44,2.42-5.44,5.39v.48h-6.5v-.48c0-6.54,5.35-11.85,11.93-11.85h3.49c6.58,0,11.93,5.32,11.93,11.85,0,3.68-1.36,7.23-3.84,9.97l-5.43,6.02c-.77.86-1.18,1.9-1.19,3.02l-.02,2.55h-6.44Z"/>
      <path d="M53.24,29.06c6.31,0,11.45,5.1,11.45,11.37,0,3.57-1.32,6.99-3.72,9.65l-5.43,6.02c-.84.93-1.31,2.09-1.31,3.34l-.02,2.07h-5.48l-.02-2.07c0-2.6.97-5.08,2.72-7.01l5.43-6.02c1.49-1.65,2.31-3.77,2.31-5.98,0-3.24-2.66-5.88-5.92-5.88h-3.49c-3.26,0-5.92,2.64-5.92,5.88h-5.53c0-6.27,5.14-11.37,11.45-11.37h3.49M53.24,28.09h-3.49c-6.85,0-12.42,5.53-12.42,12.34v.97h7.46v-.97c0-2.71,2.22-4.91,4.95-4.91h3.49c2.73,0,4.95,2.2,4.95,4.91,0,1.97-.73,3.87-2.06,5.33l-5.43,6.02c-1.9,2.1-2.95,4.82-2.96,7.65l.02,2.09v.96h7.4v-.96s.03-2.07.03-2.07c0-1.01.37-1.94,1.06-2.7l5.43-6.02c2.56-2.83,3.97-6.49,3.97-10.29,0-6.8-5.57-12.34-12.42-12.34h0Z"/>
    </g>
  </g>
</svg>