<?xml version="1.0" encoding="UTF-8"?>
<svg id="Layer_1" xmlns="http://www.w3.org/2000/svg" version="1.1" viewBox="0 0 103 103">
  <!-- Generator: Adobe Illustrator 30.1.0, SVG Export Plug-In . SVG Version: 2.1.1 Build 136)  -->
  <circle id="Outer" cx="51.5" cy="51.5" r="47.03" fill="none" stroke="#000" stroke-width="8.95"/>
  <g>
    <g>
      <rect x="48.25" y="68.51" width="6.45" height="6.45"/>
      <path d="M54.05,69.15v5.16h-5.16v-5.16h5.16M55.34,67.86h-7.73v7.73h7.73v-7.73h0Z"/>
    </g>
    <g>
      <path d="M48.25,61.39l-.02-2.59c0-2.61.98-5.1,2.72-7.03l5.11-5.66c1.29-1.43,2-3.28,2-5.2,0-2.69-2.21-4.89-4.92-4.89h-3.28c-2.72,0-4.93,2.19-4.93,4.89v.64h-6.49v-.64c0-6.25,5.12-11.34,11.42-11.34h3.28c6.3,0,11.42,5.09,11.42,11.34,0,3.51-1.3,6.89-3.67,9.51l-5.11,5.66c-.7.77-1.06,1.71-1.07,2.71l-.03,2.59h-6.44Z"/>
      <path d="M53.14,30.22c5.94,0,10.77,4.8,10.77,10.7,0,3.36-1.24,6.58-3.5,9.08l-5.11,5.66c-.79.88-1.23,1.96-1.23,3.14l-.02,1.95h-5.16l-.02-1.95c0-2.45.91-4.78,2.56-6.6l5.11-5.66c1.4-1.55,2.17-3.55,2.17-5.63,0-3.05-2.5-5.53-5.57-5.53h-3.28c-3.07,0-5.57,2.48-5.57,5.53h-5.21c0-5.9,4.83-10.7,10.77-10.7h3.28M53.14,28.93h-3.28c-6.65,0-12.06,5.38-12.06,11.99v1.29h7.78v-1.29c0-2.34,1.92-4.24,4.28-4.24h3.28c2.36,0,4.28,1.9,4.28,4.24,0,1.76-.65,3.45-1.84,4.77l-5.11,5.66c-1.85,2.05-2.88,4.69-2.89,7.45l.02,1.97v1.28h7.72v-1.27s.03-1.95.03-1.95c0-.85.31-1.64.9-2.29l5.11-5.66c2.47-2.74,3.83-6.27,3.83-9.94,0-6.61-5.41-11.99-12.06-11.99h0Z"/>
    </g>
  </g>
</svg>