<?xml version="1.0" encoding="UTF-8"?>
<svg id="Layer_1" xmlns="http://www.w3.org/2000/svg" version="1.1" viewBox="0 0 103 103">
  <!-- Generator: Adobe Illustrator 30.1.0, SVG Export Plug-In . SVG Version: 2.1.1 Build 136)  -->
  <circle id="Outer" cx="51.5" cy="51.5" r="45.21" fill="none" stroke="#000" stroke-width="12.59"/>
  <g>
    <g>
      <rect x="48.24" y="67.13" width="6.46" height="6.46"/>
      <path d="M53.73,68.1v4.53h-4.53v-4.53h4.53M55.67,66.17h-8.39v8.39h8.39v-8.39h0Z"/>
    </g>
    <g>
      <path d="M48.25,60.25l-.02-2.67c0-2.39.89-4.68,2.49-6.44l4.48-4.97c1.07-1.18,1.65-2.71,1.65-4.29,0-2.14-1.76-3.89-3.92-3.89h-2.88c-2.16,0-3.92,1.74-3.92,3.89v.97h-6.5v-.97c0-5.71,4.67-10.35,10.42-10.35h2.88c5.74,0,10.42,4.64,10.42,10.35,0,3.18-1.18,6.24-3.32,8.61l-4.48,4.97c-.54.6-.83,1.33-.83,2.11l-.03,2.67h-6.44Z"/>
      <path d="M52.94,32.49c5.21,0,9.45,4.21,9.45,9.39,0,2.94-1.09,5.77-3.07,7.96l-4.48,4.97c-.69.77-1.08,1.72-1.08,2.76l-.02,1.71h-4.53l-.02-1.71c0-2.15.8-4.19,2.24-5.79l4.48-4.97c1.23-1.36,1.9-3.11,1.9-4.94,0-2.67-2.19-4.85-4.89-4.85h-2.88c-2.69,0-4.89,2.18-4.89,4.85h-4.57c0-5.17,4.24-9.39,9.45-9.39h2.88M52.94,30.56h-2.88c-6.28,0-11.38,5.08-11.38,11.32v1.93h8.43v-1.93c0-1.61,1.33-2.92,2.95-2.92h2.88c1.63,0,2.95,1.31,2.95,2.92,0,1.35-.5,2.64-1.41,3.64l-4.48,4.97c-1.76,1.94-2.73,4.46-2.74,7.07l.02,1.74.02,1.91h8.35l.02-1.91.02-1.71c0-.56.2-1.05.58-1.48l4.49-4.97c2.3-2.55,3.57-5.84,3.57-9.26,0-6.24-5.11-11.32-11.38-11.32h0Z"/>
    </g>
  </g>
</svg>