<?xml version="1.0" encoding="UTF-8"?>
<svg id="Layer_1" xmlns="http://www.w3.org/2000/svg" version="1.1" viewBox="0 0 38 38">
  <!-- Generator: Adobe Illustrator 30.1.0, SVG Export Plug-In . SVG Version: 2.1.1 Build 136)  -->
  <path d="M19,8c.36,0,.72.19.9.56l2.3,4.57c.39.78,1.13,1.34,1.99,1.5l4.98.93c.78.15,1.09,1.09.56,1.68l-3.63,3.98c-.56.61-.82,1.44-.71,2.27l.71,5.37c.08.64-.43,1.15-1,1.15-.15,0-.31-.04-.46-.11l-4.35-2.24c-.4-.21-.84-.31-1.29-.31-.44,0-.88.1-1.29.31l-4.35,2.24c-.15.08-.31.11-.46.11-.58,0-1.09-.51-1-1.15l.71-5.37c.11-.82-.15-1.65-.71-2.27l-3.63-3.98c-.53-.59-.22-1.53.56-1.68l4.98-.93c.86-.16,1.6-.72,1.99-1.5l2.3-4.57c.19-.37.54-.56.9-.56M19,0C15.58,0,12.49,1.9,10.95,4.96l-1.15,2.27-2.45.46c-3.21.6-5.85,2.9-6.89,6-1.04,3.1-.32,6.52,1.89,8.94l2,2.2-.39,2.98c-.34,2.58.45,5.17,2.16,7.12,1.71,1.96,4.19,3.08,6.78,3.08,1.43,0,2.85-.35,4.13-1l1.97-1.02,1.97,1.02c1.27.66,2.7,1,4.13,1,2.59,0,5.07-1.12,6.78-3.08,1.71-1.95,2.5-4.55,2.16-7.12l-.39-2.98,2-2.2c2.2-2.41,2.92-5.84,1.89-8.94-1.04-3.1-3.68-5.4-6.89-6l-2.45-.46-1.15-2.27C25.51,1.9,22.42,0,19,0h0Z"/>
</svg>