<?xml version="1.0" encoding="UTF-8"?>
<svg id="Layer_1" xmlns="http://www.w3.org/2000/svg" version="1.1" viewBox="0 0 38 38">
  <!-- Generator: Adobe Illustrator 30.1.0, SVG Export Plug-In . SVG Version: 2.1.1 Build 136)  -->
  <path d="M19,2.64c.53,0,1.06.28,1.34.83l3.42,6.8c.59,1.17,1.68,1.99,2.96,2.23l7.41,1.39c1.16.22,1.63,1.62.83,2.5l-5.4,5.92c-.83.91-1.22,2.15-1.06,3.38l1.05,7.98c.13.95-.63,1.71-1.49,1.71-.23,0-.46-.05-.69-.17l-6.48-3.34c-.6-.31-1.26-.46-1.91-.46-.66,0-1.31.15-1.91.46l-6.48,3.34c-.23.12-.46.17-.69.17-.86,0-1.62-.75-1.49-1.71l1.05-7.99c.16-1.23-.23-2.46-1.06-3.37l-5.4-5.92c-.8-.87-.32-2.28.83-2.5l7.41-1.39c1.28-.24,2.38-1.06,2.96-2.23l3.42-6.8c.28-.55.81-.83,1.34-.83M19,0C17.43,0,16.01.87,15.3,2.28l-3.42,6.8c-.22.43-.62.74-1.09.82l-7.41,1.39c-1.47.28-2.69,1.33-3.16,2.76-.48,1.42-.15,3,.87,4.11l5.4,5.92c.31.34.45.8.39,1.25l-1.05,7.99c-.16,1.18.2,2.38.99,3.27.79.9,1.93,1.42,3.12,1.42.65,0,1.31-.16,1.89-.46l6.48-3.34c.22-.11.46-.17.71-.17.24,0,.49.06.71.17l6.48,3.34c.59.3,1.24.46,1.89.46,1.19,0,2.33-.52,3.12-1.42.78-.89,1.14-2.09.99-3.27l-1.05-7.98c-.06-.46.08-.92.39-1.26l5.4-5.92c1.01-1.11,1.34-2.68.87-4.11-.48-1.42-1.69-2.48-3.16-2.75l-7.41-1.39c-.47-.09-.88-.4-1.1-.83l-3.42-6.8C21.99.87,20.57,0,19,0h0Z"/>
</svg>