<?xml version="1.0" encoding="UTF-8"?>
<svg id="Layer_1" xmlns="http://www.w3.org/2000/svg" version="1.1" viewBox="0 0 38 38">
  <!-- Generator: Adobe Illustrator 30.1.0, SVG Export Plug-In . SVG Version: 2.1.1 Build 136)  -->
  <path d="M19,3.3c.51,0,1.02.26,1.29.79l3.28,6.52c.56,1.12,1.62,1.91,2.84,2.14l7.11,1.33c1.11.21,1.56,1.56.8,2.39l-5.18,5.68c-.8.88-1.17,2.06-1.02,3.24l1.01,7.66c.12.91-.61,1.64-1.43,1.64-.22,0-.44-.05-.66-.16l-6.21-3.2c-.58-.3-1.21-.45-1.84-.45-.63,0-1.26.15-1.84.45l-6.21,3.2c-.22.11-.44.16-.66.16-.82,0-1.55-.72-1.43-1.64l1.01-7.66c.16-1.18-.22-2.36-1.01-3.23l-5.18-5.68c-.76-.84-.31-2.19.8-2.4l7.1-1.33c1.23-.23,2.28-1.02,2.84-2.14l3.28-6.52c.27-.53.78-.79,1.29-.79M19,0C17.2,0,15.57,1,14.76,2.61l-3.28,6.52c-.1.2-.29.34-.5.38l-7.1,1.33c-1.69.32-3.08,1.53-3.62,3.16-.55,1.63-.17,3.44.99,4.71l5.18,5.68c.14.16.21.37.18.58l-1.01,7.66c-.18,1.36.23,2.72,1.13,3.75.9,1.03,2.21,1.62,3.57,1.62.75,0,1.5-.18,2.17-.53l6.21-3.2c.1-.05.21-.08.32-.08.11,0,.22.03.32.08l6.21,3.2c.67.35,1.42.53,2.17.53,1.36,0,2.67-.59,3.57-1.62.9-1.02,1.31-2.39,1.13-3.75l-1.01-7.66c-.03-.21.04-.43.18-.58l5.18-5.68c1.16-1.27,1.54-3.08.99-4.71-.55-1.63-1.93-2.84-3.62-3.16l-7.11-1.33c-.22-.04-.4-.18-.5-.38l-3.28-6.52C22.42,1,20.8,0,19,0h0Z"/>
</svg>