<?xml version="1.0" encoding="UTF-8"?>
<svg id="Layer_1" xmlns="http://www.w3.org/2000/svg" version="1.1" viewBox="0 0 38 38">
  <!-- Generator: Adobe Illustrator 30.1.0, SVG Export Plug-In . SVG Version: 2.1.1 Build 136)  -->
  <path d="M19,4.64c.47,0,.93.24,1.18.73l3,5.96c.52,1.02,1.48,1.75,2.6,1.96l6.5,1.22c1.02.19,1.43,1.43.73,2.19l-4.73,5.2c-.73.8-1.07,1.89-.93,2.96l.92,7c.11.84-.56,1.5-1.31,1.5-.2,0-.4-.05-.6-.15l-5.68-2.93c-.53-.27-1.1-.41-1.68-.41-.58,0-1.15.14-1.68.41l-5.68,2.93c-.2.1-.4.15-.6.15-.75,0-1.42-.66-1.31-1.5l.92-7.01c.14-1.07-.2-2.16-.93-2.96l-4.73-5.2c-.7-.77-.29-2,.73-2.19l6.5-1.22c1.12-.21,2.08-.93,2.6-1.96l3-5.96c.24-.48.71-.73,1.18-.73M19,0C16.73,0,14.69,1.26,13.68,3.28l-2.79,5.53-6.02,1.13c-2.12.4-3.87,1.92-4.56,3.97-.69,2.05-.21,4.32,1.25,5.92l4.43,4.86-.87,6.56c-.22,1.7.29,3.42,1.42,4.71,1.14,1.3,2.77,2.04,4.49,2.04,0,0,0,0,0,0,.94,0,1.89-.23,2.73-.66l5.24-2.7,5.24,2.7c.84.43,1.79.66,2.73.66h0c1.72,0,3.35-.74,4.49-2.04,1.13-1.29,1.65-3.01,1.42-4.71l-.87-6.56,4.43-4.86c1.46-1.6,1.93-3.86,1.25-5.91-.69-2.05-2.43-3.57-4.55-3.97l-6.02-1.13-2.79-5.53C23.3,1.26,21.26,0,19,0h0Z"/>
</svg>