<?xml version="1.0" encoding="UTF-8"?>
<svg id="Layer_1" xmlns="http://www.w3.org/2000/svg" version="1.1" viewBox="0 0 66 66">
  <!-- Generator: Adobe Illustrator 30.1.0, SVG Export Plug-In . SVG Version: 2.1.1 Build 136)  -->
  <g>
    <g>
      <rect x="30.56" y="19.65" width="4.87" height="4.87"/>
      <path d="M34.4,20.68v2.81h-2.81v-2.81h2.81M36.47,18.62h-6.93v6.93h6.93v-6.93h0Z"/>
    </g>
    <g>
      <polygon points="27.76 45.71 27.76 40.84 30.56 40.84 30.56 34.14 27.76 34.14 27.76 29.27 35.44 29.27 35.44 40.84 38.24 40.84 38.24 45.71 27.76 45.71"/>
      <path d="M34.4,30.3v11.57h2.81v2.81h-8.42v-2.81h2.81v-8.77h-2.81v-2.81h5.62M36.47,28.23h-9.74v6.93h2.81v4.64h-2.81v6.93h12.55v-6.93h-2.81v-11.57h0Z"/>
    </g>
  </g>
  <circle id="Outer" cx="33" cy="33" r="26.63" fill="none" stroke="#000" stroke-width="12.75"/>
</svg>