<?xml version="1.0" encoding="UTF-8"?>
<svg id="Layer_1" xmlns="http://www.w3.org/2000/svg" version="1.1" viewBox="0 0 80 80">
  <!-- Generator: Adobe Illustrator 30.1.0, SVG Export Plug-In . SVG Version: 2.1.1 Build 136)  -->
  <circle id="Outer" cx="40" cy="40" r="36.53" fill="none" stroke="#000" stroke-width="6.95"/>
  <g>
    <g>
      <rect x="37.47" y="53.21" width="5.01" height="5.01"/>
      <path d="M41.98,53.71v4.01h-4.01v-4.01h4.01M42.98,52.71h-6.01v6.01h6.01v-6.01h0Z"/>
    </g>
    <g>
      <path d="M37.48,47.69l-.02-2.01c0-2.03.76-3.96,2.11-5.46l3.97-4.4c1-1.11,1.56-2.55,1.56-4.04,0-2.09-1.72-3.8-3.83-3.8h-2.55c-2.11,0-3.83,1.7-3.83,3.8v.5h-5.04v-.5c0-4.86,3.98-8.81,8.87-8.81h2.55c4.89,0,8.87,3.95,8.87,8.81,0,2.73-1.01,5.35-2.85,7.39l-3.97,4.4c-.54.6-.83,1.33-.83,2.11l-.02,2.01h-5Z"/>
      <path d="M41.27,23.47c4.61,0,8.37,3.73,8.37,8.31,0,2.61-.97,5.11-2.72,7.05l-3.97,4.4c-.61.68-.96,1.53-.96,2.44l-.02,1.52h-4.01v-1.52c0-1.9.69-3.71,1.97-5.12l3.97-4.4c1.09-1.2,1.68-2.76,1.68-4.37,0-2.37-1.94-4.3-4.33-4.3h-2.55c-2.38,0-4.33,1.93-4.33,4.3h-4.04c0-4.58,3.75-8.31,8.37-8.31h2.55M41.27,22.47h-2.55c-5.17,0-9.37,4.18-9.37,9.31v1h6.04v-1c0-1.82,1.49-3.3,3.33-3.3h2.55c1.83,0,3.33,1.48,3.33,3.3,0,1.37-.51,2.68-1.43,3.7l-3.97,4.4c-1.44,1.59-2.24,3.65-2.24,5.79v1.53s.02.99.02.99h5.99v-.99s.03-1.52.03-1.52c0-.66.24-1.28.7-1.78l3.97-4.4c1.92-2.13,2.98-4.87,2.98-7.72,0-5.13-4.2-9.31-9.37-9.31h0Z"/>
    </g>
  </g>
</svg>