<?xml version="1.0" encoding="UTF-8"?>
<svg id="Layer_1" xmlns="http://www.w3.org/2000/svg" version="1.1" viewBox="0 0 80 80">
  <!-- Generator: Adobe Illustrator 30.1.0, SVG Export Plug-In . SVG Version: 2.1.1 Build 136)  -->
  <circle id="Outer" cx="40" cy="40" r="31.58" fill="none" stroke="#000" stroke-width="16.85"/>
  <g>
    <g>
      <rect x="37.41" y="49.43" width="5.14" height="5.14"/>
      <path d="M41.17,50.8v2.39h-2.39v-2.39h2.39M43.92,48.05h-7.89v7.89h7.89v-7.89h0Z"/>
    </g>
    <g>
      <path d="M37.43,44.87l-.02-2.26c0-1.48.55-2.89,1.54-3.98l2.36-2.62c.42-.46.65-1.06.65-1.68,0-.65-.54-1.18-1.2-1.18h-1.52c-.66,0-1.2.53-1.2,1.18v1.38h-5.16v-1.38c0-3.49,2.85-6.32,6.36-6.32h1.52c3.5,0,6.36,2.84,6.36,6.32,0,1.89-.7,3.71-1.97,5.12l-2.36,2.62c-.14.16-.21.34-.22.54l-.02,2.27h-5.11Z"/>
      <path d="M40.76,29.38c2.75,0,4.98,2.22,4.98,4.95,0,1.55-.57,3.04-1.62,4.2l-2.36,2.62c-.37.4-.57.91-.57,1.45v.9h-2.39v-.9c0-1.13.41-2.21,1.17-3.05l2.36-2.62c.65-.72,1-1.64,1-2.6,0-1.41-1.15-2.56-2.57-2.56h-1.52c-1.42,0-2.57,1.15-2.57,2.56h-2.41c0-2.73,2.23-4.95,4.98-4.95h1.52M40.76,26.63h-1.52c-4.26,0-7.73,3.45-7.73,7.7v2.75h6.98l-.57.63c-1.21,1.34-1.88,3.07-1.89,4.88v.94s.03,2.73.03,2.73h7.83l.03-2.72v-.69s2.23-2.47,2.23-2.47c1.5-1.66,2.33-3.81,2.33-6.04,0-4.24-3.47-7.7-7.73-7.7h0ZM39.42,34.51h1.15c-.04.21-.13.4-.28.57l-.87.97v-1.53h0Z"/>
    </g>
  </g>
</svg>