<?xml version="1.0" encoding="UTF-8"?>
<svg id="Layer_1" xmlns="http://www.w3.org/2000/svg" version="1.1" viewBox="0 0 80 80">
  <!-- Generator: Adobe Illustrator 30.1.0, SVG Export Plug-In . SVG Version: 2.1.1 Build 136)  -->
  <circle id="Outer" cx="40" cy="40" r="33.69" fill="none" stroke="#000" stroke-width="12.62"/>
  <g>
    <g>
      <rect x="37.46" y="51.06" width="5.04" height="5.04"/>
      <path d="M41.5,52.06v3.04h-3.04v-3.04h3.04M43.5,50.06h-7.04v7.04h7.04v-7.04h0Z"/>
    </g>
    <g>
      <path d="M37.47,45.96l-.02-2.14c0-1.7.63-3.32,1.77-4.57l3.01-3.34c.66-.73,1.02-1.67,1.02-2.65,0-1.25-1.02-2.26-2.28-2.26h-1.94c-1.26,0-2.28,1.01-2.28,2.26v1h-5.07v-1c0-4.03,3.3-7.31,7.35-7.31h1.94c4.05,0,7.35,3.28,7.35,7.31,0,2.23-.82,4.36-2.32,6.02l-3.01,3.34c-.31.34-.47.75-.47,1.19l-.02,2.15h-5.02Z"/>
      <path d="M40.97,26.96c3.5,0,6.35,2.83,6.35,6.31,0,1.98-.73,3.88-2.06,5.35l-3.01,3.34c-.47.52-.73,1.16-.73,1.85v1.15h-3.05v-1.15c0-1.44.53-2.82,1.5-3.89l3.01-3.34c.82-.91,1.28-2.09,1.28-3.32,0-1.8-1.47-3.26-3.28-3.26h-1.94c-1.81,0-3.28,1.46-3.28,3.26h-3.07c0-3.48,2.85-6.31,6.35-6.31h1.94M40.97,24.96h-1.94c-4.61,0-8.35,3.73-8.35,8.31v2h7.07v-2c0-.69.58-1.26,1.28-1.26h1.94c.71,0,1.28.57,1.28,1.26,0,.73-.27,1.43-.76,1.98l-3.01,3.34c-1.3,1.43-2.02,3.29-2.02,5.22v1.18s.03,1.98.03,1.98h7l.02-1.98v-1.15c.01-.21.08-.38.22-.53l3.01-3.34c1.66-1.84,2.58-4.22,2.58-6.69,0-4.58-3.75-8.31-8.35-8.31h0Z"/>
    </g>
  </g>
</svg>