<?xml version="1.0" encoding="UTF-8"?>
<svg id="Layer_1" xmlns="http://www.w3.org/2000/svg" version="1.1" viewBox="0 0 80 80">
  <!-- Generator: Adobe Illustrator 30.1.0, SVG Export Plug-In . SVG Version: 2.1.1 Build 136)  -->
  <circle id="Outer" cx="40" cy="40" r="32.28" fill="none" stroke="#000" stroke-width="15.45"/>
  <g>
    <g>
      <rect x="37.43" y="49.97" width="5.1" height="5.1"/>
      <path d="M41.28,51.22v2.6h-2.6v-2.6h2.6M43.78,48.72h-7.6v7.6h7.6v-7.6h0Z"/>
    </g>
    <g>
      <path d="M37.45,45.21l-.02-2.22c0-1.55.58-3.03,1.61-4.17l2.57-2.85c.5-.55.77-1.26.77-1.99,0-.85-.7-1.53-1.55-1.53h-1.65c-.86,0-1.55.69-1.55,1.53v1.25h-5.12v-1.25c0-3.66,2.99-6.63,6.67-6.63h1.65c3.68,0,6.67,2.98,6.67,6.63,0,2-.74,3.92-2.08,5.41l-2.57,2.85c-.2.22-.3.47-.3.75l-.02,2.23h-5.07Z"/>
      <path d="M40.83,28.59c2.99,0,5.42,2.42,5.42,5.38,0,1.69-.63,3.31-1.76,4.57l-2.57,2.85c-.4.44-.62.99-.62,1.58v.98h-2.61v-.98c0-1.23.45-2.4,1.28-3.32l2.57-2.85c.7-.78,1.09-1.79,1.09-2.83,0-1.53-1.26-2.78-2.8-2.78h-1.65c-1.55,0-2.8,1.25-2.8,2.78h-2.62c0-2.97,2.43-5.38,5.42-5.38h1.65M40.83,26.09h-1.65c-4.37,0-7.92,3.54-7.92,7.88v2.5h7.62v-2.5c0-.15.14-.28.3-.28h1.65c.16,0,.3.13.3.28,0,.43-.16.84-.45,1.16l-2.57,2.85c-1.24,1.37-1.92,3.14-1.93,4.99v1.01s.03,2.48.03,2.48h7.55l.03-2.47v-.94s2.56-2.83,2.56-2.83c1.55-1.72,2.4-3.93,2.4-6.24,0-4.35-3.55-7.88-7.92-7.88h0Z"/>
    </g>
  </g>
</svg>