<?xml version="1.0" encoding="UTF-8"?>
<svg id="Layer_1" xmlns="http://www.w3.org/2000/svg" version="1.1" viewBox="0 0 80 80">
  <!-- Generator: Adobe Illustrator 30.1.0, SVG Export Plug-In . SVG Version: 2.1.1 Build 136)  -->
  <circle id="Outer" cx="40" cy="40" r="35.11" fill="none" stroke="#000" stroke-width="9.77"/>
  <g>
    <g>
      <rect x="37.47" y="52.14" width="5.02" height="5.02"/>
      <path d="M41.74,52.89v3.52h-3.52v-3.52h3.52M43.24,51.39h-6.52v6.52h6.52v-6.52h0Z"/>
    </g>
    <g>
      <path d="M37.48,46.8l-.02-2.07c0-1.86.69-3.63,1.94-5l3.48-3.86c.83-.92,1.29-2.1,1.29-3.33,0-1.66-1.37-3.02-3.04-3.02h-2.24c-1.68,0-3.04,1.35-3.04,3.02v.75h-5.05v-.75c0-4.43,3.63-8.04,8.09-8.04h2.24c4.46,0,8.09,3.61,8.09,8.04,0,2.47-.92,4.85-2.58,6.69l-3.48,3.86c-.42.47-.65,1.03-.65,1.64l-.02,2.08h-5Z"/>
      <path d="M41.12,25.24c4.05,0,7.34,3.27,7.34,7.29,0,2.29-.85,4.48-2.38,6.19l-3.48,3.86c-.54.6-.84,1.34-.84,2.14v1.33h-3.53v-1.33c0-1.67.61-3.25,1.73-4.49l3.48-3.86c.95-1.06,1.48-2.42,1.48-3.84,0-2.08-1.7-3.77-3.79-3.77h-2.24c-2.09,0-3.79,1.69-3.79,3.77h-3.55c0-4.02,3.29-7.29,7.34-7.29h2.24M41.12,23.74h-2.24c-4.88,0-8.84,3.94-8.84,8.79v1.5h6.55v-1.5c0-1.25,1.03-2.27,2.29-2.27h2.24c1.27,0,2.29,1.02,2.29,2.27,0,1.05-.39,2.05-1.09,2.83l-3.48,3.86c-1.36,1.51-2.12,3.46-2.13,5.49v1.35s.02,1.49.02,1.49h6.49l.02-1.48v-1.33c.01-.44.17-.82.47-1.15l3.48-3.86c1.79-1.98,2.77-4.53,2.77-7.19,0-4.85-3.97-8.79-8.84-8.79h0Z"/>
    </g>
  </g>
</svg>