<?xml version="1.0" encoding="UTF-8"?>
<svg id="Layer_1" xmlns="http://www.w3.org/2000/svg" version="1.1" viewBox="0 0 80 80">
  <!-- Generator: Adobe Illustrator 30.1.0, SVG Export Plug-In . SVG Version: 2.1.1 Build 136)  -->
  <circle id="Outer" cx="40" cy="40" r="37.23" fill="none" stroke="#000" stroke-width="5.55"/>
  <g>
    <g>
      <rect x="37.47" y="53.73" width="5.01" height="5.01"/>
      <path d="M42.1,54.11v4.26h-4.26v-4.26h4.26M42.85,53.36h-5.76v5.76h5.76v-5.76h0Z"/>
    </g>
    <g>
      <path d="M37.48,48.15l-.02-1.98c0-2.11.79-4.13,2.21-5.7l4.22-4.67c1.09-1.21,1.69-2.77,1.69-4.39,0-2.31-1.89-4.19-4.22-4.19h-2.71c-2.33,0-4.22,1.88-4.22,4.19v.38h-5.05v-.38c0-5.08,4.16-9.21,9.27-9.21h2.71c5.11,0,9.27,4.13,9.27,9.21,0,2.86-1.06,5.61-2.98,7.74l-4.22,4.67c-.6.66-.92,1.47-.92,2.34l-.02,1.99h-5Z"/>
      <path d="M41.35,22.57c4.9,0,8.89,3.96,8.89,8.83,0,2.77-1.03,5.43-2.89,7.49l-4.22,4.67c-.65.72-1.02,1.62-1.02,2.59l-.02,1.61h-4.26v-1.61c0-2.02.74-3.94,2.1-5.44l4.22-4.67c1.15-1.28,1.79-2.93,1.79-4.65,0-2.52-2.06-4.56-4.6-4.56h-2.71c-2.53,0-4.6,2.05-4.6,4.56h-4.3c0-4.87,3.99-8.83,8.89-8.83h2.71M41.35,21.82h-2.71c-5.32,0-9.64,4.3-9.64,9.58v.75h5.8v-.75c0-2.1,1.73-3.81,3.85-3.81h2.71c2.12,0,3.85,1.71,3.85,3.81,0,1.53-.57,3-1.6,4.14l-4.22,4.67c-1.48,1.63-2.29,3.74-2.3,5.94v1.62s.02.74.02.74h5.74v-.74s.02-1.61.02-1.61c0-.78.29-1.5.82-2.1l4.22-4.68c1.99-2.2,3.08-5.04,3.08-8,0-5.28-4.33-9.58-9.64-9.58h0Z"/>
    </g>
  </g>
</svg>