<?xml version="1.0" encoding="UTF-8"?>
<svg id="Layer_1" xmlns="http://www.w3.org/2000/svg" version="1.1" viewBox="0 0 62 62">
  <!-- Generator: Adobe Illustrator 30.1.0, SVG Export Plug-In . SVG Version: 2.1.1 Build 136)  -->
  <path d="M31,7.58c.76,0,1.52.39,1.92,1.18l4.9,9.73c.84,1.67,2.41,2.85,4.24,3.19l10.6,1.99c1.66.31,2.33,2.33,1.19,3.57l-7.72,8.48c-1.19,1.31-1.75,3.08-1.51,4.83l1.51,11.43c.18,1.36-.91,2.44-2.13,2.44-.33,0-.66-.08-.98-.24l-9.27-4.78c-.86-.44-1.8-.66-2.74-.66-.94,0-1.88.22-2.74.66l-9.27,4.78c-.32.17-.66.24-.98.24-1.23,0-2.31-1.08-2.13-2.44l1.51-11.43c.23-1.75-.32-3.52-1.51-4.83l-7.72-8.48c-1.14-1.25-.47-3.26,1.19-3.58l10.6-1.99c1.83-.34,3.4-1.52,4.24-3.19l4.9-9.73c.4-.79,1.16-1.18,1.92-1.18M31,0c-3.7,0-7.02,2.05-8.69,5.35l-4.55,9.03-9.83,1.84c-3.46.65-6.31,3.13-7.43,6.47-1.12,3.35-.34,7.04,2.04,9.65l7.23,7.93-1.41,10.71c-.37,2.78.48,5.58,2.32,7.68,1.85,2.11,4.52,3.32,7.32,3.32,1.54,0,3.08-.37,4.45-1.08l8.54-4.4,8.54,4.4c1.38.71,2.92,1.08,4.45,1.08,2.8,0,5.47-1.21,7.32-3.32,1.84-2.1,2.69-4.9,2.32-7.68l-1.41-10.71,7.23-7.94c2.38-2.61,3.16-6.3,2.03-9.65-1.12-3.34-3.97-5.82-7.43-6.47l-9.83-1.84-4.55-9.03c-1.66-3.3-4.99-5.35-8.69-5.35h0Z"/>
</svg>