<?xml version="1.0" encoding="UTF-8"?>
<svg id="Layer_1" xmlns="http://www.w3.org/2000/svg" version="1.1" viewBox="0 0 62 62">
  <!-- Generator: Adobe Illustrator 30.1.0, SVG Export Plug-In . SVG Version: 2.1.1 Build 136)  -->
  <path d="M31,5.39c.83,0,1.67.43,2.1,1.3l5.36,10.64c.92,1.83,2.64,3.12,4.64,3.49l11.59,2.17c1.81.34,2.55,2.54,1.3,3.91l-8.45,9.27c-1.3,1.43-1.91,3.36-1.66,5.28l1.65,12.5c.2,1.49-.99,2.67-2.33,2.67-.36,0-.72-.08-1.08-.27l-10.14-5.22c-.94-.48-1.97-.73-3-.73-1.03,0-2.06.24-3,.73l-10.14,5.22c-.35.18-.72.27-1.08.27-1.34,0-2.53-1.18-2.33-2.67l1.65-12.5c.25-1.92-.35-3.85-1.65-5.28l-8.45-9.27c-1.24-1.37-.51-3.57,1.31-3.91l11.59-2.17c2-.38,3.72-1.67,4.64-3.49l5.36-10.64c.44-.86,1.27-1.3,2.1-1.3M31,0c-2.94,0-5.59,1.63-6.91,4.26l-5.36,10.64c-.16.32-.47.55-.82.62l-11.59,2.17c-2.76.52-5.02,2.49-5.91,5.15-.89,2.66-.27,5.61,1.62,7.68l8.45,9.27c.23.26.34.6.3.95l-1.65,12.5c-.29,2.21.38,4.44,1.85,6.11,1.48,1.68,3.6,2.65,5.83,2.65,1.22,0,2.45-.3,3.54-.86l10.14-5.22c.17-.09.34-.13.53-.13.18,0,.37.04.53.13l10.14,5.22c1.1.56,2.32.86,3.54.86,2.23,0,4.35-.97,5.82-2.65,1.47-1.67,2.14-3.9,1.85-6.11l-1.65-12.5c-.05-.35.06-.69.3-.95l8.45-9.27c1.89-2.07,2.51-5.02,1.62-7.68-.89-2.66-3.16-4.63-5.91-5.15l-11.59-2.17c-.35-.07-.66-.3-.82-.62l-5.36-10.64c-1.32-2.63-3.97-4.26-6.91-4.26h0Z"/>
</svg>