<?xml version="1.0" encoding="UTF-8"?>
<svg id="Layer_1" xmlns="http://www.w3.org/2000/svg" version="1.1" viewBox="0 0 62 62">
  <!-- Generator: Adobe Illustrator 30.1.0, SVG Export Plug-In . SVG Version: 2.1.1 Build 136)  -->
  <path d="M31,13.06c.58,0,1.17.3,1.47.91l3.75,7.45c.64,1.28,1.85,2.18,3.25,2.45l8.12,1.52c1.27.24,1.78,1.78.91,2.74l-5.92,6.49c-.91,1-1.34,2.36-1.16,3.7l1.15,8.75c.14,1.04-.69,1.87-1.63,1.87-.25,0-.51-.06-.75-.19l-7.1-3.66c-.66-.34-1.38-.51-2.1-.51s-1.44.17-2.1.51l-7.1,3.66c-.25.13-.5.19-.75.19-.94,0-1.77-.83-1.63-1.87l1.15-8.76c.18-1.34-.25-2.7-1.16-3.7l-5.92-6.49c-.87-.96-.36-2.5.91-2.74l8.12-1.52c1.4-.26,2.6-1.17,3.25-2.44l3.75-7.45c.3-.61.89-.91,1.47-.91M31,0C25.41,0,20.38,3.1,17.87,8.09l-1.87,3.71-4,.75c-5.24.98-9.54,4.73-11.24,9.79-1.69,5.06-.51,10.64,3.08,14.58l3.27,3.58-.64,4.86c-.55,4.2.73,8.44,3.52,11.62,2.8,3.19,6.83,5.02,11.06,5.02,2.33,0,4.66-.57,6.73-1.64l3.22-1.66,3.22,1.66c2.08,1.07,4.4,1.63,6.73,1.63,4.23,0,8.27-1.83,11.06-5.02,2.79-3.18,4.07-7.42,3.52-11.62l-.64-4.86,3.27-3.59c3.59-3.94,4.77-9.53,3.08-14.58-1.69-5.05-6-8.8-11.24-9.78l-4-.75-1.87-3.71C41.62,3.1,36.59,0,31,0h0Z"/>
</svg>