<?xml version="1.0" encoding="UTF-8"?>
<svg id="Layer_1" xmlns="http://www.w3.org/2000/svg" version="1.1" viewBox="0 0 122 122">
  <!-- Generator: Adobe Illustrator 30.1.0, SVG Export Plug-In . SVG Version: 2.1.1 Build 136)  -->
  <path d="M61,19.25c1.36,0,2.71.7,3.42,2.11l8.73,17.34c1.5,2.97,4.3,5.08,7.56,5.69l18.89,3.54c2.95.55,4.15,4.14,2.13,6.37l-13.77,15.11c-2.12,2.33-3.11,5.48-2.7,8.61l2.69,20.37c.32,2.43-1.62,4.35-3.8,4.35-.58,0-1.18-.14-1.75-.43l-16.53-8.51c-1.53-.79-3.21-1.18-4.88-1.18s-3.35.39-4.88,1.18l-16.53,8.51c-.58.3-1.17.43-1.75.43-2.18,0-4.12-1.92-3.8-4.35l2.69-20.38c.41-3.13-.57-6.27-2.7-8.6l-13.77-15.11c-2.03-2.23-.83-5.82,2.13-6.37l18.89-3.54c3.27-.61,6.06-2.72,7.56-5.69l8.74-17.34c.71-1.41,2.07-2.11,3.42-2.11M61,0c-8.77,0-16.67,4.87-20.62,12.7l-6.83,13.55-14.71,2.76c-8.22,1.54-14.98,7.43-17.64,15.36-2.66,7.94-.81,16.71,4.83,22.9l11.09,12.17-2.17,16.43c-.87,6.6,1.14,13.25,5.52,18.24,4.39,5.01,10.72,7.89,17.37,7.89,3.65,0,7.3-.89,10.57-2.57l12.59-6.49,12.59,6.49c3.26,1.68,6.92,2.57,10.57,2.57,6.64,0,12.98-2.87,17.37-7.89,4.38-4.99,6.39-11.64,5.52-18.24l-2.17-16.43,11.09-12.17c5.64-6.19,7.49-14.96,4.83-22.9-2.66-7.93-9.42-13.82-17.64-15.36l-14.72-2.76-6.83-13.55c-3.95-7.84-11.85-12.7-20.62-12.7h0Z"/>
</svg>