<?xml version="1.0" encoding="UTF-8"?>
<svg id="Layer_1" xmlns="http://www.w3.org/2000/svg" version="1.1" viewBox="0 0 122 122">
  <!-- Generator: Adobe Illustrator 30.1.0, SVG Export Plug-In . SVG Version: 2.1.1 Build 136)  -->
  <path d="M61,10.6c1.64,0,3.28.85,4.13,2.55l10.54,20.93c1.81,3.59,5.19,6.13,9.13,6.87l22.81,4.28c3.57.67,5.01,5,2.57,7.69l-16.62,18.24c-2.56,2.81-3.76,6.62-3.26,10.4l3.24,24.59c.39,2.93-1.95,5.26-4.59,5.26-.7,0-1.42-.16-2.12-.52l-19.95-10.28c-1.85-.95-3.87-1.43-5.89-1.43-2.02,0-4.04.48-5.89,1.43l-19.95,10.28c-.7.36-1.42.52-2.12.52-2.64,0-4.98-2.32-4.59-5.26l3.24-24.6c.5-3.77-.69-7.58-3.25-10.39l-16.62-18.24c-2.45-2.69-1-7.02,2.57-7.69l22.81-4.28c3.94-.74,7.32-3.28,9.13-6.87l10.55-20.93c.86-1.7,2.49-2.55,4.13-2.55M61,0c-5.78,0-11,3.21-13.6,8.38l-10.55,20.93c-.32.63-.92,1.09-1.61,1.22l-22.81,4.28c-5.42,1.02-9.88,4.9-11.64,10.14-1.76,5.24-.53,11.03,3.19,15.11l16.62,18.24c.46.5.67,1.18.58,1.86l-3.24,24.6c-.57,4.36.75,8.74,3.63,12.03,2.9,3.31,7.08,5.21,11.46,5.21,2.4,0,4.81-.59,6.97-1.7l19.95-10.28c.33-.17.68-.25,1.04-.25.36,0,.72.09,1.04.25l19.95,10.28c2.16,1.11,4.57,1.7,6.97,1.7,4.38,0,8.56-1.9,11.46-5.21,2.88-3.29,4.21-7.67,3.63-12.03l-3.24-24.59c-.09-.68.12-1.37.58-1.87l16.62-18.24c3.72-4.08,4.94-9.87,3.19-15.11-1.75-5.23-6.21-9.12-11.63-10.13l-22.81-4.28c-.69-.13-1.3-.59-1.62-1.22l-10.54-20.93c-2.6-5.17-7.81-8.38-13.6-8.38h0Z"/>
</svg>