<?xml version="1.0" encoding="UTF-8"?>
<svg id="Layer_1" xmlns="http://www.w3.org/2000/svg" version="1.1" viewBox="0 0 122 122">
  <!-- Generator: Adobe Illustrator 30.1.0, SVG Export Plug-In . SVG Version: 2.1.1 Build 136)  -->
  <path d="M61,14.91c1.5,0,3,.78,3.78,2.33l9.64,19.14c1.65,3.28,4.74,5.61,8.35,6.28l20.86,3.91c3.26.61,4.58,4.58,2.35,7.03l-15.2,16.68c-2.35,2.57-3.44,6.05-2.98,9.51l2.97,22.49c.35,2.68-1.78,4.81-4.2,4.81-.64,0-1.3-.15-1.94-.48l-18.25-9.4c-1.69-.87-3.54-1.31-5.39-1.31-1.85,0-3.7.44-5.39,1.31l-18.25,9.4c-.64.33-1.3.48-1.94.48-2.41,0-4.55-2.12-4.2-4.81l2.97-22.5c.46-3.45-.63-6.93-2.98-9.5l-15.2-16.68c-2.24-2.46-.92-6.42,2.35-7.04l20.86-3.91c3.61-.68,6.69-3,8.35-6.28l9.64-19.14c.78-1.55,2.28-2.33,3.78-2.33M61,0c-7.27,0-13.82,4.04-17.09,10.53l-8.95,17.77-19.33,3.62c-6.82,1.28-12.42,6.16-14.62,12.74-2.21,6.58-.67,13.86,4,18.99l14.23,15.61-2.78,21.07c-.72,5.47.94,10.98,4.57,15.12,3.65,4.16,8.9,6.54,14.4,6.54,3.02,0,6.05-.74,8.76-2.13l16.81-8.66,16.81,8.66c2.71,1.39,5.74,2.13,8.76,2.13,5.51,0,10.76-2.38,14.4-6.54,3.63-4.14,5.29-9.65,4.57-15.12l-2.78-21.07,14.23-15.62c4.67-5.13,6.21-12.41,4-18.99-2.2-6.58-7.81-11.46-14.62-12.74l-19.34-3.62-8.95-17.77c-3.27-6.5-9.82-10.53-17.09-10.53h0Z"/>
</svg>