<?xml version="1.0" encoding="UTF-8"?>
<svg id="Layer_1" xmlns="http://www.w3.org/2000/svg" version="1.1" viewBox="0 0 42 42">
  <!-- Generator: Adobe Illustrator 30.1.0, SVG Export Plug-In . SVG Version: 2.1.1 Build 136)  -->
  <g>
    <g>
      <rect x="19.45" y="12.5" width="3.1" height="3.1"/>
      <path d="M21.89,13.16v1.79h-1.79v-1.79h1.79M23.21,11.85h-4.41v4.41h4.41v-4.41h0Z"/>
    </g>
    <g>
      <polygon points="17.66 29.09 17.66 25.99 19.45 25.99 19.45 21.72 17.66 21.72 17.66 18.62 22.55 18.62 22.55 25.99 24.34 25.99 24.34 29.09 17.66 29.09"/>
      <path d="M21.89,19.28v7.36h1.79v1.79h-5.36v-1.79h1.79v-5.58h-1.79v-1.79h3.57M23.21,17.97h-6.2v4.41h1.79v2.95h-1.79v4.41h7.98v-4.41h-1.79v-7.36h0Z"/>
    </g>
  </g>
  <circle id="Outer" cx="21" cy="21" r="16.94" fill="none" stroke="#000" stroke-width="8.11"/>
</svg>