<?xml version="1.0" encoding="UTF-8"?>
<svg id="Layer_1" xmlns="http://www.w3.org/2000/svg" version="1.1" viewBox="0 0 42 42">
  <!-- Generator: Adobe Illustrator 30.1.0, SVG Export Plug-In . SVG Version: 2.1.1 Build 136)  -->
  <g>
    <g>
      <rect x="19.5" y="11.43" width="3" height="3"/>
      <path d="M22.11,11.83v2.21h-2.21v-2.21h2.21M22.89,11.04h-3.79v3.79h3.79v-3.79h0Z"/>
    </g>
    <g>
      <polygon points="17.29 30.38 17.29 27.38 19.5 27.38 19.5 21.25 17.29 21.25 17.29 18.25 22.5 18.25 22.5 27.38 24.71 27.38 24.71 30.38 17.29 30.38"/>
      <path d="M22.11,18.65v9.13h2.21v2.21h-6.64v-2.21h2.21v-6.91h-2.21v-2.21h4.43M22.89,17.86h-6v3.79h2.21v5.34h-2.21v3.79h8.22v-3.79h-2.21v-9.13h0Z"/>
    </g>
  </g>
  <circle id="Outer" cx="21" cy="21" r="18.43" fill="none" stroke="#000" stroke-width="5.13"/>
</svg>