<?xml version="1.0" encoding="UTF-8"?>
<svg id="Layer_1" xmlns="http://www.w3.org/2000/svg" version="1.1" viewBox="0 0 11 11">
  <!-- Generator: Adobe Illustrator 30.1.0, SVG Export Plug-In . SVG Version: 2.1.1 Build 136)  -->
  <path d="M5.5,1.74c.12,0,.24.06.31.19l.79,1.56c.14.27.39.46.68.51l1.7.32c.27.05.37.37.19.57l-1.24,1.36c-.19.21-.28.49-.24.78l.24,1.84c.03.22-.15.39-.34.39-.05,0-.11-.01-.16-.04l-1.49-.77c-.14-.07-.29-.11-.44-.11-.15,0-.3.04-.44.11l-1.49.77c-.05.03-.11.04-.16.04-.2,0-.37-.17-.34-.39l.24-1.84c.04-.28-.05-.57-.24-.78l-1.24-1.36c-.18-.2-.07-.52.19-.57l1.7-.32c.29-.06.55-.24.68-.51l.79-1.56c.06-.13.19-.19.31-.19M5.5,0C4.71,0,4,.44,3.64,1.15l-.62,1.22-1.33.25c-.74.14-1.35.67-1.59,1.39-.24.72-.07,1.51.44,2.06l1,1.1-.2,1.48c-.08.59.1,1.19.5,1.64.4.45.97.71,1.57.71.33,0,.66-.08.95-.23l1.14-.58,1.14.58c.29.15.62.23.95.23.6,0,1.17-.26,1.57-.71.39-.45.58-1.05.5-1.64l-.2-1.48,1-1.1c.51-.56.68-1.35.44-2.06-.24-.72-.85-1.25-1.59-1.39l-1.33-.25-.62-1.22C7,.44,6.29,0,5.5,0h0Z"/>
</svg>