<?xml version="1.0" encoding="UTF-8"?>
<svg id="Layer_1" xmlns="http://www.w3.org/2000/svg" version="1.1" viewBox="0 0 11 11">
  <!-- Generator: Adobe Illustrator 30.1.0, SVG Export Plug-In . SVG Version: 2.1.1 Build 136)  -->
  <path d="M5.5.76c.15,0,.31.08.39.24l.99,1.97c.17.34.49.58.86.65l2.14.4c.34.06.47.47.24.72l-1.56,1.71c-.24.26-.35.62-.31.98l.3,2.31c.04.28-.18.49-.43.49-.07,0-.13-.02-.2-.05l-1.88-.97c-.17-.09-.36-.13-.55-.13s-.38.04-.55.13l-1.88.97c-.07.03-.13.05-.2.05-.25,0-.47-.22-.43-.49l.3-2.31c.05-.35-.07-.71-.31-.98l-1.56-1.71c-.23-.25-.09-.66.24-.72l2.14-.4c.37-.07.69-.31.86-.65l.99-1.97c.08-.16.23-.24.39-.24M5.5,0C5.04,0,4.63.25,4.43.66l-.99,1.97c-.06.12-.18.21-.32.24l-2.14.4c-.43.08-.78.39-.92.8-.14.41-.04.87.25,1.19l1.56,1.71c.09.1.13.23.11.36l-.3,2.31c-.05.34.06.69.29.95.23.26.56.41.9.41.19,0,.38-.05.55-.13l1.88-.97c.06-.03.13-.05.2-.05s.14.02.2.05l1.88.97c.17.09.36.13.55.13.34,0,.67-.15.9-.41.23-.26.33-.6.29-.95l-.3-2.31c-.02-.13.02-.26.11-.36l1.56-1.71c.29-.32.39-.78.25-1.19-.14-.41-.49-.72-.92-.8l-2.14-.4c-.14-.03-.25-.11-.32-.24l-.99-1.97C6.36.25,5.95,0,5.5,0h0Z"/>
</svg>