<?xml version="1.0" encoding="UTF-8"?>
<svg id="Layer_1" xmlns="http://www.w3.org/2000/svg" version="1.1" viewBox="0 0 11 11">
  <!-- Generator: Adobe Illustrator 30.1.0, SVG Export Plug-In . SVG Version: 2.1.1 Build 136)  -->
  <path d="M5.5.96c.15,0,.3.08.37.23l.95,1.89c.16.32.47.55.82.62l2.06.39c.32.06.45.45.23.69l-1.5,1.64c-.23.25-.34.6-.29.94l.29,2.22c.03.26-.18.47-.41.47-.06,0-.13-.01-.19-.05l-1.8-.93c-.17-.09-.35-.13-.53-.13s-.36.04-.53.13l-1.8.93c-.06.03-.13.05-.19.05-.24,0-.45-.21-.41-.47l.29-2.22c.04-.34-.06-.68-.29-.94l-1.5-1.64c-.22-.24-.09-.63.23-.69l2.06-.39c.36-.07.66-.3.82-.62l.95-1.89c.08-.15.22-.23.37-.23M5.5,0C4.98,0,4.51.29,4.27.76l-.95,1.89c-.03.06-.08.1-.15.11l-2.06.39c-.49.09-.89.44-1.05.91-.16.47-.05.99.29,1.36l1.5,1.64s.06.11.05.17l-.29,2.22c-.05.39.07.79.33,1.08.26.3.64.47,1.03.47.22,0,.43-.05.63-.15l1.8-.93s.06-.02.09-.02.06,0,.09.02l1.8.93c.19.1.41.15.63.15.39,0,.77-.17,1.03-.47.26-.3.38-.69.33-1.08l-.29-2.22c0-.06.01-.12.05-.17l1.5-1.64c.34-.37.45-.89.29-1.36-.16-.47-.56-.82-1.05-.91l-2.06-.39c-.06-.01-.12-.05-.15-.11l-.95-1.89C6.49.29,6.02,0,5.5,0h0Z"/>
</svg>