<?xml version="1.0" encoding="UTF-8"?>
<svg id="Layer_1" xmlns="http://www.w3.org/2000/svg" version="1.1" viewBox="0 0 11 11">
  <!-- Generator: Adobe Illustrator 30.1.0, SVG Export Plug-In . SVG Version: 2.1.1 Build 136)  -->
  <path d="M5.5,2.32c.1,0,.21.05.26.16l.67,1.32c.11.23.33.39.58.43l1.44.27c.23.04.32.32.16.49l-1.05,1.15c-.16.18-.24.42-.21.66l.2,1.55c.02.19-.12.33-.29.33-.04,0-.09-.01-.13-.03l-1.26-.65c-.12-.06-.24-.09-.37-.09s-.26.03-.37.09l-1.26.65s-.09.03-.13.03c-.17,0-.31-.15-.29-.33l.2-1.55c.03-.24-.04-.48-.21-.66l-1.05-1.15c-.15-.17-.06-.44.16-.49l1.44-.27c.25-.05.46-.21.58-.43l.67-1.32c.05-.11.16-.16.26-.16M5.5,0C4.51,0,3.62.55,3.17,1.44l-.33.66-.71.13c-.93.17-1.69.84-1.99,1.74-.3.9-.09,1.89.55,2.59l.58.64-.11.86c-.1.75.13,1.5.62,2.06.5.57,1.21.89,1.96.89.41,0,.83-.1,1.19-.29l.57-.29.57.29c.37.19.78.29,1.19.29.75,0,1.47-.32,1.96-.89.49-.56.72-1.32.62-2.06l-.11-.86.58-.64c.64-.7.85-1.69.55-2.59-.3-.9-1.06-1.56-1.99-1.74l-.71-.13-.33-.66C7.38.55,6.49,0,5.5,0h0Z"/>
</svg>