<?xml version="1.0" encoding="UTF-8"?>
<svg id="Layer_1" xmlns="http://www.w3.org/2000/svg" version="1.1" viewBox="0 0 11 11">
  <!-- Generator: Adobe Illustrator 30.1.0, SVG Export Plug-In . SVG Version: 2.1.1 Build 136)  -->
  <path d="M5.5,1.34c.14,0,.27.07.34.21l.87,1.73c.15.3.43.51.75.57l1.88.35c.29.06.41.41.21.63l-1.37,1.5c-.21.23-.31.55-.27.86l.27,2.03c.03.24-.16.43-.38.43-.06,0-.12-.01-.17-.04l-1.65-.85c-.15-.08-.32-.12-.49-.12s-.33.04-.49.12l-1.65.85c-.06.03-.12.04-.17.04-.22,0-.41-.19-.38-.43l.27-2.03c.04-.31-.06-.62-.27-.86l-1.37-1.5c-.2-.22-.08-.58.21-.63l1.88-.35c.33-.06.6-.27.75-.57l.87-1.73c.07-.14.21-.21.34-.21M5.5,0c-.66,0-1.25.36-1.54.95l-.81,1.6-1.74.33c-.61.12-1.12.56-1.32,1.15-.2.59-.06,1.25.36,1.71l1.28,1.41-.25,1.9c-.07.49.09.99.41,1.36.33.37.8.59,1.3.59.27,0,.55-.07.79-.19l1.52-.78,1.52.78c.24.13.52.19.79.19.5,0,.97-.22,1.3-.59.33-.37.48-.87.41-1.36l-.25-1.9,1.28-1.41c.42-.46.56-1.12.36-1.71-.2-.59-.7-1.03-1.32-1.15l-1.74-.33-.81-1.6c-.3-.59-.89-.95-1.54-.95h0Z"/>
</svg>