<?xml version="1.0" encoding="UTF-8"?>
<svg id="Layer_1" xmlns="http://www.w3.org/2000/svg" version="1.1" viewBox="0 0 65 65">
  <!-- Generator: Adobe Illustrator 30.1.0, SVG Export Plug-In . SVG Version: 2.1.1 Build 136)  -->
  <path d="M32.5,7.94c.8,0,1.6.41,2.01,1.24l5.14,10.2c.88,1.75,2.53,2.99,4.45,3.35l11.11,2.08c1.74.33,2.44,2.44,1.25,3.75l-8.1,8.89c-1.25,1.37-1.83,3.23-1.59,5.07l1.58,11.98c.19,1.43-.95,2.56-2.24,2.56-.34,0-.69-.08-1.03-.25l-9.72-5.01c-.9-.46-1.89-.7-2.87-.7s-1.97.23-2.87.7l-9.72,5.01c-.34.17-.69.25-1.03.25-1.29,0-2.42-1.13-2.24-2.56l1.58-11.99c.24-1.84-.34-3.69-1.59-5.06l-8.1-8.89c-1.19-1.31-.49-3.42,1.25-3.75l11.11-2.08c1.92-.36,3.57-1.6,4.45-3.35l5.14-10.2c.42-.83,1.22-1.24,2.01-1.24M32.5,0c-3.87,0-7.36,2.15-9.11,5.61l-4.77,9.47-10.3,1.93c-3.63.68-6.62,3.28-7.79,6.79-1.17,3.51-.36,7.38,2.13,10.12l7.58,8.32-1.48,11.23c-.38,2.92.5,5.85,2.44,8.06,1.94,2.22,4.74,3.49,7.67,3.49,1.61,0,3.22-.39,4.67-1.14l8.96-4.61,8.96,4.61c1.44.74,3.06,1.14,4.67,1.14,2.93,0,5.73-1.27,7.67-3.49,1.93-2.2,2.82-5.14,2.44-8.06l-1.48-11.23,7.58-8.32c2.49-2.73,3.31-6.61,2.13-10.12-1.17-3.5-4.16-6.11-7.79-6.79l-10.3-1.93-4.77-9.47c-1.74-3.46-5.23-5.61-9.11-5.61h0Z"/>
</svg>