<?xml version="1.0" encoding="UTF-8"?>
<svg id="Layer_1" xmlns="http://www.w3.org/2000/svg" version="1.1" viewBox="0 0 65 65">
  <!-- Generator: Adobe Illustrator 30.1.0, SVG Export Plug-In . SVG Version: 2.1.1 Build 136)  -->
  <path d="M32.5,13.69c.61,0,1.22.32,1.54.95l3.94,7.81c.68,1.34,1.94,2.29,3.41,2.56l8.51,1.6c1.33.25,1.87,1.87.96,2.87l-6.2,6.81c-.96,1.05-1.4,2.47-1.22,3.88l1.21,9.18c.14,1.09-.73,1.96-1.71,1.96-.26,0-.53-.06-.79-.19l-7.45-3.83c-.69-.36-1.44-.53-2.2-.53s-1.51.18-2.2.53l-7.45,3.83c-.26.13-.53.19-.79.19-.98,0-1.86-.87-1.71-1.96l1.21-9.18c.19-1.41-.26-2.83-1.21-3.88l-6.2-6.81c-.91-1-.37-2.62.96-2.87l8.51-1.6c1.47-.28,2.73-1.22,3.41-2.56l3.94-7.81c.32-.63.93-.95,1.54-.95M32.5,0C26.64,0,21.37,3.25,18.73,8.48l-1.96,3.89-4.19.79c-5.49,1.03-10.01,4.96-11.78,10.26-1.78,5.3-.54,11.16,3.22,15.29l3.42,3.76-.67,5.09c-.58,4.41.76,8.84,3.69,12.18,2.93,3.34,7.16,5.26,11.6,5.26,2.44,0,4.88-.59,7.06-1.71l3.38-1.74,3.38,1.74c2.18,1.12,4.62,1.71,7.06,1.71,4.44,0,8.67-1.92,11.6-5.26,2.92-3.34,4.27-7.78,3.69-12.18l-.67-5.09,3.43-3.76c3.76-4.13,5-9.99,3.22-15.29-1.77-5.3-6.29-9.23-11.78-10.26l-4.19-.79-1.96-3.89C43.63,3.25,38.36,0,32.5,0h0Z"/>
</svg>