<?xml version="1.0" encoding="UTF-8"?>
<svg id="Layer_1" xmlns="http://www.w3.org/2000/svg" version="1.1" viewBox="0 0 65 65">
  <!-- Generator: Adobe Illustrator 30.1.0, SVG Export Plug-In . SVG Version: 2.1.1 Build 136)  -->
  <path d="M32.5,5.65c.87,0,1.75.45,2.2,1.36l5.62,11.15c.96,1.91,2.76,3.27,4.87,3.66l12.15,2.28c1.9.36,2.67,2.67,1.37,4.1l-8.86,9.72c-1.37,1.5-2,3.53-1.74,5.54l1.73,13.1c.21,1.56-1.04,2.8-2.44,2.8-.37,0-.76-.09-1.13-.28l-10.63-5.47c-.99-.51-2.06-.76-3.14-.76-1.08,0-2.15.25-3.14.76l-10.63,5.47c-.37.19-.75.28-1.13.28-1.41,0-2.65-1.24-2.44-2.8l1.73-13.11c.27-2.01-.37-4.04-1.73-5.53l-8.86-9.72c-1.3-1.43-.53-3.74,1.37-4.1l12.15-2.28c2.1-.39,3.9-1.75,4.86-3.66l5.62-11.15c.46-.91,1.33-1.36,2.2-1.36M32.5,0h0c-3.08,0-5.86,1.71-7.25,4.46l-5.62,11.15c-.17.34-.49.58-.86.65l-12.15,2.28c-2.89.54-5.27,2.61-6.2,5.4-.94,2.79-.28,5.88,1.7,8.05l8.86,9.72c.24.27.36.63.31.99l-1.73,13.11c-.31,2.32.4,4.66,1.94,6.41,1.55,1.76,3.77,2.78,6.11,2.78,1.28,0,2.56-.31,3.71-.9l10.63-5.47c.17-.09.36-.13.55-.13.19,0,.38.05.55.13l10.63,5.47c1.15.59,2.43.9,3.71.9,2.33,0,4.56-1.01,6.11-2.78,1.54-1.75,2.24-4.09,1.94-6.41l-1.73-13.1c-.05-.36.07-.73.31-1l8.86-9.72c1.98-2.18,2.63-5.26,1.7-8.05-.93-2.79-3.31-4.86-6.2-5.4l-12.15-2.28c-.37-.07-.69-.31-.86-.65l-5.62-11.15C38.36,1.71,35.58,0,32.5,0h0Z"/>
</svg>