<?xml version="1.0" encoding="UTF-8"?>
<svg id="Layer_1" xmlns="http://www.w3.org/2000/svg" version="1.1" viewBox="0 0 58 58">
  <!-- Generator: Adobe Illustrator 30.1.0, SVG Export Plug-In . SVG Version: 2.1.1 Build 136)  -->
  <circle id="Outer" cx="29" cy="29" r="23.4" fill="none" stroke="#000" stroke-width="11.2"/>
  <g>
    <g>
      <rect x="27.14" y="36.23" width="3.7" height="3.69"/>
      <path d="M29.93,37.14v1.88h-1.88v-1.88h1.88M31.74,35.32h-5.51v5.51h5.51v-5.51h0Z"/>
    </g>
    <g>
      <path d="M27.15,32.78v-1.61c0-1.12.4-2.19,1.15-3.02l1.86-2.06c.36-.4.56-.91.56-1.45,0-.61-.5-1.11-1.13-1.11h-1.2c-.62,0-1.13.5-1.13,1.11v.91h-3.71v-.91c0-2.65,2.17-4.81,4.84-4.81h1.2c2.67,0,4.84,2.16,4.84,4.81,0,1.45-.54,2.84-1.51,3.92l-1.86,2.07c-.14.16-.22.34-.22.54v1.62h-3.69Z"/>
      <path d="M29.6,20.73c2.17,0,3.93,1.75,3.93,3.9,0,1.22-.45,2.4-1.28,3.31l-1.86,2.07c-.29.32-.45.72-.45,1.15v.71h-1.89v-.71c0-.89.33-1.74.93-2.41l1.86-2.07c.51-.57.79-1.29.79-2.05,0-1.11-.91-2.02-2.03-2.02h-1.2c-1.12,0-2.03.91-2.03,2.02h-1.9c0-2.15,1.76-3.9,3.93-3.9h1.2M29.6,18.92h-1.2c-3.17,0-5.74,2.56-5.74,5.72v1.81h5.52v-1.81c0-.11.1-.2.22-.2h1.2c.12,0,.22.09.22.2,0,.31-.12.61-.32.84l-1.86,2.07c-.9.99-1.39,2.28-1.4,3.61v.73s.02,1.8.02,1.8h5.47l.02-1.79v-.68s1.86-2.05,1.86-2.05c1.12-1.25,1.74-2.85,1.74-4.53,0-3.15-2.58-5.72-5.74-5.72h0Z"/>
    </g>
  </g>
</svg>