<?xml version="1.0" encoding="UTF-8"?>
<svg id="Layer_1" xmlns="http://www.w3.org/2000/svg" version="1.1" viewBox="0 0 58 58">
  <!-- Generator: Adobe Illustrator 30.1.0, SVG Export Plug-In . SVG Version: 2.1.1 Build 136)  -->
  <circle id="Outer" cx="29" cy="29" r="26.99" fill="none" stroke="#000" stroke-width="4.02"/>
  <g>
    <g>
      <rect x="27.17" y="38.96" width="3.63" height="3.63"/>
      <path d="M30.53,39.23v3.09h-3.09v-3.09h3.09M31.07,38.69h-4.18v4.18h4.18v-4.18h0Z"/>
    </g>
    <g>
      <path d="M27.17,34.91v-1.44c0-1.53.56-3,1.59-4.13l3.06-3.39c.79-.88,1.23-2.01,1.23-3.19,0-1.67-1.37-3.04-3.06-3.04h-1.96c-1.69,0-3.06,1.36-3.06,3.04v.27h-3.66v-.27c0-3.68,3.01-6.67,6.72-6.67h1.96c3.71,0,6.72,2.99,6.72,6.67,0,2.08-.77,4.07-2.16,5.61l-3.06,3.39c-.44.48-.67,1.07-.67,1.7v1.44h-3.64Z"/>
      <path d="M29.98,16.36c3.56,0,6.45,2.87,6.45,6.4,0,2.01-.74,3.94-2.09,5.43l-3.06,3.39c-.47.52-.74,1.18-.74,1.88v1.17h-3.1v-1.17c0-1.46.53-2.86,1.52-3.95l3.06-3.39c.84-.93,1.3-2.12,1.3-3.37,0-1.82-1.5-3.31-3.33-3.31h-1.96c-1.84,0-3.33,1.48-3.33,3.31h-3.12c0-3.53,2.89-6.4,6.45-6.4h1.96M29.98,15.82h-1.96c-3.86,0-6.99,3.12-6.99,6.95v.54h4.2v-.54c0-1.52,1.25-2.77,2.79-2.77h1.96c1.54,0,2.79,1.24,2.79,2.77,0,1.11-.41,2.18-1.16,3l-3.06,3.39c-1.07,1.18-1.66,2.71-1.67,4.31v1.17s.02.54.02.54h4.16v-.54s.02-1.17.02-1.17c0-.57.21-1.09.6-1.52l3.06-3.39c1.44-1.6,2.23-3.65,2.23-5.8,0-3.83-3.14-6.95-6.99-6.95h0Z"/>
    </g>
  </g>
</svg>