<?xml version="1.0" encoding="UTF-8"?>
<svg id="Layer_1" xmlns="http://www.w3.org/2000/svg" version="1.1" viewBox="0 0 58 58">
  <!-- Generator: Adobe Illustrator 30.1.0, SVG Export Plug-In . SVG Version: 2.1.1 Build 136)  -->
  <circle id="Outer" cx="29" cy="29" r="25.46" fill="none" stroke="#000" stroke-width="7.09"/>
  <g>
    <g>
      <rect x="27.17" y="37.8" width="3.64" height="3.64"/>
      <path d="M30.26,38.35v2.55h-2.55v-2.55h2.55M31.35,37.26h-4.72v4.72h4.72v-4.72h0Z"/>
    </g>
    <g>
      <path d="M27.17,33.93v-1.5c0-1.35.49-2.63,1.39-3.63l2.52-2.8c.6-.67.93-1.52.93-2.42,0-1.21-.99-2.19-2.21-2.19h-1.62c-1.22,0-2.21.98-2.21,2.19v.54h-3.66v-.54c0-3.21,2.63-5.83,5.87-5.83h1.62c3.23,0,5.87,2.62,5.87,5.83,0,1.79-.66,3.51-1.87,4.85l-2.53,2.8c-.3.34-.47.75-.47,1.19l-.02,1.51h-3.63Z"/>
      <path d="M29.81,18.3c2.94,0,5.32,2.37,5.32,5.29,0,1.66-.61,3.25-1.73,4.49l-2.53,2.8c-.39.43-.61.97-.61,1.55v.96h-2.56v-.96c0-1.21.44-2.36,1.25-3.26l2.52-2.8c.69-.77,1.07-1.75,1.07-2.78,0-1.51-1.23-2.73-2.75-2.73h-1.62c-1.52,0-2.75,1.23-2.75,2.73h-2.57c0-2.91,2.39-5.29,5.32-5.29h1.62M29.81,17.21h-1.62c-3.53,0-6.41,2.86-6.41,6.37v1.09h4.75v-1.09c0-.91.75-1.64,1.66-1.64h1.62c.92,0,1.66.74,1.66,1.64,0,.76-.28,1.49-.79,2.05l-2.52,2.8c-.99,1.09-1.54,2.51-1.54,3.98v.98s.02,1.08.02,1.08h4.7v-1.08s.02-.96.02-.96c0-.32.11-.59.33-.83l2.53-2.8c1.3-1.43,2.01-3.29,2.01-5.21,0-3.51-2.88-6.37-6.41-6.37h0Z"/>
    </g>
  </g>
</svg>