<?xml version="1.0" encoding="UTF-8"?>
<svg id="Layer_1" xmlns="http://www.w3.org/2000/svg" version="1.1" viewBox="0 0 58 58">
  <!-- Generator: Adobe Illustrator 30.1.0, SVG Export Plug-In . SVG Version: 2.1.1 Build 136)  -->
  <circle id="Outer" cx="29" cy="29" r="24.42" fill="none" stroke="#000" stroke-width="9.15"/>
  <g>
    <g>
      <rect x="27.16" y="37.02" width="3.66" height="3.65"/>
      <path d="M30.09,37.74v2.21h-2.21v-2.21h2.21M31.54,36.29h-5.11v5.11h5.11v-5.11h0Z"/>
    </g>
    <g>
      <path d="M27.17,33.32v-1.55c0-1.23.45-2.4,1.27-3.31l2.18-2.42c.48-.53.74-1.21.74-1.92,0-.9-.74-1.64-1.66-1.64h-1.4c-.91,0-1.66.73-1.66,1.64v.73h-3.68v-.73c0-2.92,2.39-5.3,5.33-5.3h1.4c2.94,0,5.33,2.38,5.33,5.3,0,1.61-.6,3.16-1.68,4.37l-2.18,2.42c-.22.25-.34.54-.34.86l-.02,1.56h-3.64Z"/>
      <path d="M29.7,19.55c2.54,0,4.61,2.05,4.61,4.57,0,1.43-.53,2.81-1.5,3.88l-2.18,2.42c-.34.37-.53.84-.53,1.34v.83h-2.21v-.83c0-1.05.38-2.04,1.09-2.82l2.18-2.42c.6-.66.93-1.52.93-2.41,0-1.3-1.07-2.36-2.38-2.36h-1.4c-1.31,0-2.38,1.06-2.38,2.36h-2.23c0-2.52,2.07-4.57,4.61-4.57h1.4M29.7,18.1h-1.4c-3.34,0-6.06,2.7-6.06,6.02v1.45h5.13v-1.45c0-.5.42-.91.93-.91h1.4c.51,0,.93.41.93.91,0,.53-.2,1.04-.55,1.43l-2.18,2.42c-.94,1.04-1.46,2.38-1.47,3.79v.85s.02,1.44.02,1.44h5.08v-1.44s.02-.83.02-.83c0-.15.05-.27.15-.39l2.19-2.42c1.21-1.33,1.87-3.06,1.87-4.85,0-3.32-2.72-6.02-6.06-6.02h0Z"/>
    </g>
  </g>
</svg>