<?xml version="1.0" encoding="UTF-8"?>
<svg id="Layer_1" xmlns="http://www.w3.org/2000/svg" version="1.1" viewBox="0 0 58 58">
  <!-- Generator: Adobe Illustrator 30.1.0, SVG Export Plug-In . SVG Version: 2.1.1 Build 136)  -->
  <circle id="Outer" cx="29" cy="29" r="22.89" fill="none" stroke="#000" stroke-width="12.22"/>
  <g>
    <g>
      <rect x="27.12" y="35.83" width="3.72" height="3.72"/>
      <path d="M29.85,36.83v1.73h-1.73v-1.73h1.73M31.84,34.84h-5.72v5.72h5.72v-5.72h0Z"/>
    </g>
    <g>
      <path d="M27.14,32.53l-.02-1.64c0-1.08.4-2.1,1.11-2.89l1.71-1.9c.3-.34.47-.77.47-1.22,0-.47-.39-.86-.87-.86h-1.1c-.48,0-.87.38-.87.86v1h-3.74v-1c0-2.53,2.07-4.58,4.61-4.58h1.1c2.54,0,4.61,2.06,4.61,4.58,0,1.37-.51,2.69-1.43,3.71l-1.71,1.9c-.11.12-.16.24-.16.39l-.02,1.65h-3.7Z"/>
      <path d="M29.55,21.3c1.99,0,3.61,1.61,3.61,3.59,0,1.12-.42,2.21-1.17,3.04l-1.71,1.9c-.27.29-.41.66-.41,1.05v.65h-1.74v-.65c0-.82.3-1.6.85-2.21l1.71-1.9c.47-.52.73-1.19.73-1.89,0-1.02-.84-1.85-1.87-1.85h-1.1c-1.03,0-1.87.83-1.87,1.85h-1.74c0-1.98,1.62-3.59,3.61-3.59h1.1M29.55,19.3h-1.1c-3.09,0-5.6,2.5-5.6,5.58v1.99h5.06l-.41.45c-.88.97-1.37,2.23-1.37,3.54v.68s.02,1.98.02,1.98h5.68l.02-1.97v-.5s1.62-1.79,1.62-1.79c1.09-1.2,1.69-2.76,1.69-4.38,0-3.08-2.51-5.58-5.6-5.58h0ZM28.58,25.02h.83c-.03.15-.1.29-.2.41l-.63.7v-1.11h0Z"/>
    </g>
  </g>
</svg>