<?xml version="1.0" encoding="UTF-8"?>
<svg id="Layer_1" xmlns="http://www.w3.org/2000/svg" version="1.1" viewBox="0 0 58 58">
  <!-- Generator: Adobe Illustrator 30.1.0, SVG Export Plug-In . SVG Version: 2.1.1 Build 136)  -->
  <circle id="Outer" cx="29" cy="29" r="26.48" fill="none" stroke="#000" stroke-width="5.04"/>
  <g>
    <g>
      <rect x="27.17" y="38.58" width="3.63" height="3.63"/>
      <path d="M30.44,38.94v2.91h-2.91v-2.91h2.91M31.16,38.21h-4.36v4.36h4.36v-4.36h0Z"/>
    </g>
    <g>
      <path d="M27.17,34.57v-1.46c0-1.47.54-2.87,1.52-3.96l2.88-3.19c.73-.81,1.13-1.85,1.13-2.93,0-1.52-1.24-2.75-2.77-2.75h-1.85c-1.53,0-2.77,1.23-2.77,2.75v.36h-3.66v-.36c0-3.52,2.88-6.39,6.43-6.39h1.85c3.55,0,6.43,2.86,6.43,6.39,0,1.98-.73,3.88-2.06,5.36l-2.88,3.19c-.39.43-.6.96-.6,1.53l-.02,1.46h-3.62Z"/>
      <path d="M29.92,17.01c3.35,0,6.07,2.7,6.07,6.02,0,1.89-.7,3.71-1.97,5.11l-2.88,3.19c-.45.49-.69,1.11-.69,1.77v1.1h-2.92v-1.1c0-1.38.5-2.69,1.43-3.71l2.88-3.19c.79-.87,1.22-2,1.22-3.17,0-1.72-1.41-3.11-3.14-3.11h-1.85c-1.73,0-3.14,1.4-3.14,3.11h-2.93c0-3.32,2.72-6.02,6.07-6.02h1.85M29.92,16.29h-1.85c-3.75,0-6.79,3.03-6.79,6.75v.73h4.38v-.73c0-1.32,1.08-2.39,2.41-2.39h1.85c1.33,0,2.41,1.07,2.41,2.39,0,.99-.37,1.94-1.03,2.68l-2.88,3.19c-1.04,1.15-1.62,2.64-1.63,4.2v1.11s.02.72.02.72h4.34v-.72s.02-1.1.02-1.1c0-.48.18-.93.51-1.29l2.88-3.19c1.39-1.54,2.16-3.53,2.16-5.6,0-3.72-3.05-6.75-6.79-6.75h0Z"/>
    </g>
  </g>
</svg>