<?xml version="1.0" encoding="UTF-8"?>
<svg id="Layer_1" xmlns="http://www.w3.org/2000/svg" version="1.1" viewBox="0 0 14 14">
  <!-- Generator: Adobe Illustrator 30.1.0, SVG Export Plug-In . SVG Version: 2.1.1 Build 136)  -->
  <path d="M7,2.95c.13,0,.26.07.33.2l.85,1.68c.15.29.42.49.73.55l1.83.34c.29.05.4.4.21.62l-1.34,1.47c-.21.23-.3.53-.26.84l.26,1.98c.03.24-.16.42-.37.42-.06,0-.11-.01-.17-.04l-1.6-.83c-.15-.08-.31-.11-.47-.11s-.33.04-.47.11l-1.6.83c-.06.03-.11.04-.17.04-.21,0-.4-.19-.37-.42l.26-1.98c.04-.3-.06-.61-.26-.83l-1.34-1.47c-.2-.22-.08-.56.21-.62l1.83-.34c.32-.06.59-.26.73-.55l.85-1.68c.07-.14.2-.2.33-.2M7,0C5.74,0,4.6.7,4.03,1.83l-.42.84-.9.17c-1.18.22-2.15,1.07-2.54,2.21-.38,1.14-.12,2.4.69,3.29l.74.81-.14,1.1c-.13.95.16,1.91.79,2.62.63.72,1.54,1.13,2.5,1.13.53,0,1.05-.13,1.52-.37l.73-.37.73.37c.47.24.99.37,1.52.37.96,0,1.87-.41,2.5-1.13.63-.72.92-1.67.79-2.62l-.14-1.1.74-.81c.81-.89,1.08-2.15.69-3.29-.38-1.14-1.35-1.99-2.54-2.21l-.9-.17-.42-.84C9.4.7,8.26,0,7,0h0Z"/>
</svg>