<?xml version="1.0" encoding="UTF-8"?>
<svg id="Layer_1" xmlns="http://www.w3.org/2000/svg" version="1.1" viewBox="0 0 14 14">
  <!-- Generator: Adobe Illustrator 30.1.0, SVG Export Plug-In . SVG Version: 2.1.1 Build 136)  -->
  <path d="M7,2.21c.16,0,.31.08.39.24l1,1.99c.17.34.49.58.87.65l2.17.41c.34.06.48.48.24.73l-1.58,1.73c-.24.27-.36.63-.31.99l.31,2.34c.04.28-.19.5-.44.5-.07,0-.13-.02-.2-.05l-1.9-.98c-.18-.09-.37-.14-.56-.14s-.38.05-.56.14l-1.9.98c-.07.03-.13.05-.2.05-.25,0-.47-.22-.44-.5l.31-2.34c.05-.36-.07-.72-.31-.99l-1.58-1.73c-.23-.26-.1-.67.24-.73l2.17-.41c.37-.07.7-.31.87-.65l1-1.99c.08-.16.24-.24.39-.24M7,0C5.99,0,5.09.56,4.63,1.46l-.78,1.55-1.69.32c-.94.18-1.72.85-2.02,1.76-.31.91-.09,1.92.55,2.63l1.27,1.4-.25,1.89c-.1.76.13,1.52.63,2.09.5.58,1.23.9,1.99.9.42,0,.84-.1,1.21-.29l1.45-.74,1.45.74c.37.19.79.29,1.21.29.76,0,1.49-.33,1.99-.9.5-.57.73-1.34.63-2.09l-.25-1.89,1.27-1.4c.65-.71.86-1.72.55-2.63-.31-.91-1.08-1.59-2.02-1.76l-1.69-.32-.78-1.55C8.91.56,8.01,0,7,0h0Z"/>
</svg>