<?xml version="1.0" encoding="UTF-8"?>
<svg id="Layer_1" xmlns="http://www.w3.org/2000/svg" version="1.1" viewBox="0 0 14 14">
  <!-- Generator: Adobe Illustrator 30.1.0, SVG Export Plug-In . SVG Version: 2.1.1 Build 136)  -->
  <path d="M7,1.71c.17,0,.34.09.43.27l1.11,2.2c.19.38.54.64.96.72l2.39.45c.37.07.53.53.27.81l-1.74,1.91c-.27.3-.39.69-.34,1.09l.34,2.58c.04.31-.2.55-.48.55-.07,0-.15-.02-.22-.05l-2.09-1.08c-.19-.1-.41-.15-.62-.15s-.42.05-.62.15l-2.09,1.08c-.07.04-.15.05-.22.05-.28,0-.52-.24-.48-.55l.34-2.58c.05-.4-.07-.79-.34-1.09l-1.74-1.91c-.26-.28-.11-.74.27-.81l2.39-.45c.41-.08.77-.34.96-.72l1.11-2.2c.09-.18.26-.27.43-.27M7,0C6.17,0,5.41.46,5.04,1.21l-1.03,2.04-2.22.42c-.78.15-1.43.71-1.68,1.46-.25.76-.08,1.59.46,2.18l1.63,1.79-.32,2.42c-.08.63.11,1.26.52,1.74.42.48,1.02.75,1.65.75.35,0,.69-.08,1.01-.24l1.93-.99,1.93.99c.31.16.66.24,1.01.24.63,0,1.23-.27,1.65-.75.42-.47.61-1.11.52-1.74l-.32-2.42,1.63-1.79c.54-.59.71-1.42.46-2.18-.25-.75-.9-1.31-1.68-1.46l-2.22-.42-1.03-2.04C8.59.46,7.83,0,7,0h0Z"/>
</svg>