<?xml version="1.0" encoding="UTF-8"?>
<svg id="Layer_1" xmlns="http://www.w3.org/2000/svg" version="1.1" viewBox="0 0 14 14">
  <!-- Generator: Adobe Illustrator 30.1.0, SVG Export Plug-In . SVG Version: 2.1.1 Build 136)  -->
  <path d="M7,.97c.2,0,.39.1.49.3l1.26,2.5c.22.43.62.73,1.09.82l2.73.51c.43.08.6.6.31.92l-1.99,2.18c-.31.34-.45.79-.39,1.24l.39,2.94c.05.35-.23.63-.55.63-.08,0-.17-.02-.25-.06l-2.39-1.23c-.22-.11-.46-.17-.7-.17s-.48.06-.7.17l-2.39,1.23c-.08.04-.17.06-.25.06-.32,0-.6-.28-.55-.63l.39-2.94c.06-.45-.08-.91-.39-1.24l-1.99-2.18c-.29-.32-.12-.84.31-.92l2.73-.51c.47-.09.88-.39,1.09-.82l1.26-2.5c.1-.2.3-.3.49-.3M7,0C6.42,0,5.9.32,5.64.84l-1.26,2.5c-.08.16-.23.27-.4.3l-2.73.51c-.54.1-.99.49-1.17,1.02-.18.52-.05,1.1.32,1.51l1.99,2.18c.11.12.17.29.14.46l-.39,2.94c-.06.44.08.88.36,1.2.29.33.71.52,1.15.52.24,0,.48-.06.7-.17l2.39-1.23c.08-.04.17-.06.26-.06s.18.02.26.06l2.39,1.23c.22.11.46.17.7.17.44,0,.86-.19,1.15-.52.29-.33.42-.77.36-1.2l-.39-2.94c-.02-.17.03-.34.14-.46l1.99-2.18c.37-.41.49-.99.32-1.51-.18-.52-.62-.91-1.17-1.01l-2.73-.51c-.17-.03-.32-.15-.4-.3l-1.26-2.5C8.1.32,7.58,0,7,0h0Z"/>
</svg>