<?xml version="1.0" encoding="UTF-8"?>
<svg id="Layer_1" xmlns="http://www.w3.org/2000/svg" version="1.1" viewBox="0 0 77 77">
  <!-- Generator: Adobe Illustrator 30.1.0, SVG Export Plug-In . SVG Version: 2.1.1 Build 136)  -->
  <circle id="Outer" cx="38.5" cy="38.5" r="30.39" fill="none" stroke="#000" stroke-width="16.22"/>
  <g>
    <g>
      <rect x="36.01" y="47.57" width="4.94" height="4.94"/>
      <path d="M39.63,48.9v2.3h-2.3v-2.3h2.3M42.28,46.25h-7.59v7.59h7.59v-7.59h0Z"/>
    </g>
    <g>
      <path d="M36.03,43.18l-.02-2.18c0-1.43.53-2.79,1.48-3.83l2.27-2.52c.4-.45.62-1.02.62-1.62,0-.63-.52-1.14-1.15-1.14h-1.46c-.64,0-1.15.51-1.15,1.14v1.32h-4.96v-1.32c0-3.35,2.74-6.08,6.12-6.08h1.46c3.37,0,6.12,2.73,6.12,6.08,0,1.82-.67,3.57-1.9,4.93l-2.27,2.52c-.14.15-.21.33-.21.51l-.02,2.19h-4.92Z"/>
      <path d="M39.23,28.27c2.64,0,4.79,2.14,4.79,4.76,0,1.49-.55,2.93-1.56,4.04l-2.27,2.52c-.35.39-.55.87-.55,1.4v.87h-2.3v-.87c0-1.09.4-2.12,1.13-2.93l2.27-2.52c.62-.69.97-1.58.97-2.5,0-1.36-1.11-2.46-2.48-2.46h-1.46c-1.37,0-2.48,1.1-2.48,2.46h-2.32c0-2.62,2.15-4.76,4.79-4.76h1.46M39.23,25.63h-1.46c-4.1,0-7.44,3.32-7.44,7.41v2.65h6.72l-.54.6c-1.17,1.29-1.81,2.96-1.82,4.7v.9s.03,2.62.03,2.62h7.54l.03-2.62v-.66s2.15-2.38,2.15-2.38c1.44-1.6,2.24-3.66,2.24-5.81,0-4.08-3.34-7.41-7.44-7.41h0ZM37.94,33.22h1.11c-.04.2-.13.39-.27.54l-.84.93v-1.47h0Z"/>
    </g>
  </g>
</svg>