<?xml version="1.0" encoding="UTF-8"?>
<svg id="Layer_1" xmlns="http://www.w3.org/2000/svg" version="1.1" viewBox="0 0 77 77">
  <!-- Generator: Adobe Illustrator 30.1.0, SVG Export Plug-In . SVG Version: 2.1.1 Build 136)  -->
  <circle id="Outer" cx="38.5" cy="38.5" r="35.83" fill="none" stroke="#000" stroke-width="5.34"/>
  <g>
    <g>
      <rect x="36.07" y="51.72" width="4.82" height="4.82"/>
      <path d="M40.53,52.08v4.1h-4.1v-4.1h4.1M41.25,51.36h-5.54v5.54h5.54v-5.54h0Z"/>
    </g>
    <g>
      <path d="M36.07,46.34l-.02-1.91c0-2.03.76-3.98,2.12-5.49l4.06-4.5c1.05-1.17,1.63-2.67,1.63-4.23,0-2.22-1.82-4.03-4.06-4.03h-2.61c-2.24,0-4.06,1.81-4.06,4.03v.36h-4.86v-.36c0-4.89,4-8.86,8.92-8.86h2.61c4.92,0,8.92,3.97,8.92,8.86,0,2.76-1.02,5.4-2.87,7.45l-4.06,4.5c-.58.64-.88,1.42-.89,2.26l-.02,1.91h-4.81Z"/>
      <path d="M39.8,21.72c4.72,0,8.56,3.81,8.56,8.5,0,2.67-.99,5.23-2.78,7.21l-4.06,4.5c-.63.7-.98,1.56-.98,2.5l-.02,1.55h-4.1v-1.55c0-1.94.71-3.79,2.02-5.24l4.06-4.5c1.11-1.23,1.72-2.82,1.72-4.47,0-2.42-1.98-4.39-4.42-4.39h-2.61c-2.44,0-4.42,1.97-4.42,4.39h-4.14c0-4.69,3.84-8.5,8.56-8.5h2.61M39.8,21h-2.61c-5.12,0-9.28,4.14-9.28,9.22v.72h5.58v-.72c0-2.02,1.66-3.67,3.7-3.67h2.61c2.04,0,3.7,1.65,3.7,3.67,0,1.47-.55,2.89-1.54,3.99l-4.06,4.5c-1.42,1.57-2.21,3.6-2.22,5.72v1.56s.02.72.02.72h5.53v-.71s.02-1.55.02-1.55c0-.75.28-1.45.79-2.02l4.06-4.5c1.91-2.12,2.97-4.85,2.97-7.7,0-5.08-4.16-9.22-9.28-9.22h0Z"/>
    </g>
  </g>
</svg>