<?xml version="1.0" encoding="UTF-8"?>
<svg id="Layer_1" xmlns="http://www.w3.org/2000/svg" version="1.1" viewBox="0 0 77 77">
  <!-- Generator: Adobe Illustrator 30.1.0, SVG Export Plug-In . SVG Version: 2.1.1 Build 136)  -->
  <circle id="Outer" cx="38.5" cy="38.5" r="32.42" fill="none" stroke="#000" stroke-width="12.15"/>
  <g>
    <g>
      <rect x="36.05" y="49.14" width="4.85" height="4.85"/>
      <path d="M39.94,50.11v2.93h-2.93v-2.93h2.93M41.87,48.18h-6.78v6.78h6.78v-6.78h0Z"/>
    </g>
    <g>
      <path d="M36.07,44.24l-.02-2.06c0-1.63.61-3.19,1.7-4.4l2.9-3.21c.63-.7.98-1.61.98-2.55,0-1.2-.99-2.18-2.2-2.18h-1.86c-1.21,0-2.2.98-2.2,2.18v.96h-4.88v-.96c0-3.88,3.17-7.03,7.08-7.03h1.86c3.9,0,7.08,3.16,7.08,7.03,0,2.14-.79,4.2-2.23,5.8l-2.9,3.21c-.29.33-.45.72-.45,1.14l-.02,2.07h-4.84Z"/>
      <path d="M39.43,25.95c3.37,0,6.11,2.72,6.11,6.07,0,1.9-.71,3.73-1.99,5.15l-2.9,3.21c-.45.5-.7,1.11-.7,1.78v1.11h-2.94v-1.11c0-1.39.51-2.71,1.44-3.74l2.9-3.21c.79-.88,1.23-2.01,1.23-3.19,0-1.73-1.42-3.14-3.16-3.14h-1.86c-1.74,0-3.16,1.41-3.16,3.14h-2.95c0-3.35,2.74-6.07,6.11-6.07h1.86M39.43,24.02h-1.86c-4.43,0-8.04,3.59-8.04,8v1.92h6.8v-1.92c0-.67.55-1.21,1.24-1.21h1.86c.68,0,1.24.54,1.24,1.21,0,.7-.26,1.38-.73,1.9l-2.9,3.21c-1.25,1.38-1.94,3.17-1.95,5.03v1.13s.03,1.91.03,1.91h6.74l.02-1.91v-1.11c.01-.2.08-.36.21-.51l2.9-3.22c1.6-1.77,2.48-4.06,2.48-6.44,0-4.41-3.61-8-8.04-8h0Z"/>
    </g>
  </g>
</svg>