<?xml version="1.0" encoding="UTF-8"?>
<svg id="Layer_1" xmlns="http://www.w3.org/2000/svg" version="1.1" viewBox="0 0 77 77">
  <!-- Generator: Adobe Illustrator 30.1.0, SVG Export Plug-In . SVG Version: 2.1.1 Build 136)  -->
  <circle id="Outer" cx="38.5" cy="38.5" r="33.8" fill="none" stroke="#000" stroke-width="9.41"/>
  <g>
    <g>
      <rect x="36.06" y="50.19" width="4.83" height="4.83"/>
      <path d="M40.17,50.91v3.38h-3.38v-3.38h3.38M41.61,49.47h-6.27v6.27h6.27v-6.27h0Z"/>
    </g>
    <g>
      <path d="M36.07,45.04l-.02-2c0-1.79.67-3.5,1.86-4.82l3.35-3.71c.8-.88,1.24-2.02,1.24-3.21,0-1.6-1.31-2.91-2.93-2.91h-2.15c-1.62,0-2.93,1.3-2.93,2.91v.72h-4.86v-.72c0-4.27,3.49-7.74,7.79-7.74h2.15c4.29,0,7.79,3.47,7.79,7.74,0,2.38-.88,4.67-2.48,6.44l-3.35,3.71c-.41.45-.62,1-.62,1.58l-.02,2h-4.81Z"/>
      <path d="M39.58,24.29c3.9,0,7.07,3.15,7.07,7.02,0,2.2-.82,4.32-2.29,5.95l-3.35,3.71c-.52.57-.81,1.29-.81,2.06v1.28h-3.4v-1.28c0-1.6.59-3.13,1.67-4.33l3.35-3.71c.92-1.02,1.42-2.33,1.42-3.69,0-2-1.64-3.63-3.65-3.63h-2.15c-2.01,0-3.65,1.63-3.65,3.63h-3.41c0-3.87,3.17-7.02,7.07-7.02h2.15M39.58,22.85h-2.15c-4.69,0-8.51,3.8-8.51,8.46v1.44h6.3v-1.44c0-1.2.99-2.18,2.21-2.18h2.15c1.22,0,2.21.98,2.21,2.18,0,1.01-.37,1.97-1.05,2.72l-3.35,3.71c-1.31,1.45-2.04,3.33-2.05,5.29v1.3s.02,1.43.02,1.43h6.24v-1.43s.03-1.28.03-1.28c0-.42.15-.79.44-1.11l3.35-3.72c1.72-1.9,2.67-4.36,2.67-6.92,0-4.67-3.82-8.46-8.51-8.46h0Z"/>
    </g>
  </g>
</svg>