<?xml version="1.0" encoding="UTF-8"?>
<svg id="Layer_1" xmlns="http://www.w3.org/2000/svg" version="1.1" viewBox="0 0 77 77">
  <!-- Generator: Adobe Illustrator 30.1.0, SVG Export Plug-In . SVG Version: 2.1.1 Build 136)  -->
  <circle id="Outer" cx="38.5" cy="38.5" r="31.06" fill="none" stroke="#000" stroke-width="14.87"/>
  <g>
    <g>
      <rect x="36.03" y="48.1" width="4.9" height="4.91"/>
      <path d="M39.73,49.3v2.5h-2.5v-2.5h2.5M42.14,46.89h-7.31v7.31h7.31v-7.31h0Z"/>
    </g>
    <g>
      <path d="M36.04,43.51l-.02-2.14c0-1.49.56-2.91,1.55-4.01l2.47-2.74c.48-.53.74-1.21.74-1.92,0-.81-.67-1.48-1.49-1.48h-1.59c-.82,0-1.49.66-1.49,1.48v1.2h-4.93v-1.2c0-3.52,2.88-6.38,6.42-6.38h1.59c3.54,0,6.42,2.86,6.42,6.38,0,1.92-.71,3.77-2,5.2l-2.48,2.74c-.19.21-.29.45-.29.72l-.02,2.14h-4.88Z"/>
      <path d="M39.29,27.52c2.88,0,5.22,2.33,5.22,5.18,0,1.63-.6,3.19-1.69,4.4l-2.48,2.74c-.38.42-.6.95-.6,1.52v.95h-2.51v-.95c0-1.18.43-2.31,1.23-3.19l2.48-2.74c.68-.75,1.05-1.72,1.05-2.73,0-1.48-1.21-2.68-2.7-2.68h-1.59c-1.49,0-2.7,1.2-2.7,2.68h-2.52c0-2.86,2.34-5.18,5.22-5.18h1.59M39.29,25.12h-1.59c-4.2,0-7.62,3.4-7.62,7.59v2.41h7.33v-2.41c0-.15.13-.27.29-.27h1.59c.16,0,.29.12.29.27,0,.41-.15.81-.43,1.11l-2.48,2.74c-1.19,1.32-1.85,3.02-1.86,4.8v.98s.03,2.39.03,2.39h7.27l.02-2.38v-.9s2.46-2.72,2.46-2.72c1.49-1.65,2.31-3.79,2.31-6.01,0-4.18-3.42-7.59-7.62-7.59h0Z"/>
    </g>
  </g>
</svg>