<?xml version="1.0" encoding="UTF-8"?>
<svg id="Layer_1" xmlns="http://www.w3.org/2000/svg" version="1.1" viewBox="0 0 77 77">
  <!-- Generator: Adobe Illustrator 30.1.0, SVG Export Plug-In . SVG Version: 2.1.1 Build 136)  -->
  <circle id="Outer" cx="38.5" cy="38.5" r="35.16" fill="none" stroke="#000" stroke-width="6.69"/>
  <g>
    <g>
      <rect x="36.07" y="51.21" width="4.82" height="4.82"/>
      <path d="M40.41,51.69v3.86h-3.86v-3.86h3.86M41.37,50.73h-5.78v5.78h5.78v-5.78h0Z"/>
    </g>
    <g>
      <path d="M36.07,45.9l-.02-1.94c0-1.95.73-3.81,2.04-5.26l3.82-4.23c.97-1.07,1.5-2.45,1.5-3.89,0-2.01-1.65-3.65-3.68-3.65h-2.45c-2.03,0-3.68,1.64-3.68,3.65v.48h-4.85v-.48c0-4.68,3.83-8.48,8.54-8.48h2.45c4.71,0,8.54,3.8,8.54,8.48,0,2.63-.97,5.15-2.74,7.11l-3.82,4.23c-.52.58-.8,1.28-.8,2.03l-.02,1.94h-4.81Z"/>
      <path d="M39.73,22.59c4.44,0,8.05,3.59,8.05,8,0,2.51-.93,4.92-2.62,6.79l-3.82,4.23c-.59.65-.92,1.47-.92,2.35v1.46h-3.87v-1.46c0-1.83.67-3.57,1.9-4.93l3.82-4.23c1.05-1.16,1.62-2.65,1.62-4.21,0-2.28-1.87-4.13-4.16-4.13h-2.45c-2.3,0-4.16,1.85-4.16,4.13h-3.89c0-4.41,3.61-8,8.05-8h2.45M39.73,21.63h-2.45c-4.97,0-9.02,4.02-9.02,8.96v.96h5.82v-.96c0-1.75,1.44-3.17,3.2-3.17h2.45c1.76,0,3.2,1.42,3.2,3.17,0,1.32-.49,2.58-1.37,3.56l-3.82,4.23c-1.38,1.53-2.15,3.51-2.16,5.57v1.47s.02.95.02.95h5.76v-.95s.02-1.46.02-1.46c0-.64.24-1.23.67-1.71l3.82-4.23c1.85-2.05,2.86-4.68,2.86-7.43,0-4.94-4.05-8.96-9.02-8.96h0Z"/>
    </g>
  </g>
</svg>