<?xml version="1.0" encoding="UTF-8"?>
<svg id="Layer_1" xmlns="http://www.w3.org/2000/svg" version="1.1" viewBox="0 0 17 17">
  <!-- Generator: Adobe Illustrator 30.1.0, SVG Export Plug-In . SVG Version: 2.1.1 Build 136)  -->
  <path d="M8.5,3.58c.16,0,.32.08.4.25l1.03,2.04c.18.35.51.6.89.67l2.23.42c.35.07.49.49.25.75l-1.62,1.78c-.25.27-.37.65-.32,1.01l.32,2.4c.04.29-.19.51-.45.51-.07,0-.14-.02-.21-.05l-1.95-1c-.18-.09-.38-.14-.58-.14s-.39.05-.58.14l-1.95,1c-.07.03-.14.05-.21.05-.26,0-.49-.23-.45-.51l.32-2.4c.05-.37-.07-.74-.32-1.01l-1.62-1.78c-.24-.26-.1-.69.25-.75l2.23-.42c.38-.07.71-.32.89-.67l1.03-2.04c.08-.17.24-.25.4-.25M8.5,0C6.97,0,5.59.85,4.9,2.22l-.51,1.02-1.1.21c-1.44.27-2.62,1.3-3.08,2.68-.46,1.39-.14,2.92.84,4l.9.98-.18,1.33c-.15,1.15.2,2.31.96,3.19.77.87,1.87,1.38,3.03,1.38.64,0,1.28-.15,1.85-.45l.88-.46.88.45c.57.29,1.21.45,1.85.45,1.16,0,2.27-.5,3.03-1.38.76-.87,1.12-2.03.96-3.19l-.18-1.33.9-.98c.98-1.08,1.31-2.61.84-4-.46-1.39-1.64-2.41-3.08-2.68l-1.1-.21-.51-1.02C11.41.85,10.03,0,8.5,0h0Z"/>
</svg>