<?xml version="1.0" encoding="UTF-8"?>
<svg id="Layer_1" xmlns="http://www.w3.org/2000/svg" version="1.1" viewBox="0 0 17 17">
  <!-- Generator: Adobe Illustrator 30.1.0, SVG Export Plug-In . SVG Version: 2.1.1 Build 136)  -->
  <path d="M8.5,2.08c.21,0,.42.11.53.32l1.34,2.67c.23.46.66.78,1.16.88l2.91.54c.45.09.64.64.33.98l-2.12,2.32c-.33.36-.48.84-.42,1.33l.41,3.13c.05.37-.25.67-.58.67-.09,0-.18-.02-.27-.07l-2.54-1.31c-.24-.12-.49-.18-.75-.18-.26,0-.52.06-.75.18l-2.54,1.31c-.09.05-.18.07-.27.07-.34,0-.63-.3-.58-.67l.41-3.13c.06-.48-.09-.97-.41-1.32l-2.12-2.32c-.31-.34-.13-.9.33-.98l2.91-.54c.5-.09.93-.42,1.16-.88l1.34-2.67c.11-.22.32-.32.53-.32M8.5,0C7.49,0,6.57.56,6.12,1.47l-1.25,2.48-2.69.5c-.95.18-1.73.86-2.04,1.77-.31.92-.09,1.93.56,2.65l1.98,2.18-.39,2.94c-.1.76.13,1.53.64,2.11.51.58,1.24.91,2.01.91.42,0,.84-.1,1.22-.3l2.34-1.21,2.34,1.21c.38.19.8.3,1.22.3.77,0,1.5-.33,2.01-.91.51-.58.74-1.34.64-2.11l-.39-2.94,1.98-2.18c.65-.71.87-1.73.56-2.65-.31-.92-1.09-1.6-2.04-1.77l-2.69-.51-1.25-2.48C10.43.56,9.51,0,8.5,0h0Z"/>
</svg>