<?xml version="1.0" encoding="UTF-8"?>
<svg id="Layer_1" xmlns="http://www.w3.org/2000/svg" version="1.1" viewBox="0 0 75 75">
  <!-- Generator: Adobe Illustrator 30.1.0, SVG Export Plug-In . SVG Version: 2.1.1 Build 136)  -->
  <path d="M37.5,11.84c.83,0,1.67.43,2.1,1.3l5.37,10.66c.92,1.83,2.64,3.12,4.65,3.5l11.62,2.18c1.82.34,2.55,2.55,1.31,3.92l-8.46,9.29c-1.31,1.43-1.91,3.37-1.66,5.29l1.65,12.52c.2,1.49-.99,2.68-2.34,2.68-.36,0-.72-.08-1.08-.27l-10.16-5.23c-.94-.48-1.97-.73-3-.73-1.03,0-2.06.24-3,.73l-10.16,5.23c-.35.18-.72.27-1.08.27-1.34,0-2.53-1.18-2.34-2.68l1.65-12.53c.25-1.92-.35-3.86-1.66-5.29l-8.46-9.29c-1.25-1.37-.51-3.58,1.31-3.92l11.61-2.18c2.01-.38,3.73-1.67,4.65-3.5l5.37-10.66c.44-.87,1.27-1.3,2.1-1.3M37.5,0C32.11,0,27.25,2.99,24.82,7.81l-4.2,8.33-9.05,1.7c-5.05.95-9.21,4.57-10.84,9.44-1.63,4.88-.5,10.27,2.97,14.08l6.82,7.48-1.33,10.1c-.53,4.06.7,8.14,3.39,11.21,2.7,3.08,6.59,4.85,10.68,4.85,2.24,0,4.49-.55,6.5-1.58l7.74-3.99,7.74,3.99c2.01,1.03,4.25,1.58,6.5,1.58,4.08,0,7.98-1.77,10.68-4.85,2.69-3.07,3.93-7.16,3.39-11.21l-1.33-10.1,6.82-7.48c3.47-3.8,4.6-9.2,2.97-14.08-1.63-4.88-5.79-8.5-10.84-9.44l-9.05-1.7-4.2-8.33C47.75,2.99,42.89,0,37.5,0h0Z"/>
</svg>