<?xml version="1.0" encoding="UTF-8"?>
<svg id="Layer_1" xmlns="http://www.w3.org/2000/svg" version="1.1" viewBox="0 0 75 75">
  <!-- Generator: Adobe Illustrator 30.1.0, SVG Export Plug-In . SVG Version: 2.1.1 Build 136)  -->
  <path d="M37.5,9.16c.92,0,1.84.48,2.32,1.43l5.93,11.77c1.02,2.02,2.92,3.45,5.13,3.86l12.82,2.4c2.01.38,2.82,2.81,1.44,4.32l-9.34,10.25c-1.44,1.58-2.11,3.72-1.83,5.85l1.82,13.83c.22,1.65-1.1,2.96-2.58,2.96-.39,0-.8-.09-1.19-.29l-11.22-5.78c-1.04-.54-2.18-.8-3.31-.8-1.14,0-2.27.27-3.31.8l-11.22,5.78c-.39.2-.8.29-1.19.29-1.48,0-2.8-1.31-2.58-2.96l1.82-13.83c.28-2.12-.39-4.26-1.83-5.84l-9.34-10.25c-1.38-1.51-.56-3.95,1.44-4.33l12.82-2.4c2.22-.42,4.11-1.84,5.13-3.86l5.93-11.77c.48-.96,1.4-1.43,2.32-1.43M37.5,0C33.03,0,29,2.48,26.99,6.47l-5.5,10.92-11.89,2.23c-4.19.79-7.64,3.79-8.99,7.83-1.36,4.05-.41,8.52,2.46,11.67l8.75,9.6-1.71,12.95c-.44,3.36.58,6.75,2.81,9.3,2.24,2.56,5.47,4.02,8.85,4.02,1.86,0,3.72-.45,5.39-1.31l10.34-5.32,10.34,5.32c1.66.86,3.53,1.31,5.39,1.31,3.39,0,6.61-1.47,8.85-4.02,2.23-2.54,3.25-5.93,2.81-9.3l-1.71-12.95,8.75-9.6c2.87-3.15,3.82-7.63,2.46-11.67-1.35-4.04-4.8-7.04-8.99-7.83l-11.89-2.23-5.5-10.92C46,2.48,41.97,0,37.5,0h0Z"/>
</svg>