<?xml version="1.0" encoding="UTF-8"?>
<svg id="Layer_1" xmlns="http://www.w3.org/2000/svg" version="1.1" viewBox="0 0 115 115">
  <!-- Generator: Adobe Illustrator 30.1.0, SVG Export Plug-In . SVG Version: 2.1.1 Build 136)  -->
  <path d="M57.5,24.22c1.08,0,2.16.56,2.73,1.68l6.96,13.82c1.19,2.37,3.42,4.05,6.03,4.54l15.06,2.82c2.35.44,3.31,3.3,1.69,5.08l-10.97,12.04c-1.69,1.86-2.48,4.37-2.15,6.87l2.14,16.24c.26,1.94-1.29,3.47-3.03,3.47-.46,0-.94-.11-1.4-.34l-13.17-6.78c-1.22-.63-2.56-.94-3.89-.94-1.34,0-2.67.31-3.89.94l-13.17,6.78c-.46.24-.94.34-1.4.34-1.74,0-3.29-1.53-3.03-3.47l2.14-16.24c.33-2.49-.46-5-2.15-6.86l-10.97-12.04c-1.62-1.77-.66-4.64,1.7-5.08l15.06-2.82c2.6-.49,4.83-2.16,6.03-4.53l6.96-13.82c.57-1.12,1.65-1.68,2.73-1.68M57.5,0C47.14,0,37.8,5.75,33.14,15.01l-3.47,6.88-7.41,1.39c-9.72,1.82-17.7,8.78-20.84,18.15-3.14,9.38-.95,19.74,5.71,27.05l6.06,6.65-1.19,9.01c-1.03,7.79,1.35,15.65,6.52,21.55,5.19,5.92,12.67,9.31,20.52,9.31,4.32,0,8.64-1.05,12.49-3.03l5.97-3.08,5.98,3.08c3.85,1.98,8.17,3.03,12.49,3.03,7.85,0,15.33-3.39,20.52-9.31,5.17-5.9,7.55-13.76,6.52-21.55l-1.19-9.01,6.06-6.65c6.66-7.31,8.85-17.67,5.71-27.05-3.14-9.37-11.13-16.33-20.84-18.15l-7.42-1.39-3.47-6.88C77.2,5.75,67.86,0,57.5,0h0Z"/>
</svg>