<?xml version="1.0" encoding="UTF-8"?>
<svg id="Layer_1" xmlns="http://www.w3.org/2000/svg" version="1.1" viewBox="0 0 68 68">
  <!-- Generator: Adobe Illustrator 30.1.0, SVG Export Plug-In . SVG Version: 2.1.1 Build 136)  -->
  <path d="M34,13.13c.68,0,1.36.35,1.71,1.06l4.37,8.67c.75,1.49,2.15,2.54,3.78,2.85l9.44,1.77c1.48.28,2.08,2.07,1.06,3.18l-6.88,7.55c-1.06,1.17-1.56,2.74-1.35,4.31l1.34,10.18c.16,1.21-.81,2.18-1.9,2.18-.29,0-.59-.07-.88-.22l-8.26-4.25c-.77-.39-1.6-.59-2.44-.59s-1.67.2-2.44.59l-8.26,4.25c-.29.15-.59.22-.88.22-1.09,0-2.06-.96-1.9-2.18l1.34-10.18c.21-1.56-.29-3.14-1.35-4.3l-6.88-7.55c-1.01-1.11-.41-2.91,1.06-3.19l9.44-1.77c1.63-.31,3.03-1.36,3.78-2.84l4.37-8.67c.35-.7,1.03-1.06,1.71-1.06M34,0C28.28,0,23.13,3.17,20.56,8.28l-2.63,5.22-5.65,1.06c-5.36,1-9.77,4.84-11.5,10.01-1.73,5.17-.53,10.89,3.15,14.93l4.44,4.88-.87,6.6c-.57,4.3.74,8.63,3.6,11.89,2.86,3.26,6.99,5.14,11.32,5.14,2.38,0,4.76-.58,6.89-1.67l4.69-2.41,4.69,2.41c2.13,1.09,4.51,1.67,6.89,1.67,4.33,0,8.46-1.87,11.32-5.14,2.85-3.26,4.17-7.59,3.6-11.89l-.87-6.6,4.44-4.88c3.67-4.03,4.88-9.75,3.15-14.92-1.73-5.17-6.14-9.01-11.5-10.01l-5.65-1.06-2.63-5.22C44.87,3.17,39.72,0,34,0h0Z"/>
</svg>