<?xml version="1.0" encoding="UTF-8"?>
<svg id="Layer_1" xmlns="http://www.w3.org/2000/svg" version="1.1" viewBox="0 0 68 68">
  <!-- Generator: Adobe Illustrator 30.1.0, SVG Export Plug-In . SVG Version: 2.1.1 Build 136)  -->
  <path d="M34,5.91c.91,0,1.83.47,2.3,1.42l5.88,11.67c1.01,2,2.89,3.42,5.09,3.83l12.71,2.38c1.99.37,2.79,2.79,1.43,4.29l-9.26,10.17c-1.43,1.57-2.09,3.69-1.82,5.8l1.81,13.71c.22,1.64-1.09,2.93-2.56,2.93-.39,0-.79-.09-1.18-.29l-11.12-5.73c-1.03-.53-2.16-.8-3.29-.8s-2.25.27-3.29.8l-11.12,5.73c-.39.2-.79.29-1.18.29-1.47,0-2.77-1.29-2.56-2.93l1.81-13.71c.28-2.1-.39-4.22-1.81-5.79l-9.26-10.17c-1.36-1.5-.56-3.92,1.43-4.29l12.71-2.38c2.2-.41,4.08-1.83,5.09-3.83l5.88-11.67c.48-.95,1.39-1.42,2.3-1.42M34,0C30.78,0,27.87,1.79,26.42,4.67l-5.88,11.67c-.18.35-.51.61-.9.68l-12.71,2.38c-3.02.57-5.51,2.73-6.49,5.65-.98,2.92-.3,6.15,1.78,8.42l9.26,10.17c.26.28.37.66.32,1.04l-1.81,13.71c-.32,2.43.42,4.87,2.03,6.71,1.62,1.85,3.95,2.9,6.39,2.9,1.34,0,2.68-.33,3.88-.95l11.12-5.73c.18-.09.38-.14.58-.14s.4.05.58.14l11.12,5.73c1.2.62,2.55.95,3.88.95,2.44,0,4.77-1.06,6.39-2.9,1.61-1.83,2.35-4.28,2.03-6.71l-1.81-13.71c-.05-.38.07-.76.33-1.04l9.26-10.17c2.07-2.28,2.75-5.5,1.78-8.42-.98-2.92-3.46-5.08-6.48-5.65l-12.71-2.38c-.39-.07-.72-.33-.9-.68l-5.88-11.67C40.13,1.79,37.22,0,34,0h0Z"/>
</svg>