<?xml version="1.0" encoding="UTF-8"?>
<svg id="Layer_1" xmlns="http://www.w3.org/2000/svg" version="1.1" viewBox="0 0 42 42">
  <!-- Generator: Adobe Illustrator 30.1.0, SVG Export Plug-In . SVG Version: 2.1.1 Build 136)  -->
  <circle id="Outer" cx="21" cy="21" r="16.58" fill="none" stroke="#000" stroke-width="8.85"/>
  <g>
    <g>
      <rect x="19.64" y="25.95" width="2.7" height="2.7"/>
      <path d="M21.62,26.67v1.25h-1.25v-1.25h1.25M23.06,25.23h-4.14v4.14h4.14v-4.14h0Z"/>
    </g>
    <g>
      <path d="M19.65,23.55v-1.19c0-.78.28-1.52.8-2.09l1.24-1.37c.22-.24.34-.56.34-.88,0-.34-.28-.62-.63-.62h-.8c-.35,0-.63.28-.63.62v.72h-2.71v-.72c0-1.83,1.5-3.32,3.34-3.32h.8c1.84,0,3.34,1.49,3.34,3.32,0,.99-.37,1.95-1.03,2.69l-1.24,1.37c-.07.08-.11.18-.11.28v1.19h-2.69Z"/>
      <path d="M21.4,15.42c1.44,0,2.61,1.17,2.61,2.6,0,.81-.3,1.6-.85,2.2l-1.24,1.37c-.19.21-.3.48-.3.76v.47h-1.26v-.47c0-.59.22-1.16.62-1.6l1.24-1.37c.34-.38.53-.86.53-1.37,0-.74-.61-1.34-1.35-1.34h-.8c-.75,0-1.35.6-1.35,1.34h-1.26c0-1.43,1.17-2.6,2.61-2.6h.8M21.4,13.98h-.8c-2.24,0-4.06,1.81-4.06,4.04v1.44h3.67l-.3.33c-.64.7-.99,1.61-.99,2.56v.49s.02,1.43.02,1.43h4.11v-1.43s.02-.36.02-.36l1.17-1.3c.79-.87,1.22-2,1.22-3.17,0-2.23-1.82-4.04-4.06-4.04h0ZM20.69,18.12h.6c-.02.11-.07.21-.15.3l-.46.51v-.8h0Z"/>
    </g>
  </g>
</svg>