<?xml version="1.0" encoding="UTF-8"?>
<svg id="Layer_1" xmlns="http://www.w3.org/2000/svg" version="1.1" viewBox="0 0 42 42">
  <!-- Generator: Adobe Illustrator 30.1.0, SVG Export Plug-In . SVG Version: 2.1.1 Build 136)  -->
  <circle id="Outer" cx="21" cy="21" r="19.18" fill="none" stroke="#000" stroke-width="3.65"/>
  <g>
    <g>
      <rect x="19.67" y="27.93" width="2.63" height="2.63"/>
      <path d="M22.04,28.2v2.1h-2.1v-2.1h2.1M22.56,27.67h-3.15v3.15h3.15v-3.15h0Z"/>
    </g>
    <g>
      <path d="M19.68,25.04v-1.06c0-1.06.39-2.08,1.1-2.87l2.08-2.31c.53-.58.82-1.34.82-2.12,0-1.1-.9-1.99-2.01-1.99h-1.34c-1.11,0-2.01.89-2.01,1.99v.26h-2.65v-.26c0-2.55,2.09-4.63,4.66-4.63h1.34c2.57,0,4.66,2.08,4.66,4.63,0,1.43-.53,2.81-1.49,3.88l-2.08,2.31c-.28.31-.43.7-.44,1.11v1.06h-2.64Z"/>
      <path d="M21.67,12.32c2.42,0,4.39,1.96,4.39,4.36,0,1.37-.51,2.68-1.43,3.7l-2.08,2.31c-.32.36-.5.8-.5,1.28v.8h-2.11v-.8c0-1,.36-1.95,1.04-2.69l2.08-2.31c.57-.63.88-1.45.88-2.3,0-1.24-1.02-2.25-2.27-2.25h-1.34c-1.25,0-2.27,1.01-2.27,2.25h-2.12c0-2.41,1.97-4.36,4.39-4.36h1.34M21.67,11.8h-1.34c-2.71,0-4.92,2.19-4.92,4.89v.52h3.17v-.52c0-.95.78-1.73,1.75-1.73h1.34c.96,0,1.75.78,1.75,1.73,0,.72-.27,1.41-.75,1.94l-2.08,2.31c-.76.83-1.17,1.91-1.18,3.04v.8s.01.52.01.52h3.14v-.52s.01-.8.01-.8c0-.35.13-.67.37-.93l2.08-2.31c1.01-1.12,1.56-2.56,1.56-4.05,0-2.7-2.21-4.89-4.92-4.89h0Z"/>
    </g>
  </g>
</svg>