<?xml version="1.0" encoding="UTF-8"?>
<svg id="Layer_1" xmlns="http://www.w3.org/2000/svg" version="1.1" viewBox="0 0 42 42">
  <!-- Generator: Adobe Illustrator 30.1.0, SVG Export Plug-In . SVG Version: 2.1.1 Build 136)  -->
  <circle id="Outer" cx="21" cy="21" r="19.54" fill="none" stroke="#000" stroke-width="2.91"/>
  <g>
    <g>
      <rect x="19.67" y="28.21" width="2.63" height="2.63"/>
      <path d="M22.1,28.41v2.24h-2.24v-2.24h2.24M22.5,28.01h-3.02v3.02h3.02v-3.02h0Z"/>
    </g>
    <g>
      <path d="M19.68,25.28v-1.04c0-1.11.41-2.17,1.15-2.99l2.21-2.45c.57-.63.89-1.45.89-2.31,0-1.21-.99-2.2-2.22-2.2h-1.42c-1.22,0-2.22.99-2.22,2.2v.2h-2.65v-.2c0-2.67,2.18-4.83,4.87-4.83h1.42c2.68,0,4.87,2.17,4.87,4.83,0,1.5-.56,2.95-1.57,4.07l-2.21,2.45c-.32.35-.48.77-.48,1.23v1.04h-2.64Z"/>
      <path d="M21.71,11.85c2.57,0,4.67,2.08,4.67,4.64,0,1.45-.54,2.85-1.52,3.93l-2.21,2.45c-.34.38-.53.85-.53,1.36v.85h-2.24v-.85c0-1.06.39-2.07,1.1-2.86l2.21-2.45c.61-.67.94-1.54.94-2.44,0-1.32-1.08-2.4-2.41-2.4h-1.42c-1.33,0-2.41,1.08-2.41,2.4h-2.26c0-2.56,2.09-4.64,4.67-4.64h1.42M21.71,11.45h-1.42c-2.79,0-5.06,2.26-5.06,5.03v.39h3.04v-.39c0-1.1.91-2,2.02-2h1.42c1.11,0,2.02.9,2.02,2,0,.8-.3,1.58-.84,2.18l-2.21,2.45c-.78.86-1.2,1.97-1.21,3.12v.85s.01.39.01.39h3.02v-.39s.01-.85.01-.85c0-.41.15-.79.43-1.1l2.22-2.45c1.04-1.16,1.62-2.65,1.62-4.2,0-2.77-2.27-5.03-5.06-5.03h0Z"/>
    </g>
  </g>
</svg>