<?xml version="1.0" encoding="UTF-8"?>
<svg id="Layer_1" xmlns="http://www.w3.org/2000/svg" version="1.1" viewBox="0 0 42 42">
  <!-- Generator: Adobe Illustrator 30.1.0, SVG Export Plug-In . SVG Version: 2.1.1 Build 136)  -->
  <circle id="Outer" cx="21" cy="21" r="16.94" fill="none" stroke="#000" stroke-width="8.11"/>
  <g>
    <g>
      <rect x="19.65" y="26.24" width="2.68" height="2.67"/>
      <path d="M21.67,26.89v1.36h-1.36v-1.36h1.36M22.98,25.58h-3.99v3.99h3.99v-3.99h0Z"/>
    </g>
    <g>
      <path d="M19.66,23.73v-1.17c0-.82.29-1.59.84-2.19l1.35-1.5c.26-.29.4-.66.4-1.05,0-.44-.37-.8-.82-.8h-.87c-.45,0-.81.36-.81.8v.66h-2.69v-.66c0-1.92,1.57-3.48,3.5-3.48h.87c1.93,0,3.5,1.56,3.5,3.48,0,1.05-.39,2.06-1.09,2.84l-1.35,1.5c-.1.12-.16.25-.16.39v1.17h-2.68Z"/>
      <path d="M21.43,15.01c1.57,0,2.85,1.27,2.85,2.83,0,.89-.33,1.74-.92,2.4l-1.35,1.5c-.21.23-.32.52-.33.83v.52h-1.37v-.52c0-.65.24-1.26.67-1.74l1.35-1.5c.37-.41.57-.94.57-1.49,0-.81-.66-1.46-1.47-1.46h-.87c-.81,0-1.47.66-1.47,1.46h-1.38c0-1.56,1.28-2.83,2.85-2.83h.87M21.43,13.7h-.87c-2.29,0-4.16,1.86-4.16,4.14v1.31h4v-1.31c0-.08.07-.15.16-.15h.87c.09,0,.16.07.16.15,0,.22-.08.44-.23.61l-1.35,1.5c-.65.72-1.01,1.65-1.01,2.62v.53s.02,1.3.02,1.3h3.96v-1.3s.02-.52.02-.52l1.34-1.46c.81-.9,1.26-2.07,1.26-3.28,0-2.28-1.87-4.14-4.16-4.14h0Z"/>
    </g>
  </g>
</svg>