<?xml version="1.0" encoding="UTF-8"?>
<svg id="Layer_1" xmlns="http://www.w3.org/2000/svg" version="1.1" viewBox="0 0 42 42">
  <!-- Generator: Adobe Illustrator 30.1.0, SVG Export Plug-In . SVG Version: 2.1.1 Build 136)  -->
  <circle id="Outer" cx="21" cy="21" r="18.43" fill="none" stroke="#000" stroke-width="5.13"/>
  <g>
    <g>
      <rect x="19.67" y="27.38" width="2.63" height="2.63"/>
      <path d="M21.91,27.77v1.85h-1.85v-1.85h1.85M22.7,26.98h-3.42v3.42h3.42v-3.42h0Z"/>
    </g>
    <g>
      <path d="M19.68,24.57v-1.09c0-.97.35-1.91,1.01-2.63l1.83-2.02c.43-.48.67-1.1.67-1.75,0-.87-.72-1.58-1.6-1.58h-1.17c-.88,0-1.6.71-1.6,1.58v.39h-2.65v-.39c0-2.33,1.91-4.22,4.25-4.22h1.17c2.34,0,4.25,1.89,4.25,4.22,0,1.3-.48,2.55-1.35,3.51l-1.83,2.03c-.22.25-.34.54-.34.86v1.09h-2.64Z"/>
      <path d="M21.59,13.25c2.13,0,3.85,1.72,3.85,3.83,0,1.2-.44,2.35-1.25,3.25l-1.83,2.03c-.28.31-.44.7-.44,1.12v.7h-1.85v-.7c0-.87.32-1.71.91-2.36l1.83-2.03c.5-.55.78-1.27.78-2.01,0-1.09-.89-1.98-1.99-1.98h-1.17c-1.1,0-1.99.89-1.99,1.98h-1.86c0-2.11,1.73-3.83,3.85-3.83h1.17M21.59,12.46h-1.17c-2.56,0-4.64,2.07-4.64,4.61v.79h3.44v-.79c0-.66.54-1.19,1.2-1.19h1.17c.66,0,1.2.53,1.2,1.19,0,.55-.2,1.08-.57,1.49l-1.83,2.03c-.72.79-1.11,1.82-1.12,2.88v.71s.01.78.01.78h3.41v-.78s.01-.7.01-.7c0-.23.08-.43.24-.6l1.83-2.03c.94-1.04,1.45-2.38,1.45-3.78,0-2.54-2.08-4.61-4.64-4.61h0Z"/>
    </g>
  </g>
</svg>