<?xml version="1.0" encoding="UTF-8"?>
<svg id="Layer_1" xmlns="http://www.w3.org/2000/svg" version="1.1" viewBox="0 0 42 42">
  <!-- Generator: Adobe Illustrator 30.1.0, SVG Export Plug-In . SVG Version: 2.1.1 Build 136)  -->
  <circle id="Outer" cx="21" cy="21" r="17.69" fill="none" stroke="#000" stroke-width="6.63"/>
  <g>
    <g>
      <rect x="19.67" y="26.81" width="2.65" height="2.65"/>
      <path d="M21.79,27.33v1.6h-1.6v-1.6h1.6M22.84,26.28h-3.7v3.7h3.7v-3.7h0Z"/>
    </g>
    <g>
      <path d="M19.67,24.13v-1.12c0-.89.32-1.74.92-2.4l1.58-1.75c.35-.38.54-.88.54-1.39,0-.65-.54-1.19-1.2-1.19h-1.02c-.66,0-1.2.53-1.2,1.19v.52h-2.66v-.52c0-2.12,1.73-3.84,3.86-3.84h1.02c2.13,0,3.86,1.72,3.86,3.84,0,1.17-.43,2.29-1.22,3.16l-1.58,1.75c-.16.18-.25.39-.25.62v1.13h-2.65Z"/>
      <path d="M21.51,14.15c1.84,0,3.34,1.49,3.34,3.31,0,1.04-.38,2.04-1.08,2.81l-1.58,1.75c-.25.27-.38.61-.38.97v.6h-1.6v-.6c0-.76.28-1.48.79-2.04l1.58-1.75c.43-.48.67-1.1.67-1.74,0-.94-.77-1.71-1.72-1.71h-1.02c-.95,0-1.72.77-1.72,1.71h-1.61c0-1.83,1.5-3.31,3.34-3.31h1.02M21.51,13.1h-1.02c-2.42,0-4.39,1.96-4.39,4.36v1.05h3.71v-1.05c0-.36.3-.66.67-.66h1.02c.37,0,.67.3.67.66,0,.38-.14.75-.4,1.04l-1.58,1.75c-.68.75-1.06,1.73-1.06,2.74v.62s.01,1.04.01,1.04h3.68v-1.04s.02-.6.02-.6c0-.11.04-.2.11-.28l1.58-1.75c.87-.97,1.35-2.21,1.35-3.51,0-2.41-1.97-4.36-4.39-4.36h0Z"/>
    </g>
  </g>
</svg>