<?xml version="1.0" encoding="UTF-8"?>
<svg id="Layer_1" xmlns="http://www.w3.org/2000/svg" version="1.1" viewBox="0 0 11 11">
  <!-- Generator: Adobe Illustrator 30.1.0, SVG Export Plug-In . SVG Version: 2.1.1 Build 136)  -->
  <circle id="Outer" cx="5.5" cy="5.5" r="4.44" fill="none" stroke="#000" stroke-width="2.12"/>
  <g>
    <g>
      <rect x="5.15" y="6.87" width=".7" height=".7"/>
      <path d="M5.68,7.04v.36h-.36v-.36h.36M6.02,6.7h-1.04v1.04h1.04v-1.04h0Z"/>
    </g>
    <g>
      <path d="M5.15,6.22v-.31c0-.21.08-.42.22-.57l.35-.39c.07-.08.11-.17.11-.27,0-.12-.1-.21-.21-.21h-.23c-.12,0-.21.09-.21.21v.17h-.7v-.17c0-.5.41-.91.92-.91h.23c.51,0,.92.41.92.91,0,.27-.1.54-.29.74l-.35.39s-.04.06-.04.1v.31h-.7Z"/>
      <path d="M5.61,3.93c.41,0,.75.33.75.74,0,.23-.09.46-.24.63l-.35.39c-.05.06-.09.14-.09.22v.14h-.36v-.14c0-.17.06-.33.18-.46l.35-.39c.1-.11.15-.25.15-.39,0-.21-.17-.38-.39-.38h-.23c-.21,0-.39.17-.39.38h-.36c0-.41.33-.74.75-.74h.23M5.61,3.59h-.23c-.6,0-1.09.49-1.09,1.08v.34h1.05v-.34s.02-.04.04-.04h.23s.04.02.04.04c0,.06-.02.12-.06.16l-.35.39c-.17.19-.26.43-.27.69v.14s0,.34,0,.34h1.04v-.34s0-.14,0-.14l.35-.38c.21-.24.33-.54.33-.86,0-.6-.49-1.08-1.09-1.08h0Z"/>
    </g>
  </g>
</svg>