<?xml version="1.0" encoding="UTF-8"?>
<svg id="Layer_1" xmlns="http://www.w3.org/2000/svg" version="1.1" viewBox="0 0 11 11">
  <!-- Generator: Adobe Illustrator 30.1.0, SVG Export Plug-In . SVG Version: 2.1.1 Build 136)  -->
  <circle id="Outer" cx="5.5" cy="5.5" r="4.83" fill="none" stroke="#000" stroke-width="1.34"/>
  <g>
    <g>
      <rect x="5.15" y="7.17" width=".69" height=".69"/>
      <path d="M5.74,7.27v.48h-.48v-.48h.48M5.94,7.07h-.9v.9h.9v-.9h0Z"/>
    </g>
    <g>
      <path d="M5.15,6.43v-.29c0-.26.09-.5.26-.69l.48-.53c.11-.13.18-.29.18-.46,0-.23-.19-.42-.42-.42h-.31c-.23,0-.42.19-.42.42v.1h-.69v-.1c0-.61.5-1.11,1.11-1.11h.31c.61,0,1.11.5,1.11,1.11,0,.34-.13.67-.35.92l-.48.53c-.06.06-.09.14-.09.23v.29h-.69Z"/>
      <path d="M5.65,3.47c.56,0,1.01.45,1.01,1,0,.31-.12.62-.33.85l-.48.53c-.07.08-.12.18-.12.29v.18h-.49v-.18c0-.23.08-.45.24-.62l.48-.53c.13-.15.2-.33.2-.53,0-.29-.23-.52-.52-.52h-.31c-.29,0-.52.23-.52.52h-.49c0-.55.45-1,1.01-1h.31M5.65,3.26h-.31c-.67,0-1.22.54-1.22,1.21v.21h.9v-.21c0-.17.14-.31.32-.31h.31c.17,0,.32.14.32.31,0,.14-.05.28-.15.39l-.48.53c-.19.21-.29.48-.29.76v.19s0,.2,0,.2h.89v-.2s0-.18,0-.18c0-.06.02-.11.06-.16l.48-.53c.25-.27.38-.62.38-.99,0-.67-.55-1.21-1.22-1.21h0Z"/>
    </g>
  </g>
</svg>