<?xml version="1.0" encoding="UTF-8"?>
<svg id="Layer_1" xmlns="http://www.w3.org/2000/svg" version="1.1" viewBox="0 0 11 11">
  <!-- Generator: Adobe Illustrator 30.1.0, SVG Export Plug-In . SVG Version: 2.1.1 Build 136)  -->
  <circle id="Outer" cx="5.5" cy="5.5" r="5.02" fill="none" stroke="#000" stroke-width=".96"/>
  <g>
    <g>
      <polygon points="5.22 8 5.15 7.38 5.77 7.32 5.84 7.94 5.84 8 5.22 8"/>
      <path d="M5.77,7.38v.55h-.55v-.55h.55M5.91,7.25h-.83v.83h.83v-.83h0Z"/>
    </g>
    <g>
      <path d="M5.22,6.56l-.07-.28c0-.28.1-.54.29-.75l.54-.6c.14-.15.22-.35.22-.56,0-.29-.24-.52-.53-.52h-.35c-.29,0-.53.23-.53.52l-.62.07c-.07-.74.48-1.28,1.15-1.28h.35c.67,0,1.22.54,1.22,1.21,0,.38-.14.74-.39,1.02l-.55.6c-.07.08-.11.18-.11.29v.28h-.62Z"/>
      <path d="M5.68,3.23c.63,0,1.15.51,1.15,1.14,0,.36-.13.7-.37.97l-.55.6c-.08.09-.13.21-.13.34v.21h-.55v-.21c0-.26.1-.51.27-.7l.55-.6c.15-.17.23-.38.23-.6,0-.33-.27-.59-.59-.59h-.35c-.33,0-.59.26-.59.59h-.56c0-.63.52-1.14,1.15-1.14h.35M5.68,3.09h-.35c-.71,0-1.29.57-1.29,1.28v.14h.83v-.14c0-.25.21-.45.46-.45h.35c.25,0,.46.2.46.45,0,.19-.07.37-.2.51l-.55.6c-.2.22-.31.5-.31.8v.21s0,.14,0,.14h.82v-.14s0-.21,0-.21c0-.09.03-.18.1-.24l.55-.6c.26-.29.41-.67.41-1.06,0-.71-.58-1.28-1.29-1.28h0Z"/>
    </g>
  </g>
</svg>