<?xml version="1.0" encoding="UTF-8"?>
<svg id="Layer_1" xmlns="http://www.w3.org/2000/svg" version="1.1" viewBox="0 0 11 11">
  <!-- Generator: Adobe Illustrator 30.1.0, SVG Export Plug-In . SVG Version: 2.1.1 Build 136)  -->
  <circle id="Outer" cx="5.5" cy="5.5" r="4.34" fill="none" stroke="#000" stroke-width="2.32"/>
  <g>
    <g>
      <rect x="5.14" y="6.8" width=".71" height=".71"/>
      <path d="M5.66,6.99v.33h-.33v-.33h.33M6.04,6.61h-1.08v1.08h1.08v-1.08h0Z"/>
    </g>
    <g>
      <path d="M5.15,6.17v-.31c0-.2.07-.4.21-.55l.32-.36c.06-.06.09-.15.09-.23,0-.09-.07-.16-.17-.16h-.21c-.09,0-.17.07-.17.16v.19h-.71v-.19c0-.48.39-.87.87-.87h.21c.48,0,.87.39.87.87,0,.26-.1.51-.27.7l-.33.36-.03.2v.19h-.7Z"/>
      <path d="M5.6,4.04c.38,0,.68.31.68.68,0,.21-.08.42-.22.58l-.32.36c-.05.06-.08.12-.08.2v.12h-.33v-.12c0-.16.06-.3.16-.42l.32-.36c.09-.1.14-.23.14-.36,0-.19-.16-.35-.35-.35h-.21c-.2,0-.35.16-.35.35h-.33c0-.37.31-.68.68-.68h.21M5.6,3.66h-.21c-.59,0-1.06.47-1.06,1.06v.38h.96l-.08.09c-.17.18-.26.42-.26.67v.13s0,.37,0,.37h1.08v-.37s0-.09,0-.09l.31-.34c.21-.23.32-.52.32-.83,0-.58-.48-1.06-1.06-1.06h0ZM5.42,4.96v-.24l.18.03s-.04.05-.06.08l-.12.13h0Z"/>
    </g>
  </g>
</svg>