<?xml version="1.0" encoding="UTF-8"?>
<svg id="Layer_1" xmlns="http://www.w3.org/2000/svg" version="1.1" viewBox="0 0 11 11">
  <!-- Generator: Adobe Illustrator 30.1.0, SVG Export Plug-In . SVG Version: 2.1.1 Build 136)  -->
  <circle id="Outer" cx="5.5" cy="5.5" r="5.12" fill="none" stroke="#000" stroke-width=".76"/>
  <g>
    <g>
      <polygon points="5.2 8.08 5.15 7.44 5.79 7.39 5.84 8.03 5.84 8.08 5.2 8.08"/>
      <path d="M5.79,7.44v.59h-.59v-.59h.59M5.89,7.34h-.79v.79h.79v-.79h0Z"/>
    </g>
    <g>
      <path d="M5.2,6.62l-.05-.27c0-.29.11-.57.3-.78l.58-.64c.15-.17.23-.38.23-.6,0-.32-.26-.58-.58-.58h-.37c-.32,0-.58.26-.58.58l-.64.05c-.05-.75.52-1.32,1.22-1.32h.37c.7,0,1.27.57,1.27,1.27,0,.39-.15.77-.41,1.06l-.58.64c-.08.09-.13.2-.13.32v.27h-.64Z"/>
      <path d="M5.69,3.1c.67,0,1.22.54,1.22,1.21,0,.38-.14.75-.4,1.03l-.58.64c-.09.1-.14.22-.14.36v.22h-.59v-.22c0-.28.1-.54.29-.75l.58-.64c.16-.18.25-.4.25-.64,0-.35-.28-.63-.63-.63h-.37c-.35,0-.63.28-.63.63h-.59c0-.67.55-1.21,1.22-1.21h.37M5.69,3h-.37c-.73,0-1.33.59-1.33,1.32v.1h.8v-.1c0-.29.24-.52.53-.52h.37c.29,0,.53.24.53.52,0,.21-.08.41-.22.57l-.58.64c-.2.22-.32.51-.32.82v.22s0,.1,0,.1h.79v-.1s0-.22,0-.22c0-.11.04-.21.11-.29l.58-.64c.27-.3.42-.69.42-1.1,0-.73-.59-1.32-1.33-1.32h0Z"/>
    </g>
  </g>
</svg>