<?xml version="1.0" encoding="UTF-8"?>
<svg id="Layer_1" xmlns="http://www.w3.org/2000/svg" version="1.1" viewBox="0 0 11 11">
  <!-- Generator: Adobe Illustrator 30.1.0, SVG Export Plug-In . SVG Version: 2.1.1 Build 136)  -->
  <circle id="Outer" cx="5.5" cy="5.5" r="4.63" fill="none" stroke="#000" stroke-width="1.74"/>
  <g>
    <g>
      <rect x="5.15" y="7.02" width=".69" height=".69"/>
      <path d="M5.71,7.16v.42h-.42v-.42h.42M5.98,6.88h-.97v.97h.97v-.97h0Z"/>
    </g>
    <g>
      <path d="M5.15,6.32v-.29c0-.23.08-.46.24-.63l.41-.46c.09-.1.14-.23.14-.36,0-.17-.14-.31-.31-.31h-.27c-.17,0-.31.14-.31.31v.14h-.7v-.14c0-.55.45-1,1.01-1h.27c.56,0,1.01.45,1.01,1,0,.31-.11.6-.32.83l-.41.46s-.06.1-.06.16v.29h-.69Z"/>
      <path d="M5.63,3.71c.48,0,.87.39.87.87,0,.27-.1.53-.28.74l-.41.46c-.06.07-.1.16-.1.25v.16h-.42v-.16c0-.2.07-.39.21-.53l.41-.46c.11-.13.18-.29.18-.46,0-.25-.2-.45-.45-.45h-.27c-.25,0-.45.2-.45.45h-.42c0-.48.39-.87.87-.87h.27M5.63,3.43h-.27c-.63,0-1.15.51-1.15,1.14v.28h.97v-.28c0-.1.08-.17.18-.17h.27c.1,0,.18.08.18.17,0,.1-.04.2-.1.27l-.41.46c-.18.2-.28.45-.28.72v.16s0,.27,0,.27h.96v-.27s0-.16,0-.16c0-.03,0-.05.03-.07l.41-.46c.23-.25.35-.58.35-.92,0-.63-.52-1.14-1.15-1.14h0Z"/>
    </g>
  </g>
</svg>