<?xml version="1.0" encoding="UTF-8"?>
<svg id="Layer_1" xmlns="http://www.w3.org/2000/svg" version="1.1" viewBox="0 0 69 69">
  <!-- Generator: Adobe Illustrator 30.1.0, SVG Export Plug-In . SVG Version: 2.1.1 Build 136)  -->
  <path d="M34.5,14.53c.65,0,1.3.34,1.64,1.01l4.18,8.29c.72,1.42,2.05,2.43,3.62,2.72l9.04,1.69c1.41.26,1.99,1.98,1.02,3.05l-6.58,7.23c-1.02,1.11-1.49,2.62-1.29,4.12l1.28,9.74c.15,1.16-.77,2.08-1.82,2.08-.28,0-.56-.06-.84-.21l-7.9-4.07c-.73-.38-1.53-.57-2.33-.57-.8,0-1.6.19-2.33.57l-7.9,4.07c-.28.14-.56.21-.84.21-1.05,0-1.97-.92-1.82-2.08l1.29-9.75c.2-1.5-.27-3-1.29-4.11l-6.58-7.23c-.97-1.06-.4-2.78,1.02-3.05l9.04-1.69c1.56-.29,2.9-1.3,3.62-2.72l4.18-8.29c.34-.67.99-1.01,1.64-1.01M34.5,0C28.28,0,22.68,3.45,19.88,9l-2.08,4.13-4.45.83c-5.83,1.09-10.62,5.27-12.51,10.89-1.88,5.63-.57,11.85,3.42,16.23l3.64,3.99-.71,5.41c-.62,4.68.81,9.39,3.91,12.93,3.11,3.55,7.6,5.59,12.31,5.59,2.59,0,5.18-.63,7.49-1.82l3.58-1.85,3.59,1.85c2.31,1.19,4.9,1.82,7.49,1.82,4.71,0,9.2-2.04,12.31-5.59,3.1-3.54,4.53-8.25,3.91-12.93l-.71-5.41,3.64-3.99c4-4.38,5.31-10.6,3.42-16.23-1.88-5.62-6.68-9.8-12.5-10.89l-4.45-.83-2.08-4.13C46.32,3.45,40.72,0,34.5,0h0Z"/>
</svg>