<?xml version="1.0" encoding="UTF-8"?>
<svg id="Layer_1" xmlns="http://www.w3.org/2000/svg" version="1.1" viewBox="0 0 69 69">
  <!-- Generator: Adobe Illustrator 30.1.0, SVG Export Plug-In . SVG Version: 2.1.1 Build 136)  -->
  <path d="M34.5,13.33c.69,0,1.38.36,1.74,1.07l4.43,8.79c.76,1.51,2.18,2.58,3.84,2.89l9.58,1.8c1.5.28,2.11,2.1,1.08,3.23l-6.98,7.66c-1.08,1.18-1.58,2.78-1.37,4.37l1.36,10.33c.16,1.23-.82,2.21-1.93,2.21-.29,0-.6-.07-.89-.22l-8.38-4.32c-.78-.4-1.63-.6-2.48-.6s-1.7.2-2.48.6l-8.38,4.32c-.29.15-.6.22-.89.22-1.11,0-2.09-.98-1.93-2.21l1.36-10.33c.21-1.59-.29-3.18-1.37-4.36l-6.98-7.66c-1.03-1.13-.42-2.95,1.08-3.23l9.58-1.8c1.66-.31,3.07-1.38,3.83-2.89l4.43-8.79c.36-.71,1.05-1.07,1.74-1.07M34.5,0C28.7,0,23.47,3.22,20.86,8.4l-2.67,5.3-5.73,1.07c-5.44,1.02-9.91,4.91-11.67,10.16-1.76,5.25-.53,11.05,3.19,15.14l4.51,4.95-.88,6.69c-.58,4.36.76,8.76,3.65,12.06,2.9,3.31,7.09,5.21,11.49,5.21,2.42,0,4.83-.59,6.99-1.7l4.76-2.45,4.76,2.45c2.16,1.11,4.57,1.7,6.99,1.7,4.4,0,8.58-1.9,11.49-5.21,2.9-3.3,4.23-7.7,3.65-12.06l-.88-6.69,4.51-4.95c3.73-4.09,4.95-9.89,3.19-15.14-1.76-5.25-6.23-9.14-11.67-10.16l-5.73-1.07-2.67-5.3C45.53,3.22,40.3,0,34.5,0h0Z"/>
</svg>