<?xml version="1.0" encoding="UTF-8"?>
<svg id="Layer_1" xmlns="http://www.w3.org/2000/svg" version="1.1" viewBox="0 0 118 118">
  <!-- Generator: Adobe Illustrator 30.1.0, SVG Export Plug-In . SVG Version: 2.1.1 Build 136)  -->
  <circle id="Outer" cx="59" cy="59" r="51.79" fill="none" stroke="#000" stroke-width="14.42"/>
  <g>
    <g>
      <rect x="55.27" y="76.91" width="7.4" height="7.4"/>
      <path d="M61.56,78.02v5.19h-5.19v-5.19h5.19M63.77,75.8h-9.61v9.61h9.61v-9.61h0Z"/>
    </g>
    <g>
      <path d="M55.28,69.02l-.03-3.06c.01-2.74,1.02-5.36,2.85-7.38l5.14-5.69c1.22-1.35,1.9-3.1,1.9-4.92,0-2.45-2.01-4.45-4.49-4.45h-3.3c-2.48,0-4.49,2-4.49,4.45v1.11h-7.44v-1.11c0-6.54,5.35-11.86,11.94-11.86h3.3c6.58,0,11.94,5.32,11.94,11.86,0,3.65-1.35,7.15-3.8,9.87l-5.14,5.69c-.62.69-.95,1.52-.96,2.42l-.03,3.06h-7.38Z"/>
      <path d="M60.65,37.23c5.97,0,10.83,4.82,10.83,10.75,0,3.37-1.25,6.61-3.52,9.12l-5.14,5.69c-.8.88-1.24,1.97-1.24,3.16l-.02,1.96h-5.19l-.02-1.96c0-2.46.91-4.8,2.57-6.63l5.14-5.69c1.41-1.56,2.18-3.57,2.18-5.66,0-3.06-2.51-5.56-5.6-5.56h-3.3c-3.09,0-5.6,2.49-5.6,5.56h-5.23c0-5.93,4.86-10.75,10.83-10.75h3.3M60.65,35.01h-3.3c-7.19,0-13.04,5.82-13.04,12.97v2.21h9.66v-2.21c0-1.84,1.52-3.35,3.38-3.35h3.3c1.87,0,3.38,1.5,3.38,3.35,0,1.54-.57,3.02-1.61,4.17l-5.14,5.69c-2.01,2.23-3.13,5.1-3.14,8.1l.02,1.99.02,2.19h9.57l.02-2.19.02-1.96c0-.64.23-1.21.67-1.7l5.14-5.69c2.64-2.92,4.09-6.69,4.09-10.61,0-7.15-5.85-12.97-13.04-12.97h0Z"/>
    </g>
  </g>
</svg>