<?xml version="1.0" encoding="UTF-8"?>
<svg id="Layer_1" xmlns="http://www.w3.org/2000/svg" version="1.1" viewBox="0 0 118 118">
  <!-- Generator: Adobe Illustrator 30.1.0, SVG Export Plug-In . SVG Version: 2.1.1 Build 136)  -->
  <circle id="Outer" cx="59" cy="59" r="47.61" fill="none" stroke="#000" stroke-width="22.79"/>
  <g>
    <g>
      <rect x="55.21" y="73.71" width="7.52" height="7.52"/>
      <path d="M60.89,75.55v3.83h-3.83v-3.83h3.83M64.57,71.86h-11.2v11.2h11.2v-11.2h0Z"/>
    </g>
    <g>
      <path d="M55.24,66.68l-.03-3.28c0-2.29.85-4.47,2.37-6.15l3.79-4.2c.73-.81,1.14-1.85,1.14-2.94,0-1.25-1.03-2.26-2.29-2.26h-2.44c-1.26,0-2.29,1.01-2.29,2.26v1.84h-7.55v-1.84c0-5.4,4.41-9.79,9.84-9.79h2.44c5.43,0,9.84,4.39,9.84,9.79,0,2.95-1.09,5.78-3.07,7.97l-3.79,4.2c-.29.32-.44.69-.44,1.1l-.03,3.29h-7.48Z"/>
      <path d="M60.22,42.18c4.41,0,8,3.56,8,7.94,0,2.49-.92,4.88-2.6,6.74l-3.79,4.2c-.59.65-.91,1.46-.92,2.33v1.45h-3.84v-1.45c0-1.82.66-3.54,1.88-4.9l3.79-4.2c1.04-1.15,1.61-2.63,1.61-4.18,0-2.26-1.85-4.1-4.13-4.1h-2.44c-2.28,0-4.13,1.84-4.13,4.1h-3.86c0-4.38,3.59-7.94,8-7.94h2.44M60.22,38.49h-2.44c-6.44,0-11.68,5.22-11.68,11.63v3.69h11.24v-3.69c0-.23.2-.42.45-.42h2.44c.24,0,.45.19.45.42,0,.63-.23,1.24-.66,1.71l-3.79,4.2c-1.83,2.02-2.84,4.63-2.85,7.35v1.49s.05,3.65.05,3.65h11.14l.04-3.65v-1.38s3.77-4.17,3.77-4.17c2.29-2.53,3.55-5.8,3.55-9.21,0-6.41-5.24-11.63-11.68-11.63h0Z"/>
    </g>
  </g>
</svg>