<?xml version="1.0" encoding="UTF-8"?>
<svg id="Layer_1" xmlns="http://www.w3.org/2000/svg" version="1.1" viewBox="0 0 118 118">
  <!-- Generator: Adobe Illustrator 30.1.0, SVG Export Plug-In . SVG Version: 2.1.1 Build 136)  -->
  <circle id="Outer" cx="59" cy="59" r="46.57" fill="none" stroke="#000" stroke-width="24.85"/>
  <g>
    <g>
      <rect x="55.19" y="72.9" width="7.57" height="7.57"/>
      <path d="M60.73,74.93v3.52h-3.52v-3.52h3.52M64.79,70.88h-11.63v11.63h11.63v-11.63h0Z"/>
    </g>
    <g>
      <path d="M55.21,66.18l-.03-3.34c0-2.19.81-4.27,2.27-5.87l3.48-3.86c.62-.68.96-1.56.96-2.48s-.79-1.74-1.77-1.74h-2.24c-.98,0-1.77.78-1.77,1.74v2.03h-7.61v-2.03c0-5.14,4.21-9.32,9.38-9.32h2.24c5.17,0,9.38,4.18,9.38,9.32,0,2.79-1.03,5.47-2.91,7.55l-3.49,3.86c-.21.23-.32.5-.32.79l-.03,3.35h-7.54Z"/>
      <path d="M60.12,43.33c4.05,0,7.35,3.27,7.35,7.29,0,2.29-.85,4.49-2.39,6.19l-3.49,3.86c-.54.6-.84,1.34-.84,2.14v1.33h-3.53v-1.33c0-1.67.61-3.26,1.73-4.5l3.48-3.86c.95-1.06,1.48-2.42,1.48-3.84,0-2.08-1.7-3.77-3.8-3.77h-2.24c-2.09,0-3.8,1.69-3.8,3.77h-3.55c0-4.02,3.3-7.29,7.35-7.29h2.24M60.12,39.27h-2.24c-6.29,0-11.4,5.09-11.4,11.35v4.06h10.3l-.83.92c-1.79,1.98-2.78,4.53-2.79,7.2v.03s0,.03,0,.03v1.33s.05,4.02.05,4.02h11.55l.04-4.02v-1.02s3.3-3.64,3.3-3.64c2.21-2.45,3.43-5.61,3.43-8.91,0-6.26-5.12-11.35-11.4-11.35h0ZM58.14,50.91h1.7c-.05.31-.19.6-.41.83l-1.29,1.43v-2.26h0Z"/>
    </g>
  </g>
</svg>