<?xml version="1.0" encoding="UTF-8"?>
<svg id="Layer_1" xmlns="http://www.w3.org/2000/svg" version="1.1" viewBox="0 0 118 118">
  <!-- Generator: Adobe Illustrator 30.1.0, SVG Export Plug-In . SVG Version: 2.1.1 Build 136)  -->
  <circle id="Outer" cx="59" cy="59" r="54.91" fill="none" stroke="#000" stroke-width="8.19"/>
  <g>
    <g>
      <rect x="55.27" y="79.26" width="7.39" height="7.39"/>
      <path d="M62.1,79.81v6.28h-6.28v-6.28h6.28M63.21,78.7h-8.49v8.49h8.49v-8.49h0Z"/>
    </g>
    <g>
      <path d="M55.28,71.02l-.03-2.92c.01-3.12,1.17-6.1,3.25-8.41l6.22-6.89c1.61-1.78,2.5-4.09,2.5-6.48,0-3.41-2.79-6.18-6.23-6.18h-4c-3.43,0-6.23,2.77-6.23,6.18v.55h-7.44v-.55c0-7.49,6.13-13.58,13.67-13.58h4c7.54,0,13.67,6.09,13.67,13.58,0,4.22-1.56,8.28-4.4,11.42l-6.22,6.9c-.88.98-1.35,2.17-1.36,3.46l-.03,2.93h-7.38Z"/>
      <path d="M61,33.29c7.23,0,13.12,5.84,13.12,13.03,0,4.09-1.51,8.01-4.26,11.05l-6.22,6.9c-.96,1.07-1.5,2.39-1.5,3.83l-.02,2.38h-6.28l-.02-2.38c.01-2.98,1.11-5.81,3.11-8.03l6.22-6.89c1.7-1.89,2.64-4.32,2.64-6.85,0-3.71-3.04-6.73-6.78-6.73h-4c-3.74,0-6.78,3.02-6.78,6.73h-6.34c0-7.18,5.88-13.03,13.12-13.03h4M61,32.18h-4c-7.84,0-14.22,6.34-14.22,14.13v1.11h8.55v-1.11c0-3.1,2.55-5.63,5.67-5.63h4c3.13,0,5.67,2.52,5.67,5.63,0,2.26-.84,4.43-2.36,6.11l-6.22,6.89c-2.18,2.41-3.38,5.52-3.4,8.77l.02,2.39v1.1h8.48v-1.1s.04-2.38.04-2.38c0-1.15.42-2.22,1.22-3.1l6.22-6.9c2.93-3.25,4.54-7.43,4.54-11.79,0-7.79-6.38-14.13-14.22-14.13h0Z"/>
    </g>
  </g>
</svg>