<?xml version="1.0" encoding="UTF-8"?>
<svg id="Layer_1" xmlns="http://www.w3.org/2000/svg" version="1.1" viewBox="0 0 118 118">
  <!-- Generator: Adobe Illustrator 30.1.0, SVG Export Plug-In . SVG Version: 2.1.1 Build 136)  -->
  <circle id="Outer" cx="59" cy="59" r="49.69" fill="none" stroke="#000" stroke-width="18.62"/>
  <g>
    <g>
      <rect x="55.25" y="75.31" width="7.44" height="7.44"/>
      <path d="M61.21,76.79v4.49h-4.49v-4.49h4.49M64.16,73.84h-10.39v10.39h10.39v-10.39h0Z"/>
    </g>
    <g>
      <path d="M55.27,67.79l-.03-3.16c0-2.5.93-4.89,2.6-6.74l4.44-4.92c.97-1.08,1.51-2.46,1.51-3.91,0-1.84-1.51-3.33-3.37-3.33h-2.85c-1.86,0-3.37,1.5-3.37,3.33v1.48h-7.48v-1.48c0-5.94,4.87-10.78,10.85-10.78h2.85c5.98,0,10.84,4.84,10.84,10.78,0,3.28-1.21,6.44-3.42,8.88l-4.45,4.93c-.45.5-.69,1.1-.69,1.75l-.03,3.17h-7.41Z"/>
      <path d="M60.43,39.76c5.17,0,9.37,4.17,9.37,9.3,0,2.92-1.08,5.72-3.04,7.89l-4.45,4.93c-.69.76-1.07,1.71-1.07,2.73l-.02,1.7h-4.49v-1.7c0-2.13.78-4.15,2.21-5.74l4.44-4.92c1.22-1.35,1.89-3.09,1.89-4.89,0-2.65-2.17-4.81-4.84-4.81h-2.85c-2.67,0-4.84,2.16-4.84,4.81h-4.53c0-5.13,4.2-9.3,9.37-9.3h2.85M60.43,36.81h-2.85c-6.79,0-12.32,5.5-12.32,12.25v2.95h10.43v-2.95c0-1.03.85-1.86,1.89-1.86h2.85c1.04,0,1.89.83,1.89,1.86,0,1.08-.4,2.11-1.13,2.92l-4.44,4.92c-1.91,2.11-2.97,4.85-2.98,7.7l.02,1.73.03,2.92h10.33l.03-2.92.02-1.7c0-.3.1-.55.31-.78l4.45-4.93c2.45-2.72,3.8-6.22,3.8-9.87,0-6.76-5.53-12.25-12.32-12.25h0Z"/>
    </g>
  </g>
</svg>