<?xml version="1.0" encoding="UTF-8"?>
<svg id="Layer_1" xmlns="http://www.w3.org/2000/svg" version="1.1" viewBox="0 0 118 118">
  <!-- Generator: Adobe Illustrator 30.1.0, SVG Export Plug-In . SVG Version: 2.1.1 Build 136)  -->
  <circle id="Outer" cx="59" cy="59" r="53.87" fill="none" stroke="#000" stroke-width="10.25"/>
  <g>
    <g>
      <rect x="55.27" y="78.48" width="7.39" height="7.39"/>
      <path d="M61.92,79.22v5.91h-5.91v-5.91h5.91M63.39,77.74h-8.86v8.86h8.86v-8.86h0Z"/>
    </g>
    <g>
      <path d="M55.28,70.34l-.03-2.97c.01-2.99,1.12-5.85,3.12-8.06l5.85-6.49c1.48-1.64,2.3-3.75,2.3-5.95,0-3.09-2.53-5.6-5.64-5.6h-3.76c-3.11,0-5.64,2.51-5.64,5.6v.74h-7.44v-.74c0-7.17,5.87-12.99,13.08-12.99h3.76c7.21,0,13.08,5.83,13.08,12.99,0,4.03-1.49,7.9-4.2,10.89l-5.86,6.49c-.8.88-1.22,1.96-1.22,3.11l-.03,2.97h-7.37Z"/>
      <path d="M60.88,34.62c6.81,0,12.34,5.5,12.34,12.26,0,3.85-1.42,7.54-4.01,10.4l-5.86,6.49c-.91,1-1.41,2.25-1.41,3.6l-.02,2.24h-5.91l-.02-2.24c.01-2.8,1.04-5.47,2.93-7.56l5.85-6.49c1.6-1.78,2.49-4.07,2.49-6.45,0-3.49-2.86-6.34-6.38-6.34h-3.76c-3.52,0-6.38,2.84-6.38,6.34h-5.96c0-6.76,5.54-12.26,12.34-12.26h3.76M60.88,33.14h-3.76c-7.62,0-13.82,6.16-13.82,13.73v1.47h8.91v-1.47c0-2.68,2.2-4.86,4.91-4.86h3.76c2.7,0,4.91,2.18,4.91,4.86,0,2.02-.75,3.96-2.11,5.46l-5.85,6.49c-2.12,2.35-3.3,5.38-3.31,8.54l.02,2.25v1.46h8.85v-1.46s.04-2.24.04-2.24c0-.98.36-1.88,1.03-2.63l5.86-6.49c2.83-3.13,4.39-7.18,4.39-11.39,0-7.57-6.2-13.73-13.82-13.73h0Z"/>
    </g>
  </g>
</svg>