<?xml version="1.0" encoding="UTF-8"?>
<svg id="Layer_1" xmlns="http://www.w3.org/2000/svg" version="1.1" viewBox="0 0 123 123">
  <!-- Generator: Adobe Illustrator 30.1.0, SVG Export Plug-In . SVG Version: 2.1.1 Build 136)  -->
  <circle id="Outer" cx="61.5" cy="61.5" r="51.79" fill="none" stroke="#000" stroke-width="19.41"/>
  <g>
    <g>
      <rect x="57.59" y="78.5" width="7.75" height="7.75"/>
      <path d="M63.81,80.04v4.68h-4.68v-4.68h4.68M66.88,76.97h-10.83v10.83h10.83v-10.83h0Z"/>
    </g>
    <g>
      <path d="M57.61,70.67l-.03-3.29c0-2.61.97-5.1,2.71-7.02l4.63-5.13c1.01-1.12,1.57-2.57,1.57-4.07,0-1.92-1.58-3.48-3.51-3.48h-2.98c-1.94,0-3.51,1.56-3.51,3.48v1.54h-7.79v-1.54c0-6.2,5.07-11.24,11.3-11.24h2.98c6.23,0,11.3,5.04,11.3,11.24,0,3.42-1.27,6.71-3.57,9.26l-4.63,5.13c-.47.52-.72,1.15-.72,1.82l-.03,3.3h-7.72Z"/>
      <path d="M62.99,41.45c5.39,0,9.77,4.35,9.77,9.7,0,3.04-1.13,5.96-3.17,8.23l-4.63,5.13c-.72.79-1.12,1.78-1.12,2.85l-.02,1.77h-4.68l-.02-1.77c0-2.22.82-4.33,2.32-5.98l4.63-5.13c1.27-1.4,1.97-3.22,1.97-5.1,0-2.76-2.26-5.01-5.05-5.01h-2.98c-2.78,0-5.05,2.25-5.05,5.01h-4.72c0-5.35,4.38-9.7,9.77-9.7h2.98M62.99,38.37h-2.98c-7.08,0-12.84,5.73-12.84,12.77v3.07h10.87v-3.07c0-1.07.89-1.94,1.97-1.94h2.98c1.09,0,1.97.87,1.97,1.94,0,1.12-.42,2.2-1.17,3.04l-4.63,5.13c-1.99,2.2-3.1,5.06-3.11,8.03l.02,1.81.03,3.05h10.77l.03-3.04.02-1.77c0-.32.11-.58.32-.82l4.64-5.14c2.56-2.83,3.96-6.49,3.96-10.29,0-7.04-5.76-12.77-12.84-12.77h0Z"/>
    </g>
  </g>
</svg>