<?xml version="1.0" encoding="UTF-8"?>
<svg id="Layer_1" xmlns="http://www.w3.org/2000/svg" version="1.1" viewBox="0 0 123 123">
  <!-- Generator: Adobe Illustrator 30.1.0, SVG Export Plug-In . SVG Version: 2.1.1 Build 136)  -->
  <circle id="Outer" cx="61.5" cy="61.5" r="53.99" fill="none" stroke="#000" stroke-width="15.03"/>
  <g>
    <g>
      <rect x="57.61" y="80.17" width="7.71" height="7.71"/>
      <path d="M64.17,81.32v5.41h-5.41v-5.41h5.41M66.47,79.02h-10.02v10.02h10.02v-10.02h0Z"/>
    </g>
    <g>
      <path d="M57.62,71.95l-.03-3.19c.01-2.86,1.07-5.58,2.98-7.69l5.35-5.93c1.27-1.41,1.98-3.23,1.98-5.12,0-2.56-2.1-4.64-4.68-4.64h-3.44c-2.58,0-4.68,2.08-4.68,4.64v1.15h-7.76v-1.15c0-6.82,5.58-12.36,12.44-12.36h3.44c6.86,0,12.44,5.55,12.44,12.36,0,3.8-1.41,7.45-3.96,10.28l-5.35,5.93c-.65.72-.99,1.59-1,2.52l-.03,3.19h-7.69Z"/>
      <path d="M63.22,38.8c6.22,0,11.29,5.03,11.29,11.21,0,3.52-1.3,6.89-3.67,9.51l-5.36,5.93c-.83.92-1.29,2.06-1.29,3.29l-.02,2.04h-5.41l-.02-2.04c0-2.56.95-5,2.68-6.91l5.35-5.93c1.47-1.62,2.27-3.72,2.27-5.9,0-3.19-2.62-5.79-5.83-5.79h-3.44c-3.22,0-5.83,2.6-5.83,5.79h-5.45c0-6.18,5.06-11.21,11.29-11.21h3.44M63.22,36.5h-3.44c-7.5,0-13.59,6.06-13.59,13.52v2.31h10.07v-2.31c0-1.92,1.58-3.49,3.53-3.49h3.44c1.95,0,3.53,1.56,3.53,3.49,0,1.61-.6,3.15-1.68,4.35l-5.35,5.93c-2.1,2.32-3.26,5.32-3.27,8.45l.02,2.07.02,2.29h9.97l.02-2.28.02-2.04c0-.67.24-1.26.7-1.77l5.36-5.94c2.75-3.04,4.26-6.97,4.26-11.06,0-7.45-6.1-13.52-13.59-13.52h0Z"/>
    </g>
  </g>
</svg>