<?xml version="1.0" encoding="UTF-8"?>
<svg id="Layer_1" xmlns="http://www.w3.org/2000/svg" version="1.1" viewBox="0 0 123 123">
  <!-- Generator: Adobe Illustrator 30.1.0, SVG Export Plug-In . SVG Version: 2.1.1 Build 136)  -->
  <circle id="Outer" cx="61.5" cy="61.5" r="48.55" fill="none" stroke="#000" stroke-width="25.91"/>
  <g>
    <g>
      <rect x="57.52" y="75.99" width="7.9" height="7.9"/>
      <path d="M63.3,78.11v3.67h-3.67v-3.67h3.67M67.53,73.88h-12.12v12.12h12.12v-12.12h0Z"/>
    </g>
    <g>
      <path d="M57.55,68.98l-.03-3.48c0-2.28.85-4.45,2.36-6.12l3.63-4.02c.64-.71,1-1.63,1-2.58,0-1-.83-1.82-1.84-1.82h-2.33c-1.02,0-1.84.81-1.84,1.82v2.11h-7.93v-2.11c0-5.36,4.38-9.72,9.77-9.72h2.33c5.39,0,9.77,4.36,9.77,9.72,0,2.91-1.08,5.7-3.03,7.87l-3.63,4.02c-.22.24-.33.52-.33.82l-.04,3.5h-7.85Z"/>
      <path d="M62.67,45.16c4.22,0,7.66,3.41,7.66,7.6,0,2.39-.88,4.68-2.49,6.45l-3.63,4.03c-.56.62-.87,1.4-.88,2.23v1.39h-3.68v-1.39c0-1.74.63-3.39,1.8-4.69l3.63-4.02c.99-1.1,1.54-2.52,1.54-4,0-2.17-1.78-3.93-3.96-3.93h-2.33c-2.18,0-3.96,1.76-3.96,3.93h-3.7c0-4.19,3.44-7.6,7.66-7.6h2.33M62.67,40.94h-2.33c-6.55,0-11.89,5.31-11.89,11.83v4.23h10.73l-.87.96c-1.86,2.06-2.9,4.73-2.91,7.51v.03s0,.03,0,.03v1.39s.05,4.19.05,4.19h12.04l.04-4.19v-1.06s3.43-3.79,3.43-3.79c2.31-2.55,3.58-5.85,3.58-9.29,0-6.52-5.33-11.83-11.89-11.83h0ZM60.6,53.07h1.77c-.06.32-.2.62-.43.87l-1.34,1.49v-2.35h0Z"/>
    </g>
  </g>
</svg>