<?xml version="1.0" encoding="UTF-8"?>
<svg id="Layer_1" xmlns="http://www.w3.org/2000/svg" version="1.1" viewBox="0 0 123 123">
  <!-- Generator: Adobe Illustrator 30.1.0, SVG Export Plug-In . SVG Version: 2.1.1 Build 136)  -->
  <circle id="Outer" cx="61.5" cy="61.5" r="49.62" fill="none" stroke="#000" stroke-width="23.75"/>
  <g>
    <g>
      <rect x="57.55" y="76.83" width="7.84" height="7.84"/>
      <path d="M63.47,78.75v3.99h-3.99v-3.99h3.99M67.31,74.91h-11.68v11.68h11.68v-11.68h0Z"/>
    </g>
    <g>
      <path d="M57.58,69.51l-.03-3.41c0-2.39.89-4.65,2.47-6.41l3.95-4.38c.76-.84,1.18-1.93,1.18-3.07,0-1.3-1.07-2.36-2.39-2.36h-2.54c-1.32,0-2.39,1.06-2.39,2.36v1.92h-7.87v-1.92c0-5.62,4.6-10.2,10.26-10.2h2.54c5.66,0,10.26,4.58,10.26,10.2,0,3.07-1.14,6.02-3.2,8.31l-3.96,4.38c-.3.34-.46.72-.46,1.15l-.03,3.43h-7.8Z"/>
      <path d="M62.77,43.96c4.6,0,8.34,3.71,8.34,8.28,0,2.6-.96,5.09-2.71,7.02l-3.95,4.38c-.61.68-.95,1.52-.95,2.43l-.02,1.51h-3.99v-1.51c0-1.89.69-3.69,1.96-5.1l3.95-4.38c1.08-1.2,1.68-2.75,1.68-4.35,0-2.36-1.93-4.28-4.31-4.28h-2.54c-2.38,0-4.31,1.92-4.31,4.28h-4.03c0-4.56,3.74-8.28,8.34-8.28h2.54M62.77,40.12h-2.54c-6.72,0-12.18,5.44-12.18,12.12v3.84h11.71v-3.84c0-.24.21-.43.46-.43h2.54c.25,0,.46.2.46.43,0,.66-.24,1.29-.69,1.78l-3.95,4.38c-1.9,2.1-2.96,4.83-2.97,7.66v1.56s.05,3.81.05,3.81h11.61l.04-3.8v-1.44s3.93-4.34,3.93-4.34c2.38-2.64,3.7-6.05,3.7-9.6,0-6.68-5.46-12.12-12.18-12.12h0Z"/>
    </g>
  </g>
</svg>