<?xml version="1.0" encoding="UTF-8"?>
<svg id="Layer_1" xmlns="http://www.w3.org/2000/svg" version="1.1" viewBox="0 0 123 123">
  <!-- Generator: Adobe Illustrator 30.1.0, SVG Export Plug-In . SVG Version: 2.1.1 Build 136)  -->
  <circle id="Outer" cx="61.5" cy="61.5" r="56.16" fill="none" stroke="#000" stroke-width="10.69"/>
  <g>
    <g>
      <rect x="57.61" y="81.81" width="7.7" height="7.7"/>
      <path d="M64.54,82.58v6.16h-6.16v-6.16h6.16M66.08,81.04h-9.24v9.24h9.24v-9.24h0Z"/>
    </g>
    <g>
      <path d="M57.62,73.32l-.03-3.09c.01-3.11,1.17-6.09,3.25-8.4l6.1-6.76c1.54-1.71,2.39-3.91,2.39-6.21,0-3.22-2.64-5.83-5.88-5.83h-3.92c-3.24,0-5.88,2.62-5.88,5.83v.77h-7.75v-.77c0-7.47,6.12-13.54,13.64-13.54h3.92c7.52,0,13.64,6.08,13.64,13.54,0,4.2-1.55,8.23-4.38,11.36l-6.1,6.76c-.83.92-1.27,2.04-1.28,3.24l-.03,3.1h-7.69Z"/>
      <path d="M63.46,36.08c7.1,0,12.87,5.73,12.87,12.78,0,4.01-1.48,7.86-4.18,10.84l-6.1,6.76c-.95,1.05-1.47,2.35-1.47,3.75l-.02,2.33h-6.16l-.02-2.33c.01-2.92,1.09-5.7,3.05-7.88l6.1-6.76c1.67-1.85,2.59-4.24,2.59-6.72,0-3.64-2.98-6.6-6.65-6.6h-3.92c-3.67,0-6.65,2.96-6.65,6.6h-6.22c0-7.04,5.77-12.78,12.87-12.78h3.92M63.46,34.55h-3.92c-7.94,0-14.4,6.42-14.4,14.31v1.54h9.29v-1.54c0-2.79,2.29-5.07,5.11-5.07h3.92c2.82,0,5.11,2.27,5.11,5.07,0,2.1-.78,4.12-2.19,5.69l-6.1,6.76c-2.21,2.45-3.44,5.61-3.45,8.9l.02,2.35v1.52h9.22l.02-1.52.02-2.33c0-1.02.38-1.96,1.08-2.74l6.1-6.76c2.95-3.27,4.57-7.48,4.57-11.87,0-7.89-6.46-14.31-14.4-14.31h0Z"/>
    </g>
  </g>
</svg>