<?xml version="1.0" encoding="UTF-8"?>
<svg id="Layer_1" xmlns="http://www.w3.org/2000/svg" version="1.1" viewBox="0 0 123 123">
  <!-- Generator: Adobe Illustrator 30.1.0, SVG Export Plug-In . SVG Version: 2.1.1 Build 136)  -->
  <circle id="Outer" cx="61.5" cy="61.5" r="57.23" fill="none" stroke="#000" stroke-width="8.53"/>
  <g>
    <g>
      <rect x="57.61" y="82.62" width="7.7" height="7.7"/>
      <path d="M64.74,83.19v6.55h-6.55v-6.55h6.55M65.89,82.04h-8.85v8.85h8.85v-8.85h0Z"/>
    </g>
    <g>
      <path d="M57.62,74.03l-.03-3.05c.01-3.25,1.22-6.36,3.39-8.76l6.49-7.18c1.68-1.86,2.6-4.26,2.6-6.76,0-3.55-2.91-6.44-6.49-6.44h-4.17c-3.58,0-6.49,2.89-6.49,6.44v.58h-7.76v-.58c0-7.8,6.39-14.15,14.25-14.15h4.17c7.86,0,14.25,6.35,14.25,14.15,0,4.4-1.63,8.63-4.59,11.91l-6.49,7.19c-.92,1.02-1.41,2.27-1.42,3.6l-.03,3.05h-7.69Z"/>
      <path d="M63.58,34.7c7.54,0,13.67,6.09,13.67,13.58,0,4.26-1.58,8.35-4.44,11.52l-6.49,7.19c-1,1.11-1.56,2.49-1.57,3.99l-.03,2.48h-6.55l-.02-2.48c.01-3.1,1.15-6.06,3.24-8.37l6.49-7.18c1.78-1.97,2.75-4.5,2.75-7.14,0-3.87-3.17-7.02-7.07-7.02h-4.17c-3.9,0-7.07,3.15-7.07,7.02h-6.61c0-7.49,6.13-13.58,13.67-13.58h4.17M63.58,33.55h-4.17c-8.18,0-14.83,6.61-14.83,14.73v1.15h8.91v-1.15c0-3.23,2.65-5.86,5.91-5.86h4.17c3.26,0,5.91,2.63,5.91,5.86,0,2.35-.87,4.62-2.46,6.37l-6.49,7.18c-2.27,2.51-3.53,5.76-3.54,9.14l.02,2.49v1.14h8.84v-1.14s.04-2.48.04-2.48c0-1.2.44-2.31,1.27-3.23l6.49-7.19c3.05-3.38,4.74-7.75,4.74-12.29,0-8.12-6.65-14.73-14.83-14.73h0Z"/>
    </g>
  </g>
</svg>