<?xml version="1.0" encoding="UTF-8"?>
<svg id="Layer_1" xmlns="http://www.w3.org/2000/svg" version="1.1" viewBox="0 0 14 14">
  <!-- Generator: Adobe Illustrator 30.1.0, SVG Export Plug-In . SVG Version: 2.1.1 Build 136)  -->
  <g>
    <g>
      <rect x="6.49" y="3.99" width="1.02" height="1.02"/>
      <path d="M7.33,4.17v.67h-.67v-.67h.67M7.68,3.82h-1.37v1.37h1.37v-1.37h0Z"/>
    </g>
    <g>
      <polygon points="5.83 9.91 5.83 8.89 6.49 8.89 6.49 7.16 5.83 7.16 5.83 6.15 7.51 6.15 7.51 8.89 8.17 8.89 8.17 9.91 5.83 9.91"/>
      <path d="M7.33,6.32v2.74h.67v.67h-2v-.67h.67v-2.08h-.67v-.67h1.33M7.68,5.97h-2.03v1.37h.67v1.38h-.67v1.37h2.7v-1.37h-.67v-2.74h0Z"/>
    </g>
  </g>
  <circle id="Outer" cx="7" cy="7" r="5.9" fill="none" stroke="#000" stroke-width="2.21"/>
</svg>