<?xml version="1.0" encoding="UTF-8"?>
<svg id="Layer_1" xmlns="http://www.w3.org/2000/svg" version="1.1" viewBox="0 0 14 14">
  <!-- Generator: Adobe Illustrator 30.1.0, SVG Export Plug-In . SVG Version: 2.1.1 Build 136)  -->
  <g>
    <g>
      <rect x="6.51" y="3.63" width=".99" height=".99"/>
      <path d="M7.41,3.72v.81h-.81v-.81h.81M7.58,3.55h-1.16v1.16h1.16v-1.16h0Z"/>
    </g>
    <g>
      <polygon points="5.7 10.35 5.7 9.36 6.51 9.36 6.51 7 5.7 7 5.7 6.02 7.49 6.02 7.49 9.36 8.3 9.36 8.3 10.35 5.7 10.35"/>
      <path d="M7.41,6.1v3.34h.81v.81h-2.43v-.81h.81v-2.53h-.81v-.81h1.62M7.58,5.93h-1.97v1.16h.81v2.18h-.81v1.16h2.78v-1.16h-.81v-3.34h0Z"/>
    </g>
  </g>
  <circle id="Outer" cx="7" cy="7" r="6.39" fill="none" stroke="#000" stroke-width="1.22"/>
</svg>