<?xml version="1.0" encoding="UTF-8"?>
<svg id="Layer_1" xmlns="http://www.w3.org/2000/svg" version="1.1" viewBox="0 0 31 31">
  <!-- Generator: Adobe Illustrator 30.1.0, SVG Export Plug-In . SVG Version: 2.1.1 Build 136)  -->
  <path d="M15.5,6.53c.29,0,.58.15.74.45l1.88,3.73c.32.64.92,1.09,1.63,1.22l4.06.76c.63.12.89.89.46,1.37l-2.96,3.25c-.46.5-.67,1.18-.58,1.85l.58,4.38c.07.52-.35.94-.82.94-.12,0-.25-.03-.38-.09l-3.55-1.83c-.33-.17-.69-.25-1.05-.25-.36,0-.72.08-1.05.25l-3.55,1.83c-.12.06-.25.09-.38.09-.47,0-.89-.41-.82-.94l.58-4.38c.09-.67-.12-1.35-.58-1.85l-2.96-3.25c-.44-.48-.18-1.25.46-1.37l4.06-.76c.7-.13,1.3-.58,1.62-1.22l1.88-3.73c.15-.3.44-.45.74-.45M15.5,0C12.71,0,10.19,1.55,8.93,4.05l-.93,1.85-2,.37c-2.62.49-4.77,2.37-5.62,4.89-.85,2.53-.26,5.32,1.54,7.29l1.63,1.79-.32,2.43c-.28,2.1.36,4.22,1.76,5.81,1.4,1.59,3.41,2.51,5.53,2.51,1.16,0,2.33-.28,3.37-.82l1.61-.83,1.61.83c1.04.53,2.2.82,3.37.82,2.12,0,4.13-.91,5.53-2.51,1.39-1.59,2.04-3.71,1.76-5.81l-.32-2.43,1.63-1.79c1.8-1.97,2.38-4.76,1.54-7.29-.85-2.53-3-4.4-5.62-4.89l-2-.37-.93-1.85C20.81,1.55,18.29,0,15.5,0h0Z"/>
</svg>