<?xml version="1.0" encoding="UTF-8"?>
<svg id="Layer_1" xmlns="http://www.w3.org/2000/svg" version="1.1" viewBox="0 0 31 31">
  <!-- Generator: Adobe Illustrator 30.1.0, SVG Export Plug-In . SVG Version: 2.1.1 Build 136)  -->
  <path d="M15.5,3.79c.38,0,.76.2.96.59l2.45,4.86c.42.83,1.21,1.43,2.12,1.6l5.3.99c.83.16,1.17,1.16.6,1.79l-3.86,4.24c-.6.65-.87,1.54-.76,2.42l.75,5.71c.09.68-.45,1.22-1.07,1.22-.16,0-.33-.04-.49-.12l-4.64-2.39c-.43-.22-.9-.33-1.37-.33-.47,0-.94.11-1.37.33l-4.64,2.39c-.16.08-.33.12-.49.12-.61,0-1.16-.54-1.07-1.22l.75-5.72c.12-.88-.16-1.76-.76-2.41l-3.86-4.24c-.57-.62-.23-1.63.6-1.79l5.3-.99c.92-.17,1.7-.76,2.12-1.6l2.45-4.86c.2-.39.58-.59.96-.59M15.5,0C13.65,0,11.99,1.03,11.16,2.68l-2.27,4.51-4.91.92c-1.73.32-3.16,1.56-3.72,3.24-.56,1.67-.17,3.52,1.02,4.83l3.62,3.97-.71,5.35c-.18,1.39.24,2.79,1.16,3.84.93,1.06,2.26,1.66,3.66,1.66.77,0,1.54-.19,2.23-.54l4.27-2.2,4.27,2.2c.69.35,1.46.54,2.23.54,1.4,0,2.73-.61,3.66-1.66.92-1.05,1.35-2.45,1.16-3.84l-.71-5.35,3.62-3.97c1.19-1.3,1.58-3.15,1.02-4.82-.56-1.67-1.98-2.91-3.72-3.24l-4.91-.92-2.27-4.51C19.01,1.03,17.35,0,15.5,0h0Z"/>
</svg>