<?xml version="1.0" encoding="UTF-8"?>
<svg id="Layer_1" xmlns="http://www.w3.org/2000/svg" version="1.1" viewBox="0 0 31 31">
  <!-- Generator: Adobe Illustrator 30.1.0, SVG Export Plug-In . SVG Version: 2.1.1 Build 136)  -->
  <path d="M15.5,2.15c.43,0,.87.23,1.09.68l2.79,5.54c.48.95,1.37,1.62,2.42,1.82l6.04,1.13c.94.18,1.33,1.33.68,2.04l-4.4,4.83c-.68.75-1,1.75-.86,2.75l.86,6.51c.1.78-.52,1.39-1.22,1.39-.19,0-.38-.04-.56-.14l-5.28-2.72c-.49-.25-1.03-.38-1.56-.38s-1.07.13-1.56.38l-5.28,2.72c-.18.09-.38.14-.56.14-.7,0-1.32-.62-1.22-1.39l.86-6.52c.13-1-.18-2.01-.86-2.75l-4.4-4.83c-.65-.71-.27-1.86.68-2.04l6.04-1.13c1.04-.2,1.94-.87,2.42-1.82l2.79-5.54c.23-.45.66-.68,1.09-.68M15.5,0C14.22,0,13.06.71,12.48,1.86l-2.79,5.54c-.18.35-.51.6-.89.67l-6.04,1.13c-1.2.23-2.19,1.09-2.58,2.25-.39,1.16-.12,2.45.71,3.35l4.4,4.83c.25.28.37.65.32,1.02l-.86,6.52c-.13.97.17,1.94.81,2.67.64.73,1.57,1.16,2.54,1.16,0,0,0,0,0,0,.53,0,1.07-.13,1.55-.38l5.28-2.72c.18-.09.38-.14.58-.14s.4.05.58.14l5.28,2.72c.48.25,1.01.38,1.55.38.97,0,1.9-.42,2.54-1.16.64-.73.93-1.7.81-2.67l-.86-6.51c-.05-.37.07-.75.32-1.02l4.4-4.83c.83-.91,1.1-2.19.71-3.35-.39-1.16-1.38-2.02-2.58-2.25l-6.04-1.13c-.38-.07-.72-.32-.89-.67l-2.79-5.54C17.94.71,16.78,0,15.5,0h0Z"/>
</svg>