<?xml version="1.0" encoding="UTF-8"?>
<svg id="Layer_1" xmlns="http://www.w3.org/2000/svg" version="1.1" viewBox="0 0 31 31">
  <!-- Generator: Adobe Illustrator 30.1.0, SVG Export Plug-In . SVG Version: 2.1.1 Build 136)  -->
  <path d="M15.5,4.89c.34,0,.69.18.87.54l2.22,4.41c.38.76,1.09,1.29,1.92,1.45l4.8.9c.75.14,1.06,1.05.54,1.62l-3.5,3.84c-.54.59-.79,1.39-.69,2.19l.68,5.18c.08.62-.41,1.11-.97,1.11-.15,0-.3-.03-.45-.11l-4.2-2.16c-.39-.2-.81-.3-1.24-.3s-.85.1-1.24.3l-4.2,2.16c-.15.08-.3.11-.45.11-.56,0-1.05-.49-.97-1.11l.68-5.18c.1-.79-.15-1.59-.69-2.19l-3.5-3.84c-.52-.57-.21-1.48.54-1.62l4.8-.9c.83-.16,1.54-.69,1.92-1.45l2.22-4.41c.18-.36.53-.54.87-.54M15.5,0C13.27,0,11.26,1.24,10.26,3.23l-1.73,3.44-3.74.7c-2.09.39-3.81,1.89-4.48,3.9-.68,2.02-.21,4.25,1.23,5.82l2.82,3.09-.55,4.18c-.22,1.68.29,3.37,1.4,4.63,1.12,1.27,2.73,2,4.41,2,.93,0,1.86-.23,2.69-.65l3.2-1.65,3.2,1.65c.83.43,1.76.65,2.69.65,1.69,0,3.3-.73,4.41-2,1.11-1.27,1.62-2.96,1.4-4.63l-.55-4.18,2.82-3.09c1.43-1.57,1.9-3.8,1.23-5.82-.68-2.02-2.39-3.51-4.48-3.9l-3.74-.7-1.73-3.44C19.74,1.24,17.73,0,15.5,0h0Z"/>
</svg>