<?xml version="1.0" encoding="UTF-8"?>
<svg id="Layer_1" xmlns="http://www.w3.org/2000/svg" version="1.1" viewBox="0 0 29 29">
  <!-- Generator: Adobe Illustrator 30.1.0, SVG Export Plug-In . SVG Version: 2.1.1 Build 136)  -->
  <circle id="Outer" cx="14.5" cy="14.5" r="11.7" fill="none" stroke="#000" stroke-width="5.6"/>
  <g>
    <g>
      <rect x="13.57" y="18.11" width="1.85" height="1.85"/>
      <path d="M14.96,18.57v.94h-.94v-.94h.94M15.87,17.66h-2.75v2.75h2.75v-2.75h0Z"/>
    </g>
    <g>
      <path d="M13.58,16.39v-.81c0-.56.2-1.1.58-1.51l.93-1.03c.18-.2.28-.46.28-.72,0-.31-.25-.56-.56-.56h-.6c-.31,0-.56.25-.56.56v.45h-1.86v-.45c0-1.33,1.08-2.4,2.42-2.4h.6c1.33,0,2.42,1.08,2.42,2.4,0,.72-.27,1.42-.75,1.96l-.93,1.03c-.07.08-.11.17-.11.27v.81h-1.85Z"/>
      <path d="M14.8,10.37c1.08,0,1.97.88,1.97,1.95,0,.61-.23,1.2-.64,1.66l-.93,1.03c-.14.16-.22.36-.23.57v.36h-.94v-.36c0-.45.16-.87.46-1.2l.93-1.03c.26-.28.4-.65.4-1.03,0-.56-.46-1.01-1.02-1.01h-.6c-.56,0-1.02.45-1.02,1.01h-.95c0-1.08.88-1.95,1.97-1.95h.6M14.8,9.46h-.6c-1.58,0-2.87,1.28-2.87,2.86v.91h2.76v-.91c0-.06.05-.1.11-.1h.6c.06,0,.11.05.11.1,0,.15-.06.3-.16.42l-.93,1.03c-.45.5-.7,1.14-.7,1.81v.37s.01.9.01.9h2.74v-.9s.01-.36.01-.36l.92-1.01c.56-.62.87-1.43.87-2.26,0-1.58-1.29-2.86-2.87-2.86h0Z"/>
    </g>
  </g>
</svg>