<?xml version="1.0" encoding="UTF-8"?>
<svg id="Layer_1" xmlns="http://www.w3.org/2000/svg" version="1.1" viewBox="0 0 29 29">
  <!-- Generator: Adobe Illustrator 30.1.0, SVG Export Plug-In . SVG Version: 2.1.1 Build 136)  -->
  <circle id="Outer" cx="14.5" cy="14.5" r="13.49" fill="none" stroke="#000" stroke-width="2.01"/>
  <g>
    <g>
      <rect x="13.58" y="19.48" width="1.82" height="1.82"/>
      <path d="M15.26,19.61v1.54h-1.54v-1.54h1.54M15.53,19.34h-2.09v2.09h2.09v-2.09h0Z"/>
    </g>
    <g>
      <path d="M13.58,17.45v-.72c0-.77.28-1.5.79-2.07l1.53-1.69c.4-.44.61-1,.61-1.59,0-.84-.69-1.52-1.53-1.52h-.98c-.84,0-1.53.68-1.53,1.52v.14h-1.83v-.14c0-1.84,1.51-3.34,3.36-3.34h.98c1.85,0,3.36,1.5,3.36,3.34,0,1.04-.38,2.03-1.08,2.81l-1.53,1.69c-.22.24-.33.54-.33.85v.72h-1.82Z"/>
      <path d="M14.99,8.18c1.78,0,3.22,1.44,3.22,3.2,0,1-.37,1.97-1.05,2.72l-1.53,1.69c-.24.26-.37.59-.37.94v.58h-1.55v-.58c0-.73.27-1.43.76-1.97l1.53-1.69c.42-.46.65-1.06.65-1.68,0-.91-.75-1.65-1.67-1.65h-.98c-.92,0-1.67.74-1.67,1.65h-1.56c0-1.76,1.45-3.2,3.22-3.2h.98M14.99,7.91h-.98c-1.93,0-3.5,1.56-3.5,3.47v.27h2.1v-.27c0-.76.63-1.38,1.39-1.38h.98c.77,0,1.39.62,1.39,1.38,0,.55-.21,1.09-.58,1.5l-1.53,1.69c-.54.59-.83,1.36-.83,2.15v.59s0,.27,0,.27h2.08v-.27s0-.58,0-.58c0-.28.1-.55.3-.76l1.53-1.69c.72-.8,1.12-1.83,1.12-2.9,0-1.92-1.57-3.47-3.5-3.47h0Z"/>
    </g>
  </g>
</svg>