<?xml version="1.0" encoding="UTF-8"?>
<svg id="Layer_1" xmlns="http://www.w3.org/2000/svg" version="1.1" viewBox="0 0 29 29">
  <!-- Generator: Adobe Illustrator 30.1.0, SVG Export Plug-In . SVG Version: 2.1.1 Build 136)  -->
  <circle id="Outer" cx="14.5" cy="14.5" r="12.73" fill="none" stroke="#000" stroke-width="3.54"/>
  <g>
    <g>
      <rect x="13.58" y="18.9" width="1.82" height="1.82"/>
      <path d="M15.13,19.17v1.27h-1.27v-1.27h1.27M15.67,18.63h-2.36v2.36h2.36v-2.36h0Z"/>
    </g>
    <g>
      <path d="M13.59,16.96v-.75c0-.67.24-1.32.69-1.81l1.26-1.4c.3-.33.47-.76.47-1.21,0-.6-.5-1.09-1.1-1.09h-.81c-.61,0-1.1.49-1.1,1.09v.27h-1.83v-.27c0-1.61,1.32-2.92,2.93-2.92h.81c1.62,0,2.93,1.31,2.93,2.92,0,.9-.33,1.76-.93,2.42l-1.26,1.4c-.15.17-.24.38-.24.6v.75h-1.82Z"/>
      <path d="M14.91,9.15c1.47,0,2.66,1.19,2.66,2.64,0,.83-.31,1.63-.86,2.24l-1.26,1.4c-.2.22-.3.49-.3.78v.48h-1.28v-.48c0-.6.22-1.18.63-1.63l1.26-1.4c.35-.38.54-.88.54-1.39,0-.75-.62-1.37-1.38-1.37h-.81c-.76,0-1.38.61-1.38,1.37h-1.29c0-1.46,1.19-2.64,2.66-2.64h.81M14.91,8.61h-.81c-1.77,0-3.21,1.43-3.21,3.19v.54h2.37v-.54c0-.45.37-.82.83-.82h.81c.46,0,.83.37.83.82,0,.38-.14.74-.4,1.03l-1.26,1.4c-.49.55-.77,1.25-.77,1.99v.49s0,.54,0,.54h2.35v-.54s.01-.48.01-.48c0-.16.06-.3.16-.42l1.26-1.4c.65-.72,1-1.64,1-2.61,0-1.76-1.44-3.19-3.21-3.19h0Z"/>
    </g>
  </g>
</svg>