<?xml version="1.0" encoding="UTF-8"?>
<svg id="Layer_1" xmlns="http://www.w3.org/2000/svg" version="1.1" viewBox="0 0 29 29">
  <!-- Generator: Adobe Illustrator 30.1.0, SVG Export Plug-In . SVG Version: 2.1.1 Build 136)  -->
  <circle id="Outer" cx="14.5" cy="14.5" r="13.24" fill="none" stroke="#000" stroke-width="2.52"/>
  <g>
    <g>
      <rect x="13.58" y="19.29" width="1.82" height="1.82"/>
      <path d="M15.22,19.47v1.45h-1.45v-1.45h1.45M15.58,19.11h-2.18v2.18h2.18v-2.18h0Z"/>
    </g>
    <g>
      <path d="M13.59,17.29v-.73c0-.73.27-1.44.76-1.98l1.44-1.59c.36-.4.56-.92.56-1.46,0-.76-.62-1.38-1.39-1.38h-.92c-.76,0-1.39.62-1.39,1.38v.18h-1.83v-.18c0-1.76,1.44-3.19,3.21-3.19h.92c1.77,0,3.22,1.43,3.22,3.19,0,.99-.37,1.94-1.03,2.68l-1.44,1.59c-.2.22-.3.48-.3.77v.73h-1.82Z"/>
      <path d="M14.96,8.51c1.67,0,3.03,1.35,3.03,3.01,0,.95-.35,1.85-.99,2.56l-1.44,1.59c-.22.25-.35.55-.35.88v.55h-1.46v-.55c0-.69.25-1.34.71-1.86l1.44-1.59c.39-.44.61-1,.61-1.58,0-.86-.7-1.56-1.57-1.56h-.92c-.86,0-1.57.7-1.57,1.56h-1.47c0-1.66,1.36-3.01,3.03-3.01h.92M14.96,8.14h-.92c-1.87,0-3.4,1.51-3.4,3.37v.36h2.19v-.36c0-.66.54-1.19,1.21-1.19h.92c.66,0,1.21.54,1.21,1.19,0,.5-.18.97-.52,1.34l-1.44,1.59c-.52.58-.81,1.32-.81,2.1v.55s0,.36,0,.36h2.17v-.36s0-.55,0-.55c0-.24.09-.46.25-.65l1.44-1.59c.7-.77,1.08-1.76,1.08-2.8,0-1.86-1.52-3.37-3.4-3.37h0Z"/>
    </g>
  </g>
</svg>