<?xml version="1.0" encoding="UTF-8"?>
<svg id="Layer_1" xmlns="http://www.w3.org/2000/svg" version="1.1" viewBox="0 0 29 29">
  <!-- Generator: Adobe Illustrator 30.1.0, SVG Export Plug-In . SVG Version: 2.1.1 Build 136)  -->
  <circle id="Outer" cx="14.5" cy="14.5" r="12.21" fill="none" stroke="#000" stroke-width="4.58"/>
  <g>
    <g>
      <rect x="13.58" y="18.51" width="1.83" height="1.83"/>
      <path d="M15.04,18.87v1.1h-1.1v-1.1h1.1M15.77,18.15h-2.55v2.55h2.55v-2.55h0Z"/>
    </g>
    <g>
      <path d="M13.58,16.66v-.78c0-.62.22-1.2.63-1.66l1.09-1.21c.24-.26.37-.61.37-.96,0-.45-.37-.82-.83-.82h-.7c-.46,0-.83.37-.83.82v.36h-1.84v-.36c0-1.46,1.2-2.65,2.67-2.65h.7c1.47,0,2.67,1.19,2.67,2.65,0,.81-.3,1.58-.84,2.18l-1.09,1.21c-.11.12-.17.27-.17.43v.78h-1.83Z"/>
      <path d="M14.85,9.77c1.27,0,2.3,1.03,2.3,2.29,0,.72-.27,1.41-.75,1.94l-1.09,1.21c-.17.19-.26.42-.26.67v.42h-1.11v-.42c0-.52.19-1.02.54-1.41l1.09-1.21c.3-.33.46-.76.46-1.2,0-.65-.53-1.18-1.19-1.18h-.7c-.66,0-1.19.53-1.19,1.18h-1.11c0-1.26,1.03-2.29,2.3-2.29h.7M14.85,9.05h-.7c-1.67,0-3.03,1.35-3.03,3.01v.73h2.56v-.73c0-.25.21-.46.47-.46h.7c.26,0,.47.2.47.46,0,.26-.1.52-.28.72l-1.09,1.21c-.47.52-.73,1.19-.73,1.89v.43s.01.72.01.72h2.54v-.72s.01-.42.01-.42c0-.07.03-.14.08-.19l1.09-1.21c.6-.67.93-1.53.93-2.43,0-1.66-1.36-3.01-3.03-3.01h0Z"/>
    </g>
  </g>
</svg>