<?xml version="1.0" encoding="UTF-8"?>
<svg id="Layer_1" xmlns="http://www.w3.org/2000/svg" version="1.1" viewBox="0 0 29 29">
  <!-- Generator: Adobe Illustrator 30.1.0, SVG Export Plug-In . SVG Version: 2.1.1 Build 136)  -->
  <circle id="Outer" cx="14.5" cy="14.5" r="11.45" fill="none" stroke="#000" stroke-width="6.11"/>
  <g>
    <g>
      <rect x="13.56" y="17.92" width="1.86" height="1.86"/>
      <path d="M14.93,18.42v.86h-.86v-.86h.86M15.92,17.42h-2.86v2.86h2.86v-2.86h0Z"/>
    </g>
    <g>
      <path d="M13.57,16.26v-.82c0-.54.19-1.05.55-1.44l.86-.95c.15-.17.24-.38.24-.61,0-.24-.2-.43-.44-.43h-.55c-.24,0-.43.19-.43.43v.5h-1.87v-.5c0-1.26,1.03-2.29,2.3-2.29h.55c1.27,0,2.3,1.03,2.3,2.29,0,.69-.25,1.34-.71,1.85l-.86.95c-.05.06-.08.12-.08.19v.82h-1.86Z"/>
      <path d="M14.78,10.65c1,0,1.81.8,1.81,1.79,0,.56-.21,1.1-.59,1.52l-.86.95c-.13.15-.21.33-.21.53v.33h-.87v-.33c0-.41.15-.8.43-1.11l.86-.95c.23-.26.36-.59.36-.94,0-.51-.42-.93-.93-.93h-.55c-.51,0-.93.42-.93.93h-.87c0-.99.81-1.79,1.81-1.79h.55M14.78,9.65h-.55c-1.55,0-2.8,1.25-2.8,2.79v1h1s.87,0,.87,0h.66l-.2.23c-.44.49-.68,1.11-.69,1.77v.34s.01.99.01.99h2.84v-.99s.01-.25.01-.25l.81-.89c.54-.6.84-1.38.84-2.19,0-1.54-1.26-2.79-2.8-2.79h0ZM14.29,12.51h.42c-.01.08-.05.15-.1.2l-.32.35v-.56h0Z"/>
    </g>
  </g>
</svg>