<?xml version="1.0" encoding="UTF-8"?>
<svg id="Layer_1" xmlns="http://www.w3.org/2000/svg" version="1.1" viewBox="0 0 89 89">
  <!-- Generator: Adobe Illustrator 30.1.0, SVG Export Plug-In . SVG Version: 2.1.1 Build 136)  -->
  <path d="M44.5,10.87c1.09,0,2.19.57,2.76,1.7l7.03,13.96c1.21,2.4,3.46,4.09,6.09,4.58l15.22,2.85c2.38.45,3.34,3.34,1.71,5.13l-11.09,12.17c-1.71,1.88-2.51,4.42-2.17,6.94l2.16,16.41c.26,1.96-1.3,3.51-3.06,3.51-.47,0-.95-.11-1.41-.35l-13.31-6.86c-1.23-.64-2.58-.95-3.93-.95s-2.7.32-3.93.95l-13.31,6.86c-.46.24-.95.35-1.41.35-1.76,0-3.32-1.55-3.06-3.51l2.16-16.41c.33-2.52-.46-5.05-2.17-6.93l-11.09-12.17c-1.63-1.79-.67-4.69,1.71-5.13l15.22-2.85c2.63-.49,4.88-2.19,6.09-4.58l7.04-13.97c.57-1.13,1.66-1.7,2.76-1.7M44.5,0C39.19,0,34.42,2.94,32.03,7.68l-6.53,12.96-14.1,2.64c-4.97.93-9.06,4.49-10.67,9.29-1.61,4.8-.49,10.11,2.92,13.85l10.38,11.39-2.03,15.37c-.53,3.99.69,8.01,3.34,11.03,2.66,3.03,6.49,4.77,10.51,4.77,2.21,0,4.42-.54,6.39-1.56l12.26-6.32,12.26,6.32c1.98,1.02,4.19,1.55,6.39,1.55,4.02,0,7.85-1.74,10.51-4.77,2.65-3.02,3.86-7.04,3.34-11.03l-2.03-15.37,10.38-11.39c3.41-3.74,4.53-9.05,2.92-13.85-1.61-4.8-5.7-8.36-10.67-9.29l-14.11-2.64-6.53-12.96C54.58,2.94,49.8,0,44.5,0h0Z"/>
</svg>