<?xml version="1.0" encoding="UTF-8"?>
<svg id="Layer_1" xmlns="http://www.w3.org/2000/svg" version="1.1" viewBox="0 0 89 89">
  <!-- Generator: Adobe Illustrator 30.1.0, SVG Export Plug-In . SVG Version: 2.1.1 Build 136)  -->
  <path d="M44.5,7.73c1.2,0,2.39.62,3.02,1.86l7.69,15.27c1.32,2.62,3.78,4.47,6.66,5.01l16.64,3.12c2.6.49,3.66,3.65,1.87,5.61l-12.12,13.31c-1.87,2.05-2.74,4.83-2.38,7.59l2.37,17.94c.28,2.14-1.42,3.84-3.35,3.84-.51,0-1.04-.12-1.54-.38l-14.56-7.5c-1.35-.69-2.82-1.04-4.3-1.04s-2.95.35-4.3,1.04l-14.56,7.5c-.51.26-1.03.38-1.54.38-1.92,0-3.63-1.69-3.35-3.84l2.37-17.95c.36-2.75-.51-5.53-2.37-7.58l-12.13-13.31c-1.79-1.96-.73-5.12,1.87-5.61l16.64-3.12c2.88-.54,5.34-2.39,6.66-5.01l7.69-15.27c.62-1.24,1.82-1.86,3.02-1.86M44.5,0h0c-4.22,0-8.02,2.34-9.92,6.11l-7.69,15.27c-.23.46-.67.8-1.18.89l-16.64,3.12c-3.96.74-7.21,3.57-8.49,7.39-1.28,3.82-.39,8.05,2.32,11.03l12.13,13.31c.33.37.49.86.42,1.36l-2.37,17.95c-.42,3.18.55,6.38,2.65,8.78,2.12,2.42,5.17,3.8,8.36,3.8,1.75,0,3.51-.43,5.08-1.24l14.56-7.5c.24-.12.49-.18.76-.18s.52.06.76.18l14.56,7.5c1.57.81,3.33,1.24,5.08,1.24,3.2,0,6.24-1.39,8.36-3.8,2.1-2.4,3.07-5.6,2.65-8.78l-2.37-17.94c-.07-.5.09-1,.43-1.37l12.12-13.31c2.71-2.98,3.6-7.2,2.32-11.02-1.28-3.82-4.53-6.65-8.49-7.39l-16.64-3.12c-.51-.09-.95-.43-1.18-.89l-7.69-15.27C52.52,2.34,48.72,0,44.5,0h0Z"/>
</svg>