<?xml version="1.0" encoding="UTF-8"?>
<svg id="Layer_1" xmlns="http://www.w3.org/2000/svg" version="1.1" viewBox="0 0 89 89">
  <!-- Generator: Adobe Illustrator 30.1.0, SVG Export Plug-In . SVG Version: 2.1.1 Build 136)  -->
  <path d="M44.5,17.19c.89,0,1.78.46,2.24,1.38l5.71,11.34c.98,1.95,2.81,3.32,4.95,3.72l12.36,2.32c1.93.36,2.72,2.71,1.39,4.17l-9.01,9.88c-1.39,1.52-2.04,3.59-1.77,5.63l1.76,13.33c.21,1.59-1.06,2.85-2.49,2.85-.38,0-.77-.09-1.15-.28l-10.81-5.57c-1-.52-2.1-.77-3.19-.77-1.1,0-2.19.26-3.19.77l-10.81,5.57c-.38.19-.77.28-1.15.28-1.43,0-2.7-1.26-2.49-2.85l1.76-13.33c.27-2.04-.38-4.1-1.76-5.63l-9.01-9.88c-1.33-1.46-.54-3.81,1.39-4.17l12.36-2.32c2.14-.4,3.97-1.78,4.95-3.72l5.71-11.34c.46-.92,1.35-1.38,2.24-1.38M44.5,0C37.02,0,30.28,4.15,26.91,10.84l-3.44,6.84-7.39,1.39c-7.02,1.31-12.78,6.34-15.05,13.11-2.27,6.77-.69,14.26,4.12,19.53l5.82,6.38-1.14,8.64c-.74,5.63.97,11.3,4.71,15.56,3.75,4.27,9.15,6.72,14.82,6.72,3.12,0,6.23-.76,9.02-2.19l6.14-3.16,6.14,3.16c2.78,1.43,5.9,2.19,9.02,2.19,5.67,0,11.07-2.45,14.82-6.72,3.74-4.26,5.45-9.93,4.71-15.56l-1.14-8.63,5.82-6.38c4.81-5.28,6.39-12.76,4.12-19.53-2.27-6.77-8.03-11.79-15.05-13.11l-7.4-1.39-3.44-6.84C58.72,4.15,51.98,0,44.5,0h0Z"/>
</svg>