<?xml version="1.0" encoding="UTF-8"?>
<svg id="Layer_1" xmlns="http://www.w3.org/2000/svg" version="1.1" viewBox="0 0 105 105">
  <!-- Generator: Adobe Illustrator 30.1.0, SVG Export Plug-In . SVG Version: 2.1.1 Build 136)  -->
  <g>
    <g>
      <rect x="48.69" y="29.93" width="7.62" height="7.62"/>
      <path d="M55,31.25v4.99h-4.99v-4.99h4.99M57.62,28.62h-10.24v10.24h10.24v-10.24h0Z"/>
    </g>
    <g>
      <polygon points="43.7 74.31 43.7 66.69 48.69 66.69 48.69 53.73 43.7 53.73 43.7 46.11 56.31 46.11 56.31 66.69 61.3 66.69 61.3 74.31 43.7 74.31"/>
      <path d="M55,47.42v20.58h4.99v4.99h-14.98v-4.99h4.99v-15.59h-4.99v-4.99h9.99M57.62,44.8h-15.24v10.24h4.99v10.34h-4.99v10.24h20.23v-10.24h-4.99v-20.58h0Z"/>
    </g>
  </g>
  <circle id="Outer" cx="52.5" cy="52.5" r="44.21" fill="none" stroke="#000" stroke-width="16.57"/>
</svg>