<?xml version="1.0" encoding="UTF-8"?>
<svg id="Layer_1" xmlns="http://www.w3.org/2000/svg" version="1.1" viewBox="0 0 105 105">
  <!-- Generator: Adobe Illustrator 30.1.0, SVG Export Plug-In . SVG Version: 2.1.1 Build 136)  -->
  <g>
    <g>
      <rect x="48.63" y="31.26" width="7.75" height="7.75"/>
      <path d="M54.73,32.9v4.47h-4.47v-4.47h4.47M58.01,29.62h-11.03v11.03h11.03v-11.03h0Z"/>
    </g>
    <g>
      <polygon points="44.16 72.72 44.16 64.97 48.63 64.97 48.63 54.31 44.16 54.31 44.16 46.56 56.37 46.56 56.37 64.97 60.84 64.97 60.84 72.72 44.16 72.72"/>
      <path d="M54.73,48.2v18.41h4.47v4.47h-13.4v-4.47h4.47v-13.94h-4.47v-4.47h8.93M58.01,44.92h-15.5v11.03h4.47v7.38h-4.47v11.03h19.96v-11.03h-4.47v-18.41h0Z"/>
    </g>
  </g>
  <circle id="Outer" cx="52.5" cy="52.5" r="42.36" fill="none" stroke="#000" stroke-width="20.28"/>
</svg>