<?xml version="1.0" encoding="UTF-8"?>
<svg id="Layer_1" xmlns="http://www.w3.org/2000/svg" version="1.1" viewBox="0 0 105 105">
  <!-- Generator: Adobe Illustrator 30.1.0, SVG Export Plug-In . SVG Version: 2.1.1 Build 136)  -->
  <g>
    <g>
      <rect x="48.75" y="28.59" width="7.5" height="7.5"/>
      <path d="M55.27,29.57v5.54h-5.54v-5.54h5.54M57.24,27.6h-9.47v9.47h9.47v-9.47h0Z"/>
    </g>
    <g>
      <polygon points="43.21 75.95 43.21 68.45 48.75 68.45 48.75 53.13 43.21 53.13 43.21 45.63 56.25 45.63 56.25 68.45 61.79 68.45 61.79 75.95 43.21 75.95"/>
      <path d="M55.27,46.61v22.82h5.54v5.54h-16.61v-5.54h5.54v-17.28h-5.54v-5.54h11.07M57.24,44.65h-15.01v9.47h5.54v13.34h-5.54v9.47h20.54v-9.47h-5.54v-22.82h0Z"/>
    </g>
  </g>
  <circle id="Outer" cx="52.5" cy="52.5" r="46.09" fill="none" stroke="#000" stroke-width="12.83"/>
</svg>