<?xml version="1.0" encoding="UTF-8"?>
<svg id="Layer_1" xmlns="http://www.w3.org/2000/svg" version="1.1" viewBox="0 0 48 48">
  <!-- Generator: Adobe Illustrator 30.1.0, SVG Export Plug-In . SVG Version: 2.1.1 Build 136)  -->
  <circle id="Outer" cx="24" cy="24" r="18.95" fill="none" stroke="#000" stroke-width="10.11"/>
  <g>
    <g>
      <rect x="22.45" y="29.66" width="3.08" height="3.08"/>
      <path d="M24.7,30.48v1.43h-1.43v-1.43h1.43M26.35,28.83h-4.73v4.73h4.73v-4.73h0Z"/>
    </g>
    <g>
      <path d="M22.46,26.92v-1.36c0-.89.32-1.74.91-2.39l1.42-1.57c.25-.28.39-.64.39-1.01,0-.39-.32-.71-.72-.71h-.91c-.4,0-.72.32-.72.71v.83h-3.09v-.83c0-2.09,1.71-3.79,3.81-3.79h.91c2.1,0,3.81,1.7,3.81,3.79,0,1.14-.42,2.23-1.18,3.07l-1.42,1.57c-.09.09-.13.2-.13.32v1.36h-3.08Z"/>
      <path d="M24.46,17.63c1.65,0,2.99,1.33,2.99,2.97,0,.93-.34,1.82-.97,2.52l-1.42,1.57c-.22.24-.34.54-.34.87v.54h-1.44v-.54c0-.68.25-1.32.7-1.83l1.42-1.57c.39-.43.6-.98.6-1.56,0-.85-.69-1.53-1.54-1.53h-.91c-.85,0-1.54.69-1.54,1.53h-1.44c0-1.64,1.34-2.97,2.99-2.97h.91M24.46,15.98h-.91c-2.56,0-4.64,2.07-4.64,4.62v1.65h4.19l-.34.38c-.73.8-1.13,1.84-1.13,2.93v.56s.02,1.64.02,1.64h4.7l.02-1.63v-.41s1.34-1.48,1.34-1.48c.9-1,1.4-2.28,1.4-3.62,0-2.55-2.08-4.62-4.64-4.62h0ZM23.65,20.71h.69c-.02.13-.08.24-.17.34l-.52.58v-.92h0Z"/>
    </g>
  </g>
</svg>