<?xml version="1.0" encoding="UTF-8"?>
<svg id="Layer_1" xmlns="http://www.w3.org/2000/svg" version="1.1" viewBox="0 0 48 48">
  <!-- Generator: Adobe Illustrator 30.1.0, SVG Export Plug-In . SVG Version: 2.1.1 Build 136)  -->
  <circle id="Outer" cx="24" cy="24" r="22.34" fill="none" stroke="#000" stroke-width="3.33"/>
  <g>
    <g>
      <rect x="22.48" y="32.24" width="3.01" height="3"/>
      <path d="M25.26,32.47v2.56h-2.56v-2.56h2.56M25.71,32.02h-3.46v3.46h3.46v-3.46h0Z"/>
    </g>
    <g>
      <path d="M22.49,28.89v-1.19c0-1.27.46-2.48,1.31-3.42l2.53-2.8c.66-.73,1.02-1.66,1.02-2.64,0-1.39-1.14-2.51-2.53-2.51h-1.63c-1.4,0-2.53,1.13-2.53,2.51v.23h-3.03v-.23c0-3.05,2.49-5.52,5.56-5.52h1.63c3.07,0,5.56,2.48,5.56,5.52,0,1.72-.64,3.37-1.79,4.65l-2.53,2.8c-.36.4-.55.88-.55,1.41v1.19h-3.01Z"/>
      <path d="M24.81,13.54c2.94,0,5.34,2.38,5.34,5.3,0,1.66-.62,3.26-1.73,4.5l-2.53,2.8c-.39.43-.61.97-.61,1.56v.97h-2.57v-.97c0-1.21.44-2.37,1.26-3.27l2.53-2.8c.69-.77,1.07-1.76,1.07-2.79,0-1.51-1.24-2.74-2.76-2.74h-1.63c-1.52,0-2.76,1.23-2.76,2.74h-2.58c0-2.92,2.39-5.3,5.34-5.3h1.63M24.81,13.09h-1.63c-3.19,0-5.79,2.58-5.79,5.75v.45h3.48v-.45c0-1.26,1.04-2.29,2.31-2.29h1.63c1.27,0,2.31,1.03,2.31,2.29,0,.92-.34,1.8-.96,2.49l-2.53,2.8c-.89.98-1.38,2.25-1.38,3.57v.97s.01.45.01.45h3.45v-.45s.01-.97.01-.97c0-.47.17-.9.49-1.26l2.53-2.81c1.19-1.32,1.85-3.02,1.85-4.8,0-3.17-2.6-5.75-5.79-5.75h0Z"/>
    </g>
  </g>
</svg>