<?xml version="1.0" encoding="UTF-8"?>
<svg id="Layer_1" xmlns="http://www.w3.org/2000/svg" version="1.1" viewBox="0 0 48 48">
  <!-- Generator: Adobe Illustrator 30.1.0, SVG Export Plug-In . SVG Version: 2.1.1 Build 136)  -->
  <circle id="Outer" cx="24" cy="24" r="19.37" fill="none" stroke="#000" stroke-width="9.27"/>
  <g>
    <g>
      <rect x="22.46" y="29.98" width="3.06" height="3.06"/>
      <path d="M24.77,30.73v1.56h-1.56v-1.56h1.56M26.27,29.23h-4.56v4.56h4.56v-4.56h0Z"/>
    </g>
    <g>
      <path d="M22.47,27.13v-1.33c0-.93.33-1.81.95-2.5l1.54-1.71c.3-.33.46-.75.46-1.2,0-.51-.42-.92-.93-.92h-.99c-.51,0-.93.41-.93.92v.75h-3.07v-.75c0-2.19,1.8-3.98,4-3.98h.99c2.21,0,4,1.79,4,3.98,0,1.2-.44,2.35-1.25,3.24l-1.54,1.71c-.12.13-.18.28-.18.45v1.34h-3.06Z"/>
      <path d="M24.5,17.16c1.79,0,3.25,1.45,3.25,3.23,0,1.01-.38,1.99-1.06,2.74l-1.54,1.71c-.24.26-.37.59-.37.95v.59h-1.56v-.59c0-.74.27-1.44.77-1.99l1.54-1.71c.42-.47.66-1.07.66-1.7,0-.92-.75-1.67-1.68-1.67h-.99c-.93,0-1.68.75-1.68,1.67h-1.57c0-1.78,1.46-3.23,3.25-3.23h.99M24.5,15.66h-.99c-2.62,0-4.75,2.12-4.75,4.73v1.5h4.57v-1.5c0-.09.08-.17.18-.17h.99c.1,0,.18.08.18.17,0,.26-.1.5-.27.69l-1.54,1.71c-.74.82-1.15,1.88-1.16,2.99v.61s.02,1.49.02,1.49h4.53l.02-1.48v-.56s1.54-1.7,1.54-1.7c.93-1.03,1.44-2.36,1.44-3.75,0-2.61-2.13-4.73-4.75-4.73h0Z"/>
    </g>
  </g>
</svg>