<?xml version="1.0" encoding="UTF-8"?>
<svg id="Layer_1" xmlns="http://www.w3.org/2000/svg" version="1.1" viewBox="0 0 48 48">
  <!-- Generator: Adobe Illustrator 30.1.0, SVG Export Plug-In . SVG Version: 2.1.1 Build 136)  -->
  <circle id="Outer" cx="24" cy="24" r="21.07" fill="none" stroke="#000" stroke-width="5.86"/>
  <g>
    <g>
      <rect x="22.48" y="31.29" width="3.01" height="3.01"/>
      <path d="M25.04,31.74v2.11h-2.11v-2.11h2.11M25.94,30.84h-3.91v3.91h3.91v-3.91h0Z"/>
    </g>
    <g>
      <path d="M22.49,28.08v-1.24c0-1.12.41-2.18,1.15-3l2.09-2.31c.5-.55.77-1.26.77-2,0-1-.82-1.81-1.83-1.81h-1.34c-1.01,0-1.83.81-1.83,1.81v.45h-3.03v-.45c0-2.66,2.18-4.82,4.86-4.82h1.34c2.68,0,4.86,2.16,4.86,4.82,0,1.48-.55,2.91-1.55,4.01l-2.09,2.32c-.25.28-.39.62-.39.98v1.25h-3.01Z"/>
      <path d="M24.67,15.14c2.43,0,4.41,1.96,4.41,4.37,0,1.37-.51,2.69-1.43,3.71l-2.09,2.32c-.32.36-.5.8-.5,1.28v.8h-2.12v-.8c0-1,.37-1.95,1.04-2.7l2.09-2.31c.57-.63.89-1.45.89-2.3,0-1.25-1.02-2.26-2.28-2.26h-1.34c-1.26,0-2.28,1.01-2.28,2.26h-2.13c0-2.41,1.98-4.37,4.41-4.37h1.34M24.67,14.24h-1.34c-2.93,0-5.31,2.37-5.31,5.27v.9h3.93v-.9c0-.75.62-1.36,1.38-1.36h1.34c.76,0,1.38.61,1.38,1.36,0,.63-.23,1.23-.65,1.7l-2.09,2.31c-.82.91-1.27,2.08-1.28,3.3v.81s.01.89.01.89h3.89v-.89s.02-.8.02-.8c0-.26.09-.49.27-.69l2.09-2.32c1.07-1.19,1.66-2.72,1.66-4.31,0-2.91-2.38-5.27-5.31-5.27h0Z"/>
    </g>
  </g>
</svg>