<?xml version="1.0" encoding="UTF-8"?>
<svg id="Layer_1" xmlns="http://www.w3.org/2000/svg" version="1.1" viewBox="0 0 48 48">
  <!-- Generator: Adobe Illustrator 30.1.0, SVG Export Plug-In . SVG Version: 2.1.1 Build 136)  -->
  <circle id="Outer" cx="24" cy="24" r="21.92" fill="none" stroke="#000" stroke-width="4.17"/>
  <g>
    <g>
      <rect x="22.48" y="31.92" width="3" height="3"/>
      <path d="M25.19,32.23v2.4h-2.4v-2.4h2.4M25.79,31.63h-3.6v3.6h3.6v-3.6h0Z"/>
    </g>
    <g>
      <path d="M22.49,28.61v-1.21c0-1.22.44-2.38,1.26-3.28l2.38-2.64c.6-.67.93-1.53.93-2.42,0-1.26-1.03-2.28-2.3-2.28h-1.53c-1.27,0-2.3,1.02-2.3,2.28v.3h-3.03v-.3c0-2.91,2.39-5.29,5.32-5.29h1.53c2.93,0,5.32,2.37,5.32,5.29,0,1.64-.61,3.21-1.71,4.43l-2.38,2.64c-.32.36-.5.79-.5,1.26v1.21h-3.01Z"/>
      <path d="M24.76,14.08c2.77,0,5.02,2.24,5.02,4.99,0,1.56-.58,3.07-1.63,4.23l-2.38,2.64c-.37.41-.57.92-.58,1.46v.91h-2.41v-.91c0-1.14.42-2.23,1.18-3.07l2.38-2.64c.65-.72,1.01-1.65,1.01-2.62,0-1.42-1.16-2.58-2.6-2.58h-1.53c-1.43,0-2.6,1.16-2.6,2.58h-2.43c0-2.75,2.25-4.99,5.02-4.99h1.53M24.76,13.48h-1.53c-3.1,0-5.62,2.51-5.62,5.59v.6h3.63v-.6c0-1.09.9-1.98,2-1.98h1.53c1.1,0,2,.89,2,1.98,0,.82-.3,1.61-.86,2.22l-2.38,2.64c-.86.95-1.34,2.19-1.35,3.47v.92s.01.59.01.59h3.59v-.59s.02-.91.02-.91c0-.4.15-.77.42-1.07l2.38-2.64c1.15-1.28,1.79-2.92,1.79-4.63,0-3.08-2.52-5.59-5.62-5.59h0Z"/>
    </g>
  </g>
</svg>