<?xml version="1.0" encoding="UTF-8"?>
<svg id="Layer_1" xmlns="http://www.w3.org/2000/svg" version="1.1" viewBox="0 0 48 48">
  <!-- Generator: Adobe Illustrator 30.1.0, SVG Export Plug-In . SVG Version: 2.1.1 Build 136)  -->
  <circle id="Outer" cx="24" cy="24" r="20.21" fill="none" stroke="#000" stroke-width="7.57"/>
  <g>
    <g>
      <rect x="22.47" y="30.64" width="3.03" height="3.02"/>
      <path d="M24.9,31.24v1.83h-1.83v-1.83h1.83M26.1,30.04h-4.23v4.23h4.23v-4.23h0Z"/>
    </g>
    <g>
      <path d="M22.48,27.58v-1.28c0-1.02.37-1.99,1.05-2.74l1.81-2c.4-.44.61-1,.61-1.59,0-.75-.62-1.36-1.37-1.36h-1.16c-.76,0-1.37.61-1.37,1.36v.6h-3.04v-.6c0-2.42,1.98-4.38,4.41-4.38h1.16c2.43,0,4.41,1.97,4.41,4.38,0,1.34-.49,2.62-1.39,3.61l-1.81,2c-.18.2-.28.45-.28.71v1.29h-3.03Z"/>
      <path d="M24.58,16.18c2.1,0,3.81,1.7,3.81,3.78,0,1.19-.44,2.33-1.24,3.21l-1.81,2c-.28.31-.44.69-.44,1.11v.69h-1.83v-.69c0-.87.32-1.69.9-2.33l1.81-2c.49-.55.77-1.26.77-1.99,0-1.08-.88-1.96-1.97-1.96h-1.16c-1.09,0-1.97.88-1.97,1.96h-1.84c0-2.09,1.71-3.78,3.81-3.78h1.16M24.58,14.98h-1.16c-2.76,0-5.01,2.24-5.01,4.98v1.2h4.24v-1.2c0-.42.35-.76.77-.76h1.16c.42,0,.77.34.77.76,0,.44-.16.86-.46,1.19l-1.81,2c-.78.86-1.21,1.97-1.21,3.13v.71s.02,1.19.02,1.19h4.2v-1.19s.02-.69.02-.69c0-.12.04-.23.13-.32l1.81-2c1-1.1,1.55-2.53,1.55-4.02,0-2.75-2.25-4.98-5.01-4.98h0Z"/>
    </g>
  </g>
</svg>