<?xml version="1.0" encoding="UTF-8"?>
<svg id="Layer_1" xmlns="http://www.w3.org/2000/svg" version="1.1" viewBox="0 0 84 84">
  <!-- Generator: Adobe Illustrator 30.1.0, SVG Export Plug-In . SVG Version: 2.1.1 Build 136)  -->
  <circle id="Outer" cx="42" cy="42" r="38.35" fill="none" stroke="#000" stroke-width="7.3"/>
  <g>
    <g>
      <rect x="39.35" y="55.87" width="5.26" height="5.26"/>
      <path d="M44.08,56.39v4.21h-4.21v-4.21h4.21M45.13,55.34h-6.31v6.31h6.31v-6.31h0Z"/>
    </g>
    <g>
      <path d="M39.35,50.07l-.02-2.11c0-2.13.8-4.16,2.22-5.74l4.17-4.62c1.05-1.17,1.63-2.67,1.63-4.24,0-2.2-1.8-3.98-4.02-3.98h-2.68c-2.21,0-4.02,1.79-4.02,3.98v.52h-5.29v-.52c0-5.1,4.18-9.25,9.31-9.25h2.68c5.13,0,9.31,4.15,9.31,9.25,0,2.87-1.06,5.62-2.99,7.76l-4.17,4.62c-.57.63-.87,1.39-.87,2.21l-.02,2.12h-5.25Z"/>
      <path d="M43.34,24.64c4.85,0,8.79,3.91,8.79,8.73,0,2.74-1.01,5.37-2.85,7.4l-4.17,4.62c-.65.71-1,1.6-1.01,2.56l-.02,1.59h-4.21v-1.59c0-1.99.73-3.89,2.07-5.38l4.17-4.62c1.14-1.26,1.77-2.89,1.77-4.59,0-2.49-2.04-4.51-4.54-4.51h-2.68c-2.5,0-4.54,2.02-4.54,4.51h-4.25c0-4.81,3.94-8.73,8.79-8.73h2.68M43.34,23.59h-2.68c-5.42,0-9.84,4.39-9.84,9.78v1.05h6.35v-1.05c0-1.91,1.57-3.46,3.49-3.46h2.68c1.93,0,3.49,1.55,3.49,3.46,0,1.44-.53,2.82-1.5,3.89l-4.17,4.62c-1.51,1.67-2.35,3.83-2.36,6.08v1.6s.02,1.04.02,1.04h6.29v-1.04s.03-1.59.03-1.59c0-.7.26-1.34.74-1.87l4.17-4.62c2.01-2.23,3.12-5.11,3.12-8.11,0-5.39-4.41-9.78-9.84-9.78h0Z"/>
    </g>
  </g>
</svg>