<?xml version="1.0" encoding="UTF-8"?>
<svg id="Layer_1" xmlns="http://www.w3.org/2000/svg" version="1.1" viewBox="0 0 84 84">
  <!-- Generator: Adobe Illustrator 30.1.0, SVG Export Plug-In . SVG Version: 2.1.1 Build 136)  -->
  <circle id="Outer" cx="42" cy="42" r="39.09" fill="none" stroke="#000" stroke-width="5.83"/>
  <g>
    <g>
      <rect x="39.34" y="56.42" width="5.26" height="5.26"/>
      <path d="M44.21,56.81v4.47h-4.47v-4.47h4.47M45,56.03h-6.05v6.05h6.05v-6.05h0Z"/>
    </g>
    <g>
      <path d="M39.35,50.55l-.02-2.08c0-2.22.83-4.34,2.32-5.98l4.43-4.91c1.15-1.27,1.78-2.91,1.78-4.61,0-2.43-1.99-4.4-4.43-4.4h-2.85c-2.44,0-4.43,1.97-4.43,4.4v.39h-5.3v-.39c0-5.33,4.37-9.67,9.73-9.67h2.85c5.37,0,9.73,4.34,9.73,9.67,0,3.01-1.11,5.89-3.13,8.13l-4.43,4.91c-.63.7-.96,1.55-.97,2.46l-.02,2.08h-5.25Z"/>
      <path d="M43.42,23.7c5.15,0,9.34,4.16,9.34,9.27,0,2.91-1.08,5.7-3.03,7.87l-4.43,4.91c-.69.76-1.07,1.7-1.07,2.72l-.02,1.69h-4.47v-1.69c0-2.12.77-4.14,2.2-5.72l4.43-4.91c1.21-1.34,1.88-3.08,1.88-4.88,0-2.64-2.17-4.79-4.83-4.79h-2.84c-2.66,0-4.83,2.15-4.83,4.79h-4.51c0-5.11,4.19-9.27,9.34-9.27h2.84M43.42,22.91h-2.84c-5.58,0-10.13,4.51-10.13,10.06v.79h6.09v-.79c0-2.21,1.81-4.01,4.04-4.01h2.84c2.23,0,4.04,1.8,4.04,4.01,0,1.61-.6,3.15-1.68,4.35l-4.43,4.91c-1.55,1.71-2.41,3.93-2.42,6.24v1.7s.02.78.02.78h6.03v-.78s.02-1.69.02-1.69c0-.82.3-1.58.87-2.2l4.43-4.91c2.09-2.31,3.24-5.29,3.24-8.4,0-5.55-4.54-10.06-10.13-10.06h0Z"/>
    </g>
  </g>
</svg>