<?xml version="1.0" encoding="UTF-8"?>
<svg id="Layer_1" xmlns="http://www.w3.org/2000/svg" version="1.1" viewBox="0 0 84 84">
  <!-- Generator: Adobe Illustrator 30.1.0, SVG Export Plug-In . SVG Version: 2.1.1 Build 136)  -->
  <circle id="Outer" cx="42" cy="42" r="35.37" fill="none" stroke="#000" stroke-width="13.26"/>
  <g>
    <g>
      <rect x="39.33" y="53.61" width="5.29" height="5.29"/>
      <path d="M43.57,54.66v3.19h-3.19v-3.19h3.19M45.67,52.56h-7.39v7.39h7.39v-7.39h0Z"/>
    </g>
    <g>
      <path d="M39.35,48.26l-.02-2.25c0-1.78.66-3.48,1.85-4.8l3.16-3.5c.69-.77,1.07-1.75,1.07-2.78,0-1.31-1.08-2.37-2.4-2.37h-2.03c-1.32,0-2.4,1.06-2.4,2.37v1.05h-5.32v-1.05c0-4.23,3.46-7.67,7.72-7.67h2.03c4.26,0,7.72,3.44,7.72,7.67,0,2.34-.87,4.58-2.44,6.32l-3.17,3.51c-.32.36-.49.79-.49,1.25l-.02,2.25h-5.27Z"/>
      <path d="M43.02,28.31c3.68,0,6.67,2.97,6.67,6.62,0,2.08-.77,4.07-2.17,5.62l-3.16,3.51c-.49.54-.76,1.22-.76,1.95v1.21h-3.21v-1.21c0-1.51.55-2.96,1.57-4.08l3.16-3.5c.87-.96,1.34-2.2,1.34-3.48,0-1.89-1.55-3.42-3.45-3.42h-2.03c-1.9,0-3.45,1.54-3.45,3.42h-3.22c0-3.65,2.99-6.62,6.67-6.62h2.03M43.02,26.21h-2.03c-4.84,0-8.77,3.91-8.77,8.72v2.1h7.42v-2.1c0-.73.6-1.32,1.35-1.32h2.03c.74,0,1.35.59,1.35,1.32,0,.77-.28,1.5-.8,2.08l-3.16,3.5c-1.36,1.51-2.12,3.45-2.12,5.48v1.23s.03,2.08.03,2.08h7.35l.02-2.08v-1.21c.01-.22.09-.39.23-.56l3.17-3.51c1.75-1.93,2.71-4.43,2.71-7.03,0-4.81-3.93-8.72-8.77-8.72h0Z"/>
    </g>
  </g>
</svg>