<?xml version="1.0" encoding="UTF-8"?>
<svg id="Layer_1" xmlns="http://www.w3.org/2000/svg" version="1.1" viewBox="0 0 84 84">
  <!-- Generator: Adobe Illustrator 30.1.0, SVG Export Plug-In . SVG Version: 2.1.1 Build 136)  -->
  <circle id="Outer" cx="42" cy="42" r="33.89" fill="none" stroke="#000" stroke-width="16.22"/>
  <g>
    <g>
      <rect x="39.3" y="52.47" width="5.35" height="5.35"/>
      <path d="M43.34,53.78v2.73h-2.73v-2.73h2.73M45.97,51.16h-7.98v7.98h7.98v-7.98h0Z"/>
    </g>
    <g>
      <path d="M39.32,47.47l-.02-2.33c0-1.63.61-3.18,1.69-4.38l2.7-2.99c.52-.58.81-1.32.81-2.09,0-.89-.73-1.61-1.63-1.61h-1.73c-.9,0-1.63.72-1.63,1.61v1.31h-5.38v-1.31c0-3.84,3.14-6.97,7.01-6.97h1.73c3.86,0,7.01,3.12,7.01,6.97,0,2.1-.78,4.11-2.19,5.68l-2.7,2.99c-.21.23-.31.49-.31.78l-.02,2.34h-5.33Z"/>
      <path d="M42.87,30.02c3.14,0,5.69,2.54,5.69,5.65,0,1.77-.66,3.48-1.85,4.8l-2.7,2.99c-.42.46-.65,1.04-.65,1.66v1.03h-2.74v-1.03c0-1.29.47-2.52,1.34-3.48l2.7-2.99c.74-.82,1.15-1.87,1.15-2.97,0-1.61-1.32-2.92-2.94-2.92h-1.73c-1.62,0-2.94,1.31-2.94,2.92h-2.75c0-3.12,2.55-5.65,5.69-5.65h1.73M42.87,27.4h-1.73c-4.59,0-8.32,3.71-8.32,8.28v2.62h8v-2.62c0-.16.15-.3.32-.3h1.73c.17,0,.32.14.32.3,0,.45-.17.88-.47,1.21l-2.7,2.99c-1.3,1.44-2.02,3.3-2.03,5.23v1.06s.03,2.6.03,2.6h7.93l.03-2.6v-.99s2.69-2.97,2.69-2.97c1.63-1.8,2.52-4.13,2.52-6.56,0-4.56-3.73-8.28-8.32-8.28h0Z"/>
    </g>
  </g>
</svg>