<?xml version="1.0" encoding="UTF-8"?>
<svg id="Layer_1" xmlns="http://www.w3.org/2000/svg" version="1.1" viewBox="0 0 84 84">
  <!-- Generator: Adobe Illustrator 30.1.0, SVG Export Plug-In . SVG Version: 2.1.1 Build 136)  -->
  <circle id="Outer" cx="42" cy="42" r="36.87" fill="none" stroke="#000" stroke-width="10.26"/>
  <g>
    <g>
      <rect x="39.34" y="54.75" width="5.27" height="5.27"/>
      <path d="M43.82,55.54v3.69h-3.69v-3.69h3.69M45.4,53.96h-6.84v6.84h6.84v-6.84h0Z"/>
    </g>
    <g>
      <path d="M39.35,49.14l-.02-2.18c0-1.95.73-3.81,2.03-5.25l3.65-4.05c.87-.96,1.35-2.21,1.35-3.5,0-1.75-1.43-3.17-3.2-3.17h-2.35c-1.76,0-3.2,1.42-3.2,3.17v.79h-5.3v-.79c0-4.66,3.81-8.44,8.5-8.44h2.35c4.68,0,8.5,3.79,8.5,8.44,0,2.6-.96,5.09-2.71,7.02l-3.66,4.05c-.44.49-.68,1.09-.68,1.72l-.02,2.18h-5.25Z"/>
      <path d="M43.17,26.5c4.25,0,7.71,3.43,7.71,7.65,0,2.4-.89,4.71-2.5,6.5l-3.66,4.05c-.57.63-.88,1.41-.88,2.25v1.4h-3.71v-1.4c0-1.75.64-3.42,1.82-4.72l3.66-4.05c1-1.11,1.55-2.54,1.55-4.03,0-2.18-1.79-3.96-3.98-3.96h-2.35c-2.2,0-3.98,1.78-3.98,3.96h-3.72c0-4.22,3.46-7.65,7.71-7.65h2.35M43.17,24.93h-2.35c-5.12,0-9.28,4.14-9.28,9.23v1.58h6.87v-1.58c0-1.31,1.08-2.38,2.41-2.38h2.35c1.33,0,2.41,1.07,2.41,2.38,0,1.1-.41,2.15-1.15,2.97l-3.66,4.05c-1.43,1.58-2.23,3.63-2.23,5.77v1.42s.03,1.56.03,1.56h6.81l.02-1.56v-1.4c.02-.46.18-.86.49-1.21l3.66-4.05c1.88-2.08,2.91-4.76,2.91-7.55,0-5.09-4.16-9.23-9.28-9.23h0Z"/>
    </g>
  </g>
</svg>