<?xml version="1.0" encoding="UTF-8"?>
<svg id="Layer_1" xmlns="http://www.w3.org/2000/svg" version="1.1" viewBox="0 0 84 84">
  <!-- Generator: Adobe Illustrator 30.1.0, SVG Export Plug-In . SVG Version: 2.1.1 Build 136)  -->
  <circle id="Outer" cx="42" cy="42" r="33.15" fill="none" stroke="#000" stroke-width="17.69"/>
  <g>
    <g>
      <rect x="39.28" y="51.9" width="5.39" height="5.39"/>
      <path d="M43.23,53.34v2.5h-2.5v-2.5h2.5M46.12,50.45h-8.28v8.28h8.28v-8.28h0Z"/>
    </g>
    <g>
      <path d="M39.3,47.11l-.02-2.38c0-1.56.58-3.04,1.61-4.18l2.48-2.75c.44-.49.68-1.11.68-1.76,0-.68-.57-1.24-1.26-1.24h-1.59c-.69,0-1.26.56-1.26,1.24v1.44h-5.41v-1.44c0-3.66,2.99-6.64,6.67-6.64h1.59c3.68,0,6.67,2.98,6.67,6.64,0,1.99-.73,3.89-2.07,5.37l-2.48,2.75c-.15.17-.23.35-.23.56l-.02,2.39h-5.36Z"/>
      <path d="M42.8,30.84c2.88,0,5.23,2.33,5.23,5.19,0,1.63-.6,3.19-1.7,4.41l-2.48,2.75c-.38.43-.6.95-.6,1.53v.95h-2.51v-.95c0-1.19.43-2.32,1.23-3.2l2.48-2.75c.68-.75,1.05-1.72,1.05-2.73,0-1.48-1.21-2.68-2.7-2.68h-1.59c-1.49,0-2.7,1.2-2.7,2.68h-2.53c0-2.86,2.35-5.19,5.23-5.19h1.59M42.8,27.96h-1.59c-4.48,0-8.12,3.62-8.12,8.08v2.89h7.33l-.59.66c-1.27,1.41-1.98,3.23-1.98,5.13v.98s.03,2.86.03,2.86h8.22l.03-2.86v-.73s2.35-2.59,2.35-2.59c1.57-1.74,2.44-4,2.44-6.34,0-4.46-3.64-8.08-8.12-8.08h0ZM41.39,36.24h1.21c-.04.22-.14.42-.29.59l-.92,1.01v-1.61h0Z"/>
    </g>
  </g>
</svg>