<?xml version="1.0" encoding="UTF-8"?>
<svg id="Layer_1" xmlns="http://www.w3.org/2000/svg" version="1.1" viewBox="0 0 29 29">
  <!-- Generator: Adobe Illustrator 30.1.0, SVG Export Plug-In . SVG Version: 2.1.1 Build 136)  -->
  <g>
    <g>
      <rect x="13.45" y="8.27" width="2.1" height="2.1"/>
      <path d="M15.19,8.63v1.38h-1.38v-1.38h1.38M15.91,7.9h-2.83v2.83h2.83v-2.83h0Z"/>
    </g>
    <g>
      <polygon points="12.07 20.52 12.07 18.42 13.45 18.42 13.45 14.84 12.07 14.84 12.07 12.74 15.55 12.74 15.55 18.42 16.93 18.42 16.93 20.52 12.07 20.52"/>
      <path d="M15.19,13.1v5.68h1.38v1.38h-4.14v-1.38h1.38v-4.31h-1.38v-1.38h2.76M15.91,12.37h-4.21v2.83h1.38v2.86h-1.38v2.83h5.59v-2.83h-1.38v-5.68h0Z"/>
    </g>
  </g>
  <circle id="Outer" cx="14.5" cy="14.5" r="12.21" fill="none" stroke="#000" stroke-width="4.58"/>
</svg>