<?xml version="1.0" encoding="UTF-8"?>
<svg id="Layer_1" xmlns="http://www.w3.org/2000/svg" version="1.1" viewBox="0 0 29 29">
  <!-- Generator: Adobe Illustrator 30.1.0, SVG Export Plug-In . SVG Version: 2.1.1 Build 136)  -->
  <g>
    <g>
      <rect x="13.42" y="8.81" width="2.16" height="2.16"/>
      <path d="M15.08,9.31v1.16h-1.16v-1.16h1.16M16.08,8.32h-3.16v3.16h3.16v-3.16h0Z"/>
    </g>
    <g>
      <polygon points="12.26 19.87 12.26 17.71 13.42 17.71 13.42 15.08 12.26 15.08 12.26 12.92 15.58 12.92 15.58 17.71 16.74 17.71 16.74 19.87 12.26 19.87"/>
      <path d="M15.08,13.42v4.79h1.16v1.16h-3.49v-1.16h1.16v-3.63h-1.16v-1.16h2.33M16.08,12.42h-4.32v3.16h1s.17,0,.17,0v1.64h-1.16v3.16h5.48v-3.16h-1.16v-4.79h0Z"/>
    </g>
  </g>
  <circle id="Outer" cx="14.5" cy="14.5" r="11.45" fill="none" stroke="#000" stroke-width="6.11"/>
</svg>