<?xml version="1.0" encoding="UTF-8"?>
<svg id="Layer_1" xmlns="http://www.w3.org/2000/svg" version="1.1" viewBox="0 0 40 40">
  <!-- Generator: Adobe Illustrator 30.1.0, SVG Export Plug-In . SVG Version: 2.1.1 Build 136)  -->
  <g>
    <g>
      <rect x="18.52" y="11.91" width="2.95" height="2.95"/>
      <path d="M20.85,12.53v1.7h-1.7v-1.7h1.7M22.1,11.28h-4.2v4.2h4.2v-4.2h0Z"/>
    </g>
    <g>
      <polygon points="16.82 27.7 16.82 24.75 18.52 24.75 18.52 20.69 16.82 20.69 16.82 17.74 21.48 17.74 21.48 24.75 23.18 24.75 23.18 27.7 16.82 27.7"/>
      <path d="M20.85,18.36v7.01h1.7v1.7h-5.1v-1.7h1.7v-5.31h-1.7v-1.7h3.4M22.1,17.11h-5.9v4.2h1.7v2.81h-1.7v4.2h7.6v-4.2h-1.7v-7.01h0Z"/>
    </g>
  </g>
  <circle id="Outer" cx="20" cy="20" r="16.14" fill="none" stroke="#000" stroke-width="7.72"/>
</svg>