<?xml version="1.0" encoding="UTF-8"?>
<svg id="Layer_1" xmlns="http://www.w3.org/2000/svg" version="1.1" viewBox="0 0 40 40">
  <!-- Generator: Adobe Illustrator 30.1.0, SVG Export Plug-In . SVG Version: 2.1.1 Build 136)  -->
  <g>
    <g>
      <rect x="18.59" y="10.38" width="2.82" height="2.82"/>
      <path d="M21.16,10.63v2.32h-2.32v-2.32h2.32M21.66,10.13h-3.32v3.32h3.32v-3.32h0Z"/>
    </g>
    <g>
      <polygon points="16.27 29.56 16.27 26.74 18.59 26.74 18.59 20.01 16.27 20.01 16.27 17.19 21.41 17.19 21.41 26.74 23.73 26.74 23.73 29.56 16.27 29.56"/>
      <path d="M21.16,17.44v9.55h2.32v2.32h-6.95v-2.32h2.32v-7.23h-2.32v-2.32h4.63M21.66,16.94h-5.63v3.32h2.32v6.23h-2.32v3.32h7.95v-3.32h-2.32v-9.55h0Z"/>
    </g>
  </g>
  <circle id="Outer" cx="20" cy="20" r="18.26" fill="none" stroke="#000" stroke-width="3.47"/>
</svg>