<?xml version="1.0" encoding="UTF-8"?>
<svg id="Layer_1" xmlns="http://www.w3.org/2000/svg" version="1.1" viewBox="0 0 114 114">
  <!-- Generator: Adobe Illustrator 30.1.0, SVG Export Plug-In . SVG Version: 2.1.1 Build 136)  -->
  <circle id="Outer" cx="57" cy="57" r="50.04" fill="none" stroke="#000" stroke-width="13.93"/>
  <g>
    <g>
      <rect x="53.39" y="74.3" width="7.15" height="7.15"/>
      <path d="M59.47,75.37v5.01h-5.01v-5.01h5.01M61.61,73.24h-9.29v9.29h9.29v-9.29h0Z"/>
    </g>
    <g>
      <path d="M53.41,66.68l-.03-2.95c0-2.65.99-5.18,2.76-7.13l4.96-5.5c1.18-1.31,1.83-2.99,1.83-4.75,0-2.37-1.95-4.3-4.34-4.3h-3.19c-2.39,0-4.34,1.93-4.34,4.3v1.07h-7.19v-1.07c0-6.32,5.17-11.46,11.53-11.46h3.19c6.36,0,11.53,5.14,11.53,11.46,0,3.52-1.3,6.91-3.67,9.53l-4.96,5.5c-.6.67-.92,1.47-.92,2.34l-.03,2.96h-7.13Z"/>
      <path d="M58.59,35.97c5.77,0,10.46,4.66,10.46,10.39,0,3.26-1.21,6.39-3.4,8.82l-4.96,5.5c-.77.85-1.19,1.91-1.2,3.05l-.02,1.89h-5.01l-.02-1.89c0-2.37.88-4.64,2.48-6.4l4.96-5.5c1.36-1.5,2.11-3.45,2.11-5.47,0-2.96-2.43-5.37-5.41-5.37h-3.19c-2.98,0-5.41,2.41-5.41,5.37h-5.05c0-5.73,4.69-10.39,10.46-10.39h3.19M58.59,33.83h-3.19c-6.95,0-12.6,5.62-12.6,12.53v2.14h9.33v-2.14c0-1.78,1.47-3.23,3.27-3.23h3.19c1.8,0,3.27,1.45,3.27,3.23,0,1.49-.55,2.92-1.56,4.03l-4.96,5.5c-1.94,2.15-3.02,4.93-3.03,7.83l.02,1.92.02,2.12h9.24l.02-2.12.02-1.89c0-.62.22-1.17.65-1.64l4.96-5.5c2.55-2.82,3.95-6.46,3.95-10.25,0-6.91-5.65-12.53-12.6-12.53h0Z"/>
    </g>
  </g>
</svg>