<?xml version="1.0" encoding="UTF-8"?>
<svg id="Layer_1" xmlns="http://www.w3.org/2000/svg" version="1.1" viewBox="0 0 114 114">
  <!-- Generator: Adobe Illustrator 30.1.0, SVG Export Plug-In . SVG Version: 2.1.1 Build 136)  -->
  <circle id="Outer" cx="57" cy="57" r="53.05" fill="none" stroke="#000" stroke-width="7.91"/>
  <g>
    <g>
      <rect x="53.4" y="76.57" width="7.14" height="7.14"/>
      <path d="M60,77.1v6.07h-6.07v-6.07h6.07M61.07,76.04h-8.21v8.21h8.21v-8.21h0Z"/>
    </g>
    <g>
      <path d="M53.4,68.61l-.02-2.82c.01-3.01,1.13-5.89,3.14-8.12l6.01-6.66c1.56-1.72,2.41-3.95,2.41-6.26,0-3.29-2.7-5.97-6.02-5.97h-3.86c-3.32,0-6.02,2.68-6.02,5.97v.53h-7.19v-.53c0-7.23,5.92-13.12,13.21-13.12h3.86c7.28,0,13.21,5.88,13.21,13.12,0,4.08-1.51,8-4.25,11.04l-6.01,6.66c-.86.95-1.31,2.1-1.31,3.34l-.03,2.83h-7.13Z"/>
      <path d="M58.93,32.16c6.99,0,12.67,5.65,12.67,12.58,0,3.95-1.46,7.74-4.12,10.68l-6.01,6.66c-.93,1.03-1.45,2.31-1.45,3.7l-.02,2.3h-6.07l-.02-2.3c.01-2.88,1.07-5.62,3.01-7.76l6.01-6.66c1.65-1.82,2.55-4.17,2.55-6.62,0-3.59-2.94-6.5-6.55-6.5h-3.86c-3.61,0-6.55,2.92-6.55,6.5h-6.12c0-6.94,5.68-12.58,12.67-12.58h3.86M58.93,31.09h-3.86c-7.58,0-13.74,6.12-13.74,13.65v1.07h8.26v-1.07c0-3,2.46-5.44,5.48-5.44h3.86c3.02,0,5.48,2.44,5.48,5.44,0,2.18-.81,4.28-2.28,5.9l-6.01,6.66c-2.1,2.33-3.27,5.34-3.28,8.47l.02,2.31v1.06h8.2v-1.06s.03-2.3.03-2.3c0-1.11.41-2.14,1.18-2.99l6.01-6.66c2.83-3.14,4.39-7.18,4.39-11.39,0-7.53-6.16-13.65-13.74-13.65h0Z"/>
    </g>
  </g>
</svg>