<?xml version="1.0" encoding="UTF-8"?>
<svg id="Layer_1" xmlns="http://www.w3.org/2000/svg" version="1.1" viewBox="0 0 114 114">
  <!-- Generator: Adobe Illustrator 30.1.0, SVG Export Plug-In . SVG Version: 2.1.1 Build 136)  -->
  <circle id="Outer" cx="57" cy="57" r="44.99" fill="none" stroke="#000" stroke-width="24.01"/>
  <g>
    <g>
      <rect x="53.31" y="70.43" width="7.32" height="7.32"/>
      <path d="M58.67,72.39v3.4h-3.4v-3.4h3.4M62.59,68.47h-11.24v11.24h11.24v-11.24h0Z"/>
    </g>
    <g>
      <path d="M53.34,63.93l-.03-3.23c0-2.12.79-4.12,2.19-5.68l3.36-3.73c.6-.66.92-1.51.92-2.39,0-.93-.77-1.68-1.71-1.68h-2.16c-.94,0-1.71.75-1.71,1.68v1.96h-7.35v-1.96c0-4.97,4.06-9.01,9.06-9.01h2.16c4.99,0,9.06,4.04,9.06,9.01,0,2.7-1,5.29-2.81,7.29l-3.37,3.73c-.2.23-.31.48-.31.76l-.03,3.24h-7.28Z"/>
      <path d="M58.08,41.86c3.91,0,7.1,3.16,7.1,7.05,0,2.21-.82,4.33-2.3,5.98l-3.37,3.73c-.52.58-.81,1.29-.81,2.07v1.29h-3.41v-1.29c0-1.61.59-3.15,1.67-4.34l3.37-3.73c.92-1.02,1.43-2.34,1.43-3.71,0-2.01-1.65-3.64-3.67-3.64h-2.16c-2.02,0-3.67,1.63-3.67,3.64h-3.43c0-3.89,3.18-7.05,7.1-7.05h2.16M58.08,37.94h-2.16c-6.07,0-11.02,4.92-11.02,10.97v3.92h9.95l-.81.89c-1.73,1.91-2.68,4.38-2.69,6.96v1.33s.05,3.88.05,3.88h11.16l.04-3.88v-.98s3.18-3.52,3.18-3.52c2.14-2.37,3.31-5.42,3.31-8.61,0-6.05-4.94-10.97-11.02-10.97h0ZM56.17,49.18h1.64c-.05.3-.19.58-.39.81l-1.24,1.38v-2.18h0Z"/>
    </g>
  </g>
</svg>