<?xml version="1.0" encoding="UTF-8"?>
<svg id="Layer_1" xmlns="http://www.w3.org/2000/svg" version="1.1" viewBox="0 0 114 114">
  <!-- Generator: Adobe Illustrator 30.1.0, SVG Export Plug-In . SVG Version: 2.1.1 Build 136)  -->
  <circle id="Outer" cx="57" cy="57" r="52.05" fill="none" stroke="#000" stroke-width="9.9"/>
  <g>
    <g>
      <rect x="53.4" y="75.82" width="7.14" height="7.14"/>
      <path d="M59.82,76.53v5.71h-5.71v-5.71h5.71M61.25,75.11h-8.56v8.56h8.56v-8.56h0Z"/>
    </g>
    <g>
      <path d="M53.41,67.95l-.03-2.87c.01-2.89,1.08-5.65,3.01-7.78l5.65-6.27c1.43-1.58,2.22-3.63,2.22-5.75,0-2.98-2.45-5.41-5.45-5.41h-3.63c-3.01,0-5.45,2.43-5.45,5.41v.71h-7.19v-.71c0-6.92,5.67-12.55,12.64-12.55h3.63c6.97,0,12.64,5.63,12.64,12.55,0,3.89-1.44,7.63-4.06,10.53l-5.66,6.27c-.77.85-1.18,1.89-1.18,3l-.03,2.87h-7.12Z"/>
      <path d="M58.82,33.44c6.58,0,11.93,5.31,11.93,11.84,0,3.72-1.38,7.28-3.87,10.05l-5.66,6.27c-.88.97-1.36,2.17-1.37,3.48l-.02,2.16h-5.71l-.02-2.16c0-2.71,1.01-5.29,2.83-7.3l5.66-6.27c1.55-1.72,2.4-3.93,2.4-6.23,0-3.37-2.77-6.12-6.16-6.12h-3.63c-3.4,0-6.16,2.75-6.16,6.12h-5.76c0-6.53,5.35-11.84,11.93-11.84h3.63M58.82,32.02h-3.63c-7.36,0-13.35,5.95-13.35,13.27v1.43h8.61v-1.43c0-2.59,2.13-4.7,4.74-4.7h3.63c2.61,0,4.74,2.11,4.74,4.7,0,1.95-.72,3.82-2.03,5.27l-5.66,6.27c-2.05,2.27-3.18,5.2-3.2,8.25l.02,2.18v1.41h8.55v-1.41s.04-2.16.04-2.16c0-.94.35-1.82,1-2.54l5.66-6.27c2.73-3.03,4.24-6.94,4.24-11,0-7.32-5.99-13.27-13.35-13.27h0Z"/>
    </g>
  </g>
</svg>