<?xml version="1.0" encoding="UTF-8"?>
<svg id="Layer_1" xmlns="http://www.w3.org/2000/svg" version="1.1" viewBox="0 0 114 114">
  <!-- Generator: Adobe Illustrator 30.1.0, SVG Export Plug-In . SVG Version: 2.1.1 Build 136)  -->
  <circle id="Outer" cx="57" cy="57" r="48" fill="none" stroke="#000" stroke-width="17.99"/>
  <g>
    <g>
      <rect x="53.38" y="72.76" width="7.19" height="7.18"/>
      <path d="M59.14,74.18v4.34h-4.34v-4.34h4.34M61.99,71.33h-10.04v10.04h10.04v-10.04h0Z"/>
    </g>
    <g>
      <path d="M53.4,65.5l-.03-3.05c0-2.42.9-4.73,2.52-6.51l4.29-4.76c.94-1.04,1.46-2.38,1.46-3.77,0-1.78-1.46-3.22-3.25-3.22h-2.76c-1.79,0-3.25,1.45-3.25,3.22v1.42h-7.22v-1.42c0-5.74,4.7-10.41,10.48-10.41h2.76c5.78,0,10.48,4.67,10.48,10.41,0,3.17-1.17,6.22-3.31,8.58l-4.29,4.76c-.44.48-.67,1.07-.67,1.69l-.03,3.06h-7.16Z"/>
      <path d="M58.38,38.42c4.99,0,9.05,4.03,9.05,8.99,0,2.82-1.04,5.53-2.94,7.63l-4.29,4.76c-.67.74-1.03,1.65-1.04,2.64l-.02,1.64h-4.34v-1.64c0-2.05.75-4.01,2.13-5.54l4.29-4.76c1.18-1.3,1.82-2.98,1.82-4.73,0-2.56-2.1-4.65-4.68-4.65h-2.76c-2.58,0-4.68,2.08-4.68,4.65h-4.37c0-4.96,4.06-8.99,9.05-8.99h2.76M58.38,35.57h-2.76c-6.56,0-11.9,5.31-11.9,11.84v2.85h10.07v-2.85c0-.99.82-1.8,1.83-1.8h2.76c1.01,0,1.83.81,1.83,1.8,0,1.04-.39,2.04-1.09,2.82l-4.29,4.76c-1.85,2.04-2.87,4.69-2.88,7.44v1.67s.04,2.82.04,2.82h9.98l.03-2.82.02-1.64c0-.29.1-.54.3-.76l4.3-4.76c2.37-2.62,3.67-6.01,3.67-9.54,0-6.53-5.34-11.84-11.9-11.84h0Z"/>
    </g>
  </g>
</svg>