<?xml version="1.0" encoding="UTF-8"?>
<svg id="Layer_1" xmlns="http://www.w3.org/2000/svg" version="1.1" viewBox="0 0 114 114">
  <!-- Generator: Adobe Illustrator 30.1.0, SVG Export Plug-In . SVG Version: 2.1.1 Build 136)  -->
  <circle id="Outer" cx="57" cy="57" r="45.99" fill="none" stroke="#000" stroke-width="22.02"/>
  <g>
    <g>
      <rect x="53.34" y="71.21" width="7.26" height="7.26"/>
      <path d="M58.82,72.99v3.7h-3.7v-3.7h3.7M62.38,69.43h-10.82v10.82h10.82v-10.82h0Z"/>
    </g>
    <g>
      <path d="M53.36,64.42l-.03-3.17c0-2.21.82-4.31,2.29-5.94l3.66-4.06c.71-.78,1.1-1.79,1.1-2.84,0-1.2-.99-2.18-2.21-2.18h-2.35c-1.22,0-2.21.98-2.21,2.18v1.78h-7.3v-1.78c0-5.21,4.27-9.45,9.51-9.45h2.35c5.24,0,9.51,4.24,9.51,9.45,0,2.85-1.05,5.58-2.97,7.7l-3.67,4.06c-.28.31-.42.67-.43,1.07l-.03,3.17h-7.23Z"/>
      <path d="M58.18,40.75c4.26,0,7.73,3.44,7.73,7.67,0,2.41-.89,4.72-2.51,6.51l-3.67,4.06c-.57.63-.88,1.41-.88,2.25v1.4h-3.71v-1.4c0-1.75.64-3.42,1.82-4.73l3.66-4.06c1-1.11,1.56-2.54,1.56-4.04,0-2.19-1.79-3.97-3.99-3.97h-2.35c-2.2,0-3.99,1.78-3.99,3.97h-3.73c0-4.23,3.47-7.67,7.73-7.67h2.35M58.18,37.18h-2.35c-6.22,0-11.29,5.04-11.29,11.23v3.56h10.86v-3.56c0-.22.2-.4.43-.4h2.35c.23,0,.43.18.43.4,0,.61-.23,1.19-.64,1.65l-3.66,4.06c-1.76,1.95-2.74,4.47-2.75,7.1v1.44s.04,3.53.04,3.53h10.76l.04-3.53v-1.34s3.65-4.03,3.65-4.03c2.21-2.45,3.43-5.61,3.43-8.9,0-6.19-5.06-11.23-11.29-11.23h0Z"/>
    </g>
  </g>
</svg>