<?xml version="1.0" encoding="UTF-8"?>
<svg id="Layer_1" xmlns="http://www.w3.org/2000/svg" version="1.1" viewBox="0 0 121 121">
  <!-- Generator: Adobe Illustrator 30.1.0, SVG Export Plug-In . SVG Version: 2.1.1 Build 136)  -->
  <circle id="Outer" cx="60.5" cy="60.5" r="50.95" fill="none" stroke="#000" stroke-width="19.1"/>
  <g>
    <g>
      <rect x="56.65" y="77.23" width="7.63" height="7.63"/>
      <path d="M62.77,78.74v4.6h-4.6v-4.6h4.6M65.79,75.72h-10.65v10.65h10.65v-10.65h0Z"/>
    </g>
    <g>
      <path d="M56.67,69.52l-.03-3.24c0-2.57.96-5.02,2.67-6.91l4.56-5.05c1-1.1,1.54-2.53,1.54-4.01,0-1.89-1.55-3.42-3.45-3.42h-2.93c-1.9,0-3.45,1.53-3.45,3.42v1.51h-7.67v-1.51c0-6.09,4.99-11.05,11.12-11.05h2.93c6.13,0,11.12,4.96,11.12,11.05,0,3.37-1.25,6.6-3.51,9.11l-4.56,5.05c-.46.51-.71,1.13-.71,1.79l-.03,3.25h-7.6Z"/>
      <path d="M61.96,40.78c5.3,0,9.61,4.28,9.61,9.54,0,2.99-1.11,5.87-3.12,8.1l-4.56,5.05c-.71.78-1.1,1.75-1.1,2.8l-.02,1.74h-4.6l-.02-1.74c0-2.18.81-4.26,2.28-5.88l4.56-5.05c1.25-1.38,1.93-3.16,1.93-5.02,0-2.72-2.23-4.93-4.97-4.93h-2.93c-2.74,0-4.97,2.21-4.97,4.93h-4.64c0-5.26,4.31-9.54,9.61-9.54h2.93M61.96,37.75h-2.93c-6.97,0-12.63,5.64-12.63,12.57v3.03h10.69v-3.03c0-1.05.87-1.91,1.94-1.91h2.93c1.07,0,1.94.86,1.94,1.91,0,1.1-.41,2.17-1.15,2.99l-4.56,5.05c-1.96,2.17-3.05,4.97-3.06,7.9l.02,1.78.03,3h10.59l.03-2.99.02-1.74c0-.31.11-.57.32-.8l4.56-5.05c2.51-2.79,3.9-6.38,3.9-10.12,0-6.93-5.67-12.57-12.63-12.57h0Z"/>
    </g>
  </g>
</svg>