<?xml version="1.0" encoding="UTF-8"?>
<svg id="Layer_1" xmlns="http://www.w3.org/2000/svg" version="1.1" viewBox="0 0 121 121">
  <!-- Generator: Adobe Illustrator 30.1.0, SVG Export Plug-In . SVG Version: 2.1.1 Build 136)  -->
  <circle id="Outer" cx="60.5" cy="60.5" r="55.24" fill="none" stroke="#000" stroke-width="10.51"/>
  <g>
    <g>
      <rect x="56.68" y="80.48" width="7.57" height="7.57"/>
      <path d="M63.49,81.23v6.06h-6.06v-6.06h6.06M65.01,79.72h-9.09v9.09h9.09v-9.09h0Z"/>
    </g>
    <g>
      <path d="M56.69,72.12l-.03-3.04c.01-3.06,1.15-5.99,3.2-8.26l6-6.65c1.52-1.68,2.35-3.85,2.35-6.11,0-3.17-2.6-5.74-5.79-5.74h-3.86c-3.19,0-5.79,2.57-5.79,5.74v.76h-7.63v-.76c0-7.35,6.02-13.32,13.41-13.32h3.86c7.4,0,13.41,5.98,13.41,13.32,0,4.13-1.53,8.1-4.3,11.17l-6,6.65c-.82.91-1.25,2.01-1.25,3.19l-.03,3.05h-7.56Z"/>
      <path d="M62.43,35.5c6.98,0,12.66,5.64,12.66,12.57,0,3.94-1.46,7.73-4.11,10.67l-6,6.65c-.93,1.03-1.45,2.31-1.45,3.69l-.02,2.29h-6.06l-.02-2.29c.01-2.87,1.07-5.61,3-7.75l6-6.65c1.64-1.82,2.55-4.17,2.55-6.61,0-3.58-2.94-6.5-6.54-6.5h-3.86c-3.61,0-6.54,2.91-6.54,6.5h-6.12c0-6.93,5.68-12.57,12.66-12.57h3.86M62.43,33.98h-3.86c-7.81,0-14.17,6.32-14.17,14.08v1.51h9.14v-1.51c0-2.75,2.26-4.98,5.03-4.98h3.86c2.77,0,5.03,2.24,5.03,4.98,0,2.07-.77,4.06-2.16,5.6l-6,6.65c-2.18,2.41-3.38,5.52-3.39,8.76l.02,2.31v1.5h9.07l.02-1.5.02-2.29c0-1,.37-1.93,1.06-2.69l6.01-6.65c2.9-3.21,4.5-7.36,4.5-11.68,0-7.76-6.36-14.08-14.17-14.08h0Z"/>
    </g>
  </g>
</svg>