<?xml version="1.0" encoding="UTF-8"?>
<svg id="Layer_1" xmlns="http://www.w3.org/2000/svg" version="1.1" viewBox="0 0 121 121">
  <!-- Generator: Adobe Illustrator 30.1.0, SVG Export Plug-In . SVG Version: 2.1.1 Build 136)  -->
  <circle id="Outer" cx="60.5" cy="60.5" r="47.76" fill="none" stroke="#000" stroke-width="25.49"/>
  <g>
    <g>
      <rect x="56.59" y="74.76" width="7.77" height="7.77"/>
      <path d="M62.28,76.84v3.61h-3.61v-3.61h3.61M66.44,72.68h-11.93v11.93h11.93v-11.93h0Z"/>
    </g>
    <g>
      <path d="M56.62,67.86l-.03-3.43c0-2.25.83-4.38,2.32-6.02l3.57-3.96c.63-.7.98-1.6.98-2.54,0-.98-.81-1.79-1.81-1.79h-2.29c-1,0-1.81.8-1.81,1.79v2.08h-7.8v-2.08c0-5.27,4.31-9.56,9.61-9.56h2.29c5.3,0,9.61,4.29,9.61,9.56,0,2.86-1.06,5.61-2.98,7.74l-3.57,3.96c-.22.24-.33.51-.33.81l-.04,3.44h-7.73Z"/>
      <path d="M61.65,44.43c4.15,0,7.53,3.36,7.53,7.48,0,2.35-.87,4.6-2.45,6.35l-3.57,3.96c-.55.61-.86,1.37-.86,2.2v1.36h-3.62v-1.36c0-1.71.62-3.34,1.77-4.61l3.57-3.96c.98-1.08,1.52-2.48,1.52-3.94,0-2.13-1.75-3.87-3.89-3.87h-2.3c-2.15,0-3.89,1.73-3.89,3.87h-3.64c0-4.12,3.38-7.48,7.53-7.48h2.3M61.65,40.27h-2.3c-6.45,0-11.69,5.22-11.69,11.64v4.16h10.56l-.85.95c-1.83,2.03-2.85,4.65-2.86,7.38v.03s0,.03,0,.03v1.36s.05,4.12.05,4.12h11.85l.04-4.12v-1.04s3.38-3.73,3.38-3.73c2.27-2.51,3.52-5.76,3.52-9.13,0-6.42-5.25-11.64-11.69-11.64h0ZM59.62,52.2h1.74c-.06.32-.2.61-.42.85l-1.32,1.46v-2.32h0Z"/>
    </g>
  </g>
</svg>