<?xml version="1.0" encoding="UTF-8"?>
<svg id="Layer_1" xmlns="http://www.w3.org/2000/svg" version="1.1" viewBox="0 0 121 121">
  <!-- Generator: Adobe Illustrator 30.1.0, SVG Export Plug-In . SVG Version: 2.1.1 Build 136)  -->
  <circle id="Outer" cx="60.5" cy="60.5" r="48.82" fill="none" stroke="#000" stroke-width="23.37"/>
  <g>
    <g>
      <rect x="56.62" y="75.58" width="7.71" height="7.71"/>
      <path d="M62.43,77.47v3.93h-3.93v-3.93h3.93M66.22,73.69h-11.49v11.49h11.49v-11.49h0Z"/>
    </g>
    <g>
      <path d="M56.64,68.38l-.03-3.36c0-2.35.87-4.58,2.43-6.3l3.89-4.31c.75-.83,1.16-1.9,1.16-3.02,0-1.28-1.05-2.32-2.35-2.32h-2.5c-1.29,0-2.35,1.04-2.35,2.32v1.89h-7.74v-1.89c0-5.53,4.53-10.03,10.09-10.03h2.5c5.56,0,10.09,4.5,10.09,10.03,0,3.02-1.12,5.93-3.15,8.18l-3.89,4.31c-.3.33-.45.71-.45,1.13l-.03,3.37h-7.67Z"/>
      <path d="M61.75,43.25c4.52,0,8.2,3.65,8.2,8.14,0,2.55-.95,5.01-2.66,6.91l-3.89,4.31c-.6.67-.94,1.49-.94,2.39l-.02,1.49h-3.93v-1.49c0-1.86.68-3.63,1.93-5.02l3.89-4.31c1.06-1.18,1.65-2.7,1.65-4.28,0-2.32-1.9-4.21-4.24-4.21h-2.5c-2.34,0-4.24,1.89-4.24,4.21h-3.96c0-4.49,3.68-8.14,8.2-8.14h2.5M61.75,39.47h-2.5c-6.61,0-11.98,5.35-11.98,11.92v3.78h11.52v-3.78c0-.23.21-.43.46-.43h2.5c.25,0,.46.2.46.43,0,.65-.24,1.27-.68,1.75l-3.89,4.31c-1.87,2.07-2.91,4.75-2.92,7.54v1.53s.05,3.75.05,3.75h11.42l.04-3.74v-1.42s3.87-4.27,3.87-4.27c2.35-2.6,3.64-5.95,3.64-9.44,0-6.58-5.38-11.92-11.98-11.92h0Z"/>
    </g>
  </g>
</svg>