<?xml version="1.0" encoding="UTF-8"?>
<svg id="Layer_1" xmlns="http://www.w3.org/2000/svg" version="1.1" viewBox="0 0 121 121">
  <!-- Generator: Adobe Illustrator 30.1.0, SVG Export Plug-In . SVG Version: 2.1.1 Build 136)  -->
  <circle id="Outer" cx="60.5" cy="60.5" r="53.11" fill="none" stroke="#000" stroke-width="14.78"/>
  <g>
    <g>
      <rect x="56.67" y="78.87" width="7.59" height="7.59"/>
      <path d="M63.12,80v5.32h-5.32v-5.32h5.32M65.39,77.73h-9.86v9.86h9.86v-9.86h0Z"/>
    </g>
    <g>
      <path d="M56.69,70.78l-.03-3.14c.01-2.81,1.05-5.49,2.93-7.57l5.27-5.83c1.25-1.39,1.94-3.18,1.94-5.04,0-2.52-2.07-4.56-4.61-4.56h-3.38c-2.54,0-4.61,2.05-4.61,4.56v1.13h-7.63v-1.13c0-6.71,5.49-12.16,12.24-12.16h3.38c6.75,0,12.24,5.46,12.24,12.16,0,3.74-1.38,7.33-3.9,10.12l-5.27,5.84c-.64.71-.98,1.56-.98,2.48l-.03,3.14h-7.57Z"/>
      <path d="M62.19,38.17c6.12,0,11.1,4.95,11.1,11.03,0,3.46-1.28,6.78-3.61,9.36l-5.27,5.84c-.82.9-1.27,2.02-1.27,3.24l-.02,2.01h-5.32l-.02-2.01c0-2.52.94-4.92,2.63-6.8l5.27-5.83c1.44-1.6,2.24-3.66,2.24-5.8,0-3.14-2.58-5.7-5.74-5.7h-3.38c-3.16,0-5.74,2.56-5.74,5.7h-5.37c0-6.08,4.98-11.03,11.1-11.03h3.38M62.19,35.9h-3.38c-7.37,0-13.37,5.96-13.37,13.3v2.27h9.9v-2.27c0-1.89,1.56-3.43,3.47-3.43h3.38c1.91,0,3.47,1.54,3.47,3.43,0,1.58-.59,3.1-1.65,4.28l-5.27,5.83c-2.06,2.28-3.21,5.23-3.22,8.31l.02,2.04.02,2.25h9.81l.02-2.25.02-2.01c0-.66.23-1.24.69-1.74l5.27-5.84c2.7-2.99,4.19-6.86,4.19-10.88,0-7.33-6-13.3-13.37-13.3h0Z"/>
    </g>
  </g>
</svg>