<?xml version="1.0" encoding="UTF-8"?>
<svg id="Layer_1" xmlns="http://www.w3.org/2000/svg" version="1.1" viewBox="0 0 121 121">
  <!-- Generator: Adobe Illustrator 30.1.0, SVG Export Plug-In . SVG Version: 2.1.1 Build 136)  -->
  <circle id="Outer" cx="60.5" cy="60.5" r="56.3" fill="none" stroke="#000" stroke-width="8.39"/>
  <g>
    <g>
      <rect x="56.67" y="81.27" width="7.58" height="7.58"/>
      <path d="M63.68,81.84v6.44h-6.44v-6.44h6.44M64.82,80.7h-8.71v8.71h8.71v-8.71h0Z"/>
    </g>
    <g>
      <path d="M56.68,72.82l-.03-3c.01-3.19,1.2-6.25,3.34-8.62l6.38-7.07c1.65-1.83,2.56-4.19,2.56-6.65,0-3.49-2.86-6.34-6.38-6.34h-4.1c-3.52,0-6.39,2.84-6.39,6.34v.57h-7.63v-.57c0-7.68,6.29-13.92,14.02-13.92h4.1c7.73,0,14.02,6.25,14.02,13.92,0,4.33-1.6,8.49-4.51,11.71l-6.38,7.07c-.91,1-1.39,2.23-1.39,3.55l-.03,3h-7.56Z"/>
      <path d="M62.55,34.14c7.42,0,13.45,5.99,13.45,13.36,0,4.19-1.55,8.21-4.37,11.33l-6.38,7.07c-.99,1.09-1.54,2.45-1.54,3.92l-.02,2.44h-6.44l-.02-2.44c.01-3.05,1.14-5.96,3.19-8.23l6.38-7.07c1.75-1.93,2.71-4.43,2.71-7.03,0-3.81-3.12-6.9-6.95-6.9h-4.1c-3.83,0-6.95,3.1-6.95,6.9h-6.5c0-7.36,6.03-13.36,13.45-13.36h4.1M62.55,33h-4.1c-8.04,0-14.59,6.5-14.59,14.49v1.13h8.77v-1.13c0-3.18,2.61-5.77,5.82-5.77h4.1c3.21,0,5.82,2.59,5.82,5.77,0,2.32-.86,4.54-2.42,6.27l-6.38,7.07c-2.23,2.47-3.47,5.66-3.48,8.99l.02,2.45v1.12h8.7v-1.12s.04-2.44.04-2.44c0-1.18.44-2.28,1.25-3.17l6.38-7.07c3.01-3.33,4.66-7.62,4.66-12.09,0-7.99-6.54-14.49-14.59-14.49h0Z"/>
    </g>
  </g>
</svg>