<?xml version="1.0" encoding="UTF-8"?>
<svg id="Layer_1" xmlns="http://www.w3.org/2000/svg" version="1.1" viewBox="0 0 108 108">
  <!-- Generator: Adobe Illustrator 30.1.0, SVG Export Plug-In . SVG Version: 2.1.1 Build 136)  -->
  <circle id="Outer" cx="54" cy="54" r="42.63" fill="none" stroke="#000" stroke-width="22.75"/>
  <g>
    <g>
      <rect x="50.51" y="66.72" width="6.93" height="6.93"/>
      <path d="M55.58,68.58v3.22h-3.22v-3.22h3.22M59.3,64.87h-10.64v10.64h10.64v-10.64h0Z"/>
    </g>
    <g>
      <path d="M50.53,60.57l-.03-3.06c0-2,.74-3.91,2.07-5.38l3.19-3.53c.57-.63.88-1.43.88-2.27,0-.88-.73-1.59-1.62-1.59h-2.05c-.89,0-1.62.71-1.62,1.59v1.86h-6.96v-1.86c0-4.71,3.85-8.53,8.58-8.53h2.05c4.73,0,8.58,3.83,8.58,8.53,0,2.56-.95,5.01-2.66,6.91l-3.19,3.53c-.19.21-.29.46-.29.73l-.03,3.07h-6.9Z"/>
      <path d="M55.02,39.66c3.71,0,6.72,3,6.72,6.68,0,2.09-.78,4.11-2.18,5.67l-3.19,3.53c-.49.55-.77,1.23-.77,1.96v1.22h-3.23v-1.22c0-1.53.56-2.98,1.58-4.12l3.19-3.53c.87-.97,1.35-2.21,1.35-3.51,0-1.9-1.56-3.45-3.48-3.45h-2.05c-1.92,0-3.48,1.55-3.48,3.45h-3.25c0-3.68,3.02-6.68,6.72-6.68h2.05M55.02,35.94h-2.05c-5.75,0-10.44,4.66-10.44,10.39v3.71h9.42l-.76.85c-1.64,1.81-2.54,4.15-2.55,6.59v1.26s.04,3.68.04,3.68h10.57l.04-3.67v-.93s3.02-3.33,3.02-3.33c2.02-2.24,3.14-5.14,3.14-8.15,0-5.73-4.68-10.39-10.44-10.39h0ZM53.21,46.59h1.55c-.05.28-.18.55-.37.76l-1.18,1.3v-2.07h0Z"/>
    </g>
  </g>
</svg>