<?xml version="1.0" encoding="UTF-8"?>
<svg id="Layer_1" xmlns="http://www.w3.org/2000/svg" version="1.1" viewBox="0 0 108 108">
  <!-- Generator: Adobe Illustrator 30.1.0, SVG Export Plug-In . SVG Version: 2.1.1 Build 136)  -->
  <circle id="Outer" cx="54" cy="54" r="47.4" fill="none" stroke="#000" stroke-width="13.2"/>
  <g>
    <g>
      <rect x="50.58" y="70.39" width="6.77" height="6.77"/>
      <path d="M56.34,71.41v4.75h-4.75v-4.75h4.75M58.37,69.38h-8.8v8.8h8.8v-8.8h0Z"/>
    </g>
    <g>
      <path d="M50.6,63.17l-.03-2.8c0-2.51.94-4.9,2.61-6.76l4.7-5.21c1.12-1.24,1.73-2.84,1.73-4.5,0-2.25-1.84-4.07-4.11-4.07h-3.02c-2.27,0-4.11,1.83-4.11,4.07v1.01h-6.81v-1.01c0-5.99,4.9-10.85,10.92-10.85h3.02c6.02,0,10.92,4.87,10.92,10.85,0,3.34-1.24,6.54-3.48,9.03l-4.7,5.21c-.57.63-.87,1.4-.88,2.22l-.03,2.8h-6.75Z"/>
      <path d="M55.51,34.07c5.47,0,9.91,4.42,9.91,9.84,0,3.09-1.14,6.05-3.22,8.35l-4.7,5.21c-.73.81-1.13,1.81-1.14,2.89l-.02,1.8h-4.75l-.02-1.8c0-2.25.84-4.39,2.35-6.07l4.7-5.21c1.29-1.43,2-3.26,2-5.18,0-2.8-2.3-5.09-5.12-5.09h-3.02c-2.82,0-5.12,2.28-5.12,5.09h-4.79c0-5.43,4.45-9.84,9.91-9.84h3.02M55.51,32.05h-3.02c-6.58,0-11.94,5.32-11.94,11.87v2.03h8.84v-2.03c0-1.69,1.39-3.06,3.1-3.06h3.02c1.71,0,3.1,1.37,3.1,3.06,0,1.41-.52,2.77-1.47,3.82l-4.7,5.21c-1.84,2.04-2.86,4.67-2.87,7.42l.02,1.82.02,2.01h8.76l.02-2,.02-1.8c0-.59.21-1.11.61-1.55l4.7-5.21c2.41-2.67,3.74-6.12,3.74-9.71,0-6.54-5.35-11.87-11.94-11.87h0Z"/>
    </g>
  </g>
</svg>