<?xml version="1.0" encoding="UTF-8"?>
<svg id="Layer_1" xmlns="http://www.w3.org/2000/svg" version="1.1" viewBox="0 0 108 108">
  <!-- Generator: Adobe Illustrator 30.1.0, SVG Export Plug-In . SVG Version: 2.1.1 Build 136)  -->
  <circle id="Outer" cx="54" cy="54" r="45.48" fill="none" stroke="#000" stroke-width="17.04"/>
  <g>
    <g>
      <rect x="50.57" y="68.93" width="6.81" height="6.81"/>
      <path d="M56.02,70.28v4.11h-4.11v-4.11h4.11M58.72,67.58h-9.51v9.51h9.51v-9.51h0Z"/>
    </g>
    <g>
      <path d="M50.59,62.05l-.03-2.89c0-2.29.85-4.48,2.38-6.17l4.07-4.5c.89-.98,1.38-2.25,1.38-3.58,0-1.68-1.38-3.05-3.08-3.05h-2.61c-1.7,0-3.08,1.37-3.08,3.05v1.35h-6.84v-1.35c0-5.44,4.45-9.87,9.93-9.87h2.61c5.47,0,9.92,4.43,9.92,9.87,0,3.01-1.11,5.89-3.13,8.13l-4.07,4.51c-.41.46-.63,1.01-.63,1.6l-.03,2.9h-6.78Z"/>
      <path d="M55.31,36.4c4.73,0,8.58,3.82,8.58,8.52,0,2.67-.99,5.24-2.78,7.23l-4.07,4.51c-.63.7-.98,1.56-.98,2.5l-.02,1.55h-4.11v-1.55c0-1.95.71-3.8,2.02-5.25l4.07-4.51c1.11-1.23,1.73-2.82,1.73-4.48,0-2.43-1.99-4.4-4.43-4.4h-2.61c-2.44,0-4.43,1.97-4.43,4.4h-4.14c0-4.69,3.85-8.52,8.58-8.52h2.61M55.31,33.7h-2.61c-6.22,0-11.28,5.03-11.28,11.22v2.7h9.54v-2.7c0-.94.78-1.7,1.73-1.7h2.61c.96,0,1.73.76,1.73,1.7,0,.99-.37,1.93-1.03,2.67l-4.07,4.51c-1.75,1.94-2.72,4.44-2.73,7.05v1.59s.04,2.68.04,2.68h9.46l.03-2.67.02-1.55c0-.28.09-.51.29-.72l4.07-4.51c2.24-2.49,3.48-5.69,3.48-9.03,0-6.18-5.06-11.22-11.28-11.22h0Z"/>
    </g>
  </g>
</svg>