<?xml version="1.0" encoding="UTF-8"?>
<svg id="Layer_1" xmlns="http://www.w3.org/2000/svg" version="1.1" viewBox="0 0 108 108">
  <!-- Generator: Adobe Illustrator 30.1.0, SVG Export Plug-In . SVG Version: 2.1.1 Build 136)  -->
  <circle id="Outer" cx="54" cy="54" r="49.31" fill="none" stroke="#000" stroke-width="9.38"/>
  <g>
    <g>
      <rect x="50.59" y="71.83" width="6.76" height="6.76"/>
      <path d="M56.67,72.51v5.41h-5.41v-5.41h5.41M58.02,71.16h-8.11v8.11h8.11v-8.11h0Z"/>
    </g>
    <g>
      <path d="M50.6,64.38l-.02-2.71c0-2.73,1.02-5.35,2.85-7.37l5.36-5.94c1.35-1.5,2.1-3.44,2.1-5.45,0-2.83-2.32-5.12-5.17-5.12h-3.44c-2.85,0-5.16,2.3-5.16,5.12v.67h-6.81v-.67c0-6.56,5.37-11.89,11.97-11.89h3.44c6.6,0,11.97,5.33,11.97,11.89,0,3.69-1.36,7.23-3.84,9.97l-5.36,5.94c-.73.81-1.12,1.79-1.12,2.85l-.03,2.72h-6.75Z"/>
      <path d="M55.72,31.68c6.23,0,11.3,5.03,11.3,11.22,0,3.52-1.3,6.9-3.67,9.52l-5.36,5.94c-.83.92-1.29,2.06-1.29,3.3l-.02,2.05h-5.41l-.02-2.05c0-2.56.95-5.01,2.68-6.92l5.36-5.94c1.47-1.62,2.27-3.72,2.27-5.9,0-3.2-2.62-5.8-5.84-5.8h-3.44c-3.22,0-5.84,2.6-5.84,5.8h-5.46c0-6.18,5.07-11.22,11.3-11.22h3.44M55.72,30.33h-3.44c-6.97,0-12.65,5.64-12.65,12.57v1.35h8.16v-1.35c0-2.45,2.01-4.45,4.49-4.45h3.44c2.48,0,4.49,2,4.49,4.45,0,1.85-.68,3.62-1.93,5l-5.36,5.94c-1.94,2.15-3.02,4.92-3.03,7.82l.02,2.06v1.34h8.1v-1.34s.03-2.05.03-2.05c0-.89.33-1.72.95-2.4l5.36-5.94c2.59-2.87,4.02-6.57,4.02-10.42,0-6.93-5.67-12.57-12.65-12.57h0Z"/>
    </g>
  </g>
</svg>