<?xml version="1.0" encoding="UTF-8"?>
<svg id="Layer_1" xmlns="http://www.w3.org/2000/svg" version="1.1" viewBox="0 0 108 108">
  <!-- Generator: Adobe Illustrator 30.1.0, SVG Export Plug-In . SVG Version: 2.1.1 Build 136)  -->
  <circle id="Outer" cx="54" cy="54" r="43.57" fill="none" stroke="#000" stroke-width="20.86"/>
  <g>
    <g>
      <rect x="50.53" y="67.46" width="6.88" height="6.88"/>
      <path d="M55.73,69.15v3.51h-3.51v-3.51h3.51M59.1,65.77h-10.26v10.26h10.26v-10.26h0Z"/>
    </g>
    <g>
      <path d="M50.56,61.03l-.03-3c0-2.1.78-4.09,2.17-5.63l3.47-3.84c.67-.74,1.04-1.7,1.04-2.69,0-1.14-.94-2.07-2.1-2.07h-2.23c-1.16,0-2.1.93-2.1,2.07v1.69h-6.91v-1.69c0-4.94,4.04-8.96,9.01-8.96h2.23c4.97,0,9.01,4.02,9.01,8.96,0,2.7-1,5.29-2.81,7.3l-3.47,3.85c-.27.29-.4.63-.4,1.01l-.03,3.01h-6.85Z"/>
      <path d="M55.12,38.6c4.04,0,7.32,3.26,7.32,7.27,0,2.28-.84,4.47-2.38,6.17l-3.47,3.85c-.54.59-.84,1.33-.84,2.14v1.33h-3.52v-1.33c0-1.66.61-3.24,1.72-4.48l3.47-3.85c.95-1.05,1.47-2.41,1.47-3.82,0-2.07-1.7-3.76-3.78-3.76h-2.23c-2.09,0-3.78,1.69-3.78,3.76h-3.54c0-4.01,3.28-7.27,7.32-7.27h2.23M55.12,35.23h-2.23c-5.9,0-10.69,4.77-10.69,10.64v3.38h10.29v-3.38c0-.21.19-.38.41-.38h2.23c.22,0,.41.17.41.38,0,.58-.21,1.13-.6,1.56l-3.47,3.85c-1.67,1.85-2.6,4.24-2.61,6.73v1.37s.04,3.35.04,3.35h10.19l.03-3.34v-1.27s3.45-3.81,3.45-3.81c2.09-2.32,3.25-5.31,3.25-8.43,0-5.87-4.8-10.64-10.69-10.64h0Z"/>
    </g>
  </g>
</svg>