<?xml version="1.0" encoding="UTF-8"?>
<svg id="Layer_1" xmlns="http://www.w3.org/2000/svg" version="1.1" viewBox="0 0 108 108">
  <!-- Generator: Adobe Illustrator 30.1.0, SVG Export Plug-In . SVG Version: 2.1.1 Build 136)  -->
  <circle id="Outer" cx="54" cy="54" r="50.25" fill="none" stroke="#000" stroke-width="7.49"/>
  <g>
    <g>
      <rect x="50.58" y="72.54" width="6.76" height="6.76"/>
      <path d="M56.84,73.05v5.75h-5.75v-5.75h5.75M57.85,72.03h-7.77v7.77h7.77v-7.77h0Z"/>
    </g>
    <g>
      <path d="M50.59,65l-.02-2.67c.01-2.85,1.07-5.58,2.98-7.69l5.69-6.31c1.47-1.63,2.29-3.74,2.29-5.93,0-3.12-2.56-5.66-5.7-5.66h-3.66c-3.14,0-5.7,2.54-5.7,5.66v.51h-6.81v-.51c0-6.85,5.61-12.43,12.51-12.43h3.66c6.9,0,12.51,5.58,12.51,12.43,0,3.86-1.43,7.58-4.03,10.46l-5.7,6.31c-.81.9-1.24,1.99-1.25,3.17l-.03,2.68h-6.75Z"/>
      <path d="M55.83,30.47c6.62,0,12.01,5.35,12.01,11.92,0,3.74-1.38,7.33-3.9,10.12l-5.7,6.31c-.88.98-1.37,2.19-1.38,3.5l-.02,2.17h-5.75l-.02-2.17c0-2.73,1.01-5.32,2.85-7.35l5.69-6.31c1.56-1.73,2.42-3.95,2.42-6.27,0-3.4-2.78-6.16-6.21-6.16h-3.66c-3.42,0-6.21,2.76-6.21,6.16h-5.8c0-6.57,5.39-11.92,12.01-11.92h3.66M55.83,29.46h-3.66c-7.18,0-13.02,5.8-13.02,12.93v1.01h7.83v-1.01c0-2.84,2.33-5.15,5.19-5.15h3.66c2.86,0,5.19,2.31,5.19,5.15,0,2.07-.77,4.05-2.16,5.59l-5.69,6.31c-1.99,2.2-3.1,5.05-3.11,8.02l.02,2.19v1h7.76v-1s.03-2.17.03-2.17c0-1.05.39-2.03,1.11-2.83l5.7-6.31c2.68-2.97,4.16-6.8,4.16-10.79,0-7.13-5.84-12.93-13.02-12.93h0Z"/>
    </g>
  </g>
</svg>