<?xml version="1.0" encoding="UTF-8"?>
<svg id="Layer_1" xmlns="http://www.w3.org/2000/svg" version="1.1" viewBox="0 0 89 89">
  <!-- Generator: Adobe Illustrator 30.1.0, SVG Export Plug-In . SVG Version: 2.1.1 Build 136)  -->
  <circle id="Outer" cx="44.5" cy="44.5" r="35.13" fill="none" stroke="#000" stroke-width="18.75"/>
  <g>
    <g>
      <rect x="41.62" y="54.99" width="5.71" height="5.71"/>
      <path d="M45.81,56.52v2.65h-2.65v-2.65h2.65M48.87,53.46h-8.77v8.77h8.77v-8.77h0Z"/>
    </g>
    <g>
      <path d="M41.64,49.91l-.02-2.52c0-1.65.61-3.22,1.71-4.43l2.63-2.91c.46-.52.72-1.18.72-1.87,0-.72-.6-1.31-1.33-1.31h-1.69c-.74,0-1.33.59-1.33,1.31v1.53h-5.74v-1.53c0-3.88,3.17-7.03,7.07-7.03h1.69c3.9,0,7.07,3.15,7.07,7.03,0,2.11-.78,4.13-2.19,5.69l-2.63,2.91c-.16.18-.24.38-.24.6l-.02,2.53h-5.68Z"/>
      <path d="M45.34,32.68c3.06,0,5.54,2.47,5.54,5.5,0,1.73-.64,3.38-1.8,4.67l-2.63,2.91c-.41.45-.63,1.01-.63,1.62v1h-2.66v-1c0-1.26.46-2.46,1.31-3.39l2.63-2.91c.72-.8,1.12-1.82,1.12-2.89,0-1.57-1.28-2.84-2.86-2.84h-1.69c-1.58,0-2.86,1.28-2.86,2.84h-2.68c0-3.03,2.49-5.5,5.54-5.5h1.69M45.34,29.62h-1.69c-4.74,0-8.6,3.84-8.6,8.56v3.06h7.77l-.63.7c-1.35,1.49-2.1,3.42-2.1,5.43v1.04s.04,3.03.04,3.03h8.71l.03-3.03v-.77s2.49-2.75,2.49-2.75c1.67-1.85,2.59-4.23,2.59-6.72,0-4.72-3.86-8.56-8.6-8.56h0ZM43.85,38.4h1.28c-.04.23-.15.45-.31.63l-.97,1.07v-1.7h0Z"/>
    </g>
  </g>
</svg>