<?xml version="1.0" encoding="UTF-8"?>
<svg id="Layer_1" xmlns="http://www.w3.org/2000/svg" version="1.1" viewBox="0 0 89 89">
  <!-- Generator: Adobe Illustrator 30.1.0, SVG Export Plug-In . SVG Version: 2.1.1 Build 136)  -->
  <circle id="Outer" cx="44.5" cy="44.5" r="41.41" fill="none" stroke="#000" stroke-width="6.17"/>
  <g>
    <g>
      <rect x="41.69" y="59.78" width="5.57" height="5.57"/>
      <path d="M46.84,60.2v4.74h-4.74v-4.74h4.74M47.68,59.36h-6.41v6.41h6.41v-6.41h0Z"/>
    </g>
    <g>
      <path d="M41.69,53.56l-.02-2.21c0-2.35.88-4.6,2.45-6.34l4.69-5.2c1.21-1.35,1.88-3.08,1.88-4.89,0-2.57-2.11-4.66-4.7-4.66h-3.01c-2.59,0-4.7,2.09-4.7,4.66v.42h-5.61v-.42c0-5.65,4.62-10.24,10.31-10.24h3.01c5.69,0,10.31,4.59,10.31,10.24,0,3.19-1.18,6.24-3.32,8.62l-4.69,5.2c-.67.74-1.02,1.64-1.03,2.61l-.02,2.21h-5.56Z"/>
      <path d="M46.01,25.11c5.46,0,9.89,4.41,9.89,9.82,0,3.08-1.14,6.04-3.21,8.34l-4.69,5.2c-.73.8-1.13,1.8-1.13,2.89l-.02,1.79h-4.74l-.02-1.79c0-2.25.84-4.39,2.35-6.06l4.69-5.2c1.28-1.42,1.99-3.26,1.99-5.17,0-2.8-2.29-5.08-5.11-5.08h-3.01c-2.82,0-5.11,2.28-5.11,5.08h-4.78c0-5.42,4.44-9.82,9.89-9.82h3.01M46.01,24.27h-3.01c-5.92,0-10.73,4.78-10.73,10.66v.83h6.45v-.83c0-2.34,1.92-4.24,4.28-4.24h3.01c2.36,0,4.28,1.9,4.28,4.24,0,1.7-.63,3.34-1.78,4.61l-4.69,5.2c-1.64,1.82-2.55,4.17-2.56,6.61l.02,1.8v.83h6.4v-.83s.03-1.79.03-1.79c0-.87.32-1.67.92-2.33l4.69-5.2c2.21-2.45,3.43-5.61,3.43-8.9,0-5.88-4.81-10.66-10.73-10.66h0Z"/>
    </g>
  </g>
</svg>