<?xml version="1.0" encoding="UTF-8"?>
<svg id="Layer_1" xmlns="http://www.w3.org/2000/svg" version="1.1" viewBox="0 0 89 89">
  <!-- Generator: Adobe Illustrator 30.1.0, SVG Export Plug-In . SVG Version: 2.1.1 Build 136)  -->
  <circle id="Outer" cx="44.5" cy="44.5" r="35.91" fill="none" stroke="#000" stroke-width="17.19"/>
  <g>
    <g>
      <rect x="41.64" y="55.59" width="5.67" height="5.67"/>
      <path d="M45.92,56.98v2.89h-2.89v-2.89h2.89M48.7,54.2h-8.45v8.45h8.45v-8.45h0Z"/>
    </g>
    <g>
      <path d="M41.66,50.29l-.02-2.47c0-1.73.64-3.37,1.79-4.64l2.86-3.17c.55-.61.86-1.4.86-2.22,0-.94-.77-1.71-1.73-1.71h-1.84c-.95,0-1.73.77-1.73,1.71v1.39h-5.7v-1.39c0-4.07,3.33-7.38,7.42-7.38h1.84c4.09,0,7.42,3.31,7.42,7.38,0,2.22-.82,4.36-2.32,6.01l-2.86,3.17c-.22.24-.33.52-.33.83l-.02,2.48h-5.64Z"/>
      <path d="M45.42,31.81c3.33,0,6.03,2.69,6.03,5.99,0,1.88-.7,3.68-1.96,5.08l-2.86,3.17c-.44.49-.69,1.1-.69,1.76v1.09h-2.9v-1.09c0-1.37.5-2.67,1.42-3.69l2.86-3.17c.78-.87,1.21-1.99,1.21-3.15,0-1.71-1.4-3.1-3.12-3.1h-1.84c-1.72,0-3.12,1.39-3.12,3.1h-2.91c0-3.3,2.71-5.99,6.03-5.99h1.84M45.42,29.03h-1.84c-4.86,0-8.81,3.93-8.81,8.77v2.78h8.48v-2.78c0-.17.15-.31.34-.31h1.84c.18,0,.34.14.34.31,0,.47-.18.93-.5,1.29l-2.86,3.17c-1.38,1.52-2.14,3.49-2.15,5.55v1.13s.03,2.76.03,2.76h8.4l.03-2.75v-1.04s2.85-3.14,2.85-3.14c1.73-1.91,2.68-4.38,2.68-6.95,0-4.84-3.95-8.77-8.81-8.77h0Z"/>
    </g>
  </g>
</svg>