<?xml version="1.0" encoding="UTF-8"?>
<svg id="Layer_1" xmlns="http://www.w3.org/2000/svg" version="1.1" viewBox="0 0 89 89">
  <!-- Generator: Adobe Illustrator 30.1.0, SVG Export Plug-In . SVG Version: 2.1.1 Build 136)  -->
  <circle id="Outer" cx="44.5" cy="44.5" r="40.63" fill="none" stroke="#000" stroke-width="7.73"/>
  <g>
    <g>
      <rect x="41.69" y="59.19" width="5.57" height="5.57"/>
      <path d="M46.7,59.75v4.46h-4.46v-4.46h4.46M47.81,58.64h-6.68v6.68h6.68v-6.68h0Z"/>
    </g>
    <g>
      <path d="M41.7,53.05l-.02-2.24c0-2.25.84-4.41,2.35-6.08l4.42-4.89c1.12-1.24,1.73-2.83,1.73-4.49,0-2.33-1.91-4.22-4.26-4.22h-2.84c-2.35,0-4.26,1.89-4.26,4.22v.56h-5.61v-.56c0-5.4,4.43-9.8,9.87-9.8h2.84c5.44,0,9.87,4.4,9.87,9.8,0,3.04-1.12,5.96-3.17,8.22l-4.42,4.89c-.6.67-.92,1.48-.92,2.34l-.02,2.24h-5.56Z"/>
      <path d="M45.92,26.11c5.13,0,9.31,4.15,9.31,9.24,0,2.9-1.07,5.69-3.02,7.84l-4.42,4.89c-.68.76-1.06,1.7-1.07,2.72l-.02,1.69h-4.46v-1.69c0-2.11.77-4.13,2.19-5.7l4.42-4.89c1.21-1.34,1.87-3.07,1.87-4.86,0-2.63-2.16-4.78-4.81-4.78h-2.84c-2.65,0-4.81,2.14-4.81,4.78h-4.5c0-5.1,4.18-9.24,9.31-9.24h2.84M45.92,25h-2.84c-5.75,0-10.42,4.65-10.42,10.36v1.11h6.72v-1.11c0-2.02,1.66-3.67,3.7-3.67h2.84c2.04,0,3.7,1.64,3.7,3.67,0,1.52-.56,2.98-1.59,4.12l-4.42,4.89c-1.6,1.77-2.49,4.06-2.5,6.44v1.7s.02,1.1.02,1.1h6.66v-1.1s.03-1.69.03-1.69c0-.74.27-1.42.78-1.98l4.42-4.89c2.13-2.36,3.31-5.41,3.31-8.59,0-5.71-4.68-10.36-10.42-10.36h0Z"/>
    </g>
  </g>
</svg>