<?xml version="1.0" encoding="UTF-8"?>
<svg id="Layer_1" xmlns="http://www.w3.org/2000/svg" version="1.1" viewBox="0 0 89 89">
  <!-- Generator: Adobe Illustrator 30.1.0, SVG Export Plug-In . SVG Version: 2.1.1 Build 136)  -->
  <circle id="Outer" cx="44.5" cy="44.5" r="39.06" fill="none" stroke="#000" stroke-width="10.87"/>
  <g>
    <g>
      <rect x="41.68" y="58.01" width="5.58" height="5.58"/>
      <path d="M46.43,58.84v3.91h-3.91v-3.91h3.91M48.1,57.17h-7.25v7.25h7.25v-7.25h0Z"/>
    </g>
    <g>
      <path d="M41.7,52.06l-.02-2.31c0-2.07.77-4.04,2.15-5.57l3.87-4.29c.92-1.02,1.43-2.34,1.43-3.71,0-1.85-1.52-3.36-3.39-3.36h-2.49c-1.87,0-3.39,1.51-3.39,3.36v.83h-5.62v-.83c0-4.93,4.04-8.94,9-8.94h2.49c4.96,0,9,4.01,9,8.94,0,2.75-1.02,5.39-2.87,7.44l-3.88,4.29c-.47.52-.72,1.15-.72,1.83l-.02,2.31h-5.56Z"/>
      <path d="M45.74,28.08c4.5,0,8.17,3.64,8.17,8.11,0,2.54-.94,4.99-2.65,6.88l-3.87,4.29c-.6.66-.93,1.49-.94,2.38v1.48h-3.93v-1.48c0-1.85.68-3.62,1.92-5l3.87-4.29c1.06-1.17,1.64-2.69,1.64-4.27,0-2.31-1.89-4.19-4.22-4.19h-2.49c-2.33,0-4.22,1.88-4.22,4.19h-3.95c0-4.47,3.66-8.11,8.17-8.11h2.49M45.74,26.41h-2.49c-5.42,0-9.84,4.39-9.84,9.78v1.67h7.28v-1.67c0-1.39,1.15-2.52,2.55-2.52h2.49c1.41,0,2.55,1.13,2.55,2.52,0,1.16-.43,2.28-1.21,3.15l-3.87,4.29c-1.52,1.68-2.36,3.85-2.37,6.11v1.5s.03,1.65.03,1.65h7.22l.02-1.65v-1.48c.02-.48.19-.91.52-1.28l3.88-4.29c1.99-2.2,3.08-5.04,3.08-8,0-5.39-4.41-9.78-9.84-9.78h0Z"/>
    </g>
  </g>
</svg>