<?xml version="1.0" encoding="UTF-8"?>
<svg id="Layer_1" xmlns="http://www.w3.org/2000/svg" version="1.1" viewBox="0 0 89 89">
  <!-- Generator: Adobe Illustrator 30.1.0, SVG Export Plug-In . SVG Version: 2.1.1 Build 136)  -->
  <circle id="Outer" cx="44.5" cy="44.5" r="37.48" fill="none" stroke="#000" stroke-width="14.05"/>
  <g>
    <g>
      <rect x="41.67" y="56.8" width="5.61" height="5.61"/>
      <path d="M46.17,57.92v3.38h-3.38v-3.38h3.38M48.39,55.69h-7.83v7.83h7.83v-7.83h0Z"/>
    </g>
    <g>
      <path d="M41.69,51.13l-.02-2.38c0-1.89.7-3.69,1.96-5.08l3.35-3.71c.73-.81,1.14-1.86,1.14-2.95,0-1.39-1.14-2.51-2.54-2.51h-2.15c-1.4,0-2.54,1.13-2.54,2.51v1.11h-5.64v-1.11c0-4.48,3.67-8.13,8.18-8.13h2.15c4.51,0,8.18,3.65,8.18,8.13,0,2.48-.92,4.86-2.58,6.7l-3.35,3.71c-.34.38-.52.83-.52,1.32l-.02,2.39h-5.59Z"/>
      <path d="M45.58,29.99c3.9,0,7.07,3.15,7.07,7.02,0,2.2-.82,4.32-2.29,5.95l-3.35,3.71c-.52.57-.81,1.29-.81,2.06v1.28h-3.4v-1.28c0-1.6.59-3.13,1.67-4.33l3.35-3.71c.92-1.02,1.42-2.33,1.42-3.69,0-2-1.64-3.63-3.65-3.63h-2.15c-2.01,0-3.65,1.63-3.65,3.63h-3.41c0-3.87,3.17-7.02,7.07-7.02h2.15M45.58,27.77h-2.15c-5.12,0-9.29,4.15-9.29,9.24v2.22h7.86v-2.22c0-.77.64-1.4,1.43-1.4h2.15c.79,0,1.43.63,1.43,1.4,0,.81-.3,1.59-.85,2.2l-3.35,3.71c-1.44,1.59-2.24,3.66-2.25,5.81v1.31s.03,2.21.03,2.21h7.79l.02-2.2v-1.28c.01-.23.09-.42.25-.59l3.35-3.72c1.85-2.05,2.87-4.69,2.87-7.45,0-5.1-4.17-9.24-9.29-9.24h0Z"/>
    </g>
  </g>
</svg>