<?xml version="1.0" encoding="UTF-8"?>
<svg id="Layer_1" xmlns="http://www.w3.org/2000/svg" version="1.1" viewBox="0 0 41 41">
  <!-- Generator: Adobe Illustrator 30.1.0, SVG Export Plug-In . SVG Version: 2.1.1 Build 136)  -->
  <g>
    <g>
      <rect x="18.99" y="12.21" width="3.03" height="3.03"/>
      <path d="M21.37,12.85v1.74h-1.74v-1.74h1.74M22.65,11.57h-4.31v4.31h4.31v-4.31h0Z"/>
    </g>
    <g>
      <polygon points="17.24 28.39 17.24 25.37 18.99 25.37 18.99 21.21 17.24 21.21 17.24 18.18 22.01 18.18 22.01 25.37 23.76 25.37 23.76 28.39 17.24 28.39"/>
      <path d="M21.37,18.82v7.19h1.74v1.74h-5.23v-1.74h1.74v-5.44h-1.74v-1.74h3.49M22.65,17.54h-6.05v4.31h1.74v2.88h-1.74v4.31h7.79v-4.31h-1.74v-7.19h0Z"/>
    </g>
  </g>
  <circle id="Outer" cx="20.5" cy="20.5" r="16.54" fill="none" stroke="#000" stroke-width="7.92"/>
</svg>