<?xml version="1.0" encoding="UTF-8"?>
<svg id="Layer_1" xmlns="http://www.w3.org/2000/svg" version="1.1" viewBox="0 0 41 41">
  <!-- Generator: Adobe Illustrator 30.1.0, SVG Export Plug-In . SVG Version: 2.1.1 Build 136)  -->
  <g>
    <g>
      <rect x="19.01" y="11.69" width="2.98" height="2.98"/>
      <path d="M21.47,12.2v1.95h-1.95v-1.95h1.95M22.5,11.18h-4v4h4v-4h0Z"/>
    </g>
    <g>
      <polygon points="17.06 29.02 17.06 26.04 19.01 26.04 19.01 20.98 17.06 20.98 17.06 18.01 21.99 18.01 21.99 26.04 23.94 26.04 23.94 29.02 17.06 29.02"/>
      <path d="M21.47,18.52v8.04h1.95v1.95h-5.85v-1.95h1.95v-6.09h-1.95v-1.95h3.9M22.5,17.49h-5.95v4h1.95v4.04h-1.95v4h7.9v-4h-1.95v-8.04h0Z"/>
    </g>
  </g>
  <circle id="Outer" cx="20.5" cy="20.5" r="17.26" fill="none" stroke="#000" stroke-width="6.47"/>
</svg>