<?xml version="1.0" encoding="UTF-8"?>
<svg id="Layer_1" xmlns="http://www.w3.org/2000/svg" version="1.1" viewBox="0 0 90 90">
  <!-- Generator: Adobe Illustrator 30.1.0, SVG Export Plug-In . SVG Version: 2.1.1 Build 136)  -->
  <path d="M45,17.38c.9,0,1.8.47,2.27,1.4l5.78,11.47c.99,1.97,2.84,3.36,5,3.77l12.5,2.34c1.95.37,2.75,2.74,1.41,4.21l-9.11,9.99c-1.41,1.54-2.06,3.63-1.79,5.7l1.78,13.48c.21,1.61-1.07,2.88-2.51,2.88-.38,0-.78-.09-1.16-.29l-10.93-5.63c-1.01-.52-2.12-.78-3.23-.78-1.11,0-2.22.26-3.23.78l-10.93,5.63c-.38.2-.78.29-1.16.29-1.45,0-2.73-1.27-2.51-2.88l1.78-13.48c.27-2.07-.38-4.15-1.78-5.69l-9.11-9.99c-1.34-1.47-.55-3.85,1.41-4.22l12.5-2.34c2.16-.41,4.01-1.8,5-3.76l5.78-11.47c.47-.93,1.37-1.4,2.27-1.4M45,0C37.43,0,30.62,4.2,27.21,10.96l-3.48,6.91-7.48,1.4c-7.09,1.33-12.93,6.41-15.22,13.25-2.29,6.85-.7,14.42,4.17,19.75l5.88,6.45-1.15,8.73c-.75,5.69.99,11.43,4.76,15.74,3.79,4.32,9.25,6.8,14.98,6.8,3.15,0,6.3-.77,9.12-2.22l6.2-3.2,6.21,3.2c2.81,1.45,5.97,2.21,9.12,2.21,5.73,0,11.19-2.48,14.98-6.8,3.78-4.31,5.51-10.04,4.76-15.74l-1.15-8.73,5.88-6.46c4.86-5.34,6.46-12.91,4.17-19.75-2.29-6.84-8.12-11.92-15.22-13.25l-7.48-1.4-3.48-6.91C59.38,4.2,52.57,0,45,0h0Z"/>
</svg>