<?xml version="1.0" encoding="UTF-8"?>
<svg id="Layer_1" xmlns="http://www.w3.org/2000/svg" version="1.1" viewBox="0 0 90 90">
  <!-- Generator: Adobe Illustrator 30.1.0, SVG Export Plug-In . SVG Version: 2.1.1 Build 136)  -->
  <path d="M45,7.82c1.21,0,2.42.63,3.05,1.88l7.78,15.44c1.33,2.65,3.83,4.52,6.74,5.07l16.83,3.15c2.63.49,3.7,3.69,1.89,5.67l-12.26,13.45c-1.89,2.08-2.77,4.88-2.4,7.67l2.39,18.14c.29,2.16-1.44,3.88-3.39,3.88-.52,0-1.05-.12-1.56-.39l-14.72-7.58c-1.36-.7-2.86-1.05-4.35-1.05-1.49,0-2.98.35-4.35,1.05l-14.72,7.58c-.51.26-1.05.39-1.56.39-1.95,0-3.67-1.71-3.39-3.88l2.39-18.15c.37-2.78-.51-5.59-2.4-7.66l-12.26-13.46c-1.81-1.98-.74-5.18,1.89-5.68l16.83-3.15c2.91-.55,5.4-2.42,6.73-5.07l7.78-15.44c.63-1.25,1.84-1.88,3.05-1.88M45,0c-4.27,0-8.11,2.37-10.03,6.18l-7.78,15.44c-.24.47-.68.8-1.19.9l-16.83,3.15c-4,.75-7.29,3.62-8.58,7.48-1.29,3.87-.39,8.14,2.35,11.15l12.26,13.46c.34.37.49.87.43,1.37l-2.39,18.15c-.42,3.21.55,6.45,2.68,8.87,2.14,2.44,5.22,3.84,8.46,3.84,1.77,0,3.55-.43,5.14-1.25l14.72-7.58c.24-.12.5-.19.77-.19.27,0,.53.06.77.19l14.72,7.58c1.59.82,3.37,1.25,5.14,1.25,3.23,0,6.31-1.4,8.46-3.84,2.13-2.43,3.1-5.66,2.68-8.87l-2.39-18.14c-.07-.5.09-1.01.43-1.38l12.26-13.45c2.74-3.01,3.65-7.28,2.35-11.15-1.29-3.86-4.58-6.73-8.58-7.48l-16.83-3.15c-.51-.1-.96-.43-1.19-.9l-7.78-15.44c-1.92-3.81-5.77-6.18-10.03-6.18h0Z"/>
</svg>