<?xml version="1.0" encoding="UTF-8"?>
<svg id="Layer_1" xmlns="http://www.w3.org/2000/svg" version="1.1" viewBox="0 0 90 90">
  <!-- Generator: Adobe Illustrator 30.1.0, SVG Export Plug-In . SVG Version: 2.1.1 Build 136)  -->
  <path d="M45,18.96c.85,0,1.69.44,2.14,1.32l5.45,10.82c.93,1.86,2.68,3.17,4.72,3.55l11.79,2.21c1.84.35,2.59,2.59,1.33,3.97l-8.59,9.42c-1.33,1.45-1.94,3.42-1.68,5.37l1.68,12.71c.2,1.52-1.01,2.72-2.37,2.72-.36,0-.73-.08-1.09-.27l-10.31-5.31c-.96-.49-2-.74-3.05-.74s-2.09.25-3.05.74l-10.31,5.31c-.36.19-.73.27-1.09.27-1.36,0-2.57-1.2-2.37-2.72l1.68-12.71c.26-1.95-.36-3.91-1.68-5.37l-8.59-9.42c-1.27-1.39-.52-3.63,1.33-3.98l11.79-2.21c2.04-.38,3.78-1.69,4.72-3.55l5.45-10.82c.44-.88,1.29-1.32,2.14-1.32M45,0C36.89,0,29.58,4.5,25.93,11.74l-2.71,5.39-5.8,1.09c-7.6,1.43-13.85,6.87-16.31,14.2-2.46,7.34-.75,15.45,4.47,21.17l4.74,5.2-.93,7.05c-.8,6.1,1.06,12.25,5.11,16.87,4.06,4.63,9.91,7.29,16.06,7.29,3.38,0,6.76-.82,9.77-2.37l4.68-2.41,4.68,2.41c3.01,1.55,6.39,2.37,9.77,2.37,6.15,0,12-2.66,16.06-7.29,4.05-4.62,5.91-10.77,5.11-16.87l-.93-7.05,4.74-5.21c5.21-5.72,6.92-13.83,4.46-21.17-2.46-7.34-8.71-12.78-16.31-14.2l-5.8-1.09-2.71-5.38C60.41,4.5,53.11,0,45,0h0Z"/>
</svg>