<?xml version="1.0" encoding="UTF-8"?>
<svg id="Layer_1" xmlns="http://www.w3.org/2000/svg" version="1.1" viewBox="0 0 126 126">
  <!-- Generator: Adobe Illustrator 30.1.0, SVG Export Plug-In . SVG Version: 2.1.1 Build 136)  -->
  <path d="M63,19.88c1.4,0,2.8.73,3.54,2.18l9.02,17.91c1.55,3.07,4.44,5.25,7.81,5.88l19.51,3.66c3.05.57,4.29,4.28,2.2,6.58l-14.22,15.6c-2.19,2.41-3.21,5.66-2.79,8.9l2.77,21.04c.33,2.51-1.67,4.5-3.93,4.5-.6,0-1.21-.14-1.81-.45l-17.07-8.79c-1.58-.81-3.31-1.22-5.04-1.22s-3.46.41-5.04,1.22l-17.07,8.79c-.6.31-1.21.45-1.81.45-2.26,0-4.26-1.99-3.93-4.5l2.78-21.04c.43-3.23-.59-6.48-2.78-8.88l-14.22-15.6c-2.09-2.3-.86-6.01,2.2-6.58l19.51-3.66c3.37-.63,6.26-2.8,7.81-5.88l9.02-17.91c.73-1.45,2.13-2.18,3.54-2.18M63,0C53.94,0,45.78,5.03,41.7,13.12l-7.05,13.99-15.2,2.85c-8.49,1.59-15.47,7.67-18.22,15.87-2.75,8.2-.84,17.26,4.99,23.65l11.45,12.56-2.24,16.97c-.9,6.82,1.18,13.68,5.7,18.84,4.54,5.18,11.08,8.14,17.94,8.14,3.77,0,7.54-.92,10.91-2.65l13.01-6.7,13.01,6.7c3.37,1.74,7.14,2.65,10.91,2.65,6.86,0,13.4-2.97,17.94-8.14,4.52-5.16,6.6-12.02,5.7-18.84l-2.24-16.97,11.45-12.57c5.82-6.39,7.73-15.45,4.99-23.65-2.75-8.19-9.73-14.27-18.22-15.87l-15.2-2.85-7.05-13.99C80.22,5.03,72.06,0,63,0h0Z"/>
</svg>