<?xml version="1.0" encoding="UTF-8"?>
<svg id="Layer_1" xmlns="http://www.w3.org/2000/svg" version="1.1" viewBox="0 0 126 126">
  <!-- Generator: Adobe Illustrator 30.1.0, SVG Export Plug-In . SVG Version: 2.1.1 Build 136)  -->
  <path d="M63,26.54c1.19,0,2.37.61,2.99,1.84l7.63,15.14c1.31,2.6,3.75,4.44,6.61,4.97l16.5,3.09c2.58.48,3.63,3.62,1.86,5.56l-12.02,13.19c-1.86,2.04-2.72,4.79-2.36,7.52l2.35,17.79c.28,2.12-1.41,3.8-3.32,3.8-.51,0-1.03-.12-1.53-.38l-14.43-7.43c-1.34-.69-2.8-1.03-4.26-1.03s-2.93.34-4.26,1.03l-14.43,7.43c-.5.26-1.02.38-1.53.38-1.91,0-3.6-1.68-3.32-3.8l2.35-17.8c.36-2.73-.5-5.48-2.35-7.51l-12.02-13.19c-1.77-1.94-.72-5.08,1.86-5.57l16.5-3.09c2.85-.53,5.29-2.37,6.6-4.97l7.63-15.14c.62-1.23,1.8-1.84,2.99-1.84M63,0C51.64,0,41.42,6.3,36.31,16.44l-3.8,7.54-8.12,1.52c-10.64,2-19.39,9.62-22.84,19.89-3.44,10.27-1.05,21.63,6.25,29.64l6.64,7.28-1.3,9.87c-1.13,8.54,1.48,17.15,7.15,23.61,5.68,6.48,13.88,10.2,22.48,10.2,4.73,0,9.46-1.15,13.68-3.32l6.55-3.37,6.55,3.37c4.22,2.17,8.95,3.32,13.68,3.32,8.6,0,16.8-3.72,22.48-10.2,5.67-6.47,8.28-15.07,7.15-23.61l-1.3-9.87,6.64-7.29c7.3-8.01,9.69-19.36,6.25-29.64-3.44-10.27-12.19-17.89-22.83-19.89l-8.13-1.52-3.8-7.54C84.58,6.3,74.35,0,63,0h0Z"/>
</svg>