<?xml version="1.0" encoding="UTF-8"?>
<svg id="Layer_1" xmlns="http://www.w3.org/2000/svg" version="1.1" viewBox="0 0 113 113">
  <!-- Generator: Adobe Illustrator 30.1.0, SVG Export Plug-In . SVG Version: 2.1.1 Build 136)  -->
  <circle id="Outer" cx="56.5" cy="56.5" r="44.6" fill="none" stroke="#000" stroke-width="23.8"/>
  <g>
    <g>
      <rect x="52.85" y="69.81" width="7.25" height="7.25"/>
      <path d="M58.16,71.76v3.37h-3.37v-3.37h3.37M62.04,67.87h-11.14v11.14h11.14v-11.14h0Z"/>
    </g>
    <g>
      <path d="M52.87,63.37l-.03-3.2c0-2.1.78-4.09,2.17-5.63l3.34-3.7c.59-.65.92-1.5.92-2.37,0-.92-.76-1.67-1.69-1.67h-2.14c-.93,0-1.69.75-1.69,1.67v1.94h-7.28v-1.94c0-4.92,4.03-8.93,8.98-8.93h2.14c4.95,0,8.98,4,8.98,8.93,0,2.67-.99,5.24-2.79,7.23l-3.34,3.7c-.2.22-.31.48-.31.76l-.03,3.21h-7.22Z"/>
      <path d="M57.57,41.49c3.88,0,7.04,3.13,7.04,6.99,0,2.19-.81,4.3-2.28,5.93l-3.34,3.7c-.52.57-.8,1.28-.81,2.05v1.27h-3.38v-1.27c0-1.6.58-3.12,1.66-4.31l3.34-3.7c.91-1.01,1.42-2.32,1.42-3.67,0-1.99-1.63-3.61-3.64-3.61h-2.14c-2,0-3.64,1.62-3.64,3.61h-3.4c0-3.85,3.16-6.99,7.04-6.99h2.14M57.57,37.61h-2.14c-6.02,0-10.92,4.88-10.92,10.87v3.88h9.86l-.8.88c-1.71,1.89-2.66,4.34-2.67,6.9v1.32s.05,3.85.05,3.85h11.06l.04-3.85v-.98s3.16-3.49,3.16-3.49c2.12-2.35,3.29-5.38,3.29-8.53,0-5.99-4.9-10.87-10.92-10.87h0ZM55.68,48.75h1.62c-.05.29-.19.57-.39.8l-1.23,1.36v-2.16h0Z"/>
    </g>
  </g>
</svg>