<?xml version="1.0" encoding="UTF-8"?>
<svg id="Layer_1" xmlns="http://www.w3.org/2000/svg" version="1.1" viewBox="0 0 113 113">
  <!-- Generator: Adobe Illustrator 30.1.0, SVG Export Plug-In . SVG Version: 2.1.1 Build 136)  -->
  <circle id="Outer" cx="56.5" cy="56.5" r="52.58" fill="none" stroke="#000" stroke-width="7.84"/>
  <g>
    <g>
      <rect x="52.93" y="75.9" width="7.08" height="7.07"/>
      <path d="M59.47,76.43v6.02h-6.02v-6.02h6.02M60.53,75.37h-8.13v8.13h8.13v-8.13h0Z"/>
    </g>
    <g>
      <path d="M52.93,68.01l-.02-2.8c.01-2.98,1.12-5.84,3.12-8.05l5.96-6.6c1.54-1.71,2.39-3.91,2.39-6.21,0-3.26-2.67-5.92-5.96-5.92h-3.83c-3.29,0-5.96,2.65-5.96,5.92v.53h-7.13v-.53c0-7.17,5.87-13,13.09-13h3.83c7.22,0,13.09,5.83,13.09,13,0,4.04-1.5,7.93-4.21,10.94l-5.96,6.6c-.85.94-1.3,2.08-1.3,3.31l-.03,2.8h-7.07Z"/>
      <path d="M58.41,31.88c6.93,0,12.56,5.6,12.56,12.47,0,3.91-1.45,7.67-4.08,10.58l-5.96,6.6c-.92,1.02-1.43,2.29-1.44,3.66l-.02,2.28h-6.02l-.02-2.28c.01-2.85,1.06-5.57,2.98-7.69l5.96-6.6c1.63-1.81,2.53-4.14,2.53-6.56,0-3.55-2.91-6.45-6.49-6.45h-3.83c-3.58,0-6.49,2.89-6.49,6.45h-6.07c0-6.88,5.63-12.47,12.56-12.47h3.83M58.41,30.82h-3.83c-7.51,0-13.62,6.07-13.62,13.53v1.06h8.19v-1.06c0-2.97,2.44-5.39,5.43-5.39h3.83c3,0,5.43,2.42,5.43,5.39,0,2.16-.8,4.24-2.26,5.85l-5.96,6.6c-2.09,2.31-3.24,5.29-3.25,8.4l.02,2.29v1.05h8.12v-1.05s.03-2.28.03-2.28c0-1.1.41-2.13,1.17-2.96l5.96-6.6c2.81-3.11,4.35-7.12,4.35-11.29,0-7.46-6.11-13.53-13.62-13.53h0Z"/>
    </g>
  </g>
</svg>