<?xml version="1.0" encoding="UTF-8"?>
<svg id="Layer_1" xmlns="http://www.w3.org/2000/svg" version="1.1" viewBox="0 0 113 113">
  <!-- Generator: Adobe Illustrator 30.1.0, SVG Export Plug-In . SVG Version: 2.1.1 Build 136)  -->
  <circle id="Outer" cx="56.5" cy="56.5" r="49.6" fill="none" stroke="#000" stroke-width="13.81"/>
  <g>
    <g>
      <rect x="52.93" y="73.65" width="7.09" height="7.08"/>
      <path d="M58.95,74.71v4.97h-4.97v-4.97h4.97M61.07,72.59h-9.2v9.2h9.2v-9.2h0Z"/>
    </g>
    <g>
      <path d="M52.94,66.1l-.03-2.93c0-2.62.98-5.13,2.73-7.07l4.92-5.45c1.17-1.3,1.82-2.97,1.82-4.71,0-2.35-1.93-4.26-4.3-4.26h-3.16c-2.37,0-4.3,1.91-4.3,4.26v1.06h-7.13v-1.06c0-6.26,5.13-11.36,11.43-11.36h3.16c6.3,0,11.43,5.09,11.43,11.36,0,3.49-1.29,6.85-3.64,9.45l-4.92,5.45c-.6.66-.91,1.46-.91,2.32l-.03,2.93h-7.06Z"/>
      <path d="M58.08,35.65c5.72,0,10.37,4.62,10.37,10.3,0,3.23-1.2,6.33-3.37,8.74l-4.92,5.45c-.76.84-1.18,1.89-1.19,3.02l-.02,1.88h-4.97l-.02-1.88c0-2.35.88-4.6,2.46-6.35l4.92-5.45c1.35-1.49,2.09-3.42,2.09-5.42,0-2.93-2.4-5.32-5.36-5.32h-3.16c-2.96,0-5.36,2.39-5.36,5.32h-5.01c0-5.68,4.65-10.3,10.37-10.3h3.16M58.08,33.53h-3.16c-6.89,0-12.49,5.57-12.49,12.42v2.12h9.25v-2.12c0-1.77,1.45-3.2,3.24-3.2h3.16c1.79,0,3.24,1.44,3.24,3.2,0,1.48-.55,2.9-1.54,4l-4.92,5.45c-1.93,2.13-3,4.89-3.01,7.76l.02,1.9.02,2.1h9.16l.02-2.1.02-1.88c0-.62.22-1.16.64-1.63l4.92-5.45c2.52-2.8,3.91-6.4,3.91-10.16,0-6.85-5.6-12.42-12.49-12.42h0Z"/>
    </g>
  </g>
</svg>