<?xml version="1.0" encoding="UTF-8"?>
<svg id="Layer_1" xmlns="http://www.w3.org/2000/svg" version="1.1" viewBox="0 0 113 113">
  <!-- Generator: Adobe Illustrator 30.1.0, SVG Export Plug-In . SVG Version: 2.1.1 Build 136)  -->
  <circle id="Outer" cx="56.5" cy="56.5" r="51.59" fill="none" stroke="#000" stroke-width="9.82"/>
  <g>
    <g>
      <rect x="52.93" y="75.16" width="7.07" height="7.07"/>
      <path d="M59.3,75.86v5.66h-5.66v-5.66h5.66M60.71,74.45h-8.49v8.49h8.49v-8.49h0Z"/>
    </g>
    <g>
      <path d="M52.94,67.36l-.02-2.84c.01-2.86,1.07-5.6,2.99-7.72l5.61-6.21c1.42-1.57,2.2-3.59,2.2-5.7,0-2.96-2.42-5.36-5.4-5.36h-3.6c-2.98,0-5.4,2.4-5.4,5.36v.71h-7.12v-.71c0-6.86,5.62-12.44,12.53-12.44h3.6c6.91,0,12.53,5.58,12.53,12.44,0,3.86-1.43,7.56-4.02,10.43l-5.61,6.21c-.76.84-1.17,1.87-1.17,2.98l-.03,2.84h-7.06Z"/>
      <path d="M58.3,33.15c6.52,0,11.82,5.27,11.82,11.74,0,3.68-1.36,7.22-3.84,9.96l-5.61,6.21c-.87.96-1.35,2.15-1.35,3.45l-.02,2.14h-5.66l-.02-2.14c0-2.68,1-5.24,2.8-7.24l5.61-6.21c1.54-1.7,2.38-3.89,2.38-6.17,0-3.34-2.74-6.07-6.11-6.07h-3.6c-3.37,0-6.11,2.72-6.11,6.07h-5.71c0-6.47,5.3-11.74,11.82-11.74h3.6M58.3,31.74h-3.6c-7.3,0-13.23,5.9-13.23,13.15v1.41h8.54v-1.41c0-2.57,2.11-4.65,4.7-4.65h3.6c2.59,0,4.7,2.09,4.7,4.65,0,1.93-.72,3.79-2.02,5.23l-5.61,6.21c-2.03,2.25-3.16,5.15-3.17,8.18l.02,2.16v1.4h8.47v-1.4s.04-2.14.04-2.14c0-.94.35-1.8.99-2.52l5.61-6.21c2.71-3,4.2-6.87,4.2-10.91,0-7.25-5.94-13.15-13.23-13.15h0Z"/>
    </g>
  </g>
</svg>