<?xml version="1.0" encoding="UTF-8"?>
<svg id="Layer_1" xmlns="http://www.w3.org/2000/svg" version="1.1" viewBox="0 0 113 113">
  <!-- Generator: Adobe Illustrator 30.1.0, SVG Export Plug-In . SVG Version: 2.1.1 Build 136)  -->
  <circle id="Outer" cx="56.5" cy="56.5" r="47.58" fill="none" stroke="#000" stroke-width="17.83"/>
  <g>
    <g>
      <rect x="52.91" y="72.12" width="7.12" height="7.12"/>
      <path d="M58.62,73.53v4.3h-4.3v-4.3h4.3M61.44,70.71h-9.95v9.95h9.95v-9.95h0Z"/>
    </g>
    <g>
      <path d="M52.93,64.92l-.03-3.02c0-2.4.89-4.68,2.49-6.45l4.25-4.71c.93-1.03,1.44-2.36,1.44-3.74,0-1.76-1.45-3.19-3.23-3.19h-2.73c-1.78,0-3.23,1.43-3.23,3.19v1.41h-7.16v-1.41c0-5.69,4.66-10.32,10.39-10.32h2.73c5.73,0,10.38,4.63,10.38,10.32,0,3.14-1.16,6.17-3.28,8.51l-4.26,4.72c-.43.48-.66,1.06-.66,1.67l-.03,3.03h-7.1Z"/>
      <path d="M57.87,38.08c4.95,0,8.97,4,8.97,8.91,0,2.8-1.04,5.48-2.91,7.56l-4.26,4.72c-.66.73-1.02,1.64-1.03,2.62l-.02,1.63h-4.3v-1.63c0-2.04.74-3.98,2.11-5.49l4.26-4.71c1.17-1.29,1.81-2.96,1.81-4.69,0-2.54-2.08-4.61-4.64-4.61h-2.73c-2.56,0-4.64,2.07-4.64,4.61h-4.34c0-4.91,4.02-8.91,8.97-8.91h2.73M57.87,35.26h-2.73c-6.51,0-11.8,5.26-11.8,11.73v2.82h9.99v-2.82c0-.98.81-1.78,1.81-1.78h2.73c1,0,1.81.8,1.81,1.78,0,1.03-.38,2.02-1.08,2.79l-4.26,4.71c-1.83,2.03-2.85,4.65-2.86,7.38v1.66s.04,2.8.04,2.8h9.89l.03-2.8.02-1.63c0-.29.1-.53.3-.75l4.26-4.72c2.35-2.6,3.64-5.96,3.64-9.45,0-6.47-5.29-11.73-11.8-11.73h0Z"/>
    </g>
  </g>
</svg>