<?xml version="1.0" encoding="UTF-8"?>
<svg id="Layer_1" xmlns="http://www.w3.org/2000/svg" version="1.1" viewBox="0 0 113 113">
  <!-- Generator: Adobe Illustrator 30.1.0, SVG Export Plug-In . SVG Version: 2.1.1 Build 136)  -->
  <circle id="Outer" cx="56.5" cy="56.5" r="45.59" fill="none" stroke="#000" stroke-width="21.82"/>
  <g>
    <g>
      <rect x="52.87" y="70.58" width="7.2" height="7.2"/>
      <path d="M58.31,72.35v3.67h-3.67v-3.67h3.67M61.84,68.82h-10.73v10.73h10.73v-10.73h0Z"/>
    </g>
    <g>
      <path d="M52.9,63.86l-.03-3.14c0-2.19.81-4.28,2.27-5.89l3.63-4.02c.7-.78,1.09-1.78,1.09-2.82,0-1.19-.98-2.17-2.19-2.17h-2.33c-1.21,0-2.19.97-2.19,2.17v1.77h-7.23v-1.77c0-5.17,4.23-9.37,9.42-9.37h2.33c5.2,0,9.42,4.2,9.42,9.37,0,2.82-1.04,5.53-2.94,7.64l-3.63,4.03c-.28.31-.42.66-.42,1.06l-.03,3.15h-7.16Z"/>
      <path d="M57.67,40.39c4.22,0,7.66,3.41,7.66,7.6,0,2.39-.88,4.68-2.49,6.45l-3.63,4.03c-.56.62-.87,1.4-.88,2.23v1.39h-3.68v-1.39c0-1.74.63-3.39,1.8-4.69l3.63-4.02c.99-1.1,1.54-2.52,1.54-4,0-2.17-1.78-3.93-3.96-3.93h-2.33c-2.18,0-3.96,1.76-3.96,3.93h-3.7c0-4.19,3.44-7.6,7.66-7.6h2.33M57.67,36.86h-2.33c-6.17,0-11.19,5-11.19,11.14v3.53h10.76v-3.53c0-.22.2-.4.43-.4h2.33c.23,0,.43.18.43.4,0,.6-.22,1.18-.63,1.63l-3.63,4.02c-1.75,1.93-2.72,4.43-2.73,7.04v1.43s.04,3.5.04,3.5h10.66l.04-3.5v-1.33s3.61-3.99,3.61-3.99c2.19-2.43,3.4-5.56,3.4-8.82,0-6.14-5.02-11.14-11.19-11.14h0Z"/>
    </g>
  </g>
</svg>