<?xml version="1.0" encoding="UTF-8"?>
<svg id="Layer_1" xmlns="http://www.w3.org/2000/svg" version="1.1" viewBox="0 0 51 51">
  <!-- Generator: Adobe Illustrator 30.1.0, SVG Export Plug-In . SVG Version: 2.1.1 Build 136)  -->
  <path d="M25.5,8.05c.57,0,1.13.29,1.43.88l3.65,7.25c.63,1.24,1.8,2.12,3.16,2.38l7.9,1.48c1.23.23,1.74,1.73.89,2.66l-5.75,6.32c-.89.97-1.3,2.29-1.13,3.6l1.12,8.51c.13,1.02-.68,1.82-1.59,1.82-.24,0-.49-.06-.73-.18l-6.91-3.56c-.64-.33-1.34-.49-2.04-.49s-1.4.16-2.04.49l-6.91,3.56c-.24.12-.49.18-.73.18-.91,0-1.72-.8-1.59-1.82l1.12-8.52c.17-1.31-.24-2.62-1.13-3.6l-5.76-6.32c-.85-.93-.35-2.43.89-2.66l7.9-1.48c1.37-.26,2.53-1.14,3.16-2.38l3.65-7.25c.3-.59.86-.88,1.43-.88M25.5,0C21.83,0,18.53,2.03,16.88,5.31l-2.85,5.66-6.15,1.15c-3.44.64-6.26,3.11-7.37,6.42-1.11,3.32-.34,6.99,2.02,9.57l4.63,5.09-.91,6.87c-.36,2.76.48,5.54,2.31,7.62,1.84,2.09,4.48,3.3,7.26,3.3,1.53,0,3.05-.37,4.42-1.07l5.26-2.71,5.26,2.71c1.36.7,2.89,1.07,4.42,1.07,2.78,0,5.42-1.2,7.26-3.3,1.83-2.09,2.67-4.87,2.31-7.62l-.91-6.87,4.64-5.09c2.36-2.59,3.13-6.25,2.02-9.57-1.11-3.32-3.94-5.78-7.37-6.42l-6.15-1.15-2.85-5.66C32.47,2.03,29.17,0,25.5,0h0Z"/>
</svg>