<?xml version="1.0" encoding="UTF-8"?>
<svg id="Layer_1" xmlns="http://www.w3.org/2000/svg" version="1.1" viewBox="0 0 51 51">
  <!-- Generator: Adobe Illustrator 30.1.0, SVG Export Plug-In . SVG Version: 2.1.1 Build 136)  -->
  <path d="M25.5,4.43c.69,0,1.37.36,1.73,1.07l4.41,8.75c.76,1.5,2.17,2.56,3.82,2.87l9.54,1.79c1.49.28,2.1,2.09,1.07,3.21l-6.95,7.62c-1.07,1.18-1.57,2.77-1.36,4.35l1.36,10.28c.16,1.23-.82,2.2-1.92,2.2-.29,0-.59-.07-.88-.22l-8.34-4.3c-.77-.4-1.62-.6-2.46-.6s-1.69.2-2.46.6l-8.34,4.3c-.29.15-.59.22-.88.22-1.1,0-2.08-.97-1.92-2.2l1.36-10.28c.21-1.58-.29-3.17-1.36-4.34l-6.95-7.62c-1.02-1.12-.42-2.94,1.07-3.22l9.54-1.79c1.65-.31,3.06-1.37,3.82-2.87l4.41-8.75c.36-.71,1.04-1.07,1.73-1.07M25.5,0C23.08,0,20.9,1.34,19.81,3.5l-4.41,8.75c-.13.27-.39.46-.67.51l-9.54,1.79c-2.27.42-4.13,2.05-4.86,4.24-.73,2.19-.22,4.61,1.33,6.32l6.95,7.62c.19.21.28.49.24.78l-1.36,10.28c-.24,1.82.31,3.65,1.52,5.03,1.21,1.38,2.96,2.18,4.79,2.18,1,0,2.01-.25,2.91-.71l8.34-4.3c.14-.07.28-.11.44-.11s.3.04.44.11l8.34,4.3c.9.46,1.91.71,2.91.71,1.83,0,3.58-.79,4.79-2.18,1.21-1.38,1.76-3.21,1.52-5.03l-1.36-10.28c-.04-.29.05-.57.24-.78l6.95-7.62c1.56-1.71,2.07-4.13,1.33-6.32-.73-2.19-2.6-3.81-4.86-4.24l-9.54-1.79c-.29-.05-.54-.25-.68-.51l-4.41-8.75C30.1,1.34,27.92,0,25.5,0h0Z"/>
</svg>