<?xml version="1.0" encoding="UTF-8"?>
<svg id="Layer_1" xmlns="http://www.w3.org/2000/svg" version="1.1" viewBox="0 0 51 51">
  <!-- Generator: Adobe Illustrator 30.1.0, SVG Export Plug-In . SVG Version: 2.1.1 Build 136)  -->
  <path d="M25.5,10.74c.48,0,.96.25,1.21.75l3.09,6.13c.53,1.05,1.52,1.8,2.67,2.01l6.68,1.25c1.04.2,1.47,1.47.75,2.25l-4.87,5.34c-.75.82-1.1,1.94-.95,3.04l.95,7.2c.11.86-.57,1.54-1.34,1.54-.2,0-.42-.05-.62-.15l-5.84-3.01c-.54-.28-1.13-.42-1.73-.42s-1.18.14-1.73.42l-5.84,3.01c-.2.1-.41.15-.62.15-.77,0-1.46-.68-1.34-1.54l.95-7.2c.15-1.1-.2-2.22-.95-3.04l-4.87-5.34c-.72-.79-.29-2.06.75-2.25l6.68-1.25c1.15-.22,2.14-.96,2.67-2.01l3.09-6.13c.25-.5.73-.75,1.21-.75M25.5,0C20.9,0,16.76,2.55,14.7,6.66l-1.54,3.05-3.29.62c-4.31.81-7.85,3.89-9.24,8.05-1.39,4.16-.42,8.76,2.53,12l2.69,2.95-.53,4c-.46,3.46.6,6.94,2.89,9.56,2.3,2.62,5.62,4.13,9.1,4.13,1.91,0,3.83-.47,5.54-1.34l2.65-1.36,2.65,1.36c1.71.88,3.62,1.34,5.54,1.34,3.48,0,6.8-1.5,9.1-4.13,2.29-2.62,3.35-6.1,2.89-9.56l-.53-4,2.69-2.95c2.95-3.24,3.92-7.84,2.53-12-1.39-4.16-4.93-7.24-9.24-8.05l-3.29-.62-1.54-3.05C34.24,2.55,30.1,0,25.5,0h0Z"/>
</svg>