<?xml version="1.0" encoding="UTF-8"?>
<svg id="Layer_1" xmlns="http://www.w3.org/2000/svg" version="1.1" viewBox="0 0 51 51">
  <!-- Generator: Adobe Illustrator 30.1.0, SVG Export Plug-In . SVG Version: 2.1.1 Build 136)  -->
  <path d="M25.5,9.85c.51,0,1.02.26,1.28.79l3.27,6.5c.56,1.12,1.61,1.9,2.84,2.13l7.08,1.33c1.11.21,1.56,1.55.8,2.39l-5.16,5.66c-.8.87-1.17,2.06-1.01,3.23l1.01,7.64c.12.91-.61,1.63-1.42,1.63-.22,0-.44-.05-.66-.16l-6.2-3.19c-.57-.3-1.2-.44-1.83-.44s-1.26.15-1.83.44l-6.2,3.19c-.22.11-.44.16-.66.16-.82,0-1.55-.72-1.42-1.63l1.01-7.64c.15-1.17-.22-2.35-1.01-3.22l-5.16-5.66c-.76-.83-.31-2.18.8-2.39l7.08-1.33c1.22-.23,2.27-1.02,2.83-2.13l3.27-6.5c.27-.53.77-.79,1.28-.79M25.5,0c-4.29,0-8.15,2.38-10.08,6.21l-1.97,3.92-4.24.79c-4.02.75-7.32,3.63-8.62,7.51-1.3,3.88-.4,8.17,2.36,11.19l3.33,3.66-.65,4.95c-.43,3.23.56,6.48,2.7,8.92,2.15,2.45,5.24,3.85,8.49,3.85,1.79,0,3.57-.43,5.17-1.26l3.52-1.81,3.52,1.81c1.59.82,3.38,1.26,5.17,1.26,3.25,0,6.34-1.4,8.49-3.85,2.14-2.44,3.12-5.69,2.7-8.92l-.65-4.95,3.33-3.66c2.76-3.02,3.66-7.31,2.36-11.19-1.3-3.88-4.6-6.76-8.62-7.51l-4.24-.79-1.97-3.92c-1.93-3.83-5.79-6.21-10.08-6.21h0Z"/>
</svg>