<?xml version="1.0" encoding="UTF-8"?>
<svg id="Layer_1" xmlns="http://www.w3.org/2000/svg" version="1.1" viewBox="0 0 38 38">
  <!-- Generator: Adobe Illustrator 30.1.0, SVG Export Plug-In . SVG Version: 2.1.1 Build 136)  -->
  <g>
    <g>
      <rect x="17.67" y="9.62" width="2.66" height="2.66"/>
      <path d="M20.15,9.8v2.3h-2.3v-2.3h2.3M20.51,9.44h-3.01v3.01h3.01v-3.01h0Z"/>
    </g>
    <g>
      <polygon points="15.37 28.38 15.37 25.72 17.67 25.72 17.67 18.9 15.37 18.9 15.37 16.24 20.33 16.24 20.33 25.72 22.63 25.72 22.63 28.38 15.37 28.38"/>
      <path d="M20.15,16.42v9.48h2.3v2.3h-6.9v-2.3h2.3v-7.18h-2.3v-2.3h4.6M20.51,16.06h-5.31v3.01h2.3v6.47h-2.3v3.01h7.61v-3.01h-2.3v-9.48h0Z"/>
    </g>
  </g>
  <circle id="Outer" cx="19" cy="19" r="17.68" fill="none" stroke="#000" stroke-width="2.64"/>
</svg>