<?xml version="1.0" encoding="UTF-8"?>
<svg id="Layer_1" xmlns="http://www.w3.org/2000/svg" version="1.1" viewBox="0 0 38 38">
  <!-- Generator: Adobe Illustrator 30.1.0, SVG Export Plug-In . SVG Version: 2.1.1 Build 136)  -->
  <g>
    <g>
      <rect x="17.58" y="11.55" width="2.83" height="2.83"/>
      <path d="M19.76,12.2v1.52h-1.52v-1.52h1.52M21.07,10.9h-4.14v4.14h4.14v-4.14h0Z"/>
    </g>
    <g>
      <polygon points="16.06 26.04 16.06 23.21 17.58 23.21 17.58 19.76 16.06 19.76 16.06 16.93 20.42 16.93 20.42 23.21 21.94 23.21 21.94 26.04 16.06 26.04"/>
      <path d="M19.76,17.58v6.28h1.52v1.52h-4.57v-1.52h1.52v-4.76h-1.52v-1.52h3.05M21.07,16.27h-5.66v4.14h1.52v2.14h-1.52v4.14h7.18v-4.14h-1.52v-6.28h0Z"/>
    </g>
  </g>
  <circle id="Outer" cx="19" cy="19" r="15" fill="none" stroke="#000" stroke-width="8"/>
</svg>