<?xml version="1.0" encoding="UTF-8"?>
<svg id="Layer_1" xmlns="http://www.w3.org/2000/svg" version="1.1" viewBox="0 0 38 38">
  <!-- Generator: Adobe Illustrator 30.1.0, SVG Export Plug-In . SVG Version: 2.1.1 Build 136)  -->
  <g>
    <g>
      <rect x="17.66" y="9.86" width="2.68" height="2.68"/>
      <path d="M20.1,10.1v2.2h-2.2v-2.2h2.2M20.58,9.62h-3.15v3.15h3.15v-3.15h0Z"/>
    </g>
    <g>
      <polygon points="15.46 28.08 15.46 25.41 17.66 25.41 17.66 19.01 15.46 19.01 15.46 16.33 20.34 16.33 20.34 25.41 22.54 25.41 22.54 28.08 15.46 28.08"/>
      <path d="M20.1,16.57v9.07h2.2v2.2h-6.6v-2.2h2.2v-6.87h-2.2v-2.2h4.4M20.58,16.1h-5.35v3.15h2.2v5.92h-2.2v3.15h7.55v-3.15h-2.2v-9.07h0Z"/>
    </g>
  </g>
  <circle id="Outer" cx="19" cy="19" r="17.35" fill="none" stroke="#000" stroke-width="3.3"/>
</svg>