<?xml version="1.0" encoding="UTF-8"?>
<svg id="Layer_1" xmlns="http://www.w3.org/2000/svg" version="1.1" viewBox="0 0 33 33">
  <!-- Generator: Adobe Illustrator 30.1.0, SVG Export Plug-In . SVG Version: 2.1.1 Build 136)  -->
  <g>
    <g>
      <rect x="15.32" y="8.98" width="2.36" height="2.36"/>
      <path d="M17.37,9.29v1.74h-1.74v-1.74h1.74M17.99,8.67h-2.98v2.98h2.98v-2.98h0Z"/>
    </g>
    <g>
      <polygon points="13.58 23.87 13.58 21.51 15.32 21.51 15.32 16.7 13.58 16.7 13.58 14.34 17.68 14.34 17.68 21.51 19.42 21.51 19.42 23.87 13.58 23.87"/>
      <path d="M17.37,14.65v7.17h1.74v1.74h-5.22v-1.74h1.74v-5.43h-1.74v-1.74h3.48M17.99,14.03h-4.72v2.98h1.74v4.19h-1.74v2.98h6.46v-2.98h-1.74v-7.17h0Z"/>
    </g>
  </g>
  <circle id="Outer" cx="16.5" cy="16.5" r="14.48" fill="none" stroke="#000" stroke-width="4.03"/>
</svg>