<?xml version="1.0" encoding="UTF-8"?>
<svg id="Layer_1" xmlns="http://www.w3.org/2000/svg" version="1.1" viewBox="0 0 33 33">
  <!-- Generator: Adobe Illustrator 30.1.0, SVG Export Plug-In . SVG Version: 2.1.1 Build 136)  -->
  <g>
    <g>
      <rect x="15.34" y="8.56" width="2.32" height="2.32"/>
      <path d="M17.46,8.77v1.91h-1.91v-1.91h1.91M17.87,8.36h-2.74v2.74h2.74v-2.74h0Z"/>
    </g>
    <g>
      <polygon points="13.43 24.39 13.43 22.06 15.34 22.06 15.34 16.51 13.43 16.51 13.43 14.18 17.66 14.18 17.66 22.06 19.57 22.06 19.57 24.39 13.43 24.39"/>
      <path d="M17.46,14.39v7.88h1.91v1.91h-5.73v-1.91h1.91v-5.97h-1.91v-1.91h3.82M17.87,13.98h-4.65v2.74h1.91v5.14h-1.91v2.74h6.56v-2.74h-1.91v-7.88h0Z"/>
    </g>
  </g>
  <circle id="Outer" cx="16.5" cy="16.5" r="15.07" fill="none" stroke="#000" stroke-width="2.87"/>
</svg>