<?xml version="1.0" encoding="UTF-8"?>
<svg id="Layer_1" xmlns="http://www.w3.org/2000/svg" version="1.1" viewBox="0 0 67 67">
  <!-- Generator: Adobe Illustrator 30.1.0, SVG Export Plug-In . SVG Version: 2.1.1 Build 136)  -->
  <circle id="Outer" cx="33.5" cy="33.5" r="29.41" fill="none" stroke="#000" stroke-width="8.19"/>
  <g>
    <g>
      <rect x="31.38" y="43.67" width="4.2" height="4.2"/>
      <path d="M34.95,44.3v2.94h-2.94v-2.94h2.94M36.21,43.04h-5.46v5.46h5.46v-5.46h0Z"/>
    </g>
    <g>
      <path d="M31.39,39.19l-.02-1.74c0-1.56.58-3.04,1.62-4.19l2.92-3.23c.69-.77,1.08-1.76,1.08-2.79,0-1.39-1.14-2.53-2.55-2.53h-1.87c-1.41,0-2.55,1.13-2.55,2.53v.63h-4.23v-.63c0-3.71,3.04-6.73,6.78-6.73h1.87c3.74,0,6.78,3.02,6.78,6.73,0,2.07-.77,4.06-2.16,5.6l-2.92,3.23c-.35.39-.54.87-.54,1.38l-.02,1.74h-4.19Z"/>
      <path d="M34.44,21.14c3.39,0,6.15,2.74,6.15,6.11,0,1.92-.71,3.76-2,5.18l-2.92,3.23c-.45.5-.7,1.12-.7,1.79v1.11h-2.96v-1.11c0-1.4.51-2.73,1.45-3.76l2.92-3.23c.8-.88,1.24-2.03,1.24-3.21,0-1.74-1.43-3.16-3.18-3.16h-1.87c-1.75,0-3.18,1.42-3.18,3.16h-2.97c0-3.37,2.76-6.11,6.15-6.11h1.87M34.44,19.88h-1.87c-4.08,0-7.41,3.3-7.41,7.36v1.26h5.48v-1.26c0-1.05.86-1.9,1.92-1.9h1.87c1.06,0,1.92.85,1.92,1.9,0,.88-.32,1.72-.91,2.37l-2.92,3.23c-1.14,1.26-1.78,2.9-1.78,4.6v1.13s.02,1.25.02,1.25h5.43v-1.24s.02-1.11.02-1.11c0-.36.13-.69.38-.96l2.92-3.23c1.5-1.66,2.32-3.8,2.32-6.02,0-4.06-3.32-7.36-7.41-7.36h0Z"/>
    </g>
  </g>
</svg>