<?xml version="1.0" encoding="UTF-8"?>
<svg id="Layer_1" xmlns="http://www.w3.org/2000/svg" version="1.1" viewBox="0 0 67 67">
  <!-- Generator: Adobe Illustrator 30.1.0, SVG Export Plug-In . SVG Version: 2.1.1 Build 136)  -->
  <circle id="Outer" cx="33.5" cy="33.5" r="31.18" fill="none" stroke="#000" stroke-width="4.65"/>
  <g>
    <g>
      <rect x="31.38" y="45" width="4.2" height="4.2"/>
      <path d="M35.26,45.32v3.57h-3.57v-3.57h3.57M35.89,44.69h-4.82v4.82h4.82v-4.82h0Z"/>
    </g>
    <g>
      <path d="M31.39,40.32v-1.66c0-1.77.65-3.46,1.83-4.77l3.53-3.91c.92-1.01,1.42-2.32,1.42-3.68,0-1.93-1.59-3.51-3.54-3.51h-2.27c-1.95,0-3.54,1.57-3.54,3.51v.31h-4.23v-.31c0-4.25,3.48-7.71,7.76-7.71h2.27c4.28,0,7.76,3.46,7.76,7.71,0,2.4-.89,4.7-2.5,6.49l-3.53,3.91c-.5.56-.77,1.24-.77,1.96l-.02,1.66h-4.19Z"/>
      <path d="M34.63,18.9c4.11,0,7.45,3.32,7.45,7.4,0,2.32-.86,4.55-2.42,6.28l-3.53,3.92c-.55.61-.85,1.36-.85,2.17v1.35h-3.58v-1.35c0-1.69.62-3.3,1.75-4.56l3.53-3.91c.97-1.07,1.5-2.45,1.5-3.89,0-2.11-1.73-3.82-3.85-3.82h-2.27c-2.12,0-3.85,1.72-3.85,3.82h-3.6c0-4.08,3.34-7.4,7.45-7.4h2.27M34.63,18.27h-2.27c-4.45,0-8.08,3.6-8.08,8.02v.63h4.85v-.63c0-1.76,1.45-3.19,3.22-3.19h2.27c1.78,0,3.22,1.43,3.22,3.19,0,1.28-.48,2.51-1.34,3.47l-3.53,3.91c-1.24,1.37-1.92,3.14-1.93,4.98v1.36s.02.62.02.62h4.81v-.62s.02-1.35.02-1.35c0-.65.24-1.26.69-1.76l3.53-3.92c1.66-1.84,2.58-4.22,2.58-6.7,0-4.42-3.62-8.02-8.08-8.02h0Z"/>
    </g>
  </g>
</svg>