<?xml version="1.0" encoding="UTF-8"?>
<svg id="Layer_1" xmlns="http://www.w3.org/2000/svg" version="1.1" viewBox="0 0 67 67">
  <!-- Generator: Adobe Illustrator 30.1.0, SVG Export Plug-In . SVG Version: 2.1.1 Build 136)  -->
  <circle id="Outer" cx="33.5" cy="33.5" r="27.03" fill="none" stroke="#000" stroke-width="12.94"/>
  <g>
    <g>
      <rect x="31.35" y="41.85" width="4.27" height="4.27"/>
      <path d="M34.57,42.9v2.17h-2.17v-2.17h2.17M36.66,40.8h-6.36v6.36h6.36v-6.36h0Z"/>
    </g>
    <g>
      <path d="M31.36,37.86l-.02-1.86c0-1.3.48-2.54,1.35-3.49l2.15-2.39c.42-.46.65-1.05.65-1.67,0-.71-.58-1.28-1.3-1.28h-1.38c-.72,0-1.3.58-1.3,1.28v1.05h-4.29v-1.05c0-3.06,2.51-5.56,5.59-5.56h1.38c3.08,0,5.59,2.49,5.59,5.56,0,1.67-.62,3.28-1.74,4.53l-2.15,2.39c-.17.18-.25.39-.25.62l-.02,1.87h-4.25Z"/>
      <path d="M34.19,23.95c2.5,0,4.54,2.02,4.54,4.51,0,1.41-.52,2.77-1.47,3.83l-2.15,2.39c-.33.37-.52.83-.52,1.32v.82h-2.18v-.82c0-1.03.38-2.01,1.07-2.78l2.15-2.39c.59-.65.91-1.5.91-2.37,0-1.28-1.05-2.33-2.35-2.33h-1.38c-1.29,0-2.35,1.05-2.35,2.33h-2.19c0-2.49,2.04-4.51,4.54-4.51h1.38M34.19,21.85h-1.38c-3.66,0-6.63,2.96-6.63,6.6v2.09h6.38v-2.09c0-.13.12-.24.25-.24h1.38c.14,0,.25.11.25.24,0,.36-.13.7-.37.97l-2.15,2.39c-1.04,1.15-1.61,2.63-1.62,4.17v.85s.03,2.08.03,2.08h6.32l.02-2.07v-.79s2.14-2.37,2.14-2.37c1.3-1.44,2.01-3.3,2.01-5.23,0-3.64-2.98-6.6-6.63-6.6h0Z"/>
    </g>
  </g>
</svg>