<?xml version="1.0" encoding="UTF-8"?>
<svg id="Layer_1" xmlns="http://www.w3.org/2000/svg" version="1.1" viewBox="0 0 67 67">
  <!-- Generator: Adobe Illustrator 30.1.0, SVG Export Plug-In . SVG Version: 2.1.1 Build 136)  -->
  <circle id="Outer" cx="33.5" cy="33.5" r="30.59" fill="none" stroke="#000" stroke-width="5.82"/>
  <g>
    <g>
      <rect x="31.38" y="44.56" width="4.19" height="4.19"/>
      <path d="M35.16,44.98v3.36h-3.36v-3.36h3.36M36,44.14h-5.03v5.03h5.03v-5.03h0Z"/>
    </g>
    <g>
      <path d="M31.39,39.94l-.02-1.68c0-1.7.64-3.32,1.77-4.57l3.32-3.68c.84-.93,1.3-2.13,1.3-3.38,0-1.75-1.44-3.18-3.2-3.18h-2.14c-1.77,0-3.2,1.43-3.2,3.18v.42h-4.22v-.42c0-4.07,3.33-7.38,7.43-7.38h2.14c4.1,0,7.43,3.31,7.43,7.38,0,2.29-.85,4.48-2.38,6.19l-3.33,3.68c-.45.5-.69,1.11-.69,1.77l-.02,1.69h-4.19Z"/>
      <path d="M34.57,19.65c3.86,0,7.01,3.12,7.01,6.96,0,2.18-.81,4.28-2.28,5.91l-3.32,3.68c-.52.57-.8,1.28-.8,2.04v1.27h-3.37v-1.27c0-1.59.58-3.11,1.65-4.29l3.32-3.68c.91-1.01,1.41-2.31,1.41-3.66,0-1.98-1.63-3.6-3.62-3.6h-2.14c-2,0-3.62,1.61-3.62,3.6h-3.39c0-3.84,3.14-6.96,7.01-6.96h2.14M34.57,18.82h-2.14c-4.33,0-7.85,3.5-7.85,7.8v.84h5.06v-.84c0-1.52,1.25-2.76,2.79-2.76h2.14c1.54,0,2.79,1.24,2.79,2.76,0,1.15-.42,2.25-1.2,3.1l-3.32,3.68c-1.2,1.33-1.87,3.05-1.88,4.85v1.28s.02.83.02.83h5.02v-.83s.02-1.27.02-1.27c0-.56.2-1.07.59-1.49l3.33-3.68c1.61-1.78,2.49-4.08,2.49-6.47,0-4.3-3.52-7.8-7.85-7.8h0Z"/>
    </g>
  </g>
</svg>