<?xml version="1.0" encoding="UTF-8"?>
<svg id="Layer_1" xmlns="http://www.w3.org/2000/svg" version="1.1" viewBox="0 0 67 67">
  <!-- Generator: Adobe Illustrator 30.1.0, SVG Export Plug-In . SVG Version: 2.1.1 Build 136)  -->
  <circle id="Outer" cx="33.5" cy="33.5" r="26.44" fill="none" stroke="#000" stroke-width="14.11"/>
  <g>
    <g>
      <rect x="31.33" y="41.39" width="4.3" height="4.3"/>
      <path d="M34.48,42.55v2h-2v-2h2M36.79,40.24h-6.6v6.6h6.6v-6.6h0Z"/>
    </g>
    <g>
      <path d="M31.35,37.57l-.02-1.9c0-1.24.46-2.42,1.29-3.34l1.98-2.19c.35-.39.54-.89.54-1.41,0-.55-.45-.99-1-.99h-1.27c-.55,0-1,.44-1,.99v1.15h-4.32v-1.15c0-2.92,2.39-5.29,5.32-5.29h1.27c2.93,0,5.32,2.37,5.32,5.29,0,1.58-.59,3.11-1.65,4.29l-1.98,2.19c-.12.13-.18.28-.18.45l-.02,1.9h-4.28Z"/>
      <path d="M34.14,24.6c2.3,0,4.17,1.86,4.17,4.14,0,1.3-.48,2.55-1.35,3.51l-1.98,2.19c-.31.34-.48.76-.48,1.22v.76h-2.01v-.76c0-.95.35-1.85.98-2.55l1.98-2.19c.54-.6.84-1.37.84-2.18,0-1.18-.97-2.14-2.16-2.14h-1.27c-1.19,0-2.16.96-2.16,2.14h-2.02c0-2.28,1.87-4.14,4.17-4.14h1.27M34.14,22.3h-1.27c-3.57,0-6.47,2.89-6.47,6.45v2.3h5.85l-.47.52c-1.01,1.12-1.58,2.57-1.58,4.09v.78s.03,2.28.03,2.28h6.56l.02-2.28v-.58s1.87-2.07,1.87-2.07c1.26-1.39,1.95-3.19,1.95-5.06,0-3.55-2.9-6.45-6.47-6.45h0ZM33.01,28.91h.96c-.03.17-.11.34-.23.47l-.73.81v-1.28h0Z"/>
    </g>
  </g>
</svg>