<?xml version="1.0" encoding="UTF-8"?>
<svg id="Layer_1" xmlns="http://www.w3.org/2000/svg" version="1.1" viewBox="0 0 67 67">
  <!-- Generator: Adobe Illustrator 30.1.0, SVG Export Plug-In . SVG Version: 2.1.1 Build 136)  -->
  <circle id="Outer" cx="33.5" cy="33.5" r="28.21" fill="none" stroke="#000" stroke-width="10.57"/>
  <g>
    <g>
      <rect x="31.37" y="42.76" width="4.22" height="4.22"/>
      <path d="M34.76,43.6v2.55h-2.55v-2.55h2.55M36.43,41.92h-5.9v5.9h5.9v-5.9h0Z"/>
    </g>
    <g>
      <path d="M31.38,38.49l-.02-1.79c0-1.42.53-2.78,1.48-3.83l2.52-2.79c.55-.61.86-1.4.86-2.22,0-1.04-.86-1.89-1.91-1.89h-1.62c-1.05,0-1.91.85-1.91,1.89v.84h-4.25v-.84c0-3.37,2.76-6.12,6.16-6.12h1.62c3.4,0,6.16,2.75,6.16,6.12,0,1.86-.69,3.66-1.94,5.04l-2.52,2.8c-.26.28-.39.63-.39.99l-.02,1.8h-4.21Z"/>
      <path d="M34.31,22.58c2.93,0,5.32,2.37,5.32,5.28,0,1.66-.61,3.25-1.73,4.48l-2.52,2.8c-.39.43-.61.97-.61,1.55v.96h-2.56v-.96c0-1.21.44-2.36,1.25-3.26l2.52-2.8c.69-.77,1.07-1.75,1.07-2.78,0-1.51-1.23-2.73-2.75-2.73h-1.62c-1.52,0-2.75,1.23-2.75,2.73h-2.57c0-2.91,2.39-5.28,5.32-5.28h1.62M34.31,20.9h-1.62c-3.86,0-7,3.12-7,6.96v1.68h5.92v-1.68c0-.58.48-1.06,1.07-1.06h1.62c.59,0,1.07.47,1.07,1.06,0,.61-.23,1.2-.64,1.66l-2.52,2.8c-1.09,1.2-1.69,2.75-1.69,4.37v.98s.02,1.66.02,1.66h5.87l.02-1.66v-.96c.01-.17.07-.31.19-.45l2.52-2.8c1.39-1.54,2.16-3.53,2.16-5.6,0-3.84-3.14-6.96-7-6.96h0Z"/>
    </g>
  </g>
</svg>