<?xml version="1.0" encoding="UTF-8"?>
<svg id="Layer_1" xmlns="http://www.w3.org/2000/svg" version="1.1" viewBox="0 0 99 99">
  <!-- Generator: Adobe Illustrator 30.1.0, SVG Export Plug-In . SVG Version: 2.1.1 Build 136)  -->
  <path d="M49.5,6.87c1.39,0,2.77.72,3.5,2.16l8.92,17.7c1.53,3.04,4.39,5.19,7.72,5.81l19.3,3.62c3.02.57,4.24,4.23,2.17,6.5l-14.06,15.43c-2.17,2.38-3.18,5.6-2.76,8.8l2.74,20.8c.33,2.48-1.65,4.45-3.88,4.45-.59,0-1.2-.14-1.79-.44l-16.88-8.69c-1.56-.81-3.28-1.21-4.99-1.21-1.71,0-3.42.4-4.99,1.21l-16.88,8.69c-.59.3-1.2.44-1.79.44-2.23,0-4.21-1.97-3.88-4.45l2.74-20.81c.42-3.19-.59-6.41-2.75-8.78l-14.06-15.43c-2.07-2.27-.85-5.94,2.17-6.51l19.29-3.62c3.34-.63,6.19-2.77,7.72-5.81l8.92-17.71c.72-1.44,2.11-2.16,3.5-2.16M49.5,0C45.4,0,41.71,2.27,39.87,5.93l-8.92,17.71c-.56,1.12-1.63,1.92-2.85,2.15l-19.29,3.62c-3.84.72-7,3.47-8.24,7.18-1.24,3.71-.38,7.81,2.26,10.71l14.06,15.43c.81.88,1.18,2.07,1.02,3.26l-2.74,20.81c-.41,3.09.53,6.19,2.57,8.52,2.06,2.35,5.02,3.69,8.12,3.69,1.7,0,3.41-.42,4.93-1.2l16.88-8.69c.57-.29,1.2-.45,1.84-.45.64,0,1.27.15,1.84.45l16.88,8.69c1.53.79,3.24,1.2,4.93,1.2,3.1,0,6.06-1.35,8.12-3.69,2.04-2.33,2.98-5.43,2.57-8.52l-2.74-20.8c-.16-1.19.22-2.38,1.02-3.27l14.06-15.43c2.64-2.89,3.5-6.99,2.26-10.7-1.24-3.71-4.4-6.46-8.24-7.18l-19.3-3.62c-1.22-.23-2.29-1.03-2.86-2.15l-8.92-17.7C57.28,2.27,53.59,0,49.5,0h0Z"/>
</svg>