<?xml version="1.0" encoding="UTF-8"?>
<svg id="Layer_1" xmlns="http://www.w3.org/2000/svg" version="1.1" viewBox="0 0 99 99">
  <!-- Generator: Adobe Illustrator 30.1.0, SVG Export Plug-In . SVG Version: 2.1.1 Build 136)  -->
  <path d="M49.5,20.85c.93,0,1.86.48,2.35,1.45l5.99,11.9c1.03,2.04,2.95,3.49,5.19,3.91l12.97,2.43c2.03.38,2.85,2.84,1.46,4.37l-9.45,10.37c-1.46,1.6-2.14,3.76-1.85,5.91l1.84,13.98c.22,1.67-1.11,2.99-2.61,2.99-.4,0-.81-.09-1.2-.3l-11.34-5.84c-1.05-.54-2.2-.81-3.35-.81s-2.3.27-3.35.81l-11.34,5.84c-.4.2-.81.3-1.2.3-1.5,0-2.83-1.32-2.61-2.99l1.84-13.98c.28-2.14-.39-4.31-1.85-5.9l-9.45-10.37c-1.39-1.53-.57-3.99,1.46-4.37l12.96-2.43c2.24-.42,4.16-1.86,5.19-3.9l5.99-11.9c.49-.97,1.42-1.45,2.35-1.45M49.5,0C40.58,0,32.54,4.95,28.53,12.92l-2.98,5.92-6.38,1.2c-8.36,1.57-15.24,7.56-17.94,15.63-2.7,8.07-.82,17,4.91,23.29l5.22,5.72-1.02,7.76c-.88,6.71,1.16,13.47,5.62,18.55,4.47,5.09,10.9,8.01,17.66,8.01,0,0,0,0,0,0,3.72,0,7.43-.9,10.75-2.61l5.14-2.65,5.14,2.65c3.32,1.71,7.03,2.61,10.75,2.61,6.76,0,13.2-2.92,17.66-8.01,4.45-5.08,6.5-11.84,5.62-18.55l-1.02-7.76,5.22-5.73c5.73-6.29,7.62-15.21,4.91-23.29-2.7-8.07-9.58-14.06-17.94-15.62l-6.39-1.2-2.98-5.92C66.46,4.95,58.42,0,49.5,0h0Z"/>
</svg>