<?xml version="1.0" encoding="UTF-8"?>
<svg id="Layer_1" xmlns="http://www.w3.org/2000/svg" version="1.1" viewBox="0 0 87 87">
  <!-- Generator: Adobe Illustrator 30.1.0, SVG Export Plug-In . SVG Version: 2.1.1 Build 136)  -->
  <g>
    <g>
      <rect x="40.26" y="26.45" width="6.48" height="6.48"/>
      <path d="M45.24,27.94v3.49h-3.49v-3.49h3.49M48.23,24.95h-9.47v9.47h9.47v-9.47h0Z"/>
    </g>
    <g>
      <polygon points="36.77 59.61 36.77 53.13 40.26 53.13 40.26 45.23 36.77 45.23 36.77 38.75 46.74 38.75 46.74 53.13 50.23 53.13 50.23 59.61 36.77 59.61"/>
      <path d="M45.24,40.25v14.38h3.49v3.49h-10.46v-3.49h3.49v-10.89h-3.49v-3.49h6.98M48.23,37.26h-12.96v9.47h3.49v4.91h-3.49v9.47h16.45v-9.47h-3.49v-14.38h0Z"/>
    </g>
  </g>
  <circle id="Outer" cx="43.5" cy="43.5" r="34.34" fill="none" stroke="#000" stroke-width="18.32"/>
</svg>