<?xml version="1.0" encoding="UTF-8"?>
<svg id="Layer_1" xmlns="http://www.w3.org/2000/svg" version="1.1" viewBox="0 0 87 87">
  <!-- Generator: Adobe Illustrator 30.1.0, SVG Export Plug-In . SVG Version: 2.1.1 Build 136)  -->
  <g>
    <g>
      <rect x="40.39" y="23.69" width="6.22" height="6.22"/>
      <path d="M45.79,24.5v4.59h-4.59v-4.59h4.59M47.42,22.87h-7.85v7.85h7.85v-7.85h0Z"/>
    </g>
    <g>
      <polygon points="35.81 62.93 35.81 56.71 40.39 56.71 40.39 44.03 35.81 44.03 35.81 37.81 46.61 37.81 46.61 56.71 51.2 56.71 51.2 62.93 35.81 62.93"/>
      <path d="M45.79,38.62v18.9h4.59v4.59h-13.76v-4.59h4.59v-14.32h-4.59v-4.59h9.17M47.42,36.99h-12.44v7.85h4.59v11.06h-4.59v7.85h17.02v-7.85h-4.59v-18.9h0Z"/>
    </g>
  </g>
  <circle id="Outer" cx="43.5" cy="43.5" r="38.18" fill="none" stroke="#000" stroke-width="10.63"/>
</svg>