<?xml version="1.0" encoding="UTF-8"?>
<svg id="Layer_1" xmlns="http://www.w3.org/2000/svg" version="1.1" viewBox="0 0 87 87">
  <!-- Generator: Adobe Illustrator 30.1.0, SVG Export Plug-In . SVG Version: 2.1.1 Build 136)  -->
  <g>
    <g>
      <rect x="40.29" y="25.9" width="6.42" height="6.42"/>
      <path d="M45.35,27.26v3.7h-3.7v-3.7h3.7M48.07,24.54h-9.14v9.14h9.14v-9.14h0Z"/>
    </g>
    <g>
      <polygon points="36.59 60.25 36.59 53.83 40.29 53.83 40.29 45 36.59 45 36.59 38.58 46.71 38.58 46.71 53.83 50.41 53.83 50.41 60.25 36.59 60.25"/>
      <path d="M45.35,39.94v15.25h3.7v3.7h-11.1v-3.7h3.7v-11.55h-3.7v-3.7h7.4M48.07,37.22h-12.84v9.14h3.7v6.12h-3.7v9.14h16.54v-9.14h-3.7v-15.25h0Z"/>
    </g>
  </g>
  <circle id="Outer" cx="43.5" cy="43.5" r="35.1" fill="none" stroke="#000" stroke-width="16.8"/>
</svg>