<?xml version="1.0" encoding="UTF-8"?>
<svg id="Layer_1" xmlns="http://www.w3.org/2000/svg" version="1.1" viewBox="0 0 87 87">
  <!-- Generator: Adobe Illustrator 30.1.0, SVG Export Plug-In . SVG Version: 2.1.1 Build 136)  -->
  <g>
    <g>
      <rect x="40.44" y="22.58" width="6.13" height="6.13"/>
      <path d="M46.02,23.12v5.04h-5.04v-5.04h5.04M47.11,22.03h-7.21v7.21h7.21v-7.21h0Z"/>
    </g>
    <g>
      <polygon points="35.4 64.29 35.4 58.17 40.44 58.17 40.44 43.52 35.4 43.52 35.4 37.39 46.56 37.39 46.56 58.17 51.6 58.17 51.6 64.29 35.4 64.29"/>
      <path d="M46.02,37.94v20.77h5.04v5.04h-15.12v-5.04h5.04v-15.73h-5.04v-5.04h10.08M47.11,36.85h-12.25v7.21h5.04v13.56h-5.04v7.21h17.29v-7.21h-5.04v-20.77h0Z"/>
    </g>
  </g>
  <circle id="Outer" cx="43.5" cy="43.5" r="39.72" fill="none" stroke="#000" stroke-width="7.56"/>
</svg>