<?xml version="1.0" encoding="UTF-8"?>
<svg id="Layer_1" xmlns="http://www.w3.org/2000/svg" version="1.1" viewBox="0 0 31 31">
  <!-- Generator: Adobe Illustrator 30.1.0, SVG Export Plug-In . SVG Version: 2.1.1 Build 136)  -->
  <path d="M15.5,2.69c.42,0,.83.22,1.05.65l2.68,5.32c.46.91,1.32,1.56,2.32,1.75l5.8,1.09c.91.17,1.27,1.27.65,1.95l-4.22,4.63c-.65.72-.95,1.68-.83,2.64l.82,6.25c.1.75-.5,1.34-1.17,1.34-.18,0-.36-.04-.54-.13l-5.07-2.61c-.47-.24-.98-.36-1.5-.36-.51,0-1.03.12-1.5.36l-5.07,2.61c-.18.09-.36.13-.54.13-.67,0-1.26-.59-1.17-1.34l.82-6.25c.13-.96-.18-1.92-.83-2.64l-4.22-4.63c-.62-.68-.25-1.79.65-1.95l5.8-1.09c1-.19,1.86-.83,2.32-1.75l2.68-5.32c.22-.43.63-.65,1.05-.65M15.5,0c-1.47,0-2.79.82-3.46,2.13l-2.68,5.32c-.08.16-.23.28-.41.31l-5.8,1.09c-1.38.26-2.51,1.25-2.96,2.58-.45,1.33-.14,2.8.81,3.84l4.22,4.63c.12.13.17.3.15.47l-.82,6.25c-.15,1.11.19,2.22.92,3.06.74.84,1.8,1.32,2.91,1.32.61,0,1.22-.15,1.77-.43l5.07-2.61c.08-.04.17-.06.26-.06.09,0,.18.02.26.06l5.07,2.61c.55.28,1.16.43,1.77.43,1.11,0,2.17-.48,2.91-1.32.73-.84,1.07-1.95.92-3.06l-.82-6.25c-.02-.17.03-.35.15-.48l4.22-4.63c.95-1.04,1.26-2.51.81-3.84-.45-1.33-1.58-2.32-2.96-2.58l-5.8-1.09c-.18-.03-.33-.15-.41-.31l-2.68-5.32c-.66-1.31-1.99-2.13-3.46-2.13h0Z"/>
</svg>