<?xml version="1.0" encoding="UTF-8"?>
<svg id="Layer_1" xmlns="http://www.w3.org/2000/svg" version="1.1" viewBox="0 0 31 31">
  <!-- Generator: Adobe Illustrator 30.1.0, SVG Export Plug-In . SVG Version: 2.1.1 Build 136)  -->
  <path d="M15.5,5.99c.31,0,.62.16.78.48l1.99,3.95c.34.68.98,1.16,1.72,1.3l4.31.81c.67.13.95.94.48,1.45l-3.14,3.44c-.48.53-.71,1.25-.62,1.96l.61,4.64c.07.55-.37.99-.87.99-.13,0-.27-.03-.4-.1l-3.77-1.94c-.35-.18-.73-.27-1.11-.27-.38,0-.76.09-1.11.27l-3.77,1.94c-.13.07-.27.1-.4.1-.5,0-.94-.44-.87-.99l.61-4.64c.09-.71-.13-1.43-.61-1.96l-3.14-3.44c-.46-.51-.19-1.33.48-1.45l4.31-.81c.74-.14,1.38-.62,1.72-1.3l1.99-3.95c.16-.32.47-.48.78-.48M15.5,0C12.89,0,10.55,1.45,9.37,3.77l-1.2,2.38-2.58.48c-2.44.46-4.45,2.21-5.24,4.57-.79,2.36-.24,4.97,1.43,6.8l2.03,2.22-.4,3.01c-.26,1.96.34,3.94,1.64,5.42,1.3,1.49,3.19,2.34,5.16,2.34,1.09,0,2.17-.26,3.14-.76l2.14-1.1,2.14,1.1c.97.5,2.06.76,3.14.76,1.97,0,3.86-.85,5.16-2.34,1.3-1.48,1.9-3.46,1.64-5.42l-.4-3.01,2.03-2.22c1.68-1.84,2.22-4.45,1.43-6.8-.79-2.36-2.8-4.11-5.24-4.56l-2.58-.48-1.2-2.38C20.45,1.45,18.11,0,15.5,0h0Z"/>
</svg>