<?xml version="1.0" encoding="UTF-8"?>
<svg id="Layer_1" xmlns="http://www.w3.org/2000/svg" version="1.1" viewBox="0 0 64 64">
  <!-- Generator: Adobe Illustrator 30.1.0, SVG Export Plug-In . SVG Version: 2.1.1 Build 136)  -->
  <path d="M32,12.36c.64,0,1.28.33,1.61.99l4.11,8.16c.71,1.4,2.02,2.39,3.56,2.68l8.89,1.67c1.39.26,1.95,1.95,1,3l-6.48,7.11c-1,1.1-1.46,2.58-1.27,4.05l1.26,9.58c.15,1.14-.76,2.05-1.79,2.05-.27,0-.55-.06-.82-.2l-7.78-4c-.72-.37-1.51-.56-2.3-.56-.79,0-1.58.19-2.3.56l-7.78,4c-.27.14-.55.2-.82.2-1.03,0-1.94-.91-1.79-2.05l1.26-9.59c.19-1.47-.27-2.95-1.27-4.05l-6.48-7.11c-.95-1.05-.39-2.74,1-3l8.89-1.67c1.54-.29,2.85-1.28,3.56-2.68l4.11-8.16c.33-.66.97-.99,1.61-.99M32,0C26.62,0,21.77,2.99,19.35,7.79l-2.48,4.92-5.32,1c-5.04.95-9.19,4.56-10.82,9.42-1.63,4.87-.5,10.25,2.96,14.05l4.18,4.59-.82,6.21c-.53,4.05.7,8.13,3.39,11.19,2.69,3.07,6.58,4.84,10.65,4.84,2.24,0,4.48-.54,6.48-1.58l4.41-2.27,4.41,2.27c2,1.03,4.24,1.58,6.48,1.58,4.08,0,7.96-1.76,10.65-4.84,2.69-3.06,3.92-7.14,3.39-11.19l-.82-6.21,4.18-4.59c3.46-3.79,4.59-9.18,2.96-14.05-1.63-4.87-5.78-8.48-10.82-9.42l-5.32-1-2.48-4.92C42.23,2.99,37.38,0,32,0h0Z"/>
</svg>