<?xml version="1.0" encoding="UTF-8"?>
<svg id="Layer_1" xmlns="http://www.w3.org/2000/svg" version="1.1" viewBox="0 0 64 64">
  <!-- Generator: Adobe Illustrator 30.1.0, SVG Export Plug-In . SVG Version: 2.1.1 Build 136)  -->
  <path d="M32,4.44c.9,0,1.79.46,2.26,1.39l5.77,11.45c.99,1.96,2.84,3.35,4.99,3.76l12.47,2.34c1.95.37,2.74,2.74,1.4,4.2l-9.09,9.97c-1.4,1.54-2.05,3.62-1.78,5.69l1.77,13.45c.21,1.6-1.07,2.87-2.51,2.87-.38,0-.78-.09-1.16-.29l-10.91-5.62c-1.01-.52-2.12-.78-3.22-.78-1.11,0-2.21.26-3.22.78l-10.91,5.62c-.38.2-.77.29-1.16.29-1.44,0-2.72-1.27-2.51-2.87l1.77-13.45c.27-2.06-.38-4.14-1.78-5.68l-9.09-9.97c-1.34-1.47-.55-3.84,1.4-4.21l12.47-2.34c2.16-.4,4-1.79,4.99-3.76l5.77-11.45c.47-.93,1.36-1.39,2.26-1.39M32,0C29.35,0,26.97,1.47,25.77,3.84l-5.77,11.45c-.36.72-1.05,1.24-1.84,1.39l-12.47,2.34c-2.48.47-4.52,2.24-5.33,4.64-.8,2.4-.24,5.05,1.46,6.92l9.09,9.97c.52.57.76,1.34.66,2.11l-1.77,13.45c-.26,1.99.34,4,1.66,5.51,1.33,1.52,3.24,2.39,5.25,2.39,1.1,0,2.2-.27,3.19-.78l10.91-5.62c.37-.19.78-.29,1.19-.29.41,0,.82.1,1.19.29l10.91,5.62c.99.51,2.09.78,3.19.78,2,0,3.92-.87,5.25-2.39,1.32-1.51,1.93-3.51,1.66-5.51l-1.77-13.45c-.1-.77.14-1.54.66-2.11l9.09-9.97c1.7-1.87,2.26-4.52,1.46-6.92-.8-2.4-2.84-4.17-5.33-4.64l-12.47-2.34c-.79-.15-1.48-.67-1.85-1.39l-5.77-11.45C37.03,1.47,34.65,0,32,0h0Z"/>
</svg>