<?xml version="1.0" encoding="UTF-8"?>
<svg id="Layer_1" xmlns="http://www.w3.org/2000/svg" version="1.1" viewBox="0 0 64 64">
  <!-- Generator: Adobe Illustrator 30.1.0, SVG Export Plug-In . SVG Version: 2.1.1 Build 136)  -->
  <path d="M32,7.82c.79,0,1.57.41,1.98,1.22l5.06,10.04c.87,1.72,2.49,2.94,4.38,3.3l10.94,2.05c1.71.32,2.41,2.4,1.23,3.69l-7.97,8.75c-1.23,1.35-1.8,3.18-1.56,4.99l1.56,11.8c.19,1.41-.94,2.52-2.2,2.52-.34,0-.68-.08-1.02-.25l-9.57-4.93c-.89-.46-1.86-.69-2.83-.69s-1.94.23-2.83.69l-9.57,4.93c-.33.17-.68.25-1.02.25-1.27,0-2.39-1.11-2.2-2.52l1.56-11.8c.24-1.81-.33-3.63-1.56-4.98l-7.97-8.75c-1.17-1.29-.48-3.37,1.23-3.69l10.94-2.05c1.89-.35,3.51-1.57,4.38-3.3l5.06-10.04c.41-.82,1.2-1.22,1.98-1.22M32,0C28.19,0,24.75,2.12,23.03,5.52l-4.7,9.32-10.14,1.9c-3.58.67-6.52,3.23-7.67,6.68-1.16,3.45-.35,7.27,2.1,9.96l7.46,8.19-1.46,11.05c-.38,2.87.5,5.76,2.4,7.93,1.91,2.18,4.67,3.43,7.56,3.43,1.59,0,3.18-.39,4.6-1.12l8.82-4.54,8.82,4.54c1.42.73,3.01,1.12,4.6,1.12,2.89,0,5.64-1.25,7.56-3.43,1.9-2.17,2.78-5.06,2.4-7.93l-1.46-11.05,7.47-8.19c2.45-2.69,3.26-6.51,2.1-9.96-1.16-3.45-4.1-6.01-7.67-6.68l-10.14-1.9-4.7-9.32C39.25,2.12,35.81,0,32,0h0Z"/>
</svg>