<?xml version="1.0" encoding="UTF-8"?>
<svg id="Layer_1" xmlns="http://www.w3.org/2000/svg" version="1.1" viewBox="0 0 64 64">
  <!-- Generator: Adobe Illustrator 30.1.0, SVG Export Plug-In . SVG Version: 2.1.1 Build 136)  -->
  <path d="M32,10.1c.71,0,1.42.37,1.8,1.11l4.58,9.09c.79,1.56,2.25,2.66,3.97,2.99l9.91,1.86c1.55.29,2.18,2.17,1.12,3.34l-7.22,7.92c-1.11,1.22-1.63,2.88-1.42,4.52l1.41,10.69c.17,1.27-.85,2.28-1.99,2.28-.3,0-.62-.07-.92-.23l-8.67-4.47c-.8-.41-1.68-.62-2.56-.62s-1.76.21-2.56.62l-8.67,4.47c-.3.16-.62.23-.92.23-1.15,0-2.16-1.01-1.99-2.28l1.41-10.69c.22-1.64-.3-3.29-1.41-4.51l-7.22-7.93c-1.06-1.17-.43-3.05,1.12-3.34l9.91-1.86c1.71-.32,3.18-1.42,3.97-2.98l4.58-9.1c.37-.74,1.08-1.11,1.8-1.11M32,0C27.4,0,23.25,2.55,21.18,6.66l-3.58,7.11-7.72,1.45c-4.31.81-7.86,3.9-9.25,8.06-1.4,4.16-.42,8.77,2.53,12.01l5.82,6.38-1.14,8.62c-.46,3.46.6,6.95,2.9,9.57,2.3,2.63,5.63,4.14,9.11,4.14,1.91,0,3.83-.47,5.54-1.35l6.61-3.4,6.61,3.4c1.71.88,3.63,1.35,5.54,1.35,3.49,0,6.81-1.51,9.11-4.14,2.3-2.62,3.35-6.11,2.9-9.57l-1.14-8.62,5.82-6.38c2.96-3.25,3.93-7.85,2.53-12.01-1.39-4.16-4.94-7.25-9.25-8.06l-7.72-1.45-3.58-7.11C40.74,2.55,36.6,0,32,0h0Z"/>
</svg>