<?xml version="1.0" encoding="UTF-8"?>
<svg id="Layer_1" xmlns="http://www.w3.org/2000/svg" version="1.1" viewBox="0 0 109 109">
  <!-- Generator: Adobe Illustrator 30.1.0, SVG Export Plug-In . SVG Version: 2.1.1 Build 136)  -->
  <circle id="Outer" cx="54.5" cy="54.5" r="47.84" fill="none" stroke="#000" stroke-width="13.32"/>
  <g>
    <g>
      <rect x="51.05" y="71.04" width="6.83" height="6.83"/>
      <path d="M56.86,72.07v4.79h-4.79v-4.79h4.79M58.91,70.02h-8.88v8.88h8.88v-8.88h0Z"/>
    </g>
    <g>
      <path d="M51.07,63.76l-.03-2.82c0-2.53.95-4.95,2.64-6.82l4.74-5.25c1.13-1.25,1.75-2.86,1.75-4.54,0-2.27-1.86-4.11-4.15-4.11h-3.05c-2.29,0-4.15,1.84-4.15,4.11v1.02h-6.88v-1.02c0-6.04,4.95-10.96,11.03-10.96h3.05c6.08,0,11.03,4.91,11.03,10.96,0,3.37-1.25,6.6-3.51,9.11l-4.75,5.26c-.57.64-.88,1.41-.88,2.24l-.03,2.83h-6.81Z"/>
      <path d="M56.02,34.39c5.52,0,10,4.46,10,9.93,0,3.12-1.15,6.11-3.25,8.43l-4.75,5.26c-.74.81-1.14,1.82-1.15,2.92l-.02,1.81h-4.79l-.02-1.81c0-2.27.84-4.43,2.37-6.12l4.74-5.26c1.3-1.44,2.01-3.29,2.01-5.23,0-2.83-2.32-5.13-5.17-5.13h-3.05c-2.85,0-5.17,2.3-5.17,5.13h-4.83c0-5.48,4.49-9.93,10-9.93h3.05M56.02,32.34h-3.05c-6.64,0-12.05,5.37-12.05,11.98v2.04h8.92v-2.04c0-1.7,1.4-3.09,3.13-3.09h3.05c1.72,0,3.13,1.39,3.13,3.09,0,1.42-.53,2.79-1.49,3.86l-4.74,5.26c-1.86,2.06-2.89,4.71-2.9,7.49l.02,1.84.02,2.03h8.84l.02-2.02.02-1.81c0-.59.21-1.12.62-1.57l4.75-5.26c2.43-2.7,3.77-6.18,3.77-9.8,0-6.6-5.4-11.98-12.05-11.98h0Z"/>
    </g>
  </g>
</svg>