<?xml version="1.0" encoding="UTF-8"?>
<svg id="Layer_1" xmlns="http://www.w3.org/2000/svg" version="1.1" viewBox="0 0 109 109">
  <!-- Generator: Adobe Illustrator 30.1.0, SVG Export Plug-In . SVG Version: 2.1.1 Build 136)  -->
  <circle id="Outer" cx="54.5" cy="54.5" r="43.97" fill="none" stroke="#000" stroke-width="21.05"/>
  <g>
    <g>
      <rect x="51" y="68.09" width="6.94" height="6.94"/>
      <path d="M56.24,69.79v3.54h-3.54v-3.54h3.54M59.65,66.38h-10.35v10.35h10.35v-10.35h0Z"/>
    </g>
    <g>
      <path d="M51.02,61.6l-.03-3.03c0-2.11.79-4.12,2.19-5.68l3.5-3.88c.68-.75,1.05-1.71,1.05-2.72,0-1.15-.95-2.09-2.12-2.09h-2.25c-1.17,0-2.11.94-2.11,2.09v1.7h-6.98v-1.7c0-4.98,4.08-9.04,9.09-9.04h2.25c5.01,0,9.09,4.05,9.09,9.04,0,2.72-1.01,5.34-2.84,7.37l-3.5,3.88c-.27.3-.41.64-.41,1.02l-.03,3.04h-6.91Z"/>
      <path d="M55.63,38.96c4.07,0,7.39,3.29,7.39,7.34,0,2.3-.85,4.51-2.4,6.22l-3.5,3.88c-.54.6-.84,1.35-.85,2.15v1.34h-3.55v-1.34c0-1.68.61-3.27,1.74-4.52l3.5-3.88c.96-1.06,1.49-2.43,1.49-3.86,0-2.09-1.71-3.79-3.82-3.79h-2.25c-2.11,0-3.82,1.7-3.82,3.79h-3.57c0-4.04,3.31-7.34,7.39-7.34h2.25M55.63,35.55h-2.25c-5.95,0-10.79,4.82-10.79,10.74v3.41h10.38v-3.41c0-.21.19-.39.41-.39h2.25c.22,0,.41.18.41.39,0,.58-.22,1.14-.61,1.58l-3.5,3.88c-1.69,1.86-2.62,4.28-2.63,6.79v1.38s.04,3.38.04,3.38h10.29l.03-3.37v-1.28s3.49-3.85,3.49-3.85c2.11-2.34,3.28-5.36,3.28-8.51,0-5.92-4.84-10.74-10.79-10.74h0Z"/>
    </g>
  </g>
</svg>