<?xml version="1.0" encoding="UTF-8"?>
<svg id="Layer_1" xmlns="http://www.w3.org/2000/svg" version="1.1" viewBox="0 0 109 109">
  <!-- Generator: Adobe Illustrator 30.1.0, SVG Export Plug-In . SVG Version: 2.1.1 Build 136)  -->
  <circle id="Outer" cx="54.5" cy="54.5" r="49.77" fill="none" stroke="#000" stroke-width="9.47"/>
  <g>
    <g>
      <rect x="51.06" y="72.5" width="6.82" height="6.82"/>
      <path d="M57.2,73.18v5.46h-5.46v-5.46h5.46M58.56,71.82h-8.19v8.19h8.19v-8.19h0Z"/>
    </g>
    <g>
      <path d="M51.06,64.97l-.02-2.74c.01-2.76,1.03-5.4,2.88-7.44l5.41-5.99c1.37-1.51,2.12-3.47,2.12-5.5,0-2.85-2.34-5.17-5.21-5.17h-3.47c-2.87,0-5.21,2.32-5.21,5.17v.68h-6.87v-.68c0-6.62,5.42-12,12.08-12h3.47c6.66,0,12.08,5.38,12.08,12,0,3.72-1.38,7.29-3.88,10.06l-5.41,5.99c-.74.82-1.13,1.81-1.13,2.87l-.03,2.75h-6.81Z"/>
      <path d="M56.24,31.98c6.29,0,11.4,5.08,11.4,11.32,0,3.55-1.32,6.96-3.7,9.61l-5.41,5.99c-.84.93-1.3,2.08-1.31,3.33l-.02,2.07h-5.46l-.02-2.07c0-2.59.96-5.05,2.7-6.98l5.41-5.99c1.48-1.64,2.3-3.76,2.3-5.96,0-3.23-2.64-5.85-5.89-5.85h-3.47c-3.25,0-5.89,2.63-5.89,5.85h-5.51c0-6.24,5.11-11.32,11.4-11.32h3.47M56.24,30.61h-3.47c-7.04,0-12.76,5.69-12.76,12.68v1.36h8.23v-1.36c0-2.48,2.03-4.49,4.53-4.49h3.47c2.5,0,4.53,2.01,4.53,4.49,0,1.86-.69,3.65-1.94,5.04l-5.41,5.99c-1.96,2.17-3.05,4.97-3.06,7.89l.02,2.08v1.35h8.17v-1.35s.03-2.07.03-2.07c0-.9.33-1.74.95-2.43l5.41-5.99c2.61-2.9,4.05-6.63,4.05-10.52,0-6.99-5.73-12.68-12.76-12.68h0Z"/>
    </g>
  </g>
</svg>