<?xml version="1.0" encoding="UTF-8"?>
<svg id="Layer_1" xmlns="http://www.w3.org/2000/svg" version="1.1" viewBox="0 0 109 109">
  <!-- Generator: Adobe Illustrator 30.1.0, SVG Export Plug-In . SVG Version: 2.1.1 Build 136)  -->
  <circle id="Outer" cx="54.5" cy="54.5" r="43.02" fill="none" stroke="#000" stroke-width="22.96"/>
  <g>
    <g>
      <rect x="50.98" y="67.34" width="7" height="7"/>
      <path d="M56.1,69.22v3.25h-3.25v-3.25h3.25M59.85,65.47h-10.74v10.74h10.74v-10.74h0Z"/>
    </g>
    <g>
      <path d="M51,61.13l-.03-3.09c0-2.02.75-3.94,2.09-5.43l3.22-3.56c.57-.63.88-1.44.88-2.29,0-.89-.73-1.61-1.63-1.61h-2.07c-.9,0-1.63.72-1.63,1.61v1.87h-7.03v-1.87c0-4.75,3.88-8.61,8.66-8.61h2.07c4.77,0,8.66,3.86,8.66,8.61,0,2.58-.95,5.05-2.69,6.97l-3.22,3.57c-.19.22-.29.46-.29.73l-.03,3.1h-6.96Z"/>
      <path d="M55.53,40.02c3.74,0,6.79,3.02,6.79,6.74,0,2.11-.78,4.14-2.2,5.72l-3.22,3.57c-.5.55-.77,1.24-.78,1.98v1.23h-3.26v-1.23c0-1.54.56-3.01,1.6-4.15l3.22-3.57c.88-.98,1.37-2.24,1.37-3.54,0-1.92-1.57-3.48-3.51-3.48h-2.07c-1.93,0-3.51,1.56-3.51,3.48h-3.28c0-3.71,3.04-6.74,6.79-6.74h2.07M55.53,36.28h-2.07c-5.81,0-10.53,4.7-10.53,10.49v3.75h9.51l-.77.85c-1.65,1.83-2.57,4.19-2.58,6.65v1.28s.04,3.71.04,3.71h10.67l.04-3.71v-.94s3.04-3.36,3.04-3.36c2.04-2.26,3.17-5.19,3.17-8.23,0-5.78-4.73-10.49-10.53-10.49h0ZM53.71,47.03h1.57c-.05.28-.18.55-.38.77l-1.19,1.32v-2.09h0Z"/>
    </g>
  </g>
</svg>