<?xml version="1.0" encoding="UTF-8"?>
<svg id="Layer_1" xmlns="http://www.w3.org/2000/svg" version="1.1" viewBox="0 0 109 109">
  <!-- Generator: Adobe Illustrator 30.1.0, SVG Export Plug-In . SVG Version: 2.1.1 Build 136)  -->
  <circle id="Outer" cx="54.5" cy="54.5" r="50.72" fill="none" stroke="#000" stroke-width="7.56"/>
  <g>
    <g>
      <rect x="51.05" y="73.21" width="6.82" height="6.82"/>
      <path d="M57.37,73.72v5.8h-5.8v-5.8h5.8M58.39,72.7h-7.85v7.85h7.85v-7.85h0Z"/>
    </g>
    <g>
      <path d="M51.06,65.6l-.02-2.7c0-2.88,1.08-5.63,3.01-7.77l5.75-6.37c1.49-1.65,2.31-3.77,2.31-5.99,0-3.15-2.58-5.71-5.75-5.71h-3.69c-3.17,0-5.75,2.56-5.75,5.71v.51h-6.88v-.51c0-6.92,5.66-12.54,12.63-12.54h3.69c6.96,0,12.63,5.63,12.63,12.54,0,3.9-1.44,7.65-4.07,10.55l-5.75,6.37c-.82.9-1.25,2.01-1.26,3.19l-.03,2.7h-6.82Z"/>
      <path d="M56.35,30.75c6.68,0,12.12,5.4,12.12,12.03,0,3.78-1.4,7.4-3.93,10.21l-5.75,6.37c-.89.98-1.38,2.21-1.39,3.53l-.02,2.19h-5.8l-.02-2.19c.01-2.75,1.02-5.37,2.87-7.42l5.75-6.37c1.57-1.74,2.44-3.99,2.44-6.33,0-3.43-2.81-6.22-6.26-6.22h-3.69c-3.45,0-6.26,2.79-6.26,6.22h-5.85c0-6.63,5.44-12.03,12.12-12.03h3.69M56.35,29.73h-3.69c-7.24,0-13.14,5.86-13.14,13.05v1.02h7.9v-1.02c0-2.87,2.35-5.2,5.24-5.2h3.69c2.89,0,5.24,2.33,5.24,5.2,0,2.09-.77,4.09-2.18,5.64l-5.75,6.37c-2.01,2.22-3.13,5.1-3.14,8.1l.02,2.21v1.01h7.84v-1.01s.03-2.19.03-2.19c0-1.06.39-2.05,1.12-2.86l5.75-6.37c2.71-3,4.2-6.87,4.2-10.89,0-7.2-5.89-13.05-13.14-13.05h0Z"/>
    </g>
  </g>
</svg>