<?xml version="1.0" encoding="UTF-8"?>
<svg id="Layer_1" xmlns="http://www.w3.org/2000/svg" version="1.1" viewBox="0 0 109 109">
  <!-- Generator: Adobe Illustrator 30.1.0, SVG Export Plug-In . SVG Version: 2.1.1 Build 136)  -->
  <circle id="Outer" cx="54.5" cy="54.5" r="45.9" fill="none" stroke="#000" stroke-width="17.2"/>
  <g>
    <g>
      <rect x="51.04" y="69.57" width="6.87" height="6.87"/>
      <path d="M56.54,70.93v4.14h-4.14v-4.14h4.14M59.27,68.21h-9.59v9.59h9.59v-9.59h0Z"/>
    </g>
    <g>
      <path d="M51.06,62.62l-.03-2.92c0-2.31.86-4.52,2.41-6.22l4.1-4.55c.9-.99,1.39-2.27,1.39-3.61,0-1.7-1.4-3.08-3.11-3.08h-2.64c-1.72,0-3.11,1.38-3.11,3.08v1.36h-6.91v-1.36c0-5.49,4.49-9.96,10.02-9.96h2.64c5.52,0,10.02,4.47,10.02,9.96,0,3.03-1.12,5.95-3.16,8.21l-4.11,4.55c-.42.46-.64,1.02-.64,1.62l-.03,2.92h-6.84Z"/>
      <path d="M55.82,36.73c4.77,0,8.66,3.86,8.66,8.59,0,2.7-1,5.29-2.81,7.29l-4.11,4.55c-.64.7-.99,1.58-.99,2.52l-.02,1.57h-4.14v-1.57c0-1.96.72-3.84,2.04-5.3l4.11-4.55c1.12-1.24,1.74-2.85,1.74-4.52,0-2.45-2.01-4.44-4.47-4.44h-2.64c-2.47,0-4.47,1.99-4.47,4.44h-4.18c0-4.74,3.88-8.59,8.66-8.59h2.64M55.82,34.01h-2.64c-6.28,0-11.38,5.08-11.38,11.32v2.73h9.63v-2.73c0-.95.78-1.72,1.75-1.72h2.64c.96,0,1.75.77,1.75,1.72,0,1-.37,1.95-1.04,2.7l-4.11,4.55c-1.77,1.95-2.75,4.48-2.76,7.11v1.6s.04,2.7.04,2.7h9.54l.03-2.7.02-1.57c0-.28.1-.51.29-.72l4.11-4.55c2.27-2.51,3.51-5.75,3.51-9.12,0-6.24-5.11-11.32-11.38-11.32h0Z"/>
    </g>
  </g>
</svg>