<?xml version="1.0" encoding="UTF-8"?>
<svg id="Layer_1" xmlns="http://www.w3.org/2000/svg" version="1.1" viewBox="0 0 27 27">
  <!-- Generator: Adobe Illustrator 30.1.0, SVG Export Plug-In . SVG Version: 2.1.1 Build 136)  -->
  <path d="M13.5,5.69c.25,0,.51.13.64.4l1.63,3.24c.28.56.8.95,1.42,1.07l3.54.66c.55.1.78.78.4,1.19l-2.58,2.83c-.4.44-.58,1.03-.51,1.61l.5,3.81c.06.45-.3.81-.71.81-.11,0-.22-.03-.33-.08l-3.09-1.59c-.29-.15-.6-.22-.91-.22s-.63.07-.91.22l-3.09,1.59c-.11.06-.22.08-.33.08-.41,0-.77-.36-.71-.81l.5-3.81c.08-.58-.11-1.17-.5-1.61l-2.58-2.83c-.38-.42-.16-1.09.4-1.19l3.54-.66c.61-.11,1.13-.51,1.41-1.06l1.63-3.25c.13-.26.39-.4.64-.4M13.5,0C11.07,0,8.88,1.35,7.78,3.52l-.81,1.62-1.74.33c-2.28.43-4.16,2.06-4.89,4.26-.74,2.2-.22,4.64,1.34,6.35l1.42,1.56-.28,2.12c-.24,1.83.32,3.67,1.53,5.06,1.22,1.39,2.97,2.19,4.82,2.19,1.01,0,2.03-.25,2.93-.71l1.4-.72,1.4.72c.9.47,1.92.71,2.93.71,1.84,0,3.6-.8,4.82-2.19,1.21-1.39,1.77-3.23,1.53-5.06l-.28-2.12,1.42-1.56c1.56-1.72,2.08-4.15,1.34-6.35-.74-2.2-2.61-3.83-4.89-4.26l-1.74-.33-.81-1.62C18.12,1.35,15.93,0,13.5,0h0Z"/>
</svg>