<?xml version="1.0" encoding="UTF-8"?>
<svg id="Layer_1" xmlns="http://www.w3.org/2000/svg" version="1.1" viewBox="0 0 27 27">
  <!-- Generator: Adobe Illustrator 30.1.0, SVG Export Plug-In . SVG Version: 2.1.1 Build 136)  -->
  <path d="M13.5,2.35c.36,0,.73.19.91.56l2.33,4.63c.4.79,1.15,1.36,2.02,1.52l5.05.95c.79.15,1.11,1.11.57,1.7l-3.68,4.04c-.57.62-.83,1.47-.72,2.3l.72,5.44c.09.65-.43,1.16-1.02,1.16-.15,0-.31-.04-.47-.12l-4.42-2.27c-.41-.21-.86-.32-1.3-.32s-.9.11-1.3.32l-4.42,2.27c-.15.08-.31.12-.47.12-.58,0-1.1-.51-1.02-1.16l.72-5.44c.11-.84-.15-1.68-.72-2.3l-3.68-4.04c-.54-.59-.22-1.55.57-1.7l5.05-.95c.87-.16,1.62-.73,2.02-1.52l2.33-4.63c.19-.38.55-.56.91-.56M13.5,0c-1.28,0-2.43.71-3.01,1.85l-2.33,4.63c-.07.14-.2.24-.36.27l-5.05.95c-1.2.22-2.19,1.08-2.58,2.24-.39,1.16-.12,2.44.71,3.34l3.68,4.04c.1.11.15.26.13.41l-.72,5.44c-.13.96.17,1.93.8,2.66.64.73,1.57,1.15,2.54,1.15.53,0,1.06-.13,1.54-.38l4.42-2.27c.07-.04.15-.06.23-.06s.16.02.23.06l4.42,2.27c.48.25,1.01.38,1.54.38.97,0,1.89-.42,2.54-1.15.64-.73.93-1.7.8-2.66l-.72-5.44c-.02-.15.03-.3.13-.41l3.68-4.04c.82-.9,1.09-2.18.71-3.34-.39-1.16-1.37-2.02-2.57-2.24l-5.05-.95c-.15-.03-.29-.13-.36-.27l-2.33-4.63C15.93.71,14.78,0,13.5,0h0Z"/>
</svg>