<?xml version="1.0" encoding="UTF-8"?>
<svg id="Layer_1" xmlns="http://www.w3.org/2000/svg" version="1.1" viewBox="0 0 27 27">
  <!-- Generator: Adobe Illustrator 30.1.0, SVG Export Plug-In . SVG Version: 2.1.1 Build 136)  -->
  <path d="M13.5,1.87c.38,0,.76.2.95.59l2.43,4.83c.42.83,1.2,1.41,2.11,1.59l5.26.99c.82.15,1.16,1.15.59,1.77l-3.83,4.21c-.59.65-.87,1.53-.75,2.4l.75,5.67c.09.68-.45,1.21-1.06,1.21-.16,0-.33-.04-.49-.12l-4.6-2.37c-.43-.22-.89-.33-1.36-.33s-.93.11-1.36.33l-4.6,2.37c-.16.08-.33.12-.49.12-.61,0-1.15-.54-1.06-1.21l.75-5.67c.11-.87-.16-1.75-.75-2.4l-3.83-4.21c-.56-.62-.23-1.62.59-1.77l5.26-.99c.91-.17,1.69-.76,2.11-1.58l2.43-4.83c.2-.39.58-.59.95-.59M13.5,0C12.38,0,11.38.62,10.87,1.62l-2.43,4.83c-.15.3-.44.52-.78.59l-5.26.99c-1.05.2-1.91.95-2.25,1.96-.34,1.01-.1,2.13.62,2.92l3.83,4.21c.22.24.32.57.28.89l-.75,5.67c-.11.84.14,1.69.7,2.32.56.64,1.37,1.01,2.21,1.01.46,0,.93-.11,1.35-.33l4.6-2.37c.15-.08.33-.12.5-.12s.35.04.5.12l4.6,2.37c.42.21.88.33,1.35.33.85,0,1.65-.37,2.21-1.01.56-.64.81-1.48.7-2.32l-.75-5.67c-.04-.33.06-.65.28-.89l3.83-4.21c.72-.79.95-1.91.62-2.92-.34-1.01-1.2-1.76-2.25-1.96l-5.26-.99c-.33-.06-.63-.28-.78-.59l-2.43-4.83C15.62.62,14.62,0,13.5,0h0Z"/>
</svg>