<?xml version="1.0" encoding="UTF-8"?>
<svg id="Layer_1" xmlns="http://www.w3.org/2000/svg" version="1.1" viewBox="0 0 27 27">
  <!-- Generator: Adobe Illustrator 30.1.0, SVG Export Plug-In . SVG Version: 2.1.1 Build 136)  -->
  <path d="M13.5,3.3c.33,0,.66.17.84.52l2.13,4.24c.37.73,1.05,1.24,1.85,1.39l4.62.87c.72.14,1.01,1.01.52,1.56l-3.36,3.69c-.52.57-.76,1.34-.66,2.1l.66,4.98c.08.59-.39,1.06-.93,1.06-.14,0-.29-.03-.43-.11l-4.04-2.08c-.37-.19-.78-.29-1.19-.29-.41,0-.82.1-1.19.29l-4.04,2.08c-.14.07-.29.11-.43.11-.53,0-1.01-.47-.93-1.06l.66-4.98c.1-.76-.14-1.53-.66-2.1l-3.36-3.69c-.5-.54-.2-1.42.52-1.56l4.62-.87c.8-.15,1.48-.66,1.85-1.39l2.13-4.24c.17-.34.5-.52.84-.52M13.5,0C11.89,0,10.44.89,9.72,2.33l-1.98,3.93-4.28.8c-1.51.28-2.75,1.36-3.24,2.82-.49,1.46-.15,3.07.89,4.2l3.15,3.46-.62,4.66c-.16,1.21.21,2.43,1.01,3.35.81.92,1.97,1.45,3.19,1.45.67,0,1.34-.16,1.94-.47l3.72-1.92,3.72,1.92c.6.31,1.27.47,1.94.47,1.22,0,2.38-.53,3.19-1.45.8-.92,1.17-2.14,1.01-3.35l-.62-4.66,3.15-3.46c1.03-1.14,1.37-2.75.89-4.2-.49-1.46-1.73-2.54-3.24-2.82l-4.28-.8-1.98-3.93C16.56.89,15.11,0,13.5,0h0Z"/>
</svg>