<?xml version="1.0" encoding="UTF-8"?>
<svg id="Layer_1" xmlns="http://www.w3.org/2000/svg" version="1.1" viewBox="0 0 84 84">
  <!-- Generator: Adobe Illustrator 30.1.0, SVG Export Plug-In . SVG Version: 2.1.1 Build 136)  -->
  <g>
    <g>
      <rect x="38.9" y="25.01" width="6.2" height="6.2"/>
      <path d="M43.79,26.32v3.57h-3.57v-3.57h3.57M46.41,23.7h-8.82v8.82h8.82v-8.82h0Z"/>
    </g>
    <g>
      <polygon points="35.33 58.17 35.33 51.98 38.9 51.98 38.9 43.45 35.33 43.45 35.33 37.25 45.1 37.25 45.1 51.98 48.67 51.98 48.67 58.17 35.33 58.17"/>
      <path d="M43.79,38.56v14.73h3.57v3.57h-10.72v-3.57h3.57v-11.16h-3.57v-3.57h7.15M46.41,35.94h-12.4v8.82h3.57v5.91h-3.57v8.82h15.97v-8.82h-3.57v-14.73h0Z"/>
    </g>
  </g>
  <circle id="Outer" cx="42" cy="42" r="33.89" fill="none" stroke="#000" stroke-width="16.22"/>
</svg>