<?xml version="1.0" encoding="UTF-8"?>
<svg id="Layer_1" xmlns="http://www.w3.org/2000/svg" version="1.1" viewBox="0 0 107 107">
  <!-- Generator: Adobe Illustrator 30.1.0, SVG Export Plug-In . SVG Version: 2.1.1 Build 136)  -->
  <path d="M53.5,22.54c1.01,0,2.01.52,2.54,1.57l6.48,12.86c1.11,2.21,3.19,3.77,5.61,4.22l14.01,2.63c2.19.41,3.08,3.07,1.58,4.72l-10.21,11.2c-1.58,1.73-2.31,4.07-2,6.39l1.99,15.11c.24,1.8-1.2,3.23-2.82,3.23-.43,0-.87-.1-1.3-.32l-12.26-6.31c-1.14-.59-2.38-.88-3.62-.88-1.24,0-2.48.29-3.62.88l-12.26,6.31c-.43.22-.87.32-1.3.32-1.62,0-3.06-1.43-2.82-3.23l1.99-15.11c.31-2.32-.43-4.65-2-6.38l-10.21-11.2c-1.5-1.65-.61-4.32,1.58-4.73l14.01-2.63c2.42-.45,4.5-2.01,5.61-4.22l6.48-12.86c.53-1.04,1.53-1.57,2.54-1.57M53.5,0C43.86,0,35.17,5.35,30.83,13.96l-3.23,6.4-6.9,1.29c-9.04,1.69-16.47,8.17-19.39,16.89-2.92,8.72-.89,18.37,5.31,25.17l5.64,6.19-1.11,8.38c-.96,7.25,1.26,14.56,6.07,20.05,4.83,5.5,11.79,8.66,19.09,8.66,4.02,0,8.03-.98,11.62-2.82l5.56-2.86,5.56,2.86c3.58,1.85,7.6,2.82,11.62,2.82,7.31,0,14.26-3.16,19.09-8.66,4.81-5.49,7.03-12.8,6.07-20.05l-1.11-8.38,5.64-6.19c6.2-6.8,8.23-16.44,5.31-25.17-2.92-8.72-10.35-15.19-19.39-16.89l-6.9-1.29-3.23-6.4C71.83,5.35,63.14,0,53.5,0h0Z"/>
</svg>