<?xml version="1.0" encoding="UTF-8"?>
<svg id="Layer_1" xmlns="http://www.w3.org/2000/svg" version="1.1" viewBox="0 0 107 107">
  <!-- Generator: Adobe Illustrator 30.1.0, SVG Export Plug-In . SVG Version: 2.1.1 Build 136)  -->
  <path d="M53.5,16.89c1.19,0,2.38.62,3,1.85l7.66,15.21c1.31,2.61,3.77,4.46,6.63,4.99l16.57,3.11c2.59.49,3.64,3.63,1.86,5.59l-12.07,13.25c-1.86,2.04-2.73,4.81-2.37,7.55l2.36,17.86c.28,2.13-1.42,3.82-3.33,3.82-.51,0-1.03-.12-1.54-.38l-14.49-7.47c-1.34-.69-2.81-1.04-4.28-1.04-1.47,0-2.94.35-4.28,1.04l-14.49,7.47c-.51.26-1.03.38-1.54.38-1.92,0-3.61-1.69-3.33-3.82l2.36-17.87c.36-2.74-.5-5.5-2.36-7.54l-12.07-13.25c-1.78-1.95-.73-5.1,1.87-5.59l16.57-3.11c2.86-.54,5.32-2.38,6.63-4.99l7.66-15.21c.62-1.23,1.81-1.85,3-1.85M53.5,0C45.81,0,38.88,4.27,35.42,11.14l-5.99,11.88-12.9,2.42c-7.21,1.35-13.14,6.51-15.47,13.47-2.33,6.96-.71,14.66,4.24,20.09l9.72,10.67-1.9,14.41c-.76,5.79,1,11.62,4.84,16,3.85,4.4,9.41,6.92,15.23,6.92,3.2,0,6.41-.78,9.27-2.25l11.05-5.69,11.05,5.69c2.86,1.47,6.07,2.25,9.27,2.25,5.83,0,11.38-2.52,15.23-6.92,3.84-4.38,5.6-10.21,4.84-16l-1.9-14.41,9.73-10.67c4.94-5.43,6.57-13.12,4.24-20.08-2.33-6.96-8.26-12.12-15.47-13.47l-12.91-2.42-5.99-11.88C68.12,4.27,61.19,0,53.5,0h0Z"/>
</svg>