<?xml version="1.0" encoding="UTF-8"?>
<svg id="Layer_1" xmlns="http://www.w3.org/2000/svg" version="1.1" viewBox="0 0 107 107">
  <!-- Generator: Adobe Illustrator 30.1.0, SVG Export Plug-In . SVG Version: 2.1.1 Build 136)  -->
  <path d="M53.5,9.3c1.44,0,2.87.75,3.63,2.24l9.25,18.36c1.59,3.15,4.55,5.38,8.01,6.03l20.01,3.75c3.13.59,4.4,4.39,2.25,6.74l-14.58,16c-2.25,2.47-3.3,5.81-2.86,9.12l2.84,21.57c.34,2.57-1.71,4.61-4.02,4.61-.61,0-1.25-.14-1.86-.46l-17.5-9.01c-1.62-.84-3.4-1.25-5.17-1.25-1.77,0-3.55.42-5.17,1.25l-17.5,9.01c-.61.31-1.24.46-1.86.46-2.31,0-4.36-2.04-4.02-4.61l2.85-21.57c.44-3.31-.61-6.64-2.85-9.11l-14.58-16c-2.15-2.36-.88-6.16,2.25-6.75l20.01-3.75c3.46-.65,6.42-2.88,8-6.02l9.25-18.36c.75-1.49,2.19-2.24,3.63-2.24M53.5,0h0c-5.07,0-9.64,2.82-11.93,7.35l-9.25,18.36c-.28.56-.81.96-1.42,1.07l-20.01,3.75c-4.76.89-8.67,4.3-10.21,8.89-1.54,4.6-.47,9.67,2.8,13.26l14.58,16c.4.44.59,1.04.51,1.63l-2.85,21.57c-.5,3.82.66,7.67,3.19,10.55,2.55,2.9,6.21,4.57,10.05,4.57,2.11,0,4.22-.52,6.11-1.49l17.5-9.01c.29-.15.59-.22.91-.22.32,0,.63.08.91.22l17.5,9.01c1.89.97,4.01,1.49,6.11,1.49,3.84,0,7.51-1.67,10.05-4.57,2.53-2.89,3.69-6.73,3.19-10.55l-2.84-21.57c-.08-.6.11-1.2.51-1.64l14.58-16c3.26-3.58,4.33-8.66,2.79-13.25-1.54-4.59-5.45-8-10.2-8.89l-20.01-3.75c-.61-.11-1.14-.52-1.42-1.07l-9.25-18.36c-2.28-4.53-6.85-7.35-11.93-7.35h0Z"/>
</svg>