<?xml version="1.0" encoding="UTF-8"?>
<svg id="Layer_1" xmlns="http://www.w3.org/2000/svg" version="1.1" viewBox="0 0 107 107">
  <!-- Generator: Adobe Illustrator 30.1.0, SVG Export Plug-In . SVG Version: 2.1.1 Build 136)  -->
  <path d="M53.5,7.42c1.5,0,3,.78,3.78,2.33l9.64,19.14c1.65,3.28,4.74,5.61,8.35,6.28l20.85,3.91c3.26.61,4.58,4.57,2.35,7.03l-15.19,16.67c-2.34,2.57-3.43,6.05-2.98,9.51l2.97,22.48c.35,2.68-1.78,4.81-4.19,4.81-.64,0-1.3-.15-1.93-.48l-18.24-9.39c-1.69-.87-3.54-1.31-5.39-1.31s-3.7.44-5.39,1.31l-18.24,9.39c-.64.33-1.3.48-1.93.48-2.41,0-4.55-2.12-4.2-4.81l2.97-22.49c.45-3.45-.63-6.93-2.98-9.49l-15.2-16.67c-2.24-2.46-.91-6.42,2.35-7.03l20.85-3.91c3.61-.68,6.69-3,8.34-6.28l9.64-19.14c.78-1.55,2.28-2.33,3.78-2.33M53.5,0C49.07,0,45.08,2.46,43.09,6.41l-9.64,19.14c-.61,1.21-1.76,2.08-3.08,2.32l-20.85,3.91c-4.15.78-7.56,3.75-8.91,7.76-1.34,4.01-.41,8.45,2.44,11.57l15.2,16.67c.87.95,1.27,2.24,1.1,3.52l-2.97,22.49c-.44,3.34.57,6.69,2.78,9.21,2.22,2.54,5.42,3.99,8.77,3.99,1.84,0,3.68-.45,5.33-1.3l18.24-9.39c.61-.32,1.3-.48,1.99-.48s1.38.17,1.99.48l18.24,9.39c1.65.85,3.5,1.3,5.33,1.3,3.35,0,6.55-1.46,8.77-3.99,2.21-2.52,3.22-5.87,2.78-9.21l-2.97-22.48c-.17-1.29.23-2.58,1.11-3.54l15.19-16.67c2.85-3.13,3.78-7.56,2.44-11.57-1.34-4.01-4.75-6.98-8.9-7.76l-20.85-3.91c-1.32-.25-2.48-1.12-3.09-2.33l-9.64-19.14C61.91,2.46,57.93,0,53.5,0h0Z"/>
</svg>