<?xml version="1.0" encoding="UTF-8"?>
<svg id="Layer_1" xmlns="http://www.w3.org/2000/svg" version="1.1" viewBox="0 0 36 36">
  <!-- Generator: Adobe Illustrator 30.1.0, SVG Export Plug-In . SVG Version: 2.1.1 Build 136)  -->
  <path d="M18,2.5c.5,0,1.01.26,1.27.78l3.24,6.44c.56,1.1,1.6,1.89,2.81,2.11l7.02,1.32c1.1.21,1.54,1.54.79,2.36l-5.11,5.61c-.79.87-1.16,2.04-1,3.2l1,7.56c.12.9-.6,1.62-1.41,1.62-.22,0-.44-.05-.65-.16l-6.14-3.16c-.57-.29-1.19-.44-1.81-.44-.62,0-1.24.15-1.81.44l-6.14,3.16c-.21.11-.44.16-.65.16-.81,0-1.53-.71-1.41-1.62l1-7.57c.15-1.16-.21-2.33-1-3.19l-5.11-5.61c-.75-.83-.31-2.16.79-2.37l7.02-1.32c1.21-.23,2.25-1.01,2.81-2.11l3.24-6.44c.26-.52.77-.78,1.27-.78M18,0C16.51,0,15.17.83,14.5,2.16l-3.24,6.44c-.2.41-.59.7-1.04.78l-7.02,1.32c-1.4.26-2.54,1.26-3,2.61-.45,1.35-.14,2.84.82,3.89l5.11,5.61c.29.32.43.75.37,1.19l-1,7.57c-.15,1.12.19,2.25.94,3.1.75.85,1.82,1.34,2.95,1.34.62,0,1.24-.15,1.79-.44l6.14-3.16c.21-.11.44-.16.67-.16.23,0,.46.06.67.16l6.14,3.16c.56.29,1.18.44,1.79.44,1.13,0,2.2-.49,2.95-1.34.74-.85,1.08-1.98.94-3.1l-1-7.56c-.06-.43.08-.87.37-1.19l5.11-5.61c.96-1.05,1.27-2.54.82-3.89-.45-1.35-1.6-2.35-3-2.61l-7.02-1.32c-.45-.08-.83-.38-1.04-.78l-3.24-6.44C20.83.83,19.49,0,18,0h0Z"/>
</svg>