<?xml version="1.0" encoding="UTF-8"?>
<svg id="Layer_1" xmlns="http://www.w3.org/2000/svg" version="1.1" viewBox="0 0 36 36">
  <!-- Generator: Adobe Illustrator 30.1.0, SVG Export Plug-In . SVG Version: 2.1.1 Build 136)  -->
  <path d="M18,4.4c.44,0,.88.23,1.12.69l2.85,5.65c.49.97,1.4,1.65,2.46,1.85l6.16,1.15c.96.18,1.35,1.35.69,2.07l-4.49,4.92c-.69.76-1.01,1.79-.88,2.81l.88,6.64c.1.79-.53,1.42-1.24,1.42-.19,0-.38-.04-.57-.14l-5.38-2.77c-.5-.26-1.04-.39-1.59-.39-.55,0-1.09.13-1.59.39l-5.38,2.77c-.19.1-.38.14-.57.14-.71,0-1.34-.63-1.24-1.42l.88-6.64c.13-1.02-.19-2.04-.88-2.8l-4.49-4.92c-.66-.73-.27-1.9.69-2.08l6.16-1.15c1.06-.2,1.97-.88,2.46-1.85l2.85-5.65c.23-.46.67-.69,1.12-.69M18,0C15.85,0,13.92,1.19,12.96,3.11l-2.64,5.24-5.7,1.07c-2.01.38-3.67,1.82-4.32,3.76-.65,1.94-.2,4.09,1.18,5.6l4.2,4.61-.82,6.22c-.21,1.61.28,3.24,1.35,4.46,1.08,1.23,2.62,1.93,4.25,1.93.89,0,1.79-.22,2.59-.63l4.96-2.55,4.96,2.55c.8.41,1.69.63,2.59.63,1.63,0,3.17-.7,4.25-1.93,1.07-1.22,1.56-2.85,1.35-4.46l-.82-6.22,4.2-4.61c1.38-1.51,1.83-3.66,1.18-5.6-.65-1.94-2.3-3.38-4.31-3.76l-5.71-1.07-2.64-5.24C22.08,1.19,20.15,0,18,0h0Z"/>
</svg>