<?xml version="1.0" encoding="UTF-8"?>
<svg id="Layer_1" xmlns="http://www.w3.org/2000/svg" version="1.1" viewBox="0 0 36 36">
  <!-- Generator: Adobe Illustrator 30.1.0, SVG Export Plug-In . SVG Version: 2.1.1 Build 136)  -->
  <path d="M18,7.58c.34,0,.68.18.85.53l2.18,4.33c.37.74,1.07,1.27,1.89,1.42l4.71.88c.74.14,1.04,1.03.53,1.59l-3.44,3.77c-.53.58-.78,1.37-.67,2.15l.67,5.08c.08.61-.4,1.09-.95,1.09-.14,0-.29-.03-.44-.11l-4.12-2.12c-.38-.2-.8-.3-1.22-.3s-.84.1-1.22.3l-4.12,2.12c-.14.07-.29.11-.44.11-.55,0-1.03-.48-.95-1.09l.67-5.08c.1-.78-.14-1.57-.67-2.15l-3.44-3.77c-.51-.56-.21-1.45.53-1.59l4.71-.88c.82-.15,1.51-.68,1.89-1.42l2.18-4.33c.18-.35.52-.53.85-.53M18,0c-3.24,0-6.17,1.8-7.63,4.7l-1.09,2.15-2.32.44c-3.04.57-5.54,2.75-6.52,5.68-.98,2.94-.3,6.18,1.79,8.47l1.9,2.08-.37,2.82c-.32,2.44.42,4.9,2.04,6.75,1.62,1.85,3.97,2.91,6.42,2.91,1.35,0,2.7-.33,3.91-.95l1.87-.96,1.87.96c1.21.62,2.56.95,3.91.95,2.46,0,4.8-1.06,6.42-2.91,1.62-1.85,2.36-4.31,2.04-6.75l-.37-2.82,1.9-2.08c2.08-2.29,2.77-5.53,1.79-8.47-.98-2.93-3.48-5.11-6.52-5.68l-2.32-.44-1.09-2.15c-1.46-2.9-4.38-4.7-7.63-4.7h0Z"/>
</svg>