<?xml version="1.0" encoding="UTF-8"?>
<svg id="Layer_1" xmlns="http://www.w3.org/2000/svg" version="1.1" viewBox="0 0 86 86">
  <!-- Generator: Adobe Illustrator 30.1.0, SVG Export Plug-In . SVG Version: 2.1.1 Build 136)  -->
  <path d="M43,5.97c1.2,0,2.41.62,3.04,1.87l7.75,15.38c1.33,2.64,3.81,4.51,6.71,5.05l16.76,3.14c2.62.49,3.68,3.68,1.89,5.65l-12.21,13.4c-1.88,2.07-2.76,4.86-2.39,7.64l2.38,18.07c.28,2.16-1.43,3.86-3.37,3.86-.51,0-1.04-.12-1.55-.38l-14.66-7.55c-1.36-.7-2.85-1.05-4.33-1.05-1.49,0-2.97.35-4.33,1.05l-14.66,7.55c-.51.26-1.04.38-1.55.38-1.94,0-3.66-1.71-3.37-3.86l2.38-18.07c.37-2.77-.51-5.57-2.39-7.63l-12.21-13.4c-1.8-1.97-.74-5.16,1.89-5.65l16.76-3.14c2.9-.54,5.38-2.41,6.71-5.05l7.75-15.38c.63-1.25,1.83-1.87,3.04-1.87M43,0c-3.56,0-6.76,1.98-8.37,5.16l-7.75,15.38c-.49.97-1.41,1.67-2.48,1.87l-16.76,3.14c-3.34.63-6.08,3.01-7.16,6.24-1.08,3.22-.33,6.79,1.96,9.3l12.21,13.4c.7.77,1.02,1.8.89,2.83l-2.38,18.07c-.35,2.68.46,5.38,2.23,7.4,1.79,2.04,4.36,3.21,7.05,3.21,1.48,0,2.96-.36,4.29-1.05l14.66-7.55c.49-.25,1.05-.39,1.6-.39.55,0,1.11.13,1.6.39l14.66,7.55c1.33.68,2.81,1.05,4.29,1.05,2.69,0,5.26-1.17,7.05-3.21,1.77-2.02,2.59-4.72,2.23-7.4l-2.38-18.07c-.14-1.04.19-2.07.89-2.84l12.21-13.4c2.29-2.51,3.04-6.07,1.96-9.3-1.08-3.22-3.82-5.61-7.16-6.23l-16.76-3.14c-1.06-.2-1.99-.9-2.48-1.87l-7.75-15.38c-1.6-3.18-4.81-5.16-8.37-5.16h0Z"/>
</svg>