<?xml version="1.0" encoding="UTF-8"?>
<svg id="Layer_1" xmlns="http://www.w3.org/2000/svg" version="1.1" viewBox="0 0 86 86">
  <!-- Generator: Adobe Illustrator 30.1.0, SVG Export Plug-In . SVG Version: 2.1.1 Build 136)  -->
  <path d="M43,18.11c.81,0,1.62.42,2.04,1.26l5.21,10.33c.89,1.77,2.56,3.03,4.51,3.39l11.26,2.11c1.76.33,2.48,2.47,1.27,3.8l-8.21,9.01c-1.27,1.39-1.86,3.27-1.61,5.13l1.6,12.14c.19,1.45-.96,2.6-2.27,2.6-.35,0-.7-.08-1.04-.26l-9.85-5.07c-.91-.47-1.91-.71-2.91-.71-1,0-2,.24-2.91.71l-9.85,5.07c-.34.18-.7.26-1.04.26-1.3,0-2.46-1.15-2.27-2.6l1.6-12.15c.25-1.86-.34-3.74-1.61-5.13l-8.21-9.01c-1.21-1.33-.49-3.47,1.27-3.8l11.26-2.11c1.95-.36,3.61-1.62,4.51-3.39l5.21-10.34c.42-.84,1.23-1.26,2.04-1.26M43,0C35.25,0,28.27,4.3,24.78,11.22l-2.59,5.15-5.54,1.04c-7.27,1.36-13.24,6.56-15.59,13.57-2.35,7.01-.71,14.76,4.27,20.23l4.53,4.97-.89,6.74c-.77,5.83,1.01,11.7,4.88,16.12,3.88,4.42,9.47,6.96,15.34,6.96,3.23,0,6.46-.78,9.34-2.27l4.47-2.3,4.47,2.3c2.88,1.48,6.11,2.27,9.34,2.27,0,0,0,0,0,0,5.87,0,11.47-2.54,15.34-6.96,3.87-4.41,5.65-10.29,4.88-16.12l-.89-6.74,4.53-4.97c4.98-5.47,6.62-13.22,4.27-20.23-2.35-7.01-8.32-12.21-15.58-13.57l-5.55-1.04-2.59-5.15C57.73,4.3,50.75,0,43,0h0Z"/>
</svg>