<?xml version="1.0" encoding="UTF-8"?>
<svg id="Layer_1" xmlns="http://www.w3.org/2000/svg" version="1.1" viewBox="0 0 59 59">
  <!-- Generator: Adobe Illustrator 30.1.0, SVG Export Plug-In . SVG Version: 2.1.1 Build 136)  -->
  <path d="M29.5,12.43c.56,0,1.11.29,1.4.86l3.57,7.09c.61,1.22,1.76,2.08,3.09,2.33l7.73,1.45c1.21.23,1.7,1.69.87,2.6l-5.63,6.18c-.87.95-1.27,2.24-1.1,3.52l1.1,8.33c.13.99-.66,1.78-1.55,1.78-.24,0-.48-.06-.72-.18l-6.76-3.48c-.63-.32-1.31-.48-2-.48s-1.37.16-2,.48l-6.76,3.48c-.24.12-.48.18-.72.18-.89,0-1.69-.79-1.55-1.78l1.1-8.33c.17-1.28-.23-2.57-1.1-3.52l-5.63-6.18c-.83-.91-.34-2.38.87-2.61l7.73-1.45c1.34-.25,2.48-1.11,3.09-2.33l3.57-7.09c.29-.58.85-.86,1.4-.86M29.5,0C24.18,0,19.39,2.95,17,7.7l-1.78,3.53-3.8.71c-4.98.93-9.08,4.5-10.69,9.31-1.61,4.81-.49,10.13,2.93,13.88l3.11,3.41-.61,4.62c-.53,4,.69,8.03,3.35,11.06,2.66,3.04,6.5,4.78,10.53,4.78,2.21,0,4.43-.54,6.41-1.56l3.07-1.58,3.07,1.58c1.98,1.02,4.19,1.56,6.41,1.56,4.03,0,7.87-1.74,10.53-4.78,2.65-3.03,3.87-7.06,3.35-11.06l-.61-4.62,3.11-3.41c3.42-3.75,4.54-9.07,2.93-13.88-1.61-4.81-5.71-8.38-10.69-9.31l-3.81-.71-1.78-3.53C39.61,2.95,34.82,0,29.5,0h0Z"/>
</svg>