<?xml version="1.0" encoding="UTF-8"?>
<svg id="Layer_1" xmlns="http://www.w3.org/2000/svg" version="1.1" viewBox="0 0 59 59">
  <!-- Generator: Adobe Illustrator 30.1.0, SVG Export Plug-In . SVG Version: 2.1.1 Build 136)  -->
  <path d="M29.5,7.21c.72,0,1.45.38,1.83,1.13l4.66,9.26c.8,1.59,2.29,2.71,4.04,3.04l10.09,1.89c1.58.3,2.22,2.21,1.14,3.4l-7.35,8.07c-1.13,1.24-1.66,2.93-1.44,4.6l1.43,10.88c.17,1.3-.86,2.33-2.03,2.33-.31,0-.63-.07-.94-.23l-8.82-4.54c-.82-.42-1.71-.63-2.61-.63-.89,0-1.79.21-2.61.63l-8.82,4.54c-.31.16-.63.23-.94.23-1.17,0-2.2-1.03-2.03-2.33l1.43-10.88c.22-1.67-.31-3.35-1.44-4.59l-7.35-8.07c-1.08-1.19-.44-3.11,1.14-3.4l10.09-1.89c1.74-.33,3.24-1.45,4.04-3.04l4.66-9.26c.38-.75,1.1-1.13,1.83-1.13M29.5,0c-3.52,0-6.68,1.95-8.27,5.09l-4.33,8.59-9.35,1.75c-3.3.62-6.01,2.98-7.07,6.16-1.07,3.18-.32,6.7,1.94,9.18l6.88,7.55-1.34,10.19c-.35,2.65.46,5.31,2.21,7.31,1.76,2.01,4.3,3.16,6.97,3.16,1.46,0,2.93-.36,4.24-1.03l8.13-4.19,8.13,4.19c1.31.67,2.77,1.03,4.24,1.03,2.66,0,5.2-1.15,6.97-3.16,1.75-2,2.56-4.67,2.21-7.31l-1.34-10.19,6.88-7.55c2.26-2.48,3-6,1.94-9.18-1.07-3.18-3.78-5.54-7.07-6.16l-9.35-1.75-4.33-8.59c-1.58-3.14-4.75-5.09-8.27-5.09h0Z"/>
</svg>