<?xml version="1.0" encoding="UTF-8"?>
<svg id="Layer_1" xmlns="http://www.w3.org/2000/svg" version="1.1" viewBox="0 0 45 45">
  <!-- Generator: Adobe Illustrator 30.1.0, SVG Export Plug-In . SVG Version: 2.1.1 Build 136)  -->
  <path d="M22.5,8.69c.45,0,.9.23,1.13.7l2.89,5.73c.5.98,1.42,1.68,2.5,1.88l6.25,1.17c.98.18,1.37,1.37.7,2.11l-4.55,5c-.7.77-1.03,1.81-.89,2.85l.89,6.74c.11.8-.53,1.44-1.26,1.44-.19,0-.39-.04-.58-.14l-5.47-2.82c-.51-.26-1.06-.39-1.61-.39s-1.11.13-1.61.39l-5.47,2.82c-.19.1-.39.14-.58.14-.72,0-1.36-.64-1.26-1.44l.89-6.74c.14-1.03-.19-2.08-.89-2.85l-4.55-5c-.67-.74-.27-1.92.7-2.11l6.25-1.17c1.08-.2,2.01-.9,2.5-1.88l2.89-5.74c.23-.47.68-.7,1.13-.7M22.5,0c-3.78,0-7.19,2.1-8.89,5.48l-1.74,3.46-3.74.7c-3.55.66-6.46,3.2-7.61,6.63-1.15,3.42-.35,7.21,2.08,9.88l2.94,3.23-.58,4.37c-.38,2.85.49,5.71,2.38,7.87,1.89,2.16,4.62,3.4,7.49,3.4,1.58,0,3.15-.38,4.56-1.11l3.1-1.6,3.1,1.6c1.41.72,2.98,1.11,4.56,1.11,2.87,0,5.6-1.24,7.49-3.4,1.89-2.15,2.76-5.02,2.38-7.87l-.58-4.37,2.94-3.23c2.43-2.67,3.23-6.45,2.08-9.88-1.15-3.42-4.06-5.96-7.61-6.63l-3.74-.7-1.74-3.46c-1.7-3.38-5.11-5.48-8.89-5.48h0Z"/>
</svg>