<?xml version="1.0" encoding="UTF-8"?>
<svg id="Layer_1" xmlns="http://www.w3.org/2000/svg" version="1.1" viewBox="0 0 45 45">
  <!-- Generator: Adobe Illustrator 30.1.0, SVG Export Plug-In . SVG Version: 2.1.1 Build 136)  -->
  <path d="M22.5,9.48c.42,0,.85.22,1.07.66l2.72,5.41c.47.93,1.34,1.58,2.36,1.78l5.89,1.1c.92.17,1.3,1.29.66,1.99l-4.29,4.71c-.66.73-.97,1.71-.84,2.69l.84,6.35c.1.76-.5,1.36-1.19,1.36-.18,0-.37-.04-.55-.13l-5.16-2.65c-.48-.25-1-.37-1.52-.37s-1.04.12-1.52.37l-5.16,2.65c-.18.09-.37.13-.55.13-.68,0-1.29-.6-1.19-1.36l.84-6.36c.13-.97-.18-1.96-.84-2.68l-4.29-4.71c-.63-.69-.26-1.81.66-1.99l5.89-1.1c1.02-.19,1.89-.85,2.36-1.77l2.72-5.41c.22-.44.64-.66,1.07-.66M22.5,0C18.44,0,14.79,2.25,12.97,5.87l-1.36,2.69-2.9.54c-3.8.71-6.93,3.43-8.16,7.1-1.23,3.67-.37,7.73,2.23,10.59l2.37,2.6-.47,3.53c-.4,3.05.53,6.12,2.55,8.43,2.03,2.32,4.96,3.64,8.03,3.64,1.69,0,3.38-.41,4.89-1.19l2.34-1.2,2.34,1.2c1.51.78,3.2,1.19,4.89,1.19,3.07,0,6-1.33,8.03-3.64,2.02-2.31,2.96-5.38,2.55-8.43l-.47-3.53,2.37-2.6c2.61-2.86,3.46-6.92,2.23-10.58-1.23-3.67-4.35-6.39-8.15-7.1l-2.9-.54-1.36-2.69C30.21,2.25,26.55,0,22.5,0h0Z"/>
</svg>