<?xml version="1.0" encoding="UTF-8"?>
<svg id="Layer_1" xmlns="http://www.w3.org/2000/svg" version="1.1" viewBox="0 0 45 45">
  <!-- Generator: Adobe Illustrator 30.1.0, SVG Export Plug-In . SVG Version: 2.1.1 Build 136)  -->
  <path d="M22.5,5.5c.55,0,1.11.29,1.39.86l3.56,7.06c.61,1.21,1.75,2.07,3.08,2.32l7.69,1.44c1.2.23,1.69,1.69.87,2.59l-5.61,6.15c-.87.95-1.27,2.23-1.1,3.51l1.09,8.3c.13.99-.66,1.77-1.55,1.77-.24,0-.48-.06-.71-.18l-6.73-3.47c-.62-.32-1.31-.48-1.99-.48-.68,0-1.36.16-1.99.48l-6.73,3.47c-.23.12-.48.18-.71.18-.89,0-1.68-.78-1.55-1.77l1.09-8.3c.17-1.27-.23-2.56-1.1-3.5l-5.61-6.15c-.83-.91-.34-2.37.87-2.6l7.69-1.44c1.33-.25,2.47-1.11,3.08-2.32l3.56-7.06c.29-.57.84-.86,1.39-.86M22.5,0C19.82,0,17.4,1.49,16.19,3.88l-3.3,6.55-7.13,1.34c-2.51.47-4.58,2.27-5.39,4.7-.81,2.43-.25,5.11,1.48,7l5.25,5.76-1.03,7.77c-.27,2.02.35,4.05,1.69,5.58,1.34,1.53,3.28,2.41,5.31,2.41,1.12,0,2.23-.27,3.23-.79l6.2-3.19,6.2,3.19c1,.51,2.12.79,3.23.79,2.03,0,3.97-.88,5.31-2.41,1.34-1.53,1.95-3.56,1.69-5.58l-1.03-7.77,5.25-5.76c1.72-1.89,2.29-4.58,1.48-7-.81-2.43-2.88-4.23-5.39-4.7l-7.13-1.34-3.3-6.55C27.6,1.49,25.18,0,22.5,0h0Z"/>
</svg>