<?xml version="1.0" encoding="UTF-8"?>
<svg id="Layer_1" xmlns="http://www.w3.org/2000/svg" version="1.1" viewBox="0 0 45 45">
  <!-- Generator: Adobe Illustrator 30.1.0, SVG Export Plug-In . SVG Version: 2.1.1 Build 136)  -->
  <path d="M22.5,3.12c.63,0,1.26.33,1.59.98l4.05,8.05c.7,1.38,1.99,2.36,3.51,2.64l8.77,1.64c1.37.26,1.93,1.92.99,2.96l-6.39,7.01c-.99,1.08-1.44,2.55-1.25,4l1.25,9.45c.15,1.13-.75,2.02-1.76,2.02-.27,0-.55-.06-.81-.2l-7.67-3.95c-.71-.37-1.49-.55-2.27-.55-.78,0-1.55.18-2.27.55l-7.67,3.95c-.27.14-.54.2-.81.2-1.01,0-1.91-.89-1.76-2.02l1.25-9.46c.19-1.45-.27-2.91-1.25-3.99l-6.39-7.01c-.94-1.03-.38-2.7.99-2.96l8.77-1.64c1.52-.28,2.81-1.26,3.51-2.64l4.05-8.05c.33-.65.96-.98,1.59-.98M22.5,0C20.64,0,18.96,1.03,18.12,2.7l-4.05,8.05c-.26.51-.74.87-1.3.98l-8.77,1.64c-1.75.33-3.18,1.58-3.75,3.26-.57,1.69-.17,3.55,1.03,4.87l6.39,7.01c.37.4.54.94.46,1.48l-1.25,9.46c-.18,1.4.24,2.81,1.17,3.87.94,1.07,2.28,1.68,3.69,1.68.77,0,1.55-.19,2.24-.55l7.67-3.95c.26-.13.55-.2.84-.2.29,0,.58.07.84.2l7.67,3.95c.69.36,1.47.55,2.24.55,1.41,0,2.75-.61,3.69-1.68.93-1.06,1.35-2.47,1.17-3.87l-1.25-9.45c-.07-.54.1-1.08.47-1.49l6.39-7.01c1.2-1.31,1.59-3.18,1.03-4.87-.56-1.69-2-2.94-3.74-3.26l-8.77-1.64c-.56-.1-1.04-.47-1.3-.98l-4.05-8.05C26.04,1.03,24.36,0,22.5,0h0Z"/>
</svg>