<?xml version="1.0" encoding="UTF-8"?>
<svg id="Layer_1" xmlns="http://www.w3.org/2000/svg" version="1.1" viewBox="0 0 45 45">
  <!-- Generator: Adobe Illustrator 30.1.0, SVG Export Plug-In . SVG Version: 2.1.1 Build 136)  -->
  <path d="M22.5,3.91c.6,0,1.21.31,1.52.94l3.89,7.72c.67,1.32,1.91,2.26,3.37,2.53l8.41,1.58c1.32.25,1.85,1.85.95,2.84l-6.13,6.73c-.95,1.04-1.39,2.44-1.2,3.84l1.2,9.07c.14,1.08-.72,1.94-1.69,1.94-.26,0-.52-.06-.78-.19l-7.36-3.79c-.68-.35-1.43-.53-2.17-.53s-1.49.18-2.17.53l-7.36,3.79c-.26.13-.52.19-.78.19-.97,0-1.84-.86-1.69-1.94l1.2-9.07c.18-1.39-.26-2.79-1.2-3.83l-6.13-6.73c-.9-.99-.37-2.59.95-2.84l8.41-1.58c1.45-.27,2.7-1.21,3.37-2.53l3.89-7.72c.32-.63.92-.94,1.52-.94M22.5,0c-2.13,0-4.06,1.18-5.02,3.09l-3.89,7.72c-.12.23-.34.4-.6.45l-8.41,1.58c-2,.38-3.65,1.81-4.29,3.74-.65,1.93-.2,4.07,1.18,5.57l6.13,6.73c.17.19.25.44.21.69l-1.2,9.07c-.21,1.61.28,3.22,1.34,4.44,1.07,1.22,2.61,1.92,4.23,1.92.89,0,1.77-.22,2.57-.63l7.36-3.79c.12-.06.25-.09.38-.09s.26.03.38.09l7.36,3.79c.8.41,1.68.63,2.57.63,1.62,0,3.16-.7,4.23-1.92,1.06-1.21,1.55-2.83,1.34-4.44l-1.2-9.07c-.03-.25.05-.5.22-.69l6.13-6.73c1.37-1.51,1.82-3.64,1.18-5.57-.65-1.93-2.29-3.36-4.29-3.74l-8.41-1.58c-.26-.05-.48-.22-.6-.45l-3.89-7.72c-.96-1.91-2.88-3.09-5.02-3.09h0Z"/>
</svg>