<?xml version="1.0" encoding="UTF-8"?>
<svg id="Layer_1" xmlns="http://www.w3.org/2000/svg" version="1.1" viewBox="0 0 110 110">
  <!-- Generator: Adobe Illustrator 30.1.0, SVG Export Plug-In . SVG Version: 2.1.1 Build 136)  -->
  <path d="M55,9.56c1.48,0,2.96.77,3.73,2.3l9.51,18.87c1.63,3.24,4.68,5.53,8.23,6.2l20.57,3.86c3.22.6,4.52,4.51,2.31,6.93l-14.99,16.44c-2.31,2.54-3.39,5.97-2.94,9.38l2.92,22.17c.35,2.65-1.76,4.74-4.14,4.74-.63,0-1.28-.15-1.91-.47l-17.99-9.27c-1.67-.86-3.49-1.29-5.31-1.29-1.82,0-3.65.43-5.31,1.29l-17.99,9.27c-.63.32-1.28.47-1.91.47-2.38,0-4.49-2.09-4.14-4.74l2.93-22.18c.45-3.4-.63-6.83-2.93-9.36l-14.99-16.45c-2.21-2.42-.9-6.33,2.32-6.94l20.57-3.85c3.56-.67,6.6-2.96,8.23-6.19l9.51-18.87c.77-1.53,2.25-2.3,3.73-2.3M55,0C49.78,0,45.08,2.9,42.74,7.56l-9.51,18.87c-.29.57-.83.98-1.45,1.1l-20.57,3.85c-4.89.92-8.91,4.42-10.49,9.14-1.58,4.72-.48,9.95,2.87,13.63l14.99,16.45c.41.45.6,1.07.52,1.68l-2.93,22.18c-.52,3.93.68,7.88,3.28,10.85,2.62,2.99,6.39,4.7,10.33,4.7,2.17,0,4.34-.53,6.28-1.53l17.99-9.27c.29-.15.61-.23.94-.23.33,0,.65.08.94.23l17.99,9.27c1.94,1,4.12,1.53,6.28,1.53,3.95,0,7.72-1.71,10.33-4.7,2.6-2.97,3.79-6.92,3.28-10.85l-2.92-22.17c-.08-.62.11-1.23.53-1.69l14.99-16.44c3.35-3.68,4.46-8.9,2.87-13.62-1.58-4.72-5.6-8.22-10.49-9.14l-20.57-3.86c-.62-.12-1.17-.53-1.46-1.1l-9.51-18.87C64.91,2.9,60.21,0,55,0h0Z"/>
</svg>