<?xml version="1.0" encoding="UTF-8"?>
<svg id="Layer_1" xmlns="http://www.w3.org/2000/svg" version="1.1" viewBox="0 0 110 110">
  <!-- Generator: Adobe Illustrator 30.1.0, SVG Export Plug-In . SVG Version: 2.1.1 Build 136)  -->
  <path d="M55,13.44c1.35,0,2.7.7,3.41,2.1l8.69,17.26c1.49,2.96,4.28,5.06,7.53,5.67l18.81,3.53c2.94.55,4.13,4.13,2.12,6.34l-13.7,15.04c-2.11,2.32-3.1,5.46-2.69,8.57l2.67,20.28c.32,2.42-1.61,4.33-3.78,4.33-.58,0-1.17-.13-1.74-.43l-16.45-8.47c-1.52-.79-3.19-1.18-4.86-1.18-1.67,0-3.33.39-4.86,1.18l-16.45,8.47c-.57.3-1.17.43-1.74.43-2.18,0-4.1-1.92-3.78-4.34l2.68-20.28c.41-3.11-.57-6.25-2.68-8.56l-13.71-15.04c-2.02-2.22-.83-5.79,2.12-6.34l18.81-3.53c3.25-.61,6.03-2.7,7.53-5.66l8.7-17.26c.71-1.4,2.06-2.1,3.41-2.1M55,0C48.44,0,42.54,3.64,39.59,9.5l-8.07,16.02-17.43,3.27c-6.15,1.15-11.2,5.55-13.19,11.49-1.99,5.94-.6,12.5,3.61,17.12l12.83,14.08-2.51,19c-.65,4.93.85,9.9,4.12,13.63,3.29,3.75,8.02,5.9,12.99,5.9,2.73,0,5.46-.66,7.9-1.92l15.16-7.81,15.16,7.81c2.44,1.26,5.17,1.92,7.9,1.92,4.97,0,9.7-2.15,12.99-5.9,3.27-3.73,4.77-8.7,4.12-13.63l-2.51-19,12.83-14.08c4.21-4.63,5.6-11.19,3.61-17.12-1.99-5.93-7.04-10.33-13.18-11.48l-17.44-3.27-8.07-16.02C67.46,3.64,61.55,0,55,0h0Z"/>
</svg>