<?xml version="1.0" encoding="UTF-8"?>
<svg id="Layer_1" xmlns="http://www.w3.org/2000/svg" version="1.1" viewBox="0 0 27 27">
  <!-- Generator: Adobe Illustrator 30.1.0, SVG Export Plug-In . SVG Version: 2.1.1 Build 136)  -->
  <circle id="Outer" cx="13.5" cy="13.5" r="12.56" fill="none" stroke="#000" stroke-width="1.87"/>
  <g>
    <g>
      <rect x="12.65" y="18.13" width="1.69" height="1.69"/>
      <path d="M14.21,18.26v1.44h-1.44v-1.44h1.44M14.46,18.01h-1.94v1.94h1.94v-1.94h0Z"/>
    </g>
    <g>
      <path d="M12.65,16.25v-.67c0-.71.26-1.39.74-1.92l1.42-1.58c.37-.41.57-.94.57-1.48,0-.78-.64-1.41-1.42-1.41h-.91c-.79,0-1.43.63-1.43,1.41v.13h-1.7v-.13c0-1.71,1.4-3.11,3.13-3.11h.91c1.72,0,3.13,1.39,3.13,3.11,0,.97-.36,1.89-1.01,2.61l-1.42,1.58c-.2.22-.31.5-.31.79v.67h-1.7Z"/>
      <path d="M13.96,7.62c1.66,0,3,1.34,3,2.98,0,.94-.35,1.83-.97,2.53l-1.42,1.58c-.22.24-.34.55-.34.88v.54h-1.44v-.54c0-.68.25-1.33.71-1.84l1.42-1.58c.39-.43.6-.99.6-1.57,0-.85-.7-1.54-1.55-1.54h-.91c-.86,0-1.55.69-1.55,1.54h-1.45c0-1.64,1.35-2.98,3-2.98h.91M13.96,7.36h-.91c-1.79,0-3.25,1.45-3.25,3.23v.25h1.96v-.25c0-.71.58-1.29,1.3-1.29h.91c.72,0,1.3.58,1.3,1.29,0,.52-.19,1.01-.54,1.4l-1.42,1.58c-.5.55-.77,1.26-.78,2.01v.55s0,.25,0,.25h1.94v-.25s0-.54,0-.54c0-.26.1-.51.28-.71l1.42-1.58c.67-.74,1.04-1.7,1.04-2.7,0-1.78-1.46-3.23-3.25-3.23h0Z"/>
    </g>
  </g>
</svg>