<?xml version="1.0" encoding="UTF-8"?>
<svg id="Layer_1" xmlns="http://www.w3.org/2000/svg" version="1.1" viewBox="0 0 27 27">
  <!-- Generator: Adobe Illustrator 30.1.0, SVG Export Plug-In . SVG Version: 2.1.1 Build 136)  -->
  <circle id="Outer" cx="13.5" cy="13.5" r="11.85" fill="none" stroke="#000" stroke-width="3.3"/>
  <g>
    <g>
      <rect x="12.65" y="17.6" width="1.69" height="1.69"/>
      <path d="M14.09,17.85v1.19h-1.19v-1.19h1.19M14.59,17.35h-2.2v2.2h2.2v-2.2h0Z"/>
    </g>
    <g>
      <path d="M12.65,15.79v-.7c0-.63.23-1.23.65-1.69l1.18-1.3c.28-.31.43-.71.43-1.12,0-.56-.46-1.02-1.03-1.02h-.75c-.57,0-1.03.46-1.03,1.02v.25h-1.7v-.25c0-1.5,1.23-2.71,2.73-2.71h.75c1.51,0,2.73,1.22,2.73,2.71,0,.83-.31,1.64-.87,2.26l-1.18,1.3c-.14.16-.22.35-.22.55v.7h-1.7Z"/>
      <path d="M13.88,8.52c1.37,0,2.48,1.1,2.48,2.46,0,.77-.29,1.51-.8,2.09l-1.18,1.3c-.18.2-.28.45-.28.72v.45h-1.19v-.45c0-.56.21-1.1.58-1.52l1.18-1.3c.32-.36.5-.82.5-1.29,0-.7-.57-1.27-1.28-1.27h-.75c-.71,0-1.28.57-1.28,1.27h-1.2c0-1.36,1.11-2.46,2.48-2.46h.75M13.88,8.01h-.75c-1.65,0-2.98,1.33-2.98,2.97v.51h2.21v-.51c0-.42.35-.77.77-.77h.75c.43,0,.77.34.77.77,0,.35-.13.69-.37.96l-1.18,1.3c-.46.51-.72,1.17-.72,1.85v.46s0,.5,0,.5h2.19v-.5s0-.45,0-.45c0-.15.05-.28.15-.39l1.18-1.3c.6-.67.94-1.53.94-2.43,0-1.64-1.34-2.97-2.98-2.97h0Z"/>
    </g>
  </g>
</svg>