<?xml version="1.0" encoding="UTF-8"?>
<svg id="Layer_1" xmlns="http://www.w3.org/2000/svg" version="1.1" viewBox="0 0 27 27">
  <!-- Generator: Adobe Illustrator 30.1.0, SVG Export Plug-In . SVG Version: 2.1.1 Build 136)  -->
  <circle id="Outer" cx="13.5" cy="13.5" r="10.89" fill="none" stroke="#000" stroke-width="5.21"/>
  <g>
    <g>
      <rect x="12.63" y="16.87" width="1.72" height="1.72"/>
      <path d="M13.93,17.29v.88h-.88v-.88h.88M14.78,16.44h-2.56v2.56h2.56v-2.56h0Z"/>
    </g>
    <g>
      <path d="M12.64,15.26v-.75c0-.52.19-1.02.54-1.41l.87-.96c.17-.19.26-.42.26-.67,0-.29-.24-.52-.52-.52h-.56c-.29,0-.52.23-.52.52v.42h-1.73v-.42c0-1.23,1.01-2.24,2.25-2.24h.56c1.24,0,2.25,1,2.25,2.24,0,.67-.25,1.32-.7,1.82l-.87.96c-.07.07-.1.16-.1.25v.75h-1.72Z"/>
      <path d="M13.78,9.65c1.01,0,1.83.82,1.83,1.82,0,.57-.21,1.12-.59,1.54l-.87.96c-.13.15-.21.33-.21.53v.33h-.88v-.33c0-.42.15-.81.43-1.12l.87-.96c.24-.26.37-.6.37-.96,0-.52-.42-.94-.95-.94h-.56c-.52,0-.95.42-.95.94h-.88c0-1,.82-1.82,1.83-1.82h.56M13.78,8.81h-.56c-1.47,0-2.67,1.19-2.67,2.66v.84h2.57v-.84c0-.05.05-.1.1-.1h.56c.06,0,.1.04.1.1,0,.14-.05.28-.15.39l-.87.96c-.42.46-.65,1.06-.65,1.68v.34s.01.84.01.84h2.55v-.84s.01-.33.01-.33l.86-.94c.52-.58.81-1.33.81-2.11,0-1.47-1.2-2.66-2.67-2.66h0Z"/>
    </g>
  </g>
</svg>