<?xml version="1.0" encoding="UTF-8"?>
<svg id="Layer_1" xmlns="http://www.w3.org/2000/svg" version="1.1" viewBox="0 0 27 27">
  <!-- Generator: Adobe Illustrator 30.1.0, SVG Export Plug-In . SVG Version: 2.1.1 Build 136)  -->
  <circle id="Outer" cx="13.5" cy="13.5" r="11.37" fill="none" stroke="#000" stroke-width="4.26"/>
  <g>
    <g>
      <rect x="12.64" y="17.23" width="1.7" height="1.7"/>
      <path d="M14.01,17.57v1.03h-1.03v-1.03h1.03M14.68,16.9h-2.38v2.38h2.38v-2.38h0Z"/>
    </g>
    <g>
      <path d="M12.65,15.51v-.72c0-.57.21-1.12.59-1.54l1.02-1.13c.22-.25.34-.56.34-.89,0-.42-.34-.76-.77-.76h-.65c-.42,0-.77.34-.77.76v.34h-1.71v-.34c0-1.36,1.11-2.47,2.48-2.47h.65c1.37,0,2.48,1.11,2.48,2.47,0,.75-.28,1.47-.78,2.03l-1.02,1.13c-.1.11-.16.25-.16.4v.73h-1.7Z"/>
      <path d="M13.83,9.1c1.18,0,2.14.96,2.14,2.13,0,.67-.25,1.31-.7,1.81l-1.02,1.13c-.16.17-.24.39-.25.63v.39h-1.03v-.39c0-.49.18-.95.51-1.31l1.02-1.13c.28-.31.43-.71.43-1.12,0-.61-.5-1.1-1.11-1.1h-.65c-.61,0-1.11.49-1.11,1.1h-1.04c0-1.17.96-2.13,2.14-2.13h.65M13.83,8.42h-.65c-1.55,0-2.82,1.26-2.82,2.8v.68h2.39v-.68c0-.23.19-.43.43-.43h.65c.24,0,.43.19.43.43,0,.25-.09.48-.26.67l-1.02,1.13c-.44.48-.68,1.11-.68,1.76v.4s0,.67,0,.67h2.36v-.67s.01-.39.01-.39c0-.07.02-.13.07-.18l1.02-1.13c.56-.62.87-1.42.87-2.26,0-1.55-1.26-2.8-2.82-2.8h0Z"/>
    </g>
  </g>
</svg>