<?xml version="1.0" encoding="UTF-8"?>
<svg id="Layer_1" xmlns="http://www.w3.org/2000/svg" version="1.1" viewBox="0 0 27 27">
  <!-- Generator: Adobe Illustrator 30.1.0, SVG Export Plug-In . SVG Version: 2.1.1 Build 136)  -->
  <circle id="Outer" cx="13.5" cy="13.5" r="10.66" fill="none" stroke="#000" stroke-width="5.69"/>
  <g>
    <g>
      <rect x="12.63" y="16.68" width="1.73" height="1.73"/>
      <path d="M13.9,17.15v.81h-.81v-.81h.81M14.82,16.22h-2.66v2.66h2.66v-2.66h0Z"/>
    </g>
    <g>
      <path d="M12.63,15.14v-.76c0-.5.18-.98.51-1.35l.8-.88c.14-.16.22-.36.22-.57,0-.22-.18-.4-.41-.4h-.51c-.22,0-.41.18-.41.4v.46h-1.74v-.46c0-1.18.96-2.13,2.15-2.13h.51c1.18,0,2.15.96,2.15,2.13,0,.64-.24,1.25-.67,1.73l-.8.88c-.05.05-.07.11-.07.18v.77h-1.73Z"/>
      <path d="M13.76,9.91c.93,0,1.68.75,1.68,1.67,0,.52-.19,1.03-.55,1.42l-.8.88c-.12.14-.19.31-.19.49v.3h-.81v-.3c0-.38.14-.75.4-1.03l.8-.88c.22-.24.34-.55.34-.88,0-.48-.39-.86-.87-.86h-.51c-.48,0-.87.39-.87.86h-.81c0-.92.75-1.67,1.68-1.67h.51M13.76,8.99h-.51c-1.44,0-2.61,1.17-2.61,2.6v.93h2.36l-.19.21c-.41.45-.64,1.04-.64,1.65v.32s.01.92.01.92h2.64v-.92s.01-.23.01-.23l.75-.83c.51-.56.78-1.28.78-2.04,0-1.43-1.17-2.6-2.61-2.6h0ZM13.3,11.65h.39c-.01.07-.04.14-.09.19l-.29.33v-.52h0Z"/>
    </g>
  </g>
</svg>