<?xml version="1.0" encoding="UTF-8"?>
<svg id="Layer_1" xmlns="http://www.w3.org/2000/svg" version="1.1" viewBox="0 0 27 27">
  <!-- Generator: Adobe Illustrator 30.1.0, SVG Export Plug-In . SVG Version: 2.1.1 Build 136)  -->
  <circle id="Outer" cx="13.5" cy="13.5" r="12.33" fill="none" stroke="#000" stroke-width="2.35"/>
  <g>
    <g>
      <rect x="12.65" y="17.96" width="1.69" height="1.69"/>
      <path d="M14.17,18.13v1.35h-1.35v-1.35h1.35M14.51,17.79h-2.03v2.03h2.03v-2.03h0Z"/>
    </g>
    <g>
      <path d="M12.65,16.09v-.68c0-.68.25-1.34.71-1.84l1.34-1.48c.34-.37.52-.86.52-1.36,0-.71-.58-1.28-1.29-1.28h-.86c-.71,0-1.29.57-1.29,1.28v.17h-1.7v-.17c0-1.64,1.34-2.97,2.99-2.97h.86c1.65,0,2.99,1.33,2.99,2.97,0,.92-.34,1.81-.96,2.49l-1.34,1.48c-.18.2-.28.45-.28.71v.68h-1.69Z"/>
      <path d="M13.93,7.92c1.56,0,2.82,1.26,2.82,2.8,0,.88-.33,1.72-.92,2.38l-1.34,1.48c-.21.23-.32.51-.32.82v.51h-1.36v-.51c0-.64.23-1.25.67-1.73l1.34-1.48c.37-.41.57-.93.57-1.48,0-.8-.65-1.45-1.46-1.45h-.86c-.8,0-1.46.65-1.46,1.45h-1.36c0-1.55,1.27-2.8,2.82-2.8h.86M13.93,7.58h-.86c-1.74,0-3.16,1.41-3.16,3.14v.34h2.04v-.34c0-.61.5-1.11,1.12-1.11h.86c.62,0,1.12.5,1.12,1.11,0,.46-.17.91-.48,1.25l-1.34,1.48c-.49.54-.75,1.23-.76,1.95v.52s0,.33,0,.33h2.02v-.33s0-.51,0-.51c0-.22.08-.43.24-.6l1.34-1.48c.65-.72,1-1.64,1-2.61,0-1.73-1.42-3.14-3.16-3.14h0Z"/>
    </g>
  </g>
</svg>