<?xml version="1.0" encoding="UTF-8"?>
<svg id="Layer_1" xmlns="http://www.w3.org/2000/svg" version="1.1" viewBox="0 0 15 15">
  <!-- Generator: Adobe Illustrator 30.1.0, SVG Export Plug-In . SVG Version: 2.1.1 Build 136)  -->
  <path d="M7.5,2.9c.15,0,.3.08.38.23l.96,1.91c.17.33.47.56.83.63l2.08.39c.33.06.46.46.23.7l-1.52,1.67c-.23.26-.34.6-.3.95l.3,2.25c.04.27-.18.48-.42.48-.06,0-.13-.01-.19-.05l-1.82-.94c-.17-.09-.35-.13-.54-.13s-.37.04-.54.13l-1.82.94c-.06.03-.13.05-.19.05-.24,0-.45-.21-.42-.48l.3-2.25c.05-.34-.06-.69-.3-.95l-1.52-1.67c-.22-.25-.09-.64.23-.7l2.08-.39c.36-.07.67-.3.83-.63l.96-1.91c.08-.16.23-.23.38-.23M7.5,0c-1.26,0-2.4.7-2.96,1.83l-.58,1.15-1.25.23c-1.18.22-2.15,1.07-2.54,2.21-.38,1.14-.12,2.4.69,3.29l.98,1.08-.19,1.46c-.13.95.16,1.9.79,2.62.63.72,1.54,1.13,2.5,1.13.53,0,1.05-.13,1.52-.37l1.03-.53,1.03.53c.47.24.99.37,1.52.37.96,0,1.87-.41,2.5-1.13.63-.72.92-1.67.79-2.62l-.19-1.46.98-1.08c.81-.89,1.08-2.15.69-3.29-.38-1.14-1.35-1.99-2.54-2.21l-1.25-.23-.58-1.15C9.9.7,8.76,0,7.5,0h0Z"/>
</svg>