<?xml version="1.0" encoding="UTF-8"?>
<svg id="Layer_1" xmlns="http://www.w3.org/2000/svg" version="1.1" viewBox="0 0 15 15">
  <!-- Generator: Adobe Illustrator 30.1.0, SVG Export Plug-In . SVG Version: 2.1.1 Build 136)  -->
  <path d="M7.5,3.16c.14,0,.28.07.36.22l.91,1.8c.16.31.45.53.79.59l1.96.37c.31.06.43.43.22.66l-1.43,1.57c-.22.24-.32.57-.28.9l.28,2.12c.03.25-.17.45-.4.45-.06,0-.12-.01-.18-.04l-1.72-.88c-.16-.08-.33-.12-.51-.12s-.35.04-.51.12l-1.72.88c-.06.03-.12.04-.18.04-.23,0-.43-.2-.4-.45l.28-2.12c.04-.33-.06-.65-.28-.89l-1.43-1.57c-.21-.23-.09-.6.22-.66l1.96-.37c.34-.06.63-.28.79-.59l.91-1.8c.07-.15.21-.22.36-.22M7.5,0C6.15,0,4.93.75,4.32,1.96l-.45.9-.97.18c-1.27.24-2.31,1.14-2.72,2.37-.41,1.22-.12,2.58.74,3.53l.79.87-.16,1.18c-.13,1.02.18,2.04.85,2.81.68.77,1.65,1.21,2.68,1.21.56,0,1.13-.14,1.63-.4l.78-.4.78.4c.5.26,1.07.4,1.63.4,1.02,0,2-.44,2.68-1.21.67-.77.99-1.79.85-2.81l-.16-1.18.79-.87c.87-.95,1.15-2.31.74-3.53-.41-1.22-1.45-2.13-2.72-2.37l-.97-.18-.45-.9C10.07.75,8.85,0,7.5,0h0Z"/>
</svg>