<?xml version="1.0" encoding="UTF-8"?>
<svg id="Layer_1" xmlns="http://www.w3.org/2000/svg" version="1.1" viewBox="0 0 15 15">
  <!-- Generator: Adobe Illustrator 30.1.0, SVG Export Plug-In . SVG Version: 2.1.1 Build 136)  -->
  <path d="M7.5,2.37c.17,0,.33.09.42.26l1.07,2.13c.18.37.53.62.93.7l2.32.44c.36.07.51.51.26.78l-1.69,1.86c-.26.29-.38.67-.33,1.06l.33,2.5c.04.3-.2.54-.47.54-.07,0-.14-.02-.22-.05l-2.03-1.05c-.19-.1-.39-.15-.6-.15s-.41.05-.6.15l-2.03,1.05c-.07.04-.14.05-.22.05-.27,0-.51-.24-.47-.54l.33-2.51c.05-.38-.07-.77-.33-1.06l-1.69-1.86c-.25-.27-.1-.72.26-.78l2.32-.44c.4-.08.75-.33.93-.7l1.07-2.13c.09-.17.25-.26.42-.26M7.5,0C6.42,0,5.45.6,4.96,1.56l-.84,1.67-1.81.34c-1.01.19-1.84.91-2.17,1.89-.33.98-.1,2.06.59,2.82l1.36,1.5-.27,2.02c-.11.81.14,1.63.68,2.24.54.62,1.32.97,2.14.97.45,0,.9-.11,1.3-.32l1.55-.8,1.55.8c.4.21.85.32,1.3.32.82,0,1.6-.35,2.14-.97.54-.61.79-1.43.68-2.24l-.27-2.02,1.36-1.5c.69-.76.92-1.84.59-2.82-.33-.98-1.16-1.7-2.17-1.89l-1.81-.34-.84-1.67C9.55.6,8.58,0,7.5,0h0Z"/>
</svg>