<?xml version="1.0" encoding="UTF-8"?>
<svg id="Layer_1" xmlns="http://www.w3.org/2000/svg" version="1.1" viewBox="0 0 15 15">
  <!-- Generator: Adobe Illustrator 30.1.0, SVG Export Plug-In . SVG Version: 2.1.1 Build 136)  -->
  <path d="M7.5,1.3c.2,0,.4.1.51.31l1.3,2.57c.22.44.64.75,1.12.84l2.8.53c.44.08.62.62.32.95l-2.04,2.24c-.32.35-.46.81-.4,1.28l.4,3.02c.05.36-.24.65-.56.65-.09,0-.17-.02-.26-.06l-2.45-1.26c-.23-.12-.48-.18-.72-.18s-.5.06-.72.18l-2.45,1.26c-.09.04-.17.06-.26.06-.32,0-.61-.29-.56-.65l.4-3.02c.06-.46-.09-.93-.4-1.28l-2.04-2.24c-.3-.33-.12-.86.32-.95l2.8-.53c.48-.09.9-.4,1.12-.84l1.3-2.57c.11-.21.31-.31.51-.31M7.5,0C6.79,0,6.15.39,5.83,1.03l-1.3,2.57c-.04.08-.11.13-.2.15l-2.8.53c-.67.12-1.22.6-1.43,1.25-.22.64-.07,1.36.39,1.86l2.04,2.24c.06.06.08.15.07.23l-.4,3.02c-.07.54.09,1.07.45,1.48.36.41.87.64,1.41.64.3,0,.59-.07.86-.21l2.45-1.26s.08-.03.13-.03.09.01.13.03l2.45,1.26c.27.14.56.21.86.21.54,0,1.05-.23,1.41-.64.35-.4.52-.94.45-1.48l-.4-3.02c-.01-.08.02-.17.07-.23l2.04-2.24c.46-.5.61-1.21.39-1.86-.22-.64-.76-1.12-1.43-1.25l-2.8-.53c-.09-.02-.16-.07-.2-.15l-1.3-2.57C8.85.39,8.21,0,7.5,0h0Z"/>
</svg>