<?xml version="1.0" encoding="UTF-8"?>
<svg id="Layer_1" xmlns="http://www.w3.org/2000/svg" version="1.1" viewBox="0 0 15 15">
  <!-- Generator: Adobe Illustrator 30.1.0, SVG Export Plug-In . SVG Version: 2.1.1 Build 136)  -->
  <path d="M7.5,1.83c.18,0,.37.1.46.29l1.19,2.35c.2.4.58.69,1.03.77l2.56.48c.4.08.56.56.29.86l-1.87,2.05c-.29.32-.42.74-.37,1.17l.36,2.77c.04.33-.22.59-.52.59-.08,0-.16-.02-.24-.06l-2.24-1.16c-.21-.11-.44-.16-.66-.16s-.45.05-.66.16l-2.24,1.16c-.08.04-.16.06-.24.06-.3,0-.56-.26-.52-.59l.36-2.77c.06-.42-.08-.85-.37-1.17l-1.87-2.05c-.28-.3-.11-.79.29-.87l2.56-.48c.44-.08.82-.37,1.03-.77l1.19-2.35c.1-.19.28-.29.46-.29M7.5,0C6.61,0,5.8.5,5.4,1.29l-1.1,2.18-2.38.45c-.84.16-1.53.76-1.8,1.57-.27.81-.08,1.7.49,2.33l1.75,1.92-.34,2.59c-.09.67.12,1.35.56,1.86.45.51,1.09.8,1.77.8.37,0,.74-.09,1.08-.26l2.07-1.06,2.07,1.06c.33.17.71.26,1.08.26.68,0,1.32-.29,1.77-.8.45-.51.65-1.19.56-1.86l-.34-2.59,1.75-1.92c.57-.63.76-1.53.49-2.33-.27-.81-.96-1.41-1.8-1.57l-2.38-.45-1.1-2.18C9.2.5,8.39,0,7.5,0h0Z"/>
</svg>