<?xml version="1.0" encoding="UTF-8"?>
<svg id="Layer_1" xmlns="http://www.w3.org/2000/svg" version="1.1" viewBox="0 0 25 25">
  <!-- Generator: Adobe Illustrator 30.1.0, SVG Export Plug-In . SVG Version: 2.1.1 Build 136)  -->
  <path d="M12.5,3.05c.31,0,.61.16.77.48l1.98,3.92c.34.67.97,1.15,1.71,1.29l4.27.8c.67.13.94.94.48,1.44l-3.11,3.42c-.48.53-.7,1.24-.61,1.95l.61,4.61c.07.55-.37.99-.86.99-.13,0-.27-.03-.4-.1l-3.74-1.93c-.35-.18-.73-.27-1.1-.27s-.76.09-1.1.27l-3.74,1.93c-.13.07-.27.1-.4.1-.49,0-.93-.44-.86-.99l.61-4.61c.09-.71-.13-1.42-.61-1.95l-3.11-3.42c-.46-.5-.19-1.32.48-1.44l4.27-.8c.74-.14,1.37-.61,1.71-1.29l1.98-3.92c.16-.32.47-.48.77-.48M12.5,0C11.01,0,9.67.83,9,2.16l-1.83,3.64-3.96.74c-1.4.26-2.55,1.26-3,2.61-.45,1.35-.14,2.84.82,3.89l2.92,3.2-.57,4.32c-.15,1.12.19,2.25.94,3.1.75.85,1.82,1.34,2.95,1.34.62,0,1.24-.15,1.8-.44l3.45-1.77,3.45,1.77c.55.29,1.18.44,1.8.44,1.13,0,2.2-.49,2.95-1.34.74-.85,1.08-1.98.94-3.1l-.57-4.32,2.92-3.2c.96-1.05,1.27-2.54.82-3.89-.45-1.35-1.6-2.35-3-2.61l-3.96-.74-1.83-3.64C15.33.83,13.99,0,12.5,0h0Z"/>
</svg>