<?xml version="1.0" encoding="UTF-8"?>
<svg id="Layer_1" xmlns="http://www.w3.org/2000/svg" version="1.1" viewBox="0 0 25 25">
  <!-- Generator: Adobe Illustrator 30.1.0, SVG Export Plug-In . SVG Version: 2.1.1 Build 136)  -->
  <path d="M12.5,1.73c.35,0,.7.18.88.54l2.25,4.47c.39.77,1.11,1.31,1.95,1.47l4.87.91c.76.14,1.07,1.07.55,1.64l-3.55,3.9c-.55.6-.8,1.41-.7,2.22l.69,5.25c.08.63-.42,1.12-.98,1.12-.15,0-.3-.03-.45-.11l-4.26-2.19c-.4-.2-.83-.31-1.26-.31s-.86.1-1.26.31l-4.26,2.19c-.15.08-.3.11-.45.11-.56,0-1.06-.5-.98-1.12l.69-5.25c.11-.81-.15-1.62-.7-2.22l-3.55-3.9c-.52-.57-.21-1.5.55-1.64l4.87-.91c.84-.16,1.56-.7,1.95-1.47l2.25-4.47c.18-.36.53-.54.88-.54M12.5,0C11.47,0,10.53.57,10.07,1.5l-2.25,4.47c-.14.28-.41.48-.72.54l-4.87.91c-.97.18-1.77.88-2.08,1.81-.31.94-.1,1.97.57,2.7l3.55,3.9c.2.22.3.52.26.82l-.69,5.25c-.1.78.13,1.56.65,2.15.52.59,1.27.93,2.05.93.43,0,.86-.11,1.25-.3l4.26-2.19c.14-.07.3-.11.46-.11s.32.04.46.11l4.26,2.19c.39.2.82.3,1.25.3.78,0,1.53-.34,2.05-.93.52-.59.75-1.37.65-2.15l-.69-5.25c-.04-.3.05-.6.26-.83l3.55-3.9c.67-.73.88-1.77.57-2.7-.31-.94-1.11-1.63-2.08-1.81l-4.87-.91c-.31-.06-.58-.26-.72-.54l-2.25-4.47C14.47.57,13.53,0,12.5,0h0Z"/>
</svg>