<?xml version="1.0" encoding="UTF-8"?>
<svg id="Layer_1" xmlns="http://www.w3.org/2000/svg" version="1.1" viewBox="0 0 25 25">
  <!-- Generator: Adobe Illustrator 30.1.0, SVG Export Plug-In . SVG Version: 2.1.1 Build 136)  -->
  <path d="M12.5,2.17c.34,0,.67.17.85.52l2.16,4.29c.37.74,1.06,1.26,1.87,1.41l4.67.88c.73.14,1.03,1.03.53,1.58l-3.41,3.74c-.53.58-.77,1.36-.67,2.13l.66,5.04c.08.6-.4,1.08-.94,1.08-.14,0-.29-.03-.43-.11l-4.09-2.11c-.38-.2-.79-.29-1.21-.29s-.83.1-1.21.29l-4.09,2.11c-.14.07-.29.11-.43.11-.54,0-1.02-.48-.94-1.08l.66-5.04c.1-.77-.14-1.55-.67-2.13l-3.41-3.74c-.5-.55-.21-1.44.53-1.58l4.67-.88c.81-.15,1.5-.67,1.87-1.41l2.16-4.29c.18-.35.51-.52.85-.52M12.5,0C11.31,0,10.25.66,9.71,1.72l-2.16,4.29c-.07.13-.19.22-.33.25l-4.67.88c-1.11.21-2.03,1-2.38,2.08-.36,1.07-.11,2.26.65,3.1l3.41,3.74c.09.1.14.24.12.38l-.66,5.04c-.12.89.15,1.79.74,2.47.6.68,1.45,1.07,2.35,1.07.49,0,.99-.12,1.43-.35l4.09-2.11c.07-.03.14-.05.21-.05s.15.02.21.05l4.09,2.11c.44.23.94.35,1.43.35.9,0,1.75-.39,2.35-1.07.59-.67.86-1.57.74-2.47l-.66-5.04c-.02-.14.03-.28.12-.38l3.41-3.74c.76-.84,1.01-2.02.65-3.1-.36-1.07-1.27-1.87-2.38-2.08l-4.67-.88c-.14-.03-.27-.12-.33-.25l-2.16-4.29C14.75.66,13.69,0,12.5,0h0Z"/>
</svg>