<?xml version="1.0" encoding="UTF-8"?>
<svg id="Layer_1" xmlns="http://www.w3.org/2000/svg" version="1.1" viewBox="0 0 25 25">
  <!-- Generator: Adobe Illustrator 30.1.0, SVG Export Plug-In . SVG Version: 2.1.1 Build 136)  -->
  <path d="M12.5,5.27c.24,0,.47.12.59.37l1.51,3c.26.52.74.88,1.31.99l3.27.61c.51.1.72.72.37,1.1l-2.39,2.62c-.37.4-.54.95-.47,1.49l.47,3.53c.06.42-.28.75-.66.75-.1,0-.2-.02-.3-.07l-2.86-1.47c-.27-.14-.56-.21-.85-.21s-.58.07-.85.21l-2.86,1.47c-.1.05-.2.07-.3.07-.38,0-.71-.33-.66-.75l.47-3.53c.07-.54-.1-1.09-.47-1.49l-2.39-2.62c-.35-.39-.14-1.01.37-1.1l3.27-.61c.57-.11,1.05-.47,1.31-.99l1.51-3c.12-.24.36-.37.59-.37M12.5,0C10.25,0,8.22,1.25,7.2,3.26l-.75,1.5-1.61.3c-2.11.4-3.85,1.91-4.53,3.95-.68,2.04-.21,4.29,1.24,5.88l1.32,1.45-.26,1.96c-.22,1.69.29,3.4,1.42,4.68,1.13,1.29,2.75,2.02,4.46,2.02.94,0,1.88-.23,2.71-.66l1.3-.67,1.3.67c.84.43,1.78.66,2.71.66,1.71,0,3.33-.74,4.46-2.02,1.12-1.28,1.64-2.99,1.42-4.68l-.26-1.96,1.32-1.45c1.45-1.59,1.92-3.84,1.24-5.88-.68-2.04-2.42-3.55-4.53-3.95l-1.61-.3-.75-1.5C16.78,1.25,14.75,0,12.5,0h0Z"/>
</svg>