<?xml version="1.0" encoding="UTF-8"?>
<svg id="Layer_1" xmlns="http://www.w3.org/2000/svg" version="1.1" viewBox="0 0 12 12">
  <!-- Generator: Adobe Illustrator 30.1.0, SVG Export Plug-In . SVG Version: 2.1.1 Build 136)  -->
  <path d="M6,1.47c.15,0,.29.08.37.23l.95,1.88c.16.32.47.55.82.62l2.05.38c.32.06.45.45.23.69l-1.5,1.64c-.23.25-.34.6-.29.94l.29,2.21c.03.26-.18.47-.41.47-.06,0-.13-.01-.19-.05l-1.79-.92c-.17-.09-.35-.13-.53-.13s-.36.04-.53.13l-1.79.92c-.06.03-.13.05-.19.05-.24,0-.45-.21-.41-.47l.29-2.21c.04-.34-.06-.68-.29-.93l-1.5-1.64c-.22-.24-.09-.63.23-.69l2.05-.38c.35-.07.66-.29.82-.62l.95-1.88c.08-.15.22-.23.37-.23M6,0C5.28,0,4.64.4,4.32,1.04l-.88,1.75-1.9.36c-.67.13-1.22.61-1.44,1.25-.22.65-.07,1.36.39,1.87l1.4,1.54-.27,2.07c-.07.54.09,1.08.45,1.49.36.41.87.64,1.42.64.3,0,.6-.07.86-.21l1.65-.85,1.65.85c.27.14.56.21.86.21.54,0,1.06-.23,1.42-.64.36-.41.52-.95.45-1.49l-.27-2.07,1.4-1.54c.46-.5.61-1.22.39-1.87-.22-.65-.77-1.13-1.44-1.25l-1.9-.36-.88-1.75C7.36.4,6.72,0,6,0h0Z"/>
</svg>