<?xml version="1.0" encoding="UTF-8"?>
<svg id="Layer_1" xmlns="http://www.w3.org/2000/svg" version="1.1" viewBox="0 0 12 12">
  <!-- Generator: Adobe Illustrator 30.1.0, SVG Export Plug-In . SVG Version: 2.1.1 Build 136)  -->
  <path d="M6,1.04c.16,0,.32.08.41.25l1.04,2.06c.18.35.51.6.9.68l2.24.42c.35.07.49.49.25.76l-1.63,1.79c-.25.28-.37.65-.32,1.02l.32,2.42c.04.29-.19.52-.45.52-.07,0-.14-.02-.21-.05l-1.96-1.01c-.18-.09-.38-.14-.58-.14-.2,0-.4.05-.58.14l-1.96,1.01c-.07.04-.14.05-.21.05-.26,0-.49-.23-.45-.52l.32-2.42c.05-.37-.07-.75-.32-1.02l-1.63-1.79c-.24-.26-.1-.69.25-.76l2.24-.42c.39-.07.72-.32.9-.68l1.04-2.06c.08-.17.25-.25.41-.25M6,0C5.43,0,4.92.32,4.66.82l-1.04,2.06c-.03.06-.09.11-.16.12l-2.24.42c-.53.1-.97.48-1.14,1-.17.52-.05,1.09.31,1.49l1.63,1.79s.07.12.06.18l-.32,2.42c-.06.43.07.86.36,1.18.29.33.7.51,1.13.51.24,0,.47-.06.69-.17l1.96-1.01s.07-.02.1-.02.07,0,.1.02l1.96,1.01c.21.11.45.17.69.17.43,0,.84-.19,1.13-.51.28-.32.41-.75.36-1.18l-.32-2.42c0-.07.01-.13.06-.18l1.63-1.79c.37-.4.49-.97.31-1.49-.17-.51-.61-.9-1.14-1l-2.24-.42c-.07-.01-.13-.06-.16-.12l-1.04-2.06C7.08.32,6.57,0,6,0h0Z"/>
</svg>