<?xml version="1.0" encoding="UTF-8"?>
<svg id="Layer_1" xmlns="http://www.w3.org/2000/svg" version="1.1" viewBox="0 0 12 12">
  <!-- Generator: Adobe Illustrator 30.1.0, SVG Export Plug-In . SVG Version: 2.1.1 Build 136)  -->
  <path d="M6,2.32c.12,0,.24.06.3.19l.77,1.53c.13.26.38.45.67.5l1.67.31c.26.05.37.37.19.56l-1.21,1.33c-.19.21-.27.48-.24.76l.24,1.8c.03.21-.14.38-.34.38-.05,0-.1-.01-.15-.04l-1.46-.75c-.14-.07-.28-.1-.43-.1s-.3.03-.43.1l-1.46.75c-.05.03-.1.04-.15.04-.19,0-.36-.17-.34-.38l.24-1.8c.04-.28-.05-.55-.24-.76l-1.21-1.33c-.18-.2-.07-.51.19-.56l1.67-.31c.29-.05.53-.24.67-.5l.77-1.53c.06-.12.18-.19.3-.19M6,0C4.99,0,4.08.56,3.63,1.46l-.46.92-1,.19c-.95.18-1.72.85-2.03,1.77-.31.91-.09,1.92.56,2.63l.78.86-.15,1.16c-.1.76.13,1.52.64,2.1.51.58,1.23.91,2,.91.42,0,.84-.1,1.22-.3l.83-.43.83.43c.38.19.8.3,1.22.3.76,0,1.49-.33,2-.91.5-.57.74-1.34.64-2.1l-.15-1.16.78-.86c.65-.71.86-1.72.56-2.63-.31-.91-1.08-1.59-2.03-1.77l-1-.19-.46-.92C7.92.56,7.01,0,6,0h0Z"/>
</svg>