<?xml version="1.0" encoding="UTF-8"?>
<svg id="Layer_1" xmlns="http://www.w3.org/2000/svg" version="1.1" viewBox="0 0 12 12">
  <!-- Generator: Adobe Illustrator 30.1.0, SVG Export Plug-In . SVG Version: 2.1.1 Build 136)  -->
  <path d="M6,2.53c.11,0,.23.06.28.18l.73,1.44c.12.25.36.42.63.47l1.57.29c.25.05.35.34.18.53l-1.15,1.26c-.18.19-.26.46-.22.72l.22,1.69c.03.2-.13.36-.32.36-.05,0-.1-.01-.15-.04l-1.37-.71c-.13-.07-.27-.1-.41-.1s-.28.03-.41.1l-1.37.71s-.1.04-.15.04c-.18,0-.34-.16-.32-.36l.22-1.69c.03-.26-.05-.52-.22-.72l-1.15-1.26c-.17-.19-.07-.48.18-.53l1.57-.29c.27-.05.5-.23.63-.47l.73-1.44c.06-.12.17-.18.28-.18M6,0C4.92,0,3.94.6,3.46,1.57l-.36.72-.77.15c-1.01.19-1.85.92-2.17,1.89-.33.98-.1,2.06.6,2.82l.63.69-.12.94c-.11.81.14,1.63.68,2.25.54.62,1.32.97,2.14.97.45,0,.9-.11,1.3-.32l.62-.32.62.32c.4.21.85.32,1.3.32.82,0,1.6-.35,2.14-.97.54-.62.79-1.44.68-2.25l-.12-.94.63-.69c.69-.76.92-1.84.6-2.82-.33-.98-1.16-1.7-2.17-1.89l-.77-.15-.36-.72C8.06.6,7.08,0,6,0h0Z"/>
</svg>