<?xml version="1.0" encoding="UTF-8"?>
<svg id="Layer_1" xmlns="http://www.w3.org/2000/svg" version="1.1" viewBox="0 0 43 43">
  <!-- Generator: Adobe Illustrator 30.1.0, SVG Export Plug-In . SVG Version: 2.1.1 Build 136)  -->
  <circle id="Outer" cx="21.5" cy="21.5" r="19.63" fill="none" stroke="#000" stroke-width="3.74"/>
  <g>
    <g>
      <rect x="20.14" y="28.6" width="2.69" height="2.69"/>
      <path d="M22.56,28.87v2.15h-2.15v-2.15h2.15M23.1,28.33h-3.23v3.23h3.23v-3.23h0Z"/>
    </g>
    <g>
      <path d="M20.15,25.63v-1.08c0-1.09.4-2.13,1.13-2.94l2.13-2.36c.54-.6.84-1.37.84-2.17,0-1.12-.92-2.04-2.06-2.04h-1.37c-1.13,0-2.06.92-2.06,2.04v.27h-2.71v-.27c0-2.61,2.14-4.73,4.77-4.73h1.37c2.63,0,4.77,2.12,4.77,4.73,0,1.47-.54,2.88-1.53,3.97l-2.13,2.36c-.29.32-.44.71-.45,1.13v1.08h-2.7Z"/>
      <path d="M22.19,12.61c2.48,0,4.5,2,4.5,4.47,0,1.4-.52,2.75-1.46,3.79l-2.13,2.36c-.33.37-.51.82-.52,1.31v.81h-2.16v-.81c0-1.02.37-1.99,1.06-2.75l2.13-2.36c.58-.65.91-1.48.91-2.35,0-1.27-1.04-2.31-2.32-2.31h-1.37c-1.28,0-2.32,1.04-2.32,2.31h-2.17c0-2.46,2.02-4.47,4.5-4.47h1.37M22.19,12.08h-1.37c-2.78,0-5.04,2.24-5.04,5v.54h3.25v-.54c0-.98.8-1.77,1.79-1.77h1.37c.99,0,1.79.79,1.79,1.77,0,.74-.27,1.44-.77,1.99l-2.13,2.36c-.77.85-1.2,1.96-1.21,3.11v.82s.01.53.01.53h3.22v-.53s.01-.81.01-.81c0-.36.13-.69.38-.96l2.13-2.36c1.03-1.14,1.6-2.62,1.6-4.15,0-2.76-2.26-5-5.04-5h0Z"/>
    </g>
  </g>
</svg>