<?xml version="1.0" encoding="UTF-8"?>
<svg id="Layer_1" xmlns="http://www.w3.org/2000/svg" version="1.1" viewBox="0 0 43 43">
  <!-- Generator: Adobe Illustrator 30.1.0, SVG Export Plug-In . SVG Version: 2.1.1 Build 136)  -->
  <circle id="Outer" cx="21.5" cy="21.5" r="16.97" fill="none" stroke="#000" stroke-width="9.06"/>
  <g>
    <g>
      <rect x="20.11" y="26.57" width="2.76" height="2.76"/>
      <path d="M22.13,27.31v1.28h-1.28v-1.28h1.28M23.61,25.83h-4.24v4.24h4.24v-4.24h0Z"/>
    </g>
    <g>
      <path d="M20.12,24.12v-1.22c0-.8.29-1.56.82-2.14l1.27-1.41c.23-.25.35-.57.35-.9,0-.35-.29-.63-.65-.63h-.82c-.36,0-.64.28-.64.63v.74h-2.77v-.74c0-1.87,1.53-3.4,3.42-3.4h.82c1.88,0,3.42,1.52,3.42,3.4,0,1.02-.38,1.99-1.06,2.75l-1.27,1.41c-.08.08-.12.18-.12.29v1.22h-2.76Z"/>
      <path d="M21.91,15.79c1.48,0,2.68,1.19,2.68,2.66,0,.83-.31,1.63-.87,2.26l-1.27,1.41c-.2.22-.31.49-.31.78v.48h-1.29v-.48c0-.61.22-1.19.63-1.64l1.27-1.41c.35-.39.54-.88.54-1.4,0-.76-.62-1.37-1.38-1.37h-.82c-.76,0-1.38.62-1.38,1.37h-1.29c0-1.47,1.2-2.66,2.68-2.66h.82M21.91,14.31h-.82c-2.29,0-4.16,1.86-4.16,4.14v1.48h3.75l-.3.34c-.65.72-1.01,1.65-1.02,2.62v.5s.02,1.47.02,1.47h4.21v-1.46s.02-.37.02-.37l1.2-1.33c.81-.89,1.25-2.05,1.25-3.25,0-2.28-1.86-4.14-4.16-4.14h0ZM21.19,18.55h.62c-.02.11-.07.22-.15.3l-.47.52v-.82h0Z"/>
    </g>
  </g>
</svg>