<?xml version="1.0" encoding="UTF-8"?>
<svg id="Layer_1" xmlns="http://www.w3.org/2000/svg" version="1.1" viewBox="0 0 43 43">
  <!-- Generator: Adobe Illustrator 30.1.0, SVG Export Plug-In . SVG Version: 2.1.1 Build 136)  -->
  <circle id="Outer" cx="21.5" cy="21.5" r="18.87" fill="none" stroke="#000" stroke-width="5.25"/>
  <g>
    <g>
      <rect x="20.14" y="28.03" width="2.7" height="2.7"/>
      <path d="M22.43,28.43v1.89h-1.89v-1.89h1.89M23.24,27.62h-3.5v3.5h3.5v-3.5h0Z"/>
    </g>
    <g>
      <path d="M20.15,25.15v-1.11c0-1,.36-1.95,1.03-2.69l1.87-2.07c.44-.49.69-1.13.69-1.79,0-.89-.73-1.62-1.64-1.62h-1.2c-.9,0-1.64.73-1.64,1.62v.4h-2.71v-.4c0-2.38,1.95-4.32,4.35-4.32h1.2c2.4,0,4.35,1.94,4.35,4.32,0,1.33-.49,2.61-1.39,3.6l-1.87,2.07c-.23.25-.35.56-.35.88v1.12h-2.7Z"/>
      <path d="M22.1,13.57c2.18,0,3.95,1.76,3.95,3.92,0,1.23-.46,2.41-1.28,3.33l-1.87,2.07c-.29.32-.45.72-.45,1.15v.71h-1.9v-.71c0-.9.33-1.75.93-2.42l1.87-2.07c.51-.57.79-1.3.79-2.06,0-1.12-.92-2.03-2.04-2.03h-1.2c-1.12,0-2.04.91-2.04,2.03h-1.91c0-2.16,1.77-3.92,3.95-3.92h1.2M22.1,12.76h-1.2c-2.62,0-4.75,2.12-4.75,4.72v.81h3.52v-.81c0-.67.55-1.22,1.23-1.22h1.2c.68,0,1.23.55,1.23,1.22,0,.56-.21,1.1-.59,1.52l-1.87,2.07c-.73.81-1.14,1.86-1.14,2.95v.72s.01.8.01.8h3.49v-.8s.02-.71.02-.71c0-.23.08-.44.24-.62l1.87-2.07c.96-1.06,1.49-2.44,1.49-3.87,0-2.61-2.13-4.72-4.75-4.72h0Z"/>
    </g>
  </g>
</svg>