<?xml version="1.0" encoding="UTF-8"?>
<svg id="Layer_1" xmlns="http://www.w3.org/2000/svg" version="1.1" viewBox="0 0 43 43">
  <!-- Generator: Adobe Illustrator 30.1.0, SVG Export Plug-In . SVG Version: 2.1.1 Build 136)  -->
  <circle id="Outer" cx="21.5" cy="21.5" r="20.01" fill="none" stroke="#000" stroke-width="2.98"/>
  <g>
    <g>
      <rect x="20.14" y="28.88" width="2.69" height="2.69"/>
      <path d="M22.63,29.08v2.29h-2.29v-2.29h2.29M23.03,28.68h-3.1v3.1h3.1v-3.1h0Z"/>
    </g>
    <g>
      <path d="M20.14,25.88v-1.07c0-1.13.42-2.22,1.18-3.06l2.27-2.51c.59-.65.91-1.49.91-2.36,0-1.24-1.02-2.25-2.27-2.25h-1.46c-1.25,0-2.27,1.01-2.27,2.25v.2h-2.71v-.2c0-2.73,2.23-4.95,4.98-4.95h1.46c2.75,0,4.98,2.22,4.98,4.95,0,1.54-.57,3.02-1.6,4.16l-2.27,2.51c-.32.36-.49.79-.5,1.26v1.07h-2.7Z"/>
      <path d="M22.23,12.13c2.64,0,4.78,2.13,4.78,4.75,0,1.49-.55,2.92-1.55,4.03l-2.27,2.51c-.35.39-.55.87-.55,1.39v.87h-2.3v-.87c0-1.09.4-2.12,1.13-2.93l2.27-2.51c.62-.69.96-1.57.96-2.5,0-1.35-1.11-2.45-2.47-2.45h-1.46c-1.36,0-2.47,1.1-2.47,2.45h-2.31c0-2.62,2.14-4.75,4.78-4.75h1.46M22.23,11.73h-1.46c-2.86,0-5.18,2.31-5.18,5.15v.4h3.12v-.4c0-1.13.93-2.05,2.07-2.05h1.46c1.14,0,2.07.92,2.07,2.05,0,.82-.3,1.61-.86,2.23l-2.27,2.51c-.79.88-1.23,2.01-1.24,3.19v.87s.01.4.01.4h3.09v-.4s.01-.87.01-.87c0-.42.15-.81.44-1.13l2.27-2.51c1.07-1.18,1.66-2.71,1.66-4.3,0-2.84-2.33-5.15-5.18-5.15h0Z"/>
    </g>
  </g>
</svg>