<?xml version="1.0" encoding="UTF-8"?>
<svg id="Layer_1" xmlns="http://www.w3.org/2000/svg" version="1.1" viewBox="0 0 43 43">
  <!-- Generator: Adobe Illustrator 30.1.0, SVG Export Plug-In . SVG Version: 2.1.1 Build 136)  -->
  <circle id="Outer" cx="21.5" cy="21.5" r="18.11" fill="none" stroke="#000" stroke-width="6.79"/>
  <g>
    <g>
      <rect x="20.13" y="27.45" width="2.71" height="2.71"/>
      <path d="M22.31,27.98v1.64h-1.64v-1.64h1.64M23.38,26.91h-3.79v3.79h3.79v-3.79h0Z"/>
    </g>
    <g>
      <path d="M20.14,24.7v-1.15c0-.91.33-1.78.94-2.46l1.62-1.79c.35-.39.55-.9.55-1.42,0-.67-.55-1.21-1.23-1.21h-1.04c-.68,0-1.23.54-1.23,1.21v.54h-2.72v-.54c0-2.17,1.77-3.93,3.95-3.93h1.04c2.18,0,3.95,1.76,3.95,3.93,0,1.2-.44,2.35-1.25,3.24l-1.62,1.79c-.17.18-.25.4-.25.64v1.15h-2.71Z"/>
      <path d="M22.02,14.49c1.88,0,3.41,1.52,3.41,3.39,0,1.06-.39,2.09-1.11,2.88l-1.62,1.79c-.25.28-.39.62-.39,1v.62h-1.64v-.62c0-.78.28-1.51.8-2.09l1.62-1.79c.44-.49.69-1.12.69-1.78,0-.97-.79-1.75-1.76-1.75h-1.04c-.97,0-1.76.79-1.76,1.75h-1.65c0-1.87,1.53-3.39,3.41-3.39h1.04M22.02,13.42h-1.04c-2.48,0-4.49,2-4.49,4.47v1.07h3.8v-1.07c0-.37.31-.68.69-.68h1.04c.38,0,.69.3.69.68,0,.39-.15.77-.41,1.06l-1.62,1.79c-.7.77-1.08,1.77-1.09,2.81v.63s.01,1.07.01,1.07h3.76v-1.06s.02-.62.02-.62c0-.11.04-.2.11-.29l1.62-1.8c.89-.99,1.39-2.27,1.39-3.6,0-2.46-2.01-4.47-4.49-4.47h0Z"/>
    </g>
  </g>
</svg>