<?xml version="1.0" encoding="UTF-8"?>
<svg id="Layer_1" xmlns="http://www.w3.org/2000/svg" version="1.1" viewBox="0 0 43 43">
  <!-- Generator: Adobe Illustrator 30.1.0, SVG Export Plug-In . SVG Version: 2.1.1 Build 136)  -->
  <circle id="Outer" cx="21.5" cy="21.5" r="17.35" fill="none" stroke="#000" stroke-width="8.3"/>
  <g>
    <g>
      <rect x="20.12" y="26.86" width="2.74" height="2.74"/>
      <path d="M22.19,27.53v1.4h-1.4v-1.4h1.4M23.53,26.19h-4.08v4.08h4.08v-4.08h0Z"/>
    </g>
    <g>
      <path d="M20.13,24.3v-1.19c0-.83.3-1.63.86-2.24l1.38-1.53c.27-.3.41-.68.41-1.07,0-.45-.37-.82-.83-.82h-.89c-.46,0-.83.37-.83.82v.67h-2.75v-.67c0-1.97,1.61-3.57,3.59-3.57h.89c1.98,0,3.59,1.6,3.59,3.57,0,1.07-.4,2.11-1.12,2.91l-1.38,1.53c-.11.12-.16.25-.16.4v1.2h-2.74Z"/>
      <path d="M21.94,15.37c1.61,0,2.91,1.3,2.91,2.89,0,.91-.34,1.78-.95,2.46l-1.38,1.53c-.21.24-.33.53-.33.85v.53h-1.4v-.53c0-.66.24-1.29.69-1.78l1.38-1.53c.38-.42.59-.96.59-1.52,0-.82-.68-1.5-1.51-1.5h-.89c-.83,0-1.51.67-1.51,1.5h-1.41c0-1.6,1.31-2.89,2.91-2.89h.89M21.94,14.03h-.89c-2.35,0-4.26,1.9-4.26,4.24v1.34h4.1v-1.34c0-.08.07-.15.16-.15h.89c.09,0,.16.07.16.15,0,.23-.09.45-.24.62l-1.38,1.53c-.67.74-1.03,1.69-1.04,2.68v.54s.02,1.33.02,1.33h4.06v-1.33s.02-.5.02-.5l1.37-1.52c.83-.92,1.29-2.12,1.29-3.36,0-2.34-1.91-4.24-4.26-4.24h0Z"/>
    </g>
  </g>
</svg>