<?xml version="1.0" encoding="UTF-8"?>
<svg id="Layer_1" xmlns="http://www.w3.org/2000/svg" version="1.1" viewBox="0 0 81 81">
  <!-- Generator: Adobe Illustrator 30.1.0, SVG Export Plug-In . SVG Version: 2.1.1 Build 136)  -->
  <path d="M40.5,12.78c.9,0,1.8.47,2.27,1.4l5.8,11.51c1,1.98,2.85,3.37,5.02,3.78l12.54,2.35c1.96.37,2.76,2.75,1.41,4.23l-9.14,10.03c-1.41,1.55-2.07,3.64-1.79,5.72l1.78,13.52c.21,1.61-1.07,2.89-2.52,2.89-.38,0-.78-.09-1.16-.29l-10.97-5.65c-1.02-.52-2.13-.79-3.24-.79s-2.22.26-3.24.79l-10.97,5.65c-.38.2-.78.29-1.16.29-1.45,0-2.74-1.28-2.52-2.89l1.78-13.53c.27-2.08-.38-4.17-1.79-5.71l-9.14-10.03c-1.35-1.48-.55-3.86,1.41-4.23l12.54-2.35c2.17-.41,4.02-1.8,5.02-3.78l5.8-11.51c.47-.93,1.37-1.4,2.27-1.4M40.5,0C34.68,0,29.43,3.23,26.81,8.43l-4.53,9-9.77,1.83c-5.46,1.02-9.95,4.93-11.71,10.2-1.77,5.27-.54,11.1,3.21,15.2l7.36,8.08-1.44,10.91c-.58,4.38.76,8.79,3.66,12.11,2.92,3.33,7.12,5.24,11.53,5.24,2.42,0,4.85-.59,7.02-1.71l8.36-4.31,8.36,4.31c2.17,1.12,4.59,1.71,7.02,1.71,4.41,0,8.62-1.91,11.53-5.24,2.91-3.31,4.24-7.73,3.66-12.11l-1.44-10.91,7.36-8.08c3.74-4.11,4.97-9.93,3.21-15.2-1.76-5.27-6.25-9.18-11.71-10.2l-9.77-1.83-4.53-9C51.57,3.23,46.32,0,40.5,0h0Z"/>
</svg>