<?xml version="1.0" encoding="UTF-8"?>
<svg id="Layer_1" xmlns="http://www.w3.org/2000/svg" version="1.1" viewBox="0 0 74 74">
  <!-- Generator: Adobe Illustrator 30.1.0, SVG Export Plug-In . SVG Version: 2.1.1 Build 136)  -->
  <circle id="Outer" cx="37" cy="37" r="29.21" fill="none" stroke="#000" stroke-width="15.59"/>
  <g>
    <g>
      <rect x="34.61" y="45.72" width="4.75" height="4.75"/>
      <path d="M38.09,46.99v2.21h-2.21v-2.21h2.21M40.63,44.45h-7.29v7.29h7.29v-7.29h0Z"/>
    </g>
    <g>
      <path d="M34.62,41.5l-.02-2.09c0-1.37.51-2.68,1.42-3.68l2.18-2.42c.39-.43.6-.98.6-1.55,0-.6-.5-1.09-1.11-1.09h-1.4c-.61,0-1.11.49-1.11,1.09v1.27h-4.77v-1.27c0-3.22,2.64-5.85,5.88-5.85h1.4c3.24,0,5.88,2.62,5.88,5.85,0,1.75-.65,3.43-1.82,4.73l-2.19,2.42c-.13.15-.2.31-.2.5l-.02,2.1h-4.73Z"/>
      <path d="M37.7,27.17c2.54,0,4.61,2.05,4.61,4.57,0,1.44-.53,2.81-1.5,3.88l-2.19,2.42c-.34.37-.53.84-.53,1.34v.83h-2.21v-.83c0-1.05.38-2.04,1.09-2.82l2.19-2.42c.6-.66.93-1.52.93-2.41,0-1.3-1.07-2.36-2.38-2.36h-1.4c-1.31,0-2.38,1.06-2.38,2.36h-2.23c0-2.52,2.07-4.57,4.61-4.57h1.4M37.7,24.63h-1.4c-3.94,0-7.15,3.19-7.15,7.12v2.54h6.46l-.52.58c-1.12,1.24-1.74,2.84-1.75,4.52v.87s.03,2.52.03,2.52h7.25l.03-2.52v-.64s2.07-2.28,2.07-2.28c1.39-1.54,2.15-3.52,2.15-5.59,0-3.93-3.21-7.12-7.15-7.12h0ZM36.46,31.93h1.06c-.03.19-.12.37-.26.52l-.81.89v-1.42h0Z"/>
    </g>
  </g>
</svg>