<?xml version="1.0" encoding="UTF-8"?>
<svg id="Layer_1" xmlns="http://www.w3.org/2000/svg" version="1.1" viewBox="0 0 74 74">
  <!-- Generator: Adobe Illustrator 30.1.0, SVG Export Plug-In . SVG Version: 2.1.1 Build 136)  -->
  <circle id="Outer" cx="37" cy="37" r="31.16" fill="none" stroke="#000" stroke-width="11.68"/>
  <g>
    <g>
      <rect x="34.65" y="47.23" width="4.66" height="4.66"/>
      <path d="M38.39,48.16v2.81h-2.81v-2.81h2.81M40.24,46.31h-6.51v6.51h6.51v-6.51h0Z"/>
    </g>
    <g>
      <path d="M34.66,42.51l-.02-1.98c0-1.57.59-3.07,1.63-4.23l2.79-3.09c.61-.67.95-1.54.95-2.45,0-1.15-.95-2.09-2.11-2.09h-1.79c-1.16,0-2.11.94-2.11,2.09v.92h-4.69v-.92c0-3.73,3.05-6.76,6.8-6.76h1.79c3.75,0,6.8,3.03,6.8,6.76,0,2.06-.76,4.04-2.15,5.57l-2.79,3.09c-.28.31-.43.69-.43,1.1l-.02,1.99h-4.65Z"/>
      <path d="M37.9,24.94c3.24,0,5.88,2.62,5.88,5.83,0,1.83-.68,3.59-1.91,4.95l-2.79,3.09c-.43.48-.67,1.07-.67,1.71v1.06h-2.82v-1.06c0-1.33.49-2.6,1.38-3.6l2.79-3.09c.76-.85,1.18-1.94,1.18-3.07,0-1.66-1.36-3.02-3.04-3.02h-1.79c-1.67,0-3.04,1.35-3.04,3.02h-2.84c0-3.22,2.64-5.83,5.88-5.83h1.79M37.9,23.09h-1.79c-4.26,0-7.73,3.45-7.73,7.68v1.85h6.54v-1.85c0-.64.53-1.17,1.19-1.17h1.79c.65,0,1.19.52,1.19,1.17,0,.68-.25,1.33-.71,1.83l-2.79,3.09c-1.2,1.33-1.86,3.04-1.87,4.83v1.09s.03,1.83.03,1.83h6.48l.02-1.83v-1.06c.01-.19.08-.35.21-.49l2.79-3.09c1.54-1.7,2.38-3.9,2.38-6.19,0-4.24-3.47-7.68-7.73-7.68h0Z"/>
    </g>
  </g>
</svg>