<?xml version="1.0" encoding="UTF-8"?>
<svg id="Layer_1" xmlns="http://www.w3.org/2000/svg" version="1.1" viewBox="0 0 74 74">
  <!-- Generator: Adobe Illustrator 30.1.0, SVG Export Plug-In . SVG Version: 2.1.1 Build 136)  -->
  <circle id="Outer" cx="37" cy="37" r="34.43" fill="none" stroke="#000" stroke-width="5.13"/>
  <g>
    <g>
      <rect x="34.66" y="49.7" width="4.63" height="4.63"/>
      <path d="M38.95,50.05v3.94h-3.94v-3.94h3.94M39.64,49.36h-5.33v5.33h5.33v-5.33h0Z"/>
    </g>
    <g>
      <path d="M34.67,44.54l-.02-1.83c0-1.95.73-3.82,2.04-5.27l3.9-4.32c1.01-1.12,1.57-2.56,1.57-4.06,0-2.14-1.75-3.88-3.91-3.88h-2.51c-2.15,0-3.91,1.74-3.91,3.88v.35h-4.67v-.35c0-4.7,3.85-8.52,8.57-8.52h2.51c4.73,0,8.57,3.82,8.57,8.52,0,2.65-.98,5.19-2.76,7.16l-3.9,4.32c-.55.61-.85,1.36-.85,2.17l-.02,1.84h-4.63Z"/>
      <path d="M38.25,20.88c4.54,0,8.23,3.67,8.23,8.17,0,2.56-.95,5.02-2.67,6.93l-3.9,4.32c-.6.67-.94,1.5-.94,2.4l-.02,1.49h-3.94v-1.49c0-1.87.68-3.65,1.94-5.04l3.9-4.32c1.07-1.18,1.66-2.71,1.66-4.3,0-2.33-1.91-4.22-4.25-4.22h-2.51c-2.34,0-4.25,1.89-4.25,4.22h-3.97c0-4.5,3.69-8.17,8.23-8.17h2.51M38.25,20.18h-2.51c-4.92,0-8.92,3.98-8.92,8.86v.69h5.36v-.69c0-1.95,1.6-3.53,3.56-3.53h2.51c1.96,0,3.56,1.58,3.56,3.53,0,1.42-.52,2.78-1.48,3.83l-3.9,4.32c-1.37,1.51-2.12,3.46-2.13,5.5v1.5s.02.69.02.69h5.31v-.69s.02-1.49.02-1.49c0-.72.27-1.39.76-1.94l3.9-4.32c1.84-2.04,2.85-4.66,2.85-7.4,0-4.89-4-8.86-8.92-8.86h0Z"/>
    </g>
  </g>
</svg>