<?xml version="1.0" encoding="UTF-8"?>
<svg id="Layer_1" xmlns="http://www.w3.org/2000/svg" version="1.1" viewBox="0 0 74 74">
  <!-- Generator: Adobe Illustrator 30.1.0, SVG Export Plug-In . SVG Version: 2.1.1 Build 136)  -->
  <circle id="Outer" cx="37" cy="37" r="33.79" fill="none" stroke="#000" stroke-width="6.43"/>
  <g>
    <g>
      <rect x="34.66" y="49.22" width="4.63" height="4.63"/>
      <path d="M38.83,49.68v3.71h-3.71v-3.71h3.71M39.76,48.76h-5.56v5.56h5.56v-5.56h0Z"/>
    </g>
    <g>
      <path d="M34.67,44.11l-.02-1.86c0-1.87.7-3.67,1.96-5.05l3.67-4.07c.93-1.03,1.44-2.35,1.44-3.73,0-1.94-1.59-3.51-3.54-3.51h-2.36c-1.95,0-3.54,1.58-3.54,3.51v.46h-4.67v-.46c0-4.49,3.68-8.15,8.2-8.15h2.36c4.52,0,8.2,3.66,8.2,8.15,0,2.53-.94,4.95-2.63,6.83l-3.67,4.07c-.5.55-.77,1.23-.77,1.95l-.02,1.86h-4.62Z"/>
      <path d="M38.18,21.71c4.27,0,7.74,3.45,7.74,7.69,0,2.41-.89,4.73-2.51,6.52l-3.67,4.07c-.57.63-.88,1.41-.89,2.26v1.4h-3.72v-1.4c0-1.76.64-3.43,1.82-4.74l3.67-4.07c1.01-1.11,1.56-2.55,1.56-4.04,0-2.19-1.8-3.97-4-3.97h-2.36c-2.21,0-4,1.78-4,3.97h-3.74c0-4.24,3.47-7.69,7.74-7.69h2.36M38.18,20.78h-2.36c-4.78,0-8.67,3.86-8.67,8.61v.92h5.59v-.92c0-1.68,1.38-3.05,3.08-3.05h2.36c1.7,0,3.08,1.37,3.08,3.05,0,1.27-.47,2.48-1.32,3.42l-3.67,4.07c-1.33,1.47-2.07,3.37-2.07,5.36v1.41s.02.92.02.92h5.54v-.92s.02-1.4.02-1.4c0-.61.23-1.18.65-1.65l3.67-4.07c1.77-1.97,2.75-4.5,2.75-7.14,0-4.75-3.89-8.61-8.67-8.61h0Z"/>
    </g>
  </g>
</svg>