<?xml version="1.0" encoding="UTF-8"?>
<svg id="Layer_1" xmlns="http://www.w3.org/2000/svg" version="1.1" viewBox="0 0 74 74">
  <!-- Generator: Adobe Illustrator 30.1.0, SVG Export Plug-In . SVG Version: 2.1.1 Build 136)  -->
  <circle id="Outer" cx="37" cy="37" r="32.48" fill="none" stroke="#000" stroke-width="9.04"/>
  <g>
    <g>
      <rect x="34.66" y="48.23" width="4.64" height="4.64"/>
      <path d="M38.61,48.93v3.25h-3.25v-3.25h3.25M39.99,47.54h-6.03v6.03h6.03v-6.03h0Z"/>
    </g>
    <g>
      <path d="M34.67,43.29l-.02-1.92c0-1.72.64-3.36,1.79-4.63l3.22-3.57c.77-.85,1.19-1.94,1.19-3.08,0-1.54-1.26-2.79-2.82-2.79h-2.07c-1.55,0-2.82,1.25-2.82,2.79v.69h-4.67v-.69c0-4.1,3.36-7.44,7.48-7.44h2.07c4.13,0,7.49,3.34,7.49,7.44,0,2.29-.85,4.48-2.38,6.19l-3.22,3.57c-.39.43-.6.96-.6,1.52l-.02,1.92h-4.63Z"/>
      <path d="M38.03,23.35c3.74,0,6.79,3.03,6.79,6.74,0,2.12-.78,4.15-2.21,5.72l-3.22,3.57c-.5.55-.78,1.24-.78,1.98v1.23h-3.26v-1.23c0-1.54.56-3.01,1.6-4.16l3.22-3.57c.88-.98,1.37-2.24,1.37-3.55,0-1.92-1.57-3.49-3.51-3.49h-2.07c-1.94,0-3.51,1.56-3.51,3.49h-3.28c0-3.72,3.05-6.74,6.79-6.74h2.07M38.03,21.96h-2.07c-4.51,0-8.18,3.65-8.18,8.13v1.39h6.06v-1.39c0-1.16.95-2.1,2.12-2.1h2.07c1.17,0,2.12.94,2.12,2.1,0,.97-.36,1.9-1.01,2.62l-3.22,3.57c-1.26,1.4-1.96,3.2-1.97,5.08v1.25s.02,1.38.02,1.38h6v-1.37s.03-1.23.03-1.23c0-.4.14-.76.42-1.06l3.22-3.57c1.65-1.83,2.56-4.19,2.56-6.65,0-4.48-3.67-8.13-8.18-8.13h0Z"/>
    </g>
  </g>
</svg>