<?xml version="1.0" encoding="UTF-8"?>
<svg id="Layer_1" xmlns="http://www.w3.org/2000/svg" version="1.1" viewBox="0 0 74 74">
  <!-- Generator: Adobe Illustrator 30.1.0, SVG Export Plug-In . SVG Version: 2.1.1 Build 136)  -->
  <circle id="Outer" cx="37" cy="37" r="29.85" fill="none" stroke="#000" stroke-width="14.29"/>
  <g>
    <g>
      <rect x="34.62" y="46.22" width="4.71" height="4.71"/>
      <path d="M38.18,47.38v2.4h-2.4v-2.4h2.4M40.5,45.07h-7.03v7.03h7.03v-7.03h0Z"/>
    </g>
    <g>
      <path d="M34.64,41.82l-.02-2.05c0-1.44.53-2.8,1.49-3.86l2.38-2.63c.46-.51.71-1.16.71-1.84,0-.78-.64-1.42-1.44-1.42h-1.53c-.79,0-1.44.64-1.44,1.42v1.16h-4.74v-1.16c0-3.38,2.77-6.14,6.17-6.14h1.53c3.4,0,6.17,2.75,6.17,6.14,0,1.85-.68,3.62-1.93,5l-2.38,2.64c-.18.2-.28.44-.28.69l-.02,2.06h-4.69Z"/>
      <path d="M37.76,26.45c2.77,0,5.02,2.23,5.02,4.98,0,1.56-.58,3.06-1.63,4.23l-2.38,2.64c-.37.41-.57.91-.57,1.46v.91h-2.41v-.91c0-1.14.42-2.22,1.18-3.07l2.38-2.64c.65-.72,1.01-1.65,1.01-2.62,0-1.42-1.16-2.57-2.59-2.57h-1.53c-1.43,0-2.59,1.15-2.59,2.57h-2.42c0-2.75,2.25-4.98,5.02-4.98h1.53M37.76,24.14h-1.53c-4.04,0-7.33,3.27-7.33,7.29v2.31h7.05v-2.31c0-.14.13-.26.28-.26h1.53c.15,0,.28.12.28.26,0,.39-.15.77-.41,1.07l-2.38,2.64c-1.14,1.27-1.78,2.9-1.79,4.61v.94s.03,2.29.03,2.29h6.98l.02-2.29v-.87s2.37-2.61,2.37-2.61c1.43-1.59,2.22-3.64,2.22-5.78,0-4.02-3.29-7.29-7.33-7.29h0Z"/>
    </g>
  </g>
</svg>