<?xml version="1.0" encoding="UTF-8"?>
<svg id="Layer_1" xmlns="http://www.w3.org/2000/svg" version="1.1" viewBox="0 0 125 125">
  <!-- Generator: Adobe Illustrator 30.1.0, SVG Export Plug-In . SVG Version: 2.1.1 Build 136)  -->
  <path d="M62.5,15.27c1.54,0,3.07.8,3.87,2.39l9.88,19.61c1.7,3.37,4.86,5.75,8.56,6.44l21.37,4.01c3.34.63,4.7,4.69,2.4,7.2l-15.57,17.09c-2.4,2.64-3.52,6.2-3.05,9.74l3.04,23.04c.36,2.75-1.83,4.93-4.3,4.93-.66,0-1.33-.15-1.98-.49l-18.7-9.63c-1.73-.89-3.63-1.34-5.52-1.34s-3.79.45-5.52,1.34l-18.7,9.63c-.65.34-1.33.49-1.98.49-2.47,0-4.66-2.18-4.3-4.93l3.04-23.05c.47-3.54-.65-7.1-3.05-9.73l-15.57-17.09c-2.29-2.52-.94-6.58,2.41-7.21l21.37-4.01c3.7-.69,6.86-3.07,8.55-6.44l9.88-19.62c.8-1.59,2.34-2.39,3.87-2.39M62.5,0C55.05,0,48.34,4.13,44.98,10.79l-9.17,18.2-19.81,3.71c-6.98,1.31-12.73,6.31-14.98,13.05-2.26,6.75-.69,14.2,4.1,19.46l14.58,16-2.85,21.59c-.74,5.61.97,11.25,4.68,15.49,3.74,4.26,9.11,6.7,14.76,6.7,3.1,0,6.2-.76,8.98-2.18l17.23-8.87,17.23,8.87c2.77,1.43,5.88,2.18,8.98,2.18,5.64,0,11.02-2.44,14.76-6.7,3.72-4.24,5.42-9.89,4.68-15.49l-2.85-21.59,14.58-16c4.79-5.26,6.36-12.71,4.1-19.45-2.26-6.74-8-11.74-14.98-13.05l-19.81-3.71-9.17-18.2C76.66,4.13,69.95,0,62.5,0h0Z"/>
</svg>