<?xml version="1.0" encoding="UTF-8"?>
<svg id="Layer_1" xmlns="http://www.w3.org/2000/svg" version="1.1" viewBox="0 0 125 125">
  <!-- Generator: Adobe Illustrator 30.1.0, SVG Export Plug-In . SVG Version: 2.1.1 Build 136)  -->
  <path d="M62.5,26.33c1.18,0,2.35.61,2.97,1.83l7.57,15.02c1.3,2.58,3.72,4.4,6.55,4.93l16.37,3.07c2.56.48,3.6,3.59,1.84,5.52l-11.93,13.09c-1.84,2.02-2.7,4.75-2.34,7.46l2.33,17.65c.28,2.11-1.4,3.77-3.29,3.77-.5,0-1.02-.12-1.52-.37l-14.32-7.37c-1.33-.68-2.78-1.03-4.23-1.03s-2.9.34-4.23,1.03l-14.32,7.37c-.5.26-1.02.37-1.52.37-1.89,0-3.57-1.67-3.29-3.77l2.33-17.65c.36-2.71-.5-5.44-2.34-7.45l-11.93-13.09c-1.76-1.93-.72-5.04,1.84-5.52l16.37-3.07c2.83-.53,5.25-2.35,6.55-4.93l7.57-15.02c.61-1.22,1.79-1.83,2.97-1.83M62.5,0C51.23,0,41.09,6.25,36.02,16.31l-3.77,7.48-8.06,1.51c-10.56,1.98-19.24,9.54-22.65,19.73-3.41,10.19-1.04,21.46,6.2,29.4l6.59,7.23-1.29,9.79c-1.12,8.47,1.47,17.01,7.09,23.42,5.64,6.43,13.77,10.12,22.3,10.12,0,0,0,0,0,0,4.69,0,9.39-1.14,13.57-3.3l6.49-3.34,6.5,3.35c4.19,2.16,8.88,3.3,13.57,3.3,8.54,0,16.66-3.69,22.3-10.12,5.62-6.41,8.21-14.95,7.09-23.42l-1.29-9.79,6.59-7.23c7.24-7.94,9.62-19.21,6.2-29.4-3.41-10.19-12.09-17.75-22.65-19.73l-8.06-1.51-3.77-7.48C83.91,6.25,73.76,0,62.5,0h0Z"/>
</svg>