<?xml version="1.0" encoding="UTF-8"?>
<svg id="Layer_1" xmlns="http://www.w3.org/2000/svg" version="1.1" viewBox="0 0 125 125">
  <!-- Generator: Adobe Illustrator 30.1.0, SVG Export Plug-In . SVG Version: 2.1.1 Build 136)  -->
  <path d="M62.5,8.67c1.75,0,3.5.91,4.41,2.72l11.26,22.35c1.93,3.84,5.54,6.55,9.75,7.34l24.36,4.57c3.81.71,5.35,5.34,2.74,8.21l-17.75,19.48c-2.74,3.01-4.01,7.07-3.48,11.11l3.46,26.26c.41,3.13-2.08,5.61-4.9,5.61-.75,0-1.52-.17-2.26-.56l-21.31-10.97c-1.98-1.02-4.13-1.53-6.29-1.53s-4.32.51-6.29,1.53l-21.31,10.97c-.74.38-1.51.56-2.26.56-2.82,0-5.31-2.48-4.9-5.61l3.46-26.27c.53-4.03-.74-8.09-3.48-11.09l-17.75-19.48c-2.62-2.87-1.07-7.5,2.74-8.22l24.36-4.57c4.21-.79,7.82-3.5,9.75-7.34l11.26-22.36c.91-1.82,2.66-2.72,4.41-2.72M62.5,0C57.33,0,52.67,2.87,50.34,7.49l-11.26,22.36c-.71,1.41-2.06,2.42-3.6,2.71l-24.36,4.57c-4.85.91-8.84,4.38-10.4,9.06-1.57,4.69-.48,9.87,2.85,13.52l17.75,19.48c1.02,1.12,1.49,2.62,1.29,4.12l-3.46,26.27c-.51,3.9.67,7.82,3.25,10.76,2.6,2.96,6.33,4.66,10.25,4.66,2.15,0,4.3-.53,6.23-1.52l21.31-10.97c.72-.37,1.52-.56,2.32-.56s1.61.19,2.32.56l21.31,10.97c1.93.99,4.08,1.52,6.23,1.52,3.92,0,7.65-1.7,10.25-4.66,2.58-2.94,3.76-6.86,3.25-10.76l-3.46-26.26c-.2-1.51.27-3.01,1.29-4.13l17.75-19.48c3.33-3.65,4.42-8.83,2.85-13.51-1.57-4.68-5.55-8.15-10.4-9.06l-24.36-4.57c-1.55-.29-2.89-1.31-3.61-2.72l-11.26-22.35C72.33,2.87,67.67,0,62.5,0h0Z"/>
</svg>