<?xml version="1.0" encoding="UTF-8"?>
<svg id="Layer_1" xmlns="http://www.w3.org/2000/svg" version="1.1" viewBox="0 0 116 116">
  <!-- Generator: Adobe Illustrator 30.1.0, SVG Export Plug-In . SVG Version: 2.1.1 Build 136)  -->
  <circle id="Outer" cx="58" cy="58" r="52.96" fill="none" stroke="#000" stroke-width="10.08"/>
  <g>
    <g>
      <rect x="54.33" y="77.15" width="7.26" height="7.26"/>
      <path d="M60.87,77.88v5.81h-5.81v-5.81h5.81M62.32,76.43h-8.71v8.71h8.71v-8.71h0Z"/>
    </g>
    <g>
      <path d="M54.34,69.14l-.03-2.92c.01-2.94,1.1-5.75,3.07-7.92l5.76-6.38c1.45-1.61,2.26-3.69,2.26-5.85,0-3.03-2.49-5.5-5.55-5.5h-3.7c-3.06,0-5.55,2.47-5.55,5.5v.73h-7.31v-.73c0-7.04,5.77-12.77,12.86-12.77h3.7c7.09,0,12.86,5.73,12.86,12.77,0,3.96-1.47,7.76-4.13,10.71l-5.76,6.38c-.78.87-1.2,1.92-1.2,3.06l-.03,2.92h-7.25Z"/>
      <path d="M59.85,34.03c6.69,0,12.13,5.41,12.13,12.05,0,3.78-1.4,7.41-3.94,10.22l-5.76,6.38c-.89.99-1.39,2.21-1.39,3.54l-.02,2.2h-5.81l-.02-2.2c.01-2.75,1.02-5.38,2.88-7.43l5.76-6.38c1.58-1.75,2.44-4,2.44-6.34,0-3.43-2.81-6.23-6.27-6.23h-3.7c-3.46,0-6.27,2.79-6.27,6.23h-5.86c0-6.64,5.44-12.05,12.13-12.05h3.7M59.85,32.58h-3.7c-7.49,0-13.58,6.06-13.58,13.5v1.45h8.76v-1.45c0-2.63,2.16-4.78,4.82-4.78h3.7c2.66,0,4.82,2.14,4.82,4.78,0,1.98-.73,3.89-2.07,5.37l-5.76,6.38c-2.09,2.31-3.24,5.29-3.25,8.39l.02,2.22v1.44h8.7v-1.44s.04-2.2.04-2.2c0-.96.35-1.85,1.02-2.58l5.76-6.38c2.78-3.08,4.31-7.06,4.31-11.2,0-7.44-6.09-13.5-13.58-13.5h0Z"/>
    </g>
  </g>
</svg>