<?xml version="1.0" encoding="UTF-8"?>
<svg id="Layer_1" xmlns="http://www.w3.org/2000/svg" version="1.1" viewBox="0 0 116 116">
  <!-- Generator: Adobe Illustrator 30.1.0, SVG Export Plug-In . SVG Version: 2.1.1 Build 136)  -->
  <circle id="Outer" cx="58" cy="58" r="46.8" fill="none" stroke="#000" stroke-width="22.4"/>
  <g>
    <g>
      <rect x="54.28" y="72.46" width="7.39" height="7.39"/>
      <path d="M59.85,74.27v3.76h-3.76v-3.76h3.76M63.48,70.65h-11.01v11.01h11.01v-11.01h0Z"/>
    </g>
    <g>
      <path d="M54.3,65.55l-.03-3.22c0-2.25.84-4.39,2.33-6.04l3.73-4.13c.72-.8,1.12-1.82,1.12-2.89,0-1.23-1.01-2.22-2.25-2.22h-2.4c-1.24,0-2.25,1-2.25,2.22v1.81h-7.42v-1.81c0-5.3,4.34-9.62,9.67-9.62h2.4c5.33,0,9.67,4.31,9.67,9.62,0,2.9-1.07,5.68-3.02,7.84l-3.73,4.13c-.29.32-.43.68-.43,1.08l-.03,3.23h-7.36Z"/>
      <path d="M59.2,41.46c4.34,0,7.86,3.5,7.86,7.81,0,2.45-.91,4.8-2.55,6.62l-3.73,4.13c-.58.64-.9,1.43-.9,2.29v1.42h-3.78v-1.42c0-1.78.65-3.48,1.85-4.81l3.73-4.13c1.02-1.13,1.58-2.59,1.58-4.11,0-2.22-1.82-4.03-4.06-4.03h-2.4c-2.24,0-4.06,1.81-4.06,4.03h-3.8c0-4.3,3.53-7.81,7.86-7.81h2.4M59.2,37.84h-2.4c-6.33,0-11.49,5.13-11.49,11.43v3.63h11.05v-3.63c0-.22.2-.41.44-.41h2.4c.24,0,.44.19.44.41,0,.62-.23,1.21-.65,1.68l-3.73,4.13c-1.79,1.98-2.79,4.55-2.8,7.23v1.47s.04,3.59.04,3.59h10.95l.04-3.59v-1.36s3.71-4.1,3.71-4.1c2.25-2.49,3.49-5.71,3.49-9.05,0-6.3-5.15-11.43-11.49-11.43h0Z"/>
    </g>
  </g>
</svg>