<?xml version="1.0" encoding="UTF-8"?>
<svg id="Layer_1" xmlns="http://www.w3.org/2000/svg" version="1.1" viewBox="0 0 116 116">
  <!-- Generator: Adobe Illustrator 30.1.0, SVG Export Plug-In . SVG Version: 2.1.1 Build 136)  -->
  <circle id="Outer" cx="58" cy="58" r="45.78" fill="none" stroke="#000" stroke-width="24.43"/>
  <g>
    <g>
      <rect x="54.25" y="71.67" width="7.45" height="7.45"/>
      <path d="M59.7,73.66v3.46h-3.46v-3.46h3.46M63.69,69.67h-11.43v11.43h11.43v-11.43h0Z"/>
    </g>
    <g>
      <path d="M54.28,65.06l-.03-3.29c0-2.15.8-4.2,2.23-5.78l3.42-3.79c.61-.67.94-1.54.94-2.44,0-.94-.78-1.71-1.74-1.71h-2.2c-.96,0-1.74.77-1.74,1.71v1.99h-7.48v-1.99c0-5.05,4.13-9.16,9.22-9.16h2.2c5.08,0,9.22,4.11,9.22,9.16,0,2.74-1.02,5.38-2.86,7.42l-3.42,3.8c-.21.23-.31.49-.31.78l-.03,3.29h-7.41Z"/>
      <path d="M59.1,42.59c3.98,0,7.22,3.22,7.22,7.17,0,2.25-.83,4.41-2.35,6.09l-3.43,3.8c-.53.59-.82,1.32-.83,2.11v1.31h-3.47v-1.31c0-1.64.6-3.2,1.7-4.42l3.43-3.79c.94-1.04,1.45-2.38,1.45-3.77,0-2.04-1.67-3.71-3.73-3.71h-2.2c-2.06,0-3.73,1.66-3.73,3.71h-3.49c0-3.95,3.24-7.17,7.22-7.17h2.2M59.1,38.61h-2.2c-6.18,0-11.21,5.01-11.21,11.16v3.99h10.12l-.82.91c-1.76,1.94-2.73,4.46-2.74,7.08v1.36s.05,3.95.05,3.95h11.36l.04-3.95v-1s3.24-3.58,3.24-3.58c2.17-2.41,3.37-5.52,3.37-8.76,0-6.15-5.03-11.16-11.21-11.16h0ZM57.15,50.05h1.67c-.05.3-.19.59-.4.82l-1.26,1.4v-2.22h0Z"/>
    </g>
  </g>
</svg>