<?xml version="1.0" encoding="UTF-8"?>
<svg id="Layer_1" xmlns="http://www.w3.org/2000/svg" version="1.1" viewBox="0 0 116 116">
  <!-- Generator: Adobe Illustrator 30.1.0, SVG Export Plug-In . SVG Version: 2.1.1 Build 136)  -->
  <circle id="Outer" cx="58" cy="58" r="48.85" fill="none" stroke="#000" stroke-width="18.31"/>
  <g>
    <g>
      <rect x="54.31" y="74.04" width="7.31" height="7.31"/>
      <path d="M60.17,75.49v4.41h-4.41v-4.41h4.41M63.07,72.59h-10.21v10.21h10.21v-10.21h0Z"/>
    </g>
    <g>
      <path d="M54.33,66.65l-.03-3.11c0-2.46.92-4.81,2.56-6.62l4.37-4.84c.96-1.06,1.48-2.42,1.48-3.84,0-1.81-1.49-3.28-3.31-3.28h-2.81c-1.83,0-3.31,1.47-3.31,3.28v1.45h-7.35v-1.45c0-5.84,4.78-10.6,10.66-10.6h2.81c5.88,0,10.66,4.75,10.66,10.6,0,3.23-1.2,6.33-3.37,8.73l-4.37,4.84c-.44.49-.68,1.09-.68,1.72l-.03,3.11h-7.28Z"/>
      <path d="M59.4,39.09c5.08,0,9.21,4.1,9.21,9.15,0,2.87-1.06,5.63-2.99,7.76l-4.37,4.84c-.68.75-1.05,1.68-1.05,2.69l-.02,1.67h-4.41v-1.67c0-2.09.76-4.08,2.17-5.64l4.37-4.84c1.2-1.32,1.85-3.03,1.85-4.81,0-2.61-2.14-4.73-4.76-4.73h-2.81c-2.62,0-4.76,2.12-4.76,4.73h-4.45c0-5.04,4.13-9.15,9.21-9.15h2.81M59.4,36.19h-2.81c-6.68,0-12.11,5.4-12.11,12.05v2.9h10.25v-2.9c0-1.01.83-1.83,1.86-1.83h2.81c1.03,0,1.86.82,1.86,1.83,0,1.06-.39,2.08-1.11,2.87l-4.37,4.84c-1.88,2.08-2.92,4.77-2.93,7.57v1.7s.04,2.87.04,2.87h10.16l.03-2.87.02-1.67c0-.3.1-.54.31-.77l4.37-4.84c2.41-2.67,3.74-6.12,3.74-9.7,0-6.64-5.43-12.05-12.11-12.05h0Z"/>
    </g>
  </g>
</svg>