<?xml version="1.0" encoding="UTF-8"?>
<svg id="Layer_1" xmlns="http://www.w3.org/2000/svg" version="1.1" viewBox="0 0 116 116">
  <!-- Generator: Adobe Illustrator 30.1.0, SVG Export Plug-In . SVG Version: 2.1.1 Build 136)  -->
  <circle id="Outer" cx="58" cy="58" r="50.91" fill="none" stroke="#000" stroke-width="14.17"/>
  <g>
    <g>
      <rect x="54.33" y="75.61" width="7.27" height="7.27"/>
      <path d="M60.52,76.7v5.1h-5.1v-5.1h5.1M62.69,74.52h-9.45v9.45h9.45v-9.45h0Z"/>
    </g>
    <g>
      <path d="M54.35,67.85l-.03-3.01c0-2.69,1.01-5.27,2.81-7.26l5.05-5.59c1.2-1.33,1.86-3.05,1.86-4.83,0-2.41-1.98-4.38-4.41-4.38h-3.24c-2.43,0-4.42,1.96-4.42,4.38v1.09h-7.32v-1.09c0-6.43,5.26-11.66,11.73-11.66h3.24c6.47,0,11.73,5.23,11.73,11.66,0,3.58-1.33,7.03-3.74,9.7l-5.05,5.6c-.61.68-.94,1.5-.94,2.38l-.03,3.01h-7.25Z"/>
      <path d="M59.62,36.6c5.87,0,10.65,4.74,10.65,10.57,0,3.32-1.23,6.5-3.46,8.97l-5.05,5.6c-.78.87-1.22,1.94-1.22,3.11l-.02,1.93h-5.1l-.02-1.93c0-2.42.9-4.72,2.53-6.52l5.05-5.59c1.38-1.53,2.14-3.51,2.14-5.56,0-3.01-2.47-5.46-5.5-5.46h-3.24c-3.03,0-5.5,2.45-5.5,5.46h-5.14c0-5.83,4.78-10.57,10.65-10.57h3.24M59.62,34.42h-3.24c-7.07,0-12.82,5.72-12.82,12.75v2.17h9.49v-2.17c0-1.81,1.49-3.29,3.33-3.29h3.24c1.83,0,3.33,1.48,3.33,3.29,0,1.52-.56,2.97-1.58,4.1l-5.05,5.59c-1.98,2.19-3.08,5.02-3.09,7.97l.02,1.96.02,2.16h9.41l.02-2.15.02-1.93c0-.63.22-1.19.66-1.67l5.05-5.6c2.59-2.87,4.02-6.57,4.02-10.43,0-7.03-5.75-12.75-12.82-12.75h0Z"/>
    </g>
  </g>
</svg>