<?xml version="1.0" encoding="UTF-8"?>
<svg id="Layer_1" xmlns="http://www.w3.org/2000/svg" version="1.1" viewBox="0 0 116 116">
  <!-- Generator: Adobe Illustrator 30.1.0, SVG Export Plug-In . SVG Version: 2.1.1 Build 136)  -->
  <circle id="Outer" cx="58" cy="58" r="53.98" fill="none" stroke="#000" stroke-width="8.05"/>
  <g>
    <g>
      <rect x="54.33" y="77.91" width="7.26" height="7.26"/>
      <path d="M61.05,78.46v6.18h-6.18v-6.18h6.18M62.14,77.37h-8.35v8.35h8.35v-8.35h0Z"/>
    </g>
    <g>
      <path d="M54.34,69.81l-.03-2.87c.01-3.06,1.15-5.99,3.2-8.26l6.12-6.77c1.58-1.75,2.46-4.02,2.46-6.37,0-3.35-2.75-6.07-6.12-6.07h-3.93c-3.38,0-6.12,2.73-6.12,6.07v.54h-7.32v-.54c0-7.36,6.03-13.35,13.44-13.35h3.93c7.41,0,13.44,5.99,13.44,13.35,0,4.15-1.54,8.14-4.33,11.23l-6.12,6.78c-.87.96-1.33,2.14-1.34,3.4l-.03,2.88h-7.25Z"/>
      <path d="M59.96,32.72c7.11,0,12.9,5.75,12.9,12.8,0,4.02-1.49,7.87-4.19,10.87l-6.12,6.78c-.95,1.05-1.47,2.35-1.48,3.76l-.02,2.34h-6.18l-.02-2.34c.01-2.93,1.09-5.72,3.06-7.89l6.12-6.78c1.67-1.85,2.6-4.25,2.6-6.74,0-3.65-2.99-6.62-6.67-6.62h-3.93c-3.67,0-6.67,2.97-6.67,6.62h-6.23c0-7.06,5.78-12.8,12.9-12.8h3.93M59.96,31.64h-3.93c-7.71,0-13.98,6.23-13.98,13.89v1.09h8.41v-1.09c0-3.05,2.5-5.53,5.58-5.53h3.93c3.08,0,5.58,2.48,5.58,5.53,0,2.22-.82,4.35-2.32,6.01l-6.12,6.78c-2.14,2.37-3.33,5.43-3.34,8.62l.02,2.35v1.08h8.34v-1.08s.03-2.34.03-2.34c0-1.13.42-2.18,1.2-3.04l6.12-6.78c2.88-3.19,4.47-7.31,4.47-11.59,0-7.66-6.27-13.89-13.98-13.89h0Z"/>
    </g>
  </g>
</svg>