<?xml version="1.0" encoding="UTF-8"?>
<svg id="Layer_1" xmlns="http://www.w3.org/2000/svg" version="1.1" viewBox="0 0 120 120">
  <!-- Generator: Adobe Illustrator 30.1.0, SVG Export Plug-In . SVG Version: 2.1.1 Build 136)  -->
  <circle id="Outer" cx="60" cy="60" r="50.53" fill="none" stroke="#000" stroke-width="18.94"/>
  <g>
    <g>
      <rect x="56.19" y="76.59" width="7.56" height="7.56"/>
      <path d="M62.25,78.09v4.56h-4.56v-4.56h4.56M65.25,75.09h-10.56v10.56h10.56v-10.56h0Z"/>
    </g>
    <g>
      <path d="M56.21,68.94l-.03-3.21c0-2.55.95-4.97,2.65-6.85l4.52-5c.99-1.09,1.53-2.51,1.53-3.97,0-1.87-1.54-3.39-3.43-3.39h-2.9c-1.89,0-3.42,1.52-3.42,3.39v1.5h-7.6v-1.5c0-6.04,4.95-10.96,11.03-10.96h2.9c6.08,0,11.03,4.92,11.03,10.96,0,3.34-1.24,6.55-3.48,9.03l-4.52,5.01c-.46.51-.7,1.12-.7,1.78l-.03,3.22h-7.53Z"/>
      <path d="M61.45,40.44c5.25,0,9.53,4.25,9.53,9.46,0,2.97-1.1,5.82-3.09,8.03l-4.52,5.01c-.7.77-1.09,1.74-1.09,2.78l-.02,1.73h-4.56l-.02-1.73c0-2.16.8-4.22,2.26-5.83l4.52-5.01c1.24-1.37,1.92-3.14,1.92-4.98,0-2.7-2.21-4.89-4.93-4.89h-2.9c-2.72,0-4.93,2.19-4.93,4.89h-4.6c0-5.22,4.27-9.46,9.53-9.46h2.9M61.45,37.44h-2.9c-6.91,0-12.53,5.59-12.53,12.46v3h10.6v-3c0-1.04.86-1.89,1.93-1.89h2.9c1.06,0,1.93.85,1.93,1.89,0,1.1-.41,2.15-1.15,2.97l-4.52,5.01c-1.94,2.15-3.02,4.93-3.03,7.83l.02,1.76.03,2.97h10.51l.03-2.97.02-1.73c0-.31.1-.56.32-.8l4.52-5.01c2.49-2.76,3.87-6.33,3.87-10.04,0-6.87-5.62-12.46-12.53-12.46h0Z"/>
    </g>
  </g>
</svg>