<?xml version="1.0" encoding="UTF-8"?>
<svg id="Layer_1" xmlns="http://www.w3.org/2000/svg" version="1.1" viewBox="0 0 120 120">
  <!-- Generator: Adobe Illustrator 30.1.0, SVG Export Plug-In . SVG Version: 2.1.1 Build 136)  -->
  <circle id="Outer" cx="60" cy="60" r="48.41" fill="none" stroke="#000" stroke-width="23.17"/>
  <g>
    <g>
      <rect x="56.15" y="74.96" width="7.64" height="7.64"/>
      <path d="M61.92,76.83v3.89h-3.89v-3.89h3.89M65.67,73.08h-11.39v11.39h11.39v-11.39h0Z"/>
    </g>
    <g>
      <path d="M56.17,67.81l-.03-3.33c0-2.33.87-4.54,2.41-6.25l3.86-4.27c.74-.82,1.15-1.89,1.15-2.99,0-1.27-1.04-2.3-2.33-2.3h-2.48c-1.28,0-2.33,1.03-2.33,2.3v1.88h-7.68v-1.88c0-5.49,4.49-9.95,10.01-9.95h2.48c5.52,0,10.01,4.46,10.01,9.95,0,3-1.11,5.88-3.12,8.11l-3.86,4.27c-.3.33-.45.71-.45,1.12l-.04,3.34h-7.61Z"/>
      <path d="M61.24,42.89c4.48,0,8.13,3.62,8.13,8.08,0,2.53-.94,4.97-2.64,6.85l-3.86,4.28c-.6.66-.93,1.48-.93,2.37v1.47h-3.91v-1.47c0-1.85.67-3.6,1.92-4.98l3.86-4.27c1.06-1.17,1.64-2.68,1.64-4.25,0-2.3-1.89-4.17-4.2-4.17h-2.48c-2.32,0-4.2,1.87-4.2,4.17h-3.93c0-4.45,3.65-8.08,8.13-8.08h2.48M61.24,39.14h-2.48c-6.55,0-11.88,5.3-11.88,11.83v3.75h11.43v-3.75c0-.23.21-.42.45-.42h2.48c.25,0,.45.19.45.42,0,.64-.24,1.26-.67,1.74l-3.86,4.27c-1.86,2.05-2.89,4.71-2.9,7.48v1.52s.05,3.72.05,3.72h11.32l.04-3.71v-1.41s3.84-4.24,3.84-4.24c2.33-2.58,3.61-5.9,3.61-9.37,0-6.52-5.33-11.83-11.88-11.83h0Z"/>
    </g>
  </g>
</svg>