<?xml version="1.0" encoding="UTF-8"?>
<svg id="Layer_1" xmlns="http://www.w3.org/2000/svg" version="1.1" viewBox="0 0 120 120">
  <!-- Generator: Adobe Illustrator 30.1.0, SVG Export Plug-In . SVG Version: 2.1.1 Build 136)  -->
  <circle id="Outer" cx="60" cy="60" r="52.67" fill="none" stroke="#000" stroke-width="14.66"/>
  <g>
    <g>
      <rect x="56.2" y="78.21" width="7.52" height="7.52"/>
      <path d="M62.6,79.34v5.27h-5.27v-5.27h5.27M64.85,77.09h-9.77v9.77h9.77v-9.77h0Z"/>
    </g>
    <g>
      <path d="M56.22,70.19l-.03-3.11c0-2.79,1.04-5.45,2.9-7.51l5.22-5.79c1.24-1.38,1.93-3.15,1.93-5,0-2.5-2.05-4.53-4.57-4.53h-3.36c-2.52,0-4.57,2.03-4.57,4.53v1.12h-7.57v-1.12c0-6.65,5.44-12.06,12.14-12.06h3.36c6.69,0,12.14,5.41,12.14,12.06,0,3.71-1.37,7.27-3.87,10.03l-5.22,5.79c-.63.7-.97,1.55-.97,2.46l-.03,3.12h-7.5Z"/>
      <path d="M61.68,37.86c6.07,0,11.01,4.91,11.01,10.94,0,3.43-1.27,6.73-3.58,9.28l-5.22,5.79c-.81.9-1.26,2.01-1.26,3.21l-.02,1.99h-5.27l-.02-1.99c0-2.5.93-4.88,2.61-6.74l5.22-5.79c1.43-1.58,2.22-3.63,2.22-5.75,0-3.12-2.55-5.65-5.69-5.65h-3.36c-3.14,0-5.69,2.54-5.69,5.65h-5.32c0-6.03,4.94-10.94,11.01-10.94h3.36M61.68,35.61h-3.36c-7.31,0-13.26,5.92-13.26,13.19v2.25h9.82v-2.25c0-1.88,1.54-3.4,3.44-3.4h3.36c1.9,0,3.44,1.53,3.44,3.4,0,1.57-.58,3.08-1.64,4.24l-5.22,5.79c-2.05,2.26-3.18,5.19-3.19,8.24l.02,2.02.02,2.23h9.73l.02-2.23.02-1.99c0-.65.23-1.23.68-1.73l5.23-5.79c2.68-2.97,4.16-6.8,4.16-10.79,0-7.27-5.95-13.19-13.26-13.19h0Z"/>
    </g>
  </g>
</svg>