<?xml version="1.0" encoding="UTF-8"?>
<svg id="Layer_1" xmlns="http://www.w3.org/2000/svg" version="1.1" viewBox="0 0 120 120">
  <!-- Generator: Adobe Illustrator 30.1.0, SVG Export Plug-In . SVG Version: 2.1.1 Build 136)  -->
  <circle id="Outer" cx="60" cy="60" r="47.36" fill="none" stroke="#000" stroke-width="25.27"/>
  <g>
    <g>
      <rect x="56.12" y="74.14" width="7.7" height="7.7"/>
      <path d="M61.76,76.2v3.58h-3.58v-3.58h3.58M65.89,72.08h-11.83v11.83h11.83v-11.83h0Z"/>
    </g>
    <g>
      <path d="M56.15,67.3l-.03-3.4c0-2.23.83-4.34,2.31-5.98l3.54-3.92c.63-.7.97-1.59.97-2.52,0-.98-.81-1.77-1.8-1.77h-2.28c-.99,0-1.8.79-1.8,1.77v2.06h-7.73v-2.06c0-5.23,4.28-9.48,9.53-9.48h2.28c5.26,0,9.53,4.25,9.53,9.48,0,2.84-1.05,5.56-2.96,7.68l-3.54,3.93c-.21.24-.32.51-.32.81l-.03,3.41h-7.66Z"/>
      <path d="M61.14,44.06c4.12,0,7.47,3.33,7.47,7.42,0,2.33-.86,4.56-2.43,6.29l-3.54,3.93c-.55.61-.85,1.36-.86,2.18v1.35h-3.59v-1.35c0-1.7.62-3.31,1.76-4.57l3.54-3.93c.97-1.07,1.5-2.46,1.5-3.9,0-2.11-1.73-3.83-3.86-3.83h-2.28c-2.13,0-3.86,1.72-3.86,3.83h-3.61c0-4.09,3.35-7.42,7.47-7.42h2.28M61.14,39.94h-2.28c-6.39,0-11.6,5.18-11.6,11.54v4.12h10.47l-.85.94c-1.82,2.01-2.83,4.61-2.84,7.32v.03s0,.03,0,.03v1.35s.05,4.09.05,4.09h11.75l.04-4.08v-1.04s3.35-3.7,3.35-3.7c2.25-2.49,3.49-5.71,3.49-9.06,0-6.37-5.2-11.54-11.6-11.54h0ZM59.13,51.77h1.72c-.05.31-.2.61-.42.85l-1.31,1.45v-2.3h0Z"/>
    </g>
  </g>
</svg>