<?xml version="1.0" encoding="UTF-8"?>
<svg id="Layer_1" xmlns="http://www.w3.org/2000/svg" version="1.1" viewBox="0 0 120 120">
  <!-- Generator: Adobe Illustrator 30.1.0, SVG Export Plug-In . SVG Version: 2.1.1 Build 136)  -->
  <circle id="Outer" cx="60" cy="60" r="54.79" fill="none" stroke="#000" stroke-width="10.43"/>
  <g>
    <g>
      <rect x="56.21" y="79.81" width="7.51" height="7.51"/>
      <path d="M62.97,80.56v6.01h-6.01v-6.01h6.01M64.47,79.06h-9.01v9.01h9.01v-9.01h0Z"/>
    </g>
    <g>
      <path d="M56.22,71.53l-.03-3.02c.01-3.04,1.14-5.95,3.17-8.19l5.95-6.6c1.5-1.67,2.33-3.82,2.33-6.05,0-3.14-2.57-5.69-5.74-5.69h-3.82c-3.16,0-5.74,2.55-5.74,5.69v.75h-7.56v-.75c0-7.29,5.97-13.21,13.3-13.21h3.82c7.33,0,13.3,5.93,13.3,13.21,0,4.1-1.52,8.03-4.27,11.08l-5.96,6.6c-.81.9-1.24,1.99-1.24,3.16l-.03,3.02h-7.5Z"/>
      <path d="M61.91,35.2c6.92,0,12.55,5.59,12.55,12.46,0,3.91-1.45,7.67-4.08,10.58l-5.96,6.6c-.92,1.02-1.43,2.29-1.44,3.66l-.02,2.27h-6.01l-.02-2.27c.01-2.85,1.06-5.56,2.98-7.68l5.95-6.6c1.63-1.81,2.53-4.13,2.53-6.56,0-3.55-2.91-6.44-6.49-6.44h-3.82c-3.58,0-6.49,2.89-6.49,6.44h-6.06c0-6.87,5.63-12.46,12.55-12.46h3.82M61.91,33.7h-3.82c-7.75,0-14.05,6.26-14.05,13.96v1.5h9.06v-1.5c0-2.73,2.24-4.94,4.99-4.94h3.82c2.75,0,4.99,2.22,4.99,4.94,0,2.05-.76,4.02-2.14,5.55l-5.95,6.6c-2.16,2.39-3.35,5.47-3.36,8.68l.02,2.29v1.49h9l.02-1.48.02-2.27c0-.99.37-1.91,1.05-2.67l5.96-6.6c2.88-3.19,4.46-7.3,4.46-11.58,0-7.7-6.3-13.96-14.05-13.96h0Z"/>
    </g>
  </g>
</svg>