<?xml version="1.0" encoding="UTF-8"?>
<svg id="Layer_1" xmlns="http://www.w3.org/2000/svg" version="1.1" viewBox="0 0 120 120">
  <!-- Generator: Adobe Illustrator 30.1.0, SVG Export Plug-In . SVG Version: 2.1.1 Build 136)  -->
  <circle id="Outer" cx="60" cy="60" r="55.84" fill="none" stroke="#000" stroke-width="8.32"/>
  <g>
    <g>
      <rect x="56.21" y="80.6" width="7.51" height="7.51"/>
      <path d="M63.16,81.16v6.39h-6.39v-6.39h6.39M64.28,80.04h-8.64v8.64h8.64v-8.64h0Z"/>
    </g>
    <g>
      <path d="M56.21,72.22l-.03-2.97c.01-3.17,1.19-6.2,3.31-8.55l6.33-7.01c1.64-1.81,2.54-4.16,2.54-6.59,0-3.47-2.84-6.28-6.33-6.28h-4.06c-3.49,0-6.33,2.82-6.33,6.28v.56h-7.57v-.56c0-7.61,6.24-13.81,13.9-13.81h4.06c7.67,0,13.9,6.19,13.9,13.81,0,4.29-1.59,8.42-4.48,11.62l-6.33,7.01c-.9,1-1.38,2.21-1.38,3.52l-.03,2.98h-7.5Z"/>
      <path d="M62.03,33.85c7.36,0,13.34,5.94,13.34,13.25,0,4.16-1.54,8.15-4.33,11.24l-6.33,7.01c-.98,1.08-1.52,2.43-1.53,3.89l-.02,2.42h-6.39l-.02-2.42c.01-3.03,1.13-5.91,3.16-8.17l6.33-7.01c1.73-1.92,2.69-4.39,2.69-6.97,0-3.77-3.09-6.85-6.89-6.85h-4.06c-3.8,0-6.89,3.07-6.89,6.85h-6.44c0-7.3,5.98-13.25,13.34-13.25h4.06M62.03,32.73h-4.06c-7.98,0-14.46,6.45-14.46,14.37v1.12h8.69v-1.12c0-3.15,2.59-5.72,5.77-5.72h4.06c3.18,0,5.77,2.57,5.77,5.72,0,2.3-.85,4.5-2.4,6.21l-6.33,7.01c-2.22,2.45-3.44,5.62-3.45,8.92l.02,2.43v1.12h8.63v-1.11s.04-2.42.04-2.42c0-1.17.43-2.26,1.24-3.15l6.33-7.01c2.98-3.3,4.62-7.56,4.62-11.99,0-7.92-6.49-14.37-14.46-14.37h0Z"/>
    </g>
  </g>
</svg>