<?xml version="1.0" encoding="UTF-8"?>
<svg id="Layer_1" xmlns="http://www.w3.org/2000/svg" version="1.1" viewBox="0 0 115 115">
  <!-- Generator: Adobe Illustrator 30.1.0, SVG Export Plug-In . SVG Version: 2.1.1 Build 136)  -->
  <circle id="Outer" cx="57.5" cy="57.5" r="46.4" fill="none" stroke="#000" stroke-width="22.21"/>
  <g>
    <g>
      <rect x="53.81" y="71.83" width="7.33" height="7.33"/>
      <path d="M59.34,73.63v3.73h-3.73v-3.73h3.73M62.93,70.04h-10.92v10.92h10.92v-10.92h0Z"/>
    </g>
    <g>
      <path d="M53.83,64.99l-.03-3.19c0-2.23.83-4.35,2.31-5.99l3.7-4.09c.71-.79,1.11-1.81,1.11-2.87,0-1.21-1-2.2-2.23-2.2h-2.38c-1.23,0-2.23.99-2.23,2.2v1.8h-7.36v-1.8c0-5.26,4.3-9.54,9.59-9.54h2.38c5.29,0,9.59,4.28,9.59,9.54,0,2.87-1.06,5.63-2.99,7.77l-3.7,4.1c-.28.31-.43.67-.43,1.08l-.03,3.2h-7.29Z"/>
      <path d="M58.69,41.1c4.3,0,7.79,3.47,7.79,7.74,0,2.43-.9,4.76-2.53,6.57l-3.7,4.1c-.57.63-.89,1.42-.89,2.27v1.41h-3.75v-1.41c0-1.77.65-3.45,1.84-4.77l3.7-4.1c1.01-1.12,1.57-2.57,1.57-4.07,0-2.21-1.81-4-4.03-4h-2.37c-2.22,0-4.03,1.79-4.03,4h-3.77c0-4.27,3.5-7.74,7.79-7.74h2.37M58.69,37.51h-2.37c-6.28,0-11.39,5.08-11.39,11.33v3.59h10.95v-3.59c0-.22.2-.41.43-.41h2.37c.24,0,.43.19.43.41,0,.61-.23,1.2-.64,1.66l-3.7,4.1c-1.78,1.97-2.77,4.51-2.77,7.17v1.46s.04,3.56.04,3.56h10.85l.04-3.56v-1.35s3.68-4.06,3.68-4.06c2.23-2.47,3.46-5.66,3.46-8.97,0-6.25-5.11-11.33-11.39-11.33h0Z"/>
    </g>
  </g>
</svg>