<?xml version="1.0" encoding="UTF-8"?>
<svg id="Layer_1" xmlns="http://www.w3.org/2000/svg" version="1.1" viewBox="0 0 115 115">
  <!-- Generator: Adobe Illustrator 30.1.0, SVG Export Plug-In . SVG Version: 2.1.1 Build 136)  -->
  <circle id="Outer" cx="57.5" cy="57.5" r="53.51" fill="none" stroke="#000" stroke-width="7.98"/>
  <g>
    <g>
      <rect x="53.86" y="77.24" width="7.2" height="7.2"/>
      <path d="M60.52,77.78v6.12h-6.12v-6.12h6.12M61.6,76.7h-8.28v8.28h8.28v-8.28h0Z"/>
    </g>
    <g>
      <path d="M53.87,69.21l-.03-2.85c.01-3.04,1.14-5.94,3.17-8.19l6.06-6.72c1.57-1.74,2.43-3.98,2.43-6.32,0-3.32-2.72-6.02-6.07-6.02h-3.89c-3.35,0-6.07,2.7-6.07,6.02v.54h-7.25v-.54c0-7.3,5.98-13.23,13.32-13.23h3.89c7.35,0,13.32,5.94,13.32,13.23,0,4.11-1.52,8.07-4.29,11.13l-6.06,6.72c-.86.95-1.32,2.12-1.33,3.37l-.03,2.85h-7.19Z"/>
      <path d="M59.45,32.44c7.05,0,12.78,5.7,12.78,12.69,0,3.98-1.47,7.81-4.15,10.77l-6.06,6.72c-.94,1.04-1.46,2.33-1.46,3.73l-.02,2.32h-6.12l-.02-2.32c.01-2.9,1.08-5.67,3.03-7.83l6.06-6.72c1.66-1.84,2.57-4.21,2.57-6.68,0-3.62-2.96-6.56-6.61-6.56h-3.89c-3.64,0-6.61,2.94-6.61,6.56h-6.18c0-7,5.73-12.69,12.78-12.69h3.89M59.45,31.36h-3.89c-7.64,0-13.86,6.18-13.86,13.77v1.08h8.33v-1.08c0-3.02,2.48-5.48,5.53-5.48h3.89c3.05,0,5.53,2.46,5.53,5.48,0,2.2-.82,4.32-2.3,5.96l-6.06,6.72c-2.12,2.35-3.3,5.38-3.31,8.54l.02,2.33v1.07h8.27v-1.07s.03-2.32.03-2.32c0-1.12.41-2.16,1.19-3.02l6.07-6.72c2.86-3.16,4.43-7.25,4.43-11.49,0-7.59-6.22-13.77-13.86-13.77h0Z"/>
    </g>
  </g>
</svg>