<?xml version="1.0" encoding="UTF-8"?>
<svg id="Layer_1" xmlns="http://www.w3.org/2000/svg" version="1.1" viewBox="0 0 115 115">
  <!-- Generator: Adobe Illustrator 30.1.0, SVG Export Plug-In . SVG Version: 2.1.1 Build 136)  -->
  <circle id="Outer" cx="57.5" cy="57.5" r="48.43" fill="none" stroke="#000" stroke-width="18.15"/>
  <g>
    <g>
      <rect x="53.85" y="73.4" width="7.25" height="7.25"/>
      <path d="M59.66,74.84v4.37h-4.37v-4.37h4.37M62.53,71.96h-10.12v10.12h10.12v-10.12h0Z"/>
    </g>
    <g>
      <path d="M53.86,66.07l-.03-3.08c0-2.44.91-4.77,2.54-6.57l4.33-4.8c.95-1.05,1.47-2.4,1.47-3.81,0-1.79-1.47-3.25-3.28-3.25h-2.78c-1.81,0-3.28,1.46-3.28,3.25v1.44h-7.29v-1.44c0-5.79,4.74-10.5,10.57-10.5h2.78c5.83,0,10.57,4.71,10.57,10.5,0,3.2-1.18,6.28-3.33,8.66l-4.33,4.8c-.44.49-.67,1.08-.68,1.71l-.03,3.09h-7.22Z"/>
      <path d="M58.89,38.75c5.04,0,9.13,4.07,9.13,9.07,0,2.84-1.05,5.58-2.97,7.69l-4.33,4.8c-.67.74-1.04,1.66-1.05,2.66l-.02,1.65h-4.37v-1.65c0-2.07.76-4.05,2.15-5.59l4.33-4.8c1.19-1.31,1.84-3.01,1.84-4.77,0-2.58-2.12-4.69-4.72-4.69h-2.78c-2.6,0-4.72,2.1-4.72,4.69h-4.41c0-5,4.1-9.07,9.13-9.07h2.78M58.89,35.88h-2.78c-6.62,0-12.01,5.36-12.01,11.94v2.88h10.16v-2.88c0-1,.83-1.81,1.84-1.81h2.78c1.02,0,1.84.81,1.84,1.81,0,1.05-.39,2.06-1.1,2.84l-4.33,4.8c-1.86,2.06-2.9,4.73-2.91,7.51v1.69s.04,2.85.04,2.85h10.07l.03-2.85.02-1.65c0-.3.1-.54.3-.76l4.33-4.8c2.39-2.65,3.71-6.06,3.71-9.62,0-6.59-5.39-11.94-12.01-11.94h0Z"/>
    </g>
  </g>
</svg>