<?xml version="1.0" encoding="UTF-8"?>
<svg id="Layer_1" xmlns="http://www.w3.org/2000/svg" version="1.1" viewBox="0 0 115 115">
  <!-- Generator: Adobe Illustrator 30.1.0, SVG Export Plug-In . SVG Version: 2.1.1 Build 136)  -->
  <circle id="Outer" cx="57.5" cy="57.5" r="50.47" fill="none" stroke="#000" stroke-width="14.05"/>
  <g>
    <g>
      <rect x="53.86" y="74.96" width="7.21" height="7.21"/>
      <path d="M59.99,76.03v5.05h-5.05v-5.05h5.05M62.15,73.88h-9.37v9.37h9.37v-9.37h0Z"/>
    </g>
    <g>
      <path d="M53.88,67.27l-.03-2.98c0-2.67,1-5.22,2.78-7.19l5-5.54c1.19-1.32,1.85-3.02,1.85-4.79,0-2.39-1.96-4.34-4.38-4.34h-3.22c-2.41,0-4.38,1.95-4.38,4.34v1.08h-7.25v-1.08c0-6.37,5.22-11.56,11.63-11.56h3.22c6.41,0,11.63,5.19,11.63,11.56,0,3.55-1.32,6.97-3.71,9.62l-5.01,5.55c-.61.67-.93,1.49-.93,2.36l-.03,2.99h-7.19Z"/>
      <path d="M59.11,36.28c5.82,0,10.55,4.7,10.55,10.48,0,3.29-1.22,6.45-3.43,8.89l-5.01,5.55c-.78.86-1.21,1.92-1.21,3.08l-.02,1.91h-5.05l-.02-1.91c0-2.4.89-4.68,2.5-6.46l5.01-5.55c1.37-1.52,2.13-3.48,2.13-5.51,0-2.99-2.45-5.42-5.46-5.42h-3.22c-3.01,0-5.46,2.43-5.46,5.42h-5.1c0-5.78,4.73-10.48,10.55-10.48h3.22M59.11,34.12h-3.22c-7.01,0-12.71,5.67-12.71,12.64v2.16h9.41v-2.16c0-1.8,1.48-3.26,3.3-3.26h3.22c1.82,0,3.3,1.46,3.3,3.26,0,1.5-.56,2.95-1.57,4.07l-5.01,5.55c-1.96,2.17-3.05,4.97-3.06,7.9l.02,1.94.02,2.14h9.33l.02-2.13.02-1.91c0-.63.22-1.18.65-1.65l5.01-5.55c2.57-2.84,3.98-6.52,3.98-10.34,0-6.97-5.7-12.64-12.71-12.64h0Z"/>
    </g>
  </g>
</svg>