<?xml version="1.0" encoding="UTF-8"?>
<svg id="Layer_1" xmlns="http://www.w3.org/2000/svg" version="1.1" viewBox="0 0 115 115">
  <!-- Generator: Adobe Illustrator 30.1.0, SVG Export Plug-In . SVG Version: 2.1.1 Build 136)  -->
  <circle id="Outer" cx="57.5" cy="57.5" r="45.39" fill="none" stroke="#000" stroke-width="24.22"/>
  <g>
    <g>
      <rect x="53.78" y="71.05" width="7.38" height="7.38"/>
      <path d="M59.19,73.03v3.43h-3.43v-3.43h3.43M63.14,69.07h-11.33v11.33h11.33v-11.33h0Z"/>
    </g>
    <g>
      <path d="M53.81,64.49l-.03-3.26c0-2.14.79-4.16,2.21-5.73l3.39-3.76c.6-.67.93-1.52.93-2.42,0-.94-.77-1.7-1.72-1.7h-2.18c-.95,0-1.72.76-1.72,1.7v1.98h-7.41v-1.98c0-5.01,4.1-9.09,9.14-9.09h2.18c5.04,0,9.14,4.08,9.14,9.09,0,2.72-1.01,5.33-2.83,7.36l-3.4,3.76c-.21.23-.31.49-.31.77l-.03,3.27h-7.34Z"/>
      <path d="M58.59,42.23c3.95,0,7.16,3.19,7.16,7.11,0,2.23-.83,4.37-2.32,6.03l-3.4,3.76c-.53.58-.82,1.31-.82,2.09v1.3h-3.44v-1.3c0-1.63.59-3.17,1.69-4.38l3.4-3.76c.93-1.03,1.44-2.36,1.44-3.74,0-2.03-1.66-3.67-3.7-3.67h-2.18c-2.04,0-3.7,1.65-3.7,3.67h-3.46c0-3.92,3.21-7.11,7.16-7.11h2.18M58.59,38.27h-2.18c-6.13,0-11.11,4.96-11.11,11.06v3.95h10.04l-.81.9c-1.74,1.93-2.71,4.42-2.72,7.02v1.35s.05,3.92.05,3.92h11.26l.04-3.91v-.99s3.21-3.55,3.21-3.55c2.16-2.39,3.34-5.47,3.34-8.68,0-6.1-4.99-11.06-11.11-11.06h0ZM56.66,49.61h1.65c-.05.3-.19.58-.4.81l-1.25,1.39v-2.2h0Z"/>
    </g>
  </g>
</svg>