<?xml version="1.0" encoding="UTF-8"?>
<svg id="Layer_1" xmlns="http://www.w3.org/2000/svg" version="1.1" viewBox="0 0 115 115">
  <!-- Generator: Adobe Illustrator 30.1.0, SVG Export Plug-In . SVG Version: 2.1.1 Build 136)  -->
  <circle id="Outer" cx="57.5" cy="57.5" r="52.5" fill="none" stroke="#000" stroke-width="9.99"/>
  <g>
    <g>
      <rect x="53.87" y="76.49" width="7.2" height="7.2"/>
      <path d="M60.35,77.21v5.76h-5.76v-5.76h5.76M61.78,75.77h-8.64v8.64h8.64v-8.64h0Z"/>
    </g>
    <g>
      <path d="M53.88,68.55l-.03-2.89c.01-2.91,1.09-5.7,3.04-7.85l5.71-6.32c1.44-1.6,2.24-3.66,2.24-5.8,0-3.01-2.47-5.46-5.5-5.46h-3.67c-3.03,0-5.5,2.45-5.5,5.46v.72h-7.25v-.72c0-6.98,5.72-12.66,12.75-12.66h3.67c7.03,0,12.75,5.68,12.75,12.66,0,3.92-1.45,7.7-4.09,10.62l-5.71,6.32c-.78.86-1.19,1.91-1.19,3.03l-.03,2.89h-7.19Z"/>
      <path d="M59.33,33.74c6.63,0,12.03,5.36,12.03,11.95,0,3.75-1.39,7.35-3.91,10.14l-5.71,6.32c-.88.98-1.37,2.19-1.38,3.51l-.02,2.18h-5.76l-.02-2.18c0-2.73,1.02-5.33,2.85-7.36l5.71-6.32c1.56-1.73,2.42-3.96,2.42-6.28,0-3.4-2.79-6.17-6.22-6.17h-3.67c-3.43,0-6.22,2.77-6.22,6.17h-5.81c0-6.59,5.4-11.95,12.03-11.95h3.67M59.33,32.3h-3.67c-7.43,0-13.47,6-13.47,13.38v1.44h8.69v-1.44c0-2.61,2.14-4.74,4.78-4.74h3.67c2.64,0,4.78,2.12,4.78,4.74,0,1.97-.73,3.86-2.05,5.32l-5.71,6.32c-2.07,2.29-3.21,5.24-3.22,8.32l.02,2.2v1.42h8.62v-1.42s.04-2.18.04-2.18c0-.95.35-1.83,1.01-2.56l5.71-6.32c2.76-3.05,4.28-7,4.28-11.1,0-7.38-6.04-13.38-13.47-13.38h0Z"/>
    </g>
  </g>
</svg>