<?xml version="1.0" encoding="UTF-8"?>
<svg id="Layer_1" xmlns="http://www.w3.org/2000/svg" version="1.1" viewBox="0 0 121 121">
  <!-- Generator: Adobe Illustrator 30.1.0, SVG Export Plug-In . SVG Version: 2.1.1 Build 136)  -->
  <path d="M60.5,23.37c1.21,0,2.41.63,3.05,1.88l7.77,15.42c1.33,2.65,3.82,4.52,6.73,5.06l16.81,3.15c2.63.49,3.69,3.69,1.89,5.66l-12.24,13.44c-1.89,2.07-2.77,4.88-2.4,7.66l2.39,18.12c.29,2.16-1.44,3.87-3.38,3.87-.52,0-1.05-.12-1.56-.38l-14.7-7.57c-1.36-.7-2.85-1.05-4.34-1.05s-2.98.35-4.34,1.05l-14.7,7.57c-.51.26-1.04.38-1.56.38-1.94,0-3.67-1.71-3.38-3.87l2.39-18.12c.37-2.78-.51-5.58-2.4-7.65l-12.25-13.44c-1.8-1.98-.74-5.18,1.89-5.67l16.8-3.15c2.91-.54,5.39-2.42,6.72-5.06l7.77-15.42c.63-1.25,1.84-1.88,3.05-1.88M60.5,0c-10.17,0-19.34,5.65-23.91,14.73l-4.68,9.29-10.05,1.88c-9.54,1.79-17.38,8.62-20.46,17.82-3.08,9.21-.94,19.38,5.6,26.56l7.91,8.68-1.55,11.74c-1.01,7.65,1.32,15.36,6.4,21.16,5.09,5.81,12.44,9.14,20.14,9.14,4.24,0,8.48-1.03,12.26-2.98l8.34-4.3,8.34,4.3c3.78,1.95,8.02,2.98,12.26,2.98,7.71,0,15.05-3.33,20.14-9.14,5.08-5.79,7.41-13.5,6.4-21.16l-1.55-11.74,7.91-8.68c6.54-7.17,8.68-17.35,5.6-26.56-3.08-9.2-10.92-16.03-20.46-17.82l-10.06-1.88-4.68-9.29C79.84,5.65,70.67,0,60.5,0h0Z"/>
</svg>