<?xml version="1.0" encoding="UTF-8"?>
<svg id="Layer_1" xmlns="http://www.w3.org/2000/svg" version="1.1" viewBox="0 0 121 121">
  <!-- Generator: Adobe Illustrator 30.1.0, SVG Export Plug-In . SVG Version: 2.1.1 Build 136)  -->
  <path d="M60.5,25.49c1.14,0,2.28.59,2.87,1.77l7.33,14.54c1.26,2.5,3.6,4.26,6.34,4.77l15.85,2.97c2.48.46,3.48,3.48,1.78,5.34l-11.55,12.67c-1.78,1.95-2.61,4.6-2.26,7.22l2.25,17.08c.27,2.04-1.36,3.65-3.19,3.65-.49,0-.99-.11-1.47-.36l-13.86-7.14c-1.28-.66-2.69-.99-4.09-.99-1.4,0-2.81.33-4.09.99l-13.86,7.14c-.48.25-.98.36-1.47.36-1.83,0-3.46-1.61-3.19-3.65l2.25-17.09c.35-2.62-.48-5.26-2.26-7.21l-11.55-12.67c-1.7-1.87-.7-4.88,1.78-5.35l15.85-2.97c2.74-.51,5.08-2.28,6.34-4.77l7.33-14.54c.59-1.18,1.73-1.77,2.87-1.77M60.5,0C49.6,0,39.77,6.05,34.87,15.79l-3.65,7.24-7.8,1.46c-10.22,1.92-18.62,9.23-21.93,19.1-3.31,9.87-1,20.77,6,28.46l6.38,7-1.25,9.48c-1.08,8.2,1.42,16.47,6.87,22.67,5.46,6.23,13.33,9.8,21.59,9.8,4.54,0,9.09-1.1,13.14-3.19l6.29-3.24,6.29,3.24c4.05,2.09,8.6,3.19,13.14,3.19,8.26,0,16.13-3.57,21.59-9.8,5.44-6.21,7.95-14.47,6.86-22.67l-1.25-9.48,6.38-7c7.01-7.69,9.31-18.59,6-28.46-3.3-9.86-11.71-17.18-21.93-19.1l-7.8-1.46-3.65-7.24C81.22,6.05,71.4,0,60.5,0h0Z"/>
</svg>