<?xml version="1.0" encoding="UTF-8"?>
<svg id="Layer_1" xmlns="http://www.w3.org/2000/svg" version="1.1" viewBox="0 0 121 121">
  <!-- Generator: Adobe Illustrator 30.1.0, SVG Export Plug-In . SVG Version: 2.1.1 Build 136)  -->
  <path d="M60.5,14.78c1.49,0,2.97.77,3.75,2.31l9.56,18.98c1.64,3.26,4.7,5.56,8.28,6.23l20.69,3.88c3.23.61,4.55,4.54,2.33,6.97l-15.08,16.54c-2.33,2.55-3.41,6-2.96,9.43l2.94,22.3c.35,2.66-1.77,4.77-4.16,4.77-.63,0-1.29-.15-1.92-.47l-18.1-9.32c-1.68-.86-3.51-1.3-5.35-1.3-1.83,0-3.67.43-5.35,1.3l-18.1,9.32c-.63.33-1.29.47-1.92.47-2.39,0-4.51-2.11-4.16-4.77l2.94-22.31c.45-3.42-.63-6.87-2.95-9.42l-15.08-16.54c-2.22-2.44-.91-6.37,2.33-6.98l20.69-3.88c3.58-.67,6.64-2.97,8.28-6.23l9.57-18.99c.78-1.54,2.26-2.31,3.75-2.31M60.5,0C53.29,0,46.79,4,43.55,10.45l-8.88,17.62-19.17,3.59c-6.76,1.27-12.32,6.11-14.51,12.63-2.19,6.53-.67,13.75,3.97,18.83l14.11,15.49-2.76,20.9c-.72,5.43.94,10.89,4.53,15,3.62,4.12,8.82,6.49,14.28,6.49,3,0,6-.73,8.69-2.11l16.67-8.59,16.67,8.59c2.69,1.38,5.69,2.11,8.69,2.11,5.46,0,10.67-2.37,14.28-6.49,3.6-4.1,5.25-9.57,4.53-15l-2.76-20.9,14.12-15.49c4.64-5.09,6.16-12.3,3.97-18.83-2.19-6.52-7.74-11.36-14.5-12.63l-19.18-3.6-8.88-17.62C74.21,4,67.71,0,60.5,0h0Z"/>
</svg>