<?xml version="1.0" encoding="UTF-8"?>
<svg id="Layer_1" xmlns="http://www.w3.org/2000/svg" version="1.1" viewBox="0 0 121 121">
  <!-- Generator: Adobe Illustrator 30.1.0, SVG Export Plug-In . SVG Version: 2.1.1 Build 136)  -->
  <path d="M60.5,19.1c1.35,0,2.69.7,3.4,2.09l8.66,17.19c1.49,2.95,4.26,5.04,7.5,5.65l18.74,3.51c2.93.55,4.12,4.11,2.11,6.32l-13.65,14.98c-2.11,2.31-3.09,5.44-2.68,8.54l2.66,20.2c.32,2.41-1.6,4.32-3.77,4.32-.57,0-1.17-.13-1.74-.43l-16.39-8.44c-1.52-.78-3.18-1.17-4.84-1.17-1.66,0-3.32.39-4.84,1.17l-16.39,8.44c-.57.29-1.16.43-1.74.43-2.17,0-4.09-1.91-3.77-4.32l2.67-20.21c.41-3.1-.57-6.22-2.67-8.53l-13.65-14.98c-2.01-2.21-.82-5.77,2.11-6.32l18.74-3.51c3.24-.61,6.01-2.69,7.5-5.64l8.66-17.2c.7-1.4,2.05-2.09,3.4-2.09M60.5,0C51.8,0,43.96,4.83,40.05,12.6l-6.77,13.44-14.59,2.74c-8.16,1.53-14.86,7.37-17.5,15.24-2.64,7.87-.8,16.58,4.79,22.71l11,12.07-2.15,16.3c-.86,6.54,1.13,13.14,5.47,18.09,4.36,4.97,10.64,7.82,17.23,7.82,3.62,0,7.24-.88,10.48-2.55l12.49-6.43,12.49,6.43c3.24,1.67,6.86,2.55,10.48,2.55,6.59,0,12.87-2.85,17.23-7.82,4.34-4.95,6.34-11.55,5.47-18.09l-2.15-16.3,11-12.07c5.59-6.14,7.43-14.84,4.79-22.71-2.64-7.87-9.34-13.71-17.49-15.24l-14.6-2.74-6.77-13.44C77.03,4.83,69.2,0,60.5,0h0Z"/>
</svg>