<?xml version="1.0" encoding="UTF-8"?>
<svg id="Layer_1" xmlns="http://www.w3.org/2000/svg" version="1.1" viewBox="0 0 85 85">
  <!-- Generator: Adobe Illustrator 30.1.0, SVG Export Plug-In . SVG Version: 2.1.1 Build 136)  -->
  <path d="M42.5,13.41c.95,0,1.89.49,2.39,1.47l6.09,12.08c1.04,2.07,2.99,3.54,5.27,3.97l13.16,2.47c2.06.39,2.89,2.89,1.48,4.44l-9.59,10.53c-1.48,1.62-2.17,3.82-1.88,6l1.87,14.19c.22,1.69-1.13,3.03-2.65,3.03-.4,0-.82-.09-1.22-.3l-11.51-5.93c-1.07-.55-2.23-.82-3.4-.82s-2.33.27-3.4.82l-11.51,5.93c-.4.21-.82.3-1.22.3-1.52,0-2.87-1.34-2.65-3.03l1.87-14.2c.29-2.18-.4-4.37-1.88-5.99l-9.59-10.53c-1.41-1.55-.58-4.05,1.48-4.44l13.16-2.47c2.28-.43,4.22-1.89,5.27-3.96l6.09-12.08c.49-.98,1.44-1.47,2.39-1.47M42.5,0C36.39,0,30.88,3.39,28.13,8.85l-4.76,9.44-10.25,1.92c-5.73,1.07-10.44,5.18-12.29,10.7-1.85,5.53-.56,11.64,3.36,15.96l7.72,8.48-1.51,11.45c-.61,4.6.8,9.23,3.85,12.71,3.06,3.49,7.47,5.49,12.1,5.49,2.54,0,5.09-.62,7.36-1.79l8.77-4.52,8.77,4.52c2.27,1.17,4.82,1.79,7.36,1.79,4.63,0,9.04-2,12.1-5.49,3.05-3.48,4.45-8.11,3.85-12.71l-1.51-11.45,7.73-8.48c3.93-4.31,5.22-10.42,3.36-15.95-1.85-5.53-6.56-9.63-12.29-10.7l-10.25-1.92-4.76-9.44C54.11,3.39,48.61,0,42.5,0h0Z"/>
</svg>