<?xml version="1.0" encoding="UTF-8"?>
<svg id="Layer_1" xmlns="http://www.w3.org/2000/svg" version="1.1" viewBox="0 0 85 85">
  <!-- Generator: Adobe Illustrator 30.1.0, SVG Export Plug-In . SVG Version: 2.1.1 Build 136)  -->
  <path d="M42.5,17.9c.8,0,1.6.41,2.02,1.24l5.15,10.21c.88,1.75,2.53,2.99,4.46,3.35l11.13,2.09c1.74.33,2.45,2.44,1.25,3.75l-8.11,8.9c-1.25,1.37-1.83,3.23-1.59,5.07l1.58,12c.19,1.43-.95,2.57-2.24,2.57-.34,0-.69-.08-1.03-.25l-9.74-5.01c-.9-.46-1.89-.7-2.88-.7s-1.97.23-2.88.7l-9.74,5.01c-.34.17-.69.25-1.03.25-1.29,0-2.43-1.13-2.24-2.57l1.58-12c.24-1.84-.34-3.7-1.59-5.07l-8.11-8.9c-1.19-1.31-.49-3.43,1.25-3.75l11.13-2.09c1.92-.36,3.57-1.6,4.45-3.35l5.15-10.22c.42-.83,1.22-1.24,2.02-1.24M42.5,0C34.84,0,27.94,4.25,24.49,11.09l-2.56,5.09-5.48,1.03c-7.18,1.35-13.08,6.49-15.4,13.42-2.32,6.93-.71,14.59,4.22,19.99l4.48,4.91-.88,6.66c-.76,5.76,1,11.57,4.82,15.93,3.83,4.37,9.36,6.88,15.17,6.88,3.19,0,6.38-.78,9.23-2.24l4.42-2.27,4.42,2.27c2.85,1.47,6.04,2.24,9.23,2.24,5.8,0,11.33-2.51,15.17-6.88,3.82-4.36,5.58-10.17,4.82-15.93l-.88-6.66,4.48-4.92c4.92-5.4,6.54-13.06,4.22-19.99-2.32-6.93-8.22-12.07-15.4-13.41l-5.48-1.03-2.56-5.09C57.06,4.25,50.16,0,42.5,0h0Z"/>
</svg>