<?xml version="1.0" encoding="UTF-8"?>
<svg id="Layer_1" xmlns="http://www.w3.org/2000/svg" version="1.1" viewBox="0 0 56 56">
  <!-- Generator: Adobe Illustrator 30.1.0, SVG Export Plug-In . SVG Version: 2.1.1 Build 136)  -->
  <path d="M28,3.89c.78,0,1.57.41,1.98,1.22l5.05,10.01c.87,1.72,2.48,2.93,4.37,3.29l10.91,2.05c1.71.32,2.4,2.39,1.23,3.68l-7.95,8.73c-1.23,1.35-1.8,3.17-1.56,4.98l1.55,11.77c.19,1.4-.93,2.52-2.2,2.52-.33,0-.68-.08-1.01-.25l-9.55-4.92c-.88-.46-1.85-.68-2.82-.68-.97,0-1.93.23-2.82.68l-9.55,4.92c-.33.17-.68.25-1.01.25-1.26,0-2.38-1.11-2.2-2.52l1.55-11.77c.24-1.81-.33-3.62-1.56-4.97l-7.95-8.73c-1.17-1.29-.48-3.36,1.23-3.68l10.91-2.05c1.89-.35,3.5-1.57,4.37-3.29l5.05-10.02c.41-.81,1.19-1.22,1.98-1.22M28,0C25.68,0,23.6,1.29,22.55,3.36l-5.05,10.02c-.32.63-.92,1.09-1.61,1.22l-10.91,2.05c-2.17.41-3.96,1.96-4.66,4.06-.7,2.1-.21,4.42,1.28,6.06l7.95,8.73c.46.5.67,1.17.58,1.84l-1.55,11.77c-.23,1.75.3,3.5,1.45,4.82,1.16,1.33,2.84,2.09,4.59,2.09.96,0,1.93-.24,2.79-.68l9.55-4.92c.32-.17.68-.25,1.04-.25.36,0,.72.09,1.04.25l9.55,4.92c.86.45,1.83.68,2.79.68,1.75,0,3.43-.76,4.59-2.09,1.15-1.32,1.69-3.07,1.45-4.82l-1.55-11.77c-.09-.67.12-1.35.58-1.85l7.95-8.73c1.49-1.64,1.98-3.96,1.28-6.05-.7-2.1-2.49-3.65-4.66-4.06l-10.91-2.05c-.69-.13-1.3-.58-1.62-1.22l-5.05-10.01C32.4,1.29,30.32,0,28,0h0Z"/>
</svg>