<?xml version="1.0" encoding="UTF-8"?>
<svg id="Layer_1" xmlns="http://www.w3.org/2000/svg" version="1.1" viewBox="0 0 56 56">
  <!-- Generator: Adobe Illustrator 30.1.0, SVG Export Plug-In . SVG Version: 2.1.1 Build 136)  -->
  <path d="M28,11.8c.53,0,1.05.27,1.33.82l3.39,6.73c.58,1.15,1.67,1.97,2.94,2.21l7.33,1.37c1.15.21,1.61,1.61.83,2.47l-5.34,5.86c-.82.9-1.21,2.13-1.05,3.34l1.04,7.91c.12.94-.63,1.69-1.48,1.69-.22,0-.46-.05-.68-.17l-6.42-3.3c-.59-.31-1.24-.46-1.89-.46-.65,0-1.3.15-1.89.46l-6.42,3.3c-.22.12-.46.17-.68.17-.85,0-1.6-.75-1.48-1.69l1.04-7.91c.16-1.21-.22-2.44-1.05-3.34l-5.34-5.86c-.79-.86-.32-2.26.83-2.47l7.33-1.37c1.27-.24,2.35-1.05,2.93-2.21l3.39-6.73c.28-.55.8-.82,1.33-.82M28,0C22.95,0,18.41,2.8,16.14,7.31l-1.69,3.35-3.61.68c-4.73.89-8.62,4.27-10.15,8.84-1.53,4.57-.47,9.61,2.78,13.17l2.95,3.24-.58,4.39c-.5,3.8.66,7.62,3.18,10.49,2.53,2.88,6.17,4.53,9.99,4.53,2.1,0,4.2-.51,6.08-1.48l2.91-1.5,2.91,1.5c1.88.97,3.98,1.48,6.08,1.48,3.82,0,7.47-1.65,9.99-4.53,2.52-2.87,3.68-6.7,3.18-10.49l-.58-4.39,2.95-3.24c3.24-3.56,4.31-8.61,2.78-13.17-1.53-4.56-5.42-7.95-10.15-8.84l-3.61-.68-1.69-3.35C37.59,2.8,33.05,0,28,0h0Z"/>
</svg>