<?xml version="1.0" encoding="UTF-8"?>
<svg id="Layer_1" xmlns="http://www.w3.org/2000/svg" version="1.1" viewBox="0 0 56 56">
  <!-- Generator: Adobe Illustrator 30.1.0, SVG Export Plug-In . SVG Version: 2.1.1 Build 136)  -->
  <path d="M28,4.87c.75,0,1.5.39,1.9,1.17l4.84,9.61c.83,1.65,2.38,2.81,4.19,3.15l10.47,1.96c1.64.31,2.3,2.3,1.18,3.53l-7.63,8.37c-1.18,1.29-1.72,3.04-1.5,4.77l1.49,11.29c.18,1.35-.9,2.41-2.11,2.41-.32,0-.65-.07-.97-.24l-9.16-4.72c-.85-.44-1.78-.66-2.71-.66s-1.86.22-2.71.66l-9.16,4.72c-.32.16-.65.24-.97.24-1.21,0-2.28-1.07-2.11-2.41l1.49-11.29c.23-1.73-.32-3.48-1.49-4.77l-7.63-8.37c-1.12-1.23-.46-3.22,1.18-3.53l10.47-1.96c1.81-.34,3.36-1.5,4.19-3.15l4.84-9.61c.39-.78,1.15-1.17,1.9-1.17M28,0c-2.66,0-5.05,1.47-6.24,3.85l-4.84,9.61c-.15.29-.42.5-.74.56l-10.47,1.96c-2.49.47-4.54,2.25-5.34,4.65-.81,2.41-.25,5.06,1.46,6.94l7.63,8.37c.21.23.31.54.27.85l-1.49,11.29c-.26,2,.34,4.01,1.67,5.52,1.33,1.52,3.25,2.39,5.26,2.39,1.1,0,2.21-.27,3.2-.78l9.16-4.72c.15-.08.31-.12.48-.12s.33.04.48.12l9.16,4.72c.99.51,2.1.78,3.2.78,2.01,0,3.93-.87,5.26-2.39,1.32-1.51,1.93-3.52,1.67-5.52l-1.49-11.29c-.04-.31.06-.63.27-.86l7.63-8.37c1.71-1.87,2.27-4.53,1.46-6.94-.8-2.4-2.85-4.19-5.34-4.65l-10.47-1.96c-.32-.06-.6-.27-.74-.56l-4.84-9.61c-1.2-2.37-3.59-3.85-6.24-3.85h0Z"/>
</svg>